<svg width="40" height="28" viewBox="0 0 40 28" fill="none" xmlns="http://www.w3.org/2000/svg">
<g filter="url(#filter0_d_1728_5497)">
<path fill-rule="evenodd" clip-rule="evenodd" d="M33.557 18.713C33.557 19.374 33.019 19.912 32.358 19.912H7.64199C6.98099 19.912 6.44299 19.374 6.44299 18.713V5.287C6.44299 4.626 6.98099 4.088 7.64199 4.088H32.358C33.019 4.088 33.557 4.626 33.557 5.287V18.713ZM32.358 2.088H7.64199C5.87499 2.088 4.44299 3.52 4.44299 5.287V18.713C4.44299 20.48 5.87499 21.912 7.64199 21.912H32.358C34.125 21.912 35.557 20.48 35.557 18.713V5.287C35.557 3.52 34.125 2.088 32.358 2.088Z" fill="#00AE65"/>
<path fill-rule="evenodd" clip-rule="evenodd" d="M29.899 13.515C29.577 13.074 29.176 12.695 28.714 12.4C29.27 11.821 29.616 11.039 29.616 10.175C29.616 9.246 29.215 8.414 28.583 7.825H29.899V13.515ZM24.287 15.047C24.662 14.26 25.465 13.714 26.394 13.714C27.323 13.714 28.126 14.26 28.501 15.047H24.287ZM24.074 12.4C23.612 12.695 23.211 13.074 22.889 13.515V7.825H24.205C23.573 8.414 23.172 9.246 23.172 10.175C23.172 11.039 23.518 11.821 24.074 12.4ZM26.394 8.953C27.068 8.953 27.616 9.501 27.616 10.175C27.616 10.849 27.068 11.396 26.394 11.396C25.72 11.396 25.172 10.849 25.172 10.175C25.172 9.501 25.72 8.953 26.394 8.953ZM30.14 5.825H22.649C21.677 5.825 20.889 6.613 20.889 7.584V16.416C20.889 17.387 21.677 18.175 22.649 18.175H30.14C31.111 18.175 31.899 17.387 31.899 16.416V7.584C31.899 6.613 31.111 5.825 30.14 5.825Z" fill="#00AE65"/>
<path fill-rule="evenodd" clip-rule="evenodd" d="M17.729 15.7H9.26896C8.71596 15.7 8.26896 16.147 8.26896 16.7C8.26896 17.253 8.71596 17.7 9.26896 17.7H17.729C18.281 17.7 18.729 17.253 18.729 16.7C18.729 16.147 18.281 15.7 17.729 15.7Z" fill="#00AE65"/>
<path fill-rule="evenodd" clip-rule="evenodd" d="M17.7289 6.3H9.26708C8.71502 6.3 8.26698 6.747 8.26698 7.3C8.26698 7.853 8.71502 8.3 9.26708 8.3H17.7289C18.2809 8.3 18.729 7.853 18.729 7.3C18.729 6.747 18.2809 6.3 17.7289 6.3Z" fill="#00AE65"/>
<path fill-rule="evenodd" clip-rule="evenodd" d="M17.7289 11H9.26708C8.71502 11 8.26698 11.447 8.26698 12C8.26698 12.553 8.71502 13 9.26708 13H17.7289C18.2809 13 18.729 12.553 18.729 12C18.729 11.447 18.2809 11 17.7289 11Z" fill="#00AE65"/>
</g>
<defs>
<filter id="filter0_d_1728_5497" x="0.442993" y="0.0879974" width="39.114" height="27.824" filterUnits="userSpaceOnUse" color-interpolation-filters="sRGB">
<feFlood flood-opacity="0" result="BackgroundImageFix"/>
<feColorMatrix in="SourceAlpha" type="matrix" values="0 0 0 0 0 0 0 0 0 0 0 0 0 0 0 0 0 0 127 0" result="hardAlpha"/>
<feOffset dy="2"/>
<feGaussianBlur stdDeviation="2"/>
<feColorMatrix type="matrix" values="0 0 0 0 0.0196078 0 0 0 0 0.411765 0 0 0 0 0.435294 0 0 0 0.24 0"/>
<feBlend mode="normal" in2="BackgroundImageFix" result="effect1_dropShadow_1728_5497"/>
<feBlend mode="normal" in="SourceGraphic" in2="effect1_dropShadow_1728_5497" result="shape"/>
</filter>
</defs>
</svg>
