<svg width="40" height="40" viewBox="0 0 40 40" fill="none" xmlns="http://www.w3.org/2000/svg">
<g clip-path="url(#clip0_1728_5094)">
<g filter="url(#filter0_d_1728_5094)">
<path d="M16.3517 14.2348C16.3409 14.2348 16.3301 14.2348 16.3157 14.2348L6.01867 13.5536C5.73394 13.5358 5.5177 13.291 5.53572 13.0107C5.55374 12.7304 5.80242 12.5211 6.08715 12.5353L16.3841 13.2165C16.6689 13.2342 16.8851 13.4791 16.8671 13.7594C16.8491 14.029 16.622 14.2348 16.3517 14.2348Z" fill="#00AE65"/>
</g>
<g filter="url(#filter1_d_1728_5094)">
<path d="M14.4488 18.489C14.4344 18.489 14.4235 18.489 14.4091 18.489L7.56849 17.978C7.28376 17.9568 7.06751 17.7119 7.08914 17.4316C7.11076 17.1513 7.36305 16.9349 7.64417 16.9597L14.4848 17.4707C14.7695 17.492 14.9858 17.7368 14.9642 18.0171C14.9461 18.2867 14.7191 18.489 14.4488 18.489Z" fill="#00AE65"/>
</g>
<g filter="url(#filter2_d_1728_5094)">
<path d="M14.4488 26.6602C14.4344 26.6602 14.4235 26.6602 14.4091 26.6602L7.56849 26.1493C7.28376 26.128 7.06751 25.8832 7.08914 25.6029C7.11076 25.3226 7.36305 25.1097 7.64417 25.131L14.4848 25.6419C14.7695 25.6632 14.9858 25.908 14.9642 26.1883C14.9461 26.4545 14.7191 26.6602 14.4488 26.6602Z" fill="#00AE65"/>
</g>
<g filter="url(#filter3_d_1728_5094)">
<path d="M16.3517 22.7431C16.3409 22.7431 16.3301 22.7431 16.3157 22.7431L6.01867 22.0619C5.73394 22.0442 5.5177 21.7993 5.53572 21.5191C5.55374 21.2388 5.80242 21.0259 6.08715 21.0436L16.3841 21.7248C16.6689 21.7426 16.8851 21.9874 16.8671 22.2677C16.8491 22.5374 16.622 22.7431 16.3517 22.7431Z" fill="#00AE65"/>
</g>
<g filter="url(#filter4_d_1728_5094)">
<path d="M24.378 26.8305C24.1077 26.8305 23.8806 26.6248 23.8626 26.3551C23.8446 26.0748 24.0608 25.83 24.3456 25.8122L34.6426 25.131C34.9273 25.1133 35.176 25.3262 35.194 25.6065C35.212 25.8868 34.9958 26.1316 34.7111 26.1493L24.4141 26.8305C24.4032 26.8305 24.3924 26.8305 24.378 26.8305Z" fill="#00AE65"/>
</g>
<g filter="url(#filter5_d_1728_5094)">
<path d="M25.9278 21.8951C25.9242 21.8064 26.2738 21.6574 26.2738 21.5545C26.2738 21.5545 26.2593 20.8555 26.263 20.8094C26.3711 19.4824 27.2433 18.2903 28.5516 17.8077C28.9697 17.6516 29.0273 17.0981 28.6561 16.8604C26.9874 15.7924 27.5244 12.9823 29.8923 13.0568C32.1341 13.1278 32.5594 15.8314 30.9519 16.8604C30.5771 17.0981 30.642 17.6552 31.0564 17.8077C32.0404 18.1732 32.8081 18.9431 33.1577 19.9224C33.273 20.2453 33.673 20.3907 33.9866 20.1814C34.192 20.043 34.2569 19.7769 34.174 19.5463C33.8136 18.5493 33.118 17.719 32.217 17.1797C33.846 15.3383 32.8837 12.0917 29.9175 11.9853C26.8901 11.8789 25.6503 15.2176 27.3874 17.1797C25.9746 18.0277 25.1168 19.5747 25.1637 21.2139L25.1997 21.8951C25.1997 22.2358 25.5097 22.2358 25.5097 22.2358C25.5601 22.2322 25.9818 21.8739 25.9278 21.8951Z" fill="#00AE65"/>
</g>
<g filter="url(#filter6_d_1728_5094)">
<path d="M25.7369 22.5728C25.4666 22.5728 25.2395 22.367 25.2215 22.1009C25.1999 21.8206 25.4125 21.5758 25.7008 21.5545L31.1683 21.1323C31.453 21.1146 31.7017 21.3203 31.7233 21.6042C31.745 21.8845 31.5323 22.1293 31.244 22.1506L25.7765 22.5728C25.7621 22.5728 25.7477 22.5728 25.7369 22.5728Z" fill="#00AE65"/>
</g>
<g filter="url(#filter7_d_1728_5094)">
<path d="M36.7222 6.57446L26.5513 7.21312V7.22022C26.5477 7.22022 26.5405 7.22022 26.5369 7.22022C26.2522 7.22022 26.0215 7.44729 26.0215 7.72759C26.0215 8.00789 26.2522 8.23497 26.5369 8.23497C26.5405 8.23497 26.5477 8.23497 26.5513 8.23497V8.23852L36.751 7.59631C37.4178 7.59631 37.962 8.13208 37.962 8.78848V28.5336C37.962 29.19 37.4178 29.7258 36.7186 29.7258L26.1945 30.3857L26.2053 30.4035L20.518 30.7618L15.7209 30.4425L4.24898 29.7222C3.58221 29.7222 3.03799 29.1865 3.03799 28.5301V8.78848C3.03799 8.13208 3.58221 7.59631 4.21654 7.59631L19.9846 8.58623V26.6602H19.9954C20.0062 26.9299 20.2297 27.1428 20.5036 27.1428C20.7775 27.1428 21.001 26.9299 21.0118 26.6602H21.0226V12.0208V8.58623V8.08595C21.0118 7.81275 20.7847 7.59631 20.5072 7.59631C20.5036 7.59631 20.5036 7.59631 20.5 7.59631L4.24898 6.57446C3.00916 6.57446 2 7.56793 2 8.78848V28.5336C2 29.7542 3.02357 30.7476 4.21294 30.7441L20.4676 31.766C20.4784 31.766 20.4892 31.766 20.5 31.766C20.5108 31.766 20.5216 31.766 20.5324 31.766L36.751 30.7441C37.9908 30.7441 39 29.7506 39 28.5301V8.78848C39 7.56793 37.9944 6.57446 36.7222 6.57446Z" fill="#00AE65"/>
</g>
</g>
<defs>
<filter id="filter0_d_1728_5094" x="1.53467" y="10.5346" width="19.3335" height="9.70023" filterUnits="userSpaceOnUse" color-interpolation-filters="sRGB">
<feFlood flood-opacity="0" result="BackgroundImageFix"/>
<feColorMatrix in="SourceAlpha" type="matrix" values="0 0 0 0 0 0 0 0 0 0 0 0 0 0 0 0 0 0 127 0" result="hardAlpha"/>
<feOffset dy="2"/>
<feGaussianBlur stdDeviation="2"/>
<feColorMatrix type="matrix" values="0 0 0 0 0.0196078 0 0 0 0 0.411765 0 0 0 0 0.435294 0 0 0 0.24 0"/>
<feBlend mode="normal" in2="BackgroundImageFix" result="effect1_dropShadow_1728_5094"/>
<feBlend mode="normal" in="SourceGraphic" in2="effect1_dropShadow_1728_5094" result="shape"/>
</filter>
<filter id="filter1_d_1728_5094" x="3.08765" y="14.9578" width="15.8779" height="9.53116" filterUnits="userSpaceOnUse" color-interpolation-filters="sRGB">
<feFlood flood-opacity="0" result="BackgroundImageFix"/>
<feColorMatrix in="SourceAlpha" type="matrix" values="0 0 0 0 0 0 0 0 0 0 0 0 0 0 0 0 0 0 127 0" result="hardAlpha"/>
<feOffset dy="2"/>
<feGaussianBlur stdDeviation="2"/>
<feColorMatrix type="matrix" values="0 0 0 0 0.0196078 0 0 0 0 0.411765 0 0 0 0 0.435294 0 0 0 0.24 0"/>
<feBlend mode="normal" in2="BackgroundImageFix" result="effect1_dropShadow_1728_5094"/>
<feBlend mode="normal" in="SourceGraphic" in2="effect1_dropShadow_1728_5094" result="shape"/>
</filter>
<filter id="filter2_d_1728_5094" x="3.08765" y="23.1295" width="15.8779" height="9.5307" filterUnits="userSpaceOnUse" color-interpolation-filters="sRGB">
<feFlood flood-opacity="0" result="BackgroundImageFix"/>
<feColorMatrix in="SourceAlpha" type="matrix" values="0 0 0 0 0 0 0 0 0 0 0 0 0 0 0 0 0 0 127 0" result="hardAlpha"/>
<feOffset dy="2"/>
<feGaussianBlur stdDeviation="2"/>
<feColorMatrix type="matrix" values="0 0 0 0 0.0196078 0 0 0 0 0.411765 0 0 0 0 0.435294 0 0 0 0.24 0"/>
<feBlend mode="normal" in2="BackgroundImageFix" result="effect1_dropShadow_1728_5094"/>
<feBlend mode="normal" in="SourceGraphic" in2="effect1_dropShadow_1728_5094" result="shape"/>
</filter>
<filter id="filter3_d_1728_5094" x="1.53467" y="19.0426" width="19.3335" height="9.70056" filterUnits="userSpaceOnUse" color-interpolation-filters="sRGB">
<feFlood flood-opacity="0" result="BackgroundImageFix"/>
<feColorMatrix in="SourceAlpha" type="matrix" values="0 0 0 0 0 0 0 0 0 0 0 0 0 0 0 0 0 0 127 0" result="hardAlpha"/>
<feOffset dy="2"/>
<feGaussianBlur stdDeviation="2"/>
<feColorMatrix type="matrix" values="0 0 0 0 0.0196078 0 0 0 0 0.411765 0 0 0 0 0.435294 0 0 0 0.24 0"/>
<feBlend mode="normal" in2="BackgroundImageFix" result="effect1_dropShadow_1728_5094"/>
<feBlend mode="normal" in="SourceGraphic" in2="effect1_dropShadow_1728_5094" result="shape"/>
</filter>
<filter id="filter4_d_1728_5094" x="19.8616" y="23.13" width="19.3335" height="9.70056" filterUnits="userSpaceOnUse" color-interpolation-filters="sRGB">
<feFlood flood-opacity="0" result="BackgroundImageFix"/>
<feColorMatrix in="SourceAlpha" type="matrix" values="0 0 0 0 0 0 0 0 0 0 0 0 0 0 0 0 0 0 127 0" result="hardAlpha"/>
<feOffset dy="2"/>
<feGaussianBlur stdDeviation="2"/>
<feColorMatrix type="matrix" values="0 0 0 0 0.0196078 0 0 0 0 0.411765 0 0 0 0 0.435294 0 0 0 0.24 0"/>
<feBlend mode="normal" in2="BackgroundImageFix" result="effect1_dropShadow_1728_5094"/>
<feBlend mode="normal" in="SourceGraphic" in2="effect1_dropShadow_1728_5094" result="shape"/>
</filter>
<filter id="filter5_d_1728_5094" x="21.1619" y="9.98282" width="17.0471" height="18.2529" filterUnits="userSpaceOnUse" color-interpolation-filters="sRGB">
<feFlood flood-opacity="0" result="BackgroundImageFix"/>
<feColorMatrix in="SourceAlpha" type="matrix" values="0 0 0 0 0 0 0 0 0 0 0 0 0 0 0 0 0 0 127 0" result="hardAlpha"/>
<feOffset dy="2"/>
<feGaussianBlur stdDeviation="2"/>
<feColorMatrix type="matrix" values="0 0 0 0 0.0196078 0 0 0 0 0.411765 0 0 0 0 0.435294 0 0 0 0.24 0"/>
<feBlend mode="normal" in2="BackgroundImageFix" result="effect1_dropShadow_1728_5094"/>
<feBlend mode="normal" in="SourceGraphic" in2="effect1_dropShadow_1728_5094" result="shape"/>
</filter>
<filter id="filter6_d_1728_5094" x="21.22" y="19.1312" width="14.5049" height="9.44159" filterUnits="userSpaceOnUse" color-interpolation-filters="sRGB">
<feFlood flood-opacity="0" result="BackgroundImageFix"/>
<feColorMatrix in="SourceAlpha" type="matrix" values="0 0 0 0 0 0 0 0 0 0 0 0 0 0 0 0 0 0 127 0" result="hardAlpha"/>
<feOffset dy="2"/>
<feGaussianBlur stdDeviation="2"/>
<feColorMatrix type="matrix" values="0 0 0 0 0.0196078 0 0 0 0 0.411765 0 0 0 0 0.435294 0 0 0 0.24 0"/>
<feBlend mode="normal" in2="BackgroundImageFix" result="effect1_dropShadow_1728_5094"/>
<feBlend mode="normal" in="SourceGraphic" in2="effect1_dropShadow_1728_5094" result="shape"/>
</filter>
<filter id="filter7_d_1728_5094" x="-2" y="4.57446" width="45" height="33.1915" filterUnits="userSpaceOnUse" color-interpolation-filters="sRGB">
<feFlood flood-opacity="0" result="BackgroundImageFix"/>
<feColorMatrix in="SourceAlpha" type="matrix" values="0 0 0 0 0 0 0 0 0 0 0 0 0 0 0 0 0 0 127 0" result="hardAlpha"/>
<feOffset dy="2"/>
<feGaussianBlur stdDeviation="2"/>
<feColorMatrix type="matrix" values="0 0 0 0 0.0196078 0 0 0 0 0.411765 0 0 0 0 0.435294 0 0 0 0.24 0"/>
<feBlend mode="normal" in2="BackgroundImageFix" result="effect1_dropShadow_1728_5094"/>
<feBlend mode="normal" in="SourceGraphic" in2="effect1_dropShadow_1728_5094" result="shape"/>
</filter>
<clipPath id="clip0_1728_5094">
<rect width="37" height="25.1915" fill="white" transform="translate(2 6.57446)"/>
</clipPath>
</defs>
</svg>
