<svg width="172" height="48" viewBox="0 0 172 48" xmlns="http://www.w3.org/2000/svg">
    <g fill-rule="nonzero" fill="none">
        <path fill="#212844" d="M38.015 25.887h29.773v1H38.015zM141.756 25.887h29.773v1h-29.773zM24.856 3.347c.125-.085.275-.196.3-.397 2.156.11 5.282 1.757 6.517 3.116l-7.427-.025c.365-.391.74-1.234.695-1.746-.025-.256-.145-.371-.25-.426a.24.24 0 0 1-.025-.07l-.005-.02c-.08-.236.035-.317.195-.432"/>
        <path d="m33.283 5.494-.26.286c-2.93-2.694-5.046-3.642-9.027-4.039l.035-.386c3.986.381 6.327 1.43 9.252 4.14M24.626 4.456c0-.15-.03-.306-.105-.442l-.385.211c.035.06.05.14.05.23.025.493-.615 1.35-.875 1.476l.215.381c.435-.27 1.07-1.083 1.1-1.856" fill="#212844"/>
        <path d="M24.086 2.288a.611.611 0 0 0-.395-1.084.615.615 0 0 0-.395 1.084" fill="#FFF"/>
        <path d="M24.331 3.04c.15.096.335.126.515.066a.613.613 0 0 0-.375-1.17.61.61 0 0 0-.38.357" fill="#FFF"/>
        <path d="M23.711 3.507a.596.596 0 0 0 .1.512.613.613 0 1 0 .535-.973" fill="#FFF"/>
        <path d="M23.076 3.046a.613.613 0 1 0 .635.462" fill="#FFF"/>
        <path d="M23.3 2.288a.61.61 0 0 0-1.15.04.612.612 0 0 0 .91.708" fill="#FFF"/>
        <path d="M24.776 2.9c-.04.015-.085.01-.125.01a.98.98 0 0 0-.27-.075.209.209 0 0 0-.235.09c-.06.1-.03.231.065.291.095.06.2.09.31.11.04.026.075.056.105.096.13.18.09.432-.09.562a.4.4 0 0 1-.56-.09.323.323 0 0 1-.05-.12.814.814 0 0 0-.01-.292v-.03c0-.01-.01-.015-.01-.025-.005-.015-.01-.03-.02-.04a.06.06 0 0 0-.025-.025.218.218 0 0 0-.035-.03l-.035-.015-.03-.015h-.105c-.01.005-.015.01-.025.01a.1.1 0 0 0-.04.02.133.133 0 0 1-.025.03c-.01.01-.02.02-.025.03a.15.15 0 0 0-.02.04c-.005.01-.01.015-.01.025v.03a.814.814 0 0 0-.01.291c-.015.04-.025.086-.05.12a.389.389 0 0 1-.26.161.427.427 0 0 1-.3-.07.402.402 0 0 1-.09-.562.37.37 0 0 1 .115-.1c.045-.02.1-.04.15-.06.01 0 .015-.005.025-.01a.22.22 0 0 0 .2-.226c-.005-.096-.075-.166-.165-.19a.212.212 0 0 0-.165.01.933.933 0 0 0-.2.064.409.409 0 0 1-.155-.015.422.422 0 0 1-.235-.2.4.4 0 0 1 .48-.562.49.49 0 0 1 .11.065.8.8 0 0 0 .2.25c.01.006.02.006.03.01.01.006.025.016.035.02.015.006.03.006.045.01.01 0 .025.006.035.006.015 0 .03-.005.05-.01.01 0 .015 0 .025-.005.005 0 .005-.005.005-.005.015-.005.025-.015.04-.025.01-.01.02-.015.03-.025 0-.005.005-.005.005-.005a.11.11 0 0 1 .015-.026c.005-.015.015-.025.02-.04.005-.015.005-.025.01-.04 0-.015.005-.025.005-.04s-.005-.03-.01-.045c-.005-.01 0-.02-.005-.03 0-.005-.005-.01-.005-.01 0-.005-.005-.005-.005-.01a.816.816 0 0 0-.165-.246.35.35 0 0 1-.025-.126c0-.22.18-.401.4-.401.22 0 .4.18.4.401 0 .046-.015.086-.03.126a.794.794 0 0 0-.165.24c-.005.006-.005.01-.005.01l-.005.02c-.005.01-.005.02-.005.03-.005.016-.005.031-.01.046 0 .015 0 .025.005.04 0 .015.005.025.01.04s.015.025.02.04c.005.01.005.02.015.026l.005.005c.015.015.03.025.045.035l.025.015s.005 0 .005.005c.015.005.03.005.05.01.01 0 .02.005.03.005h.005c.045 0 .085-.02.125-.045.005 0 .01 0 .01-.005l.01-.01.01-.01a.8.8 0 0 0 .18-.231.49.49 0 0 1 .11-.065.403.403 0 0 1 .505.26.41.41 0 0 1-.265.502m.665-.637a.818.818 0 0 0-.93-.557.822.822 0 0 0-1.63 0 .829.829 0 0 0-.885 1.19c.085.17.23.29.405.366a.83.83 0 0 0 .85 1.22c.18-.031.34-.122.465-.252.16.166.375.26.595.26.17 0 .335-.05.485-.155.34-.25.43-.712.23-1.073a.842.842 0 0 0 .415-.999" fill="#212844"/>
        <path d="M24.576 2.755v-.03c.06-.03.1-.086.09-.156-.01-.07-.07-.11-.14-.115-.005-.01-.005-.02-.01-.03.05-.046.07-.116.035-.176-.035-.06-.105-.08-.17-.06a.11.11 0 0 1-.02-.025c.03-.06.025-.13-.03-.181-.055-.045-.125-.035-.18.005-.01-.005-.02-.01-.025-.015.005-.065-.02-.135-.085-.156-.065-.025-.13.01-.165.06-.01-.004-.025 0-.035-.004-.015-.066-.065-.12-.135-.12s-.12.054-.135.12h-.015a.151.151 0 0 0-.185-.086.155.155 0 0 0-.09.186s-.005.005-.01.005a.153.153 0 0 0-.205-.01.15.15 0 0 0-.02.206l-.01.01a.143.143 0 0 0-.19.055c-.04.065-.015.15.045.196 0 .005-.005.015-.005.02a.146.146 0 0 0-.165.12c-.015.08.04.15.115.17v.02a.148.148 0 0 0-.105.161.152.152 0 0 0 .16.12c0 .006.005.01.005.02-.05.046-.075.121-.035.181a.137.137 0 0 0 .18.056l.015.015c-.03.06-.03.135.025.18.055.046.13.04.185-.005.005.005.015.01.02.01-.01.066.02.136.085.161.065.025.13-.005.165-.06.01 0 .02 0 .03.005.015.065.065.12.135.12s.12-.055.135-.12c.01 0 .02 0 .035-.005.04.055.1.085.165.06.065-.025.095-.09.085-.16.01-.006.02-.01.025-.016a.15.15 0 0 0 .18.005c.055-.045.06-.12.03-.18a.11.11 0 0 0 .02-.025c.065.02.135 0 .17-.06s.015-.131-.03-.176c.005-.01.005-.02.01-.03.065-.005.13-.045.14-.116.015-.065-.03-.12-.09-.15M9.657 3.347c-.125-.085-.275-.196-.3-.397-2.155.11-5.281 1.757-6.516 3.116l7.427-.025c-.365-.391-.74-1.234-.696-1.746.025-.256.145-.371.25-.426a.24.24 0 0 0 .025-.07l.005-.02c.08-.236-.035-.317-.195-.432" fill="#212844"/>
        <path d="m1.23 5.494.26.286c2.931-2.694 5.047-3.642 9.028-4.039l-.035-.386c-3.986.381-6.327 1.43-9.253 4.14M9.888 4.456c0-.15.03-.306.105-.442l.385.211a.464.464 0 0 0-.05.23c-.025.493.615 1.35.875 1.476l-.215.381c-.435-.27-1.07-1.083-1.1-1.856" fill="#212844"/>
        <path d="M10.428 2.288a.611.611 0 0 1 .395-1.084.615.615 0 0 1 .395 1.084" fill="#FFF"/>
        <path d="M10.183 3.04a.598.598 0 0 1-.516.066.613.613 0 0 1 .375-1.17c.18.061.316.192.38.357" fill="#FFF"/>
        <path d="M10.803 3.507c.045.171.01.357-.1.512a.613.613 0 1 1-.535-.973" fill="#FFF"/>
        <path d="M11.438 3.046a.613.613 0 1 1-.635.462" fill="#FFF"/>
        <path d="M11.213 2.288c.065-.16.2-.296.38-.356.32-.106.67.07.77.396a.612.612 0 0 1-.91.708" fill="#FFF"/>
        <path d="M12.138 2.7a.406.406 0 0 1-.235.2c-.05.015-.105.02-.155.015a.933.933 0 0 0-.2-.065.199.199 0 0 0-.16-.01.208.208 0 0 0-.165.19c-.01.121.08.222.2.227.01 0 .015.005.025.01.05.02.1.04.155.055a.37.37 0 0 1 .115.1c.13.18.09.432-.09.562a.386.386 0 0 1-.295.07.389.389 0 0 1-.26-.16.323.323 0 0 1-.05-.12.814.814 0 0 0-.01-.292v-.03c0-.01-.01-.015-.01-.025a.15.15 0 0 0-.02-.04l-.03-.03c-.01-.01-.015-.02-.03-.025-.015-.01-.03-.015-.045-.02-.01-.005-.015-.01-.025-.01h-.01c-.015-.005-.03 0-.05 0H10.748l-.03.015-.035.015c-.015.01-.025.02-.035.03l-.025.025c-.01.015-.015.03-.02.04-.005.01-.01.015-.01.025v.03a.814.814 0 0 0-.01.291c-.015.04-.025.086-.05.12a.389.389 0 0 1-.26.161.427.427 0 0 1-.3-.07.39.39 0 0 1-.16-.26.43.43 0 0 1 .07-.302c.03-.04.065-.07.105-.095a.85.85 0 0 0 .31-.11c.1-.06.13-.196.07-.292a.204.204 0 0 0-.23-.09.862.862 0 0 0-.276.075c-.04 0-.085 0-.125-.01a.422.422 0 0 1-.235-.2.407.407 0 0 1-.025-.307.422.422 0 0 1 .2-.235.382.382 0 0 1 .306-.025c.04.015.075.04.11.065a.8.8 0 0 0 .19.24l.01.01c.005 0 .01 0 .01.006.035.025.08.045.125.045.01 0 .015-.005.025-.005.02 0 .035 0 .055-.01h.005l.025-.015a.18.18 0 0 0 .05-.035l.005-.005c.005-.005.01-.015.015-.025a.15.15 0 0 0 .02-.04c.005-.016.005-.026.01-.04 0-.016.005-.026.005-.04a.147.147 0 0 0-.01-.046c0-.01 0-.02-.005-.03 0-.005-.005-.005-.005-.01s-.005-.01-.005-.01a.794.794 0 0 0-.165-.241.355.355 0 0 1-.03-.126c0-.22.18-.401.4-.401.22 0 .4.18.4.401 0 .046-.015.086-.03.126a.759.759 0 0 0-.165.246c0 .005-.005.005-.005.01s-.005.005-.005.01c-.005.005-.005.015-.005.025-.005.015-.01.03-.01.045s0 .025.005.04.005.025.01.04.015.025.02.035c.005.01.005.02.015.026.005 0 .005.005.01.005.01.01.02.015.03.025.01.01.025.02.035.025.005 0 .005.005.005.005.01.005.015 0 .025.005.015.005.03.01.05.01.01 0 .02-.005.035-.005.015 0 .03-.005.045-.01s.025-.015.035-.02c.01-.005.02-.005.025-.015l.01-.01.01-.01a.8.8 0 0 0 .18-.231c.035-.025.07-.055.11-.065a.403.403 0 0 1 .48.567m.43-.437a.834.834 0 0 0-.935-.557.826.826 0 0 0-.815-.717c-.42 0-.76.316-.815.717a.782.782 0 0 0-.52.075.831.831 0 0 0-.36 1.114c.08.16.214.271.374.351a.82.82 0 0 0 .225 1.084.805.805 0 0 0 .616.15c.18-.03.34-.12.465-.25a.798.798 0 0 0 .595.256.827.827 0 0 0 .72-1.23c.17-.075.315-.2.405-.366a.85.85 0 0 0 .045-.627" fill="#212844"/>
        <path d="M11.678 2.76v-.02a.155.155 0 0 0 .115-.17.146.146 0 0 0-.165-.121c0-.005-.005-.015-.005-.02.06-.046.085-.126.045-.196a.146.146 0 0 0-.195-.055l-.01-.01a.148.148 0 0 0-.02-.201.148.148 0 0 0-.205.015c-.005 0-.005-.005-.01-.005a.15.15 0 0 0-.09-.186c-.075-.03-.145.015-.175.086h-.015c-.015-.066-.065-.12-.135-.12s-.12.05-.135.12c-.01 0-.025 0-.035.005-.04-.056-.1-.086-.165-.06-.065.025-.095.09-.085.16l-.03.015c-.055-.04-.125-.05-.18-.005-.055.045-.06.12-.03.18a.11.11 0 0 0-.02.026c-.065-.02-.135 0-.17.06s-.015.13.035.176c-.005.01-.005.02-.01.03-.07-.005-.13.035-.14.105-.01.07.03.126.09.156v.03c-.06.03-.1.085-.09.155.01.07.075.11.14.116.005.01.005.02.01.03-.05.045-.07.115-.035.175.035.06.105.08.17.06.005.006.01.016.02.026-.03.06-.025.13.03.175.055.046.125.035.18 0 .01.005.02.01.025.015-.005.066.02.136.09.161.065.025.13-.005.165-.06.01 0 .02 0 .035.005.015.065.065.12.135.12s.12-.05.135-.12c.01 0 .02 0 .03-.005.04.055.1.085.165.06.065-.025.095-.09.09-.16.005-.006.015-.006.02-.01.055.045.13.05.185.004.055-.045.06-.12.025-.18l.015-.015c.065.025.145.005.18-.06.035-.06.015-.136-.035-.181 0-.005.005-.01.005-.015a.148.148 0 0 0 .16-.12.156.156 0 0 0-.11-.171M17.254 19.449a1.75 1.75 0 0 1-1.745-1.751c0-.116.095-.211.215-.211s.21.095.21.21c0 .733.595 1.325 1.32 1.325.73 0 1.32-.592 1.32-1.324 0-.116.096-.211.21-.211.116 0 .21.095.21.21a1.74 1.74 0 0 1-1.74 1.752" fill="#212844"/>
        <path d="M17.254 18.661a1.071 1.071 0 0 1-1.065-1.069c0-.115.095-.215.21-.215.115 0 .21.095.21.215 0 .357.29.643.64.643.355 0 .64-.291.64-.643 0-.115.096-.215.21-.215.116 0 .21.095.21.215a1.053 1.053 0 0 1-1.055 1.07M17.574 20.392c.04 0 .07-.005.09-.015a.19.19 0 0 0 .1-.115.238.238 0 0 0-.01-.156.147.147 0 0 0-.06-.065l-.08-.06.03-.09c.015-.04.015-.07.015-.096a.209.209 0 0 0-.08-.13c-.06-.046-.14-.06-.235.01l-.08.06-.08-.06a.198.198 0 0 0-.115-.045.203.203 0 0 0-.12.04c-.07.05-.095.14-.07.225l.03.096-.085.055a.232.232 0 0 0-.07.07.186.186 0 0 0-.01.156c.025.08.1.135.19.135h.095l.035.09c.055.171.32.171.375 0l.03-.095.105-.01zM11.853 13.648c.06 0 .105-.015.125-.045.025-.03.035-.065.035-.115v-2.504a.81.81 0 0 0-.105.005c-.04.005-.075.015-.11.025a.262.262 0 0 0-.085.06.137.137 0 0 0-.035.1h-.08v-.677h.08c0 .085.03.126.085.126.055 0 .115-.02.195-.056.075-.035.115-.08.115-.14 0-.085-.05-.126-.155-.126v-.08h.785v.08c-.055 0-.09.016-.105.036-.02.025-.025.07-.025.13v3.016c0 .05.01.085.035.115.02.03.065.045.125.045v.08h-.875v-.075h-.005zM15.289 11.661c.13 0 .25-.01.37-.03.12-.02.22-.05.31-.095a.612.612 0 0 0 .22-.16.376.376 0 0 0 .085-.247c0-.095-.03-.18-.085-.245a.687.687 0 0 0-.22-.166 1.124 1.124 0 0 0-.31-.095 2.195 2.195 0 0 0-.735 0c-.12.02-.225.05-.315.095a.569.569 0 0 0-.22.166.376.376 0 0 0-.085.245c0 .096.03.181.085.246.055.066.13.12.22.16.09.041.195.076.315.096.12.02.24.03.365.03m0 .417c-.145 0-.285.015-.42.045s-.25.07-.35.125c-.1.056-.18.12-.24.201-.06.08-.09.17-.09.271 0 .1.03.19.09.271.06.08.14.146.24.2.1.056.22.096.35.126.13.03.27.045.42.045.15 0 .285-.015.42-.045.13-.03.25-.07.35-.125.1-.055.18-.12.245-.201.06-.08.09-.17.09-.27a.421.421 0 0 0-.09-.272.705.705 0 0 0-.245-.2 1.37 1.37 0 0 0-.35-.126 1.925 1.925 0 0 0-.42-.045m-.955-.206a.747.747 0 0 1-.39-.25.686.686 0 0 1-.14-.442.78.78 0 0 1 .11-.422c.075-.12.18-.226.31-.311.135-.085.29-.15.47-.196.18-.045.38-.065.59-.065.21 0 .41.02.59.065s.34.11.47.196c.13.085.235.186.31.311.075.12.115.261.115.422a.686.686 0 0 1-.14.441.727.727 0 0 1-.39.251v.005c.185.05.34.15.465.301a.81.81 0 0 1 .185.532.9.9 0 0 1-.12.467.993.993 0 0 1-.33.33c-.14.086-.31.151-.505.186a3.682 3.682 0 0 1-.645.056c-.23 0-.45-.02-.645-.056-.195-.04-.365-.1-.51-.185a.95.95 0 0 1-.33-.331.888.888 0 0 1-.12-.467c0-.2.06-.376.185-.532a.84.84 0 0 1 .465-.3v-.006zM17.534 10.066c0 .06.01.1.035.125.02.025.065.035.135.035h2.676c.065 0 .11-.01.135-.035a.197.197 0 0 0 .035-.125h.08v.547l-1.56 2.855c-.01.02-.02.04-.03.055a.114.114 0 0 0-.015.065c0 .04.04.06.12.06v.08h-.92v-.08c.085 0 .145-.02.175-.055.035-.04.075-.1.125-.19l1.455-2.7h-2.266c-.065 0-.11.015-.135.04-.025.025-.035.07-.035.125h-.08v-.807h.07v.005zM21.926 13.648c.06 0 .105-.015.125-.045a.198.198 0 0 0 .035-.115v-2.504a.81.81 0 0 0-.105.005c-.04.005-.075.015-.11.025a.262.262 0 0 0-.085.06.162.162 0 0 0-.035.1h-.08v-.677h.08c0 .085.03.126.085.126.055 0 .115-.02.19-.056.075-.035.115-.08.115-.14 0-.085-.05-.126-.155-.126v-.08h.785v.08c-.055 0-.09.016-.105.036-.02.025-.025.07-.025.13v3.016c0 .05.01.085.035.115.02.03.065.045.125.045v.08h-.875v-.075z" fill="#212844"/>
        <path d="M21.03 19.303c-.21.301-.235.798-.075 1.47a.654.654 0 0 1-.135.548c-.195.245-.55.416-.875.416-.505 0-.93-.336-1.01-.803a.214.214 0 0 0-.205-.175.216.216 0 0 0-.22.14c-.18.537-.685.893-1.25.893a1.326 1.326 0 0 1-1.25-.893l-.016-.025a.08.08 0 0 0-.02-.035l-.03-.03a.105.105 0 0 0-.03-.02.08.08 0 0 0-.045-.015.038.038 0 0 1-.02-.01h-.01c-.015-.005-.035 0-.05 0-.01 0-.02 0-.03.005h-.015c-.015.005-.02.015-.035.02a.11.11 0 0 0-.025.015.117.117 0 0 0-.035.035c-.005.01-.015.015-.02.025a.081.081 0 0 0-.015.045c-.005.01-.01.015-.01.025-.08.467-.505.803-1.01.803-.33 0-.68-.166-.876-.416a.638.638 0 0 1-.14-.547c.16-.673.135-1.165-.075-1.47a.833.833 0 0 0-.155-.166.417.417 0 0 1 .35-.176c.226 0 .406.18.406.402 0 .075-.005.737.345 1.098.145.151.335.231.55.231.56 0 .82-.481.915-.908.07.035.135.07.19.095 0 .256.04.743.33 1.08.2.23.475.35.82.355h.01c.345-.005.62-.125.82-.356.29-.336.33-.818.33-1.079.06-.025.13-.06.206-.1.095.427.355.913.915.913.215 0 .405-.08.55-.23.355-.362.345-1.024.345-1.094 0-.226.18-.407.405-.407.145 0 .28.07.35.176a.71.71 0 0 0-.155.165m-.2-.767c-.46 0-.83.376-.83.838.005.15-.03.592-.225.792a.313.313 0 0 1-.245.1c-.51 0-.54-.857-.54-.862-.005-.116-.095-.226-.215-.206a.223.223 0 0 0-.155.06c-.19.19-.47.261-.475.261a.21.21 0 0 0-.16.23c0 .006.06.603-.22.924-.12.136-.286.206-.506.211-.22-.005-.385-.07-.505-.21-.285-.327-.22-.919-.22-.924a.214.214 0 0 0-.16-.23c-.005 0-.285-.071-.475-.262a.105.105 0 0 0-.03-.02c-.01-.01-.02-.02-.035-.025a.16.16 0 0 0-.07-.015c-.005 0-.005-.005-.01-.005h-.005a.21.21 0 0 0-.15.06c-.005.005-.005.01-.01.015a.18.18 0 0 0-.035.05.147.147 0 0 0-.01.046c0 .01-.005.02-.005.035 0 .01-.025.863-.54.863-.1 0-.18-.03-.245-.1-.195-.201-.23-.638-.225-.798a.833.833 0 0 0-.83-.833c-.41 0-.76.286-.826.672-.01.055 0 .115.035.16.035.046.08.076.14.086 0 0 .065.015.12.105.07.116.165.417 0 1.11-.075.31.005.636.215.907.275.352.75.577 1.21.577.53 0 .996-.27 1.251-.682a1.736 1.736 0 0 0 2.85-.005c.25.416.72.692 1.256.692.46 0 .93-.225 1.21-.577.215-.27.29-.597.215-.908-.165-.697-.07-.993 0-1.109.055-.095.11-.105.11-.105.06-.005.11-.04.145-.085a.213.213 0 0 0 .04-.166.852.852 0 0 0-.84-.667M31.798 16.483H2.716V7.291h29.082v9.192zm.465-9.348v-.31H2.251v10.12h30.007v-9.81h.005z" fill="#212844"/>
        <g fill="#212844">
            <path d="m12.063 17.542-.4.14a2.051 2.051 0 0 1-2.49 2.644c-.696-.23-1.521-.576-2.316-.907-.77-.321-1.496-.622-2.04-.798-.66-.21-1.121-.146-1.416.21a.21.21 0 0 0 .03.302c.09.075.225.06.3-.03.1-.12.275-.236.71-.14a.928.928 0 0 1-.925.912.928.928 0 0 1 0-1.856h.01c.725-.02 1.76.306 2.85.662 1.17.382 2.376.773 3.381.773h.005c.456 0 .906-.236 1.156-.657.19-.322.245-.708.14-1.07l-.32.091-.465-.22-1.336.004-.34-.205c-.04.065-.07.135-.1.205l-3.56.01.35.276c-.656-.19-1.261-.32-1.771-.296H3.51a1.355 1.355 0 0 0 .01 2.71 1.35 1.35 0 0 0 1.335-1.214c.51.175 1.16.441 1.846.727.805.336 1.64.683 2.35.918h.01c.22.06.445.096.675.096a2.48 2.48 0 0 0 2.471-2.479 2.773 2.773 0 0 0-.145-.808M31.023 17.587h-.01c-.505-.02-1.11.11-1.77.301l.35-.276-3.561-.01c-.03-.07-.06-.14-.095-.205l-.336.205-1.34-.005-.465.221-.32-.09c-.1.361-.05.747.14 1.069.25.421.7.652 1.155.657h.005c1 0 2.21-.391 3.381-.773 1.09-.356 2.116-.692 2.85-.662h.01a.928.928 0 0 1 0 1.856.928.928 0 0 1-.924-.913c.445-.095.62.03.71.14.075.091.21.106.3.03a.22.22 0 0 0 .03-.3c-.295-.357-.755-.422-1.415-.211-.55.176-1.276.482-2.046.798-.795.33-1.62.677-2.316.908a2.051 2.051 0 0 1-2.486-2.644l-.4-.14a2.48 2.48 0 0 0 2.336 3.287c.23-.001.455-.031.675-.097h.01c.71-.235 1.546-.587 2.351-.918a33.88 33.88 0 0 1 1.846-.727 1.348 1.348 0 0 0 2.69-.14 1.378 1.378 0 0 0-1.355-1.36"/>
            <path d="M32.608 17.321H1.855V6.453h30.753V17.32zM14.888 4h4.742c-.07.306-.085.622-.035.938.045.307.155.598.305.854h-5.281c.15-.256.255-.547.305-.854.05-.316.03-.637-.035-.938m-.485.853a2.26 2.26 0 0 0-.24-1.435h6.186a2.263 2.263 0 0 0-.245 1.435c.06.346.2.668.395.944h-.3a2.167 2.167 0 0 1-.355-.904 2.279 2.279 0 0 1 .13-1.174H14.53c.145.366.195.768.13 1.174-.05.331-.175.643-.355.904h-.3c.205-.281.345-.603.4-.944m.96-3.327h3.786c.325.487.805.884 1.25 1.2h-.415l-.97-.894h-3.526l-.97.894h-.405c.445-.316.925-.713 1.25-1.2m19 3.101c-1.686-1.615-3.446-2.774-5.382-3.532-1.355-.532-2.79-.868-4.44-1.049L24.105 0l-.235.371-.52.823.33.211.625-.989c2.89.281 6.212 1.15 9.618 4.346l.02.02-.02.02c-.12.12-.25.24-.38.366-.24.231-.49.467-.72.708l-.016.015-.02-.015c-2.445-2.083-4.066-3.071-7.552-3.668v.391c3.111.547 4.567 1.305 6.862 3.202H21.06a1.84 1.84 0 0 1-.225-2.378v-.93l-.095-.064c-.48-.327-1.005-.763-1.285-1.23l-.065-.11h-4.281l-.065.11c-.28.472-.8.903-1.286 1.23l-.095.065v.923a1.834 1.834 0 0 1-.225 2.379H2.401C4.72 3.874 6.187 3.12 9.382 2.574v-.401c-3.57.597-5.2 1.585-7.672 3.693l-.02.015-.015-.015c-.235-.241-.48-.477-.72-.708l-.38-.366-.02-.02.02-.02C3.986 1.556 7.302.687 10.193.406l.625.989.33-.21-.515-.824-.23-.361-.435.045c-1.65.18-3.086.517-4.442 1.049C3.591 1.852 1.83 3.01.145 4.626L0 4.766l.14.141c.175.176.365.362.55.537l.5.487v12.053h32.078V5.98c.18-.18.366-.361.546-.537.185-.175.375-.361.55-.537l.14-.14-.14-.14z"/>
        </g>
        <g fill="#212844">
            <path d="M131.658 12.299c-.105.436-.63.983-1.365 1.495-.455.306-1.345.768-2.596.878.45-.497.93-.943 1.75-1.56 1.221-.919 1.831-1.165 1.981-1.165.1 0 .16.045.19.086.05.06.065.16.04.266m.596-.512c-.136-.176-.38-.271-.696-.271-.875.005-2.505.642-3.936 1.851-1.005.853-1.565 1.455-1.905 1.962l-.005-.005s-.685 1.029-1.3 1.56c-.436.377-.156.578.29.232.135-.106.325-.256.525-.417-.005.291.065.547.225.753.245.32.665.507 1.15.507h.005c.48 0 .99-.12 1.706-.427 2.47-1.049 3.22-1.867 2.995-2.097-.03-.06-.62.537-1.535 1.048-.32.156-.62.296-.905.417-.035.01-.07.03-.105.04-.876.361-1.566.537-1.976.537a.558.558 0 0 1-.45-.206.639.639 0 0 1-.095-.527c.065-.276.21-.547.485-.893l.015-.02.025-.005c2.43-.652 5.216-2.027 5.572-3.502.05-.211.02-.397-.085-.537M171.468 9.413c-.375 0-.755.306-.845.683-.09.376.135.682.51.682s.756-.306.846-.682c.095-.382-.135-.683-.51-.683"/>
        </g>
        <g fill="#212844">
            <path d="M171.153 11.56h-1.435l-3.68 4.04c-1.171 1.184-.736 2.369.394 2.369.12 0 .37.02.825-.136a.15.15 0 0 0 .05-.02c.05-.02.11-.04.165-.065 2.096-.828 3.286-2.062 3.071-2.288-.045-.08-.975 1.043-2.725 1.766-.46.15-.85.19-.996.19-.64 0-.52-.642.155-1.299l4.176-4.556zM95.364 9.318c.015-.03.04-.06.075-.105.095-.11.2-.226.31-.347.82-.868 2.02-1.911 2.02-1.911 1.331-1.21 2.982-2.51 3.982-3.081 2.395-1.375 5.756-1.56 3.19.833-.79.737-2.145 1.856-3.66 2.694-.836.462-2.501 1.17-4.306 1.701-.406.11-1.026.236-1.61.216-.006 0 0 0 0 0m-.936.989a.628.628 0 0 1 .05-.016c1.92-.486 2.56-.742 4.316-1.33 5.141-1.73 9.157-5.75 7.087-6.437-3.166-1.049-7.992 3.231-11.393 6.026h-.005c-.33.291-.785.678-1.275 1.14h-.005c-.64.677-7.022-.367-7.022-3.192 0-1.831 2.98-3.432 6.662-3.738 3.56-.296 6.476.737 6.476.602 0-.22-1.73-.989-5.466-.989-4.266-.005-8.152 2.078-8.152 4.06 0 3.246 5.001 3.853 6.791 3.964-.835.868-1.685 1.932-2.225 3.181-1.025 2.353-.495 3.703.94 4.29 3.601 1.44 12.028-7.105 7.177-7.035-.88.015-2.07.623-3.18 1.435-.801.593-1.176 1.245-1.161 1.606.015.321.41-.276 1.475-1.179 1.306-1.074 2.87-2.002 3.741-1.18.755.713-1.77 3.378-3.03 4.291-3.311 2.378-6.922 2.388-5.572-.903.44-1.094 2.32-3.151 3.77-4.596M125.727 12.284c.285-1.155-1.64-.412-1.496-.884.296-.792-.09-.968-.555-.883-.5.116-1.23.999-.965 1.646-1.02 1.32-3.17 4.034-5.406 4.988l-.515.677c3.24-1.064 5.836-4.691 6.421-5.369.35-.381 2.226-.647 1.52-.09-.264.206-2.61 1.932-3.015 3.773a1.62 1.62 0 0 0-.065.527v.005c.035.723.575 1.27 1.275 1.27.195 0 1.225.075 2.296-1.24l-.81.18c-.59.472-1.06.513-1.27.518-.581.005-.54-.703-.186-1.3.535-1.084 2.69-3.497 2.77-3.818"/>
            <path d="M116.404 14.928c-1.855 1.972-3.595 2.65-3.895 2.378-.45-.406.745-1.73 1.945-2.905.645-.647 2.886-2.715 3.716-2.243.46.336-.03.923-1.766 2.77m2.576-2.735c-1.565-2.559-6.877 3.342-8.292 4.195.105.055.05.442.145.497.42-.286.67-.462.765-.452.07.005.055.096.03.291-.26 1.867 1.996 1.15 2.791.587.395-.28.77-.522.86-.522.25 0-.01 1.145.95 1.145.526 0 1.246-.377 1.676-.658.09-.06.07-.085.035-.14-.165-.276-.305-.056-.865.09-2.841.677 3.135-4.26 3.836-5.234.355-.501-.67-.767-1.93.201"/>
            <path d="M111.228 16.614c.045-.216-.29-.226-.535-.226-1.455.948-2.44 1.054-2.966.868 1.74-.868 3.421-2.524 2.626-4.355-.125-.281-.385-.321-.08-.878.125-.231.22-.412.285-.557v-.005c.07-.161.105-.271.115-.342.12-.481-.165-.607-.56-.537-.505.116-1.2 1.01-1.05 1.651-1.13.793-1.99 1.44-3.636 2.524h-.005c-.31.176-1.746 1.114-3.141 1.837.195.035.29.14.45.25a45.49 45.49 0 0 0 3.226-1.886c1.605-.968 3.61-2.875 3.606-2.469-.015 1.932-1.286 3.784-2.956 4.526-1.515.673-1.54-.657-.975-.481.785.245 1.56-.673 1.17-.909-.845-.511-2.656 1.375-2.035 2.048l-.005.005c.005.005.02.01.03.02.02.015.03.035.05.05.085.06.2.1.325.125 1.36.352 4.976-.316 6.061-1.26"/>
            <path d="M104.376 12.299c-.105.436-.63.983-1.365 1.495-.455.306-1.345.768-2.596.878.45-.497.93-.943 1.75-1.56 1.221-.919 1.831-1.165 1.981-1.165.105 0 .16.045.19.086.05.06.065.16.04.266m.596-.512c-.135-.176-.38-.271-.696-.271-.875.005-2.505.642-3.936 1.851-1.72 1.46-2.165 2.188-2.345 2.95-.11.452-.05.849.175 1.145.245.321.665.507 1.15.507h.005c1.06-.005 2.986-.713 4.856-1.987-.155-.076.105-.332-.03-.437-1.725 1.15-3.81 1.942-4.646 1.947a.558.558 0 0 1-.45-.206.639.639 0 0 1-.095-.527c.065-.276.21-.547.485-.893l.015-.02.025-.005c2.43-.652 5.217-2.027 5.572-3.502.05-.226.02-.412-.085-.552M169.763 9.845h-1.56l2.38-2.6h-1.46l-2.37 2.6h-1.596a.247.247 0 0 0-.245.25c0 .136.11.247.245.247h1.145l-4.791 5.258c-.08.086-.155.166-.22.251-.75.673-1.496 1.32-2.01 1.5-.076.181-.196.322-.226.502.425-.065 1.41-.878 1.806-1.194-.185.743.265 1.305 1.045 1.305.48 0 1.425.18 3.786-1.385l-.27.04c.695-.487 2.035-1.51 2.92-2.072.35-.206 1.04-1.165-.104-.427-.496.331-.97.803-1.616 1.184-.8.492-1.69 1.094-2.475 1.54-.015.01-.03.016-.04.026a5.61 5.61 0 0 1-.38.2c-.776.372-1.24.362-1.43.362-.641 0-.521-.643.154-1.3l5.296-5.78h2.016c.135 0 .245-.11.245-.246 0-.15-.11-.261-.245-.261M148.318 17.346c-.21 0-.416-.16-.38-.451.054-.422.945-1.59 1.87-2.454 1.325-1.22 2.826-2.208 3.346-2.208.16 0 .275.096.31.241-.095.06-2.126 1.38-1.485 2.54-.12.125-.246.255-.376.38-1.2 1.155-2.55 1.952-3.285 1.952m7.361-3.793-.625-.05s-.465.436-1.115.793a.607.607 0 0 1-.485-.015c.45-.648.685-1.185.755-1.706.08-.628-.315-1.05-.98-1.05-1.2 0-2.57.618-4.076 1.832-1.746 1.41-2.216 2.504-2.3 3.172-.12.948.55 1.445 1.275 1.445 1.1 0 2.725-.954 4.456-2.615l.035-.04c1.1-.085 3.06-1.766 3.06-1.766"/>
            <path d="M159.135 12.429c-.75.507.16-.898-1.04-.898-.585 0-1.775.893-3.04 1.967.104.055.37.11.46.19 1.04-.888 1.94-1.555 2.33-1.465.23.05-.02.422-.5.949l-4.696 4.681h1.42l4.321-4.21c.315-.25.595-.441.86-.627 1.146-.823 1.726-.813 1.786-.793.26.086-.185.552-.725 1.044l-2.321 2.308c-1.17 1.184-.735 2.364.395 2.369.21 0 1.035.075 2.866-1.32l-.805-.04c-.97.672-1.44.823-1.67.823-.64 0-.52-.643.154-1.3l2.5-2.464h-.004.005c2.506-2.714-.53-2.403-2.296-1.214M149.933 9.539c-.18.005-.37.005-.56 0 .9-1.124 1.845-2.278 2.776-3.282.485-.532 1.385-1.264 2.46-1.912 1.746 2.108-2.21 5.119-4.676 5.194m6.977-6.684c-.64.2-1.28.462-1.92.763-1.521-1.38-4.042-1.48-6.177-1.21-5.832.793-13.684 6.584-10.018 8.877 1.51.923 3.646-.18 5.617-1.43 1.445-.928 2.24-2.087 2.085-2.323-.055-.1-.805.798-2.42 1.881-1.446.999-3.952 2.494-5.372 1.225-1.99-1.762 3.661-6.493 9.197-7.672 2.381-.497 4.957-.076 6.347 1.028-1.84.974-3.626 2.298-5.146 3.763a33.694 33.694 0 0 0-1.6 1.686 33.507 33.507 0 0 1-.856-.09s-.21-.005-.3.09c-.095.096-.02.206.085.226.26.05.51.086.765.12-2.05 2.324-4.296 5.154-5.936 6.373l.925.266c.825-.507 2.186-1.254 3.576-2.589.895-.878 2.04-2.338 3.28-3.894.246.005.49.005.726 0v.005c3.816 0 6.091-2.092 6.327-3.492.165-.994-.18-1.857-.776-2.519.5-.266 1.03-.502 1.566-.687.06-.02.355-.166.355-.347.005-.155-.33-.05-.33-.05"/>
            <path d="M81.536 14.928c-1.856 1.972-3.596 2.65-3.896 2.378-.45-.406.745-1.73 1.945-2.905.645-.647 2.886-2.715 3.711-2.243.47.336-.025.923-1.76 2.77m-25.842 2.378c-.45-.406.745-1.73 1.946-2.905.645-.647 2.885-2.715 3.716-2.243.465.336-.025.923-1.76 2.77-1.861 1.972-3.602 2.65-3.902 2.378M52.924 9.7c.94-1.174 1.93-2.388 2.905-3.442.385-.421 1.025-.963 1.81-1.495 1.336 2.147-2.435 5.038-3.72 5.309-.215-.166-.595-.286-.996-.372m31.193 2.494c-1.565-2.559-6.876 3.342-8.292 4.195-.23.15-.495.311-.735.452-.73.451-1.66.682-2.146.682-.84 0-.645-.652-.61-.773.26-.838 1.48-2.303 2.781-3.336.98-.788 1.82-1.24 2.316-1.24.03 0 .055 0 .07.005-.315.126-.52.321-.6.587-.12.382.14.427.35.427.475 0 .96-.372 1.105-.843.135-.447-.205-.823-.745-.823-1.01 0-2.581.682-3.996 1.741-.44.331-.846.713-1.19 1.109 0-.005.004-.01.004-.01-.53.557-.855 1.21-1.21 1.686-1.11 1.074-2.356 1.345-2.58 1.345-.64 0-.516-.643.154-1.3l2.501-2.464c2.5-2.71-.535-2.398-2.3-1.209-.75.507.16-.898-1.04-.898-1.501 0-6.397 5.424-7.968 5.74-2.12.261 3.436-4.35 4.116-5.284.35-.501-.675-.762-1.935.206-1.506-2.579-6.877 3.342-8.292 4.195-1.876 1.22-2.356 1.049-2.566.647.76-.511 1.555-1.174 2.156-1.866.12-.14.235-.276.335-.417.075-.1.14-.2.2-.3.025-.041.055-.076.075-.116v-.005c.085-.146.16-.286.23-.427.02-.04.035-.075.055-.11.05-.106.095-.206.135-.301.015-.035.025-.065.04-.096.04-.11.08-.21.11-.31l.015-.046c.375-1.254-.02-1.962-.195-2.298 2-.371 4.09-2.102 4.27-3.693.12-1.099-.07-1.982-.49-2.68a12.187 12.187 0 0 1 2.316-1.119c.06-.02.355-.165.355-.346 0-.16-.33-.055-.33-.055-.875.276-1.755.662-2.625 1.119-1.2-1.455-3.611-1.867-6.377-1.4a.07.07 0 0 0-.02.015c-.005-.005-.005-.01-.005-.015-5.691 1.24-12.558 6.548-9.087 8.721 1.51.923 3.646-.18 5.616-1.43 1.446-.928 2.24-2.087 2.086-2.323-.055-.1-.805.798-2.42 1.881-1.446.999-3.952 2.5-5.372 1.225-1.99-1.762 3.66-6.493 9.197-7.672l.13-.026v-.005c.015 0 .025 0 .045.005 1.495-.195 2.72-.015 3.981.467.71.271 1.215.587 1.566.933a23.578 23.578 0 0 0-4.517 3.417c-1.935 1.867-4.38 5.063-6.396 7.106-1.576 1.515-3.491 2.774-5.497 2.71a5.387 5.387 0 0 1-1.675-.312s-2.076-.727-.685-2.057c3.29-.09 1.975-3.262-.175-.467-1.72 2.083.64 2.88.64 2.88.72.261 1.52.417 2.125.392 1.51-.035 3.586-.813 5.472-2.042 0 .005.005.005.01.01.795-.487 1.81-1.15 2.84-2.143.746-.733 1.67-1.877 2.681-3.136.445.06.95.095 1.286.105.44.311.34 1.009-.04 1.832-.13.286-.296.582-.48.888-.006.01-.01.02-.02.03-.05.085-.106.166-.16.25l-.046.071c-.815 1.224-1.93 2.439-2.685 2.936-.38.265-1.966.893-1.7-.206.02-.08.054-.156.08-.231.364-.883.04-.943.04-.943-.656.657-1.026 1.385-.55 2.057.494.702 1.635.482 2.435.14.79.618 2.575.337 4.53-1.229.01.09.01.216 0 .326-.164 1.877 1.996 1.15 2.792.587.395-.28.77-.522.86-.522.25 0-.01 1.145.95 1.145.525 0 1.245-.377 1.675-.658 1.746-1.038 5.662-5.263 6.617-5.048.235.05-.02.422-.5.949l-4.696 4.681h1.42l4.321-4.21c.315-.25.595-.441.86-.627 1.14-.823 1.726-.813 1.786-.793.26.086-.185.552-.725 1.044l-2.32 2.308c-1.171 1.184-.736 2.364.394 2.369.205 0 1.52-.015 3.091-1.064.025.07.06.15.11.246v-.005c.265.496.835.828 1.365.828.666 0 2.031-.186 3.391-1.25.31-.246.43-.266.525-.26.07.004.055.095.03.29-.26 1.867 1.996 1.15 2.791.587.395-.28.77-.522.86-.522.25 0-.01 1.145.95 1.145.526 0 1.246-.377 1.676-.658 1.73-1.139 2.376-1.6 2.156-1.831-.11-.11-1.306 1.018-2.541 1.63-.11.046-.25.1-.435.151-2.84.677 3.136-4.26 3.836-5.233.345-.512-.68-.778-1.936.19m60.05 1.1c-.5.566-.99 1.098-1.455 1.575-1.57 1.515-3.49 2.774-5.496 2.71a5.387 5.387 0 0 1-1.676-.312s-2.075-.727-.685-2.057c3.291-.09 1.976-3.262-.175-.467-1.72 2.083.64 2.88.64 2.88.72.261 1.52.417 2.126.392 1.51-.035 3.586-.813 5.466-2.042l.01.01c.795-.487 1.81-1.15 2.84-2.143l.046-.045-1.64-.502zM73.049 25.57h.215c.695 0 1.45-.13 1.45-1.003 0-.858-.81-.958-1.485-.958h-.18v1.962zm0 2.91h-.68v-5.484h.785c1.68 0 2.205.583 2.205 1.586 0 1.154-.875 1.6-1.915 1.6h-.39v2.299h-.005zM77.145 25.59h.215c.695 0 1.45-.13 1.45-1.003 0-.858-.81-.983-1.485-.983h-.18v1.987zm2.72 2.89h-.825l-1.61-2.317h-.285v2.318h-.68v-5.485h.825c.485 0 1.005.01 1.445.256.455.271.715.783.715 1.31 0 .788-.52 1.44-1.31 1.535l1.725 2.384z"/>
        </g>
        <path fill="#212844" d="M80.89 22.996h1v5.484h-1zM86.527 22.996l-1.62 4.06-1.63-4.06h-.751l2.38 5.776 2.371-5.776zM89.553 24.26l-.97 2.219h1.94l-.97-2.218zm-1.25 2.846-.626 1.375h-.73l2.61-5.715 2.611 5.715h-.73l-.625-1.375h-2.51zM94.024 28.48h-.68V23.62h-1.3v-.623h3.275v.623h-1.295zM96.364 22.996H99.3v.623h-2.25v1.535h2.185v.627H97.05v2.073h2.25v.627h-2.936zM103.881 27.869h.52c.63 0 1.29-.191 1.29-.969 0-.772-.784-.928-1.39-.928h-.42v1.897zm0-2.444h.175c.646 0 1.176-.13 1.176-.918 0-.773-.52-.903-1.16-.903h-.19v1.821zm-.685-2.429h.665c1.03 0 2 .271 2 1.506 0 .401-.22.868-.59 1.038v.016c.646.115 1.096.747 1.096 1.39 0 1.098-.935 1.535-1.9 1.535h-1.276v-5.485h.005zM109.673 24.26l-.97 2.219h1.94l-.97-2.218zm-1.256 2.846-.625 1.375h-.73l2.61-5.715 2.611 5.715h-.73l-.625-1.375h-2.51zM113.184 22.73l4.1 4.316v-4.05h.686v5.706l-4.106-4.31v4.089h-.68zM122.451 22.996h.89l-2.455 2.464 2.5 3.02h-.92l-2.06-2.553-.276.26v2.294h-.68v-5.485h.68v2.379zM124.286 22.996h1v5.484h-1zM126.432 22.73l4.106 4.316v-4.05h.68v5.706l-4.106-4.31v4.089h-.68z"/>
        <g fill="#212844">
            <path d="M137.68 25.716v.22c0 1.506-1.06 2.66-2.59 2.66-1.531 0-2.761-1.324-2.761-2.845 0-1.58 1.26-2.875 2.835-2.875.85 0 1.69.386 2.226 1.064l-.48.456c-.39-.536-1.05-.893-1.72-.893-1.226 0-2.181.994-2.181 2.228 0 1.15.945 2.243 2.125 2.243.85 0 1.76-.738 1.79-1.63h-1.415v-.628h2.17zM106.712 45.627c-.245 0-.58-.146-.58-.547 0-.658.605-.888 1.44-.888h.17v.888c-.245.326-.585.547-1.03.547m-.145.602c.51 0 .955-.256 1.21-.592.01.13.035.376.07.486h.716c-.05-.215-.1-.547-.1-.993v-1.832c0-.968-.506-1.395-1.45-1.395-.616 0-1.101.206-1.486.567l.36.487c.35-.3.675-.436 1.065-.436.555 0 .795.24.795.802v.362h-.17c-1.015 0-2.19.336-2.19 1.42-.005.687.49 1.124 1.18 1.124m-3.13 0c.724 0 1.124-.266 1.295-.402l-.276-.532c-.12.096-.48.327-.98.327-.825 0-1.195-.718-1.195-1.576 0-.873.365-1.54 1.175-1.54.47 0 .735.17.945.326l.306-.532c-.196-.156-.58-.392-1.256-.392-1.065 0-1.945.753-1.945 2.158.01 1.16.695 2.163 1.93 2.163m-6.136-.106h.715v-2.875c.275-.366.68-.712 1.125-.712.52 0 .69.306.69.802v2.78h.725v-2.925c0-.718-.34-1.295-1.21-1.295-.52 0-.98.241-1.33.678v-.572H97.3v4.12zm-3.061-.496c-.245 0-.58-.146-.58-.547 0-.658.605-.888 1.44-.888h.17v.888c-.245.326-.585.547-1.03.547m-.145.602c.51 0 .955-.256 1.21-.592.01.13.035.376.07.486h.715a4.383 4.383 0 0 1-.105-.993v-1.832c0-.968-.505-1.395-1.45-1.395-.615 0-1.1.206-1.485.567l.36.487c.35-.3.675-.436 1.065-.436.555 0 .795.24.795.802v.362h-.17c-1.015 0-2.195.336-2.195 1.42.005.687.5 1.124 1.19 1.124m-4.871-3.377v-1.807h.75c.76 0 1.16.266 1.16.863 0 .643-.36.944-1.175.944h-.735zm0 2.65v-2.038h.82c.975 0 1.325.401 1.325 1.064 0 .682-.435.973-1.375.973h-.77zm-.77.621h1.55c1.28 0 2.16-.436 2.16-1.6 0-.788-.57-1.275-1.265-1.395v-.015c.625-.16 1.015-.582 1.015-1.27 0-1.033-.825-1.42-1.885-1.42h-1.58v5.7h.004zm-6.042-3.186v-1.882h.76c.835 0 1.23.327 1.23.934s-.365.948-1.175.948h-.815zm-.775 3.186h.775V43.55h.085c.365 0 .46.07 1.085.959l1.125 1.615h.886l-1.35-1.916c-.326-.462-.486-.643-.606-.728v-.015c.86-.07 1.536-.547 1.536-1.5 0-.984-.71-1.54-1.92-1.54H81.63v5.7h.005zm-4.336 0h3.055v-.652H78.07v-2.037h1.955v-.642H78.07V41.07h2.225v-.652H77.3v5.705zm-3.931-2.885v-2.183h.665c.955 0 1.315.427 1.315 1.064 0 .738-.395 1.12-1.34 1.12h-.64zm-.776 2.885h.776V43.87h.63c1.34 0 2.13-.632 2.13-1.77 0-1.125-.87-1.677-2.03-1.677h-1.51v5.7h.004zm-4.166-3.271v-1.807h.75c.76 0 1.16.266 1.16.863 0 .643-.36.944-1.174.944h-.736zm0 2.65v-2.038h.82c.97 0 1.326.401 1.326 1.064 0 .682-.435.973-1.375.973h-.77zm-.765.621h1.55c1.28 0 2.161-.436 2.161-1.6 0-.788-.57-1.275-1.265-1.395v-.015c.625-.16 1.015-.582 1.015-1.27 0-1.033-.825-1.42-1.885-1.42h-1.58v5.7h.004zm-4.936-.496c-.82 0-1.18-.713-1.18-1.576 0-.863.315-1.55 1.135-1.55.81 0 1.22.712 1.22 1.565.005.868-.36 1.56-1.175 1.56m-.015.603c1.4 0 1.96-1.2 1.96-2.173 0-.983-.59-2.148-1.98-2.148-1.4 0-1.91 1.19-1.91 2.168 0 .979.54 2.153 1.93 2.153m-4.496-.612c-.47 0-.75-.196-.93-.362v-2.182c.11-.146.47-.547 1.005-.547.735 0 1.065.652 1.065 1.54.005.908-.39 1.55-1.14 1.55M56.569 48h.716v-2.123c.155.136.46.352 1.025.352 1.065 0 1.825-.873 1.825-2.173 0-1.36-.665-2.148-1.67-2.148-.58 0-.965.281-1.175.537v-.436h-.716V48h-.005zm-2.92-2.383c-.47 0-.75-.196-.93-.362v-2.182c.11-.146.47-.547 1.005-.547.735 0 1.065.652 1.065 1.54.005.908-.39 1.55-1.14 1.55M52.003 48h.715v-2.123c.155.136.46.352 1.026.352 1.065 0 1.825-.873 1.825-2.173 0-1.36-.665-2.148-1.67-2.148-.58 0-.966.281-1.176.537v-.436h-.715V48h-.005zm-3.386-1.771c.7 0 1.136-.437 1.33-.703.01.196.04.497.07.597h.726a4.885 4.885 0 0 1-.085-.933v-3.186h-.725v2.865c-.085.12-.53.712-1.11.712-.53 0-.7-.3-.7-.797v-2.78h-.726v2.92c0 .728.34 1.305 1.22 1.305m-4.19-.106h.714v-2.73c.07-.135.4-.797.99-.797.22 0 .326.04.376.07l.18-.677c-.06-.025-.195-.086-.46-.086-.565 0-.916.447-1.086.728v-.622h-.715v4.114zm-3.407.106c.966 0 1.68-.241 2.106-.582v-2.534H41.17v.632h1.186v1.505c-.265.196-.735.326-1.32.326-1.426 0-2.066-1.129-2.066-2.338 0-1.2.65-2.278 2.075-2.278.596 0 1.016.13 1.44.462l.386-.572c-.45-.352-1.03-.532-1.8-.532-1.851 0-2.911 1.385-2.911 2.935.005 1.536 1.035 2.976 2.86 2.976"/>
        </g>
    </g>
</svg>
