<?xml version="1.0" encoding="utf-8"?>
<!-- Generator: Adobe Illustrator 22.1.0, SVG Export Plug-In . SVG Version: 6.00 Build 0)  -->
<svg version="1.1" id="Livello_1" xmlns="http://www.w3.org/2000/svg" xmlns:xlink="http://www.w3.org/1999/xlink" x="0px" y="0px"
	 viewBox="0 0 841.9 595.3" style="enable-background:new 0 0 841.9 595.3;" xml:space="preserve">
<style type="text/css">
	.Arco_x0020_verde{fill:url(#SVGID_1_);stroke:#FFFFFF;stroke-width:0.25;stroke-miterlimit:1;}
	.st0{fill:url(#SVGID_2_);}
	.st1{fill:url(#SVGID_3_);}
	.st2{fill:url(#SVGID_4_);}
	.st3{fill:url(#SVGID_5_);}
	.st4{fill:#024978;}
</style>
<linearGradient id="SVGID_1_" gradientUnits="userSpaceOnUse" x1="0" y1="595.2803" x2="0.7071" y2="594.5732">
	<stop  offset="0" style="stop-color:#259E2E"/>
	<stop  offset="0.9831" style="stop-color:#1C381D"/>
</linearGradient>
<g>
	<g>
		<g>
			<linearGradient id="SVGID_2_" gradientUnits="userSpaceOnUse" x1="433.7197" y1="243.9121" x2="603.541" y2="243.9121">
				<stop  offset="0" style="stop-color:#E01E21"/>
				<stop  offset="1" style="stop-color:#93141F"/>
			</linearGradient>
			<polygon class="st0" points="433.7,248.8 433.7,193.3 603.5,267.3 538.2,294.5 			"/>
			<linearGradient id="SVGID_3_" gradientUnits="userSpaceOnUse" x1="433.9898" y1="393.5627" x2="603.3311" y2="274.1627">
				<stop  offset="0" style="stop-color:#E00821"/>
				<stop  offset="1" style="stop-color:#F09702"/>
			</linearGradient>
			<path class="st1" d="M603.5,267.3c0,0-99.1,41.4-139.3,57.7c-40.3,16.3-30.5,70.8-30.5,70.8l169.8-72.9V267.3z"/>
		</g>
		<g>
			
				<linearGradient id="SVGID_4_" gradientUnits="userSpaceOnUse" x1="-255.6035" y1="273.759" x2="-85.7812" y2="273.759" gradientTransform="matrix(-1 0 0 -1 530.7598 620)">
				<stop  offset="0" style="stop-color:#E01E21"/>
				<stop  offset="1" style="stop-color:#93141F"/>
			</linearGradient>
			<polygon class="st2" points="786.4,341.3 786.4,396.9 616.5,322.8 681.9,295.6 			"/>
			
				<linearGradient id="SVGID_5_" gradientUnits="userSpaceOnUse" x1="-255.333" y1="423.4093" x2="-85.9916" y2="304.0091" gradientTransform="matrix(-1 0 0 -1 530.7598 620)">
				<stop  offset="0" style="stop-color:#E00821"/>
				<stop  offset="1" style="stop-color:#F09702"/>
			</linearGradient>
			<path class="st3" d="M616.5,322.8c0,0,99.1-41.4,139.3-57.7c40.3-16.3,30.5-70.8,30.5-70.8l-169.8,72.9V322.8z"/>
		</g>
	</g>
	<g>
		<path class="st4" d="M23.7,211.2H65v119.7c0,0-1.3,27.2,31.9,27.2c33.7,0,30.8-27.2,30.8-27.2V211.2h42.1c0,0,0,90.5,0,123
			c0,16.9,0.1,58.1-73.1,58.1c-73.1,0-73.1-40.5-73.1-57C23.7,333.5,23.7,211.2,23.7,211.2z"/>
		<path class="st4" d="M342.6,392.3H384V211.2c0,0-41.4-4-41.4,41C342.6,297.2,342.6,392.3,342.6,392.3z"/>
		<path class="st4" d="M293.3,289c0,0,13.1-9.3,13.1-33.5c0-26.9-25.6-44.4-61.5-44.4c-12.2,0-53.3,0-53.3,0v181.1
			c0,0,51.2,0,75.4,0c24.2,0,57.4-22.4,57.4-57.8C324.3,299.1,293.3,289,293.3,289z M232.9,241.1h19.2c0,0,19.2,3,19.2,21.5
			c0,18.5-16.3,21.5-21.2,21.5c-4.9,0-17.1,0-17.1,0V241.1z M258.2,361.4h-25.3v-51.7c0,0,16.1,0,23.1,0c7.1,0,27.5,5.4,27.5,27.5
			C283.5,359.2,258.2,361.4,258.2,361.4z"/>
	</g>
</g>
</svg>
