<?xml version="1.0" standalone="no"?>
<!DOCTYPE svg PUBLIC "-//W3C//DTD SVG 1.1//EN" "http://www.w3.org/Graphics/SVG/1.1/DTD/svg11.dtd" >
<svg xmlns="http://www.w3.org/2000/svg">
<metadata>Generated by IcoMoon</metadata>
<defs>
<font id="icomoon" horiz-adv-x="1024">
<font-face units-per-em="1024" ascent="960" descent="-64" />
<missing-glyph horiz-adv-x="1024" />
<glyph unicode="&#x20;" horiz-adv-x="512" d="" />
<glyph unicode="&#xe900;" glyph-name="ic-agenda" d="M811.008 538.112c0-21.491-17.421-38.912-38.912-38.912s-38.912 17.421-38.912 38.912c0 21.491 17.421 38.912 38.912 38.912s38.912-17.421 38.912-38.912zM862.208 878.080h-51.2v38.912c-2.048 22.528-20.48 38.912-43.008 36.864-20.48-2.048-34.816-16.384-36.864-36.864v-38.912h-182.272v38.912c-2.048 22.528-20.48 38.912-43.008 36.864-20.48-2.048-34.816-16.384-36.864-36.864v-38.912h-180.224v38.912c2.048 22.528-14.336 40.96-36.864 43.008s-40.96-14.336-43.008-36.864c0-2.048 0-4.096 0-6.144v-38.912h-47.104c-88.064 0-159.744-71.68-159.744-159.744 0 0 0 0 0 0v-622.592c0-88.064 71.68-159.744 159.744-159.744h305.152c22.528-2.048 40.96 14.336 43.008 36.864s-14.336 40.96-36.864 43.008c-2.048 0-4.096 0-6.144 0h-305.152c-43.008 0-79.872 34.816-79.872 79.872v622.592c0 43.008 34.816 77.824 79.872 79.872h49.152v-38.912c-2.048-22.528 14.336-40.96 36.864-43.008s40.96 14.336 43.008 36.864c0 2.048 0 4.096 0 6.144v38.912h180.224v-38.912c-2.048-22.528 14.336-40.96 36.864-43.008s40.96 14.336 43.008 36.864c0 2.048 0 4.096 0 6.144v38.912h182.272v-38.912c2.048-22.528 20.48-38.912 43.008-36.864 20.48 2.048 34.816 16.384 36.864 36.864v38.912h51.2c43.008 0 79.872-34.816 79.872-79.872v-227.328c-2.048-22.528 14.336-40.96 36.864-43.008s40.96 14.336 43.008 36.864c0 2.048 0 4.096 0 6.144v227.328c-2.048 88.064-73.728 157.696-161.792 159.744zM780.288 419.328c-133.12 0-241.664-108.544-241.664-241.664s108.544-241.664 241.664-241.664c133.12 0 241.664 108.544 241.664 241.664s-108.544 241.664-241.664 241.664zM780.288 15.872c-90.112 0-161.792 71.68-161.792 161.792s71.68 161.792 161.792 161.792 161.792-71.68 161.792-161.792c0-90.112-71.68-161.792-161.792-161.792zM839.68 216.576h-18.432v40.96c2.048 22.528-14.336 40.96-36.864 43.008s-40.96-14.336-43.008-36.864c0-2.048 0-4.096 0-6.144v-81.92c0-22.528 18.432-38.912 38.912-38.912v0h59.392c22.528 2.048 38.912 20.48 36.864 43.008-2.048 20.48-18.432 36.864-36.864 36.864v0zM636.928 538.112c0-21.491-17.421-38.912-38.912-38.912s-38.912 17.421-38.912 38.912c0 21.491 17.421 38.912 38.912 38.912s38.912-17.421 38.912-38.912zM462.848 364.032c0-21.491-17.421-38.912-38.912-38.912s-38.912 17.421-38.912 38.912c0 21.491 17.421 38.912 38.912 38.912s38.912-17.421 38.912-38.912zM288.768 538.112c0-21.491-17.421-38.912-38.912-38.912s-38.912 17.421-38.912 38.912c0 21.491 17.421 38.912 38.912 38.912s38.912-17.421 38.912-38.912zM288.768 364.032c0-21.491-17.421-38.912-38.912-38.912s-38.912 17.421-38.912 38.912c0 21.491 17.421 38.912 38.912 38.912s38.912-17.421 38.912-38.912zM288.768 192c0-21.491-17.421-38.912-38.912-38.912s-38.912 17.421-38.912 38.912c0 21.491 17.421 38.912 38.912 38.912s38.912-17.421 38.912-38.912zM462.848 192c0-21.491-17.421-38.912-38.912-38.912s-38.912 17.421-38.912 38.912c0 21.491 17.421 38.912 38.912 38.912s38.912-17.421 38.912-38.912zM462.848 538.112c0-21.491-17.421-38.912-38.912-38.912s-38.912 17.421-38.912 38.912c0 21.491 17.421 38.912 38.912 38.912s38.912-17.421 38.912-38.912z" />
<glyph unicode="&#xe901;" glyph-name="ic-alarm" d="M950.764 129.536c-79.872 75.776-124.928 180.224-124.928 290.816v163.84c0 106.496-63.488 204.8-161.792 249.856-18.432 8.192-38.912 14.336-59.392 20.48v4.096c0 55.296-45.056 100.352-100.352 100.352s-100.352-45.056-100.352-100.352v-4.096c-18.432-6.144-34.816-12.288-51.2-20.48-100.352-45.056-163.84-141.312-167.936-249.856v-163.84c2.048-108.544-40.96-215.040-118.784-290.816-6.144-6.144-8.192-12.288-8.192-20.48s4.096-14.336 8.192-20.48c4.096-2.048 8.192-6.144 14.336-6.144l174.080-30.72c28.672-4.096 57.344-8.192 86.016-12.288 22.528-43.008 59.392-75.776 106.496-92.16 20.48-8.192 40.96-10.24 63.488-10.24 26.624 0 55.296 6.144 81.92 18.432 36.864 18.432 67.584 49.152 88.064 86.016 28.672 4.096 57.344 8.192 86.016 12.288l174.080 30.72c14.336 2.048 24.576 24.576 22.528 30.72s-12.288 14.336-12.288 14.336zM504.3 905.728c22.528 0 40.96-16.384 45.056-38.912-30.72 4.096-59.392 4.096-90.112 0 4.096 20.48 22.528 38.912 45.056 38.912zM508.396-9.728c-34.816 0-69.632 14.336-96.256 40.96 63.488-6.144 126.976-6.144 192.512 0-26.624-24.576-59.392-40.96-96.256-40.96zM752.108 107.008c-34.816-6.144-65.536-10.24-96.256-14.336-14.336-2.048-26.624-2.048-38.912-4.096s-22.528-2.048-32.768-2.048h-6.144c-10.24 0-20.48-2.048-28.672-2.048h-6.144c-22.528-2.048-45.056-2.048-67.584 0h-8.192c-8.192 0-18.432 0-28.672 2.048h-6.144c-10.24 0-20.48 2.048-32.768 2.048-12.288 2.048-26.624 2.048-38.912 4.096-28.672 4.096-59.392 8.192-98.304 14.336l-124.928 20.48c67.584 81.92 102.4 186.368 100.352 292.864v163.84c4.096 88.064 55.296 163.84 135.168 200.704 20.48 8.192 40.96 16.384 59.392 20.48h2.048c45.056 10.24 90.112 10.24 135.168 2.048 22.528-4.096 47.104-12.288 67.584-22.528 77.824-36.864 129.024-114.688 129.024-198.656v-163.84c0-106.496 38.912-210.944 106.496-292.864l-120.832-22.528zM639.468 711.168c-4.096-6.144-10.24-10.24-16.384-12.288s-14.336 0-20.48 4.096c-59.392 26.624-129.024 26.624-188.416 0-47.104-20.48-77.824-65.536-81.92-118.784 0-14.336-12.288-26.624-26.624-26.624s-26.624 12.288-26.624 26.624c4.096 73.728 47.104 137.216 114.688 167.936 73.728 32.768 157.696 32.768 233.472 2.048h2.048c2.048-2.048 4.096-2.048 6.144-2.048 6.144-4.096 10.24-10.24 12.288-16.384-2.048-10.24-4.096-18.432-8.192-24.576z" />
<glyph unicode="&#xe902;" glyph-name="ic-alert" d="M512 959.857c-57.344 0-98.304-49.152-98.304-98.304v0-520.192c0-57.344 49.152-98.304 98.304-98.304s98.304 49.152 98.304 98.304v520.192c6.144 57.344-40.96 98.304-98.304 98.304v0zM610.304 34.161c0-54.292-44.012-98.304-98.304-98.304s-98.304 44.012-98.304 98.304c0 54.292 44.012 98.304 98.304 98.304s98.304-44.012 98.304-98.304z" />
<glyph unicode="&#xe903;" glyph-name="ic-andamentale" d="M995.656 732.283c-20.48 16.384-49.152 20.48-73.728 10.24l-245.76-79.872c0 0-2.048 0-2.048 0-38.912-16.384-55.296-59.392-40.96-98.304 4.096-12.288 12.288-22.528 24.576-30.72l18.432-14.336-69.632-71.68-196.608 217.088c-43.008 51.2-118.784 57.344-167.936 14.336-6.144-6.144-12.288-12.288-18.432-18.432l-200.704-268.288c-38.912-53.248-26.624-129.024 26.624-165.888 51.2-36.864 122.88-26.624 163.84 22.528v0l112.64 149.504 188.416-206.848c22.528-26.624 55.296-40.96 90.112-43.008h2.048c34.816 0 67.584 14.336 90.112 40.96l172.032 186.368 28.672-22.528c32.768-24.576 79.872-18.432 104.448 14.336 8.192 10.24 12.288 22.528 14.336 34.816 0 2.048 0 2.048 0 4.096l6.144 260.096c4.096 24.576-6.144 51.2-26.624 65.536v0zM962.888 670.843c0-2.048 0-2.048 0-4.096l-6.144-260.096c0-4.096-4.096-8.192-8.192-10.24s-10.24-2.048-14.336 2.048l-51.2 38.912c-12.288 10.24-30.72 8.192-40.96-4.096l-192.512-206.848c-10.24-12.288-26.624-20.48-43.008-20.48v0c-16.384 0-32.768 8.192-45.056 20.48v0l-215.040 235.52c-6.144 6.144-14.336 10.24-22.528 10.24h-2.048c-8.192 0-18.432-4.096-22.528-12.288l-133.12-180.224c-18.432-26.624-55.296-30.72-81.92-12.288s-30.72 55.296-12.288 81.92c0 0 0 0 2.048 2.048l200.704 268.288c20.48 26.624 55.296 30.72 81.92 10.24 4.096-2.048 6.144-6.144 10.24-8.192v-2.048l219.136-241.664c12.288-12.288 30.72-14.336 43.008-2.048 0 0 0 0 2.048 2.048l114.688 120.832c12.288 12.288 12.288 30.72 0 43.008 0 0-2.048 2.048-2.048 2.048l-47.104 34.816c-6.144 4.096-8.192 14.336-2.048 20.48 2.048 2.048 2.048 2.048 4.096 4.096l245.76 77.824h2.048c6.144 2.048 14.336 0 18.432-8.192-2.048 4.096-2.048 2.048-2.048-2.048v0z" />
<glyph unicode="&#xe904;" glyph-name="ic-anzianita-rapporto" d="M512 681.472c51.2 0 92.16 40.96 92.16 94.208 0 16.384-4.096 32.768-12.288 47.104l-79.872 137.216-79.872-137.216c-26.624-45.056-12.288-100.352 32.768-126.976 14.336-10.24 30.72-14.336 47.104-14.336v0zM790.528 540.16h-231.424v92.16h-92.16v-92.16h-233.472c-77.824 0-139.264-63.488-139.264-139.264v-71.68c0-51.2 40.96-92.16 92.16-92.16 24.576 0 47.104 10.24 63.488 26.624l100.352 100.352 100.352-98.304c36.864-34.816 92.16-34.816 129.024 0l100.352 98.304 100.352-98.304c34.816-34.816 94.208-34.816 129.024 0 16.384 16.384 26.624 40.96 26.624 63.488v71.68c-6.144 77.824-67.584 139.264-145.408 139.264zM724.992 216.576v0l-49.152 49.152-51.2-49.152c-63.488-61.44-163.84-61.44-227.328 0l-49.152 49.152-51.2-49.152c-30.72-30.72-71.68-47.104-112.64-47.104-32.768 0-63.488 10.24-92.16 28.672v-215.040c0-26.624 20.48-47.104 47.104-47.104h745.472c26.624 0 47.104 20.48 47.104 47.104v215.040c-65.536-45.056-151.552-36.864-206.848 18.432v0z" />
<glyph unicode="&#xe905;" glyph-name="ic-arrow" d="M309.248-64l-102.4 100.352 407.552 409.6-407.552 413.696 102.4 100.352 507.904-516.096z" />
<glyph unicode="&#xe906;" glyph-name="ic-bank" d="M6.144 64.246h1013.76v-129.024h-1013.76v129.024zM6.144 703.222v-86.016h1013.76v86.016h-43.008l-464.896 256-464.896-256h-40.96zM131.072 576.246h167.936v-468.992h-167.936v468.992zM428.032 576.246h167.936v-468.992h-167.936v468.992zM722.944 576.246h167.936v-468.992h-167.936v468.992z" />
<glyph unicode="&#xe907;" glyph-name="ic-box" d="M512 960l-512-247.808v-528.384l512-247.808 512 247.808v528.384l-512 247.808zM512 497.152l-81.92 38.912 409.6 198.656 81.92-38.912-409.6-198.656zM253.952 620.032l409.6 198.656 106.496-51.2-409.6-198.656-106.496 51.2zM217.088 570.88l110.592-53.248v-131.072l-110.592 53.248v131.072zM593.92 853.504l-409.6-198.656-81.92 38.912 409.6 198.656 81.92-38.912zM63.488 644.608l88.064-43.008v-198.656l239.616-116.736v198.656l88.064-43.008v-425.984l-415.744 204.8v423.936zM544.768 19.968v423.936l415.744 200.704v-425.984l-415.744-198.656z" />
<glyph unicode="&#xe908;" glyph-name="ic-calendario" d="M90.112 712.192v-681.984h849.92v681.984h-849.92zM831.488 830.976h126.976c32.768 2.048 61.44-22.528 63.488-57.344 0-2.048 0-4.096 0-8.192v-768c2.048-32.768-22.528-61.44-57.344-63.488-2.048 0-4.096 0-8.192 0h-892.928c-32.768-2.048-61.44 22.528-63.488 57.344 0 2.048 0 4.096 0 8.192v768c-2.048 32.768 22.528 61.44 57.344 63.488 2.048 0 4.096 0 8.192 0h126.976v65.536c-2.048 32.768 22.528 61.44 57.344 63.488 2.048 0 4.096 0 8.192 0 32.768 2.048 61.44-22.528 63.488-57.344 0-2.048 0-4.096 0-8.192v-63.488h382.976v65.536c0 34.816 28.672 63.488 63.488 63.488s63.488-28.672 63.488-63.488v-65.536zM768 192h-126.976v126.976h126.976v-126.976zM575.488 192h-126.976v126.976h126.976v-126.976zM768 384.512h-126.976v126.976h126.976v-126.976zM575.488 384.512h-126.976v126.976h126.976v-126.976zM385.024 192h-126.976v126.976h126.976v-126.976z" />
<glyph unicode="&#xe909;" glyph-name="ic-cart" d="M1019.904 540.16c-163.84-348.16-219.136-348.16-249.856-348.16h-317.44c-102.4-6.144-194.56 65.536-215.040 165.888 0 4.096-63.488 309.248-79.872 395.264-6.144 40.96-26.624 69.632-98.304 69.632-32.768 0-59.392 26.624-59.392 59.392s26.624 57.344 59.392 57.344c118.784 0 196.608-59.392 215.040-165.888 16.384-83.968 77.824-389.12 77.824-393.216 10.24-45.056 53.248-75.776 100.352-71.68h299.008c61.44 88.064 114.688 182.272 159.744 280.576 14.336 28.672 51.2 40.96 79.872 26.624 28.672-12.288 40.96-47.104 28.672-75.776v0zM413.696 153.088c-55.296 0-98.304-45.056-98.304-98.304 0-55.296 45.056-98.304 98.304-98.304s98.304 45.056 98.304 98.304v0c0 53.248-43.008 98.304-98.304 98.304zM768 153.088c-55.296 0-98.304-45.056-98.304-98.304 0-55.296 45.056-98.304 98.304-98.304s98.304 45.056 98.304 98.304v0c0 53.248-43.008 98.304-98.304 98.304zM577.536 474.624c8.192-6.144 18.432-6.144 26.624 0 61.44 59.392 118.784 124.928 169.984 194.56 6.144 10.24 4.096 24.576-6.144 30.72-4.096 2.048-8.192 4.096-12.288 4.096h-88.064c0 0-8.192 169.984-14.336 176.128-18.432 14.336-40.96 20.48-63.488 20.48-22.528 2.048-45.056-6.144-63.488-20.48-6.144-8.192-12.288-176.128-12.288-176.128h-88.064c-12.288 0-22.528-10.24-22.528-22.528 0-4.096 2.048-8.192 4.096-12.288 51.2-69.632 108.544-135.168 169.984-194.56z" />
<glyph unicode="&#xe90a;" glyph-name="ic-carta" d="M921.6 814.94h-819.2c-57.344 0-102.4-45.056-102.4-102.4v-526.336c0-57.344 47.104-102.4 102.4-102.4h823.296c55.296 0 98.304 47.104 96.256 100.352v528.384c2.048 55.296-45.056 102.4-100.352 102.4zM954.368 182.108c0-18.432-16.384-32.768-34.816-34.816h-817.152c-18.432 0-34.816 16.384-34.816 34.816v344.064h886.784v-344.064zM954.368 655.196h-886.784v57.344c0 18.432 16.384 34.816 34.816 34.816h819.2c18.432 0 34.816-16.384 34.816-34.816v-57.344zM868.352 294.748c0-40.96-32.768-75.776-75.776-75.776-20.48 0-36.864 6.144-51.2 18.432-14.336-12.288-30.72-18.432-51.2-18.432-40.96 0-75.776 34.816-75.776 75.776s34.816 75.776 75.776 75.776c20.48 0 36.864-8.192 51.2-18.432 12.288 12.288 30.72 18.432 51.2 18.432 43.008 0 75.776-34.816 75.776-75.776zM399.36 427.868c0 0 0 0 0 0 0-8.192-4.096-12.288-12.288-12.288h-221.184c-6.144 0-12.288 4.096-12.288 12.288 0 6.144 4.096 12.288 12.288 12.288h221.184c6.144 0 12.288-6.144 12.288-12.288z" />
<glyph unicode="&#xe90b;" glyph-name="ic-chat" d="M745.472 847.36h-688.128c-30.72 0-57.344-24.576-57.344-57.344v-397.312c0-30.72 26.624-55.296 57.344-55.296h45.056v-147.456c0-10.24 6.144-18.432 14.336-22.528s18.432-2.048 26.624 4.096l169.984 163.84h34.816c12.288 0 24.576 10.24 24.576 22.528s-10.24 24.576-22.528 24.576c0 0-2.048 0-2.048 0h-45.056c-6.144 0-12.288-2.048-16.384-6.144l-137.216-131.072c0 0 0 116.736 0 116.736-2.048 12.288-12.288 20.48-24.576 20.48h-67.584c-4.096 0-10.24 4.096-10.24 8.192v399.36c0 4.096 4.096 8.192 10.24 8.192h686.080c4.096 0 10.24-4.096 10.24-8.192v-153.6c0-14.336 10.24-24.576 24.576-24.576s24.576 10.24 24.576 24.576v153.6c-2.048 32.768-26.624 57.344-57.344 57.344zM966.369 573.85h-481.28c-32.768 0-57.344-26.624-57.344-57.344v-280.576c0-32.768 26.624-57.344 57.344-57.344h301.056l122.88-122.88c10.24-10.24 24.576-10.24 34.816 0 4.096 4.096 6.144 10.24 6.144 16.384v104.448h16.384c32.768 0 57.344 26.624 57.344 57.344v282.624c0 32.768-24.576 57.344-57.344 57.344 0 0 0 0 0 0zM976.609 235.93c0-6.144-4.096-10.24-10.24-10.24v0h-40.96c-12.288 0-22.528-10.24-24.576-22.528 0 0 0-71.68 0-71.68l-88.064 88.064c-4.096 4.096-10.24 6.144-16.384 6.144h-311.296c-6.144 0-10.24 4.096-10.24 10.24v0 280.576c0 6.144 4.096 10.24 10.24 10.24v0h481.28c6.144 0 10.24-4.096 10.24-10.24v0-280.576zM726.692 392.008c-14.336 0-24.576-10.24-24.576-24.576s10.24-24.576 24.576-24.576c14.336 0 24.576 10.24 24.576 24.576v0c-2.048 12.288-12.288 24.576-24.576 24.576zM621.629 691.569h-440.32c-14.336 0-24.576-10.24-24.576-24.576s10.24-24.576 24.576-24.576h440.32c14.336 0 24.576 10.24 24.576 24.576-2.048 14.336-12.288 24.576-24.576 24.576v0zM347.197 537.825h-165.888c-14.336 0-24.576-10.24-24.576-24.576s10.24-24.576 24.576-24.576h165.888c14.336 0 24.576 10.24 24.576 24.576 0 12.288-10.24 24.576-24.576 24.576zM612.966 392.008c-14.336 0-24.576-10.24-24.576-24.576s10.24-24.576 24.576-24.576c14.336 0 24.576 10.24 24.576 24.576v0c0 12.288-10.24 24.576-24.576 24.576zM838.349 392.008c-14.336 0-24.576-10.24-24.576-24.576s10.24-24.576 24.576-24.576c14.336 0 24.576 10.24 24.576 24.576v0c0 12.288-12.288 24.576-24.576 24.576z" />
<glyph unicode="&#xe90c;" glyph-name="ic-check" d="M1024 865.792c0-16.384-4.096-32.768-14.336-49.152l-516.096-833.536c-2.048-2.048-4.096-6.144-6.144-8.192-18.432-22.528-45.056-36.864-73.728-36.864-16.384 0-32.768 4.096-49.152 14.336-8.192 6.144-16.384 12.288-20.48 18.432l-319.488 346.112c-16.384 16.384-24.576 38.912-24.576 61.44 0 24.576 10.24 49.152 28.672 67.584 36.864 34.816 94.208 32.768 129.024-4.096l241.664-260.096 454.656 733.184c26.624 43.008 83.968 57.344 126.976 30.72 26.624-18.432 43.008-49.152 43.008-79.872z" />
<glyph unicode="&#xe90d;" glyph-name="ic-client" d="M732.303 736.768c-6.144 112.64-59.392 167.936-102.4 192.512-32.768 18.432-71.68 28.672-114.688 30.72h-4.096c-22.528 0-69.632-4.096-114.688-28.672s-98.304-79.872-104.448-194.56c-2.048-14.336-14.336-172.032 65.536-264.192 36.864-40.96 88.064-63.488 149.504-63.488h6.144c63.488 0 112.64 22.528 149.504 63.488 83.968 92.16 69.632 249.856 69.632 264.192zM513.167 466.432c0 0 0 0 0 0-2.048 0-2.048 0-2.048 0-47.104 0-81.92 14.336-108.544 45.056-67.584 75.776-53.248 221.184-53.248 221.184s0 2.048 0 2.048c6.144 151.552 114.688 167.936 161.792 167.936h2.048c57.344-2.048 153.6-24.576 161.792-167.936 0 0 0-2.048 0-2.048 0-2.048 14.336-145.408-51.2-221.184-28.672-30.72-63.488-45.056-110.592-45.056zM936.489 51.446c-2.048-6.144-6.144-10.24-12.288-12.288-6.144-4.096-159.744-102.4-413.696-102.4s-407.552 98.304-413.696 102.4c-4.096 4.096-8.192 8.192-10.24 12.288-12.288 28.672-10.24 86.016-10.24 96.256v6.144c2.048 40.96 4.096 139.264 96.256 172.032 0 0 2.048 0 2.048 0 96.256 24.576 176.128 79.872 176.128 79.872 4.096 4.096 10.24 4.096 16.384 4.096 8.192 0 18.432-4.096 22.528-12.288 10.24-12.288 6.144-30.72-6.144-38.912-4.096-2.048-88.064-61.44-194.56-88.064-49.152-16.384-55.296-69.632-57.344-118.784v-6.144c0-18.432 2.048-49.152 4.096-65.536 34.816-18.432 169.984-86.016 374.784-86.016s339.968 67.584 372.736 86.016c4.096 16.384 4.096 47.104 4.096 65.536v6.144c-2.048 49.152-6.144 100.352-57.344 118.784-106.496 26.624-190.464 86.016-194.56 88.064-12.288 10.24-16.384 26.624-6.144 38.912 6.144 8.192 14.336 12.288 22.528 12.288 6.144 0 12.288-2.048 16.384-6.144 0 0 79.872-55.296 176.128-79.872 2.048 0 2.048 0 2.048 0 92.16-30.72 94.208-129.024 96.256-172.032v-4.096c0 0 0 0 0-2.048 6.144-10.24 6.144-67.584-6.144-94.208z" />
<glyph unicode="&#xe90e;" glyph-name="ic-clienti" d="M0-64c0 210.944 196.608 382.976 438.272 382.976h145.408c243.712 0 440.32-172.032 440.32-382.976h-1024zM190.464 62.976h651.264c-59.392 81.92-155.648 131.072-256 126.976h-139.264c-102.4 4.096-196.608-43.008-256-126.976zM219.136 640.512v63.488c12.288 149.504 141.312 264.192 292.864 256 151.552 8.192 280.576-104.448 292.864-256v-63.488c-12.288-151.552-141.312-266.24-292.864-256-151.552-10.24-280.576 104.448-292.864 256v0zM366.592 704v-63.488c6.144-75.776 71.68-133.12 145.408-126.976 75.776-4.096 141.312 53.248 145.408 126.976v63.488c-6.144 75.776-71.68 133.12-145.408 126.976-75.776 4.096-141.312-51.2-145.408-126.976z" />
<glyph unicode="&#xe90f;" glyph-name="ic-collaboration" d="M512.184 958.976c-57.344 0-104.448-47.104-104.448-104.448s47.104-104.448 104.448-104.448 104.448 47.104 104.448 104.448c0 59.392-47.104 104.448-104.448 104.448zM512.184 807.424c-26.624 0-47.104 20.48-47.104 47.104 0 24.576 20.48 47.104 47.104 47.104 12.288 0 24.576-4.096 32.768-12.288s12.288-20.48 12.288-32.768c2.048-26.624-18.432-49.152-45.056-49.152zM573.194 737.69l-12.288-4.096c-30.72-14.336-65.536-14.336-94.208 0l-12.288 4.096c-49.152 0-90.112-40.96-90.112-90.112v-90.112c0-16.384 6.144-30.72 16.384-43.008 10.24-10.24 26.624-16.384 43.008-16.384h182.272c32.768 0 59.392 26.624 59.392 59.392v90.112c-4.096 51.2-43.008 90.112-92.16 90.112zM601.866 557.466l-182.272 2.048v90.112c0 14.336 10.24 28.672 26.624 30.72 43.008-18.432 90.112-18.432 131.072 0 14.336-2.048 26.624-16.384 26.624-30.72l-2.048-92.16zM873.411 399.483c-57.344 0-104.448-47.104-104.448-104.448s47.104-104.448 104.448-104.448c57.344 0 104.448 47.104 104.448 104.448s-47.104 104.448-104.448 104.448zM873.411 247.931c-26.624 0-47.104 20.48-47.104 47.104 0 24.576 20.48 47.104 47.104 47.104 24.576 0 47.104-20.48 47.104-47.104 0-24.576-20.48-47.104-47.104-47.104zM934.441 175.186l-12.288-2.048c-30.72-14.336-65.536-14.336-96.256 0l-12.288 2.048c-49.152 0-90.112-40.96-90.112-90.112v-90.112c0-32.768 26.624-59.392 59.392-59.392h182.272c32.768 0 59.392 26.624 59.392 59.392v90.112c0 51.2-40.96 90.112-90.112 90.112zM965.161-5.038l-182.272 2.048v90.112c0 16.384 12.288 28.672 26.624 30.72 43.008-18.432 90.112-18.432 131.072 0 14.336-2.048 26.624-16.384 26.624-30.72l-2.048-92.16zM150.958 399.483c-57.344 0-104.448-47.104-104.448-104.448s47.104-104.448 104.448-104.448c57.344 0 104.448 47.104 104.448 104.448s-47.104 104.448-104.448 104.448zM150.958 247.931c-24.576 0-47.104 20.48-47.104 47.104 0 24.576 20.48 47.104 47.104 47.104s47.104-20.48 47.104-47.104c0-24.576-22.528-47.104-47.104-47.104zM209.92 175.186l-12.288-2.048c-30.72-14.336-65.536-14.336-94.208 0l-12.288 2.048c-49.152 0-90.112-40.96-90.112-90.112v-90.112c0-32.768 26.624-59.392 59.392-59.392h182.272c32.768 0 59.392 26.624 59.392 59.392v90.112c-2.048 51.2-40.96 90.112-92.16 90.112zM240.64-5.038l-182.272 2.048v90.112c0 16.384 10.24 28.672 26.624 30.72 43.008-18.432 90.112-18.432 131.072 0 14.336-2.048 26.624-16.384 26.624-30.72l-2.048-92.16zM659.763 55.992c-71.68-30.72-151.552-36.864-227.328-22.528 4.096-12.288-2.048-26.624-12.288-32.768-4.096-2.048-10.24-4.096-14.336-4.096-2.048 0-4.096 0-6.144 0-8.192 2.048-14.336 6.144-18.432 12.288l-32.768 65.536c0 2.048-2.048 4.096-2.048 6.144 0 6.144 0 10.24 2.048 14.336s4.096 8.192 8.192 10.24l4.096 2.048c0 0 0 0 2.048 2.048l8.192 4.096 59.392 18.432c18.432 4.096 32.768-6.144 36.864-20.48 2.048-6.144 0-12.288-2.048-18.432 59.392-8.192 118.784-2.048 174.080 20.48 8.192 4.096 14.336 4.096 22.528 0 8.192-2.048 12.288-8.192 16.384-14.336v-2.048c2.048-18.432-4.096-34.816-18.432-40.96zM969.38 517.816l-47.104-47.104c-6.144-4.096-12.288-8.192-18.432-8.192-8.192 0-14.336 4.096-20.48 8.192l-45.056 45.056c-4.096 6.144-8.192 12.288-8.192 20.48s4.096 14.336 8.192 20.48c8.192 8.192 18.432 10.24 28.672 8.192-22.528 98.304-92.16 182.272-186.368 221.184-12.288 8.192-18.432 20.48-14.336 32.768 4.096 16.384 20.48 24.576 36.864 20.48 120.832-51.2 204.8-157.696 225.28-282.624l2.048 2.048c10.24 10.24 28.672 10.24 40.96 0v0c10.24-12.288 10.24-30.72-2.048-40.96zM360.264 812.626v-6.144l-32.768-69.632c-6.144-14.336-24.576-20.48-38.912-14.336-8.192 4.096-14.336 12.288-16.384 22.528-77.824-61.44-122.88-153.6-122.88-253.952-2.048-16.384-12.288-26.624-26.624-28.672h-4.096c-6.144 0-14.336 2.048-18.432 8.192-6.144 4.096-10.24 12.288-10.24 20.48 0 131.072 65.536 249.856 176.128 319.488l-6.144 4.096c-14.336 6.144-20.48 24.576-14.336 38.912s24.576 20.48 38.912 14.336l65.536-30.72c0 0 2.048-2.048 4.096-2.048l4.096-6.144c0 0 0-2.048 2.048-2.048l2.048-2.048v-12.288z" />
<glyph unicode="&#xe910;" glyph-name="ic-currency" d="M679.936 497.152h-10.24c-4.096 0-10.24 0-14.336 0v356.352c0 24.576-16.384 59.392-100.352 81.92-131.072 30.72-268.288 30.72-399.36 0-81.92-24.576-100.352-59.392-100.352-81.92v-636.928c0-24.576 16.384-59.392 100.352-81.92 61.44-16.384 124.928-24.576 188.416-24.576 16.384 0 32.768 0 49.152 0 49.152-106.496 155.648-174.080 272.384-174.080h14.336c155.648 0 284.672 122.88 290.816 280.576-6.144 157.696-135.168 280.576-290.816 280.576zM169.984 882.176c120.832 28.672 245.76 28.672 366.592 0 45.056-12.288 57.344-26.624 59.392-28.672-2.048-4.096-14.336-16.384-59.392-28.672-59.392-16.384-122.88-22.528-184.32-22.528s-122.88 6.144-182.272 22.528c-43.008 12.288-57.344 26.624-57.344 28.672s14.336 16.384 57.344 28.672zM112.64 574.976c12.288-6.144 26.624-12.288 40.96-14.336 61.44-16.384 124.928-24.576 188.416-24.576h14.336c43.008 0 83.968 4.096 124.928 8.192 16.384 2.048 26.624 16.384 24.576 32.768s-18.432 24.576-32.768 22.528c-38.912-6.144-77.824-8.192-116.736-8.192h-2.048c-61.44-2.048-122.88 6.144-182.272 22.528-45.056 12.288-57.344 26.624-59.392 28.672v143.36c12.288-6.144 26.624-10.24 40.96-14.336 65.536-16.384 133.12-24.576 200.704-24.576s135.168 6.144 200.704 24.576c14.336 4.096 28.672 8.192 40.96 14.336v-38.912c-2.048-4.096-14.336-16.384-57.344-28.672-57.344-14.336-114.688-22.528-172.032-22.528h-12.288c-30.72 0-61.44 2.048-92.16 6.144-14.336 2.048-30.72-8.192-32.768-24.576 0-8.192 2.048-14.336 6.144-20.48s12.288-10.24 18.432-10.24h2.048c34.816-4.096 67.584-6.144 100.352-6.144 67.584 0 135.168 8.192 200.704 24.576 14.336 4.096 28.672 8.192 40.96 14.336v-143.36c-2.048-4.096-14.336-16.384-59.392-30.72-59.392-14.336-120.832-22.528-182.272-20.48-61.44-2.048-122.88 6.144-182.272 20.48-45.056 12.288-57.344 26.624-59.392 28.672v40.96zM354.304 165.376c-61.44 0-122.88 6.144-182.272 22.528-43.008 12.288-57.344 26.624-59.392 28.672v38.912c14.336-6.144 26.624-10.24 40.96-14.336 65.536-16.384 133.12-24.576 200.704-24.576h16.384v-24.576c0-2.048 0-4.096 0-6.144v-6.144c0-2.048 0-2.048 0-4.096 0 0 0-2.048 0-4.096v-4.096c0 0 0 0 0-2.048h-16.384zM354.304 378.368c-30.72 0-61.44 2.048-92.16 4.096-14.336 2.048-30.72-8.192-32.768-24.576-2.048-14.336 10.24-28.672 26.624-30.72 32.768-4.096 65.536-4.096 98.304-4.096 12.288 0 24.576 0 38.912 0-6.144-16.384-12.288-32.768-16.384-51.2h-30.72c-59.392 0-116.736 6.144-172.032 20.48-45.056 12.288-57.344 26.624-59.392 28.672v145.408c12.288-6.144 26.624-12.288 40.96-14.336 61.44-16.384 124.928-24.576 188.416-24.576h10.24c45.056 0 88.064 4.096 131.072 10.24-16.384-10.24-30.72-24.576-43.008-38.912-6.144-6.144-10.24-12.288-14.336-18.432-24.576-2.048-49.152-2.048-73.728-2.048zM677.888-8.704h-12.288c-102.4 0-192.512 63.488-225.28 157.696v4.096c0 2.048-2.048 4.096-2.048 6.144l-2.048 6.144c0 2.048-2.048 4.096-2.048 6.144v2.048c0 2.048 0 4.096-2.048 4.096v2.048c0 2.048 0 4.096 0 6.144v2.048c0 2.048 0 4.096 0 6.144v2.048c0 2.048 0 4.096 0 6.144v22.528c0 2.048 0 4.096 0 6.144v4.096c0 2.048 0 6.144 0 8.192l2.048 8.192c0 2.048 0 6.144 2.048 8.192 20.48 83.968 86.016 149.504 167.936 172.032l26.624 6.144c14.336 2.048 26.624 2.048 40.96 2.048h6.144c124.928 0 229.376-98.304 233.472-223.232-4.096-124.928-108.544-225.28-233.472-225.28zM219.136 677.376c-2.048-8.192-6.144-14.336-12.288-18.432-4.096-2.048-10.24-4.096-14.336-4.096-2.048 0-4.096 0-6.144 0l-10.24 2.048c-8.192 2.048-14.336 6.144-18.432 14.336-4.096 6.144-4.096 14.336-2.048 22.528s6.144 14.336 12.288 18.432c6.144 4.096 14.336 6.144 22.528 4.096l6.144-4.096c8.192-2.048 14.336-6.144 18.432-12.288 4.096-8.192 6.144-16.384 4.096-22.528zM563.2 558.592c-4.096-2.048-8.192-2.048-12.288-4.096-2.048-2.048-6.144-2.048-8.192-2.048-12.288 0-24.576 8.192-28.672 20.48-4.096 14.336 4.096 30.72 20.48 36.864 4.096 0 8.192 2.048 12.288 4.096 8.192 2.048 14.336 2.048 22.528-2.048 6.144-4.096 12.288-10.24 14.336-16.384 4.096-14.336-4.096-30.72-20.48-36.864zM219.136 359.936c-2.048-8.192-6.144-14.336-12.288-18.432-4.096-2.048-10.24-4.096-14.336-4.096-2.048 0-4.096 0-6.144 2.048l-10.24 2.048c-16.384 4.096-24.576 20.48-20.48 36.864 4.096 14.336 20.48 24.576 36.864 20.48l10.24-2.048c10.24-6.144 20.48-20.48 16.384-36.864z" />
<glyph unicode="&#xe911;" glyph-name="ic-dati-cliente" d="M944.128 185.856l-12.288 4.096-145.408 61.44h86.016c30.72-2.048 59.392 2.048 88.064 10.24 16.384 6.144 28.672 20.48 32.768 36.864s2.048 32.768-8.192 47.104c-59.392 77.824-96.256 169.984-106.496 266.24 0 55.296-22.528 108.544-63.488 147.456-38.912 36.864-90.112 59.392-145.408 59.392h-4.096c-26.624 0-51.2-4.096-75.776-12.288-6.144 12.288-14.336 24.576-24.576 36.864-45.056 45.056-108.544 69.632-169.984 61.44-63.488 6.144-126.976-14.336-174.080-59.392-24.576-30.72-38.912-71.68-36.864-112.64v-86.016c-10.24-12.288-16.384-28.672-16.384-45.056v-65.536c0-22.528 10.24-43.008 26.624-55.296 12.288-43.008 30.72-81.92 57.344-116.736v-51.2c0-14.336-6.144-26.624-18.432-32.768l-149.504-79.872c-51.2-22.528-83.968-75.776-83.968-133.12v-77.824h1024v69.632c-2.048 55.296-30.72 102.4-79.872 126.976zM731.136 38.4h-681.984v28.672c0 38.912 20.48 75.776 57.344 94.208l149.504 79.872c26.624 14.336 45.056 43.008 45.056 73.728v69.632l-6.144 6.144c-26.624 32.768-45.056 71.68-55.296 114.688l-4.096 8.192-10.24 4.096c-6.144 4.096-10.24 12.288-10.24 20.48v65.536c0 8.192 4.096 14.336 6.144 18.432l10.24 6.144v110.592c-2.048 26.624 6.144 55.296 24.576 75.776 36.864 32.768 86.016 49.152 135.168 45.056 49.152 4.096 98.304-12.288 133.12-45.056 12.288-12.288 20.48-26.624 22.528-40.96v-143.36l8.192-6.144c4.096-4.096 8.192-12.288 8.192-18.432v-65.536c0-10.24-6.144-20.48-16.384-22.528l-12.288-4.096-4.096-12.288c-10.24-32.768-26.624-63.488-47.104-92.16-2.048-2.048-4.096-6.144-8.192-8.192-2.048-4.096-4.096-6.144-6.144-8.192l-6.144-6.144v-73.728c0-4.096 0-8.192 2.048-12.288 0-4.096 0-6.144 2.048-8.192 0 0 0-2.048 0-2.048v-4.096c2.048-2.048 2.048-4.096 2.048-4.096 0-2.048 2.048-2.048 2.048-4.096v-4.096c2.048-6.144 6.144-10.24 10.24-14.336l4.096-4.096c6.144-6.144 12.288-10.24 20.48-16.384l159.744-77.824c36.864-18.432 61.44-55.296 61.44-96.256v-26.624zM974.848 38.4h-186.368v24.576c0 59.392-34.816 114.688-88.064 139.264l-110.592 53.248c2.048 6.144 0 12.288-2.048 18.432-4.096 14.336-20.48 24.576-34.816 22.528h-32.768c0 2.048-2.048 2.048-2.048 2.048v63.488c4.096 4.096 8.192 10.24 10.24 14.336 20.48 28.672 36.864 59.392 51.2 92.16 24.576 12.288 40.96 36.864 40.96 65.536v65.536c0 16.384-6.144 32.768-16.384 45.056v83.968c2.048 10.24 0 20.48 0 30.72 20.48 6.144 40.96 10.24 61.44 10.24 88.064 2.048 161.792-67.584 163.84-155.648v-4.096c10.24-108.544 49.152-208.896 114.688-294.912 2.048-2.048 2.048-4.096 0-8.192 0-2.048-2.048-4.096-4.096-4.096-20.48-8.192-43.008-10.24-67.584-8.192h-116.736c-12.288 0-24.576-6.144-32.768-18.432-8.192-10.24-8.192-24.576-2.048-36.864 6.144-14.336 18.432-28.672 32.768-34.816l163.84-69.632c32.768-14.336 53.248-47.104 51.2-83.968v-12.288z" />
<glyph unicode="&#xe912;" glyph-name="ic-decrease" d="M1005.568 785.92c-10.24 14.336-26.624 24.576-45.056 24.576h-897.024c-18.432 0-34.816-8.192-45.056-24.576-24.576-32.768-24.576-79.872 0-112.64l448.512-561.152c16.384-24.576 51.2-30.72 75.776-14.336 6.144 4.096 10.24 8.192 14.336 14.336l448.512 561.152c24.576 32.768 24.576 77.824 0 112.64v0z" />
<glyph unicode="&#xe913;" glyph-name="ic-delete" d="M995.328-23.040c-20.48-22.528-47.104-34.816-77.824-36.864-28.672-2.048-57.344 8.192-79.872 28.672l-323.584 323.584-321.536-321.536c-2.048-2.048-4.096-4.096-6.144-6.144-20.48-18.432-47.104-28.672-73.728-28.672h-6.144c-28.672 2.048-57.344 14.336-77.824 36.864s-30.72 51.2-28.672 79.872c2.048 28.672 14.336 57.344 36.864 77.824l319.488 321.536-321.536 319.488c-38.912 45.056-38.912 108.544 0 151.552 20.48 22.528 47.104 34.816 77.824 36.864 28.672 2.048 57.344-8.192 79.872-28.672l323.584-323.584 321.536 321.536c43.008 38.912 108.544 38.912 151.552 2.048 45.056-40.96 49.152-110.592 8.192-157.696l-325.632-323.584 321.536-321.536c40.96-43.008 40.96-108.544 2.048-151.552z" />
<glyph unicode="&#xe914;" glyph-name="ic-diario-bordo" d="M331.776 374.272h-14.336c-8.192 0-14.336 6.144-14.336 14.336 0 4.096 2.048 6.144 4.096 8.192 10.24 10.24 16.384 22.528 20.48 34.816 0 0 2.048-2.048 4.096-2.048 8.192 0 18.432 20.48 18.432 34.816s-2.048 24.576-12.288 24.576c-2.048 0-2.048 0-4.096 0 0 36.864-10.24 83.968-61.44 83.968-55.296 0-61.44-47.104-61.44-83.968 0 0-2.048 0-2.048 0-8.192 0-10.24-10.24-10.24-24.576s10.24-34.816 18.432-34.816c2.048 0 2.048 0 2.048 0 4.096-12.288 12.288-24.576 20.48-34.816 2.048-2.048 4.096-6.144 4.096-8.192 0-8.192-6.144-14.336-14.336-14.336h-14.336c-32.768-2.048-59.392-28.672-59.392-63.488v-18.432c0-10.24 8.192-20.48 18.432-20.48h194.56c10.24 0 18.432 10.24 18.432 20.48v18.432c4.096 34.816-22.528 63.488-55.296 65.536zM884.736 865.792h-745.472c-77.824-2.048-139.264-63.488-139.264-141.312 0 0 0 0 0 0v-555.008c0-77.824 61.44-139.264 139.264-139.264 0 0 0 0 0 0h747.52c77.824 0 139.264 63.488 139.264 139.264 0 0 0 0 0 0v555.008c-2.048 77.824-63.488 139.264-141.312 141.312 0 0 0 0 0 0zM958.464 171.52c0-40.96-32.768-73.728-73.728-73.728h-745.472c-40.96 0-73.728 32.768-73.728 73.728v552.96c0 40.96 32.768 73.728 73.728 73.728h747.52c40.96 0 73.728-32.768 73.728-73.728v-552.96zM854.016 527.872h-378.88c-8.192 0-14.336 6.144-14.336 14.336s6.144 14.336 14.336 14.336h380.928c8.192 0 14.336-6.144 14.336-14.336s-8.192-14.336-16.384-14.336zM854.016 400.896h-378.88c-8.192 0-14.336 6.144-14.336 14.336s6.144 14.336 14.336 14.336h380.928c8.192 0 14.336-6.144 14.336-14.336s-8.192-14.336-16.384-14.336zM854.016 275.968h-378.88c-8.192 0-14.336 6.144-14.336 14.336s6.144 14.336 14.336 14.336h380.928c8.192 0 14.336-6.144 14.336-14.336s-8.192-14.336-16.384-14.336z" />
<glyph unicode="&#xe915;" glyph-name="ic-download" d="M765.399 493.056c-6.144 12.288-16.384 18.432-28.672 18.432h-129.024v415.744c0 18.432-14.336 32.768-32.768 32.768h-129.024c-18.432 0-32.768-14.336-32.768-32.768v-415.744h-129.024c-18.432 0-32.768-14.336-30.72-32.768 0-8.192 2.048-14.336 8.192-20.48l225.28-256c12.288-12.288 32.768-14.336 45.056-2.048 0 0 2.048 2.048 2.048 2.048l223.232 256c10.24 10.24 12.288 22.528 8.192 34.816zM864.256 255.16v-192.512h-704.512v192.512h-126.976v-256c0-34.816 28.672-63.488 63.488-63.488 0 0 0 0 0 0h831.488c34.816 0 63.488 28.672 63.488 63.488 0 0 0 0 0 0v256h-126.976z" />
<glyph unicode="&#xe916;" glyph-name="ic-female" d="M751.616 378.368c133.12 133.12 133.12 348.16 0 481.28s-348.16 133.12-481.28 0-133.12-348.16 0-481.28c53.248-55.296 124.928-88.064 200.704-98.304v-114.688h-79.872c-22.528 0-40.96-18.432-40.96-40.96s18.432-40.96 40.96-40.96v0h79.872v-112.64c2.048-22.528 20.48-38.912 40.96-38.912s36.864 18.432 38.912 38.912v112.64h79.872c22.528 0 40.96 18.432 40.96 40.96s-18.432 40.96-40.96 40.96h-77.824v114.688c75.776 10.24 145.408 45.056 198.656 98.304zM327.68 435.712c-102.4 102.4-102.4 266.24 0 368.64s266.24 102.4 368.64 0 102.4-266.24 0-368.64c0 0 0 0 0 0-102.4-102.4-266.24-102.4-368.64 0v0z" />
<glyph unicode="&#xe917;" glyph-name="ic-feo" d="M47.104 32.256c-26.624 0-47.104-20.48-47.104-47.104s20.48-47.104 47.104-47.104h301.056c26.624 0 47.104 20.48 47.104 47.104s-20.48 47.104-47.104 47.104h-301.056zM964.608 900.608c-79.872 79.872-208.896 79.872-288.768 0l-374.784-374.784c-8.192-8.192-14.336-18.432-16.384-28.672l-81.92-268.288c-10.24-36.864 10.24-73.728 45.056-86.016 12.288-4.096 26.624-4.096 38.912 0l276.48 75.776c12.288 4.096 22.528 8.192 30.72 18.432l374.784 372.736c75.776 79.872 75.776 210.944-4.096 290.816zM505.856 345.6l-139.264-38.912 40.96 133.12 253.952 253.952 96.256-96.256-251.904-251.904zM868.352 706.048l-12.288-12.288-96.256 96.256 12.288 12.288c26.624 26.624 69.632 26.624 96.256 0 26.624-24.576 26.624-69.632 0-96.256v0z" />
<glyph unicode="&#xe918;" glyph-name="ic-flash" d="M847.872 484.864c-6.144 12.288-16.384 20.48-28.672 22.528l-212.992 47.104 131.072 356.352c6.144 18.432-4.096 38.912-22.528 45.056-14.336 6.144-32.768 4.096-47.104-8.192l-479.232-450.56c-10.24-8.192-14.336-24.576-10.24-40.96 6.144-12.288 16.384-20.48 28.672-22.528l208.896-47.104-184.32-401.408c-6.144-20.48 4.096-38.912 20.48-45.056 6.144-2.048 14.336-6.144 20.48-4.096 10.24 0 20.48 4.096 28.672 10.24l538.624 495.616c8.192 12.288 14.336 26.624 8.192 43.008zM391.168 140.8l118.784 260.096c4.096 10.24 4.096 24.576-2.048 34.816-6.144 8.192-14.336 14.336-24.576 16.384l-186.368 40.96 301.056 282.624-86.016-235.52c-4.096-10.24-2.048-22.528 4.096-32.768 6.144-8.192 14.336-14.336 24.576-16.384l184.32-40.96-333.824-309.248z" />
<glyph unicode="&#xe919;" glyph-name="ic-folder" d="M1009.521 584.11c-10.24 14.336-26.624 22.528-45.056 24.576h-38.912v79.872c0 36.864-30.72 67.584-67.584 67.584h-391.168l-81.92 114.688h-317.44c-36.864 0-67.584-30.72-67.584-67.584v-712.704c0-16.384 6.144-32.768 18.432-45.056s28.672-18.432 47.104-18.432h729.088c28.672 0 53.248 18.432 61.44 45.056l165.888 456.704 2.048 8.192c2.048 16.384-4.096 34.816-14.336 47.104zM847.729 608.686h-618.496c-28.672 0-53.248-18.432-61.44-45.056l-90.112-247.808v475.136h266.24l81.92-114.688h421.888v-67.584zM239.473 530.862h700.416l-155.648-428.032h-700.416l155.648 428.032z" />
<glyph unicode="&#xe91a;" glyph-name="ic-gift" d="M956.416 777.728h-73.728c10.24 14.336 16.384 30.72 18.432 47.104 6.144 55.296-26.624 106.496-77.824 124.928-47.104 20.48-102.4 12.288-143.36-20.48l-94.208-77.824c-40.96 40.96-106.496 40.96-147.456 0l-94.208 77.824c-40.96 32.768-94.208 40.96-143.36 20.48-51.2-20.48-83.968-71.68-77.824-124.928 2.048-16.384 8.192-32.768 18.432-47.104h-73.728c-34.816 2.048-65.536-26.624-67.584-61.44v-92.16c0-18.432 16.384-30.72 32.768-30.72h956.416c18.432 0 32.768 12.288 32.768 30.72v92.16c0 34.816-28.672 61.44-65.536 61.44zM411.648 787.968v-10.24h-157.696c-32.768-2.048-63.488 22.528-63.488 57.344 0 6.144 0 10.24 2.048 16.384 6.144 18.432 18.432 32.768 36.864 38.912 24.576 10.24 51.2 6.144 71.68-10.24l110.592-92.16c0 0 0 0 0 0zM835.584 833.024c-6.144-32.768-34.816-57.344-69.632-55.296h-153.6v10.24c0 0 0 0 0 2.048l110.592 92.16c18.432 14.336 40.96 20.48 63.488 14.336 30.72-8.192 51.2-34.816 49.152-63.488v0zM60.498 448.184v-450.56c0-34.816 26.624-61.44 61.44-61.44v0h286.72v512h-348.16zM616.202 448.184v-509.952h286.72c34.816 0 61.44 26.624 61.44 61.44 0 0 0 0 0 0v450.56l-348.16-2.048z" />
<glyph unicode="&#xe91b;" glyph-name="ic-hourglass" d="M854.016 38.4h-86.016v102.4c0 129.024-69.632 245.76-184.32 307.2 112.64 61.44 184.32 178.176 184.32 307.2v102.4h86.016c28.672 0 51.2 22.528 51.2 51.2s-22.528 51.2-51.2 51.2v0h-684.032c-28.672 0-51.2-22.528-51.2-51.2s22.528-51.2 51.2-51.2h86.016v-102.4c0-129.024 69.632-245.76 184.32-307.2-112.64-61.44-184.32-178.176-184.32-307.2v-102.4h-86.016c-28.672 0-51.2-22.528-51.2-51.2s22.528-51.2 51.2-51.2c0 0 0 0 0 0h686.080c28.672 0 51.2 22.528 51.2 51.2s-24.576 51.2-53.248 51.2c0 0 0 0 0 0zM288.768 755.2v102.4h446.464v-102.4c0-126.976-75.776-241.664-192.512-290.816h-61.44c-116.736 49.152-192.512 163.84-192.512 290.816zM288.768 140.8c0 126.976 75.776 241.664 192.512 290.816h61.44c116.736-49.152 192.512-163.84 192.512-290.816v-102.4c0 10.24-8.192 16.384-16.384 16.384-10.24 0-16.384-8.192-16.384-16.384h-34.816c0 10.24-8.192 16.384-16.384 16.384-10.24 0-16.384-8.192-16.384-16.384h-34.816c0 10.24-8.192 16.384-16.384 16.384-10.24 0-16.384-8.192-16.384-16.384h-34.816c0 10.24-8.192 16.384-16.384 16.384-10.24 0-16.384-8.192-16.384-16.384h-34.816c0 10.24-8.192 16.384-16.384 16.384-10.24 0-16.384-8.192-16.384-16.384h-34.816c0 10.24-8.192 16.384-16.384 16.384-10.24 0-16.384-8.192-16.384-16.384h-34.816c0 10.24-8.192 16.384-16.384 16.384-10.24 0-16.384-8.192-16.384-16.384l-8.192 102.4zM360.448 85.504c0-10.18-8.252-18.432-18.432-18.432s-18.432 8.252-18.432 18.432c0 10.18 8.252 18.432 18.432 18.432s18.432-8.252 18.432-18.432zM428.032 85.504c0-10.18-8.252-18.432-18.432-18.432s-18.432 8.252-18.432 18.432c0 10.18 8.252 18.432 18.432 18.432s18.432-8.252 18.432-18.432zM495.616 85.504c0-10.18-8.252-18.432-18.432-18.432s-18.432 8.252-18.432 18.432c0 10.18 8.252 18.432 18.432 18.432s18.432-8.252 18.432-18.432zM565.248 85.504c0-10.18-8.252-18.432-18.432-18.432s-18.432 8.252-18.432 18.432c0 10.18 8.252 18.432 18.432 18.432s18.432-8.252 18.432-18.432zM632.832 85.504c0-10.18-8.252-18.432-18.432-18.432s-18.432 8.252-18.432 18.432c0 10.18 8.252 18.432 18.432 18.432s18.432-8.252 18.432-18.432zM700.416 85.504c0-10.18-8.252-18.432-18.432-18.432s-18.432 8.252-18.432 18.432c0 10.18 8.252 18.432 18.432 18.432s18.432-8.252 18.432-18.432zM393.216 122.368c0-10.18-8.252-18.432-18.432-18.432s-18.432 8.252-18.432 18.432c0 10.18 8.252 18.432 18.432 18.432s18.432-8.252 18.432-18.432zM462.848 122.368c0-10.18-8.252-18.432-18.432-18.432s-18.432 8.252-18.432 18.432c0 10.18 8.252 18.432 18.432 18.432s18.432-8.252 18.432-18.432zM530.432 396.8c0-10.18-8.252-18.432-18.432-18.432s-18.432 8.252-18.432 18.432c0 10.18 8.252 18.432 18.432 18.432s18.432-8.252 18.432-18.432zM428.032 583.168c0-10.18-8.252-18.432-18.432-18.432s-18.432 8.252-18.432 18.432c0 10.18 8.252 18.432 18.432 18.432s18.432-8.252 18.432-18.432zM495.616 583.168c0-10.18-8.252-18.432-18.432-18.432s-18.432 8.252-18.432 18.432c0 10.18 8.252 18.432 18.432 18.432s18.432-8.252 18.432-18.432zM565.248 583.168c0-10.18-8.252-18.432-18.432-18.432s-18.432 8.252-18.432 18.432c0 10.18 8.252 18.432 18.432 18.432s18.432-8.252 18.432-18.432zM632.832 583.168c0-10.18-8.252-18.432-18.432-18.432s-18.432 8.252-18.432 18.432c0 10.18 8.252 18.432 18.432 18.432s18.432-8.252 18.432-18.432zM598.016 617.984c0-10.18-8.252-18.432-18.432-18.432s-18.432 8.252-18.432 18.432c0 10.18 8.252 18.432 18.432 18.432s18.432-8.252 18.432-18.432zM632.832 652.8c0-10.18-8.252-18.432-18.432-18.432s-18.432 8.252-18.432 18.432c0 10.18 8.252 18.432 18.432 18.432s18.432-8.252 18.432-18.432zM462.848 617.984c0-10.18-8.252-18.432-18.432-18.432s-18.432 8.252-18.432 18.432c0 10.18 8.252 18.432 18.432 18.432s18.432-8.252 18.432-18.432zM530.432 617.984c0-10.18-8.252-18.432-18.432-18.432s-18.432 8.252-18.432 18.432c0 10.18 8.252 18.432 18.432 18.432s18.432-8.252 18.432-18.432zM428.032 652.8c0-10.18-8.252-18.432-18.432-18.432s-18.432 8.252-18.432 18.432c0 10.18 8.252 18.432 18.432 18.432s18.432-8.252 18.432-18.432zM462.848 550.4c0-10.18-8.252-18.432-18.432-18.432s-18.432 8.252-18.432 18.432c0 10.18 8.252 18.432 18.432 18.432s18.432-8.252 18.432-18.432zM495.616 515.584c0-10.18-8.252-18.432-18.432-18.432s-18.432 8.252-18.432 18.432c0 10.18 8.252 18.432 18.432 18.432s18.432-8.252 18.432-18.432zM565.248 515.584c0-10.18-8.252-18.432-18.432-18.432s-18.432 8.252-18.432 18.432c0 10.18 8.252 18.432 18.432 18.432s18.432-8.252 18.432-18.432zM530.432 550.4c0-10.18-8.252-18.432-18.432-18.432s-18.432 8.252-18.432 18.432c0 10.18 8.252 18.432 18.432 18.432s18.432-8.252 18.432-18.432zM598.016 550.4c0-10.18-8.252-18.432-18.432-18.432s-18.432 8.252-18.432 18.432c0 10.18 8.252 18.432 18.432 18.432s18.432-8.252 18.432-18.432zM530.432 345.6c0-10.18-8.252-18.432-18.432-18.432s-18.432 8.252-18.432 18.432c0 10.18 8.252 18.432 18.432 18.432s18.432-8.252 18.432-18.432zM530.432 294.4c0-10.18-8.252-18.432-18.432-18.432s-18.432 8.252-18.432 18.432c0 10.18 8.252 18.432 18.432 18.432s18.432-8.252 18.432-18.432zM530.432 243.2c0-10.18-8.252-18.432-18.432-18.432s-18.432 8.252-18.432 18.432c0 10.18 8.252 18.432 18.432 18.432s18.432-8.252 18.432-18.432zM530.432 192c0-10.18-8.252-18.432-18.432-18.432s-18.432 8.252-18.432 18.432c0 10.18 8.252 18.432 18.432 18.432s18.432-8.252 18.432-18.432zM530.432 142.848c0-10.18-8.252-18.432-18.432-18.432s-18.432 8.252-18.432 18.432c0 10.18 8.252 18.432 18.432 18.432s18.432-8.252 18.432-18.432zM598.016 122.368c0-10.18-8.252-18.432-18.432-18.432s-18.432 8.252-18.432 18.432c0 10.18 8.252 18.432 18.432 18.432s18.432-8.252 18.432-18.432zM667.648 122.368c0-10.18-8.252-18.432-18.432-18.432s-18.432 8.252-18.432 18.432c0 10.18 8.252 18.432 18.432 18.432s18.432-8.252 18.432-18.432z" />
<glyph unicode="&#xe91c;" glyph-name="ic-impostazioni" d="M970.752 554.496l-71.68 12.288c-8.192 24.576-16.384 47.104-28.672 69.632l43.008 59.392c18.432 24.576 14.336 59.392-6.144 81.92l-63.488 63.488c-12.288 12.288-28.672 18.432-45.056 18.432-12.288 0-26.624-4.096-36.864-12.288l-59.392-43.008c-22.528 12.288-47.104 22.528-71.68 30.72l-12.288 69.632c-4.096 30.72-30.72 53.248-61.44 53.248h-90.112c-30.72 0-57.344-22.528-61.44-53.248l-12.288-71.68c-24.576-8.192-47.104-16.384-69.632-28.672l-59.392 43.008c-24.576 18.432-59.392 14.336-81.92-6.144l-63.488-63.488c-22.528-22.528-24.576-55.296-6.144-81.92l43.008-59.392c-12.288-22.528-20.48-45.056-28.672-69.632l-71.68-12.288c-30.72-4.096-53.248-30.72-53.248-61.44v-90.112c0-30.72 22.528-57.344 53.248-61.44l71.68-12.288c8.192-24.576 16.384-47.104 28.672-69.632l-43.008-59.392c-18.432-24.576-14.336-59.392 6.144-81.92l63.488-63.488c12.288-12.288 28.672-18.432 45.056-18.432 12.288 0 26.624 4.096 36.864 12.288l59.392 43.008c22.528-12.288 45.056-20.48 67.584-28.672l12.288-71.68c6.144-30.72 30.72-53.248 61.44-53.248h90.112c30.72 0 57.344 22.528 61.44 53.248l12.288 71.68c24.576 8.192 47.104 16.384 69.632 28.672l59.392-43.008c10.24-8.192 24.576-12.288 36.864-12.288v0c16.384 0 32.768 6.144 45.056 18.432l63.488 63.488c22.528 22.528 24.576 55.296 6.144 81.92l-43.008 59.392c12.288 22.528 20.48 45.056 28.672 69.632l71.68 12.288c30.72 6.144 53.248 30.72 53.248 61.44v90.112c4.096 30.72-18.432 57.344-49.152 61.44zM966.656 402.944c0-2.048-2.048-6.144-4.096-6.144l-90.112-14.336c-10.24-2.048-20.48-10.24-22.528-20.48-8.192-30.72-20.48-61.44-36.864-90.112-6.144-10.24-6.144-22.528 2.048-30.72l53.248-73.728c2.048-2.048 2.048-6.144 0-8.192l-63.488-63.488c-2.048-2.048-2.048-2.048-4.096-2.048s-2.048 0-4.096 2.048l-73.728 53.248c-10.24 6.144-22.528 6.144-30.72 2.048-28.672-16.384-57.344-28.672-90.112-36.864-10.24-2.048-18.432-12.288-20.48-22.528l-14.336-90.112c0-2.048-2.048-4.096-6.144-4.096h-90.112c-2.048 0-6.144 2.048-6.144 4.096l-14.336 90.112c-2.048 10.24-10.24 20.48-20.48 22.528-30.72 8.192-59.392 20.48-88.064 36.864-4.096 2.048-10.24 4.096-14.336 4.096-6.144 0-12.288-2.048-16.384-6.144l-75.776-53.248c0 0-2.048 0-4.096-2.048-2.048 0-2.048 0-4.096 2.048l-63.488 63.488c-2.048 2.048-2.048 4.096 0 8.192l53.248 73.728c6.144 10.24 6.144 22.528 2.048 30.72-16.384 28.672-28.672 57.344-36.864 90.112-2.048 10.24-12.288 18.432-22.528 20.48l-90.112 14.336c-2.048 0-4.096 2.048-4.096 6.144v90.112c0 2.048 2.048 6.144 4.096 6.144l90.112 14.336c12.288 2.048 20.48 10.24 22.528 20.48 8.192 30.72 20.48 61.44 36.864 90.112 6.144 10.24 6.144 22.528-2.048 30.72l-53.248 75.776c-2.048 2.048-2.048 6.144 0 8.192l63.488 63.488c2.048 2.048 2.048 2.048 4.096 2.048s2.048 0 4.096-2.048l73.728-53.248c10.24-6.144 22.528-6.144 30.72-2.048 28.672 16.384 57.344 28.672 90.112 36.864 10.24 2.048 18.432 12.288 20.48 22.528l14.336 90.112c0 2.048 2.048 4.096 6.144 4.096h90.112c2.048 0 6.144-2.048 6.144-4.096l14.336-90.112c2.048-12.288 10.24-20.48 20.48-22.528 32.768-8.192 63.488-20.48 92.16-36.864 10.24-6.144 22.528-6.144 30.72 2.048l73.728 53.248c0 0 2.048 0 4.096 2.048 2.048 0 2.048 0 4.096-2.048l63.488-63.488c2.048-2.048 2.048-4.096 0-8.192l-53.248-73.728c-6.144-10.24-6.144-22.528-2.048-30.72 16.384-28.672 28.672-57.344 36.864-90.112 2.048-10.24 12.288-18.432 22.528-20.48l90.112-14.336c2.048 0 4.096-2.048 4.096-6.144l-2.048-92.16zM514.048 689.664c-133.12 0-243.712-108.544-243.712-243.712s108.544-243.712 243.712-243.712c133.12 0 243.712 108.544 243.712 243.712-2.048 135.168-110.592 243.712-243.712 243.712zM514.048 265.728c-98.304 0-178.176 79.872-178.176 178.176s79.872 178.176 178.176 178.176c98.304 0 178.176-79.872 178.176-178.176s-79.872-178.176-178.176-178.176c0 0 0 0 0 0v0z" />
<glyph unicode="&#xe91d;" glyph-name="ic-increase" d="M18.35 110.981c10.24-14.336 26.624-24.576 45.056-24.576h897.024c18.432 0 34.816 8.192 45.056 24.576 24.576 32.768 24.576 79.872 0 112.64l-448.512 563.2c-16.384 24.576-51.2 30.72-75.776 14.336-6.144-4.096-10.24-8.192-14.336-14.336l-448.512-563.2c-24.576-32.768-24.576-79.872 0-112.64v0z" />
<glyph unicode="&#xe91e;" glyph-name="ic-iniziative" d="M1024 542.208c0 71.68-53.248 133.12-124.928 141.312v163.84c0 28.672-22.528 51.2-51.2 51.2-8.192 0-16.384-2.048-24.576-6.144-151.552-83.968-319.488-135.168-491.52-147.456h-159.744c-38.912 0-71.68-28.672-75.776-67.584h-32.768c-34.816 0-63.488-28.672-63.488-65.536v-141.312c0-34.816 28.672-63.488 63.488-63.488h32.768c4.096-26.624 20.48-51.2 45.056-61.44l114.688-317.44c8.192-20.48 26.624-32.768 47.104-32.768h114.688c28.672 0 51.2 22.528 51.2 49.152 0 6.144-2.048 12.288-2.048 16.384l-98.304 274.432c63.488-6.144 126.976-18.432 190.464-34.816 47.104-12.288 92.16-28.672 137.216-47.104 43.008-18.432 86.016-38.912 126.976-61.44 8.192-4.096 16.384-6.144 24.576-6.144s18.432 2.048 24.576 6.144c16.384 8.192 24.576 26.624 24.576 43.008v163.84c73.728 10.24 126.976 71.68 126.976 143.36zM145.408 667.136c0 14.336 12.288 28.672 26.624 28.672 0 0 0 0 0 0h135.168v-307.2h-135.168c-4.096 0-6.144 0-10.24 2.048-10.24 4.096-16.384 14.336-16.384 24.576 0 2.048 0 251.904 0 251.904zM49.152 472.576v139.264c0 8.192 6.144 14.336 14.336 14.336 0 0 0 0 0 0h32.768v-169.984h-32.768c-8.192 2.048-14.336 8.192-14.336 16.384zM419.84 46.592c0-2.048 0-2.048 0 0h-116.736c0 0 0 0 0 0l-106.496 292.864h116.736l106.496-292.864zM849.92 235.008c0 0 0 0 0 0-2.048-2.048-2.048-2.048 0 0-153.6 83.968-319.488 135.168-491.52 151.552v311.296c172.032 16.384 337.92 67.584 489.472 151.552 0 0 0 0 2.048 0 0 0 0 0 0 0v-614.4zM899.072 450.048v184.32c51.2-10.24 83.968-59.392 73.728-110.592-8.192-36.864-36.864-65.536-73.728-73.728v0z" />
<glyph unicode="&#xe91f;" glyph-name="ic-kpi_bgd" d="M972.8 50.688c0-30.72-24.576-57.344-57.344-57.344h-311.296c0 36.864-20.48 69.632-49.152 86.016 12.288 8.192 22.528 16.384 30.72 28.672h329.728c32.768-2.048 57.344-26.624 57.344-57.344zM972.8 220.672c0-30.72-24.576-57.344-57.344-57.344h-311.296c0 36.864-20.48 69.632-49.152 86.016 12.288 6.144 22.528 16.384 30.72 28.672h329.728c32.768 0 57.344-26.624 57.344-57.344zM972.8 390.656c0-30.72-24.576-57.344-57.344-57.344h-311.296c0 36.864-20.48 67.584-49.152 86.016 12.288 8.192 22.528 16.384 30.72 28.672h329.728c32.768 0 57.344-24.576 57.344-57.344zM972.8 562.688c0-30.72-24.576-57.344-57.344-57.344h-311.296c0 55.296-45.056 100.352-98.304 100.352h-24.576c10.24 8.192 22.528 14.336 36.864 14.336h397.312c32.768-2.048 57.344-26.624 57.344-57.344zM518.144 790.016h397.312c30.72 0 57.344-24.576 57.344-57.344v0c0-30.72-24.576-57.344-57.344-57.344h-397.312c-30.72 0-57.344 24.576-57.344 57.344v0c0 30.72 26.624 57.344 57.344 57.344zM518.144 960h397.312c30.72 0 57.344-24.576 57.344-57.344v0c0-30.72-24.576-57.344-57.344-57.344h-397.312c-30.72 0-57.344 24.576-57.344 57.344v0c0 32.768 26.624 57.344 57.344 57.344zM165.888 849.408c6.144 32.768 18.432 57.344 38.912 73.728 18.432 16.384 43.008 24.576 73.728 24.576 12.288 0 22.528 0 30.72-2.048s16.384-4.096 24.576-6.144l-8.192-34.816c-6.144 2.048-14.336 4.096-22.528 6.144s-16.384 2.048-24.576 2.048c-10.24 0-20.48-2.048-28.672-4.096-8.192-4.096-14.336-8.192-20.48-12.288-6.144-6.144-10.24-12.288-14.336-20.48s-6.144-16.384-8.192-26.624h98.304l-6.144-30.72h-96.256c0-4.096 0-8.192 0-10.24 0-4.096 0-8.192 0-12.288s0-8.192 0-10.24 0-6.144 0-10.24h88.064l-6.144-30.72h-79.872c4.096-24.576 14.336-43.008 26.624-53.248s28.672-14.336 47.104-14.336c12.288 0 22.528 2.048 30.72 4.096s16.384 4.096 22.528 8.192l8.192-32.768c-4.096-2.048-12.288-6.144-24.576-8.192s-24.576-4.096-38.912-4.096c-32.768 0-59.392 8.192-77.824 26.624s-30.72 43.008-34.816 75.776h-36.864v28.672h34.816c0 4.096 0 6.144 0 10.24s0 6.144 0 10.24c0 4.096 0 8.192 0 12.288s0 8.192 0 10.24h-34.816v30.72h38.912zM106.496 50.688h397.312c30.72 0 57.344-24.576 57.344-57.344v0c0-30.72-24.576-57.344-57.344-57.344h-397.312c-30.72 0-57.344 24.576-57.344 57.344v0c2.048 30.72 26.624 57.344 57.344 57.344zM106.496 220.672h397.312c30.72 0 57.344-24.576 57.344-57.344v0c0-30.72-24.576-57.344-57.344-57.344h-397.312c-30.72 0-57.344 24.576-57.344 57.344v0c2.048 30.72 26.624 57.344 57.344 57.344zM106.496 390.656h397.312c30.72 0 57.344-24.576 57.344-57.344v0c0-30.72-24.576-57.344-57.344-57.344h-397.312c-30.72 0-57.344 24.576-57.344 57.344v0c2.048 32.768 26.624 57.344 57.344 57.344zM106.496 562.688h397.312c30.72 0 57.344-24.576 57.344-57.344v0c0-30.72-24.576-57.344-57.344-57.344h-397.312c-30.72 0-57.344 24.576-57.344 57.344v0c2.048 30.72 26.624 57.344 57.344 57.344z" />
<glyph unicode="&#xe920;" glyph-name="ic-link" d="M944.128 495.104l-192.512-190.464c-102.4-106.496-272.384-108.544-378.88-4.096-18.432 18.432-32.768 36.864-45.056 59.392l90.112 90.112c4.096 4.096 10.24 6.144 14.336 10.24 6.144-22.528 18.432-40.96 32.768-57.344 53.248-53.248 139.264-53.248 192.512 0l192.512 192.512c51.2 55.296 47.104 141.312-8.192 192.512-51.2 47.104-131.072 47.104-184.32 0l-69.632-73.728c-55.296 20.48-114.688 28.672-172.032 18.432l143.36 145.408c104.448 106.496 276.48 108.544 382.976 2.048s108.544-276.48 2.048-382.976c0 0 0 0 0-2.048v0zM436.224 179.712l-67.584-67.584c-51.2-55.296-135.168-59.392-192.512-10.24-55.296 51.2-59.392 135.168-10.24 192.512 2.048 4.096 6.144 6.144 10.24 10.24l192.512 192.512c53.248 53.248 139.264 53.248 192.512 0 16.384-16.384 26.624-34.816 32.768-57.344 6.144 2.048 10.24 6.144 14.336 10.24l90.112 90.112c-12.288 20.48-24.576 38.912-40.96 55.296-106.496 106.496-278.528 106.496-382.976 0l-192.512-192.512c-108.544-108.544-108.544-278.528-4.096-385.024s276.48-108.544 382.976-2.048c0 0 2.048 2.048 2.048 2.048l145.408 145.408c-57.344-10.24-116.736-4.096-172.032 16.384z" />
<glyph unicode="&#xe921;" glyph-name="ic-maximize" d="M-0.758 490.885v356.352c0 61.44 49.152 110.592 112.64 112.64h800.768c61.44 0 110.592-49.152 112.64-110.592v-798.72c0-61.44-49.152-112.64-112.64-112.64h-358.4c20.48 20.48 32.768 47.104 34.816 73.728h323.584c20.48 0 36.864 16.384 36.864 36.864v800.768c0 20.48-16.384 36.864-36.864 36.864h-800.768c-20.48 0-36.864-16.384-36.864-36.864v-323.584c-28.672-2.048-55.296-14.336-75.776-34.816zM173.322 425.349h243.712l-395.264-395.264c-20.48-22.528-18.432-57.344 4.096-79.872 20.48-20.48 53.248-20.48 75.776 0l393.216 397.312v-243.712c0-30.72 24.576-55.296 55.296-55.296s55.296 24.576 55.296 55.296c0 0 0 0 0 0v378.88c0 30.72-24.576 55.296-55.296 55.296h-378.88c-30.72 0-57.344-22.528-57.344-55.296 0-30.72 22.528-57.344 55.296-57.344 0 0 2.048 0 4.096 0v0z" />
<glyph unicode="&#xe922;" glyph-name="ic-menu_context" d="M385.024 65.024c0 71.68 57.344 126.976 126.976 126.976s126.976-57.344 126.976-126.976-55.296-129.024-126.976-129.024-126.976 57.344-126.976 129.024v0zM385.024 448c0 71.68 57.344 126.976 126.976 126.976s126.976-57.344 126.976-126.976-57.344-126.976-126.976-126.976-126.976 55.296-126.976 126.976v0zM385.024 833.024c0 69.632 55.296 126.976 126.976 126.976s126.976-57.344 126.976-129.024-57.344-126.976-126.976-126.976v0c-71.68 0-126.976 57.344-126.976 129.024z" />
<glyph unicode="&#xe923;" glyph-name="ic-menu-calendario" d="M960.512 833.024h-129.024v63.488c0 34.816-28.672 63.488-63.488 63.488s-63.488-28.672-63.488-63.488v-63.488h-385.024v71.68c-2.048 32.768-28.672 57.344-61.44 57.344h-10.24c-32.768-2.048-59.392-30.72-57.344-63.488v-63.488h-135.168c-32.768-2.048-57.344-28.672-57.344-61.44v-778.24c2.048-32.768 28.672-57.344 61.44-57.344h905.216c32.768 2.048 57.344 28.672 57.344 61.44v778.24c0 30.72-28.672 55.296-61.44 55.296zM897.024 62.976h-768v575.488h768v-575.488zM256 321.024h126.976v-126.976h-126.976v126.976zM448.512 321.024h126.976v-126.976h-126.976v126.976zM638.976 321.024h126.976v-126.976h-126.976v126.976zM638.976 511.488h126.976v-126.976h-126.976v126.976zM448.512 511.488h126.976v-126.976h-126.976v126.976z" />
<glyph unicode="&#xe924;" glyph-name="ic-menu-home" d="M997.376 628.224l-448.512 319.488c-22.528 16.384-51.2 16.384-73.728 0l-448.512-319.488c-28.672-20.48-34.816-61.44-14.336-90.112s61.44-34.816 90.112-14.336v0l26.624 18.432v-542.72c0-34.816 28.672-63.488 63.488-63.488h638.976c34.816 0 63.488 28.672 63.488 63.488v542.72c16.384-16.384 38.912-28.672 63.488-30.72 34.816 0 63.488 28.672 63.488 63.488 2.048 22.528-8.192 40.96-24.576 53.248v0zM768 65.024h-126.976v192.512c0 71.68-57.344 126.976-126.976 126.976-71.68 0-126.976-57.344-126.976-126.976v-192.512h-126.976v571.392l251.904 180.224 256-182.272v-569.344z" />
<glyph unicode="&#xe925;" glyph-name="ic-menu-informazioni" d="M512 960c-282.624 0-512-229.376-512-512s229.376-512 512-512 512 229.376 512 512c0 282.624-229.376 512-512 512zM512 321.024c-71.68 0-126.976 57.344-126.976 126.976s57.344 126.976 126.976 126.976 126.976-57.344 126.976-126.976c0-69.632-57.344-126.976-126.976-126.976zM512 833.024c57.344 0 114.688-12.288 165.888-38.912l-100.352-100.352c-43.008 12.288-90.112 12.288-133.12 0l-100.352 100.352c53.248 24.576 110.592 38.912 167.936 38.912zM126.976 448c0 57.344 12.288 114.688 38.912 165.888l100.352-100.352c-12.288-43.008-12.288-90.112 0-133.12l-100.352-100.352c-24.576 53.248-38.912 110.592-38.912 167.936zM512 65.024c-57.344 0-114.688 12.288-165.888 38.912l100.352 100.352c43.008-12.288 90.112-12.288 133.12 0l100.352-100.352c-53.248-26.624-110.592-40.96-167.936-38.912zM858.112 282.112l-100.352 100.352c12.288 43.008 12.288 90.112 0 133.12l100.352 100.352c51.2-106.496 51.2-229.376 0-333.824z" />
<glyph unicode="&#xe926;" glyph-name="ic-menu-ipostazioni" d="M851.968 628.224l69.632 135.168-90.112 90.112-135.168-69.632c-22.528 12.288-45.056 20.48-69.632 24.576l-51.2 153.6h-126.976l-51.2-147.456c-22.528-6.144-43.008-14.336-63.488-24.576l-135.168 69.632-96.256-96.256 69.632-135.168c-10.24-20.48-20.48-40.96-24.576-63.488l-147.456-51.2v-126.976l147.456-51.2c6.144-24.576 18.432-45.056 24.576-69.632l-69.632-135.168 90.112-90.112 135.168 69.632c22.528-12.288 45.056-20.48 69.632-24.576l51.2-147.456h126.976l51.2 147.456c24.576 6.144 45.056 18.432 69.632 24.576l135.168-69.632 90.112 90.112-69.632 135.168c12.288 22.528 20.48 45.056 24.576 69.632l147.456 51.2v126.976l-147.456 51.2c-6.144 20.48-14.336 43.008-24.576 63.488zM512 255.488c-104.448-2.048-190.464 81.92-192.512 184.32 0 2.048 0 4.096 0 6.144-2.048 104.448 81.92 190.464 184.32 192.512 2.048 0 4.096 0 6.144 0 104.448 2.048 190.464-81.92 192.512-184.32 0-2.048 0-4.096 0-6.144 2.048-104.448-81.92-190.464-184.32-192.512-2.048 0-4.096 0-6.144 0z" />
<glyph unicode="&#xe927;" glyph-name="ic-menu-mail" d="M960.512 896.512h-897.024c-34.816 0-63.488-28.672-63.488-63.488v-768c0-34.816 28.672-63.488 63.488-63.488h897.024c34.816 0 63.488 28.672 63.488 63.488v768c0 34.816-28.672 63.488-63.488 63.488zM897.024 128.512h-768v401.408l352.256-200.704c20.48-10.24 43.008-10.24 63.488 0l352.256 200.704v-401.408zM897.024 677.376l-385.024-219.136-385.024 219.136v90.112h768v-90.112z" />
<glyph unicode="&#xe928;" glyph-name="ic-menu-report" d="M831.488-64c-32.768-2.048-61.44 22.528-63.488 57.344 0 2.048 0 4.096 0 8.192v573.44c-2.048 32.768 22.528 61.44 57.344 63.488 2.048 0 4.096 0 8.192 0h126.976c32.768 2.048 61.44-22.528 63.488-57.344 0-2.048 0-4.096 0-8.192v-575.488c2.048-32.768-22.528-61.44-57.344-63.488-2.048 0-4.096 0-8.192 0h-126.976zM448.512-64c-32.768-2.048-61.44 22.528-63.488 57.344 0 2.048 0 4.096 0 8.192v894.976c-2.048 32.768 22.528 61.44 57.344 63.488 2.048 0 4.096 0 8.192 0h126.976c32.768 2.048 61.44-22.528 63.488-57.344 0-2.048 0-4.096 0-8.192v-894.976c2.048-32.768-22.528-61.44-57.344-63.488-2.048 0-4.096 0-8.192 0h-126.976zM63.488-64c-32.768-2.048-61.44 22.528-63.488 57.344 0 2.048 0 4.096 0 8.192v253.952c-2.048 32.768 22.528 61.44 57.344 63.488 2.048 0 4.096 0 8.192 0h126.976c32.768 2.048 61.44-22.528 63.488-57.344 0-2.048 0-4.096 0-6.144v-256c2.048-32.768-22.528-61.44-57.344-63.488-2.048 0-4.096 0-8.192 0h-126.976z" />
<glyph unicode="&#xe929;" glyph-name="ic-menu" d="M-0.266 922.399h1024v-126.976h-1024v126.976zM-0.266 512.799h1024v-126.976h-1024v126.976zM-0.266 101.151h1024v-126.976h-1024v126.976z" />
<glyph unicode="&#xe92a;" glyph-name="ic-message" d="M638.976 128.512h-319.488l116.736 126.976h395.264c34.816 0 63.488 28.672 63.488 63.488v385.024h63.488c34.816 0 63.488-28.672 63.488-63.488v-448.512c0-34.816-28.672-63.488-63.488-63.488h-126.976v-192.512l-192.512 192.512zM192.512 384.512h-126.976c-34.816 0-63.488 28.672-63.488 63.488v448.512c0 34.816 28.672 63.488 63.488 63.488h638.976c34.816 0 63.488-28.672 63.488-63.488v-448.512c0-34.816-28.672-63.488-63.488-63.488h-319.488l-192.512-192.512v192.512z" />
<glyph unicode="&#xe92b;" glyph-name="ic-minimize" d="M1024.758 405.012v-356.352c0-61.44-49.152-110.592-112.64-112.64h-800.768c-61.44 0-110.592 49.152-112.64 110.592v798.72c0 61.44 49.152 112.64 112.64 112.64h358.4c-20.48-20.48-32.768-47.104-34.816-73.728h-323.584c-20.48 0-36.864-16.384-36.864-36.864v-800.768c0-20.48 16.384-36.864 36.864-36.864h800.768c20.48 0 36.864 16.384 36.864 36.864v323.584c28.672 2.048 55.296 14.336 75.776 34.816zM850.678 470.548h-243.712l395.264 395.264c20.48 22.528 18.432 57.344-4.096 79.872-20.48 20.48-53.248 20.48-75.776 0l-393.216-397.312v245.76c0 30.72-24.576 55.296-55.296 55.296s-55.296-24.576-55.296-55.296c0 0 0 0 0 0v-378.88c0-30.72 24.576-55.296 55.296-55.296h378.88c30.72 0 57.344 22.528 57.344 55.296 0 30.72-22.528 57.344-55.296 57.344 0-2.048-2.048-2.048-4.096-2.048v0z" />
<glyph unicode="&#xe92c;" glyph-name="ic-modifica" d="M0 149.074v-212.992h212.992l628.736 628.736-212.992 212.992-628.736-628.736zM1007.616 730.706c22.528 22.528 22.528 57.344 0 79.872l-133.12 133.12c-22.528 22.528-57.344 22.528-79.872 0l-104.448-104.448 212.992-212.992c0 0 104.448 104.448 104.448 104.448z" />
<glyph unicode="&#xe92d;" glyph-name="ic-money" d="M540.672 485.212c-67.584 22.528-88.064 34.816-88.064 59.392 0 18.432 18.432 40.96 69.632 40.96 26.624 0 55.296-4.096 79.872-14.336 4.096-2.048 8.192-2.048 12.288-2.048 8.192 0 18.432 4.096 22.528 12.288l12.288 24.576c4.096 8.192 0 16.384-8.192 18.432 0 0-2.048 0-2.048 0-26.624 8.192-55.296 14.336-81.92 16.384 0 0-4.096 0-4.096 4.096v36.864c-2.048 12.288-12.288 20.48-24.576 20.48h-22.528c-12.288 2.048-24.576-8.192-24.576-20.48v-38.912c0-2.048-4.096-4.096-6.144-4.096-67.584-12.288-110.592-53.248-110.592-102.4 0-63.488 65.536-90.112 135.168-112.64 55.296-18.432 79.872-34.816 79.872-61.44 0-28.672-32.768-49.152-79.872-49.152-32.768 2.048-63.488 8.192-94.208 20.48-4.096 2.048-6.144 2.048-10.24 2.048-10.24 0-18.432-4.096-22.528-12.288l-12.288-24.576c-4.096-8.192 0-16.384 8.192-20.48 0 0 2.048 0 2.048 0 32.768-10.24 65.536-18.432 100.352-22.528 0 0 4.096-2.048 4.096-4.096v-38.912c2.048-12.288 12.288-20.48 24.576-20.48h22.528c12.288-2.048 24.576 8.192 24.576 20.48v40.96c0 2.048 2.048 4.096 4.096 4.096 73.728 12.288 118.784 55.296 118.784 108.544-2.048 55.296-38.912 90.112-129.024 118.784zM512 960.348c-282.624 0-512-229.376-512-512s229.376-512 512-512 512 229.376 512 512c0 282.624-229.376 512-512 512zM512 55.132c-217.088 0-393.216 176.128-393.216 393.216s176.128 393.216 393.216 393.216c217.088 0 393.216-176.128 393.216-393.216 0 0 0 0 0 0 0-217.088-176.128-393.216-393.216-393.216z" />
<glyph unicode="&#xe92e;" glyph-name="ic-note" d="M751.616 519.68c0 22.528-16.384 38.912-38.912 38.912v0h-401.408c-22.528 0-38.912-18.432-38.912-38.912 0-22.528 18.432-38.912 38.912-38.912h401.408c22.528-2.048 38.912 16.384 38.912 38.912v0zM751.616 364.032c0 22.528-16.384 38.912-38.912 38.912v0h-401.408c-22.528 0-38.912-18.432-38.912-38.912 0-22.528 18.432-38.912 38.912-38.912h401.408c22.528 0 38.912 16.384 38.912 38.912v0zM311.296 245.248c-22.528 0-38.912-18.432-38.912-38.912 0-22.528 18.432-38.912 38.912-38.912h243.712c22.528 0 38.912 18.432 38.912 38.912 0 22.528-18.432 38.912-38.912 38.912h-243.712zM915.456 794.112v-788.48c-2.048-24.576-22.528-45.056-47.104-45.056h-2.048c-12.288 0-24.576 6.144-32.768 14.336s-12.288 20.48-12.288 32.768v786.432c0 18.432-6.144 36.864-20.48 49.152-12.288 12.288-30.72 20.48-49.152 20.48h-479.232c-18.432 0-36.864-8.192-49.152-20.48s-20.48-30.72-20.48-49.152v-694.272c0-38.912 30.72-71.68 69.632-71.68h452.608v-2.048c20.48-4.096 36.864-24.576 36.864-45.056 0-26.624-20.48-47.104-47.104-47.104h-442.368c-90.112 0-163.84 75.776-163.84 165.888v694.272c0 90.112 73.728 163.84 163.84 165.888h479.232c90.112 0 163.84-75.776 163.84-165.888zM712.704 716.288h-401.408c-22.528 0-38.912-18.432-38.912-38.912s18.432-38.912 38.912-38.912h401.408c22.528 0 38.912 18.432 38.912 38.912s-16.384 38.912-38.912 38.912z" />
<glyph unicode="&#xe92f;" glyph-name="ic-operator" d="M732.303 736.768c-6.144 112.64-59.392 167.936-102.4 192.512-32.768 18.432-71.68 28.672-114.688 30.72h-4.096c-22.528 0-69.632-4.096-114.688-28.672s-98.304-79.872-104.448-194.56c-2.048-14.336-14.336-172.032 65.536-264.192 36.864-40.96 88.064-63.488 149.504-63.488h6.144c63.488 0 112.64 22.528 149.504 63.488 83.968 92.16 69.632 249.856 69.632 264.192zM511.119 466.432c0 0 0 0 0 0-47.104 0-83.968 14.336-110.592 45.056-67.584 75.776-53.248 221.184-53.248 221.184s0 2.048 0 2.048c6.144 151.552 114.688 167.936 161.792 167.936h2.048c57.344-2.048 153.6-24.576 161.792-167.936 0 0 0-2.048 0-2.048 0-2.048 14.336-145.408-51.2-221.184-26.624-30.72-61.44-45.056-110.592-45.056 2.048 0 2.048 0 0 0zM936.489 51.446c-2.048-6.144-6.144-10.24-12.288-12.288-6.144-4.096-159.744-102.4-413.696-102.4s-407.552 98.304-413.696 102.4c-4.096 4.096-8.192 8.192-10.24 12.288-12.288 28.672-10.24 86.016-10.24 96.256v6.144c2.048 40.96 4.096 139.264 96.256 172.032 0 0 2.048 0 2.048 0 96.256 24.576 176.128 79.872 176.128 79.872 4.096 4.096 10.24 4.096 16.384 4.096 8.192 0 18.432-4.096 22.528-12.288 10.24-12.288 6.144-30.72-6.144-38.912-4.096-2.048-88.064-61.44-194.56-88.064-49.152-16.384-55.296-69.632-57.344-118.784v-6.144c0-18.432 2.048-49.152 4.096-65.536 30.72-16.384 139.264-71.68 303.104-83.968l51.2 194.56 69.632-194.56c176.128 10.24 290.816 67.584 321.536 86.016 4.096 16.384 4.096 47.104 4.096 65.536v6.144c-2.048 49.152-6.144 100.352-57.344 118.784-106.496 26.624-190.464 86.016-194.56 88.064-12.288 10.24-16.384 26.624-6.144 38.912 6.144 8.192 14.336 12.288 22.528 12.288 6.144 0 12.288-2.048 16.384-6.144 0 0 79.872-55.296 176.128-79.872 2.048 0 2.048 0 2.048 0 92.16-30.72 94.208-129.024 96.256-172.032v-4.096c0 0 0 0 0-2.048 8.192-12.288 8.192-69.632-4.096-96.256zM575.468 306.688l-81.92-116.736-81.92 116.736z" />
<glyph unicode="&#xe930;" glyph-name="ic-plus" d="M980.992 534.016h-362.496c-10.24 0-20.48 8.192-20.48 18.432 0 0 0 2.048 0 2.048v362.496c2.048 22.528-16.384 40.96-36.864 43.008-2.048 0-4.096 0-4.096 0h-86.016c-22.528 2.048-40.96-16.384-43.008-36.864 0-2.048 0-4.096 0-4.096v-362.496c0-10.24-8.192-20.48-18.432-20.48 0 0-2.048 0-2.048 0h-364.544c-22.528 2.048-40.96-16.384-43.008-36.864 0-2.048 0-4.096 0-4.096v-86.016c-2.048-22.528 16.384-40.96 36.864-43.008 2.048 0 4.096 0 4.096 0h362.496c10.24 0 20.48-8.192 20.48-18.432 0 0 0-2.048 0-2.048v-362.496c-2.048-22.528 16.384-40.96 36.864-43.008 2.048 0 4.096 0 4.096 0h86.016c22.528-2.048 40.96 16.384 43.008 36.864 0 2.048 0 4.096 0 4.096v360.448c0 10.24 8.192 20.48 18.432 20.48 0 0 2.048 0 2.048 0h362.496c22.528-2.048 40.96 16.384 43.008 36.864 0 2.048 0 4.096 0 4.096v86.016c2.048 22.528-16.384 40.96-36.864 43.008 2.048 2.048 0 2.048-2.048 2.048z" />
<glyph unicode="&#xe931;" glyph-name="ic-posponi" d="M1024 476.672l-397.312 397.312v-227.328c-399.36-57.344-569.344-339.968-626.688-624.64 141.312 198.656 342.016 290.816 626.688 290.816v-233.472l397.312 397.312z" />
<glyph unicode="&#xe932;" glyph-name="ic-postit" d="M937.247 760.832c0 18.432-18.432 28.672-32.768 28.672h-10.24c0 4.096 0 10.24 0 10.24 0 32.768-14.336 61.44-32.768 79.872s-47.104 32.768-79.872 32.768c-61.44 0-112.64-51.2-112.64-112.64 0-14.336 0-28.672 4.096-36.864l-159.744-18.432-391.168 45.056c-10.24 0-18.432 0-22.528-4.096-6.144-6.144-10.24-14.336-14.336-20.48l-83.968-663.552c0-10.24 0-18.432 4.096-22.528s14.336-10.24 22.528-10.24l198.656-22.528 4.096-32.768c0-14.336 14.336-28.672 32.768-28.672h4.096l729.088 83.968c10.24 0 14.336 4.096 18.432 10.24 4.096 4.096 10.24 14.336 4.096 22.528l-81.92 659.456zM781.599 850.944c28.672 0 51.2-22.528 51.2-51.2s-22.528-51.2-51.2-51.2-51.2 22.528-51.2 51.2 22.528 51.2 51.2 51.2zM197.919 705.536c-14.336 0-28.672-18.432-28.672-32.768l51.2-569.344-155.648 18.432 75.776 602.112 98.304-10.24-40.96-8.192zM292.127 39.936v26.624l-57.344 581.632 278.528 32.768h10.24l108.544 14.336-36.864-36.864c-4.096-10.24-10.24-18.432-10.24-22.528 0-10.24 4.096-14.336 10.24-22.528 4.096-4.096 14.336-10.24 22.528-10.24s14.336 4.096 22.528 10.24l83.968 90.112c14.336-10.24 36.864-14.336 57.344-14.336 32.768 0 61.44 14.336 83.968 36.864h14.336l75.776-602.112-663.552-83.968z" />
<glyph unicode="&#xe933;" glyph-name="ic-print" d="M847.872 751.104h-26.624v57.344c0 83.968-67.584 151.552-151.552 151.552 0 0 0 0 0 0h-317.44c-83.968 0-151.552-67.584-151.552-151.552v-59.392h-24.576c-83.968 0-151.552-67.584-151.552-151.552v-243.712c0-83.968 67.584-151.552 151.552-151.552h24.576v-192.512c0-40.96 34.816-75.776 75.776-75.776h468.992c40.96 0 75.776 34.816 75.776 75.776v192.512h26.624c83.968 0 151.552 67.584 151.552 151.552v0 245.76c0 81.92-69.632 151.552-151.552 151.552v0zM258.048 808.448c0 51.2 43.008 94.208 94.208 94.208h317.44c51.2 0 94.208-43.008 94.208-94.208v-59.392h-505.856v59.392zM763.904 11.776c0-10.24-8.192-18.432-18.432-18.432h-468.992c-10.24 0-18.432 8.192-18.432 18.432v315.392h505.856v-315.392zM942.080 353.792c0-51.2-43.008-94.208-94.208-94.208h-26.624v67.584h36.864c16.384 0 28.672 12.288 28.672 28.672s-12.288 28.672-28.672 28.672v0h-700.416c-16.384 0-28.672-12.288-28.672-28.672s12.288-28.672 28.672-28.672h43.008v-67.584h-24.576c-51.2 0-94.208 43.008-94.208 94.208v245.76c0 51.2 43.008 94.208 94.208 94.208h669.696c51.2 0 94.208-43.008 94.208-94.208v-245.76zM327.68 185.856h364.544c16.384 0 28.672 12.288 28.672 28.672s-12.288 28.672-28.672 28.672h-364.544c-16.384 0-28.672-12.288-28.672-28.672 0-14.336 12.288-28.672 28.672-28.672zM694.272 126.464h-364.544c-16.384 0-28.672-12.288-28.672-28.672s12.288-28.672 28.672-28.672v0h364.544c16.384 0 28.672 12.288 28.672 28.672s-12.288 28.672-28.672 28.672v0zM845.824 638.464h-57.344c-16.384 0-28.672-12.288-28.672-28.672s12.288-28.672 28.672-28.672v0h57.344c16.384 0 28.672 12.288 28.672 28.672s-12.288 28.672-28.672 28.672z" />
<glyph unicode="&#xe934;" glyph-name="ic-professione" d="M559.104 351.744v20.48c0 26.624-20.48 47.104-47.104 47.104s-47.104-20.48-47.104-47.104c0 0 0 0 0 0v-20.48c0-26.624 20.48-47.104 47.104-47.104s47.104 20.48 47.104 47.104zM589.824 325.12c-12.288-36.864-45.056-61.44-81.92-61.44-38.912-2.048-71.68 24.576-81.92 61.44h-339.968c-20.48 2.048-40.96 6.144-61.44 14.336v-225.28c-2.048-43.008 32.768-79.872 75.776-81.92 2.048 0 4.096 0 6.144 0h813.056c43.008-2.048 79.872 32.768 81.92 75.776 0 2.048 0 4.096 0 6.144v225.28c-20.48-8.192-40.96-12.288-61.44-14.336h-350.208zM927.744 734.72h-190.464c-12.288 73.728-75.776 129.024-149.504 129.024h-157.696c-75.776 0-139.264-55.296-149.504-129.024h-198.656c-43.008 2.048-79.872-32.768-81.92-75.776 0-2.048 0-4.096 0-6.144v-184.32c-2.048-43.008 32.768-79.872 75.776-81.92 2.048 0 4.096 0 6.144 0h342.016c4.096 22.528 28.672 75.776 88.064 75.776s88.064-51.2 88.064-75.776h342.016c43.008-2.048 79.872 32.768 81.92 75.776 0 2.048 0 4.096 0 6.144v184.32c-8.192 47.104-49.152 79.872-96.256 81.92zM354.304 734.72c10.24 32.768 40.96 55.296 75.776 55.296h157.696c34.816 0 63.488-22.528 75.776-55.296h-309.248z" />
<glyph unicode="&#xe935;" glyph-name="ic-rapporti" d="M995.328 588.513c-8.192 8.192-18.432 14.336-30.72 18.432-8.192 2.048-18.432 4.096-28.672 4.096h-30.72v159.744c2.048 45.056-30.72 83.968-75.776 88.064h-751.616c-24.576 0-47.104-12.288-61.44-32.768-6.144-10.24-10.24-20.48-14.336-30.72-2.048-8.192-2.048-14.336-2.048-22.528v-647.168c-4.096-45.056 30.72-83.968 77.824-88.064h751.616c45.056 4.096 79.872 43.008 75.776 86.016v184.32h30.72c10.24 0 18.432 2.048 28.672 4.096 34.816 12.288 59.392 45.056 59.392 81.92v129.024c0 26.624-10.24 49.152-28.672 65.536zM849.92 121.569c2.048-14.336-10.24-26.624-22.528-28.672h-745.472c-14.336 2.048-24.576 14.336-24.576 30.72v649.216c0 4.096 0 6.144 0 8.192 2.048 4.096 2.048 8.192 6.144 12.288 4.096 6.144 10.24 8.192 16.384 8.192h747.52c14.336-2.048 24.576-14.336 22.528-28.672v-131.072h-272.384c-4.096 0-10.24 0-14.336-2.048-26.624-4.096-51.2-18.432-69.632-38.912-20.48-24.576-30.72-55.296-30.72-86.016v-126.976c-4.096-65.536 45.056-124.928 114.688-129.024h272.384v-137.216zM966.656 393.953c0-12.288-8.192-24.576-20.48-28.672-4.096-2.048-6.144-2.048-10.24-2.048h-352.256c-16.384-2.048-30.72 14.336-30.72 30.72v129.024c0 16.384 14.336 30.72 30.72 30.72h352.256c4.096 0 6.144 0 10.24-2.048s8.192-4.096 10.24-6.144c6.144-6.144 10.24-14.336 10.24-22.528v-129.024zM735.232 467.681v-20.48c0-32.768-26.624-57.344-57.344-57.344h-20.48c-30.72 0-57.344 24.576-57.344 57.344v18.432c0 18.432 8.192 34.816 22.528 45.056 10.24 8.192 22.528 12.288 34.816 12.288h20.48c16.384 0 28.672-6.144 40.96-16.384 10.24-10.24 16.384-24.576 16.384-38.912z" />
<glyph unicode="&#xe936;" glyph-name="ic-report" d="M831.488-64c-32.768-2.048-61.44 22.528-63.488 57.344 0 2.048 0 4.096 0 8.192v573.44c-2.048 32.768 22.528 61.44 57.344 63.488 2.048 0 4.096 0 8.192 0h126.976c32.768 2.048 61.44-22.528 63.488-57.344 0-2.048 0-4.096 0-8.192v-575.488c2.048-32.768-22.528-61.44-57.344-63.488-2.048 0-4.096 0-8.192 0h-126.976zM448.512-64c-32.768-2.048-61.44 22.528-63.488 57.344 0 2.048 0 4.096 0 8.192v894.976c-2.048 32.768 22.528 61.44 57.344 63.488 2.048 0 4.096 0 8.192 0h126.976c32.768 2.048 61.44-22.528 63.488-57.344 0-2.048 0-4.096 0-8.192v-894.976c2.048-32.768-22.528-61.44-57.344-63.488-2.048 0-4.096 0-8.192 0h-126.976zM63.488-64c-32.768-2.048-61.44 22.528-63.488 57.344 0 2.048 0 4.096 0 8.192v253.952c-2.048 32.768 22.528 61.44 57.344 63.488 2.048 0 4.096 0 8.192 0h126.976c32.768 2.048 61.44-22.528 63.488-57.344 0-2.048 0-4.096 0-6.144v-256c2.048-32.768-22.528-61.44-57.344-63.488-2.048 0-4.096 0-8.192 0h-126.976z" />
<glyph unicode="&#xe937;" glyph-name="ic-scadenze" d="M512 960c-282.624 0-512-229.376-512-512s229.376-512 512-512 512 229.376 512 512-229.376 512-512 512zM512 32.256c-229.376 0-415.744 186.368-415.744 415.744s186.368 415.744 415.744 415.744 415.744-186.368 415.744-415.744-186.368-415.744-415.744-415.744zM512 734.72c-36.864 0-63.488-18.432-63.488-49.152v-282.624c0-30.72 28.672-49.152 63.488-49.152s63.488 20.48 63.488 49.152v282.624c0 30.72-26.624 49.152-63.488 49.152zM512 288.256c-34.816 0-63.488-28.672-63.488-63.488s28.672-63.488 63.488-63.488c34.816 0 63.488 28.672 63.488 63.488s-28.672 63.488-63.488 63.488z" />
<glyph unicode="&#xe938;" glyph-name="ic-search" d="M998.052 82.78l-223.232 223.232c-2.048 2.048-2.048 2.048-4.096 4.096 126.976 194.56 73.728 454.656-120.832 583.68-194.56 126.976-454.656 73.728-583.68-120.832-126.976-194.56-73.728-454.656 120.832-583.68 141.312-92.16 321.536-92.16 462.848 0 2.048-2.048 2.048-2.048 4.096-4.096l223.232-223.232c32.768-32.768 88.064-32.768 120.832 0s34.816 86.016 0 120.832v0zM420.516 263.004c-151.552 0-274.432 122.88-274.432 274.432s122.88 274.432 274.432 274.432 274.432-122.88 274.432-274.432v0c2.048-149.504-122.88-274.432-274.432-274.432z" />
<glyph unicode="&#xe939;" glyph-name="ic-select-calendar" d="M972.8 892.416h-118.784v51.2c0 10.24-8.192 16.384-16.384 16.384 0 0 0 0 0 0h-120.832c-10.24 0-16.384-8.192-16.384-16.384 0 0 0 0 0 0v-51.2h-376.832v51.2c0 8.192-6.144 16.384-16.384 16.384 0 0 0 0 0 0h-118.784c-10.24 0-18.432-8.192-18.432-16.384 0 0 0 0 0 0v-51.2h-118.784c-10.24 0-16.384-8.192-16.384-18.432 0 0 0 0 0 0v-921.6c0-8.192 6.144-16.384 16.384-16.384 0 0 0 0 0 0h921.6c10.24 0 16.384 8.192 16.384 16.384 0 0 0 0 0 0v921.6c0 10.24-6.144 18.432-16.384 18.432 0 0 0 0 0 0zM733.184 925.184h86.016v-102.4h-86.016v102.4zM204.8 925.184h86.016v-102.4h-86.016v102.4zM67.584 857.6h102.4v-51.2c0-10.24 8.192-16.384 16.384-16.384 0 0 0 0 0 0h120.832c10.24 0 16.384 8.192 16.384 16.384 0 0 0 0 0 0v51.2h374.784v-51.2c0-10.24 8.192-16.384 16.384-16.384 0 0 0 0 0 0h118.784c10.24 0 16.384 8.192 16.384 16.384 0 0 0 0 0 0v51.2h102.4v-153.6h-884.736v153.6zM67.584-29.184v698.368h886.784v-700.416h-886.784zM649.216 566.784h-460.8v-495.616h649.216v495.616h-188.416zM528.384 534.016h118.784v-118.784h-118.784v118.784zM649.216 259.584h-118.784v118.784h118.784v-118.784zM374.784 380.416h118.784v-118.784h-118.784v118.784zM374.784 534.016h118.784v-118.784h-118.784v118.784zM221.184 534.016h118.784v-118.784h-118.784v118.784zM221.184 380.416h118.784v-118.784h-118.784v118.784zM342.016 105.984h-118.784v118.784h118.784v-118.784zM495.616 105.984h-118.784v118.784h118.784v-118.784zM649.216 105.984h-118.784v118.784h118.784v-118.784zM802.816 105.984h-118.784v118.784h118.784v-118.784zM802.816 259.584h-118.784v118.784h118.784v-118.784zM802.816 534.016v-118.784h-118.784v118.784h118.784z" />
<glyph unicode="&#xe93a;" glyph-name="ic-sesso" d="M988.344 925.286c0 2.048 0 2.048-2.048 2.048v2.048c0 2.048-2.048 2.048-2.048 4.096s-2.048 2.048-2.048 4.096v2.048c0 0-2.048 2.048-2.048 2.048-4.096 4.096-8.192 8.192-14.336 12.288 0 0-2.048 0-2.048 2.048h-2.048c-2.048 0-2.048 2.048-4.096 2.048s-2.048 0-4.096 0h-2.048c-2.048 0-2.048 0-4.096 0s-6.144 0-8.192 0c0 0 0 0 0 0l-194.56-10.24c-26.624-2.048-45.056-22.528-45.056-49.152 2.048-26.624 22.528-45.056 49.152-45.056l81.92 4.096-196.608-219.136c-176.128 122.88-417.792 79.872-538.624-96.256-122.88-176.128-79.872-417.792 96.256-538.624 176.128-122.88 417.792-79.872 538.624 96.256 102.4 145.408 92.16 342.016-24.576 477.184l198.656 219.136 4.096-81.92c2.048-26.624 22.528-45.056 49.152-45.056s45.056 22.528 45.056 49.152l-10.24 194.56c-4.096 6.144-4.096 8.192-4.096 12.288zM425.144 26.214c-163.84-8.192-303.104 116.736-311.296 280.576s116.736 303.104 280.576 311.296c163.84 8.192 303.104-116.736 311.296-280.576 0 0 0 0 0 0 8.192-163.84-116.736-303.104-280.576-311.296z" />
<glyph unicode="&#xe93b;" glyph-name="ic-story" d="M874.496 810.496c-92.16 92.16-221.184 149.504-362.496 149.504-282.624 0-512-229.376-512-512s229.376-512 512-512 512 229.376 512 512c0 141.312-57.344 268.288-149.504 362.496zM512-4.608c-249.856 0-452.608 202.752-452.608 452.608s204.8 452.608 452.608 452.608c249.856 0 452.608-204.8 452.608-452.608 0-249.856-202.752-452.608-452.608-452.608zM575.488 804.352v-399.36c0-16.384-12.288-28.672-28.672-28.672h-266.24c-16.384 0-28.672 12.288-28.672 28.672s12.288 28.672 28.672 28.672h237.568v368.64c0 16.384 12.288 28.672 28.672 28.672 16.384 4.096 28.672-10.24 28.672-26.624z" />
<glyph unicode="&#xe93c;" glyph-name="ic-target" d="M518.144 691.712c-137.216 0-249.856-110.592-249.856-249.856 0-137.216 110.592-249.856 249.856-249.856 137.216 0 249.856 110.592 249.856 249.856 0 0 0 0 0 0 0 137.216-110.592 247.808-249.856 249.856zM628.736 476.672l-112.64-112.64c-12.288-12.288-32.768-12.288-45.056 0 0 0 0 0 0 0l-61.44 63.488c-12.288 12.288-12.288 32.768 0 45.056s32.768 12.288 45.056 0l40.96-40.96 90.112 90.112c12.288 12.288 32.768 12.288 45.056 0s10.24-34.816-2.048-45.056v0zM993.28 478.72h-43.008c-14.336 217.088-188.416 391.168-405.504 405.504v43.008c0 16.384-12.288 30.72-28.672 30.72s-30.72-12.288-30.72-28.672c0 0 0-2.048 0-2.048v-43.008c-217.088-14.336-391.168-188.416-405.504-405.504h-45.056c-16.384 0-30.72-12.288-30.72-28.672s12.288-30.72 28.672-30.72c0 0 2.048 0 2.048 0h43.008c14.336-217.088 188.416-391.168 405.504-405.504v-43.008c0-16.384 12.288-30.72 28.672-30.72s30.72 12.288 30.72 28.672c0 0 0 2.048 0 2.048v43.008c217.088 14.336 391.168 188.416 405.504 405.504h43.008c16.384 0 30.72 14.336 28.672 30.72 2.048 14.336-10.24 26.624-26.624 28.672v0zM542.72 73.216v40.96c0 16.384-12.288 30.72-28.672 30.72s-30.72-12.288-30.72-28.672c0 0 0-2.048 0-2.048v-40.96c-184.32 14.336-329.728 161.792-346.112 346.112h40.96c16.384 0 30.72 12.288 30.72 28.672s-12.288 30.72-28.672 30.72c0 0-2.048 0-2.048 0h-40.96c14.336 184.32 161.792 329.728 346.112 346.112v-40.96c0-16.384 12.288-30.72 28.672-30.72s30.72 12.288 30.72 28.672c0 0 0 2.048 0 2.048v40.96c184.32-14.336 329.728-161.792 346.112-346.112h-40.96c-16.384 0-30.72-12.288-30.72-28.672s12.288-30.72 28.672-30.72c0 0 2.048 0 2.048 0h40.96c-16.384-186.368-161.792-331.776-346.112-346.112v0z" />
<glyph unicode="&#xe93d;" glyph-name="ic-telefono" d="M272.384 949.76c32.768 14.336 69.632 14.336 100.352 2.048 14.336-4.096 24.576-16.384 28.672-28.672 14.336-77.824 18.432-155.648 14.336-233.472-2.048-45.056-67.584-69.632-100.352-98.304 18.432-153.6 100.352-294.912 223.232-391.168 43.008 16.384 96.256 59.392 135.168 38.912 69.632-34.816 133.12-77.824 192.512-129.024 10.24-10.24 14.336-24.576 10.24-38.912-6.144-34.816-24.576-67.584-51.2-88.064-337.92-274.432-946.176 788.48-552.96 966.656z" />
<glyph unicode="&#xe93e;" glyph-name="ic-todolist" d="M780.718 511.488h-315.392c-18.432 0-32.768 14.336-32.768 32.768s14.336 32.768 32.768 32.768h315.392c18.432 0 32.768-14.336 32.768-32.768s-14.336-32.768-32.768-32.768zM780.718 243.2h-315.392c-18.432 0-32.768 14.336-32.768 32.768s14.336 32.768 32.768 32.768h315.392c18.432 0 32.768-14.336 32.768-32.768s-14.336-32.768-32.768-32.768zM401.838 597.504c-10.24-14.336-77.824-126.976-77.824-126.976-6.144-10.24-18.432-16.384-30.72-16.384-6.144 0-12.288 2.048-18.432 6.144l-63.488 45.056c-8.192 6.144-12.288 14.336-14.336 24.576 0 10.24 2.048 18.432 8.192 26.624 12.288 14.336 30.72 16.384 47.104 8.192l32.768-22.528 53.248 88.064c8.192 16.384 28.672 22.528 47.104 14.336 8.192-4.096 16.384-14.336 18.432-20.48 2.048-8.192 2.048-20.48-2.048-26.624zM401.838 329.216c-10.24-14.336-77.824-126.976-77.824-126.976-6.144-10.24-18.432-16.384-30.72-16.384-6.144 0-12.288 2.048-18.432 6.144l-63.488 45.056c-8.192 6.144-12.288 14.336-14.336 24.576 0 10.24 2.048 18.432 8.192 26.624 12.288 14.336 30.72 16.384 47.104 8.192l32.768-22.528 53.248 88.064c8.192 16.384 28.672 22.528 47.104 14.336 8.192-4.096 16.384-14.336 18.432-20.48 2.048-8.192 2.048-20.48-2.048-26.624zM797.102 890.368v34.816c0 20.48-16.384 34.816-34.816 34.816-20.48 0-34.816-16.384-34.816-34.816v-34.816h-12.288v34.816c0 20.48-16.384 34.816-34.816 34.816-20.48 0-34.816-16.384-34.816-34.816v-34.816h-12.288v34.816c0 20.48-16.384 34.816-34.816 34.816s-34.816-16.384-34.816-34.816v-34.816h-12.288v34.816c0 20.48-16.384 34.816-34.816 34.816-20.48 0-34.816-16.384-34.816-34.816v-34.816h-12.288v34.816c0 20.48-16.384 34.816-34.816 34.816s-40.96-16.384-40.96-34.816v-34.816h-12.288v34.816c0 20.48-16.384 34.816-34.816 34.816-20.48 0-34.816-16.384-34.816-34.816v-34.816h-12.288v34.816c0 20.48-16.384 34.816-34.816 34.816s-34.816-16.384-34.816-34.816v-34.816c-81.92-4.096-147.456-71.68-147.456-155.648v-641.024c0-86.016 69.632-157.696 155.648-157.696h552.96c86.016 0 157.696 69.632 157.696 157.696v638.976c-2.048 83.968-69.632 153.6-151.552 157.696zM874.926 91.648c0-47.104-38.912-86.016-86.016-86.016h-552.96c-47.104 0-86.016 38.912-86.016 86.016v641.024c0 45.056 34.816 81.92 77.824 86.016v-22.528c0-20.48 16.384-34.816 34.816-34.816 20.48 0 34.816 16.384 34.816 34.816v22.528h12.288v-24.576c0-20.48 16.384-34.816 34.816-34.816s34.816 16.384 34.816 34.816v24.576h14.336v-24.576c0-20.48 16.384-34.816 34.816-34.816s34.816 16.384 34.816 34.816v24.576h12.288v-24.576c0-20.48 16.384-34.816 34.816-34.816 20.48 0 34.816 16.384 34.816 34.816v24.576h12.288v-24.576c0-20.48 16.384-34.816 34.816-34.816s34.816 16.384 34.816 34.816v24.576h12.288v-24.576c0-20.48 16.384-34.816 34.816-34.816s34.816 16.384 34.816 34.816v24.576h12.288v-24.576c0-20.48 16.384-34.816 34.816-34.816 20.48 0 34.816 16.384 34.816 34.816v24.576c43.008-4.096 77.824-40.96 77.824-86.016l6.144-641.024z" />
<glyph unicode="&#xe93f;" glyph-name="ic-waste" d="M241.91 6.042c10.24-43.008 49.152-71.68 94.208-69.632h354.304c43.008-2.048 81.92 26.624 94.208 69.632l69.632 679.936h-681.984l69.632-679.936zM647.414 583.578c0 18.432 14.336 34.816 34.816 34.816 18.432 0 34.816-14.336 34.816-34.816l-34.816-512c0-18.432-14.336-34.816-34.816-34.816-18.432 0-34.816 14.336-34.816 34.816l34.816 512zM477.43 583.578c0 18.432 14.336 34.816 34.816 34.816 18.432 0 34.816-14.336 34.816-34.816v-512c0-18.432-14.336-34.816-34.816-34.816-18.432 0-34.816 14.336-34.816 34.816v512zM342.262 618.394c18.432 0 34.816-14.336 34.816-34.816 0 0 0 0 0 0l34.816-512c0-18.432-14.336-34.816-34.816-34.816s-34.816 14.336-34.816 34.816v0l-34.816 512c0 18.432 14.336 34.816 34.816 34.816 0 0 0 0 0 0v0zM831.734 823.194h-149.504v67.584c0 51.2-16.384 67.584-67.584 67.584h-204.8c-32.768 4.096-63.488-18.432-67.584-51.2 0-6.144 0-12.288 0-18.432v-67.584h-149.504c-28.672 0-53.248-22.528-55.296-51.2 0-28.672 24.576-51.2 55.296-51.2h641.024c28.672 0 53.248 22.528 55.296 51.2-2.048 30.72-26.624 53.248-57.344 53.248v0zM614.646 823.194h-204.8v67.584h204.8v-67.584z" />
<glyph unicode="&#xe940;" glyph-name="ic-web" d="M890.88 792.064c0 2.048-2.048 4.096-4.096 4.096-2.048 2.048-2.048 2.048-4.096 4.096-192.512 204.8-516.096 212.992-720.896 20.48-6.144-6.144-14.336-14.336-20.48-20.48-2.048-2.048-2.048-2.048-4.096-4.096s-2.048-2.048-4.096-4.096c-178.176-192.512-178.176-495.616 0-688.128 0-2.048 2.048-2.048 2.048-4.096v-2.048c2.048-2.048 2.048-2.048 4.096-4.096 100.352-106.496 235.52-159.744 370.688-159.744 124.928 0 251.904 47.104 348.16 139.264 8.192 6.144 14.336 14.336 22.528 20.48 2.048 0 2.048 2.048 4.096 2.048l2.048 2.048c0 2.048 2.048 2.048 2.048 4.096 178.176 194.56 178.176 497.664 2.048 690.176zM356.352 867.84c-30.72-40.96-55.296-88.064-71.68-137.216-26.624 12.288-51.2 28.672-75.776 47.104 43.008 38.912 92.16 71.68 147.456 90.112zM163.84 732.672c30.72-24.576 65.536-45.056 102.4-61.44-14.336-63.488-22.528-126.976-24.576-190.464h-176.128c6.144 90.112 40.96 180.224 98.304 251.904zM65.536 417.28h176.128c2.048-63.488 10.24-126.976 24.576-190.464-36.864-16.384-69.632-38.912-102.4-61.44-57.344 69.632-92.16 159.744-98.304 251.904zM208.896 118.272c24.576 18.432 49.152 32.768 75.776 47.104 16.384-49.152 40.96-96.256 71.68-137.216-55.296 20.48-104.448 51.2-147.456 90.112zM481.28 5.632c-55.296 18.432-104.448 86.016-137.216 184.32 45.056 14.336 90.112 22.528 137.216 26.624v-210.944zM481.28 278.016c-53.248-2.048-104.448-12.288-153.6-28.672-12.288 55.296-20.48 110.592-22.528 165.888h176.128v-137.216zM481.28 480.768h-176.128c2.048 55.296 8.192 112.64 22.528 165.888 49.152-16.384 102.4-24.576 153.6-28.672v-137.216zM481.28 681.472c-47.104 2.048-92.16 12.288-137.216 26.624 32.768 98.304 81.92 165.888 137.216 184.32v-210.944zM815.104 118.272c-43.008-38.912-92.16-69.632-147.456-90.112 30.72 40.96 55.296 88.064 71.68 137.216 26.624-12.288 53.248-28.672 75.776-47.104zM958.464 417.28c-6.144-92.16-40.96-180.224-100.352-251.904-30.72 24.576-65.536 45.056-100.352 63.488 14.336 61.44 22.528 124.928 24.576 190.464h176.128zM958.464 480.768h-176.128c-2.048 63.488-10.24 126.976-24.576 190.464 36.864 16.384 69.632 38.912 100.352 63.488 59.392-73.728 94.208-163.84 100.352-253.952zM815.104 777.728c-22.528-18.432-49.152-32.768-75.776-47.104-16.384 49.152-38.912 96.256-71.68 137.216 55.296-18.432 106.496-51.2 147.456-90.112zM544.768 892.416c55.296-18.432 104.448-83.968 137.216-184.32-45.056-14.336-90.112-22.528-137.216-26.624v210.944zM544.768 617.984c53.248 2.048 104.448 12.288 153.6 28.672 12.288-55.296 20.48-110.592 22.528-165.888h-176.128v137.216zM544.768 417.28h176.128c-2.048-55.296-10.24-112.64-22.528-165.888-49.152 16.384-102.4 24.576-153.6 28.672v137.216zM544.768 5.632v208.896c47.104-2.048 92.16-12.288 137.216-26.624-34.816-98.304-83.968-163.84-137.216-182.272z" />
</font>
</defs>
</svg>
