<svg width="33" height="30" viewBox="0 0 33 30" fill="none" xmlns="http://www.w3.org/2000/svg">
<path d="M13.2436 26.1302C12.9231 26.1302 12.6209 26.0062 12.3943 25.7804L3.62917 17.0568C1.77148 15.2077 0.748047 12.7465 0.748047 10.1254C0.748047 7.50423 1.77148 5.04304 3.62917 3.19393C5.4889 1.34347 7.96105 0.32402 10.5911 0.32402C10.6367 0.32402 10.6823 0.32402 10.7278 0.324698H10.7428C13.8703 0.387058 16.9651 2.04095 19.4583 4.98204C21.5542 7.45474 22.9328 10.505 23.0553 12.9417V12.9553C23.0566 12.9736 23.0566 12.9919 23.056 13.0102C23.0512 16.3024 20.4062 18.3006 18.8221 19.2015L18.8091 19.2089C18.6288 19.3106 18.424 19.3641 18.2171 19.3641C18.0259 19.3641 17.8408 19.3187 17.6755 19.236C17.1018 21.744 15.9253 23.9015 14.1316 25.7533C14.0322 25.8557 13.9172 25.9384 13.7893 26C13.6205 26.0855 13.4327 26.1309 13.2436 26.1309V26.1302ZM10.5918 2.71878C8.63268 2.71878 6.71443 3.5098 5.3283 4.88917C3.92109 6.29024 3.14535 8.14952 3.14535 10.1254C3.14535 12.1012 3.92041 13.9605 5.3283 15.3616L13.1918 23.1878C14.0819 22.0673 14.7222 20.8418 15.1339 19.4706C14.5834 19.211 13.9097 18.8402 13.2286 18.3359C11.8581 17.3205 10.225 15.5622 10.225 12.9485C10.225 10.4995 11.6438 7.65403 14.4425 4.49129C14.5841 4.32794 14.7644 4.20728 14.9651 4.1395C13.7859 3.36339 12.3412 2.75199 10.6931 2.71946C10.6618 2.71946 10.6271 2.71946 10.5918 2.71946V2.71878ZM16.2458 6.07401C14.497 8.05123 12.6291 10.894 12.6291 12.9485C12.6291 14.2479 13.3136 15.4138 14.6637 16.4136C14.9597 16.6325 15.2748 16.8352 15.6068 17.0189C15.7232 15.8503 15.7075 14.5983 15.5606 13.2176C15.5565 13.1797 15.5538 13.1417 15.5531 13.1037C15.5401 12.4435 16.0689 11.8959 16.7317 11.883H16.7555C17.3774 11.883 17.8912 12.3466 17.9517 12.9634C18.0994 14.3462 18.1259 15.6503 18.03 16.8806C20.1606 15.5371 20.6389 14.0649 20.6485 13.0346C20.56 11.4648 19.5917 8.85107 17.6217 6.5268C17.3366 6.1906 16.9766 5.79882 16.5479 5.39687C16.5221 5.64766 16.418 5.88355 16.2458 6.07401Z" fill="#00AE65"/>
<path d="M16.7937 29.5742C16.4732 29.5742 16.1711 29.4502 15.9445 29.2245L14.1243 27.4113C14.1045 27.3923 14.0855 27.3733 14.0664 27.353C13.6166 26.8663 13.6486 26.1071 14.1365 25.6598C14.359 25.4558 14.6482 25.3439 14.9503 25.3439C15.2797 25.3439 15.5975 25.4802 15.8234 25.7181L16.7931 26.6826L28.1678 15.3609C29.5757 13.9598 30.3508 12.1006 30.3508 10.1247C30.3508 8.14884 29.5757 6.28956 28.1678 4.8885C26.762 3.48879 24.8934 2.7181 22.9078 2.7181C21.6489 2.7181 20.4043 3.03668 19.3088 3.63994C19.3006 3.64469 19.2931 3.64875 19.2849 3.65282C19.1101 3.74568 18.9141 3.79517 18.7174 3.79517C18.2724 3.79517 17.8662 3.5525 17.6566 3.16208C17.3449 2.58118 17.564 1.85658 18.1452 1.54343C19.5946 0.745628 21.2413 0.32402 22.9071 0.32402C22.9554 0.32402 23.0037 0.32402 23.052 0.325376C23.4413 0.330799 23.8346 0.359945 24.2197 0.41146C26.3741 0.69818 28.3271 1.66069 29.867 3.19393C31.7247 5.04304 32.7481 7.5049 32.7481 10.1254C32.7481 12.7459 31.7247 15.2077 29.867 17.0568L17.643 29.2245C17.4157 29.4502 17.1142 29.5749 16.7931 29.5749L16.7937 29.5742Z" fill="#00AE65"/>
</svg>
