<svg xmlns="http://www.w3.org/2000/svg" xmlns:xlink="http://www.w3.org/1999/xlink" width="24" height="24.011" viewBox="0 0 24 24.011">
  <defs>
    <clipPath id="clip-path">
      <path id="Tracciato_87" data-name="Tracciato 87" d="M.523,12.734A12,12,0,1,0,12.518.739,12,12,0,0,0,.523,12.734" transform="translate(-0.523 -0.739)" fill="none"/>
    </clipPath>
  </defs>
  <g id="Andorra" transform="translate(-0.523 -0.739)">
    <g id="Raggruppa_2" data-name="Raggruppa 2" transform="translate(0.523 0.739)" clip-path="url(#clip-path)">
      <rect id="Rettangolo_2" data-name="Rettangolo 2" width="35.262" height="24.678" transform="translate(-5.631 -0.334)" fill="#00238a"/>
      <rect id="Rettangolo_3" data-name="Rettangolo 3" width="24.194" height="24.678" transform="translate(5.437 -0.334)" fill="#f3e300"/>
      <rect id="Rettangolo_4" data-name="Rettangolo 4" width="10.993" height="24.678" transform="translate(18.638 -0.334)" fill="#ec122c"/>
      <path id="Tracciato_3" data-name="Tracciato 3" d="M2.755,1.431l.129.032.1.1.032.129L3,1.829l-.032.129-.065.118a1.206,1.206,0,0,1-.183.215,1.742,1.742,0,0,1-.2.194l-.194.2a.761.761,0,0,0-.118.269.609.609,0,0,0,0,.14l.065.151.054.043.065.022L2.41,3.3H2.389l-.054-.022L2.3,3.24l-.011-.022.054-.075a.125.125,0,0,1,.108-.022l.086.065.022.108-.011.054L2.528,3.4l-.086.075a.307.307,0,0,1-.215.032.364.364,0,0,1-.194-.14.516.516,0,0,1-.075-.215.575.575,0,0,1,.022-.237l.1-.226A2.6,2.6,0,0,1,2.367,2.3l.172-.172A1.31,1.31,0,0,0,2.7,1.948.512.512,0,0,0,2.776,1.7a.976.976,0,0,0-.011-.248l-.011-.022" transform="translate(13.45 6.02)" fill="#e1c291"/>
      <path id="Tracciato_4" data-name="Tracciato 4" d="M2.562,2.806l.151-.032.14-.054.108-.075.065-.086.032-.032.011-.032.022-.054v0l-.022.043-.022.032-.022.043-.075.075-.108.075-.129.054-.151.022L2.4,2.774a.35.35,0,0,1-.151-.043L2.12,2.656l-.086-.108L1.98,2.44,1.97,2.333l.022-.065.022-.032.022-.011.075.1.118.1.14.054c.1.022.183.022.258.032A.378.378,0,0,0,2.8,2.473l.032-.011.022-.022v.011L2.8,2.473a.4.4,0,0,1-.172.022.808.808,0,0,1-.258-.043L2.239,2.4l-.108-.1-.086-.108L1.98,2.063a.394.394,0,0,1-.011-.248L2,1.73l.043-.065.022-.022.011-.011.011-.011.118.054a.325.325,0,0,0,.226-.022.667.667,0,0,0-.075.2.373.373,0,0,0,.054.323.359.359,0,0,0,.237.118.367.367,0,0,0,.258-.1.321.321,0,0,0,.065-.269V1.9l.054.022.075.043.075.065.075.108.054.14.022.075.011.075.011.162-.011.162L3.3,2.9a.783.783,0,0,1-.14.248l-.086.065L3,3.248H2.928a.2.2,0,0,0-.011-.194.229.229,0,0,0-.28-.118.339.339,0,0,0-.2.215l-.011.129-.1.011H2.314V3.28H2.282L2.2,3.237l-.108-.086L2,3.011,1.97,2.86l.022-.14L2,2.677l.022-.032.011-.022.075.054.129.086.162.043h.162" transform="translate(13.46 7.885)" fill="#e1c291"/>
      <path id="Tracciato_5" data-name="Tracciato 5" d="M2.032,3.217a.141.141,0,0,0,.129-.075h.065l.1-.032.086-.075A.817.817,0,0,0,2.56,2.8L2.6,2.635l.011-.162L2.6,2.312l-.011-.086L2.57,2.151l-.054-.14-.075-.118-.075-.075L2.28,1.763l-.032-.011L2.2,1.742l-.022-.011L2.14,1.688,2.1,1.645l-.022-.011.14.022a1.016,1.016,0,0,1,.248.108l.118.1.086.129a.833.833,0,0,1,.086.291.946.946,0,0,1-.011.3.833.833,0,0,1-.086.291L2.592,3l-.032.054-.054.054a.565.565,0,0,1-.2.118l-.054.022H2.1Z" transform="translate(14.216 8.003)" fill="#e1c291"/>
      <path id="Tracciato_6" data-name="Tracciato 6" d="M2.318,2.229l-.1-.032a.154.154,0,0,1-.022-.14l.043-.075.032-.011V1.96a.191.191,0,0,1,.258.151.273.273,0,0,1-.065.226.263.263,0,0,1-.215.086.275.275,0,0,1-.2-.108.343.343,0,0,1-.043-.28.517.517,0,0,1,.506-.431.873.873,0,0,1,.754.485,1.366,1.366,0,0,1,.043,1.077.9.9,0,0,1-.334.463,1.027,1.027,0,0,1-.4.151H2.511A.484.484,0,0,1,2.178,3.7a.366.366,0,0,1-.1-.377.268.268,0,0,1,.172-.183.19.19,0,0,1,.226.1A.146.146,0,0,1,2.49,3.4l-.1.054-.065-.043-.032-.1a.115.115,0,0,0-.011.118.281.281,0,0,0,.172.118.3.3,0,0,0,.215,0,.423.423,0,0,0,.226-.14l.054-.054L3,3.306l.065-.129a1.634,1.634,0,0,0,.1-.3,1.622,1.622,0,0,0,.011-.323.812.812,0,0,0-.1-.312l-.1-.129-.118-.1A.667.667,0,0,0,2.587,1.9a.427.427,0,0,0-.258-.011l-.108.065-.065.1a.185.185,0,0,0,.054.162l.108.032.032-.022H2.339l-.022.011" transform="translate(13.855 7.719)" fill="#e1c291"/>
      <path id="Tracciato_7" data-name="Tracciato 7" d="M2.14,2.622,2.1,2.589l-.043-.054L2,2.4l-.032-.086-.011-.086a.5.5,0,0,1,.022-.183l.054-.151L2.1,1.8l.022-.032.032.011.108.043H2.28l.011.011.1-.011a.388.388,0,0,0,.129.291.416.416,0,0,0,.226.086l-.194.118a1.574,1.574,0,0,0-.172.2l-.129-.011.032-.043-.032.054-.108.108Z" transform="translate(13.483 9.341)" fill="#e1c291"/>
      <path id="Tracciato_8" data-name="Tracciato 8" d="M1.27,2.872a1.149,1.149,0,0,1-.086-.291,1.414,1.414,0,0,1-.011-.3.97.97,0,0,1,.086-.3l.1-.118.108-.1a.723.723,0,0,1,.248-.108l.151-.022-.022.011-.1.086-.065.022-.108.065-.086.075-.075.118-.054.14-.022.075-.011.086-.011.162.022.162.043.162a.628.628,0,0,0,.14.237l.1.075.075.022h.075v.011a.182.182,0,0,0,.129.075h.011l-.075.022-.1.011H1.69l-.054-.022A.5.5,0,0,1,1.421,3.1l-.043-.043L1.335,3,1.27,2.872" transform="translate(5.783 8.003)" fill="#e1c291"/>
      <path id="Tracciato_9" data-name="Tracciato 9" d="M1.368,2.09l-.1-.022-.086.022.022-.075a.2.2,0,0,1,.215-.054l.108.075.022.108-.032.075H1.508l-.065-.075L1.368,2.09" transform="translate(5.943 11.068)" fill="#e1c291"/>
      <path id="Tracciato_10" data-name="Tracciato 10" d="M1.27,2.132l-.1.043V2.11l.022-.054L1.248,2l.065-.032a.247.247,0,0,1,.151.011l.065.043.054.054.022.075.011.065L1.6,2.272,1.571,2.3l-.011.022H1.55l-.022-.065-.054-.086a.228.228,0,0,0-.2-.043" transform="translate(5.826 11.219)" fill="#e1c291"/>
      <path id="Tracciato_11" data-name="Tracciato 11" d="M2.081,2.219l-.032-.075.032-.108.1-.075a.187.187,0,0,1,.215.054l.022.075-.086-.011-.1.011-.075.054L2.1,2.219V2.23Z" transform="translate(14.382 11.068)" fill="#e1c291"/>
      <path id="Tracciato_12" data-name="Tracciato 12" d="M2.066,2.272l-.011-.054V2.153l.032-.075.043-.054.075-.043a.242.242,0,0,1,.151-.011L2.421,2l.043.054.022.054.011.022v.043l-.1-.043a.221.221,0,0,0-.2.043l-.054.086-.022.065L2.087,2.3l-.022-.032" transform="translate(14.44 11.219)" fill="#e1c291"/>
      <path id="Tracciato_13" data-name="Tracciato 13" d="M2.236,3.391a1.256,1.256,0,0,1-.194-.441,1.473,1.473,0,0,1-.032-.485l.054-.215.075-.183.1-.14.1-.1-.032.1.022.118a.971.971,0,0,0-.108.937.521.521,0,0,0,.269.28v.032l.043.086h.022l-.011.075-.043-.022-.118-.086-.1-.118-.032-.054.032.054.086.129.108.108.043.022.011.011.011.032.022.054.032.043.032.011V3.66a.16.16,0,0,0,.086.129l.043.011H2.742L2.666,3.79,2.526,3.7a1.164,1.164,0,0,1-.291-.312" transform="translate(13.937 9.917)" fill="#e1c291"/>
      <path id="Tracciato_14" data-name="Tracciato 14" d="M2.636,1.821,2.7,1.81l.118.022.1.065.065.1a.292.292,0,0,1-.043.215.28.28,0,0,1-.172.1.194.194,0,0,1-.172-.043.19.19,0,0,1-.065-.14.231.231,0,0,1,.043-.129l.108-.043.075.032.011.065-.011-.065-.075-.043c-.108-.022-.215.129-.248.162l-.108.14a.927.927,0,0,0-.151.409,1.613,1.613,0,0,0,.022.506,1.328,1.328,0,0,0,.2.452,1.428,1.428,0,0,0,.312.312.307.307,0,0,0,.151.065l.075.022L3,4l.022-.011L3.1,3.931l.011-.054V3.856a.088.088,0,0,1-.022.075l-.065.043a.156.156,0,0,1-.118-.011.139.139,0,0,1-.054-.118l.011-.075.054-.065a.164.164,0,0,1,.172-.032.418.418,0,0,1,.162.118l.032.108v.065l-.011.043a.29.29,0,0,1-.183.151.739.739,0,0,1-.258-.022,1.317,1.317,0,0,1-.258-.108,1.01,1.01,0,0,1-.409-.388A1.179,1.179,0,0,1,1.99,3.07a1.41,1.41,0,0,1,0-.3,2.5,2.5,0,0,1,.054-.3.926.926,0,0,1,.291-.5.513.513,0,0,1,.237-.129l.065-.022" transform="translate(13.73 9.722)" fill="#e1c291"/>
      <path id="Tracciato_15" data-name="Tracciato 15" d="M2.03,5.435A.125.125,0,0,0,2.17,5.4L2.2,5.316l-.011-.022.011.022L2.17,5.4a.154.154,0,0,1-.14.022L1.965,5.37l-.032-.1a.241.241,0,0,1,.118-.194.233.233,0,0,1,.258.032.305.305,0,0,1,.118.269.322.322,0,0,1-.194.269.328.328,0,0,1-.355-.022A.448.448,0,0,1,1.7,5.273V5.219l.011-.043.011-.054.022-.054.14-.172.194-.129.215-.108a2.029,2.029,0,0,1,.452-.151l.248-.043.248-.022.258-.032L3.742,4.4l.517-.032a2.851,2.851,0,0,0,.517-.075,1.239,1.239,0,0,0,.463-.226,1.271,1.271,0,0,0,.5-.851.793.793,0,0,0-.075-.474.639.639,0,0,0-.14-.194l-.183-.14-.2-.086a.694.694,0,0,0-.215-.032.388.388,0,0,0-.355.183l-.032.032-.011.022-.011.022-.043.1a.4.4,0,0,0,.011.194l.1.151.075.065-.054-.032-.129-.108a.388.388,0,0,1-.086-.162.4.4,0,0,1,.011-.194.41.41,0,0,1,.086-.183.476.476,0,0,1,.14-.151.515.515,0,0,1,.194-.065l.183-.011.172.022a1.324,1.324,0,0,1,.237.1l.075.043L5.4,2.258a1,1,0,0,0-.237-.108l-.172-.032a.584.584,0,0,0-.194,0l-.14.043.032-.054a.323.323,0,0,1,.183-.086,1.189,1.189,0,0,1,.334.011l.118.032.022.011.183.086.075.032a.858.858,0,0,1,.183.162.775.775,0,0,1,.129.226,1.044,1.044,0,0,1,.1.549,1.9,1.9,0,0,1-.172.581,1.485,1.485,0,0,1-.183.269,1.081,1.081,0,0,1-.237.2,2.269,2.269,0,0,1-.571.258,3.093,3.093,0,0,1-.6.108l-.581.022a3.915,3.915,0,0,0-.517.032,4.349,4.349,0,0,0-.431.086,1.693,1.693,0,0,0-.312.14.538.538,0,0,0-.162.14l-.022.043-.011.011H2.191l-.151.032a.262.262,0,0,0-.129.215l.043.108.075.054" transform="translate(10.934 11.717)" fill="#e1c291"/>
      <path id="Tracciato_16" data-name="Tracciato 16" d="M1.883,5.176v.011l-.054-.011a.245.245,0,0,1-.162-.14l-.022-.075-.011-.032V4.886L1.678,4.7A.587.587,0,0,1,1.8,4.519l.183-.151a2.156,2.156,0,0,1,.474-.226,4.582,4.582,0,0,1,.581-.162,6.062,6.062,0,0,1,.635-.054c.226-.011.441-.011.668-.011l.334-.011a3.261,3.261,0,0,0,.334-.022,1.52,1.52,0,0,0,.614-.194.879.879,0,0,0,.237-.2A.919.919,0,0,0,6,3.217a.953.953,0,0,0,0-.549.488.488,0,0,0-.118-.2.411.411,0,0,0-.183-.129A.311.311,0,0,0,5.5,2.3a.211.211,0,0,0-.14.086l-.032.129.022.1.032.054.011.011-.011-.022L5.35,2.614l-.011-.1.032-.065A.157.157,0,0,1,5.5,2.409l.086.043.054.086a.178.178,0,0,1-.065.2.173.173,0,0,1-.118.054l-.14-.032a.343.343,0,0,1-.129-.549.483.483,0,0,1,.14-.118.372.372,0,0,1,.194-.054l.194.032.194.1a.761.761,0,0,1,.3.3.738.738,0,0,1,.075.452,1.309,1.309,0,0,1-.474.829,1.428,1.428,0,0,1-.452.2,2.617,2.617,0,0,1-.506.086l-.517.022-.258.022a1.949,1.949,0,0,0-.248.032l-.248.022-.258.043a2.327,2.327,0,0,0-.463.151l-.215.108a.9.9,0,0,0-.194.14.573.573,0,0,0-.215.409.515.515,0,0,0,.2.388.424.424,0,0,0,.226.065l-.011.022-.022.022L2.6,5.521l-.054.022L2.5,5.564l-.075.011-.075-.011a.354.354,0,0,1-.172-.075.438.438,0,0,1-.151-.129.547.547,0,0,1-.1-.194.367.367,0,0,1,0-.215.825.825,0,0,1,.226-.388l.172-.129.162-.1.258-.118.1-.043-.1.032-.269.118-.162.1-.172.118a1.153,1.153,0,0,0-.151.172.718.718,0,0,0-.1.226.444.444,0,0,0-.011.237" transform="translate(10.338 11.997)" fill="#e1c291"/>
      <path id="Tracciato_17" data-name="Tracciato 17" d="M1.984,2.032a1.189,1.189,0,0,1,.334-.011.323.323,0,0,1,.183.086l.032.054-.14-.043a.584.584,0,0,0-.194,0l-.183.032a1.679,1.679,0,0,0-.237.108L1.7,2.3l.086-.032a1.324,1.324,0,0,1,.237-.1L2.2,2.151a.54.54,0,0,1,.183.011.515.515,0,0,1,.194.065.476.476,0,0,1,.14.151A.41.41,0,0,1,2.8,2.56a.4.4,0,0,1,.011.194l-.086.162L2.6,3.023l-.054.032.075-.065a.452.452,0,0,0,.1-.151.3.3,0,0,0,0-.194l-.032-.1-.011-.022-.011-.022L2.63,2.474a.469.469,0,0,0-.151-.14.467.467,0,0,0-.2-.043.694.694,0,0,0-.215.032l-.2.086-.183.14a.639.639,0,0,0-.14.194.793.793,0,0,0-.075.474,1.271,1.271,0,0,0,.5.851,1.239,1.239,0,0,0,.463.226,2.851,2.851,0,0,0,.517.075l.517.032.248.011.258.032.248.022.248.043a2.029,2.029,0,0,1,.452.151l.215.108.194.129a.657.657,0,0,1,.129.172l.022.054.022.054.011.043v.054a.448.448,0,0,1-.183.355.352.352,0,0,1-.355.022.322.322,0,0,1-.194-.269.305.305,0,0,1,.118-.269.233.233,0,0,1,.258-.032.218.218,0,0,1,.118.194l-.032.1-.065.054a.131.131,0,0,1-.14-.032l-.032-.075v0L5.02,5.4a.12.12,0,0,0,.14.032l.075-.054.032-.108a.238.238,0,0,0-.108-.215l-.151-.032H4.966l-.022-.054a.481.481,0,0,0-.172-.14,1.22,1.22,0,0,0-.312-.14,3.178,3.178,0,0,0-.42-.086,3.915,3.915,0,0,0-.517-.032l-.581-.022a3.093,3.093,0,0,1-.6-.108,2.269,2.269,0,0,1-.571-.258,1.081,1.081,0,0,1-.237-.2,1.037,1.037,0,0,1-.172-.269,1.466,1.466,0,0,1-.183-.581,1.159,1.159,0,0,1,.086-.549,1.153,1.153,0,0,1,.14-.226.858.858,0,0,1,.183-.162l.075-.032.183-.075.011-.011.129-.043" transform="translate(5.801 11.717)" fill="#e1c291"/>
      <path id="Tracciato_18" data-name="Tracciato 18" d="M1.907,2.452l.086-.032a.127.127,0,0,1,.129.032l.032.054v.011l-.011.1-.032.043L2.1,2.678l.011-.011.032-.054.022-.1-.032-.129a.211.211,0,0,0-.14-.086.311.311,0,0,0-.194.032.519.519,0,0,0-.183.129.488.488,0,0,0-.118.2.954.954,0,0,0,0,.549.919.919,0,0,0,.14.269.879.879,0,0,0,.237.2,1.291,1.291,0,0,0,.614.194,3.261,3.261,0,0,0,.334.022l.334.011a8.587,8.587,0,0,1,1.3.065,4.582,4.582,0,0,1,.581.162,1.932,1.932,0,0,1,.474.226.772.772,0,0,1,.3.323.409.409,0,0,1,.022.334.267.267,0,0,1-.162.151l-.032.011H5.632L5.6,5.2l.011-.022A.587.587,0,0,0,5.6,4.939a.844.844,0,0,0-.1-.226.754.754,0,0,0-.151-.172L5.18,4.423l-.162-.1-.269-.118-.1-.032.1.043.258.118.162.1a1.8,1.8,0,0,1,.172.129.825.825,0,0,1,.226.388.367.367,0,0,1,0,.215.413.413,0,0,1-.1.194L5.32,5.5l-.172.065-.075.011L5,5.564l-.054-.011-.054-.032-.032-.032-.011-.022-.022-.011a.562.562,0,0,0,.226-.075.515.515,0,0,0,.2-.388.573.573,0,0,0-.215-.409.9.9,0,0,0-.194-.14l-.215-.108a2.327,2.327,0,0,0-.463-.151L3.92,4.143l-.258-.022a1.949,1.949,0,0,0-.248-.032l-.258-.022c-.172,0-.345-.011-.517-.022a2.077,2.077,0,0,1-.506-.086,1.428,1.428,0,0,1-.452-.2,1.359,1.359,0,0,1-.474-.829.772.772,0,0,1,.075-.441A.563.563,0,0,1,1.412,2.3a.657.657,0,0,1,.172-.129l.194-.1a1.162,1.162,0,0,1,.2-.032.363.363,0,0,1,.183.054.483.483,0,0,1,.14.118.343.343,0,0,1-.129.549l-.14.032a.173.173,0,0,1-.118-.054.178.178,0,0,1-.065-.2l.054-.086" transform="translate(6.093 11.997)" fill="#e1c291"/>
      <path id="Tracciato_19" data-name="Tracciato 19" d="M1.712,1.927l.1.14.086.183.043.215a1.48,1.48,0,0,1-.022.485,1.276,1.276,0,0,1-.2.441,1.337,1.337,0,0,1-.28.312l-.151.086L1.217,3.8H1.195l.054-.011a.155.155,0,0,0,.075-.14V3.639l.043-.011L1.4,3.585l.022-.054V3.51l.011-.022.043-.032.118-.1L1.68,3.23,1.7,3.176l-.032.054-.1.118-.108.086-.043.022L1.4,3.38h.022l.054-.075V3.262a.5.5,0,0,0,.258-.28.919.919,0,0,0-.108-.937V2.035a.125.125,0,0,0,.022-.108l-.022-.1.086.1" transform="translate(6.041 9.917)" fill="#e1c291"/>
      <path id="Tracciato_20" data-name="Tracciato 20" d="M1.541,3.963l-.108.011-.075-.043a.105.105,0,0,1-.011-.075v.022l.011.054.065.054L1.444,4l.075.011L1.584,4a.545.545,0,0,0,.162-.075,1.4,1.4,0,0,0,.3-.312,1.151,1.151,0,0,0,.2-.452,1.346,1.346,0,0,0,.022-.506.971.971,0,0,0-.14-.409l-.108-.129c-.032-.043-.151-.183-.248-.172L1.7,1.982l-.022.065L1.7,1.982l.075-.032.1.043a.178.178,0,0,1,.054.129.174.174,0,0,1-.065.14.194.194,0,0,1-.172.043.28.28,0,0,1-.172-.1A.235.235,0,0,1,1.476,2L1.53,1.9l.1-.065.129-.022.054.011.075.022a.572.572,0,0,1,.237.129.911.911,0,0,1,.28.5,1.358,1.358,0,0,1,.054.3,1.414,1.414,0,0,1,.011.3,1.307,1.307,0,0,1-.172.571,1,1,0,0,1-.42.4,1.263,1.263,0,0,1-.258.1.7.7,0,0,1-.258.022.3.3,0,0,1-.172-.151l-.011-.032V3.953L1.164,3.9l.043-.1a.275.275,0,0,1,.162-.129.164.164,0,0,1,.172.032l.043.065.022.075a.146.146,0,0,1-.065.118" transform="translate(5.738 9.722)" fill="#e1c291"/>
      <path id="Tracciato_21" data-name="Tracciato 21" d="M1.68,1.835h.011l.022-.011.1-.032.043-.022.022.032.065.1.054.151a.307.307,0,0,1,.022.172v.1l-.022.086-.075.14-.032.043-.032.032-.022.011-.086-.108L1.7,2.481,1.691,2.47l-.118.022a.709.709,0,0,0-.151-.162.667.667,0,0,0-.183-.118.434.434,0,0,0,.215-.086.407.407,0,0,0,.129-.291Z" transform="translate(6.47 9.331)" fill="#e1c291"/>
      <path id="Tracciato_22" data-name="Tracciato 22" d="M2.313,2.2l-.1.032-.011-.011H2.194l.011.011a.126.126,0,0,0,.118-.022.148.148,0,0,0,.054-.162l-.054-.1-.108-.065a.569.569,0,0,0-.269,0,.691.691,0,0,0-.269.129l-.118.1-.086.129a.812.812,0,0,0-.1.312.817.817,0,0,0,.011.323.907.907,0,0,0,.086.291l.065.14.043.054.054.054a.467.467,0,0,0,.226.14.326.326,0,0,0,.226,0,.3.3,0,0,0,.162-.118V3.317H2.238L2.216,3.4l-.075.043L2.054,3.4a.165.165,0,0,1,0-.172.2.2,0,0,1,.226-.086.268.268,0,0,1,.172.183.366.366,0,0,1-.1.377.471.471,0,0,1-.334.075l-.065-.011a1.09,1.09,0,0,1-.4-.14.938.938,0,0,1-.323-.463A1.322,1.322,0,0,1,1.279,2.09a.845.845,0,0,1,.743-.485.529.529,0,0,1,.517.42.369.369,0,0,1-.054.291.275.275,0,0,1-.2.108.3.3,0,0,1-.215-.086A.273.273,0,0,1,2,2.111a.191.191,0,0,1,.258-.151H2.27l.022.022.054.075a.131.131,0,0,1-.032.14" transform="translate(5.536 7.719)" fill="#e1c291"/>
      <path id="Tracciato_23" data-name="Tracciato 23" d="M1.916,2.5c.075-.011.162-.011.258-.032L2.3,2.419l.129-.1.075-.1.011.011.032.032.022.075-.011.1-.054.108-.1.108-.118.086-.151.043L1.981,2.8,1.83,2.763l-.14-.054-.1-.065-.075-.086-.032-.043-.011-.022L1.453,2.44v0l.022.054.011.032.022.032.075.086.108.075.14.054.151.032a.408.408,0,0,0,.162,0L2.3,2.763l.129-.086L2.5,2.623l.022.022.011.032.022.054.022.129-.032.151-.086.14-.108.086-.1.043H2.228l-.011.011-.1-.011L2.1,3.151a.315.315,0,0,0-.2-.215.238.238,0,0,0-.28.118.2.2,0,0,0-.011.194l-.011.011H1.572l-.032-.011-.075-.032-.086-.065a.62.62,0,0,1-.14-.248l-.043-.151-.011-.162.022-.162.011-.075.022-.075.054-.14.075-.108.075-.065.065-.043L1.561,1.9h.011l-.011.032a.324.324,0,0,0,.075.269.283.283,0,0,0,.258.1.359.359,0,0,0,.237-.118.463.463,0,0,0,.054-.323.688.688,0,0,0-.086-.2.362.362,0,0,0,.237.022l.108-.054.011.011.022.011.022.022.032.065.043.086a.649.649,0,0,1-.011.248L2.5,2.193l-.086.118-.108.1-.14.054a1.044,1.044,0,0,1-.248.032.318.318,0,0,1-.183-.022L1.69,2.451l.043.032.183.022" transform="translate(5.933 7.885)" fill="#e1c291"/>
      <path id="Tracciato_24" data-name="Tracciato 24" d="M1.484,1.431l-.011.022a.976.976,0,0,0-.011.248.512.512,0,0,0,.075.248,1.31,1.31,0,0,0,.162.183l.172.172a2.6,2.6,0,0,1,.291.388l.1.226a.575.575,0,0,1,.022.237.516.516,0,0,1-.075.215.41.41,0,0,1-.194.14A.3.3,0,0,1,1.8,3.477L1.71,3.4l-.022-.054-.011-.054L1.7,3.186l.086-.065a.125.125,0,0,1,.108.022.068.068,0,0,1,.043.086V3.24L1.9,3.283,1.85,3.3H1.829l.032.011.054-.022.043-.043.011-.022L2.033,3.1a.307.307,0,0,0,0-.14.608.608,0,0,0-.118-.269l-.194-.2a1.174,1.174,0,0,1-.2-.194.883.883,0,0,1-.183-.215L1.28,1.959l-.043-.129-.022-.14.043-.129.1-.1.129-.032" transform="translate(6.236 6.02)" fill="#e1c291"/>
      <path id="Tracciato_25" data-name="Tracciato 25" d="M1.67,2.393l.086.022.032.054v.011l-.011.011.011-.011V2.469L1.756,2.4,1.67,2.382,1.616,2.4l-.032.043-.011.108.054.1.075.075.151.118.237.075a1.457,1.457,0,0,0,.528.011.437.437,0,0,0,.258-.118.389.389,0,0,0-.022-.452,1.211,1.211,0,0,1-.14-.506.657.657,0,0,1,.162-.42.452.452,0,0,1,.345-.118,1.085,1.085,0,0,1,.345.151,1.216,1.216,0,0,0,.506.2,1.128,1.128,0,0,0,.808-.2.909.909,0,0,1,.345-.151.443.443,0,0,1,.334.118.657.657,0,0,1,.162.42,1.211,1.211,0,0,1-.14.506.429.429,0,0,0-.022.452.467.467,0,0,0,.258.118,1.457,1.457,0,0,0,.528-.011.678.678,0,0,0,.258-.1l.1-.054.118-.129.043-.086-.011-.108L6.817,2.4l-.054-.022L6.677,2.4l-.032.065.011.011V2.469l.022-.054.086-.022.075.054v.1L6.8,2.619l-.065.043H6.666L6.6,2.641a.213.213,0,0,1-.129-.194.261.261,0,0,1,.151-.226.343.343,0,0,1,.334.043.267.267,0,0,1,.065.366,1.065,1.065,0,0,1-.441.409,1.125,1.125,0,0,1-.409.065l-.108.011a2.513,2.513,0,0,1-.84-.151L5.03,2.9c-.065-.032-.129-.043-.172-.1A.247.247,0,0,0,4.7,2.738l-.086.054L4.6,2.867l.032.054h0L4.61,2.867l.011-.075L4.7,2.759l.086.022.054.043a.165.165,0,0,1-.022.215.253.253,0,0,1-.183.065l-.1-.022a.274.274,0,0,1-.151-.248A.283.283,0,0,1,4.567,2.6a.77.77,0,0,1,.226,0,1.5,1.5,0,0,1,.409.129l.011.011.022-.022A.592.592,0,0,1,5.32,2.2l.032-.043a.667.667,0,0,0,.118-.183.355.355,0,0,0-.011-.258.3.3,0,0,0-.291-.14.687.687,0,0,0-.3.162l-.162.108a1.18,1.18,0,0,1-.485.1H4.2a1.129,1.129,0,0,1-.474-.1l-.162-.108a.634.634,0,0,0-.3-.162.3.3,0,0,0-.291.14.355.355,0,0,0-.011.258.707.707,0,0,0,.129.183l.032.043a.571.571,0,0,1,.075.506l.011.022h.022A1.5,1.5,0,0,1,3.641,2.6l.129-.011.1.011a.283.283,0,0,1,.183.237.264.264,0,0,1-.14.248L3.8,3.1a.253.253,0,0,1-.183-.065l-.054-.108L3.6,2.824l.054-.043.086-.022.075.032.011.075L3.8,2.921h0l.032-.054-.011-.075-.086-.054-.129.032-.043.043c-.022.043-.075.054-.118.065l-.162.065a1.841,1.841,0,0,1-.323.1,2.7,2.7,0,0,1-.592.075L2.262,3.1a1.064,1.064,0,0,1-.4-.065.951.951,0,0,1-.441-.409.256.256,0,0,1,.054-.366.343.343,0,0,1,.334-.043.261.261,0,0,1,.151.226.225.225,0,0,1-.226.215l-.1-.043-.043-.075v-.1l.075-.054" transform="translate(7.751 4.885)" fill="#e1c291"/>
      <path id="Tracciato_26" data-name="Tracciato 26" d="M4.941,1.829h.1l.118.065.118.1.172.054.162.011h.183L5.953,2l.065-.054L6.082,1.9l.108-.075L6.3,1.818l.054.054.022.054v0l-.011-.065L6.34,1.829,6.3,1.8a.156.156,0,0,0-.118.011l-.129.065-.118.086a.6.6,0,0,1-.312.054L5.447,2,5.3,1.947l-.129-.075L5.048,1.8H4.984l-.054.022-.054.075-.011.065.011.022V1.958L4.887,1.9l.054-.075M1.42,8.558H1.409l.118-.086a1.1,1.1,0,0,0,.194-.248,1.4,1.4,0,0,0,.172-.592,3.021,3.021,0,0,0,0-.312,3.012,3.012,0,0,0-.065-.3.989.989,0,0,0-.151-.345L1.8,6.642l.043.065.075.118.032.043c.032.075.075.151.108.248a1.363,1.363,0,0,1,.065.3v.151l-.011.151a1.242,1.242,0,0,1-.075.258l-.108.162-.032.054.043-.043.118-.162a.809.809,0,0,0,.086-.258l.022-.151V7.417A1.02,1.02,0,0,0,2.087,7.1a1.793,1.793,0,0,0-.118-.248l-.032-.043L1.958,6.8,2,6.782l.054-.054.075-.14L2.163,6.5l.011-.108-.032-.183a.285.285,0,0,0-.075-.151l-.032-.054L2,5.985l-.032-.032-.011-.011a.508.508,0,0,0,.172-.194l.043-.162-.011-.151-.022-.054L2.12,5.339l-.011-.022L2.1,5.307,2.109,5.3l.065-.118.011-.118-.022-.1L2.12,4.919l-.011-.011.054-.118a.427.427,0,0,0,.011-.258l-.032-.1L2.1,4.359l-.011-.011-.022-.032H2.055l.054-.065a.629.629,0,0,0,.086-.237.48.48,0,0,0-.032-.248,1.022,1.022,0,0,0-.1-.226,1.8,1.8,0,0,0-.291-.4L1.6,2.97l-.151-.183a.451.451,0,0,1-.086-.226.875.875,0,0,1,.011-.237.4.4,0,0,1,.1-.215.15.15,0,0,1,.108-.054l.1.011a.507.507,0,0,0-.022.215.778.778,0,0,0,.162.463.438.438,0,0,0,.151.108l.022-.011L1.98,2.82a.255.255,0,0,1-.129-.1.723.723,0,0,1-.162-.452.378.378,0,0,1,.086-.3A.319.319,0,0,1,2.184,1.9l-.011.022a.616.616,0,0,0,.1.657l.075.043h.011L2.378,2.6l-.022-.022-.065-.022a.6.6,0,0,1-.086-.624c.054-.108.162-.14.323-.108l-.022.054a.712.712,0,0,0-.011.5.522.522,0,0,0,.2.248l.011.011.011-.011V2.6a.526.526,0,0,1-.194-.237.683.683,0,0,1,0-.463.287.287,0,0,1,.118-.14.248.248,0,0,1,.215-.011A.238.238,0,0,1,3,1.883a.365.365,0,0,0-.162.065.316.316,0,0,0-.075.431.966.966,0,0,0,.463.42,1.159,1.159,0,0,0,.42.086h.108a2.832,2.832,0,0,0,1.152-.258.272.272,0,0,0,.065.162.3.3,0,0,0,.215.086l.129-.032a.3.3,0,0,0,.162-.291.333.333,0,0,0-.2-.269L5.156,2.27l-.129.011a1.243,1.243,0,0,0-.388.118.581.581,0,0,0-.1-.506L4.51,1.851l-.118-.172A.3.3,0,0,1,4.4,1.463a.232.232,0,0,1,.237-.118.709.709,0,0,1,.28.151A.63.63,0,0,0,5.1,1.6a1,1,0,0,0,.485.108h.022A1.093,1.093,0,0,0,6.114,1.6.578.578,0,0,0,6.286,1.5a.709.709,0,0,1,.28-.151.232.232,0,0,1,.237.118.25.25,0,0,1,.011.215.451.451,0,0,1-.118.172l-.032.043a.617.617,0,0,0-.1.506,1.273,1.273,0,0,0-.377-.118L6.06,2.27l-.118.011a.327.327,0,0,0-.215.269.308.308,0,0,0,.172.291l.129.032a.294.294,0,0,0,.2-.086A.185.185,0,0,0,6.3,2.626a2.832,2.832,0,0,0,1.152.258h.108a1.111,1.111,0,0,0,.42-.086.921.921,0,0,0,.463-.42.314.314,0,0,0-.065-.431l-.162-.065a.219.219,0,0,1,.129-.129.275.275,0,0,1,.226.011.262.262,0,0,1,.108.14.577.577,0,0,1,0,.463.466.466,0,0,1-.194.237v.022l.011.011L8.5,2.626a.522.522,0,0,0,.2-.248.657.657,0,0,0,0-.5l-.032-.054c.172-.032.269,0,.323.108a.583.583,0,0,1-.086.624l-.054.032L8.838,2.6l.011.022h.022l.065-.032a.616.616,0,0,0,.1-.668V1.915a.3.3,0,0,1,.409.054.482.482,0,0,1,.086.3.792.792,0,0,1-.162.452.255.255,0,0,1-.129.1l-.022.011.011.022h.022a.408.408,0,0,0,.14-.108.867.867,0,0,0,.172-.463.525.525,0,0,0-.032-.215l.108-.011.1.054a.332.332,0,0,1,.1.215.587.587,0,0,1,.011.237.562.562,0,0,1-.075.226A1.231,1.231,0,0,1,9.6,2.97l-.172.172a2.231,2.231,0,0,0-.291.4,2.04,2.04,0,0,0-.1.226.628.628,0,0,0-.022.248.473.473,0,0,0,.075.237l.054.065-.011.011-.022.022-.054.086-.032.1a.434.434,0,0,0,.022.258l.054.118-.022.011-.032.043-.032.1.011.118L9.1,5.3l.011.011v.011l-.022.022-.022.043-.011.054-.022.151.043.162a.615.615,0,0,0,.172.194v.011l-.032.022-.032.032L9.14,6.06l-.075.151a.346.346,0,0,0-.022.183l.011.108.022.086.086.14.054.054.043.022.011.011-.022.043a1.733,1.733,0,0,0-.129.248,2.649,2.649,0,0,0-.075.312v.162l.022.151a.809.809,0,0,0,.1.258l.108.162.032.032.022.022L9.28,8.139l-.1-.162a.814.814,0,0,1-.075-.258l-.022-.151V7.493L9.1,7.417a1.363,1.363,0,0,1,.065-.3,1.318,1.318,0,0,1,.108-.248l.022-.043.075-.118L9.377,6.7l.129.011a1.59,1.59,0,0,0-.129.312l-.054.3-.011.312a1.412,1.412,0,0,0,.183.592,1.1,1.1,0,0,0,.194.248l.118.086H9.8a.919.919,0,0,0-.345,0,.281.281,0,0,0-.194.108l-.022.043-.011.011-.054.032a.432.432,0,0,0-.162.151l-.086.2-.011.054L8.9,9.215l.022.108a.344.344,0,0,0,.1.172l.14.108.14.054h.054l.086.011.14-.065.043-.054L9.646,9.5a.262.262,0,0,0,0-.129.182.182,0,0,0-.162-.118.13.13,0,0,0-.129.043l-.032.054.043-.108a.19.19,0,0,1,.118-.075l.183.032a.9.9,0,0,1,.172.129.527.527,0,0,1,.108.2.851.851,0,0,1-.011.517.8.8,0,0,1-.118.258,1.025,1.025,0,0,1-.226.2,1.434,1.434,0,0,1-.6.2c-.215.022-.441.022-.668.022s-.441-.011-.668-.011-.431.022-.646.054a3.3,3.3,0,0,0-.581.162,2.029,2.029,0,0,0-.485.237.779.779,0,0,0-.3.355l-.032.1-.032-.108a1,1,0,0,0-.3-.345,2.13,2.13,0,0,0-.5-.248,3.059,3.059,0,0,0-.581-.151,6.269,6.269,0,0,0-.646-.054c-.215,0-.441,0-.668.011s-.452,0-.668-.022a1.434,1.434,0,0,1-.6-.2.784.784,0,0,1-.215-.2.832.832,0,0,1-.129-.258.942.942,0,0,1-.011-.517.54.54,0,0,1,.118-.2.657.657,0,0,1,.172-.129l.172-.032a.258.258,0,0,1,.129.075l.043.108-.032-.054a.159.159,0,0,0-.14-.043.169.169,0,0,0-.151.118A.265.265,0,0,0,1.56,9.5l.032.054.043.054.129.065.086-.011H1.9L2.055,9.6l.14-.108a.449.449,0,0,0,.1-.172L2.3,9.215V9.161l-.022-.054a.49.49,0,0,0-.086-.2.432.432,0,0,0-.162-.151L1.98,8.72V8.709l-.032-.043a.28.28,0,0,0-.183-.108.922.922,0,0,0-.345,0" transform="translate(6.354 5.159)" fill="#e1c291"/>
      <path id="Tracciato_27" data-name="Tracciato 27" d="M2.06,1.707v0Z" transform="translate(14.489 8.608)" fill="#4e2001"/>
      <path id="Tracciato_28" data-name="Tracciato 28" d="M11.707,6.053a1.384,1.384,0,0,0-.043-1.12.92.92,0,0,0-.786-.5.622.622,0,0,0-.345.108l.011-.011.011-.065-.032-.129a.13.13,0,0,0-.108-.075.185.185,0,0,0-.129.022l-.043.043-.011.022L10.2,4.266a.262.262,0,0,1,0-.129l.043-.129.075-.118a4.493,4.493,0,0,1,.388-.4l.1-.1.086-.118.065-.129.032-.14L11,2.866l-.043-.14a.236.236,0,0,0-.108-.1l-.129-.022a.431.431,0,0,0-.108-.194L10.5,2.36l-.1.022-.075-.129A.34.34,0,0,0,9.876,2.2a.306.306,0,0,0-.345-.086H9.521l-.065-.065A.308.308,0,0,0,9.2,2.037a.259.259,0,0,0-.151.151.268.268,0,0,0-.183.032.305.305,0,0,0-.183.269.27.27,0,0,0,.258.258.687.687,0,0,1-.345.162,1.4,1.4,0,0,1-.517.011.385.385,0,0,1-.226-.1c-.1-.129-.043-.269.022-.409A1.456,1.456,0,0,0,8.024,1.9a.635.635,0,0,0-.183-.452.423.423,0,0,0-.377-.129.959.959,0,0,0-.355.151,1.174,1.174,0,0,1-.775.2,1.4,1.4,0,0,1-.5-.2,1.011,1.011,0,0,0-.366-.151.4.4,0,0,0-.366.129.635.635,0,0,0-.183.452,1.265,1.265,0,0,0,.151.517c.065.14.118.28.022.409a.415.415,0,0,1-.226.1,1.4,1.4,0,0,1-.517-.011A.728.728,0,0,1,4,2.748a.288.288,0,0,0,.269-.258.305.305,0,0,0-.183-.269A.268.268,0,0,0,3.9,2.188a.251.251,0,0,0-.162-.151.286.286,0,0,0-.248.011l-.075.065a.306.306,0,0,0-.345.086.357.357,0,0,0-.463.054l-.065.129-.1-.022-.118.054a.413.413,0,0,0-.1.194L2.1,2.629a.236.236,0,0,0-.108.1.216.216,0,0,0-.043.14v.14l.043.14.054.129.086.118.1.1a4.636,4.636,0,0,1,.4.4l.075.118.043.129-.011.129-.022.086-.011-.011-.043-.054a.185.185,0,0,0-.129-.022.107.107,0,0,0-.108.075l-.032.129.011.065.011.011a.622.622,0,0,0-.345-.108.907.907,0,0,0-.786.5,1.382,1.382,0,0,0-.054,1.12,1,1,0,0,0,.355.485,1.058,1.058,0,0,0,.291.129H1.866l-.118.075-.065.118a.306.306,0,0,0,.248.366.228.228,0,0,0,.2-.065l.022-.022a.888.888,0,0,1,.1.894.494.494,0,0,1-.237.258l-.022-.054a.215.215,0,0,0-.108-.086l-.075-.011-.075.011-.1.075-.011.032v.054a.233.233,0,0,0-.118.108L1.5,8.476,1.489,8.5l.011.022v.032l-.086.1-.043.118.011.065v.022l.011.043A.215.215,0,0,0,1.478,9a.187.187,0,0,0,.118.065.4.4,0,0,0,.226,0l-.14.129a.861.861,0,0,0-.14.237A1.016,1.016,0,0,0,1.467,10a1.791,1.791,0,0,0,.183.592,2.156,2.156,0,0,0,.172.258,1.1,1.1,0,0,0,.237.215,2.067,2.067,0,0,0,.581.28,2.368,2.368,0,0,0,.614.108,5.152,5.152,0,0,0,.571.022c.183.011.355.011.517.032a2.1,2.1,0,0,1,.42.075,1.24,1.24,0,0,1,.312.129.638.638,0,0,1,.172.129l.022.043.011.011-.108.054a.354.354,0,0,0-.14.3.362.362,0,0,0,.215.312l.172.032.011.022.011.022.043.043.043.032.065.022a.307.307,0,0,0,.172.011l.183-.065a.657.657,0,0,0,.162-.14.413.413,0,0,0,.1-.194h.022l.022-.011H6.28a.3.3,0,0,0,.172-.162l.022-.065.022.075a.326.326,0,0,0,.183.151l.054.011h.011a.4.4,0,0,0,.086.194.7.7,0,0,0,.172.14l.183.065a.307.307,0,0,0,.172-.011l.065-.022.043-.032.032-.032.022-.032v-.011l.183-.043a.382.382,0,0,0,.215-.312.354.354,0,0,0-.14-.3L7.658,11.9l.011-.011.032-.043a.758.758,0,0,1,.162-.129,1.706,1.706,0,0,1,.312-.129,2.379,2.379,0,0,1,.431-.075c.162-.022.334-.022.517-.032a5.152,5.152,0,0,0,.571-.022,2.45,2.45,0,0,0,.614-.108,1.878,1.878,0,0,0,.571-.28.757.757,0,0,0,.237-.215A1.409,1.409,0,0,0,11.3,10.6,2.085,2.085,0,0,0,11.481,10a1.016,1.016,0,0,0-.075-.571,1.25,1.25,0,0,0-.14-.237.868.868,0,0,0-.151-.129.4.4,0,0,0,.226,0A.188.188,0,0,0,11.47,9l.075-.108.011-.032.011-.032V8.767l-.043-.118-.086-.086.011-.032V8.476l-.011-.054a.233.233,0,0,0-.118-.108V8.282l-.011-.054-.1-.075-.075-.011-.075.011a.243.243,0,0,0-.118.086l-.022.054a.542.542,0,0,1-.237-.258.942.942,0,0,1,.1-.894l.032.022a.208.208,0,0,0,.194.065.335.335,0,0,0,.2-.118.288.288,0,0,0,.054-.248.2.2,0,0,0-.075-.118l-.108-.075h-.011a1.058,1.058,0,0,0,.291-.129.926.926,0,0,0,.345-.485M10.845,2.64l.1.1.032.129L10.964,3l-.043.14-.065.118a1.081,1.081,0,0,1-.172.215l-.2.194-.194.2a.559.559,0,0,0-.118.269.306.306,0,0,0,0,.14l.065.151.054.043.065.011h0l-.065-.022-.022-.043L10.253,4.4l.054-.086a.177.177,0,0,1,.108-.011l.075.054a.158.158,0,0,1,.022.118v.054l-.022.054-.086.075a.3.3,0,0,1-.215.022.314.314,0,0,1-.194-.129.516.516,0,0,1-.075-.215.575.575,0,0,1,.022-.237,2.04,2.04,0,0,1,.1-.226,2.026,2.026,0,0,1,.291-.388l.172-.172.162-.183a.512.512,0,0,0,.075-.248.664.664,0,0,0-.022-.248V2.619a.185.185,0,0,1,.129.022M4.062,2.253a.242.242,0,0,1,.151.237A.216.216,0,0,1,4,2.7L3.89,2.662l-.032-.075v-.1l.065-.054.086.011.032.054v0l-.032-.054-.086-.032-.054.022-.032.043a.125.125,0,0,0,0,.108l.043.108.086.075a.386.386,0,0,0,.151.108.563.563,0,0,0,.226.075,1.47,1.47,0,0,0,.528.022.425.425,0,0,0,.258-.129c.118-.14.054-.3-.022-.452a1.166,1.166,0,0,1-.14-.506.629.629,0,0,1,.162-.409.384.384,0,0,1,.345-.118,1.085,1.085,0,0,1,.345.151,1.462,1.462,0,0,0,.506.2,1.23,1.23,0,0,0,.808-.2.989.989,0,0,1,.345-.151.364.364,0,0,1,.334.118.588.588,0,0,1,.172.409,1.334,1.334,0,0,1-.151.506c-.065.151-.129.312-.011.452a.428.428,0,0,0,.248.129A1.461,1.461,0,0,0,8.6,2.952a.788.788,0,0,0,.269-.086L8.95,2.8a.592.592,0,0,0,.118-.118l.043-.1a.183.183,0,0,0,0-.108l-.043-.043-.043-.022-.1.032L8.907,2.5v0l.032-.054.086-.011.065.054v.1l-.043.075L8.993,2.7l-.075-.011-.065-.011a.266.266,0,0,1-.129-.194.269.269,0,0,1,.162-.237A.377.377,0,0,1,9.22,2.3a.291.291,0,0,1,.054.377.979.979,0,0,1-.441.4,1.321,1.321,0,0,1-.409.075h-.1a2.562,2.562,0,0,1-.851-.14l-.194-.075a.388.388,0,0,1-.162-.086.206.206,0,0,0-.172-.065l-.075.054-.011.075.022.054H6.9l-.022-.011-.022-.043.011-.075L6.958,2.8l.075.011.065.054a.167.167,0,0,1-.032.2.254.254,0,0,1-.172.075l-.108-.022a.29.29,0,0,1-.151-.258.282.282,0,0,1,.183-.226.4.4,0,0,1,.226,0,1.5,1.5,0,0,1,.409.129h.022l.011-.022a.6.6,0,0,1,.086-.517L7.6,2.2A.586.586,0,0,0,7.723,2a.286.286,0,0,0-.011-.248.267.267,0,0,0-.291-.14.683.683,0,0,0-.291.151.578.578,0,0,1-.172.108.976.976,0,0,1-.485.108H6.463a1.1,1.1,0,0,1-.474-.108.578.578,0,0,1-.172-.108.725.725,0,0,0-.3-.151.247.247,0,0,0-.28.14A.332.332,0,0,0,5.214,2a.611.611,0,0,0,.129.194l.032.032a.6.6,0,0,1,.086.517v.022h.022a1.5,1.5,0,0,1,.409-.129l.129-.011.108.011a.27.27,0,0,1,.172.226.281.281,0,0,1-.14.258l-.108.022a.305.305,0,0,1-.183-.075l-.043-.1.022-.118.065-.043L5.989,2.8l.075.032.022.075-.032.043-.022.011h.032l.022-.054-.011-.075L5.989,2.78l-.129.032-.032.043L5.7,2.92l-.162.065-.312.1a2.8,2.8,0,0,1-.6.065H4.514a1.311,1.311,0,0,1-.4-.075.928.928,0,0,1-.441-.4A.291.291,0,0,1,3.728,2.3a.373.373,0,0,1,.334-.043m-1.615,2.1L2.533,4.3a.177.177,0,0,1,.108.011l.043.086v.022l-.032.043L2.6,4.481h0l.065-.011.043-.043.011-.022a.276.276,0,0,0,.054-.129.214.214,0,0,0,.011-.14.559.559,0,0,0-.118-.269l-.194-.2-.215-.194a1.678,1.678,0,0,1-.172-.215l-.054-.118L1.984,3l-.022-.129.043-.129.1-.1.129-.032-.011.022a.976.976,0,0,0-.011.248.512.512,0,0,0,.075.248c.043.065.108.118.162.183l.172.172a2.6,2.6,0,0,1,.291.388L3,4.094a.44.44,0,0,1,.032.237.516.516,0,0,1-.075.215.387.387,0,0,1-.194.129.331.331,0,0,1-.226-.022l-.075-.075-.022-.054-.011-.054.022-.118m-.84,2.153a.94.94,0,0,1-.323-.474,1.328,1.328,0,0,1,.032-1.077.883.883,0,0,1,.754-.474.517.517,0,0,1,.506.42.377.377,0,0,1-.043.291.307.307,0,0,1-.2.1.255.255,0,0,1-.215-.075.3.3,0,0,1-.065-.237.211.211,0,0,1,.1-.14.147.147,0,0,1,.162,0l.022.011.065.075a.169.169,0,0,1-.032.151l-.1.022H2.242l-.011-.011V5.1h.022a.1.1,0,0,0,.118-.011.209.209,0,0,0,.054-.172l-.065-.1-.108-.054a.524.524,0,0,0-.258,0,.857.857,0,0,0-.269.118l-.118.108-.1.129a.763.763,0,0,0-.1.3,1.594,1.594,0,0,0,.011.323,2.014,2.014,0,0,0,.086.3l.075.129.043.065.043.054a.572.572,0,0,0,.237.129.33.33,0,0,0,.226.011A.264.264,0,0,0,2.286,6.3V6.193l-.022.086-.075.043-.1-.054A.148.148,0,0,1,2.1,6.107a.175.175,0,0,1,.226-.086.274.274,0,0,1,.172.172.41.41,0,0,1-.1.388.484.484,0,0,1-.334.075l-.065-.011a1.023,1.023,0,0,1-.4-.14m.42,1.863V8.325a.5.5,0,0,0,.258-.28.919.919,0,0,0-.108-.937L2.2,7l-.022-.108L2.264,7l.1.14.086.172.043.226a1.48,1.48,0,0,1-.022.485,1.141,1.141,0,0,1-.2.431,1.407,1.407,0,0,1-.28.323.494.494,0,0,1-.151.075l-.065.011H1.747L1.8,8.853a.137.137,0,0,0,.075-.129V8.713l.043-.022.032-.032.022-.065V8.573l.011-.011.043-.032.118-.108.086-.129.022-.054-.032.054-.1.118-.108.1-.043.022V8.519l-.022-.065.022-.011.054-.075m-.366-.129a.187.187,0,0,1,.215-.054l.1.075.032.108-.032.075H1.952L1.9,8.368l-.086-.054-.086-.022-.1.022.032-.075m-.151.269V8.487l.022-.054.054-.054.065-.032a.247.247,0,0,1,.151.011l.065.043.054.054.022.075v.065l-.011.054-.022.032L1.9,8.7H1.887l-.022-.065-.054-.086a.235.235,0,0,0-.2-.043l-.1.043V8.508Zm.1.517a.251.251,0,0,1-.172-.14l-.011-.032V8.821l-.011-.043.043-.108a.3.3,0,0,1,.162-.118.164.164,0,0,1,.172.032l.043.065.022.075a.146.146,0,0,1-.065.118l-.108.011L1.607,8.81A.105.105,0,0,1,1.6,8.734v.022l.011.054.065.054h.022l.075.022.065-.022a.366.366,0,0,0,.162-.075,1,1,0,0,0,.3-.3,1.35,1.35,0,0,0,.215-.452,2.016,2.016,0,0,0,.022-.506.927.927,0,0,0-.151-.409l-.108-.14c-.032-.032-.151-.183-.248-.162l-.075.043-.022.065.022-.065.075-.032.108.043A.231.231,0,0,1,2.178,7a.208.208,0,0,1-.065.14.194.194,0,0,1-.172.043.28.28,0,0,1-.172-.1.25.25,0,0,1-.043-.215l.054-.1.1-.065.129-.022L2.07,6.7l.065.022a.572.572,0,0,1,.237.129.911.911,0,0,1,.28.5,1.358,1.358,0,0,1,.054.3,1.388,1.388,0,0,1,.011.3,1.215,1.215,0,0,1-.172.571.973.973,0,0,1-.42.388,1.317,1.317,0,0,1-.258.108.526.526,0,0,1-.258.011m3.661,3.5a.324.324,0,0,1-.075-.549.25.25,0,0,1,.258-.022.227.227,0,0,1,.118.194l-.032.1-.075.054a.109.109,0,0,1-.129-.032L5.3,12.18v0l.032.086a.14.14,0,0,0,.14.043l.075-.065.032-.1a.228.228,0,0,0-.118-.215.209.209,0,0,0-.14-.032H5.3l-.022-.011-.032-.043a.441.441,0,0,0-.162-.151,1.83,1.83,0,0,0-.312-.129,2.13,2.13,0,0,0-.431-.1,3.916,3.916,0,0,0-.517-.032c-.183,0-.377-.011-.571-.022a2.931,2.931,0,0,1-.6-.1,2.529,2.529,0,0,1-.581-.258,1.478,1.478,0,0,1-.237-.215,1.541,1.541,0,0,1-.172-.258A1.641,1.641,0,0,1,1.489,10a.982.982,0,0,1,.226-.775A.639.639,0,0,1,1.9,9.068l.065-.043.183-.075.022-.011L2.3,8.907a.858.858,0,0,1,.323-.022.276.276,0,0,1,.194.1l.022.043-.129-.032-.194-.011-.183.032a.958.958,0,0,0-.237.118l-.075.043L2.1,9.133a1.129,1.129,0,0,1,.237-.086l.172-.032.183.011a.391.391,0,0,1,.183.075.469.469,0,0,1,.151.14,1.057,1.057,0,0,1,.086.194.4.4,0,0,1,.011.194l-.1.162L2.9,9.9l-.043.022.075-.054A.3.3,0,0,0,3.018,9.7a.347.347,0,0,0,.011-.183L3,9.424,2.985,9.4,2.975,9.38l-.032-.043a.567.567,0,0,0-.151-.129.49.49,0,0,0-.215-.054l-.215.032a.88.88,0,0,0-.2.1,1.036,1.036,0,0,0-.183.14,1.175,1.175,0,0,0-.14.183.824.824,0,0,0-.065.485,1.326,1.326,0,0,0,.485.851,1.264,1.264,0,0,0,.474.215,3.817,3.817,0,0,0,.506.086c.172.011.345.022.517.022l.258.022a1.95,1.95,0,0,1,.248.032l.248.022a1.724,1.724,0,0,1,.248.032,3.361,3.361,0,0,1,.463.162l.215.108a.817.817,0,0,1,.323.3l.022.043.022.054.011.054v.054a.428.428,0,0,1-.183.345.356.356,0,0,1-.355.032m1.163-.345a.289.289,0,0,1-.151.151l-.032.011H6.2l.011-.011a.578.578,0,0,0-.011-.237.718.718,0,0,0-.1-.226L5.957,11.7l-.172-.129-.172-.086-.258-.118-.1-.043-.011.011.1.043a1.315,1.315,0,0,1,.258.118l.172.1.162.129a.808.808,0,0,1,.237.377.8.8,0,0,1,0,.226.547.547,0,0,1-.1.194.567.567,0,0,1-.151.129.467.467,0,0,1-.172.075l-.075.011L5.6,12.718,5.537,12.7l-.043-.022-.032-.032-.022-.022-.011-.011a.516.516,0,0,0,.215-.075.47.47,0,0,0,.2-.388.561.561,0,0,0-.2-.409l-.194-.14-.215-.108a2.426,2.426,0,0,0-.474-.151l-.248-.054-.248-.022-.258-.022-.258-.022c-.172-.011-.334-.011-.506-.032a2.608,2.608,0,0,1-.506-.075,1.172,1.172,0,0,1-.452-.215,1.259,1.259,0,0,1-.474-.818.818.818,0,0,1,.065-.452.657.657,0,0,1,.129-.172l.172-.14.194-.086.2-.032a.439.439,0,0,1,.194.054.359.359,0,0,1,.14.118.328.328,0,0,1,.065.323.342.342,0,0,1-.194.226l-.14.032L2.512,9.9a.2.2,0,0,1-.065-.2l.065-.086.075-.043a.183.183,0,0,1,.14.043l.032.054v.011l-.022.086-.032.054-.011.022.022-.022.032-.043.022-.1a.207.207,0,0,0-.043-.129.163.163,0,0,0-.14-.086.334.334,0,0,0-.194.032.55.55,0,0,0-.172.118.728.728,0,0,0-.118.764,1.16,1.16,0,0,0,.129.258.9.9,0,0,0,.237.215,1.52,1.52,0,0,0,.614.194c.118.011.226.022.334.022l.334.011a8.517,8.517,0,0,1,1.3.065,3.059,3.059,0,0,1,.581.151,2.029,2.029,0,0,1,.485.237.942.942,0,0,1,.3.323.4.4,0,0,1,.011.334m.011-.345a.909.909,0,0,0-.3-.345,2.278,2.278,0,0,0-.485-.248,3.405,3.405,0,0,0-.592-.151,4.127,4.127,0,0,0-.646-.054H3.75a4.435,4.435,0,0,1-.657-.011,1.43,1.43,0,0,1-.614-.2.784.784,0,0,1-.215-.2,1.447,1.447,0,0,1-.129-.258.881.881,0,0,1,0-.528.431.431,0,0,1,.108-.194.657.657,0,0,1,.172-.129.328.328,0,0,1,.172-.032.164.164,0,0,1,.129.075l.043.108-.032-.054a.15.15,0,0,0-.14-.043.169.169,0,0,0-.151.118.15.15,0,0,0,0,.118l.022.065.043.054.129.054h.151l.14-.054.14-.108a.5.5,0,0,0,.1-.183l.011-.1V9.467l-.011-.054-.1-.194A.464.464,0,0,0,2.9,9.057l-.054-.022V9.025l-.032-.054a.355.355,0,0,0-.183-.108,1.266,1.266,0,0,0-.345.011H2.275l.118-.1a1.036,1.036,0,0,0,.194-.237,1.261,1.261,0,0,0,.172-.592,1.513,1.513,0,0,0,0-.312l-.054-.3a1.064,1.064,0,0,0-.162-.355.657.657,0,0,0-.14-.162A.721.721,0,0,0,2.21,6.7a.522.522,0,0,0,.226-.086.4.4,0,0,0,.118-.291l-.011-.14a.3.3,0,0,0-.2-.2.235.235,0,0,0-.28.108.227.227,0,0,0-.011.2l.011.011a.141.141,0,0,0,.129.065L2.124,6.4H1.973l-.054-.022A.607.607,0,0,1,1.7,6.258L1.661,6.2,1.629,6.15l-.075-.129a2.127,2.127,0,0,1-.086-.28,1.541,1.541,0,0,1-.011-.312.665.665,0,0,1,.1-.291l.086-.118.108-.1A.8.8,0,0,1,2.006,4.8a.31.31,0,0,1,.14-.011H2.135l-.1.086v.011l-.075.022-.108.054-.086.086-.075.108L1.65,5.3l-.022.086-.011.075-.011.172.011.162.043.151a.641.641,0,0,0,.151.237l.086.075.075.032h.032L1.984,6.28,1.9,6.258l-.086-.075a.983.983,0,0,1-.14-.237L1.639,5.8l-.011-.162.011-.172.011-.075.022-.075.054-.129L1.8,5.074,1.876,5l.075-.043.054-.011v.032a.31.31,0,0,0,.075.269.284.284,0,0,0,.248.086.272.272,0,0,0,.237-.118.36.36,0,0,0,.054-.323A.521.521,0,0,0,2.544,4.7a.325.325,0,0,0,.226.011l.118-.054.011.011.011.022.022.011.043.065.032.086A.394.394,0,0,1,3,5.1l-.054.129-.1.118-.108.1-.129.054a1.062,1.062,0,0,1-.258.032.419.419,0,0,1-.172-.011l-.043-.032h0l.043.032.172.022A1.062,1.062,0,0,0,2.609,5.5l.14-.054.118-.1.075-.1.022.011L3,5.3l.022.075-.011.1-.054.118-.1.1-.129.086-.151.043-.162.011L2.264,5.8l-.129-.043-.108-.075L1.952,5.59,1.93,5.558l-.022-.032-.022-.054v0l.022.054.022.032.022.043.075.075.108.075.129.065.151.022a.408.408,0,0,0,.162,0L2.738,5.8l.14-.075.065-.065.011.022.022.032L3,5.763a.285.285,0,0,1,.011.14l-.032.151-.086.129-.108.1-.086.032-.022.011.022-.011.1-.032.032-.022A.508.508,0,0,0,3,6.064L3.039,5.9a.346.346,0,0,0-.011-.151L3.007,5.7l-.022-.043-.011-.022-.011-.011L2.975,5.6l.065-.118.011-.108-.022-.1-.043-.043-.011-.011.054-.118a.54.54,0,0,0,.022-.258L3.007,4.74l-.043-.065-.011-.022-.022-.022H2.921l.054-.065a.488.488,0,0,0,.086-.237.48.48,0,0,0-.032-.248l-.086-.226a2.275,2.275,0,0,0-.3-.4l-.172-.172L2.318,3.1a.47.47,0,0,1-.075-.226.873.873,0,0,1,0-.237.442.442,0,0,1,.1-.215l.108-.065.1.022a.474.474,0,0,0-.022.2.753.753,0,0,0,.172.474.328.328,0,0,0,.14.108l.022-.011-.011-.022a.339.339,0,0,1-.129-.1.747.747,0,0,1-.162-.452.411.411,0,0,1,.086-.312A.316.316,0,0,1,3.05,2.22v.011a.59.59,0,0,0,.086.657l.075.054h.022l.011-.032L3.222,2.9l-.065-.032a.583.583,0,0,1-.086-.614c.065-.118.162-.151.323-.108L3.373,2.2a.657.657,0,0,0,0,.5.45.45,0,0,0,.194.248H3.6V2.92a.487.487,0,0,1-.2-.237.683.683,0,0,1,0-.463.251.251,0,0,1,.334-.151.238.238,0,0,1,.14.129.425.425,0,0,0-.162.065.327.327,0,0,0-.075.431,1.08,1.08,0,0,0,.463.42,1.171,1.171,0,0,0,.42.075l.108.011a3.02,3.02,0,0,0,1.152-.258.251.251,0,0,0,.075.162.294.294,0,0,0,.2.086l.129-.032a.3.3,0,0,0,.162-.291.333.333,0,0,0-.2-.269l-.118-.022L5.893,2.6a1.336,1.336,0,0,0-.388.118.581.581,0,0,0-.1-.506l-.032-.043-.118-.172a.3.3,0,0,1,.011-.215.248.248,0,0,1,.248-.118.486.486,0,0,1,.269.151l.183.108a1.048,1.048,0,0,0,.5.108h.011a1.093,1.093,0,0,0,.506-.108l.172-.108a.514.514,0,0,1,.28-.151.257.257,0,0,1,.248.118.251.251,0,0,1,0,.215.578.578,0,0,1-.108.172L7.54,2.21a.624.624,0,0,0-.108.506A1.273,1.273,0,0,0,7.055,2.6l-.129-.022L6.808,2.6a.327.327,0,0,0-.215.269.308.308,0,0,0,.172.291l.129.032A.294.294,0,0,0,7.1,3.1a.2.2,0,0,0,.065-.162A3.117,3.117,0,0,0,8.326,3.2l.1-.011a1.127,1.127,0,0,0,.42-.075,1.047,1.047,0,0,0,.474-.42.327.327,0,0,0-.075-.431L9.08,2.2a.211.211,0,0,1,.14-.129.252.252,0,0,1,.215.011.2.2,0,0,1,.108.14.577.577,0,0,1,0,.463.506.506,0,0,1-.183.237l-.011.022h.032a.5.5,0,0,0,.194-.248.657.657,0,0,0,0-.5l-.032-.054c.172-.043.269-.011.323.108a.562.562,0,0,1-.086.614L9.726,2.9,9.7,2.909l.011.032h.022L9.8,2.909a.634.634,0,0,0,.1-.678.3.3,0,0,1,.409.043.531.531,0,0,1,.086.312.822.822,0,0,1-.162.452.339.339,0,0,1-.129.1l-.011.011.011.022h.011a.329.329,0,0,0,.14-.108.82.82,0,0,0,.172-.474.734.734,0,0,0-.022-.2l.1-.022.108.065a.354.354,0,0,1,.086.215.587.587,0,0,1,.011.237.623.623,0,0,1-.075.226l-.151.183-.172.172a1.847,1.847,0,0,0-.3.4l-.1.226a.628.628,0,0,0-.022.248.4.4,0,0,0,.086.237l.054.065h-.011l-.011.011-.022.022L9.93,4.74,9.9,4.848a.434.434,0,0,0,.022.258l.054.118-.022.011-.032.043-.032.1.022.108.065.118v.032l-.022.022L9.941,5.7l-.022.054a.346.346,0,0,0-.011.151l.032.162a.531.531,0,0,0,.183.194l-.011.011-.022.011-.043.043-.043.054-.075.14a.6.6,0,0,0-.022.194l.011.1.022.1.086.14.054.054.043.022.011.011-.022.043a1.733,1.733,0,0,0-.129.248,2.053,2.053,0,0,0-.075.3v.162l.022.162a.809.809,0,0,0,.1.258l.118.162.022.032.022.022-.043-.065-.1-.162a.908.908,0,0,1-.075-.258l-.022-.151V7.808l.011-.075a1.242,1.242,0,0,1,.065-.3,1.067,1.067,0,0,1,.108-.248l.022-.043h0l.075-.118.011-.011.032-.043-.043.043-.086.108h-.011l-.043-.043-.043-.043-.065-.14-.022-.086-.011-.1.022-.172.054-.151.065-.1.032-.032.022.011.108.043.032.011-.032-.011-.086-.032-.118-.1-.075-.129A.462.462,0,0,1,9.93,5.9l.022-.14.022-.054.011-.022.022-.032.065.065.14.075.151.043a.463.463,0,0,0,.172,0l.151-.022.129-.065.108-.075L11,5.6l.022-.043.011-.022.022-.065.011-.011-.011.011-.011.054-.022.032L11,5.59l-.075.086-.108.075-.14.043-.151.032-.151-.011-.151-.043-.129-.086-.1-.1-.054-.118-.011-.1L9.952,5.3l.032-.032.011-.011.086.1.118.1.129.054a1.207,1.207,0,0,0,.258.032l.183-.022.032-.022.011-.011-.043.032a.476.476,0,0,1-.183.011,1.044,1.044,0,0,1-.248-.032L10.21,5.44l-.118-.1-.086-.118L9.941,5.1a.482.482,0,0,1,0-.248l.032-.086.043-.065.011-.011.022-.011.011-.022.108.054A.355.355,0,0,0,10.4,4.7a.532.532,0,0,0-.086.194.4.4,0,0,0,.065.323.267.267,0,0,0,.226.118.306.306,0,0,0,.258-.086.347.347,0,0,0,.075-.269l-.011-.032h.011L11,4.955,11.061,5l.086.075.065.108.065.129.011.075.022.075.011.172-.011.162-.043.151a.711.711,0,0,1-.129.237l-.086.075-.086.022-.032.011h.022l.1-.032.086-.075a.817.817,0,0,0,.151-.237L11.33,5.8l.011-.162-.011-.172-.011-.075L11.3,5.3l-.054-.14-.075-.108-.075-.086-.086-.043L10.975,4.9l-.043-.011L10.91,4.88l-.043-.043-.043-.043H10.8a.321.321,0,0,1,.14.011.75.75,0,0,1,.248.118l.118.1.086.118a.833.833,0,0,1,.086.291,1.025,1.025,0,0,1-.011.312.846.846,0,0,1-.086.28l-.065.129-.032.054-.054.054a.565.565,0,0,1-.2.118l-.054.022h-.151l-.065-.032a.153.153,0,0,0,.129-.065V6.29a.2.2,0,0,0,0-.2.241.241,0,0,0-.28-.108.3.3,0,0,0-.2.2l-.022.14a.455.455,0,0,0,.129.291.534.534,0,0,0,.215.086.667.667,0,0,0-.183.118,1.006,1.006,0,0,0-.172.194,1.446,1.446,0,0,0-.129.323l-.054.3a1.513,1.513,0,0,0,0,.312,1.261,1.261,0,0,0,.172.592,1.036,1.036,0,0,0,.194.237l.118.1h-.011a1.266,1.266,0,0,0-.345-.011.4.4,0,0,0-.194.108l-.022.054-.011.011-.054.022a.432.432,0,0,0-.151.162l-.1.194-.011.054-.011.065.022.1a.377.377,0,0,0,.1.183l.14.108.14.054h.14a.227.227,0,0,0,.14-.054l.043-.054.022-.065a.22.22,0,0,0,0-.118.169.169,0,0,0-.151-.118.14.14,0,0,0-.14.043l-.032.054.043-.108a.137.137,0,0,1,.129-.075.328.328,0,0,1,.172.032.657.657,0,0,1,.172.129.565.565,0,0,1,.108.194.975.975,0,0,1,0,.528,1.447,1.447,0,0,1-.129.258,1.025,1.025,0,0,1-.226.2,1.434,1.434,0,0,1-.6.2,4.582,4.582,0,0,1-.668.011H8.52a4.358,4.358,0,0,0-.646.054,3.285,3.285,0,0,0-.581.151,2.048,2.048,0,0,0-.485.248.729.729,0,0,0-.3.355l-.032.1-.032-.108m1.066.786-.022.022-.032.032-.043.022-.065.022-.075.011L7.2,12.718a.4.4,0,0,1-.172-.075.567.567,0,0,1-.151-.129.547.547,0,0,1-.1-.194.534.534,0,0,1,0-.226.732.732,0,0,1,.237-.377.61.61,0,0,1,.162-.129l.162-.1.258-.118.1-.043v-.011l-.1.043a1.675,1.675,0,0,0-.258.118l-.172.086-.172.129a1.153,1.153,0,0,0-.151.172.718.718,0,0,0-.1.226.578.578,0,0,0-.011.237v.011l-.054-.011a.279.279,0,0,1-.162-.14L6.5,12.115l-.011-.043v-.043l.043-.172a.486.486,0,0,1,.118-.183l.183-.151a2.779,2.779,0,0,1,.474-.237,4.584,4.584,0,0,1,.581-.151,4.1,4.1,0,0,1,.635-.054c.226-.011.452-.011.668-.011l.334-.011a3.261,3.261,0,0,0,.334-.022,1.421,1.421,0,0,0,.614-.194.879.879,0,0,0,.237-.2,1.075,1.075,0,0,0,.14-.269.957.957,0,0,0,.011-.549.88.88,0,0,0-.129-.215.486.486,0,0,0-.183-.118.311.311,0,0,0-.194-.032.178.178,0,0,0-.14.086l-.032.129.022.1.032.043.011.022h.011l-.022-.022-.022-.054-.022-.086.032-.065a.172.172,0,0,1,.129-.043l.086.043a.085.085,0,0,1,.054.086.164.164,0,0,1-.065.2l-.118.054-.14-.032a.357.357,0,0,1-.2-.226.412.412,0,0,1,.215-.441.372.372,0,0,1,.194-.054l.194.032.194.086.172.14a.657.657,0,0,1,.129.172.738.738,0,0,1,.075.452,1.259,1.259,0,0,1-.474.818,1.172,1.172,0,0,1-.452.215,2.608,2.608,0,0,1-.506.075c-.172.022-.345.022-.517.032l-.248.022-.258.022-.248.022-.248.054a2.214,2.214,0,0,0-.474.151L7.5,11.6a1.27,1.27,0,0,0-.194.14.526.526,0,0,0-.2.409.49.49,0,0,0,.194.388.424.424,0,0,0,.226.065ZM11.233,9.23a1.062,1.062,0,0,1,.14.215,1.182,1.182,0,0,1,.086.56,1.9,1.9,0,0,1-.172.581,1.472,1.472,0,0,1-.42.474,2.269,2.269,0,0,1-.571.258,3.052,3.052,0,0,1-.6.1c-.2.011-.388.022-.581.022a3.916,3.916,0,0,0-.517.032,2.192,2.192,0,0,0-.42.1,1.83,1.83,0,0,0-.312.129.441.441,0,0,0-.162.151l-.032.032-.011.022H7.637a.211.211,0,0,0-.151.032.262.262,0,0,0-.129.215l.043.1.075.065a.14.14,0,0,0,.14-.043l.032-.086-.011-.022.011.022-.032.086a.125.125,0,0,1-.14.032l-.065-.054-.032-.1a.227.227,0,0,1,.118-.194.25.25,0,0,1,.258.022.338.338,0,0,1,.118.28.347.347,0,0,1-.549.237.428.428,0,0,1-.183-.345v-.054l.011-.054.022-.054.022-.043a.817.817,0,0,1,.323-.3l.215-.108a2.926,2.926,0,0,1,.463-.162,1.572,1.572,0,0,1,.237-.032l.248-.022a2.418,2.418,0,0,1,.258-.032l.258-.022c.162,0,.334-.011.506-.022a4.312,4.312,0,0,0,.517-.086,1.217,1.217,0,0,0,.463-.215,1.3,1.3,0,0,0,.5-.851.828.828,0,0,0-.075-.485.872.872,0,0,0-.323-.323l-.194-.1-.215-.032a.49.49,0,0,0-.215.054.438.438,0,0,0-.151.129l-.032.043L9.963,9.4l-.011.022-.043.1a.51.51,0,0,0,.011.183.405.405,0,0,0,.1.162l.075.054L10.038,9.9,9.909,9.79l-.086-.162a.4.4,0,0,1,.011-.194.449.449,0,0,1,.086-.194.576.576,0,0,1,.14-.14.484.484,0,0,1,.194-.075l.183-.011.172.032a1.421,1.421,0,0,1,.237.086l.075.043-.065-.043a1.34,1.34,0,0,0-.248-.118l-.172-.032-.194.011-.14.032.032-.043a.273.273,0,0,1,.183-.1.9.9,0,0,1,.334.022l.118.022.022.022.183.075.075.043a.639.639,0,0,1,.183.162m.129-.851.043.054.032.054v.065l-.1-.043a.228.228,0,0,0-.2.043l-.054.086-.011.075L11.061,8.7l-.022-.022-.032-.032L11,8.594l.011-.065.022-.075.054-.054.065-.043a.242.242,0,0,1,.151-.011l.065.032m-.388-.118.1-.075a.192.192,0,0,1,.215.054l.022.075-.086-.022-.1.022-.075.054L11,8.444h-.022l-.032-.075.032-.108m-.215-1.152a.971.971,0,0,0-.108.937.562.562,0,0,0,.269.28v.032l.054.086.011.011-.011.065V8.53l-.043-.022-.118-.1-.086-.118-.032-.054.022.054.086.129.108.108.043.032h.022v.032L11,8.659l.032.032.032.011.011.022a.137.137,0,0,0,.075.129l.043.011-.075-.011a.494.494,0,0,1-.151-.075,1.746,1.746,0,0,1-.291-.323,1.125,1.125,0,0,1-.194-.431,1.48,1.48,0,0,1-.022-.485l.043-.226.086-.172.1-.14.086-.108L10.738,7l.032.108Zm.4-.334.065.1a.292.292,0,0,1-.043.215.28.28,0,0,1-.172.1.194.194,0,0,1-.172-.043A.208.208,0,0,1,10.77,7l.043-.129.108-.043L11,6.861l.011.065L11,6.861l-.075-.043c-.108-.022-.215.129-.248.162l-.108.14a.927.927,0,0,0-.151.409,1.613,1.613,0,0,0,.022.506,1.572,1.572,0,0,0,.2.452,1.169,1.169,0,0,0,.312.3.332.332,0,0,0,.151.075l.075.022.065-.011.022-.011.075-.054.011-.054V8.734a.088.088,0,0,1-.022.075l-.065.043-.108-.011a.124.124,0,0,1-.065-.118l.011-.075.054-.065a.164.164,0,0,1,.172-.032.418.418,0,0,1,.162.118l.032.108v.065l-.011.043a.248.248,0,0,1-.183.14.535.535,0,0,1-.258-.011,1.659,1.659,0,0,1-.258-.108,1.01,1.01,0,0,1-.409-.388,1.215,1.215,0,0,1-.172-.571,2.813,2.813,0,0,1,0-.3,2.5,2.5,0,0,1,.054-.3.926.926,0,0,1,.291-.5.513.513,0,0,1,.237-.129l.065-.022.065-.011.118.022.1.065m-.215-.129-.065.011a.471.471,0,0,1-.334-.075.385.385,0,0,1-.1-.388.274.274,0,0,1,.172-.172.175.175,0,0,1,.226.086.173.173,0,0,1,.011.162l-.1.054-.075-.043-.022-.086h-.011a.129.129,0,0,0,0,.118.45.45,0,0,0,.162.118.33.33,0,0,0,.226-.011.536.536,0,0,0,.226-.129l.054-.054.043-.065.065-.129a.892.892,0,0,0,.086-.3,1.066,1.066,0,0,0,.022-.323,1.409,1.409,0,0,0-.1-.3l-.1-.129-.118-.108a.857.857,0,0,0-.269-.118.569.569,0,0,0-.269,0l-.108.054-.054.1a.18.18,0,0,0,.054.172.109.109,0,0,0,.108.022l.022-.011.011-.011-.011.011h-.022l-.1-.022a.143.143,0,0,1-.032-.151l.054-.075.022-.011h.011a.172.172,0,0,1,.162,0,.211.211,0,0,1,.1.14.3.3,0,0,1-.065.237.255.255,0,0,1-.215.075.307.307,0,0,1-.2-.1.379.379,0,0,1-.054-.291.529.529,0,0,1,.517-.42.883.883,0,0,1,.754.474,1.328,1.328,0,0,1,.032,1.077,1.013,1.013,0,0,1-.323.474,1.023,1.023,0,0,1-.4.14" transform="translate(5.488 4.843)" fill="#4e2001"/>
      <path id="Tracciato_29" data-name="Tracciato 29" d="M2.481,1.645a.41.41,0,0,0,.162-.054l.075-.043.054-.054.108-.075.108-.011.065.054.011.054.011.022V1.516l-.022-.054-.011-.043L3,1.4a.178.178,0,0,0-.129,0l-.118.075-.129.086a.6.6,0,0,1-.312.043l-.162-.011L2,1.548l-.129-.086L1.738,1.4l-.065-.011-.054.032-.054.075v.054l.011-.054.054-.065a.119.119,0,0,1,.108-.011l.108.075.129.086.162.054.172.022.172-.011" transform="translate(9.664 5.569)" fill="#4e2001"/>
      <path id="Tracciato_30" data-name="Tracciato 30" d="M1.519,1.9l.054.151a.319.319,0,0,1,.022.172v.1l-.022.086-.075.14L1.465,2.6l-.032.022-.022.022-.086-.118-.043-.043.032.054.075.118.022.043a1.323,1.323,0,0,1,.118.248,2.48,2.48,0,0,1,.065.3V3.4l-.011.151A.809.809,0,0,1,1.5,3.8l-.1.162-.043.054h.011l.043-.043.118-.162a1.208,1.208,0,0,0,.086-.258l.022-.151V3.245a1.47,1.47,0,0,0-.075-.312,1.062,1.062,0,0,0-.129-.248l-.022-.043.022-.011.043-.022.043-.054.086-.14.032-.086.011-.1a.522.522,0,0,0-.032-.194L1.54,1.888,1.5,1.835l-.022-.022-.032-.032L1.433,1.77l.022.032.065.1" transform="translate(6.89 9.331)" fill="#4e2001"/>
      <path id="Tracciato_31" data-name="Tracciato 31" d="M4.789,1.5h.851L6.5,1.493l1.712-.011.022.022.022,4.985.011.624v.151l-.011.075v.086l-.043.151-.022.075-.032.075A1.163,1.163,0,0,1,7.75,8.2a1.4,1.4,0,0,1-.56.258,2.057,2.057,0,0,1-.624.065c-.215-.011-.42-.032-.624-.054a2.342,2.342,0,0,0-.614,0,.862.862,0,0,0-.517.291H4.767A.862.862,0,0,0,4.25,8.47a2.342,2.342,0,0,0-.614,0c-.2.022-.409.043-.624.054H2.861L2.7,8.513l-.151-.022-.162-.032A1.513,1.513,0,0,1,1.817,8.2a1.138,1.138,0,0,1-.4-.474l-.032-.075-.032-.075-.032-.151-.011-.162V7.113l.011-.624L1.343,1.5l.011-.022H1.8l.431.011h.851l.861.011Zm0,0H3.938l-.861.011H2.226L1.8,1.525H1.365L1.386,1.5,1.365,6.489v.624l-.011.151.011.075v.075l.032.151.032.075.022.065a1.108,1.108,0,0,0,.4.463,1.463,1.463,0,0,0,.56.248l.14.032.162.022.151.011h.151c.2-.011.42-.032.624-.054a2.425,2.425,0,0,1,.624,0,.9.9,0,0,1,.549.312H4.767a.9.9,0,0,1,.549-.312,2.425,2.425,0,0,1,.624,0c.2.022.42.043.624.054a2.252,2.252,0,0,0,.6-.065,1.463,1.463,0,0,0,.56-.248,1.19,1.19,0,0,0,.4-.463l.022-.065.032-.075.032-.151V6.489L8.191,1.5l.022.022L6.5,1.514,5.639,1.5Z" transform="translate(7.174 6.518)" fill="#4e2001"/>
      <path id="Tracciato_32" data-name="Tracciato 32" d="M4.336,4.467V1.517H1.365l-.022,2.95Z" transform="translate(7.486 6.86)" fill="#ec192c"/>
      <path id="Tracciato_33" data-name="Tracciato 33" d="M1.65,4.467H4.622L4.6,1.517H1.65Z" transform="translate(10.485 6.86)" fill="#fee921"/>
      <path id="Tracciato_34" data-name="Tracciato 34" d="M1.65,1.82V4.889c.42-.237,1.087-.043,1.68-.054.764-.022,1.3-.334,1.3-1.131,0-.431-.011-1.131-.011-1.884Z" transform="translate(10.485 9.819)" fill="#fee921"/>
      <path id="Tracciato_35" data-name="Tracciato 35" d="M4.346,1.82H1.353c0,.754-.011,1.454-.011,1.884,0,.8.538,1.109,1.3,1.131.6.011,1.281-.183,1.7.065Z" transform="translate(7.476 9.819)" fill="#fee921"/>
      <path id="Tracciato_36" data-name="Tracciato 36" d="M1.826,2l-.011.022H1.751L1.74,2V1.917L1.708,1.83H1.74l.043.054.011.065.022.022L1.826,2" transform="translate(11.049 9.922)" fill="#1d71b8"/>
      <path id="Tracciato_37" data-name="Tracciato 37" d="M3.565,2.545l-.011-.075.011-.075-.022-.065L3.5,2.319l-.129.011-.129-.022-.075.011-.086.043-.075.011H2.995V2.329a.265.265,0,0,1-.129-.011L2.9,2.286l-.022-.022-.054-.043.118-.011.086-.032a.448.448,0,0,1,.237.022l.183.011c.043,0,.086-.011.1-.054L3.533,2.1,3.49,2.06l.075.022a.1.1,0,0,1,.022.118l-.14.043-.14-.011A1.788,1.788,0,0,0,3.07,2.2l-.054.011-.032.011-.075.054h.054V2.3l.043-.011h.043v.043L3.124,2.3l.1-.022L3.3,2.3a.263.263,0,0,0,.129,0l.1-.011.065-.022a.153.153,0,0,0,.065-.172L3.576,2l-.118-.032H3.382a1.745,1.745,0,0,0-.237-.011l-.065.022a2.243,2.243,0,0,1-.269,0L2.629,2l-.054.011-.108.022-.162.011-.032-.011-.022-.022.011-.022.043-.043L2.316,1.9V1.888l-.022-.011L2.2,1.9l-.011.011H2.155L2.09,1.856a.139.139,0,0,0-.129.011l-.1.1-.043.065-.075.043-.032.011-.022.032.032.032.011.054.032.011h.075l.065.032.086.032.075.011.043.065.032.086.043.065-.011.065-.065.065L2.1,2.652l.022.054a.449.449,0,0,1,.086.194v.011H2.23l.065-.043V2.814l.011-.022.011-.022V2.76l-.043-.022-.022-.032L2.241,2.7l.022-.043.043-.032V2.609L2.295,2.6a.178.178,0,0,1-.054-.129V2.459l.011-.011.043.032.022.054.011.054.043.022.043-.022.011-.022-.011-.075-.022-.032V2.437H2.4l.022.011.022.032.022.054.011.065a.351.351,0,0,0,0,.183l.022.043v.043l-.011.075-.022.022-.011.022-.022.022.022.032.054.022h.032l.022-.054H2.6V2.954L2.575,2.9V2.857l.011-.108.032-.065V2.6L2.64,2.48l.011-.022.032-.032.032.065-.032.054.011.054h.022a1.9,1.9,0,0,0,.248,0,.535.535,0,0,0,.226-.1l.022-.011-.022-.043H3.135l.011-.011a.2.2,0,0,1,.151.054l.086.086.065.022.032.054v.086l.011.043v.086l-.043.086-.011.032.032.065.022.011.022-.011.011-.032.043-.032.011-.032a.588.588,0,0,1,.011-.194l.032-.108L3.63,2.62l-.022-.043-.043-.032m-1.723-.4v.011H1.81L1.8,2.146l-.032-.011-.022-.022L1.8,2.1h.022l.022.011Zm.151-.118-.011.011H1.918V2.017l.043-.032V1.974l.011-.011h.011L2,1.974,2.015,2l-.022.032" transform="translate(10.895 10.053)" fill="#ec192c"/>
      <path id="Tracciato_38" data-name="Tracciato 38" d="M1.727,2.138V2.127l.022-.022L1.8,2.052l.054-.065.011-.075L1.9,1.858l.032.011.011.011.011.011-.022.086-.054.118a.171.171,0,0,1-.108.086V2.17l-.022-.022-.022-.011" transform="translate(11.237 10.19)" fill="#1d71b8"/>
      <path id="Tracciato_39" data-name="Tracciato 39" d="M1.727,1.984l.011-.011.022-.043L1.781,1.9,1.8,1.887l.032.043v.043l.011.043.011.011v.022h-.1l-.043-.043V2Z" transform="translate(11.132 10.478)" fill="#1d71b8"/>
      <path id="Tracciato_40" data-name="Tracciato 40" d="M1.73,1.9l.022.011-.032.032L1.73,1.9" transform="translate(11.165 10.63)" fill="#1d71b8"/>
      <path id="Tracciato_41" data-name="Tracciato 41" d="M1.849,1.96l-.011-.011-.022-.011-.054.022-.022.032.011.022.032.043.022.022.032-.032.011-.086" transform="translate(11.373 10.978)" fill="#1d71b8"/>
      <path id="Tracciato_42" data-name="Tracciato 42" d="M1.907,2.007v.011H1.9l-.075.011-.054-.011H1.757V2l.011-.011.022-.022.054-.011.043.032Z" transform="translate(11.527 11.115)" fill="#1d71b8"/>
      <path id="Tracciato_43" data-name="Tracciato 43" d="M1.988,2.026l-.011.011H1.955l-.065.011H1.88l-.032-.032V1.994l.032-.032.043-.011.011.011.054.054Z" transform="translate(12.415 11.096)" fill="#1d71b8"/>
      <path id="Tracciato_44" data-name="Tracciato 44" d="M1.831,2.2l.054-.032.1-.1.043-.086.022-.022.075-.043.054.011.011.011-.032.054-.065.043-.032.032-.022.022L2,2.186l-.022.032H1.949l-.043.043H1.863L1.82,2.218V2.208Z" transform="translate(12.145 10.767)" fill="#ec192c"/>
      <path id="Tracciato_45" data-name="Tracciato 45" d="M1.968,2.035H1.925v.022l-.011.032L1.893,2.1l-.022-.011-.011-.022.011-.032L1.85,2.024l-.022-.011L1.818,2l.032-.011.043-.022.086-.043L2,1.917l.022-.011.043.032.043.032.011.011L2.108,2l-.075.022H2.022l-.011.054-.022.011H1.979l-.011-.022V2.035Z" transform="translate(12.121 10.657)" fill="#ec192c"/>
      <path id="Tracciato_46" data-name="Tracciato 46" d="M1.954,1.977l.011.032v.022l-.032.011L1.825,2.02H1.814V2l.032-.043L1.9,1.944l.032.022.022.011" transform="translate(12.084 11.034)" fill="#1d71b8"/>
      <path id="Tracciato_47" data-name="Tracciato 47" d="M1.772,2.077l-.043-.032.022-.054L1.74,1.947V1.883l.043-.054.011.1.032.032.011.032v.054l-.065.032" transform="translate(11.256 9.906)" fill="#1d71b8"/>
      <path id="Tracciato_48" data-name="Tracciato 48" d="M1.826,2.125,1.8,2.146l-.054-.011L1.74,2.125V2.039l-.032-.086H1.74L1.783,2l.011.075.011.011.022.043" transform="translate(11.049 11.113)" fill="#1d71b8"/>
      <path id="Tracciato_49" data-name="Tracciato 49" d="M3.565,2.667l-.011-.075.011-.075-.022-.065L3.5,2.441l-.129.011L3.242,2.43l-.075.011-.086.043-.075.011H2.995V2.451a.265.265,0,0,1-.129-.011L2.9,2.408l-.022-.022-.054-.043.118-.011L3.027,2.3a.448.448,0,0,1,.237.022l.183.011c.043,0,.086-.011.1-.054l-.011-.054L3.49,2.182l.075.022.022.118-.14.043-.14-.011L3.07,2.322l-.054.011-.032.022L2.909,2.4h.054v.022l.043-.011h.043v.043l.075-.032.1-.022.075.022.129.011.1-.022.065-.022a.153.153,0,0,0,.065-.172l-.075-.1-.118-.032-.075-.011a1.739,1.739,0,0,0-.237,0L3.081,2.1a2.243,2.243,0,0,1-.269,0l-.183.022H2.575l-.108.032-.162.011L2.273,2.15l-.022-.022.011-.022.043-.043.011-.043V2.01L2.295,2l-.1.022-.011.011-.043-.011L2.09,1.978a.139.139,0,0,0-.129.011l-.1.086-.043.065-.075.054L1.714,2.2l-.022.022.032.043.011.054.032.011h.075l.065.032.086.032.075.011.043.075.032.075.043.065-.011.065-.065.075L2.1,2.774l.022.054a.4.4,0,0,1,.086.194v.011H2.23l.065-.043V2.947l.011-.032.011-.022V2.882l-.043-.022-.022-.032-.011-.011.022-.043.043-.032V2.731l-.011-.011a.178.178,0,0,1-.054-.129V2.581l.011-.011.043.032.022.054.011.054.043.022.043-.022.011-.022-.011-.075-.022-.054H2.4l.022.011.022.032.022.054.011.065a.351.351,0,0,0,0,.183l.022.043V2.99l-.011.075-.022.022-.022.032-.011.022.022.022.054.022h.032l.022-.054H2.6V3.076l-.022-.054V2.979l.011-.108.032-.065V2.731L2.64,2.6l.011-.022L2.7,2.559l.011.054-.032.054.011.054.022.011.248-.011a.429.429,0,0,0,.226-.1l.022-.011L3.189,2.57H3.135l.011-.011a.167.167,0,0,1,.151.054l.086.086.065.032.032.043v.086L3.49,2.9V2.99l-.043.086L3.436,3.1l.032.075.022.011.022-.011.011-.032.043-.032.011-.032a.588.588,0,0,1,.011-.194l.032-.108.011-.043L3.609,2.7l-.043-.032m-1.723-.4v.011H1.81L1.8,2.268l-.032-.011-.022-.022L1.8,2.225h.022l.022.022Zm.151-.118-.011.011H1.918V2.139l.043-.032V2.1l.011-.011.011-.011L2,2.085l.011.022-.022.043" transform="translate(10.895 11.244)" fill="#ec192c"/>
      <path id="Tracciato_50" data-name="Tracciato 50" d="M1.727,2.26V2.238l.022-.011L1.8,2.174l.054-.065.011-.075L1.9,1.98l.032.011L1.942,2l.011.011L1.932,2.1l-.054.118A.215.215,0,0,1,1.77,2.3V2.292l-.011-.011L1.727,2.26" transform="translate(11.237 11.382)" fill="#1d71b8"/>
      <path id="Tracciato_51" data-name="Tracciato 51" d="M1.727,2.106,1.738,2.1l.022-.043.022-.032.032-.011.022.032V2.1l.011.043.011.011v.022h-.1l-.043-.043V2.117Z" transform="translate(11.132 11.667)" fill="#1d71b8"/>
      <path id="Tracciato_52" data-name="Tracciato 52" d="M1.73,2.025l.022.011-.032.032.011-.043" transform="translate(11.165 11.82)" fill="#1d71b8"/>
      <path id="Tracciato_53" data-name="Tracciato 53" d="M1.849,2.082l-.011-.011L1.816,2.06l-.054.022-.022.032.011.043.022.022.032.022.032-.032.011-.086" transform="translate(11.373 12.167)" fill="#1d71b8"/>
      <path id="Tracciato_54" data-name="Tracciato 54" d="M1.907,2.129v.011H1.9l-.075.011-.054-.011H1.757V2.118l.011-.011.022-.032h.054l.043.022Z" transform="translate(11.527 12.307)" fill="#1d71b8"/>
      <path id="Tracciato_55" data-name="Tracciato 55" d="M1.988,2.148v.011l-.032.011H1.88l-.032-.022L1.858,2.1l.022-.022.043-.011.011.011.054.054Z" transform="translate(12.415 12.285)" fill="#1d71b8"/>
      <path id="Tracciato_56" data-name="Tracciato 56" d="M1.831,2.319l.054-.032.1-.1L2.025,2.1l.022-.022.075-.043.054.011.011.022-.032.043-.065.043-.032.032-.022.043L2,2.308l-.022.032H1.949l-.043.043H1.863L1.82,2.34V2.33Z" transform="translate(12.145 11.958)" fill="#ec192c"/>
      <path id="Tracciato_57" data-name="Tracciato 57" d="M1.968,2.157H1.925v.022l-.011.032L1.9,2.221l-.032-.011-.011-.032.011-.022L1.85,2.135H1.828l-.011-.011.032-.011L1.893,2.1l.086-.054.011-.011.032-.011.043.032.043.032.011.011-.011.022-.075.022H2.022L2.011,2.2l-.022.011H1.979l-.011-.022V2.157Z" transform="translate(12.121 11.847)" fill="#ec192c"/>
      <path id="Tracciato_58" data-name="Tracciato 58" d="M1.954,2.1l.011.043v.011l-.032.011-.108-.022H1.814V2.12l.032-.043L1.9,2.066l.032.022.022.011" transform="translate(12.084 12.224)" fill="#1d71b8"/>
      <path id="Tracciato_59" data-name="Tracciato 59" d="M1.772,2.2l-.043-.032.022-.054L1.74,2.08V2l.043-.054.011.1.032.032.011.032v.054L1.772,2.2" transform="translate(11.256 11.096)" fill="#1d71b8"/>
      <path id="Tracciato_60" data-name="Tracciato 60" d="M3.972,1.711a.311.311,0,0,0-.312-.183.374.374,0,0,0-.215.108l-.032.054H3.326l-.032.032-.032.043h.011l.1.011-.022.118H3.272L3.261,1.9v.032l.022.011h.065l.011.011V2c-.086.1-1.992,2.164-1.992,2.164l.1.1,1.68-1.82.312-.355V2.1a.165.165,0,0,0,.032-.151V1.926a.265.265,0,0,1,.065-.194.146.146,0,0,1,.118-.065.159.159,0,0,1,.172.1.167.167,0,0,1,.011.172l-.086.043-.054-.022-.1.1a.15.15,0,0,0,.151.054.23.23,0,0,0,.194-.1.3.3,0,0,0,.011-.3" transform="translate(7.711 6.957)" fill="#ffed00"/>
      <path id="Tracciato_61" data-name="Tracciato 61" d="M1.493,1.565l.581.732-.334.948-.1-.011L1.59,3.223l-.1-.011Z" transform="translate(8.95 7.332)" fill="#ffed00"/>
      <path id="Tracciato_62" data-name="Tracciato 62" d="M2.023,1.565V3.223l-.086.011-.075.011-.086.011L1.42,2.3Z" transform="translate(8.239 7.326)" fill="#ffed00"/>
      <path id="Tracciato_63" data-name="Tracciato 63" d="M4.131,3.552A.221.221,0,0,0,4,3.445l-.032-.011-.054-.011H3.851v.011H3.84a.388.388,0,0,0-.248.172l-.054.108-.022.065-.011.054a.512.512,0,0,1-.054.194l-.011.022-.075.065H3.28c-.043-.011-.075-.054-.108-.086l-.022-.032V3.983L3.14,3.961l-.032-.054-.043-.118.086.011.086.022.409-1.2-.872-1.1-.9,1.1.452,1.2L2.408,3.8l.054-.011-.022.075-.032.065L2.4,3.951l-.011.011-.022.022a.162.162,0,0,1-.108.1H2.171l-.054-.043-.011-.022A.424.424,0,0,1,2.042,3.8L2.02,3.735,2,3.681l-.054-.108a.458.458,0,0,0-.237-.183H1.633L1.579,3.4l-.043.011a.317.317,0,0,0-.129.108.321.321,0,0,0-.043.258l.022.054v.011l.011.011.011.022.043.054.022.011.011.011h.011l.086.022.054.011.086-.011h.032V3.951L1.73,3.94,1.665,3.9l-.054-.032-.032-.032V3.821H1.568V3.746L1.6,3.66l.022-.022.022-.011h.032a.168.168,0,0,1,.108.065l.075.075.032.043.032.043.118.194.1.1.118.054a.28.28,0,0,0,.258-.075l.043-.043.011-.032.011-.011.043-.108.011-.162a1.217,1.217,0,0,1,.28,0,.618.618,0,0,0,.011.194l.032.1.011.011.022.043.043.043a.268.268,0,0,0,.248.075l.129-.054L3.5,4.091l.032-.054.086-.151.032-.043L3.689,3.8l.065-.075a.187.187,0,0,1,.118-.065H3.9v.011l.032.022.043.086v.054l-.011.022v.011H3.958l-.022.022-.054.043-.065.043-.032.011L3.8,4h.032l.075.011L3.969,4l.075-.022h.022V3.972L4.1,3.961l.032-.043L4.141,3.9l.011-.011.011-.011V3.864l.022-.054a.379.379,0,0,0-.054-.258m-1.454.032H2.6L2.516,3.6l-.075.022-.366-.958.6-.732Zm.334.011-.054-.011h-.1V1.926l.581.732-.323.958L3.011,3.6" transform="translate(7.584 6.967)" fill="#fff"/>
      <path id="Tracciato_64" data-name="Tracciato 64" d="M1.713,4.749,1.379,4.6V1.82h.334Z" transform="translate(7.84 9.82)" fill="#ec1925"/>
      <rect id="Rettangolo_5" data-name="Rettangolo 5" width="2.993" height="0.334" transform="translate(9.774 14.624) rotate(-86.309)" fill="#ec1925"/>
      <rect id="Rettangolo_6" data-name="Rettangolo 6" width="0.334" height="2.983" transform="translate(10.441 11.66) rotate(-3.691)" fill="#ec1925"/>
      <rect id="Rettangolo_7" data-name="Rettangolo 7" width="2.961" height="0.334" transform="translate(11.087 14.593) rotate(-86.309)" fill="#ec1925"/>
      <rect id="Rettangolo_8" data-name="Rettangolo 8" width="0.441" height="2.95" transform="translate(12.544 8.377)" fill="#ec1925"/>
      <rect id="Rettangolo_9" data-name="Rettangolo 9" width="0.441" height="2.95" transform="translate(13.394 8.366)" fill="#ec1925"/>
      <rect id="Rettangolo_10" data-name="Rettangolo 10" width="0.441" height="2.95" transform="translate(14.256 8.366)" fill="#ec1925"/>
      <path id="Tracciato_65" data-name="Tracciato 65" d="M4.356,4.487,4.334,3.012V1.537l.022.022H1.384l.022-.022-.022,2.95-.022-.022h1.5Zm0,0-1.5.022h-1.5l-.022-.022.022-2.95.022-.022H4.356l.022.022V3.012Z" transform="translate(7.467 6.84)" fill="#4e2001"/>
      <path id="Tracciato_66" data-name="Tracciato 66" d="M1.67,4.487l1.486-.022H4.641l-.022.022L4.6,1.537l.022.022H1.67l.022-.022V3.012Zm0,0L1.648,3.012V1.537l.022-.022H4.62l.022.011.022,2.961-.011.022h-1.5Z" transform="translate(10.465 6.84)" fill="#4e2001"/>
      <path id="Tracciato_67" data-name="Tracciato 67" d="M1.67,1.84,1.68,2.6l.011.388V4.908l-.032-.022a.916.916,0,0,1,.334-.1,1.311,1.311,0,0,1,.355-.011c.226,0,.463.032.689.043.108.011.226.011.345.011l.172-.011.172-.032a1.231,1.231,0,0,0,.323-.1.7.7,0,0,0,.28-.183.85.85,0,0,0,.2-.269l.022-.075.022-.043.011-.043L4.609,4l.011-.086c.011-.118.011-.237.011-.345V3.228L4.62,1.84l.022.022H3.155Zm0,0,1.486-.022H4.641l.022.022.011,1.389v.345a1.911,1.911,0,0,1-.022.345L4.641,4,4.62,4.09v.032L4.6,4.176l-.032.086a.755.755,0,0,1-.2.28.98.98,0,0,1-.291.194,1.81,1.81,0,0,1-.345.1l-.172.022-.172.011a1.841,1.841,0,0,1-.345,0c-.237-.022-.463-.043-.689-.054-.118,0-.237,0-.345.011a1.038,1.038,0,0,0-.323.108l-.032-.011V3.379c0-.129,0-.258.011-.388V2.6Z" transform="translate(10.465 9.8)" fill="#4e2001"/>
      <path id="Tracciato_68" data-name="Tracciato 68" d="M4.366,1.84l-.754.011H3.246l-.377.011h-1.5l.022-.022L1.383,3.228v.528l.011.172a1.231,1.231,0,0,0,.1.323.822.822,0,0,0,.194.269l.065.054.075.054.151.075.162.054.086.022.086.022.086.011.086.011.172.011c.108,0,.226,0,.345-.011.226-.011.463-.043.689-.054.118,0,.237.011.355.022a.954.954,0,0,1,.334.118l-.032.011V2.992l.011-.377Zm0,0,.011.775v.377c.011.129.011.258.011.388v1.54l-.022.022H4.355a.819.819,0,0,0-.323-.108,1.8,1.8,0,0,0-.345-.022c-.226.011-.452.032-.689.054l-.345.011-.183-.011-.086-.011L2.3,4.833l-.086-.011L2.126,4.8l-.162-.054L1.8,4.661l-.075-.054-.065-.054a.926.926,0,0,1-.215-.28,1.245,1.245,0,0,1-.086-.345l-.011-.172L1.34,3.573l.011-.345V1.84l.011-.022H3.246l.366.011Z" transform="translate(7.457 9.8)" fill="#4e2001"/>
      <path id="Tracciato_69" data-name="Tracciato 69" d="M1.49,2.17l-.011.011H1.436V2.2l-.011.032-.011.032v.162c-.011.086.032.1.086.032l.108-.129.011-.011L1.629,2.3V2.288l.011-.011V2.256l-.011-.022-.022-.022.086.022.065.032-.011.011H1.737L1.7,2.288l-.032.043L1.522,2.5c-.075.1-.151.172-.162.162a.888.888,0,0,1-.011-.226V2.148l-.011-.022-.011-.011.086.011.075.043" transform="translate(7.34 12.71)" fill="#4e2001"/>
      <path id="Tracciato_70" data-name="Tracciato 70" d="M1.484,2.587v.022l.011.011V2.63l.022.011L1.43,2.63l-.075-.022.011-.022h.022l.022-.022.022-.032.1-.312.011-.032V2.167l-.011-.022-.011-.011H1.506a.2.2,0,0,1,.086,0l.075.032-.022.011H1.635l-.011.011L1.613,2.2l-.022.043-.1.312-.011.032" transform="translate(7.603 12.843)" fill="#4e2001"/>
      <path id="Tracciato_71" data-name="Tracciato 71" d="M1.523,2.5,1.5,2.555V2.63h.011l.011.022-.075-.011-.075-.032L1.383,2.6l.032-.011.011-.011.011-.043.1-.312L1.544,2.2V2.167l-.011-.011-.011-.011-.011-.011.1.011.086.032a.2.2,0,0,1,.118.065.1.1,0,0,1,.011.108L1.8,2.393l-.075.054-.054.011L1.7,2.48l.011.011.022.075.011.065.011.043.011.032.011.011.022.011H1.727l-.054-.043V2.663l-.011-.054-.022-.065V2.5L1.63,2.469l-.022-.011-.022-.011-.022-.011L1.523,2.5m.065-.2a.159.159,0,0,0-.011.118H1.6l.032.011h.054l.043-.032.022-.054.011-.054-.032-.054L1.673,2.2H1.652l-.065.1" transform="translate(7.769 12.896)" fill="#4e2001"/>
      <path id="Tracciato_72" data-name="Tracciato 72" d="M1.631,2.161c.108.022.194.075.183.108l-.032.065L1.761,2.3V2.247l-.022-.022-.032-.011L1.685,2.2l-.075.183-.043.194v.054l.011.011.011.011.011.022-.086-.011-.086-.022.022-.022H1.47l.011-.011L1.491,2.6,1.5,2.57l.043-.194.032-.194-.032-.011H1.5L1.459,2.2v.022l-.043.022V2.182c.011-.043.108-.043.215-.022" transform="translate(8.199 13.01)" fill="#4e2001"/>
      <path id="Tracciato_73" data-name="Tracciato 73" d="M1.8,2.584l-.011.022-.032.054-.043.032L1.668,2.7H1.6L1.518,2.67l-.043-.032-.022-.065.011-.086.043-.237V2.185L1.5,2.175l-.022-.022h.086l.075.022L1.615,2.2H1.6l-.022.022-.011.043-.043.258v.1l.022.032.065.022h.043L1.7,2.648l.022-.043.022-.075.022-.118.022-.118L1.8,2.25l-.011-.022H1.776l-.022-.022h.086l.065.022-.022.011-.011.011-.011.011-.011.054-.022.118L1.8,2.584" transform="translate(8.56 13.072)" fill="#4e2001"/>
      <path id="Tracciato_74" data-name="Tracciato 74" d="M1.532,2.582l.011.032.032.022.054.022.065-.022.032-.065V2.539l-.032-.054-.065-.043-.065-.054-.032-.043-.011-.054.032-.075.054-.043.1-.011.054.011H1.78l.043.065L1.8,2.291l-.032-.032V2.248l-.032-.032-.054-.022-.043.011-.032.022-.022.043V2.3l.043.054.054.032.065.054L1.79,2.5l.011.032-.011.065-.011.032-.043.043-.054.022H1.651l-.108-.011L1.489,2.6,1.5,2.55l.032.032" transform="translate(8.912 13.16)" fill="#4e2001"/>
      <path id="Tracciato_75" data-name="Tracciato 75" d="M1.7,2.184l-.011.011-.022.011-.011.011v.011l-.011.011v.022l.011.032.032.162c.011.086.065.1.1.011l.075-.151V2.281l.011-.011V2.259l-.011-.032-.011-.011-.022-.022h.086l.075.011-.022.022-.022.022L1.919,2.3l-.1.2L1.7,2.7c-.022,0-.054-.1-.075-.215L1.585,2.27l-.011-.054-.011-.022-.011-.011-.022-.011c0-.011.043-.011.086,0l.086.011" transform="translate(9.322 13.191)" fill="#4e2001"/>
      <path id="Tracciato_76" data-name="Tracciato 76" d="M1.907,2.524l.011.011.011.032V2.352l.011-.086V2.255l-.011-.032V2.212L1.918,2.2l-.011-.011H1.9l.065-.011h.065L2.014,2.2H2l-.011.011-.011.022v.248L1.95,2.7a.715.715,0,0,1-.129-.183l-.1-.183L1.7,2.3l-.011-.022-.011-.022v.108l-.011.151v.108l.011.022.011.011.011.011.011.011-.075.011-.065-.011.022-.022h.011l.011-.011V2.589l.011-.334V2.2l-.011-.011L1.595,2.18H1.584l.065-.011c.032,0,.1.065.151.162l.086.151.022.043" transform="translate(9.733 13.228)" fill="#4e2001"/>
      <path id="Tracciato_77" data-name="Tracciato 77" d="M1.735,2.633v.022l.022.011h.011l.011.011L1.7,2.687H1.617l.011-.022h.022l.011-.022V2.213L1.649,2.2H1.628l-.011-.011L1.7,2.17l.075.011-.011.011L1.757,2.2l-.011.011-.011.022v.4" transform="translate(10.162 13.238)" fill="#4e2001"/>
      <path id="Tracciato_78" data-name="Tracciato 78" d="M1.839,2.17c.118,0,.2.022.2.065L2.032,2.3,2,2.267V2.256l-.022-.032L1.957,2.2H1.9L1.882,2.4V2.59l.011.032.011.022v.011l.022.011h.011l-.075.022h-.1l.011-.022H1.8l.011-.022.011-.022V2.59L1.806,2.4A.474.474,0,0,0,1.785,2.2H1.752l-.022.011-.022.011-.022.032-.011.022-.022.032-.022-.065c0-.043.1-.065.2-.075" transform="translate(10.328 13.238)" fill="#4e2001"/>
      <path id="Tracciato_79" data-name="Tracciato 79" d="M1.966,2.674h.011l.011-.011L2,2.653l.011-.022V2.6L2,2.566l-.011-.022-.1-.022h-.1v.043L1.783,2.6v.032l.011.043h.032l-.075.032H1.665l.022-.032H1.7L1.73,2.6l.065-.215.1-.215c.022,0,.065.1.108.215l.075.194.011.043.022.032.022.011.011.011H2.053a.1.1,0,0,1-.086,0M1.891,2.48c.043,0,.065-.054.032-.118s-.054-.065-.075.011c-.022.054,0,.108.043.108" transform="translate(10.631 13.218)" fill="#4e2001"/>
      <path id="Tracciato_80" data-name="Tracciato 80" d="M2.064,2.21l-.011.054L2.02,2.253,2.01,2.231,1.988,2.21,1.977,2.2H1.891c-.032,0-.054.054-.054.108l.054.1h.054l.022-.022.011-.022.011-.022.032.075V2.49H1.988l-.022-.043-.022-.011H1.891l-.032.086L1.87,2.6v.022l.011.022.011.011.011.011.022.011-.075.022H1.762V2.673l.022-.011.011-.011V2.6l-.032-.323V2.242L1.751,2.22V2.21L1.73,2.2H1.719l.172-.032c.086-.011.172.011.172.043" transform="translate(11.159 13.177)" fill="#4e2001"/>
      <path id="Tracciato_81" data-name="Tracciato 81" d="M1.9,2.686l-.075-.043-.043-.075-.032-.118.011-.14.065-.1.108-.054.118.022.075.075.032.075.011.14-.011.075L2.1,2.653l-.108.032H1.9m-.054-.162a.23.23,0,0,0,.086.129h.054l.065-.032.032-.075L2.1,2.427l-.032-.14L2.01,2.212,1.935,2.2l-.054.022-.032.043-.022.075v.1l.022.086" transform="translate(11.481 13.121)" fill="#4e2001"/>
      <path id="Tracciato_82" data-name="Tracciato 82" d="M1.958,2.524l.022.065v.043l.011.011.022.011h.011l.011.011L1.958,2.7H1.872l.011-.011L1.9,2.675l.011-.032L1.9,2.621l-.032-.183-.022-.162L1.84,2.255l-.011-.032H1.818L1.8,2.212,1.786,2.2l.086-.022.1-.022a.2.2,0,0,1,.14.011.085.085,0,0,1,.054.086l-.011.1L2.12,2.4l-.043.032.032.011.011.011.054.043.043.054.032.043.022.011.022.011H2.3l-.043.022-.075-.011-.011-.011-.032-.043-.054-.054-.022-.032L2.044,2.46l-.022-.011H1.991l-.022.011-.011.065m-.032-.2.043.108.022-.011h.032l.032-.011.032-.043L2.1,2.341V2.288l-.032-.065L2.023,2.2H1.937c-.022,0-.022.054-.011.118" transform="translate(11.813 13.056)" fill="#4e2001"/>
      <path id="Tracciato_83" data-name="Tracciato 83" d="M2.006,2.162c.108-.032.2-.022.215.011l.011.065-.043-.011L2.178,2.2l-.022-.022-.022-.011H2.092l-.022.011.022.194.054.183v.032l.022.022.011.011h.011l.022.011-.075.032-.086.011V2.668l.011-.011.011-.011.011-.011V2.614L2.07,2.582l-.043-.194L1.952,2.2l-.022.011-.022.011-.022.011-.011.043V2.3l-.011.032L1.823,2.28c-.011-.043.075-.086.183-.118" transform="translate(12.164 12.966)" fill="#4e2001"/>
      <path id="Tracciato_84" data-name="Tracciato 84" d="M2.1,2.587l.011.011.011.011h.011l.022.011-.075.032L2,2.673l.011-.032h.011V2.609L2.01,2.576l-.086-.323-.011-.022L1.9,2.21,1.891,2.2H1.881l-.022-.011.075-.032.075-.022v.022L2,2.167l-.011.011V2.2L2,2.232l.086.323.011.032" transform="translate(12.526 12.896)" fill="#4e2001"/>
      <path id="Tracciato_85" data-name="Tracciato 85" d="M2.175,2.651l-.086.011L2.013,2.63l-.065-.065-.054-.108a.321.321,0,0,1-.011-.14l.043-.108.1-.065a.156.156,0,0,1,.118-.011l.086.065.065.129a.258.258,0,0,1,.022.151l-.043.108-.1.065m-.118-.065.054.032.1-.022.022-.032.022-.086-.022-.118-.054-.118L2.1,2.177H2.035l-.054.032-.022.054-.011.075.022.086a.374.374,0,0,0,.086.162" transform="translate(12.727 12.821)" fill="#4e2001"/>
      <path id="Tracciato_86" data-name="Tracciato 86" d="M2.138,2.492l.011.065.022.032.011.022H2.2l.022.011-.075.032-.075.032V2.664L2.1,2.653V2.621l-.011-.043-.108-.3-.011-.032-.011-.022-.011-.011H1.912l.075-.043.162-.054.065.011a.091.091,0,0,1,.075.075v.086l-.022.054-.032.032.022.011.022.011.054.032.054.054.011.011.032.022.022.011h.032l-.043.032H2.364l-.011-.011L2.31,2.5,2.257,2.46l-.043-.032-.022-.011H2.149l-.022.011.011.065M2.063,2.3l.043.1.032-.011.043-.011.032-.032.022-.054V2.266l-.022-.054L2.2,2.19l-.054-.032-.075.011-.011.011c-.022.011-.022.065,0,.118" transform="translate(13.044 12.701)" fill="#4e2001"/>
    </g>
  </g>
</svg>
