<svg xmlns="http://www.w3.org/2000/svg" xmlns:xlink="http://www.w3.org/1999/xlink" width="24" height="24" viewBox="0 0 24 24">
  <defs>
    <clipPath id="clip-path">
      <path id="Tracciato_100" data-name="Tracciato 100" d="M1.577,12.749a12,12,0,1,0,12-12,12,12,0,0,0-12,12" transform="translate(-1.577 -0.749)" fill="none"/>
    </clipPath>
  </defs>
  <g id="Anguilla" transform="translate(-1.577 -0.749)">
    <g id="Raggruppa_3" data-name="Raggruppa 3" transform="translate(1.577 0.749)" clip-path="url(#clip-path)">
      <rect id="Rettangolo_11" data-name="Rettangolo 11" width="48" height="24" transform="translate(-16.972 0)" fill="#000093"/>
      <path id="Tracciato_88" data-name="Tracciato 88" d="M24.385,2.138V.75H21.694L14.344,4.43V.75H10.415V4.387L3.086.75H.385V2.03L5.863,4.775H.385V8.7H5.82L.385,11.426v1.281h2.7l7.329-3.638v3.659h3.928v-3.7l7.351,3.681h2.691V11.318L19.111,8.7h5.274V4.775H19.068Z" transform="translate(-13.215 -0.744)" fill="#fff"/>
      <path id="Tracciato_89" data-name="Tracciato 89" d="M24.385,5.571H13.558V.749H11.212V5.571H.385V7.917H11.212v4.811h2.346V7.917H24.385Z" transform="translate(-13.215 -0.749)" fill="#fa0000"/>
      <path id="Tracciato_90" data-name="Tracciato 90" d="M3.618,1.5H1.885L9.731,5.424h.011V4.616Z" transform="translate(1.432 6.538)" fill="#fa0000"/>
      <path id="Tracciato_91" data-name="Tracciato 91" d="M1.739,4.678H3.472l7.7-3.928H9.6Z" transform="translate(0.004 -0.745)" fill="#fa0000"/>
      <path id="Tracciato_92" data-name="Tracciato 92" d="M7.967,14.342a6.779,6.779,0,0,0,3.509-2.2,6.88,6.88,0,0,0,1.593-3.853c-.022-2.282-.032-4.563-.054-6.856a4.576,4.576,0,0,1-2.174.7,4.609,4.609,0,0,1-2.874-.883A4.569,4.569,0,0,1,5.1,2.138a4.583,4.583,0,0,1-2.185-.7Q2.9,4.877,2.866,8.294a6.964,6.964,0,0,0,1.593,3.853,6.779,6.779,0,0,0,3.509,2.2" transform="translate(11.007 4.191)" fill="#fff"/>
      <path id="Tracciato_93" data-name="Tracciato 93" d="M7.518,6.112a6.779,6.779,0,0,0,3.509-2.2,6.62,6.62,0,0,0,1.087-1.8L2.912,2.1a6.935,6.935,0,0,0,1.1,1.819,6.779,6.779,0,0,0,3.509,2.2" transform="translate(11.456 12.42)" fill="#0074c6"/>
      <path id="Tracciato_94" data-name="Tracciato 94" d="M4.665,5.757A2.024,2.024,0,0,1,3.5,5.068,2.308,2.308,0,0,1,3.352,2.84,2.667,2.667,0,0,1,5.246,1.4l-.011.226a2.159,2.159,0,0,1,.7.108c.527.183.6.463,1.141.635.366.118.43.032.786.151a2.217,2.217,0,0,1,.9.57,3.288,3.288,0,0,0-.441-.129c-.344-.086-.517-.118-.646-.032a.543.543,0,0,0-.172.441.964.964,0,0,1-.452-.4c-.1-.172-.065-.258-.118-.377C6.753,2.248,6,2.141,5.418,2.356a1.6,1.6,0,0,0-.915.861A1.594,1.594,0,0,0,4.7,4.7l.065.161a.434.434,0,0,1,.011.161.187.187,0,0,0-.129-.1A.216.216,0,0,0,4.46,5a.948.948,0,0,1,.172.334,1.007,1.007,0,0,1,.032.42" transform="translate(13.556 5.587)" fill="#ff741f"/>
      <path id="Tracciato_95" data-name="Tracciato 95" d="M3.421,1.82A.118.118,0,1,1,3.3,1.7a.119.119,0,0,1,.118.118" transform="translate(14.111 8.555)" fill="#fff"/>
      <path id="Tracciato_96" data-name="Tracciato 96" d="M7.264,4.259A2.11,2.11,0,0,1,7.07,5.593a2.334,2.334,0,0,1-2,1A2.686,2.686,0,0,1,3.013,5.389l.215-.075a2.117,2.117,0,0,1-.172-.689c-.032-.56.194-.732.151-1.3-.022-.377-.129-.4-.161-.786a2.162,2.162,0,0,1,.183-1.044,2.709,2.709,0,0,0,.043.452c.054.344.086.527.226.613a.555.555,0,0,0,.474-.011,1.031,1.031,0,0,1-.194.57c-.129.151-.215.151-.3.248-.258.3-.054,1.044.355,1.5a1.631,1.631,0,0,0,1.152.517,1.662,1.662,0,0,0,1.3-.743A.413.413,0,0,1,6.4,4.506a.384.384,0,0,1,.14-.065.182.182,0,0,0-.032.151.189.189,0,0,0,.129.14.916.916,0,0,1,.248-.28.958.958,0,0,1,.377-.194" transform="translate(12.442 6.514)" fill="#ff741f"/>
      <path id="Tracciato_97" data-name="Tracciato 97" d="M3.415,1.851a.127.127,0,0,1,.161.065.133.133,0,0,1-.075.161A.12.12,0,0,1,3.35,2a.115.115,0,0,1,.065-.151" transform="translate(15.656 9.933)" fill="#fff"/>
      <path id="Tracciato_98" data-name="Tracciato 98" d="M4.212,1.965a2.012,2.012,0,0,1,1.3-.366A2.294,2.294,0,0,1,7.236,3.02a2.688,2.688,0,0,1-.258,2.368l-.161-.172a2.011,2.011,0,0,1-.56.441c-.484.258-.743.118-1.248.387-.334.183-.312.291-.646.474a2.131,2.131,0,0,1-1.033.258,2.823,2.823,0,0,0,.4-.226c.291-.194.441-.291.463-.452A.529.529,0,0,0,4,5.667a1.064,1.064,0,0,1,.6-.054c.183.054.226.14.344.172.387.108.979-.366,1.216-.936a1.56,1.56,0,0,0,0-1.259,1.64,1.64,0,0,0-1.205-.883.545.545,0,0,1-.161-.065.284.284,0,0,1-.118-.1.185.185,0,0,0,.151-.032A.177.177,0,0,0,4.9,2.342a1.09,1.09,0,0,1-.366-.108.958.958,0,0,1-.323-.269" transform="translate(15.527 7.484)" fill="#ff741f"/>
      <path id="Tracciato_99" data-name="Tracciato 99" d="M3.553,1.827a.118.118,0,0,1,.161-.172.12.12,0,0,1,.011.172.131.131,0,0,1-.172,0" transform="translate(17.358 7.794)" fill="#fff"/>
    </g>
  </g>
</svg>
