<svg xmlns="http://www.w3.org/2000/svg" xmlns:xlink="http://www.w3.org/1999/xlink" width="24" height="24" viewBox="0 0 24 24">
  <defs>
    <clipPath id="clip-path">
      <path id="Tracciato_9960" data-name="Tracciato 9960" d="M338.515,16.67a12,12,0,1,0,12-12,12,12,0,0,0-12,12" transform="translate(-338.515 -4.67)" fill="none"/>
    </clipPath>
  </defs>
  <g id="Antille_olandesi" data-name="Antille olandesi" transform="translate(-338.515 -4.67)">
    <g id="Raggruppa_281" data-name="Raggruppa 281" transform="translate(338.515 4.67)" clip-path="url(#clip-path)">
      <rect id="Rettangolo_880" data-name="Rettangolo 880" width="41.576" height="24.253" transform="translate(-8.782 -0.121)" fill="#fff"/>
      <rect id="Rettangolo_881" data-name="Rettangolo 881" width="8.084" height="24.253" transform="translate(7.964 -0.121)" fill="#c8202d"/>
      <rect id="Rettangolo_882" data-name="Rettangolo 882" width="41.576" height="8.084" transform="translate(-8.782 7.964)" fill="#342e89"/>
      <path id="Tracciato_9910" data-name="Tracciato 9910" d="M789.6,328.347l-.311.961.48.157Z" transform="translate(-777.598 -319.95)" fill="#fff"/>
      <path id="Tracciato_9911" data-name="Tracciato 9911" d="M794.986,328.347l.313.961-.481.157Z" transform="translate(-782.981 -319.95)" fill="#fff"/>
      <path id="Tracciato_9912" data-name="Tracciato 9912" d="M800.45,355.283h-1.01v.5Z" transform="translate(-787.482 -346.187)" fill="#fff"/>
      <path id="Tracciato_9913" data-name="Tracciato 9913" d="M796.516,355.283l-.817.594-.3-.409Z" transform="translate(-783.548 -346.187)" fill="#fff"/>
      <path id="Tracciato_9914" data-name="Tracciato 9914" d="M764.273,355.283l.817.594.3-.409Z" transform="translate(-753.228 -346.187)" fill="#fff"/>
      <path id="Tracciato_9915" data-name="Tracciato 9915" d="M764.273,355.283h1.01v.5Z" transform="translate(-753.228 -346.187)" fill="#fff"/>
      <path id="Tracciato_9916" data-name="Tracciato 9916" d="M794.442,362.724l-.311-.961-.481.157Z" transform="translate(-781.842 -352.5)" fill="#fff"/>
      <path id="Tracciato_9917" data-name="Tracciato 9917" d="M793.509,361.172l-.817-.593.3-.409Z" transform="translate(-780.91 -350.947)" fill="#fff"/>
      <path id="Tracciato_9918" data-name="Tracciato 9918" d="M778.4,361.172l.819-.593-.3-.409Z" transform="translate(-766.99 -350.947)" fill="#fff"/>
      <path id="Tracciato_9919" data-name="Tracciato 9919" d="M778.4,362.724l.313-.961.48.157Z" transform="translate(-766.99 -352.5)" fill="#fff"/>
      <path id="Tracciato_9920" data-name="Tracciato 9920" d="M997.316,414.407l-.313.961.481.157Z" transform="translate(-979.92 -403.778)" fill="#fff"/>
      <path id="Tracciato_9921" data-name="Tracciato 9921" d="M1002.747,414.407l.313.961-.481.157Z" transform="translate(-985.351 -403.778)" fill="#fff"/>
      <path id="Tracciato_9922" data-name="Tracciato 9922" d="M1008.161,441.339h-1.012v.5Z" transform="translate(-989.803 -430.011)" fill="#fff"/>
      <path id="Tracciato_9923" data-name="Tracciato 9923" d="M1004.279,441.339l-.819.594-.3-.409Z" transform="translate(-985.922 -430.011)" fill="#fff"/>
      <path id="Tracciato_9924" data-name="Tracciato 9924" d="M972.035,441.339l.817.594.3-.409Z" transform="translate(-955.6 -430.011)" fill="#fff"/>
      <path id="Tracciato_9925" data-name="Tracciato 9925" d="M972.035,441.339h1.01v.5Z" transform="translate(-955.6 -430.011)" fill="#fff"/>
      <path id="Tracciato_9926" data-name="Tracciato 9926" d="M1002.2,448.784l-.311-.962-.481.156Z" transform="translate(-984.215 -436.326)" fill="#fff"/>
      <path id="Tracciato_9927" data-name="Tracciato 9927" d="M1001.272,447.231l-.817-.594.3-.409Z" transform="translate(-983.283 -434.773)" fill="#fff"/>
      <path id="Tracciato_9928" data-name="Tracciato 9928" d="M986.164,447.231l.817-.594-.3-.409Z" transform="translate(-969.363 -434.773)" fill="#fff"/>
      <path id="Tracciato_9929" data-name="Tracciato 9929" d="M986.164,448.784l.313-.962.48.156Z" transform="translate(-969.363 -436.326)" fill="#fff"/>
      <path id="Tracciato_9930" data-name="Tracciato 9930" d="M875.61,536.111l-.313.96.482.157Z" transform="translate(-861.372 -522.324)" fill="#fff"/>
      <path id="Tracciato_9931" data-name="Tracciato 9931" d="M881.044,536.111l.313.96-.481.157Z" transform="translate(-866.806 -522.324)" fill="#fff"/>
      <path id="Tracciato_9932" data-name="Tracciato 9932" d="M886.507,563.043H885.5v.5Z" transform="translate(-871.307 -548.557)" fill="#fff"/>
      <path id="Tracciato_9933" data-name="Tracciato 9933" d="M882.575,563.043l-.819.593-.3-.408Z" transform="translate(-867.375 -548.557)" fill="#fff"/>
      <path id="Tracciato_9934" data-name="Tracciato 9934" d="M850.331,563.043l.817.593.3-.408Z" transform="translate(-837.054 -548.557)" fill="#fff"/>
      <path id="Tracciato_9935" data-name="Tracciato 9935" d="M850.331,563.043h1.01v.5Z" transform="translate(-837.054 -548.557)" fill="#fff"/>
      <path id="Tracciato_9936" data-name="Tracciato 9936" d="M880.5,570.485l-.311-.961-.481.157Z" transform="translate(-865.669 -554.871)" fill="#fff"/>
      <path id="Tracciato_9937" data-name="Tracciato 9937" d="M879.569,568.932l-.817-.593.3-.409Z" transform="translate(-864.737 -553.318)" fill="#fff"/>
      <path id="Tracciato_9938" data-name="Tracciato 9938" d="M864.461,568.932l.817-.593-.3-.409Z" transform="translate(-850.817 -553.318)" fill="#fff"/>
      <path id="Tracciato_9939" data-name="Tracciato 9939" d="M864.461,570.485l.313-.961.48.157Z" transform="translate(-850.817 -554.871)" fill="#fff"/>
      <path id="Tracciato_9940" data-name="Tracciato 9940" d="M587.226,414.407l.311.961-.481.157Z" transform="translate(-580.609 -403.778)" fill="#fff"/>
      <path id="Tracciato_9941" data-name="Tracciato 9941" d="M581.845,414.407l-.313.961.481.157Z" transform="translate(-575.228 -403.778)" fill="#fff"/>
      <path id="Tracciato_9942" data-name="Tracciato 9942" d="M556.51,441.339h1.01v.5Z" transform="translate(-550.855 -430.011)" fill="#fff"/>
      <path id="Tracciato_9943" data-name="Tracciato 9943" d="M556.51,441.339l.819.594.3-.409Z" transform="translate(-550.855 -430.011)" fill="#fff"/>
      <path id="Tracciato_9944" data-name="Tracciato 9944" d="M588.756,441.339l-.817.594-.3-.409Z" transform="translate(-581.179 -430.011)" fill="#fff"/>
      <path id="Tracciato_9945" data-name="Tracciato 9945" d="M592.688,441.339h-1.01v.5Z" transform="translate(-585.11 -430.011)" fill="#fff"/>
      <path id="Tracciato_9946" data-name="Tracciato 9946" d="M570.642,448.784l.313-.962.481.156Z" transform="translate(-564.62 -436.326)" fill="#fff"/>
      <path id="Tracciato_9947" data-name="Tracciato 9947" d="M570.642,447.231l.819-.594-.3-.409Z" transform="translate(-564.62 -434.773)" fill="#fff"/>
      <path id="Tracciato_9948" data-name="Tracciato 9948" d="M585.8,447.231l-.816-.594.3-.409Z" transform="translate(-578.59 -434.773)" fill="#fff"/>
      <path id="Tracciato_9949" data-name="Tracciato 9949" d="M586.68,448.784l-.311-.962-.481.156Z" transform="translate(-579.47 -436.326)" fill="#fff"/>
      <path id="Tracciato_9950" data-name="Tracciato 9950" d="M708.93,536.111l.311.96-.481.157Z" transform="translate(-699.155 -522.324)" fill="#fff"/>
      <path id="Tracciato_9951" data-name="Tracciato 9951" d="M703.548,536.111l-.313.96.48.157Z" transform="translate(-693.773 -522.324)" fill="#fff"/>
      <path id="Tracciato_9952" data-name="Tracciato 9952" d="M678.213,563.043h1.01v.5Z" transform="translate(-669.4 -548.557)" fill="#fff"/>
      <path id="Tracciato_9953" data-name="Tracciato 9953" d="M678.213,563.043l.817.593.3-.408Z" transform="translate(-669.4 -548.557)" fill="#fff"/>
      <path id="Tracciato_9954" data-name="Tracciato 9954" d="M710.46,563.043l-.817.593-.3-.408Z" transform="translate(-699.725 -548.557)" fill="#fff"/>
      <path id="Tracciato_9955" data-name="Tracciato 9955" d="M714.34,563.043h-1.012v.5Z" transform="translate(-703.605 -548.557)" fill="#fff"/>
      <path id="Tracciato_9956" data-name="Tracciato 9956" d="M692.345,570.485l.313-.961.48.157Z" transform="translate(-683.166 -554.871)" fill="#fff"/>
      <path id="Tracciato_9957" data-name="Tracciato 9957" d="M692.345,568.932l.819-.593-.3-.409Z" transform="translate(-683.166 -553.318)" fill="#fff"/>
      <path id="Tracciato_9958" data-name="Tracciato 9958" d="M707.452,568.932l-.817-.593.3-.409Z" transform="translate(-697.085 -553.318)" fill="#fff"/>
      <path id="Tracciato_9959" data-name="Tracciato 9959" d="M708.382,570.485l-.311-.961-.481.157Z" transform="translate(-698.015 -554.871)" fill="#fff"/>
    </g>
  </g>
</svg>
