<svg xmlns="http://www.w3.org/2000/svg" xmlns:xlink="http://www.w3.org/1999/xlink" width="24" height="24" viewBox="0 0 24 24">
  <defs>
    <clipPath id="clip-path">
      <path id="Tracciato_183" data-name="Tracciato 183" d="M1.116,12.749a12,12,0,1,0,12-12,12,12,0,0,0-12,12" transform="translate(-1.116 -0.749)" fill="none"/>
    </clipPath>
  </defs>
  <g id="Australia" transform="translate(-1.116 -0.749)">
    <g id="Raggruppa_8" data-name="Raggruppa 8" transform="translate(1.116 0.749)" clip-path="url(#clip-path)">
      <rect id="Rettangolo_20" data-name="Rettangolo 20" width="48.022" height="24.011" transform="translate(-12.011 0)" fill="#000093"/>
      <path id="Tracciato_175" data-name="Tracciato 175" d="M24.011,2.137V.749h-2.7L13.959,4.43V.749H10.031V4.386L2.691.749H0V2.03L5.478,4.774H0V8.7H5.435L0,11.436v1.281H2.691l7.34-3.648v3.659h3.928v-3.7l7.351,3.691h2.7V11.328L18.738,8.7h5.274V4.774H18.694Z" transform="translate(-12.008 -0.751)" fill="#fff"/>
      <path id="Tracciato_176" data-name="Tracciato 176" d="M24.011,5.57H13.173V.749H10.827V5.57H0V7.916H10.827v4.822h2.346V7.916H24.011Z" transform="translate(-12.008 -0.753)" fill="#fa0000"/>
      <path id="Tracciato_177" data-name="Tracciato 177" d="M3.234,1.5H1.5L9.358,5.423V4.616Z" transform="translate(2.645 6.535)" fill="#fa0000"/>
      <path id="Tracciato_178" data-name="Tracciato 178" d="M1.355,4.677H3.088l7.7-3.928H9.211Z" transform="translate(1.215 -0.751)" fill="#fa0000"/>
      <path id="Tracciato_179" data-name="Tracciato 179" d="M4.289,2.093,3.6,4.159,1.544,3.438l1.13,1.83L.791,6.441l2.185.151L2.75,8.777,4.289,7.205,5.806,8.777,5.559,6.592l2.109-.2L5.806,5.268,7.033,3.417l-2.056.764Z" transform="translate(-4.288 12.373)" fill="#fff"/>
      <path id="Tracciato_180" data-name="Tracciato 180" d="M4.233,1.577l-.312.947L2.973,2.19,3.5,3.03l-.861.538.99.065-.1,1,.7-.721.7.721-.118-1,.969-.1-.85-.506.56-.85-.947.344Z" transform="translate(13.76 7.332)" fill="#fff"/>
      <path id="Tracciato_181" data-name="Tracciato 181" d="M4.791.97l-.312.947-.947-.334.527.839L3.2,2.95l.99.075-.1.99.7-.71.7.71-.118-.99.969-.1-.85-.506.56-.85L5.1,1.928Z" transform="translate(19.215 1.41)" fill="#fff"/>
      <path id="Tracciato_182" data-name="Tracciato 182" d="M4.792,2.461l-.312.947-.947-.334.527.839L3.2,4.441l.99.075-.1,1,.7-.721.689.721-.108-1,.969-.1-.861-.506.57-.85L5.1,3.419Z" transform="translate(19.223 15.962)" fill="#fff"/>
    </g>
  </g>
</svg>
