<svg xmlns="http://www.w3.org/2000/svg" xmlns:xlink="http://www.w3.org/1999/xlink" width="24" height="24" viewBox="0 0 24 24">
  <defs>
    <clipPath id="clip-path">
      <path id="Tracciato_284" data-name="Tracciato 284" d="M.476,12.749a12,12,0,1,0,12-12,12,12,0,0,0-12,12" transform="translate(-0.476 -0.749)" fill="none"/>
    </clipPath>
  </defs>
  <g id="Brasile" transform="translate(-0.476 -0.749)">
    <g id="Raggruppa_21" data-name="Raggruppa 21" transform="translate(0.476 0.749)" clip-path="url(#clip-path)">
      <rect id="Rettangolo_45" data-name="Rettangolo 45" width="34.246" height="23.978" transform="translate(-5.123 0.011)" fill="#009233"/>
      <path id="Tracciato_239" data-name="Tracciato 239" d="M.27,10.105,14.487,1.022l14.1,9.083-14.1,9.083Z" transform="translate(-2.487 1.915)" fill="#f8c308"/>
      <path id="Tracciato_240" data-name="Tracciato 240" d="M13.013,7.3A5.989,5.989,0,1,1,7.019,1.309,5.987,5.987,0,0,1,13.013,7.3" transform="translate(4.981 4.718)" fill="#280f6f"/>
      <path id="Tracciato_241" data-name="Tracciato 241" d="M1.364,1.792a6.26,6.26,0,0,0-.312.893A13.807,13.807,0,0,1,12.568,5.979a5.5,5.5,0,0,0,.215-.947A14.164,14.164,0,0,0,1.364,1.792" transform="translate(5.147 7.819)" fill="#fff"/>
      <path id="Tracciato_242" data-name="Tracciato 242" d="M1.357,1.65l.108.022.086.054.054.086.011.118L1.6,2.048l-.054.086-.086.054-.108.022-.108-.022-.086-.054L1.11,2.048,1.088,1.93l.022-.118.054-.086.086-.054.108-.022m0,.474.065-.011.054-.043.032-.054.011-.086-.011-.075L1.475,1.79l-.054-.032-.065-.011-.065.011-.054.032-.032.065L1.2,1.93l.011.086.032.054.054.043.065.011" transform="translate(5.499 8.047)" fill="#009233"/>
      <path id="Tracciato_243" data-name="Tracciato 243" d="M1.641,2.183H1.534l-.054-.14-.022-.032-.022-.022-.022-.011-.032-.011-.118.011.011.215-.1.011-.022-.549.237-.011H1.5l.043.022.022.032.022.032.011.032.011.032-.022.086-.065.054.054.086Zm-.377-.3.14-.011h.043l.022-.011.022-.022L1.5,1.806,1.48,1.742,1.4,1.731l-.151.011Z" transform="translate(6.172 7.998)" fill="#009233"/>
      <path id="Tracciato_244" data-name="Tracciato 244" d="M1.69,1.91a.25.25,0,0,1-.28.28H1.227V1.641H1.41c.183,0,.28.086.28.269m-.108,0-.011-.075L1.55,1.781l-.065-.032L1.41,1.738H1.324v.355H1.41l.075-.011.054-.043.032-.054.011-.075" transform="translate(6.856 7.959)" fill="#009233"/>
      <path id="Tracciato_245" data-name="Tracciato 245" d="M1.716,2.2,1.3,2.189l.022-.549.4.011v.1l-.3-.011L1.4,1.867h.291v.1L1.4,1.953v.14l.312.011Z" transform="translate(7.53 7.955)" fill="#009233"/>
      <path id="Tracciato_246" data-name="Tracciato 246" d="M1.879,2.224h-.1L1.8,1.869l-.14.344L1.578,2.2l-.1-.355L1.46,2.2l-.1-.011L1.4,1.643l.14.011.1.4.151-.377h.129Z" transform="translate(8.182 7.975)" fill="#009233"/>
      <path id="Tracciato_247" data-name="Tracciato 247" d="M1.891,2.25,1.472,2.2l.065-.538.409.043-.011.1-.3-.032-.011.118.28.032-.011.1L1.6,1.981l-.011.14.312.032Z" transform="translate(9.242 8.124)" fill="#009233"/>
      <path id="Tracciato_248" data-name="Tracciato 248" d="M1.7,1.677l.2.054.054.011.032.022.054.032.022.022.022.065-.011.065a.131.131,0,0,1-.086.108.264.264,0,0,1-.161.011l-.108-.032-.054.2-.1-.022Zm.043.269.108.032H1.93l.032-.022.011-.022.011-.054-.022-.032L1.93,1.838l-.043-.022L1.79,1.8Z" transform="translate(10.253 8.31)" fill="#009233"/>
      <path id="Tracciato_249" data-name="Tracciato 249" d="M2.088,2.363,1.98,2.331V2.17L1.97,2.137l-.011-.022-.022-.032-.032-.022L1.8,2.03l-.065.226-.1-.032L1.8,1.7l.237.065.043.022L2.11,1.8l.032.011.022.022.022.032v.108l-.054.086-.075.022.022.108Zm-.258-.42L1.959,2,2,2.008h.032l.032-.032.011-.032V1.89l-.065-.032-.14-.043Z" transform="translate(10.848 8.496)" fill="#009233"/>
      <path id="Tracciato_250" data-name="Tracciato 250" d="M2.064,1.744l.1.054.065.075.022.1-.022.118L2.172,2.2l-.086.065-.1.032-.108-.022-.1-.054-.054-.086-.022-.1.022-.118.054-.1.075-.075.108-.022.1.022m-.151.441.065.011.054-.022.054-.043.043-.075.011-.086L2.129,1.9,2.1,1.862,2.043,1.83l-.075-.011-.054.011-.054.054-.032.065-.022.086.022.065.032.054.054.032" transform="translate(11.561 8.75)" fill="#009233"/>
      <path id="Tracciato_251" data-name="Tracciato 251" d="M1.927,2.285l-.086-.065-.054-.086a.177.177,0,0,1-.011-.108l.032-.108.065-.1.086-.065.1-.011.108.032.075.043.054.075.022.075L2.3,2.059l-.1-.043.011-.043-.011-.054-.032-.032-.043-.032-.065-.011L2,1.855,1.948,1.9l-.043.065-.032.075.011.075.022.054.054.032.086.032L2.12,2.21l.032-.054L2.024,2.1l.043-.086.215.1-.129.269L2.088,2.35V2.307l-.075.011-.086-.032" transform="translate(12.172 8.994)" fill="#009233"/>
      <path id="Tracciato_252" data-name="Tracciato 252" d="M2.247,2.48l-.1-.054.022-.161V2.233l-.011-.011-.022-.043-.022-.022-.1-.043-.1.194-.1-.054.248-.484.226.118.032.022.032.022.022.011.022.043.011.032v.075l-.011.022-.065.075L2.257,2.2a.177.177,0,0,1,.011.108Zm-.183-.452.118.065.043.011.032.011L2.29,2.1l.022-.032V2.018l-.054-.054L2.128,1.9Z" transform="translate(12.713 9.218)" fill="#009233"/>
      <path id="Tracciato_253" data-name="Tracciato 253" d="M2.252,2.481l-.366-.215.28-.463L2.521,2l-.054.086-.258-.151-.065.108.248.14-.054.086L2.1,2.115l-.075.129.269.161Z" transform="translate(13.294 9.542)" fill="#009233"/>
      <path id="Tracciato_254" data-name="Tracciato 254" d="M2.062,2.363l-.075-.075-.032-.075V2.137l.032-.075.075.054-.011.054V2.2l.022.054.043.032.032.022.043.011.032-.011.022-.022.011-.022V2.244L2.212,2.19l-.043-.054-.054-.065-.022-.065-.011-.054.032-.043.043-.054.065-.011.065.011.075.032.065.065.032.065v.075l-.022.075L2.352,2.1a.1.1,0,0,0-.032-.14l-.075-.022L2.2,1.964l-.011.022v.022l.022.032.032.032.032.043.032.032.022.032.022.065v.043l-.022.054-.054.043-.065.022H2.137l-.075-.043" transform="translate(13.953 9.96)" fill="#009233"/>
      <path id="Tracciato_255" data-name="Tracciato 255" d="M2.1,2.39,2.04,2.314l-.032-.075.011-.086.032-.075.075.065L2.1,2.2v.043l.022.043.032.032.043.022.022.011.032.011L2.3,2.336V2.271l-.022-.043-.043-.054L2.191,2.1l-.022-.054V1.992l.022-.054.054-.043.065-.011.075.022.065.043.065.065.022.065v.075l-.043.075-.075-.065A.1.1,0,0,0,2.4,2.013L2.32,1.981,2.277,2l-.011.022v.011l.011.032.043.054.022.032.032.043L2.4,2.25l.011.043v.043l-.032.054-.054.043-.065.022L2.18,2.433,2.1,2.39" transform="translate(14.48 10.331)" fill="#009233"/>
      <path id="Tracciato_256" data-name="Tracciato 256" d="M2.518,1.99l.065.075.032.1L2.6,2.269l-.065.1-.086.075-.1.043-.1-.011-.1-.043-.075-.086-.022-.1.011-.108.054-.1.086-.075.1-.043.108.011.1.054m-.3.366.065.032h.054L2.4,2.366,2.464,2.3l.043-.065.011-.075L2.5,2.108l-.043-.054L2.4,2.022H2.335l-.065.032-.054.054-.043.065-.011.075.011.054.043.054" transform="translate(15.046 10.732)" fill="#009233"/>
      <path id="Tracciato_257" data-name="Tracciato 257" d="M1.371,1.739l.065.194h.194l-.161.108.065.194-.161-.118-.161.118.065-.194-.161-.108h.194Z" transform="translate(5.737 8.917)" fill="#fff"/>
      <path id="Tracciato_258" data-name="Tracciato 258" d="M1.6,2.136l.065.194h.194L1.7,2.437l.065.194L1.6,2.512l-.161.118.065-.194-.161-.108h.194Z" transform="translate(8.006 12.787)" fill="#fff"/>
      <path id="Tracciato_259" data-name="Tracciato 259" d="M1.825,2.09l.065.183h.194l-.161.118.065.194-.161-.118-.161.118.065-.194-.161-.118h.194Z" transform="translate(10.176 12.341)" fill="#fff"/>
      <path id="Tracciato_260" data-name="Tracciato 260" d="M1.42,1.973l.065.194h.194l-.161.108.065.194L1.42,2.35l-.161.118.065-.194-.161-.108h.2Z" transform="translate(6.22 11.202)" fill="#fff"/>
      <path id="Tracciato_261" data-name="Tracciato 261" d="M1.595,1.865l.054.172h.172l-.14.1.054.172L1.595,2.2l-.151.108.065-.172-.151-.1h.183Z" transform="translate(8.134 10.146)" fill="#fff"/>
      <path id="Tracciato_262" data-name="Tracciato 262" d="M1.348,1.953l.032.086h.086l-.075.054.032.086-.075-.054-.075.054L1.3,2.093l-.075-.054h.1Z" transform="translate(6.88 11.001)" fill="#fff"/>
      <path id="Tracciato_263" data-name="Tracciato 263" d="M1.642,1.993l.032.086h.086l-.075.054.032.086-.075-.054-.075.054L1.6,2.132l-.075-.054H1.61Z" transform="translate(9.754 11.39)" fill="#fff"/>
      <path id="Tracciato_264" data-name="Tracciato 264" d="M1.93,1.674l.043.14h.151l-.118.075.043.14L1.93,1.943l-.118.086.043-.14-.108-.075h.14Z" transform="translate(11.937 8.276)" fill="#fff"/>
      <path id="Tracciato_265" data-name="Tracciato 265" d="M1.718,1.939l.032.108h.108L1.772,2.1l.032.108-.086-.065-.086.065L1.664,2.1l-.086-.054h.108Z" transform="translate(10.285 10.871)" fill="#fff"/>
      <path id="Tracciato_266" data-name="Tracciato 266" d="M1.87,1.824l.032.1H2.01l-.086.065.032.108L1.87,2.028l-.086.065.032-.108L1.73,1.92h.108Z" transform="translate(11.766 9.742)" fill="#fff"/>
      <path id="Tracciato_267" data-name="Tracciato 267" d="M1.8,1.989l.032.118h.129l-.1.075L1.9,2.3l-.1-.075-.1.075.032-.118-.1-.075H1.76Z" transform="translate(10.9 11.352)" fill="#fff"/>
      <path id="Tracciato_268" data-name="Tracciato 268" d="M1.652,2.033l.022.075h.086l-.065.043.022.075-.065-.043-.065.043.022-.075-.054-.043H1.63Z" transform="translate(10.056 11.782)" fill="#fff"/>
      <path id="Tracciato_269" data-name="Tracciato 269" d="M1.65,2.295l.022.054h.043l-.032.022.011.054L1.65,2.392l-.043.032.011-.054-.032-.022h.054Z" transform="translate(10.351 14.342)" fill="#fff"/>
      <path id="Tracciato_270" data-name="Tracciato 270" d="M1.956,2.162l.022.075h.075L2,2.28l.022.075L1.956,2.3l-.065.054.032-.075-.065-.043h.075Z" transform="translate(13.022 13.04)" fill="#fff"/>
      <path id="Tracciato_271" data-name="Tracciato 271" d="M2.013,2.173l.022.075H2.11l-.054.043.022.075-.065-.054-.065.054.032-.075-.065-.043h.075Z" transform="translate(13.588 13.156)" fill="#fff"/>
      <path id="Tracciato_272" data-name="Tracciato 272" d="M2.078,2.143l.022.086h.1l-.075.043.032.086L2.078,2.3,2,2.358l.032-.086-.075-.043h.1Z" transform="translate(14.004 12.859)" fill="#fff"/>
      <path id="Tracciato_273" data-name="Tracciato 273" d="M2.122,2.1l.032.1h.1l-.075.054.032.1-.086-.054-.086.054.032-.1L1.993,2.2h.1Z" transform="translate(14.332 12.425)" fill="#fff"/>
      <path id="Tracciato_274" data-name="Tracciato 274" d="M2.158,2.043l.043.14h.151l-.118.075.043.14-.118-.086L2.04,2.4l.043-.14-.118-.075h.151Z" transform="translate(14.055 11.879)" fill="#fff"/>
      <path id="Tracciato_275" data-name="Tracciato 275" d="M1.894,2.182l.022.075H1.99L1.937,2.3l.022.075-.065-.043-.065.043L1.851,2.3,1.8,2.257h.075Z" transform="translate(12.417 13.241)" fill="#fff"/>
      <path id="Tracciato_276" data-name="Tracciato 276" d="M1.8,2.168l.022.075H1.9l-.054.043.022.065L1.8,2.308l-.065.043.022-.065L1.7,2.243h.075Z" transform="translate(11.512 13.105)" fill="#fff"/>
      <path id="Tracciato_277" data-name="Tracciato 277" d="M1.957,2.275l.022.075h.075L2,2.393l.022.065-.065-.043-.065.043.022-.065L1.86,2.35h.075Z" transform="translate(13.034 14.148)" fill="#fff"/>
      <path id="Tracciato_278" data-name="Tracciato 278" d="M2.018,2.214l.043.108h.118l-.1.075.032.108-.1-.065-.1.065L1.953,2.4l-.1-.075h.129Z" transform="translate(12.999 13.551)" fill="#fff"/>
      <path id="Tracciato_279" data-name="Tracciato 279" d="M1.9,2.226l.032.108h.118l-.1.075L2,2.517l-.1-.065-.1.065.032-.108-.1-.075H1.86Z" transform="translate(11.878 13.674)" fill="#fff"/>
      <path id="Tracciato_280" data-name="Tracciato 280" d="M2.155,2.057l.022.075h.086L2.2,2.176l.022.075-.065-.043-.065.043.022-.075-.065-.043h.086Z" transform="translate(14.867 12.023)" fill="#fff"/>
      <path id="Tracciato_281" data-name="Tracciato 281" d="M1.264,2.031,1.3,2.15h.129l-.1.075.032.108-.1-.065-.1.065L1.2,2.225,1.1,2.15h.129Z" transform="translate(5.639 11.771)" fill="#fff"/>
      <path id="Tracciato_282" data-name="Tracciato 282" d="M1.448,2.039l.032.118h.129l-.1.065.032.118-.1-.075-.1.075.032-.118-.1-.065H1.4Z" transform="translate(7.436 11.843)" fill="#fff"/>
      <path id="Tracciato_283" data-name="Tracciato 283" d="M1.433,2.095l.043.118h.118l-.1.075L1.53,2.4l-.1-.065-.1.065.043-.108-.108-.075H1.4Z" transform="translate(7.29 12.387)" fill="#fff"/>
    </g>
  </g>
</svg>
