<svg xmlns="http://www.w3.org/2000/svg" xmlns:xlink="http://www.w3.org/1999/xlink" width="24" height="24.011" viewBox="0 0 24 24.011">
  <defs>
    <clipPath id="clip-path">
      <path id="Tracciato_382" data-name="Tracciato 382" d="M.558,12.754A12,12,0,1,0,12.553.749,12,12,0,0,0,.558,12.754" transform="translate(-0.558 -0.749)" fill="none"/>
    </clipPath>
  </defs>
  <g id="Canada" transform="translate(-0.558 -0.749)">
    <g id="Raggruppa_27" data-name="Raggruppa 27" transform="translate(0.558 0.749)" clip-path="url(#clip-path)">
      <rect id="Rettangolo_56" data-name="Rettangolo 56" width="36.016" height="24.011" transform="translate(-6.008 0)" fill="#ff1200"/>
      <rect id="Rettangolo_57" data-name="Rettangolo 57" width="17.97" height="24.011" transform="translate(3.047 0)" fill="#fff"/>
      <path id="Tracciato_381" data-name="Tracciato 381" d="M7.826,1.184,8.946,3.37a.433.433,0,0,0,.528.194l.958-.452L9.84,6.826c-.065.3.215.366.366.215L11.8,5.308l.248.7c.1.269.366.258.571.226l1.69-.323-.517,2.035c-.043.2-.075.42.1.517l.711.377L11.5,11.52a.714.714,0,0,0-.194.614L11.53,13l-3.338-.312a.157.157,0,0,0-.183.172l.1,3.553h-.56l.1-3.553a.162.162,0,0,0-.183-.172L4.122,13l.226-.861a.714.714,0,0,0-.194-.614L1.043,8.839l.721-.377c.172-.1.14-.312.1-.517L1.344,5.911l1.69.323c.2.032.474.043.571-.226l.248-.7L5.447,7.041c.151.151.431.086.366-.215L5.221,3.111l.958.452a.433.433,0,0,0,.528-.194Z" transform="translate(4.179 3.5)" fill="#ff1200"/>
    </g>
  </g>
</svg>
