<svg xmlns="http://www.w3.org/2000/svg" xmlns:xlink="http://www.w3.org/1999/xlink" width="24" height="24" viewBox="0 0 24 24">
  <defs>
    <clipPath id="clip-path">
      <path id="Tracciato_427" data-name="Tracciato 427" d="M.6,12.749a12,12,0,1,0,12-12,12,12,0,0,0-12,12" transform="translate(-0.602 -0.749)" fill="none"/>
    </clipPath>
  </defs>
  <g id="Cipro" transform="translate(-0.602 -0.749)">
    <g id="Raggruppa_35" data-name="Raggruppa 35" transform="translate(0.602 0.749)" clip-path="url(#clip-path)">
      <rect id="Rettangolo_68" data-name="Rettangolo 68" width="36.969" height="24" transform="translate(-6.479 0)" fill="#fff"/>
      <path id="Tracciato_403" data-name="Tracciato 403" d="M1.574,6.684a.584.584,0,0,0,.312.075.951.951,0,0,0,.829-.646.593.593,0,0,1,.161-.3.973.973,0,0,1,.312-.172A1.194,1.194,0,0,1,4.2,5.726c.5.28,1.119.226,1.259-.387A5.877,5.877,0,0,0,5.5,3.831a3.584,3.584,0,0,0,.926.3,2.117,2.117,0,0,0,.258.032c.086,0,.161-.054.248-.043.065.011.108.075.172.086.1.022.161-.075.237-.086s.151.086.215.118a.862.862,0,0,0,.291.032,1.384,1.384,0,0,1,.42-.032.742.742,0,0,1,.161.075c.14.065.269-.022.42.011l.172.032c.075,0,.14-.032.215-.032.14-.022.258.065.387,0a.8.8,0,0,1,.226-.075A.247.247,0,0,0,10,4.208c.054-.022.075-.075.129-.108a1.212,1.212,0,0,1,.344-.022,1.408,1.408,0,0,0,.3-.1.5.5,0,0,0,.151-.086l.118-.129a.622.622,0,0,1,.42-.054.765.765,0,0,0,.215.043,2.482,2.482,0,0,0,.893-.323L13.2,3.11c.248-.118.517-.183.657-.441A.6.6,0,0,1,14,2.432a.436.436,0,0,1,.312-.065.992.992,0,0,0,.581-.215.843.843,0,0,0,.215-.172c.054-.075.054-.172.14-.215.151-.075.3.011.43-.129a.372.372,0,0,1,.344-.129.722.722,0,0,0,.4-.118l.28-.161c.086.226-.1.355-.28.43-.1.043-.2.032-.291.075a1.617,1.617,0,0,0-.355.248c-.118.108-.1.248-.161.377a.487.487,0,0,1-.269.215,1.048,1.048,0,0,0-.248.118c-.075.075-.086.161-.14.237-.118.151-.43.172-.6.237a1.868,1.868,0,0,0-.71.506l-.172.248c-.086.129-.118.28-.269.355a1.466,1.466,0,0,1-.484.129,1.007,1.007,0,0,0-.237.075c-.086.054-.054.108-.086.194-.022.054-.086.075-.129.108a.659.659,0,0,0-.161.4,1.44,1.44,0,0,0,.086.6c.065.226.355.2.463.409.043.075.032.161.075.237a1.087,1.087,0,0,0,.248.2c.129.108.387.387.344.57-.1.344-.8-.194-1.022-.043-.129.075-.065.3-.258.323-.1.011-.118-.065-.194-.118a1.928,1.928,0,0,0-.258-.129.85.85,0,0,0-.786-.054A.761.761,0,0,0,10.345,8c.054.237-.022.323-.1.527-.032.086-.054.108-.151.118-.151.011-.463-.129-.538.086-.043.129-.043.14-.183.161a1.392,1.392,0,0,0-.28.086c-.161.086-.269.237-.441.312a.893.893,0,0,1-.409.075c-.1.011-.226-.022-.291.065-.043.065-.011.151-.086.194-.226.14-.57-.118-.807-.118a1.216,1.216,0,0,0-.28,0c-.312.086-.753.613-.56.947.075.151.14.226-.065.269a1.046,1.046,0,0,1-.366.011c-.161-.032-.172-.108-.14-.237.1-.291-.183-.517-.441-.592a1.425,1.425,0,0,0-.969.086.926.926,0,0,1-.915-.108,1.2,1.2,0,0,0-.463-.2l-.237-.086a.333.333,0,0,1-.237-.161c-.065-.118-.183-.151-.28-.237A.939.939,0,0,1,1.9,8.944c-.054-.118-.022-.215-.054-.334a.226.226,0,0,0-.086-.118c-.075-.075-.2-.129-.269-.215a.8.8,0,0,1-.054-.366c0-.151-.108-.2-.129-.323-.022-.151.14-.2.118-.355,0-.118-.118-.248-.194-.334a.531.531,0,0,1-.172-.323A.274.274,0,0,1,1.1,6.393l.075-.054H1.24l.032.054a.966.966,0,0,0,.3.291" transform="translate(3.818 3.917)" fill="#f49819"/>
      <path id="Tracciato_404" data-name="Tracciato 404" d="M1.22,2.167a1.359,1.359,0,0,1,1.109.969A1.217,1.217,0,0,1,1.22,2.167" transform="translate(5.431 13.094)" fill="#006652"/>
      <path id="Tracciato_405" data-name="Tracciato 405" d="M1.427,2.141A1.315,1.315,0,0,1,1.8,3.519a1.174,1.174,0,0,1-.377-1.378" transform="translate(6.419 12.84)" fill="#006652"/>
      <path id="Tracciato_406" data-name="Tracciato 406" d="M1.482,2.2a1.177,1.177,0,0,1,.334,1.227A1.048,1.048,0,0,1,1.482,2.2" transform="translate(7.074 13.426)" fill="#006652"/>
      <path id="Tracciato_407" data-name="Tracciato 407" d="M1.549,2.245a1.177,1.177,0,0,1,.334,1.227,1.048,1.048,0,0,1-.334-1.227" transform="translate(7.728 13.855)" fill="#006652"/>
      <path id="Tracciato_408" data-name="Tracciato 408" d="M1.574,2.279a1.184,1.184,0,0,1,.463,1.184,1.053,1.053,0,0,1-.463-1.184" transform="translate(8.338 14.187)" fill="#006652"/>
      <path id="Tracciato_409" data-name="Tracciato 409" d="M1.623,2.3a1.189,1.189,0,0,1,.538,1.152A1.041,1.041,0,0,1,1.623,2.3" transform="translate(8.989 14.412)" fill="#006652"/>
      <path id="Tracciato_410" data-name="Tracciato 410" d="M1.24,2.362a1.375,1.375,0,0,1,1.431.355A1.21,1.21,0,0,1,1.24,2.362" transform="translate(5.626 14.147)" fill="#006652"/>
      <path id="Tracciato_411" data-name="Tracciato 411" d="M1.3,2.516a1.138,1.138,0,0,1,1.216.011A1.013,1.013,0,0,1,1.3,2.516" transform="translate(6.232 14.757)" fill="#006652"/>
      <path id="Tracciato_412" data-name="Tracciato 412" d="M1.377,2.747A1.146,1.146,0,0,1,2.55,2.424a1,1,0,0,1-1.173.323" transform="translate(6.964 15.151)" fill="#006652"/>
      <path id="Tracciato_413" data-name="Tracciato 413" d="M1.447,2.785A1.146,1.146,0,0,1,2.62,2.462a1,1,0,0,1-1.173.323" transform="translate(7.647 15.522)" fill="#006652"/>
      <path id="Tracciato_414" data-name="Tracciato 414" d="M1.512,2.923A1.126,1.126,0,0,1,2.631,2.46a.99.99,0,0,1-1.119.463" transform="translate(8.282 15.815)" fill="#006652"/>
      <path id="Tracciato_415" data-name="Tracciato 415" d="M3.218,2.167a1.359,1.359,0,0,0-1.109.969,1.217,1.217,0,0,0,1.109-.969" transform="translate(14.11 13.094)" fill="#006652"/>
      <path id="Tracciato_416" data-name="Tracciato 416" d="M2.5,2.141A1.317,1.317,0,0,0,2.12,3.519,1.174,1.174,0,0,0,2.5,2.141" transform="translate(13.636 12.84)" fill="#006652"/>
      <path id="Tracciato_417" data-name="Tracciato 417" d="M2.385,2.2a1.177,1.177,0,0,0-.334,1.227A1.048,1.048,0,0,0,2.385,2.2" transform="translate(13.037 13.416)" fill="#006652"/>
      <path id="Tracciato_418" data-name="Tracciato 418" d="M2.319,2.244a1.177,1.177,0,0,0-.334,1.227,1.048,1.048,0,0,0,.334-1.227" transform="translate(12.393 13.846)" fill="#006652"/>
      <path id="Tracciato_419" data-name="Tracciato 419" d="M2.356,2.279a1.176,1.176,0,0,0-.474,1.184,1.058,1.058,0,0,0,.474-1.184" transform="translate(11.721 14.187)" fill="#006652"/>
      <path id="Tracciato_420" data-name="Tracciato 420" d="M2.338,2.3A1.2,1.2,0,0,0,1.8,3.454,1.041,1.041,0,0,0,2.338,2.3" transform="translate(11.029 14.412)" fill="#006652"/>
      <path id="Tracciato_421" data-name="Tracciato 421" d="M3.49,2.362a1.375,1.375,0,0,0-1.431.355A1.21,1.21,0,0,0,3.49,2.362" transform="translate(13.622 14.147)" fill="#006652"/>
      <path id="Tracciato_422" data-name="Tracciato 422" d="M3.233,2.523a1.124,1.124,0,0,0-1.216,0,1.01,1.01,0,0,0,1.216,0" transform="translate(13.212 14.75)" fill="#006652"/>
      <path id="Tracciato_423" data-name="Tracciato 423" d="M3.12,2.75a1.122,1.122,0,0,0-1.173-.323A1,1,0,0,0,3.12,2.75" transform="translate(12.528 15.148)" fill="#006652"/>
      <path id="Tracciato_424" data-name="Tracciato 424" d="M3.049,2.788a1.122,1.122,0,0,0-1.173-.323,1,1,0,0,0,1.173.323" transform="translate(11.835 15.519)" fill="#006652"/>
      <path id="Tracciato_425" data-name="Tracciato 425" d="M2.935,2.93a1.143,1.143,0,0,0-1.119-.474,1,1,0,0,0,1.119.474" transform="translate(11.249 15.807)" fill="#006652"/>
      <path id="Tracciato_426" data-name="Tracciato 426" d="M3.02,2.8a5.269,5.269,0,0,0,.915-.377,7.315,7.315,0,0,1-1.195.312,6.618,6.618,0,0,1-1.13-.3,4.808,4.808,0,0,0,.872.366,2.208,2.208,0,0,0-.517.237,6,6,0,0,0,.786-.161,5.433,5.433,0,0,0,.829.172A2.288,2.288,0,0,0,3.02,2.8" transform="translate(9.238 15.554)" fill="#006652"/>
    </g>
  </g>
</svg>
