<svg xmlns="http://www.w3.org/2000/svg" xmlns:xlink="http://www.w3.org/1999/xlink" width="24" height="24" viewBox="0 0 24 24">
  <defs>
    <clipPath id="clip-path">
      <path id="Tracciato_2758" data-name="Tracciato 2758" d="M.547,12.749a12,12,0,1,0,12-12,12,12,0,0,0-12,12" transform="translate(-0.547 -0.749)" fill="none"/>
    </clipPath>
  </defs>
  <g id="Georgia" transform="translate(-0.547 -0.749)">
    <g id="Raggruppa_55" data-name="Raggruppa 55" transform="translate(0.547 0.749)" clip-path="url(#clip-path)">
      <rect id="Rettangolo_226" data-name="Rettangolo 226" width="35.774" height="23.871" transform="translate(-5.887 0.065)" fill="#fff"/>
      <path id="Tracciato_2753" data-name="Tracciato 2753" d="M35.774,10.323H20.255V.755H15.519v9.568H0v4.725H15.519v9.578h4.735V15.048H35.774Z" transform="translate(-5.885 -0.686)" fill="#e90033"/>
      <path id="Tracciato_2754" data-name="Tracciato 2754" d="M5.23,2.479a7.356,7.356,0,0,1-1.743.258A9.414,9.414,0,0,1,3.734.983H2.077a7.238,7.238,0,0,1,.269,1.743A8.6,8.6,0,0,1,.581,2.479V4.136a7.341,7.341,0,0,1,1.765-.269,6.9,6.9,0,0,1-.269,1.765H3.734a7.452,7.452,0,0,1-.258-1.754,6.591,6.591,0,0,1,1.754.258Z" transform="translate(-0.215 1.535)" fill="#e90033"/>
      <path id="Tracciato_2755" data-name="Tracciato 2755" d="M6.96,2.479a7.356,7.356,0,0,1-1.743.258A9.414,9.414,0,0,1,5.464.983H3.807a7.238,7.238,0,0,1,.269,1.743,8.706,8.706,0,0,1-1.765-.248V4.136a7.341,7.341,0,0,1,1.765-.269,6.45,6.45,0,0,1-.269,1.765H5.464a6.932,6.932,0,0,1-.258-1.754,6.516,6.516,0,0,1,1.754.258Z" transform="translate(16.674 1.535)" fill="#e90033"/>
      <path id="Tracciato_2756" data-name="Tracciato 2756" d="M5.23,3.811a7.356,7.356,0,0,1-1.743.258,10.41,10.41,0,0,1,.248-1.754H2.077a7.238,7.238,0,0,1,.269,1.743A8.82,8.82,0,0,1,.581,3.811V5.468A7.341,7.341,0,0,1,2.346,5.2a6.45,6.45,0,0,1-.269,1.765H3.734A7.452,7.452,0,0,1,3.476,5.21a6.516,6.516,0,0,1,1.754.258Z" transform="translate(-0.215 14.539)" fill="#e90033"/>
      <path id="Tracciato_2757" data-name="Tracciato 2757" d="M6.96,3.811a7.356,7.356,0,0,1-1.743.258,8.592,8.592,0,0,1,.248-1.754H3.807a7.238,7.238,0,0,1,.269,1.743,8.706,8.706,0,0,1-1.765-.248V5.468A7.341,7.341,0,0,1,4.076,5.2a6.9,6.9,0,0,1-.269,1.765H5.464A6.931,6.931,0,0,1,5.206,5.21a6.515,6.515,0,0,1,1.754.258Z" transform="translate(16.674 14.539)" fill="#e90033"/>
    </g>
  </g>
</svg>
