<svg xmlns="http://www.w3.org/2000/svg" xmlns:xlink="http://www.w3.org/1999/xlink" width="24" height="24" viewBox="0 0 24 24">
  <defs>
    <clipPath id="clip-path">
      <path id="Tracciato_10071" data-name="Tracciato 10071" d="M380.8,16.108a12,12,0,1,0,12-12,12,12,0,0,0-12,12" transform="translate(-380.801 -4.108)" fill="none"/>
    </clipPath>
  </defs>
  <g id="Isole_Turks_e_Caicos" data-name="Isole Turks e Caicos" transform="translate(-380.801 -4.108)">
    <g id="Raggruppa_283" data-name="Raggruppa 283" transform="translate(380.801 4.108)" clip-path="url(#clip-path)">
      <rect id="Rettangolo_883" data-name="Rettangolo 883" width="41.367" height="24.131" transform="translate(-9.879 -0.107)" fill="#231e60"/>
      <path id="Tracciato_9961" data-name="Tracciato 9961" d="M1058.637,314.539v2.936a4.163,4.163,0,1,1-7.513,0v-2.936Z" transform="translate(-1033.734 -306.486)" fill="#fff"/>
      <path id="Tracciato_9962" data-name="Tracciato 9962" d="M1054.517,323.084l0,0a6.172,6.172,0,0,1-3.761-5.967v-2.936l7.522-.01.01,2.945a6.171,6.171,0,0,1-3.763,5.967Zm3.746-8.906-7.5.01.01,2.926a4.154,4.154,0,1,0,7.492,0Z" transform="translate(-1033.372 -306.125)"/>
      <path id="Tracciato_9963" data-name="Tracciato 9963" d="M1067.906,326.06V328.8a3.883,3.883,0,1,1-7.005,0V326.06Z" transform="translate(-1043.258 -317.708)" fill="#f0c126"/>
      <path id="Tracciato_9964" data-name="Tracciato 9964" d="M1064.044,334.006h0a5.759,5.759,0,0,1-3.507-5.567V325.7l7.015-.01.01,2.748a5.758,5.758,0,0,1-3.509,5.567Zm3.495-8.307-7,.008.008,2.73a3.875,3.875,0,1,0,6.989,0Z" transform="translate(-1042.898 -317.347)"/>
      <path id="Tracciato_9965" data-name="Tracciato 9965" d="M1080.688,340.747a.311.311,0,0,0-.182-.063.281.281,0,0,0-.215-.3c-.1-.033-.13-.071-.148-.148a.2.2,0,0,0-.156-.148.441.441,0,0,1-.2-.156c-.033-.041-.047-.033-.071.038s-.128.207-.034.211a.154.154,0,0,0-.063.2c-.047.038-.08.093-.017.114s.08.038.084.056c-.056,0-.071.114.063.138-.029.006-.041.1.014.1-.077,0-.14.114-.237.114s-.148.022-.152.063a.228.228,0,0,1-.08.115.2.2,0,0,0,.156-.03.121.121,0,0,1,.144,0,.261.261,0,0,0,.173.043.354.354,0,0,0-.169.228.26.26,0,0,1-.128.2.339.339,0,0,0-.177.173.489.489,0,0,0,.308.3,1.28,1.28,0,0,1,.414.254c.084.093.118.026.245.186s.244.465.372.516a.3.3,0,0,0,.38-.144c.093-.16.152-1.783-.325-2.054" transform="translate(-1061.174 -331.195)" fill="#ef9a48"/>
      <path id="Tracciato_9966" data-name="Tracciato 9966" d="M1080.591,342.768a.29.29,0,0,1-.114-.022c-.082-.033-.156-.162-.236-.3a1.942,1.942,0,0,0-.139-.218.32.32,0,0,0-.152-.123.206.206,0,0,1-.093-.063,1.271,1.271,0,0,0-.413-.252.5.5,0,0,1-.31-.3.334.334,0,0,1,.18-.18.256.256,0,0,0,.125-.195.29.29,0,0,1,.092-.167.362.362,0,0,0-.084.169.261.261,0,0,1-.13.2.324.324,0,0,0-.174.17.482.482,0,0,0,.3.291,1.276,1.276,0,0,1,.424.258.211.211,0,0,0,.089.06.324.324,0,0,1,.156.126,1.774,1.774,0,0,1,.139.219c.075.129.154.263.232.295a.3.3,0,0,0,.375-.143,3.779,3.779,0,0,0-.041-1.571.751.751,0,0,0-.282-.476.3.3,0,0,0-.18-.063.282.282,0,0,0-.217-.3c-.1-.034-.133-.071-.151-.152a.188.188,0,0,0-.154-.144.429.429,0,0,1-.2-.159c-.042-.025-.054.005-.065.037a.606.606,0,0,1-.03.064.467.467,0,0,0-.04.093.2.2,0,0,1,.031-.1.669.669,0,0,0,.03-.064c.015-.044.026-.067.044-.067a.562.562,0,0,0,.232.182.2.2,0,0,1,.159.152c.018.077.053.112.145.144a.461.461,0,0,0,.4.365.75.75,0,0,1,.285.48,3.7,3.7,0,0,1,.041,1.58.312.312,0,0,1-.271.167m-1.024-1.881a.224.224,0,0,1-.132-.038.115.115,0,0,0-.137,0,.172.172,0,0,1-.113.033l-.026,0a.231.231,0,0,0,.133-.036.126.126,0,0,1,.15,0,.264.264,0,0,0,.144.043s-.012,0-.019,0m-.421-.01h-.01a.227.227,0,0,0,.078-.112c0-.044.058-.067.156-.067a.221.221,0,0,0,.13-.06.251.251,0,0,1,.089-.052c-.014,0-.023-.018-.025-.038s.01-.058.029-.06c-.079-.005-.112-.053-.108-.093a.047.047,0,0,1,.045-.045c-.007-.01-.019-.026-.085-.047l-.038-.036c0-.023.016-.056.053-.086a.125.125,0,0,1,0-.129.166.166,0,0,0,.01.13c-.036.033-.055.063-.051.084.1.049.114.067.118.086a.051.051,0,0,0-.041.044c0,.036.027.078.1.092a.075.075,0,0,0-.021.06.034.034,0,0,0,.033.037h-.005a.3.3,0,0,0-.1.059.231.231,0,0,1-.136.063c-.093,0-.144.019-.148.059a.211.211,0,0,1-.077.112" transform="translate(-1061.019 -330.992)"/>
      <path id="Tracciato_9967" data-name="Tracciato 9967" d="M1118.266,346.252c-.118.126-.27.254-.245.483s.051.6-.161.727a.376.376,0,0,0-.059.633.834.834,0,0,1,.3.625c.043.211.152.381.321.237.169.025.262-.042.262-.177s.008-.213.136-.254a.318.318,0,0,0,.219-.2c.059-.112.093-.165.059-.232a.53.53,0,0,1-.021-.309c.025-.1-.034-.156-.069-.219a.28.28,0,0,1-.029-.2.172.172,0,0,0-.085-.182.137.137,0,0,1-.071-.152c.012-.067-.042-.11-.106-.16a.268.268,0,0,1-.11-.219.676.676,0,0,0-.347-.4" transform="translate(-1098.535 -337.376)" fill="#ef8d80"/>
      <path id="Tracciato_9968" data-name="Tracciato 9968" d="M1118.153,348.912c-.092,0-.169-.11-.207-.293l-.015-.081a.734.734,0,0,0-.287-.542.346.346,0,0,1-.151-.3.431.431,0,0,1,.21-.343c.2-.121.188-.47.159-.723a.539.539,0,0,1,.207-.444l.04-.041a.654.654,0,0,1,.354.4.265.265,0,0,0,.108.217c.066.052.121.1.107.165a.134.134,0,0,0,.07.148.171.171,0,0,1,.086.185.27.27,0,0,0,.029.2c.056.089.089.141.069.224a.528.528,0,0,0,.021.306c.031.063.007.111-.044.207-.073.14-.107.186-.237.23s-.133.118-.133.25a.178.178,0,0,1-.051.137.25.25,0,0,1-.215.044.183.183,0,0,1-.119.053m-.043-2.757-.034.04a.513.513,0,0,0-.2.436c.027.255.041.609-.163.731a.433.433,0,0,0-.207.336.335.335,0,0,0,.148.292.745.745,0,0,1,.291.546l.015.082c.051.254.174.352.314.233a.252.252,0,0,0,.211-.041.174.174,0,0,0,.049-.132c0-.132.007-.215.138-.259a.309.309,0,0,0,.217-.2c.064-.122.089-.169.059-.228a.541.541,0,0,1-.021-.313.211.211,0,0,0-.044-.177.321.321,0,0,1-.055-.245.162.162,0,0,0-.082-.177.144.144,0,0,1-.073-.158c.011-.063-.041-.1-.1-.152a.276.276,0,0,1-.114-.226.666.666,0,0,0-.344-.392" transform="translate(-1098.382 -337.273)"/>
      <path id="Tracciato_9969" data-name="Tracciato 9969" d="M1138.752,362.177c.282-.073.258-.537.215-.732a1.284,1.284,0,0,1-.067-.692c.118-.313-.144-.609-.077-.727a.288.288,0,0,0,.051-.219c-.008-.038-.071-.069-.075.012a.2.2,0,0,1-.077.16c-.051.051-.037.16,0,.284a.64.64,0,0,1-.008.553.452.452,0,0,0-.025.47c.075.177.258.794.063.891" transform="translate(-1118.975 -350.54)" fill="#de99c3"/>
      <path id="Tracciato_9970" data-name="Tracciato 9970" d="M1092.547,351.7l.037-.018c.193-.1,0-.725-.065-.886a.458.458,0,0,1,.025-.473.6.6,0,0,0,.019-.517c-.056-.178-.055-.276-.01-.321a.208.208,0,0,0,.075-.158c0-.048.025-.055.034-.055a.054.054,0,0,1,.049.041.291.291,0,0,1-.051.224c-.026.047,0,.122.034.219a.715.715,0,0,1,.042.506.984.984,0,0,0,.036.565c.012.044.023.086.032.126.04.18.075.661-.218.736Zm.119-2.419h0c-.015,0-.025.018-.026.047a.207.207,0,0,1-.077.163q-.066.066,0,.28a.652.652,0,0,1-.008.557.441.441,0,0,0-.027.459c.071.166.247.746.089.886.256-.1.221-.546.184-.717-.008-.038-.019-.081-.031-.126a.973.973,0,0,1-.036-.569.716.716,0,0,0-.042-.5c-.036-.1-.063-.177-.034-.228a.274.274,0,0,0,.051-.217.045.045,0,0,0-.038-.034m-1.41,1.484h-.016v-.01a.069.069,0,0,0,.081-.044c.016-.033.026-.053.07-.055s.11-.016.123-.047c.056-.03.085-.038.112-.09.056-.122.093-.2.193-.234a.329.329,0,0,0-.166.195c-.048.1-.081.11-.1.117a.224.224,0,0,1-.159.068.058.058,0,0,0-.057.043c-.021.041-.045.059-.078.059m.149-.816-.005-.007a.482.482,0,0,1,.118-.071.323.323,0,0,0,.128-.089c-.011.04-.066.067-.123.1a.469.469,0,0,0-.117.07m.171-.288c-.019,0-.041,0-.067-.005a1,1,0,0,0-.111-.007v-.008a.645.645,0,0,1,.112.007c.052,0,.1.01.111-.007,0,.015-.019.021-.045.021m.35,0c.018-.058.077-.122.215-.122v.01a.214.214,0,0,0-.215.112m-.069-.052a.071.071,0,0,0-.021-.069.109.109,0,0,1-.025-.1c.019-.081.022-.092-.052-.112-.04-.011-.04-.037-.04-.067a.113.113,0,0,0-.047-.107.1.1,0,0,1-.033-.058.1.1,0,0,0-.08-.081l0-.01a.107.107,0,0,1,.085.088.092.092,0,0,0,.03.053.123.123,0,0,1,.051.114c0,.03,0,.049.033.058.08.023.078.038.058.125a.1.1,0,0,0,.025.1.06.06,0,0,1,.012.074" transform="translate(-1072.81 -340.053)"/>
      <path id="Tracciato_9971" data-name="Tracciato 9971" d="M1142.464,487.958c.048.07,0,.144.08.174s.012.16.125.206,0,.158.108.211-.016.16.112.225-.025.208.071.265-.032.2.079.256-.048.169.056.248-.023.2.081.273-.064.169.04.271c.079.081-.029.159.033.281.04.08-.041.4-.266.369a.607.607,0,0,1-.5.217c-.114.08-.473.192-.658.015-.184.177-.544.064-.657-.015a.608.608,0,0,1-.5-.217c-.225.032-.3-.289-.265-.369.06-.122-.048-.2.033-.281.1-.1-.064-.2.04-.271s-.025-.193.08-.273-.056-.192.056-.248-.017-.2.081-.256-.056-.2.071-.265.016-.176.112-.225.008-.173.108-.211.029-.17.123-.206.03-.107.082-.177a2.222,2.222,0,0,0,1.281,0" transform="translate(-1120.681 -475.403)" fill="#43a748"/>
      <path id="Tracciato_9972" data-name="Tracciato 9972" d="M1141.924,490.965a.388.388,0,0,1-.274-.095c-.138.144-.525.078-.657-.017a.62.62,0,0,1-.431-.137.666.666,0,0,0,.432.129c.115.08.5.166.655.018a.658.658,0,0,0,.658-.016.591.591,0,0,0,.5-.215.231.231,0,0,0,.217-.114.334.334,0,0,0,.049-.25.218.218,0,0,1-.011-.156.117.117,0,0,0-.021-.123.129.129,0,0,1-.021-.155c.015-.045.029-.084-.019-.117s-.048-.089-.042-.138a.127.127,0,0,0-.037-.136c-.055-.041-.041-.092-.027-.137s.023-.084-.029-.11-.055-.085-.048-.139.011-.093-.033-.119-.037-.075-.027-.122.022-.108-.044-.141a.119.119,0,0,1-.07-.132c0-.038,0-.071-.042-.093a.112.112,0,0,1-.059-.118c0-.04,0-.075-.049-.093a.119.119,0,0,1-.071-.115c0-.04-.01-.074-.052-.089s-.053-.055-.056-.092a.167.167,0,0,0-.025-.085,1.314,1.314,0,0,1-.561.1,2.377,2.377,0,0,1-.719-.1.2.2,0,0,0-.022.086c0,.037-.007.073-.056.092s-.048.049-.053.089a.117.117,0,0,1-.071.115c-.047.018-.047.053-.048.093a.113.113,0,0,1-.06.118c-.041.022-.041.055-.041.093a.122.122,0,0,1-.071.132c-.064.033-.053.088-.042.141s.019.1-.029.122-.038.071-.033.119.014.108-.047.139-.042.064-.029.11.027.1-.027.137a.13.13,0,0,0-.038.136.126.126,0,0,1-.041.138c-.049.033-.036.071-.021.115a.131.131,0,0,1-.019.156.115.115,0,0,0-.022.123.217.217,0,0,1-.01.156.332.332,0,0,0,.048.25.215.215,0,0,0,.181.114l0,0a.218.218,0,0,1-.192-.114.334.334,0,0,1-.049-.258.206.206,0,0,0,.01-.15.127.127,0,0,1,.023-.133.122.122,0,0,0,.018-.147c-.015-.045-.03-.089.023-.126s.044-.081.038-.129a.133.133,0,0,1,.041-.143c.049-.038.037-.085.023-.129s-.026-.09.034-.121.049-.077.042-.129-.012-.1.037-.128.033-.066.023-.114-.023-.115.049-.151a.11.11,0,0,0,.064-.122c0-.038,0-.078.047-.1s.053-.067.055-.11,0-.082.055-.1.06-.064.066-.107.01-.08.058-.1.048-.045.051-.084a.178.178,0,0,1,.029-.092,2.484,2.484,0,0,0,.721.1,1.35,1.35,0,0,0,.562-.095.15.15,0,0,1,.032.091c0,.038.007.067.051.084s.053.059.059.1.01.085.066.107.052.063.053.1a.106.106,0,0,0,.055.11c.047.025.047.064.047.1a.113.113,0,0,0,.066.122c.071.036.059.1.048.151s-.018.089.025.114.043.078.036.128-.011.1.044.129.047.075.033.121-.026.091.023.129a.134.134,0,0,1,.042.143c-.007.048-.012.095.038.129s.038.081.022.128a.12.12,0,0,0,.018.145.124.124,0,0,1,.025.133.2.2,0,0,0,.01.15.334.334,0,0,1-.049.258.224.224,0,0,1-.189.119.734.734,0,0,1-.536.214.743.743,0,0,1-.385.11" transform="translate(-1120.511 -475.301)"/>
      <path id="Tracciato_9973" data-name="Tracciato 9973" d="M1153.079,502.73a.166.166,0,0,1-.034.117c-.071.095.033.144-.047.248s.015.167-.073.256.016.169-.073.265.017.159-.071.248.015.184-.073.272.016.2-.079.3.015.185-.064.265-.008.16-.064.217c.1-.071.1-.185.169-.24s-.025-.137.016-.177.008-.208.08-.288.008-.241.073-.3.015-.225.1-.281,0-.192.064-.265,0-.184.063-.272,0-.169.048-.241c.021-.032.021-.263-.03-.132" transform="translate(-1132.48 -489.755)" fill="#f0c126"/>
      <path id="Tracciato_9974" data-name="Tracciato 9974" d="M1152.4,504.729l-.005-.007a.1.1,0,0,0,.022-.086.153.153,0,0,1,.043-.13.118.118,0,0,0,.026-.114.16.16,0,0,1,.037-.151.191.191,0,0,0,.042-.159.162.162,0,0,1,.038-.145.144.144,0,0,0,.034-.133.155.155,0,0,1,.037-.14.118.118,0,0,0,.036-.117.143.143,0,0,1,.037-.13.151.151,0,0,0,.034-.133.141.141,0,0,1,.038-.133.132.132,0,0,0,.037-.121.177.177,0,0,1,.034-.136.135.135,0,0,0,.026-.126.128.128,0,0,1,.022-.122.163.163,0,0,0,.033-.112v0l.03-.041a.264.264,0,0,1,.008.18.171.171,0,0,0-.016.1.2.2,0,0,1-.031.139.224.224,0,0,0-.032.14.183.183,0,0,1-.033.133.174.174,0,0,0-.025.127c0,.052,0,.107-.04.139a.2.2,0,0,0-.054.147.2.2,0,0,1-.042.133c-.03.026-.03.077-.031.13a.25.25,0,0,1-.041.166.313.313,0,0,0-.052.181.216.216,0,0,1-.027.108c-.015.015-.008.037,0,.064s.026.078-.018.111a.255.255,0,0,0-.069.1.334.334,0,0,1-.1.138m.606-2.228a.514.514,0,0,1-.06.152.121.121,0,0,0-.021.114.145.145,0,0,1-.027.134.156.156,0,0,0-.032.129.139.139,0,0,1-.041.128.132.132,0,0,0-.034.125.158.158,0,0,1-.037.14.132.132,0,0,0-.036.123.132.132,0,0,1-.037.125.144.144,0,0,0-.034.133.155.155,0,0,1-.037.14.158.158,0,0,0-.037.139.2.2,0,0,1-.044.166.149.149,0,0,0-.036.143.125.125,0,0,1-.029.122.15.15,0,0,0-.04.123.14.14,0,0,1-.005.064.369.369,0,0,0,.073-.114.263.263,0,0,1,.071-.106c.038-.03.026-.066.015-.1s-.019-.055,0-.074a.191.191,0,0,0,.025-.1.331.331,0,0,1,.055-.185.233.233,0,0,0,.038-.16.184.184,0,0,1,.036-.137.2.2,0,0,0,.038-.126.211.211,0,0,1,.058-.155c.04-.027.038-.078.036-.13a.184.184,0,0,1,.027-.133.176.176,0,0,0,.031-.128.226.226,0,0,1,.033-.144.194.194,0,0,0,.03-.134.158.158,0,0,1,.018-.106.347.347,0,0,0,0-.163" transform="translate(-1132.377 -489.56)"/>
      <path id="Tracciato_9975" data-name="Tracciato 9975" d="M1172.219,508.1c-.055.1.041.127-.031.232s.04.185-.04.289.04.159-.032.265.032.159-.033.24.048.16-.032.256.032.169-.033.256.025.184-.032.256.04.176-.04.271.015.16-.033.225c.1-.032.06-.164.1-.192s-.011-.212.045-.261-.037-.2.015-.26c.089-.108.012-.18.064-.265s-.019-.192.021-.248c.067-.1-.03-.182.019-.252.073-.1-.014-.182.037-.248.075-.1-.008-.2.023-.252s.084-.277-.016-.313" transform="translate(-1151.391 -495.021)" fill="#f0c126"/>
      <path id="Tracciato_9976" data-name="Tracciato 9976" d="M1171.472,510.291l.01-.011a.09.09,0,0,0,.005-.084.14.14,0,0,1,.026-.141.171.171,0,0,0,.026-.154.147.147,0,0,1,.014-.118.136.136,0,0,0,.014-.114.172.172,0,0,1,.019-.143.124.124,0,0,0,.011-.115.141.141,0,0,1,.021-.141.139.139,0,0,0,.021-.137.125.125,0,0,1,.012-.119.1.1,0,0,0,.012-.1.148.148,0,0,1,.019-.137.129.129,0,0,0,.012-.126.142.142,0,0,1,.019-.14.152.152,0,0,0,.022-.143.176.176,0,0,1,.018-.145.118.118,0,0,0,.021-.117.138.138,0,0,1,.012-.115.075.075,0,0,1,.055.053.4.4,0,0,1-.032.265.108.108,0,0,0,0,.078.2.2,0,0,1-.025.174.12.12,0,0,0-.011.1.181.181,0,0,1-.025.152.121.121,0,0,0-.005.1.168.168,0,0,1-.014.149.144.144,0,0,0-.007.1.211.211,0,0,1-.014.147.168.168,0,0,0-.019.1.2.2,0,0,1-.045.16c-.025.03-.015.082-.005.132s.019.1-.011.129-.029.093-.029.154,0,.093-.016.107a.106.106,0,0,0-.018.062c-.007.049-.016.111-.079.132Zm.315-2.3a.139.139,0,0,0,0,.107.13.13,0,0,1-.022.123.163.163,0,0,0-.018.138.166.166,0,0,1-.022.151.126.126,0,0,0-.018.13.137.137,0,0,1-.015.133.14.14,0,0,0-.016.13.114.114,0,0,1-.015.111.115.115,0,0,0-.011.111.148.148,0,0,1-.022.145.131.131,0,0,0-.019.133.134.134,0,0,1-.012.123.17.17,0,0,0-.018.136.148.148,0,0,1-.014.121.134.134,0,0,0-.012.111.183.183,0,0,1-.029.16.128.128,0,0,0-.023.133.113.113,0,0,1,0,.08.138.138,0,0,0,.06-.119.115.115,0,0,1,.022-.067c.015-.011.014-.053.014-.1,0-.062,0-.132.031-.16s.016-.07.007-.119-.019-.107.008-.14a.194.194,0,0,0,.044-.153.166.166,0,0,1,.019-.11.2.2,0,0,0,.012-.143.154.154,0,0,1,.008-.107.157.157,0,0,0,.014-.143.128.128,0,0,1,.006-.11.171.171,0,0,0,.025-.145.128.128,0,0,1,.012-.1.19.19,0,0,0,.023-.166.124.124,0,0,1,0-.086.393.393,0,0,0,.031-.255.071.071,0,0,0-.045-.051" transform="translate(-1150.96 -494.917)"/>
      <path id="Tracciato_9977" data-name="Tracciato 9977" d="M1194.921,509.557c-.056.14.041.195.008.307s.041.195-.008.315.064.214,0,.373.042.2,0,.354c-.048.181.081.277,0,.406s.092.17.008.3c-.04.064,0,.229.069.031s-.048-.219.008-.3-.021-.292,0-.4-.058-.265,0-.384-.081-.25-.029-.352-.025-.233.025-.317-.037-.2-.016-.245-.021-.225-.064-.088" transform="translate(-1173.78 -496.395)" fill="#f0c126"/>
      <path id="Tracciato_9978" data-name="Tracciato 9978" d="M1194.774,511.556l-.021-.015a.142.142,0,0,1,.005-.118.131.131,0,0,0,0-.151.134.134,0,0,1-.005-.154.211.211,0,0,0,.01-.188.4.4,0,0,1-.01-.217.281.281,0,0,0-.005-.165.251.251,0,0,1,.005-.189.306.306,0,0,0,0-.21.265.265,0,0,1,0-.163.3.3,0,0,0,.008-.171.322.322,0,0,1,0-.145.206.206,0,0,0-.01-.126.245.245,0,0,1,0-.18c.012-.037.025-.055.038-.055a.169.169,0,0,1,.034.147.141.141,0,0,0,.011.081.2.2,0,0,1,0,.163.24.24,0,0,0-.01.144.3.3,0,0,1-.014.173.22.22,0,0,0,.014.165.262.262,0,0,1,.015.188.384.384,0,0,0,0,.219.451.451,0,0,1,.008.164.584.584,0,0,0,.005.181.372.372,0,0,1-.011.225.086.086,0,0,0,0,.09.294.294,0,0,1,0,.21c-.022.063-.043.1-.062.1m.015-2.231c-.011,0-.019.011-.03.042a.228.228,0,0,0,0,.174.215.215,0,0,1,.008.133.3.3,0,0,0,0,.14.306.306,0,0,1-.01.177.235.235,0,0,0,0,.156.322.322,0,0,1,0,.215.25.25,0,0,0-.005.184.288.288,0,0,1,.005.17.38.38,0,0,0,.011.211.227.227,0,0,1-.011.195.127.127,0,0,0,0,.145.138.138,0,0,1,0,.16.126.126,0,0,0-.005.108l.012.01c.005,0,.026-.005.053-.09a.282.282,0,0,0,0-.2.093.093,0,0,1,.006-.1.383.383,0,0,0,.01-.218.658.658,0,0,1-.007-.184.436.436,0,0,0-.008-.162.4.4,0,0,1,.006-.225.265.265,0,0,0-.015-.182.219.219,0,0,1-.014-.17.289.289,0,0,0,.012-.167.246.246,0,0,1,.012-.15.2.2,0,0,0-.005-.156.142.142,0,0,1-.011-.088.19.19,0,0,0-.015-.125l-.011,0" transform="translate(-1173.614 -496.204)"/>
      <path id="Tracciato_9979" data-name="Tracciato 9979" d="M1173.786,445.991c0-.905-.129-1.218-.6-1.218s-.6.313-.6,1.218Z" transform="translate(-1152.043 -433.341)" fill="#d91e39"/>
      <path id="Tracciato_9980" data-name="Tracciato 9980" d="M1151.556,448.756a.362.362,0,0,0-.008-.166.246.246,0,0,1,.008-.181.155.155,0,0,0-.01-.154.136.136,0,0,1,0-.152.212.212,0,0,0,.01-.188.4.4,0,0,1-.01-.217.269.269,0,0,0-.007-.165.259.259,0,0,1,.007-.189.306.306,0,0,0,0-.21.265.265,0,0,1,0-.163.3.3,0,0,0,.008-.171.322.322,0,0,1,0-.145.206.206,0,0,0-.01-.126.244.244,0,0,1,0-.18.418.418,0,0,0,0-.225.594.594,0,0,1,0-.232l.008,0a.548.548,0,0,0,.005.228.418.418,0,0,1-.005.229.229.229,0,0,0,0,.174.215.215,0,0,1,.008.133.328.328,0,0,0,0,.141.3.3,0,0,1-.008.176.235.235,0,0,0,0,.156.322.322,0,0,1,0,.215.244.244,0,0,0-.005.184.288.288,0,0,1,.005.17.38.38,0,0,0,.011.211.227.227,0,0,1-.011.195.125.125,0,0,0,0,.144.166.166,0,0,1,.01.162.239.239,0,0,0-.008.176.276.276,0,0,1,0,.167m.677-.044a.329.329,0,0,0-.067-.155.1.1,0,0,1-.008-.092.129.129,0,0,0-.025-.133.183.183,0,0,1-.027-.16.14.14,0,0,0-.012-.111.143.143,0,0,1-.015-.121.16.16,0,0,0-.018-.136.134.134,0,0,1-.011-.123.131.131,0,0,0-.021-.133.144.144,0,0,1-.021-.145.119.119,0,0,0-.011-.111.111.111,0,0,1-.015-.111.137.137,0,0,0-.018-.13.14.14,0,0,1-.014-.133.126.126,0,0,0-.018-.13.163.163,0,0,1-.023-.151.158.158,0,0,0-.016-.138.126.126,0,0,1-.022-.123.129.129,0,0,0-.011-.11.134.134,0,0,1-.007-.118.1.1,0,0,0-.016-.106.1.1,0,0,1-.015-.115.123.123,0,0,0,.005-.084h-.551a.143.143,0,0,0,.005.084.1.1,0,0,1-.015.115.092.092,0,0,0-.015.106.131.131,0,0,1-.008.118.128.128,0,0,0-.01.11.13.13,0,0,1-.022.123.163.163,0,0,0-.018.138.166.166,0,0,1-.022.151.126.126,0,0,0-.018.13.137.137,0,0,1-.015.133.14.14,0,0,0-.016.13.115.115,0,0,1-.015.111.115.115,0,0,0-.011.111.148.148,0,0,1-.022.145.131.131,0,0,0-.019.133.134.134,0,0,1-.012.123.17.17,0,0,0-.018.136.143.143,0,0,1-.015.121.134.134,0,0,0-.011.111.183.183,0,0,1-.029.16.129.129,0,0,0-.023.133.1.1,0,0,1-.008.092.241.241,0,0,0-.059.152c-.018-.041.015-.11.052-.158a.09.09,0,0,0,.005-.084.139.139,0,0,1,.026-.141.171.171,0,0,0,.026-.154.147.147,0,0,1,.014-.118.136.136,0,0,0,.014-.114.171.171,0,0,1,.019-.143.124.124,0,0,0,.011-.115.141.141,0,0,1,.021-.141.139.139,0,0,0,.021-.137.125.125,0,0,1,.012-.119.1.1,0,0,0,.012-.1.148.148,0,0,1,.019-.137.129.129,0,0,0,.012-.126.142.142,0,0,1,.019-.14.152.152,0,0,0,.022-.143.175.175,0,0,1,.018-.145.118.118,0,0,0,.021-.117.138.138,0,0,1,.012-.115.123.123,0,0,0,.005-.111.1.1,0,0,1,.018-.114.1.1,0,0,0,.014-.107.139.139,0,0,1-.007-.086h-.173a.166.166,0,0,0,0,.045.158.158,0,0,1-.037.137.172.172,0,0,0-.045.134.18.18,0,0,1-.036.123.121.121,0,0,0-.021.114.145.145,0,0,1-.027.134.156.156,0,0,0-.032.129.139.139,0,0,1-.041.128.132.132,0,0,0-.034.125.157.157,0,0,1-.037.14.132.132,0,0,0-.036.123.132.132,0,0,1-.037.125.145.145,0,0,0-.034.133.154.154,0,0,1-.037.14.158.158,0,0,0-.037.139.2.2,0,0,1-.044.166.149.149,0,0,0-.036.143.125.125,0,0,1-.029.122.15.15,0,0,0-.04.123.111.111,0,0,1-.023.092.142.142,0,0,0-.04.163c-.034-.033-.023-.112.033-.169a.1.1,0,0,0,.022-.086.153.153,0,0,1,.043-.13.118.118,0,0,0,.026-.114.159.159,0,0,1,.037-.151.19.19,0,0,0,.042-.158.163.163,0,0,1,.038-.147.145.145,0,0,0,.034-.133.154.154,0,0,1,.037-.14.118.118,0,0,0,.036-.117.143.143,0,0,1,.037-.13.151.151,0,0,0,.034-.133.141.141,0,0,1,.038-.133.132.132,0,0,0,.037-.121.177.177,0,0,1,.034-.136.135.135,0,0,0,.026-.126.128.128,0,0,1,.022-.122.168.168,0,0,0,.033-.117.184.184,0,0,1,.048-.14.152.152,0,0,0,.034-.132.247.247,0,0,1,0-.045h-.134c0-.941.137-1.226.6-1.226s.606.285.606,1.222l0,0h-.134a.247.247,0,0,1,0,.045.152.152,0,0,0,.034.132.182.182,0,0,1,.047.14.166.166,0,0,0,.034.118.132.132,0,0,1,.022.121.135.135,0,0,0,.026.126.175.175,0,0,1,.034.136.125.125,0,0,0,.037.121.144.144,0,0,1,.037.133.147.147,0,0,0,.036.133.143.143,0,0,1,.037.13.12.12,0,0,0,.034.117.155.155,0,0,1,.037.14.145.145,0,0,0,.036.133.171.171,0,0,1,.038.147.189.189,0,0,0,.041.158.157.157,0,0,1,.038.151.115.115,0,0,0,.026.114.153.153,0,0,1,.042.13.1.1,0,0,0,.022.086.15.15,0,0,1,.04.173.165.165,0,0,0-.047-.166.111.111,0,0,1-.025-.093.141.141,0,0,0-.04-.123.122.122,0,0,1-.027-.122.15.15,0,0,0-.037-.143.2.2,0,0,1-.044-.166.157.157,0,0,0-.036-.139.155.155,0,0,1-.037-.14.144.144,0,0,0-.034-.133.129.129,0,0,1-.038-.125.134.134,0,0,0-.034-.123.157.157,0,0,1-.037-.14.133.133,0,0,0-.036-.125.138.138,0,0,1-.04-.128.167.167,0,0,0-.031-.129.146.146,0,0,1-.029-.134.121.121,0,0,0-.021-.114.185.185,0,0,1-.034-.123.178.178,0,0,0-.045-.134.158.158,0,0,1-.037-.137.244.244,0,0,0,0-.045h-.173a.138.138,0,0,1-.007.086.1.1,0,0,0,.014.107.1.1,0,0,1,.018.114.125.125,0,0,0,.007.111.143.143,0,0,1,.012.115.114.114,0,0,0,.019.117.171.171,0,0,1,.019.145.152.152,0,0,0,.021.143.138.138,0,0,1,.019.14.13.13,0,0,0,.014.126.147.147,0,0,1,.018.137.1.1,0,0,0,.014.1.125.125,0,0,1,.012.119.135.135,0,0,0,.019.137.138.138,0,0,1,.022.141.121.121,0,0,0,.011.115.177.177,0,0,1,.019.143.136.136,0,0,0,.012.114.141.141,0,0,1,.014.118.18.18,0,0,0,.026.154.139.139,0,0,1,.026.141c-.007.032-.014.058.007.084a.253.253,0,0,1,.06.16m-.681-4.087c-.457,0-.6.284-.6,1.213h.13a.121.121,0,0,1,.038-.075l.007.007a.109.109,0,0,0-.036.069h.173a.225.225,0,0,1,.023-.042l.008.007a.1.1,0,0,0-.021.036h.546a.132.132,0,0,0-.021-.034l.008-.007a.152.152,0,0,1,.022.041h.176a.124.124,0,0,0-.036-.064l.005-.007a.119.119,0,0,1,.038.071h.13c0-.927-.14-1.209-.6-1.209" transform="translate(-1130.411 -433.188)"/>
      <path id="Tracciato_9981" data-name="Tracciato 9981" d="M1172.584,445.991c0-.905.128-1.218.6-1.218a.415.415,0,0,0-.384.28c-.037.112-.016.106.031.06s.025.052-.015.1-.081.2-.025.152.1.008.04.092-.111.281-.052.213.073.044.037.1-.033.1,0,.081.027.092,0,.136Z" transform="translate(-1152.043 -433.341)"/>
      <path id="Tracciato_9982" data-name="Tracciato 9982" d="M1172.812,445.842h-.232c0-.941.137-1.226.6-1.226a.427.427,0,0,0-.38.285c-.021.062-.021.081-.016.085s.031-.021.041-.029a.026.026,0,0,1,.012.005c-.034.026-.045.032-.053.032s-.015-.026.008-.1a.419.419,0,0,1,.362-.281c-.436.019-.57.31-.57,1.22l.222,0a.178.178,0,0,0,.023-.082.12.12,0,0,1-.018.089Zm-.055-.3c-.023-.033.023-.171.067-.233a.118.118,0,0,0,.027-.078.085.085,0,0,1-.019.082.452.452,0,0,0-.077.218l.053-.033a.054.054,0,0,1,.012.018h0Z" transform="translate(-1152.04 -433.188)"/>
      <path id="Tracciato_9983" data-name="Tracciato 9983" d="M1200.239,451.467c0-.709-.088-.921-.263-.994-.1-.04-.1-.032-.055.033s.04.156,0,.092-.059-.075-.077-.048.051.16.1.28c.041.1.014.145-.048.049s-.063-.01-.008.071a1.41,1.41,0,0,1,.068.553Z" transform="translate(-1178.589 -438.87)"/>
      <path id="Tracciato_9984" data-name="Tracciato 9984" d="M1199.772,451.457v-.018a1.346,1.346,0,0,0-.068-.537.167.167,0,0,1-.038-.115c.021-.007.034.008.053.038.031.047.047.051.051.051s.011-.047-.01-.095l-.038-.085c-.049-.11-.08-.177-.064-.2a.065.065,0,0,1,.021-.005c-.025.033.015.119.052.2l.038.084a.139.139,0,0,1,.015.1c-.031.01-.055-.022-.071-.047s-.036-.041-.037-.041a.161.161,0,0,0,.037.107,1.378,1.378,0,0,1,.069.543l0,.008.282-.036c0-.735-.1-.917-.266-.984a.262.262,0,0,0-.074-.025c-.007.007.016.038.025.049a.141.141,0,0,1,.03.112c-.01-.007-.018-.015-.026-.021.025-.007.015-.051-.011-.086s-.034-.051-.03-.059c.023-.007.047,0,.09.019.169.07.266.255.266,1Z" transform="translate(-1178.41 -438.818)"/>
      <path id="Tracciato_9985" data-name="Tracciato 9985" d="M1170.18,485.361a1.6,1.6,0,0,0,.533-.088c.165-.064.173-.121.116-.192-.041-.049-.129-.019-.213.016a1.611,1.611,0,0,1-.873,0c-.085-.036-.173-.066-.213-.016-.058.071-.048.128.116.192a1.6,1.6,0,0,0,.532.088" transform="translate(-1149.039 -472.579)" fill="#d91e39"/>
      <path id="Tracciato_9986" data-name="Tracciato 9986" d="M1170.015,485.293a1.623,1.623,0,0,1-.535-.088c-.09-.036-.137-.07-.148-.108a.106.106,0,0,1,.03-.09c.038-.047.137-.021.218.016a1.636,1.636,0,0,0,.871,0c.081-.037.18-.063.217-.016s.038.064.03.09-.058.073-.148.108a1.616,1.616,0,0,1-.535.088m-.586-.306a.071.071,0,0,0-.06.026.1.1,0,0,0-.029.081c.01.036.056.069.144.1a1.8,1.8,0,0,0,1.063,0c.088-.034.133-.067.143-.1a.09.09,0,0,0-.029-.081c-.036-.045-.129-.018-.207.016a1.591,1.591,0,0,1-.878,0,.42.42,0,0,0-.147-.042" transform="translate(-1148.874 -472.506)"/>
      <path id="Tracciato_9987" data-name="Tracciato 9987" d="M1266.188,448.272l.213.369c.09.155.165.191.23.144s.01-.173-.042-.232-.341-.343-.341-.343Z" transform="translate(-1243.219 -436.689)" fill="#ab5929"/>
      <path id="Tracciato_9988" data-name="Tracciato 9988" d="M1266.37,448.7c-.055,0-.114-.055-.18-.167l-.214-.367.06-.067c.007,0,.3.281.35.341a.287.287,0,0,1,.073.185.08.08,0,0,1-.032.055.1.1,0,0,1-.057.021m-.333-.6-.052.062.215.362c.063.108.119.16.17.16a.081.081,0,0,0,.051-.018.069.069,0,0,0,.027-.048.272.272,0,0,0-.07-.177c-.053-.06-.341-.341-.341-.341" transform="translate(-1243.013 -436.585)"/>
      <path id="Tracciato_9989" data-name="Tracciato 9989" d="M1265.027,449.833s.049.244.085.422.094.237.171.217.063-.159.033-.233-.214-.443-.214-.443Z" transform="translate(-1242.088 -438.234)" fill="#ab5929"/>
      <path id="Tracciato_9990" data-name="Tracciato 9990" d="M1265.1,450.275c-.069,0-.117-.074-.147-.225l-.085-.422.077-.044c.008,0,.191.37.221.446a.278.278,0,0,1,.01.2.072.072,0,0,1-.045.04Zm-.156-.683-.068.04.088.415c.029.147.074.217.137.217v.005l.027-.008a.063.063,0,0,0,.038-.034.272.272,0,0,0-.009-.193c-.03-.075-.213-.441-.213-.441" transform="translate(-1241.932 -438.027)"/>
      <path id="Tracciato_9991" data-name="Tracciato 9991" d="M1263.019,450.765v.432c0,.181.045.252.125.249s.093-.143.078-.222-.121-.48-.121-.48Z" transform="translate(-1240.132 -439.157)" fill="#ab5929"/>
      <path id="Tracciato_9992" data-name="Tracciato 9992" d="M1262.984,451.3c-.084,0-.123-.084-.123-.255v-.432l.085-.025c.005,0,.112.4.127.483a.281.281,0,0,1-.031.2.07.07,0,0,1-.052.029Zm-.042-.706-.075.023,0,.428c0,.165.037.244.114.244v.005l.005-.005a.055.055,0,0,0,.044-.025.27.27,0,0,0,.029-.192c-.014-.08-.121-.478-.121-.478" transform="translate(-1239.978 -439.005)"/>
      <path id="Tracciato_9993" data-name="Tracciato 9993" d="M1263.019,438.509c.226,0,.252-.085.252-.085s.049-.17.025-.212-.277-.044-.277-.044Z" transform="translate(-1240.132 -426.908)" fill="#ab5929"/>
      <path id="Tracciato_9994" data-name="Tracciato 9994" d="M1262.755,438.4v-.348c.034-.007.263-.005.289.04s-.019.2-.025.219c0,0-.029.086-.258.089Zm.007-.341.007.328c.211,0,.239-.08.239-.08a.48.48,0,0,0,.026-.208c-.018-.029-.175-.04-.271-.04" transform="translate(-1239.875 -426.792)"/>
      <path id="Tracciato_9995" data-name="Tracciato 9995" d="M1263.019,431.953c.243,0,.284-.085.284-.085s.081-.171.041-.214-.325-.043-.325-.043Z" transform="translate(-1240.132 -420.522)" fill="#ab5929"/>
      <path id="Tracciato_9996" data-name="Tracciato 9996" d="M1262.865,431.843l0-.005V431.5a.787.787,0,0,1,.332.038c.044.045-.036.212-.038.219s-.045.089-.289.089m0-.341.005.33c.232,0,.274-.081.274-.082.022-.047.073-.175.041-.208a.907.907,0,0,0-.321-.04" transform="translate(-1239.978 -420.406)"/>
      <path id="Tracciato_9997" data-name="Tracciato 9997" d="M1263.019,425.4a.606.606,0,0,0,.325-.085s.079-.17.04-.213-.365-.043-.365-.043Z" transform="translate(-1240.132 -414.137)" fill="#ab5929"/>
      <path id="Tracciato_9998" data-name="Tracciato 9998" d="M1262.864,425.3l0-.005v-.34a.967.967,0,0,1,.373.038c.043.045-.037.212-.04.219a.6.6,0,0,1-.329.088m0-.34,0,.329a.6.6,0,0,0,.317-.084c.019-.044.07-.173.04-.206a1.075,1.075,0,0,0-.361-.04" transform="translate(-1239.978 -414.03)"/>
      <path id="Tracciato_9999" data-name="Tracciato 9999" d="M1268.3,348.515a2.887,2.887,0,0,1,.553-.428c.351-.213.606-.377.653-.34a2.841,2.841,0,0,1-.553.426c-.251.17-.553.426-.553.426Z" transform="translate(-1245.28 -338.827)" fill="#ab5929"/>
      <path id="Tracciato_10000" data-name="Tracciato 10000" d="M1268.3,348.392l-.1-.089a2.443,2.443,0,0,1,.553-.433l.122-.075a2.049,2.049,0,0,1,.516-.273.03.03,0,0,1,0,.011,2.163,2.163,0,0,0-.513.27l-.121.074a3,3,0,0,0-.553.426l.1.077c.032-.027.314-.265.55-.425a5,5,0,0,0,.511-.376,3.334,3.334,0,0,1-.506.384c-.248.169-.549.424-.551.426Z" transform="translate(-1245.178 -338.612)"/>
      <path id="Tracciato_10001" data-name="Tracciato 10001" d="M1269.2,368.45a5.541,5.541,0,0,1,.578-.3,1.576,1.576,0,0,1,.905-.085,6.536,6.536,0,0,0-.8.171,5.4,5.4,0,0,0-.58.3Z" transform="translate(-1246.157 -358.593)" fill="#ab5929"/>
      <path id="Tracciato_10002" data-name="Tracciato 10002" d="M1269.2,368.382l-.1-.088a3.505,3.505,0,0,1,.58-.307,1.957,1.957,0,0,1,.677-.118c.025,0,.233,0,.233.037a.574.574,0,0,1-.213.045,2.351,2.351,0,0,0-.594.13,5.493,5.493,0,0,0-.579.3Zm1.155-.5a1.939,1.939,0,0,0-.673.119,5.173,5.173,0,0,0-.579.3l.1.075a5.833,5.833,0,0,1,.577-.3,2.386,2.386,0,0,1,.6-.13.767.767,0,0,0,.206-.038.52.52,0,0,0-.225-.026" transform="translate(-1246.053 -358.432)"/>
      <path id="Tracciato_10003" data-name="Tracciato 10003" d="M1269.308,384.9a5.04,5.04,0,0,1,.579-.212,1.575,1.575,0,0,1,.935,0c-.051.042-.483.016-.784.085a3.522,3.522,0,0,0-.629.214Z" transform="translate(-1246.258 -374.747)" fill="#ab5929"/>
      <path id="Tracciato_10004" data-name="Tracciato 10004" d="M1269.253,384.79l-.1-.088a3.323,3.323,0,0,1,.581-.221,1.688,1.688,0,0,1,.5-.069c.221,0,.446.037.446.073a.679.679,0,0,1-.27.037,3.159,3.159,0,0,0-.517.052,3.641,3.641,0,0,0-.629.214Zm.974-.368a1.71,1.71,0,0,0-.492.067,4.952,4.952,0,0,0-.579.214l.1.075a3.6,3.6,0,0,1,.627-.214,3.379,3.379,0,0,1,.52-.053.83.83,0,0,0,.263-.03,1.128,1.128,0,0,0-.439-.059" transform="translate(-1246.104 -374.547)"/>
      <path id="Tracciato_10005" data-name="Tracciato 10005" d="M1270.047,398.771a1.2,1.2,0,0,1,.629-.213.979.979,0,0,1,.784.255c-.051.043-.453-.188-.754-.155a1.366,1.366,0,0,0-.559.2Z" transform="translate(-1246.978 -388.32)" fill="#ab5929"/>
      <path id="Tracciato_10006" data-name="Tracciato 10006" d="M1269.994,398.685l-.1-.086a1.125,1.125,0,0,1,.633-.222.987.987,0,0,1,.789.261.469.469,0,0,1-.2-.04,1.314,1.314,0,0,0-.553-.11,1.365,1.365,0,0,0-.558.2Zm.627-.3c-.031,0-.063,0-.1,0a1.21,1.21,0,0,0-.628.212l.1.075a1.394,1.394,0,0,1,.559-.2,1.466,1.466,0,0,1,.557.11.8.8,0,0,0,.177.049.864.864,0,0,0-.666-.255" transform="translate(-1246.825 -388.144)"/>
      <path id="Tracciato_10007" data-name="Tracciato 10007" d="M1263.019,416.887c.365,0,.365-.11.365-.11s.081-.17.04-.214a1.342,1.342,0,0,0-.4-.018Z" transform="translate(-1240.132 -405.839)" fill="#ab5929"/>
      <path id="Tracciato_10008" data-name="Tracciato 10008" d="M1262.86,416.7v-.347a1.151,1.151,0,0,1,.21-.012c.178,0,.2.021.2.027.042.044-.036.211-.038.219s0,.108-.37.112Zm.21-.348c-.1,0-.2.007-.2.007l0,.33c.348,0,.354-.1.354-.1.023-.049.074-.177.042-.21-.008-.01-.045-.023-.2-.023" transform="translate(-1239.978 -405.643)"/>
      <path id="Tracciato_10009" data-name="Tracciato 10009" d="M1263.019,410.55c.365,0,.4-.086.4-.086s.082-.17.041-.214a1.737,1.737,0,0,0-.446-.043Z" transform="translate(-1240.132 -399.672)" fill="#ab5929"/>
      <path id="Tracciato_10010" data-name="Tracciato 10010" d="M1262.861,410.469v-.347a1.463,1.463,0,0,1,.454.04c.042.045-.037.213-.04.219s-.045.085-.41.088Zm0-.341.005.332c.35-.006.395-.082.395-.084.022-.047.073-.174.041-.207a1.556,1.556,0,0,0-.442-.041" transform="translate(-1239.978 -399.587)"/>
      <path id="Tracciato_10011" data-name="Tracciato 10011" d="M1263.019,402.353c.365,0,.446-.086.446-.086s.081-.17.041-.213a2.049,2.049,0,0,0-.487-.043Z" transform="translate(-1240.132 -391.69)" fill="#ab5929"/>
      <path id="Tracciato_10012" data-name="Tracciato 10012" d="M1262.861,402.274v-.347a1.689,1.689,0,0,1,.494.038c.043.045-.036.213-.038.219s-.088.085-.451.089Zm0-.341.005.33c.352,0,.436-.084.437-.084.021-.045.07-.174.04-.207a1.912,1.912,0,0,0-.483-.04" transform="translate(-1239.978 -391.604)"/>
      <path id="Tracciato_10013" data-name="Tracciato 10013" d="M1263.019,394.11a.971.971,0,0,0,.487-.085s.04-.17,0-.214a2.052,2.052,0,0,0-.487-.042Z" transform="translate(-1240.132 -383.66)" fill="#ab5929"/>
      <path id="Tracciato_10014" data-name="Tracciato 10014" d="M1262.861,394.029v-.347a1.639,1.639,0,0,1,.494.04c.043.044,0,.211,0,.218a.907.907,0,0,1-.491.089Zm0-.341.005.33a.969.969,0,0,0,.477-.084s.037-.166,0-.206a1.835,1.835,0,0,0-.483-.041" transform="translate(-1239.978 -383.574)"/>
      <path id="Tracciato_10015" data-name="Tracciato 10015" d="M1266.188,340.3s.322-.214.322-.385a1.01,1.01,0,0,0-.182-.426c.081,0,.265.256.265.426,0,.188-.3.47-.3.47Z" transform="translate(-1243.219 -330.787)" fill="#ab5929"/>
      <path id="Tracciato_10016" data-name="Tracciato 10016" d="M1266.135,340.491l-.1-.089c0-.01.322-.221.322-.388a.7.7,0,0,0-.136-.343c-.019-.031-.037-.06-.047-.081.086,0,.273.259.273.424,0,.188-.293.462-.306.473Zm.04-.9a.377.377,0,0,1,.051.073.718.718,0,0,1,.137.348c0,.171-.312.38-.326.388l.1.075c.03-.029.3-.289.3-.463s-.182-.421-.259-.421" transform="translate(-1243.066 -330.887)"/>
      <path id="Tracciato_10017" data-name="Tracciato 10017" d="M1264.644,335.511a1.4,1.4,0,0,1-.041-.385.791.791,0,0,1,.243-.554c.016.066-.162.3-.162.554a2.869,2.869,0,0,0,.06.47Z" transform="translate(-1241.675 -325.999)" fill="#ab5929"/>
      <path id="Tracciato_10018" data-name="Tracciato 10018" d="M1264.6,335.454l-.111-.095a1.415,1.415,0,0,1-.041-.388.786.786,0,0,1,.244-.558c.015.03-.008.081-.04.149a1.022,1.022,0,0,0-.115.409,2.944,2.944,0,0,0,.06.469Zm.09-1.035a.807.807,0,0,0-.233.553,1.489,1.489,0,0,0,.04.384l.089.074a2.743,2.743,0,0,1-.058-.458,1.015,1.015,0,0,1,.115-.413.351.351,0,0,0,.047-.14" transform="translate(-1241.521 -325.844)"/>
      <path id="Tracciato_10019" data-name="Tracciato 10019" d="M1263.019,385.866a.978.978,0,0,0,.487-.086s0-.17-.041-.212a1.684,1.684,0,0,0-.446-.044Z" transform="translate(-1240.132 -375.628)" fill="#ab5929"/>
      <path id="Tracciato_10020" data-name="Tracciato 10020" d="M1262.861,385.808v-.348a1.5,1.5,0,0,1,.454.04c.041.044.041.21.041.217a.887.887,0,0,1-.491.092Zm0-.343.005.332a.953.953,0,0,0,.477-.085s0-.164-.041-.206a1.607,1.607,0,0,0-.442-.041" transform="translate(-1239.978 -375.565)"/>
      <path id="Tracciato_10021" data-name="Tracciato 10021" d="M1263.019,377.67c.365,0,.446-.085.446-.085s0-.171-.041-.214a1.441,1.441,0,0,0-.4-.043Z" transform="translate(-1240.132 -367.647)" fill="#ab5929"/>
      <path id="Tracciato_10022" data-name="Tracciato 10022" d="M1262.861,377.592v-.347a1.222,1.222,0,0,1,.413.04c.042.042.042.208.042.217s-.088.088-.451.09Zm0-.341.005.33c.351,0,.435-.082.436-.084s0-.166-.04-.206a1.308,1.308,0,0,0-.4-.041" transform="translate(-1239.978 -367.562)"/>
      <path id="Tracciato_10023" data-name="Tracciato 10023" d="M1264.072,357.836a3.081,3.081,0,0,1-.162-.9c0-.24.075-1.408.081-1.877s-.284-.724-.568-.724a.393.393,0,0,0-.4.426h.122a.284.284,0,0,1,.282-.3c.244,0,.431.2.446.6.018.458-.048,1.645-.04,1.964a1.671,1.671,0,0,0,.243.81" transform="translate(-1240.132 -345.252)" fill="#ab5929"/>
      <path id="Tracciato_10024" data-name="Tracciato 10024" d="M1264.037,357.329a1.7,1.7,0,0,1-.245-.817c0-.137.007-.437.018-.771.015-.437.033-.932.022-1.192-.014-.361-.18-.586-.432-.586a.272.272,0,0,0-.269.287l-.136.012a.4.4,0,0,1,.4-.452.53.53,0,0,1,.377.163.794.794,0,0,1,.2.575c0,.259-.029.732-.049,1.144-.018.333-.033.627-.033.733a3.11,3.11,0,0,0,.162.891Zm-.638-3.391c.269,0,.444.234.459.61.01.26-.007.757-.022,1.194-.012.332-.022.631-.018.768a1.656,1.656,0,0,0,.162.661,3.676,3.676,0,0,1-.108-.746c0-.107.015-.4.033-.735.021-.411.045-.883.048-1.142a.767.767,0,0,0-.2-.555.5.5,0,0,0-.358-.156.382.382,0,0,0-.391.414l.108-.014a.276.276,0,0,1,.282-.3" transform="translate(-1240.108 -344.739)" fill="#f0c126"/>
      <path id="Tracciato_10025" data-name="Tracciato 10025" d="M1242.151,448.272s-.123.214-.214.369-.163.191-.229.144-.01-.173.042-.232.341-.343.341-.343Z" transform="translate(-1219.345 -436.689)" fill="#ab5929"/>
      <path id="Tracciato_10026" data-name="Tracciato 10026" d="M1241.566,448.652a.1.1,0,0,1-.058-.021.076.076,0,0,1-.032-.055.287.287,0,0,1,.073-.185c.052-.06.341-.343.341-.343l.067.063-.213.373c-.066.112-.125.167-.18.167m.325-.6c0,.007-.281.283-.333.341a.265.265,0,0,0-.07.177.067.067,0,0,0,.026.048c.068.048.138,0,.222-.143l.214-.369Z" transform="translate(-1219.148 -436.532)"/>
      <path id="Tracciato_10027" data-name="Tracciato 10027" d="M1263.019,369.877a.484.484,0,0,1,.406.241l-.081.08c-.044.044-.325.044-.321.042Z" transform="translate(-1240.132 -360.388)" fill="#ab5929"/>
      <path id="Tracciato_10028" data-name="Tracciato 10028" d="M1262.876,370.231l-.012,0,0-.365a.458.458,0,0,1,.413.234l-.081.09c-.044.044-.306.044-.317.044m-.011-.363.01.358v-.005a.866.866,0,0,0,.31-.04l.081-.081a.484.484,0,0,0-.4-.232" transform="translate(-1239.978 -360.373)"/>
      <path id="Tracciato_10029" data-name="Tracciato 10029" d="M1249.315,449.833s-.048.244-.084.422-.095.237-.171.217-.063-.159-.033-.233.214-.443.214-.443Z" transform="translate(-1226.48 -438.234)" fill="#ab5929"/>
      <path id="Tracciato_10030" data-name="Tracciato 10030" d="M1248.881,450.378l-.029,0a.074.074,0,0,1-.047-.04.287.287,0,0,1,.011-.2c.03-.075.213-.443.213-.443l.082.036-.082.428c-.03.151-.078.225-.148.225m.151-.68c0,.005-.177.365-.206.439a.272.272,0,0,0-.011.193.069.069,0,0,0,.04.034l.026,0c.063,0,.108-.07.138-.217l.085-.421Z" transform="translate(-1226.274 -438.131)"/>
      <path id="Tracciato_10031" data-name="Tracciato 10031" d="M1255.253,450.765s0,.25,0,.432-.045.252-.123.249-.093-.143-.078-.222.121-.48.121-.48Z" transform="translate(-1232.367 -439.157)" fill="#ab5929"/>
      <path id="Tracciato_10032" data-name="Tracciato 10032" d="M1254.913,451.4h0a.075.075,0,0,1-.053-.029.282.282,0,0,1-.03-.2c.015-.08.122-.48.122-.48l.086.016,0,.437c0,.171-.04.255-.125.255m.038-.7c0,.006-.1.4-.116.474a.285.285,0,0,0,.029.192.057.057,0,0,0,.045.025l0,.005v-.005c.077,0,.115-.079.115-.244v-.432Z" transform="translate(-1232.146 -439.108)"/>
      <path id="Tracciato_10033" data-name="Tracciato 10033" d="M1252.391,438.509c-.226,0-.251-.085-.251-.085s-.051-.17-.025-.212.276-.044.276-.044Z" transform="translate(-1229.505 -426.908)" fill="#ab5929"/>
      <path id="Tracciato_10034" data-name="Tracciato 10034" d="M1252.171,438.256h-.007c-.228,0-.256-.086-.256-.089-.005-.018-.051-.176-.025-.219s.255-.047.281-.047Zm-.014-.348c-.088.007-.245.018-.263.047a.478.478,0,0,0,.026.208s.027.075.237.079Z" transform="translate(-1229.278 -426.647)"/>
      <path id="Tracciato_10035" data-name="Tracciato 10035" d="M1250.455,431.953c-.243,0-.282-.085-.282-.085s-.081-.171-.041-.214.324-.043.324-.043Z" transform="translate(-1227.569 -420.522)" fill="#ab5929"/>
      <path id="Tracciato_10036" data-name="Tracciato 10036" d="M1250.271,431.754h-.005c-.243,0-.286-.085-.288-.089s-.081-.174-.04-.219.317-.044.328-.044Zm-.01-.347a1.018,1.018,0,0,0-.315.045c-.031.033.019.162.041.208,0,0,.042.081.274.082Z" transform="translate(-1227.379 -420.317)"/>
      <path id="Tracciato_10037" data-name="Tracciato 10037" d="M1248.937,425.4a.6.6,0,0,1-.324-.085s-.081-.17-.04-.213.363-.043.363-.043Z" transform="translate(-1226.051 -414.137)" fill="#ab5929"/>
      <path id="Tracciato_10038" data-name="Tracciato 10038" d="M1248.753,425.2h-.005a.6.6,0,0,1-.326-.086c-.005-.008-.083-.176-.041-.221a1.11,1.11,0,0,1,.367-.044Zm-.324-.093a.612.612,0,0,0,.314.082v-.335a1.18,1.18,0,0,0-.355.045c-.032.033.019.162.041.207" transform="translate(-1225.861 -413.933)"/>
      <path id="Tracciato_10039" data-name="Tracciato 10039" d="M1212.531,348.515a2.887,2.887,0,0,0-.553-.428c-.352-.213-.606-.377-.653-.34a2.793,2.793,0,0,0,.552.426c.251.17.553.426.553.426Z" transform="translate(-1189.781 -338.827)" fill="#ab5929"/>
      <path id="Tracciato_10040" data-name="Tracciato 10040" d="M1212.225,348.762l0,0s-.3-.258-.551-.426a2.318,2.318,0,0,1-.555-.431.066.066,0,0,1,.023,0c-.012.015.042.086.537.422.234.159.517.4.55.425l.1-.084a3.554,3.554,0,0,0-.553-.42l-.126-.077a3.217,3.217,0,0,0-.474-.263,2.445,2.445,0,0,1,.479.255l.128.078a2.821,2.821,0,0,1,.552.426Z" transform="translate(-1189.574 -338.983)"/>
      <path id="Tracciato_10041" data-name="Tracciato 10041" d="M1201.182,368.45a5.5,5.5,0,0,0-.58-.3,1.571,1.571,0,0,0-.9-.085,6.578,6.578,0,0,1,.8.171,5.4,5.4,0,0,1,.58.3Z" transform="translate(-1178.454 -358.593)" fill="#ab5929"/>
      <path id="Tracciato_10042" data-name="Tracciato 10042" d="M1200.978,368.382l0,0a5.479,5.479,0,0,0-.579-.3,2.347,2.347,0,0,0-.6-.13.643.643,0,0,1-.21-.042c0-.04.207-.04.23-.04a1.959,1.959,0,0,1,.679.118,5.554,5.554,0,0,1,.58.3Zm-1.156-.5c-.155,0-.222.019-.222.029a.933.933,0,0,0,.2.036,2.36,2.36,0,0,1,.6.13,5.656,5.656,0,0,1,.577.3l.1-.082c-.011,0-.211-.125-.577-.291a1.94,1.94,0,0,0-.675-.119" transform="translate(-1178.351 -358.432)"/>
      <path id="Tracciato_10043" data-name="Tracciato 10043" d="M1199.943,384.9a5.053,5.053,0,0,0-.579-.212,1.575,1.575,0,0,0-.935,0c.051.042.483.016.784.085a3.522,3.522,0,0,1,.629.214Z" transform="translate(-1177.218 -374.747)" fill="#ab5929"/>
      <path id="Tracciato_10044" data-name="Tracciato 10044" d="M1199.689,384.79h0a3.6,3.6,0,0,0-.628-.214,3.16,3.16,0,0,0-.517-.052.763.763,0,0,1-.27-.034c0-.038.225-.075.446-.075a1.694,1.694,0,0,1,.5.069,5.716,5.716,0,0,1,.58.212Zm-.972-.368a.988.988,0,0,0-.437.063,1.037,1.037,0,0,0,.262.026,3.188,3.188,0,0,1,.518.055,3.34,3.34,0,0,1,.628.213l.1-.084a5.9,5.9,0,0,0-.579-.206,1.7,1.7,0,0,0-.491-.067" transform="translate(-1177.065 -374.547)"/>
      <path id="Tracciato_10045" data-name="Tracciato 10045" d="M1202.964,398.771a1.21,1.21,0,0,0-.629-.213.977.977,0,0,0-.784.255c.051.043.452-.188.754-.155a1.368,1.368,0,0,1,.56.2Z" transform="translate(-1180.258 -388.32)" fill="#ab5929"/>
      <path id="Tracciato_10046" data-name="Tracciato 10046" d="M1203.581,398.683h0a1.373,1.373,0,0,0-.558-.2,1.3,1.3,0,0,0-.553.11.808.808,0,0,1-.18.051.031.031,0,0,1,0-.011.872.872,0,0,0,.178-.049,1.471,1.471,0,0,1,.557-.11,1.373,1.373,0,0,1,.56.2l.1-.082a1.24,1.24,0,0,0-.628-.206,1.1,1.1,0,0,0-.714.188,1.055,1.055,0,0,1,.716-.2,1.222,1.222,0,0,1,.633.215Z" transform="translate(-1180.976 -388.143)"/>
      <path id="Tracciato_10047" data-name="Tracciato 10047" d="M1247.418,416.887c-.365,0-.363-.11-.363-.11s-.081-.17-.041-.214a1.345,1.345,0,0,1,.4-.018Z" transform="translate(-1224.531 -405.839)" fill="#ab5929"/>
      <path id="Tracciato_10048" data-name="Tracciato 10048" d="M1247.239,416.7h-.005c-.365,0-.369-.111-.369-.115s-.082-.173-.038-.217c.005-.007.025-.027.2-.027.1,0,.207.007.207.007Zm-.211-.348c-.149,0-.186.014-.195.023-.031.033.019.16.041.207,0,0,.007.1.355.107v-.336s-.1,0-.2,0" transform="translate(-1224.347 -405.643)"/>
      <path id="Tracciato_10049" data-name="Tracciato 10049" d="M1245.9,410.55c-.365,0-.4-.086-.4-.086s-.081-.17-.04-.214a1.72,1.72,0,0,1,.444-.043Z" transform="translate(-1223.013 -399.672)" fill="#ab5929"/>
      <path id="Tracciato_10050" data-name="Tracciato 10050" d="M1245.714,410.348h-.005c-.363,0-.407-.085-.409-.088s-.082-.174-.04-.219a1.647,1.647,0,0,1,.448-.045Zm-.01-.347a1.748,1.748,0,0,0-.437.047c-.03.033.021.16.042.207,0,0,.045.078.395.084Z" transform="translate(-1222.822 -399.466)"/>
      <path id="Tracciato_10051" data-name="Tracciato 10051" d="M1244.38,402.353c-.365,0-.444-.086-.444-.086s-.081-.17-.041-.213a2.039,2.039,0,0,1,.485-.043Z" transform="translate(-1221.494 -391.69)" fill="#ab5929"/>
      <path id="Tracciato_10052" data-name="Tracciato 10052" d="M1244.2,402.154h-.005c-.362,0-.446-.084-.448-.088s-.082-.176-.041-.221a1.9,1.9,0,0,1,.49-.044Zm-.446-.093s.085.078.436.082v-.336a2.128,2.128,0,0,0-.477.045c-.031.033.019.162.041.208" transform="translate(-1221.303 -391.485)"/>
      <path id="Tracciato_10053" data-name="Tracciato 10053" d="M1244.13,394.11a.961.961,0,0,1-.485-.085s-.04-.17,0-.214a2.042,2.042,0,0,1,.485-.042Z" transform="translate(-1221.243 -383.66)" fill="#ab5929"/>
      <path id="Tracciato_10054" data-name="Tracciato 10054" d="M1243.936,393.907h-.005a.949.949,0,0,1-.488-.086c0-.01-.042-.177,0-.221a1.836,1.836,0,0,1,.49-.045Zm-.485-.092a1.022,1.022,0,0,0,.476.081v-.336a2.03,2.03,0,0,0-.477.047c-.038.04,0,.206,0,.208" transform="translate(-1221.044 -383.452)"/>
      <path id="Tracciato_10055" data-name="Tracciato 10055" d="M1244.711,340.3s-.324-.214-.324-.385a1.008,1.008,0,0,1,.184-.426c-.081,0-.265.256-.265.426,0,.188.3.47.3.47Z" transform="translate(-1221.906 -330.787)" fill="#ab5929"/>
      <path id="Tracciato_10056" data-name="Tracciato 10056" d="M1244.456,340.234l0,0c-.014-.011-.306-.285-.306-.473,0-.165.181-.431.269-.431a.288.288,0,0,1-.044.088.714.714,0,0,0-.134.343c0,.167.318.379.321.381Zm-.045-.9a.578.578,0,0,0-.254.428c0,.174.267.433.3.463l.1-.082c-.012,0-.325-.21-.325-.381a.712.712,0,0,1,.136-.347.728.728,0,0,0,.047-.081" transform="translate(-1221.751 -330.63)"/>
      <path id="Tracciato_10057" data-name="Tracciato 10057" d="M1252.292,335.511a1.4,1.4,0,0,0,.041-.385.791.791,0,0,0-.243-.554c-.016.066.16.3.16.554a2.93,2.93,0,0,1-.059.47Z" transform="translate(-1229.486 -325.999)" fill="#ab5929"/>
      <path id="Tracciato_10058" data-name="Tracciato 10058" d="M1251.972,335.556l0-.014a3,3,0,0,0,.059-.469,1.024,1.024,0,0,0-.114-.409.319.319,0,0,1-.048-.147.753.753,0,0,1,.252.555,1.5,1.5,0,0,1-.04.387Zm-.1-1.034a.611.611,0,0,0,.055.138,1.039,1.039,0,0,1,.115.413,2.73,2.73,0,0,1-.058.458l.091-.077a1.555,1.555,0,0,0,.038-.381.775.775,0,0,0-.241-.551" transform="translate(-1229.274 -325.946)"/>
      <path id="Tracciato_10059" data-name="Tracciato 10059" d="M1244.792,385.866a.968.968,0,0,1-.485-.086s0-.17.041-.212a1.667,1.667,0,0,1,.444-.044Z" transform="translate(-1221.906 -375.628)" fill="#ab5929"/>
      <path id="Tracciato_10060" data-name="Tracciato 10060" d="M1244.661,385.716h-.005a.988.988,0,0,1-.488-.086.45.45,0,0,1,.04-.222,1.643,1.643,0,0,1,.448-.044Zm-.485-.092a1.068,1.068,0,0,0,.476.081v-.337a1.816,1.816,0,0,0-.437.047c-.037.041-.038.206-.038.21" transform="translate(-1221.769 -375.473)"/>
      <path id="Tracciato_10061" data-name="Tracciato 10061" d="M1246.337,377.67c-.365,0-.444-.085-.444-.085s0-.171.04-.214a1.447,1.447,0,0,1,.4-.043Z" transform="translate(-1223.451 -367.647)" fill="#ab5929"/>
      <path id="Tracciato_10062" data-name="Tracciato 10062" d="M1246.174,377.471h-.005c-.362,0-.446-.084-.448-.088s0-.177.041-.219a1.377,1.377,0,0,1,.407-.045Zm-.444-.09s.088.077.435.08v-.336a1.462,1.462,0,0,0-.4.047c-.038.04-.038.206-.038.21" transform="translate(-1223.281 -367.442)"/>
      <path id="Tracciato_10063" data-name="Tracciato 10063" d="M1222.479,357.836a3.084,3.084,0,0,0,.162-.9c0-.24-.075-1.408-.081-1.877s.284-.724.566-.724a.393.393,0,0,1,.4.426h-.122a.284.284,0,0,0-.282-.3c-.243,0-.429.2-.444.6-.018.458.048,1.645.04,1.964a1.672,1.672,0,0,1-.243.81" transform="translate(-1200.644 -345.252)" fill="#ab5929"/>
      <path id="Tracciato_10064" data-name="Tracciato 10064" d="M1222.025,357.329l-.023-.012a3.1,3.1,0,0,0,.161-.891c0-.108-.015-.4-.032-.74-.022-.41-.045-.879-.049-1.137a.794.794,0,0,1,.2-.575.527.527,0,0,1,.376-.163.406.406,0,0,1,.418.44l-.136.012a.294.294,0,0,0-.282-.3c-.252,0-.417.225-.432.586-.01.259.007.754.022,1.192.012.333.022.633.019.771a1.706,1.706,0,0,1-.245.817m.636-3.492a.5.5,0,0,0-.356.156.762.762,0,0,0-.2.555c0,.258.027.725.048,1.134.018.337.033.635.033.743a3.6,3.6,0,0,1-.11.746,1.655,1.655,0,0,0,.163-.661c0-.137-.007-.436-.018-.768-.015-.437-.031-.934-.022-1.194.015-.376.191-.61.458-.61a.3.3,0,0,1,.3.313l.108-.014a.4.4,0,0,0-.4-.4" transform="translate(-1200.179 -344.739)" fill="#f0c126"/>
      <path id="Tracciato_10065" data-name="Tracciato 10065" d="M1247.83,369.877a.48.48,0,0,0-.4.241l.081.08c.044.044.324.044.321.042Z" transform="translate(-1224.943 -360.388)" fill="#ab5929"/>
      <path id="Tracciato_10066" data-name="Tracciato 10066" d="M1247.665,370.039c-.011,0-.274,0-.318-.044l-.081-.079a.47.47,0,0,1,.409-.251v.369Zm.005-.369a.482.482,0,0,0-.394.24l.078.078a.86.86,0,0,0,.31.04v.005l.005-.005Z" transform="translate(-1224.788 -360.182)"/>
      <rect id="Rettangolo_884" data-name="Rettangolo 884" width="20.683" height="10.343" transform="translate(-9.879 -0.107)" fill="#231e60"/>
      <path id="Tracciato_10067" data-name="Tracciato 10067" d="M0,0V1.156l18.371,9.187h2.312V9.185L2.312,0ZM20.683,0V1.156L2.312,10.343H0V9.185L18.371,0Z" transform="translate(-9.879 -0.107)" fill="#fff"/>
      <path id="Tracciato_10068" data-name="Tracciato 10068" d="M8.618,10.342h3.447V0H8.618ZM0,6.9H20.683V3.448H0Z" transform="translate(-9.879 -0.108)" fill="#fff"/>
      <path id="Tracciato_10069" data-name="Tracciato 10069" d="M0,6.207H20.683V4.138H0Zm9.307,4.135h2.068V0H9.307Z" transform="translate(-9.879 -0.108)" fill="#b92026"/>
      <path id="Tracciato_10070" data-name="Tracciato 10070" d="M0,10.342,6.894,6.9H8.435L1.541,10.342ZM0,0,6.894,3.448H5.353L0,.772ZM12.247,3.448,19.141,0h1.541L13.788,3.448Zm8.435,6.894L13.788,6.9H15.33l5.353,2.678Z" transform="translate(-9.879 -0.108)" fill="#b92026"/>
    </g>
  </g>
</svg>
