<svg xmlns="http://www.w3.org/2000/svg" xmlns:xlink="http://www.w3.org/1999/xlink" width="24" height="23.989" viewBox="0 0 24 23.989">
  <defs>
    <clipPath id="clip-path">
      <path id="Tracciato_4322" data-name="Tracciato 4322" d="M.589,12.744A12,12,0,1,0,12.594.749,12,12,0,0,0,.589,12.744" transform="translate(-0.589 -0.749)" fill="none"/>
    </clipPath>
  </defs>
  <g id="Isole_Vergini_Americane" data-name="Isole Vergini Americane" transform="translate(-0.589 -0.749)">
    <g id="Raggruppa_172" data-name="Raggruppa 172" transform="translate(0.589 0.749)" clip-path="url(#clip-path)">
      <rect id="Rettangolo_383" data-name="Rettangolo 383" width="36.672" height="24.054" transform="translate(-6.336 -0.032)" fill="#fff"/>
      <path id="Tracciato_4205" data-name="Tracciato 4205" d="M1.495,2.49,2.571,3.5l.28-.29-1.043-.99c-.312-.151-.57.032-.312.269" transform="translate(7.219 13.076)" fill="#008500"/>
      <path id="Tracciato_4206" data-name="Tracciato 4206" d="M2.583,3.552H2.572L1.5,2.53c-.151-.14-.108-.247-.086-.28.054-.086.226-.129.42-.032h.011l1.043,1,.011.011v.022l-.29.3ZM1.529,2.5l1.054,1,.258-.258L1.809,2.261c-.172-.075-.312-.054-.355.022-.043.054-.011.129.075.215" transform="translate(7.206 13.047)"/>
      <path id="Tracciato_4207" data-name="Tracciato 4207" d="M1.608,2.781l.441-.387a.331.331,0,0,0-.463-.1.324.324,0,0,0,.022.484" transform="translate(8.182 13.796)" fill="#008500"/>
      <path id="Tracciato_4208" data-name="Tracciato 4208" d="M1.626,2.821H1.615a.362.362,0,0,1-.129-.28.3.3,0,0,1,.1-.237A.321.321,0,0,1,1.83,2.24a.4.4,0,0,1,.258.161l-.011.032-.43.387Zm.151-.538a.264.264,0,0,0-.161.054.259.259,0,0,0-.086.2.31.31,0,0,0,.1.226l.409-.355a.346.346,0,0,0-.215-.129H1.776" transform="translate(8.163 13.777)"/>
      <path id="Tracciato_4209" data-name="Tracciato 4209" d="M4.494,4.839a.412.412,0,0,0-.43.194c-.043.054-.086.151-.161.118-.054-.022-.054-.1-.022-.14A.61.61,0,0,1,4.02,4.9a.419.419,0,0,0,.151-.323A1.057,1.057,0,0,0,4.1,4.215c-.011.075-.1.086-.161.108-.2.1-.14.43-.3.592l-.086.043c-.1.011-.14-.129-.1-.215a.739.739,0,0,1,.2-.2.536.536,0,0,0,.151-.484c-.151-.022-.333-.032-.43.086a1.056,1.056,0,0,0-.086.194.186.186,0,0,1-.151.118c-.1,0-.14-.118-.108-.2a.338.338,0,0,1,.194-.172.86.86,0,0,0,.237-.14A.484.484,0,0,0,3.5,3.452c-.086.108-.247.065-.377.1-.151.032-.247.183-.333.312a.192.192,0,0,1-.1-.237.4.4,0,0,1,.194-.2.955.955,0,0,0,.237-.172.647.647,0,0,0,.054-.581c-.032.129-.215.129-.323.2s-.118.226-.215.312L2.6,3.2l-.043-.022c-.054-.065-.011-.172.054-.237a.488.488,0,0,0,.161-.2c.065-.2-.237-.366-.194-.57-.14-.022-.247.129-.258.269s.022.28.011.42c-.1,0-.161-.108-.172-.2s.011-.194,0-.28A.55.55,0,0,0,1.9,1.967a1.349,1.349,0,0,0-.452-.215c.118.129.043.333.054.516.032.29.3.495.538.656a.2.2,0,0,1-.269-.011c-.086-.065-.151-.151-.247-.172L1.363,2.72a.308.308,0,0,1-.2-.118.509.509,0,0,0,.032.495.625.625,0,0,0,.43.258c.108.022.226.011.333.032A.3.3,0,0,1,2.2,3.6v.054l-.032.032a.3.3,0,0,1-.312-.022,1.188,1.188,0,0,0-.28-.161c-.129-.043-.29-.022-.387-.118a.629.629,0,0,0,.764.753.582.582,0,0,1,.3-.032.2.2,0,0,1,.065.355.347.347,0,0,1-.377-.032A1.035,1.035,0,0,0,1.6,4.259c.108.032.1.172.108.28a.386.386,0,0,0,.247.333.4.4,0,0,0,.409-.032c.086-.065.172-.161.28-.14l.086.054a.314.314,0,0,1-.054.452.609.609,0,0,1-.312.075.6.6,0,0,1-.43-.086.651.651,0,0,0,.409.473.666.666,0,0,0,.355.022.53.53,0,0,0,.183-.065c.043-.043.043-.086.118-.086a.132.132,0,0,1,.118.075.149.149,0,0,1-.032.172.361.361,0,0,1-.161.1.66.66,0,0,1-.355-.022.3.3,0,0,0,.215.28A.515.515,0,0,0,3.16,6.1.913.913,0,0,1,3.4,6a1.241,1.241,0,0,1,.28.011.686.686,0,0,0,.473-.161.716.716,0,0,0,.237-.269.83.83,0,0,0,.108-.742" transform="translate(4.489 9.038)" fill="#008500"/>
      <path id="Tracciato_4210" data-name="Tracciato 4210" d="M2.925,6.2,2.8,6.182a.33.33,0,0,1-.237-.3l.011-.022h.022a.628.628,0,0,0,.344.022.294.294,0,0,0,.151-.086.137.137,0,0,0,.032-.151.094.094,0,0,0-.1-.065l-.075.043-.032.043a.621.621,0,0,1-.183.065.64.64,0,0,1-.377-.022.681.681,0,0,1-.42-.484l.011-.032.032.011a.566.566,0,0,0,.409.075.524.524,0,0,0,.3-.075A.253.253,0,0,0,2.8,5.01a.26.26,0,0,0-.065-.215l-.075-.054c-.065-.011-.129.043-.194.1l-.054.043a.462.462,0,0,1-.441.043.443.443,0,0,1-.258-.355L1.7,4.515c0-.1-.011-.194-.075-.2L1.6,4.278l.022-.022a.7.7,0,0,1,.269.129l.086.054c.054.032.226.118.344.032A.2.2,0,0,0,2.4,4.289a.189.189,0,0,0-.129-.14.38.38,0,0,0-.215.022l-.065.022a.707.707,0,0,1-.624-.183.686.686,0,0,1-.183-.6L1.2,3.385h.022a.335.335,0,0,0,.237.086l.151.032a.872.872,0,0,1,.194.108l.086.065a.311.311,0,0,0,.29.022L2.2,3.676V3.622a.286.286,0,0,0-.226-.183L1.8,3.417l-.151-.011a.713.713,0,0,1-.452-.28.521.521,0,0,1-.032-.516L1.172,2.6h.022a.311.311,0,0,0,.194.118l.065.011.1.011a.537.537,0,0,1,.183.118l.075.054a.224.224,0,0,0,.226.043c-.247-.172-.506-.377-.527-.667V2.116a.4.4,0,0,0-.054-.323V1.761l.032-.011a1.928,1.928,0,0,1,.452.215A.6.6,0,0,1,2.2,2.4a.606.606,0,0,1,0,.14.608.608,0,0,0,0,.14.19.19,0,0,0,.129.172l-.011-.172L2.312,2.46a.4.4,0,0,1,.129-.247A.231.231,0,0,1,2.6,2.17h.011l.011.022a.379.379,0,0,0,.1.269.443.443,0,0,1,.108.312c-.022.075-.086.118-.14.172l-.043.043c-.054.054-.1.151-.043.2l.011.011.043-.011.086-.151a.451.451,0,0,1,.129-.161l.14-.075c.075-.032.151-.054.172-.118L3.2,2.664l.022.022a.624.624,0,0,1-.065.592.623.623,0,0,1-.183.151l-.054.032a.4.4,0,0,0-.183.194.21.21,0,0,0,.011.14l.054.054a.648.648,0,0,1,.333-.3l.151-.011c.086-.011.172-.011.215-.075l.022-.011.022.011a.538.538,0,0,1-.054.516A.721.721,0,0,1,3.3,4.1l-.043.022a.333.333,0,0,0-.183.161.136.136,0,0,0,.011.129l.075.043a.163.163,0,0,0,.129-.108l.022-.065.065-.129c.1-.129.28-.118.452-.1l.022.022a.554.554,0,0,1-.161.506l-.065.054a.394.394,0,0,0-.129.14.184.184,0,0,0,0,.151l.075.032.065-.043a.474.474,0,0,0,.118-.269c.032-.129.065-.258.194-.312L4,4.31c.043-.022.086-.032.1-.075l.022-.022.022.022a1.008,1.008,0,0,1,.075.366.468.468,0,0,1-.151.344l-.054.032-.086.065L3.9,5.128l.032.032c.043.011.086-.054.129-.118a.411.411,0,0,1,.452-.2l.022.011a.9.9,0,0,1-.108.775,1.025,1.025,0,0,1-.247.269.706.706,0,0,1-.484.172l-.1-.011a.525.525,0,0,0-.183-.011l-.161.065-.065.032a.654.654,0,0,1-.269.065m-.312-.29a.274.274,0,0,0,.2.226A.476.476,0,0,0,3.173,6.1l.065-.022A.469.469,0,0,1,3.42,6a1.164,1.164,0,0,1,.194,0L3.7,6.01a.7.7,0,0,0,.463-.151,1.011,1.011,0,0,0,.226-.269A.831.831,0,0,0,4.5,4.88a.4.4,0,0,0-.387.183c-.043.065-.1.172-.194.14l-.054-.065a.141.141,0,0,1,.032-.129l.086-.075L4.033,4.9a.4.4,0,0,0,.14-.3.933.933,0,0,0-.054-.3l-.108.054-.043.022c-.108.043-.14.161-.172.28a.639.639,0,0,1-.118.29L3.571,5a.094.094,0,0,1-.108-.054.181.181,0,0,1-.011-.194.469.469,0,0,1,.14-.151l.065-.054A.544.544,0,0,0,3.807,4.1c-.151-.022-.312-.022-.387.086L3.355,4.3l-.022.065c-.032.065-.1.14-.172.14l-.118-.065a.243.243,0,0,1-.022-.172.373.373,0,0,1,.215-.194l.043-.022a.746.746,0,0,0,.183-.108.432.432,0,0,0,.054-.42.392.392,0,0,1-.226.054l-.14.011a.649.649,0,0,0-.312.3L2.818,3.9a.171.171,0,0,1-.108-.086A.268.268,0,0,1,2.7,3.633a.443.443,0,0,1,.2-.215l.043-.032a.464.464,0,0,0,.183-.14.509.509,0,0,0,.065-.484.468.468,0,0,1-.161.086l-.14.065-.108.151a.405.405,0,0,1-.1.161l-.065.032-.065-.032c-.065-.075-.022-.194.054-.269L2.667,2.9c.043-.043.1-.086.108-.14.032-.1-.032-.183-.1-.269a.453.453,0,0,1-.108-.28l-.1.043a.345.345,0,0,0-.108.2,1.3,1.3,0,0,0,0,.2.741.741,0,0,1,.011.215L2.355,2.9a.221.221,0,0,1-.194-.215.407.407,0,0,1,0-.161V2.4a.557.557,0,0,0-.247-.387,1.28,1.28,0,0,0-.387-.183.656.656,0,0,1,.032.29l-.011.172c.032.28.29.473.538.645v.032c-.075.086-.215.054-.312-.011L1.7,2.89a.426.426,0,0,0-.161-.108l-.086-.011H1.376a.389.389,0,0,1-.194-.108.5.5,0,0,0,.054.441.6.6,0,0,0,.42.247l.14.022a.6.6,0,0,1,.194.022.315.315,0,0,1,.258.215v.075L2.2,3.729a.3.3,0,0,1-.333-.022l-.1-.065a.984.984,0,0,0-.183-.1l-.14-.032a.548.548,0,0,1-.226-.065.658.658,0,0,0,.172.527.613.613,0,0,0,.581.161l.065-.011a.447.447,0,0,1,.237-.022.225.225,0,0,1,.075.4.361.361,0,0,1-.4-.022l-.086-.054-.151-.1.032.183v.043a.431.431,0,0,0,.237.323.387.387,0,0,0,.387-.043l.054-.043a.294.294,0,0,1,.237-.1l.108.065a.307.307,0,0,1,.065.258.276.276,0,0,1-.129.226.594.594,0,0,1-.323.075A.758.758,0,0,1,2,5.278a.612.612,0,0,0,.377.387.74.74,0,0,0,.344.022.507.507,0,0,0,.161-.065l.032-.032a.129.129,0,0,1,.108-.054.155.155,0,0,1,.14.086.2.2,0,0,1-.032.2.423.423,0,0,1-.183.1.587.587,0,0,1-.333-.011" transform="translate(4.465 9.018)"/>
      <path id="Tracciato_4211" data-name="Tracciato 4211" d="M1.408,2.452l-.022-.011L1.4,2.409a.855.855,0,0,0,.194-.151.244.244,0,0,0,.065-.172l.022-.022.032.022a.35.35,0,0,1-.086.2.592.592,0,0,1-.2.161Z" transform="translate(7.188 12.092)"/>
      <path id="Tracciato_4212" data-name="Tracciato 4212" d="M1.384,2.381,1.362,2.37l.011-.032a.368.368,0,0,0,.151-.312L1.545,2l.022.022a.454.454,0,0,1-.172.355Z" transform="translate(6.954 11.497)"/>
      <path id="Tracciato_4213" data-name="Tracciato 4213" d="M1.336,2.307,1.325,2.3l-.011-.032.226-.28h.032v.032l-.215.28-.022.011" transform="translate(6.486 11.305)"/>
      <path id="Tracciato_4214" data-name="Tracciato 4214" d="M1.3,2.328l-.022-.011.011-.032a.491.491,0,0,1,.172-.118l.054-.032.1-.054a.152.152,0,0,0,.086-.129l.022-.022.022.022a.237.237,0,0,1-.1.172l-.118.054L1.479,2.2a.627.627,0,0,0-.161.118Z" transform="translate(6.105 10.775)"/>
      <path id="Tracciato_4215" data-name="Tracciato 4215" d="M1.269,2.382h0l-.022-.022c0-.043.043-.075.075-.108l.054-.043L1.527,2.1A.271.271,0,0,0,1.6,1.9l.022-.032.032.022a.331.331,0,0,1-.1.247l-.151.118-.054.032-.065.086-.022.011" transform="translate(5.831 10.15)"/>
      <path id="Tracciato_4216" data-name="Tracciato 4216" d="M1.257,2.337l-.022-.022a.342.342,0,0,1,.022-.151l.011-.043a.386.386,0,0,0,0-.269l.011-.032.032.022a.564.564,0,0,1,.011.3L1.3,2.176c-.011.054-.032.086-.022.129l-.011.032Z" transform="translate(5.692 9.711)"/>
      <path id="Tracciato_4217" data-name="Tracciato 4217" d="M1.506,2.407h0l-.032-.032-.022-.054L1.42,2.278l-.032-.011a.849.849,0,0,1-.215-.441l.011-.032.043.022a.729.729,0,0,0,.194.409l.022.022.043.043.043.1-.022.022" transform="translate(5.109 9.448)"/>
      <path id="Tracciato_4218" data-name="Tracciato 4218" d="M1.83,2.17h0a1.344,1.344,0,0,1-.452-.086.378.378,0,0,1-.247-.2l.011-.022.032.011c.022.075.1.129.215.172a1.335,1.335,0,0,0,.441.086l.022.022L1.83,2.17" transform="translate(4.7 10.072)"/>
      <path id="Tracciato_4219" data-name="Tracciato 4219" d="M1.8,2.172a1,1,0,0,1-.516-.108l-.151-.1V1.935h.032l.14.1A1.223,1.223,0,0,0,2,2.118l.032.032-.022.022H1.8" transform="translate(4.758 10.823)"/>
      <path id="Tracciato_4220" data-name="Tracciato 4220" d="M1.551,2.194a.458.458,0,0,1-.366-.129l-.011-.022.043-.011a.417.417,0,0,0,.344.108l.151-.022.065-.043a.212.212,0,0,1,.129-.065l.022.022-.022.022-.1.054-.065.054a.367.367,0,0,1-.183.032Z" transform="translate(5.119 11.565)"/>
      <path id="Tracciato_4221" data-name="Tracciato 4221" d="M1.434,2.4l-.194-.011-.022-.022.022-.022A.961.961,0,0,0,1.7,2.308l.14-.086L2,2.071h.032V2.1l-.161.151-.151.1a.665.665,0,0,1-.29.054" transform="translate(5.558 12.15)"/>
      <path id="Tracciato_4222" data-name="Tracciato 4222" d="M1.383,2.483l-.1-.011L1.265,2.44,1.3,2.429a.44.44,0,0,0,.377-.108l.043-.032.011-.022a.789.789,0,0,1,.194-.151h.032l-.011.032a1.151,1.151,0,0,0-.172.151l-.022.011-.043.043a.455.455,0,0,1-.323.129" transform="translate(6.007 12.599)"/>
      <path id="Tracciato_4223" data-name="Tracciato 4223" d="M3.561,4.948,6.1,2.7l-.441-.065,1.818-.753L6.444,3.431l-.108-.559-2.528,2.3-.043.592L2.754,6.7l-.043-.667L1.9,6,3.1,4.937Z" transform="translate(12.244 10.309)" fill="#00cfe5"/>
      <path id="Tracciato_4224" data-name="Tracciato 4224" d="M2.784,6.743H2.763l-.022-.022L2.7,6.076l-.785-.043L1.9,6.023V5.99l1.2-1.054h.463L6.054,2.731l-.387-.054-.022-.022.011-.022,1.829-.753h.022v.032L6.485,3.452l-.022.011-.032-.022-.1-.516-2.5,2.281-.043.57V5.8l-1.011.936Zm-.8-.753.732.032.032.022.043.624.957-.9.043-.57.011-.022L6.334,2.86l.011-.011.032.022.1.506.957-1.431-1.667.7.355.043.022.022V2.72L3.591,4.979H3.128Z" transform="translate(12.223 10.296)"/>
      <path id="Tracciato_4225" data-name="Tracciato 4225" d="M2,2.954l-.022-.011V2.911l.807-.71h.032v.032l-.807.71L2,2.954" transform="translate(12.952 13.417)"/>
      <path id="Tracciato_4226" data-name="Tracciato 4226" d="M2.729,6.3,3.45,3.191l-.377.194.99-1.571.054,1.743-.4-.366L3.041,6.343l.29.484L3.073,8.1,2.664,7.6,2.03,8.01l.344-1.463Z" transform="translate(13.469 9.644)" fill="#00cfe5"/>
      <path id="Tracciato_4227" data-name="Tracciato 4227" d="M3.092,8.147H3.081l-.4-.484-.613.4-.022.011L2.027,8.04l.344-1.474.011-.011.355-.237.7-3.055-.323.172-.032-.011V3.392l.99-1.571.022-.011.022.022.054,1.753-.022.022H4.125l-.366-.344L3.092,6.372l.28.463.011.011-.269,1.28L3.1,8.147Zm-.4-.538H2.7l.377.463.247-1.216-.28-.473V6.372l.678-3.163.011-.022h.022l.355.344L4.071,1.919l-.9,1.431.3-.161h.011L3.5,3.22,2.78,6.34l-.011.011-.344.237-.333,1.4.592-.377Z" transform="translate(13.442 9.613)"/>
      <path id="Tracciato_4228" data-name="Tracciato 4228" d="M2.109,3.291H2.1l-.011-.032.226-.979.032-.022.011.032L2.13,3.27l-.022.022" transform="translate(14.028 13.981)"/>
      <path id="Tracciato_4229" data-name="Tracciato 4229" d="M3.352,6.482,5.266,3.137l-.495.1L6.46,1.76,5.912,3.793l-.323-.559L3.7,6.644l.172.645L3.115,8.666l-.29-.7-.882.247.914-1.571Z" transform="translate(12.616 9.114)" fill="#00cfe5"/>
      <path id="Tracciato_4230" data-name="Tracciato 4230" d="M3.134,8.708h0l-.022-.022-.28-.678-.861.247L1.94,8.246V8.214l.914-1.571.011-.011.484-.161L5.243,3.19l-.452.086-.022-.011V3.233L6.458,1.759H6.49l.011.022L5.942,3.814l-.011.022L5.9,3.824,5.6,3.3,3.737,6.654,3.9,7.3l.011.011L3.156,8.7l-.022.011m-.29-.753.022.011.269.656L3.855,7.3l-.161-.635V6.643l1.883-3.41L5.6,3.222l.022.011.3.516.516-1.9L4.866,3.211l.42-.086.022.011v.032L3.392,6.5l-.011.011-.495.161L2.015,8.192l.818-.237Z" transform="translate(12.593 9.106)"/>
      <path id="Tracciato_4231" data-name="Tracciato 4231" d="M2.044,3.344H2.033l-.011-.032.6-1.065.043-.011v.032l-.6,1.065-.022.011" transform="translate(13.398 13.76)"/>
      <path id="Tracciato_4232" data-name="Tracciato 4232" d="M1.615,1.947a.429.429,0,0,1,.065-.226.574.574,0,0,1,.463-.258,1.866,1.866,0,0,1,.28.129c.194.1.29.14.312.237.022.151-.215.29-.226.3a.5.5,0,0,1-.377-.075c-.086-.108-.075-.215-.151-.247-.054-.022-.161-.022-.366.14" transform="translate(9.422 6.218)" fill="#ffdc00"/>
      <path id="Tracciato_4233" data-name="Tracciato 4233" d="M2.43,2.182a.394.394,0,0,1-.29-.1l-.086-.14-.065-.1c-.065-.032-.183.022-.333.151H1.623l-.011-.022a.5.5,0,0,1,.065-.247.607.607,0,0,1,.484-.269h.011a1.32,1.32,0,0,1,.28.129c.2.1.312.161.323.247.032.172-.2.323-.237.333H2.526l-.1.011m-.484-.387.065.011a.18.18,0,0,1,.086.118l.075.129a.427.427,0,0,0,.344.075c.032-.022.237-.151.215-.28-.011-.065-.108-.118-.3-.215A1.532,1.532,0,0,0,2.161,1.5a.548.548,0,0,0-.441.247.325.325,0,0,0-.054.172.521.521,0,0,1,.28-.129" transform="translate(9.393 6.198)"/>
      <path id="Tracciato_4234" data-name="Tracciato 4234" d="M2.227,2.168a.336.336,0,0,1,.065-.247.393.393,0,0,1,.194-.129.541.541,0,0,1,.151-.237.9.9,0,0,1,1.108.075,1.055,1.055,0,0,1,.28.957.546.546,0,0,1,.215.226.69.69,0,0,1,.043.516.207.207,0,0,0-.118-.161.188.188,0,0,0-.151.011.237.237,0,0,0-.043.226.366.366,0,0,0,.151.2.44.44,0,0,1,.269-.118.428.428,0,0,1,.366.2.25.25,0,0,0-.237.075.242.242,0,0,0-.065.269c.032.086.118.065.226.14a.612.612,0,0,1,.215.269,3.907,3.907,0,0,1-1.312.42A3.7,3.7,0,0,1,1.6,4.535a.434.434,0,0,0,.29-.194.429.429,0,0,0,.086-.29.334.334,0,0,0-.194.022.41.41,0,0,0-.172.151.511.511,0,0,1,.14-.333.644.644,0,0,1,.42-.215A.234.234,0,0,0,2.1,3.545a.286.286,0,0,0-.215-.032,1.7,1.7,0,0,1,.312-.269c.118-.065.151-.054.215-.108a.583.583,0,0,0,.172-.592c-.1-.194-.323-.183-.355-.377" transform="translate(9.305 5.566)" fill="#ffdc00"/>
      <path id="Tracciato_4235" data-name="Tracciato 4235" d="M3.192,4.933a3.682,3.682,0,0,1-1.571-.355L1.6,4.557l.022-.022a.411.411,0,0,0,.28-.183.457.457,0,0,0,.075-.258l-.161.022a.551.551,0,0,0-.161.14l-.022.011-.022-.022a.656.656,0,0,1,.14-.344.623.623,0,0,1,.42-.215l-.065-.1a.265.265,0,0,0-.183-.032H1.89V3.535a1.12,1.12,0,0,1,.323-.28l.118-.065.086-.043a.537.537,0,0,0,.161-.57.44.44,0,0,0-.172-.172.292.292,0,0,1-.183-.2A.394.394,0,0,1,2.3,1.932.3.3,0,0,1,2.493,1.8a.638.638,0,0,1,.151-.247.917.917,0,0,1,1.14.086,1.065,1.065,0,0,1,.29.957.588.588,0,0,1,.2.226.65.65,0,0,1,.043.538L4.3,3.374l-.022-.011c-.011-.075-.043-.129-.108-.14,0-.011-.065-.032-.118,0-.065.054-.043.172-.032.2a.273.273,0,0,0,.118.172.524.524,0,0,1,.28-.108.465.465,0,0,1,.377.215v.022l-.022.011a.268.268,0,0,0-.215.075.224.224,0,0,0-.065.247l.1.065.129.054a.564.564,0,0,1,.215.28l-.011.032a3.543,3.543,0,0,1-1.312.42c-.14.011-.28.022-.42.022M1.7,4.568a3.767,3.767,0,0,0,1.915.3A3.586,3.586,0,0,0,4.881,4.46.52.52,0,0,0,4.7,4.223L4.58,4.17a.214.214,0,0,1-.129-.086.286.286,0,0,1,.065-.3A.294.294,0,0,1,4.73,3.7a.38.38,0,0,0-.312-.151.386.386,0,0,0-.258.108H4.128a.408.408,0,0,1-.161-.215c-.011-.054-.032-.183.065-.247a.186.186,0,0,1,.161-.022.235.235,0,0,1,.108.1.57.57,0,0,0-.065-.42.531.531,0,0,0-.194-.215L4.031,2.6a1.041,1.041,0,0,0-.28-.925A.866.866,0,0,0,2.676,1.6a.493.493,0,0,0-.151.226v.022a.35.35,0,0,0-.194.118.362.362,0,0,0-.054.226c.011.086.075.129.151.172a.478.478,0,0,1,.194.194.6.6,0,0,1-.172.624l-.1.054L2.235,3.3a1.2,1.2,0,0,0-.258.2.262.262,0,0,1,.161.054.225.225,0,0,1,.086.14v.022l-.011.011a.567.567,0,0,0-.42.194.6.6,0,0,0-.118.237L1.8,4.073a.352.352,0,0,1,.2-.022l.022.022a.507.507,0,0,1-.086.312.462.462,0,0,1-.247.183" transform="translate(9.276 5.544)"/>
      <path id="Tracciato_4236" data-name="Tracciato 4236" d="M2.37,2.024l-.065-.011-.129-.032a.85.85,0,0,1-.441-.4l-.054-.129L1.7,1.432l.032.022.043.108a2.06,2.06,0,0,0,.172.226h.011l.108-.043.065-.032a.353.353,0,0,1,.29-.032.184.184,0,0,1,.129.172.152.152,0,0,1-.1.151l-.086.022M2,1.83a.543.543,0,0,0,.183.108l.129.032a.265.265,0,0,0,.129-.011c.032-.022.075-.054.065-.108a.192.192,0,0,0-.1-.129.371.371,0,0,0-.258.032l-.065.032L2,1.83" transform="translate(10.076 5.915)"/>
      <path id="Tracciato_4237" data-name="Tracciato 4237" d="M7.527,4.526a.66.66,0,0,1-.333.3c-.075.022-.3.108-.452-.032a.332.332,0,0,1-.065-.409c.086-.129.237-.075.42-.172a.785.785,0,0,0,.355-.645c.022-.57-.656-.893-.7-.914a1.351,1.351,0,0,0-1-.022A17.31,17.31,0,0,0,3.955,2,18.666,18.666,0,0,0,1.2,1.417a.343.343,0,0,0-.3.29.35.35,0,0,0,.323.344.4.4,0,0,0-.183.333.493.493,0,0,0,.581.355.56.56,0,0,0,.129.43.618.618,0,0,0,.6.2.643.643,0,0,0,.8.742.679.679,0,0,0,.333.463.858.858,0,0,0,.463.108,1.146,1.146,0,0,0,.258.28.807.807,0,0,0,.484.151.586.586,0,0,0,.14.269.744.744,0,0,0,.624.183.319.319,0,0,0,.032.269.262.262,0,0,0,.14.118.346.346,0,0,0,.022.247.424.424,0,0,0,.495.151.353.353,0,0,0,.247.215.439.439,0,0,0,.333-.011.468.468,0,0,0,.183.172.457.457,0,0,0,.409-.043.264.264,0,0,0,.215.194.277.277,0,0,0,.269-.1c-.086-.753-.183-1.506-.269-2.259" transform="translate(2.446 5.769)" fill="#ffdc00"/>
      <path id="Tracciato_4238" data-name="Tracciato 4238" d="M7.6,6.934l-.054-.011a.274.274,0,0,1-.226-.172.547.547,0,0,1-.409.022A.475.475,0,0,1,6.731,6.6a.426.426,0,0,1-.333.011A.414.414,0,0,1,6.14,6.4a.433.433,0,0,1-.495-.161.348.348,0,0,1-.032-.247.267.267,0,0,1-.129-.118.4.4,0,0,1-.054-.247.78.78,0,0,1-.6-.194.729.729,0,0,1-.151-.269A.925.925,0,0,1,4.2,5.008a.877.877,0,0,1-.247-.28.8.8,0,0,1-.473-.108.814.814,0,0,1-.344-.463A.676.676,0,0,1,2.536,4a.664.664,0,0,1-.194-.581.648.648,0,0,1-.6-.215.618.618,0,0,1-.129-.42.616.616,0,0,1-.441-.129A.348.348,0,0,1,1.03,2.4a.482.482,0,0,1,.151-.323.349.349,0,0,1-.194-.108A.32.32,0,0,1,.9,1.727a.346.346,0,0,1,.323-.312A18.148,18.148,0,0,1,3.977,2c.6.183,1.216.387,1.8.624a1.418,1.418,0,0,1,1.011.032c.032.011.742.344.71.936a.834.834,0,0,1-.366.667A1.381,1.381,0,0,1,6.9,4.33c-.086.011-.14.022-.183.086a.328.328,0,0,0,.054.387c.14.129.355.043.43.011a.611.611,0,0,0,.323-.28l.022-.011.022.022L7.839,6.8l-.011.011a.281.281,0,0,1-.226.118m-.269-.247h.011l.011.011a.248.248,0,0,0,.43.1L7.527,4.61a.668.668,0,0,1-.3.258c-.086.022-.323.118-.484-.032a.379.379,0,0,1-.065-.452.32.32,0,0,1,.215-.108.607.607,0,0,0,.215-.065.764.764,0,0,0,.344-.624c.022-.559-.656-.882-.688-.893a1.346,1.346,0,0,0-.99-.022H5.763c-.592-.237-1.194-.452-1.8-.635a19.734,19.734,0,0,0-2.743-.581.309.309,0,0,0-.28.269.329.329,0,0,0,.075.215.346.346,0,0,0,.226.108l.022.011-.011.032a.391.391,0,0,0-.183.3A.35.35,0,0,0,1.2,2.62a.58.58,0,0,0,.43.108l.022.011.011.011a.567.567,0,0,0,.118.42.576.576,0,0,0,.581.194l.022.011v.022a.662.662,0,0,0,.183.57.656.656,0,0,0,.581.151h.022l.011.011a.725.725,0,0,0,.323.452.755.755,0,0,0,.463.1l.022.011a.689.689,0,0,0,.247.28.89.89,0,0,0,.452.151l.032.011A.517.517,0,0,0,4.87,5.4a.715.715,0,0,0,.592.172h.011l.022.022a.337.337,0,0,0,.032.258.3.3,0,0,0,.129.108l.011.022a.314.314,0,0,0,.022.237.383.383,0,0,0,.452.14l.032.011a.417.417,0,0,0,.237.2.438.438,0,0,0,.323-.011h.032a.376.376,0,0,0,.172.172.432.432,0,0,0,.387-.043Z" transform="translate(2.434 5.749)"/>
      <path id="Tracciato_4239" data-name="Tracciato 4239" d="M1.945,2.524l-.022-.011.011-.032A.566.566,0,0,0,2.2,2.04a.631.631,0,0,0-.065-.215.568.568,0,0,0-.269-.183,1.545,1.545,0,0,0-.495-.022l-.022-.032.022-.022A1.643,1.643,0,0,1,1.88,1.6a.5.5,0,0,1,.29.2.406.406,0,0,1,.075.226.607.607,0,0,1-.29.495Z" transform="translate(6.866 7.169)"/>
      <path id="Tracciato_4240" data-name="Tracciato 4240" d="M3.14,1.981a7.452,7.452,0,0,1-1.646-.323c-.183-.043-.355-.1-.527-.14L.945,1.5l.032-.022c.172.043.355.086.527.14a5.593,5.593,0,0,0,1.807.3l.032.022-.022.032-.183.011" transform="translate(2.885 6.335)"/>
      <path id="Tracciato_4241" data-name="Tracciato 4241" d="M3.394,2h0A16.923,16.923,0,0,1,1,1.591L.974,1.559l.032-.022a14.2,14.2,0,0,0,2.388.409l.022.032L3.394,2" transform="translate(3.168 6.94)"/>
      <path id="Tracciato_4242" data-name="Tracciato 4242" d="M3.128,2.045a10.42,10.42,0,0,1-2.065-.4l-.022-.032.032-.022A10.057,10.057,0,0,0,3.139,2l.032.022-.032.022Z" transform="translate(3.821 7.486)"/>
      <path id="Tracciato_4243" data-name="Tracciato 4243" d="M2.483,1.85a9.918,9.918,0,0,1-1.345-.129l-.022-.032.032-.022a6.207,6.207,0,0,0,1.71.108l.022.022-.022.032a3.4,3.4,0,0,1-.377.022" transform="translate(4.563 8.208)"/>
      <path id="Tracciato_4244" data-name="Tracciato 4244" d="M2.052,1.826a7.535,7.535,0,0,1-.839-.065L1.191,1.74l.032-.022a5.128,5.128,0,0,0,1.2.032l.022.022-.011.022a2.169,2.169,0,0,1-.387.032" transform="translate(5.285 8.706)"/>
      <path id="Tracciato_4245" data-name="Tracciato 4245" d="M1.843,1.846A5.521,5.521,0,0,1,1.284,1.8l-.022-.022.032-.022a2.324,2.324,0,0,0,.828,0l.032.011L2.133,1.8a.719.719,0,0,1-.29.043" transform="translate(5.978 9.116)"/>
      <path id="Tracciato_4246" data-name="Tracciato 4246" d="M1.348,1.96l-.022-.022.022-.022a.473.473,0,0,0,.366-.129h.032V1.82a.514.514,0,0,1-.4.14" transform="translate(6.602 9.389)"/>
      <path id="Tracciato_4247" data-name="Tracciato 4247" d="M1.367,2.141H1.345l.011-.032a2.193,2.193,0,0,0,.527-.3h.032V1.84a1.843,1.843,0,0,1-.538.3Z" transform="translate(6.788 9.584)"/>
      <path id="Tracciato_4248" data-name="Tracciato 4248" d="M1.4,2.261H1.39V2.218a1.883,1.883,0,0,0,.387-.387H1.81l.011.032a1.576,1.576,0,0,1-.409.387Z" transform="translate(7.227 9.809)"/>
      <path id="Tracciato_4249" data-name="Tracciato 4249" d="M1.453,2.212H1.442V2.169a.622.622,0,0,0,.258-.3l.032-.011.011.032a.65.65,0,0,1-.28.323Z" transform="translate(7.734 10.062)"/>
      <path id="Tracciato_4250" data-name="Tracciato 4250" d="M1.556,2.2h0l-.022-.032A.448.448,0,0,0,1.491,1.9L1.5,1.87l.032.011a.473.473,0,0,1,.043.3L1.556,2.2" transform="translate(8.212 10.189)"/>
      <path id="Tracciato_4251" data-name="Tracciato 4251" d="M2.14,2.566H2.129c-.581-.151-.882-.323-.936-.549-.032-.161.065-.344.3-.538h.032v.032c-.226.183-.323.355-.29.495.054.2.355.377.914.506l.011.032-.022.022" transform="translate(5.25 6.374)"/>
      <path id="Tracciato_4252" data-name="Tracciato 4252" d="M4.275,4.845h0a.366.366,0,0,1-.161-.075A.432.432,0,0,1,4.028,4.6a.36.36,0,0,1-.441-.054.2.2,0,0,1-.075-.151.544.544,0,0,1-.28-.075.561.561,0,0,1-.194-.355.353.353,0,0,1-.377-.151.4.4,0,0,1-.011-.118.358.358,0,0,1-.29-.172.282.282,0,0,1-.032-.237.389.389,0,0,1-.3-.194.391.391,0,0,1-.011-.29H2.006a.427.427,0,0,1-.42-.258.288.288,0,0,1,.022-.194.448.448,0,0,1-.377-.344.553.553,0,0,1,.129-.441l.032.011v.032a.493.493,0,0,0-.129.387.441.441,0,0,0,.377.312h.022v.022a.262.262,0,0,0-.022.2c.022.14.215.237.409.226l.032.011V2.78a.293.293,0,0,0,0,.29.306.306,0,0,0,.269.172l.011.011.022.011A.25.25,0,0,0,2.4,3.49a.282.282,0,0,0,.28.151l.022.011v.14c.043.108.194.151.355.118l.032.011v.011a.415.415,0,0,0,.172.344.351.351,0,0,0,.269.065l.022.011v.011a.389.389,0,0,0,.065.161.363.363,0,0,0,.43.022H4.06l.022.022a.229.229,0,0,0,.065.172l.129.054.022.032-.022.022" transform="translate(5.579 7.203)"/>
      <path id="Tracciato_4253" data-name="Tracciato 4253" d="M2.239,4.526a.66.66,0,0,0,.333.3c.075.022.3.108.452-.032a.332.332,0,0,0,.065-.409c-.086-.129-.237-.075-.42-.172a.785.785,0,0,1-.355-.645c-.032-.57.656-.893.7-.914a1.351,1.351,0,0,1,1-.022A17.31,17.31,0,0,1,5.81,2a18.666,18.666,0,0,1,2.754-.581.332.332,0,0,1,.3.29.334.334,0,0,1-.323.344.429.429,0,0,1,.194.333.506.506,0,0,1-.592.355.585.585,0,0,1-.118.43.637.637,0,0,1-.613.2.632.632,0,0,1-.183.592.658.658,0,0,1-.6.151.751.751,0,0,1-.344.463.841.841,0,0,1-.463.108.96.96,0,0,1-.258.28.8.8,0,0,1-.473.151.773.773,0,0,1-.151.269.744.744,0,0,1-.624.183.319.319,0,0,1-.032.269.262.262,0,0,1-.14.118.346.346,0,0,1-.022.247.413.413,0,0,1-.484.151.412.412,0,0,1-.258.215.439.439,0,0,1-.333-.011.468.468,0,0,1-.183.172.457.457,0,0,1-.409-.043.264.264,0,0,1-.226.194.268.268,0,0,1-.258-.1c.086-.753.183-1.506.269-2.259" transform="translate(12.886 5.769)" fill="#ffdc00"/>
      <path id="Tracciato_4254" data-name="Tracciato 4254" d="M2.214,6.933a.29.29,0,0,1-.237-.108L1.967,6.8l.269-2.259.022-.022.022.011a.668.668,0,0,0,.323.29.416.416,0,0,0,.43-.022.3.3,0,0,0,.054-.377c-.032-.065-.1-.075-.183-.1a.731.731,0,0,1-.226-.065A.85.85,0,0,1,2.311,3.6c-.022-.592.688-.925.721-.936a1.39,1.39,0,0,1,1-.032,18.7,18.7,0,0,1,1.8-.624,18.456,18.456,0,0,1,2.754-.592h.011a.355.355,0,0,1,.323.312.349.349,0,0,1-.086.247.335.335,0,0,1-.2.118.439.439,0,0,1,.161.312.406.406,0,0,1-.151.258.653.653,0,0,1-.441.129.577.577,0,0,1-.129.42.638.638,0,0,1-.592.215.688.688,0,0,1-.2.581.676.676,0,0,1-.6.161.767.767,0,0,1-.344.463.873.873,0,0,1-.463.108.773.773,0,0,1-.258.269.954.954,0,0,1-.463.161.8.8,0,0,1-.161.258.7.7,0,0,1-.6.194.352.352,0,0,1-.054.258A.334.334,0,0,1,4.194,6a.358.358,0,0,1-.032.247.423.423,0,0,1-.484.161.542.542,0,0,1-.258.215.506.506,0,0,1-.344-.011.394.394,0,0,1-.183.161.46.46,0,0,1-.409-.022.287.287,0,0,1-.215.183H2.214M2.021,6.8a.274.274,0,0,0,.237.086.263.263,0,0,0,.194-.172L2.473,6.7h.011a.443.443,0,0,0,.387.032.345.345,0,0,0,.183-.161l.022-.011a.425.425,0,0,0,.323.022.42.42,0,0,0,.247-.215l.022-.011a.375.375,0,0,0,.452-.129.325.325,0,0,0,.032-.237l.011-.022a.412.412,0,0,0,.129-.118A.311.311,0,0,0,4.323,5.6l.011-.022h.011a.715.715,0,0,0,.6-.183A.682.682,0,0,0,5.1,5.136l.022-.022a.8.8,0,0,0,.463-.14,1.029,1.029,0,0,0,.247-.28l.022-.011a.737.737,0,0,0,.452-.1.836.836,0,0,0,.333-.452V4.125l.022-.011a.616.616,0,0,0,.581-.151A.638.638,0,0,0,7.421,3.4l.011-.022.022-.011a.606.606,0,0,0,.581-.194.567.567,0,0,0,.118-.42l.011-.022h.011a.566.566,0,0,0,.441-.118A.312.312,0,0,0,8.733,2.4a.391.391,0,0,0-.183-.3V2.07l.022-.011a.332.332,0,0,0,.215-.118.245.245,0,0,0,.075-.2.3.3,0,0,0-.269-.269,18.428,18.428,0,0,0-2.754.581,18.789,18.789,0,0,0-1.8.635H4.032a1.268,1.268,0,0,0-.979.022c-.032.011-.721.323-.688.893a.751.751,0,0,0,.344.624.559.559,0,0,0,.2.065.32.32,0,0,1,.215.108.379.379,0,0,1-.065.452.468.468,0,0,1-.473.022.583.583,0,0,1-.312-.247Z" transform="translate(12.857 5.74)"/>
      <path id="Tracciato_4255" data-name="Tracciato 4255" d="M2.377,2.524H2.366a.607.607,0,0,1-.29-.495A.406.406,0,0,1,2.151,1.8a.5.5,0,0,1,.29-.2,1.643,1.643,0,0,1,.506-.032l.022.022-.022.032a1.545,1.545,0,0,0-.495.022.568.568,0,0,0-.269.183.631.631,0,0,0-.065.215.566.566,0,0,0,.269.441l.011.032Z" transform="translate(13.91 7.169)"/>
      <path id="Tracciato_4256" data-name="Tracciato 4256" d="M2.547,1.981,2.365,1.97l-.022-.032.032-.022a5.593,5.593,0,0,0,1.807-.3c.172-.054.355-.1.527-.14l.032.022-.022.022c-.172.043-.344.1-.527.14a7.452,7.452,0,0,1-1.646.323" transform="translate(16.526 6.335)"/>
      <path id="Tracciato_4257" data-name="Tracciato 4257" d="M2.332,2,2.31,1.978l.022-.032A14.2,14.2,0,0,0,4.72,1.537l.032.022-.022.032A16.923,16.923,0,0,1,2.332,2Z" transform="translate(16.204 6.94)"/>
      <path id="Tracciato_4258" data-name="Tracciato 4258" d="M2.305,2.045H2.295l-.022-.022L2.295,2h.011A9.709,9.709,0,0,0,4.36,1.593l.032.022-.022.032a10.42,10.42,0,0,1-2.065.4" transform="translate(15.843 7.486)"/>
      <path id="Tracciato_4259" data-name="Tracciato 4259" d="M2.628,1.85a3.4,3.4,0,0,1-.377-.022L2.23,1.8l.022-.022a6.207,6.207,0,0,0,1.71-.108l.032.022-.022.032a9.918,9.918,0,0,1-1.345.129" transform="translate(15.423 8.208)"/>
      <path id="Tracciato_4260" data-name="Tracciato 4260" d="M2.6,1.826a2.169,2.169,0,0,1-.387-.032L2.2,1.772l.022-.022a5.128,5.128,0,0,0,1.2-.032l.032.022-.022.022a7.535,7.535,0,0,1-.839.065" transform="translate(15.16 8.706)"/>
      <path id="Tracciato_4261" data-name="Tracciato 4261" d="M2.478,1.846a.812.812,0,0,1-.3-.043l-.011-.032L2.2,1.76a2.331,2.331,0,0,0,.828,0l.032.022L3.037,1.8a5.521,5.521,0,0,1-.559.043" transform="translate(14.799 9.116)"/>
      <path id="Tracciato_4262" data-name="Tracciato 4262" d="M2.544,1.96h0a.514.514,0,0,1-.4-.14V1.788h.032a.489.489,0,0,0,.366.129l.022.022-.022.022" transform="translate(14.603 9.389)"/>
      <path id="Tracciato_4263" data-name="Tracciato 4263" d="M2.662,2.141H2.651a1.713,1.713,0,0,1-.538-.3V1.808h.032a2.193,2.193,0,0,0,.527.3l.011.032H2.662" transform="translate(14.281 9.584)"/>
      <path id="Tracciato_4264" data-name="Tracciato 4264" d="M2.5,2.261,2.49,2.251a1.421,1.421,0,0,1-.409-.387l.011-.032h.032a1.883,1.883,0,0,0,.387.387l.011.032L2.5,2.261" transform="translate(13.969 9.809)"/>
      <path id="Tracciato_4265" data-name="Tracciato 4265" d="M2.331,2.212H2.321a.65.65,0,0,1-.28-.323l.011-.032.032.011a.622.622,0,0,0,.258.3l.011.032-.022.011" transform="translate(13.579 10.062)"/>
      <path id="Tracciato_4266" data-name="Tracciato 4266" d="M2.041,2.2,2.02,2.182a.473.473,0,0,1,.043-.3l.032-.011.011.032a.448.448,0,0,0-.043.269Z" transform="translate(13.288 10.189)"/>
      <path id="Tracciato_4267" data-name="Tracciato 4267" d="M2.255,2.566l-.022-.022.011-.032c.559-.129.861-.3.914-.506.032-.14-.065-.312-.28-.495l-.011-.032H2.9c.237.194.333.377.3.538C3.147,2.243,2.846,2.415,2.255,2.566Z" transform="translate(15.452 6.374)"/>
      <path id="Tracciato_4268" data-name="Tracciato 4268" d="M2.027,4.845l-.022-.022.011-.032.129-.054a.252.252,0,0,0,.075-.172l.011-.022h.022a.347.347,0,0,0,.42-.022.283.283,0,0,0,.065-.161l.011-.011.011-.011a.343.343,0,0,0,.269-.065A.415.415,0,0,0,3.2,3.931L3.21,3.92l.022-.011c.161.032.312-.011.355-.118a.22.22,0,0,0,0-.118L3.6,3.651l.011-.011A.3.3,0,0,0,3.9,3.49a.32.32,0,0,0,.022-.215V3.253l.022-.011a.31.31,0,0,0,.28-.172.334.334,0,0,0,0-.28V2.769l.022-.011a.389.389,0,0,0,.42-.226.276.276,0,0,0-.032-.194V2.317l.022-.011a.441.441,0,0,0,.377-.312A.455.455,0,0,0,4.9,1.607V1.575l.032-.011a.507.507,0,0,1,.14.441.461.461,0,0,1-.387.344.288.288,0,0,1,.022.194.414.414,0,0,1-.43.258.391.391,0,0,1-.011.29.389.389,0,0,1-.29.194.347.347,0,0,1-.043.237.358.358,0,0,1-.29.172.214.214,0,0,1-.011.118.345.345,0,0,1-.377.151.513.513,0,0,1-.194.355.544.544,0,0,1-.28.075.279.279,0,0,1-.065.151.379.379,0,0,1-.452.054.326.326,0,0,1-.086.172A.393.393,0,0,1,2.027,4.845Z" transform="translate(13.228 7.203)"/>
      <path id="Tracciato_4269" data-name="Tracciato 4269" d="M3.69,1.926a.761.761,0,0,0-.495.452c-.043.108-.022.183-.086.3-.1.161-.215.151-.366.28-.237.2-.118.43-.344.7a.812.812,0,0,1-.409.29,1.639,1.639,0,0,0-.409.086.455.455,0,0,0-.226.161c-.086.172.054.409.2.538a.644.644,0,0,0,.516.1.232.232,0,0,1-.1-.215c.032-.086.2-.14.409-.054a.715.715,0,0,1,.323-.377c.247-.129.377.022.635-.075.366-.129.3-.484.732-.732.29-.172.484-.1.549-.215C4.7,3.013,4.583,2.7,3.69,1.926" transform="translate(6.637 10.736)" fill="#ffdc00"/>
      <path id="Tracciato_4270" data-name="Tracciato 4270" d="M1.956,4.893a.645.645,0,0,1-.387-.118c-.161-.14-.3-.387-.215-.559a.505.505,0,0,1,.237-.183,1.178,1.178,0,0,1,.269-.065l.151-.022a.843.843,0,0,0,.559-.624.522.522,0,0,1,.183-.355.494.494,0,0,1,.172-.118.364.364,0,0,0,.183-.161A.417.417,0,0,0,3.172,2.5l.022-.118A.9.9,0,0,1,3.7,1.924l.032.011c.742.645,1.054,1.054.947,1.259-.043.075-.118.086-.2.108a.886.886,0,0,0-.366.118,1.087,1.087,0,0,0-.377.409.653.653,0,0,1-.344.333.682.682,0,0,1-.323.022.511.511,0,0,0-.323.043.759.759,0,0,0-.312.366L2.4,4.6a.428.428,0,0,0-.3-.022l-.065.065c-.022.043.011.129.086.194l.011.022-.022.022-.151.011M3.71,1.978a.858.858,0,0,0-.473.43l-.022.108a.513.513,0,0,1-.065.194.46.46,0,0,1-.2.183A.47.47,0,0,0,2.785,3a.559.559,0,0,0-.172.333.812.812,0,0,1-.161.366.856.856,0,0,1-.43.29l-.151.032a.852.852,0,0,0-.258.054.493.493,0,0,0-.215.161.49.49,0,0,0,.2.495.6.6,0,0,0,.452.108.212.212,0,0,1-.065-.215l.086-.086a.48.48,0,0,1,.323.011.777.777,0,0,1,.323-.366.534.534,0,0,1,.355-.043.727.727,0,0,0,.29-.032.559.559,0,0,0,.323-.3,1.085,1.085,0,0,1,.775-.559c.086-.011.14-.022.172-.075.065-.118-.043-.43-.925-1.194" transform="translate(6.618 10.716)"/>
      <path id="Tracciato_4271" data-name="Tracciato 4271" d="M1.429,2.808,1.407,2.8a.548.548,0,0,1,.129-.667h.032v.032a.487.487,0,0,0-.118.613l-.011.032Z" transform="translate(6.833 12.726)"/>
      <path id="Tracciato_4272" data-name="Tracciato 4272" d="M1.441,2.8,1.42,2.793a.651.651,0,0,1,.1-.656h.043v.032a.561.561,0,0,0-.1.6L1.452,2.8Z" transform="translate(7.057 12.794)"/>
      <path id="Tracciato_4273" data-name="Tracciato 4273" d="M2.557,2.7h-.28l-.011-.032.172-.333-.527.14L1.89,2.461l-.011-.022.043-.323-.452.14-.032-.011.011-.032.495-.161.022.011.011.011-.043.344.549-.14.022.011.011.011-.183.344h.226l.022.032L2.557,2.7" transform="translate(7.697 11.966)"/>
      <path id="Tracciato_4274" data-name="Tracciato 4274" d="M1.532,2.35H1.521L1.51,2.328l.129-.333.022-.011.022.032-.108.28.161-.054.032.032-.022.011Z" transform="translate(8.398 11.302)"/>
      <path id="Tracciato_4275" data-name="Tracciato 4275" d="M1.529,2.4l-.022-.011V2.371l.129-.323.022-.022.032.032-.118.28L1.733,2.3l.032.022-.022.022-.2.065Z" transform="translate(8.368 11.721)"/>
      <path id="Tracciato_4276" data-name="Tracciato 4276" d="M1.567,2.378l-.022-.011V2.345l.129-.323L1.7,2.012l.022.022-.108.28.161-.043.032.022-.022.022Z" transform="translate(8.739 11.575)"/>
      <path id="Tracciato_4277" data-name="Tracciato 4277" d="M2.834,1.926c.323.151.452.312.495.452a1.168,1.168,0,0,0,.086.3c.1.161.215.151.366.28.237.2.118.43.333.7a.909.909,0,0,0,.42.29,1.639,1.639,0,0,1,.409.086.414.414,0,0,1,.226.172c.075.161-.054.4-.2.527-.215.161-.247.118-.29.108a.588.588,0,0,0-.764-.355c.032-.14.075-.2-.1-.3-.247-.129-.377.022-.645-.075-.355-.129-.29-.484-.71-.732-.3-.172-.495-.1-.57-.215-.065-.14.054-.463.947-1.237" transform="translate(11.936 10.736)" fill="#ffdc00"/>
      <path id="Tracciato_4278" data-name="Tracciato 4278" d="M4.752,4.893,4.7,4.882H4.688l-.022-.022a.517.517,0,0,0-.258-.312.635.635,0,0,0-.463-.022l-.022-.011-.011-.011.011-.065c.022-.1.032-.151-.1-.215A.459.459,0,0,0,3.5,4.172a.682.682,0,0,1-.323-.022.653.653,0,0,1-.344-.333,1,1,0,0,0-.377-.4A1.153,1.153,0,0,0,2.1,3.29a.266.266,0,0,1-.2-.1c-.108-.2.2-.624.947-1.269H2.87a.836.836,0,0,1,.506.463L3.4,2.5a.428.428,0,0,0,.065.172.364.364,0,0,0,.183.161l.172.118A.63.63,0,0,1,4,3.312a.853.853,0,0,0,.161.355.736.736,0,0,0,.4.269l.151.032a.792.792,0,0,1,.269.065.486.486,0,0,1,.237.172A.531.531,0,0,1,5,4.764c-.14.108-.2.129-.247.129m-.043-.054h0c.043.011.086.022.258-.108a.506.506,0,0,0,.2-.506.41.41,0,0,0-.215-.151A.9.9,0,0,0,4.7,4.011l-.151-.022a.88.88,0,0,1-.43-.3.766.766,0,0,1-.161-.366.59.59,0,0,0-.172-.333.7.7,0,0,0-.161-.108.43.43,0,0,1-.2-.172.58.58,0,0,1-.065-.194L3.321,2.4a.754.754,0,0,0-.463-.42c-.882.764-.99,1.065-.925,1.183.032.054.086.065.172.086a.82.82,0,0,1,.377.129,1.032,1.032,0,0,1,.4.42.575.575,0,0,0,.323.312.557.557,0,0,0,.29.022.546.546,0,0,1,.355.054c.161.086.14.161.118.269v.011a.712.712,0,0,1,.463.043.538.538,0,0,1,.28.333" transform="translate(11.911 10.716)"/>
      <path id="Tracciato_4279" data-name="Tracciato 4279" d="M2.281,2.807H2.27l-.011-.032a.487.487,0,0,0-.118-.613V2.129h.032A.548.548,0,0,1,2.3,2.8l-.022.011" transform="translate(14.555 12.716)"/>
      <path id="Tracciato_4280" data-name="Tracciato 4280" d="M2.239,2.8H2.229l-.011-.032a.561.561,0,0,0-.1-.6V2.137h.043a.651.651,0,0,1,.1.656L2.239,2.8" transform="translate(14.36 12.794)"/>
      <path id="Tracciato_4281" data-name="Tracciato 4281" d="M2.257,2.687H1.988l-.022-.022.022-.022h.226L2.031,2.3l.011-.022.022-.011.549.14-.043-.333.011-.022H2.6L3.1,2.2l.011.032-.032.011-.452-.14.043.323v.022l-.022.011-.538-.14.172.333v.022l-.022.011" transform="translate(12.855 11.973)"/>
      <path id="Tracciato_4282" data-name="Tracciato 4282" d="M2.215,2.35H2.2L2,2.285l-.022-.022.032-.022.161.043-.118-.28.032-.022.022.011.129.323v.022l-.022.011" transform="translate(12.964 11.302)"/>
      <path id="Tracciato_4283" data-name="Tracciato 4283" d="M2.217,2.393H2.206L2,2.328,1.98,2.307l.032-.022.161.043-.118-.28.032-.022.022.011.129.323v.022l-.022.011" transform="translate(12.984 11.721)"/>
      <path id="Tracciato_4284" data-name="Tracciato 4284" d="M2.18,2.388H2.169l-.2-.065L1.943,2.3l.032-.022.161.043-.118-.28.032-.032.022.022.129.323v.022Z" transform="translate(12.623 11.565)"/>
      <path id="Tracciato_4285" data-name="Tracciato 4285" d="M2.37,2.059c-.054.032-.043.226-.022.323a.494.494,0,0,0,.172.3,1.6,1.6,0,0,0-.463.2c-.215.129-.495.312-.484.538.011.2.269.344.323.377l.99-1.054c-.333-.6-.463-.71-.516-.688" transform="translate(9.022 12.012)" fill="#ffdc00"/>
      <path id="Tracciato_4286" data-name="Tracciato 4286" d="M1.917,3.847H1.907c-.1-.054-.333-.194-.333-.4-.022-.247.269-.42.495-.559a1.489,1.489,0,0,1,.42-.194.744.744,0,0,1-.14-.28s-.065-.312.032-.355c.065-.032.183.032.549.7v.022l-1,1.065ZM2.4,2.1c-.032.011-.043.172-.011.3a.541.541,0,0,0,.161.28l.011.032-.022.011a1.714,1.714,0,0,0-.452.2c-.215.129-.484.3-.473.516.011.172.215.3.29.344L2.875,2.76c-.366-.667-.463-.667-.473-.656" transform="translate(9.002 11.988)"/>
      <path id="Tracciato_4287" data-name="Tracciato 4287" d="M2.338,2.062c-.065.043-.022.258.011.377a.616.616,0,0,0,.226.3,2.374,2.374,0,0,0-.495.29c-.226.194-.516.42-.484.678.032.237.344.355.409.387.333-.452.667-.893.99-1.334-.441-.635-.6-.732-.656-.7" transform="translate(9.205 12.009)" fill="#ffdc00"/>
      <path id="Tracciato_4288" data-name="Tracciato 4288" d="M2.025,4.131H2.014c-.118-.043-.387-.172-.42-.4-.043-.269.258-.506.495-.7a2.435,2.435,0,0,1,.452-.28.713.713,0,0,1-.194-.29c-.022-.075-.1-.344,0-.4.054-.043.194,0,.688.7v.022L2.047,4.12ZM2.38,2.1H2.369c-.043.032-.022.215.022.344a.653.653,0,0,0,.215.3l.011.022-.011.022a1.761,1.761,0,0,0-.495.29c-.226.183-.506.409-.473.645.032.2.28.323.377.355l.979-1.3c-.441-.6-.57-.678-.613-.678" transform="translate(9.184 11.984)"/>
      <path id="Tracciato_4289" data-name="Tracciato 4289" d="M2.246,2.084c-.065.043,0,.269.054.387a.683.683,0,0,0,.258.3,2.171,2.171,0,0,0-.484.366c-.226.215-.516.495-.452.753s.387.333.463.355c.312-.495.613-1,.925-1.506-.538-.613-.71-.7-.764-.656" transform="translate(9.404 12.181)" fill="#ffdc00"/>
      <path id="Tracciato_4290" data-name="Tracciato 4290" d="M2.107,4.3h0c-.129-.032-.43-.14-.484-.377-.075-.269.215-.559.452-.785a2.386,2.386,0,0,1,.452-.344A.683.683,0,0,1,2.29,2.5c-.032-.065-.129-.344-.043-.409.065-.054.2-.022.8.656v.022L2.129,4.284,2.107,4.3m.172-2.173c-.043.032,0,.226.054.366a.6.6,0,0,0,.258.28l.011.022-.011.022a1.8,1.8,0,0,0-.484.366c-.226.215-.506.484-.441.732.054.215.323.3.43.333L3,2.757c-.581-.656-.7-.645-.721-.635" transform="translate(9.382 12.164)"/>
      <path id="Tracciato_4291" data-name="Tracciato 4291" d="M2.083,2.111c-.054.054.032.269.086.377a.678.678,0,0,0,.3.269,1.9,1.9,0,0,0-.441.42c-.2.247-.452.57-.366.818s.43.28.506.29c.247-.538.495-1.087.742-1.624-.592-.538-.775-.6-.828-.549" transform="translate(9.728 12.39)" fill="#ffdc00"/>
      <path id="Tracciato_4292" data-name="Tracciato 4292" d="M2.188,4.324h0c-.118-.011-.441-.075-.527-.3-.086-.269.161-.581.366-.839a2.224,2.224,0,0,1,.43-.409.559.559,0,0,1-.28-.258c-.043-.065-.161-.323-.086-.4s.194-.043.861.538v.032L2.21,4.313l-.022.011M2.156,2.14H2.124v.011c-.043.032.032.215.1.344a.671.671,0,0,0,.29.258V2.8a2.322,2.322,0,0,0-.441.42c-.194.226-.452.549-.355.785.065.2.355.258.463.28L2.9,2.689c-.527-.473-.688-.549-.742-.549" transform="translate(9.699 12.372)"/>
      <path id="Tracciato_4293" data-name="Tracciato 4293" d="M2.241,4.7a.347.347,0,0,1-.226.032.5.5,0,0,1-.28-.237c-.161-.247.075-.925.581-1.678l-.151-.043A.48.48,0,0,1,2,2.466.546.546,0,0,1,2.1,2.1l.355.183C2.381,3.09,2.306,3.9,2.241,4.7" transform="translate(10.108 12.433)" fill="#ffdc00"/>
      <path id="Tracciato_4294" data-name="Tracciato 4294" d="M2.1,4.787l-.065-.011a.506.506,0,0,1-.3-.237c-.161-.258.054-.914.559-1.678l-.118-.043A.41.41,0,0,1,2,2.5a.535.535,0,0,1,.108-.387L2.134,2.1l.355.194.011.022-.215,2.42v.011a.41.41,0,0,1-.183.043m.032-2.636a.525.525,0,0,0-.075.333.31.31,0,0,0,.151.29.171.171,0,0,0,.129.043H2.36v.032c-.506.753-.732,1.42-.581,1.657a.47.47,0,0,0,.269.226.3.3,0,0,0,.194-.022l.2-2.388Z" transform="translate(10.087 12.414)"/>
      <path id="Tracciato_4295" data-name="Tracciato 4295" d="M2.338,2.059c.054.032.043.226.022.323a.494.494,0,0,1-.172.3,1.6,1.6,0,0,1,.463.2c.215.129.495.312.484.538-.011.2-.269.344-.323.377-.333-.355-.656-.71-.99-1.054.333-.6.463-.71.516-.688" transform="translate(11.442 12.012)" fill="#ffdc00"/>
      <path id="Tracciato_4296" data-name="Tracciato 4296" d="M2.842,3.847H2.82l-1-1.065V2.749c.377-.656.495-.721.549-.688.1.043.043.344.043.344a.605.605,0,0,1-.151.29,1.708,1.708,0,0,1,.43.194c.226.14.506.312.495.559-.011.2-.237.344-.333.4ZM1.874,2.76l.968,1.033c.086-.043.29-.172.29-.355.011-.2-.258-.377-.473-.506a1.427,1.427,0,0,0-.452-.2L2.2,2.706V2.685a.517.517,0,0,0,.161-.28c.032-.14.032-.29-.011-.3-.011-.011-.1-.011-.473.656" transform="translate(11.422 11.988)"/>
      <path id="Tracciato_4297" data-name="Tracciato 4297" d="M2.451,2.062c.065.043.022.258-.011.377a.616.616,0,0,1-.226.3,2.374,2.374,0,0,1,.495.29c.226.194.527.42.484.678-.032.237-.344.355-.409.387-.333-.452-.667-.893-.99-1.334.441-.635.6-.732.656-.7" transform="translate(11.179 12.009)" fill="#ffdc00"/>
      <path id="Tracciato_4298" data-name="Tracciato 4298" d="M2.814,4.138l-.022-.011L1.8,2.793l-.011-.022c.506-.7.635-.742.7-.71.086.054.022.333,0,.4a.694.694,0,0,1-.2.3,2.109,2.109,0,0,1,.473.28c.226.194.527.43.495.7C3.212,3.966,2.932,4.1,2.814,4.138ZM1.857,2.783l.957,1.3c.108-.043.355-.161.387-.355.032-.237-.247-.473-.484-.645a1.49,1.49,0,0,0-.484-.29l-.011-.022V2.75a.487.487,0,0,0,.215-.3c.054-.129.075-.323.032-.344-.011-.011-.14,0-.613.678" transform="translate(11.149 11.987)"/>
      <path id="Tracciato_4299" data-name="Tracciato 4299" d="M2.55,2.084c.054.043,0,.269-.065.387a.622.622,0,0,1-.258.3,2.184,2.184,0,0,1,.495.366c.215.215.506.495.452.753-.075.247-.4.333-.463.355-.323-.495-.624-1-.936-1.506.549-.613.71-.7.775-.656" transform="translate(10.983 12.181)" fill="#ffdc00"/>
      <path id="Tracciato_4300" data-name="Tracciato 4300" d="M2.71,4.29,2.7,4.279,1.774,2.773l.011-.032c.581-.667.732-.7.785-.656.086.065-.011.344-.043.42a.674.674,0,0,1-.237.29,2.071,2.071,0,0,1,.463.344c.226.226.516.506.452.785-.065.237-.355.333-.484.366ZM1.828,2.762l.9,1.485c.108-.032.377-.129.43-.333.054-.247-.226-.527-.441-.742a2.542,2.542,0,0,0-.484-.355l-.011-.011V2.773a.584.584,0,0,0,.258-.29c.065-.14.1-.333.065-.355s-.14-.022-.721.635" transform="translate(10.974 12.158)"/>
      <path id="Tracciato_4301" data-name="Tracciato 4301" d="M2.583,2.111c.054.054-.032.269-.1.377a.619.619,0,0,1-.29.269,1.9,1.9,0,0,1,.441.42c.2.247.452.57.366.818s-.43.28-.506.29C2.25,3.746,2,3.2,1.755,2.66c.592-.538.775-.6.828-.549" transform="translate(10.788 12.39)" fill="#ffdc00"/>
      <path id="Tracciato_4302" data-name="Tracciato 4302" d="M2.527,4.319l-.022-.011L1.752,2.684l.011-.022c.656-.592.818-.6.871-.549.065.075-.054.344-.086.409a.831.831,0,0,1-.269.258,2.836,2.836,0,0,1,.409.4c.194.258.463.581.355.839-.075.226-.377.29-.516.3Zm-.71-1.635.732,1.592c.108-.022.387-.075.452-.269.1-.247-.172-.559-.344-.8a2.379,2.379,0,0,0-.452-.42L2.193,2.77,2.2,2.748a.584.584,0,0,0,.29-.247c.086-.129.14-.323.108-.355s-.151-.043-.785.538" transform="translate(10.759 12.366)"/>
      <path id="Tracciato_4303" data-name="Tracciato 4303" d="M1.977,4.7a.327.327,0,0,0,.215.032.5.5,0,0,0,.29-.237c.161-.247-.075-.925-.581-1.678l.151-.043A.413.413,0,0,0,2.2,2.466a.448.448,0,0,0-.1-.366c-.108.065-.226.118-.344.183.075.807.14,1.614.215,2.42" transform="translate(10.857 12.433)" fill="#ffdc00"/>
      <path id="Tracciato_4304" data-name="Tracciato 4304" d="M2.158,4.787l-.172-.032-.011-.022L1.76,2.313l.011-.022L2.115,2.1l.032.011a.535.535,0,0,1,.108.387.41.41,0,0,1-.172.323l-.118.043c.495.764.721,1.42.559,1.678a.479.479,0,0,1-.3.237l-.065.011m-.14-.075a.3.3,0,0,0,.194.022.47.47,0,0,0,.269-.226c.151-.237-.075-.9-.581-1.657L1.889,2.84l.032-.022.129-.043a.349.349,0,0,0,.151-.29.525.525,0,0,0-.075-.333l-.312.172Z" transform="translate(10.837 12.414)"/>
      <path id="Tracciato_4305" data-name="Tracciato 4305" d="M2.425,3.19a2.166,2.166,0,0,1,.022.527c-.032.226-.118.506-.355.495-.323-.011-.366-.387-.366-.688.011-.333.054-.688.086-1.022l.011-.1a.252.252,0,0,1,.269-.237c.183,0,.258.172.28.355l.043.613.011.054" transform="translate(10.505 13.097)" fill="#ffdc00"/>
      <path id="Tracciato_4306" data-name="Tracciato 4306" d="M2.113,4.254h0c-.194-.011-.409-.14-.387-.71a8.058,8.058,0,0,1,.054-.871L1.8,2.511l.011-.086a.278.278,0,0,1,.3-.258c.161,0,.269.129.3.377l.011.3.043.3v.129a2.218,2.218,0,0,1,.011.463c-.011.194-.1.516-.366.516m0-2.044a.23.23,0,0,0-.247.215l-.022.1-.011.151a8.058,8.058,0,0,0-.054.871c-.022.43.086.645.333.656.226.011.3-.29.323-.463a1.34,1.34,0,0,0-.022-.463V3.157a2.584,2.584,0,0,0-.032-.3l-.032-.312c0-.129-.054-.333-.237-.333" transform="translate(10.484 13.087)"/>
      <path id="Tracciato_4307" data-name="Tracciato 4307" d="M2.089,2.58a1.1,1.1,0,0,1,.011.269c-.011.108-.065.247-.172.237-.161,0-.194-.194-.183-.333,0-.172.022-.344.032-.516l.011-.043a.124.124,0,0,1,.14-.118c.086,0,.129.075.129.172l.032.3V2.58" transform="translate(10.669 12.18)" fill="#ffdc00"/>
      <path id="Tracciato_4308" data-name="Tracciato 4308" d="M1.956,3.137h0c-.108-.011-.226-.075-.215-.366,0-.14.022-.29.032-.441l.011-.075V2.2a.171.171,0,0,1,.172-.129q.129,0,.161.194v.151l.011.151.011.032v.032a.586.586,0,0,1,.011.237c-.022.172-.086.269-.194.269m0-1.022a.1.1,0,0,0-.118.1l-.011.043-.011.086-.032.43c0,.2.054.312.172.312s.129-.129.14-.215a.794.794,0,0,0,0-.226L2.085,2.6V2.588l-.011-.161-.011-.161c0-.065-.032-.151-.108-.151" transform="translate(10.641 12.16)"/>
      <path id="Tracciato_4309" data-name="Tracciato 4309" d="M4.168,7.021a4.688,4.688,0,0,0,2-1.775,4.846,4.846,0,0,0,.527-3.6,2.665,2.665,0,0,1-2.528,0,2.665,2.665,0,0,1-2.528,0,4.9,4.9,0,0,0,.527,3.6,4.688,4.688,0,0,0,2,1.775" transform="translate(8.364 7.964)" fill="#00226a"/>
      <path id="Tracciato_4310" data-name="Tracciato 4310" d="M4.193,7.062H4.182A4.682,4.682,0,0,1,2.17,5.276a4.861,4.861,0,0,1-.527-3.625l.022-.011h.022a2.628,2.628,0,0,0,2.5,0H4.2a2.65,2.65,0,0,0,2.507,0h.022l.011.011a4.809,4.809,0,0,1-.527,3.625A4.567,4.567,0,0,1,4.2,7.062ZM1.686,1.694a4.742,4.742,0,0,0,.527,3.561A4.716,4.716,0,0,0,4.193,7.019,4.655,4.655,0,0,0,6.172,5.255,4.742,4.742,0,0,0,6.7,1.694a2.682,2.682,0,0,1-2.507-.011,2.682,2.682,0,0,1-2.506.011" transform="translate(8.34 7.945)"/>
      <path id="Tracciato_4311" data-name="Tracciato 4311" d="M4.145,5.45a4.688,4.688,0,0,0,2-1.775A4.5,4.5,0,0,0,6.78,1.8H1.509a4.5,4.5,0,0,0,.635,1.872,4.688,4.688,0,0,0,2,1.775" transform="translate(8.388 9.535)" fill="#fff"/>
      <path id="Tracciato_4312" data-name="Tracciato 4312" d="M1.543,1.8V3.18a5.446,5.446,0,0,0,.258.495l.161.247V1.8Z" transform="translate(8.72 9.535)" fill="#de0427"/>
      <path id="Tracciato_4313" data-name="Tracciato 4313" d="M1.62,1.8V4.417q.21.21.42.387v-3Z" transform="translate(9.471 9.535)" fill="#de0427"/>
      <path id="Tracciato_4314" data-name="Tracciato 4314" d="M1.7,1.8v3.3c.161.108.3.183.42.247V1.8Z" transform="translate(10.222 9.535)" fill="#de0427"/>
      <path id="Tracciato_4315" data-name="Tracciato 4315" d="M1.774,1.8V5.342c.118-.065.269-.151.42-.247V1.8Z" transform="translate(10.974 9.535)" fill="#de0427"/>
      <path id="Tracciato_4316" data-name="Tracciato 4316" d="M1.849,1.8v3a4.762,4.762,0,0,0,.42-.4V1.8Z" transform="translate(11.705 9.535)" fill="#de0427"/>
      <path id="Tracciato_4317" data-name="Tracciato 4317" d="M2.345,3.18V1.8h-.42V3.922l.161-.247a5.447,5.447,0,0,0,.258-.495" transform="translate(12.447 9.535)" fill="#de0427"/>
      <path id="Tracciato_4318" data-name="Tracciato 4318" d="M.782,1.7H2.127l-.2.333L2.428,4.22l.7-2.162L2.751,1.7H4.16l-.366.42-1,2.84.3.527-1.388.022.43-.549-1-2.9Z" transform="translate(1.293 8.556)" fill="#00cfe5"/>
      <path id="Tracciato_4319" data-name="Tracciato 4319" d="M1.727,5.552l-.022-.011V5.52l.42-.538-.99-2.894L.78,1.733V1.712L.8,1.7H2.146l.022.011v.011l-.2.333.484,2.087.667-2.055-.366-.355-.011-.022L2.759,1.7h1.42l.022.011v.022l-.366.42-1,2.829.29.516.011.011L3.1,5.531ZM.855,1.744l.312.312.011.011,1,2.9v.022l-.4.506,1.291-.011-.28-.495-.011-.011L3.792,2.131V2.121l.333-.377h-1.3l.333.312.011.022-.7,2.162-.032.011L2.415,4.24,1.92,2.056V2.045l.183-.3Z" transform="translate(1.275 8.54)"/>
      <path id="Tracciato_4320" data-name="Tracciato 4320" d="M2.476,1.7H3.81l-.237.409L3.562,4.994l.28.495H2.476l.3-.43L2.788,2.09Z" transform="translate(17.822 8.556)" fill="#00cfe5"/>
      <path id="Tracciato_4321" data-name="Tracciato 4321" d="M3.871,5.53H2.484L2.473,5.5l.312-.43L2.8,2.12l-.312-.377V1.711L2.505,1.7H3.828l.022.011.011.022-.237.409L3.613,5.013l.28.484v.022l-.022.011M2.548,5.487h1.28L3.57,5.035V2.13h.011L3.8,1.743H2.548l.29.355v.011L2.828,5.078v.011Z" transform="translate(17.794 8.53)"/>
    </g>
  </g>
</svg>
