<svg xmlns="http://www.w3.org/2000/svg" xmlns:xlink="http://www.w3.org/1999/xlink" width="24" height="24" viewBox="0 0 24 24">
  <defs>
    <clipPath id="clip-path">
      <path id="Tracciato_4198" data-name="Tracciato 4198" d="M.525,12.749a12,12,0,1,0,12-12,12,12,0,0,0-12,12" transform="translate(-0.525 -0.749)" fill="none"/>
    </clipPath>
  </defs>
  <g id="Isole_Minori_degli_Stati_Uniti_d_America" data-name="Isole Minori degli Stati Uniti d’America" transform="translate(-0.525 -0.749)">
    <g id="Raggruppa_169" data-name="Raggruppa 169" transform="translate(0.525 0.749)" clip-path="url(#clip-path)">
      <rect id="Rettangolo_373" data-name="Rettangolo 373" width="45.675" height="24" transform="translate(-5.65 0)" fill="#fff"/>
      <rect id="Rettangolo_374" data-name="Rettangolo 374" width="45.654" height="1.797" transform="translate(-5.65 0)" fill="#bf0030"/>
      <rect id="Rettangolo_375" data-name="Rettangolo 375" width="45.654" height="1.797" transform="translate(-5.65 3.702)" fill="#bf0030"/>
      <rect id="Rettangolo_376" data-name="Rettangolo 376" width="45.654" height="1.797" transform="translate(-5.639 7.404)" fill="#bf0030"/>
      <rect id="Rettangolo_377" data-name="Rettangolo 377" width="45.654" height="1.797" transform="translate(-5.639 11.107)" fill="#bf0030"/>
      <rect id="Rettangolo_378" data-name="Rettangolo 378" width="45.654" height="1.797" transform="translate(-5.639 14.809)" fill="#bf0030"/>
      <rect id="Rettangolo_379" data-name="Rettangolo 379" width="45.654" height="1.797" transform="translate(-5.629 18.5)" fill="#bf0030"/>
      <rect id="Rettangolo_380" data-name="Rettangolo 380" width="45.654" height="1.797" transform="translate(-5.629 22.203)" fill="#bf0030"/>
      <rect id="Rettangolo_381" data-name="Rettangolo 381" width="18.253" height="12.893" transform="translate(-5.65 0.011)" fill="#001e68"/>
      <path id="Tracciato_4162" data-name="Tracciato 4162" d="M1.315.8l.161.484h.506l-.409.3.151.474-.409-.291-.409.291.151-.474-.409-.3h.506Z" transform="translate(0.67 -0.23)" fill="#fff"/>
      <path id="Tracciato_4163" data-name="Tracciato 4163" d="M1.6.8l.151.484h.517l-.409.3.151.474L1.6,1.771l-.409.291.161-.474-.42-.3h.506Z" transform="translate(3.431 -0.23)" fill="#fff"/>
      <path id="Tracciato_4164" data-name="Tracciato 4164" d="M1.88.8l.161.484h.506l-.409.3.151.474L1.88,1.771l-.409.291.161-.474-.42-.3h.517Z" transform="translate(6.191 -0.23)" fill="#fff"/>
      <path id="Tracciato_4165" data-name="Tracciato 4165" d="M2.163.8l.161.484H2.83l-.409.3.151.474-.409-.291-.409.291.161-.474-.42-.3h.517Z" transform="translate(8.949 -0.23)" fill="#fff"/>
      <path id="Tracciato_4166" data-name="Tracciato 4166" d="M1.173.925l.161.484h.506l-.42.291.161.484-.409-.291-.409.291L.915,1.7.506,1.409h.506Z" transform="translate(-0.71 0.966)" fill="#fff"/>
      <path id="Tracciato_4167" data-name="Tracciato 4167" d="M1.456.925l.161.484h.506L1.7,1.7l.161.484-.409-.291-.409.291L1.2,1.7.789,1.409h.506Z" transform="translate(2.051 0.966)" fill="#fff"/>
      <path id="Tracciato_4168" data-name="Tracciato 4168" d="M1.739.925l.151.484h.517L2,1.7l.151.484-.409-.291-.409.291L1.481,1.7l-.409-.291h.506Z" transform="translate(4.811 0.966)" fill="#fff"/>
      <path id="Tracciato_4169" data-name="Tracciato 4169" d="M2.022.925l.151.484h.517l-.42.291.161.484-.409-.291-.409.291L1.763,1.7l-.409-.291H1.86Z" transform="translate(7.572 0.966)" fill="#fff"/>
      <path id="Tracciato_4170" data-name="Tracciato 4170" d="M1.173,1.165l.161.484h.506l-.42.291.161.484-.409-.291-.409.291L.915,1.94.506,1.65h.506Z" transform="translate(-0.71 3.316)" fill="#fff"/>
      <path id="Tracciato_4171" data-name="Tracciato 4171" d="M1.456,1.165l.161.484h.506L1.7,1.94l.161.484-.409-.291-.409.291L1.2,1.94.789,1.65h.506Z" transform="translate(2.051 3.316)" fill="#fff"/>
      <path id="Tracciato_4172" data-name="Tracciato 4172" d="M1.739,1.165l.151.484h.517L2,1.94l.151.484-.409-.291-.409.291.151-.484L1.072,1.65h.506Z" transform="translate(4.811 3.316)" fill="#fff"/>
      <path id="Tracciato_4173" data-name="Tracciato 4173" d="M2.022,1.165l.151.484h.517l-.42.291.161.484-.409-.291-.409.291.151-.484L1.354,1.65H1.86Z" transform="translate(7.572 3.316)" fill="#fff"/>
      <path id="Tracciato_4174" data-name="Tracciato 4174" d="M1.173,1.406l.161.484h.506l-.42.3.161.474-.409-.291-.409.291.151-.474-.409-.3h.506Z" transform="translate(-0.71 5.666)" fill="#fff"/>
      <path id="Tracciato_4175" data-name="Tracciato 4175" d="M1.456,1.406l.161.484h.506l-.42.3.161.474-.409-.291-.409.291L1.2,2.192l-.409-.3h.506Z" transform="translate(2.051 5.666)" fill="#fff"/>
      <path id="Tracciato_4176" data-name="Tracciato 4176" d="M1.739,1.406l.151.484h.517L2,2.192l.151.474-.409-.291-.409.291.151-.474-.409-.3h.506Z" transform="translate(4.811 5.666)" fill="#fff"/>
      <path id="Tracciato_4177" data-name="Tracciato 4177" d="M2.022,1.406l.151.484h.517l-.42.3.161.474-.409-.291-.409.291.151-.474-.409-.3H1.86Z" transform="translate(7.572 5.666)" fill="#fff"/>
      <path id="Tracciato_4178" data-name="Tracciato 4178" d="M1.173,1.647l.161.484h.506l-.42.3.161.474-.409-.291-.409.291.151-.474-.409-.3h.506Z" transform="translate(-0.71 8.016)" fill="#fff"/>
      <path id="Tracciato_4179" data-name="Tracciato 4179" d="M1.456,1.647l.161.484h.506l-.42.3.161.474-.409-.291-.409.291L1.2,2.432l-.409-.3h.506Z" transform="translate(2.051 8.016)" fill="#fff"/>
      <path id="Tracciato_4180" data-name="Tracciato 4180" d="M1.739,1.647l.151.484h.517L2,2.432l.151.474-.409-.291-.409.291.151-.474-.409-.3h.506Z" transform="translate(4.811 8.016)" fill="#fff"/>
      <path id="Tracciato_4181" data-name="Tracciato 4181" d="M2.022,1.647l.151.484h.517l-.42.3.161.474-.409-.291-.409.291.151-.474-.409-.3H1.86Z" transform="translate(7.572 8.016)" fill="#fff"/>
      <path id="Tracciato_4182" data-name="Tracciato 4182" d="M1.315,1.046l.161.484h.506l-.409.291.151.484-.409-.291L.906,2.3l.151-.484L.647,1.53h.506Z" transform="translate(0.67 2.147)" fill="#fff"/>
      <path id="Tracciato_4183" data-name="Tracciato 4183" d="M1.6,1.046l.151.484h.517l-.409.291.151.484L1.6,2.014,1.188,2.3l.161-.484L.93,1.53h.506Z" transform="translate(3.431 2.147)" fill="#fff"/>
      <path id="Tracciato_4184" data-name="Tracciato 4184" d="M1.88,1.046l.161.484h.506l-.409.291.151.484L1.88,2.014,1.471,2.3l.161-.484-.42-.291h.517Z" transform="translate(6.191 2.147)" fill="#fff"/>
      <path id="Tracciato_4185" data-name="Tracciato 4185" d="M2.163,1.046l.161.484H2.83l-.409.291.151.484-.409-.291L1.754,2.3l.161-.484L1.5,1.53h.517Z" transform="translate(8.949 2.147)" fill="#fff"/>
      <path id="Tracciato_4186" data-name="Tracciato 4186" d="M1.315,1.289l.161.484h.506l-.409.291.151.484-.409-.291-.409.291.151-.484L.647,1.773h.506Z" transform="translate(0.67 4.521)" fill="#fff"/>
      <path id="Tracciato_4187" data-name="Tracciato 4187" d="M1.6,1.289l.151.484h.517l-.409.291.151.484L1.6,2.257l-.409.291.161-.484L.93,1.773h.506Z" transform="translate(3.431 4.521)" fill="#fff"/>
      <path id="Tracciato_4188" data-name="Tracciato 4188" d="M1.88,1.289l.161.484h.506l-.409.291.151.484L1.88,2.257l-.409.291.161-.484-.42-.291h.517Z" transform="translate(6.191 4.521)" fill="#fff"/>
      <path id="Tracciato_4189" data-name="Tracciato 4189" d="M2.163,1.289l.161.484H2.83l-.409.291.151.484-.409-.291-.409.291.161-.484L1.5,1.773h.517Z" transform="translate(8.949 4.521)" fill="#fff"/>
      <path id="Tracciato_4190" data-name="Tracciato 4190" d="M1.315,1.532l.161.484h.506l-.409.291.151.484L1.315,2.5l-.409.291.151-.484L.647,2.017h.506Z" transform="translate(0.67 6.898)" fill="#fff"/>
      <path id="Tracciato_4191" data-name="Tracciato 4191" d="M1.6,1.532l.151.484h.517l-.409.291.151.484L1.6,2.5l-.409.291.161-.484L.93,2.017h.506Z" transform="translate(3.431 6.898)" fill="#fff"/>
      <path id="Tracciato_4192" data-name="Tracciato 4192" d="M1.88,1.532l.161.484h.506l-.409.291.151.484L1.88,2.5l-.409.291.161-.484-.42-.291h.517Z" transform="translate(6.191 6.898)" fill="#fff"/>
      <path id="Tracciato_4193" data-name="Tracciato 4193" d="M2.163,1.532l.161.484H2.83l-.409.291.151.484L2.163,2.5l-.409.291.161-.484L1.5,2.017h.517Z" transform="translate(8.949 6.898)" fill="#fff"/>
      <path id="Tracciato_4194" data-name="Tracciato 4194" d="M1.315,1.775l.161.484h.506l-.409.291.151.484-.409-.291-.409.291.151-.484L.647,2.26h.506Z" transform="translate(0.67 9.271)" fill="#fff"/>
      <path id="Tracciato_4195" data-name="Tracciato 4195" d="M1.6,1.775l.151.484h.517l-.409.291.151.484L1.6,2.744l-.409.291L1.35,2.55.93,2.26h.506Z" transform="translate(3.431 9.271)" fill="#fff"/>
      <path id="Tracciato_4196" data-name="Tracciato 4196" d="M1.88,1.775l.161.484h.506l-.409.291.151.484L1.88,2.744l-.409.291.161-.484-.42-.291h.517Z" transform="translate(6.191 9.271)" fill="#fff"/>
      <path id="Tracciato_4197" data-name="Tracciato 4197" d="M2.163,1.775l.161.484H2.83l-.409.291.151.484-.409-.291-.409.291.161-.484L1.5,2.26h.517Z" transform="translate(8.949 9.271)" fill="#fff"/>
    </g>
  </g>
</svg>
