<svg xmlns="http://www.w3.org/2000/svg" xmlns:xlink="http://www.w3.org/1999/xlink" width="24" height="24" viewBox="0 0 24 24">
  <defs>
    <clipPath id="clip-path">
      <path id="Tracciato_3473" data-name="Tracciato 3473" d="M.154,12.749a12,12,0,1,0,12-12,12,12,0,0,0-12,12" transform="translate(-0.154 -0.749)" fill="none"/>
    </clipPath>
  </defs>
  <g id="Isole_Cocos" data-name="Isole Cocos" transform="translate(-0.154 -0.749)">
    <g id="Raggruppa_80" data-name="Raggruppa 80" transform="translate(0.154 0.749)" clip-path="url(#clip-path)">
      <rect id="Rettangolo_340" data-name="Rettangolo 340" width="30.63" height="24" transform="translate(-1.657 0)" fill="#008100"/>
      <path id="Tracciato_3463" data-name="Tracciato 3463" d="M2.85,1.845,3.1,1.3l.226.549.635-.151-.323.538.506.377L3.5,2.717l.065.6-.463-.4-.463.4v-.6l-.592-.108.506-.387-.291-.56Z" transform="translate(18.283 4.595)" fill="#ffe400"/>
      <path id="Tracciato_3464" data-name="Tracciato 3464" d="M3.162,2.128,3.42,1.58l.215.549.635-.151-.323.538.506.377L3.807,3l.065.6-.463-.4-.463.4V3l-.592-.108.506-.387-.291-.56Z" transform="translate(21.327 7.36)" fill="#ffe400"/>
      <path id="Tracciato_3465" data-name="Tracciato 3465" d="M2.492,2.223l.248-.549.226.549L3.6,2.072l-.323.538.506.366-.646.118.065.6L2.74,3.288,2.277,3.7v-.6l-.592-.118L2.191,2.6,1.9,2.04Z" transform="translate(14.792 8.281)" fill="#ffe400"/>
      <path id="Tracciato_3466" data-name="Tracciato 3466" d="M2.85,2.786,3.1,2.237l.226.549.635-.151-.323.538.506.377-.646.1.065.613L3.1,3.852l-.463.409v-.6L2.043,3.55l.506-.387L2.258,2.6Z" transform="translate(18.283 13.779)" fill="#ffe400"/>
      <path id="Tracciato_3467" data-name="Tracciato 3467" d="M2.925,1.856l.172.517h.538l-.441.312.172.517-.441-.323L2.484,3.2l.172-.517-.441-.312h.538Z" transform="translate(19.963 10.057)" fill="#ffe400"/>
      <path id="Tracciato_3468" data-name="Tracciato 3468" d="M5.373,7.407A2.6,2.6,0,1,1,6.751,2.6,3.248,3.248,0,1,0,4.361,8.053,3.273,3.273,0,0,0,6.751,7.02a2.63,2.63,0,0,1-1.378.387" transform="translate(9.296 7.198)" fill="#ffe100"/>
      <path id="Tracciato_3469" data-name="Tracciato 3469" d="M6.851,4.593A3.336,3.336,0,1,1,3.514,1.257,3.339,3.339,0,0,1,6.851,4.593" transform="translate(0.08 4.21)" fill="#ffe100"/>
      <path id="Tracciato_3470" data-name="Tracciato 3470" d="M1.376,1.543c-.043.549-.1,1.022-.151,1.431-.1.613-.194,1.087-.452,1.173a.424.424,0,0,0-.291.172.258.258,0,0,0-.032.14H1.569a.194.194,0,0,0-.022-.172c-.065-.086-.194-.022-.258-.086s.108-.248.118-.269a8.777,8.777,0,0,0,.118-2.4l-.151.011" transform="translate(2.736 6.895)" fill="#961800"/>
      <path id="Tracciato_3471" data-name="Tracciato 3471" d="M5.093,3.469c-.011-.054-.043-.108-.086-.1a.2.2,0,0,0-.1-.237A.448.448,0,0,0,4.619,3.1a.814.814,0,0,1-.28,0,.157.157,0,0,1,.194-.194.112.112,0,0,0-.108-.14l-.011-.1.194-.065c0-.086-.108-.118-.194-.118s-.183,0-.226-.075c.011.065-.075.1-.129.086s-.14-.022-.172.022l-.032.108a.241.241,0,0,1-.3.194c-.054-.065.022-.161.086-.226s.14-.161.075-.226c-.032-.043-.1-.043-.161-.043a.218.218,0,0,1,.183-.172.5.5,0,0,1,.248.043c.043.022.075.043.118.032a.083.083,0,0,0,.086-.075c0-.043-.065-.086-.043-.129l.065-.054a.08.08,0,0,0-.043-.118.194.194,0,0,0-.151.022l-.4.14c-.054-.065,0-.172.075-.215s.172-.086.2-.161a.211.211,0,0,1-.14-.1.2.2,0,0,0,.118-.161.278.278,0,0,0-.377.075,4,4,0,0,0-.2.366c-.086-.032-.1-.151-.118-.237S3.091,1.37,2.994,1.4a.938.938,0,0,1-.118.753l-.161-.183a.59.59,0,0,0,.194.484.6.6,0,0,1,.226.474l-.043.086a.129.129,0,0,1-.161,0,.275.275,0,0,1-.108-.14,2.075,2.075,0,0,0-.635-.839c.032.032,0,.108-.054.118a.27.27,0,0,1-.151-.065.646.646,0,0,0-.344-.075c-.054,0-.118.022-.129.075a.1.1,0,0,0,.065.129.291.291,0,0,0,.161.032.737.737,0,0,1,.366.118.408.408,0,0,1,.183.334,1.278,1.278,0,0,0-.829-.226.632.632,0,0,0-.387.14.321.321,0,0,0-.1.366.561.561,0,0,1,.517-.28.349.349,0,0,1-.237.3A2.475,2.475,0,0,0,1.627,2.9c.129-.022.291,0,.344.118a1.36,1.36,0,0,1-.657.1,1.421,1.421,0,0,0-.3-.022.253.253,0,0,0-.2.194.1.1,0,0,0-.118.054.24.24,0,0,0,0,.151.143.143,0,0,0-.172.054c-.043.043-.065.1-.129.129l-.108.054c-.032.032-.022.108.022.1l.108-.075c.043-.011.1,0,.108.043.032.065-.043.161,0,.215L.637,4,.7,3.889a.428.428,0,0,1,.549-.215l.086.032c.108.022.183-.118.28-.172.151-.086.334.043.506.022A2.476,2.476,0,0,1,2.5,3.447c-.108.183-.215.366-.312.549l-.054.129a.6.6,0,0,0,.022.194.608.608,0,0,1-.043.387.2.2,0,0,0-.043.172.128.128,0,0,0,.161.075.322.322,0,0,0,.183-.108l.054-.065c.022-.075-.086-.183-.022-.237l.129-.022c.075-.032.032-.129.011-.2a.78.78,0,0,1,.1-.613c.022-.043.043-.086.1-.1a.081.081,0,0,1,.075.075.224.224,0,0,1-.011.118l-.086.237a1.171,1.171,0,0,0-.075.258.394.394,0,0,0,.312.4.183.183,0,0,0,.151-.022.23.23,0,0,0,.086-.183.7.7,0,0,0-.043-.2,1.148,1.148,0,0,1,.075-.657l.065-.065a.107.107,0,0,1,.129.075c.043.108.022.248.108.344.075.075.248.108.248.226,0,.054-.043.1-.022.14l.054.054a2.828,2.828,0,0,1,.323.086.441.441,0,0,1,.14.4.232.232,0,0,0,.226-.172.366.366,0,0,0-.043-.3L4.4,4.3a.154.154,0,0,1,.022-.14c.043-.032.086-.022.129-.032s.1-.054.086-.086l-.054-.054a2.836,2.836,0,0,0-.323-.075c-.1-.032-.2-.118-.194-.226a1.027,1.027,0,0,0,.57.032c.1-.022.215-.054.28.032l.043.1.1.032a1.072,1.072,0,0,0,.032-.409M4.027,3.447l-.065.032-.1.043-.032.054a.1.1,0,0,1-.14.032c-.054-.032-.054-.129-.118-.172l-.011-.011.011-.043.043-.011c.075.011.151.054.215.032l.151-.043.065.022-.022.065" transform="translate(0.913 4.958)" fill="#008100"/>
      <path id="Tracciato_3472" data-name="Tracciato 3472" d="M.462,1.41.44,1.4Z" transform="translate(2.638 5.597)" fill="#008100"/>
    </g>
  </g>
</svg>
