<svg xmlns="http://www.w3.org/2000/svg" xmlns:xlink="http://www.w3.org/1999/xlink" width="24" height="24" viewBox="0 0 24 24">
  <defs>
    <clipPath id="clip-path">
      <path id="Tracciato_4611" data-name="Tracciato 4611" d="M.566,12.749a12,12,0,1,0,12-12,12,12,0,0,0-12,12" transform="translate(-0.566 -0.749)" fill="none"/>
    </clipPath>
  </defs>
  <g id="Kenya" transform="translate(-0.566 -0.749)">
    <g id="Raggruppa_176" data-name="Raggruppa 176" transform="translate(0.566 0.749)" clip-path="url(#clip-path)">
      <rect id="Rettangolo_388" data-name="Rettangolo 388" width="36.183" height="24.129" transform="translate(-6.091 -0.065)"/>
      <rect id="Rettangolo_389" data-name="Rettangolo 389" width="36.183" height="16.897" transform="translate(-6.091 7.168)" fill="#fff"/>
      <rect id="Rettangolo_390" data-name="Rettangolo 390" width="36.183" height="15.681" transform="translate(-6.091 8.384)" fill="#bb0008"/>
      <rect id="Rettangolo_391" data-name="Rettangolo 391" width="36.183" height="8.481" transform="translate(-6.091 15.584)" fill="#fff"/>
      <rect id="Rettangolo_392" data-name="Rettangolo 392" width="36.183" height="7.243" transform="translate(-6.091 16.822)" fill="#006e00"/>
      <path id="Tracciato_4599" data-name="Tracciato 4599" d="M1.61,16.828l-.334-.194L8.358,4.376c-.1-.764.85-1.959,2.12-3.293C9.983,2.934,9.4,4.247,8.691,4.57Z" transform="translate(6.365 2.512)" fill="#fff"/>
      <path id="Tracciato_4600" data-name="Tracciato 4600" d="M1.68,17.02l-.409-.237.022-.032L8.363,4.492c-.075-.667.592-1.679,2.142-3.3l.118-.118-.043.161c-.56,2.056-1.152,3.207-1.808,3.509Zm-.291-.269.258.151L8.719,4.675l.011-.011c.624-.28,1.184-1.356,1.722-3.293C9.44,2.437,8.353,3.718,8.46,4.5v.011l-.011.011Z" transform="translate(6.316 2.385)" fill="#1d1d1b"/>
      <path id="Tracciato_4601" data-name="Tracciato 4601" d="M10.1,16.828l.334-.194L3.35,4.376c.1-.764-.85-1.959-2.12-3.293C1.725,2.934,2.3,4.247,3.017,4.57Z" transform="translate(5.916 2.512)" fill="#fff"/>
      <path id="Tracciato_4602" data-name="Tracciato 4602" d="M10.164,17.03l-.022-.043L3.061,4.75c-.646-.312-1.238-1.464-1.8-3.509l-.043-.172.118.129C2.889,2.812,3.546,3.835,3.47,4.5l7.1,12.291ZM1.393,1.381C1.931,3.318,2.5,4.395,3.115,4.674h.011l.011.022L10.2,16.911l.258-.151L3.384,4.524V4.5c.108-.786-.979-2.056-1.991-3.121" transform="translate(5.828 2.375)" fill="#1d1d1b"/>
      <path id="Tracciato_4603" data-name="Tracciato 4603" d="M4.971,15.667c.861,0,3.627-3.239,3.627-7.232S5.832,1.192,4.971,1.192,1.344,4.431,1.344,8.435,4.1,15.667,4.971,15.667" transform="translate(7.029 3.576)" fill="#b00"/>
      <path id="Tracciato_4604" data-name="Tracciato 4604" d="M2.076,1.528a9.711,9.711,0,0,0-.732,3.616,9.629,9.629,0,0,0,.743,3.648,8.8,8.8,0,0,0-.011-7.265" transform="translate(7.029 6.856)"/>
      <path id="Tracciato_4605" data-name="Tracciato 4605" d="M2.669,1.528A9.711,9.711,0,0,1,3.4,5.144a9.629,9.629,0,0,1-.743,3.648,8.8,8.8,0,0,1,.011-7.265" transform="translate(12.226 6.856)"/>
      <path id="Tracciato_4606" data-name="Tracciato 4606" d="M2.193,1.194a8.933,8.933,0,0,0,0,6.339Z" transform="translate(9.645 3.595)" fill="#fff"/>
      <path id="Tracciato_4607" data-name="Tracciato 4607" d="M1.695,1.194a8.933,8.933,0,0,1,0,6.339Z" transform="translate(10.456 3.595)" fill="#fff"/>
      <path id="Tracciato_4608" data-name="Tracciato 4608" d="M1.7,1.946a8.933,8.933,0,0,1,0,6.339Z" transform="translate(10.465 10.937)" fill="#fff"/>
      <path id="Tracciato_4609" data-name="Tracciato 4609" d="M2.193,1.946a8.933,8.933,0,0,0,0,6.339Z" transform="translate(9.645 10.937)" fill="#fff"/>
      <path id="Tracciato_4610" data-name="Tracciato 4610" d="M2.79,2.666c0,.484-.258.883-.581.883s-.581-.4-.581-.883.258-.883.581-.883.581.4.581.883" transform="translate(9.802 9.345)" fill="#fff"/>
    </g>
  </g>
</svg>
