<svg xmlns="http://www.w3.org/2000/svg" xmlns:xlink="http://www.w3.org/1999/xlink" width="24" height="24" viewBox="0 0 24 24">
  <defs>
    <clipPath id="clip-path">
      <path id="Tracciato_4668" data-name="Tracciato 4668" d="M.743,12.749a12,12,0,1,0,12.011-12,12,12,0,0,0-12.011,12" transform="translate(-0.743 -0.749)" fill="none"/>
    </clipPath>
  </defs>
  <g id="Kirghizistan" transform="translate(-0.743 -0.749)">
    <g id="Raggruppa_177" data-name="Raggruppa 177" transform="translate(0.743 0.749)" clip-path="url(#clip-path)">
      <rect id="Rettangolo_393" data-name="Rettangolo 393" width="39.993" height="24" transform="translate(-7.996 0)" fill="#e6223c"/>
      <path id="Tracciato_4612" data-name="Tracciato 4612" d="M1.88,1.894l.291.194.366-.215-.269-.194-.387.215" transform="translate(10.357 8.33)" fill="#fc0"/>
      <path id="Tracciato_4613" data-name="Tracciato 4613" d="M1.818,1.869c.14.065.269.14.409.215l.4-.226c-.14-.075-.28-.14-.409-.215-.14.075-.269.14-.4.226" transform="translate(9.752 7.979)" fill="#fc0"/>
      <path id="Tracciato_4614" data-name="Tracciato 4614" d="M1.888,5.458l-.075-.14A5.912,5.912,0,0,1,3.825,1.939L3.47,1.713A6.724,6.724,0,0,0,1.576,5.049c.1.14.2.28.312.409" transform="translate(7.389 8.662)" fill="#fc0"/>
      <path id="Tracciato_4615" data-name="Tracciato 4615" d="M1.771,1.873c.129.075.248.14.377.226.086-.075.183-.14.269-.2-.129-.075-.258-.151-.387-.215l-.258.194" transform="translate(9.293 8.33)" fill="#fc0"/>
      <path id="Tracciato_4616" data-name="Tracciato 4616" d="M3.374,2.075a7.009,7.009,0,0,0-1.679-.452l-.1.118a5.765,5.765,0,0,1,1.528.506l.248-.172" transform="translate(7.604 7.783)" fill="#fc0"/>
      <path id="Tracciato_4617" data-name="Tracciato 4617" d="M3.8,2.02a6.789,6.789,0,0,0-1.97-.43l-.2.194a5.727,5.727,0,0,1,1.787.452c.118-.075.258-.151.387-.215" transform="translate(7.838 7.461)" fill="#fc0"/>
      <path id="Tracciato_4618" data-name="Tracciato 4618" d="M2.294,2.264A5.827,5.827,0,0,1,4.1,1.78l-.215-.194a6.757,6.757,0,0,0-2,.463c.14.065.269.14.409.215" transform="translate(10.406 7.422)" fill="#fc0"/>
      <path id="Tracciato_4619" data-name="Tracciato 4619" d="M2.205,2.277a5.926,5.926,0,0,1,1.55-.538L3.647,1.62a7.2,7.2,0,0,0-1.7.484l.258.172" transform="translate(11.011 7.754)" fill="#fc0"/>
      <path id="Tracciato_4620" data-name="Tracciato 4620" d="M2.391,1.93c-.086-.075-.183-.14-.28-.215l-.28.215c.1.075.194.14.28.215l.28-.215" transform="translate(9.878 8.681)" fill="#fc0"/>
      <path id="Tracciato_4621" data-name="Tracciato 4621" d="M1.888,5.617A5.917,5.917,0,0,1,3.749,1.979L3.48,1.753a6.386,6.386,0,0,0-1.84,3.7,2.9,2.9,0,0,0,.291.215Z" transform="translate(8.014 9.052)" fill="#fc0"/>
      <path id="Tracciato_4622" data-name="Tracciato 4622" d="M3.633,2.156A7.242,7.242,0,0,0,2.191,1.65a3.576,3.576,0,0,0-.667,2.088,3.728,3.728,0,0,0,.2,1.205,5.991,5.991,0,0,1,1.9-2.787" transform="translate(6.881 8.047)" fill="#fc0"/>
      <path id="Tracciato_4623" data-name="Tracciato 4623" d="M3.292,1.8A6.312,6.312,0,0,0,1.71,5.54,3.615,3.615,0,0,0,3.3,5.917,3.538,3.538,0,0,0,4.917,5.53,6.228,6.228,0,0,0,3.292,1.8" transform="translate(8.697 9.462)" fill="#fc0"/>
      <path id="Tracciato_4624" data-name="Tracciato 4624" d="M3.728,2.651a6.263,6.263,0,0,1,2.088-.506A3.623,3.623,0,0,0,3.771,1.51a3.575,3.575,0,0,0-2.109.678,6.124,6.124,0,0,1,2.066.463" transform="translate(8.229 6.68)" fill="#fc0"/>
      <path id="Tracciato_4625" data-name="Tracciato 4625" d="M3.784,5.626a1.333,1.333,0,0,0,.237-.194A6.3,6.3,0,0,0,2.137,1.752l-.258.226a5.953,5.953,0,0,1,1.9,3.648" transform="translate(10.347 9.043)" fill="#fc0"/>
      <path id="Tracciato_4626" data-name="Tracciato 4626" d="M2.283,1.713c-.118.065-.237.151-.355.226a5.969,5.969,0,0,1,2.077,3.4,3.2,3.2,0,0,0,.215-.312A6.547,6.547,0,0,0,2.283,1.713" transform="translate(10.825 8.662)" fill="#fc0"/>
      <path id="Tracciato_4627" data-name="Tracciato 4627" d="M3.445,1.646a7.47,7.47,0,0,0-1.453.527A6.017,6.017,0,0,1,3.94,4.95a3.551,3.551,0,0,0-.5-3.3" transform="translate(11.45 8.008)" fill="#fc0"/>
      <path id="Tracciato_4628" data-name="Tracciato 4628" d="M1.882,4.1H2.5c-.28-.883.4-2.411-.28-2.9.3,1.216-.635,2.239-.334,2.9" transform="translate(9.784 3.664)" fill="#fc0"/>
      <path id="Tracciato_4629" data-name="Tracciato 4629" d="M1.883,4.116l.613-.1c-.42-.829.011-2.443-.743-2.809.484,1.152-.269,2.3.129,2.906" transform="translate(9.127 3.751)" fill="#fc0"/>
      <path id="Tracciato_4630" data-name="Tracciato 4630" d="M2.234,4.086l.592-.194c-.549-.743-.377-2.411-1.173-2.658.657,1.065.1,2.314.581,2.852" transform="translate(8.141 3.986)" fill="#fc0"/>
      <path id="Tracciato_4631" data-name="Tracciato 4631" d="M2.578,4l.549-.28c-.657-.657-.743-2.325-1.571-2.443.818.947.463,2.271,1.022,2.723" transform="translate(7.194 4.376)" fill="#fc0"/>
      <path id="Tracciato_4632" data-name="Tracciato 4632" d="M2.9,3.858,3.405,3.5C2.652,2.954,2.3,1.318,1.468,1.329c.947.8.807,2.174,1.431,2.529" transform="translate(6.335 4.913)" fill="#fc0"/>
      <path id="Tracciato_4633" data-name="Tracciato 4633" d="M3.207,3.675l.441-.43c-.829-.42-1.431-1.98-2.26-1.84,1.076.646,1.141,2.023,1.819,2.271" transform="translate(5.554 5.559)" fill="#fc0"/>
      <path id="Tracciato_4634" data-name="Tracciato 4634" d="M3.472,3.474l.366-.5C2.956,2.689,2.106,1.236,1.32,1.5c1.162.474,1.442,1.819,2.152,1.97" transform="translate(4.89 6.308)" fill="#fc0"/>
      <path id="Tracciato_4635" data-name="Tracciato 4635" d="M3.7,3.24l.28-.549C3.063,2.54,2,1.249,1.266,1.625,2.482,1.916,2.977,3.207,3.7,3.24" transform="translate(4.363 7.135)" fill="#fc0"/>
      <path id="Tracciato_4636" data-name="Tracciato 4636" d="M3.884,2.981,4.078,2.4c-.936-.011-2.185-1.119-2.852-.624,1.248.086,1.937,1.281,2.658,1.205" transform="translate(3.972 8.029)" fill="#fc0"/>
      <path id="Tracciato_4637" data-name="Tracciato 4637" d="M4.021,2.724l.1-.6c-.915.14-2.325-.775-2.917-.172,1.248-.108,2.12.969,2.82.775" transform="translate(3.728 8.942)" fill="#fc0"/>
      <path id="Tracciato_4638" data-name="Tracciato 4638" d="M4.1,2.482V1.868c-.883.28-2.422-.4-2.906.28,1.216-.291,2.249.635,2.906.334" transform="translate(3.66 9.852)" fill="#fc0"/>
      <path id="Tracciato_4639" data-name="Tracciato 4639" d="M4.119,2.5l-.1-.6c-.829.409-2.454-.011-2.82.732C2.354,2.149,3.516,2.9,4.119,2.5" transform="translate(3.738 10.497)" fill="#fc0"/>
      <path id="Tracciato_4640" data-name="Tracciato 4640" d="M4.09,2.543,3.9,1.962c-.753.538-2.422.366-2.669,1.162,1.065-.657,2.325-.1,2.863-.581" transform="translate(3.982 11.093)" fill="#fc0"/>
      <path id="Tracciato_4641" data-name="Tracciato 4641" d="M4,2.569l-.28-.549c-.657.657-2.335.743-2.454,1.561C2.214,2.773,3.549,3.129,4,2.569" transform="translate(4.372 11.659)" fill="#fc0"/>
      <path id="Tracciato_4642" data-name="Tracciato 4642" d="M3.872,2.57l-.366-.5c-.549.743-2.2,1.1-2.185,1.926.818-.958,2.185-.807,2.551-1.431" transform="translate(4.9 12.196)" fill="#fc0"/>
      <path id="Tracciato_4643" data-name="Tracciato 4643" d="M3.689,2.555l-.43-.43c-.43.818-2,1.421-1.862,2.239C2.053,3.3,3.431,3.234,3.689,2.555" transform="translate(5.555 12.684)" fill="#fc0"/>
      <path id="Tracciato_4644" data-name="Tracciato 4644" d="M3.479,2.533l-.5-.366C2.683,3.05,1.23,3.889,1.5,4.675c.474-1.152,1.819-1.431,1.98-2.142" transform="translate(6.314 13.094)" fill="#fc0"/>
      <path id="Tracciato_4645" data-name="Tracciato 4645" d="M3.237,2.483,2.688,2.2c-.151.915-1.453,1.97-1.065,2.7C1.914,3.7,3.205,3.2,3.237,2.483" transform="translate(7.148 13.445)" fill="#fc0"/>
      <path id="Tracciato_4646" data-name="Tracciato 4646" d="M2.986,2.424,2.394,2.23c0,.926-1.119,2.174-.624,2.841.1-1.248,1.291-1.926,1.216-2.648" transform="translate(8.046 13.709)" fill="#fc0"/>
      <path id="Tracciato_4647" data-name="Tracciato 4647" d="M2.724,2.346l-.6-.1c.14.915-.775,2.314-.183,2.906-.1-1.248.979-2.109.786-2.809" transform="translate(8.964 13.894)" fill="#fc0"/>
      <path id="Tracciato_4648" data-name="Tracciato 4648" d="M2.478,2.258H1.864c.28.883-.4,2.411.28,2.9-.3-1.216.635-2.239.334-2.9" transform="translate(9.878 13.982)" fill="#fc0"/>
      <path id="Tracciato_4649" data-name="Tracciato 4649" d="M2.5,2.248l-.6.1c.409.829-.022,2.443.732,2.809C2.145,4,2.9,2.851,2.5,2.248" transform="translate(10.523 13.885)" fill="#fc0"/>
      <path id="Tracciato_4650" data-name="Tracciato 4650" d="M2.539,2.229l-.581.194c.538.743.366,2.411,1.162,2.658-.657-1.065-.1-2.314-.581-2.852" transform="translate(11.118 13.699)" fill="#fc0"/>
      <path id="Tracciato_4651" data-name="Tracciato 4651" d="M2.576,2.2l-.56.28c.667.657.753,2.325,1.571,2.443C2.769,3.987,3.146,2.652,2.576,2.2" transform="translate(11.684 13.416)" fill="#fc0"/>
      <path id="Tracciato_4652" data-name="Tracciato 4652" d="M2.567,2.164l-.5.355c.743.549,1.1,2.185,1.937,2.174C3.051,3.886,3.2,2.519,2.567,2.164" transform="translate(12.231 13.065)" fill="#fc0"/>
      <path id="Tracciato_4653" data-name="Tracciato 4653" d="M2.562,2.12l-.441.43c.829.43,1.431,1.991,2.26,1.851C3.3,3.756,3.24,2.378,2.562,2.12" transform="translate(12.709 12.635)" fill="#fc0"/>
      <path id="Tracciato_4654" data-name="Tracciato 4654" d="M2.53,2.07l-.366.5C3.047,2.856,3.9,4.3,4.682,4.04,3.52,3.566,3.24,2.221,2.53,2.07" transform="translate(13.129 12.147)" fill="#fc0"/>
      <path id="Tracciato_4655" data-name="Tracciato 4655" d="M2.48,2.014l-.28.549c.915.14,1.98,1.442,2.723,1.055C3.7,3.338,3.2,2.046,2.48,2.014" transform="translate(13.481 11.6)" fill="#fc0"/>
      <path id="Tracciato_4656" data-name="Tracciato 4656" d="M2.422,1.959l-.194.581c.936,0,2.185,1.119,2.852.624C3.832,3.078,3.143,1.873,2.422,1.959" transform="translate(13.754 11.02)" fill="#fc0"/>
      <path id="Tracciato_4657" data-name="Tracciato 4657" d="M2.343,1.915l-.1.6c.915-.14,2.335.775,2.917.172-1.248.108-2.12-.969-2.82-.775" transform="translate(13.93 10.408)" fill="#fc0"/>
      <path id="Tracciato_4658" data-name="Tracciato 4658" d="M2.255,1.884V2.5c.883-.28,2.422.4,2.906-.28-1.216.291-2.249-.624-2.906-.334" transform="translate(14.018 9.771)" fill="#fc0"/>
      <path id="Tracciato_4659" data-name="Tracciato 4659" d="M2.245,1.888l.1.6c.829-.409,2.454.022,2.82-.732-1.152.484-2.314-.269-2.917.129" transform="translate(13.92 9.111)" fill="#fc0"/>
      <path id="Tracciato_4660" data-name="Tracciato 4660" d="M2.226,2.239l.194.581c.753-.538,2.422-.366,2.669-1.162-1.065.657-2.325.1-2.863.581" transform="translate(13.735 8.125)" fill="#fc0"/>
      <path id="Tracciato_4661" data-name="Tracciato 4661" d="M2.2,2.583l.28.549c.657-.657,2.335-.743,2.465-1.571-.958.818-2.292.463-2.744,1.022" transform="translate(13.451 7.178)" fill="#fc0"/>
      <path id="Tracciato_4662" data-name="Tracciato 4662" d="M2.161,2.9l.366.5C3.076,2.657,4.712,2.3,4.7,1.473c-.807.958-2.185.807-2.54,1.431" transform="translate(13.1 6.319)" fill="#fc0"/>
      <path id="Tracciato_4663" data-name="Tracciato 4663" d="M2.117,3.2l.43.43c.43-.818,2-1.421,1.862-2.239C3.753,2.46,2.375,2.525,2.117,3.2" transform="translate(12.67 5.557)" fill="#fc0"/>
      <path id="Tracciato_4664" data-name="Tracciato 4664" d="M2.066,3.469l.5.366C2.852,2.952,4.3,2.113,4.046,1.327c-.474,1.152-1.83,1.431-1.98,2.142" transform="translate(12.173 4.894)" fill="#fc0"/>
      <path id="Tracciato_4665" data-name="Tracciato 4665" d="M2.011,3.695l.549.28C2.711,3.06,4.013,2,3.625,1.273c-.291,1.205-1.582,1.7-1.614,2.422" transform="translate(11.636 4.366)" fill="#fc0"/>
      <path id="Tracciato_4666" data-name="Tracciato 4666" d="M1.955,3.881l.581.194c.011-.926,1.13-2.174.635-2.841-.1,1.248-1.3,1.926-1.216,2.648" transform="translate(11.046 3.976)" fill="#fc0"/>
      <path id="Tracciato_4667" data-name="Tracciato 4667" d="M1.911,4.017l.6.1C2.374,3.2,3.289,1.8,2.7,1.208c.1,1.248-.979,2.12-.786,2.809" transform="translate(10.433 3.732)" fill="#fc0"/>
    </g>
  </g>
</svg>
