<svg xmlns="http://www.w3.org/2000/svg" xmlns:xlink="http://www.w3.org/1999/xlink" width="24" height="24" viewBox="0 0 24 24">
  <defs>
    <clipPath id="clip-path">
      <path id="Tracciato_4726" data-name="Tracciato 4726" d="M1.109,12.542a12,12,0,1,0,12-12,12,12,0,0,0-12,12" transform="translate(-1.109 -0.542)" fill="none"/>
    </clipPath>
  </defs>
  <g id="Kiribati" transform="translate(-1.109 -0.542)">
    <g id="Raggruppa_178" data-name="Raggruppa 178" transform="translate(1.109 0.542)" clip-path="url(#clip-path)">
      <rect id="Rettangolo_394" data-name="Rettangolo 394" width="47.871" height="26.454" transform="translate(-11.935 0)" fill="#ce111a"/>
      <path id="Tracciato_4669" data-name="Tracciato 4669" d="M2.872,1.313a3.981,3.981,0,0,1-.936-.269l-.2-.1a3.238,3.238,0,0,0,.517.161,6.4,6.4,0,0,0,.979.161l.248.032c.269.032.517.065.807.108a3.182,3.182,0,0,1,1.044.248c.409.194.484.387.506.452l.022.086a2.478,2.478,0,0,0-.4-.248,4.239,4.239,0,0,0-1.313-.409c-.28-.054-.441-.086-.592-.108s-.334-.043-.678-.118" transform="translate(4.963 3.412)" fill="#fcef00"/>
      <path id="Tracciato_4670" data-name="Tracciato 4670" d="M2.947,1.18c.7.1,1.367.151,1.431.161h.075c.2.022.387.043.657.086a2.058,2.058,0,0,1,.979.323,1.43,1.43,0,0,1,.4.441l-.248.226H6.014A.7.7,0,0,0,5.971,2.2a1.065,1.065,0,0,0-.581-.538A3.464,3.464,0,0,0,4.3,1.406C4.013,1.373,3.765,1.33,3.5,1.3l-.248-.032c-.721-.1-.829-.118-.969-.151A5.461,5.461,0,0,1,1.731.932a11.773,11.773,0,0,0,1.216.248" transform="translate(4.963 3.265)" fill="#fcef00"/>
      <path id="Tracciato_4671" data-name="Tracciato 4671" d="M3.663,1.243l-1.281.032.054-.022.323-.129h.011a5.27,5.27,0,0,1,.839.1l.054.022" transform="translate(11.318 5.149)" fill="#fcef00"/>
      <path id="Tracciato_4672" data-name="Tracciato 4672" d="M4.445,3.178l.118.011a.634.634,0,0,0,.366.248.862.862,0,0,0,.613-.151,1.889,1.889,0,0,0,.441-.409l.118-.14.011-.022q.291-.323.613-.646l.032-.022q.42-.016.807-.065a10.479,10.479,0,0,0,2.034-.5A13.246,13.246,0,0,0,11.064.907l-.108.032c-.129.022-.269.054-.43.075l-.022.022a5.452,5.452,0,0,1-1.6.355L8.588,1.4c-.14,0-.312.011-.624.022a4.98,4.98,0,0,0-1.205.151,3.2,3.2,0,0,0-.818.441,7.079,7.079,0,0,0-1.076.893l-.032.022L4.8,2.92l-.011-.075a4.125,4.125,0,0,1,.312-.3,6.166,6.166,0,0,1,.786-.613,3.538,3.538,0,0,1,.839-.452,5.192,5.192,0,0,1,1.227-.151c.323-.022.5-.022.624-.022s.2-.011.323-.022a5.154,5.154,0,0,0,1.044-.172,7.907,7.907,0,0,1-.958.086C8.1,1.23,8,1.23,8,1.23l-.258.011a4.714,4.714,0,0,0-.9.075,2.288,2.288,0,0,0-.839.323,2.674,2.674,0,0,0-.323.269c-.2.194-.409.377-.6.57L5.058,2.5l-.022.022H5.015c-.1.1-.194.183-.28.28l-.054.022H4.025l-.043-.011a.971.971,0,0,0-1.259-.086l-.043.022H1.894l.022.054h.99l.054.054-.054.054H1.969a.258.258,0,0,0,.129.075l.936.011.054.032a2.648,2.648,0,0,0,.979.667,2.247,2.247,0,0,0,1.1.183c.129-.022.258-.043.387-.075l.355-.108a4.3,4.3,0,0,0,.57-.194l.248-.086c.172-.075.3-.129.42-.172A3.1,3.1,0,0,1,7.48,3.1l.065-.022h.011l.065-.022L8,2.93,6.188,2.866l-.1.108a1.808,1.808,0,0,1-.474.441A1.209,1.209,0,0,1,5.1,3.6l-.043.011L4.9,3.587a.939.939,0,0,1-.463-.3l.011-.108M3.25,2.941a.168.168,0,0,1-.172-.161.17.17,0,0,1,.172-.172.168.168,0,0,1,.161.172.166.166,0,0,1-.161.161m1.862.753a2.473,2.473,0,0,0,.452-.075,1.87,1.87,0,0,0,.947-.527h.075v.065a1.956,1.956,0,0,1-1,.56l-.043.011a2.25,2.25,0,0,1-.57.075,2.567,2.567,0,0,1-.592-.075l-.032-.065.065-.043a1.789,1.789,0,0,0,.7.075" transform="translate(6.554 3.021)" fill="#fcef00"/>
      <path id="Tracciato_4673" data-name="Tracciato 4673" d="M13.611.963c-.032-.108-.129-.086-.5-.011-.129.032-.291.065-.474.1a9.6,9.6,0,0,1-1.464.161c-.893.043-.99.043-.99.043l-.258.011A4.252,4.252,0,0,0,9,1.34a2.464,2.464,0,0,0-.893.334,2.572,2.572,0,0,0-.355.291c-.183.183-.366.355-.549.527a1.823,1.823,0,0,0-.42-.441A2.316,2.316,0,0,0,5.744,1.7a6.319,6.319,0,0,0-.667-.086H5s-.7-.065-1.431-.161a9.564,9.564,0,0,1-1.388-.3c-.344-.086-.463-.118-.506-.011-.1.215.786.613.786.613a4.029,4.029,0,0,0,.979.28c.344.075.527.1.689.129s.312.043.581.1a4.472,4.472,0,0,1,1.281.4,2.8,2.8,0,0,1,.3.183H6.239A1.123,1.123,0,0,0,4.851,2.76H3.99l-.011.011H3.968l-.011.011-.011.011L3.936,2.8v.043a.46.46,0,0,0,.323.463H4.28L5.2,3.32a2.61,2.61,0,0,0,1.012.689,2.329,2.329,0,0,0,.947.2l.226-.022a4.476,4.476,0,0,0,.775-.172c.1-.032.258-.086.57-.2l.183-.065,2-.043a.079.079,0,0,0,.075-.065l-.032-.1a2.12,2.12,0,0,0-.334-.194,3.3,3.3,0,0,0-.484-.075c.194-.054.387-.118.581-.161l.054-.075a.074.074,0,0,0-.075-.075L8.521,2.89c.151-.172.323-.344.5-.517.248-.011.517-.032.764-.065a11.62,11.62,0,0,0,2.066-.5c.387-.14.818-.3,1.152-.441.6-.258.635-.334.613-.409M6.067,2.513A4.844,4.844,0,0,0,4.743,2.1C4.463,2.05,4.3,2.018,4.151,2s-.334-.043-.678-.118a3.645,3.645,0,0,1-.936-.269,1.193,1.193,0,0,1-.2-.1c.161.065.334.118.517.172.151.032.258.054.99.151l.248.032c.258.043.506.075.8.118a3.19,3.19,0,0,1,1.044.237c.409.194.484.387.506.452l.032.086-.4-.248m.517.108A1.065,1.065,0,0,0,6,2.082a3.47,3.47,0,0,0-1.1-.258c-.291-.043-.538-.075-.807-.108L3.86,1.684a9.353,9.353,0,0,1-.969-.151,4.888,4.888,0,0,1-.56-.183c.3.075.71.172,1.216.248.7.1,1.367.151,1.431.161h.075c.2.022.4.043.656.086a2.147,2.147,0,0,1,.99.323,1.657,1.657,0,0,1,.387.43l-.248.237H6.626a.7.7,0,0,0-.043-.215m3.993.893.054.032-1.291.032L9.4,3.557a2.883,2.883,0,0,1,.323-.129,7.1,7.1,0,0,1,.85.086m1.216-1.851a11.327,11.327,0,0,1-2.034.5c-.258.032-.517.054-.786.065l-.054.022c-.2.215-.409.43-.6.646L8.305,2.9l-.129.14a1.965,1.965,0,0,1-.441.42.834.834,0,0,1-.6.151.722.722,0,0,1-.377-.248l-.108-.011-.011.108a.849.849,0,0,0,.463.3l.151.011h.043a1.157,1.157,0,0,0,.517-.183,1.842,1.842,0,0,0,.484-.441l.086-.108,1.808.065a3.854,3.854,0,0,0-.377.118l-.065.032-.011-.011-.043.011-.344.151c-.118.054-.248.108-.43.172l-.248.1c-.312.118-.463.161-.56.194-.14.043-.258.075-.366.1a1.559,1.559,0,0,1-.377.075A2.2,2.2,0,0,1,6.26,3.869,2.609,2.609,0,0,1,5.292,3.2l-.065-.032-.936-.011-.118-.075h.936l.043-.054-.043-.054h-1L4.1,2.922h.775L4.926,2.9a.949.949,0,0,1,1.238.075L6.217,3h.656l.054-.022c.1-.1.194-.183.28-.28h.022l.022-.022.011-.022c.2-.194.4-.387.6-.57A1.66,1.66,0,0,1,8.2,1.813a2.211,2.211,0,0,1,.829-.323,4.714,4.714,0,0,1,.9-.075l.258-.011s.108,0,.99-.032c.355-.022.678-.054.958-.086a5.034,5.034,0,0,1-1.044.172l-.312.011c-.14,0-.312.011-.624.022a4.665,4.665,0,0,0-1.227.161,3.088,3.088,0,0,0-.85.452,6.166,6.166,0,0,0-.786.613,3.98,3.98,0,0,0-.3.3v.065l.032.022.032-.011a5.648,5.648,0,0,1,1.076-.9,3.09,3.09,0,0,1,.829-.441A4.691,4.691,0,0,1,10.156,1.6c.323-.022.484-.022.624-.022l.323-.011a6.054,6.054,0,0,0,1.582-.344l.032-.032c.161-.032.312-.054.43-.086l.108-.022a12.423,12.423,0,0,1-1.464.581" transform="translate(4.351 2.847)" fill="#bda900"/>
      <path id="Tracciato_4674" data-name="Tracciato 4674" d="M2.122,1.68l.032.065a2.567,2.567,0,0,0,.592.075,2.25,2.25,0,0,0,.57-.075h.032a2.114,2.114,0,0,0,1.012-.56V1.11H4.285a1.87,1.87,0,0,1-.947.527,2.473,2.473,0,0,1-.452.075,2.071,2.071,0,0,1-.7-.065l-.065.032" transform="translate(8.78 5.003)" fill="#bda900"/>
      <path id="Tracciato_4675" data-name="Tracciato 4675" d="M2.176,1.065A.17.17,0,0,0,2,1.237a.168.168,0,0,0,.172.161.166.166,0,0,0,.161-.161.168.168,0,0,0-.161-.172" transform="translate(7.628 4.564)" fill="#bda900"/>
      <path id="Tracciato_4676" data-name="Tracciato 4676" d="M1.65,2.582a2.245,2.245,0,0,0,1.733-.764l1.69.1S5.245,3,4.965,3.109A3.575,3.575,0,0,1,1.65,2.582" transform="translate(4.172 11.915)" fill="#fcef00"/>
      <path id="Tracciato_4677" data-name="Tracciato 4677" d="M3.915,3.49a4,4,0,0,1-2.249-.775l-.022-.086.075-.054.075.011a2.179,2.179,0,0,0,1.593-.753l.065-.022,1.69.1.075.065c.043.28.151,1.162-.151,1.291a3.226,3.226,0,0,1-1.152.226M1.956,2.726a3.777,3.777,0,0,0,1.959.6A2.685,2.685,0,0,0,5,3.113c.129-.054.14-.57.065-1.055l-1.593-.1a2.377,2.377,0,0,1-1.517.764" transform="translate(4.114 11.846)" fill="#bda900"/>
      <path id="Tracciato_4678" data-name="Tracciato 4678" d="M1.683,1.809A2.246,2.246,0,0,0,3.577,1.68l1.55.678s-.2,1.076-.506,1.087A3.574,3.574,0,0,1,1.683,1.809" transform="translate(4.495 10.568)" fill="#fcef00"/>
      <path id="Tracciato_4679" data-name="Tracciato 4679" d="M4.551,3.6A3.728,3.728,0,0,1,1.677,1.921l.011-.1.086-.011a2.038,2.038,0,0,0,.764.14,2.292,2.292,0,0,0,1.055-.269l.075-.011,1.55.678.043.086c-.054.269-.237,1.141-.581,1.152L4.551,3.6m-2.6-1.571A3.409,3.409,0,0,0,4.68,3.438c.129-.011.323-.5.42-.969L3.636,1.834a2.363,2.363,0,0,1-1.1.269,2.085,2.085,0,0,1-.592-.075" transform="translate(4.436 10.499)" fill="#bda900"/>
      <path id="Tracciato_4680" data-name="Tracciato 4680" d="M1.781,1.518A2.229,2.229,0,0,0,3.6,2.035L4.827,3.208s-.56.947-.85.85a3.6,3.6,0,0,1-2.2-2.54" transform="translate(5.451 8.986)" fill="#fcef00"/>
      <path id="Tracciato_4681" data-name="Tracciato 4681" d="M4.088,4.2l-.065-.011A3.666,3.666,0,0,1,1.774,1.6l.043-.086.086.011a2.154,2.154,0,0,0,1.421.527,3.259,3.259,0,0,0,.334-.022l.065.022L4.949,3.211l.011.1c-.086.151-.549.893-.872.893m-2.1-2.411a3.431,3.431,0,0,0,2.077,2.26h.022c.161,0,.506-.43.71-.775L3.647,2.189c-.108.011-.215.011-.323.011a2.292,2.292,0,0,1-1.335-.409" transform="translate(5.383 8.918)" fill="#bda900"/>
      <path id="Tracciato_4682" data-name="Tracciato 4682" d="M1.954,1.387A2.231,2.231,0,0,0,3.482,2.506l.753,1.507s-.85.7-1.087.517A3.583,3.583,0,0,1,1.954,1.387" transform="translate(6.914 7.707)" fill="#fcef00"/>
      <path id="Tracciato_4683" data-name="Tracciato 4683" d="M3.33,4.708a.264.264,0,0,1-.161-.054A3.714,3.714,0,0,1,1.942,1.447l.065-.065a.068.068,0,0,1,.086.043A2.191,2.191,0,0,0,3.567,2.5l.043.022.775,1.528-.032.1c-.065.054-.689.56-1.022.56m-1.248-3a3.412,3.412,0,0,0,1.184,2.83l.065.022a2.324,2.324,0,0,0,.883-.484L3.5,2.642a2.365,2.365,0,0,1-1.421-.936" transform="translate(6.84 7.636)" fill="#bda900"/>
      <path id="Tracciato_4684" data-name="Tracciato 4684" d="M2.492,1.317A2.257,2.257,0,0,0,3.547,2.888l.194,1.679s-1.033.366-1.195.108a3.567,3.567,0,0,1-.054-3.358" transform="translate(8.389 7.024)" fill="#fcef00"/>
      <path id="Tracciato_4685" data-name="Tracciato 4685" d="M2.883,4.915A.412.412,0,0,1,2.539,4.8a3.755,3.755,0,0,1-.054-3.444l.086-.043.065.075A2.158,2.158,0,0,0,3.658,2.892l.032.065.194,1.668-.054.1a4.219,4.219,0,0,1-.947.194M2.528,1.633a3.433,3.433,0,0,0,.151,3.078c.011.022.043.054.2.054a4.215,4.215,0,0,0,.839-.172L3.54,3.01A2.322,2.322,0,0,1,2.528,1.633" transform="translate(8.32 6.955)" fill="#bda900"/>
      <path id="Tracciato_4686" data-name="Tracciato 4686" d="M3.38,1.315a2.218,2.218,0,0,0,.452,1.84L3.444,4.8s-1.1-.022-1.162-.312a3.571,3.571,0,0,1,1.1-3.175" transform="translate(9.654 7.004)" fill="#fcef00"/>
      <path id="Tracciato_4687" data-name="Tracciato 4687" d="M3.512,4.936h0c-.269,0-1.162-.043-1.238-.377A3.7,3.7,0,0,1,3.4,1.309h.086l.043.086A2.157,2.157,0,0,0,3.975,3.16l.011.065-.4,1.657c0,.032-.032.054-.075.054M3.34,1.6a3.418,3.418,0,0,0-.915,2.927c.032.14.549.237,1.033.248l.366-1.55A2.339,2.339,0,0,1,3.34,1.6" transform="translate(9.586 6.946)" fill="#bda900"/>
      <path id="Tracciato_4688" data-name="Tracciato 4688" d="M4.433,1.381a2.22,2.22,0,0,0-.2,1.883L3.3,4.674s-1.033-.387-.99-.689a3.6,3.6,0,0,1,2.12-2.6" transform="translate(10.634 7.649)" fill="#fcef00"/>
      <path id="Tracciato_4689" data-name="Tracciato 4689" d="M3.372,4.818H3.34c-.248-.1-1.076-.441-1.033-.775A3.712,3.712,0,0,1,4.48,1.374l.086.022v.1A2.192,2.192,0,0,0,4.373,3.3l-.011.075-.926,1.41-.065.032m.947-3.2A3.384,3.384,0,0,0,2.457,4.065c-.011.14.43.409.883.581l.883-1.324a2.281,2.281,0,0,1,.1-1.7" transform="translate(10.565 7.58)" fill="#bda900"/>
      <path id="Tracciato_4690" data-name="Tracciato 4690" d="M5.295,1.508a2.265,2.265,0,0,0-.839,1.7L3.1,4.22S2.271,3.5,2.41,3.23A3.583,3.583,0,0,1,5.295,1.508" transform="translate(11.441 8.888)" fill="#fcef00"/>
      <path id="Tracciato_4691" data-name="Tracciato 4691" d="M3.173,4.357l-.054-.011c-.2-.183-.861-.786-.71-1.087A3.686,3.686,0,0,1,5.347,1.5c.054-.011.086.011.1.043l-.032.086a2.182,2.182,0,0,0-.8,1.647l-.032.054L3.216,4.346l-.043.011m1.959-2.68A3.4,3.4,0,0,0,2.549,3.334c-.065.118.269.527.624.85l1.281-.947a2.373,2.373,0,0,1,.678-1.561" transform="translate(11.367 8.827)" fill="#bda900"/>
      <path id="Tracciato_4692" data-name="Tracciato 4692" d="M5.809,1.824A2.257,2.257,0,0,0,4.442,3.137l-1.625.484S2.29,2.663,2.5,2.459a3.577,3.577,0,0,1,3.3-.635" transform="translate(12.014 10.424)" fill="#fcef00"/>
      <path id="Tracciato_4693" data-name="Tracciato 4693" d="M2.88,3.758l-.065-.032c-.129-.237-.538-1.033-.291-1.259a3.223,3.223,0,0,1,2.217-.807,4.1,4.1,0,0,1,1.13.151c.054.022.075.043.075.086l-.054.065A2.205,2.205,0,0,0,4.58,3.23l-.054.043L2.9,3.758ZM4.742,1.81a3.074,3.074,0,0,0-2.12.775c-.1.086.075.581.3,1.012l1.528-.463A2.3,2.3,0,0,1,5.624,1.907a4.286,4.286,0,0,0-.883-.1" transform="translate(11.951 10.363)" fill="#bda900"/>
      <path id="Tracciato_4694" data-name="Tracciato 4694" d="M5.954,2.563a2.245,2.245,0,0,0-1.733.764l-1.69-.1s-.172-1.087.108-1.205a3.6,3.6,0,0,1,3.315.538" transform="translate(12.267 11.804)" fill="#fcef00"/>
      <path id="Tracciato_4695" data-name="Tracciato 4695" d="M4.3,3.468H4.285l-1.69-.1-.065-.065c-.043-.269-.161-1.152.151-1.281A2.955,2.955,0,0,1,3.822,1.8a4.025,4.025,0,0,1,2.249.764l.022.086a.069.069,0,0,1-.075.054H5.953a2.2,2.2,0,0,0-1.6.743L4.3,3.468M2.671,3.221l1.593.1a2.377,2.377,0,0,1,1.517-.764,3.777,3.777,0,0,0-1.959-.6,2.879,2.879,0,0,0-1.087.215c-.129.054-.14.57-.065,1.055" transform="translate(12.203 11.739)" fill="#bda900"/>
      <path id="Tracciato_4696" data-name="Tracciato 4696" d="M4.184,2.85l-2.5-.936,2.669-.129Z" transform="translate(4.531 11.586)" fill="#fcef00"/>
      <path id="Tracciato_4697" data-name="Tracciato 4697" d="M4.251,3H4.23l-2.5-.947a.085.085,0,0,1-.054-.086l.075-.065,2.669-.129.075.032.011.065L4.337,2.938l-.032.054L4.251,3M2.142,2.045,4.2,2.82l.14-.883Z" transform="translate(4.456 11.505)" fill="#bda900"/>
      <path id="Tracciato_4698" data-name="Tracciato 4698" d="M3.772,3.36,1.749,1.616l2.561.8Z" transform="translate(5.14 9.944)" fill="#fcef00"/>
      <path id="Tracciato_4699" data-name="Tracciato 4699" d="M3.831,3.5l-.043-.022L1.754,1.739l-.011-.1.086-.032,2.561.8.043.043v.065L3.9,3.461,3.842,3.5ZM2.141,1.868,3.809,3.3l.441-.775Z" transform="translate(5.08 9.884)" fill="#bda900"/>
      <path id="Tracciato_4700" data-name="Tracciato 4700" d="M3.182,3.794,1.869,1.47,4,3.084Z" transform="translate(6.307 8.514)" fill="#fcef00"/>
      <path id="Tracciato_4701" data-name="Tracciato 4701" d="M3.24,3.929H3.229l-.054-.043L1.862,1.561l.022-.1h.1L4.111,3.078l.032.065-.011.043-.839.721-.054.022M2.185,1.808,3.261,3.724l.678-.57Z" transform="translate(6.242 8.459)" fill="#bda900"/>
      <path id="Tracciato_4702" data-name="Tracciato 4702" d="M2.463,4.009l-.43-2.637,1.442,2.26Z" transform="translate(7.907 7.559)" fill="#fcef00"/>
      <path id="Tracciato_4703" data-name="Tracciato 4703" d="M2.542,4.152,2.5,4.142l-.032-.054L2.025,1.451l.054-.086.086.032,1.453,2.26.011.065-.054.043-1.012.387ZM2.24,1.8,2.6,3.969l.839-.312Z" transform="translate(7.833 7.492)" fill="#bda900"/>
      <path id="Tracciato_4704" data-name="Tracciato 4704" d="M2.173,3.962l.5-2.626L3.26,3.952Z" transform="translate(9.277 7.213)" fill="#fcef00"/>
      <path id="Tracciato_4705" data-name="Tracciato 4705" d="M2.251,4.106l-.065-.022L2.165,4.02l.506-2.626.065-.065a.072.072,0,0,1,.075.065L3.4,4.009l-.011.065-.065.022Zm.5-2.314L2.337,3.955l.893-.011Z" transform="translate(9.2 7.141)" fill="#bda900"/>
      <path id="Tracciato_4706" data-name="Tracciato 4706" d="M2.28,3.66,3.636,1.367,3.3,4.015Z" transform="translate(10.32 7.516)" fill="#fcef00"/>
      <path id="Tracciato_4707" data-name="Tracciato 4707" d="M3.37,4.159H3.348L2.326,3.793,2.272,3.75l.011-.065L3.639,1.393l.1-.032.054.075L3.445,4.095l-.032.054Zm-.9-.474.839.291.28-2.185Z" transform="translate(10.245 7.453)" fill="#bda900"/>
      <path id="Tracciato_4708" data-name="Tracciato 4708" d="M2.38,3.149,4.446,1.46,3.219,3.838Z" transform="translate(11.298 8.418)" fill="#fcef00"/>
      <path id="Tracciato_4709" data-name="Tracciato 4709" d="M3.288,3.972l-.054-.022-.839-.678-.022-.065.022-.065,2.066-1.69h.1l.022.1L3.352,3.929,3.3,3.972Zm-.721-.764.689.57,1.012-1.97Z" transform="translate(11.231 8.361)" fill="#bda900"/>
      <path id="Tracciato_4710" data-name="Tracciato 4710" d="M2.462,2.486,4.98,1.6,3.011,3.422Z" transform="translate(12.098 9.822)" fill="#fcef00"/>
      <path id="Tracciato_4711" data-name="Tracciato 4711" d="M3.079,3.566H3.068l-.054-.032L2.455,2.6V2.532L2.5,2.479,5.016,1.6l.086.032-.011.1L3.133,3.544l-.054.022M2.638,2.6l.452.775L4.715,1.865Z" transform="translate(12.031 9.747)" fill="#bda900"/>
      <path id="Tracciato_4712" data-name="Tracciato 4712" d="M2.515,1.778l2.669.032L2.709,2.844Z" transform="translate(12.619 11.525)" fill="#fcef00"/>
      <path id="Tracciato_4713" data-name="Tracciato 4713" d="M2.788,3l-.022-.011-.054-.054-.2-1.065L2.53,1.8l.054-.032,2.68.032.065.065-.043.086L2.82,2.986ZM2.68,1.931l.161.883,2.045-.861Z" transform="translate(12.549 11.446)" fill="#bda900"/>
      <path id="Tracciato_4714" data-name="Tracciato 4714" d="M2.69,1.883l2.5.936-2.669.129Z" transform="translate(12.642 12.552)" fill="#fcef00"/>
      <path id="Tracciato_4715" data-name="Tracciato 4715" d="M2.585,3.093l-.065-.032L2.51,3.007l.172-1.076.043-.054H2.79l2.5.936L5.33,2.9l-.065.065Zm.237-1.044-.151.883,2.206-.108Z" transform="translate(12.568 12.491)" fill="#bda900"/>
      <path id="Tracciato_4716" data-name="Tracciato 4716" d="M4.358,2.955,1.689,2.923,4.164,1.889Z" transform="translate(4.554 12.613)" fill="#fcef00"/>
      <path id="Tracciato_4717" data-name="Tracciato 4717" d="M4.426,3.1h0L1.757,3.067A.079.079,0,0,1,1.682,3l.054-.086L4.2,1.883h.065l.043.054L4.5,2.992l.011.022a.093.093,0,0,1-.086.086M2.134,2.916l2.206.022-.172-.872Z" transform="translate(4.485 12.549)" fill="#bda900"/>
      <path id="Tracciato_4718" data-name="Tracciato 4718" d="M8.538,4.89a3.309,3.309,0,1,1-3.3-3.315,3.3,3.3,0,0,1,3.3,3.315" transform="translate(6.798 9.542)" fill="#fcef00"/>
      <path id="Tracciato_4719" data-name="Tracciato 4719" d="M5.3,8.339a3.385,3.385,0,1,1,3.39-3.39A3.39,3.39,0,0,1,5.3,8.339m0-6.619A3.234,3.234,0,1,0,8.53,4.948,3.24,3.24,0,0,0,5.3,1.72" transform="translate(6.72 9.484)" fill="#bda900"/>
      <path id="Tracciato_4720" data-name="Tracciato 4720" d="M47.871,1.888c-1.205,0-3.444,1.227-4.639,1.227-1.248.011-3.584-1.227-4.822-1.227-1.291-.011-3.7,1.238-4.983,1.227C32.244,3.1,30.048,1.9,28.865,1.888c-1.27-.011-3.659,1.238-4.929,1.227-1.205,0-3.465-1.216-4.671-1.227-1.291-.011-3.735,1.238-5.026,1.227-1.216-.011-3.5-1.227-4.725-1.227C8.244,1.877,5.865,3.126,4.6,3.115,3.4,3.1.979,1.888,0,1.888V13.856H47.871Z" transform="translate(-11.935 12.598)" fill="#fff"/>
      <path id="Tracciato_4721" data-name="Tracciato 4721" d="M47.871,2.041c-1.205,0-3.444,1.227-4.639,1.227-1.248.011-3.584-1.227-4.822-1.227-1.291,0-3.7,1.248-4.983,1.227-1.184-.011-3.379-1.216-4.563-1.227-1.27-.011-3.659,1.238-4.929,1.227-1.205,0-3.465-1.216-4.671-1.227-1.291-.011-3.735,1.238-5.026,1.227-1.216-.011-3.5-1.216-4.725-1.227C8.244,2.03,5.865,3.279,4.6,3.268,3.4,3.257.979,2.041,0,2.041V12.362H47.871Z" transform="translate(-11.935 14.092)" fill="#003f7b"/>
      <path id="Tracciato_4722" data-name="Tracciato 4722" d="M47.871,2.2c-1.205,0-3.444,1.227-4.639,1.227C41.984,3.433,39.648,2.2,38.411,2.2c-1.291,0-3.7,1.248-4.983,1.227-1.184-.011-3.379-1.216-4.563-1.227-1.27-.011-3.659,1.238-4.929,1.227-1.205,0-3.465-1.216-4.671-1.227-1.291-.011-3.735,1.238-5.026,1.227-1.216,0-3.5-1.216-4.725-1.227C8.244,2.184,5.865,3.433,4.6,3.422,3.4,3.422.979,2.2,0,2.2v8.664H47.871Z" transform="translate(-11.935 15.595)" fill="#fff"/>
      <path id="Tracciato_4723" data-name="Tracciato 4723" d="M47.871,2.351c-1.205,0-3.444,1.227-4.639,1.227-1.248.011-3.584-1.227-4.822-1.227-1.291-.011-3.7,1.248-4.983,1.227-1.184-.011-3.379-1.216-4.563-1.227-1.27-.011-3.659,1.238-4.929,1.227-1.205,0-3.465-1.216-4.671-1.227-1.291-.011-3.735,1.238-5.026,1.227-1.216-.011-3.5-1.227-4.725-1.227C8.244,2.34,5.865,3.589,4.6,3.578,3.4,3.567.979,2.351,0,2.351V9.336H47.871Z" transform="translate(-11.935 17.118)" fill="#003f87"/>
      <path id="Tracciato_4724" data-name="Tracciato 4724" d="M47.871,2.51c-1.205,0-3.444,1.227-4.639,1.227-1.248.011-3.584-1.227-4.822-1.227-1.291-.011-3.7,1.238-4.983,1.227-1.184-.011-3.379-1.216-4.563-1.227-1.27-.011-3.659,1.238-4.929,1.227-1.205,0-3.465-1.216-4.671-1.227C17.973,2.5,15.53,3.748,14.239,3.737c-1.216-.011-3.5-1.227-4.725-1.227C8.244,2.5,5.865,3.748,4.6,3.737,3.4,3.726.979,2.51,0,2.51V7.784H47.871Z" transform="translate(-11.935 18.67)" fill="#fff"/>
      <path id="Tracciato_4725" data-name="Tracciato 4725" d="M47.871,2.672c-1.205,0-3.444,1.227-4.639,1.238-1.248,0-3.584-1.227-4.822-1.238-1.291,0-3.7,1.248-4.983,1.238-1.184-.022-3.379-1.227-4.563-1.238-1.27-.011-3.659,1.238-4.929,1.238C22.73,3.9,20.47,2.683,19.265,2.672,17.973,2.661,15.53,3.91,14.239,3.91c-1.216-.011-3.5-1.227-4.725-1.238C8.244,2.672,5.865,3.91,4.6,3.91,3.4,3.9.979,2.672,0,2.672V6.2H47.871Z" transform="translate(-11.935 20.252)" fill="#003f87"/>
    </g>
  </g>
</svg>
