<svg xmlns="http://www.w3.org/2000/svg" xmlns:xlink="http://www.w3.org/1999/xlink" width="24" height="24" viewBox="0 0 24 24">
  <defs>
    <clipPath id="clip-path">
      <path id="Tracciato_4947" data-name="Tracciato 4947" d="M.587,12.749a12,12,0,1,0,12-12,12,12,0,0,0-12,12" transform="translate(-0.587 -0.749)" fill="none"/>
    </clipPath>
  </defs>
  <g id="Malawi" transform="translate(-0.587 -0.749)">
    <g id="Raggruppa_188" data-name="Raggruppa 188" transform="translate(0.587 0.749)" clip-path="url(#clip-path)">
      <rect id="Rettangolo_413" data-name="Rettangolo 413" width="36.635" height="24.43" transform="translate(-6.317 -0.215)"/>
      <path id="Tracciato_4913" data-name="Tracciato 4913" d="M11.626,6.311A5.2,5.2,0,1,1,6.417,1.1a5.2,5.2,0,0,1,5.209,5.209" transform="translate(5.583 2.697)" fill="#cd1225"/>
      <path id="Tracciato_4914" data-name="Tracciato 4914" d="M1.945,3.213s.6-2.389,0-2.389,0,2.389,0,2.389" transform="translate(10.055 -0.017)" fill="#cd1225"/>
      <path id="Tracciato_4915" data-name="Tracciato 4915" d="M2.047,3.227S2.434.783,1.832.827s.215,2.4.215,2.4" transform="translate(9.447 0.002)" fill="#cd1225"/>
      <path id="Tracciato_4916" data-name="Tracciato 4916" d="M2.158,3.206S2.33.73,1.739.838s.42,2.368.42,2.368" transform="translate(8.841 0.087)" fill="#cd1225"/>
      <path id="Tracciato_4917" data-name="Tracciato 4917" d="M2.273,3.18S2.23.7,1.649.855s.624,2.325.624,2.325" transform="translate(8.231 0.221)" fill="#cd1225"/>
      <path id="Tracciato_4918" data-name="Tracciato 4918" d="M2.385,3.14S2.126.675,1.567.88s.818,2.26.818,2.26" transform="translate(7.635 0.412)" fill="#cd1225"/>
      <path id="Tracciato_4919" data-name="Tracciato 4919" d="M2.5,3.086S2.024.654,1.486.912,2.5,3.086,2.5,3.086" transform="translate(7.048 0.659)" fill="#cd1225"/>
      <path id="Tracciato_4920" data-name="Tracciato 4920" d="M2.614,3.027S1.936.649,1.409.95,2.614,3.027,2.614,3.027" transform="translate(6.491 0.955)" fill="#cd1225"/>
      <path id="Tracciato_4921" data-name="Tracciato 4921" d="M2.718,2.962S1.836.648,1.341.993s1.378,1.97,1.378,1.97" transform="translate(5.956 1.289)" fill="#cd1225"/>
      <path id="Tracciato_4922" data-name="Tracciato 4922" d="M2.815,2.883S1.728.656,1.276,1.043s1.539,1.84,1.539,1.84" transform="translate(5.461 1.68)" fill="#cd1225"/>
      <path id="Tracciato_4923" data-name="Tracciato 4923" d="M2.913,2.794s-1.27-2.109-1.7-1.7c-.42.441,1.7,1.7,1.7,1.7" transform="translate(4.986 2.103)" fill="#cd1225"/>
      <path id="Tracciato_4924" data-name="Tracciato 4924" d="M3,2.7S1.546.7,1.159,1.159,3,2.7,3,2.7" transform="translate(4.556 2.576)" fill="#cd1225"/>
      <path id="Tracciato_4925" data-name="Tracciato 4925" d="M3.079,2.6S1.454.729,1.11,1.224,3.079,2.6,3.079,2.6" transform="translate(4.175 3.071)" fill="#cd1225"/>
      <path id="Tracciato_4926" data-name="Tracciato 4926" d="M3.143,2.5S1.367.775,1.066,1.292,3.143,2.5,3.143,2.5" transform="translate(3.831 3.605)" fill="#cd1225"/>
      <path id="Tracciato_4927" data-name="Tracciato 4927" d="M3.2,2.382S1.277.821,1.029,1.37,3.2,2.382,3.2,2.382" transform="translate(3.545 4.172)" fill="#cd1225"/>
      <path id="Tracciato_4928" data-name="Tracciato 4928" d="M3.257,2.268S1.2.879,1,1.45s2.26.818,2.26.818" transform="translate(3.297 4.749)" fill="#cd1225"/>
      <path id="Tracciato_4929" data-name="Tracciato 4929" d="M3.287,2.156S1.124.95.973,1.532s2.314.624,2.314.624" transform="translate(3.106 5.345)" fill="#cd1225"/>
      <path id="Tracciato_4930" data-name="Tracciato 4930" d="M3.321,2.041S1.061,1.03.954,1.622s2.368.42,2.368.42" transform="translate(2.964 5.955)" fill="#cd1225"/>
      <path id="Tracciato_4931" data-name="Tracciato 4931" d="M2.233,2.041s2.475.172,2.368-.42-2.368.42-2.368.42" transform="translate(15.482 5.955)" fill="#cd1225"/>
      <path id="Tracciato_4932" data-name="Tracciato 4932" d="M2.223,2.156S4.7,2.113,4.548,1.532s-2.325.624-2.325.624" transform="translate(15.384 5.345)" fill="#cd1225"/>
      <path id="Tracciato_4933" data-name="Tracciato 4933" d="M2.209,2.268s2.465-.258,2.26-.818-2.26.818-2.26.818" transform="translate(15.248 4.749)" fill="#cd1225"/>
      <path id="Tracciato_4934" data-name="Tracciato 4934" d="M2.191,2.382S4.623,1.908,4.365,1.37,2.191,2.382,2.191,2.382" transform="translate(15.072 4.172)" fill="#cd1225"/>
      <path id="Tracciato_4935" data-name="Tracciato 4935" d="M2.169,2.5s2.378-.678,2.077-1.205S2.169,2.5,2.169,2.5" transform="translate(14.857 3.605)" fill="#cd1225"/>
      <path id="Tracciato_4936" data-name="Tracciato 4936" d="M2.144,2.6s2.314-.883,1.97-1.378S2.144,2.6,2.144,2.6" transform="translate(14.613 3.071)" fill="#cd1225"/>
      <path id="Tracciato_4937" data-name="Tracciato 4937" d="M2.115,2.7s2.228-1.087,1.84-1.539S2.115,2.7,2.115,2.7" transform="translate(14.33 2.576)" fill="#cd1225"/>
      <path id="Tracciato_4938" data-name="Tracciato 4938" d="M2.083,2.794s2.12-1.259,1.7-1.7c-.43-.409-1.7,1.7-1.7,1.7" transform="translate(14.017 2.103)" fill="#cd1225"/>
      <path id="Tracciato_4939" data-name="Tracciato 4939" d="M2.049,2.883s2-1.453,1.539-1.84-1.539,1.84-1.539,1.84" transform="translate(13.686 1.68)" fill="#cd1225"/>
      <path id="Tracciato_4940" data-name="Tracciato 4940" d="M2.011,2.962S3.884,1.337,3.389.993s-1.378,1.97-1.378,1.97" transform="translate(13.315 1.289)" fill="#cd1225"/>
      <path id="Tracciato_4941" data-name="Tracciato 4941" d="M1.972,3.027S3.694,1.251,3.177.95,1.972,3.027,1.972,3.027" transform="translate(12.934 0.955)" fill="#cd1225"/>
      <path id="Tracciato_4942" data-name="Tracciato 4942" d="M1.93,3.086S3.491,1.16,2.942.912,1.93,3.086,1.93,3.086" transform="translate(12.524 0.659)" fill="#cd1225"/>
      <path id="Tracciato_4943" data-name="Tracciato 4943" d="M1.887,3.14S3.265,1.084,2.694.88s-.807,2.26-.807,2.26" transform="translate(12.104 0.412)" fill="#cd1225"/>
      <path id="Tracciato_4944" data-name="Tracciato 4944" d="M1.842,3.18S3.047,1.016,2.466.855,1.842,3.18,1.842,3.18" transform="translate(11.665 0.221)" fill="#cd1225"/>
      <path id="Tracciato_4945" data-name="Tracciato 4945" d="M1.817,3.206S2.829.946,2.237.838s-.42,2.368-.42,2.368" transform="translate(11.195 0.087)" fill="#cd1225"/>
      <path id="Tracciato_4946" data-name="Tracciato 4946" d="M1.86,3.227S2.667.88,2.075.827s-.215,2.4-.215,2.4" transform="translate(10.646 0.002)" fill="#cd1225"/>
      <rect id="Rettangolo_414" data-name="Rettangolo 414" width="36.635" height="16.918" transform="translate(-6.317 7.297)"/>
      <rect id="Rettangolo_415" data-name="Rettangolo 415" width="36.635" height="16.283" transform="translate(-6.317 7.932)" fill="#cd1225"/>
      <rect id="Rettangolo_416" data-name="Rettangolo 416" width="36.635" height="8.115" transform="translate(-6.317 16.1)" fill="#309d2d"/>
    </g>
  </g>
</svg>
