<svg xmlns="http://www.w3.org/2000/svg" xmlns:xlink="http://www.w3.org/1999/xlink" width="24" height="24" viewBox="0 0 24 24">
  <defs>
    <clipPath id="clip-path">
      <path id="Tracciato_5037" data-name="Tracciato 5037" d="M.557,12.749a12,12,0,1,0,12-12,12,12,0,0,0-12,12" transform="translate(-0.557 -0.749)" fill="none"/>
    </clipPath>
  </defs>
  <g id="Mauritania" transform="translate(-0.557 -0.749)">
    <g id="Raggruppa_192" data-name="Raggruppa 192" transform="translate(0.557 0.749)" clip-path="url(#clip-path)">
      <rect id="Rettangolo_425" data-name="Rettangolo 425" width="36" height="24" transform="translate(-5.995 0)" fill="#009530"/>
      <path id="Tracciato_5035" data-name="Tracciato 5035" d="M16.36,1.865a7.553,7.553,0,0,1-15.1-.334V1.381A7.563,7.563,0,0,0,.948,3.544,7.8,7.8,0,1,0,16.36,1.865" transform="translate(3.26 5.421)" fill="#ffc408"/>
      <path id="Tracciato_5036" data-name="Tracciato 5036" d="M4.211,1.127l.657,2.034H7.009L5.276,4.41l.657,2.034L4.211,5.184,2.489,6.444,3.145,4.41,1.413,3.161H3.554Z" transform="translate(7.795 2.942)" fill="#ffc408"/>
    </g>
  </g>
</svg>
