<svg id="Mayotte" xmlns="http://www.w3.org/2000/svg" xmlns:xlink="http://www.w3.org/1999/xlink" width="24" height="24" viewBox="0 0 24 24">
  <defs>
    <clipPath id="clip-path">
      <circle id="Ellisse_3" data-name="Ellisse 3" cx="12" cy="12" r="12" fill="#fff" stroke="#707070" stroke-width="1"/>
    </clipPath>
    <clipPath id="clip-path-2">
      <rect id="Rettangolo_877" data-name="Rettangolo 877" width="26" height="18" transform="translate(0.003 -0.331)" fill="none"/>
    </clipPath>
  </defs>
  <circle id="Ellisse_4" data-name="Ellisse 4" cx="12" cy="12" r="12" fill="#fff"/>
  <g id="Gruppo_di_maschere_2" data-name="Gruppo di maschere 2" clip-path="url(#clip-path)">
    <g id="Raggruppa_277" data-name="Raggruppa 277" transform="translate(-1.003 3.331)">
      <rect id="Rettangolo_876" data-name="Rettangolo 876" width="26" height="18" transform="translate(0.003 -0.331)" fill="#fff"/>
      <g id="Raggruppa_276" data-name="Raggruppa 276">
        <g id="Raggruppa_275" data-name="Raggruppa 275" clip-path="url(#clip-path-2)">
          <path id="Tracciato_9791" data-name="Tracciato 9791" d="M280.239,148.861a.7.7,0,0,0-.269-.405,1.023,1.023,0,0,0-.5-.241c-.01,0-1.341.034-2.035,0a.742.742,0,0,1-.711-.777v-7.744h7.095v7.746a.962.962,0,0,1-.167.487,1.091,1.091,0,0,1-.521.295h-2.082a1.022,1.022,0,0,0-.46.2c-.292.231-.278.43-.278.432Zm-.771-.715a1.06,1.06,0,0,1,.544.256.853.853,0,0,1,.252.316.822.822,0,0,1,.278-.35,1.071,1.071,0,0,1,.5-.213h2.075a1.027,1.027,0,0,0,.479-.269.907.907,0,0,0,.153-.448v-7.676h-6.958v7.677a.666.666,0,0,0,.646.707c.692.034,2.02,0,2.034,0" transform="translate(-267.251 -134.914)"/>
          <path id="Tracciato_9792" data-name="Tracciato 9792" d="M294.295,152.984a.65.65,0,0,1,0-1.266,1.908,1.908,0,0,1-1.916-.65.65.65,0,0,1-1.266,0,.65.65,0,0,1-1.266,0,.65.65,0,0,1-1.266,0,1.908,1.908,0,0,1-.65,1.916.65.65,0,0,1,0,1.266.65.65,0,1,1,0,1.3.65.65,0,0,1,0,1.266.65.65,0,0,1,0,1.266,1.908,1.908,0,0,1,1.916.65.65.65,0,0,1,1.266,0,.65.65,0,0,1,1.266,0,.65.65,0,0,1,1.266,0,1.908,1.908,0,0,1,.65-1.916.65.65,0,0,1,0-1.266.65.65,0,1,1,0-1.3.65.65,0,0,1,0-1.266" transform="translate(-278.077 -145.899)" fill="#e4002b"/>
          <path id="Tracciato_9793" data-name="Tracciato 9793" d="M293.645,154.9a1.908,1.908,0,0,1,.65-1.916.65.65,0,0,1,0-1.266,1.908,1.908,0,0,1-1.916-.65.65.65,0,0,1-1.266,0,.65.65,0,0,1-1.266,0,.65.65,0,0,1-1.266,0,1.908,1.908,0,0,1-.65,1.916.65.65,0,0,1,0,1.266.65.65,0,0,0,.65.65Z" transform="translate(-278.077 -145.899)" fill="#0033a0"/>
          <path id="Tracciato_9794" data-name="Tracciato 9794" d="M292.679,157.8a.684.684,0,0,0-1.266,0,.684.684,0,0,0-1.266,0,.684.684,0,0,0-1.266,0,.684.684,0,0,0-1.266,0,2.677,2.677,0,0,0-.684-1.951.684.684,0,0,0,0-1.266.684.684,0,0,0,0-1.3.684.684,0,0,0,0-1.266.684.684,0,0,0,0-1.266,2.677,2.677,0,0,0,1.951-.684.684.684,0,0,0,1.266,0,.684.684,0,0,0,1.266,0,.684.684,0,0,0,1.266,0,2.676,2.676,0,0,0,.684,1.951.684.684,0,0,0,0,1.266.684.684,0,0,0,0,1.3.684.684,0,0,0,0,1.266.684.684,0,0,0,0,1.266.685.685,0,0,1-.684.684m-.633-.691.033.145a.616.616,0,1,0,.738-.738l-.145-.033.145-.033a.615.615,0,0,0,0-1.2l-.145-.033.145-.033a.616.616,0,0,0-.139-1.216V153.9a.616.616,0,0,0,.139-1.216l-.145-.033.145-.033a.615.615,0,0,0,0-1.2l-.145-.033.145-.033a.616.616,0,1,0-.738-.738l-.033.145-.033-.145a.615.615,0,0,0-1.2,0l-.033.145-.033-.145a.615.615,0,0,0-1.2,0l-.033.145-.033-.145a.615.615,0,0,0-1.2,0l-.033.145-.033-.145a.616.616,0,1,0-.738.738l.145.033-.145.033a.615.615,0,0,0,0,1.2l.145.033-.145.033a.616.616,0,0,0,.139,1.216v.068a.616.616,0,0,0-.139,1.216l.145.033-.145.033a.615.615,0,0,0,0,1.2l.145.033-.145.033a.616.616,0,1,0,.738.738l.033-.145.033.145a.615.615,0,0,0,1.2,0l.033-.145.033.145a.615.615,0,0,0,1.2,0l.033-.145.033.145a.615.615,0,0,0,1.2,0Z" transform="translate(-277.111 -144.934)"/>
          <path id="Tracciato_9795" data-name="Tracciato 9795" d="M347.835,184.993a1,1,0,1,1-1.912,0,1.193,1.193,0,1,0,1.912,0" transform="translate(-333.857 -178.663)" fill="#fff"/>
          <path id="Tracciato_9796" data-name="Tracciato 9796" d="M346.4,184.351a1.21,1.21,0,0,1-.97-1.934l.06-.081-.03.1a.985.985,0,1,0,1.879,0l-.03-.1.06.081a1.21,1.21,0,0,1-.97,1.934m-1-1.833a1.165,1.165,0,0,0-.178.623,1.176,1.176,0,0,0,2.352,0,1.165,1.165,0,0,0-.178-.623,1.019,1.019,0,1,1-1.995,0" transform="translate(-333.374 -176.097)"/>
          <path id="Tracciato_9797" data-name="Tracciato 9797" d="M339.981,293.569a.3.3,0,1,1-.31,0c0-.3.069-.449.155-.449s.155.144.155.449" transform="translate(-328.048 -283.09)" fill="#fedd00"/>
          <path id="Tracciato_9798" data-name="Tracciato 9798" d="M339.342,293.682l-.015-.024a1.23,1.23,0,0,1-.157-.572c0-.292.064-.466.172-.466s.172.174.172.466a1.231,1.231,0,0,1-.157.572Zm0-1.028c-.064,0-.138.113-.138.432a.282.282,0,1,0,.276,0c0-.319-.074-.432-.138-.432" transform="translate(-327.564 -282.607)"/>
          <path id="Tracciato_9799" data-name="Tracciato 9799" d="M319.615,306.26a.3.3,0,1,1-.155.268c-.264-.152-.354-.285-.311-.359s.2-.062.466.09" transform="translate(-308.218 -295.65)" fill="#fedd00"/>
          <path id="Tracciato_9800" data-name="Tracciato 9800" d="M319.529,306.21a1.231,1.231,0,0,1-.569-.15c-.253-.146-.371-.289-.318-.382.018-.031.062-.065.168-.048a1.03,1.03,0,0,1,.322.132,1.232,1.232,0,0,1,.417.422l.014.025h-.034m-.771-.55a.092.092,0,0,0-.086.036c-.032.055.029.176.305.335a.282.282,0,1,0,.138-.239,1,1,0,0,0-.31-.128.293.293,0,0,0-.047,0" transform="translate(-307.726 -295.167)"/>
          <path id="Tracciato_9801" data-name="Tracciato 9801" d="M319.461,321.367a.3.3,0,1,1,.155.268c-.264.152-.423.164-.466.09s.048-.206.311-.359" transform="translate(-308.219 -310.228)" fill="#fedd00"/>
          <path id="Tracciato_9802" data-name="Tracciato 9802" d="M318.756,321.3a.121.121,0,0,1-.114-.053c-.054-.093.065-.236.318-.382a1.231,1.231,0,0,1,.574-.15h.029l-.014.025a1.23,1.23,0,0,1-.417.422.847.847,0,0,1-.376.137m.746-.55a1.211,1.211,0,0,0-.526.144c-.276.159-.337.28-.305.335s.167.063.443-.1a1.209,1.209,0,0,0,.388-.383" transform="translate(-307.726 -309.745)"/>
          <path id="Tracciato_9803" data-name="Tracciato 9803" d="M339.67,321.292a.3.3,0,1,1,.31,0c0,.3-.069.449-.155.449s-.155-.144-.155-.449" transform="translate(-328.047 -309.754)" fill="#fedd00"/>
          <path id="Tracciato_9804" data-name="Tracciato 9804" d="M339.342,320.818c-.108,0-.172-.174-.172-.466a1.23,1.23,0,0,1,.157-.572l.015-.025.015.025a1.231,1.231,0,0,1,.157.572c0,.292-.064.466-.172.466m0-.993a1.212,1.212,0,0,0-.138.527c0,.319.074.432.138.432s.138-.113.138-.432a1.209,1.209,0,0,0-.138-.527" transform="translate(-327.564 -308.814)"/>
          <path id="Tracciato_9805" data-name="Tracciato 9805" d="M343.755,321.635a.3.3,0,1,1,.155-.268c.264.152.354.285.311.359s-.2.062-.466-.09" transform="translate(-331.596 -310.228)" fill="#fedd00"/>
          <path id="Tracciato_9806" data-name="Tracciato 9806" d="M343.308,321.3a.848.848,0,0,1-.376-.137,1.23,1.23,0,0,1-.417-.422l-.014-.025h.029a1.236,1.236,0,0,1,.574.15,1.031,1.031,0,0,1,.275.213c.068.083.06.138.042.169a.121.121,0,0,1-.114.053m-.746-.55a1.211,1.211,0,0,0,.388.383c.276.159.411.152.443.1.018-.031,0-.078-.039-.131a1,1,0,0,0-.266-.2,1.21,1.21,0,0,0-.526-.144" transform="translate(-330.782 -309.744)"/>
          <path id="Tracciato_9807" data-name="Tracciato 9807" d="M343.91,306.528a.3.3,0,1,1-.155-.268c.264-.152.423-.164.466-.09s-.048.206-.311.359" transform="translate(-331.596 -295.65)" fill="#fedd00"/>
          <path id="Tracciato_9808" data-name="Tracciato 9808" d="M342.537,306.21H342.5l.014-.025a1.231,1.231,0,0,1,.417-.422,1.03,1.03,0,0,1,.322-.132c.106-.017.15.017.168.048s.026.086-.042.169a1.029,1.029,0,0,1-.275.213,1.231,1.231,0,0,1-.569.15m.771-.55a.293.293,0,0,0-.047,0,1,1,0,0,0-.31.128.282.282,0,1,0,.138.239,1,1,0,0,0,.266-.2c.043-.053.057-.1.039-.131a.092.092,0,0,0-.086-.036" transform="translate(-330.783 -295.167)"/>
          <path id="Tracciato_9809" data-name="Tracciato 9809" d="M340.315,317.687a.143.143,0,1,1-.143-.143.143.143,0,0,1,.143.143" transform="translate(-328.394 -306.678)" fill="#fff"/>
          <path id="Tracciato_9810" data-name="Tracciato 9810" d="M339.689,317.364a.16.16,0,1,1,.16-.16.16.16,0,0,1-.16.16m0-.285a.125.125,0,1,0,.125.125.126.126,0,0,0-.125-.125" transform="translate(-327.91 -306.196)"/>
          <path id="Tracciato_9811" data-name="Tracciato 9811" d="M413.357,293.569a.3.3,0,1,1-.31,0c0-.3.069-.449.155-.449s.155.144.155.449" transform="translate(-398.913 -283.09)" fill="#fedd00"/>
          <path id="Tracciato_9812" data-name="Tracciato 9812" d="M412.719,293.682l-.015-.024a1.231,1.231,0,0,1-.157-.572c0-.292.064-.466.172-.466s.172.174.172.466a1.231,1.231,0,0,1-.157.572Zm0-1.028c-.064,0-.138.113-.138.432a.282.282,0,1,0,.276,0c0-.319-.074-.432-.138-.432" transform="translate(-398.43 -282.607)"/>
          <path id="Tracciato_9813" data-name="Tracciato 9813" d="M392.992,306.26a.3.3,0,1,1-.155.268c-.264-.152-.354-.285-.311-.359s.2-.062.466.09" transform="translate(-379.084 -295.65)" fill="#fedd00"/>
          <path id="Tracciato_9814" data-name="Tracciato 9814" d="M392.912,306.21a1.231,1.231,0,0,1-.569-.15,1.029,1.029,0,0,1-.275-.213c-.068-.083-.06-.138-.042-.169s.062-.065.168-.048a1.03,1.03,0,0,1,.322.132,1.231,1.231,0,0,1,.417.422l.014.025h-.034m-.771-.55a.092.092,0,0,0-.086.036c-.018.031,0,.078.039.131a1,1,0,0,0,.266.2.282.282,0,1,0,.138-.239,1,1,0,0,0-.31-.128.293.293,0,0,0-.047,0" transform="translate(-378.598 -295.167)"/>
          <path id="Tracciato_9815" data-name="Tracciato 9815" d="M392.837,321.367a.3.3,0,1,1,.155.268c-.264.152-.423.164-.466.09s.048-.206.311-.359" transform="translate(-379.084 -310.228)" fill="#fedd00"/>
          <path id="Tracciato_9816" data-name="Tracciato 9816" d="M392.14,321.3a.121.121,0,0,1-.114-.053c-.018-.031-.026-.086.042-.169a1.031,1.031,0,0,1,.275-.213,1.232,1.232,0,0,1,.574-.15h.029l-.014.025a1.231,1.231,0,0,1-.417.422.847.847,0,0,1-.376.137m.746-.55a1.211,1.211,0,0,0-.526.144,1,1,0,0,0-.266.2c-.043.053-.057.1-.039.131.032.055.167.063.443-.1a1.21,1.21,0,0,0,.388-.383" transform="translate(-378.598 -309.745)"/>
          <path id="Tracciato_9817" data-name="Tracciato 9817" d="M413.047,321.292a.3.3,0,1,1,.31,0c0,.3-.069.449-.155.449s-.155-.144-.155-.449" transform="translate(-398.913 -309.754)" fill="#fedd00"/>
          <path id="Tracciato_9818" data-name="Tracciato 9818" d="M412.719,320.818c-.108,0-.172-.174-.172-.466a1.231,1.231,0,0,1,.157-.572l.015-.025.015.025a1.231,1.231,0,0,1,.157.572c0,.292-.064.466-.172.466m0-.993a1.211,1.211,0,0,0-.138.527c0,.319.074.432.138.432s.138-.113.138-.432a1.21,1.21,0,0,0-.138-.527" transform="translate(-398.43 -308.814)"/>
          <path id="Tracciato_9819" data-name="Tracciato 9819" d="M417.132,321.635a.3.3,0,1,1,.155-.268c.264.152.354.285.311.359s-.2.062-.466-.09" transform="translate(-402.462 -310.228)" fill="#fedd00"/>
          <path id="Tracciato_9820" data-name="Tracciato 9820" d="M416.685,321.3a.328.328,0,0,1-.053,0,1.032,1.032,0,0,1-.322-.132,1.232,1.232,0,0,1-.417-.422l-.014-.025h.029a1.233,1.233,0,0,1,.574.15,1.03,1.03,0,0,1,.275.213c.068.083.06.138.042.169a.12.12,0,0,1-.115.053m-.746-.55a1.211,1.211,0,0,0,.388.383,1,1,0,0,0,.31.128c.067.011.115,0,.133-.031s0-.078-.039-.131a1,1,0,0,0-.266-.2,1.211,1.211,0,0,0-.526-.144" transform="translate(-401.649 -309.745)"/>
          <path id="Tracciato_9821" data-name="Tracciato 9821" d="M417.286,306.528a.3.3,0,1,1-.155-.268c.264-.152.424-.164.466-.09s-.048.206-.311.359" transform="translate(-402.461 -295.65)" fill="#fedd00"/>
          <path id="Tracciato_9822" data-name="Tracciato 9822" d="M415.914,306.209h-.034l.014-.025a1.232,1.232,0,0,1,.417-.422,1.03,1.03,0,0,1,.322-.132c.106-.017.15.017.168.048s.026.086-.042.169a1.03,1.03,0,0,1-.275.213,1.232,1.232,0,0,1-.569.15m.771-.55a.293.293,0,0,0-.047,0,1,1,0,0,0-.31.128.282.282,0,1,0,.138.239,1,1,0,0,0,.266-.2c.043-.053.057-.1.039-.131a.092.092,0,0,0-.086-.036" transform="translate(-401.649 -295.166)"/>
          <path id="Tracciato_9823" data-name="Tracciato 9823" d="M413.691,317.687a.143.143,0,1,1-.143-.143.143.143,0,0,1,.143.143" transform="translate(-399.259 -306.678)" fill="#fff"/>
          <path id="Tracciato_9824" data-name="Tracciato 9824" d="M413.066,317.364a.16.16,0,1,1,.16-.16.16.16,0,0,1-.16.16m0-.285a.125.125,0,1,0,.125.125.126.126,0,0,0-.125-.125" transform="translate(-398.777 -306.196)"/>
          <path id="Tracciato_9825" data-name="Tracciato 9825" d="M493.412,139.554a.273.273,0,0,0,.148-.046c.057-.046.587-.667.587-.667s-.04-.143,0-.205a4.359,4.359,0,0,1,.308-.319.42.42,0,0,1-.279-.16.6.6,0,0,1-.108-.342l.222.171a.963.963,0,0,1-.04-.217,1.106,1.106,0,0,1,.029-.205l.177.24v-.371l.154.177a.412.412,0,0,1,.023-.2.532.532,0,0,1,.074-.145.723.723,0,0,0,.086.4c.1.14.177.16.177.16s.3-.259.319-.351a.621.621,0,0,0-.214-.536.869.869,0,0,0-.456-.125s.135-.185.533-.121a.479.479,0,0,1,.423.419l.12-.175a.542.542,0,0,1,.06.12.871.871,0,0,1,.026.184l.154-.265a.538.538,0,0,1,.064.145c0,.047,0,.15,0,.15l.188-.244.021.265a.425.425,0,0,1,.287-.269.875.875,0,0,1,.376-.06.97.97,0,0,0-.308.308.447.447,0,0,0-.056.261l.214-.009-.03.192.227-.171-.026.321a.445.445,0,0,1,.321-.18.47.47,0,0,1,.355.064s-.372.064-.419.188a.3.3,0,0,0,.047.278.358.358,0,0,1,.009.2.516.516,0,0,1,.868-.009,1,1,0,0,0-.577.051.4.4,0,0,0-.2.282l.325-.043s-.235.24-.167.248.556.039.556.039a1.278,1.278,0,0,0-.321.128.4.4,0,0,0-.1.133s.248-.064.355.009.094.145.094.145a.591.591,0,0,0-.3-.038c-.214.013-.2.09-.2.09a.707.707,0,0,1,.411.038.578.578,0,0,1,.235.235.8.8,0,0,0-.4-.073.825.825,0,0,0-.269.133s.368.009.475.15a.456.456,0,0,1,.107.248s-.278-.389-.56-.068-.2.461-.135.529.262.063.542,0a2.425,2.425,0,0,0,.593-.251.591.591,0,0,1-.114.228.439.439,0,0,1-.182.114h.325a.6.6,0,0,1-.205.125.64.64,0,0,1-.148.029,2.084,2.084,0,0,0,.4.023c.05-.023-.355.137-.355.137l.262.08-.376.1a.939.939,0,0,1,.274.086.238.238,0,0,1,.108.137.656.656,0,0,1-.268,0l-.137-.023a1.352,1.352,0,0,1,.274.205c.029.057-.354,0-.354,0a1.945,1.945,0,0,1,.147.349,2.855,2.855,0,0,1-.381-.115s.222.265.188.291-.287-.154-.287-.154.163.287.124.325-.261-.21-.261-.21a2.758,2.758,0,0,1,.094.432,3.807,3.807,0,0,1-.411-.308,1.826,1.826,0,0,1,.12.411,2.033,2.033,0,0,1-.359-.244,1.774,1.774,0,0,1,.068.334,3.514,3.514,0,0,1-.312-.3,1.045,1.045,0,0,0,.077.272,1.428,1.428,0,0,0,.15.184.594.594,0,0,1-.329-.128.582.582,0,0,1-.115-.21.429.429,0,0,0,.051.252c.068.1.124.163.124.163a1.118,1.118,0,0,1-.316-.188.6.6,0,0,1-.086-.171.463.463,0,0,0,.017.218,1,1,0,0,0,.128.175.349.349,0,0,1-.278-.111.96.96,0,0,1-.178-.227s.024,0,.029.21-.051.218-.051.218a1.383,1.383,0,0,1-.163-.218.266.266,0,0,1-.047-.167,1.029,1.029,0,0,1-.039.265.648.648,0,0,1-.158.282,1.289,1.289,0,0,0-.03-.453c-.06-.128-.111-.282-.086-.329s-.06-.047-.222.077a.483.483,0,0,0-.188.227.468.468,0,0,0-.308.086.4.4,0,0,0-.171.2.317.317,0,0,0-.24.107c-.086.111-.077.167-.077.167a.216.216,0,0,0-.188.133.331.331,0,0,0-.03.244.463.463,0,0,0-.154.269,1.066,1.066,0,0,0,.013.321.563.563,0,0,0-.115.321.485.485,0,0,0,.115.291.771.771,0,0,0,0,.308.424.424,0,0,0,.124.21.32.32,0,0,0,0,.214.293.293,0,0,0,.094.1.382.382,0,0,0,.073.21.935.935,0,0,0,.141.128s-.03.073.1.184a.4.4,0,0,0,.274.1.315.315,0,0,0,.12.167.349.349,0,0,0,.193.06.246.246,0,0,0,.2.077.484.484,0,0,0,.227-.047.588.588,0,0,0,.248.047c.141,0,.184-.068.184-.068a.437.437,0,0,0,.261.026.239.239,0,0,0,.184-.163.365.365,0,0,0,.257-.047.218.218,0,0,0,.1-.154.229.229,0,0,0,.205-.047.186.186,0,0,0,.068-.171.33.33,0,0,0,.188-.2.338.338,0,0,0,.026-.257s.064-.038.064-.21a.213.213,0,0,0-.115-.214.463.463,0,0,0,.043-.351.333.333,0,0,0-.193-.24.259.259,0,0,0-.09-.205.3.3,0,0,0-.2-.068.378.378,0,0,0-.278-.111.35.35,0,0,0-.235.137s-.235-.013-.248.141a.391.391,0,0,0,.083.265.159.159,0,0,1-.19.073c-.133-.038-.227-.4-.077-.607a.4.4,0,0,1,.338-.188.82.82,0,0,1,.376-.1c.21,0,.269.1.269.1s.1-.047.3.111.184.291.184.291.1.034.222.265a.334.334,0,0,1,.013.368.433.433,0,0,1,.086.282.359.359,0,0,1-.107.252.377.377,0,0,1,.017.3.48.48,0,0,1-.2.257.339.339,0,0,1-.163.282,1.147,1.147,0,0,1-.3.145s-.038.15-.287.252a.528.528,0,0,1-.4.034.37.37,0,0,1-.248.154.616.616,0,0,1-.287-.051.411.411,0,0,1-.355.077.5.5,0,0,1-.3-.163.481.481,0,0,1-.317-.039.37.37,0,0,1-.193-.21,1.088,1.088,0,0,1-.344-.145.689.689,0,0,1-.171-.3.408.408,0,0,1-.359-.234c-.114-.24-.08-.342-.08-.342a.521.521,0,0,1-.24-.388c-.068-.314,0-.336,0-.336a.884.884,0,0,1-.182-.428.381.381,0,0,1,.114-.3.7.7,0,0,1-.114-.388.328.328,0,0,1,.131-.274.316.316,0,0,1-.132-.336c.041-.24.183-.234.183-.234a.618.618,0,0,1-.19-.4.358.358,0,0,1,.144-.308.473.473,0,0,1,.137-.451.82.82,0,0,1,.2-.167.077.077,0,0,0,.039-.09.325.325,0,0,1,.069-.3c.16-.211.319-.171.319-.171a.293.293,0,0,1,.04-.314.421.421,0,0,1,.3-.154.275.275,0,0,1,.029-.291.21.21,0,0,1,.285-.051.264.264,0,0,1,.16-.291.489.489,0,0,1,.416.011s.011-.171.314-.165a.815.815,0,0,0,.924-.559c.188-.553.3-.8-.014-.982a1.328,1.328,0,0,1-.441-.394,3.878,3.878,0,0,0,.406.483.527.527,0,0,1-.12.732c-.235.124-.723.06-.774.163s-.475-.094-.881.18-.817.513-.817.513l-.227-.043a.455.455,0,0,0,0-.163.354.354,0,0,0-.11-.153" transform="translate(-476.141 -131.997)" fill="#bec6c4"/>
          <path id="Tracciato_9826" data-name="Tracciato 9826" d="M494.582,146.343a.508.508,0,0,1-.105-.011.559.559,0,0,1-.308-.159.506.506,0,0,1-.318-.044.408.408,0,0,1-.2-.211,1.051,1.051,0,0,1-.34-.147.67.67,0,0,1-.174-.3.429.429,0,0,1-.363-.248.649.649,0,0,1-.085-.34.583.583,0,0,1-.236-.4c-.048-.22-.032-.309-.009-.344a.861.861,0,0,1-.174-.425.421.421,0,0,1,.107-.307.711.711,0,0,1-.107-.385.384.384,0,0,1,.114-.272.35.35,0,0,1-.115-.341c.029-.168.106-.226.158-.245a.606.606,0,0,1-.165-.384.394.394,0,0,1,.14-.318.505.505,0,0,1,.148-.458.865.865,0,0,1,.206-.172.051.051,0,0,0,.026-.06.349.349,0,0,1,.074-.319.4.4,0,0,1,.3-.184.314.314,0,0,1,.059-.3.448.448,0,0,1,.284-.16.308.308,0,0,1,.045-.283.221.221,0,0,1,.277-.08.293.293,0,0,1,.178-.271.5.5,0,0,1,.41,0c.02-.056.092-.16.332-.155a.786.786,0,0,0,.9-.542l.035-.1c.167-.487.236-.688-.038-.85-.051-.03-.1-.06-.138-.091a1.7,1.7,0,0,0,.134.139.449.449,0,0,1,.1.384.5.5,0,0,1-.228.389,1.318,1.318,0,0,1-.474.093c-.127.01-.27.021-.289.059-.027.053-.1.05-.218.044a1.035,1.035,0,0,0-.672.145c-.4.271-.814.512-.818.514l-.008,0-.262-.049.005-.025a.43.43,0,0,0,0-.152.331.331,0,0,0-.1-.138l-.055-.045h.072a.248.248,0,0,0,.132-.04c.044-.035.422-.474.575-.654a.324.324,0,0,1,.007-.213,3.348,3.348,0,0,1,.276-.289.447.447,0,0,1-.246-.16.617.617,0,0,1-.114-.359v-.05l.2.156a.723.723,0,0,1-.022-.15,1.114,1.114,0,0,1,.029-.211l.013-.054.163.221v-.361l.151.173a.445.445,0,0,1,.028-.136.556.556,0,0,1,.079-.153l.05-.059-.005.077a.7.7,0,0,0,.081.379.463.463,0,0,0,.151.145,1.321,1.321,0,0,0,.3-.326.6.6,0,0,0-.2-.51.851.851,0,0,0-.441-.121l-.053,0,.031-.043c.006-.008.15-.2.558-.131a.5.5,0,0,1,.433.379l.106-.155.021.031a.558.558,0,0,1,.063.126.569.569,0,0,1,.021.108l.134-.231.023.037a.533.533,0,0,1,.068.156c0,.02,0,.048,0,.074l.181-.234.019.235a.484.484,0,0,1,.26-.2.9.9,0,0,1,.389-.061l.068.011-.058.037a.95.95,0,0,0-.3.3.5.5,0,0,0-.056.223l.221-.009-.025.161.222-.167-.024.3a.521.521,0,0,1,.285-.129.492.492,0,0,1,.375.07l.043.036-.055.01c-.138.024-.369.092-.4.172a.247.247,0,0,0,.032.23l.014.028a.274.274,0,0,1,.022.128.553.553,0,0,1,.507-.172.572.572,0,0,1,.346.234l.032.05-.059-.011a.983.983,0,0,0-.559.048.4.4,0,0,0-.184.231l.364-.048-.052.053a1.124,1.124,0,0,0-.169.206c.1.01.537.037.541.037l.156.01-.151.041a1.193,1.193,0,0,0-.311.123.372.372,0,0,0-.066.077.493.493,0,0,1,.32.024c.119.081.106.167.1.171l-.006.036-.032-.018a.585.585,0,0,0-.289-.035.38.38,0,0,0-.144.029.657.657,0,0,1,.364.051.6.6,0,0,1,.246.247l.029.063-.063-.028a.775.775,0,0,0-.381-.071.758.758,0,0,0-.2.087.656.656,0,0,1,.418.155.478.478,0,0,1,.112.264v.08l-.047-.065a.459.459,0,0,0-.289-.184.291.291,0,0,0-.231.118c-.289.328-.178.449-.136.495.025.027.125.08.517-.008a2.413,2.413,0,0,0,.586-.248l.052-.031-.014.059a.61.61,0,0,1-.12.24.435.435,0,0,1-.086.071h.275l-.047.044a.637.637,0,0,1-.2.128.954.954,0,0,0,.224.007h0c.03-.008.033,0,.038.01a.026.026,0,0,1-.017.036l-.014,0-.273.106.279.085-.358.092a.659.659,0,0,1,.174.066.263.263,0,0,1,.12.153l.005.023-.023.007a.678.678,0,0,1-.28,0l-.012,0a.667.667,0,0,1,.177.148.035.035,0,0,1,0,.038c-.022.031-.133.033-.329.006.155.315.136.327.115.339s-.029.017-.316-.083c.069.088.144.192.139.232a.035.035,0,0,1-.014.024c-.012.009-.041.031-.229-.093.074.145.1.233.069.262a.042.042,0,0,1-.031.012c-.044,0-.131-.08-.2-.147.091.341.073.351.056.362s-.035.02-.366-.25c.12.327.093.342.075.353s-.041.024-.327-.2c.065.249.053.269.047.278l-.006.009-.013,0c-.015,0-.032.007-.276-.247a.677.677,0,0,0,.058.179,1.413,1.413,0,0,0,.146.18l.047.049-.068-.006a.609.609,0,0,1-.347-.137.662.662,0,0,1-.063-.09.271.271,0,0,0,.04.1c.067.1.122.16.122.16l.071.082-.1-.042a1.078,1.078,0,0,1-.327-.2.574.574,0,0,1-.044-.071.241.241,0,0,0,.02.092.981.981,0,0,0,.124.17l.033.036-.048.007a.373.373,0,0,1-.3-.118,1.342,1.342,0,0,1-.109-.123c0,.025,0,.053,0,.087,0,.21-.053.24-.071.244l-.015,0-.01-.011a1.393,1.393,0,0,1-.166-.223l-.013-.026c-.006.034-.014.073-.025.118a.669.669,0,0,1-.165.295l-.05.048.006-.069a1.275,1.275,0,0,0-.028-.44c-.029-.062-.117-.262-.089-.343a.484.484,0,0,0-.18.1.472.472,0,0,0-.179.213l-.006.022-.022,0a.448.448,0,0,0-.29.081.393.393,0,0,0-.161.182l-.005.02h-.021a.294.294,0,0,0-.219.1c-.075.1-.072.148-.072.148l0,.029h-.029a.188.188,0,0,0-.164.118.3.3,0,0,0-.029.224l.006.017-.014.011a.44.44,0,0,0-.145.253,1.045,1.045,0,0,0,.013.312l0,.012-.008.01a.541.541,0,0,0-.11.3.46.46,0,0,0,.109.274l.009.01,0,.013a.75.75,0,0,0,0,.3.4.4,0,0,0,.115.2l.013.011-.005.017a.287.287,0,0,0,0,.193.276.276,0,0,0,.085.094l.013.007v.015a.357.357,0,0,0,.066.193.914.914,0,0,0,.137.124l.017.012-.008.019s-.018.06.1.155a.383.383,0,0,0,.255.092l.022,0,.005.021a.292.292,0,0,0,.109.152.323.323,0,0,0,.177.055h.014l.008.011a.222.222,0,0,0,.18.066.468.468,0,0,0,.214-.044l.012-.007.012.006a.568.568,0,0,0,.236.045.208.208,0,0,0,.164-.057l.013-.018.02.009a.416.416,0,0,0,.244.024.213.213,0,0,0,.164-.144l.006-.023.024,0a.341.341,0,0,0,.236-.042.2.2,0,0,0,.089-.134V145.5l.032.009a.2.2,0,0,0,.181-.042.16.16,0,0,0,.061-.146l-.005-.024.023-.007a.3.3,0,0,0,.171-.186.323.323,0,0,0,.026-.236l-.009-.021.019-.012s.052-.037.052-.188a.188.188,0,0,0-.1-.19l-.029-.011.017-.026a.441.441,0,0,0,.04-.33.308.308,0,0,0-.176-.222l-.019-.006v-.02a.235.235,0,0,0-.08-.183.283.283,0,0,0-.179-.063h-.012l-.009-.009a.357.357,0,0,0-.257-.1.324.324,0,0,0-.217.126l-.008.012h-.014s-.211-.01-.221.118a.366.366,0,0,0,.077.246l.011.013-.008.015a.184.184,0,0,1-.22.086.253.253,0,0,1-.14-.175.545.545,0,0,1,.05-.473.436.436,0,0,1,.352-.2.844.844,0,0,1,.383-.1.353.353,0,0,1,.279.1c.042-.008.143-.008.31.12a.409.409,0,0,1,.194.3.66.66,0,0,1,.219.269.374.374,0,0,1,.022.379.464.464,0,0,1,.08.284.4.4,0,0,1-.1.256.414.414,0,0,1,.01.307.511.511,0,0,1-.2.263.367.367,0,0,1-.174.289,1.229,1.229,0,0,1-.3.145.5.5,0,0,1-.3.255.591.591,0,0,1-.4.041.383.383,0,0,1-.255.149.639.639,0,0,1-.285-.047.428.428,0,0,1-.259.084m-.393-.228.01.015a.485.485,0,0,0,.288.152.382.382,0,0,0,.332-.071l.013-.012.016.007a.6.6,0,0,0,.273.049.347.347,0,0,0,.229-.143l.012-.018.02.009a.514.514,0,0,0,.377-.035c.231-.1.271-.234.272-.235l0-.014.015,0a1.142,1.142,0,0,0,.3-.142.314.314,0,0,0,.151-.26V145.4l.014-.008a.459.459,0,0,0,.189-.242.35.35,0,0,0-.015-.282l-.012-.019.017-.014a.332.332,0,0,0,.1-.234.408.408,0,0,0-.08-.264l-.014-.016.013-.016a.309.309,0,0,0-.016-.34c-.116-.216-.208-.253-.209-.253l-.02-.007,0-.021s.014-.121-.174-.266-.277-.108-.278-.108l-.021.009-.012-.019s-.057-.09-.247-.09a.8.8,0,0,0-.363.095l-.007,0h-.008a.377.377,0,0,0-.315.178.492.492,0,0,0-.043.426.214.214,0,0,0,.106.142.131.131,0,0,0,.151-.047.413.413,0,0,1-.077-.269c.013-.153.2-.165.259-.165h0a.374.374,0,0,1,.245-.136.392.392,0,0,1,.291.111.338.338,0,0,1,.2.074.277.277,0,0,1,.1.208.374.374,0,0,1,.191.25.489.489,0,0,1-.032.347.25.25,0,0,1,.106.224.31.31,0,0,1-.06.217.4.4,0,0,1-.032.259.375.375,0,0,1-.184.208.219.219,0,0,1-.079.173.248.248,0,0,1-.2.058.276.276,0,0,1-.1.144.367.367,0,0,1-.255.055.263.263,0,0,1-.2.159.473.473,0,0,1-.259-.02.283.283,0,0,1-.19.063.63.63,0,0,1-.248-.044.543.543,0,0,1-.228.044.286.286,0,0,1-.213-.077.379.379,0,0,1-.2-.064.34.34,0,0,1-.124-.162.439.439,0,0,1-.272-.1c-.107-.09-.117-.159-.114-.193a.972.972,0,0,1-.132-.122.389.389,0,0,1-.078-.212.354.354,0,0,1-.091-.1.317.317,0,0,1-.011-.219.468.468,0,0,1-.12-.211.775.775,0,0,1-.007-.307.508.508,0,0,1-.114-.3.576.576,0,0,1,.114-.328,1.078,1.078,0,0,1-.011-.318.48.48,0,0,1,.15-.275.37.37,0,0,1,.036-.247.248.248,0,0,1,.187-.145.371.371,0,0,1,.081-.159.331.331,0,0,1,.242-.117.489.489,0,0,1,.174-.192.5.5,0,0,1,.305-.092.576.576,0,0,1,.19-.22c.046-.035.2-.147.255-.1a.042.042,0,0,1,.006.056.607.607,0,0,0,.086.306,1.023,1.023,0,0,1,.037.388.616.616,0,0,0,.1-.212,1.222,1.222,0,0,0,.037-.228.136.136,0,0,1,0-.037l.042-.195.009.2s0,.012,0,.031a.326.326,0,0,0,.044.125,1.287,1.287,0,0,0,.141.193.38.38,0,0,0,.024-.18.8.8,0,0,0-.017-.182l-.009-.017-.022-.045.049.009c.008,0,.02,0,.029.033a1.074,1.074,0,0,0,.163.2.345.345,0,0,0,.2.1.821.821,0,0,1-.095-.138.482.482,0,0,1-.019-.233l.018-.116.032.113a.582.582,0,0,0,.082.163.7.7,0,0,0,.209.136c-.017-.023-.037-.05-.058-.08a.45.45,0,0,1-.056-.27l.016-.141.035.137a.565.565,0,0,0,.11.2.449.449,0,0,0,.242.109,1.089,1.089,0,0,1-.1-.134,1.048,1.048,0,0,1-.08-.282l-.012-.081.056.059c.1.1.21.217.266.268-.011-.061-.038-.173-.066-.275l-.021-.075.061.049a3.207,3.207,0,0,0,.32.23,3.009,3.009,0,0,0-.12-.368l-.034-.091.075.062c.143.118.3.243.368.287-.011-.071-.052-.235-.093-.384l-.029-.105.073.081a1.1,1.1,0,0,0,.222.2,1.123,1.123,0,0,0-.127-.289l-.057-.1.094.067a1.518,1.518,0,0,0,.243.147,1.707,1.707,0,0,0-.179-.247l-.061-.072.089.032c.134.048.282.1.342.111-.019-.056-.081-.19-.14-.309l-.022-.044.049.007a1.582,1.582,0,0,0,.317.023,1.6,1.6,0,0,0-.25-.178l-.02,0v-.026c0-.014,0-.02.029-.019v0l.011,0c.024,0,.064.009.129.02a.733.733,0,0,0,.23.006.228.228,0,0,0-.088-.1.92.92,0,0,0-.264-.082l-.123-.019.408-.105-.245-.075.068-.027.179-.07.036-.014c-.1-.006-.207-.02-.255-.026l0-.051a.639.639,0,0,0,.141-.028.462.462,0,0,0,.141-.075h-.439l.179-.05a.417.417,0,0,0,.171-.107.478.478,0,0,0,.089-.156,2.28,2.28,0,0,1-.543.221c-.308.069-.5.066-.566-.008-.124-.135-.08-.319.135-.563a.339.339,0,0,1,.273-.135.424.424,0,0,1,.259.128.567.567,0,0,0-.08-.14c-.1-.13-.451-.139-.455-.14l-.071,0,.056-.044a.843.843,0,0,1,.279-.137.665.665,0,0,1,.341.045.567.567,0,0,0-.184-.16.684.684,0,0,0-.393-.036l-.026.006,0-.026a.067.067,0,0,1,.016-.051.291.291,0,0,1,.208-.069.776.776,0,0,1,.273.024.2.2,0,0,0-.076-.084.537.537,0,0,0-.334,0l-.05.013.02-.047a.423.423,0,0,1,.105-.142.694.694,0,0,1,.2-.092c-.15-.01-.372-.024-.417-.03a.038.038,0,0,1-.033-.025c-.012-.033.033-.105.134-.214l-.283.037,0-.031a.419.419,0,0,1,.213-.3.9.9,0,0,1,.531-.065.506.506,0,0,0-.273-.162.514.514,0,0,0-.513.22l-.082.127.035-.146a.334.334,0,0,0-.007-.184l-.014-.027a.3.3,0,0,1-.034-.272c.039-.1.254-.164.369-.19a.523.523,0,0,0-.278-.027.418.418,0,0,0-.3.167l-.056.094.03-.373-.232.175.035-.224-.2.008,0-.021a.47.47,0,0,1,.057-.277.845.845,0,0,1,.252-.273,1.083,1.083,0,0,0-.289.06.4.4,0,0,0-.27.251l-.038.148-.028-.352-.2.255,0-.081s0-.1,0-.146a.345.345,0,0,0-.039-.1l-.176.3,0-.089a.851.851,0,0,0-.024-.177.484.484,0,0,0-.037-.081l-.139.2-.006-.073a.45.45,0,0,0-.4-.4.609.609,0,0,0-.465.072.854.854,0,0,1,.406.128.647.647,0,0,1,.225.562c-.018.1-.3.338-.328.365l-.01.009-.013,0c-.008,0-.086-.026-.191-.169a.613.613,0,0,1-.09-.316c-.008.017-.016.036-.025.059a.392.392,0,0,0-.022.186l.016.091-.17-.195v.38l-.189-.256a.859.859,0,0,0-.016.144.942.942,0,0,0,.039.209l.023.077-.242-.186a.547.547,0,0,0,.1.272.4.4,0,0,0,.261.15l.058,0-.042.04a4.052,4.052,0,0,0-.3.315.311.311,0,0,0,0,.185l0,.013-.009.01c-.054.064-.534.625-.591.671a.247.247,0,0,1-.107.045.3.3,0,0,1,.077.128.455.455,0,0,1,0,.147l.193.036c.06-.035.438-.259.807-.508a1.08,1.08,0,0,1,.7-.154c.081,0,.158.008.169-.016.032-.063.157-.073.331-.087a1.288,1.288,0,0,0,.454-.087.453.453,0,0,0,.2-.35.4.4,0,0,0-.086-.34,3.351,3.351,0,0,1-.362-.422.672.672,0,0,1-.049-.067l.043-.028.043.058a1.444,1.444,0,0,0,.39.328c.31.183.227.426.06.911l-.035.1a.844.844,0,0,1-.949.576h-.014c-.258,0-.273.136-.273.142l0,.039-.034-.018a.467.467,0,0,0-.393-.011.24.24,0,0,0-.146.262l.015.06-.053-.032a.184.184,0,0,0-.251.044.251.251,0,0,0-.028.263l.024.039h-.045a.4.4,0,0,0-.282.145.268.268,0,0,0-.037.285l.027.051-.056-.014c-.006,0-.146-.032-.293.162a.3.3,0,0,0-.065.274.1.1,0,0,1-.052.12.8.8,0,0,0-.193.162.45.45,0,0,0-.131.425l.006.019-.018.011a.331.331,0,0,0-.132.286.6.6,0,0,0,.181.38l.051.047-.069,0s-.121,0-.157.213a.291.291,0,0,0,.119.31l.04.022-.039.023a.3.3,0,0,0-.118.253.68.68,0,0,0,.11.372l.013.02-.018.015a.354.354,0,0,0-.1.282.861.861,0,0,0,.177.412l.023.029-.031.011c-.006.007-.04.061.014.308a.507.507,0,0,0,.225.37l.021.009-.007.022a.525.525,0,0,0,.079.323.384.384,0,0,0,.336.219h.02l.005.019a.668.668,0,0,0,.162.289,1.067,1.067,0,0,0,.333.141l.015,0,0,.015a.35.35,0,0,0,.179.193.457.457,0,0,0,.3.037Z" transform="translate(-475.416 -131.269)"/>
          <path id="Tracciato_9827" data-name="Tracciato 9827" d="M551.913,188.86s.351.165.185.308-.205.185-.291.168l-.086-.017.151.151s-.009-.046.123-.131.271-.105.228-.277-.311-.2-.311-.2" transform="translate(-532.842 -182.397)"/>
          <path id="Tracciato_9828" data-name="Tracciato 9828" d="M550.431,188.7l-.039-.04-.191-.191.141.028c.07.014.106-.017.238-.131l.039-.033a.088.088,0,0,0,.038-.08c-.012-.084-.162-.173-.219-.2l-.095-.045.1.012c.011,0,.28.035.325.215.037.146-.054.2-.151.247-.028.015-.056.03-.085.049-.115.075-.115.115-.115.115Zm-.126-.176.091.091a.344.344,0,0,1,.122-.113c.029-.019.059-.035.087-.05.1-.053.164-.088.134-.208a.263.263,0,0,0-.184-.162.29.29,0,0,1,.136.166.121.121,0,0,1-.049.111l-.038.033c-.135.117-.18.156-.267.139Z" transform="translate(-531.373 -181.574)"/>
          <path id="Tracciato_9829" data-name="Tracciato 9829" d="M537.5,183.433s-.026-.023-.12-.023a.421.421,0,0,0-.095.011.268.268,0,1,0,.036.066l.026-.014a.57.57,0,0,1,.153-.04" transform="translate(-518.44 -177.04)"/>
          <path id="Tracciato_9830" data-name="Tracciato 9830" d="M536.591,183.378a.282.282,0,0,1,0-.565.28.28,0,0,1,.22.106.441.441,0,0,1,.088-.009c.1,0,.126.023.131.027l.029.026-.038,0a.555.555,0,0,0-.147.038l-.013.007a.278.278,0,0,1,.013.083.283.283,0,0,1-.282.282m0-.53a.249.249,0,1,0,.233.163l-.005-.013.013-.007.028-.015a.437.437,0,0,1,.084-.028l-.044,0a.407.407,0,0,0-.091.01l-.011,0-.007-.009a.246.246,0,0,0-.2-.1" transform="translate(-517.957 -176.557)"/>
          <path id="Tracciato_9831" data-name="Tracciato 9831" d="M512.93,209.587a.558.558,0,0,1,.3-.342,5.228,5.228,0,0,1,.744-.355c.117-.032-.62.351-.766.479a1.1,1.1,0,0,0-.227.287l-.056-.01Z" transform="translate(-495.378 -201.74)"/>
          <path id="Tracciato_9832" data-name="Tracciato 9832" d="M512.512,209.2l-.082-.015V209.1a.57.57,0,0,1,.312-.354,5.22,5.22,0,0,1,.748-.357c.007,0,.026-.007.033.009s.009.022-.27.182a4.822,4.822,0,0,0-.513.317,1.09,1.09,0,0,0-.223.282Zm-.048-.044.029.006a1.12,1.12,0,0,1,.225-.28,4.79,4.79,0,0,1,.519-.321l.153-.088c-.165.068-.428.2-.631.313a.551.551,0,0,0-.295.329Z" transform="translate(-494.895 -201.261)"/>
          <path id="Tracciato_9833" data-name="Tracciato 9833" d="M538.638,185.148a.21.21,0,1,1-.21-.21.21.21,0,0,1,.21.21" transform="translate(-519.801 -178.61)" fill="#fff"/>
          <path id="Tracciato_9834" data-name="Tracciato 9834" d="M537.946,184.891a.227.227,0,1,1,.227-.227.227.227,0,0,1-.227.227m0-.419a.192.192,0,1,0,.193.192.193.193,0,0,0-.193-.192" transform="translate(-519.319 -178.127)"/>
          <path id="Tracciato_9835" data-name="Tracciato 9835" d="M541.816,188.442a.093.093,0,1,1-.093-.093.093.093,0,0,1,.093.093" transform="translate(-523.096 -181.904)"/>
          <path id="Tracciato_9836" data-name="Tracciato 9836" d="M541.24,188.068a.11.11,0,1,1,.11-.11.11.11,0,0,1-.11.11m0-.186a.076.076,0,1,0,.076.076.076.076,0,0,0-.076-.076" transform="translate(-522.613 -181.42)"/>
          <path id="Tracciato_9837" data-name="Tracciato 9837" d="M509.983,257.731a.315.315,0,0,1-.212-.094.324.324,0,0,1-.506-.077.259.259,0,0,1-.276-.023.2.2,0,0,1-.09-.184.253.253,0,0,1-.256-.066.326.326,0,0,1-.092-.224.352.352,0,0,1-.233-.1.284.284,0,0,1-.064-.223.393.393,0,0,1-.154-.121.242.242,0,0,1-.025-.222.8.8,0,0,1-.162-.247.455.455,0,0,1,.008-.375.619.619,0,0,1-.108-.285.487.487,0,0,1,.1-.337.76.76,0,0,1-.072-.315.32.32,0,0,1,.208-.331.509.509,0,0,1,.01-.274.27.27,0,0,1,.172-.19.279.279,0,0,1-.023-.264.273.273,0,0,1,.264-.168.3.3,0,0,1,.113-.317.407.407,0,0,1,.322-.079.39.39,0,0,1,.159-.32.632.632,0,0,1,.385-.078.32.32,0,0,1,.249-.309.4.4,0,0,1,.281.03.29.29,0,0,1,.179-.233.619.619,0,0,1,.342-.036.3.3,0,0,1,.117-.25.446.446,0,0,1,.284-.1.256.256,0,0,1-.008-.228.4.4,0,0,1,.51-.166l-.024.064c-.012,0-.3-.11-.425.132a.223.223,0,0,0,.036.214l.058.072-.091-.018a.388.388,0,0,0-.3.084.218.218,0,0,0-.087.23l.023.064-.066-.02a.561.561,0,0,0-.347.022.227.227,0,0,0-.139.237l.021.152-.084-.129s-.068-.094-.273-.054-.2.269-.195.279l0,.042-.041-.007a.6.6,0,0,0-.375.063.353.353,0,0,0-.127.3l.005.056-.052-.021a.329.329,0,0,0-.3.057.242.242,0,0,0-.074.286l.024.057-.061-.01a.223.223,0,0,0-.242.121.2.2,0,0,0,.046.234l.079.061h-.1a.192.192,0,0,0-.172.152.4.4,0,0,0,0,.261l.017.038-.04.01a.257.257,0,0,0-.191.272.58.58,0,0,0,.071.3l.019.022-.019.023a.436.436,0,0,0-.1.3.534.534,0,0,0,.106.267l.016.018-.012.021a.4.4,0,0,0-.016.334.647.647,0,0,0,.16.238l.022.017-.012.025a.19.19,0,0,0,.008.176.324.324,0,0,0,.148.108l.032.01-.009.032a.221.221,0,0,0,.044.191.316.316,0,0,0,.218.08h.045l-.011.044a.239.239,0,0,0,.072.2c.09.1.243.027.245.026l.116-.056-.073.106c-.005.008-.052.085.05.165a.2.2,0,0,0,.233,0l.045-.032.009.054a.213.213,0,0,0,.184.149.22.22,0,0,0,.237-.087l.026-.043.031.04a.256.256,0,0,0,.218.1.19.19,0,0,0,.155-.125l.014-.051.041.033a.3.3,0,0,0,.237.056.244.244,0,0,0,.159-.159l.014-.048.04.03a.246.246,0,0,0,.227.037.264.264,0,0,0,.112-.21v-.04l.039.007a.315.315,0,0,0,.2-.041.122.122,0,0,0,.049-.147l-.009-.025.022-.015a.573.573,0,0,0,.192-.222.3.3,0,0,0,0-.193l-.009-.021.016-.016a.411.411,0,0,0,.087-.236.272.272,0,0,0-.121-.242l-.028-.018.017-.029a.487.487,0,0,0,.054-.353.258.258,0,0,0-.184-.183l-.029,0v-.029a.284.284,0,0,0-.114-.227.191.191,0,0,0-.183-.023l-.038.021-.012-.042s-.039-.12-.243-.135a.254.254,0,0,0-.268.122l-.01.023-.025,0s-.251-.023-.283.138a.5.5,0,0,0,.132.363l-.051.046a.565.565,0,0,1-.149-.422c.034-.166.222-.2.334-.194a.329.329,0,0,1,.324-.141.335.335,0,0,1,.289.15.28.28,0,0,1,.216.036,1.228,1.228,0,0,0,.358.481.525.525,0,0,1-.045.383.332.332,0,0,1,.127.287.506.506,0,0,1-.092.26.38.38,0,0,1-.006.22.588.588,0,0,1-.2.243.188.188,0,0,1-.084.2.376.376,0,0,1-.216.054.305.305,0,0,1-.146.233.285.285,0,0,1-.261-.02.3.3,0,0,1-.19.165.34.34,0,0,1-.262-.044.258.258,0,0,1-.192.132.256.256,0,0,1-.042,0" transform="translate(-490.433 -242.886)"/>
          <path id="Tracciato_9838" data-name="Tracciato 9838" d="M563.955,254.2l-.063-.028a.617.617,0,0,1,.227-.239.563.563,0,0,1,.284-.1,1.007,1.007,0,0,1,.25-.261.429.429,0,0,1,.286-.1.706.706,0,0,1,.149-.207.506.506,0,0,1,.247-.166.52.52,0,0,1,.016-.106.942.942,0,0,1,.174-.341c.211-.276.359-.3.365-.3l.012.067s-.131.029-.323.279a.873.873,0,0,0-.162.316.366.366,0,0,0-.013.115l0,.04-.04,0s-.092,0-.23.149-.139.2-.139.2l.005.053-.051-.021a.319.319,0,0,0-.259.086.9.9,0,0,0-.241.257l-.011.02-.022,0a.469.469,0,0,0-.264.086.554.554,0,0,0-.2.209" transform="translate(-544.596 -243.713)"/>
          <path id="Tracciato_9839" data-name="Tracciato 9839" d="M602.888,267.86l.082.265.061-.014.014-.128Z" transform="translate(-582.258 -258.694)"/>
          <path id="Tracciato_9840" data-name="Tracciato 9840" d="M602.039,266.807l-.1-.332.207.163-.017.149ZM602,266.57l.061.2.033-.008.012-.106Z" transform="translate(-581.338 -257.356)"/>
          <path id="Tracciato_9841" data-name="Tracciato 9841" d="M590.222,279.7l.08.226.091,0,.024-.064Z" transform="translate(-570.025 -270.13)"/>
          <path id="Tracciato_9842" data-name="Tracciato 9842" d="M589.366,278.446l-.115,0-.1-.3.253.212Zm-.091-.036h.068l.016-.041-.138-.116Z" transform="translate(-568.986 -268.63)"/>
          <path id="Tracciato_9843" data-name="Tracciato 9843" d="M574.867,289.193l.092.266.063,0,.04-.059Z" transform="translate(-555.195 -279.297)"/>
          <path id="Tracciato_9844" data-name="Tracciato 9844" d="M573.768,287.55l-.122-.352.258.269-.052.078Zm-.038-.216.062.18.041,0,.027-.041Z" transform="translate(-554.016 -277.37)"/>
          <path id="Tracciato_9845" data-name="Tracciato 9845" d="M560.18,296.969l.158.274.078-.073Z" transform="translate(-541.011 -286.807)"/>
          <path id="Tracciato_9846" data-name="Tracciato 9846" d="M558.521,295.1l-.218-.379.326.278Zm-.09-.224.1.17.048-.045Z" transform="translate(-539.198 -284.632)"/>
          <path id="Tracciato_9847" data-name="Tracciato 9847" d="M545.555,306.818l.168.279h.08l.039-.075Z" transform="translate(-526.886 -296.319)"/>
          <path id="Tracciato_9848" data-name="Tracciato 9848" d="M544.111,305.391l-.215-.357.366.259-.05.1Zm-.1-.235.121.2h.06l.027-.053Z" transform="translate(-525.284 -294.596)"/>
          <path id="Tracciato_9849" data-name="Tracciato 9849" d="M532.3,316.318l.155.242.068-.007.031-.06Z" transform="translate(-514.09 -305.494)"/>
          <path id="Tracciato_9850" data-name="Tracciato 9850" d="M530.762,314.827l-.206-.323.335.231-.042.082Zm-.086-.2.1.162.048-.005.02-.039Z" transform="translate(-512.401 -303.742)"/>
          <path id="Tracciato_9851" data-name="Tracciato 9851" d="M524.555,327.943l.139.115.032,0v-.081Z" transform="translate(-506.605 -316.721)"/>
          <path id="Tracciato_9852" data-name="Tracciato 9852" d="M522.98,327.287l-.194-.161.249.044v.111Zm-.073-.1.083.069H523V327.2Z" transform="translate(-504.897 -315.932)"/>
          <path id="Tracciato_9853" data-name="Tracciato 9853" d="M517.8,340.86h.175l.009.046-.032.03Z" transform="translate(-500.086 -329.196)"/>
          <path id="Tracciato_9854" data-name="Tracciato 9854" d="M515.909,340.474l-.228-.114h.262l.014.069Zm-.083-.079.076.038.016-.016,0-.023Z" transform="translate(-498.035 -328.713)"/>
          <path id="Tracciato_9855" data-name="Tracciato 9855" d="M513.972,358.527h.168l.006.031-.024.034Z" transform="translate(-496.384 -346.258)"/>
          <path id="Tracciato_9856" data-name="Tracciato 9856" d="M511.824,358.13l-.238-.1h.264l.01.052Zm-.074-.07.062.027.012-.017,0-.01Z" transform="translate(-494.08 -345.775)"/>
          <path id="Tracciato_9857" data-name="Tracciato 9857" d="M515,376.075l-.11.033.134.067.008-.057Z" transform="translate(-497.269 -363.206)"/>
          <path id="Tracciato_9858" data-name="Tracciato 9858" d="M513.719,375.642l-.194-.1.163-.048.044.058Zm-.1-.088.074.037,0-.026-.021-.027Z" transform="translate(-495.952 -362.648)"/>
          <path id="Tracciato_9859" data-name="Tracciato 9859" d="M519.138,391.028l-.083.083h.12l.008-.034Z" transform="translate(-501.293 -377.647)"/>
          <path id="Tracciato_9860" data-name="Tracciato 9860" d="M518.015,390.433h-.175l.126-.124.063.068Zm-.092-.034h.065l0-.012-.027-.029Z" transform="translate(-500.12 -376.953)"/>
          <path id="Tracciato_9861" data-name="Tracciato 9861" d="M109.577,139.554a.273.273,0,0,1-.148-.046c-.057-.046-.587-.667-.587-.667s.04-.143,0-.205a4.364,4.364,0,0,0-.308-.319.42.42,0,0,0,.279-.16.6.6,0,0,0,.108-.342l-.222.171a.962.962,0,0,0,.04-.217,1.106,1.106,0,0,0-.029-.205l-.177.24v-.371l-.154.177a.412.412,0,0,0-.023-.2.532.532,0,0,0-.074-.145.723.723,0,0,1-.086.4c-.1.14-.177.16-.177.16s-.3-.259-.319-.351a.621.621,0,0,1,.214-.536.869.869,0,0,1,.456-.125s-.135-.185-.533-.121a.479.479,0,0,0-.423.419l-.12-.175a.54.54,0,0,0-.06.12.869.869,0,0,0-.026.184l-.154-.265a.537.537,0,0,0-.064.145c0,.047,0,.15,0,.15l-.188-.244-.021.265a.426.426,0,0,0-.287-.269.876.876,0,0,0-.376-.06.97.97,0,0,1,.308.308.447.447,0,0,1,.056.261l-.214-.009.03.192-.227-.171.026.321a.445.445,0,0,0-.321-.18.47.47,0,0,0-.355.064s.372.064.419.188a.3.3,0,0,1-.047.278.358.358,0,0,0-.009.2.516.516,0,0,0-.868-.009,1,1,0,0,1,.577.051.4.4,0,0,1,.2.282l-.325-.043s.235.24.167.248-.556.039-.556.039a1.279,1.279,0,0,1,.321.128.4.4,0,0,1,.1.133s-.248-.064-.355.009-.094.145-.094.145a.591.591,0,0,1,.3-.038c.214.013.2.09.2.09a.707.707,0,0,0-.411.038.579.579,0,0,0-.235.235.8.8,0,0,1,.4-.073.825.825,0,0,1,.269.133s-.368.009-.475.15a.456.456,0,0,0-.107.248s.278-.389.56-.068.2.461.135.529-.262.063-.542,0a2.426,2.426,0,0,1-.593-.251.59.59,0,0,0,.114.228.439.439,0,0,0,.182.114h-.325a.6.6,0,0,0,.205.125.64.64,0,0,0,.148.029,2.084,2.084,0,0,1-.4.023c-.05-.023.355.137.355.137l-.262.08.376.1a.938.938,0,0,0-.274.086.238.238,0,0,0-.108.137.656.656,0,0,0,.268,0l.137-.023a1.352,1.352,0,0,0-.274.205c-.029.057.354,0,.354,0a1.943,1.943,0,0,0-.147.349,2.854,2.854,0,0,0,.381-.115s-.222.265-.188.291.287-.154.287-.154-.163.287-.124.325.261-.21.261-.21a2.761,2.761,0,0,0-.094.432,3.806,3.806,0,0,0,.411-.308,1.825,1.825,0,0,0-.12.411,2.034,2.034,0,0,0,.359-.244,1.778,1.778,0,0,0-.068.334,3.51,3.51,0,0,0,.312-.3,1.044,1.044,0,0,1-.077.272,1.427,1.427,0,0,1-.15.184.594.594,0,0,0,.329-.128.582.582,0,0,0,.115-.21.429.429,0,0,1-.051.252c-.068.1-.124.163-.124.163a1.119,1.119,0,0,0,.317-.188.605.605,0,0,0,.086-.171.463.463,0,0,1-.017.218,1,1,0,0,1-.128.175.349.349,0,0,0,.278-.111.958.958,0,0,0,.178-.227s-.024,0-.028.21.051.218.051.218a1.384,1.384,0,0,0,.163-.218.266.266,0,0,0,.047-.167,1.029,1.029,0,0,0,.038.265.648.648,0,0,0,.158.282,1.289,1.289,0,0,1,.03-.453c.06-.128.111-.282.086-.329s.06-.047.222.077a.483.483,0,0,1,.188.227.468.468,0,0,1,.308.086.4.4,0,0,1,.171.2.317.317,0,0,1,.24.107c.086.111.077.167.077.167a.216.216,0,0,1,.188.133.331.331,0,0,1,.03.244.463.463,0,0,1,.154.269,1.065,1.065,0,0,1-.013.321.563.563,0,0,1,.115.321.485.485,0,0,1-.115.291.771.771,0,0,1,0,.308.424.424,0,0,1-.124.21.32.32,0,0,1,0,.214.293.293,0,0,1-.094.1.382.382,0,0,1-.073.21.933.933,0,0,1-.141.128s.03.073-.1.184a.4.4,0,0,1-.274.1.315.315,0,0,1-.12.167.349.349,0,0,1-.192.06.246.246,0,0,1-.2.077.484.484,0,0,1-.227-.047.588.588,0,0,1-.248.047c-.141,0-.184-.068-.184-.068a.437.437,0,0,1-.261.026.239.239,0,0,1-.184-.163.365.365,0,0,1-.257-.047.218.218,0,0,1-.1-.154.229.229,0,0,1-.205-.047.186.186,0,0,1-.068-.171.33.33,0,0,1-.188-.2.338.338,0,0,1-.026-.257s-.064-.038-.064-.21a.213.213,0,0,1,.115-.214.463.463,0,0,1-.043-.351.333.333,0,0,1,.192-.24.259.259,0,0,1,.09-.205.3.3,0,0,1,.2-.068.378.378,0,0,1,.278-.111.35.35,0,0,1,.235.137s.235-.013.248.141a.391.391,0,0,1-.083.265.159.159,0,0,0,.19.073c.133-.038.227-.4.077-.607a.4.4,0,0,0-.338-.188.82.82,0,0,0-.376-.1c-.21,0-.269.1-.269.1s-.1-.047-.3.111-.184.291-.184.291-.1.034-.222.265a.334.334,0,0,0-.013.368.432.432,0,0,0-.086.282.359.359,0,0,0,.107.252.377.377,0,0,0-.017.3.48.48,0,0,0,.2.257.339.339,0,0,0,.163.282,1.148,1.148,0,0,0,.3.145s.038.15.287.252a.528.528,0,0,0,.4.034.371.371,0,0,0,.248.154.615.615,0,0,0,.287-.051.411.411,0,0,0,.355.077.5.5,0,0,0,.3-.163.481.481,0,0,0,.317-.039.37.37,0,0,0,.192-.21,1.087,1.087,0,0,0,.344-.145.689.689,0,0,0,.171-.3.408.408,0,0,0,.359-.234c.114-.24.08-.342.08-.342a.521.521,0,0,0,.24-.388c.068-.314,0-.336,0-.336a.883.883,0,0,0,.182-.428.381.381,0,0,0-.114-.3.7.7,0,0,0,.114-.388.328.328,0,0,0-.131-.274.316.316,0,0,0,.132-.336c-.041-.24-.183-.234-.183-.234a.618.618,0,0,0,.19-.4.358.358,0,0,0-.144-.308.473.473,0,0,0-.137-.451.819.819,0,0,0-.2-.167.077.077,0,0,1-.039-.09.324.324,0,0,0-.069-.3c-.16-.211-.319-.171-.319-.171a.293.293,0,0,0-.04-.314.421.421,0,0,0-.3-.154.275.275,0,0,0-.029-.291.21.21,0,0,0-.285-.051.264.264,0,0,0-.16-.291.489.489,0,0,0-.416.011s-.011-.171-.314-.165a.815.815,0,0,1-.924-.559c-.188-.553-.3-.8.014-.982a1.328,1.328,0,0,0,.441-.394,3.875,3.875,0,0,1-.406.483.527.527,0,0,0,.12.732c.235.124.723.06.774.163s.475-.094.881.18.817.513.817.513l.227-.043a.454.454,0,0,1,0-.163.354.354,0,0,1,.11-.153" transform="translate(-100.804 -131.997)" fill="#bec6c4"/>
          <path id="Tracciato_9862" data-name="Tracciato 9862" d="M106.956,146.344a.428.428,0,0,1-.259-.084.637.637,0,0,1-.285.047.384.384,0,0,1-.255-.149.591.591,0,0,1-.4-.041.5.5,0,0,1-.3-.255,1.229,1.229,0,0,1-.3-.145.366.366,0,0,1-.174-.289.51.51,0,0,1-.2-.263.414.414,0,0,1,.01-.307.4.4,0,0,1-.1-.256.464.464,0,0,1,.08-.284.374.374,0,0,1,.022-.379.66.66,0,0,1,.219-.269.409.409,0,0,1,.194-.3c.166-.128.268-.129.31-.12a.354.354,0,0,1,.279-.1.844.844,0,0,1,.383.1.434.434,0,0,1,.353.2.545.545,0,0,1,.05.473.253.253,0,0,1-.14.175.184.184,0,0,1-.22-.086L106.22,144l.011-.013a.369.369,0,0,0,.077-.246c-.011-.127-.219-.118-.221-.118h-.014l-.008-.012a.327.327,0,0,0-.217-.126.356.356,0,0,0-.257.1l-.008.009h-.012a.283.283,0,0,0-.179.063.235.235,0,0,0-.08.183v.02l-.019.006a.308.308,0,0,0-.175.222.441.441,0,0,0,.04.33l.017.027-.03.011a.188.188,0,0,0-.1.19c0,.15.052.188.052.188l.018.012-.009.02a.324.324,0,0,0,.026.236.3.3,0,0,0,.172.186l.023.007-.005.024a.16.16,0,0,0,.061.146.2.2,0,0,0,.181.042l.033-.01v.034a.2.2,0,0,0,.089.134.341.341,0,0,0,.236.042l.024,0,.006.023a.212.212,0,0,0,.164.144.417.417,0,0,0,.244-.024l.02-.01.013.019a.209.209,0,0,0,.163.057.565.565,0,0,0,.236-.045l.012-.006.012.007a.468.468,0,0,0,.214.044.222.222,0,0,0,.18-.067l.008-.011h.014a.327.327,0,0,0,.177-.055.292.292,0,0,0,.109-.152l.005-.021.022,0a.383.383,0,0,0,.255-.092c.113-.1.1-.155.1-.155l-.006-.018.015-.012a.918.918,0,0,0,.137-.124.359.359,0,0,0,.066-.193V145l.013-.007a.277.277,0,0,0,.084-.093.287.287,0,0,0,0-.193l-.005-.017.014-.011a.4.4,0,0,0,.115-.2.75.75,0,0,0,0-.3l0-.013.009-.01a.463.463,0,0,0,.109-.274.539.539,0,0,0-.11-.3l-.008-.01,0-.012a1.048,1.048,0,0,0,.012-.312A.438.438,0,0,0,108.2,143l-.014-.011.006-.017a.3.3,0,0,0-.029-.224.191.191,0,0,0-.164-.118h-.031l0-.03s0-.05-.072-.147a.293.293,0,0,0-.219-.1h-.021l0-.02a.393.393,0,0,0-.161-.182.443.443,0,0,0-.29-.081l-.023,0-.006-.022a.474.474,0,0,0-.179-.213.484.484,0,0,0-.18-.1c.028.081-.06.281-.089.343a1.274,1.274,0,0,0-.028.44l.006.069-.05-.048a.668.668,0,0,1-.165-.295c-.011-.044-.019-.084-.025-.118l-.013.026a1.4,1.4,0,0,1-.166.223l-.01.011-.015,0c-.018,0-.076-.034-.071-.244,0-.034,0-.062,0-.087a1.351,1.351,0,0,1-.109.123.373.373,0,0,1-.3.118l-.048-.007.033-.036a.979.979,0,0,0,.124-.17.242.242,0,0,0,.02-.092.571.571,0,0,1-.044.071,1.079,1.079,0,0,1-.327.2l-.1.042.071-.082s.056-.064.122-.16a.269.269,0,0,0,.04-.1.664.664,0,0,1-.064.09.609.609,0,0,1-.347.137l-.068.006.047-.049a1.41,1.41,0,0,0,.146-.18.675.675,0,0,0,.058-.179c-.244.254-.262.25-.276.247l-.011,0-.008-.011c-.006-.009-.018-.029.047-.278-.286.222-.313.207-.327.2s-.044-.025.075-.353c-.332.271-.35.26-.366.25s-.035-.021.056-.362c-.065.067-.152.146-.2.147a.043.043,0,0,1-.031-.012c-.029-.029-.006-.117.069-.262-.188.124-.217.1-.229.093a.035.035,0,0,1-.014-.024c0-.04.07-.145.139-.232-.288.1-.305.089-.316.083s-.04-.024.115-.339c-.2.027-.307.025-.329-.006a.035.035,0,0,1,0-.038.668.668,0,0,1,.176-.148l-.012,0a.678.678,0,0,1-.28,0l-.023-.007,0-.023a.263.263,0,0,1,.12-.153.659.659,0,0,1,.175-.066l-.359-.092.279-.085-.273-.106-.014,0a.026.026,0,0,1-.017-.036c.005-.012.008-.018.036-.011h0a.924.924,0,0,0,.226-.006.638.638,0,0,1-.2-.128l-.047-.044h.275a.436.436,0,0,1-.086-.071.61.61,0,0,1-.12-.24l-.014-.059.052.031a2.417,2.417,0,0,0,.586.248c.392.088.493.035.517.008.042-.046.153-.167-.136-.495a.29.29,0,0,0-.232-.118.459.459,0,0,0-.289.184l-.047.065v-.08a.479.479,0,0,1,.112-.264.656.656,0,0,1,.419-.155.759.759,0,0,0-.2-.087.776.776,0,0,0-.381.071l-.063.028.029-.063a.6.6,0,0,1,.246-.247.657.657,0,0,1,.365-.051.382.382,0,0,0-.144-.029.585.585,0,0,0-.29.035l-.031.017-.006-.035s-.014-.09.1-.171a.493.493,0,0,1,.32-.024.372.372,0,0,0-.066-.076,1.194,1.194,0,0,0-.311-.123l-.151-.041.156-.01s.44-.027.541-.037a1.121,1.121,0,0,0-.169-.206l-.052-.053.364.048a.4.4,0,0,0-.184-.231.983.983,0,0,0-.559-.048l-.059.011.032-.05a.573.573,0,0,1,.346-.234.553.553,0,0,1,.507.172.274.274,0,0,1,.022-.128l.014-.028a.248.248,0,0,0,.032-.23c-.03-.08-.261-.148-.4-.172l-.055-.01.043-.036a.492.492,0,0,1,.375-.07.52.52,0,0,1,.285.129l-.024-.3.222.167-.025-.161.221.009a.494.494,0,0,0-.056-.223.948.948,0,0,0-.3-.3l-.058-.037.068-.011a.9.9,0,0,1,.389.061.484.484,0,0,1,.261.2l.019-.235.181.234c0-.027,0-.055,0-.074a.531.531,0,0,1,.068-.156l.022-.037.134.231a.458.458,0,0,1,.084-.234l.021-.031.106.155a.5.5,0,0,1,.433-.379c.409-.066.552.123.558.131l.031.043-.053,0a.849.849,0,0,0-.441.121.6.6,0,0,0-.2.51,1.32,1.32,0,0,0,.3.326.464.464,0,0,0,.151-.145.7.7,0,0,0,.081-.379l-.005-.077.05.058a.553.553,0,0,1,.079.153.444.444,0,0,1,.028.136l.151-.173V137l.163-.221.013.054a1.118,1.118,0,0,1,.029.211.724.724,0,0,1-.022.15l.2-.156v.05a.617.617,0,0,1-.114.359.446.446,0,0,1-.246.16,3.352,3.352,0,0,1,.276.289.324.324,0,0,1,.007.213c.153.179.531.618.575.654a.248.248,0,0,0,.132.04h.072l-.055.045a.331.331,0,0,0-.1.138.432.432,0,0,0,0,.152l.005.025-.262.049-.008,0s-.416-.243-.818-.514a1.035,1.035,0,0,0-.672-.145c-.115.006-.191.009-.218-.044-.019-.037-.162-.049-.289-.059a1.317,1.317,0,0,1-.474-.093.5.5,0,0,1-.228-.389.449.449,0,0,1,.1-.384,1.7,1.7,0,0,0,.134-.139c-.041.03-.087.061-.138.091-.274.162-.205.363-.038.85l.035.1a.787.787,0,0,0,.9.542c.241,0,.311.1.332.155a.5.5,0,0,1,.41,0,.293.293,0,0,1,.178.271.221.221,0,0,1,.277.08.308.308,0,0,1,.045.283.448.448,0,0,1,.284.16.314.314,0,0,1,.059.3.4.4,0,0,1,.3.184.349.349,0,0,1,.074.319.051.051,0,0,0,.026.06.866.866,0,0,1,.206.172.5.5,0,0,1,.148.458.394.394,0,0,1,.14.318.606.606,0,0,1-.165.384c.052.02.129.077.158.245a.35.35,0,0,1-.115.341.383.383,0,0,1,.114.272.712.712,0,0,1-.107.385.421.421,0,0,1,.107.307.862.862,0,0,1-.174.425c.023.036.039.125-.009.344a.583.583,0,0,1-.236.4.65.65,0,0,1-.085.34.429.429,0,0,1-.363.248.67.67,0,0,1-.174.3,1.05,1.05,0,0,1-.34.147.408.408,0,0,1-.2.211.506.506,0,0,1-.318.044.56.56,0,0,1-.308.159.508.508,0,0,1-.105.011m-.25-.144.013.012a.383.383,0,0,0,.332.071.485.485,0,0,0,.288-.152l.01-.014.017,0a.46.46,0,0,0,.3-.037.35.35,0,0,0,.179-.193l0-.015.015,0a1.068,1.068,0,0,0,.333-.141.667.667,0,0,0,.162-.289l.005-.019h.02a.379.379,0,0,0,.336-.219.524.524,0,0,0,.079-.323l-.007-.022.021-.009a.507.507,0,0,0,.225-.37c.054-.247.02-.3.014-.308l-.031-.01.023-.029a.862.862,0,0,0,.177-.412.355.355,0,0,0-.1-.282l-.018-.015.013-.019a.682.682,0,0,0,.11-.372.3.3,0,0,0-.119-.253l-.039-.023.039-.022a.289.289,0,0,0,.119-.31c-.036-.212-.153-.213-.157-.212H109l.049-.046a.6.6,0,0,0,.182-.38.331.331,0,0,0-.132-.286l-.017-.011.006-.019a.445.445,0,0,0-.131-.425.8.8,0,0,0-.193-.162.1.1,0,0,1-.052-.12.3.3,0,0,0-.065-.274c-.146-.193-.287-.163-.293-.162l-.055.013.027-.05a.265.265,0,0,0-.037-.285.4.4,0,0,0-.282-.145h-.046l.024-.039a.249.249,0,0,0-.028-.263.183.183,0,0,0-.251-.044l-.053.032.015-.06a.238.238,0,0,0-.146-.262.467.467,0,0,0-.393.011l-.035.019,0-.04c0-.006-.016-.147-.288-.141a.844.844,0,0,1-.949-.576l-.035-.1c-.166-.485-.25-.728.06-.911a1.444,1.444,0,0,0,.39-.328l.043-.058.043.028a.685.685,0,0,1-.049.067,3.356,3.356,0,0,1-.362.422.4.4,0,0,0-.086.34.453.453,0,0,0,.2.35,1.288,1.288,0,0,0,.454.087c.174.014.3.023.331.087.012.023.088.02.169.016a1.079,1.079,0,0,1,.7.154c.37.249.747.472.807.508l.193-.036a.453.453,0,0,1,0-.147.3.3,0,0,1,.077-.128.247.247,0,0,1-.107-.045c-.057-.046-.536-.607-.591-.671l-.009-.01,0-.013a.3.3,0,0,0,0-.185,4.04,4.04,0,0,0-.3-.315l-.042-.04.058,0a.4.4,0,0,0,.261-.15.546.546,0,0,0,.1-.272l-.242.186.023-.077a.94.94,0,0,0,.039-.209.862.862,0,0,0-.016-.144l-.189.256v-.38l-.17.195.016-.091a.39.39,0,0,0-.022-.186c-.009-.023-.017-.042-.025-.059a.614.614,0,0,1-.09.316c-.1.143-.182.167-.191.169l-.013,0-.01-.009c-.032-.027-.31-.268-.328-.365a.647.647,0,0,1,.225-.562.853.853,0,0,1,.406-.128.609.609,0,0,0-.465-.072.45.45,0,0,0-.4.4l-.006.073-.139-.2a.476.476,0,0,0-.037.081.848.848,0,0,0-.024.177l0,.089-.176-.3a.345.345,0,0,0-.039.1c0,.045,0,.145,0,.146l0,.081-.2-.255-.029.355-.038-.152a.4.4,0,0,0-.27-.251,1.085,1.085,0,0,0-.289-.06.845.845,0,0,1,.252.273.469.469,0,0,1,.057.277l0,.021-.2-.008.035.224-.232-.175.03.375-.057-.1a.418.418,0,0,0-.3-.167.521.521,0,0,0-.278.027c.115.026.33.087.369.19a.3.3,0,0,1-.034.272l-.014.027a.325.325,0,0,0-.007.184l.036.147-.082-.127a.515.515,0,0,0-.513-.22.5.5,0,0,0-.273.162.9.9,0,0,1,.531.065.419.419,0,0,1,.213.3l0,.031-.283-.037c.1.108.145.18.134.214a.038.038,0,0,1-.033.025c-.045.006-.267.02-.417.03a.694.694,0,0,1,.2.092.424.424,0,0,1,.105.142l.02.047-.05-.013a.538.538,0,0,0-.334,0,.2.2,0,0,0-.076.084.777.777,0,0,1,.273-.024.291.291,0,0,1,.208.069.066.066,0,0,1,.016.051l0,.026-.026-.005a.686.686,0,0,0-.393.036.566.566,0,0,0-.184.16.666.666,0,0,1,.341-.045.843.843,0,0,1,.279.137l.056.044-.071,0s-.357.01-.455.14a.567.567,0,0,0-.08.14.424.424,0,0,1,.259-.128.338.338,0,0,1,.273.135c.215.244.259.428.135.563-.068.074-.258.077-.566.008a2.281,2.281,0,0,1-.543-.221.48.48,0,0,0,.089.156.417.417,0,0,0,.171.107l.179.05h-.439a.463.463,0,0,0,.141.075.64.64,0,0,0,.142.028l0,.051c-.048.006-.159.02-.255.026l.036.014.179.07.068.027-.245.075.408.105-.123.019a.92.92,0,0,0-.264.082.229.229,0,0,0-.088.1.732.732,0,0,0,.23-.006c.065-.011.1-.017.128-.02l0,0h0v0c.028,0,.029,0,.032.018l0,.025-.023,0a1.6,1.6,0,0,0-.25.178,1.58,1.58,0,0,0,.316-.023l.049-.007-.022.044c-.06.119-.121.253-.14.309.06-.014.209-.063.342-.111l.089-.032-.061.072a1.712,1.712,0,0,0-.179.247,1.52,1.52,0,0,0,.243-.147l.094-.067-.057.1a1.123,1.123,0,0,0-.127.289,1.1,1.1,0,0,0,.222-.2l.073-.081-.029.105c-.041.149-.082.313-.093.384.067-.044.226-.169.368-.287l.075-.062-.034.091a3.01,3.01,0,0,0-.12.368,3.206,3.206,0,0,0,.32-.23l.061-.049-.021.075c-.028.1-.055.214-.066.275.056-.051.167-.163.266-.268l.056-.059-.012.081a1.047,1.047,0,0,1-.08.282,1.088,1.088,0,0,1-.1.134.449.449,0,0,0,.242-.109.564.564,0,0,0,.11-.2l.035-.137.016.14a.451.451,0,0,1-.056.27c-.021.03-.041.057-.058.08a.7.7,0,0,0,.209-.136.583.583,0,0,0,.082-.163l.032-.113.018.116a.482.482,0,0,1-.02.233.82.82,0,0,1-.095.138.344.344,0,0,0,.2-.1,1.075,1.075,0,0,0,.163-.2c.01-.03.021-.032.029-.033l.049-.009-.022.045-.009.017a.8.8,0,0,0-.017.182.38.38,0,0,0,.024.18,1.284,1.284,0,0,0,.141-.193.326.326,0,0,0,.044-.125c0-.019,0-.03,0-.031l.009-.2.042.195a.133.133,0,0,1,0,.037,1.21,1.21,0,0,0,.037.228.616.616,0,0,0,.1.213,1.025,1.025,0,0,1,.037-.388.607.607,0,0,0,.086-.306.042.042,0,0,1,.006-.056c.054-.046.209.065.255.1a.576.576,0,0,1,.19.22.5.5,0,0,1,.305.092.489.489,0,0,1,.174.192.332.332,0,0,1,.242.117.372.372,0,0,1,.081.159.248.248,0,0,1,.187.145.37.37,0,0,1,.036.247.48.48,0,0,1,.15.275,1.081,1.081,0,0,1-.011.318.576.576,0,0,1,.114.328.508.508,0,0,1-.114.3.777.777,0,0,1-.007.307.468.468,0,0,1-.12.211.317.317,0,0,1-.011.219.355.355,0,0,1-.091.1.39.39,0,0,1-.078.212.974.974,0,0,1-.132.122c0,.033-.008.1-.114.193a.439.439,0,0,1-.272.1.34.34,0,0,1-.124.162.379.379,0,0,1-.2.064.286.286,0,0,1-.213.077.543.543,0,0,1-.227-.044.625.625,0,0,1-.248.044.283.283,0,0,1-.19-.063.474.474,0,0,1-.259.02.263.263,0,0,1-.2-.159.367.367,0,0,1-.255-.055.276.276,0,0,1-.1-.144.247.247,0,0,1-.2-.058.219.219,0,0,1-.079-.173.375.375,0,0,1-.184-.208.4.4,0,0,1-.032-.259.31.31,0,0,1-.06-.217.25.25,0,0,1,.106-.224.489.489,0,0,1-.033-.347.374.374,0,0,1,.191-.25.277.277,0,0,1,.1-.208.337.337,0,0,1,.2-.074.393.393,0,0,1,.291-.111.374.374,0,0,1,.245.136c.055,0,.248.01.261.165a.414.414,0,0,1-.077.269.132.132,0,0,0,.151.047.214.214,0,0,0,.106-.142.491.491,0,0,0-.043-.426.377.377,0,0,0-.315-.178h-.008l-.007,0a.8.8,0,0,0-.363-.095c-.19,0-.245.087-.247.09l-.012.02-.021-.01s-.09-.035-.277.108-.174.266-.174.267l0,.021-.02.007s-.092.037-.208.253a.309.309,0,0,0-.015.34l.013.016-.013.016a.411.411,0,0,0-.08.264.332.332,0,0,0,.1.234l.017.014-.012.019a.35.35,0,0,0-.015.282.455.455,0,0,0,.189.242l.014.008v.016a.311.311,0,0,0,.151.26,1.14,1.14,0,0,0,.3.142l.015,0,0,.015s.04.139.272.235a.513.513,0,0,0,.377.035l.02-.009.012.018a.347.347,0,0,0,.229.143.6.6,0,0,0,.273-.049Z" transform="translate(-100.078 -131.27)"/>
          <path id="Tracciato_9863" data-name="Tracciato 9863" d="M194.8,188.86s-.351.165-.185.308.205.185.291.168l.086-.017-.151.151s.009-.046-.123-.131-.271-.105-.228-.277.311-.2.311-.2" transform="translate(-187.825 -182.397)"/>
          <path id="Tracciato_9864" data-name="Tracciato 9864" d="M204.044,183.433s.026-.023.12-.023a.422.422,0,0,1,.095.011.266.266,0,1,1-.036.066l-.026-.014a.57.57,0,0,0-.153-.04" transform="translate(-197.062 -177.04)"/>
          <path id="Tracciato_9865" data-name="Tracciato 9865" d="M218.239,209.587a.558.558,0,0,0-.3-.342,5.229,5.229,0,0,0-.744-.355c-.117-.032.62.351.766.479a1.1,1.1,0,0,1,.227.287l.056-.01Z" transform="translate(-209.747 -201.74)"/>
          <path id="Tracciato_9866" data-name="Tracciato 9866" d="M210.629,185.148a.21.21,0,1,0,.21-.21.21.21,0,0,0-.21.21" transform="translate(-203.421 -178.61)" fill="#fff"/>
          <path id="Tracciato_9867" data-name="Tracciato 9867" d="M214.04,188.442a.093.093,0,1,0,.093-.093.093.093,0,0,0-.093.093" transform="translate(-206.716 -181.904)"/>
          <path id="Tracciato_9868" data-name="Tracciato 9868" d="M142.029,257.73a.254.254,0,0,1-.042,0,.259.259,0,0,1-.192-.132.34.34,0,0,1-.262.044.3.3,0,0,1-.19-.165.285.285,0,0,1-.261.02.305.305,0,0,1-.146-.233.376.376,0,0,1-.216-.054.188.188,0,0,1-.084-.2.589.589,0,0,1-.2-.243.379.379,0,0,1-.006-.22.506.506,0,0,1-.092-.261.332.332,0,0,1,.127-.287.525.525,0,0,1-.045-.383,1.229,1.229,0,0,0,.358-.481.28.28,0,0,1,.216-.036.335.335,0,0,1,.289-.15.329.329,0,0,1,.324.141c.112-.005.3.029.334.194a.565.565,0,0,1-.149.422l-.051-.046a.506.506,0,0,0,.132-.363c-.033-.161-.281-.138-.283-.138l-.025,0-.01-.023a.255.255,0,0,0-.268-.122c-.2.015-.242.13-.243.135l-.013.042-.038-.022a.191.191,0,0,0-.182.023.285.285,0,0,0-.114.227v.029l-.029,0a.258.258,0,0,0-.184.183.487.487,0,0,0,.054.353l.017.029-.028.018a.272.272,0,0,0-.121.241.412.412,0,0,0,.087.236l.016.016-.009.021a.3.3,0,0,0,0,.193.57.57,0,0,0,.192.222l.022.015-.01.025a.122.122,0,0,0,.049.147.315.315,0,0,0,.2.041l.039-.007v.04s.007.157.112.21a.245.245,0,0,0,.227-.037l.04-.03.013.048a.244.244,0,0,0,.159.159.294.294,0,0,0,.237-.056l.041-.033.014.051a.189.189,0,0,0,.155.125.254.254,0,0,0,.218-.1l.031-.04.026.043a.219.219,0,0,0,.237.087.213.213,0,0,0,.184-.149l.01-.053.044.031a.2.2,0,0,0,.233,0c.1-.082.052-.161.05-.165l-.073-.106.116.056c.006,0,.155.073.245-.026a.239.239,0,0,0,.072-.2l-.01-.043h.044a.315.315,0,0,0,.218-.08.223.223,0,0,0,.044-.191l-.009-.032.032-.009a.324.324,0,0,0,.148-.108.188.188,0,0,0,.008-.176l-.012-.026.023-.017a.647.647,0,0,0,.16-.237.4.4,0,0,0-.016-.334l-.012-.021.016-.018a.534.534,0,0,0,.106-.267.433.433,0,0,0-.1-.3l-.02-.023.021-.023a.584.584,0,0,0,.071-.3.255.255,0,0,0-.191-.272l-.041-.01.018-.038a.4.4,0,0,0,0-.261.192.192,0,0,0-.173-.152h-.1l.077-.06a.2.2,0,0,0,.046-.234.226.226,0,0,0-.242-.121l-.061.01.025-.057a.242.242,0,0,0-.074-.286.332.332,0,0,0-.3-.057l-.052.021.005-.056a.353.353,0,0,0-.127-.3.6.6,0,0,0-.375-.063l-.042.007,0-.042c0-.01.007-.239-.195-.279s-.27.05-.273.054l-.083.12.021-.144a.227.227,0,0,0-.139-.237.556.556,0,0,0-.347-.022l-.066.021.023-.065a.218.218,0,0,0-.087-.23.384.384,0,0,0-.3-.084l-.091.018.058-.073a.225.225,0,0,0,.036-.214c-.121-.242-.413-.137-.425-.132l-.024-.064a.4.4,0,0,1,.51.166.256.256,0,0,1-.008.228.446.446,0,0,1,.284.1.3.3,0,0,1,.117.25.618.618,0,0,1,.342.036.29.29,0,0,1,.18.233.4.4,0,0,1,.281-.03.32.32,0,0,1,.249.309.631.631,0,0,1,.385.078.39.39,0,0,1,.159.32.407.407,0,0,1,.322.079.3.3,0,0,1,.113.317.273.273,0,0,1,.264.168.278.278,0,0,1-.023.264.27.27,0,0,1,.172.19.51.51,0,0,1,.01.274.32.32,0,0,1,.208.331.76.76,0,0,1-.072.315.487.487,0,0,1,.1.337.62.62,0,0,1-.108.285.455.455,0,0,1,.008.375.8.8,0,0,1-.162.247.242.242,0,0,1-.025.222.392.392,0,0,1-.154.121.284.284,0,0,1-.064.223.352.352,0,0,1-.233.1.326.326,0,0,1-.092.224.253.253,0,0,1-.256.066.2.2,0,0,1-.09.184.259.259,0,0,1-.276.023.324.324,0,0,1-.506.077.315.315,0,0,1-.212.094" transform="translate(-135.535 -242.885)"/>
          <path id="Tracciato_9869" data-name="Tracciato 9869" d="M140.423,254.2a.562.562,0,0,0-.2-.209.471.471,0,0,0-.264-.086l-.022,0-.011-.02a.907.907,0,0,0-.241-.257.319.319,0,0,0-.26-.086l-.05.016,0-.052h0s-.009-.056-.139-.2-.229-.149-.23-.149l-.041,0,0-.04a.37.37,0,0,0-.013-.115.874.874,0,0,0-.162-.316c-.192-.25-.322-.279-.323-.279l.012-.067c.006,0,.154.029.365.3a.942.942,0,0,1,.174.341.523.523,0,0,1,.016.106.507.507,0,0,1,.247.166.705.705,0,0,1,.149.207.43.43,0,0,1,.286.1,1.008,1.008,0,0,1,.25.261.563.563,0,0,1,.284.1.617.617,0,0,1,.227.239Z" transform="translate(-133.737 -243.713)"/>
          <path id="Tracciato_9870" data-name="Tracciato 9870" d="M153.784,267.86l-.082.265-.061-.014-.014-.128Z" transform="translate(-148.37 -258.694)"/>
          <path id="Tracciato_9871" data-name="Tracciato 9871" d="M165.357,279.7l-.08.226-.092,0-.024-.064Z" transform="translate(-159.51 -270.13)"/>
          <path id="Tracciato_9872" data-name="Tracciato 9872" d="M180.746,289.193l-.092.266-.063,0-.04-.059Z" transform="translate(-174.373 -279.297)"/>
          <path id="Tracciato_9873" data-name="Tracciato 9873" d="M194.243,296.969l-.158.274-.078-.073Z" transform="translate(-187.368 -286.807)"/>
          <path id="Tracciato_9874" data-name="Tracciato 9874" d="M207.445,306.818l-.168.279h-.08l-.039-.075Z" transform="translate(-200.07 -296.319)"/>
          <path id="Tracciato_9875" data-name="Tracciato 9875" d="M221.643,316.318l-.155.242-.068-.007-.031-.06Z" transform="translate(-213.814 -305.494)"/>
          <path id="Tracciato_9876" data-name="Tracciato 9876" d="M231.715,327.943l-.139.115-.032,0v-.081Z" transform="translate(-223.62 -316.721)"/>
          <path id="Tracciato_9877" data-name="Tracciato 9877" d="M238.1,340.86h-.175l-.009.046.032.03Z" transform="translate(-229.777 -329.196)"/>
          <path id="Tracciato_9878" data-name="Tracciato 9878" d="M242.218,358.527h-.168l-.006.031.024.034Z" transform="translate(-233.761 -346.258)"/>
          <path id="Tracciato_9879" data-name="Tracciato 9879" d="M242.076,376.075l.11.033-.134.067-.008-.057Z" transform="translate(-233.761 -363.206)"/>
          <path id="Tracciato_9880" data-name="Tracciato 9880" d="M238.338,391.028l.083.083h-.12l-.009-.034Z" transform="translate(-230.139 -377.647)"/>
          <path id="Tracciato_9881" data-name="Tracciato 9881" d="M451.6,424.021a7.669,7.669,0,0,0-2.584-1.078l-.222.722s.672.2,1.271.438a7.318,7.318,0,0,1,1.1.6Z" transform="translate(-433.437 -408.47)" fill="#fff"/>
          <path id="Tracciato_9882" data-name="Tracciato 9882" d="M449.961,423.673l-.029-.019a7.34,7.34,0,0,0-1.092-.593c-.59-.24-1.261-.435-1.268-.437l-.033-.01.241-.783.029,0a6.649,6.649,0,0,1,1.428.456,6.578,6.578,0,0,1,1.17.628l.026.019Zm-2.337-1.105c.143.043.723.219,1.241.43a7.272,7.272,0,0,1,1.075.58l.4-.622a6.709,6.709,0,0,0-1.13-.6,6.965,6.965,0,0,0-1.383-.446Z" transform="translate(-432.223 -407.396)"/>
          <path id="Tracciato_9883" data-name="Tracciato 9883" d="M230.3,424.021a7.668,7.668,0,0,1,2.584-1.078l.222.722s-.672.2-1.271.438a7.319,7.319,0,0,0-1.1.6Z" transform="translate(-222.424 -408.47)" fill="#fff"/>
          <path id="Tracciato_9884" data-name="Tracciato 9884" d="M229.424,423.673l-.473-.735.026-.019a6.58,6.58,0,0,1,1.17-.628,6.648,6.648,0,0,1,1.428-.456l.029,0,.241.783-.033.01c-.007,0-.677.2-1.268.437a7.343,7.343,0,0,0-1.092.593Zm-.38-.717.4.622a7.272,7.272,0,0,1,1.075-.58c.518-.21,1.1-.387,1.241-.43l-.2-.66a6.978,6.978,0,0,0-1.383.446,6.708,6.708,0,0,0-1.13.6" transform="translate(-221.116 -407.396)"/>
          <path id="Tracciato_9885" data-name="Tracciato 9885" d="M291.555,425.736a7.7,7.7,0,0,1,3.027-.582,6.648,6.648,0,0,1,3.056.582l-.3.71a8.128,8.128,0,0,0-2.742-.419,7.791,7.791,0,0,0-2.708.419Z" transform="translate(-281.578 -410.604)" fill="#fff"/>
          <path id="Tracciato_9886" data-name="Tracciato 9886" d="M296.079,425.527l-.031-.012a8.182,8.182,0,0,0-2.729-.417,7.843,7.843,0,0,0-2.695.417l-.03.012-.362-.77.03-.015a7.813,7.813,0,0,1,3.041-.585,6.76,6.76,0,0,1,3.073.586l.027.015Zm-5.756-.738.305.65a8.112,8.112,0,0,1,2.69-.41,8.447,8.447,0,0,1,2.723.41l.274-.651a6.838,6.838,0,0,0-3.012-.564,7.941,7.941,0,0,0-2.982.564" transform="translate(-280.3 -409.641)"/>
          <path id="Tracciato_9887" data-name="Tracciato 9887" d="M290.508,423.5c-.016-.03-.021-.125.283-.364a.533.533,0,0,0,.2-.315l.068.009a.592.592,0,0,1-.227.361c-.266.209-.262.284-.262.284a.019.019,0,0,0,0-.007Z" transform="translate(-280.561 -408.348)"/>
          <path id="Tracciato_9888" data-name="Tracciato 9888" d="M454.853,423.5l-.06-.032a.021.021,0,0,0,0,.007s0-.076-.262-.284a.592.592,0,0,1-.227-.361l.068-.009a.534.534,0,0,0,.2.315c.3.239.3.334.283.364" transform="translate(-438.755 -408.348)"/>
          <path id="Tracciato_9889" data-name="Tracciato 9889" d="M303.215,440.074l-.136.029-.225-.209-.031.007-.011,0-.012,0,.032.153a.113.113,0,0,0,.024.059.054.054,0,0,0,.046.008l.02,0,0,.014-.218.046,0-.014.019,0a.052.052,0,0,0,.042-.031.129.129,0,0,0,0-.059l-.072-.339a.112.112,0,0,0-.023-.059.055.055,0,0,0-.047-.008l-.019,0,0-.014.186-.039a.44.44,0,0,1,.122-.013.14.14,0,0,1,.075.031.122.122,0,0,1,.043.072.127.127,0,0,1-.013.091.175.175,0,0,1-.084.07l.137.128a.272.272,0,0,0,.077.056.156.156,0,0,0,.072.007Zm-.419-.193.012,0,.009,0a.166.166,0,0,0,.1-.056.108.108,0,0,0,.02-.091.112.112,0,0,0-.047-.074.107.107,0,0,0-.086-.014.329.329,0,0,0-.057.02Z" transform="translate(-292.242 -424.56)"/>
          <path id="Tracciato_9890" data-name="Tracciato 9890" d="M322.39,435.64l-.2.046-.015.091a.138.138,0,0,0,0,.048.027.027,0,0,0,.016.018.1.1,0,0,0,.051,0l0,.014-.16.037,0-.014a.087.087,0,0,0,.038-.025.244.244,0,0,0,.025-.085l.078-.472.013,0,.278.393a.205.205,0,0,0,.055.059.08.08,0,0,0,.053.006l0,.014-.2.047,0-.014a.075.075,0,0,0,.039-.02.028.028,0,0,0,.006-.024.168.168,0,0,0-.027-.05Zm-.017-.026-.135-.191-.039.232Z" transform="translate(-311.061 -420.401)"/>
          <path id="Tracciato_9891" data-name="Tracciato 9891" d="M348.358,431.611l.241-.018-.012-.153a.187.187,0,0,0-.009-.054.035.035,0,0,0-.017-.016.069.069,0,0,0-.036-.007h-.018v-.015l.222-.017v.015h-.018a.072.072,0,0,0-.034.012.033.033,0,0,0-.015.02.2.2,0,0,0,0,.053l.026.345a.183.183,0,0,0,.009.053.035.035,0,0,0,.017.016.071.071,0,0,0,.036.007h.018v.015l-.222.017v-.015h.018a.054.054,0,0,0,.045-.023.12.12,0,0,0,0-.062l-.013-.163-.241.018.013.163a.18.18,0,0,0,.009.053.034.034,0,0,0,.017.016.069.069,0,0,0,.036.007h.019v.015l-.223.017v-.015h.018a.055.055,0,0,0,.045-.023.123.123,0,0,0,0-.061l-.026-.345a.185.185,0,0,0-.009-.054.035.035,0,0,0-.017-.016.071.071,0,0,0-.036-.007h-.018v-.015l.223-.017v.015H348.4a.071.071,0,0,0-.034.012.034.034,0,0,0-.015.02.19.19,0,0,0,0,.053Z" transform="translate(-336.276 -416.573)"/>
          <path id="Tracciato_9892" data-name="Tracciato 9892" d="M368.047,431.086h-.2l-.035.085a.138.138,0,0,0-.013.047.027.027,0,0,0,.011.022.1.1,0,0,0,.049.012v.015h-.164v-.015a.088.088,0,0,0,.042-.015.245.245,0,0,0,.043-.077l.183-.442h.013l.181.446a.2.2,0,0,0,.04.07.08.08,0,0,0,.05.018v.015h-.206v-.015a.076.076,0,0,0,.042-.011.028.028,0,0,0,.011-.022.168.168,0,0,0-.015-.055Zm-.011-.029-.088-.217-.091.217Z" transform="translate(-355.111 -415.978)"/>
          <path id="Tracciato_9893" data-name="Tracciato 9893" d="M387.738,430.555l0,.183h-.012a.231.231,0,0,0-.062-.121.162.162,0,0,0-.1-.041.169.169,0,0,0-.1.022.178.178,0,0,0-.07.083.4.4,0,0,0-.032.146.321.321,0,0,0,.016.127.174.174,0,0,0,.064.085.192.192,0,0,0,.1.034.176.176,0,0,0,.091-.018.3.3,0,0,0,.09-.084l.011.009a.279.279,0,0,1-.1.1.226.226,0,0,1-.126.027.233.233,0,0,1-.2-.109.289.289,0,0,1-.044-.176.315.315,0,0,1,.043-.146.257.257,0,0,1,.1-.1.254.254,0,0,1,.136-.03.24.24,0,0,1,.11.034.06.06,0,0,0,.023.01.025.025,0,0,0,.018-.007.063.063,0,0,0,.016-.029Z" transform="translate(-374.025 -415.812)"/>
          <path id="Tracciato_9894" data-name="Tracciato 9894" d="M404.394,432.361l.241.023.015-.153a.185.185,0,0,0,0-.055.035.035,0,0,0-.014-.018.069.069,0,0,0-.034-.013l-.018,0v-.015l.222.021v.015l-.018,0a.072.072,0,0,0-.036.006.033.033,0,0,0-.018.018.2.2,0,0,0-.009.052l-.033.345a.183.183,0,0,0,0,.054.035.035,0,0,0,.014.018.071.071,0,0,0,.034.013l.018,0v.015l-.222-.021v-.015l.018,0a.055.055,0,0,0,.048-.015.121.121,0,0,0,.015-.06l.015-.163-.241-.023-.016.163a.183.183,0,0,0,0,.054.035.035,0,0,0,.014.018.069.069,0,0,0,.034.013l.019,0v.015l-.222-.021v-.015l.018,0a.055.055,0,0,0,.049-.015.124.124,0,0,0,.015-.06l.033-.345a.185.185,0,0,0,0-.054.035.035,0,0,0-.014-.018.071.071,0,0,0-.034-.013l-.018,0V432.1l.222.021v.015l-.019,0a.071.071,0,0,0-.036.006.034.034,0,0,0-.018.018.19.19,0,0,0-.01.052Z" transform="translate(-390.387 -417.313)"/>
          <path id="Tracciato_9895" data-name="Tracciato 9895" d="M423.912,434.528l0,.015-.222-.026,0-.015.018,0a.055.055,0,0,0,.049-.014.124.124,0,0,0,.016-.059l.041-.344a.182.182,0,0,0,0-.054.035.035,0,0,0-.014-.019.071.071,0,0,0-.034-.014l-.018,0,0-.015.222.026,0,.015-.019,0a.054.054,0,0,0-.048.014.119.119,0,0,0-.017.059l-.041.344a.183.183,0,0,0,0,.054.035.035,0,0,0,.014.019.069.069,0,0,0,.034.014Z" transform="translate(-409.191 -419.132)"/>
          <path id="Tracciato_9896" data-name="Tracciato 9896" d="M433.279,436.243l-.137-.026-.127-.279-.031-.005-.011,0-.012,0-.029.153a.112.112,0,0,0,0,.064.054.054,0,0,0,.04.025l.02,0,0,.014-.219-.041,0-.014.019,0a.052.052,0,0,0,.051-.013.128.128,0,0,0,.019-.056l.064-.341a.112.112,0,0,0,0-.064.056.056,0,0,0-.041-.025l-.019,0,0-.014.187.035a.441.441,0,0,1,.118.035.14.14,0,0,1,.057.058.122.122,0,0,1,.012.083.127.127,0,0,1-.047.079.175.175,0,0,1-.1.033l.077.171a.273.273,0,0,0,.049.081.157.157,0,0,0,.064.035Zm-.312-.34.012,0,.009,0a.166.166,0,0,0,.117-.012.108.108,0,0,0,.053-.076.112.112,0,0,0-.015-.086.108.108,0,0,0-.074-.046.338.338,0,0,0-.061,0Z" transform="translate(-417.961 -420.712)"/>
          <path id="Tracciato_9897" data-name="Tracciato 9897" d="M448.705,440.308l0,.014-.215-.06,0-.014.018.005a.055.055,0,0,0,.05-.006.124.124,0,0,0,.025-.056l.093-.334a.18.18,0,0,0,.01-.053.035.035,0,0,0-.011-.021.071.071,0,0,0-.031-.019l-.018,0,0-.014.215.06,0,.014-.018-.005a.054.054,0,0,0-.05.006.12.12,0,0,0-.026.056l-.093.334a.183.183,0,0,0-.01.053.035.035,0,0,0,.011.021.07.07,0,0,0,.031.019Z" transform="translate(-433.139 -424.697)"/>
          <path id="Tracciato_9898" data-name="Tracciato 9898" d="M181.41,37.078h-.4V35.112l-.609,1.966h-.208l-.612-1.966v1.966h-.324V34.833h.62l.461,1.446.453-1.446h.624Z" transform="translate(-173.118 -33.641)" fill="#e60c2d"/>
          <path id="Tracciato_9899" data-name="Tracciato 9899" d="M250.5,37.079h-.452l-.187-.535h-.9l-.184.535h-.361l.778-2.246h.521Zm-.752-.859-.342-1-.342,1Z" transform="translate(-239.91 -33.641)" fill="#e60c2d"/>
          <path id="Tracciato_9900" data-name="Tracciato 9900" d="M302.878,37.078h-.448v-.948l-.8-1.3h.512l.557.926.533-.926h.405l-.759,1.3Z" transform="translate(-291.309 -33.641)" fill="#e60c2d"/>
          <path id="Tracciato_9901" data-name="Tracciato 9901" d="M363.355,36.138a.868.868,0,0,1-.728-.336,1.312,1.312,0,0,1-.26-.829,1.233,1.233,0,0,1,.277-.82.906.906,0,0,1,.73-.33.878.878,0,0,1,.722.33,1.274,1.274,0,0,1,.265.825,1.241,1.241,0,0,1-.276.84.917.917,0,0,1-.731.32m0-.326a.494.494,0,0,0,.387-.181,1.019,1.019,0,0,0,.158-.656,1.188,1.188,0,0,0-.131-.606.439.439,0,0,0-.405-.22q-.543,0-.543.837a1.124,1.124,0,0,0,.138.616.446.446,0,0,0,.4.21" transform="translate(-349.967 -32.666)" fill="#e60c2d"/>
          <path id="Tracciato_9902" data-name="Tracciato 9902" d="M426.443,37.078h-.454v-1.9h-.624v-.347h1.7v.347h-.624Z" transform="translate(-410.81 -33.641)" fill="#e60c2d"/>
          <path id="Tracciato_9903" data-name="Tracciato 9903" d="M479.146,37.078h-.453v-1.9h-.624v-.347h1.7v.347h-.624Z" transform="translate(-461.71 -33.641)" fill="#e60c2d"/>
          <path id="Tracciato_9904" data-name="Tracciato 9904" d="M538.827,37.078H537.3V34.833h1.508v.334h-1.086v.609h.873V36.1h-.873v.628h1.1Z" transform="translate(-518.917 -33.641)" fill="#e60c2d"/>
        </g>
      </g>
    </g>
  </g>
</svg>
