<svg xmlns="http://www.w3.org/2000/svg" xmlns:xlink="http://www.w3.org/1999/xlink" width="24" height="24.011" viewBox="0 0 24 24.011">
  <defs>
    <clipPath id="clip-path">
      <path id="Tracciato_5923" data-name="Tracciato 5923" d="M1.576,12.754A12,12,0,1,0,13.581.749,12,12,0,0,0,1.576,12.754" transform="translate(-1.576 -0.749)" fill="none"/>
    </clipPath>
  </defs>
  <g id="Montserrat" transform="translate(-1.576 -0.749)">
    <g id="Raggruppa_195" data-name="Raggruppa 195" transform="translate(1.576 0.749)" clip-path="url(#clip-path)">
      <rect id="Rettangolo_437" data-name="Rettangolo 437" width="41.357" height="24.248" transform="translate(-16.969 -0.118)" fill="#00006d"/>
      <path id="Tracciato_5758" data-name="Tracciato 5758" d="M24.688,2.138V.739H21.964L14.556,4.453V.739H10.593V4.41L3.186.739H.462V2.031L6,4.8H.462V8.771H5.953L.462,11.527v1.292H3.186l7.408-3.682v3.7h3.962V9.094l7.408,3.725h2.724v-1.41L19.369,8.771h5.319V4.8H19.326Z" transform="translate(-12.461 -0.85)" fill="#fff"/>
      <path id="Tracciato_5759" data-name="Tracciato 5759" d="M24.688,5.605H13.759V.738H11.39V5.605H.462V7.974H11.39v4.867h2.369V7.974H24.688Z" transform="translate(-12.461 -0.854)" fill="#fa0000"/>
      <path id="Tracciato_5760" data-name="Tracciato 5760" d="M3.72,1.492H1.976L9.9,5.454V4.647Z" transform="translate(2.33 6.506)" fill="#fa0000"/>
      <path id="Tracciato_5761" data-name="Tracciato 5761" d="M1.828,4.7H3.572L11.346.739H9.753Z" transform="translate(0.885 -0.847)" fill="#fa0000"/>
      <path id="Tracciato_5762" data-name="Tracciato 5762" d="M11.617,12.841A5.729,5.729,0,0,0,13.3,8.621V1.3H2.874V8.621a5.729,5.729,0,0,0,1.68,4.221,6.737,6.737,0,0,0,3.532,1.507,6.737,6.737,0,0,0,3.532-1.507" transform="translate(11.08 4.623)" fill="#fff"/>
      <path id="Tracciato_5763" data-name="Tracciato 5763" d="M11.3,12.433A5.459,5.459,0,0,0,12.92,8.373V1.321H2.9V8.373a5.459,5.459,0,0,0,1.615,4.059,6.419,6.419,0,0,0,3.4,1.443A6.368,6.368,0,0,0,11.3,12.433" transform="translate(11.263 4.838)" fill="#00a3bf"/>
      <path id="Tracciato_5764" data-name="Tracciato 5764" d="M11.261,5.244a5.431,5.431,0,0,0,1.572-3.187L2.9,2.079A5.39,5.39,0,0,0,4.467,5.244a6.419,6.419,0,0,0,3.4,1.443,6.368,6.368,0,0,0,3.392-1.443" transform="translate(11.307 12.026)" fill="#bf4300"/>
      <path id="Tracciato_5765" data-name="Tracciato 5765" d="M7.931,13.918a6.471,6.471,0,0,1-3.413-1.454A5.528,5.528,0,0,1,2.892,8.383V1.342l.022-.022H12.948l.022.022V8.383a5.528,5.528,0,0,1-1.626,4.081,6.5,6.5,0,0,1-3.413,1.454m-5-12.555v7.02A5.476,5.476,0,0,0,4.55,12.432a6.521,6.521,0,0,0,3.381,1.443,6.516,6.516,0,0,0,3.381-1.443,5.453,5.453,0,0,0,1.6-4.048V1.363Z" transform="translate(11.246 4.828)"/>
      <path id="Tracciato_5766" data-name="Tracciato 5766" d="M7.673,2.254H5.746V1.361H5.068v.894H3.129v.689H5.068v8.312H5.52l.226-.84V2.944H7.673Z" transform="translate(13.597 5.227)"/>
      <path id="Tracciato_5767" data-name="Tracciato 5767" d="M5.779,2.77c-.3-.485-.8-.98-1.044-.872a.475.475,0,0,0-.237.28,3.733,3.733,0,0,1-.172.592.867.867,0,0,1-.42.366c-.3.118-.754.194-.8.592a.463.463,0,0,0,.248.474.43.43,0,0,0,.258.011c.3.377.624.775.969,1.163.377.452.754.872,1.131,1.281a4.362,4.362,0,0,0,.226-.485,4.231,4.231,0,0,0-.162-3.4m.086,2.153a3.353,3.353,0,0,1-.291,1.034C4.982,5.343,4.39,4.719,3.8,4.094a.223.223,0,0,0,.075-.226.217.217,0,0,0-.226-.162.2.2,0,0,0-.14.129.173.173,0,0,1-.054-.118c0-.129.194-.215.463-.345.377-.183.571-.269.646-.323a1.182,1.182,0,0,0,.4-.764,3.286,3.286,0,0,1,.668.991,3.321,3.321,0,0,1,.237,1.647" transform="translate(13.365 10.323)" fill="#ff9c00"/>
      <path id="Tracciato_5768" data-name="Tracciato 5768" d="M5.722,6.685l-.011-.011c-.377-.409-.764-.84-1.131-1.271-.323-.388-.646-.775-.958-1.163a.445.445,0,0,1-.258-.022.472.472,0,0,1-.258-.474c.032-.345.355-.452.646-.549l.162-.054a.9.9,0,0,0,.409-.366,1.38,1.38,0,0,0,.118-.355.971.971,0,0,1,.065-.237.472.472,0,0,1,.237-.291c.248-.1.743.377,1.055.883A4.181,4.181,0,0,1,5.959,6.19a3.963,3.963,0,0,1-.226.485v.011Zm-2.1-2.476h.011c.312.4.635.8.969,1.174.366.431.743.861,1.12,1.271a3.757,3.757,0,0,0,.215-.474,4.177,4.177,0,0,0-.162-3.392c-.3-.5-.786-.958-1.023-.861a.39.39,0,0,0-.226.269,1.522,1.522,0,0,0-.065.237,1.065,1.065,0,0,1-.118.355.889.889,0,0,1-.42.377l-.162.054c-.28.1-.6.2-.635.528a.483.483,0,0,0,.248.463A.386.386,0,0,0,3.623,4.208Zm1.97,1.777H5.582L3.806,4.122,3.8,4.112,3.806,4.1a.23.23,0,0,0,.065-.215.2.2,0,0,0-.215-.151.175.175,0,0,0-.129.118l-.011.011L3.5,3.853,3.45,3.724c0-.129.183-.215.431-.323l.043-.022a6.954,6.954,0,0,0,.635-.323A1.249,1.249,0,0,0,4.969,2.3V2.292h.011a3.169,3.169,0,0,1,.678,1,3.4,3.4,0,0,1,.226,1.647A3.137,3.137,0,0,1,5.6,5.974ZM3.827,4.112,5.582,5.953a3.088,3.088,0,0,0,.28-1.012,3.429,3.429,0,0,0-.226-1.647,3.427,3.427,0,0,0-.657-.969,1.181,1.181,0,0,1-.4.743,4.736,4.736,0,0,1-.646.334l-.043.022c-.248.108-.42.194-.42.3l.043.1a.171.171,0,0,1,.14-.108c.108-.032.2.065.237.162a.243.243,0,0,1-.065.237" transform="translate(13.357 10.306)"/>
      <path id="Tracciato_5769" data-name="Tracciato 5769" d="M3.193,2.544H3.183a.233.233,0,0,1-.065-.151.375.375,0,0,1,.2-.355l.032-.011.011.043a.361.361,0,0,0-.2.323l.054.108v.032l-.022.011" transform="translate(13.453 11.733)" fill="#fff200"/>
      <path id="Tracciato_5770" data-name="Tracciato 5770" d="M3.167,2.232h0l-.022-.022a.152.152,0,0,1,.118-.151L3.35,2.1v.032H3.317l-.054-.022c-.032,0-.065.043-.075.1l-.022.022" transform="translate(13.749 12.056)" fill="#fff200"/>
      <path id="Tracciato_5771" data-name="Tracciato 5771" d="M5,4.217l-.022-.011L3.168,2.15V2.106l.032.011L5.02,4.174v.032Z" transform="translate(13.974 12.51)" fill="#fff200"/>
      <path id="Tracciato_5772" data-name="Tracciato 5772" d="M3.494,5.083H3.483l-.011-.032a3.68,3.68,0,0,0,.258-1.594,3.736,3.736,0,0,0-.388-1.443V1.993l.043-.011a3.75,3.75,0,0,1,.388,1.464,3.825,3.825,0,0,1-.258,1.626Z" transform="translate(15.683 11.294)" fill="#fff200"/>
      <path id="Tracciato_5773" data-name="Tracciato 5773" d="M3.2,3.088l-.022-.011V2.032L3.2,2.011l.022.022V3.066Z" transform="translate(14.11 11.576)"/>
      <path id="Tracciato_5774" data-name="Tracciato 5774" d="M3.219,3.422,3.2,3.4V2.023L3.219,2l.022.022V3.4l-.022.022" transform="translate(14.257 11.48)"/>
      <path id="Tracciato_5775" data-name="Tracciato 5775" d="M3.237,3.713l-.022-.022V2.022l.022-.032L3.259,2v1.69l-.022.022" transform="translate(14.44 11.371)"/>
      <path id="Tracciato_5776" data-name="Tracciato 5776" d="M3.254,4.036l-.022-.011V2l.022-.022L3.276,2V4.014l-.022.022" transform="translate(14.607 11.266)"/>
      <path id="Tracciato_5777" data-name="Tracciato 5777" d="M3.273,4.4l-.022-.011V1.995l.022-.032.022.032v2.38Z" transform="translate(14.792 11.104)"/>
      <path id="Tracciato_5778" data-name="Tracciato 5778" d="M3.29,5.024,3.268,5V1.955l.022-.032.022.032V5l-.022.022" transform="translate(14.954 10.716)"/>
      <path id="Tracciato_5779" data-name="Tracciato 5779" d="M3.312,5.3l-.022-.011V1.939l.022-.022.022.011V5.277L3.312,5.3" transform="translate(15.171 10.667)"/>
      <path id="Tracciato_5780" data-name="Tracciato 5780" d="M3.64,2.354l.075.172v.086a.529.529,0,0,1-.075.172c-.086.183,0,.226-.086.366-.032.054-.075.086-.075.162L3.51,3.4c.032.011.075-.043.129-.032l.043.032.065-.054.043.011.065-.032h.032L3.93,3.27l.032.022.043-.129.032-.075a.434.434,0,0,0,0-.118c0-.086.086-.086.108-.183.011-.054-.032-.065-.065-.183L4.049,2.43,3.79,2.279l-.151.075" transform="translate(17.001 14.195)" fill="#ffe2d4"/>
      <path id="Tracciato_5781" data-name="Tracciato 5781" d="M3.531,3.4H3.52c-.043-.011-.043-.086-.043-.086a.276.276,0,0,1,.054-.129l.032-.043a.245.245,0,0,0,.043-.162.393.393,0,0,1,.043-.194l.011-.011.054-.14L3.7,2.527a.476.476,0,0,0-.065-.172V2.344l.151-.065H3.8l.258.14.011.011L4.1,2.6l.043.1a.144.144,0,0,1,.011.1c0,.043-.032.065-.054.086l-.054.086v.118l-.011.032-.011.043L4,3.237l-.022.054L3.951,3.28,3.9,3.334H3.865L3.8,3.366H3.768L3.692,3.4l-.022-.011-.022-.011-.065.011L3.531,3.4m.118-1.044a.5.5,0,0,1,.075.172v.108l-.054.14L3.66,2.8a.359.359,0,0,0-.043.183.29.29,0,0,1-.043.172l-.022.032a.166.166,0,0,0-.065.118l.043.086.043-.011.075-.011.022.011.022.011.054-.043h.011l.043.011.043-.032.011-.011.043.011.032-.054H3.94l.032.011.022-.043.022-.075.011-.032.011-.043V2.968c0-.043.032-.065.054-.1l.054-.086L4.134,2.71,4.091,2.6,4.058,2.43l-.269-.14Z" transform="translate(16.991 14.195)"/>
      <path id="Tracciato_5782" data-name="Tracciato 5782" d="M3.517,2.488h0A.158.158,0,0,1,3.5,2.37h.011l.011.108Z" transform="translate(17.134 15.084)"/>
      <path id="Tracciato_5783" data-name="Tracciato 5783" d="M3.523,2.5h0l-.011-.011V2.453L3.5,2.378V2.367h.022V2.5Z" transform="translate(17.229 15.055)"/>
      <path id="Tracciato_5784" data-name="Tracciato 5784" d="M3.533,2.474H3.522l-.011-.108h.022l.011.1Z" transform="translate(17.323 15.044)"/>
      <path id="Tracciato_5785" data-name="Tracciato 5785" d="M3.54,2.47h0l-.022-.075.011-.032H3.54v.032l-.011.054Z" transform="translate(17.395 15.008)"/>
      <path id="Tracciato_5786" data-name="Tracciato 5786" d="M3.586,2.32,3.5,2.428a.377.377,0,0,1-.162.1.3.3,0,0,0,.474-.086L3.586,2.32" transform="translate(15.634 14.595)" fill="#ffe2d4"/>
      <path id="Tracciato_5787" data-name="Tracciato 5787" d="M3.542,2.62H3.5a.255.255,0,0,1-.151-.086H3.337l.011-.011.162-.1.075-.108H3.6l.226.118v.011a.336.336,0,0,1-.28.172m-.183-.086a.25.25,0,0,0,.14.075.341.341,0,0,0,.312-.162L3.6,2.341l-.086.1-.151.1" transform="translate(15.624 14.585)"/>
      <path id="Tracciato_5788" data-name="Tracciato 5788" d="M3.406,2.112a.341.341,0,0,0,.065.162l.075.1h.118L3.7,2.284l-.022-.1-.022-.118-.075-.1-.022-.032L3.535,1.9l-.022-.011c-.043-.011-.043.011-.054.032-.022.065-.065.118-.054.194" transform="translate(16.277 10.324)" fill="#008204"/>
      <path id="Tracciato_5789" data-name="Tracciato 5789" d="M3.564,1.987l-.075-.172h.054a4.822,4.822,0,0,1,.463,1.12,4.755,4.755,0,0,1,.14,1.152,5.724,5.724,0,0,1-.054.969H3.963V5.045a.841.841,0,0,1-.129-.592l.032-.711.011-.28a3.624,3.624,0,0,0-.129-.592c-.043-.108-.065-.215-.1-.323l-.022-.075a.63.63,0,0,1-.043-.2v-.1l-.011-.14-.011-.043" transform="translate(17.109 9.663)" fill="#008204"/>
      <path id="Tracciato_5790" data-name="Tracciato 5790" d="M3.675,2.019a.383.383,0,0,0-.054-.2l.032.011A.645.645,0,0,1,3.739,2l.011.043.011.14v.1a.63.63,0,0,0,.043.2l.022.086.086.312a2.241,2.241,0,0,1,.129.592,1.217,1.217,0,0,1,0,.28l-.032.7v.011a.87.87,0,0,0,.129.6h.129V5.1a3.475,3.475,0,0,0,.312,2.121.826.826,0,0,1-.291-.075.879.879,0,0,1-.2-.108.9.9,0,0,1-.2-.248.955.955,0,0,1-.086-.345l-.022-.118-.032-.118.108-.032v.011h.011a.58.58,0,0,0,.054-.312,1.324,1.324,0,0,0-.086-.312l-.065-.2a1.362,1.362,0,0,0-.215-.474.259.259,0,0,1-.075-.194L3.5,4.527l.14-.5L3.7,3.806l.011-.226.011-.4a1.889,1.889,0,0,0-.032-.42,2.023,2.023,0,0,0-.172-.528H3.5l.118-.022.011.011V2.212a.324.324,0,0,0,.043-.194" transform="translate(16.923 9.653)" fill="#008204"/>
      <path id="Tracciato_5791" data-name="Tracciato 5791" d="M4.1,4.574a.837.837,0,0,0,.075-.56H4.164a.8.8,0,0,1-.075.549v.011Zm.312-.248h.011a.886.886,0,0,0-.043-.721H4.368a.863.863,0,0,1,.043.711Zm-.56-2.186a.661.661,0,0,0,.108.248,1.958,1.958,0,0,0,.162.248l.118.172a2.334,2.334,0,0,1,.334,1.615v.022a.532.532,0,0,1-.054.172l-.226.118a.4.4,0,0,0,.022-.226V4.423L4.3,4.4V4.337l-.011-.011-.011.011.011.065v.011l.011.1a.367.367,0,0,1-.032.237,1.09,1.09,0,0,1-.388.054.3.3,0,0,0,.14-.2,2.207,2.207,0,0,0,.108-.743V3.777a.914.914,0,0,0-.075-.452H4.045v.011a.893.893,0,0,1,.075.441v.075a2.207,2.207,0,0,1-.108.743.276.276,0,0,1-.129.194H3.862l-.075-.011c-.086-.011-.377-.108-.431-.334a.362.362,0,0,1,.022-.237,4.275,4.275,0,0,0,.388-1.734c0-.129,0-.258-.011-.388h.086l.011.054" transform="translate(15.702 12.319)" fill="#008204"/>
      <path id="Tracciato_5792" data-name="Tracciato 5792" d="M3.812,3.153l.011-.032h.011L3.9,3.25l.032.065a.706.706,0,0,1,.054.581,1.834,1.834,0,0,1-.162.237v.011h.011A.952.952,0,0,0,3.985,3.9a.662.662,0,0,0-.043-.581L3.909,3.25l-.054-.118L3.845,3.1V3.067a1.061,1.061,0,0,0,.011-.258L3.845,2.8l-.022.011a.614.614,0,0,0,0,.28L3.8,3.142l-.011.043a.55.55,0,0,0-.043.291L3.78,3.6l.011.1a.469.469,0,0,1-.011.215v.011h.011A.394.394,0,0,0,3.8,3.7L3.78,3.6l-.022-.129a.644.644,0,0,1,.032-.28l.022-.043m.84,3.736a.236.236,0,0,0-.086-.151H4.555v.011a.236.236,0,0,1,.086.151.436.436,0,0,1,.011.172v.011l.011-.011a.51.51,0,0,0-.011-.183M3.608,4.639,3.6,4.692l-.011.237L3.5,4.94a3.268,3.268,0,0,0-.118-.711L3.371,1.8a.818.818,0,0,0,.474.3l-.065.118a.258.258,0,0,0-.022.151v.011h.011a.346.346,0,0,1,.011-.151L3.856,2.1H3.92a.515.515,0,0,0,.194-.065l.043-.022a.542.542,0,0,0-.1.355l.011.011V2.367A.509.509,0,0,1,4.179,2a.526.526,0,0,1,.2-.043.213.213,0,0,0-.118.118.448.448,0,0,0-.032.291V2.41l.011.032a.746.746,0,0,1,.032.215l-.011.086-.011.032-.011.011a.7.7,0,0,0,.011.366l.011.011V3.153A.793.793,0,0,1,4.254,2.8l.011-.022.011-.032V2.657a.476.476,0,0,0-.022-.215V2.42l-.011-.054a.409.409,0,0,1,.032-.28.185.185,0,0,1,.162-.129l.129.032h.011a.515.515,0,0,1,.054.2.484.484,0,0,1-.032.194L4.48,2.41H4.469a2.11,2.11,0,0,1,.172.538,2.606,2.606,0,0,1,.022.409v.4l-.011.226L4.6,4.208l-.14.5-.032.162a.284.284,0,0,0,.075.2,1.4,1.4,0,0,1,.215.463l.065.2a1.485,1.485,0,0,1,.086.312.464.464,0,0,1-.054.3l-.108.032a1.379,1.379,0,0,0-.151-.366A.606.606,0,0,0,4.383,5.8H4.372v.011a.693.693,0,0,1,.172.2,1.724,1.724,0,0,1,.183.5l.022.118a.957.957,0,0,0,.086.334.555.555,0,0,0,.14.183A.315.315,0,0,0,4.8,7.072c-.1-.011-.162.054-.237.14a1.327,1.327,0,0,1-.28.237l.043-.162V7.266A2.375,2.375,0,0,0,4,5.64l-.118-.162c-.054-.086-.118-.162-.162-.248a1.15,1.15,0,0,1-.108-.248,1.315,1.315,0,0,1,.011-.291V4.639a2.54,2.54,0,0,0-.011-.5V4.132H3.6a2.65,2.65,0,0,1,.011.506" transform="translate(15.956 9.477)" fill="#008204"/>
      <path id="Tracciato_5793" data-name="Tracciato 5793" d="M3.595,2.368l-.075-.075.022.022.065.043v.011Z" transform="translate(17.404 14.326)"/>
      <path id="Tracciato_5794" data-name="Tracciato 5794" d="M3.514,1.534V1.523l.011.011Z" transform="translate(17.351 6.811)"/>
      <path id="Tracciato_5795" data-name="Tracciato 5795" d="M3.524,1.523Z" transform="translate(17.345 6.816)"/>
      <rect id="Rettangolo_438" data-name="Rettangolo 438" width="0.005" height="0.013" transform="translate(20.865 8.339)"/>
      <path id="Tracciato_5796" data-name="Tracciato 5796" d="M3.513,1.524Z" transform="translate(17.342 6.821)"/>
      <path id="Tracciato_5797" data-name="Tracciato 5797" d="M3.569,1.869l-.054-.022L3.5,1.825l.065.043a.16.16,0,0,0,.162-.075.144.144,0,0,0-.011-.151.174.174,0,0,0-.108-.108l.011-.011a.293.293,0,0,1,.108.118.222.222,0,0,1,.011.151.177.177,0,0,1-.172.075" transform="translate(17.255 6.821)"/>
      <path id="Tracciato_5798" data-name="Tracciato 5798" d="M3.5,1.561h0v0Z" transform="translate(17.243 7.08)"/>
      <path id="Tracciato_5799" data-name="Tracciato 5799" d="M3.5,1.552Z" transform="translate(17.236 7.094)"/>
      <path id="Tracciato_5800" data-name="Tracciato 5800" d="M3.5,1.551Z" transform="translate(17.245 7.084)"/>
      <path id="Tracciato_5801" data-name="Tracciato 5801" d="M3.5,1.562h0V1.551l.011.011Z" transform="translate(17.238 7.086)"/>
      <path id="Tracciato_5802" data-name="Tracciato 5802" d="M3.51,1.645a.123.123,0,0,1,0-.108l.032.151L3.51,1.645" transform="translate(17.195 6.948)" fill="#a0060a"/>
      <path id="Tracciato_5803" data-name="Tracciato 5803" d="M3.5,1.815a4.822,4.822,0,0,1,.463,1.12,5.371,5.371,0,0,1,.14,1.152A5.91,5.91,0,0,1,4.043,5.1,2.813,2.813,0,0,0,4,5.863,3.53,3.53,0,0,0,4.355,7.22H4.345a.955.955,0,0,1-.3-.075.7.7,0,0,1-.2-.108h.011V7.026a.7.7,0,0,0,.2.108.831.831,0,0,0,.28.075,3.845,3.845,0,0,1-.355-1.346A3.267,3.267,0,0,1,4.032,5.1V5.067a5.742,5.742,0,0,0,.065-.98,4.87,4.87,0,0,0-.151-1.152,4.364,4.364,0,0,0-.452-1.12Z" transform="translate(17.157 9.663)"/>
      <path id="Tracciato_5804" data-name="Tracciato 5804" d="M3.511,1.645A.211.211,0,0,1,3.5,1.537h.011a.132.132,0,0,0,.011.108l.032.043V1.7l-.043-.054" transform="translate(17.194 6.948)"/>
      <path id="Tracciato_5805" data-name="Tracciato 5805" d="M3.509,1.664a.173.173,0,0,1,0-.129l.011.011v.011l-.011-.011a.157.157,0,0,0,.011.118l.022.032.011.011v.011l-.043-.054" transform="translate(17.185 6.928)"/>
      <path id="Tracciato_5806" data-name="Tracciato 5806" d="M3.494,1.814h.011l-.011.011Z" transform="translate(17.162 9.656)"/>
      <path id="Tracciato_5807" data-name="Tracciato 5807" d="M3.563,1.987l-.075-.172H3.5a.5.5,0,0,1,.075.172l.011.043.011.14v.086a.574.574,0,0,0,.043.2l.022.086.1.312a2.865,2.865,0,0,1,.129.6l-.011.269-.032.721a.8.8,0,0,0,.129.581v.011H3.962a.84.84,0,0,1-.129-.592V4.431l.032-.7.011-.269a2.768,2.768,0,0,0-.129-.592,2.05,2.05,0,0,1-.1-.312l-.022-.086a.7.7,0,0,1-.043-.215V2.17l-.011-.14-.011-.043" transform="translate(17.099 9.663)"/>
      <path id="Tracciato_5808" data-name="Tracciato 5808" d="M3.488,1.477l.065.075.022.118c-.011.043-.011.065.011.086l.043.022.086.022c.032.022.075.043.075.086l-.022.1V1.972l.022-.086a.129.129,0,0,0-.075-.075l-.129-.054c-.043-.043,0-.108-.032-.194Z" transform="translate(17.099 6.361)"/>
      <path id="Tracciato_5809" data-name="Tracciato 5809" d="M3.488,1.825V1.814l.011.011Z" transform="translate(17.101 9.651)"/>
      <path id="Tracciato_5810" data-name="Tracciato 5810" d="M3.488,1.477Z" transform="translate(17.099 6.361)"/>
      <path id="Tracciato_5811" data-name="Tracciato 5811" d="M3.5,1.487H3.487V1.476H3.5Z" transform="translate(17.091 6.355)"/>
      <path id="Tracciato_5812" data-name="Tracciato 5812" d="M3.487,1.477Z" transform="translate(17.089 6.361)"/>
      <path id="Tracciato_5813" data-name="Tracciato 5813" d="M3.487,1.476v0Z" transform="translate(17.089 6.352)"/>
      <path id="Tracciato_5814" data-name="Tracciato 5814" d="M3.487,1.477H3.5l.065.086c.032.086-.011.151.032.194l.129.054a.129.129,0,0,1,.075.075l-.022.086.011-.086-.065-.075-.086-.022-.054-.022a.1.1,0,0,1-.011-.1l-.022-.108Z" transform="translate(17.089 6.361)"/>
      <path id="Tracciato_5815" data-name="Tracciato 5815" d="M3.487,1.487h0v0Z" transform="translate(17.094 6.352)"/>
      <path id="Tracciato_5816" data-name="Tracciato 5816" d="M3.487,1.477Z" transform="translate(17.09 6.362)"/>
      <path id="Tracciato_5817" data-name="Tracciato 5817" d="M3.5,1.487l-.011-.011Z" transform="translate(17.079 6.352)"/>
      <path id="Tracciato_5818" data-name="Tracciato 5818" d="M3.485,1.585h0l.022.011H3.485Z" transform="translate(17.066 7.416)"/>
      <path id="Tracciato_5819" data-name="Tracciato 5819" d="M3.484,1.6h0v0Z" transform="translate(17.064 7.412)" fill="#ffe2cf"/>
      <path id="Tracciato_5820" data-name="Tracciato 5820" d="M3.483,1.814h.011a.383.383,0,0,1,.054.2.331.331,0,0,1-.032.194L3.5,2.223V2.212a.35.35,0,0,0,.032-.194.383.383,0,0,0-.054-.2" transform="translate(17.05 9.653)"/>
      <rect id="Rettangolo_439" data-name="Rettangolo 439" width="0.016" height="0.013" transform="translate(20.527 11.456)"/>
      <path id="Tracciato_5821" data-name="Tracciato 5821" d="M3.492,2.254a.236.236,0,0,1,.086.162.314.314,0,0,1,.011.172V2.6H3.578V2.588a.41.41,0,0,0-.011-.162.221.221,0,0,0-.075-.151l-.011-.022h.011" transform="translate(17.03 13.951)"/>
      <path id="Tracciato_5822" data-name="Tracciato 5822" d="M3.48,1.55a.2.2,0,0,0,.108.043.179.179,0,0,0,.118-.022h.011a.187.187,0,0,1-.129.032.2.2,0,0,1-.108-.043Z" transform="translate(17.021 7.074)"/>
      <path id="Tracciato_5823" data-name="Tracciato 5823" d="M3.48,1.55Z" transform="translate(17.021 7.074)"/>
      <path id="Tracciato_5824" data-name="Tracciato 5824" d="M3.48,1.56h0v0Z" transform="translate(17.025 7.072)"/>
      <path id="Tracciato_5825" data-name="Tracciato 5825" d="M3.48,1.815a.2.2,0,0,0,.108.043.187.187,0,0,0,.129-.032v.011l.075.032a.159.159,0,0,0,.172-.075.174.174,0,0,0-.011-.151.4.4,0,0,0-.108-.118.246.246,0,0,1,.118.118.177.177,0,0,1,0,.151.144.144,0,0,1-.14.086H3.792l-.075-.043-.129.032Z" transform="translate(17.021 6.821)"/>
      <rect id="Rettangolo_440" data-name="Rettangolo 440" width="0.008" height="0.011" transform="translate(20.498 8.626)"/>
      <path id="Tracciato_5826" data-name="Tracciato 5826" d="M3.48,1.56h0v0Z" transform="translate(17.022 7.069)"/>
      <path id="Tracciato_5827" data-name="Tracciato 5827" d="M3.479,1.55Z" transform="translate(17.013 7.074)"/>
      <path id="Tracciato_5828" data-name="Tracciato 5828" d="M3.49,1.52l.075.032L3.49,1.53H3.479Z" transform="translate(17.01 6.779)"/>
      <path id="Tracciato_5829" data-name="Tracciato 5829" d="M3.575,1.552,3.5,1.519l-.022.011L3.5,1.519l.075.032h.011l-.011.011Z" transform="translate(17 6.774)"/>
      <path id="Tracciato_5830" data-name="Tracciato 5830" d="M3.478,1.521Z" transform="translate(17.001 6.791)"/>
      <path id="Tracciato_5831" data-name="Tracciato 5831" d="M3.594,1.543l-.075.291L3.5,1.769a.179.179,0,0,1,.022-.118L3.476,1.6,3.5,1.532l.011-.011h.011Z" transform="translate(16.982 6.791)" fill="#a0060a"/>
      <path id="Tracciato_5832" data-name="Tracciato 5832" d="M3.478,1.521Z" transform="translate(17.001 6.791)"/>
      <path id="Tracciato_5833" data-name="Tracciato 5833" d="M3.478,1.53h0v0Z" transform="translate(17 6.778)"/>
      <path id="Tracciato_5834" data-name="Tracciato 5834" d="M3.478,1.531h0V1.52h.011v.011Z" transform="translate(16.998 6.784)"/>
      <path id="Tracciato_5835" data-name="Tracciato 5835" d="M3.477,1.53v0Z" transform="translate(16.991 6.772)"/>
      <path id="Tracciato_5836" data-name="Tracciato 5836" d="M3.488,1.521h0Z" transform="translate(16.991 6.791)"/>
      <path id="Tracciato_5837" data-name="Tracciato 5837" d="M3.487,1.531H3.476l.011-.011Z" transform="translate(16.986 6.783)"/>
      <path id="Tracciato_5838" data-name="Tracciato 5838" d="M3.485,1.6l.043.054v.011a.133.133,0,0,0-.022.108l.032.065H3.528l-.022-.065a.134.134,0,0,1,.011-.108L3.474,1.6l.032-.075.011.011L3.485,1.6" transform="translate(16.962 6.791)"/>
      <path id="Tracciato_5839" data-name="Tracciato 5839" d="M3.528,1.65a.191.191,0,0,0-.022.118l.032.065H3.528L3.5,1.769a.179.179,0,0,1,.022-.118L3.474,1.6l.032-.075L3.485,1.6l.043.054" transform="translate(16.962 6.791)"/>
      <path id="Tracciato_5840" data-name="Tracciato 5840" d="M3.586,1.5l.075.043-.194-.075.118.032" transform="translate(16.903 6.283)" fill="#a0060a"/>
      <path id="Tracciato_5841" data-name="Tracciato 5841" d="M3.609,4.03a.242.242,0,0,0,.151.011c.1-.043.172-.162.226-.366a1.235,1.235,0,0,0,.043-.506,2.38,2.38,0,0,1,.022-.452A2.507,2.507,0,0,0,4.083,2a.467.467,0,0,0-.345-.345l-.1-.054.011-.011.1.043A.515.515,0,0,1,4.093,2a2.164,2.164,0,0,1-.032.721,2.38,2.38,0,0,0-.022.452A1.235,1.235,0,0,1,4,3.675a.55.55,0,0,1-.226.377H3.738v.011H3.684V4.052l-.011-.011v.022l-.043-.011V4.041H3.609l-.14-.032H3.48L3.469,4l.14.032" transform="translate(16.913 7.426)"/>
      <path id="Tracciato_5842" data-name="Tracciato 5842" d="M3.694,2.39a2.023,2.023,0,0,0-.172-.528V1.852A1.755,1.755,0,0,1,3.7,2.39a2.744,2.744,0,0,1,.022.42V3.2l-.011.226-.054.237-.151.5-.022.162a.323.323,0,0,0,.065.194,1.076,1.076,0,0,1,.215.463l.075.2a1.47,1.47,0,0,1,.075.312.551.551,0,0,1-.043.312H3.866a.551.551,0,0,0,.043-.312.97.97,0,0,0-.086-.3l-.065-.2a1.176,1.176,0,0,0-.2-.474.252.252,0,0,1-.086-.194L3.5,4.156l.151-.506L3.7,3.424,3.716,3.2V2.81a2.744,2.744,0,0,0-.022-.42" transform="translate(16.903 10.024)"/>
      <path id="Tracciato_5843" data-name="Tracciato 5843" d="M3.465,1.821,3.5,1.81h.011l.011.011H3.465Z" transform="translate(16.879 9.613)"/>
      <path id="Tracciato_5844" data-name="Tracciato 5844" d="M3.468,1.582l.118-.032H3.6l-.129.043Z" transform="translate(16.903 7.074)"/>
      <path id="Tracciato_5845" data-name="Tracciato 5845" d="M3.521,1.748a.359.359,0,0,0,.151.14V1.9H3.661L3.65,1.888a.343.343,0,0,1-.14-.14.373.373,0,0,1-.043-.194h.011a.373.373,0,0,0,.043.194" transform="translate(16.894 7.114)"/>
      <path id="Tracciato_5846" data-name="Tracciato 5846" d="M3.478,1.553Z" transform="translate(16.896 7.105)"/>
      <rect id="Rettangolo_441" data-name="Rettangolo 441" width="0.011" height="0.011" transform="translate(20.366 8.657)"/>
      <path id="Tracciato_5847" data-name="Tracciato 5847" d="M3.634,1.509A.188.188,0,0,1,3.5,1.5l-.054-.022.226.022-.043.011" transform="translate(16.737 6.361)" fill="#a0060a"/>
      <path id="Tracciato_5848" data-name="Tracciato 5848" d="M3.606,1.5l.086.054H3.681l-.075-.043-.118-.043H3.466l.14.032" transform="translate(16.884 6.283)"/>
      <path id="Tracciato_5849" data-name="Tracciato 5849" d="M3.7,1.564,3.616,1.51l-.151-.032.022.011H3.465V1.467l.151.043.086.043Z" transform="translate(16.874 6.264)"/>
      <path id="Tracciato_5850" data-name="Tracciato 5850" d="M3.819,2.868a1.456,1.456,0,0,0-.183-.5.559.559,0,0,0-.172-.194V2.168h.011a.5.5,0,0,1,.172.2,1.2,1.2,0,0,1,.151.366l.032.129.022.118a.957.957,0,0,0,.086.334,1.14,1.14,0,0,0,.2.248l-.065-.043L4.067,3.5a.592.592,0,0,1-.14-.183.85.85,0,0,1-.086-.334l-.022-.118" transform="translate(16.864 13.111)"/>
      <path id="Tracciato_5851" data-name="Tracciato 5851" d="M3.6,1.614s-.075.011-.108-.032l-.032-.054Z" transform="translate(16.796 6.86)" fill="#a0060a"/>
      <path id="Tracciato_5852" data-name="Tracciato 5852" d="M3.463,1.5l.151.215-.1-.086L3.463,1.5" transform="translate(16.855 6.586)" fill="#a0060a"/>
      <path id="Tracciato_5853" data-name="Tracciato 5853" d="M3.527,1.639l.1.075v.011l-.108-.086a.254.254,0,0,1-.054-.14l.011.011a.187.187,0,0,0,.054.129" transform="translate(16.845 6.576)"/>
      <path id="Tracciato_5854" data-name="Tracciato 5854" d="M3.527,1.65l.108.086H3.624l-.1-.075A.314.314,0,0,1,3.462,1.5h.011V1.51L3.462,1.5a.418.418,0,0,0,.065.151" transform="translate(16.845 6.576)"/>
      <path id="Tracciato_5855" data-name="Tracciato 5855" d="M3.728,1.679l-.065-.032-.043-.065-.032-.043c-.022-.022-.043-.032-.129-.032l.194-.022.28.323.108.1-.011.011c-.043.022-.1-.022-.118-.032L3.847,1.8l-.054-.086-.065-.032" transform="translate(16.816 6.44)" fill="#a0060a"/>
      <path id="Tracciato_5856" data-name="Tracciato 5856" d="M3.488,1.582l-.032-.043V1.528h.011l.022.054.1.032h.032a.14.14,0,0,1-.129-.032" transform="translate(16.786 6.86)"/>
      <path id="Tracciato_5857" data-name="Tracciato 5857" d="M3.457,1.528Z" transform="translate(16.796 6.86)"/>
      <path id="Tracciato_5858" data-name="Tracciato 5858" d="M3.821,1.692c-.054-.043-.086-.022-.129-.065s-.032-.075-.075-.108l-.162-.032h.032l.129.022.032.054.043.054.065.043.065.032.065.086.054.086c.022.011.075.043.118.022h.022L4.069,1.9a.145.145,0,0,1-.129-.032c-.075-.054-.054-.118-.118-.172" transform="translate(16.776 6.459)"/>
      <path id="Tracciato_5859" data-name="Tracciato 5859" d="M3.971,1.818l-.28-.323L3.5,1.516H3.454l.237-.032.28.334.118.086-.011.011Z" transform="translate(16.767 6.43)" fill="#a0060a"/>
      <path id="Tracciato_5860" data-name="Tracciato 5860" d="M3.456,1.527h0v0Z" transform="translate(16.79 6.855)"/>
      <path id="Tracciato_5861" data-name="Tracciato 5861" d="M3.456,1.539V1.528l.032.065a.135.135,0,0,0,.118.022h.011v.011H3.574l-.086-.032-.032-.054" transform="translate(16.786 6.86)"/>
      <path id="Tracciato_5862" data-name="Tracciato 5862" d="M3.466,1.537h0l-.011.011V1.537l.011-.011Z" transform="translate(16.782 6.847)"/>
      <rect id="Rettangolo_442" data-name="Rettangolo 442" width="0.008" height="0.011" transform="translate(20.238 8.374)"/>
      <path id="Tracciato_5863" data-name="Tracciato 5863" d="M3.731,1.627c.043.043.075.022.129.065s.043.118.118.172c.011.011.075.065.129.032l.011-.011L4.108,1.9l-.022.011-.118-.032-.054-.1L3.86,1.7,3.8,1.67,3.72,1.627l-.032-.043L3.656,1.53c-.032-.022-.054-.032-.2-.032l.032-.011h.011l.162.032c.043.032.022.065.075.108" transform="translate(16.737 6.459)"/>
      <path id="Tracciato_5864" data-name="Tracciato 5864" d="M3.451,1.487h0" transform="translate(16.737 6.463)"/>
      <path id="Tracciato_5865" data-name="Tracciato 5865" d="M3.731,1.484l.28.323.118.1H4.119L4,1.818a4.174,4.174,0,0,0-.28-.334l-.237.032-.032-.011.269-.022Z" transform="translate(16.737 6.43)" fill="#a0060a"/>
      <rect id="Rettangolo_443" data-name="Rettangolo 443" width="0.011" height="0.011" transform="translate(20.225 16.934)"/>
      <path id="Tracciato_5866" data-name="Tracciato 5866" d="M3.614,1.786c.032.022.075.011.129-.022h.011L3.635,1.8H3.614l-.065-.065-.1-.1.011-.086L3.5,1.528l-.011.011-.011.011-.011.086.043.043.054.043.022.032.032.032" transform="translate(16.747 6.86)"/>
      <path id="Tracciato_5867" data-name="Tracciato 5867" d="M3.461,2.22a.432.432,0,0,1,.032-.291.233.233,0,0,1,.129-.118h.043a.226.226,0,0,0-.162.118.52.52,0,0,0-.032.291l.011.032.011.032.022.226L3.5,2.586l-.011.043-.011.022a.673.673,0,0,0,.022.355l-.011.011V3.006a.707.707,0,0,1-.022-.366l.011-.022L3.493,2.6,3.5,2.511A.694.694,0,0,0,3.472,2.3V2.274L3.461,2.22" transform="translate(16.728 9.624)"/>
      <path id="Tracciato_5868" data-name="Tracciato 5868" d="M3.515,1.509,3.45,1.477h.022l.043.022c.075.032.108.022.129.011L3.7,1.5h.011l-.054.022a.219.219,0,0,1-.14-.011" transform="translate(16.728 6.361)"/>
      <path id="Tracciato_5869" data-name="Tracciato 5869" d="M3.816,1.66l.054.032.054.075.054.1.1.032h.043l.011-.022a.307.307,0,0,1,.118.118.156.156,0,0,1,0,.14.139.139,0,0,1-.162.075l-.065-.032V2.166H4.01l-.043-.151V2a.11.11,0,0,0,0,.118L4,2.177a.179.179,0,0,1-.118.022.2.2,0,0,1-.108-.043l.065-.291.011-.011-.086-.032-.022.011-.162-.215V1.606L3.568,1.6v.011a.286.286,0,0,0,.065.151l.1.086-.022.065.043.065a.133.133,0,0,0-.022.118l.032.065c-.065.032-.108.043-.14.022L3.6,2.156l-.032-.043-.054-.043-.043-.043V1.951l.022-.022.022-.011.022.065.1.032L3.665,2h.011l-.011-.011H3.655l-.14-.075V1.865L3.5,1.811l.011-.022.011-.043L3.5,1.714,3.472,1.7,3.45,1.553V1.488c.162,0,.183.011.2.032l.032.022.043.075.086.043" transform="translate(16.728 6.469)" fill="#a0060a"/>
      <path id="Tracciato_5870" data-name="Tracciato 5870" d="M3.45,1.487h0Z" transform="translate(16.726 6.46)"/>
      <path id="Tracciato_5871" data-name="Tracciato 5871" d="M3.46,1.5H3.45l.011-.011L3.5,1.5Z" transform="translate(16.725 6.459)"/>
      <path id="Tracciato_5872" data-name="Tracciato 5872" d="M3.45,1.488h0l.011.075.022.14.022.011.022.022v.043l-.011.032v.043l.011.054c0-.022-.022-.043-.011-.1l.011-.054L3.482,1.7c-.032-.032-.032-.065-.032-.14V1.488" transform="translate(16.728 6.469)"/>
      <path id="Tracciato_5873" data-name="Tracciato 5873" d="M3.449,1.477H3.46l.065.032a.338.338,0,0,0,.14.011l.054-.032h0V1.5l-.054.022-.054.011-.086-.022-.075-.032" transform="translate(16.718 6.361)"/>
      <path id="Tracciato_5874" data-name="Tracciato 5874" d="M3.449,1.5h0V1.487H3.46V1.5Z" transform="translate(16.72 6.459)"/>
      <path id="Tracciato_5875" data-name="Tracciato 5875" d="M3.481,1.7l-.032-.14V1.488H3.46v.075c0,.075,0,.118.032.14l.043.054-.022.065.011.075v.022l-.043.032v.086l.1.086.054.065.022.011H3.632L3.6,2.166l-.022-.043L3.514,2.08l-.032-.043V1.951L3.5,1.929l.011-.011V1.789l.011-.022L3.5,1.736,3.481,1.7" transform="translate(16.718 6.469)"/>
      <path id="Tracciato_5876" data-name="Tracciato 5876" d="M3.66,1.821a.526.526,0,0,0-.2.043V1.853H3.445A.637.637,0,0,1,3.66,1.81h.054l-.043.011Z" transform="translate(16.679 9.614)"/>
      <path id="Tracciato_5877" data-name="Tracciato 5877" d="M3.465,1.824h0l-.022.011.011-.011V1.814h.011Z" transform="translate(16.665 9.65)"/>
      <path id="Tracciato_5878" data-name="Tracciato 5878" d="M3.473,2.939a.905.905,0,0,0-.032-.711.863.863,0,0,1,.043.711v.011H3.473Z" transform="translate(16.64 13.697)"/>
      <path id="Tracciato_5879" data-name="Tracciato 5879" d="M3.55,1.815a.5.5,0,0,0-.1.366v.011H3.442V2.181a.468.468,0,0,1,.086-.355Z" transform="translate(16.585 9.663)"/>
      <path id="Tracciato_5880" data-name="Tracciato 5880" d="M3.97,2.427c.086-.086.14-.151.248-.14a.319.319,0,0,1,.162.075l.065.075L4.39,2.395a.352.352,0,0,0-.172-.1c-.108-.011-.162.054-.237.14a1.716,1.716,0,0,1-.312.258,2.341,2.341,0,0,1-.237.118l.011-.022a1.52,1.52,0,0,0,.226-.108H3.68l.011-.011a1.331,1.331,0,0,0,.28-.248" transform="translate(16.552 14.262)"/>
      <path id="Tracciato_5881" data-name="Tracciato 5881" d="M3.453,2.361,3.442,2.3h.022v.065l.011.022v.086a.4.4,0,0,1-.022.226l-.022.011a.367.367,0,0,0,.032-.237V2.382Z" transform="translate(16.542 14.361)"/>
      <path id="Tracciato_5882" data-name="Tracciato 5882" d="M3.426,1.524a.15.15,0,0,1,.118-.054L3.62,1.5l.054.043Z" transform="translate(16.493 6.293)" fill="#a0060a"/>
      <rect id="Rettangolo_444" data-name="Rettangolo 444" width="0.015" height="0.017" transform="translate(19.97 17.063) rotate(-44.997)"/>
      <path id="Tracciato_5883" data-name="Tracciato 5883" d="M3.544,1.473l-.118.054c.054-.054.1-.065.118-.054.054,0,.075.043.14.075H3.674L3.62,1.516l-.075-.043" transform="translate(16.493 6.29)"/>
      <path id="Tracciato_5884" data-name="Tracciato 5884" d="M3.426,1.475Z" transform="translate(16.493 6.342)" fill="#a0060a"/>
      <path id="Tracciato_5885" data-name="Tracciato 5885" d="M3.523,1.584a.184.184,0,0,1-.1-.108.236.236,0,0,0,.1.108l.129.011h.032l-.011.011-.151-.022" transform="translate(16.493 6.352)"/>
      <rect id="Rettangolo_445" data-name="Rettangolo 445" width="0.008" height="0.011" transform="translate(19.913 7.812)"/>
      <path id="Tracciato_5886" data-name="Tracciato 5886" d="M3.426,1.475Z" transform="translate(16.493 6.342)"/>
      <path id="Tracciato_5887" data-name="Tracciato 5887" d="M3.544,1.471l-.118.054c.043-.043.075-.065.118-.054l.086.032.075.054H3.684c-.065-.043-.086-.086-.14-.086" transform="translate(16.493 6.281)"/>
      <path id="Tracciato_5888" data-name="Tracciato 5888" d="M3.425,1.475Z" transform="translate(16.483 6.342)"/>
      <path id="Tracciato_5889" data-name="Tracciato 5889" d="M3.425,1.476Z" transform="translate(16.483 6.349)"/>
      <rect id="Rettangolo_446" data-name="Rettangolo 446" width="0.015" height="0.011" transform="translate(19.898 7.819) rotate(-44.997)"/>
      <line id="Linea_31" data-name="Linea 31" transform="translate(19.893 9.503)" fill="#ffe2cf"/>
      <path id="Tracciato_5890" data-name="Tracciato 5890" d="M3.423,1.589Z" transform="translate(16.464 7.455)" fill="#ffe2cf"/>
      <path id="Tracciato_5891" data-name="Tracciato 5891" d="M4.091,1.6l-.1.086-.108.14-.1.1-.108.032-.118.032L3.434,2.1H3.423V2.091h.011a.413.413,0,0,1,.118-.118.226.226,0,0,1,.129-.032l.108-.032.086-.1.108-.14.1-.086V1.6Z" transform="translate(16.464 7.416)"/>
      <path id="Tracciato_5892" data-name="Tracciato 5892" d="M4.119,1.5l.032.118-.086-.054-.151-.032H3.9l.011.011h.022l.194.075.022.011.065.086.011.108.022.1.054.022.075.022.075.075-.022.086-.108-.1-.28-.323H4.033l-.28.032H3.72l-.129-.022a.193.193,0,0,1-.1-.108l.237.022.075.032.086.022.054-.011.032-.011L4,1.644H3.99l-.226-.011-.075-.054L3.6,1.547a.165.165,0,0,0-.118.054H3.473l-.022.022-.032-.043c0-.043.054-.086.108-.108a.291.291,0,0,1,.1,0l.118.022.1-.022.118-.011a.206.206,0,0,1,.162.043" transform="translate(16.425 6.205)" fill="#a0060a"/>
      <path id="Tracciato_5893" data-name="Tracciato 5893" d="M3.422,1.642h0l.011-.011v.022Z" transform="translate(16.459 7.865)"/>
      <path id="Tracciato_5894" data-name="Tracciato 5894" d="M3.432,1.564l.032.151-.022.118H3.432l.022-.118-.032-.151Z" transform="translate(16.444 7.211)"/>
      <rect id="Rettangolo_447" data-name="Rettangolo 447" width="0.011" height="0.011" transform="translate(19.876 9.043)"/>
      <rect id="Rettangolo_448" data-name="Rettangolo 448" width="0.011" height="0.011" transform="translate(19.872 8.771)"/>
      <path id="Tracciato_5895" data-name="Tracciato 5895" d="M3.475,1.476c.022.032.043.086.1.108l.162.022H3.712l-.14-.011-.108-.108L3.432,1.5l-.011-.011h.011l.032-.011Z" transform="translate(16.444 6.352)"/>
      <path id="Tracciato_5896" data-name="Tracciato 5896" d="M3.42,1.476h.011v.011Z" transform="translate(16.439 6.354)"/>
      <path id="Tracciato_5897" data-name="Tracciato 5897" d="M3.431,1.487,3.42,1.476Z" transform="translate(16.435 6.352)"/>
      <path id="Tracciato_5898" data-name="Tracciato 5898" d="M4.161,1.623,4.118,1.5l-.151-.032a.2.2,0,0,0-.118.011l-.1.011-.118-.011a.148.148,0,0,0-.1,0c-.054.022-.108.054-.108.1l.032.054.032-.022v.011l-.032.011H3.44l-.022-.054c0-.043.065-.086.118-.1.075-.032.1.011.215.011a1.292,1.292,0,0,1,.215-.032.206.206,0,0,1,.162.043.209.209,0,0,1,.032.129Z" transform="translate(16.415 6.205)"/>
      <path id="Tracciato_5899" data-name="Tracciato 5899" d="M4.129,1.507a.17.17,0,0,1,.043.129H4.161a.209.209,0,0,0-.032-.129.259.259,0,0,0-.162-.043c-.108,0-.118.032-.215.032-.118,0-.14-.043-.215-.011-.054.022-.118.065-.118.108l.022.043-.022-.043c0-.054.065-.1.118-.118a.184.184,0,0,1,.108,0l.108.011.1-.011a.2.2,0,0,1,.118-.011.206.206,0,0,1,.162.043" transform="translate(16.415 6.191)"/>
      <path id="Tracciato_5900" data-name="Tracciato 5900" d="M3.468,1.978l.011.032.022.032H3.478a.526.526,0,0,1-.054-.323l.032-.086L3.468,1.6l.011-.011h.011l-.022.054-.032.075v.054a.356.356,0,0,0,.032.2" transform="translate(16.398 7.465)"/>
      <rect id="Rettangolo_449" data-name="Rettangolo 449" width="0.011" height="0.011" transform="translate(19.801 11.559)"/>
      <path id="Tracciato_5901" data-name="Tracciato 5901" d="M3.587,1.589,3.577,1.6H3.534L3.5,1.556l-.043-.043L3.415,1.5l.011-.011.086.011.022.011Z" transform="translate(16.388 6.506)"/>
      <path id="Tracciato_5902" data-name="Tracciato 5902" d="M3.5,2.266a.837.837,0,0,1-.075.56H3.414a.837.837,0,0,0,.075-.56Z" transform="translate(16.376 14.068)"/>
      <path id="Tracciato_5903" data-name="Tracciato 5903" d="M4.522,1.672l.086-.086.1.054A.481.481,0,0,1,5.05,2a1.974,1.974,0,0,1-.043.721A2.207,2.207,0,0,0,5,3.169a1.4,1.4,0,0,1-.043.5c-.065.215-.129.334-.215.366a.275.275,0,0,1-.162,0L4.436,4H4.382a.574.574,0,0,0-.2.043H4.167l-.054.032a.725.725,0,0,1-.183.065.734.734,0,0,1-.56-.312l.022-1.949a.515.515,0,0,1,.334-.258.4.4,0,0,1,.194.011l-.011.043-.022.075a.42.42,0,0,0,.043.334.918.918,0,0,0-.129.388.673.673,0,0,0,.043.345l.043.226a.98.98,0,0,1-.248.646V3.7H3.65A1.026,1.026,0,0,0,3.9,3.04l-.043-.226a.648.648,0,0,1-.043-.334.918.918,0,0,1,.129-.388V2.1l.011-.011a.406.406,0,0,1,.129-.108L4.2,1.941l.108-.032.1-.1.118-.14" transform="translate(15.946 7.426)" fill="#008204"/>
      <path id="Tracciato_5904" data-name="Tracciato 5904" d="M3.51,1.585l.022.032L3.51,1.607l-.043-.022L3.423,1.6l-.011-.032.011-.043L3.434,1.5h.011l.011.011.054.075" transform="translate(16.362 6.577)"/>
      <path id="Tracciato_5905" data-name="Tracciato 5905" d="M3.432,1.952,3.5,1.823h.011l-.065.129L3.422,2.1v.011L3.411,2.1a.258.258,0,0,1,.022-.151" transform="translate(16.304 9.741)"/>
      <path id="Tracciato_5906" data-name="Tracciato 5906" d="M3.5,1.9l-.011.011a.584.584,0,0,0,0,.237A.641.641,0,0,0,3.5,1.9m.14,1.087a.7.7,0,0,0-.043-.581l-.032-.065L3.5,2.223,3.486,2.19l-.011.054-.022.043a.644.644,0,0,0-.032.28l.022.129.022.1a.345.345,0,0,1-.022.215V3.02l-.011-.011a.354.354,0,0,0,.022-.215l-.022-.1-.022-.129a.609.609,0,0,1,.032-.28l.022-.054.022-.054a.57.57,0,0,1-.011-.269L3.5,1.889h.011V1.9a.531.531,0,0,1-.011.258V2.18l.011.043.065.118.032.065a.7.7,0,0,1,.043.581.983.983,0,0,1-.162.248V3.224a1.1,1.1,0,0,0,.151-.237" transform="translate(16.304 10.386)"/>
      <path id="Tracciato_5907" data-name="Tracciato 5907" d="M3.393,2.4l.022-.011h.011A.844.844,0,0,0,3.8,2.334v.011h.011a1.013,1.013,0,0,1-.323.065l-.1-.011" transform="translate(16.171 14.732)"/>
      <path id="Tracciato_5908" data-name="Tracciato 5908" d="M3.564,3.473c-.032.075-.054.162-.14.2l-.032-.011h.032a.276.276,0,0,0,.129-.194,1.976,1.976,0,0,0,.1-.743V2.654A1.075,1.075,0,0,0,3.586,2.2H3.6a.914.914,0,0,1,.075.452V2.73a2.207,2.207,0,0,1-.108.743" transform="translate(16.161 13.443)"/>
      <rect id="Rettangolo_450" data-name="Rettangolo 450" width="0.011" height="0.011" transform="translate(19.648 8.323)"/>
      <path id="Tracciato_5909" data-name="Tracciato 5909" d="M3.664,1.811l.043.022-.022-.022-.065-.075V1.714H3.61L3.6,1.725l-.011.043L3.567,1.8h.054l.043.011m.043-.075.054.011.022-.011V1.725l-.054-.054-.022-.022-.086-.011-.011.011h.043l.032.043.022.043m.506.764a.422.422,0,0,0,.14.14v.011l-.1.075-.108.151-.086.086L3.955,3l-.129.032-.118.118-.022-.032-.011-.022a.629.629,0,0,1-.043-.215l.011-.022V2.823l.032-.086L3.7,2.694V2.683l.022-.108-.032-.162.065-.022.032-.022.065-.032h.1V2.328h-.1l-.075.032-.011.011a.257.257,0,0,1-.291-.022c-.032-.022-.075-.075-.065-.118l.022-.022.022-.032V2.155l-.011-.032V2.112H3.46l.075.011.011-.011H3.535L3.47,2.1l-.065-.043.011-.032.032-.032.022-.022.032.011V1.972c-.1-.043-.108-.065-.108-.086l.032-.032.022-.011c.075-.054.108-.075.129-.118a.107.107,0,0,0,.011-.1l.022-.086.054-.065.022.011.022-.011.118.1.129.022h.022v.075l.032.14.011.022.032.032v.022l-.011.032v.043L4.052,2l-.022.022-.022.022L4,2.145l.043.043.065.043.022.043.032.022.011.011a.393.393,0,0,0,.043.194" transform="translate(16.19 6.361)" fill="#ffe2cf"/>
      <path id="Tracciato_5910" data-name="Tracciato 5910" d="M3.409,1.533l.011.011H3.4Z" transform="translate(16.221 6.912)"/>
      <path id="Tracciato_5911" data-name="Tracciato 5911" d="M3.4,3.247V3.236a.98.98,0,0,0,.248-.646L3.59,2.364a1,1,0,0,1-.043-.334.933.933,0,0,1,.14-.4v.022a.831.831,0,0,0-.129.377,1,1,0,0,0,.043.334l.054.226a1.026,1.026,0,0,1-.248.657Z" transform="translate(16.2 7.875)"/>
      <path id="Tracciato_5912" data-name="Tracciato 5912" d="M3.455,1.8c-.032-.032-.075-.086-.054-.129l.011-.022.022-.022V1.609l-.011-.043V1.534h.011v.032l.011.032V1.62l-.022.032-.011.022c-.022.043.022.1.054.118a.243.243,0,0,0,.28.032L3.767,1.8l.075-.032a.183.183,0,0,1,.108,0v.011H3.843l-.065.032-.032.022-.065.022H3.67l-.043.011A.245.245,0,0,1,3.455,1.8" transform="translate(16.195 6.918)"/>
      <path id="Tracciato_5913" data-name="Tracciato 5913" d="M3.437,1.651l-.043-.032.022-.043.032-.022.011-.032.011.011v.022l-.043.032L3.416,1.6l.065.065.065.011h.011l-.011.011-.075-.011-.011-.011-.011-.011Z" transform="translate(16.181 6.801)"/>
      <path id="Tracciato_5914" data-name="Tracciato 5914" d="M3.4,1.9c0,.011.011.043.108.086v.011L3.48,1.982V1.971l-.011-.011v.011H3.459L3.394,1.9l.043-.043.032-.022a.338.338,0,0,0,.108-.108l.011-.086.011-.1.075-.065v.011l-.054.054-.022.1-.011.086a.307.307,0,0,1-.118.118l-.032.022L3.4,1.9" transform="translate(16.181 6.352)"/>
      <path id="Tracciato_5915" data-name="Tracciato 5915" d="M3.393,2.34Z" transform="translate(16.171 14.791)"/>
      <rect id="Rettangolo_451" data-name="Rettangolo 451" width="0.028" height="0.011" transform="translate(19.559 17.113)"/>
      <path id="Tracciato_5916" data-name="Tracciato 5916" d="M3.4,2.573l.011-.054A2.65,2.65,0,0,0,3.4,2.013h.011a2.651,2.651,0,0,1,.011.506l-.011.054a.878.878,0,0,0,0,.291.73.73,0,0,0,.1.248l.162.237L3.8,3.52a2.363,2.363,0,0,1,.334,1.626l-.011.011a.316.316,0,0,1-.043.172l-.011.011a.507.507,0,0,0,.043-.183l.011-.011a2.322,2.322,0,0,0-.334-1.615L3.66,3.359,3.5,3.111a.912.912,0,0,1-.1-.248L3.391,2.81,3.4,2.573" transform="translate(16.151 11.597)"/>
      <path id="Tracciato_5917" data-name="Tracciato 5917" d="M3.381,1.858A.513.513,0,0,1,3.725,1.6a.485.485,0,0,1,.215,0l-.011.022a.3.3,0,0,0-.194-.011.507.507,0,0,0-.345.248l-.011,1.96c.2.215.388.323.56.3a.53.53,0,0,0,.183-.065l.054-.022-.011.011-.032.022a.588.588,0,0,1-.194.065H3.865V4.119l-.011.011a.8.8,0,0,1-.474-.3V3.817H3.37Z" transform="translate(15.946 7.434)"/>
      <rect id="Rettangolo_452" data-name="Rettangolo 452" width="0.015" height="0.011" transform="translate(19.311 11.252)"/>
      <path id="Tracciato_5918" data-name="Tracciato 5918" d="M3.866,7.662v.011L3.8,7.651c-.086-.022-.388-.108-.452-.345a.409.409,0,0,1,.032-.248,4.187,4.187,0,0,0,.388-1.723A4.119,4.119,0,0,0,3.64,4.249L3.629,1.794l.011.022.011,2.433a3.8,3.8,0,0,1,.118.7c.011.129.011.258.011.388a4.187,4.187,0,0,1-.388,1.723.372.372,0,0,0-.022.237c.054.237.345.323.431.345l.075.011Z" transform="translate(15.687 9.458)"/>
      <path id="Tracciato_5919" data-name="Tracciato 5919" d="M4.249,1.652v.022l-.151.14-.022.022-.022.022-.011.011-.054.054a.5.5,0,0,1-.183.1L3.8,2.029a1.31,1.31,0,0,1,0,.614l-.011.022v.022a1.617,1.617,0,0,0-.075.377,1.3,1.3,0,0,0,0,.2v.011h.011a.357.357,0,0,1,.172-.054l.1-.011h.022v.5a.467.467,0,0,1-.291.022H3.7L3.538,3.7l-.054.011h-.1l-.129-.022-.022-.108.011-.258.011-.011a.913.913,0,0,0,0-.172l-.011-.118a1.824,1.824,0,0,1,.226-.592h.011L3.5,2.406l.011-.032a.747.747,0,0,0,.118-.312l.011-.086v-.1l.032-.129.043-.043V1.695l.054-.054V1.63l.054-.043.054-.075.022.022v.043l-.022.032-.054.054-.011.022H3.8v.011l.022-.011.011-.011.043-.043L3.894,1.6l.032-.022.022-.011L4,1.533l.043-.022.032-.032L4.1,1.469l.011-.011h.054l.011.022-.011.011H4.152L4.141,1.5l-.022.011-.011.011L4.1,1.533l-.022.022-.022.011-.022.011-.022.011L4,1.6l-.011.011-.022.011-.011.011-.011.011h.011v.011l.011-.011H3.98l.011-.011L4,1.62l.022-.011.022-.022.011-.011.022-.011L4.1,1.555l.022-.022h.011l.011-.022L4.163,1.5l.011-.011h.043l.022.011-.022.032v.011l-.011.011-.032.011-.054.043L4.1,1.63l-.054.032-.022.011L4,1.684l-.011.011v.011H4l.011-.011.043-.022.032-.022L4.12,1.62l.043-.032L4.2,1.576l.022-.022h.011l.022.011v.022l-.011.022-.022.011-.172.14V1.77h.011l.011-.011.011-.011.14-.108Z" transform="translate(14.647 6.176)" fill="#ffe2cf"/>
      <path id="Tracciato_5920" data-name="Tracciato 5920" d="M4.269,1.521l-.011.043.022.022v.032l-.032.032.032.022v.043l-.151.129-.043.043L4.075,1.9l-.054.054a.827.827,0,0,1-.194.108,1.31,1.31,0,0,1,0,.614L3.816,2.7v.011a2.236,2.236,0,0,0-.075.377,1.165,1.165,0,0,0,0,.194l.172-.054h.129v.517H4.032l-.2.032-.1-.011H3.709l-.151-.032H3.5l-.011.011H3.407l-.14-.022-.032-.118c0-.118.022-.215.022-.258V3.34l.011-.172L3.257,3.05a1.373,1.373,0,0,1,.226-.592V2.447L3.5,2.425l.011-.032a.93.93,0,0,0,.118-.312V2.005l.011-.022V1.908l.032-.129.043-.054V1.714l.054-.054.011-.011.043-.043.054-.075.043.022v.054l.194-.129.065-.022L4.2,1.5h.043l.022.022m0,.183V1.682l-.032-.022-.129.108-.022.022H4.064l.172-.14.011-.011.022-.022V1.6l-.022-.022-.011.011L4.215,1.6l-.022.022-.032.022-.043.032L4.064,1.7l-.022.022-.022.011H4.01V1.725l.011-.011L4.032,1.7l.032-.022L4.1,1.661l.043-.032.043-.022.032-.022.022-.022.022-.022-.011-.022H4.193l-.011.011-.011.011-.022.011-.011.011-.022.011L4.1,1.585l-.022.022-.011.011-.022.011-.011.011-.022.022H4l-.011.011H3.967l.011-.011.011-.011L4,1.639l.022-.011.011-.011.022-.011L4.064,1.6l.022-.011.022-.022.011-.011.022-.011.022-.011V1.521l.022-.011h.011l-.011-.032-.054.011H4.118L4.1,1.51l-.022.022-.043.022L4,1.585l-.054.022-.022.022L3.9,1.65l-.043.032L3.838,1.7l-.011.022H3.816V1.7l.022-.011.054-.054.022-.032V1.564l-.022-.022-.065.075-.043.043v.011l-.054.054-.043.054-.032.129v.075l-.011.022V2.08a.7.7,0,0,1-.118.312l-.011.022L3.5,2.447l-.011.011a1.824,1.824,0,0,0-.226.592l.011.118a.512.512,0,0,1-.011.172v.011a1.532,1.532,0,0,0-.011.258l.022.108.129.022.086-.011h.043a.48.48,0,0,1,.172.032H3.73a.608.608,0,0,0,.3-.022v-.5H3.913L3.741,3.3H3.73a1.438,1.438,0,0,1,0-.215A1.617,1.617,0,0,1,3.806,2.7l.011-.032a1.47,1.47,0,0,0,0-.614l.011-.011.183-.108.054-.054h.011l.011-.011.032-.032.151-.14" transform="translate(14.628 6.156)"/>
      <path id="Tracciato_5921" data-name="Tracciato 5921" d="M3.421,4.49l-.054.032-.022-.011V4.274l.043-.1V4.167H3.378l-.043.108v.237l-.011.022-.032.022-.043-.043v-.4l.14-.162.086-.129L3.486,3.8c.065-.108.162-.129.28-.172l.14-.054a.5.5,0,0,0,.237-.151A1.884,1.884,0,0,1,4.5,3.154a2.99,2.99,0,0,1,.42-.2,2.838,2.838,0,0,1,.323-.108h.011a4.259,4.259,0,0,1,.162-.485,1.429,1.429,0,0,1,.3-.506c.075-.086.194-.226.269-.2.043.011.075.086.1.194a1.394,1.394,0,0,1-.032.506,1.361,1.361,0,0,1-.118.312,1.453,1.453,0,0,0-.151.334.416.416,0,0,1-.151.215.227.227,0,0,1-.14.054H5.478a1.5,1.5,0,0,1-.7.355l-.6.151a.484.484,0,0,0-.258.129l-.043.054L3.8,4.059l-.075.086-.065.1L3.647,4.3l-.011.1-.054.065-.054-.011.011-.129.043-.075.011-.022V4.21H3.583l-.011.022-.043.086-.011.129-.043.065L3.432,4.49V4.274l.032-.065L3.5,4.177l-.011-.011L3.454,4.2l-.032.075V4.49Z" transform="translate(14.764 8)" fill="#ffe2cf"/>
      <path id="Tracciato_5922" data-name="Tracciato 5922" d="M3.4,3.952l.075-.118L3.495,3.8c.054-.1.162-.129.28-.172l.14-.054a.5.5,0,0,0,.237-.151,1.884,1.884,0,0,1,.355-.269,3.7,3.7,0,0,1,.42-.2,1.842,1.842,0,0,1,.323-.1,3.209,3.209,0,0,1,.172-.485,1.933,1.933,0,0,1,.291-.517c.086-.1.2-.237.291-.2.043.022.075.086.1.2a1.034,1.034,0,0,1-.032.506.724.724,0,0,1-.118.312A2.123,2.123,0,0,0,5.8,3a.376.376,0,0,1-.14.226.41.41,0,0,1-.162.054,1.481,1.481,0,0,1-.711.355l-.6.151a.5.5,0,0,0-.248.129L3.9,3.974l-.075.1-.086.1-.054.086-.011.032L3.656,4.4,3.6,4.48H3.548l-.054.054-.054-.022-.054.032-.032-.011-.022.032-.022.011H3.29l-.043-.054.011-.4V4.114a.688.688,0,0,0,.14-.162m-.011.581L3.441,4.5,3.43,4.394V4.286l.032-.075.043-.032.011.011H3.505l-.022.022-.043.075.011.108V4.5l.043.022.043-.065V4.329l.043-.086.011-.011L3.6,4.222h.011l-.022.032-.032.075-.011.129.043.011L3.645,4.4l.022-.1.011-.054.054-.1.086-.086.075-.108.043-.054a.5.5,0,0,1,.248-.129l.6-.151A1.58,1.58,0,0,0,5.5,3.274a.257.257,0,0,0,.151-.054A.387.387,0,0,0,5.788,3a2.177,2.177,0,0,1,.151-.334,1,1,0,0,0,.118-.312,1.182,1.182,0,0,0,.032-.506C6.068,1.745,6.036,1.67,6,1.659c-.086-.022-.2.118-.28.2a1.817,1.817,0,0,0-.291.506,4.347,4.347,0,0,0-.172.485,3.027,3.027,0,0,0-.334.108,2.9,2.9,0,0,0-.409.2,1.564,1.564,0,0,0-.355.269.7.7,0,0,1-.237.162l-.14.043c-.129.043-.226.075-.28.172l-.022.022-.075.129-.14.162-.011.4.022.043.043-.011.022-.032V4.286A.133.133,0,0,1,3.4,4.179h.011l-.054.108v.237Z" transform="translate(14.745 7.988)"/>
    </g>
  </g>
</svg>
