<svg xmlns="http://www.w3.org/2000/svg" xmlns:xlink="http://www.w3.org/1999/xlink" width="24" height="24" viewBox="0 0 24 24">
  <defs>
    <clipPath id="clip-path">
      <path id="Tracciato_5974" data-name="Tracciato 5974" d="M.379,12.749a12,12,0,1,0,12-12,12,12,0,0,0-12,12" transform="translate(-0.379 -0.749)" fill="none"/>
    </clipPath>
  </defs>
  <g id="Papua_Nuova_Guinea_" data-name="Papua Nuova Guinea " transform="translate(-0.379 -0.749)">
    <g id="Raggruppa_204" data-name="Raggruppa 204" transform="translate(0.379 0.749)" clip-path="url(#clip-path)">
      <rect id="Rettangolo_472" data-name="Rettangolo 472" width="32.147" height="24.108" transform="translate(-4.079 -0.043)"/>
      <path id="Tracciato_5967" data-name="Tracciato 5967" d="M32.147,24.862,0,.744H32.147Z" transform="translate(-4.076 -0.802)" fill="#ce111a"/>
      <path id="Tracciato_5968" data-name="Tracciato 5968" d="M8.056,2.06a.358.358,0,0,1,.237.011c.065.022.075.054.054.108l-.14.194L8.1,2.522c-.011.043,0,.075.043.075l.161.011c.108.043.129.086.043.172s-.2.129-.258.2.011.1.054.129l.086.065c.194.151-.377.56-.474.646l-.065.108a2.639,2.639,0,0,1,2.454-.043l.011.022L9.9,4.018l-.118.054a.058.058,0,0,0,0,.108,3.745,3.745,0,0,1,.549.366c.108.075.2.161.3.237l.2.2-.011.043-.183.032v.032c.1.043.226.237.269.28a7.034,7.034,0,0,1,.635.958l.032.065L11.4,6.343l-.022.032a3.884,3.884,0,0,1,.366.9.839.839,0,0,1,.043.237V7.57l-.065-.011c-.129-.086-.248-.194-.366-.28L11.253,7.2,11.2,7.193v.054l.054.161.054.172v.075l-.075-.011-.172-.118-.065-.043.011.086.065.1a2.249,2.249,0,0,1,.484,1.152,3.266,3.266,0,0,1,.065.452l.032.1a3.342,3.342,0,0,1,.549,1.152,2.186,2.186,0,0,1-.161,1.625,1.571,1.571,0,0,1-1.184.85,1.8,1.8,0,0,1-.926-.065l-.151-.086.011-.022.28.011a2.276,2.276,0,0,0,.969-.215,1.336,1.336,0,0,0,.732-.883,2.445,2.445,0,0,0-.151-1.722h-.032l-.011.075a1.824,1.824,0,0,1-1.345,1.4,1.465,1.465,0,0,1-1.485-.377l-.032-.043c.129.032.248.075.377.1a1.667,1.667,0,0,0,1.83-.721,2,2,0,0,0,.355-.979.188.188,0,0,0-.043-.129,7.094,7.094,0,0,0-1.184-1.291c-.183-.161-.366-.323-.56-.474l-.022.1a.1.1,0,0,1-.129.065A2.07,2.07,0,0,1,9.068,7.6l-.344-.194-.108-.043c-.054-.022-.065.011-.054.065l.054.2.108.334v.075l-.075-.011-.043-.022h-.1v.1a1.1,1.1,0,0,0,.151.237c.14.194.3.377.452.57l.032.075h-.1l-.129-.022-.032.043.054.118c.118.2.258.387.387.581l.1.151.022.054H9.391l-.258-.1L9,9.776c.075.2.215.355.28.56l-.237-.075A4.406,4.406,0,0,1,7.465,9.238l-.258-.269-.065-.032L7.12,9l.011.194a.054.054,0,0,1-.075.054c-.086-.054-.161-.118-.248-.183A2.63,2.63,0,0,1,6.5,8.775l-.043-.022-.011.054v.065l.011.215L6.421,9.2c-.043.011-.065-.022-.1-.043a9.964,9.964,0,0,1-.947-.839,1.676,1.676,0,0,1-.474-1.1L4.871,6.9l-.043.043a5.478,5.478,0,0,1-.5.624L4.268,7.6l-.011-.065.032-.377-.011-.075c-.011-.043-.032-.054-.075-.022l-.118.108c-.151.14-.3.28-.441.42l-.054.022-.011-.054.043-.3c.011-.043.032-.1-.011-.118s-.075.022-.108.043a4.433,4.433,0,0,0-.4.377l-.065.054-.075.043c-.043-.022-.032-.065-.032-.1a.516.516,0,0,1,.054-.248l.022-.086-.065-.043L2.9,7.215l-.269.237-.086.043-.011-.1L2.578,7.2V7.118l-.086.011c-.161.075-.291.194-.441.28l-.108.032c-.043-.032,0-.075.022-.118l.065-.183.011-.011a.04.04,0,0,0-.065-.043l-.022.022L1.664,7.4l-.1.075H1.524l-.011-.032.032-.086A7.83,7.83,0,0,1,2.277,6a3.016,3.016,0,0,1,.657-.678,1.2,1.2,0,0,1,1.238-.14l.538.226a.53.53,0,0,0,.183.065.24.24,0,0,0,.269-.108.243.243,0,0,0-.011-.3.836.836,0,0,0-.323-.248,2.841,2.841,0,0,0-.409-.194A.438.438,0,0,1,4.2,4.47a.538.538,0,0,0-.258-.2l-.6-.258L3.2,3.954,3.213,3.9c.1.011.215.043.28.043l.43.065a1.017,1.017,0,0,0,.4-.032,2.21,2.21,0,0,1,.463-.1.434.434,0,0,1,.366.161,1.962,1.962,0,0,0,.732.527c.2.1.291-.011.355-.151A1.143,1.143,0,0,0,6.3,3.685a1.856,1.856,0,0,1,.172-1.27,2.762,2.762,0,0,1,.549-.678,4.271,4.271,0,0,1,.9-.667A.721.721,0,0,1,8.121.994c.043-.022.086.011.075.065a.733.733,0,0,1-.108.226c-.054.108-.108.215-.172.323l-.011.065H7.97l.108-.022c.075,0,.086.022.075.086L8.1,1.9l-.054.151V2.07l.011-.011M11.2,8.786V8.732a3.27,3.27,0,0,0-.786-1.41c-.075-.086-.075-.086-.108.032l-.022.032c-.022.075-.065.086-.129.065L10,7.387l-.42-.2c-.032-.011-.075-.032-.1.022a.079.079,0,0,0,.032.108,9.683,9.683,0,0,1,1.356,1.13l.323.344" transform="translate(10.691 1.578)" fill="#fbd016"/>
      <path id="Tracciato_5969" data-name="Tracciato 5969" d="M2.213,1.441l.377,1.173H3.827l-1,.721.387,1.173-1-.721-.99.721L1.6,3.336l-1-.721H1.836Z" transform="translate(1.762 6.01)" fill="#fff"/>
      <path id="Tracciato_5970" data-name="Tracciato 5970" d="M1.869,1.88l.377,1.173H3.483l-1,.721L2.87,4.947l-1-.721-.99.721.377-1.173-1-.721H1.492Z" transform="translate(-1.592 10.29)" fill="#fff"/>
      <path id="Tracciato_5971" data-name="Tracciato 5971" d="M2.555,1.849l.377,1.173H4.17l-1,.721.377,1.173L2.555,4.2l-1,.721.387-1.173-1-.721H2.178Z" transform="translate(5.105 9.989)" fill="#fff"/>
      <path id="Tracciato_5972" data-name="Tracciato 5972" d="M2.213,2.469l.377,1.173H3.827l-1,.721.387,1.173-1-.721-.99.721L1.6,4.363l-1-.721H1.836Z" transform="translate(1.762 16.044)" fill="#fff"/>
      <path id="Tracciato_5973" data-name="Tracciato 5973" d="M1.624,2.232l.183.581h.613l-.5.355.194.581-.5-.355-.5.355.194-.581-.5-.355h.6Z" transform="translate(4.003 13.726)" fill="#fff"/>
    </g>
  </g>
</svg>
