<svg xmlns="http://www.w3.org/2000/svg" xmlns:xlink="http://www.w3.org/1999/xlink" width="24" height="24.011" viewBox="0 0 24 24.011">
  <defs>
    <clipPath id="clip-path">
      <path id="Tracciato_6543" data-name="Tracciato 6543" d="M.558,12.754A12,12,0,1,0,12.553.749,12,12,0,0,0,.558,12.754" transform="translate(-0.558 -0.749)" fill="none"/>
    </clipPath>
  </defs>
  <g id="Polinesia_Francese" data-name="Polinesia Francese" transform="translate(-0.558 -0.749)">
    <g id="Raggruppa_207" data-name="Raggruppa 207" transform="translate(0.558 0.749)" clip-path="url(#clip-path)">
      <rect id="Rettangolo_479" data-name="Rettangolo 479" width="36.016" height="24.011" transform="translate(-6.008 0)" fill="#f00022"/>
      <rect id="Rettangolo_480" data-name="Rettangolo 480" width="36.016" height="12.016" transform="translate(-6.008 5.997)" fill="#fff"/>
      <path id="Tracciato_6499" data-name="Tracciato 6499" d="M1.858,2.875c.14-.5.291-.991.431-1.486.194.054.409.118.635.2s.409.183.581.269C2.913,2.929,2.321,4.005,1.729,5.071l.129-2.2" transform="translate(10.879 5.502)" fill="orange"/>
      <path id="Tracciato_6500" data-name="Tracciato 6500" d="M1.732,4.724C2.41,3.637,3.1,2.549,3.778,1.451a3.24,3.24,0,0,1,.528.355,4.259,4.259,0,0,1,.441.42c-.98.958-1.96,1.906-2.939,2.853-.022-.118-.043-.237-.075-.355" transform="translate(10.909 6.108)" fill="orange"/>
      <path id="Tracciato_6501" data-name="Tracciato 6501" d="M1.765,4.169C2.809,3.3,3.853,2.414,4.9,1.553a5.449,5.449,0,0,1,.388.474,2.3,2.3,0,0,1,.258.517L1.743,4.4l.022-.226" transform="translate(11.016 7.104)" fill="orange"/>
      <path id="Tracciato_6502" data-name="Tracciato 6502" d="M1.825,3.23C3.063,2.714,4.312,2.2,5.561,1.68c.075.172.151.388.226.624a5.728,5.728,0,0,1,.14.635c-1.389.162-2.778.323-4.167.5l.065-.2" transform="translate(11.182 8.344)" fill="orange"/>
      <path id="Tracciato_6503" data-name="Tracciato 6503" d="M1.824,2.049c1.335-.075,2.659-.151,3.995-.215a5.35,5.35,0,0,1,.032.624,4.158,4.158,0,0,1-.065.581c-1.335-.011-2.681-.032-4.016-.054.022-.312.032-.624.054-.937" transform="translate(11.28 9.848)" fill="orange"/>
      <path id="Tracciato_6504" data-name="Tracciato 6504" d="M3.093,2.875c-.14-.5-.291-.991-.431-1.486a6,6,0,0,0-.624.2,6.315,6.315,0,0,0-.592.269C2.038,2.929,2.63,4.005,3.223,5.071l-.129-2.2" transform="translate(8.115 5.502)" fill="orange"/>
      <path id="Tracciato_6505" data-name="Tracciato 6505" d="M4.343,4.724C3.664,3.637,2.986,2.549,2.3,1.451a3.781,3.781,0,0,0-.528.355,3.387,3.387,0,0,0-.441.42c.98.958,1.96,1.906,2.929,2.853l.086-.355" transform="translate(6.963 6.108)" fill="orange"/>
      <path id="Tracciato_6506" data-name="Tracciato 6506" d="M5.033,4.169C3.989,3.3,2.944,2.414,1.9,1.553a2.629,2.629,0,0,0-.4.474,2.874,2.874,0,0,0-.258.517c1.271.614,2.53,1.238,3.8,1.852l-.011-.226" transform="translate(6.133 7.104)" fill="orange"/>
      <path id="Tracciato_6507" data-name="Tracciato 6507" d="M5.3,3.23C4.046,2.714,2.808,2.2,1.559,1.68c-.075.172-.151.388-.226.624a5.729,5.729,0,0,0-.14.635c1.389.162,2.778.323,4.167.5L5.3,3.23" transform="translate(5.644 8.344)" fill="orange"/>
      <path id="Tracciato_6508" data-name="Tracciato 6508" d="M5.218,2.049C3.883,1.974,2.558,1.9,1.223,1.834a5.35,5.35,0,0,0-.032.624c.011.215.032.42.054.581,1.346-.011,2.681-.032,4.027-.054-.022-.312-.032-.624-.054-.937" transform="translate(5.625 9.848)" fill="orange"/>
      <path id="Tracciato_6509" data-name="Tracciato 6509" d="M1.479,2.7a5.149,5.149,0,0,0,2.046.463,5.046,5.046,0,0,0,2.1-.463,1.326,1.326,0,0,0-.937-.366c-.528.011-.678.452-1.163.431-.452-.032-.56-.431-1.023-.485a1.412,1.412,0,0,0-1.023.42" transform="translate(8.438 14.151)" fill="#002fa0"/>
      <path id="Tracciato_6510" data-name="Tracciato 6510" d="M1.773,2.942H7.749l.183-.129.14-.118c.022-.129-.56-.549-1.2-.5-.5.032-.528.312-1,.334-.528.022-.592-.312-1.141-.3-.528,0-.571.312-1.087.312s-.624-.3-1.131-.334A1.751,1.751,0,0,0,1.353,2.6l.226.183.194.162" transform="translate(7.207 13.37)" fill="#002fa0"/>
      <path id="Tracciato_6511" data-name="Tracciato 6511" d="M1.564,2.892c-.118-.14-.194-.248-.28-.366a1.152,1.152,0,0,1,.8-.409c.474,0,.6.431,1.077.441s.549-.4,1.066-.409c.485-.011.549.377,1.066.409.571.032.689-.431,1.26-.4.5.043.528.4.991.4.528.011.689-.431,1.184-.42a1.228,1.228,0,0,1,.84.452l-.129.172-.129.151C6.721,2.9,4.148,2.9,1.564,2.892" transform="translate(6.533 12.602)" fill="#002fa0"/>
      <path id="Tracciato_6512" data-name="Tracciato 6512" d="M1.575,2.71a1.1,1.1,0,0,1,.98-.657,1.129,1.129,0,0,1,.991.657c-.668-.022-1.3.022-1.97,0" transform="translate(9.375 11.977)" fill="#002fa0"/>
      <path id="Tracciato_6513" data-name="Tracciato 6513" d="M1.574,2.4a1.273,1.273,0,0,1,.98-.4,1.285,1.285,0,0,1,.991.4c-.668-.011-1.3.011-1.97,0" transform="translate(9.365 11.469)" fill="#002fa0"/>
      <path id="Tracciato_6514" data-name="Tracciato 6514" d="M1.854,2.729c.829-.011,1.669-.022,2.5-.043l.1-.172.1-.194A.652.652,0,0,0,4.1,2.051c-.323-.022-.485.345-.84.366A.789.789,0,0,1,2.6,2.094c-.248.215-.5.42-.743.635" transform="translate(12.1 11.957)" fill="#002fa0"/>
      <path id="Tracciato_6515" data-name="Tracciato 6515" d="M1.917,2.658c.732,0,1.454,0,2.186-.011l.086-.269.086-.291-.1-.075a.769.769,0,0,1-.528.377c-.366.043-.56-.366-1.023-.409a1.059,1.059,0,0,0-.678.183l-.032.5" transform="translate(12.716 11.221)" fill="#002fa0"/>
      <path id="Tracciato_6516" data-name="Tracciato 6516" d="M3.929,2.729c-.829-.011-1.669-.022-2.5-.043l-.1-.172-.1-.194a.652.652,0,0,1,.441-.269c.323-.022.485.345.84.366a.789.789,0,0,0,.668-.323c.248.215.5.42.743.635" transform="translate(6.074 11.957)" fill="#002fa0"/>
      <path id="Tracciato_6517" data-name="Tracciato 6517" d="M3.563,2.658c-.732,0-1.454,0-2.186-.011l-.086-.269L1.2,2.088l.1-.075a.75.75,0,0,0,.528.377c.366.043.56-.366,1.012-.409a1.072,1.072,0,0,1,.689.183l.032.5" transform="translate(5.761 11.221)" fill="#002fa0"/>
      <path id="Tracciato_6518" data-name="Tracciato 6518" d="M7.482,5.015l-.075-.043.022-.022a.265.265,0,0,0,.129-.226.234.234,0,0,0-.14-.183.265.265,0,0,0,.151-.183.239.239,0,0,0-.14-.226L7.4,4.111l.054-.086A.117.117,0,0,0,7.5,3.9a.127.127,0,0,0-.1-.1L7.03,3.777a1.242,1.242,0,0,0-.269.022.159.159,0,0,0-.1.108.124.124,0,0,0,.065.118l.162.129-.054.022c-.065.043-.172.086-.172.2a.212.212,0,0,0,.14.183c-.065.043-.151.1-.151.194s.1.162.162.194l.022.022-.075.054a.133.133,0,0,0-.054.108V6.2H5.565l.043-2.8-.043-.1L5.49,3.282H5.458L5.307,3.3a.726.726,0,0,1-.581-.355.736.736,0,0,1,.14-1,.885.885,0,0,1,.506-.183.126.126,0,0,0,.118-.1.117.117,0,0,0-.075-.129,1.7,1.7,0,0,0-.743-.172,1.482,1.482,0,0,0-.6.129,1.664,1.664,0,0,0-.668.528L3.38,2.1l.065,4.1H2.26V5.134a.133.133,0,0,0-.054-.108l-.075-.054.032-.022c.054-.032.151-.086.151-.194s-.086-.151-.151-.194A.212.212,0,0,0,2.3,4.38c0-.118-.108-.162-.172-.2l-.054-.022.172-.129A.139.139,0,0,0,2.3,3.906a.1.1,0,0,0-.086-.1.7.7,0,0,0-.28-.032L1.571,3.8a.126.126,0,0,0-.108.1.117.117,0,0,0,.054.129l.054.086-.032.022a.218.218,0,0,0-.129.226.253.253,0,0,0,.14.183.206.206,0,0,0-.129.183.259.259,0,0,0,.118.226l.022.011L1.5,5.015a.119.119,0,0,0-.118.118l.065,3a1.393,1.393,0,0,0,.775,1.238,1.191,1.191,0,0,0,.538.118,1.251,1.251,0,0,0,.452-.086A1.474,1.474,0,0,0,4.09,8.041L4.08,8h.808l-.011.043a1.491,1.491,0,0,0,.883,1.367,1.284,1.284,0,0,0,1-.032,1.384,1.384,0,0,0,.764-1.238l.065-3a.118.118,0,0,0-.108-.118M3.218,8.342l-.162.011a1.282,1.282,0,0,1-.8-.334V8H3.843a1.119,1.119,0,0,1-.624.345m2.692.011-.151-.011A1.117,1.117,0,0,1,5.124,8H6.707v.022a1.252,1.252,0,0,1-.8.334" transform="translate(7.441 5.268)" fill="#fff"/>
      <path id="Tracciato_6519" data-name="Tracciato 6519" d="M3.438,1.529a1.617,1.617,0,0,0-1.249-.043,1.627,1.627,0,0,0-.614.5c.011,1.2.011,2.4.022,3.6.646.14,1.281.269,1.927.409l.032-2.7A.774.774,0,0,1,2.706,2.9a.831.831,0,0,1,.162-1.163,1.017,1.017,0,0,1,.571-.2" transform="translate(9.375 5.384)" fill="#f00822"/>
      <path id="Tracciato_6520" data-name="Tracciato 6520" d="M3.562,6.068H3.551L1.624,5.659l-.032-.043L1.57,2.02l.011-.032a1.588,1.588,0,0,1,.635-.5,1.463,1.463,0,0,1,.571-.118,1.622,1.622,0,0,1,.711.162l.032.043-.054.032a.919.919,0,0,0-.549.194.788.788,0,0,0-.14,1.109.762.762,0,0,0,.808.377h.043v.032L3.6,6.025l-.011.022-.032.022M1.688,5.584l1.841.388.032-2.595a.839.839,0,0,1-.851-.42A.872.872,0,0,1,2.873,1.74a.975.975,0,0,1,.441-.194,1.68,1.68,0,0,0-.528-.086,1.3,1.3,0,0,0-.538.108,1.369,1.369,0,0,0-.592.463Z" transform="translate(9.326 5.355)" fill="#740308"/>
      <path id="Tracciato_6521" data-name="Tracciato 6521" d="M2.067,1.625a1.558,1.558,0,0,0-.6,0,.244.244,0,0,1,.118.2c-.011.1-.183.118-.172.215s.194.1.194.2-.172.086-.183.183c-.011.118.172.14.151.237a.2.2,0,0,1-.183.162l.065,3a1.262,1.262,0,0,0,.7,1.141A1.258,1.258,0,0,0,3.047,7a1.346,1.346,0,0,0,.808-1.26,1.244,1.244,0,0,1-.732.431,1.313,1.313,0,0,1-1.1-.4V2.841c-.075-.054-.162-.118-.151-.183.011-.1.2-.118.2-.194s-.215-.118-.215-.2.2-.1.2-.172-.226-.108-.237-.2.237-.258.237-.258" transform="translate(7.559 7.57)" fill="#f00822"/>
      <path id="Tracciato_6522" data-name="Tracciato 6522" d="M2.688,7.152a1.215,1.215,0,0,1-.517-.108A1.285,1.285,0,0,1,1.46,5.881l-.075-3,.043-.043a.161.161,0,0,0,.151-.129L1.525,2.63c-.054-.032-.108-.075-.1-.151s.065-.108.108-.14L1.6,2.285,1.536,2.22a.163.163,0,0,1-.118-.129c-.011-.075.043-.118.1-.151l.065-.065A.2.2,0,0,0,1.493,1.7l-.022-.043L1.5,1.628A2.283,2.283,0,0,1,1.859,1.6a.731.731,0,0,1,.258.032l.032.032L2.128,1.7c-.086.054-.226.162-.215.215l.108.075c.065.032.14.065.129.129s-.065.1-.118.129l-.086.054.086.065c.054.032.129.065.129.129s-.065.1-.118.129l-.086.075s.011.054.129.14l.022.032V5.8a1.31,1.31,0,0,0,.883.388l.162-.022a1.159,1.159,0,0,0,.711-.409L3.9,5.741l.032.043a1.41,1.41,0,0,1-.829,1.292,1.116,1.116,0,0,1-.42.075M1.471,2.91l.065,2.972A1.2,1.2,0,0,0,2.2,6.969a1.111,1.111,0,0,0,.485.108A1.181,1.181,0,0,0,3.075,7a1.285,1.285,0,0,0,.775-1.109,1.266,1.266,0,0,1-.678.355l-.183.011a1.4,1.4,0,0,1-.948-.42l-.011-.032V2.9c-.108-.065-.162-.14-.151-.2s.075-.108.129-.14L2.074,2.5l-.086-.065c-.054-.032-.118-.065-.118-.129s.065-.1.129-.129l.075-.054L1.988,2.07c-.065-.032-.151-.065-.162-.14s.1-.183.172-.248h-.14L1.6,1.693a.292.292,0,0,1,.065.183c0,.065-.065.108-.108.129l-.065.075.086.075a.154.154,0,0,1,.108.14c0,.065-.065.1-.108.118L1.5,2.479l.065.086c.054.032.108.075.1.151a.255.255,0,0,1-.194.194" transform="translate(7.519 7.524)" fill="#740308"/>
      <path id="Tracciato_6523" data-name="Tracciato 6523" d="M3.5,1.625a1.558,1.558,0,0,1,.6,0,.244.244,0,0,0-.118.2c.011.1.183.118.172.215s-.194.1-.194.2.172.086.183.183c.011.118-.172.14-.151.237a.2.2,0,0,0,.183.162l-.065,3a1.262,1.262,0,0,1-.7,1.141A1.267,1.267,0,0,1,2.522,7a1.346,1.346,0,0,1-.808-1.26,1.207,1.207,0,0,0,.743.431,1.3,1.3,0,0,0,1.087-.4V2.841c.075-.054.162-.118.151-.183-.022-.1-.2-.118-.2-.194s.215-.118.215-.2-.2-.1-.2-.172.226-.108.237-.2S3.5,1.625,3.5,1.625" transform="translate(10.733 7.57)" fill="#f00822"/>
      <path id="Tracciato_6524" data-name="Tracciato 6524" d="M2.959,7.153a1.116,1.116,0,0,1-.42-.075A1.393,1.393,0,0,1,1.71,5.785l.022-.043.054.011a1.159,1.159,0,0,0,.711.409l.162.011A1.369,1.369,0,0,0,3.54,5.8V2.878l.011-.032c.129-.086.14-.129.14-.129-.011-.043-.054-.065-.086-.086-.054-.032-.118-.065-.118-.129s.065-.108.129-.14L3.7,2.308l-.086-.065c-.054-.022-.118-.054-.118-.118s.065-.1.129-.129l.108-.075c.011-.054-.129-.172-.215-.226L3.5,1.662l.022-.032A.846.846,0,0,1,3.788,1.6l.355.022.032.032-.022.043a.2.2,0,0,0-.086.172l.065.075c.043.032.108.065.1.151a.181.181,0,0,1-.118.129l-.065.065.065.054c.043.032.108.054.108.129a.167.167,0,0,1-.1.162l-.054.075a.174.174,0,0,0,.151.129l.043.043-.075,3a1.285,1.285,0,0,1-.711,1.163,1.266,1.266,0,0,1-.517.108M1.8,5.893A1.3,1.3,0,0,0,2.571,7a1.126,1.126,0,0,0,.388.065,1.056,1.056,0,0,0,.474-.1,1.2,1.2,0,0,0,.678-1.1l.065-2.961a.255.255,0,0,1-.194-.194c-.011-.075.043-.118.1-.151l.065-.086-.075-.065c-.043-.022-.108-.054-.108-.129s.065-.108.108-.14l.086-.065L4.09,2.006c-.043-.032-.108-.065-.108-.129a.292.292,0,0,1,.065-.183l-.258-.011h-.14c.075.065.183.151.162.248,0,.075-.075.108-.151.14l-.086.043.075.065c.065.032.129.065.129.129s-.065.1-.118.129L3.573,2.5l.065.054c.054.032.118.065.129.14s-.032.129-.151.2V5.828a1.379,1.379,0,0,1-.958.431l-.172-.011A1.262,1.262,0,0,1,1.8,5.893" transform="translate(10.694 7.534)" fill="#740308"/>
      <path id="Tracciato_6525" data-name="Tracciato 6525" d="M5.874,2.053H1.524a.062.062,0,0,1-.065-.065l.065-.054h4.35l.065.054a.062.062,0,0,1-.065.065" transform="translate(8.242 10.835)" fill="#740308"/>
      <path id="Tracciato_6526" data-name="Tracciato 6526" d="M2.07,2.668l-.054-.022-.538-.721.011-.086.086.011.549.721-.011.086-.043.011" transform="translate(8.422 9.899)" fill="#740308"/>
      <path id="Tracciato_6527" data-name="Tracciato 6527" d="M1.521,2.668l-.043-.011V2.571l.6-.721.086-.011.011.086-.614.721-.043.022" transform="translate(8.426 9.899)" fill="#740308"/>
      <path id="Tracciato_6528" data-name="Tracciato 6528" d="M1.567,2.421h0L1.5,2.357l.022-.463.065-.065.054.065-.011.474-.065.054" transform="translate(8.667 9.802)" fill="#740308"/>
      <path id="Tracciato_6529" data-name="Tracciato 6529" d="M2.146,2.668l-.054-.022-.538-.721.011-.086.086.011.549.721-.022.086-.032.011" transform="translate(9.172 9.899)" fill="#740308"/>
      <path id="Tracciato_6530" data-name="Tracciato 6530" d="M1.6,2.668l-.043-.011V2.571l.6-.721.086-.011.011.086-.614.721L1.6,2.668" transform="translate(9.177 9.899)" fill="#740308"/>
      <path id="Tracciato_6531" data-name="Tracciato 6531" d="M1.644,2.421h0l-.065-.065L1.6,1.894l.065-.065.054.065-.011.474-.065.054" transform="translate(9.416 9.802)" fill="#740308"/>
      <path id="Tracciato_6532" data-name="Tracciato 6532" d="M2.223,2.668l-.054-.022-.538-.721.011-.086.086.011.549.721-.011.086-.043.011" transform="translate(9.923 9.899)" fill="#740308"/>
      <path id="Tracciato_6533" data-name="Tracciato 6533" d="M1.675,2.668H1.642l-.011-.1.6-.721.086-.011.011.086-.614.721-.043.022" transform="translate(9.927 9.899)" fill="#740308"/>
      <path id="Tracciato_6534" data-name="Tracciato 6534" d="M1.721,2.421h0l-.065-.065.022-.463a.062.062,0,0,1,.065-.065l.054.065-.022.474-.054.054" transform="translate(10.166 9.8)" fill="#740308"/>
      <path id="Tracciato_6535" data-name="Tracciato 6535" d="M2.3,2.668l-.054-.022-.538-.721.011-.086.086.011.538.721-.011.086Z" transform="translate(10.675 9.899)" fill="#740308"/>
      <path id="Tracciato_6536" data-name="Tracciato 6536" d="M1.751,2.668l-.043-.011V2.571l.6-.721L2.4,1.839l.011.086-.614.721-.043.022" transform="translate(10.677 9.899)" fill="#740308"/>
      <path id="Tracciato_6537" data-name="Tracciato 6537" d="M1.8,2.421h0l-.065-.065.022-.463.065-.065.054.065-.011.474L1.8,2.421" transform="translate(10.918 9.802)" fill="#740308"/>
      <path id="Tracciato_6538" data-name="Tracciato 6538" d="M2.377,2.668l-.043-.022-.549-.721L1.8,1.839l.086.011.549.721-.022.086-.032.011" transform="translate(11.423 9.899)" fill="#740308"/>
      <path id="Tracciato_6539" data-name="Tracciato 6539" d="M1.828,2.668l-.043-.011V2.571l.6-.721.086-.011.011.086-.614.721-.043.022" transform="translate(11.428 9.899)" fill="#740308"/>
      <path id="Tracciato_6540" data-name="Tracciato 6540" d="M1.875,2.421h0L1.81,2.357l.022-.463.054-.065a.062.062,0,0,1,.065.065l-.011.474-.065.054" transform="translate(11.67 9.8)" fill="#740308"/>
      <path id="Tracciato_6541" data-name="Tracciato 6541" d="M1.491,2.461a.7.7,0,0,1,.151-.323.664.664,0,0,1,.452-.183H2.88a.966.966,0,0,1-.2.291,1.282,1.282,0,0,1-.388.226c-.269-.011-.528.011-.8-.011" transform="translate(8.555 11.03)" fill="#740308"/>
      <path id="Tracciato_6542" data-name="Tracciato 6542" d="M3.112,2.461a.892.892,0,0,0-.162-.323A.648.648,0,0,0,2.5,1.955H1.712a1.041,1.041,0,0,0,.215.291,1.167,1.167,0,0,0,.388.226c.269-.011.517.011.8-.011" transform="translate(10.713 11.03)" fill="#740308"/>
    </g>
  </g>
</svg>
