<svg xmlns="http://www.w3.org/2000/svg" xmlns:xlink="http://www.w3.org/1999/xlink" width="24" height="24" viewBox="0 0 24 24">
  <defs>
    <clipPath id="clip-path">
      <path id="Tracciato_6819" data-name="Tracciato 6819" d="M.547,12.749a12,12,0,1,0,12-12,12,12,0,0,0-12,12" transform="translate(-0.547 -0.749)" fill="none"/>
    </clipPath>
  </defs>
  <g id="Portogallo" transform="translate(-0.547 -0.749)">
    <g id="Raggruppa_210" data-name="Raggruppa 210" transform="translate(0.547 0.749)" clip-path="url(#clip-path)">
      <rect id="Rettangolo_488" data-name="Rettangolo 488" width="35.774" height="23.849" transform="translate(-5.887 0.075)" fill="#dc231e"/>
      <rect id="Rettangolo_489" data-name="Rettangolo 489" width="14.314" height="23.849" transform="translate(-5.887 0.075)" fill="#063"/>
      <path id="Tracciato_6548" data-name="Tracciato 6548" d="M.906,1.936A.314.314,0,0,1,.863,1.7l.108-.151h.183Z" transform="translate(2.473 7.061)" fill="#ffe809"/>
      <path id="Tracciato_6549" data-name="Tracciato 6549" d="M.916,1.957H.905A.317.317,0,0,1,.862,1.72V1.709L.97,1.548H.981l.183.011h.011V1.57l-.248.387ZM.884,1.72a.261.261,0,0,0,.032.2l.226-.344L.991,1.57Z" transform="translate(2.463 7.051)"/>
      <path id="Tracciato_6550" data-name="Tracciato 6550" d="M1.8,2.364a.2.2,0,0,0,.226-.054l.086-.151-.183-.043Z" transform="translate(11.646 12.596)" fill="#ffe809"/>
      <path id="Tracciato_6551" data-name="Tracciato 6551" d="M1.871,2.395h0L1.8,2.384V2.363l.129-.237V2.115l.183.043h.011v.011l-.086.151a.205.205,0,0,1-.161.075m-.054-.032.054.011a.17.17,0,0,0,.14-.065l.086-.14-.161-.032Z" transform="translate(11.646 12.586)"/>
      <path id="Tracciato_6552" data-name="Tracciato 6552" d="M10.993,8.461C10.38,9.161.92,3.6.823,2.553l.56-1c.323,1.022,9,5.909,10.138,6.07Z" transform="translate(2.147 7.09)" fill="#ffe809"/>
      <path id="Tracciato_6553" data-name="Tracciato 6553" d="M10.8,8.547c-.786,0-3.336-1.324-5.521-2.626S.866,3.068.823,2.563V2.552l.56-.99.011-.011.011.011c.161.527,2.561,2.077,4.757,3.347a30.925,30.925,0,0,0,5.37,2.712v.022l-.517.839H11a.258.258,0,0,1-.2.065M.845,2.563C.9,3.068,3.115,4.608,5.289,5.91c1.184.7,2.368,1.345,3.336,1.819a7.108,7.108,0,0,0,2.174.8.232.232,0,0,0,.194-.065l.517-.818A31.54,31.54,0,0,1,6.15,4.93C4.88,4.2,3.772,3.5,2.943,2.929a5.274,5.274,0,0,1-1.55-1.335Z" transform="translate(2.147 7.08)"/>
      <path id="Tracciato_6554" data-name="Tracciato 6554" d="M11.043,7.863C10.247,8.38.614,2.676.819,1.783l.075-.151C.668,2.6,10.1,8.143,11.129,7.713Z" transform="translate(2.076 7.871)" fill="#ffe809"/>
      <path id="Tracciato_6555" data-name="Tracciato 6555" d="M10.9,7.916c-.743,0-3.186-1.281-5.058-2.378A24.546,24.546,0,0,1,.96,2.1C.853,1.965.8,1.868.82,1.782L.9,1.631H.906l.011.011c-.022.086.032.2.151.355A22.988,22.988,0,0,0,5.943,5.419c2.422,1.41,4.4,2.314,5.048,2.314l.151-.022h.011v.011l-.086.151-.011.011-.151.032M.842,1.792a.456.456,0,0,0,.129.3A25.479,25.479,0,0,0,5.857,5.527C8.322,6.969,10.3,7.895,10.9,7.895l.14-.032.075-.118-.129.011c-.786,0-3.218-1.248-5.058-2.314A22.608,22.608,0,0,1,1.057,2.008.57.57,0,0,1,.9,1.7Z" transform="translate(2.075 7.861)"/>
      <path id="Tracciato_6556" data-name="Tracciato 6556" d="M.789,1.854H.778V2.36L.8,2.381c-.011-.14-.011-.28-.011-.42Z" transform="translate(1.708 10.038)" fill="#ffe809"/>
      <path id="Tracciato_6557" data-name="Tracciato 6557" d="M.809,2.412H.8L.777,2.39V1.863l.011-.011.022.011v.118L.82,2.4v.011ZM.8,2.379h0v0Z" transform="translate(1.698 10.019)"/>
      <path id="Tracciato_6558" data-name="Tracciato 6558" d="M1.878,1.911h0v0Z" transform="translate(12.444 10.49)" fill="#ffe809"/>
      <path id="Tracciato_6559" data-name="Tracciato 6559" d="M1.887,1.932h0l-.011-.011V1.91L1.887,1.9,1.9,1.91v.022Z" transform="translate(12.434 10.482)"/>
      <path id="Tracciato_6560" data-name="Tracciato 6560" d="M.779,1.864v.108c0,.14,0,.28.011.42,1.733,1.345,9.966,1.3,11.817-.022V1.853C10.465,3.209,2.9,3.188.779,1.864" transform="translate(1.718 10.029)" fill="#ffe809"/>
      <path id="Tracciato_6561" data-name="Tracciato 6561" d="M6.568,3.4a22.485,22.485,0,0,1-3.487-.248A5.3,5.3,0,0,1,.789,2.4c-.011-.14-.011-.28-.011-.43V1.853H.789a6.818,6.818,0,0,0,2.443.753,22.951,22.951,0,0,0,3.476.248c2.658,0,4.918-.387,5.9-1h.011v.538a6.316,6.316,0,0,1-2.422.753A24.65,24.65,0,0,1,6.568,3.4M.81,2.391a5.351,5.351,0,0,0,2.271.743,22.485,22.485,0,0,0,3.487.248c2.809,0,5.177-.4,6.038-1.012v-.5c-1,.624-3.25,1-5.9,1a22.847,22.847,0,0,1-3.476-.248A7,7,0,0,1,.8,1.885v.086c0,.14,0,.28.011.42" transform="translate(1.708 10.029)"/>
      <path id="Tracciato_6562" data-name="Tracciato 6562" d="M.773,1.908h0v0Z" transform="translate(1.661 10.465)" fill="#ffe809"/>
      <path id="Tracciato_6563" data-name="Tracciato 6563" d="M.783,1.929H.772l.011-.011-.011.011V1.9l.022.011v.022Z" transform="translate(1.651 10.454)"/>
      <path id="Tracciato_6564" data-name="Tracciato 6564" d="M12.665,1.93C10.75,3.286,2.473,3.254.848,1.952L.773,1.887v.129l.075.075C2.355,3.383,11,3.394,12.655,2.07l.075-.054V1.887l-.065.043" transform="translate(1.659 10.361)" fill="#ffe809"/>
      <path id="Tracciato_6565" data-name="Tracciato 6565" d="M6.691,3.08A25.474,25.474,0,0,1,3.1,2.843,5.014,5.014,0,0,1,.858,2.111L.772,2.036V1.907L.783,1.9l.075.065c.753.592,3.035.979,5.822.979a23.977,23.977,0,0,0,3.573-.248,6.452,6.452,0,0,0,2.422-.753l.054-.043.011-.011.011.011v.129H12.74l-.065.065a5.432,5.432,0,0,1-2.346.743,24.569,24.569,0,0,1-3.638.248M.794,2.025.869,2.1A4.981,4.981,0,0,0,3.1,2.821a25.587,25.587,0,0,0,3.595.237c2.874,0,5.22-.387,5.973-.979l.065-.065v-.1l-.043.032a6.233,6.233,0,0,1-2.432.764,23.768,23.768,0,0,1-3.573.248c-2.787,0-5.08-.387-5.833-.99L.794,1.928Z" transform="translate(1.65 10.341)"/>
      <path id="Tracciato_6566" data-name="Tracciato 6566" d="M12.666,1.883C10.751,3.25,2.453,3.207.839,1.9L.774,1.84v.129l.054.065c1.464,1.3,10.213,1.324,11.839-.022l.054-.043V1.84l-.054.043" transform="translate(1.669 9.902)" fill="#ffe809"/>
      <path id="Tracciato_6567" data-name="Tracciato 6567" d="M6.691,3.034A25.8,25.8,0,0,1,3.075,2.8,4.887,4.887,0,0,1,.837,2.054L.772,1.99V1.861L.783,1.85H.794L.858,1.9c.743.6,3.035.99,5.822.99a24.023,24.023,0,0,0,3.584-.248,6.1,6.1,0,0,0,2.411-.764l.054-.043h.011l.011.011v.14l-.065.043a5.242,5.242,0,0,1-2.335.753,24.769,24.769,0,0,1-3.659.248M.794,1.979l.065.065a4.988,4.988,0,0,0,2.228.732,25.522,25.522,0,0,0,3.605.237c2.906,0,5.252-.387,5.984-1l.054-.043v-.1l-.043.032a6.168,6.168,0,0,1-2.422.764,24.023,24.023,0,0,1-3.584.248c-2.8,0-5.091-.387-5.833-.99L.794,1.882Z" transform="translate(1.65 9.892)"/>
      <path id="Tracciato_6568" data-name="Tracciato 6568" d="M10.752,2.132c-1.883,1.012-7.986.936-9.6,0L.9,1.68c2.217.947,7.76.872,9.546-.108Z" transform="translate(2.938 7.285)" fill="#ffe809"/>
      <path id="Tracciato_6569" data-name="Tracciato 6569" d="M5.961,2.883A20.9,20.9,0,0,1,3.12,2.7a6,6,0,0,1-1.97-.538V2.151L.9,1.71V1.7l.011-.011a13.24,13.24,0,0,0,4.66.667A11.8,11.8,0,0,0,10.46,1.57l.011.011.3.56v.011a6.537,6.537,0,0,1-2.034.56,19.9,19.9,0,0,1-2.777.172m-4.8-.743a11.853,11.853,0,0,0,4.8.721,19.9,19.9,0,0,0,2.777-.172,6.5,6.5,0,0,0,2.013-.549L10.46,1.6a12.053,12.053,0,0,1-4.886.775A13.529,13.529,0,0,1,.935,1.721Z" transform="translate(2.928 7.266)"/>
      <path id="Tracciato_6570" data-name="Tracciato 6570" d="M10.692,1.679c-2.1,1.044-8.115.979-9.74.043L.9,1.625c2.346,1.022,7.921.926,9.708-.054Z" transform="translate(2.88 7.276)" fill="#ffe809"/>
      <path id="Tracciato_6571" data-name="Tracciato 6571" d="M5.686,2.463a20.246,20.246,0,0,1-2.8-.183A5.846,5.846,0,0,1,.962,1.742L.951,1.731.9,1.635V1.624H.908a13.5,13.5,0,0,0,4.843.721,11.787,11.787,0,0,0,4.865-.775h.011l.086.108V1.7a7.756,7.756,0,0,1-2.174.581,21.063,21.063,0,0,1-2.852.183M.972,1.721a5.851,5.851,0,0,0,1.916.538,20.246,20.246,0,0,0,2.8.183,12.945,12.945,0,0,0,5-.753l-.075-.1a11.787,11.787,0,0,1-4.865.775A19.28,19.28,0,0,1,3.06,2.194,9.251,9.251,0,0,1,.929,1.656Z" transform="translate(2.87 7.266)"/>
      <path id="Tracciato_6572" data-name="Tracciato 6572" d="M10.714,1.711C8.658,2.744,2.491,2.733.974,1.765l-.054-.1c2.54,1.119,8.362.786,9.729-.054Z" transform="translate(3.094 7.695)" fill="#ffe809"/>
      <path id="Tracciato_6573" data-name="Tracciato 6573" d="M5.611,2.506A10.487,10.487,0,0,1,.984,1.774l-.065-.1V1.667H.941a12.842,12.842,0,0,0,4.735.71,12.31,12.31,0,0,0,4.983-.764l.011.011.065.086v.022a13.366,13.366,0,0,1-5.123.775M.994,1.764a10.665,10.665,0,0,0,4.617.721,13.11,13.11,0,0,0,5.1-.775l-.054-.075A12.31,12.31,0,0,1,5.676,2.4a17.727,17.727,0,0,1-2.6-.172A8.117,8.117,0,0,1,.962,1.7Z" transform="translate(3.085 7.686)"/>
      <path id="Tracciato_6574" data-name="Tracciato 6574" d="M10.822,2.653c-1.9,1-8.115.872-9.751-.065L.845,2.137C3.256,3.148,9.175,3.2,11.166,2.126Z" transform="translate(2.362 12.694)" fill="#ffe809"/>
      <path id="Tracciato_6575" data-name="Tracciato 6575" d="M6.171,3.383a21.517,21.517,0,0,1-3.013-.2,6.49,6.49,0,0,1-2.088-.57L.844,2.156V2.146H.855a15.837,15.837,0,0,0,5.381.775,11.783,11.783,0,0,0,4.929-.786l.011-.011v.022l-.334.527v.011a11.84,11.84,0,0,1-4.671.7M1.092,2.6a6.665,6.665,0,0,0,2.066.56,21.75,21.75,0,0,0,3.013.2,11.522,11.522,0,0,0,4.649-.7l.323-.5a12.058,12.058,0,0,1-4.908.775,15.636,15.636,0,0,1-5.37-.775Z" transform="translate(2.352 12.674)"/>
      <path id="Tracciato_6576" data-name="Tracciato 6576" d="M11.244,2.276C8.963,3.406,2.7,3.3.9,2.276l-.065-.1c2.551,1.1,8.535,1.012,10.526-.065Z" transform="translate(2.284 12.586)" fill="#ffe809"/>
      <path id="Tracciato_6577" data-name="Tracciato 6577" d="M6.046,3.1a19.974,19.974,0,0,1-3.024-.215A6.622,6.622,0,0,1,.9,2.3L.891,2.286l-.054-.1V2.179H.848A14.818,14.818,0,0,0,6.1,2.964a12.927,12.927,0,0,0,5.263-.85h.011v.011l-.118.161V2.3A13.289,13.289,0,0,1,6.046,3.1M.912,2.275a6.7,6.7,0,0,0,2.109.6,21.561,21.561,0,0,0,3.024.2,13.266,13.266,0,0,0,5.2-.807l.086-.129a12.93,12.93,0,0,1-5.23.839,22.484,22.484,0,0,1-2.917-.194A9.876,9.876,0,0,1,.869,2.211Z" transform="translate(2.284 12.577)"/>
      <path id="Tracciato_6578" data-name="Tracciato 6578" d="M10.761,2.36C8.695,3.4,2.453,3.3.914,2.328l-.054-.1c2.572,1.119,8.287.947,10.052-.075Z" transform="translate(2.509 12.987)" fill="#ffe809"/>
      <path id="Tracciato_6579" data-name="Tracciato 6579" d="M5.842,3.114A11.377,11.377,0,0,1,.924,2.339H.913l-.054-.1V2.231H.87A13.654,13.654,0,0,0,5.863,3a19.3,19.3,0,0,0,2.96-.215,6.447,6.447,0,0,0,2.088-.624h.011l.011.011-.151.2h-.011a12.4,12.4,0,0,1-4.929.743M.934,2.328a11.563,11.563,0,0,0,4.908.764A12.578,12.578,0,0,0,10.76,2.36l.118-.161a6.867,6.867,0,0,1-2.045.6,19.553,19.553,0,0,1-2.97.215A13.872,13.872,0,0,1,.891,2.264Z" transform="translate(2.499 12.987)"/>
      <path id="Tracciato_6580" data-name="Tracciato 6580" d="M6.7,1.314A5.919,5.919,0,1,1,.778,7.233,5.916,5.916,0,0,1,6.7,1.314m5.284,5.919A5.279,5.279,0,1,0,6.7,12.518a5.277,5.277,0,0,0,5.284-5.284" transform="translate(1.708 4.767)" fill="#ffe809"/>
      <path id="Tracciato_6581" data-name="Tracciato 6581" d="M6.707,13.174A5.894,5.894,0,0,1,4.393,12.7,5.908,5.908,0,0,1,.777,7.244,6.04,6.04,0,0,1,1.24,4.93,6.183,6.183,0,0,1,2.51,3.047a6,6,0,0,1,1.883-1.27,5.989,5.989,0,0,1,4.617,0,5.761,5.761,0,0,1,1.883,1.27,5.9,5.9,0,0,1,1.27,6.5,5.707,5.707,0,0,1-1.27,1.883A5.761,5.761,0,0,1,9.01,12.7a5.842,5.842,0,0,1-2.3.474m0-11.839a5.9,5.9,0,1,0,5.909,5.909A5.911,5.911,0,0,0,6.707,1.336m0,11.193a5.236,5.236,0,0,1-3.745-1.55,5.282,5.282,0,0,1-1.13-5.8A5.367,5.367,0,0,1,2.962,3.5a5.122,5.122,0,0,1,1.69-1.13,5.243,5.243,0,0,1,4.111,0A5.077,5.077,0,0,1,10.442,3.5a5.221,5.221,0,0,1,1.141,1.679,5.27,5.27,0,0,1,0,4.122,5.107,5.107,0,0,1-1.141,1.679,5.277,5.277,0,0,1-1.679,1.141,5.348,5.348,0,0,1-2.056.409m0-10.558A5.268,5.268,0,1,0,11.97,7.244,5.282,5.282,0,0,0,6.707,1.971" transform="translate(1.698 4.767)"/>
      <path id="Tracciato_6582" data-name="Tracciato 6582" d="M6.219,1.363A5.392,5.392,0,1,1,.827,6.755,5.4,5.4,0,0,1,6.219,1.363M11.5,6.755a5.279,5.279,0,1,0-5.284,5.284A5.277,5.277,0,0,0,11.5,6.755" transform="translate(2.186 5.245)" fill="#ffe809"/>
      <path id="Tracciato_6583" data-name="Tracciato 6583" d="M6.229,12.168a5.247,5.247,0,0,1-2.109-.43,5.389,5.389,0,0,1-1.711-1.152A5.526,5.526,0,0,1,1.246,8.864a5.483,5.483,0,0,1,0-4.208A5.479,5.479,0,0,1,2.408,2.945,5.248,5.248,0,0,1,4.119,1.783a5.426,5.426,0,0,1,2.109-.42,5.334,5.334,0,0,1,2.1.42,5.181,5.181,0,0,1,1.722,1.162,5.479,5.479,0,0,1,1.162,1.711,5.483,5.483,0,0,1,0,4.208,5.526,5.526,0,0,1-1.162,1.722,5.317,5.317,0,0,1-1.722,1.152,5.159,5.159,0,0,1-2.1.43m0-10.795A5.387,5.387,0,1,0,11.61,6.766,5.392,5.392,0,0,0,6.229,1.374m0,10.676A5.236,5.236,0,0,1,2.483,10.5a5.282,5.282,0,0,1-1.13-5.8A5.367,5.367,0,0,1,2.483,3.02a5.122,5.122,0,0,1,1.69-1.13,5.243,5.243,0,0,1,4.111,0A5.077,5.077,0,0,1,9.963,3.02,5.221,5.221,0,0,1,11.1,4.7a5.27,5.27,0,0,1,0,4.122A5.107,5.107,0,0,1,9.963,10.5a5.277,5.277,0,0,1-1.679,1.141,5.348,5.348,0,0,1-2.056.409m0-10.558a5.268,5.268,0,1,0,5.263,5.274A5.282,5.282,0,0,0,6.229,1.492" transform="translate(2.177 5.245)"/>
      <path id="Tracciato_6584" data-name="Tracciato 6584" d="M6.7,1.314A5.919,5.919,0,1,1,.778,7.233,5.914,5.914,0,0,1,6.7,1.314m5.779,5.919A5.785,5.785,0,1,0,6.7,13.013a5.78,5.78,0,0,0,5.779-5.779" transform="translate(1.708 4.767)" fill="#ffe809"/>
      <path id="Tracciato_6585" data-name="Tracciato 6585" d="M6.707,13.163A5.884,5.884,0,0,1,4.393,12.7,5.948,5.948,0,0,1,1.24,9.547a5.989,5.989,0,0,1,0-4.617A6.183,6.183,0,0,1,2.51,3.047a6,6,0,0,1,1.883-1.27,5.989,5.989,0,0,1,4.617,0,5.761,5.761,0,0,1,1.883,1.27,5.9,5.9,0,0,1,1.27,6.5,5.82,5.82,0,0,1-1.27,1.883A5.933,5.933,0,0,1,9.01,12.7a5.832,5.832,0,0,1-2.3.463m0-11.839a5.909,5.909,0,1,0,5.909,5.909A5.918,5.918,0,0,0,6.707,1.325m0,11.709a5.8,5.8,0,0,1-2.26-.452,6.12,6.12,0,0,1-1.84-1.248,5.788,5.788,0,0,1,4.1-9.891,5.767,5.767,0,0,1,4.1,1.7,5.8,5.8,0,0,1,0,8.19,6.037,6.037,0,0,1-1.851,1.248,5.713,5.713,0,0,1-2.249.452m0-11.57a5.774,5.774,0,1,0,5.769,5.769A5.785,5.785,0,0,0,6.707,1.465" transform="translate(1.698 4.767)"/>
      <path id="Tracciato_6586" data-name="Tracciato 6586" d="M10.953,2.221c-1.926-1-8.19-.936-9.848,0l-.258.452c2.282-.936,8.61-.9,10.461.075Z" transform="translate(2.382 6.529)" fill="#ffe809"/>
      <path id="Tracciato_6587" data-name="Tracciato 6587" d="M11.308,2.775h0a13.42,13.42,0,0,0-5.263-.764,15.432,15.432,0,0,0-5.187.678H.847V2.678l.248-.452h.011a6.187,6.187,0,0,1,2.013-.549,22.112,22.112,0,0,1,2.927-.183,22.766,22.766,0,0,1,2.841.172,6.684,6.684,0,0,1,2.077.56l.355.527v.011ZM6.045,1.989a13.9,13.9,0,0,1,5.23.743l-.323-.5a7.157,7.157,0,0,0-2.066-.549,22.766,22.766,0,0,0-2.841-.172,12.485,12.485,0,0,0-4.929.721l-.237.42a15.758,15.758,0,0,1,5.166-.667" transform="translate(2.382 6.524)"/>
      <path id="Tracciato_6588" data-name="Tracciato 6588" d="M11.357,2.311C9.2,1.267,2.564,1.31.9,2.246l-.054.1c2.411-1.033,8.793-.85,10.633.129Z" transform="translate(2.333 6.934)" fill="#ffe809"/>
      <path id="Tracciato_6589" data-name="Tracciato 6589" d="M11.475,2.492h0A14.571,14.571,0,0,0,5.89,1.674a14.311,14.311,0,0,0-5.037.689H.842V2.352l.054-.1V2.244a6.573,6.573,0,0,1,2.023-.527,22.773,22.773,0,0,1,2.992-.183,23.511,23.511,0,0,1,3.132.194,7.888,7.888,0,0,1,2.325.592l.118.161v.011ZM5.89,1.652a14.619,14.619,0,0,1,5.553.807l-.086-.129a14.871,14.871,0,0,0-5.446-.775,22.6,22.6,0,0,0-2.981.183,6.277,6.277,0,0,0-2.023.527L.874,2.33A14.561,14.561,0,0,1,5.89,1.652" transform="translate(2.333 6.914)"/>
      <path id="Tracciato_6590" data-name="Tracciato 6590" d="M10.863,2.265C8.765,1.221,2.479,1.253.919,2.233l-.054.1c2.6-1.119,8.362-.883,10.149.14Z" transform="translate(2.557 6.485)" fill="#ffe809"/>
      <path id="Tracciato_6591" data-name="Tracciato 6591" d="M11.034,2.49l-.011-.011a12.653,12.653,0,0,0-5.284-.872,13.457,13.457,0,0,0-4.854.732H.875L.864,2.328l.065-.1a5.34,5.34,0,0,1,1.916-.549A19.063,19.063,0,0,1,5.7,1.489a13.668,13.668,0,0,1,5.187.775l.161.2-.011.011Zm-5.3-.9a12.727,12.727,0,0,1,5.252.861l-.118-.161A13.6,13.6,0,0,0,5.7,1.511a20.552,20.552,0,0,0-2.841.183,5.571,5.571,0,0,0-1.916.549l-.032.075a13.411,13.411,0,0,1,4.832-.732" transform="translate(2.548 6.475)"/>
      <path id="Tracciato_6592" data-name="Tracciato 6592" d="M.8,2.786.789,2.8l-.011.517L.8,3.3c2.206-1.378,9.557-1.41,11.817.011V2.8C10.669,1.4,2.586,1.376.8,2.786" transform="translate(1.708 8.902)" fill="#ffe809"/>
      <path id="Tracciato_6593" data-name="Tracciato 6593" d="M12.626,3.33h-.011c-1.033-.646-3.283-1.055-5.887-1.055S1.842,2.673.809,3.33H.777V2.8l.011-.011L.8,2.781A5.559,5.559,0,0,1,3.112,2,21.149,21.149,0,0,1,6.6,1.737a21.5,21.5,0,0,1,3.584.269,6.172,6.172,0,0,1,2.443.8h.011V3.33ZM.8,2.813v.5c1.044-.646,3.315-1.055,5.93-1.055a20.832,20.832,0,0,1,3.422.269,7.192,7.192,0,0,1,2.465.786v-.5c-.9-.646-3.261-1.055-6.016-1.055a21.149,21.149,0,0,0-3.487.258,5.407,5.407,0,0,0-2.3.786Z" transform="translate(1.698 8.896)"/>
      <path id="Tracciato_6594" data-name="Tracciato 6594" d="M12.665,2.777C10.954,1.378,2.366,1.41.848,2.756l-.075.086v.108L.838,2.9c1.679-1.356,9.837-1.41,11.839.022l.054.054V2.842l-.065-.065" transform="translate(1.659 8.9)" fill="#ffe809"/>
      <path id="Tracciato_6595" data-name="Tracciato 6595" d="M12.74,2.985l-.011-.011-.054-.043a6.354,6.354,0,0,0-2.432-.8,22.4,22.4,0,0,0-3.562-.258c-2.766,0-5.058.409-5.822,1.044l-.075.054H.772v-.14l.075-.075A4.877,4.877,0,0,1,3.107,2,22.442,22.442,0,0,1,6.7,1.737,22.963,22.963,0,0,1,10.329,2a5.305,5.305,0,0,1,2.346.786l.065.054.011.011v.129H12.74ZM6.681,1.855a22.4,22.4,0,0,1,3.562.258,6.4,6.4,0,0,1,2.443.807l.032.022.011-.1L12.664,2.8c-.775-.635-3.11-1.044-5.962-1.044a22.538,22.538,0,0,0-3.595.258,4.8,4.8,0,0,0-2.249.764l-.065.065v.1L.837,2.9c.775-.635,3.078-1.044,5.844-1.044" transform="translate(1.65 8.896)"/>
      <path id="Tracciato_6596" data-name="Tracciato 6596" d="M.773,1.9" transform="translate(1.659 10.468)" fill="#ffe809"/>
      <path id="Tracciato_6597" data-name="Tracciato 6597" d="M.772,1.907h0L.783,1.9l.011.011H.772Z" transform="translate(1.651 10.453)"/>
      <path id="Tracciato_6598" data-name="Tracciato 6598" d="M12.676,2.84C10.976,1.419,2.344,1.452.838,2.818l-.065.065v.129l.075-.065c1.679-1.356,9.815-1.41,11.817.022l.065.043V2.894l-.054-.054" transform="translate(1.659 9.354)" fill="#ffe809"/>
      <path id="Tracciato_6599" data-name="Tracciato 6599" d="M12.74,3.022h-.011l-.065-.043a5.942,5.942,0,0,0-2.432-.8,22.263,22.263,0,0,0-3.552-.258c-2.766,0-5.048.409-5.822,1.033l-.075.065L.772,3.011V2.882l.065-.065A4.857,4.857,0,0,1,3.1,2.042,22.679,22.679,0,0,1,6.7,1.784a22.867,22.867,0,0,1,3.627.258,5.288,5.288,0,0,1,2.357.8l.054.043.011.011v.129ZM6.681,1.892a22.092,22.092,0,0,1,3.552.269,6.351,6.351,0,0,1,2.443.8l.054.032v-.1l-.054-.043c-.764-.635-3.11-1.055-5.973-1.055A22.6,22.6,0,0,0,3.1,2.064a4.872,4.872,0,0,0-2.249.764l-.054.065v.1l.054-.054c.775-.624,3.067-1.044,5.833-1.044" transform="translate(1.65 9.355)"/>
      <path id="Tracciato_6600" data-name="Tracciato 6600" d="M.841,2.853l.226.452A6.047,6.047,0,0,1,3.392,2.5L3.2,2.046a5.868,5.868,0,0,0-2.357.807" transform="translate(2.323 11.913)" fill="#ffe809"/>
      <path id="Tracciato_6601" data-name="Tracciato 6601" d="M1.078,3.326h0l-.011-.011L.841,2.863V2.852a5.925,5.925,0,0,1,2.368-.807l.011.011.183.452v.011a6.357,6.357,0,0,0-2.314.8ZM.863,2.863l.215.43a5.931,5.931,0,0,1,2.3-.786L3.2,2.067a5.843,5.843,0,0,0-2.335.8" transform="translate(2.323 11.903)"/>
      <path id="Tracciato_6602" data-name="Tracciato 6602" d="M.892,3.009c.183-.484,2.443-.85,2.443-.85L3.26,2.04S.978,2.4.838,2.912Z" transform="translate(2.294 11.854)" fill="#ffe809"/>
      <path id="Tracciato_6603" data-name="Tracciato 6603" d="M.9,3.029H.891l-.054-.1V2.922C.988,2.4,3.172,2.05,3.269,2.039H3.28l.075.129h.011l-.011.011c-.022.011-2.271.366-2.443.839ZM.859,2.922.9,3c.226-.463,2.217-.8,2.432-.829l-.065-.108c-.14.022-2.26.377-2.411.861" transform="translate(2.284 11.844)"/>
      <path id="Tracciato_6604" data-name="Tracciato 6604" d="M.914,3.051C1.1,2.566,3.368,2.2,3.368,2.2l-.086-.118S1,2.437.86,2.954Z" transform="translate(2.509 12.264)" fill="#ffe809"/>
      <path id="Tracciato_6605" data-name="Tracciato 6605" d="M.924,3.071h0l-.065-.1V2.964c.151-.517,2.335-.872,2.432-.883H3.3l.086.129v.011H3.377c-.022,0-2.26.366-2.443.839ZM.881,2.964l.043.075c.226-.463,2.217-.8,2.432-.839l-.065-.1c-.14.022-2.26.377-2.411.861" transform="translate(2.499 12.254)"/>
      <path id="Tracciato_6606" data-name="Tracciato 6606" d="M.828,2.46c1.668,0,9.482,4.811,10.127,6.005a6.082,6.082,0,0,0,.527-.839c-.334-1.259-9.04-6.253-10.138-6.07a6.139,6.139,0,0,0-.517.9" transform="translate(2.196 7.086)" fill="#ffe809"/>
      <path id="Tracciato_6607" data-name="Tracciato 6607" d="M10.964,8.481h-.011c-.291-.549-2.217-1.959-4.671-3.444C5.12,4.337,3.958,3.7,3.032,3.25a6.672,6.672,0,0,0-2.2-.764V2.476H.826a6.528,6.528,0,0,1,.527-.915l.065-.011c.7,0,3.261,1.3,5.424,2.583,1.216.71,2.325,1.431,3.132,2.023.936.689,1.453,1.184,1.528,1.485a6.082,6.082,0,0,1-.527.839ZM.858,2.465a6.666,6.666,0,0,1,2.185.775c.926.441,2.077,1.076,3.25,1.787,2,1.195,4.3,2.777,4.671,3.433a6.886,6.886,0,0,0,.517-.818c-.075-.291-.6-.786-1.517-1.464-.807-.592-1.916-1.313-3.132-2.034C4.668,2.874,2.117,1.572,1.418,1.572l-.054.011a5.417,5.417,0,0,0-.506.883" transform="translate(2.177 7.071)"/>
      <path id="Tracciato_6608" data-name="Tracciato 6608" d="M.817,1.783c1.378-.3,9.815,4.725,10.224,6.081l.086-.151C10.8,6.465,2.044,1.342.892,1.644Z" transform="translate(2.089 7.86)" fill="#ffe809"/>
      <path id="Tracciato_6609" data-name="Tracciato 6609" d="M11.05,7.893h-.011a4.666,4.666,0,0,0-1.5-1.507A33.819,33.819,0,0,0,6.5,4.352C4.388,3.082,1.859,1.8.966,1.8l-.14.011H.815V1.79l.075-.14.129-.022a6.851,6.851,0,0,1,2.2.786c.969.463,2.152,1.109,3.326,1.808,2.023,1.205,4.434,2.841,4.606,3.509v.011l-.086.151ZM.966,1.78c.893,0,3.433,1.281,5.543,2.561A33.819,33.819,0,0,1,9.554,6.375a4.71,4.71,0,0,1,1.5,1.485l.075-.129c-.075-.28-.592-.786-1.485-1.453-.818-.6-1.916-1.324-3.11-2.034C5.357,3.534,4.173,2.9,3.2,2.436a6.822,6.822,0,0,0-2.185-.786l-.108.011L.847,1.79.966,1.78" transform="translate(2.069 7.842)"/>
      <path id="Tracciato_6610" data-name="Tracciato 6610" d="M.857,1.71c1.378-.3,9.923,4.789,10.332,6.135l.1-.151C10.963,6.446,2.59,1.463.965,1.549Z" transform="translate(2.479 7.05)" fill="#ffe809"/>
      <path id="Tracciato_6611" data-name="Tracciato 6611" d="M11.2,7.855h-.011c-.086-.312-.624-.829-1.517-1.517C8.863,5.724,7.765,5,6.592,4.292,4.451,3,1.889,1.709,1,1.709l-.14.011V1.709l.108-.161h.054c.893,0,3.487,1.3,5.661,2.6a34.709,34.709,0,0,1,3.11,2.056c.635.474,1.41,1.119,1.507,1.485V7.7ZM1,1.688c.9,0,3.465,1.3,5.6,2.583A35.661,35.661,0,0,1,9.681,6.326a4.984,4.984,0,0,1,1.517,1.5l.075-.129C11.1,7.058,8.842,5.465,6.668,4.174s-4.757-2.6-5.65-2.6H.974l-.1.129L1,1.688" transform="translate(2.47 7.051)"/>
      <rect id="Rettangolo_490" data-name="Rettangolo 490" width="0.613" height="11.742" transform="translate(8.104 6.091)" fill="#ffe809"/>
      <path id="Tracciato_6612" data-name="Tracciato 6612" d="M1.923,13.077H1.31L1.3,13.066V1.325l.011-.011h.613l.011.011V13.066Zm-.6-.022h.592V1.336H1.321Z" transform="translate(6.794 4.767)"/>
      <rect id="Rettangolo_491" data-name="Rettangolo 491" width="0.118" height="12.011" transform="translate(8.104 6.005)" fill="#ffe809"/>
      <path id="Tracciato_6613" data-name="Tracciato 6613" d="M1.428,13.338H1.31L1.3,13.328V1.317l.011-.011h.118l.011.011V13.328Zm-.108-.022h.1V1.328h-.1Z" transform="translate(6.794 4.689)"/>
      <rect id="Rettangolo_492" data-name="Rettangolo 492" width="0.118" height="12.011" transform="translate(8.599 6.005)" fill="#ffe809"/>
      <path id="Tracciato_6614" data-name="Tracciato 6614" d="M1.474,13.338H1.356l-.011-.011V1.317l.011-.011h.118l.011.011V13.328Zm-.108-.022h.1V1.328h-.1Z" transform="translate(7.243 4.689)"/>
      <path id="Tracciato_6615" data-name="Tracciato 6615" d="M1,6.426a3.549,3.549,0,0,0,7.082,0V1.486H1Z" transform="translate(3.875 6.446)" fill="#fff"/>
      <path id="Tracciato_6616" data-name="Tracciato 6616" d="M4.56,9.782A3.407,3.407,0,0,1,1.837,8.5,3.562,3.562,0,0,1,1,6.445V1.484H8.123V6.445a3.464,3.464,0,0,1-.861,2.088,3.4,3.4,0,0,1-2.7,1.248M1.041,1.527V6.445A3.53,3.53,0,0,0,1.87,8.469,3.331,3.331,0,0,0,4.56,9.739,3.364,3.364,0,0,0,7.229,8.512a3.456,3.456,0,0,0,.85-2.066V1.527Z" transform="translate(3.856 6.426)"/>
      <path id="Tracciato_6617" data-name="Tracciato 6617" d="M1.014,6.258a3.433,3.433,0,0,0,3.39,3.2,3.419,3.419,0,0,0,3.39-3.2V1.5H1.014Z" transform="translate(4.012 6.592)" fill="#dc231e"/>
      <path id="Tracciato_6618" data-name="Tracciato 6618" d="M4.414,9.485a3.254,3.254,0,0,1-2.6-1.227,3.5,3.5,0,0,1-.8-1.98V1.5H7.826V6.277A3.39,3.39,0,0,1,7.008,8.29,3.266,3.266,0,0,1,4.414,9.485M1.045,1.531V6.277a3.494,3.494,0,0,0,.786,1.959A3.219,3.219,0,0,0,4.414,9.452,3.231,3.231,0,0,0,6.986,8.269a3.358,3.358,0,0,0,.807-1.991V1.531Z" transform="translate(4.002 6.573)"/>
      <path id="Tracciato_6619" data-name="Tracciato 6619" d="M1.141,4.963a2.012,2.012,0,0,0,2.023,1.9,1.987,1.987,0,0,0,2.023-1.9V1.627H1.141Z" transform="translate(5.252 7.822)" fill="#fff"/>
      <path id="Tracciato_6620" data-name="Tracciato 6620" d="M3.184,6.9a1.924,1.924,0,0,1-1.561-.721,2.012,2.012,0,0,1-.484-1.205V1.626H5.218V4.973a2.042,2.042,0,0,1-.484,1.238,1.971,1.971,0,0,1-1.55.689M1.171,1.658V4.973a1.961,1.961,0,0,0,.474,1.195,1.9,1.9,0,0,0,1.539.7,1.935,1.935,0,0,0,1.528-.678A1.99,1.99,0,0,0,5.2,4.973V1.658Z" transform="translate(5.232 7.813)"/>
      <path id="Tracciato_6621" data-name="Tracciato 6621" d="M1.29,2.375a.435.435,0,0,0,.441.409.425.425,0,0,0,.43-.409v-.7H1.29Z" transform="translate(6.706 8.291)" fill="#233895"/>
      <path id="Tracciato_6622" data-name="Tracciato 6622" d="M1.409,1.71a.085.085,0,0,0-.086.086.087.087,0,1,0,.172,0,.085.085,0,0,0-.086-.086" transform="translate(7.029 8.633)" fill="#fff"/>
      <path id="Tracciato_6623" data-name="Tracciato 6623" d="M1.387,1.688a.085.085,0,0,0-.086.086.087.087,0,1,0,.172,0,.085.085,0,0,0-.086-.086" transform="translate(6.814 8.418)" fill="#fff"/>
      <path id="Tracciato_6624" data-name="Tracciato 6624" d="M1.432,1.688a.085.085,0,0,0-.086.086.087.087,0,1,0,.172,0,.085.085,0,0,0-.086-.086" transform="translate(7.253 8.418)" fill="#fff"/>
      <path id="Tracciato_6625" data-name="Tracciato 6625" d="M1.386,1.733a.085.085,0,0,0-.086.086.087.087,0,1,0,.172,0,.085.085,0,0,0-.086-.086" transform="translate(6.804 8.857)" fill="#fff"/>
      <path id="Tracciato_6626" data-name="Tracciato 6626" d="M1.432,1.733a.085.085,0,0,0-.086.086.087.087,0,1,0,.172,0,.085.085,0,0,0-.086-.086" transform="translate(7.253 8.857)" fill="#fff"/>
      <path id="Tracciato_6627" data-name="Tracciato 6627" d="M1.174,2.527a.432.432,0,0,0,.43.409.421.421,0,0,0,.441-.409v-.71H1.174Z" transform="translate(5.574 9.677)" fill="#233895"/>
      <path id="Tracciato_6628" data-name="Tracciato 6628" d="M1.293,1.854a.085.085,0,0,0-.086.086.087.087,0,1,0,.172,0,.085.085,0,0,0-.086-.086" transform="translate(5.896 10.038)" fill="#fff"/>
      <path id="Tracciato_6629" data-name="Tracciato 6629" d="M1.271,1.831a.085.085,0,0,0-.086.086.088.088,0,0,0,.086.1.1.1,0,0,0,.1-.1.1.1,0,0,0-.1-.086" transform="translate(5.681 9.814)" fill="#fff"/>
      <path id="Tracciato_6630" data-name="Tracciato 6630" d="M1.316,1.831a.085.085,0,0,0-.086.086.088.088,0,0,0,.086.1.1.1,0,0,0,.1-.1.1.1,0,0,0-.1-.086" transform="translate(6.121 9.814)" fill="#fff"/>
      <path id="Tracciato_6631" data-name="Tracciato 6631" d="M1.271,1.877a.085.085,0,0,0-.086.086.087.087,0,1,0,.172,0,.085.085,0,0,0-.086-.086" transform="translate(5.681 10.263)" fill="#fff"/>
      <path id="Tracciato_6632" data-name="Tracciato 6632" d="M1.316,1.877a.085.085,0,0,0-.086.086.088.088,0,0,0,.086.1.1.1,0,0,0,.1-.1.1.1,0,0,0-.1-.086" transform="translate(6.121 10.263)" fill="#fff"/>
      <path id="Tracciato_6633" data-name="Tracciato 6633" d="M1.289,2.527a.432.432,0,0,0,.43.409.421.421,0,0,0,.441-.409v-.71H1.289Z" transform="translate(6.697 9.677)" fill="#233895"/>
      <path id="Tracciato_6634" data-name="Tracciato 6634" d="M1.408,1.854a.085.085,0,0,0-.086.086.087.087,0,1,0,.172,0,.085.085,0,0,0-.086-.086" transform="translate(7.019 10.038)" fill="#fff"/>
      <path id="Tracciato_6635" data-name="Tracciato 6635" d="M1.4,1.831a.1.1,0,0,0-.1.086.1.1,0,0,0,.1.1.088.088,0,0,0,.086-.1A.085.085,0,0,0,1.4,1.831" transform="translate(6.794 9.814)" fill="#fff"/>
      <path id="Tracciato_6636" data-name="Tracciato 6636" d="M1.431,1.831a.085.085,0,0,0-.086.086.087.087,0,1,0,.172,0,.085.085,0,0,0-.086-.086" transform="translate(7.243 9.814)" fill="#fff"/>
      <path id="Tracciato_6637" data-name="Tracciato 6637" d="M1.385,1.877a.085.085,0,0,0-.086.086.087.087,0,1,0,.172,0,.085.085,0,0,0-.086-.086" transform="translate(6.794 10.263)" fill="#fff"/>
      <path id="Tracciato_6638" data-name="Tracciato 6638" d="M1.431,1.877a.085.085,0,0,0-.086.086.087.087,0,1,0,.172,0,.085.085,0,0,0-.086-.086" transform="translate(7.243 10.263)" fill="#fff"/>
      <path id="Tracciato_6639" data-name="Tracciato 6639" d="M1.29,2.671a.427.427,0,0,0,.441.4.417.417,0,0,0,.43-.4v-.71H1.29Z" transform="translate(6.706 11.083)" fill="#233895"/>
      <path id="Tracciato_6640" data-name="Tracciato 6640" d="M1.409,2a.085.085,0,0,0-.086.086.087.087,0,1,0,.172,0A.085.085,0,0,0,1.409,2" transform="translate(7.029 11.434)" fill="#fff"/>
      <path id="Tracciato_6641" data-name="Tracciato 6641" d="M1.387,1.974a.1.1,0,0,0-.086.108.086.086,0,0,0,.172,0,.1.1,0,0,0-.086-.108" transform="translate(6.814 11.21)" fill="#fff"/>
      <path id="Tracciato_6642" data-name="Tracciato 6642" d="M1.432,1.974a.1.1,0,0,0-.086.108.086.086,0,0,0,.172,0,.1.1,0,0,0-.086-.108" transform="translate(7.253 11.21)" fill="#fff"/>
      <path id="Tracciato_6643" data-name="Tracciato 6643" d="M1.386,2.02a.085.085,0,0,0-.086.086.087.087,0,1,0,.172,0,.085.085,0,0,0-.086-.086" transform="translate(6.804 11.659)" fill="#fff"/>
      <path id="Tracciato_6644" data-name="Tracciato 6644" d="M1.432,2.02a.085.085,0,0,0-.086.086.087.087,0,1,0,.172,0,.085.085,0,0,0-.086-.086" transform="translate(7.253 11.659)" fill="#fff"/>
      <path id="Tracciato_6645" data-name="Tracciato 6645" d="M1.4,2.527a.435.435,0,0,0,.441.409.418.418,0,0,0,.43-.409v-.71H1.4Z" transform="translate(7.819 9.677)" fill="#233895"/>
      <path id="Tracciato_6646" data-name="Tracciato 6646" d="M1.533,1.854a.1.1,0,0,0-.1.086.1.1,0,0,0,.1.1.088.088,0,0,0,.086-.1.085.085,0,0,0-.086-.086" transform="translate(8.132 10.038)" fill="#fff"/>
      <path id="Tracciato_6647" data-name="Tracciato 6647" d="M1.5,1.831a.085.085,0,0,0-.086.086.087.087,0,1,0,.172,0A.085.085,0,0,0,1.5,1.831" transform="translate(7.927 9.814)" fill="#fff"/>
      <path id="Tracciato_6648" data-name="Tracciato 6648" d="M1.546,1.831a.085.085,0,0,0-.086.086.087.087,0,1,0,.172,0,.085.085,0,0,0-.086-.086" transform="translate(8.366 9.814)" fill="#fff"/>
      <path id="Tracciato_6649" data-name="Tracciato 6649" d="M1.5,1.877a.085.085,0,0,0-.086.086.087.087,0,1,0,.172,0A.085.085,0,0,0,1.5,1.877" transform="translate(7.917 10.263)" fill="#fff"/>
      <path id="Tracciato_6650" data-name="Tracciato 6650" d="M1.546,1.877a.085.085,0,0,0-.086.086.087.087,0,1,0,.172,0,.085.085,0,0,0-.086-.086" transform="translate(8.366 10.263)" fill="#fff"/>
      <path id="Tracciato_6651" data-name="Tracciato 6651" d="M1.325,1.576l-.043.377h.979l-.043-.377Z" transform="translate(6.63 7.32)" fill="#ffe809"/>
      <path id="Tracciato_6652" data-name="Tracciato 6652" d="M1.281,1.972l.043-.4h.915l.043.4ZM1.346,1.6,1.3,1.961l.958-.011L2.228,1.6Z" transform="translate(6.619 7.305)"/>
      <path id="Tracciato_6653" data-name="Tracciato 6653" d="M2.3,1.56H1.321L1.278,1.6l.043.043H2.3L2.343,1.6,2.3,1.56" transform="translate(6.588 7.17)" fill="#ffe809"/>
      <path id="Tracciato_6654" data-name="Tracciato 6654" d="M2.31,1.667H1.331l-.054-.054.054-.054H2.31l.054.054-.054.054m-.979-.086L1.3,1.613l.032.032H2.31l.032-.032L2.31,1.581Z" transform="translate(6.58 7.158)"/>
      <path id="Tracciato_6655" data-name="Tracciato 6655" d="M2.239,1.568H1.324l-.043.043.043.043h.915l.043-.043-.043-.043" transform="translate(6.621 7.244)" fill="#ffe809"/>
      <path id="Tracciato_6656" data-name="Tracciato 6656" d="M2.249,1.675H1.334L1.28,1.621l.054-.054h.915l.054.054-.054.054m-.915-.086L1.3,1.621l.032.032h.915l.032-.032-.032-.032Z" transform="translate(6.609 7.237)"/>
      <path id="Tracciato_6657" data-name="Tracciato 6657" d="M2.331,1.611h-1l-.054.043L1.33,1.7h1l.043-.043-.043-.043" transform="translate(6.573 7.665)" fill="#ffe809"/>
      <path id="Tracciato_6658" data-name="Tracciato 6658" d="M2.331,1.717h-1l-.054-.054.054-.054h1l.065.054-.065.054m-1-.075L1.3,1.652,1.33,1.7h1l.032-.011-.032-.043Z" transform="translate(6.57 7.647)"/>
      <path id="Tracciato_6659" data-name="Tracciato 6659" d="M1.557,1.576c-.14,0-.28.258-.248.377h.484c.032-.118-.1-.377-.237-.377" transform="translate(6.849 7.324)" fill="#ffe809"/>
      <path id="Tracciato_6660" data-name="Tracciato 6660" d="M1.816,1.983H1.31V1.972a.352.352,0,0,1,.086-.28.241.241,0,0,1,.172-.118.218.218,0,0,1,.151.1.4.4,0,0,1,.1.3Zm-.484-.022h.474a.441.441,0,0,0-.1-.28.2.2,0,0,0-.14-.075.22.22,0,0,0-.161.1.437.437,0,0,0-.075.258" transform="translate(6.837 7.305)"/>
      <path id="Tracciato_6661" data-name="Tracciato 6661" d="M1.458,1.586c-.086,0-.161.183-.14.269h.269c.022-.086-.043-.269-.129-.269" transform="translate(6.947 7.422)" fill="#ffe809"/>
      <path id="Tracciato_6662" data-name="Tracciato 6662" d="M1.607,1.876H1.316V1.865a.307.307,0,0,1,.065-.226l.086-.054.075.043a.333.333,0,0,1,.065.237Zm-.269-.022H1.6a.38.38,0,0,0-.065-.2l-.065-.043-.075.054a.312.312,0,0,0-.054.194" transform="translate(6.938 7.412)"/>
      <rect id="Rettangolo_493" data-name="Rettangolo 493" width="0.226" height="0.398" transform="translate(8.287 8.33)" fill="#ffe809"/>
      <path id="Tracciato_6663" data-name="Tracciato 6663" d="M1.573,1.942H1.315v-.42h.258ZM1.347,1.92h.215V1.544H1.347Z" transform="translate(6.95 6.797)"/>
      <path id="Tracciato_6664" data-name="Tracciato 6664" d="M1.57,1.584H1.506V1.509H1.441v.075H1.376V1.509H1.312V1.66h.344V1.509H1.57Z" transform="translate(6.919 6.669)" fill="#ffe809"/>
      <path id="Tracciato_6665" data-name="Tracciato 6665" d="M1.676,1.68H1.31V1.508h.1v.075h.032V1.508h.1v.075h.043V1.508h.1Zm-.334-.022h.312V1.53H1.59V1.6H1.514V1.53H1.461V1.6H1.385V1.53H1.342Z" transform="translate(6.902 6.661)"/>
      <path id="Tracciato_6666" data-name="Tracciato 6666" d="M1.325,1.535v.108h.054V1.535H1.325" transform="translate(7.045 6.921)"/>
      <rect id="Rettangolo_494" data-name="Rettangolo 494" width="0.237" height="0.215" transform="translate(7.964 8.513)" fill="#ffe809"/>
      <path id="Tracciato_6667" data-name="Tracciato 6667" d="M1.534,1.776H1.286V1.539h.248Zm-.226-.022h.215V1.561H1.308Z" transform="translate(6.667 6.963)"/>
      <path id="Tracciato_6668" data-name="Tracciato 6668" d="M1.55,1.6H1.486V1.526H1.421V1.6H1.357V1.526H1.281v.151h.355V1.526H1.55Z" transform="translate(6.621 6.837)" fill="#ffe809"/>
      <path id="Tracciato_6669" data-name="Tracciato 6669" d="M1.647,1.7H1.281V1.525h.1V1.6H1.41V1.525h.1V1.6h.032V1.525h.108ZM1.3,1.676h.323v-.14H1.561v.086H1.485V1.536H1.432v.086H1.356V1.536H1.3Z" transform="translate(6.619 6.827)"/>
      <path id="Tracciato_6670" data-name="Tracciato 6670" d="M1.3,1.548v.065h.054V1.548H1.3" transform="translate(6.759 7.049)"/>
      <rect id="Rettangolo_495" data-name="Rettangolo 495" width="0.237" height="0.215" transform="translate(8.599 8.513)" fill="#ffe809"/>
      <path id="Tracciato_6671" data-name="Tracciato 6671" d="M1.594,1.776H1.346V1.539h.248Zm-.237-.022h.215V1.561H1.357Z" transform="translate(7.253 6.963)"/>
      <path id="Tracciato_6672" data-name="Tracciato 6672" d="M1.6,1.6H1.535V1.526H1.471V1.6H1.406V1.526H1.342v.151h.344V1.526H1.6Z" transform="translate(7.21 6.837)" fill="#ffe809"/>
      <path id="Tracciato_6673" data-name="Tracciato 6673" d="M1.706,1.7H1.34V1.525h.1V1.6h.032V1.525h.1V1.6H1.6V1.525h.108Zm-.344-.022h.323v-.14H1.62v.086H1.544V1.536H1.491v.086H1.415V1.536H1.362Z" transform="translate(7.195 6.827)"/>
      <path id="Tracciato_6674" data-name="Tracciato 6674" d="M1.355,1.548v.065h.054V1.548H1.355" transform="translate(7.34 7.049)"/>
      <path id="Tracciato_6675" data-name="Tracciato 6675" d="M1.074,1.576l-.043.377H2.01l-.043-.377Z" transform="translate(4.173 7.32)" fill="#ffe809"/>
      <path id="Tracciato_6676" data-name="Tracciato 6676" d="M1.03,1.972l.032-.4h.915l.043.4ZM1.095,1.6l-.054.366L2,1.951,1.966,1.6Z" transform="translate(4.168 7.305)"/>
      <path id="Tracciato_6677" data-name="Tracciato 6677" d="M2.049,1.56H1.08L1.026,1.6l.054.043h.969L2.092,1.6,2.049,1.56" transform="translate(4.131 7.17)" fill="#ffe809"/>
      <path id="Tracciato_6678" data-name="Tracciato 6678" d="M2.048,1.667H1.08l-.054-.054.054-.054h.969c.043,0,.065.022.065.054s-.022.054-.065.054M1.08,1.581l-.032.032.032.032h.969l.043-.032-.043-.032Z" transform="translate(4.129 7.158)"/>
      <path id="Tracciato_6679" data-name="Tracciato 6679" d="M1.987,1.568H1.073l-.043.043.043.043h.915l.043-.043-.043-.043" transform="translate(4.163 7.244)" fill="#ffe809"/>
      <path id="Tracciato_6680" data-name="Tracciato 6680" d="M2,1.675H1.082l-.054-.054.054-.054H2l.054.054L2,1.675m-.915-.086-.032.032.032.032H2l.032-.032L2,1.589Z" transform="translate(4.149 7.237)"/>
      <path id="Tracciato_6681" data-name="Tracciato 6681" d="M2.079,1.611h-1l-.054.043.054.043h1l.043-.043-.043-.043" transform="translate(4.115 7.665)" fill="#ffe809"/>
      <path id="Tracciato_6682" data-name="Tracciato 6682" d="M2.079,1.717h-1l-.054-.054.054-.054h1l.065.054-.065.054m-1-.075-.032.011.032.043h1l.032-.011-.032-.043Z" transform="translate(4.11 7.647)"/>
      <path id="Tracciato_6683" data-name="Tracciato 6683" d="M1.3,1.576c-.14,0-.28.258-.248.377h.484c.032-.118-.086-.377-.237-.377" transform="translate(4.388 7.324)" fill="#ffe809"/>
      <path id="Tracciato_6684" data-name="Tracciato 6684" d="M1.565,1.983H1.059V1.972a.382.382,0,0,1,.075-.28.241.241,0,0,1,.172-.118.262.262,0,0,1,.161.1.52.52,0,0,1,.1.3Zm-.5-.022h.474a.441.441,0,0,0-.1-.28.2.2,0,0,0-.14-.075.2.2,0,0,0-.151.1.389.389,0,0,0-.086.258" transform="translate(4.387 7.305)"/>
      <path id="Tracciato_6685" data-name="Tracciato 6685" d="M1.206,1.586c-.086,0-.161.183-.14.269h.269c.022-.086-.032-.269-.129-.269" transform="translate(4.487 7.422)" fill="#ffe809"/>
      <path id="Tracciato_6686" data-name="Tracciato 6686" d="M1.355,1.876H1.064V1.865a.307.307,0,0,1,.065-.226l.086-.054.075.043a.333.333,0,0,1,.065.237Zm-.269-.022h.248a.3.3,0,0,0-.054-.2l-.065-.043L1.14,1.66a.312.312,0,0,0-.054.194" transform="translate(4.478 7.412)"/>
      <rect id="Rettangolo_496" data-name="Rettangolo 496" width="0.237" height="0.398" transform="translate(5.575 8.33)" fill="#ffe809"/>
      <path id="Tracciato_6687" data-name="Tracciato 6687" d="M1.312,1.942H1.064v-.42h.248ZM1.086,1.92H1.3V1.544H1.086Z" transform="translate(4.5 6.797)"/>
      <path id="Tracciato_6688" data-name="Tracciato 6688" d="M1.318,1.584H1.254l.011-.075H1.189v.075H1.125V1.509H1.06V1.66H1.4V1.509H1.318Z" transform="translate(4.462 6.669)" fill="#ffe809"/>
      <path id="Tracciato_6689" data-name="Tracciato 6689" d="M1.425,1.68H1.059V1.508h.1v.075h.032V1.508h.1v.075h.032V1.508h.108Zm-.344-.022H1.4V1.53H1.339V1.6H1.253l.011-.075H1.21V1.6H1.134V1.53H1.081Z" transform="translate(4.451 6.661)"/>
      <path id="Tracciato_6690" data-name="Tracciato 6690" d="M1.073,1.535v.108h.054V1.535H1.073" transform="translate(4.588 6.921)"/>
      <rect id="Rettangolo_497" data-name="Rettangolo 497" width="0.226" height="0.215" transform="translate(5.263 8.513)" fill="#ffe809"/>
      <path id="Tracciato_6691" data-name="Tracciato 6691" d="M1.283,1.776H1.035V1.539h.248Zm-.237-.022h.215V1.561H1.046Z" transform="translate(4.217 6.963)"/>
      <path id="Tracciato_6692" data-name="Tracciato 6692" d="M1.3,1.6H1.234V1.526H1.17V1.6H1.1V1.526H1.03v.151h.344V1.526H1.3Z" transform="translate(4.164 6.837)" fill="#ffe809"/>
      <path id="Tracciato_6693" data-name="Tracciato 6693" d="M1.395,1.7H1.029V1.525h.1V1.6h.032V1.525h.1V1.6h.032V1.525h.108Zm-.344-.022h.323v-.14H1.309v.086H1.233V1.536H1.18v.086H1.1V1.536H1.051Z" transform="translate(4.158 6.827)"/>
      <path id="Tracciato_6694" data-name="Tracciato 6694" d="M1.044,1.548v.065H1.1V1.548H1.044" transform="translate(4.303 7.049)"/>
      <rect id="Rettangolo_498" data-name="Rettangolo 498" width="0.226" height="0.215" transform="translate(5.898 8.513)" fill="#ffe809"/>
      <path id="Tracciato_6695" data-name="Tracciato 6695" d="M1.351,1.776H1.093V1.539h.258Zm-.226-.022h.215V1.561H1.125Z" transform="translate(4.783 6.963)"/>
      <path id="Tracciato_6696" data-name="Tracciato 6696" d="M1.358,1.6H1.293V1.526H1.229V1.6H1.164V1.526H1.089v.151h.355V1.526H1.358Z" transform="translate(4.744 6.837)" fill="#ffe809"/>
      <path id="Tracciato_6697" data-name="Tracciato 6697" d="M1.454,1.7H1.088V1.525h.1V1.6h.032V1.525h.1V1.6h.043V1.525h.1ZM1.11,1.676h.323v-.14H1.379v.086H1.292V1.536H1.239v.086H1.163V1.536H1.11Z" transform="translate(4.734 6.827)"/>
      <path id="Tracciato_6698" data-name="Tracciato 6698" d="M1.1,1.548v.065h.054V1.548H1.1" transform="translate(4.883 7.049)"/>
      <path id="Tracciato_6699" data-name="Tracciato 6699" d="M1.577,1.576l-.043.377h.979L2.47,1.576Z" transform="translate(9.088 7.32)" fill="#ffe809"/>
      <path id="Tracciato_6700" data-name="Tracciato 6700" d="M1.533,1.972l.043-.4h.915l.043.4ZM1.6,1.6l-.043.366.958-.011L2.48,1.6Z" transform="translate(9.079 7.305)"/>
      <path id="Tracciato_6701" data-name="Tracciato 6701" d="M2.552,1.56H1.583L1.53,1.6l.054.043h.969L2.595,1.6,2.552,1.56" transform="translate(9.044 7.17)" fill="#ffe809"/>
      <path id="Tracciato_6702" data-name="Tracciato 6702" d="M2.551,1.667H1.583l-.054-.054.054-.054h.969l.065.054-.065.054m-.969-.086-.032.032.032.032h.969l.043-.032-.043-.032Z" transform="translate(9.04 7.158)"/>
      <path id="Tracciato_6703" data-name="Tracciato 6703" d="M2.491,1.568H1.576l-.043.043.043.043h.915l.043-.043-.043-.043" transform="translate(9.078 7.244)" fill="#ffe809"/>
      <path id="Tracciato_6704" data-name="Tracciato 6704" d="M2.5,1.675H1.586l-.054-.054.054-.054H2.5l.054.054L2.5,1.675m-.915-.086-.032.032.032.032H2.5l.032-.032L2.5,1.589Z" transform="translate(9.069 7.237)"/>
      <path id="Tracciato_6705" data-name="Tracciato 6705" d="M2.583,1.611h-1l-.054.043.054.043h1l.043-.043-.043-.043" transform="translate(9.029 7.665)" fill="#ffe809"/>
      <path id="Tracciato_6706" data-name="Tracciato 6706" d="M2.583,1.717h-1l-.054-.054.054-.054h1l.065.054-.065.054m-1-.075-.032.011.032.043h1l.032-.011-.032-.043Z" transform="translate(9.03 7.647)"/>
      <path id="Tracciato_6707" data-name="Tracciato 6707" d="M1.809,1.576c-.14,0-.28.258-.248.377h.484c.032-.118-.1-.377-.237-.377" transform="translate(9.309 7.324)" fill="#ffe809"/>
      <path id="Tracciato_6708" data-name="Tracciato 6708" d="M2.067,1.983H1.561V1.972a.352.352,0,0,1,.086-.28.241.241,0,0,1,.172-.118.218.218,0,0,1,.151.1.4.4,0,0,1,.1.3Zm-.484-.022h.474a.441.441,0,0,0-.1-.28.2.2,0,0,0-.14-.075.24.24,0,0,0-.161.1.437.437,0,0,0-.075.258" transform="translate(9.287 7.305)"/>
      <path id="Tracciato_6709" data-name="Tracciato 6709" d="M1.709,1.586c-.086,0-.161.183-.14.269h.269c.022-.086-.043-.269-.129-.269" transform="translate(9.397 7.422)" fill="#ffe809"/>
      <path id="Tracciato_6710" data-name="Tracciato 6710" d="M1.858,1.876H1.567V1.865a.307.307,0,0,1,.065-.226l.086-.054.075.043a.333.333,0,0,1,.065.237Zm-.269-.022h.248a.3.3,0,0,0-.054-.2l-.065-.043-.075.054a.256.256,0,0,0-.054.194" transform="translate(9.389 7.412)"/>
      <rect id="Rettangolo_499" data-name="Rettangolo 499" width="0.237" height="0.398" transform="translate(10.988 8.33)" fill="#ffe809"/>
      <path id="Tracciato_6711" data-name="Tracciato 6711" d="M1.816,1.942H1.568v-.42h.248ZM1.579,1.92h.215V1.544H1.579Z" transform="translate(9.42 6.797)"/>
      <path id="Tracciato_6712" data-name="Tracciato 6712" d="M1.822,1.584H1.757V1.509H1.693v.075H1.628V1.509H1.564V1.66H1.9V1.509H1.822Z" transform="translate(9.377 6.669)" fill="#ffe809"/>
      <path id="Tracciato_6713" data-name="Tracciato 6713" d="M1.928,1.68H1.562V1.508h.1v.075h.032V1.508h.1v.075h.043V1.508h.1Zm-.344-.022h.323V1.53H1.842V1.6H1.766V1.53H1.713V1.6H1.637V1.53H1.584Z" transform="translate(9.362 6.661)"/>
      <path id="Tracciato_6714" data-name="Tracciato 6714" d="M1.576,1.535v.108H1.63V1.535H1.576" transform="translate(9.501 6.921)"/>
      <rect id="Rettangolo_500" data-name="Rettangolo 500" width="0.237" height="0.215" transform="translate(10.676 8.513)" fill="#ffe809"/>
      <path id="Tracciato_6715" data-name="Tracciato 6715" d="M1.786,1.776H1.538V1.539h.248ZM1.56,1.754h.215V1.561H1.56Z" transform="translate(9.127 6.963)"/>
      <path id="Tracciato_6716" data-name="Tracciato 6716" d="M1.8,1.6H1.737V1.526H1.673V1.6H1.608V1.526H1.533v.151h.355V1.526H1.8Z" transform="translate(9.079 6.837)" fill="#ffe809"/>
      <path id="Tracciato_6717" data-name="Tracciato 6717" d="M1.9,1.7H1.532V1.525h.1V1.6h.032V1.525h.1V1.6H1.8V1.525h.1Zm-.344-.022h.323v-.14H1.823v.086H1.736V1.536H1.683v.086H1.607V1.536H1.554Z" transform="translate(9.069 6.827)"/>
      <path id="Tracciato_6718" data-name="Tracciato 6718" d="M1.547,1.548v.065H1.6V1.548H1.547" transform="translate(9.217 7.049)"/>
      <rect id="Rettangolo_501" data-name="Rettangolo 501" width="0.226" height="0.215" transform="translate(11.311 8.513)" fill="#ffe809"/>
      <path id="Tracciato_6719" data-name="Tracciato 6719" d="M1.855,1.776H1.6V1.539h.258Zm-.237-.022h.215V1.561H1.619Z" transform="translate(9.703 6.963)"/>
      <path id="Tracciato_6720" data-name="Tracciato 6720" d="M1.852,1.6H1.787V1.526H1.722V1.6H1.658V1.526H1.593v.151h.344V1.526H1.852Z" transform="translate(9.667 6.837)" fill="#ffe809"/>
      <path id="Tracciato_6721" data-name="Tracciato 6721" d="M1.958,1.7H1.592V1.525h.1V1.6h.032V1.525h.1V1.6H1.85V1.525h.108Zm-.344-.022h.323v-.14H1.872v.086H1.8V1.536H1.743v.086H1.667V1.536H1.614Z" transform="translate(9.655 6.827)"/>
      <path id="Tracciato_6722" data-name="Tracciato 6722" d="M1.606,1.548v.065H1.66V1.548H1.606" transform="translate(9.796 7.049)"/>
      <path id="Tracciato_6723" data-name="Tracciato 6723" d="M1.073,1.833,1.03,2.21H2.01l-.043-.377Z" transform="translate(4.172 9.834)" fill="#ffe809"/>
      <path id="Tracciato_6724" data-name="Tracciato 6724" d="M1.029,2.241l.043-.409h.915l.043.4Zm.065-.387-.043.366.958-.011-.032-.355Z" transform="translate(4.158 9.824)"/>
      <path id="Tracciato_6725" data-name="Tracciato 6725" d="M2.049,1.818H1.069l-.043.043.043.043h.979l.043-.043-.043-.043" transform="translate(4.131 9.686)" fill="#ffe809"/>
      <path id="Tracciato_6726" data-name="Tracciato 6726" d="M2.069,1.914H1.09l-.065-.043.065-.054h.979l.054.054-.054.043M1.09,1.839l-.032.032L1.09,1.9h.979L2.1,1.871l-.032-.032Z" transform="translate(4.119 9.677)"/>
      <path id="Tracciato_6727" data-name="Tracciato 6727" d="M1.987,1.826H1.072l-.043.043.043.032h.915l.043-.032-.043-.043" transform="translate(4.161 9.761)" fill="#ffe809"/>
      <path id="Tracciato_6728" data-name="Tracciato 6728" d="M2,1.932H1.082l-.054-.054.054-.054H2l.054.054L2,1.932m-.915-.086-.032.032.032.032H2l.032-.032L2,1.846Z" transform="translate(4.149 9.746)"/>
      <path id="Tracciato_6729" data-name="Tracciato 6729" d="M2.069,1.868h-1l-.043.043.043.043h1l.043-.043-.043-.043" transform="translate(4.122 10.18)" fill="#ffe809"/>
      <path id="Tracciato_6730" data-name="Tracciato 6730" d="M2.079,1.985h-1l-.054-.054.054-.065h1l.065.065-.065.054m-1-.086-.032.032.032.022h1l.032-.022L2.079,1.9Z" transform="translate(4.11 10.165)"/>
      <path id="Tracciato_6731" data-name="Tracciato 6731" d="M1.3,1.833c-.14,0-.28.258-.248.377h.484c.032-.118-.086-.377-.237-.377" transform="translate(4.388 9.833)" fill="#ffe809"/>
      <path id="Tracciato_6732" data-name="Tracciato 6732" d="M1.564,2.231h-.5L1.058,2.22a.352.352,0,0,1,.086-.28.223.223,0,0,1,.172-.108.174.174,0,0,1,.151.086.452.452,0,0,1,.108.3ZM1.079,2.21h.474a.441.441,0,0,0-.1-.28.2.2,0,0,0-.14-.075.22.22,0,0,0-.161.1.437.437,0,0,0-.075.258" transform="translate(4.377 9.833)"/>
      <path id="Tracciato_6733" data-name="Tracciato 6733" d="M1.206,1.844c-.086,0-.161.183-.14.269h.269c.022-.086-.043-.269-.129-.269" transform="translate(4.487 9.941)" fill="#ffe809"/>
      <path id="Tracciato_6734" data-name="Tracciato 6734" d="M1.355,2.134H1.064V2.123A.307.307,0,0,1,1.129,1.9l.086-.054L1.29,1.9a.3.3,0,0,1,.065.226Zm-.269-.022h.248a.3.3,0,0,0-.054-.2l-.065-.043-.075.054a.312.312,0,0,0-.054.194" transform="translate(4.478 9.931)"/>
      <rect id="Rettangolo_502" data-name="Rettangolo 502" width="0.237" height="0.398" transform="translate(5.575 11.107)" fill="#ffe809"/>
      <path id="Tracciato_6735" data-name="Tracciato 6735" d="M1.312,2.2H1.064V1.78h.248Zm-.226-.022H1.3V1.8H1.086Z" transform="translate(4.5 9.316)"/>
      <path id="Tracciato_6736" data-name="Tracciato 6736" d="M1.318,1.842H1.254V1.767H1.189v.075H1.125V1.767H1.06v.151H1.4V1.767H1.318Z" transform="translate(4.461 9.184)" fill="#ffe809"/>
      <path id="Tracciato_6737" data-name="Tracciato 6737" d="M1.425,1.938H1.059V1.766h.1v.075h.032V1.766h.1l-.011.075h.043V1.766h.108Zm-.344-.022H1.4V1.788H1.339v.075H1.253l.011-.075H1.21v.075H1.134V1.788H1.081Z" transform="translate(4.451 9.179)"/>
      <path id="Tracciato_6738" data-name="Tracciato 6738" d="M1.073,1.792V1.9h.054V1.792H1.073" transform="translate(4.585 9.436)"/>
      <rect id="Rettangolo_503" data-name="Rettangolo 503" width="0.226" height="0.215" transform="translate(5.252 11.29)" fill="#ffe809"/>
      <path id="Tracciato_6739" data-name="Tracciato 6739" d="M1.292,2.034H1.034V1.8h.258Zm-.237-.022h.215V1.819H1.056Z" transform="translate(4.207 9.482)"/>
      <path id="Tracciato_6740" data-name="Tracciato 6740" d="M1.289,1.859H1.224V1.784H1.16v.075H1.095V1.784H1.03v.151h.344V1.784H1.289Z" transform="translate(4.172 9.353)" fill="#ffe809"/>
      <path id="Tracciato_6741" data-name="Tracciato 6741" d="M1.395,1.955H1.029V1.783h.1v.075h.032V1.783h.1v.075h.032V1.783h.108Zm-.344-.022h.323V1.8H1.309V1.88H1.233V1.8H1.18V1.88H1.1V1.8H1.051Z" transform="translate(4.158 9.345)"/>
      <path id="Tracciato_6742" data-name="Tracciato 6742" d="M1.044,1.805V1.87H1.1V1.805H1.044" transform="translate(4.301 9.564)"/>
      <rect id="Rettangolo_504" data-name="Rettangolo 504" width="0.237" height="0.215" transform="translate(5.898 11.29)" fill="#ffe809"/>
      <path id="Tracciato_6743" data-name="Tracciato 6743" d="M1.351,2.034H1.093V1.8h.258Zm-.226-.022h.215V1.819H1.125Z" transform="translate(4.783 9.482)"/>
      <path id="Tracciato_6744" data-name="Tracciato 6744" d="M1.348,1.859H1.283V1.784H1.219v.075H1.154V1.784H1.09v.151h.344V1.784H1.348Z" transform="translate(4.751 9.353)" fill="#ffe809"/>
      <path id="Tracciato_6745" data-name="Tracciato 6745" d="M1.454,1.955H1.088V1.783h.1v.075h.032V1.783h.1v.075h.032V1.783h.108ZM1.11,1.934h.323V1.8H1.379V1.88H1.292V1.8H1.239V1.88H1.163V1.8H1.11Z" transform="translate(4.734 9.345)"/>
      <path id="Tracciato_6746" data-name="Tracciato 6746" d="M1.1,1.805V1.87h.054V1.805H1.1" transform="translate(4.882 9.564)"/>
      <path id="Tracciato_6747" data-name="Tracciato 6747" d="M1.577,1.833l-.043.377h.979L2.47,1.833Z" transform="translate(9.085 9.834)" fill="#ffe809"/>
      <path id="Tracciato_6748" data-name="Tracciato 6748" d="M1.533,2.241l.043-.409h.915l.043.4ZM1.6,1.854l-.043.366.958-.011-.043-.355Z" transform="translate(9.079 9.824)"/>
      <path id="Tracciato_6749" data-name="Tracciato 6749" d="M2.552,1.818H1.573l-.043.043.043.043h.979l.043-.043-.043-.043" transform="translate(9.044 9.686)" fill="#ffe809"/>
      <path id="Tracciato_6750" data-name="Tracciato 6750" d="M2.562,1.914H1.583l-.054-.043.054-.054h.979l.054.054-.054.043m-.979-.075-.032.032.032.032h.979l.032-.032-.032-.032Z" transform="translate(9.04 9.677)"/>
      <path id="Tracciato_6751" data-name="Tracciato 6751" d="M2.491,1.826H1.576l-.043.043.043.032h.915l.043-.032-.043-.043" transform="translate(9.076 9.761)" fill="#ffe809"/>
      <path id="Tracciato_6752" data-name="Tracciato 6752" d="M2.5,1.932H1.586l-.054-.054.054-.054H2.5l.054.054L2.5,1.932m-.915-.086-.032.032.032.032H2.5l.032-.032L2.5,1.846Z" transform="translate(9.069 9.746)"/>
      <path id="Tracciato_6753" data-name="Tracciato 6753" d="M2.573,1.868h-1l-.043.043.043.043h1l.043-.043-.043-.043" transform="translate(9.037 10.18)" fill="#ffe809"/>
      <path id="Tracciato_6754" data-name="Tracciato 6754" d="M2.592,1.985h-1l-.065-.054.065-.065h1l.065.065-.065.054m-1-.086-.032.032.032.022h1l.032-.022L2.592,1.9Z" transform="translate(9.02 10.165)"/>
      <path id="Tracciato_6755" data-name="Tracciato 6755" d="M1.808,1.833c-.14,0-.28.258-.248.377h.484c.032-.118-.1-.377-.237-.377" transform="translate(9.299 9.833)" fill="#ffe809"/>
      <path id="Tracciato_6756" data-name="Tracciato 6756" d="M2.066,2.231h-.5L1.56,2.22a.4.4,0,0,1,.086-.28.223.223,0,0,1,.172-.108.174.174,0,0,1,.151.086.389.389,0,0,1,.1.3ZM1.582,2.21h.474a.441.441,0,0,0-.1-.28.2.2,0,0,0-.14-.075.187.187,0,0,0-.151.1.389.389,0,0,0-.086.258" transform="translate(9.288 9.833)"/>
      <path id="Tracciato_6757" data-name="Tracciato 6757" d="M1.709,1.844c-.086,0-.161.183-.14.269h.269c.022-.086-.032-.269-.129-.269" transform="translate(9.397 9.941)" fill="#ffe809"/>
      <path id="Tracciato_6758" data-name="Tracciato 6758" d="M1.858,2.134H1.567V2.123A.307.307,0,0,1,1.632,1.9l.086-.054.075.054a.3.3,0,0,1,.065.226Zm-.269-.022h.248a.3.3,0,0,0-.054-.2l-.065-.043-.075.054a.256.256,0,0,0-.054.194" transform="translate(9.389 9.931)"/>
      <rect id="Rettangolo_505" data-name="Rettangolo 505" width="0.237" height="0.398" transform="translate(10.988 11.107)" fill="#ffe809"/>
      <path id="Tracciato_6759" data-name="Tracciato 6759" d="M1.816,2.2H1.568V1.78h.248Zm-.237-.022h.215V1.8H1.579Z" transform="translate(9.42 9.316)"/>
      <path id="Tracciato_6760" data-name="Tracciato 6760" d="M1.831,1.842H1.767V1.767H1.7v.075H1.638V1.767H1.562v.151h.344V1.767H1.831Z" transform="translate(9.366 9.184)" fill="#ffe809"/>
      <path id="Tracciato_6761" data-name="Tracciato 6761" d="M1.928,1.938H1.562V1.766h.1v.075h.032V1.766h.1v.075h.043V1.766h.1Zm-.344-.022h.323V1.788H1.842v.075H1.766V1.788H1.713v.075H1.637V1.788H1.584Z" transform="translate(9.362 9.179)"/>
      <path id="Tracciato_6762" data-name="Tracciato 6762" d="M1.576,1.792V1.9H1.63V1.792H1.576" transform="translate(9.5 9.436)"/>
      <rect id="Rettangolo_506" data-name="Rettangolo 506" width="0.226" height="0.215" transform="translate(10.676 11.29)" fill="#ffe809"/>
      <path id="Tracciato_6763" data-name="Tracciato 6763" d="M1.8,2.034H1.537V1.8H1.8Zm-.226-.022h.215V1.819H1.569Z" transform="translate(9.118 9.482)"/>
      <path id="Tracciato_6764" data-name="Tracciato 6764" d="M1.792,1.859H1.727V1.784H1.663v.075H1.6V1.784H1.534v.151h.344V1.784H1.792Z" transform="translate(9.085 9.353)" fill="#ffe809"/>
      <path id="Tracciato_6765" data-name="Tracciato 6765" d="M1.9,1.955H1.532V1.783h.1v.075h.032V1.783h.1v.075H1.79V1.783H1.9Zm-.344-.022h.323V1.8H1.823V1.88H1.736V1.8H1.683V1.88H1.607V1.8H1.554Z" transform="translate(9.069 9.345)"/>
      <path id="Tracciato_6766" data-name="Tracciato 6766" d="M1.547,1.805V1.87H1.6V1.805H1.547" transform="translate(9.214 9.564)"/>
      <rect id="Rettangolo_507" data-name="Rettangolo 507" width="0.226" height="0.215" transform="translate(11.311 11.29)" fill="#ffe809"/>
      <path id="Tracciato_6767" data-name="Tracciato 6767" d="M1.845,2.034H1.6V1.8h.248Zm-.226-.022h.215V1.819H1.619Z" transform="translate(9.703 9.482)"/>
      <path id="Tracciato_6768" data-name="Tracciato 6768" d="M1.851,1.859H1.787V1.784H1.722v.075H1.668V1.784H1.593v.151h.344V1.784H1.851Z" transform="translate(9.665 9.353)" fill="#ffe809"/>
      <path id="Tracciato_6769" data-name="Tracciato 6769" d="M1.958,1.955H1.592V1.783h.1v.075h.032V1.783h.1l-.011.075H1.85V1.783h.108Zm-.344-.022h.323V1.8H1.872V1.88H1.8V1.8H1.743V1.88H1.667V1.8H1.614Z" transform="translate(9.655 9.345)"/>
      <path id="Tracciato_6770" data-name="Tracciato 6770" d="M1.606,1.805V1.87H1.66V1.805H1.606" transform="translate(9.794 9.564)"/>
      <path id="Tracciato_6771" data-name="Tracciato 6771" d="M1.458,2.3l.689.7.237-.3-.635-.635Z" transform="translate(8.346 12.08)" fill="#ffe809"/>
      <path id="Tracciato_6772" data-name="Tracciato 6772" d="M2.156,3.02l-.7-.71.312-.248.646.646Zm-.667-.71.667.678.226-.28-.624-.624Z" transform="translate(8.327 12.069)"/>
      <path id="Tracciato_6773" data-name="Tracciato 6773" d="M1.552,2.05H1.487V2.1l.7.689.054.011V2.739Z" transform="translate(8.633 11.955)" fill="#ffe809"/>
      <path id="Tracciato_6774" data-name="Tracciato 6774" d="M2.238,2.835h0L2.2,2.813l-.689-.678-.022-.043.022-.043.075.011.689.689.022.032-.022.043-.032.011m-.7-.775-.022.011-.011.011.011.032.7.689.032.011.011-.022-.011-.032L1.56,2.071Z" transform="translate(8.61 11.942)"/>
      <path id="Tracciato_6775" data-name="Tracciato 6775" d="M1.539,2.058H1.485v.054l.646.646.054.011V2.7Z" transform="translate(8.609 12.025)" fill="#ffe809"/>
      <path id="Tracciato_6776" data-name="Tracciato 6776" d="M2.162,2.8h0L2.13,2.777l-.646-.646V2.056l.075.011.646.646.011.032v.032L2.162,2.8m-.646-.732-.022.011v.043l.646.646.022.011.022-.011.011-.022-.011-.022-.646-.646Z" transform="translate(8.6 12.01)"/>
      <path id="Tracciato_6777" data-name="Tracciato 6777" d="M1.515,2.085H1.451l.011.054.71.71.054.011V2.8Z" transform="translate(8.273 12.294)" fill="#ffe809"/>
      <path id="Tracciato_6778" data-name="Tracciato 6778" d="M2.2,2.911h0L2.16,2.889l-.71-.71V2.1l.032-.022.032.011.721.721.022.043-.022.032L2.2,2.911m-.721-.8H1.472v.043l.71.71.022.011h.022V2.835L1.5,2.125l-.022-.011" transform="translate(8.268 12.264)"/>
      <path id="Tracciato_6779" data-name="Tracciato 6779" d="M1.473,2.232l.344.344c.108-.065.194-.344.1-.441s-.377-.011-.441.1" transform="translate(8.493 12.329)" fill="#ffe809"/>
      <path id="Tracciato_6780" data-name="Tracciato 6780" d="M1.828,2.594l-.355-.355V2.228a.432.432,0,0,1,.323-.14.172.172,0,0,1,.129.043.214.214,0,0,1,.043.2A.337.337,0,0,1,1.828,2.594Zm-.334-.355.334.334a.355.355,0,0,0,.118-.237.225.225,0,0,0-.032-.183A.147.147,0,0,0,1.8,2.11a.412.412,0,0,0-.3.129" transform="translate(8.493 12.323)"/>
      <path id="Tracciato_6781" data-name="Tracciato 6781" d="M1.481,2.216l.194.194c.075-.043.151-.226.086-.291s-.237.032-.28.1" transform="translate(8.571 12.421)" fill="#ffe809"/>
      <path id="Tracciato_6782" data-name="Tracciato 6782" d="M1.683,2.431l-.2-.2H1.49A.306.306,0,0,1,1.716,2.1l.065.032.032.1a.327.327,0,0,1-.118.2Zm-.172-.2.183.183a.335.335,0,0,0,.1-.183L1.77,2.14l-.054-.011a.285.285,0,0,0-.2.1" transform="translate(8.551 12.411)"/>
      <rect id="Rettangolo_508" data-name="Rettangolo 508" width="0.4" height="0.232" transform="translate(10.448 14.268) rotate(-45)" fill="#ffe809"/>
      <path id="Tracciato_6783" data-name="Tracciato 6783" d="M1.7,2.521l-.183-.172.3-.3L2,2.23Zm-.151-.172L1.7,2.5l.269-.269-.151-.151Z" transform="translate(8.913 11.923)"/>
      <path id="Tracciato_6784" data-name="Tracciato 6784" d="M1.788,2.282l-.043-.043L1.8,2.185l-.043-.043L1.7,2.2l-.054-.043L1.7,2.1l-.054-.065-.108.108.248.248L1.9,2.282l-.054-.054Z" transform="translate(9.151 11.8)" fill="#ffe809"/>
      <path id="Tracciato_6785" data-name="Tracciato 6785" d="M1.8,2.411l-.258-.258.129-.118.065.065-.054.054.032.032.054-.054L1.83,2.2l-.054.054.032.032.043-.054.075.065Zm-.226-.258.226.226.1-.086-.043-.043L1.808,2.3l-.065-.054L1.8,2.2l-.032-.032-.054.054-.054-.065L1.711,2.1l-.043-.032Z" transform="translate(9.137 11.796)"/>
      <path id="Tracciato_6786" data-name="Tracciato 6786" d="M1.61,2.063l-.075.075.043.032L1.643,2.1,1.61,2.063" transform="translate(9.099 12.079)"/>
      <rect id="Rettangolo_509" data-name="Rettangolo 509" width="0.217" height="0.232" transform="translate(10.673 14.494) rotate(-45)" fill="#ffe809"/>
      <path id="Tracciato_6787" data-name="Tracciato 6787" d="M1.72,2.425l-.183-.183.172-.161.172.172Zm-.151-.183.151.151.14-.14L1.709,2.1Z" transform="translate(9.118 12.254)"/>
      <path id="Tracciato_6788" data-name="Tracciato 6788" d="M1.8,2.315l-.043-.043.054-.054-.043-.043-.054.054-.043-.054.054-.054-.065-.054-.108.108.248.248L1.9,2.315,1.85,2.261Z" transform="translate(9.235 12.124)" fill="#ffe809"/>
      <path id="Tracciato_6789" data-name="Tracciato 6789" d="M1.806,2.453,1.548,2.2l.129-.129.075.075L1.688,2.2l.032.032.054-.054.065.065-.054.054.022.022.065-.054.065.065ZM1.58,2.2l.226.226.1-.1-.032-.032-.065.054-.054-.054.054-.054-.032-.032L1.72,2.26,1.656,2.2l.065-.054L1.677,2.1Z" transform="translate(9.225 12.108)"/>
      <path id="Tracciato_6790" data-name="Tracciato 6790" d="M1.593,2.093l-.043.054.032.032.043-.054-.032-.032" transform="translate(9.24 12.37)"/>
      <rect id="Rettangolo_510" data-name="Rettangolo 510" width="0.213" height="0.228" transform="translate(10.223 14.041) rotate(-45)" fill="#ffe809"/>
      <path id="Tracciato_6791" data-name="Tracciato 6791" d="M1.678,2.383,1.495,2.2l.172-.161.172.172ZM1.527,2.2l.151.151.14-.14-.151-.151Z" transform="translate(8.708 11.844)"/>
      <path id="Tracciato_6792" data-name="Tracciato 6792" d="M1.755,2.273,1.712,2.23l.054-.054-.043-.054-.054.065-.043-.054.054-.054-.065-.054-.108.108.248.248.108-.108-.054-.054Z" transform="translate(8.826 11.715)" fill="#ffe809"/>
      <path id="Tracciato_6793" data-name="Tracciato 6793" d="M1.764,2.411l-.258-.258.129-.129L1.7,2.1l-.054.054.032.032.054-.054L1.8,2.2l-.054.054.022.022.065-.054.065.065Zm-.226-.258.226.226.1-.1L1.829,2.25,1.764,2.3,1.71,2.25,1.764,2.2l-.032-.032-.054.054-.054-.065L1.678,2.1l-.043-.043Z" transform="translate(8.815 11.698)"/>
      <path id="Tracciato_6794" data-name="Tracciato 6794" d="M1.551,2.051l-.043.043.032.043.043-.054-.032-.032" transform="translate(8.831 11.961)"/>
      <path id="Tracciato_6795" data-name="Tracciato 6795" d="M1.115,2.7l.237.3.689-.7L1.75,2.063Z" transform="translate(4.996 12.079)" fill="#ffe809"/>
      <path id="Tracciato_6796" data-name="Tracciato 6796" d="M1.371,3.02l-.258-.312.657-.646.3.248Zm-.226-.312.226.28.667-.678L1.77,2.084Z" transform="translate(4.978 12.069)"/>
      <path id="Tracciato_6797" data-name="Tracciato 6797" d="M1.79,2.05,1.1,2.739V2.8h.054l.689-.7.011-.054H1.79" transform="translate(4.862 11.951)" fill="#ffe809"/>
      <path id="Tracciato_6798" data-name="Tracciato 6798" d="M1.142,2.835H1.121L1.1,2.792l.011-.054L1.8,2.049h.075v.086l-.689.678-.043.022m.7-.786H1.831l-.7.7-.011.032.011.011.011.022.032-.022.689-.678V2.071Z" transform="translate(4.842 11.942)"/>
      <path id="Tracciato_6799" data-name="Tracciato 6799" d="M1.754,2.057,1.109,2.7v.065h.054l.646-.656V2.057H1.754" transform="translate(4.937 12.022)" fill="#ffe809"/>
      <path id="Tracciato_6800" data-name="Tracciato 6800" d="M1.16,2.8h0l-.043-.022-.011-.032.011-.022.657-.667h.065v.075l-.646.646L1.16,2.8m.646-.732-.022.011-.646.646-.011.011v.022l.054.011.646-.646V2.078Z" transform="translate(4.91 12.01)"/>
      <path id="Tracciato_6801" data-name="Tracciato 6801" d="M1.846,2.085l-.71.71V2.86L1.2,2.849l.7-.71.011-.054H1.846" transform="translate(5.202 12.292)" fill="#ffe809"/>
      <path id="Tracciato_6802" data-name="Tracciato 6802" d="M1.187,2.911h0l-.032-.022-.022-.032.022-.043.71-.71.043-.022L1.94,2.1v.075l-.71.71-.043.022m.721-.8-.022.011-.71.71-.011.022v.011h.043l.71-.7.011-.043Z" transform="translate(5.174 12.264)"/>
      <path id="Tracciato_6803" data-name="Tracciato 6803" d="M1.184,2.136a.351.351,0,0,0,.1.441l.344-.344c-.065-.108-.334-.2-.441-.1" transform="translate(5.241 12.329)" fill="#ffe809"/>
      <path id="Tracciato_6804" data-name="Tracciato 6804" d="M1.288,2.6V2.594a.3.3,0,0,1-.14-.248.228.228,0,0,1,.043-.215.2.2,0,0,1,.129-.043.459.459,0,0,1,.323.151v.011Zm.032-.5a.134.134,0,0,0-.118.043.234.234,0,0,0-.043.183.381.381,0,0,0,.129.237l.334-.334a.459.459,0,0,0-.3-.129" transform="translate(5.234 12.323)"/>
      <path id="Tracciato_6805" data-name="Tracciato 6805" d="M1.174,2.115c-.065.075.011.248.086.291l.194-.194c-.054-.065-.215-.151-.28-.1" transform="translate(5.337 12.425)" fill="#ffe809"/>
      <path id="Tracciato_6806" data-name="Tracciato 6806" d="M1.278,2.431,1.267,2.42a.3.3,0,0,1-.118-.194l.022-.108L1.246,2.1a.358.358,0,0,1,.226.118v.011Zm-.032-.312-.054.022-.022.075a.335.335,0,0,0,.1.183l.183-.172a.3.3,0,0,0-.2-.108" transform="translate(5.33 12.411)"/>
      <rect id="Rettangolo_511" data-name="Rettangolo 511" width="0.232" height="0.4" transform="translate(5.942 14.145) rotate(-45)" fill="#ffe809"/>
      <path id="Tracciato_6807" data-name="Tracciato 6807" d="M1.4,2.53l-.3-.3.183-.183.3.3Zm-.269-.3L1.4,2.5l.151-.151L1.28,2.078Z" transform="translate(4.822 11.913)"/>
      <path id="Tracciato_6808" data-name="Tracciato 6808" d="M1.269,2.089l.054.054-.043.043-.054-.054-.054.054.054.043-.043.043-.054-.054-.043.054.108.108.237-.237-.108-.108Z" transform="translate(4.713 11.804)" fill="#ffe809"/>
      <path id="Tracciato_6809" data-name="Tracciato 6809" d="M1.2,2.41l-.118-.118.065-.065.054.054.032-.032-.054-.054.065-.065.054.054.022-.022-.054-.054.075-.075.129.118Zm-.086-.118.086.086.237-.226-.1-.086L1.3,2.108l.054.054L1.3,2.216l-.054-.054-.032.032.054.054L1.2,2.3l-.054-.043Z" transform="translate(4.695 11.786)"/>
      <path id="Tracciato_6810" data-name="Tracciato 6810" d="M1.113,2.1l.075.075.032-.043-.075-.065L1.113,2.1" transform="translate(4.979 12.08)"/>
      <rect id="Rettangolo_512" data-name="Rettangolo 512" width="0.228" height="0.213" transform="translate(5.847 14.503) rotate(-45)" fill="#ffe809"/>
      <path id="Tracciato_6811" data-name="Tracciato 6811" d="M1.261,2.424l-.172-.161.183-.183.161.172Zm-.14-.161.14.14.151-.151-.14-.14Z" transform="translate(4.744 12.245)"/>
      <path id="Tracciato_6812" data-name="Tracciato 6812" d="M1.26,2.122l.054.054-.043.043-.054-.054-.054.054.054.054-.032.043-.054-.054L1.077,2.3l.108.118.248-.248-.118-.108Z" transform="translate(4.625 12.125)" fill="#ffe809"/>
      <path id="Tracciato_6813" data-name="Tracciato 6813" d="M1.2,2.453l-.129-.129L1.15,2.26l.043.054.032-.032-.054-.054.065-.065.054.054L1.323,2.2l-.054-.054.065-.075.129.129Zm-.1-.129.1.1L1.43,2.2l-.1-.1-.043.043.054.054-.054.054L1.236,2.2,1.2,2.227l.054.054-.065.065L1.15,2.281Z" transform="translate(4.608 12.108)"/>
      <path id="Tracciato_6814" data-name="Tracciato 6814" d="M1.1,2.125l.043.054.043-.043-.054-.043L1.1,2.125" transform="translate(4.868 12.37)"/>
      <rect id="Rettangolo_513" data-name="Rettangolo 513" width="0.228" height="0.213" transform="translate(6.299 14.052) rotate(-45)" fill="#ffe809"/>
      <path id="Tracciato_6815" data-name="Tracciato 6815" d="M1.3,2.382l-.172-.161.183-.183.161.172Zm-.14-.161.14.14.151-.151-.14-.14Z" transform="translate(5.154 11.835)"/>
      <path id="Tracciato_6816" data-name="Tracciato 6816" d="M1.3,2.08l.054.054-.043.043-.054-.054-.043.043.054.065-.043.043-.054-.065-.054.054.108.108.248-.237-.118-.108Z" transform="translate(5.034 11.716)" fill="#ffe809"/>
      <path id="Tracciato_6817" data-name="Tracciato 6817" d="M1.246,2.411l-.129-.129.065-.065.054.054.032-.022-.054-.065.065-.054.054.043.032-.022L1.3,2.1l.075-.075.129.129Zm-.1-.129.1.1.226-.226-.1-.1L1.332,2.1l.054.054-.054.054-.054-.054-.032.032L1.3,2.25,1.235,2.3,1.182,2.25Z" transform="translate(5.018 11.698)"/>
      <path id="Tracciato_6818" data-name="Tracciato 6818" d="M1.144,2.083l.043.043.043-.032-.054-.043-.032.032" transform="translate(5.277 11.961)"/>
    </g>
  </g>
</svg>
