<svg xmlns="http://www.w3.org/2000/svg" xmlns:xlink="http://www.w3.org/1999/xlink" width="24" height="24" viewBox="0 0 24 24">
  <defs>
    <clipPath id="clip-path">
      <path id="Tracciato_7681" data-name="Tracciato 7681" d="M2.253,12.749a12,12,0,1,0,12-12,12,12,0,0,0-12,12" transform="translate(-2.253 -0.749)" fill="none"/>
    </clipPath>
  </defs>
  <g id="Samoa_Americane" data-name="Samoa Americane" transform="translate(-2.253 -0.749)">
    <g id="Raggruppa_228" data-name="Raggruppa 228" transform="translate(2.253 0.749)" clip-path="url(#clip-path)">
      <rect id="Rettangolo_568" data-name="Rettangolo 568" width="48.075" height="24.043" transform="translate(-24.248 -0.022)" fill="#000061"/>
      <path id="Tracciato_7601" data-name="Tracciato 7601" d="M48.075.747,0,12.769,48.075,24.79Z" transform="translate(-24.251 -0.767)" fill="#dd070e"/>
      <path id="Tracciato_7602" data-name="Tracciato 7602" d="M43.448.865.474,11.617,43.448,22.369Z" transform="translate(-19.624 0.387)" fill="#fff"/>
      <path id="Tracciato_7603" data-name="Tracciato 7603" d="M4.294,1.768H4.283V1.757l-.065-.043L4.208,1.7V1.682l-.054-.043.022-.086.011-.011c.183-.054.355-.108.549-.151a.561.561,0,0,1-.086.194.563.563,0,0,1-.355.183" transform="translate(16.305 5.518)" fill="#b52a00"/>
      <path id="Tracciato_7604" data-name="Tracciato 7604" d="M5.109,1.363a.219.219,0,0,1,.065.151c0,.108-.1.2-.248.237l-.054.022c-.194.043-.377.108-.56.161l-.086-.054-.011-.011V1.815L4.14,1.761V1.75l.086-.065c.28-.1.538-.194.807-.3l.075-.032Z" transform="translate(16.169 5.138)" fill="#b52a00"/>
      <path id="Tracciato_7605" data-name="Tracciato 7605" d="M4.154,1.716H4.132l.011-.022c.387-.129.775-.248,1.173-.366l.043-.011a.277.277,0,0,1-.032.215.276.276,0,0,1-.14.151l-.054.032c-.291.108-.538.2-.818.312L4.3,2.018A.113.113,0,0,0,4.347,1.9a.1.1,0,0,0-.086-.075H4.25V1.781a.109.109,0,0,0-.1-.065" transform="translate(16.09 4.806)" fill="#b52a00"/>
      <path id="Tracciato_7606" data-name="Tracciato 7606" d="M5.422,1.8,4.26,2.152V2.119a.156.156,0,0,0-.108-.075H4.142c.1-.043.14-.129.118-.183S4.185,1.8,4.12,1.8l.043-.043c.527-.151,1.1-.323,1.625-.474L5.8,1.269V1.28a.415.415,0,0,1-.043.28.491.491,0,0,1-.291.226L5.422,1.8" transform="translate(15.973 4.327)" fill="#b52a00"/>
      <path id="Tracciato_7607" data-name="Tracciato 7607" d="M5.945,1.229a.342.342,0,0,1,.065.226.277.277,0,0,1-.161.2V1.67c-.538.161-1.1.323-1.625.484.043-.054.065-.108.043-.151s-.075-.075-.151-.086V1.907A.21.21,0,0,0,4.2,1.724l.022-.011Z" transform="translate(15.924 3.937)" fill="#b52a00"/>
      <path id="Tracciato_7608" data-name="Tracciato 7608" d="M4.128,1.753c.689-.194,1.388-.377,2.088-.57l.011.022a.329.329,0,0,1,.043.248.3.3,0,0,1-.151.194l-.1.032L4.3,2.162H4.278a.168.168,0,0,0-.172-.1.208.208,0,0,0,.108-.2.131.131,0,0,0-.108-.086Z" transform="translate(15.837 3.488)" fill="#b52a00"/>
      <path id="Tracciato_7609" data-name="Tracciato 7609" d="M4.225,2.232,4.2,2.253l-.065-.022H4.118a.2.2,0,0,0,.054-.194L4.1,1.963l.011-.011a13.675,13.675,0,0,1,1.97-.667,1.384,1.384,0,0,0,.344-.151.464.464,0,0,1,.086.215.409.409,0,0,1-.183.312H6.313c-.7.194-1.4.377-2.088.57" transform="translate(15.739 3.009)" fill="#b52a00"/>
      <path id="Tracciato_7610" data-name="Tracciato 7610" d="M5.41,2.45A2.75,2.75,0,0,1,5.7,3.3a2.62,2.62,0,0,0-.657-.054c-.291.022-.57.108-.85.118a1.021,1.021,0,0,1-.8-.226.547.547,0,0,1-.129-.6c.129-.226.463-.269.7-.344.355-.14.743-.355.807-.775l.011.065c.043.377.387.5.624.969" transform="translate(7.258 5.772)" fill="#b52a00"/>
      <path id="Tracciato_7611" data-name="Tracciato 7611" d="M5.988,1.253c.065.14-.151.355-.226.43a.8.8,0,0,1-.183.151,3.111,3.111,0,0,1-1.625.334l-.022-.011A.912.912,0,0,0,4.1,1.8l.032-.161a2.142,2.142,0,0,0,1.055-.312.844.844,0,0,1,.549-.183.3.3,0,0,1,.237.1Z" transform="translate(14.138 3.095)" fill="#b52a00"/>
      <path id="Tracciato_7612" data-name="Tracciato 7612" d="M4.494,1.81,4.483,1.8a2.958,2.958,0,0,0,1.065-.355,4.33,4.33,0,0,1,.818-.323c.14-.032.269-.065.334.011s.022.215-.022.3a.809.809,0,0,1-.161.172.944.944,0,0,1-.334.151,14.137,14.137,0,0,0-1.97.667L4.2,2.434,4.085,2.4V2.391a.8.8,0,0,0,.183-.151c.075-.075.291-.291.226-.43" transform="translate(15.632 2.538)" fill="#b52a00"/>
      <path id="Tracciato_7613" data-name="Tracciato 7613" d="M6.666,3.683a3.943,3.943,0,0,0-.56.248c-.581.3-.872.57-.969.387H5.105l.022-.011a.155.155,0,0,0,.118-.151L5.17,4.092V4.06l-.054-.043-.011-.011.032-.1a.072.072,0,0,0-.075-.065l-.022-.011.011-.065A.094.094,0,0,0,4.965,3.7H4.944l.043-.129a.131.131,0,0,0-.1-.086H4.869l.011-.043a.127.127,0,0,0-.1-.1l-.022-.011.011-.075c-.011-.043-.054-.065-.108-.075l-.011-.011.032-.108c-.011-.054-.075-.086-.151-.108H4.524l.011-.086a.194.194,0,0,0-.172-.118l-.022-.011.011-.086a.22.22,0,0,0-.183-.129l-.011-.011a.171.171,0,0,0,.065-.172A.243.243,0,0,0,4.04,2.22l-.011-.011A.271.271,0,0,0,4.1,2a.259.259,0,0,0-.2-.151l.011-.032a1.334,1.334,0,0,0,.344-.3l.011.011a3.076,3.076,0,0,0,1.625-.323l.118.032.086.086a.227.227,0,0,1-.065.183l.022.011.075.011c.043.022.086.043.1.086a.185.185,0,0,1-.1.2.194.194,0,0,1,.161.1v.011a.169.169,0,0,1-.086.183l.011.011a.191.191,0,0,1,.151.086.15.15,0,0,1-.054.151l-.043.032c.065.011.129.032.14.075s-.022.14-.108.183a.1.1,0,0,1,.108.065v.032L6.4,2.79h.022a.082.082,0,0,1,.086.065V2.9h.011a.119.119,0,0,1,.1.075l-.043.118-.086.065.011.011.075.054-.011.054.022.011.075.054-.022.086.054.043V3.49L6.7,3.5l.065.043v.011a.146.146,0,0,1-.1.129" transform="translate(13.826 3.732)" fill="#b52a00"/>
      <path id="Tracciato_7614" data-name="Tracciato 7614" d="M3.677,2.2a2.085,2.085,0,0,0,.463-.377C4.775,1.651,5.367,1.49,6,1.307l.086-.043-.011.043a.259.259,0,0,1,.2.151.263.263,0,0,1-.075.194l.011.022c.086.011.172.065.183.129a.171.171,0,0,1-.065.172h.011a.253.253,0,0,1,.183.14L6.518,2.2l.022.011a.205.205,0,0,1,.172.108l-.011.1h.011a.169.169,0,0,1,.151.108l-.032.108h.011a.131.131,0,0,1,.108.086l-.011.075L6.96,2.8a.114.114,0,0,1,.1.086l-.011.043.022.011a.131.131,0,0,1,.1.086l-.043.118h.032a.106.106,0,0,1,.075.075l-.011.065h.022c.043.011.075.032.075.075l-.032.1h.011l.054.054v.032l.075.065c.011.043-.043.129-.118.151H7.282A3.841,3.841,0,0,0,6.1,4.385a.088.088,0,0,0-.108-.043H5.98V4.3l-.086-.043H5.883a.116.116,0,0,0,0-.118.1.1,0,0,0-.118-.054H5.743V4.008a.123.123,0,0,0-.129-.054l-.032-.011a.158.158,0,0,0,0-.14.138.138,0,0,0-.14-.065H5.42V3.7a.131.131,0,0,0-.151-.075H5.248l-.011-.1a.212.212,0,0,0-.172-.065.137.137,0,0,0,0-.129.277.277,0,0,0-.215-.075H4.829l-.022-.1c-.032-.065-.129-.086-.226-.086H4.549l-.022-.1a.259.259,0,0,0-.258-.086l-.011-.011a.221.221,0,0,0,.011-.215.259.259,0,0,0-.258-.086l-.043-.022a.288.288,0,0,0,.011-.248.334.334,0,0,0-.3-.1Z" transform="translate(11.649 4.279)" fill="#b52a00"/>
      <path id="Tracciato_7615" data-name="Tracciato 7615" d="M4.044,2.14a5.147,5.147,0,0,0,1.6-.517.92.92,0,0,0,.474-.474.991.991,0,0,1,.075.43l-.022.161A.912.912,0,0,1,6,2.1a1.487,1.487,0,0,1-.344.291l-.075.032c-.646.183-1.227.344-1.862.527a1.291,1.291,0,0,0,.258-.463,1,1,0,0,0,.054-.344Z" transform="translate(12.078 3.166)" fill="#b52a00"/>
      <path id="Tracciato_7616" data-name="Tracciato 7616" d="M4.113,2.378c.065-.043.3-.183.28-.312l-.011-.011h.011A7.87,7.87,0,0,0,5.77,1.893a7.935,7.935,0,0,0,1.291-.344.4.4,0,0,1,.355.3.394.394,0,0,1-.108.334H7.32l.011.011c-1.065.065-2.109.14-3.175.2l-.032-.011Z" transform="translate(15.905 7.061)" fill="#fff"/>
      <path id="Tracciato_7617" data-name="Tracciato 7617" d="M7.5,1.813a.407.407,0,0,1-.086.42l-.022.011L4.2,2.405V2.395a.37.37,0,0,0,.1-.366.35.35,0,0,0-.183-.2c1.065-.075,2.109-.14,3.175-.215a.4.4,0,0,1,.2.2" transform="translate(15.944 7.647)" fill="#fff"/>
      <path id="Tracciato_7618" data-name="Tracciato 7618" d="M7.62,1.99a.53.53,0,0,1-.226.43L4.326,2.162H4.315a.739.739,0,0,0-.14-.172l-.065-.022L4.186,1.9l.075-.075h.011l3.175-.161h.022a.49.49,0,0,1,.151.323" transform="translate(15.885 8.213)" fill="#fff"/>
      <path id="Tracciato_7619" data-name="Tracciato 7619" d="M7.187,1.982a.458.458,0,0,1,.043.366.445.445,0,0,1-.355.269L4.216,2.1H4.205l.011-.075a.562.562,0,0,0-.086-.312h.011L7.2,1.971Z" transform="translate(16.071 8.662)" fill="#fff"/>
      <path id="Tracciato_7620" data-name="Tracciato 7620" d="M6.943,2.276a.356.356,0,0,1,.043.291.33.33,0,0,1-.323.226c-.85-.258-1.7-.517-2.54-.775a.58.58,0,0,0,.14-.269l.011.011,2.669.517" transform="translate(16.003 9.013)" fill="#fff"/>
      <path id="Tracciato_7621" data-name="Tracciato 7621" d="M4.92,3.39a.31.31,0,0,0-.3.032l-.075-.065a.285.285,0,0,0-.3.032.238.238,0,0,0-.118-.151.312.312,0,0,0-.258.011.255.255,0,0,0-.118-.14L3.715,3.1l-.022-.011a.879.879,0,0,0,.248-.344.75.75,0,0,0,.065-.4h.011a.686.686,0,0,0,.172.183c.108-.151.2-.312.312-.463l.011-.011.065.054a.577.577,0,0,0,.592.032.862.862,0,0,0,.086.474l.032.054v.011a.66.66,0,0,0-.258.226.641.641,0,0,0-.1.5Z" transform="translate(11.805 12.001)" fill="#ffcd00"/>
      <path id="Tracciato_7622" data-name="Tracciato 7622" d="M5.667,2.465a.76.76,0,0,0-.151.441.678.678,0,0,0,.086.4.4.4,0,0,0-.215.14.4.4,0,0,0,.075.484.354.354,0,0,0-.183.161.4.4,0,0,0,.129.4H5.4l-.312.474A.981.981,0,0,1,4.9,4.779a.536.536,0,0,1-.075-.5.406.406,0,0,1,.194-.194A.607.607,0,0,1,4.613,3.5a.609.609,0,0,1,.215-.334.483.483,0,0,1-.334-.517.473.473,0,0,1,.2-.28,1.177,1.177,0,0,1-.829-.14A.846.846,0,0,1,3.6,2V1.991c.538.054.743.065.818-.054l.043-.1a1.067,1.067,0,0,1,.689.054,1.008,1.008,0,0,1,.517.57" transform="translate(10.907 9.578)" fill="#b52a00"/>
      <path id="Tracciato_7623" data-name="Tracciato 7623" d="M4.32,5.6l-.011-.086a2.851,2.851,0,0,0-.3-.861c-.237-.474-.581-.581-.624-.958l-.011-.065A1.112,1.112,0,0,1,3.556,3c.56-.786,1.959-.194,3.078-1a2.334,2.334,0,0,0,.7-.807,1.528,1.528,0,0,1,.108.549,1.312,1.312,0,0,1-.043.344,1.1,1.1,0,0,1-.269.463,2.085,2.085,0,0,1-.463.377v.011a.334.334,0,0,1,.3.1.288.288,0,0,1-.011.248L7,3.3a.259.259,0,0,1,.258.086.221.221,0,0,1-.011.215h.011a.288.288,0,0,1,.258.1l.022.1H7.57c.1,0,.194.022.226.086l.022.1h.022a.244.244,0,0,1,.215.075.137.137,0,0,1,0,.129.212.212,0,0,1,.172.065l.011.086.022.011a.117.117,0,0,1,.14.065l.011.054h.022a.123.123,0,0,1,.14.065.158.158,0,0,1,0,.14l.032.011a.123.123,0,0,1,.129.054v.075h.022a.1.1,0,0,1,.118.054.116.116,0,0,1,0,.118h.011l.086.043v.032H8.98a.109.109,0,0,1,.108.054,3.621,3.621,0,0,1,1.184-.624H10.3c.1.183.387-.086.969-.377v.011l.108.022c.022.032-.1.14-.344.291-.441.237-.883.484-1.324.732a7.848,7.848,0,0,1,1.442.172c.237.054.441.108.474.226l.011.011c.022.129-.215.269-.28.312l.011.011L11.4,5.9a.448.448,0,0,1,.194.2.412.412,0,0,1-.108.377l-.075.075-.086.065.054.011a.751.751,0,0,1,.161.183.562.562,0,0,1,.086.312l-.011.075a.609.609,0,0,1-.151.258l-.086.086a.91.91,0,0,1-.581.172.55.55,0,0,1-.161.409.647.647,0,0,1-.667.151.882.882,0,0,0,.355.194.984.984,0,0,0,.57-.032,1.032,1.032,0,0,1-.517.3,1.079,1.079,0,0,1-.6-.065.994.994,0,0,0,.646.366,1.145,1.145,0,0,0,.527-.054l-.129.151a.909.909,0,0,1-.667.194v.011a.754.754,0,0,0,.667.355.6.6,0,0,1-.269.194A.956.956,0,0,1,9.7,9.7a.673.673,0,0,0,.215.409.747.747,0,0,0,.517.161.946.946,0,0,1-1.065.054.5.5,0,0,0,.14.344.589.589,0,0,0,.581.1,1.149,1.149,0,0,1-.441.183,1.181,1.181,0,0,1-.753-.172.605.605,0,0,0-.054.3.741.741,0,0,0,.215.474,1.022,1.022,0,0,1-.613-.441l-.022-.032a.8.8,0,0,1-.1-.5.6.6,0,0,1-.6-.032L7.656,10.5a.359.359,0,0,1-.118-.387.338.338,0,0,1,.183-.172.392.392,0,0,1-.086-.474.386.386,0,0,1,.226-.151.664.664,0,0,1-.1-.4.787.787,0,0,1,.161-.43,1.048,1.048,0,0,0-.517-.581,1.1,1.1,0,0,0-.7-.054l-.032.1c-.086.118-.28.118-.829.054l-.065-.011c-.28-.032-.635-.075-1.044-.14l-.011-.011.883-.56c-.387-.054-.764-.108-1.152-.151l.807-.484c-.355,0-.71-.011-1.065-.011.226-.183.463-.366.689-.538l-.861.291L4.32,5.6" transform="translate(8.66 3.556)" fill="#b52a00"/>
      <path id="Tracciato_7624" data-name="Tracciato 7624" d="M4.634,4.839c-.269-.011-.538-.011-.807-.011-.14-.011-.291-.011-.43-.011l-.258-.527L3.16,4.28a.627.627,0,0,0,.194-.258c.065-.194,0-.312.022-.43.065-.237.463-.312.807-.409a5.166,5.166,0,0,0,1.733-.839A2.765,2.765,0,0,0,6.593,1.6c-.1.258-.183.517-.291.786L7.163,2.1c-.226.172-.452.355-.689.538.355,0,.71.011,1.076.011-.28.161-.538.323-.807.484.377.043.764.1,1.141.151-.291.183-.581.377-.883.56l-.022.011A3.438,3.438,0,0,0,5.775,4.1a3.178,3.178,0,0,0-1.141.753Zm-.226-.893a.248.248,0,1,0-.248.237.241.241,0,0,0,.248-.237" transform="translate(6.387 7.559)" fill="#fff"/>
      <path id="Tracciato_7625" data-name="Tracciato 7625" d="M7.484,2.991a.327.327,0,0,1-.129.452L6.537,3.27,3.8,2.689l.075-.108A.777.777,0,0,0,3.986,2.2Z" transform="translate(12.879 13.465)" fill="#ffcd00"/>
      <path id="Tracciato_7626" data-name="Tracciato 7626" d="M7.413,2.477c.1.161.14.312,0,.42L3.711,2.7a.4.4,0,0,0,.075-.151.467.467,0,0,0,.043-.258Z" transform="translate(11.98 14.334)" fill="#ffcd00"/>
      <path id="Tracciato_7627" data-name="Tracciato 7627" d="M10.839,4.613a.938.938,0,0,0,.549.075,1.692,1.692,0,0,1-.753.151,1.86,1.86,0,0,1-.613-.118,1.154,1.154,0,0,0,.334.269,1.231,1.231,0,0,0,.57.151,1.6,1.6,0,0,1-1.012,0,1.412,1.412,0,0,1-.6-.377.746.746,0,0,1,.065.538.883.883,0,0,1-.151.334,1.4,1.4,0,0,0-1.13-1.044.747.747,0,0,1,.108.291.909.909,0,0,1,0,.344.443.443,0,0,0-.839-.022,1.393,1.393,0,0,0-.9-.829,1.491,1.491,0,0,0-.829.032,1.458,1.458,0,0,0-.786-.517,1.511,1.511,0,0,0-.839.032.941.941,0,0,0-.129-.387,1.026,1.026,0,0,0-.474-.4.518.518,0,0,1-.226-.344.574.574,0,0,1,.635-.549.312.312,0,0,1,.172.183.783.783,0,0,1,.624-.183.787.787,0,0,1,.409.226.6.6,0,0,1,.8-.151.516.516,0,0,1,.237.366l-.323-.022-.108.4.248.022c-.108.054-.226.086-.215.151s.086.075.086.129-.118.108-.237.14c.85.043,1.464.065,1.894.065l.28.011c.172.011.334.032.344.1s-.086.129-.183.183a4.5,4.5,0,0,0,1.109-.054,4.6,4.6,0,0,0,.8-.183v.323a3.8,3.8,0,0,0,.592-.022,4.938,4.938,0,0,0,.689-.129.93.93,0,0,1-.355.291.851.851,0,0,1-.248.086.923.923,0,0,0,.42.441" transform="translate(6.746 13.704)" fill="#ffcd00"/>
      <path id="Tracciato_7628" data-name="Tracciato 7628" d="M3.986,2.2a.747.747,0,0,1-.108.377L3.8,2.689Z" transform="translate(12.879 13.465)" fill="#ffcd00"/>
      <path id="Tracciato_7629" data-name="Tracciato 7629" d="M4.523,2.48h0l-.183.484c-.151.2-.366.3-.506.226l-.086-.065a.785.785,0,0,0,.291-.3.569.569,0,0,0,.043-.592.341.341,0,0,1,.3-.032l.022.011a.32.32,0,0,1,.118.269" transform="translate(12.342 13.19)" fill="#ffcd00"/>
      <path id="Tracciato_7630" data-name="Tracciato 7630" d="M4.137,2.182a.594.594,0,0,1-.043.592.869.869,0,0,1-.291.3.594.594,0,0,1,.043-.592.785.785,0,0,1,.291-.3" transform="translate(12.286 13.24)" fill="#ffcd00"/>
      <path id="Tracciato_7631" data-name="Tracciato 7631" d="M3.9,2.746a.667.667,0,0,0,.086-.517.341.341,0,0,1,.3-.032l.075.075a.716.716,0,0,0-.291.3.55.55,0,0,0-.043.581.31.31,0,0,1-.3.032H3.72l.086-.151a.185.185,0,0,0-.022-.129A.627.627,0,0,0,3.9,2.746" transform="translate(12.068 13.161)" fill="#ffcd00"/>
      <path id="Tracciato_7632" data-name="Tracciato 7632" d="M4.076,2.179A.673.673,0,0,1,3.99,2.7l-.118.161a.509.509,0,0,0-.161-.183A.765.765,0,0,1,3.8,2.48a.7.7,0,0,1,.28-.3" transform="translate(11.971 13.211)" fill="#ffcd00"/>
      <path id="Tracciato_7633" data-name="Tracciato 7633" d="M3.9,2.36l-.086.151a.238.238,0,0,1-.108-.14.61.61,0,0,0,.161-.129L3.9,2.36" transform="translate(11.971 13.826)" fill="#ffcd00"/>
      <path id="Tracciato_7634" data-name="Tracciato 7634" d="M4.221,2.489h0L4.092,2.9a.341.341,0,0,1-.344.194l-.075-.043a.546.546,0,0,0,.2-.28,1.346,1.346,0,0,0,.032-.2l.172-.2.043-.086a.271.271,0,0,1,.1.215" transform="translate(11.6 14.139)" fill="#ffcd00"/>
      <path id="Tracciato_7635" data-name="Tracciato 7635" d="M3.84,2.294a.664.664,0,0,1-.054.269l-.075.14Z" transform="translate(11.98 14.334)" fill="#ffcd00"/>
      <path id="Tracciato_7636" data-name="Tracciato 7636" d="M3.895,2.408a.7.7,0,0,1-.172.14.666.666,0,0,1,.011-.323.509.509,0,0,1,.161.183" transform="translate(11.947 13.66)" fill="#ffcd00"/>
      <path id="Tracciato_7637" data-name="Tracciato 7637" d="M3.9,2.632a.765.765,0,0,0-.086.194L3.7,2.75l.022-.032A.673.673,0,0,0,3.807,2.2a.3.3,0,0,1,.269-.011.209.209,0,0,1,.108.14.849.849,0,0,0-.28.3" transform="translate(11.863 13.059)" fill="#ffcd00"/>
      <path id="Tracciato_7638" data-name="Tracciato 7638" d="M3.988,2.32,3.935,2.4l-.161.215a.339.339,0,0,0-.086-.269.256.256,0,0,1,.237-.065l.065.043" transform="translate(11.746 14.092)" fill="#ffcd00"/>
      <path id="Tracciato_7639" data-name="Tracciato 7639" d="M4.091,2.293a.666.666,0,0,0-.011.323.285.285,0,0,1-.291.022.223.223,0,0,1-.118-.14.817.817,0,0,0,.3-.28l.118.075" transform="translate(11.59 13.592)" fill="#ffcd00"/>
      <path id="Tracciato_7640" data-name="Tracciato 7640" d="M3.955,2.683,3.944,2.7l-.269-.118.043-.1a.843.843,0,0,1,.323-.323.717.717,0,0,1-.086.517" transform="translate(11.629 13.084)" fill="#ffcd00"/>
      <path id="Tracciato_7641" data-name="Tracciato 7641" d="M4.147,2.179a.255.255,0,0,1,.118.14.774.774,0,0,0-.323.323l-.043.1-.161-.054.011-.032a.454.454,0,0,0,.043-.269h-.14a.49.49,0,0,1,.441-.226l.054.022" transform="translate(11.405 12.942)" fill="#ffcd00"/>
      <path id="Tracciato_7642" data-name="Tracciato 7642" d="M3.728,2.206a1.446,1.446,0,0,1,.258.129.752.752,0,0,1-.291.291.583.583,0,0,1,.032-.42" transform="translate(11.576 13.475)" fill="#ffcd00"/>
      <path id="Tracciato_7643" data-name="Tracciato 7643" d="M3.892,2.276a.369.369,0,0,1,.086.269l-.054.065a.535.535,0,0,1-.258.129L3.7,2.556a.8.8,0,0,1,.194-.28" transform="translate(11.541 14.158)" fill="#ffcd00"/>
      <path id="Tracciato_7644" data-name="Tracciato 7644" d="M5.377,2.944a.256.256,0,0,0-.237.065l-.065-.054a.256.256,0,0,0-.237.065.189.189,0,0,0-.108-.1.211.211,0,0,0-.2.043.229.229,0,0,0-.118-.108.344.344,0,0,0-.344.2l-.43-.022c-.065-.075-.118-.172-.086-.237.065-.14.409-.032.538-.226.1-.129-.011-.269.075-.377a1.687,1.687,0,0,1,.42.108.351.351,0,0,0,.129.377.3.3,0,0,0,.269-.022A.2.2,0,0,0,5.1,2.8a.287.287,0,0,0,.291-.022.216.216,0,0,0,.108.129l-.054.075-.065-.043" transform="translate(10.293 13.426)" fill="#ffcd00"/>
      <path id="Tracciato_7645" data-name="Tracciato 7645" d="M3.668,2.495a.6.6,0,0,0,.258-.14L3.98,2.3a.774.774,0,0,1-.043.2.582.582,0,0,1-.194.269.364.364,0,0,1-.075-.28" transform="translate(11.539 14.402)" fill="#ffcd00"/>
      <path id="Tracciato_7646" data-name="Tracciato 7646" d="M4.075,2.255a.583.583,0,0,0-.032.42.3.3,0,0,1-.269.011.329.329,0,0,1-.129-.377l.129.054a.43.43,0,0,0,.14-.161l.161.054" transform="translate(11.229 13.426)" fill="#ffcd00"/>
      <path id="Tracciato_7647" data-name="Tracciato 7647" d="M3.929,2.183a.454.454,0,0,1-.043.269l-.011.022L3.638,2.43l.054-.118.1-.14.14.011" transform="translate(11.268 13.143)" fill="#ffcd00"/>
      <path id="Tracciato_7648" data-name="Tracciato 7648" d="M3.91,2.319a.364.364,0,0,0,.075.28.243.243,0,0,1-.226.065.263.263,0,0,1-.118-.1.6.6,0,0,0,.172-.226l.1-.022" transform="translate(11.297 14.578)" fill="#ffcd00"/>
      <path id="Tracciato_7649" data-name="Tracciato 7649" d="M3.864,2.277a.559.559,0,0,1,0,.42l-.022.043-.2.011.032-.2a.722.722,0,0,1,.194-.269" transform="translate(11.268 14.168)" fill="#ffcd00"/>
      <path id="Tracciato_7650" data-name="Tracciato 7650" d="M3.98,2.327a.8.8,0,0,0-.194.28l-.032.183-.1.022.022-.054a.531.531,0,0,0,0-.409A.219.219,0,0,1,3.9,2.283l.075.043" transform="translate(11.453 14.108)" fill="#ffcd00"/>
      <path id="Tracciato_7651" data-name="Tracciato 7651" d="M3.845,2.321a.629.629,0,0,1-.172.226.455.455,0,0,1-.032-.215l.2-.011" transform="translate(11.265 14.597)" fill="#ffcd00"/>
      <path id="Tracciato_7652" data-name="Tracciato 7652" d="M3.9,2.25a.758.758,0,0,1-.129.161l-.14-.054L3.678,2.2,3.9,2.25" transform="translate(11.239 13.377)" fill="#ffcd00"/>
      <path id="Tracciato_7653" data-name="Tracciato 7653" d="M3.91,2.331a.338.338,0,0,0,.043.215.256.256,0,0,1-.237.065.236.236,0,0,1-.108-.1A.487.487,0,0,0,3.77,2.32l.14.011" transform="translate(10.985 14.588)" fill="#ffcd00"/>
      <path id="Tracciato_7654" data-name="Tracciato 7654" d="M3.863,2.272a.559.559,0,0,1,0,.42l-.043.1L3.6,2.746l.043-.183a.561.561,0,0,1,.215-.291" transform="translate(10.946 14.119)" fill="#ffcd00"/>
      <path id="Tracciato_7655" data-name="Tracciato 7655" d="M3.668,2.738a.514.514,0,0,0,0-.42.272.272,0,0,1,.215-.043l.108.1a.684.684,0,0,0-.194.28l-.043.194-.129-.011.043-.1" transform="translate(11.141 14.072)" fill="#ffcd00"/>
      <path id="Tracciato_7656" data-name="Tracciato 7656" d="M3.941,2.266a.286.286,0,0,1,.108.118.59.59,0,0,0-.215.28l-.043.183-.2-.086v-.28a.352.352,0,0,1,.355-.215" transform="translate(10.76 14.018)" fill="#ffcd00"/>
      <path id="Tracciato_7657" data-name="Tracciato 7657" d="M3.814,2.359a.508.508,0,0,1-.172.194.425.425,0,0,1-.032-.237l.2.043" transform="translate(10.952 14.549)" fill="#ffcd00"/>
      <path id="Tracciato_7658" data-name="Tracciato 7658" d="M3.9,2.384a.408.408,0,0,0,.043.237.357.357,0,0,1-.172.054H3.747a.288.288,0,0,1-.172-.248l.118.011V2.309l.2.075" transform="translate(10.653 14.48)" fill="#ffcd00"/>
      <path id="Tracciato_7659" data-name="Tracciato 7659" d="M3.606,2.262c.022-.032.108-.1.4-.054h.054l-.043.161a2.451,2.451,0,0,0-.42-.1Z" transform="translate(10.848 13.354)" fill="#ffcd00"/>
      <path id="Tracciato_7660" data-name="Tracciato 7660" d="M3.684,2.358v.129l-.108-.011L3.587,2.3l.1.054" transform="translate(10.663 14.431)" fill="#ffcd00"/>
      <path id="Tracciato_7661" data-name="Tracciato 7661" d="M3.674,2.281v.291l-.1-.043.032-.108.065-.14" transform="translate(10.672 14.207)" fill="#ffcd00"/>
      <path id="Tracciato_7662" data-name="Tracciato 7662" d="M3.546,2.279l.43.032L3.9,2.44l-.032.108a1.432,1.432,0,0,1-.2-.151l-.118-.118" transform="translate(10.37 14.187)" fill="#ffcd00"/>
      <path id="Tracciato_7663" data-name="Tracciato 7663" d="M5.06,2.789,3.424,2.67a.35.35,0,0,0,.14-.108.377.377,0,0,0,.043-.291l1.141.075.108.118a.971.971,0,0,0,.215.151l-.011.172" transform="translate(9.179 14.119)" fill="#ffcd00"/>
      <path id="Tracciato_7664" data-name="Tracciato 7664" d="M3.57,2.617a2.311,2.311,0,0,1,.248-.538,2,2,0,0,0,.861.8,2.076,2.076,0,0,0,.775.2l-.1.129L5.3,3.327H5.249c-.291-.043-.377.022-.4.054H4.84a2.025,2.025,0,0,0-.71.032,1.684,1.684,0,0,0-.635.258,2.389,2.389,0,0,1-.011-.635l.086-.409Z" transform="translate(9.603 12.235)" fill="#ffcd00"/>
      <path id="Tracciato_7665" data-name="Tracciato 7665" d="M3.555,2.13l-.086.42a1.379,1.379,0,0,1,.054-.291l.032-.129" transform="translate(9.618 12.733)" fill="#ffcd00"/>
      <path id="Tracciato_7666" data-name="Tracciato 7666" d="M3.436,2.1l1.5.312L4.9,2.542a1.379,1.379,0,0,0-.054.291L3.328,2.6Z" transform="translate(8.242 12.45)" fill="#ffcd00"/>
      <path id="Tracciato_7667" data-name="Tracciato 7667" d="M3.831,2.292a.39.39,0,0,1-.043.28.483.483,0,0,1-.14.118L3.4,2.668l.118-.4Z" transform="translate(8.954 14.1)" fill="#ffcd00"/>
      <path id="Tracciato_7668" data-name="Tracciato 7668" d="M4.053,2.073l-.129.613-.043-.011-.1.506h.032l-.1.452-.441-.1.344-1.5Z" transform="translate(7.756 11.861)" fill="#ffcd00"/>
      <rect id="Rettangolo_569" data-name="Rettangolo 569" width="0.511" height="0.038" transform="translate(11.533 15.037) rotate(-77.735)" fill="#ffcd00"/>
      <path id="Tracciato_7669" data-name="Tracciato 7669" d="M6.706,2.232,6.619,2.6l-.011-.011-.344,1.5h.011L6.2,4.395l-.689-.1.226-.9A3.355,3.355,0,0,0,4.585,4,7.545,7.545,0,0,0,2.971,2.5,8.651,8.651,0,0,0,5.08,1.984a3.174,3.174,0,0,0,.786.915l.2-.839Z" transform="translate(4.756 11.307)" fill="#ffcd00"/>
      <rect id="Rettangolo_570" data-name="Rettangolo 570" width="1.536" height="0.016" transform="translate(11.02 15.396) rotate(-77.035)" fill="#ffcd00"/>
      <path id="Tracciato_7670" data-name="Tracciato 7670" d="M4.527,1.911v.011A1.26,1.26,0,0,1,4,2.32a1.148,1.148,0,0,1-.85.011l.57-.43c.269,0,.538.011.807.011" transform="translate(6.494 10.487)" fill="#ffcd00"/>
      <path id="Tracciato_7671" data-name="Tracciato 7671" d="M3.442,1.914a.108.108,0,0,1-.108.108.1.1,0,0,1-.108-.108.108.108,0,0,1,.108-.108.116.116,0,0,1,.108.108" transform="translate(7.256 9.57)"/>
      <path id="Tracciato_7672" data-name="Tracciato 7672" d="M3.7,2.044a.249.249,0,0,1-.5,0,.248.248,0,1,1,.5,0M3.51,1.9a.113.113,0,0,0-.118.118c0,.054.043.1.118.1a.106.106,0,0,0,.108-.1A.118.118,0,0,0,3.51,1.9" transform="translate(7.08 9.472)" fill="#fff"/>
      <path id="Tracciato_7673" data-name="Tracciato 7673" d="M4.275,2.408l-.57.43a.469.469,0,0,0-.118.387.856.856,0,0,1-.474-.5.8.8,0,0,1,.463-.883l.011.032.258.527h.43" transform="translate(5.938 9.98)" fill="#ffcd00"/>
      <path id="Tracciato_7674" data-name="Tracciato 7674" d="M4.279,1.749V1.76a1.051,1.051,0,0,1-.3.28,1.554,1.554,0,0,1-.28.129.724.724,0,0,0-.3.151.682.682,0,0,0-.2.366v.022l.022.011L3.235,2.7a.829.829,0,0,1,.129-.258l-.011.054a.264.264,0,0,0,.269.258.267.267,0,0,0,.28-.258.26.26,0,0,0-.248-.258l.054-.022A1.618,1.618,0,0,0,4,2.083l.172-.14-.032.14a.834.834,0,0,0,.032.4l.022.022h.022l.011-.043a.74.74,0,0,1-.032-.377.71.71,0,0,1,.129-.291l.011-.022V1.749H4.279m-.43.743a.218.218,0,0,1-.226.215.215.215,0,1,1,0-.43.218.218,0,0,1,.226.215" transform="translate(6.914 9.013)"/>
      <path id="Tracciato_7675" data-name="Tracciato 7675" d="M18.79,7.684a.477.477,0,0,0-.14-.323.41.41,0,0,0-.129-.646.39.39,0,0,0,.086-.323.438.438,0,0,0-.377-.334l-.011.011a7.616,7.616,0,0,1-1.291.344,8.172,8.172,0,0,1-1.356.151c-.054-.1-.226-.151-.484-.215a7.776,7.776,0,0,0-1.367-.172c.42-.226.829-.452,1.248-.689.366-.226.377-.28.355-.323l-.054-.032a4.047,4.047,0,0,1,.5-.215.18.18,0,0,0,.108-.129.553.553,0,0,0,.366-.194.471.471,0,0,0,.086-.183l.011-.011.032-.011a.32.32,0,0,0,.269-.258.212.212,0,0,0-.065-.151.3.3,0,0,0,.129-.151.366.366,0,0,0,.032-.215.457.457,0,0,0,.28-.226.434.434,0,0,0,.054-.291.345.345,0,0,0,.151-.226.31.31,0,0,0-.054-.215l.054-.011a.335.335,0,0,0,.183-.215.306.306,0,0,0-.054-.269.35.35,0,0,0,.183-.323.362.362,0,0,0-.075-.215.507.507,0,0,0,.14-.161c.043-.075.108-.248.022-.334s-.215-.043-.355-.011a3.98,3.98,0,0,0-.818.323,2.771,2.771,0,0,1-1.055.344.34.34,0,0,0-.237-.086.882.882,0,0,0-.56.172l-.022.011a2.12,2.12,0,0,1-1.012.312.987.987,0,0,0-.075-.409l-.022-.022-.022.011a.945.945,0,0,1-.463.474,5.237,5.237,0,0,1-1.582.506,1.557,1.557,0,0,0-.118-.527l-.011-.022-.032.011a2.194,2.194,0,0,1-.7.8,3.243,3.243,0,0,1-1.711.506c-.581.054-1.076.1-1.356.506a1.117,1.117,0,0,0-.2.646c-.043.323-.3.57-.8.743l-.161.054a.827.827,0,0,0-.527.312.568.568,0,0,0,.118.635,1.046,1.046,0,0,0,.71.237l.118-.011a2.942,2.942,0,0,0,.43-.054c.129-.022.269-.054.409-.065a2.663,2.663,0,0,1,.646.054V6.64a2.9,2.9,0,0,1-.667.732A5.2,5.2,0,0,1,5.821,8.2l-.129.032c-.312.086-.635.172-.689.4a.4.4,0,0,0-.011.161.444.444,0,0,1-.022.258A.574.574,0,0,1,4.8,9.3H4.788l-.011-.011H4.756a.832.832,0,0,0-.474.915.929.929,0,0,0,.5.517h.011l.011-.011.022-.022a.467.467,0,0,1,.086-.355,1.3,1.3,0,0,0,.409.065,1.042,1.042,0,0,0,.441-.086,1.129,1.129,0,0,0,.527-.4L6.305,9.9a3.448,3.448,0,0,1,1.119-.743A3.338,3.338,0,0,1,8.63,8.922h.022v0c.355.054.71.1,1.044.14h.054a.877.877,0,0,0,.28.248,1.213,1.213,0,0,0,.753.151.4.4,0,0,0-.14.248.526.526,0,0,0,.312.527.522.522,0,0,0-.194.312.6.6,0,0,0,.377.592.6.6,0,0,0-.151.183.517.517,0,0,0,.065.506v.011a.756.756,0,0,1-.065.377.858.858,0,0,1-.237.334.515.515,0,0,0-.441.226,2.012,2.012,0,0,1-.753-.2,1.969,1.969,0,0,1-.85-.786l-.022-.011-.022.011a2.091,2.091,0,0,0-.237.527l-1.453-.3.129-.592L7.091,11.4l-.022-.011-.4-.022.075-.334L6.736,11,6.1,10.827H6.079l-.011.011-.2.807a3.481,3.481,0,0,1-.743-.883l-.032-.011a8.937,8.937,0,0,1-2.1.517l-.022.022.011.022a6.79,6.79,0,0,1,1.593,1.5l.022.011.022-.011a3.226,3.226,0,0,1,1.109-.581l-.215.861v.022l.011.011.7.086h.022l.075-.3.409.1h.022l.011-.022.1-.42,1.474.215a1.956,1.956,0,0,0,.011.613l.011.022h.022A2.076,2.076,0,0,1,9,13.151a2.051,2.051,0,0,1,.678-.022.215.215,0,0,0-.022.161.279.279,0,0,1-.032.183.423.423,0,0,1-.3.118c-.108.022-.2.032-.237.108-.032.054-.011.129.054.215L8.07,13.851a.541.541,0,0,0-.237-.366.513.513,0,0,0-.312-.1.665.665,0,0,0-.506.237.758.758,0,0,0-.4-.215L6.488,13.4a.87.87,0,0,0-.5.172.334.334,0,0,0-.161-.161A.589.589,0,0,0,5.3,13.6a.524.524,0,0,0-.151.387.5.5,0,0,0,.248.355,1.047,1.047,0,0,1,.463.4.863.863,0,0,1,.118.377L6,15.132l.011.011a1.468,1.468,0,0,1,.474-.086,2,2,0,0,1,.355.043,1.417,1.417,0,0,1,.775.517l.032.011a1.406,1.406,0,0,1,.463-.086,1.773,1.773,0,0,1,.344.043,1.434,1.434,0,0,1,.893.818l.022.011h.022a.429.429,0,0,1,.366-.28.4.4,0,0,1,.42.291l.032.022.022-.022a.825.825,0,0,0,0-.366,1.087,1.087,0,0,0-.075-.248,1.446,1.446,0,0,1,.624.323,1.407,1.407,0,0,1,.42.689l.011.022h.011l.022-.011a.691.691,0,0,0,.161-.334.776.776,0,0,0-.022-.452,1.63,1.63,0,0,0,.527.312,1.6,1.6,0,0,0,.506.075,1.737,1.737,0,0,0,.527-.075l.022-.032-.032-.022a1.148,1.148,0,0,1-.56-.151.9.9,0,0,1-.258-.194,2.184,2.184,0,0,0,.517.1h.043a1.763,1.763,0,0,0,.732-.161l.011-.011-.022-.032-.161.011a.917.917,0,0,1-.377-.086.869.869,0,0,1-.4-.4,1.406,1.406,0,0,0,.226-.086,1.077,1.077,0,0,0,.366-.3V14.97l-.032-.011c-.226.054-.452.1-.689.129-.161.011-.323.022-.484.022h-.075v-.3l-.011-.022H11.74a5.026,5.026,0,0,1-.8.183,5.271,5.271,0,0,1-1.012.054c.086-.065.129-.108.118-.161s-.129-.108-.366-.118l-.28-.011c-.527-.011-1.119-.032-1.754-.054.075-.043.118-.075.118-.118l-.054-.086-.032-.054.118-.086.075-.043,1.6.118a.286.286,0,0,0,.161.237l.032.011h.032a.216.216,0,0,0,.14-.043.226.226,0,0,0,.118.086l.065.011a.32.32,0,0,0,.161-.054.2.2,0,0,0,.108.086l.075.011a.312.312,0,0,0,.172-.065l.065.043.065.011a.39.39,0,0,0,.3-.2l3.681.194v.011l.022-.011c.161-.129.086-.312,0-.452l-.022-.011-3.552-.194a.409.409,0,0,0-.075-.183l.022-.043.118.032a.437.437,0,0,0,.183-.054l.065.054.129.032a.551.551,0,0,0,.409-.248l3.53.753H15.5l.011-.011a.341.341,0,0,0,.14-.484l-.022-.011-3.476-.786a.3.3,0,0,0-.118-.258.6.6,0,0,1,.086-.474.517.517,0,0,1,.237-.2,1.022,1.022,0,0,0,.613.42h.022V12.57a.767.767,0,0,1-.2-.452.631.631,0,0,1,.043-.248l.011-.011a1.126,1.126,0,0,0,.743.151.992.992,0,0,0,.441-.183l.011-.032-.022-.011a.523.523,0,0,1-.56-.1.46.46,0,0,1-.14-.28,1.029,1.029,0,0,0,.678.1.9.9,0,0,0,.387-.172v-.022l-.011-.022a.66.66,0,0,1-.506-.161.585.585,0,0,1-.194-.323.922.922,0,0,0,.807.151.581.581,0,0,0,.291-.194l.011-.032-.032-.011a.824.824,0,0,1-.323-.065.625.625,0,0,1-.291-.248l.043.011a.908.908,0,0,0,.581-.215,1,1,0,0,0,.14-.161v-.032h-.032a1.04,1.04,0,0,1-.517.054.98.98,0,0,1-.56-.28A1.006,1.006,0,0,0,14.3,9.8a1.1,1.1,0,0,0,.538-.3V9.471l-.032-.011a.874.874,0,0,1-.549.032,1.048,1.048,0,0,1-.248-.118.626.626,0,0,0,.743-.581.9.9,0,0,0,.57-.183l.075-.075c.613.194,1.227.377,1.851.57l.667.2h.011a.366.366,0,0,0,.355-.248.349.349,0,0,0-.032-.291.416.416,0,0,0,.334-.269.429.429,0,0,0-.032-.366h.011a.572.572,0,0,0,.226-.452m-.054,0a.535.535,0,0,1-.2.409l-3.046-.258a1.057,1.057,0,0,0-.161-.183h-.011l.043-.032.065-.075L18.6,7.394h.011a.41.41,0,0,1,.129.291m-.054-.732a.358.358,0,0,1-.086.387L15.464,7.5a.357.357,0,0,0-.065-.538l1.528-.1c.517-.032,1.033-.065,1.561-.108a.416.416,0,0,1,.194.194m-1.733-.484a9.056,9.056,0,0,0,1.281-.355.383.383,0,0,1,.323.28.4.4,0,0,1-.1.323l-1.539.1c-.517.032-1.055.075-1.582.108.129-.075.258-.183.248-.3a8.431,8.431,0,0,0,1.367-.151M15.744,4.875a5.088,5.088,0,0,0-.57.248c-.172.086-.323.172-.452.248-.2.129-.344.215-.42.194l-.043-.032a.18.18,0,0,0,.1-.161c0-.043-.032-.065-.075-.075V5.273l-.043-.065.022-.086a.116.116,0,0,0-.1-.086l.011-.043a.127.127,0,0,0-.1-.1l.022-.118a.127.127,0,0,0-.108-.1V4.649a.115.115,0,0,0-.108-.108l.011-.065a.142.142,0,0,0-.108-.1l.011-.108c-.011-.054-.075-.1-.151-.118V4.079a.206.206,0,0,0-.183-.129V3.863a.26.26,0,0,0-.172-.14.165.165,0,0,0,.043-.161c-.011-.075-.086-.129-.183-.151a.259.259,0,0,0,.065-.2.3.3,0,0,0-.2-.161.938.938,0,0,0,.334-.28h.118a2.929,2.929,0,0,0,1.517-.323l.108.032.065.075A.132.132,0,0,1,15.1,2.7c-.022.043-.075.075-.172.108L13.753,3.1l-.258.065-.022.022.022.032h.022l.248-.065c.387-.108.786-.2,1.173-.3a.328.328,0,0,0,.194-.108l.011.011.065.011.086.075a.18.18,0,0,1-.086.172H15.2l-.1.043-1.248.312-.022.022.022.032h.011l1.248-.312.108-.054c.075.011.129.043.14.086a.179.179,0,0,1-.075.161l-.118.054-1.248.323-.011.032.022.011h.011l1.238-.312.118-.054H15.3a.19.19,0,0,1,.129.075l-.043.118-.043.032-.086.032-1.087.28-.022.032.022.022h.022l1.076-.28.086-.043c.075.011.108.032.118.054.022.043-.022.118-.1.151l-.032.022L14.334,4.1l-.011.032.022.022.99-.258.054-.011.086.043V3.95l-.011.022v.011a.156.156,0,0,1-.108.075l-.786.194-.022.032.022.022h.011l.786-.194a.23.23,0,0,0,.129-.086l.075.043V4.1a.178.178,0,0,1-.118.129l-.71.28-.011.032.022.011h.011l.71-.269a.253.253,0,0,0,.14-.14l.065.043-.043.1-.075.065-.71.28-.011.032.022.011h.011l.689-.269h.011l.054.043v.022a.171.171,0,0,1-.086.108l-.215.086a3.683,3.683,0,0,0-.366.14l-.022.032.022.011h.011l.366-.14.226-.086.108-.1.043.032-.011.075-.075.054-.237.1-.344.129-.022.032.022.022h.011l.344-.14.237-.086.1-.065.022.011V4.7l-.054.054-.248.1-.151.065-.022.022.011.032.022-.011.161-.054.237-.1.086-.075.022.011v.022c.011.032-.022.086-.075.108M13.01,6.113l-.086-.043-.011-.011a.082.082,0,0,0-.086-.065.123.123,0,0,0-.011-.108.115.115,0,0,0-.129-.065l-.011-.065a.156.156,0,0,0-.151-.065.306.306,0,0,0,0-.14.181.181,0,0,0-.161-.075l-.022-.043a.145.145,0,0,0-.161-.075l-.011-.086a.229.229,0,0,0-.161-.075.149.149,0,0,0-.022-.118.207.207,0,0,0-.215-.086l-.032-.086a.257.257,0,0,0-.248-.1l-.011.011-.022-.1a.3.3,0,0,0-.248-.108.264.264,0,0,0-.011-.2.3.3,0,0,0-.291-.1.272.272,0,0,0,0-.258.3.3,0,0,0-.248-.108,1.824,1.824,0,0,0,.409-.344l1.776-.484.075-.022.032-.022.011.011.011-.022V3.1a.194.194,0,0,1,.183.129A.2.2,0,0,1,13.1,3.4a.4.4,0,0,1-.226.1L11.2,3.788l-.022.032.011.011h.022l1.668-.28a.561.561,0,0,0,.226-.1h.011a.239.239,0,0,1,.172.118.169.169,0,0,1-.065.151.359.359,0,0,1-.183.086l-1.453.248-.022.032.022.011H11.6l1.442-.248a.33.33,0,0,0,.2-.086c.086.022.151.065.161.108V3.95a.317.317,0,0,1-.248.161l-1.453.248-.011.032.022.022,1.453-.248a.349.349,0,0,0,.269-.172h.011c.075.022.129.054.14.1l-.011.075a.253.253,0,0,1-.2.129l-1.259.215-.022.032.022.022.011-.011,1.259-.2a.387.387,0,0,0,.237-.14.167.167,0,0,1,.129.075l-.032.1a.263.263,0,0,1-.161.086l-1.152.2-.022.022.022.022h.011L13.57,4.52a.278.278,0,0,0,.183-.1l.086.065-.011.054a.188.188,0,0,1-.14.086l-.915.151-.011.032.022.022.915-.161a.3.3,0,0,0,.161-.086l.075.065v.043a.225.225,0,0,1-.14.14l-.839.248-.022.022.011.032h.022l.839-.258a.246.246,0,0,0,.172-.151l.065.065-.032.108-.118.075-.839.248-.022.022.022.032h.022l.839-.258a.25.25,0,0,0,.129-.086l.011.011.065.054-.022.054a.156.156,0,0,1-.1.086l-.689.2-.022.022.011.022h.022l.689-.2a.231.231,0,0,0,.129-.1l.065.043-.032.086-.086.065c-.215.065-.43.118-.646.183l-.043.022-.022.032.022.011h.011l.043-.011.646-.194.108-.065.032.022-.011.022-.075.065c-.118.043-.258.086-.387.118l-.075.032-.022.011.022.032h.022l.075-.022.387-.118a.122.122,0,0,0,.1-.075l.032.032c.011.043-.032.108-.1.129h-.022a3.744,3.744,0,0,0-1.173.613M16.2,4.574a.479.479,0,0,1-.323.161l-.065-.043V4.671l-.054-.054.011-.054.194-.054.312-.086a.494.494,0,0,1-.075.151m.161-.226-.022.011H16.3c-.129.032-.248.075-.355.108l-.194.054-.075-.043V4.445a.072.072,0,0,0-.054-.075l.043-.043h.011l.689-.258.118-.043L16.53,4a.224.224,0,0,1,.054.129c0,.1-.1.183-.226.215m.3-.538a.33.33,0,0,1-.129.14l-.054.022-.118.054c-.215.075-.43.151-.646.237l.011-.086a.116.116,0,0,0-.1-.086l-.011-.032a.091.091,0,0,0-.075-.075l1.13-.355h.011a.345.345,0,0,1-.022.183m.312-.441a.484.484,0,0,1-.269.2l-.032.011h-.022l-1.13.344V3.917l-.075-.065a.187.187,0,0,0,.086-.183.136.136,0,0,0-.108-.075c.258-.075.538-.161.807-.237l.786-.237a.368.368,0,0,1-.043.248m.194-.5a.293.293,0,0,1-.14.194c-.269.075-.538.161-.818.237l-.743.226a.152.152,0,0,0,.011-.118c-.011-.043-.065-.075-.129-.1a.189.189,0,0,0,.065-.151l1.7-.484a.219.219,0,0,1,.054.194m.183-.452A.339.339,0,0,1,17.2,2.6l-1.8.506a.187.187,0,0,0-.129-.086.2.2,0,0,0,.065-.2l-.065-.075.42-.118c.538-.151,1.076-.291,1.614-.441V2.2a.245.245,0,0,1,.043.226m-.032-.291h0c-.549.151-1.087.3-1.636.441l-.463.129-.022.011h-.022a.29.29,0,0,0,.032-.183l-.054-.065.409-.161a9.382,9.382,0,0,1,1.528-.5,1.218,1.218,0,0,0,.323-.151.264.264,0,0,1,.075.183.384.384,0,0,1-.172.291m-.85-.646a3.688,3.688,0,0,1,.807-.312c.118-.032.258-.065.312-.011s.011.2-.032.28A.431.431,0,0,1,17.4,1.6a.991.991,0,0,1-.334.151,9.418,9.418,0,0,0-1.528.506l-.441.161v.011l-.054-.022.14-.129c.086-.086.291-.3.237-.452a2.718,2.718,0,0,0,1.044-.344M14.6,1.926l.022-.011a.817.817,0,0,1,.517-.172.288.288,0,0,1,.215.086l.011.011c.054.118-.151.334-.226.409a.653.653,0,0,1-.183.151,3.059,3.059,0,0,1-1.582.323.96.96,0,0,0,.161-.334l.022-.14A2.256,2.256,0,0,0,14.6,1.926M11.4,2.809A5.762,5.762,0,0,0,13,2.292a.976.976,0,0,0,.452-.43.875.875,0,0,1,.054.366l-.022.151a1.115,1.115,0,0,1-.161.344,1.059,1.059,0,0,1-.344.28l-.075.043-1.776.5a1.246,1.246,0,0,0,.215-.409,1.127,1.127,0,0,0,.054-.323M7.565,6.479c-.14.011-.28.032-.42.054a2.971,2.971,0,0,1-.43.065,1.028,1.028,0,0,1-.775-.226.5.5,0,0,1-.118-.57c.086-.172.3-.226.5-.28l.172-.054a1.158,1.158,0,0,0,.8-.657,1,1,0,0,0,.28.43,1.729,1.729,0,0,1,.334.474,2.406,2.406,0,0,1,.3.807,2.131,2.131,0,0,0-.635-.043M4.756,10.655a.846.846,0,0,1-.42-.474.751.751,0,0,1,.42-.829l.269.527.022.011H5.4l-.517.4a.455.455,0,0,0-.129.366m.979-.387a1.125,1.125,0,0,1-.42.086A1.289,1.289,0,0,1,4.96,10.3l.527-.409L6.23,9.9a1.1,1.1,0,0,1-.5.366m2.9-1.4H8.619A3.408,3.408,0,0,0,7.4,9.115a3.257,3.257,0,0,0-1.119.732L5.057,9.837,4.82,9.352l.011-.011a.728.728,0,0,0,.194-.28.512.512,0,0,0,.022-.28.606.606,0,0,1,0-.14c.054-.194.355-.28.657-.355l.129-.043a5.284,5.284,0,0,0,1.743-.829,3.309,3.309,0,0,0,.57-.592c-.075.2-.14.4-.215.592v.022l.032.011.721-.237c-.194.151-.387.3-.581.441l-.011.032.032.022.979.011-.441.258-.291.172-.022.011.022.032,1.087.14c-.28.183-.549.355-.818.538Zm2.4,2.475a.377.377,0,0,1,.183-.183l.011-.022-.011-.022a.557.557,0,0,1-.4-.56.451.451,0,0,1,.2-.312l.011-.022-.011-.022a.461.461,0,0,1-.323-.5.4.4,0,0,1,.194-.269l.011-.032L10.879,9.4a1.229,1.229,0,0,1-.829-.129.979.979,0,0,1-.226-.194c.2.022.355.043.474.043.172,0,.269-.032.323-.108l.032-.086a1,1,0,0,1,.667.054.9.9,0,0,1,.484.549.745.745,0,0,0-.14.43.774.774,0,0,0,.075.387.371.371,0,0,0-.14.635.294.294,0,0,0-.161.161.371.371,0,0,0,.108.4l-.291.441a.54.54,0,0,1-.151-.161.489.489,0,0,1-.075-.474M10.761,12.6l.032.011a.178.178,0,0,1,.108.14.584.584,0,0,1-.075.484l-.022.043a.766.766,0,0,1-.291.269.259.259,0,0,1-.237.022.3.3,0,0,1-.118-.323l.1.043.032-.011a.507.507,0,0,0,.14-.161l.011-.032a.625.625,0,0,0,.054-.28l-.032-.022h-.086a.441.441,0,0,1,.387-.183m.527.28a.638.638,0,0,1-.086.484.627.627,0,0,1-.118.161.4.4,0,0,1-.161.14.309.309,0,0,1-.269.032l-.1-.108a.833.833,0,0,0,.291-.291l.022-.032a.729.729,0,0,0,.1-.517.275.275,0,0,1,.226,0,.208.208,0,0,1,.1.129m-5.091.28-.635-.086.215-.883v-.022l-.032-.011a3.5,3.5,0,0,0-1.141.592,7.26,7.26,0,0,0-1.539-1.442,9.11,9.11,0,0,0,2.023-.506,3.142,3.142,0,0,0,.775.9h.022l.022-.011.2-.818.581.161-.42,1.83Zm.517-.215-.387-.086.334-1.453.377.032Zm.248-.883,1.453.291-.043.108-.043.269-1.464-.226Zm2.023,1.044a1.9,1.9,0,0,0-.6.237,2.625,2.625,0,0,1-.011-.581l.054-.291.043-.129a2.227,2.227,0,0,1,.215-.5,2.006,2.006,0,0,0,.85.764,2.189,2.189,0,0,0,.786.215h.118a.5.5,0,0,1-.043.237l-.011.022a.566.566,0,0,1-.118.151l-.129-.054a2.665,2.665,0,0,0-.42-.108,2.1,2.1,0,0,0-.732.032m.14.613c.022-.054.108-.065.2-.075a.407.407,0,0,0,.334-.151.3.3,0,0,0,.043-.215.159.159,0,0,1,.022-.14,1.475,1.475,0,0,1,.377.086.376.376,0,0,0,.14.387l.129.022.14-.022a.342.342,0,0,0,.118.129l.118.022a.41.41,0,0,0,.183-.043l.075.108L11,13.851l-.054-.022a.269.269,0,0,0-.248.054l-.065-.043a.3.3,0,0,0-.237.054.153.153,0,0,0-.1-.086.259.259,0,0,0-.215.032l-.108-.1a.376.376,0,0,0-.377.2l-.4-.032c-.065-.075-.1-.151-.075-.194m.4.377-.032.118a.31.31,0,0,0-.011.14l-1.539-.108.086-.075a.451.451,0,0,0,.054-.269l1.1.065.387.022-.043.108m-1.743.194c-.086.032-.151.075-.151.14l.054.075.032.043c0,.022-.022.065-.215.118l-.022.032.032.022c.7.032,1.335.054,1.894.054a2.081,2.081,0,0,0,.28.011c.28.022.312.075.312.075.011.022,0,.075-.161.161l-.022.011.022.043a5.539,5.539,0,0,0,1.119-.054,6.076,6.076,0,0,0,.764-.183v.291l.032.032h.1a3.951,3.951,0,0,0,.5-.032,4.071,4.071,0,0,0,.613-.108.966.966,0,0,1-.291.226,1.049,1.049,0,0,1-.237.086l-.022.011v.022a.831.831,0,0,0,.43.452.8.8,0,0,0,.387.1,1.945,1.945,0,0,1-.549.086h-.043a1.682,1.682,0,0,1-.6-.129L12,15.885v.032a1,1,0,0,0,.355.28,1.015,1.015,0,0,0,.441.14,1.5,1.5,0,0,1-.872-.032,1.567,1.567,0,0,1-.581-.366l-.043-.011-.011.022a.8.8,0,0,1,.075.538.942.942,0,0,1-.129.28,1.348,1.348,0,0,0-.42-.667,1.4,1.4,0,0,0-.7-.344h-.032v.032a.669.669,0,0,1,.1.28,1.1,1.1,0,0,1,.022.248.5.5,0,0,0-.452-.237.465.465,0,0,0-.377.248,1.4,1.4,0,0,0-.9-.786,1.337,1.337,0,0,0-.355-.043,1.389,1.389,0,0,0-.463.075,1.433,1.433,0,0,0-.8-.517,1.364,1.364,0,0,0-.366-.043,1.583,1.583,0,0,0-.452.065,1.144,1.144,0,0,0-.129-.366,1.166,1.166,0,0,0-.474-.409.477.477,0,0,1-.226-.323.4.4,0,0,1,.14-.334.521.521,0,0,1,.387-.194l.075.011a.251.251,0,0,1,.151.161l.022.011h.011a.843.843,0,0,1,.5-.183l.118.011a.715.715,0,0,1,.4.215l.011.011.032-.011a.586.586,0,0,1,.474-.237.541.541,0,0,1,.291.086.533.533,0,0,1,.215.344.361.361,0,0,1-.043.269.329.329,0,0,1-.129.108l-.075.043M9.7,14.6H9.663a.251.251,0,0,1-.14-.226l.011-.161.032-.1.065-.129a.359.359,0,0,1,.28-.2l.043.011a.153.153,0,0,1,.1.086.507.507,0,0,1,0,.4l-.054.1a.511.511,0,0,1-.151.183.237.237,0,0,1-.14.043Zm.28.054-.086-.075a.536.536,0,0,0,.161-.183l.043-.108a.5.5,0,0,0,.011-.409.26.26,0,0,1,.172-.032.153.153,0,0,1,.1.086.514.514,0,0,1-.011.4l-.011.043a.529.529,0,0,1-.172.226.217.217,0,0,1-.2.054m.344.043-.086-.075a.542.542,0,0,0,.161-.215l.022-.054a.628.628,0,0,0,.011-.42.192.192,0,0,1,.194-.043l.054.032a.325.325,0,0,1,.075.258.422.422,0,0,1-.043.194.516.516,0,0,1-.183.258.226.226,0,0,1-.2.065m4.326-.011L11.008,14.5l.054-.118a.667.667,0,0,0,.043-.248l3.541.183c.1.183.1.291,0,.377m-3.638-.334-.065.151c-.1.14-.226.2-.323.172l-.022-.011a1.368,1.368,0,0,0,.161-.28.7.7,0,0,0,.043-.2.5.5,0,0,0-.065-.269.192.192,0,0,1,.183-.043l.054.043a.249.249,0,0,1,.075.194.525.525,0,0,1-.043.248m.054-.549V13.8l-.086-.1.151-.14a.655.655,0,0,0,.129-.161.717.717,0,0,0,.086-.517.281.281,0,0,1,.258-.022l.065.065a.536.536,0,0,1-.043.56.808.808,0,0,1-.28.291.3.3,0,0,1-.28.032m4.423.56-3.5-.743.054-.075a.832.832,0,0,0,.108-.366l3.455.775a.306.306,0,0,1-.118.409M12.1,13.151a.776.776,0,0,1-.1.366l-.075.108c-.151.194-.344.291-.474.215l-.043-.022a1.055,1.055,0,0,0,.258-.312.667.667,0,0,0,.065-.592.293.293,0,0,1,.248-.022l.011.011a.261.261,0,0,1,.108.248m-.022-.775a.7.7,0,0,0-.108.463.309.309,0,0,0-.269.032l-.075-.054a.315.315,0,0,0-.291.022.235.235,0,0,0-.118-.129.3.3,0,0,0-.269,0,.2.2,0,0,0-.118-.129L10.8,12.57a.95.95,0,0,0,.237-.334.877.877,0,0,0,.065-.334l.14.14h.032l.312-.463.032.032a.631.631,0,0,0,.592.054.858.858,0,0,0,.1.452l.011.032a.591.591,0,0,0-.248.226m3.218-3.81a.86.86,0,0,1-.57.172,1.811,1.811,0,0,1-.775-.2h-.032l-.011.032a1.809,1.809,0,0,0,.8.215.555.555,0,0,1-.161.377.636.636,0,0,1-.635.151h-.022v.043a.933.933,0,0,0,.355.183.912.912,0,0,0,.484,0,.811.811,0,0,1-.43.215.937.937,0,0,1-.581-.043h-.032V9.74a1.067,1.067,0,0,0,.667.377,1.029,1.029,0,0,0,.463-.043l-.086.1a.861.861,0,0,1-.635.183.87.87,0,0,1-.237-.075h-.032l-.011.032a.9.9,0,0,0,.248.1.812.812,0,0,0,.344.291.891.891,0,0,0,.291.075.717.717,0,0,1-.226.14.93.93,0,0,1-.818-.183l-.011-.022a.659.659,0,0,1-.043-.28l-.011-.032-.032.022a.582.582,0,0,0,.032.3l.011.032a.766.766,0,0,0,.237.42.8.8,0,0,0,.441.172.973.973,0,0,1-.291.118,1,1,0,0,1-.678-.118H13.29L13.2,11.2l-.032-.183-.011-.118-.011-.032-.043.011.011.14.032.2.108.161a.593.593,0,0,0,.161.344.564.564,0,0,0,.441.14.994.994,0,0,1-.291.086,1.065,1.065,0,0,1-.743-.161,1.638,1.638,0,0,1-.172-.43,1.487,1.487,0,0,1,.1-.861l-.011-.032-.032.011a1.432,1.432,0,0,0-.1.893,1.227,1.227,0,0,0,.172.452.732.732,0,0,0,.118.71.911.911,0,0,1-.517-.387l-.032-.054a.9.9,0,0,1-.086-.463v-.022l-.032-.011a.558.558,0,0,1-.581-.032l-.054-.043a.35.35,0,0,1-.118-.366A.31.31,0,0,1,11.654,11h.011v-.032a.356.356,0,0,1-.075-.452.342.342,0,0,1,.194-.129l.022-.011v-.022a.938.938,0,0,1-.1-.4.737.737,0,0,1,.151-.409l.011-.022a.994.994,0,0,0-.527-.592.982.982,0,0,0-.678-.065.762.762,0,0,0-.1-.323l-.022-.011-.032.022a.693.693,0,0,1,.1.323L10.6,8.9v.011l-.022.065c-.075.108-.28.108-.8.043l-.043-.011H9.706c-.323-.032-.657-.086-.99-.129.269-.183.549-.366.829-.538l.011-.022L9.545,8.3,8.458,8.147l.226-.129c.172-.108.355-.2.517-.312l.011-.022L9.19,7.663,8.2,7.652l.549-.43.086-.065.011-.022L8.8,7.114,8,7.383c.086-.237.183-.484.269-.732V6.64l-.011-.086V6.511a.788.788,0,0,0,.592.355c.118.011.248.022.366.022a1.935,1.935,0,0,1,.43.032.317.317,0,0,1,.3.269L10,7.318a.543.543,0,0,0,.441.226l.194.011a1.227,1.227,0,0,1,.28.022.557.557,0,0,0,.441.506,1.661,1.661,0,0,0,.732-.032.885.885,0,0,0,.646.269.873.873,0,0,0,.441-.118l.118-.075a.509.509,0,0,1,.387-.151l.032-.011-.022-.032a.512.512,0,0,0-.43.151l-.108.075a.863.863,0,0,1-1.044-.151l-.022-.022a1.62,1.62,0,0,1-.721.054.512.512,0,0,1-.4-.484l-.022-.032a1.472,1.472,0,0,0-.312-.022h-.183a.54.54,0,0,1-.409-.2L10,7.168a.412.412,0,0,0-.355-.3,2.9,2.9,0,0,0-.43-.032,1.968,1.968,0,0,1-.355-.022c-.237-.032-.527-.151-.592-.4l-.032-.022a3.644,3.644,0,0,0-.28-.7A1.821,1.821,0,0,0,7.6,5.209a.911.911,0,0,1-.269-.484l-.011-.054A1.1,1.1,0,0,1,7.5,4.057c.28-.387.764-.43,1.335-.484a3.388,3.388,0,0,0,1.733-.517,2.216,2.216,0,0,0,.678-.764,1.394,1.394,0,0,1,.1.5,1.14,1.14,0,0,1-.054.334,1.172,1.172,0,0,1-.248.452,1.988,1.988,0,0,1-.463.366l-.011.011a1.894,1.894,0,0,1-.721.258,1.263,1.263,0,0,0-.7.3l-.161.151a.731.731,0,0,1-.355.248,1.073,1.073,0,0,1-.678-.043H7.93v.043a1.135,1.135,0,0,0,.721.054.758.758,0,0,0,.377-.269l.151-.14a1.3,1.3,0,0,1,.678-.3,1.726,1.726,0,0,0,.721-.258h.011a.307.307,0,0,1,.28.1.221.221,0,0,1-.011.215.425.425,0,0,1-.226.2l-.915.452c-.3.151-.592.291-.883.441l-.022.032.032.011h.011c.291-.151.592-.291.883-.441.312-.151.613-.3.915-.452a.522.522,0,0,0,.248-.2l.011.022a.241.241,0,0,1,.248.065.208.208,0,0,1-.011.194.445.445,0,0,1-.194.172c-.517.258-1.044.517-1.561.775L9.373,5.6l.022.022h.022c.517-.258,1.044-.517,1.571-.775a.443.443,0,0,0,.194-.172.254.254,0,0,1,.237.075l.022.086a.386.386,0,0,1-.226.28c-.517.258-1.044.517-1.571.775l-.011.032.022.011h.011c.527-.258,1.055-.517,1.571-.775a.411.411,0,0,0,.248-.291h.011a.225.225,0,0,1,.2.065l.022.086a.334.334,0,0,1-.194.226c-.452.226-.915.452-1.367.678l-.022.022.022.022h.022c.463-.226.915-.452,1.367-.678a.368.368,0,0,0,.215-.237c.086-.011.161.011.183.054a.148.148,0,0,1,.011.118.3.3,0,0,1-.161.161l-1.248.613-.011.032.022.022.011-.011,1.248-.613A.321.321,0,0,0,12,5.252l.129.043V5.37A.208.208,0,0,1,12,5.51l-.979.484-.011.032.022.022.011-.011.99-.484a.273.273,0,0,0,.14-.151h.011c.054,0,.108.011.118.054l.011.043a.25.25,0,0,1-.118.215l-.861.57-.022.032.022.022.022-.011.872-.57a.326.326,0,0,0,.14-.226.1.1,0,0,1,.108.043.261.261,0,0,1,0,.129.275.275,0,0,1-.108.14c-.291.183-.581.377-.861.57l-.011.032.022.011.011-.011c.291-.183.581-.377.872-.56a.324.324,0,0,0,.118-.151h.022l.086.043.011.065a.2.2,0,0,1-.1.14l-.71.474-.022.022.022.022h.032l.71-.474a.236.236,0,0,0,.108-.151h.011c.043-.011.075,0,.086.032a.18.18,0,0,1,0,.108.2.2,0,0,1-.086.108c-.237.151-.474.312-.71.463l-.022.022.032.032.022-.011c.237-.161.474-.312.71-.474a.236.236,0,0,0,.1-.108l.043.022.011.022a.118.118,0,0,1-.065.108l-.118.086-.366.237-.011.022.022.022h.011c.129-.086.258-.161.377-.248l.118-.075a.18.18,0,0,0,.086-.118l.065.032a.177.177,0,0,1-.075.183,3.953,3.953,0,0,0-1.1.969v.022l.022.011h.022a3.87,3.87,0,0,1,1.076-.958.242.242,0,0,0,.108-.226,3.725,3.725,0,0,1,1.152-.6H14.2l.075.054.043.011a1.191,1.191,0,0,0,.43-.2c.118-.065.258-.151.43-.237l.011.011h.086s-.022.065-.344.258c-.441.248-.872.5-1.313.732l-.011.032.011.011a8.64,8.64,0,0,1,1.453.183c.215.043.42.1.452.2v.011c.011.075-.086.183-.258.28l-.011.011a1.68,1.68,0,0,1-1.378-.054l-.032.011.011.032a2.253,2.253,0,0,0,.85.194,1.208,1.208,0,0,0,.57-.14l.032.011a.443.443,0,0,1,.172.194.333.333,0,0,1-.1.344l-.065.075-.086.065a.845.845,0,0,1-.646.065l-.032.022.011.032a1.226,1.226,0,0,0,.28.032.788.788,0,0,0,.42-.108h.011l.011.011a1.187,1.187,0,0,1,.151.183.492.492,0,0,1,.075.291l-.011.075a.472.472,0,0,1-.129.237l-.011.011V8.5l-.075.065m2.949.474a.341.341,0,0,1-.312.226l-.667-.215c-.613-.183-1.216-.366-1.819-.56a.453.453,0,0,0,.108-.215l1.324.258c.441.075.883.172,1.324.258a.32.32,0,0,1,.043.248m.3-.56a.387.387,0,0,1-.334.248l-.011.011-1.313-.258-1.324-.258.011-.054a.448.448,0,0,0-.065-.28l2.992.258a.373.373,0,0,1,.043.334" transform="translate(4.737 2.519)"/>
      <path id="Tracciato_7676" data-name="Tracciato 7676" d="M3.36,2.489a.852.852,0,0,0,.43.14h.032l.022-.022-.022-.022a.785.785,0,0,1-.441-.129L3.317,2.4l-.011-.054.1-.032a.484.484,0,0,1,.248.043l.032-.011-.011-.022A.6.6,0,0,0,3.4,2.274c-.032,0-.108,0-.129.054l.011.108.075.054" transform="translate(7.714 14.139)"/>
      <path id="Tracciato_7677" data-name="Tracciato 7677" d="M4.219,2.429a.844.844,0,0,1-.237.022L3.907,2.44,3.81,2.4l-.054-.022a.69.69,0,0,0-.387-.043c-.075.011-.108.043-.108.065l.011.065a.52.52,0,0,0,.291.215,1.269,1.269,0,0,0,.5.1h.1l.022-.022-.022-.022a1.319,1.319,0,0,1-.581-.086.509.509,0,0,1-.258-.194L3.3,2.408l.065-.032a.742.742,0,0,1,.377.032l.043.022.108.054.086.011a.923.923,0,0,0,.248-.022L4.24,2.44l-.022-.011" transform="translate(7.587 14.629)"/>
      <path id="Tracciato_7678" data-name="Tracciato 7678" d="M3.551,2.679a.631.631,0,0,0,.248.043h.043L4.164,2.7l.011-.022-.011-.022a2.15,2.15,0,0,1-.366.022.525.525,0,0,1-.226-.032c-.075-.043-.129-.1-.129-.161l.011-.054h.032a.983.983,0,0,1,.355,0,1.241,1.241,0,0,0,.28.032l.022-.032L4.121,2.42a1.275,1.275,0,0,1-.28-.022.841.841,0,0,0-.366-.011H3.443l-.043.1a.244.244,0,0,0,.151.194" transform="translate(8.944 15.09)"/>
      <path id="Tracciato_7679" data-name="Tracciato 7679" d="M3.621,2.666l.129.054L4,2.741l.022-.022L4,2.7a.883.883,0,0,1-.237-.022l-.108-.043c-.054-.032-.054-.1-.065-.172V2.44a.411.411,0,0,1,.323.043l.043.032.118.065.032-.011-.011-.032-.108-.054L3.933,2.45A.428.428,0,0,0,3.589,2.4l-.032.022-.011.054a.335.335,0,0,0,.075.194" transform="translate(10.37 15.189)"/>
      <path id="Tracciato_7680" data-name="Tracciato 7680" d="M3.934,2.786l.215.043.129.011a.678.678,0,0,1,.258.1h.032V2.9a.725.725,0,0,0-.28-.1l-.14-.022-.2-.032c-.086-.022-.2-.1-.215-.2l.022-.075.043-.011a1.43,1.43,0,0,1,.43.022l.183.022.022-.022-.022-.022-.183-.022a1.162,1.162,0,0,0-.43-.022l-.065.022-.043.118a.3.3,0,0,0,.248.226" transform="translate(11.736 15.434)"/>
    </g>
  </g>
</svg>
