<svg xmlns="http://www.w3.org/2000/svg" xmlns:xlink="http://www.w3.org/1999/xlink" width="24" height="24" viewBox="0 0 24 24">
  <defs>
    <clipPath id="clip-path">
      <path id="Tracciato_8729" data-name="Tracciato 8729" d="M.991,12.749a12,12,0,1,0,12-12,12,12,0,0,0-12,12" transform="translate(-0.991 -0.749)" fill="none"/>
    </clipPath>
  </defs>
  <g id="Stati_Federati_della_Micronesia" data-name="Stati Federati della Micronesia" transform="translate(-0.991 -0.749)">
    <g id="Raggruppa_242" data-name="Raggruppa 242" transform="translate(0.991 0.749)" clip-path="url(#clip-path)">
      <rect id="Rettangolo_757" data-name="Rettangolo 757" width="45.342" height="23.86" transform="translate(-10.665 0.075)" fill="#75abdd"/>
      <path id="Tracciato_8725" data-name="Tracciato 8725" d="M4.117.982,4.645,2.6h1.69l-1.367.99L5.495,5.2l-1.378-.99L2.75,5.2l.517-1.614L1.9,2.6H3.59Z" transform="translate(7.885 1.524)" fill="#fff"/>
      <path id="Tracciato_8726" data-name="Tracciato 8726" d="M4.117,6.571l.527-1.614h1.69l-1.367-.99.527-1.614-1.378.99L2.75,2.352l.517,1.614L1.9,4.956H3.59Z" transform="translate(7.885 14.9)" fill="#fff"/>
      <path id="Tracciato_8727" data-name="Tracciato 8727" d="M2.838,1.659l.99,1.378L5.442,2.51l-.99,1.367.99,1.378L3.828,4.727l-1,1.367L2.838,4.4,1.223,3.876,2.838,3.36Z" transform="translate(1.276 8.138)" fill="#fff"/>
      <path id="Tracciato_8728" data-name="Tracciato 8728" d="M5.2,1.659,4.21,3.037,2.6,2.51l.99,1.367L2.6,5.254,4.21,4.727,5.2,6.093V4.4l1.614-.527L5.2,3.36Z" transform="translate(14.678 8.138)" fill="#fff"/>
    </g>
  </g>
</svg>
