<svg xmlns="http://www.w3.org/2000/svg" xmlns:xlink="http://www.w3.org/1999/xlink" width="24" height="23.989" viewBox="0 0 24 23.989">
  <defs>
    <clipPath id="clip-path">
      <path id="Tracciato_8734" data-name="Tracciato 8734" d="M.393,12.744A12,12,0,1,0,12.388.749,12,12,0,0,0,.393,12.744" transform="translate(-0.393 -0.749)" fill="none"/>
    </clipPath>
  </defs>
  <g id="Sud_Africa" data-name="Sud Africa" transform="translate(-0.393 -0.749)">
    <g id="Raggruppa_243" data-name="Raggruppa 243" transform="translate(0.393 0.749)" clip-path="url(#clip-path)">
      <rect id="Rettangolo_758" data-name="Rettangolo 758" width="35.769" height="23.849" transform="translate(-4.228 0.075)" fill="#e23821"/>
      <rect id="Rettangolo_759" data-name="Rettangolo 759" width="35.769" height="11.919" transform="translate(-4.228 12.005)" fill="#0020a9"/>
      <path id="Tracciato_8730" data-name="Tracciato 8730" d="M0,24.6V.757L13.737,12.676Z" transform="translate(-4.228 -0.675)"/>
      <path id="Tracciato_8731" data-name="Tracciato 8731" d="M35.768,8.673H19.04L7.229.756H0V3.639l13.619,9.047L0,21.722v2.883H7.164l11.93-7.939H35.768Z" transform="translate(-4.231 -0.683)" fill="#fff"/>
      <path id="Tracciato_8732" data-name="Tracciato 8732" d="M35.768,10.244h-17.1L4.249.756H0v4.8l10.736,7.132L0,19.829v4.776H4.249L18.61,15.052H35.768Z" transform="translate(-4.231 -0.684)" fill="#fb0"/>
      <path id="Tracciato_8733" data-name="Tracciato 8733" d="M35.768,10.244h-17.1L4.249.756H0V3.639l13.619,9.047L0,21.722v2.883H4.249L18.61,15.052H35.768Z" transform="translate(-4.231 -0.684)" fill="#007746"/>
    </g>
  </g>
</svg>
