<svg xmlns="http://www.w3.org/2000/svg" xmlns:xlink="http://www.w3.org/1999/xlink" width="24" height="24" viewBox="0 0 24 24">
  <defs>
    <clipPath id="clip-path">
      <path id="Tracciato_9035" data-name="Tracciato 9035" d="M.557,12.749a12,12,0,1,0,12-12,12,12,0,0,0-12,12" transform="translate(-0.557 -0.749)" fill="none"/>
    </clipPath>
  </defs>
  <g id="Swaziland" transform="translate(-0.557 -0.749)">
    <g id="Raggruppa_248" data-name="Raggruppa 248" transform="translate(0.557 0.749)" clip-path="url(#clip-path)">
      <rect id="Rettangolo_766" data-name="Rettangolo 766" width="36" height="24" transform="translate(-5.995 0)" fill="#3e5ebc"/>
      <rect id="Rettangolo_767" data-name="Rettangolo 767" width="36" height="15.476" transform="translate(-5.995 4.262)" fill="#ffde00"/>
      <rect id="Rettangolo_768" data-name="Rettangolo 768" width="36" height="12.043" transform="translate(-5.995 5.984)" fill="#b10c00"/>
      <path id="Tracciato_8995" data-name="Tracciato 8995" d="M4.941,2.091l-1.27-.441-1.205.441,1.184.43Z" transform="translate(18.072 8.041)" fill="#fff"/>
      <path id="Tracciato_8996" data-name="Tracciato 8996" d="M3.668,2.562H3.658l-1.184-.43-.011-.011.011-.032,1.205-.441H3.69l1.281.441.011.022-.011.022-1.291.43ZM2.56,2.11l1.109.409L4.885,2.11,3.69,1.7Z" transform="translate(18.05 8.018)"/>
      <path id="Tracciato_8997" data-name="Tracciato 8997" d="M18.766,1.946H.965a.139.139,0,0,1-.129-.129.141.141,0,0,1,.129-.14h17.8a.133.133,0,0,1,.129.14.131.131,0,0,1-.129.129" transform="translate(2.167 8.31)" fill="#ffde00"/>
      <path id="Tracciato_8998" data-name="Tracciato 8998" d="M18.8,2.008H.994a.174.174,0,0,1-.161-.161.175.175,0,0,1,.161-.172H18.8a.166.166,0,0,1,.151.172.164.164,0,0,1-.151.161m-17.8-.28a.117.117,0,0,0-.108.118.1.1,0,0,0,.108.108H18.8a.1.1,0,0,0,.1-.108c0-.054-.043-.118-.1-.118Z" transform="translate(2.137 8.281)"/>
      <path id="Tracciato_8999" data-name="Tracciato 8999" d="M2.451,1.677h.011L2.5,1.7l.022.022.022.022.011.022.011.043-.011.043V1.86l-.011.022L2.526,1.9,2.5,1.925l-.043.011-.011.011.011-.022L2.483,1.9,2.5,1.86l.011-.022.011-.032-.011-.022V1.774L2.5,1.753,2.483,1.72,2.462,1.7l-.011-.022" transform="translate(17.933 8.313)"/>
      <path id="Tracciato_9000" data-name="Tracciato 9000" d="M2.468,1.677h.011l.043.022.022.022.022.022.011.032.011.032-.011.043V1.86l-.011.022L2.543,1.9l-.022.022-.032.011-.022.011.011-.022L2.5,1.9l.022-.043.011-.022.011-.032-.011-.022V1.774l-.022-.032L2.5,1.72l-.022-.032-.011-.011" transform="translate(18.095 8.313)"/>
      <path id="Tracciato_9001" data-name="Tracciato 9001" d="M2.481,1.678h.011l.043.022.022.022.011.011.022.043.011.032V1.85l-.011.022-.011.011L2.567,1.9l-.022.011L2.5,1.936l-.022.011.011-.011L2.514,1.9l.032-.043V1.85l.011-.032-.011-.032-.011-.022-.011-.022-.011-.022L2.492,1.7l-.011-.022" transform="translate(18.23 8.316)"/>
      <path id="Tracciato_9002" data-name="Tracciato 9002" d="M4.833,2.169l-1.27-.441-1.205.441,1.184.43Z" transform="translate(17.021 8.809)" fill="#fff"/>
      <path id="Tracciato_9003" data-name="Tracciato 9003" d="M3.561,2.641H3.551L2.367,2.21,2.356,2.2l.011-.032,1.205-.441h.011l1.281.441.011.011-.011.032-1.291.43H3.561M2.453,2.189l1.109.4,1.216-.4L3.583,1.78Z" transform="translate(17.005 8.789)"/>
      <path id="Tracciato_9004" data-name="Tracciato 9004" d="M18.658,2.025H.857A.139.139,0,0,1,.728,1.9a.141.141,0,0,1,.129-.14h17.8a.133.133,0,0,1,.129.14.131.131,0,0,1-.129.129" transform="translate(1.112 9.082)" fill="#ffde00"/>
      <path id="Tracciato_9005" data-name="Tracciato 9005" d="M18.688,2.076H.887a.161.161,0,0,1,0-.323h17.8a.162.162,0,0,1,0,.323M.887,1.807a.108.108,0,0,0-.108.108.1.1,0,0,0,.108.108h17.8a.1.1,0,0,0,.1-.108.106.106,0,0,0-.1-.108Z" transform="translate(1.093 9.052)"/>
      <path id="Tracciato_9006" data-name="Tracciato 9006" d="M2.343,1.756h.011l.043.022.022.022.022.022.011.032.011.032v.032l-.011.032L2.44,1.96l-.011.011L2.4,1.993l-.032.022-.022.011L2.354,2l.022-.022L2.4,1.939l.011-.022V1.874L2.4,1.842l-.011-.011L2.376,1.81l-.022-.032Z" transform="translate(16.881 9.081)"/>
      <path id="Tracciato_9007" data-name="Tracciato 9007" d="M2.36,1.756h.011l.043.022.022.022.022.022.022.032v.065l-.011.032-.011.011-.022.022L2.414,2l-.043.011-.011.011L2.371,2l.022-.022.032-.043V1.917L2.435,1.9V1.874l-.011-.022L2.4,1.82,2.392,1.8l-.022-.032Z" transform="translate(17.043 9.081)"/>
      <path id="Tracciato_9008" data-name="Tracciato 9008" d="M2.374,1.756l.011.011.043.011.022.022.022.022.011.032.011.032v.043l-.011.022-.011.011-.022.022-.022.011L2.4,2.015l-.022.011.011-.011.022-.032.022-.043.011-.022.011-.032-.011-.022-.011-.022-.011-.022L2.406,1.81l-.022-.032-.011-.022" transform="translate(17.179 9.085)"/>
      <path id="Tracciato_9009" data-name="Tracciato 9009" d="M24.768,2.233H.736A.189.189,0,0,1,.553,2.05V2.029a.181.181,0,0,1,.183-.183H24.768a.175.175,0,0,1,.183.183V2.05a.181.181,0,0,1-.183.183" transform="translate(-0.596 9.96)" fill="#ffde00"/>
      <path id="Tracciato_9010" data-name="Tracciato 9010" d="M24.8,2.3H.765A.216.216,0,0,1,.55,2.09V2.068a.225.225,0,0,1,.215-.226H24.8a.225.225,0,0,1,.215.226V2.09A.216.216,0,0,1,24.8,2.3M.765,1.917a.147.147,0,0,0-.151.151V2.09a.147.147,0,0,0,.151.151H24.8a.154.154,0,0,0,.151-.151V2.068a.154.154,0,0,0-.151-.151Z" transform="translate(-0.625 9.921)"/>
      <path id="Tracciato_9011" data-name="Tracciato 9011" d="M2.059,4.822h0a1.644,1.644,0,0,0,.312-.355.7.7,0,0,0,.1-.4l.043.075.032.022h.011l.011-.011a.807.807,0,0,0,.183-.613l.118.108.032.022.011-.011.022-.011a1.66,1.66,0,0,0,.043-.689.59.59,0,0,1,.161.086h.032l.022-.032a.742.742,0,0,0-.312-.484A.311.311,0,0,1,3.07,2.5l.022-.011.022-.011L3.1,2.433a2.527,2.527,0,0,0-1.517-.581H1.574l-.011.022v.108l-.075.065L1.37,2.11l-.054.032A2.009,2.009,0,0,0,.832,2.5a1.07,1.07,0,0,0-.108,1.27l.032.022H.778l.011-.011A1.023,1.023,0,0,1,1,3.477a1.185,1.185,0,0,0,.118.721l.022.011.011.011.011-.011a.229.229,0,0,0,.108-.118l.022.118c.011.075.011.172.086.226h.032l.022-.022a.873.873,0,0,1,.108-.194.287.287,0,0,0,.075.151A.707.707,0,0,0,1.8,4.5l.011.011a.338.338,0,0,1,.151.118A.133.133,0,0,1,2,4.779l.022.043h.032" transform="translate(-0.487 10.019)"/>
      <path id="Tracciato_9012" data-name="Tracciato 9012" d="M1.229,3.975c.118.1.022.312.14.4A.72.72,0,0,1,1.541,4.1a.3.3,0,0,0,.065.215.761.761,0,0,0,.194.129.61.61,0,0,1,.161.129.211.211,0,0,1,.054.194,2.389,2.389,0,0,0,.3-.355.554.554,0,0,0,.065-.43.175.175,0,0,1,.14.118.831.831,0,0,0,.161-.646.42.42,0,0,1,.183.151,1.591,1.591,0,0,0,.043-.71.416.416,0,0,1,.215.086A.67.67,0,0,0,2.779,2.5a.4.4,0,0,1,.269-.065,2.467,2.467,0,0,0-1.5-.581l.011.108a.19.19,0,0,1-.1.086,2.583,2.583,0,0,0-.635.441A1.036,1.036,0,0,0,.723,3.728a1.1,1.1,0,0,1,.3-.366,1.144,1.144,0,0,0,.1.8.222.222,0,0,0,.108-.183" transform="translate(-0.465 10.048)" fill="#3d56a7"/>
      <path id="Tracciato_9013" data-name="Tracciato 9013" d="M1.16,1.911a.115.115,0,0,0-.1.075L1.02,2.1c-.075.248-.3.42-.42.646a.281.281,0,0,0,.183-.1,1.9,1.9,0,0,0,.4-.43.293.293,0,0,0,.086-.172.123.123,0,0,0-.108-.14" transform="translate(-0.137 10.595)" fill="#b40000"/>
      <path id="Tracciato_9014" data-name="Tracciato 9014" d="M1.457,2.695A.63.63,0,0,0,1.3,2.479L1.112,2.3A1.244,1.244,0,0,1,.9,2.027l-.054-.1-.1-.022c-.054.022-.043.1-.022.14a1.135,1.135,0,0,0,.646.635l.086.011" transform="translate(0.911 10.575)" fill="#b40000"/>
      <path id="Tracciato_9015" data-name="Tracciato 9015" d="M.861,2.161.818,2.043C.807,2.011.8,1.968.753,1.979L.71,2.011v.065a.9.9,0,0,0,.387.592c-.065-.129-.129-.258-.183-.4L.861,2.161" transform="translate(0.937 11.238)" fill="#b40000"/>
      <path id="Tracciato_9016" data-name="Tracciato 9016" d="M.915,2.247a.215.215,0,0,0,.022-.14L.883,2V1.989H.872a.143.143,0,0,0-.086.118l-.011.14a.561.561,0,0,1-.129.334.263.263,0,0,0,.118-.1.8.8,0,0,0,.151-.237" transform="translate(0.312 11.356)" fill="#b40000"/>
      <path id="Tracciato_9017" data-name="Tracciato 9017" d="M.851,2.046a1.145,1.145,0,0,1,.1.43l-.011.14a.135.135,0,0,1-.065.118.252.252,0,0,0-.032-.194l-.1-.172A.332.332,0,0,1,.69,2.175a.174.174,0,0,1,.129-.151H.841Z" transform="translate(0.72 11.698)" fill="#b40000"/>
      <path id="Tracciato_9018" data-name="Tracciato 9018" d="M4.059,4.839H4.048a1.889,1.889,0,0,1-.366-.291.642.642,0,0,1-.172-.366l-.032.086-.011.022L3.435,4.3,3.424,4.29a.78.78,0,0,1-.291-.57.444.444,0,0,0-.108.14l-.011.022L2.993,3.87l-.022-.011A1.581,1.581,0,0,1,2.789,3.2a.444.444,0,0,0-.14.108l-.032.011L2.6,3.289a.721.721,0,0,1,.2-.538.44.44,0,0,0-.2.011H2.584l-.032-.011.011-.043a2.524,2.524,0,0,1,1.356-.872H3.94l.022.011V1.89l.011.065.086.054.129.032.054.022a2.57,2.57,0,0,1,.549.248,1.073,1.073,0,0,1,.355,1.238l-.022.022H5.113l-.022-.011a.842.842,0,0,0-.269-.248,1.213,1.213,0,0,1,.032.732l-.011.011-.032.011a.216.216,0,0,1-.129-.108.519.519,0,0,0,0,.129.268.268,0,0,1-.043.237l-.011.011-.022-.011L4.6,4.311a.724.724,0,0,0-.151-.161.3.3,0,0,1-.043.161.724.724,0,0,1-.151.161l-.011.011a.527.527,0,0,0-.129.14A.192.192,0,0,0,4.1,4.8v.022l-.043.022" transform="translate(18.919 9.863)"/>
      <path id="Tracciato_9019" data-name="Tracciato 9019" d="M4.654,3.852c-.1.118.043.312-.054.42a.753.753,0,0,0-.226-.226.255.255,0,0,1-.022.215,1.224,1.224,0,0,1-.161.172.438.438,0,0,0-.129.151.2.2,0,0,0-.022.2,2.26,2.26,0,0,1-.355-.28.575.575,0,0,1-.161-.42.194.194,0,0,0-.108.151.848.848,0,0,1-.291-.592.341.341,0,0,0-.151.172,1.726,1.726,0,0,1-.183-.689.409.409,0,0,0-.194.14.764.764,0,0,1,.237-.56.416.416,0,0,0-.28,0,2.587,2.587,0,0,1,1.356-.872l.011.118.108.054a2.84,2.84,0,0,1,.721.3,1.038,1.038,0,0,1,.344,1.195.955.955,0,0,0-.366-.291A1.1,1.1,0,0,1,4.794,4a.219.219,0,0,1-.14-.151" transform="translate(18.948 9.892)" fill="#3d56a7"/>
      <path id="Tracciato_9020" data-name="Tracciato 9020" d="M2.772,1.894a.109.109,0,0,1,.108.054l.065.108c.118.226.377.344.549.549a.344.344,0,0,1-.2-.054,2.416,2.416,0,0,1-.474-.344A.308.308,0,0,1,2.7,2.055a.124.124,0,0,1,.075-.161" transform="translate(20.27 10.407)" fill="#b40000"/>
      <path id="Tracciato_9021" data-name="Tracciato 9021" d="M2.59,2.819a.585.585,0,0,1,.118-.248l.14-.215a1.074,1.074,0,0,0,.161-.312l.032-.1a.087.087,0,0,1,.1-.043c.043.011.054.086.043.14a1.133,1.133,0,0,1-.506.743l-.086.032" transform="translate(19.29 10.504)" fill="#b40000"/>
      <path id="Tracciato_9022" data-name="Tracciato 9022" d="M2.761,2.173l.011-.118.054-.086L2.88,2l.011.054a.876.876,0,0,1-.258.657c.032-.14.065-.28.108-.42l.022-.118" transform="translate(19.7 11.161)" fill="#b40000"/>
      <path id="Tracciato_9023" data-name="Tracciato 9023" d="M2.749,2.24A.224.224,0,0,1,2.7,2.111l.032-.118.011-.022h.011l.1.1.032.14a.584.584,0,0,0,.2.3.24.24,0,0,1-.14-.065.875.875,0,0,1-.194-.2" transform="translate(20.315 11.181)" fill="#b40000"/>
      <path id="Tracciato_9024" data-name="Tracciato 9024" d="M2.7,2.036a1.211,1.211,0,0,0-.011.441l.032.14a.171.171,0,0,0,.1.1A.3.3,0,0,1,2.8,2.52l.065-.194a.333.333,0,0,0,.011-.2.179.179,0,0,0-.151-.108H2.706Z" transform="translate(20.067 11.6)" fill="#b40000"/>
      <path id="Tracciato_9025" data-name="Tracciato 9025" d="M1,5.794c4.725-5.532,9.525-6.016,14.454,0-4.649,5.769-9.471,5.747-14.454,0" transform="translate(3.787 6.206)" fill="#fff"/>
      <path id="Tracciato_9026" data-name="Tracciato 9026" d="M8.383,10.134A7.187,7.187,0,0,1,4.724,9.058,15.547,15.547,0,0,1,1.011,5.819L1,5.808,1.011,5.8A15.507,15.507,0,0,1,4.648,2.569,7.077,7.077,0,0,1,8.329,1.46a6.831,6.831,0,0,1,3.562,1.065A14.177,14.177,0,0,1,15.486,5.8l.011.011-.011.011a13.837,13.837,0,0,1-3.519,3.239,6.792,6.792,0,0,1-3.584,1.076M1.043,5.808c2.486,2.852,4.951,4.3,7.34,4.3s4.768-1.453,7.071-4.3c-2.346-2.863-4.746-4.316-7.125-4.316S3.5,2.945,1.043,5.808" transform="translate(3.768 6.192)"/>
      <path id="Tracciato_9027" data-name="Tracciato 9027" d="M8.223,1.536a1.579,1.579,0,0,0-.56.764,1.173,1.173,0,0,0-.032.28.649.649,0,0,0,.011.248c.054.14.194.226.258.366.043.1.043.237.129.323.108.108.3.075.4.194-.054.108.043.215.14.258a1.342,1.342,0,0,1,.312.118.506.506,0,0,1,.086.538.881.881,0,0,0-.054.57,1.142,1.142,0,0,0,.3.344.384.384,0,0,1,.118.409c-.065.118-.226.151-.344.226a.49.49,0,0,0-.194.474l.032.161a.35.35,0,0,1-.248.269c-.118.032-.248.032-.366.075s-.237.14-.237.258a.259.259,0,0,0,.075.194c.2.269.624.3.807.581a.18.18,0,0,1,.043.161.243.243,0,0,1-.118.086c-.118.032-.258.032-.377.054a.358.358,0,0,0-.3.215c-.054.183.129.344.291.43a7.29,7.29,0,0,0,.969.463.5.5,0,0,1,.161.1.276.276,0,0,1,.065.2v.054L9.546,10l-.054.011-.108.022-.215.032c-.151.022-.291.032-.441.043s-.291.011-.43.011-.291-.011-.441-.022-.291-.032-.441-.054-.291-.054-.43-.086-.3-.065-.441-.108-.3-.1-.441-.151-.3-.118-.441-.183-.3-.129-.441-.2-.3-.161-.452-.248-.291-.172-.441-.269-.3-.194-.441-.3l-.452-.334c-.151-.118-.3-.248-.441-.366l-.452-.4-.452-.43L1.636,6.5,1.184,6,1,5.8,1.173,5.6l.161-.183c.108-.129.226-.248.334-.366.215-.237.441-.463.667-.678s.441-.42.667-.613.441-.366.678-.538c.215-.172.441-.323.667-.474s.441-.269.667-.4.452-.226.678-.323.452-.183.678-.258.452-.129.678-.183.452-.075.678-.1L8,1.472l.129-.011.129.011-.032.065" transform="translate(3.777 6.202)"/>
      <rect id="Rettangolo_769" data-name="Rettangolo 769" width="0.366" height="1.152" transform="translate(7.501 10.461)" fill="#fff"/>
      <rect id="Rettangolo_770" data-name="Rettangolo 770" width="0.366" height="1.152" transform="translate(7.501 12.377)" fill="#fff"/>
      <rect id="Rettangolo_771" data-name="Rettangolo 771" width="0.366" height="1.152" transform="translate(8.201 10.472)" fill="#fff"/>
      <rect id="Rettangolo_772" data-name="Rettangolo 772" width="0.366" height="1.152" transform="translate(8.201 12.377)" fill="#fff"/>
      <rect id="Rettangolo_773" data-name="Rettangolo 773" width="0.366" height="1.152" transform="translate(8.9 10.472)" fill="#fff"/>
      <rect id="Rettangolo_774" data-name="Rettangolo 774" width="0.366" height="1.152" transform="translate(8.9 12.387)" fill="#fff"/>
      <rect id="Rettangolo_775" data-name="Rettangolo 775" width="0.366" height="1.152" transform="translate(9.6 10.483)" fill="#fff"/>
      <rect id="Rettangolo_776" data-name="Rettangolo 776" width="0.366" height="1.152" transform="translate(9.6 12.398)" fill="#fff"/>
      <rect id="Rettangolo_777" data-name="Rettangolo 777" width="0.366" height="1.152" transform="translate(10.3 10.493)" fill="#fff"/>
      <rect id="Rettangolo_778" data-name="Rettangolo 778" width="0.366" height="1.152" transform="translate(10.3 12.409)" fill="#fff"/>
      <rect id="Rettangolo_779" data-name="Rettangolo 779" width="0.366" height="1.152" transform="translate(10.999 10.504)" fill="#fff"/>
      <rect id="Rettangolo_780" data-name="Rettangolo 780" width="0.366" height="1.152" transform="translate(10.999 12.409)" fill="#fff"/>
      <rect id="Rettangolo_781" data-name="Rettangolo 781" width="0.366" height="1.152" transform="translate(12.796 10.45)"/>
      <rect id="Rettangolo_782" data-name="Rettangolo 782" width="0.366" height="1.152" transform="translate(12.796 12.366)"/>
      <rect id="Rettangolo_783" data-name="Rettangolo 783" width="0.366" height="1.152" transform="translate(13.496 10.461)"/>
      <rect id="Rettangolo_784" data-name="Rettangolo 784" width="0.366" height="1.152" transform="translate(13.496 12.366)"/>
      <rect id="Rettangolo_785" data-name="Rettangolo 785" width="0.366" height="1.152" transform="translate(14.196 10.461)"/>
      <rect id="Rettangolo_786" data-name="Rettangolo 786" width="0.366" height="1.152" transform="translate(14.196 12.377)"/>
      <rect id="Rettangolo_787" data-name="Rettangolo 787" width="0.366" height="1.152" transform="translate(14.895 10.472)"/>
      <rect id="Rettangolo_788" data-name="Rettangolo 788" width="0.366" height="1.152" transform="translate(14.895 12.387)"/>
      <rect id="Rettangolo_789" data-name="Rettangolo 789" width="0.366" height="1.152" transform="translate(15.595 10.483)"/>
      <rect id="Rettangolo_790" data-name="Rettangolo 790" width="0.366" height="1.152" transform="translate(15.595 12.398)"/>
      <rect id="Rettangolo_791" data-name="Rettangolo 791" width="0.366" height="1.152" transform="translate(16.294 10.493)"/>
      <rect id="Rettangolo_792" data-name="Rettangolo 792" width="0.366" height="1.152" transform="translate(16.294 12.398)"/>
      <path id="Tracciato_9028" data-name="Tracciato 9028" d="M3.453,4.358H3.442A2.136,2.136,0,0,1,3,4.207a.682.682,0,0,1-.28-.3v.118l-.032.011H2.678a.809.809,0,0,1-.463-.441l-.054.151v.022l-.032.011-.022-.011a1.557,1.557,0,0,1-.377-.56l-.1.14L1.6,3.368,1.58,3.346a.7.7,0,0,1,.022-.57.378.378,0,0,0-.194.065l-.022.011L1.365,2.84l-.011-.032A2.562,2.562,0,0,1,2.376,1.549L2.4,1.538l.011.011.022.032.032.065.108.022h.183a1.853,1.853,0,0,1,.6.065,1.079,1.079,0,0,1,.732,1.055l-.011.022-.032.011-.011-.011a1.056,1.056,0,0,0-.344-.14,1.211,1.211,0,0,1,.269.678l-.011.022-.022.011H3.915a.2.2,0,0,1-.151-.054l.043.118c.032.075.075.151.032.237l-.011.011L3.819,3.7,3.786,3.69A.63.63,0,0,0,3.6,3.583a.382.382,0,0,1,.011.161,1.193,1.193,0,0,1-.1.2V3.96a.471.471,0,0,0-.086.183.188.188,0,0,0,.043.161l.011.032-.032.022" transform="translate(7.224 6.953)"/>
      <path id="Tracciato_9029" data-name="Tracciato 9029" d="M3.7,3.21c-.054.14.14.28.075.42a.6.6,0,0,0-.28-.151.22.22,0,0,1,.043.215.511.511,0,0,1-.1.2.721.721,0,0,0-.075.194.219.219,0,0,0,.054.194,2.136,2.136,0,0,1-.441-.151.558.558,0,0,1-.28-.344.2.2,0,0,0-.054.172.835.835,0,0,1-.463-.474.534.534,0,0,0-.086.215,1.573,1.573,0,0,1-.387-.592.339.339,0,0,0-.14.183A.674.674,0,0,1,1.627,2.7a.4.4,0,0,0-.269.075,2.47,2.47,0,0,1,1-1.238l.054.1.118.022a2.341,2.341,0,0,1,.775.065,1.034,1.034,0,0,1,.71,1.022.973.973,0,0,0-.441-.172,1.158,1.158,0,0,1,.312.732.211.211,0,0,1-.183-.1" transform="translate(7.263 6.993)" fill="#3d56a7"/>
      <path id="Tracciato_9030" data-name="Tracciato 9030" d="M1.534,1.6a.115.115,0,0,1,.118.011l.1.086c.183.183.474.215.689.355a.333.333,0,0,1-.2.011,2.619,2.619,0,0,1-.56-.183A.362.362,0,0,1,1.5,1.77.122.122,0,0,1,1.534,1.6" transform="translate(8.454 7.421)" fill="#b40000"/>
      <path id="Tracciato_9031" data-name="Tracciato 9031" d="M1.415,2.657a.77.77,0,0,1,.032-.269l.065-.248A.96.96,0,0,0,1.565,1.8V1.688a.091.091,0,0,1,.075-.075c.054,0,.086.075.086.118A1.142,1.142,0,0,1,1.49,2.6l-.075.054" transform="translate(7.787 7.686)" fill="#b40000"/>
      <path id="Tracciato_9032" data-name="Tracciato 9032" d="M1.484,1.889l-.022-.118.011-.1.065.011.032.054a.926.926,0,0,1-.032.7c-.022-.14-.032-.28-.043-.42l-.011-.129" transform="translate(8.278 8.281)" fill="#b40000"/>
      <path id="Tracciato_9033" data-name="Tracciato 9033" d="M1.607,1.909c-.032-.032-.075-.065-.086-.108L1.51,1.683V1.661h.011a.178.178,0,0,1,.129.054l.075.118a.572.572,0,0,0,.28.226.258.258,0,0,1-.151-.022,1.085,1.085,0,0,1-.248-.129" transform="translate(8.747 8.154)" fill="#b40000"/>
      <path id="Tracciato_9034" data-name="Tracciato 9034" d="M1.5,1.747a1.124,1.124,0,0,0,.129.42l.075.118a.2.2,0,0,0,.129.075.252.252,0,0,1-.075-.183,1.3,1.3,0,0,1,0-.2A.294.294,0,0,0,1.7,1.78a.175.175,0,0,0-.183-.065L1.5,1.737Z" transform="translate(8.639 8.617)" fill="#b40000"/>
    </g>
  </g>
</svg>
