<svg xmlns="http://www.w3.org/2000/svg" xmlns:xlink="http://www.w3.org/1999/xlink" width="24" height="24" viewBox="0 0 24 24">
  <defs>
    <clipPath id="clip-path">
      <path id="Tracciato_9303" data-name="Tracciato 9303" d="M1.446,12.749a12,12,0,1,0,12-12,12,12,0,0,0-12,12" transform="translate(-1.446 -0.749)" fill="none"/>
    </clipPath>
  </defs>
  <g id="Territori_Britannici_dell_Oceano_Indiano" data-name="Territori Britannici dell&apos;Oceano Indiano" transform="translate(-1.446 -0.749)">
    <g id="Raggruppa_251" data-name="Raggruppa 251" transform="translate(1.446 0.749)" clip-path="url(#clip-path)">
      <rect id="Rettangolo_796" data-name="Rettangolo 796" width="41.876" height="24" transform="translate(-15.562 0)" fill="#fff"/>
      <path id="Tracciato_9055" data-name="Tracciato 9055" d="M35.074,6.593h-.1a7.952,7.952,0,0,1-2.841-1.119,9.653,9.653,0,0,0-2.013-.9c-.323-.011-.915.441-1.4.807a4.261,4.261,0,0,1-2.658,1.216,7.952,7.952,0,0,1-2.841-1.119,9.653,9.653,0,0,0-2.013-.9h-.022a3.657,3.657,0,0,0-1.378.807,4.287,4.287,0,0,1-2.658,1.216,7.952,7.952,0,0,1-2.841-1.119,9.456,9.456,0,0,0-2.023-.9,3.481,3.481,0,0,0-1.388.807A4.287,4.287,0,0,1,8.244,6.593,7.952,7.952,0,0,1,5.4,5.474a9.7,9.7,0,0,0-2.023-.9C2.8,4.537,1.173,5.474,0,6.356V3.978c.129-.086.248-.161.387-.237a5.969,5.969,0,0,1,3.078-1.13A7.952,7.952,0,0,1,6.307,3.73a9.653,9.653,0,0,0,2.013.9h.022a3.567,3.567,0,0,0,1.378-.818,4.334,4.334,0,0,1,2.669-1.205,7.988,7.988,0,0,1,2.83,1.119,9.456,9.456,0,0,0,2.023.9c.312.011.915-.452,1.388-.818a4.333,4.333,0,0,1,2.658-1.205A7.952,7.952,0,0,1,24.129,3.73a9.7,9.7,0,0,0,2.023.9h.011a3.567,3.567,0,0,0,1.378-.818A4.334,4.334,0,0,1,30.21,2.611,7.913,7.913,0,0,1,33.04,3.73a9.7,9.7,0,0,0,2.023.9c.323.011.915-.452,1.388-.818a4.334,4.334,0,0,1,2.669-1.205,8.156,8.156,0,0,1,2.755.9V5.678A13.41,13.41,0,0,0,39.035,4.57c-.323-.011-.915.441-1.4.807a4.4,4.4,0,0,1-2.561,1.216" transform="translate(-15.562 17.407)" fill="#002787"/>
      <path id="Tracciato_9056" data-name="Tracciato 9056" d="M35.074,6.222h-.1A7.952,7.952,0,0,1,32.136,5.1a9.653,9.653,0,0,0-2.013-.9c-.323-.011-.915.441-1.4.807a4.261,4.261,0,0,1-2.658,1.216A7.952,7.952,0,0,1,23.225,5.1a9.653,9.653,0,0,0-2.013-.9h-.022a3.657,3.657,0,0,0-1.378.807,4.287,4.287,0,0,1-2.658,1.216A7.952,7.952,0,0,1,14.314,5.1a9.456,9.456,0,0,0-2.023-.9,3.481,3.481,0,0,0-1.388.807A4.287,4.287,0,0,1,8.244,6.222,7.952,7.952,0,0,1,5.4,5.1a9.7,9.7,0,0,0-2.023-.9A9.1,9.1,0,0,0,0,5.985V3.607c.129-.075.248-.161.387-.237A5.969,5.969,0,0,1,3.465,2.24,7.952,7.952,0,0,1,6.307,3.359a8.987,8.987,0,0,0,2.013.893h.022a3.517,3.517,0,0,0,1.378-.807A4.334,4.334,0,0,1,12.387,2.24a7.988,7.988,0,0,1,2.83,1.119,8.824,8.824,0,0,0,2.023.893c.312.022.915-.43,1.388-.807A4.333,4.333,0,0,1,21.288,2.24a7.952,7.952,0,0,1,2.841,1.119,9.03,9.03,0,0,0,2.023.893h.011a3.517,3.517,0,0,0,1.378-.807A4.334,4.334,0,0,1,30.21,2.24a7.913,7.913,0,0,1,2.83,1.119,9.03,9.03,0,0,0,2.023.893,3.291,3.291,0,0,0,1.388-.807A4.334,4.334,0,0,1,39.121,2.24a8.156,8.156,0,0,1,2.755.9V5.307A13.41,13.41,0,0,0,39.035,4.2c-.323-.011-.915.441-1.4.807a4.4,4.4,0,0,1-2.561,1.216" transform="translate(-15.562 13.785)" fill="#002787"/>
      <path id="Tracciato_9057" data-name="Tracciato 9057" d="M35.074,5.852h-.1a7.952,7.952,0,0,1-2.841-1.119,9.653,9.653,0,0,0-2.013-.9c-.323-.011-.915.441-1.4.807a4.261,4.261,0,0,1-2.658,1.216,7.952,7.952,0,0,1-2.841-1.119,9.653,9.653,0,0,0-2.013-.9h-.022a3.657,3.657,0,0,0-1.378.807,4.287,4.287,0,0,1-2.658,1.216,7.952,7.952,0,0,1-2.841-1.119,9.456,9.456,0,0,0-2.023-.9,3.481,3.481,0,0,0-1.388.807A4.287,4.287,0,0,1,8.244,5.852,7.952,7.952,0,0,1,5.4,4.733a9.7,9.7,0,0,0-2.023-.9A8.942,8.942,0,0,0,0,5.615V3.237C.129,3.151.248,3.075.387,3A5.969,5.969,0,0,1,3.465,1.87,7.952,7.952,0,0,1,6.307,2.989a9.653,9.653,0,0,0,2.013.9h.022a3.567,3.567,0,0,0,1.378-.818A4.334,4.334,0,0,1,12.387,1.87a7.988,7.988,0,0,1,2.83,1.119,9.456,9.456,0,0,0,2.023.9,3.4,3.4,0,0,0,1.388-.818A4.333,4.333,0,0,1,21.288,1.87a7.952,7.952,0,0,1,2.841,1.119,9.7,9.7,0,0,0,2.023.9h.011a3.567,3.567,0,0,0,1.378-.818A4.334,4.334,0,0,1,30.21,1.87a7.913,7.913,0,0,1,2.83,1.119,9.7,9.7,0,0,0,2.023.9c.323.011.915-.441,1.388-.818A4.334,4.334,0,0,1,39.121,1.87a8.042,8.042,0,0,1,2.755.915V4.937a13.41,13.41,0,0,0-2.841-1.109c-.323-.011-.915.441-1.4.807a4.4,4.4,0,0,1-2.561,1.216" transform="translate(-15.562 10.173)" fill="#002787"/>
      <path id="Tracciato_9058" data-name="Tracciato 9058" d="M35.074,5.482h-.1a7.952,7.952,0,0,1-2.841-1.119,9.113,9.113,0,0,0-2.013-.9c-.323-.011-.915.441-1.4.807a4.261,4.261,0,0,1-2.658,1.216,7.952,7.952,0,0,1-2.841-1.119,9.113,9.113,0,0,0-2.013-.9h-.022a3.657,3.657,0,0,0-1.378.807,4.287,4.287,0,0,1-2.658,1.216,7.952,7.952,0,0,1-2.841-1.119,8.942,8.942,0,0,0-2.023-.9,3.481,3.481,0,0,0-1.388.807A4.287,4.287,0,0,1,8.244,5.482,7.952,7.952,0,0,1,5.4,4.363a9.155,9.155,0,0,0-2.023-.9A8.786,8.786,0,0,0,0,5.245V2.867l.387-.248A6.034,6.034,0,0,1,3.465,1.5,7.952,7.952,0,0,1,6.307,2.619a8.987,8.987,0,0,0,2.013.893l.022.011a3.567,3.567,0,0,0,1.378-.818A4.334,4.334,0,0,1,12.387,1.5a7.988,7.988,0,0,1,2.83,1.119,8.824,8.824,0,0,0,2.023.893c.312.022.915-.441,1.388-.807A4.333,4.333,0,0,1,21.288,1.5a7.952,7.952,0,0,1,2.841,1.119,9.03,9.03,0,0,0,2.023.893l.011.011a3.567,3.567,0,0,0,1.378-.818A4.334,4.334,0,0,1,30.21,1.5a7.913,7.913,0,0,1,2.83,1.119,9.03,9.03,0,0,0,2.023.893c.323.022.915-.441,1.388-.807A4.334,4.334,0,0,1,39.121,1.5a8.156,8.156,0,0,1,2.755.9V4.567a13.41,13.41,0,0,0-2.841-1.109c-.323-.011-.915.441-1.4.807a4.4,4.4,0,0,1-2.561,1.216" transform="translate(-15.562 6.561)" fill="#002787"/>
      <path id="Tracciato_9059" data-name="Tracciato 9059" d="M35.074,5.112h-.1a8.006,8.006,0,0,1-2.841-1.13,10.11,10.11,0,0,0-2.013-.893c-.323-.011-.915.441-1.4.807a4.261,4.261,0,0,1-2.658,1.216,8.006,8.006,0,0,1-2.841-1.13,10.11,10.11,0,0,0-2.013-.893h-.022a3.657,3.657,0,0,0-1.378.807,4.287,4.287,0,0,1-2.658,1.216,8.006,8.006,0,0,1-2.841-1.13,9.892,9.892,0,0,0-2.023-.893A3.481,3.481,0,0,0,10.9,3.9,4.287,4.287,0,0,1,8.244,5.112,8.006,8.006,0,0,1,5.4,3.982a10.153,10.153,0,0,0-2.023-.893A8.786,8.786,0,0,0,0,4.875V2.5l.387-.248A6.034,6.034,0,0,1,3.465,1.13,7.952,7.952,0,0,1,6.307,2.249a9.653,9.653,0,0,0,2.013.9h.022a3.567,3.567,0,0,0,1.378-.818A4.334,4.334,0,0,1,12.387,1.13a7.988,7.988,0,0,1,2.83,1.119,9.456,9.456,0,0,0,2.023.9,3.67,3.67,0,0,0,1.388-.818A4.333,4.333,0,0,1,21.288,1.13a7.952,7.952,0,0,1,2.841,1.119,9.7,9.7,0,0,0,2.023.9h.011a3.567,3.567,0,0,0,1.378-.818A4.334,4.334,0,0,1,30.21,1.13a7.913,7.913,0,0,1,2.83,1.119,9.7,9.7,0,0,0,2.023.9,3.593,3.593,0,0,0,1.388-.818A4.334,4.334,0,0,1,39.121,1.13a8.156,8.156,0,0,1,2.755.9V4.2a13.41,13.41,0,0,0-2.841-1.109c-.323-.011-.915.441-1.4.807a4.4,4.4,0,0,1-2.561,1.216" transform="translate(-15.562 2.949)" fill="#002787"/>
      <path id="Tracciato_9060" data-name="Tracciato 9060" d="M35.074,4.741h-.1a7.952,7.952,0,0,1-2.841-1.119,9.653,9.653,0,0,0-2.013-.9c-.323-.011-.915.441-1.4.807a4.261,4.261,0,0,1-2.658,1.216,7.952,7.952,0,0,1-2.841-1.119,9.653,9.653,0,0,0-2.013-.9h-.022a3.657,3.657,0,0,0-1.378.807,4.287,4.287,0,0,1-2.658,1.216,7.952,7.952,0,0,1-2.841-1.119,9.456,9.456,0,0,0-2.023-.9,3.481,3.481,0,0,0-1.388.807A4.287,4.287,0,0,1,8.244,4.741,7.952,7.952,0,0,1,5.4,3.622a9.7,9.7,0,0,0-2.023-.9A9.1,9.1,0,0,0,0,4.5V2.126c.129-.075.248-.161.387-.237A5.969,5.969,0,0,1,3.465.759,7.952,7.952,0,0,1,6.307,1.878a9.653,9.653,0,0,0,2.013.9h.022a3.567,3.567,0,0,0,1.378-.818A4.334,4.334,0,0,1,12.387.759a7.988,7.988,0,0,1,2.83,1.119,9.456,9.456,0,0,0,2.023.9c.312.011.915-.452,1.388-.818A4.333,4.333,0,0,1,21.288.759a7.952,7.952,0,0,1,2.841,1.119,9.7,9.7,0,0,0,2.023.9h.011a3.567,3.567,0,0,0,1.378-.818A4.334,4.334,0,0,1,30.21.759a7.913,7.913,0,0,1,2.83,1.119,9.7,9.7,0,0,0,2.023.9c.323.011.915-.452,1.388-.818A4.334,4.334,0,0,1,39.121.759a8.042,8.042,0,0,1,2.755.915V3.826a13.41,13.41,0,0,0-2.841-1.109c-.323-.011-.915.441-1.4.807a4.4,4.4,0,0,1-2.561,1.216" transform="translate(-15.562 -0.673)" fill="#002787"/>
      <rect id="Rettangolo_797" data-name="Rettangolo 797" width="24" height="11.957" transform="translate(-11.419 0)" fill="#002787"/>
      <path id="Tracciato_9061" data-name="Tracciato 9061" d="M24.385,2.138V.75H21.695L14.344,4.43V.75H10.416V4.387L3.076.75H.385V2.03L5.863,4.775H.385V8.7H5.82L.385,11.426v1.281H3.076l7.34-3.638v3.659h3.928v-3.7l7.351,3.681h2.691V11.318L19.112,8.7h5.274V4.775H19.069Z" transform="translate(-11.803 -0.744)" fill="#fff"/>
      <path id="Tracciato_9062" data-name="Tracciato 9062" d="M24.385,5.571H13.558V.749H11.212V5.571H.385V7.917H11.212v4.811h2.346V7.917H24.385Z" transform="translate(-11.803 -0.749)" fill="#dc0000"/>
      <path id="Tracciato_9063" data-name="Tracciato 9063" d="M3.618,1.5H1.885L9.742,5.424V4.616Z" transform="translate(2.845 6.538)" fill="#dc0000"/>
      <path id="Tracciato_9064" data-name="Tracciato 9064" d="M1.739,4.678H3.472l7.7-3.928H9.6Z" transform="translate(1.416 -0.746)" fill="#dc0000"/>
      <path id="Tracciato_9065" data-name="Tracciato 9065" d="M3.918,1.469l.5,15.917a.565.565,0,0,1-1.13.043v-.043L3.821,1.469l.054-.043.043.043" transform="translate(16.487 5.86)" fill="#b30"/>
      <path id="Tracciato_9066" data-name="Tracciato 9066" d="M3.873,18.009a.584.584,0,0,1-.592-.56v-.043L3.819,1.489a.072.072,0,0,1,.075-.065l.065.065.5,15.917a.588.588,0,0,1-.57.6ZM3.894,1.467l-.022.022L3.335,17.406v.032a.537.537,0,0,0,.538.527h.011a.547.547,0,0,0,.527-.549l-.5-15.928-.022-.022" transform="translate(16.468 5.841)" fill="#fff"/>
      <path id="Tracciato_9067" data-name="Tracciato 9067" d="M4.444,6.645,3.228,4.439l.807.387-.667-.99L3.96,4l-.57-.936h.517l-.484-.883.42.14-.474-.893.474.215.2-.689.183.678.732-.387-.28.689.57.022-.377.592.474-.172-.592.969.592-.28-.538.979.366-.108-.4.764.4-.011-.42,1.259.4-.151Z" transform="translate(15.953 1.234)" fill="#006800"/>
      <path id="Tracciato_9068" data-name="Tracciato 9068" d="M4.483,6.737h0L4.44,6.716,3.235,4.509l-.011-.043.065-.022.646.312-.56-.85-.011-.032.065-.032.463.129-.506-.829V3.089l.043-.022H3.87l-.452-.818L3.428,2.2l.043-.011.312.108-.409-.8-.011-.043.065-.022.42.194.2-.646L4.1.947,4.139.99,4.3,1.6l.689-.344h.054l.011.054L4.8,1.937l.5.022.043.032v.043l-.3.463.334-.118.054.011v.054l-.5.839.441-.215.054.011.011.054-.484.883.248-.075.054.011L5.258,4,4.9,4.7l.312-.011.032.022.011.043L4.881,5.919l.3-.118.054.011v.065l-.71.85-.043.011M3.385,4.6,4.494,6.608l.549-.646-.226.086-.043-.011-.022-.032.4-1.216L4.817,4.8l-.043-.022V4.735l.344-.678-.258.075-.054-.011V4.068l.463-.85-.452.226-.054-.011V3.369l.517-.861-.355.129-.043-.022-.011-.043L5.2,2.056,4.72,2.023l-.032-.011-.011-.054.237-.56-.624.323H4.246L4.225,1.7l-.14-.527-.161.538L3.9,1.733l-.032.011-.355-.172.409.775v.043l-.065.032-.3-.108.43.775v.054l-.032.022H3.515l.527.861.011.032-.065.032L3.525,3.96l.592.893v.054l-.065.011Z" transform="translate(15.911 1.184)" fill="#fff"/>
      <path id="Tracciato_9069" data-name="Tracciato 9069" d="M3.7,6.608,3.681,6.6,3.649,3.875,3.3,2.346V.98L3.326.958,3.358.98V2.336l.334,1.528v.011l.032,2.712-.011.022Z" transform="translate(16.695 1.292)" fill="#fff"/>
      <path id="Tracciato_9070" data-name="Tracciato 9070" d="M3.541,1.5h0L3.3,1.482l-.022-.011L3.3,1.428l.226.032.6-.42h.032v.043l-.613.42Z" transform="translate(16.484 2.098)" fill="#fff"/>
      <path id="Tracciato_9071" data-name="Tracciato 9071" d="M3.688,1.894H3.677L3.3,1.668,3.29,1.625h.032l.355.215.581-.732L4.28,1.1,4.3,1.13l-.592.753Z" transform="translate(16.552 2.654)" fill="#fff"/>
      <path id="Tracciato_9072" data-name="Tracciato 9072" d="M3.358,1.8H3.347l-.011-.032.344-.592h.032l.011.032-.344.581Z" transform="translate(17.008 3.39)" fill="#fff"/>
      <path id="Tracciato_9073" data-name="Tracciato 9073" d="M3.778,1.459H3.767L3.3,1.276l-.011-.032.032-.011.463.183.011.032Z" transform="translate(16.59 3.973)" fill="#fff"/>
      <path id="Tracciato_9074" data-name="Tracciato 9074" d="M3.358,1.808,3.347,1.8l-.011-.032.4-.527h.032V1.27L3.379,1.8Z" transform="translate(17.008 4.02)" fill="#fff"/>
      <path id="Tracciato_9075" data-name="Tracciato 9075" d="M3.71,1.579h0l-.4-.226L3.3,1.321l.032-.011.387.226.022.022-.032.022" transform="translate(16.667 4.729)" fill="#fff"/>
      <path id="Tracciato_9076" data-name="Tracciato 9076" d="M3.359,1.859H3.349l-.011-.032L3.693,1.3h.032v.032l-.344.517Z" transform="translate(17.022 4.622)" fill="#fff"/>
      <path id="Tracciato_9077" data-name="Tracciato 9077" d="M3.36,1.49l-.022-.022.011-.022.334-.032.022.011-.022.032Z" transform="translate(17.029 5.75)" fill="#fff"/>
      <path id="Tracciato_9078" data-name="Tracciato 9078" d="M3.341,5.191,4.31,2.866l.194.872L4.87,2.6l.237.56.377-1.022.323.4.387-.926.151.409L6.753,1.1l.118.5.678-.269-.42.56.753.344-.7.2.323.463-.689.065.43.269-1.13.151.581.28-1.1.183.312.215-.85.172.258.3-1.238.474.366.2Z" transform="translate(17.057 2.688)" fill="#006800"/>
      <path id="Tracciato_9079" data-name="Tracciato 9079" d="M4.5,5.315h0L3.38,5.293l-.022-.011-.022-.043.979-2.346.043-.022L4.4,2.9l.151.7.312-.969L4.908,2.6l.043.032.194.441.334-.9.043-.043.043.022.269.344L6.2,1.634l.032-.022.054.032.108.3.366-.818L6.8,1.1l.043.043.108.441.624-.248.054.022v.054l-.387.517.71.323.022.043-.032.043L7.3,2.517l.291.409.011.043L7.556,3l-.549.054.3.183.022.054L7.3,3.324l-.969.14.441.2.022.054-.032.043-.99.161.215.151.022.054-.032.032L5.2,4.325l.2.237.011.043L5.4,4.626l-1.162.441.269.151.032.043ZM3.455,5.2l.85.022L4.1,5.1,4.08,5.057l.011-.043,1.195-.441L5.07,4.325l-.011-.032L5.1,4.249,5.845,4.1l-.226-.161L5.6,3.894l.043-.043L6.6,3.69l-.463-.215-.022-.043.043-.043.99-.14-.312-.194-.022-.043.043-.043.613-.054-.291-.4-.011-.032.043-.043.581-.161-.646-.291-.022-.022V1.925l.323-.43-.517.194L6.91,1.7l-.032-.022-.1-.377-.344.8-.054.022L6.34,2.086l-.108-.3L5.9,2.613l-.043.022H5.823l-.28-.355L5.2,3.227l-.043.032-.043-.032-.194-.441L4.6,3.808l-.054.032L4.5,3.8l-.161-.721Z" transform="translate(17.015 2.639)" fill="#fff"/>
      <path id="Tracciato_9080" data-name="Tracciato 9080" d="M3.361,4.958l-.022-.011.011-.032L5.449,3.2l.979-1.216V1.977l1.065-.85.043.011-.011.032-1.055.85-.99,1.216L3.372,4.958Z" transform="translate(17.037 2.942)" fill="#fff"/>
      <path id="Tracciato_9081" data-name="Tracciato 9081" d="M4.479,1.647H4.468l-.7-.215-.022-.011-.129-.2.011-.032.032.011.129.194.7.215.011.022Z" transform="translate(19.756 3.5)" fill="#fff"/>
      <path id="Tracciato_9082" data-name="Tracciato 9082" d="M3.654,1.717l-.022-.011-.065-.452.022-.022.032.022.054.409H4.6l.022.022L4.6,1.706Z" transform="translate(19.268 3.971)" fill="#fff"/>
      <path id="Tracciato_9083" data-name="Tracciato 9083" d="M3.556,1.451l-.022-.022.011-.022.678-.1.032.022-.011.022Z" transform="translate(18.944 4.734)" fill="#fff"/>
      <path id="Tracciato_9084" data-name="Tracciato 9084" d="M3.675,1.807l-.022-.022L3.5,1.312l.011-.022.032.011.151.474-.011.032Z" transform="translate(18.636 4.533)" fill="#fff"/>
      <path id="Tracciato_9085" data-name="Tracciato 9085" d="M3.51,1.419,3.488,1.4,3.5,1.376l.667-.022.022.022L4.177,1.4Z" transform="translate(18.491 5.164)" fill="#fff"/>
      <path id="Tracciato_9086" data-name="Tracciato 9086" d="M3.544,1.829l-.022-.022-.075-.441.011-.022.032.011.075.441Z" transform="translate(18.088 5.064)" fill="#fff"/>
      <path id="Tracciato_9087" data-name="Tracciato 9087" d="M3.463,1.488l-.022-.022.011-.022.635-.054.022.011-.022.032Z" transform="translate(18.035 5.515)" fill="#fff"/>
      <path id="Tracciato_9088" data-name="Tracciato 9088" d="M3.635,1.71,3.613,1.7l-.226-.226V1.441H3.43l.226.226V1.7Z" transform="translate(17.503 6.006)" fill="#fff"/>
      <path id="Tracciato_9089" data-name="Tracciato 9089" d="M3.341,2.106l2.422-.689-.56.689,1.119-.42-.291.527,1.033-.344-.108.506.969-.28-.237.377.979-.248-.312.4.624.366-.7.022.2.807-.592-.43-.161.549L7.248,3.43l.065.506L6.484,3.15l.151.635L5.8,3.042l.032.377-.667-.56-.075.387L3.944,2.569l.065.42Z" transform="translate(17.057 5.773)" fill="#006800"/>
      <path id="Tracciato_9090" data-name="Tracciato 9090" d="M7.351,4.017H7.33l-.721-.689.108.474-.022.054-.032.011L5.9,3.189l.011.269L5.888,3.5,5.834,3.49l-.6-.506L5.177,3.3l-.032.032H5.1L4.047,2.694l.054.312v.022l-.043.043H4.026l-.678-.893-.011-.032L3.369,2.1l2.422-.689.054.011v.054l-.452.56.947-.355.054.011.011.054-.237.43.926-.312.054.011.011.043-.1.43.893-.258L8,2.113l.022.032-.183.291L8.7,2.22l.054.011V2.3l-.291.355.592.334.011.054L9.02,3.07l-.635.022.194.753-.022.043H8.5L7.954,3.5l-.14.484-.032.032-.043-.011-.387-.4.043.355-.022.054H7.351m-.065-.592.032.011.43.441.129-.463.032-.032h.043l.5.355L8.277,3.06l.011-.043L8.32,3l.538-.011L8.374,2.7l-.032-.032.011-.032.237-.3-.839.226L7.7,2.543V2.489l.161-.269-.85.248-.043-.011L6.942,2.4l.108-.42-.958.323-.054-.022V2.231l.215-.42-1,.377L5.21,2.177V2.123l.463-.581-2.217.624.527.678L3.94,2.618l.022-.054h.054l1.076.646.065-.323.032-.032H5.22l.592.5-.022-.269L5.8,3.038h.065l.732.646L6.48,3.2,6.5,3.146l.054.011.732.689-.043-.366.022-.054Z" transform="translate(17.015 5.733)" fill="#fff"/>
      <path id="Tracciato_9091" data-name="Tracciato 9091" d="M8.914,2.415H8.9l-1.324-.3L6.019,2.1H6.008L3.361,1.522,3.339,1.5l.032-.022,2.648.57L7.59,2.06l1.335.3.011.032Z" transform="translate(17.034 6.374)" fill="#fff"/>
      <path id="Tracciato_9092" data-name="Tracciato 9092" d="M4.27,2.6l-.022-.011-.6-.732V1.827L3.958,1.5h.032L4,1.526l-.3.323.592.721-.011.022Z" transform="translate(20.033 6.627)" fill="#fff"/>
      <path id="Tracciato_9093" data-name="Tracciato 9093" d="M4.092,2.049l-.022-.011-.484-.463V1.543l.022-.011.5.474v.032Z" transform="translate(19.451 6.896)" fill="#fff"/>
      <path id="Tracciato_9094" data-name="Tracciato 9094" d="M3.585,1.951H3.574l-.011-.032.28-.409.022-.022.022.043-.28.409Z" transform="translate(19.226 6.471)" fill="#fff"/>
      <path id="Tracciato_9095" data-name="Tracciato 9095" d="M3.98,2.058H3.969l-.43-.517L3.528,1.52h.043l.43.5v.032l-.022.011" transform="translate(18.875 6.778)" fill="#fff"/>
      <path id="Tracciato_9096" data-name="Tracciato 9096" d="M3.515,1.856H3.5l-.022-.032L3.8,1.479h.032l.011.032-.312.334Z" transform="translate(18.441 6.381)" fill="#fff"/>
      <path id="Tracciato_9097" data-name="Tracciato 9097" d="M3.92,2.012H3.91l-.441-.463V1.528L3.5,1.506l.43.463V2Z" transform="translate(18.296 6.645)" fill="#fff"/>
      <path id="Tracciato_9098" data-name="Tracciato 9098" d="M3.417,1.858h0L3.4,1.836l.043-.323.011-.022.032.022-.043.323-.022.022" transform="translate(17.587 6.505)" fill="#fff"/>
      <path id="Tracciato_9099" data-name="Tracciato 9099" d="M3.585,1.481,5.641,2.945l-.9-.011,1.033.613-.592.108.915.592-.474.226.829.581-.441.054.807.613H6.3l.118.721L5.964,5.9l-.506.667L5.426,5.84,4.9,6.055l.086-.689-.355.355.1-1.13-.4.506.065-1.119-.28.258.011-.861-.344.183L3.607,2.245l-.291.312Z" transform="translate(16.812 6.398)" fill="#006800"/>
      <path id="Tracciato_9100" data-name="Tracciato 9100" d="M5.5,6.654H5.486l-.032-.043-.032-.667-.463.194H4.926l-.032-.054.065-.549-.248.258L4.657,5.8,4.625,5.76l.086-.979-.3.387-.054.011-.032-.043.054-1-.194.183-.054.011-.022-.054.011-.786L3.85,3.64H3.807l-.032-.032L3.613,2.392,3.4,2.629l-.065.011-.022-.054.269-1.076.032-.032h.032L5.712,2.941l.022.054-.054.032H4.959l.883.517.022.054-.043.032-.474.1.818.527.022.022-.032.054-.4.194.764.538.022.054L6.5,5.147l-.323.043.71.538.022.043L6.864,5.8,6.4,5.814l.1.657-.022.054-.054-.011L6,6.019l-.463.613L5.5,6.654m-.032-.829.022.011.022.022.032.624.43-.57L5.992,5.9l.054.011.334.409L6.3,5.771l.011-.043.022-.011h.387l-.7-.527L6,5.136,6.035,5.1l.334-.043-.732-.506-.022-.022.032-.065.387-.183L5.2,3.737l-.022-.054.043-.032.463-.086-.915-.549-.022-.054.043-.032.743.011L3.656,1.6l-.2.829.161-.172.043-.011.043.032.161,1.248.291-.151.032-.011.043.054-.022.753L4.4,3.985h.054l.022.043L4.431,5l.312-.4L4.8,4.587l.032.043-.1,1,.258-.258.054-.011.032.043-.086.613.452-.194Z" transform="translate(16.771 6.358)" fill="#fff"/>
      <path id="Tracciato_9101" data-name="Tracciato 9101" d="M6.127,6.409,6.105,6.4,5.513,5.171,4.545,3.944V3.934L3.34,1.5V1.48h.043L4.588,3.912l.969,1.227V5.15l.592,1.227V6.4Z" transform="translate(17.039 6.384)" fill="#fff"/>
      <path id="Tracciato_9102" data-name="Tracciato 9102" d="M3.531,2.581H3.521L3.51,2.548,3.876,1.9l.011-.011.226-.075h.022l-.011.043-.215.075-.355.635-.022.011" transform="translate(18.701 9.673)" fill="#fff"/>
      <path id="Tracciato_9103" data-name="Tracciato 9103" d="M3.491,2.732h0l-.022-.011.194-.947.022-.022.452.043.022.022-.032.022-.409-.032-.2.9Z" transform="translate(18.303 9.051)" fill="#fff"/>
      <path id="Tracciato_9104" data-name="Tracciato 9104" d="M3.467,2.426h0l-.022-.011.065-.689.022-.022.022.011L3.489,2.4Z" transform="translate(18.076 8.584)" fill="#fff"/>
      <path id="Tracciato_9105" data-name="Tracciato 9105" d="M3.463,1.767l-.022-.022.022-.022.5-.043.022.022-.011.032Z" transform="translate(18.032 8.348)" fill="#fff"/>
      <path id="Tracciato_9106" data-name="Tracciato 9106" d="M3.435,2.341h0l-.022-.032.118-.646.032-.011.022.022-.129.646Z" transform="translate(17.765 8.064)" fill="#fff"/>
      <path id="Tracciato_9107" data-name="Tracciato 9107" d="M3.878,1.687h0l-.452-.032L3.4,1.633l.032-.022.441.022.022.022-.022.032" transform="translate(17.675 7.673)" fill="#fff"/>
      <path id="Tracciato_9108" data-name="Tracciato 9108" d="M3.411,2.264h0L3.39,2.254l.086-.635L3.508,1.6l.011.022-.086.624-.022.022" transform="translate(17.529 7.53)" fill="#fff"/>
      <path id="Tracciato_9109" data-name="Tracciato 9109" d="M3.362,1.749H3.341l.011-.043.28-.172.032.011v.022l-.291.183Z" transform="translate(17.053 6.915)" fill="#fff"/>
      <path id="Tracciato_9110" data-name="Tracciato 9110" d="M5.889,1.481,6.029,4l-.56-.71.172,1.184-.463-.387.108,1.076-.474-.226.065,1.012-.312-.312.022,1.012-.323-.4-.5.538.14-.689L3.08,6.12l.549-.5-.5-.269.592-.366L3.22,4.947l.958-.635-.656.011.915-.657L4.06,3.612l.689-.527-.366-.151.926-.969-.43-.022Z" transform="translate(14.509 6.398)" fill="#006800"/>
      <path id="Tracciato_9111" data-name="Tracciato 9111" d="M3.808,6.88,3.8,6.869l-.032-.054.129-.624-.775.022L3.076,6.18l.011-.054.5-.441-.441-.248-.022-.032.022-.043.474-.291-.355-.032L3.216,5l.022-.043L4.055,4.4h-.5l-.043-.032.022-.054.807-.581L4.088,3.7l-.032-.043.011-.043.624-.474-.28-.129-.032-.032V2.951l.861-.893-.323-.032-.043-.032.022-.054,1.012-.463h.032l.032.032.14,2.529-.032.043-.054-.011L5.584,3.5l.14,1.012L5.7,4.566l-.054-.011-.377-.312.1.958-.022.054H5.3l-.4-.194.054.926-.022.054-.054-.011L4.647,5.8,4.68,6.7l-.022.032H4.593L4.3,6.363l-.452.5-.043.022m.14-.786.032.022.011.032-.1.527.377-.409L4.3,6.245l.032.011.237.3L4.55,5.685l.032-.043.054.011.226.226-.054-.893.022-.043.032-.011.409.2-.1-1L5.2,4.081l.054.011.355.312-.14-1.065L5.487,3.3l.065.011L6,3.9,5.885,1.6l-.775.355.237.011.032.022v.065l-.872.915.3.129.022.032-.011.043-.6.463.258.032.043.043L4.5,3.748l-.786.57.5-.011h.011l.043.043-.022.043-.839.56.366.032.043.043-.022.054-.527.312.43.237.022.032L3.7,5.707l-.452.4Z" transform="translate(14.467 6.358)" fill="#fff"/>
      <path id="Tracciato_9112" data-name="Tracciato 9112" d="M3.166,6.741H3.155l-.011-.032.592-1.227.355-1.528L5.243,1.5l.022-.022.022.032L4.134,3.975,3.779,5.493V5.5L3.187,6.731Z" transform="translate(15.132 6.374)" fill="#fff"/>
      <path id="Tracciato_9113" data-name="Tracciato 9113" d="M4.087,2.026H4.076L3.882,1.9l-.721.118-.032-.022.022-.032.732-.108h.011l.2.129.011.032Z" transform="translate(14.982 10.035)" fill="#fff"/>
      <path id="Tracciato_9114" data-name="Tracciato 9114" d="M3.16,2.229l-.022-.011V2.186L4,1.767h.032l.237.377v.032l-.032-.011L4,1.81l-.829.42Z" transform="translate(15.074 9.184)" fill="#fff"/>
      <path id="Tracciato_9115" data-name="Tracciato 9115" d="M3.2,2.127,3.18,2.117l.011-.032.56-.377h.032l.011.032-.581.387Z" transform="translate(15.481 8.609)" fill="#fff"/>
      <path id="Tracciato_9116" data-name="Tracciato 9116" d="M3.607,2.1H3.6L3.252,1.73,3.241,1.7l.043-.011.344.366v.032Z" transform="translate(16.079 8.406)" fill="#fff"/>
      <path id="Tracciato_9117" data-name="Tracciato 9117" d="M3.225,2.009,3.2,2V1.966L3.8,1.654l.032.011L3.817,1.7l-.581.312Z" transform="translate(15.715 8.082)" fill="#fff"/>
      <path id="Tracciato_9118" data-name="Tracciato 9118" d="M3.556,2.023l-.022-.011-.258-.366.011-.032H3.32l.258.377-.011.032Z" transform="translate(16.424 7.692)" fill="#fff"/>
      <path id="Tracciato_9119" data-name="Tracciato 9119" d="M3.255,1.964l-.022-.011V1.932L3.782,1.6l.032.011v.022l-.549.334Z" transform="translate(16.002 7.543)" fill="#fff"/>
      <path id="Tracciato_9120" data-name="Tracciato 9120" d="M3.618,1.685H3.607l-.3-.108-.022-.022.022-.032.323.118.011.032Z" transform="translate(16.5 6.816)" fill="#fff"/>
      <path id="Tracciato_9121" data-name="Tracciato 9121" d="M8.3,1.94,6.417,3.619l.2-.872L5.8,3.608l.022-.6L5.04,3.77l-.108-.506-.753.667.043-.441-.775.657.108-.506-.721-.054.624-.312-.538-.646.732.129-.1-.56.646.237-.269-.42,1.087.355-.409-.506,1.076.3-.194-.334.839.215-.1-.377,1.324.118L7.31,1.434Z" transform="translate(12.097 5.939)" fill="#006800"/>
      <path id="Tracciato_9122" data-name="Tracciato 9122" d="M3.486,4.228H3.464l-.022-.054.1-.452-.667-.043-.043-.043.022-.054.57-.291-.5-.592-.011-.032.054-.043.657.118-.086-.506.022-.043.032-.011.538.194-.2-.3V2.022l.054-.011.936.3L4.6,1.925V1.871l.054-.022.969.28-.14-.237L5.5,1.85l.043-.022.764.194-.075-.3V1.678l.043-.022L7.5,1.764l-.183-.258V1.441l.054-.011.99.506.022.032-.011.043L6.488,3.69H6.434l-.022-.043.161-.71-.7.743-.054.011-.032-.043.022-.484-.7.678-.032.011-.043-.032-.1-.43L4.239,4,4.2,4.013,4.164,3.97,4.2,3.647l-.678.57-.032.011m-.441-.635.56.043.032.022.011.032-.086.366.667-.56.054-.011.022.054-.032.312.667-.592.043-.011.032.032.1.43.721-.7L5.886,3l.022.043L5.9,3.529l.732-.786h.054L6.7,2.8l-.172.721L8.253,1.99,7.5,1.6l.129.194V1.85l-.022.022-1.27-.118.086.323L6.4,2.119l-.043.011-.732-.183.14.237v.032L5.7,2.248l-.926-.269.312.4v.054l-.054.022L4.077,2.14l.2.312v.054l-.054.011-.581-.2.086.474-.011.043-.043.011-.6-.1.452.538.011.032-.022.032Z" transform="translate(12.055 5.899)" fill="#fff"/>
      <path id="Tracciato_9123" data-name="Tracciato 9123" d="M2.86,3.136l-.022-.022V3.093l1.345-.3,1.41-.678,2.648-.635.022.022-.011.022-2.637.635-1.421.678-1.324.3Z" transform="translate(12.152 6.376)" fill="#fff"/>
      <path id="Tracciato_9124" data-name="Tracciato 9124" d="M3.5,2.34l-.022-.022-.032-.226-.538-.5V1.565l.022-.011.56.506v.011l.032.237L3.51,2.34Z" transform="translate(12.819 7.117)" fill="#fff"/>
      <path id="Tracciato_9125" data-name="Tracciato 9125" d="M3.7,2.4H3.691L3.68,2.364l.129-.4-.839-.4-.011-.032.032-.011.861.409.011.022-.14.42L3.7,2.4" transform="translate(13.323 6.826)" fill="#fff"/>
      <path id="Tracciato_9126" data-name="Tracciato 9126" d="M3.7,1.776H3.691l-.646-.215L3.034,1.54l.011-.022.667.215.011.032Z" transform="translate(14.058 6.76)" fill="#fff"/>
      <path id="Tracciato_9127" data-name="Tracciato 9127" d="M3.131,2.07h0L3.109,2.06l.075-.506.022-.022.022.032-.075.484Z" transform="translate(14.79 6.898)" fill="#fff"/>
      <path id="Tracciato_9128" data-name="Tracciato 9128" d="M3.73,1.812H3.719l-.6-.269-.022-.022L3.127,1.5l.613.269.011.032-.022.011" transform="translate(14.651 6.582)" fill="#fff"/>
      <path id="Tracciato_9129" data-name="Tracciato 9129" d="M3.2,2H3.194l-.011-.032.129-.43.011-.022.032.032-.129.43Z" transform="translate(15.515 6.708)" fill="#fff"/>
      <path id="Tracciato_9130" data-name="Tracciato 9130" d="M3.759,1.758H3.749l-.581-.226L3.157,1.5l.011-.011.6.226.022.011-.032.032" transform="translate(15.255 6.475)" fill="#fff"/>
      <path id="Tracciato_9131" data-name="Tracciato 9131" d="M3.4,1.82l-.022-.011L3.269,1.5V1.465h.043l.108.323-.011.032Z" transform="translate(16.356 6.237)" fill="#fff"/>
      <path id="Tracciato_9132" data-name="Tracciato 9132" d="M7.646,4.908,5.16,4.477,5.978,4.1,4.784,3.993l.484-.355L4.192,3.5l.323-.409-1-.161.377-.237-.99-.2.463-.226-.42-.6.646.291.161-.818.355.646.377-.42.226.657.161-.474.4,1.065.14-.635L5.838,3l.14-.355.355.786.237-.312L7.3,4.23l.118-.409Z" transform="translate(12.751 2.971)" fill="#006800"/>
      <path id="Tracciato_9133" data-name="Tracciato 9133" d="M7.685,4.99h0L5.2,4.559l-.043-.032.032-.054.646-.3-1.012-.1-.043-.032L4.8,3.989l.387-.28-.958-.118-.043-.032V3.526l.28-.366-.915-.151-.043-.043.022-.043.28-.172-.883-.172L2.9,2.536l.022-.054.409-.2L2.95,1.729l.011-.054.054-.022.581.269.151-.753.043-.043.054.022.312.592.334-.377.054-.011.032.022.172.527.118-.344.043-.032.043.032.344.926L5.4,2l.043-.032.043.011.387.936.1-.248.043-.032.043.032.334.721.183-.258.032-.022.032.011L7.33,4.15l.1-.312.043-.022.043.032.226,1.076v.011l-.054.054m-2.325-.5,2.271.387-.172-.829-.065.226-.043.032L7.309,4.29l-.7-1.055L6.415,3.5l-.043.022L6.34,3.494,6.028,2.8l-.108.248-.043.032-.032-.011-.377-.915-.118.5-.043.032-.043-.032-.355-.936-.118.355-.043.032L4.7,2.073,4.51,1.481l-.323.366-.032.022L4.1,1.836l-.28-.527L3.671,2l-.022.032H3.606l-.484-.215.323.463V2.31l-.022.032L3.09,2.5l.85.172.043.043-.022.043-.269.172.872.151.032.032V3.16l-.28.344,1,.118.032.022-.011.065L4.952,4l1.065.086.043.043-.022.043Z" transform="translate(12.709 2.931)" fill="#fff"/>
      <path id="Tracciato_9134" data-name="Tracciato 9134" d="M7.549,4.431H7.538L5.4,2.763l-1.41-.689-1.065-.85L2.91,1.2l.043-.022,1.055.85,1.41.689L7.56,4.388l.022.022-.032.022" transform="translate(12.849 3.469)" fill="#fff"/>
      <path id="Tracciato_9135" data-name="Tracciato 9135" d="M3.012,2.146,3,2.135,2.99,2.1l.161-.161.054-.732.022-.022.022.032-.043.732-.011.022-.161.161Z" transform="translate(13.627 3.535)" fill="#fff"/>
      <path id="Tracciato_9136" data-name="Tracciato 9136" d="M3.07,2.33l-.022-.011V2.287l.409-.151-.215-.9V1.211h.043l.226.936L3.5,2.168l-.42.161Z" transform="translate(14.193 3.757)" fill="#fff"/>
      <path id="Tracciato_9137" data-name="Tracciato 9137" d="M3.376,1.943l-.022-.011-.237-.646V1.265h.043l.237.646-.011.032Z" transform="translate(14.879 4.29)" fill="#fff"/>
      <path id="Tracciato_9138" data-name="Tracciato 9138" d="M3.14,1.629l-.022-.011V1.6l.441-.258h.022l.011.032-.441.258Z" transform="translate(14.88 5.002)" fill="#fff"/>
      <path id="Tracciato_9139" data-name="Tracciato 9139" d="M3.364,1.98l-.022-.022-.172-.635L3.181,1.3h.032l.172.646V1.98Z" transform="translate(15.391 4.652)" fill="#fff"/>
      <path id="Tracciato_9140" data-name="Tracciato 9140" d="M3.205,1.6H3.184V1.56l.43-.172.032.011v.032l-.43.172Z" transform="translate(15.519 5.487)" fill="#fff"/>
      <path id="Tracciato_9141" data-name="Tracciato 9141" d="M3.432,1.988l-.022-.011-.194-.6.022-.032.022.022.194.592-.011.032Z" transform="translate(15.845 5.041)" fill="#fff"/>
      <path id="Tracciato_9142" data-name="Tracciato 9142" d="M3.312,1.729H3.3L3.291,1.7l.172-.28h.043v.022l-.172.28-.022.011" transform="translate(16.564 5.766)" fill="#fff"/>
      <path id="Tracciato_9143" data-name="Tracciato 9143" d="M7.156,2.495a1.376,1.376,0,0,0-.463-.269,1.4,1.4,0,0,0-1,.054,1.065,1.065,0,0,0-.775-.161,1.014,1.014,0,0,0-.6.366.583.583,0,0,0-.291-.258.66.66,0,0,0-.689.161.726.726,0,0,0-.226.538l.129.28.043.387a9.534,9.534,0,0,0,.2,1.1c1.431.032,2.863.075,4.3.118l.194-.743.032-.527.043-.334c.086-.161.161-.323.248-.5a.7.7,0,0,0-.452-.43.671.671,0,0,0-.7.215" transform="translate(14.789 12.422)" fill="#f20000"/>
      <path id="Tracciato_9144" data-name="Tracciato 9144" d="M7.8,4.84h0L3.505,4.722l-.022-.011a9.392,9.392,0,0,1-.2-1.1l-.043-.387-.129-.269a.816.816,0,0,1,.237-.57.75.75,0,0,1,.5-.194.676.676,0,0,1,.2.032.62.62,0,0,1,.291.248,1.091,1.091,0,0,1,.592-.355L5.12,2.1a1.151,1.151,0,0,1,.592.183,1.523,1.523,0,0,1,.581-.118,1.438,1.438,0,0,1,.43.065,1.4,1.4,0,0,1,.452.269.663.663,0,0,1,.517-.248l.183.032a.688.688,0,0,1,.463.452v.011L8.1,3.226l-.054.334L8.015,4.1,8,4.152l-.183.678ZM3.516,4.69l4.273.118.194-.721.032-.538.043-.323V3.215l.248-.484a.683.683,0,0,0-.43-.42.533.533,0,0,0-.183-.022.665.665,0,0,0-.506.237H7.164a1.622,1.622,0,0,0-.452-.269,1.421,1.421,0,0,0-.42-.065,1.327,1.327,0,0,0-.581.129L5.69,2.311a.99.99,0,0,0-.57-.183l-.183.022a1.026,1.026,0,0,0-.592.366l-.011.011-.022-.011a.553.553,0,0,0-.28-.258l-.194-.032a.668.668,0,0,0-.474.194.727.727,0,0,0-.226.527l.14.269v.011l.032.387c.054.355.118.721.2,1.076" transform="translate(14.769 12.401)"/>
      <path id="Tracciato_9145" data-name="Tracciato 9145" d="M3.32,1.919H3.9l-.291.387Z" transform="translate(16.848 10.668)" fill="#ffdc00"/>
      <path id="Tracciato_9146" data-name="Tracciato 9146" d="M3.62,2.326H3.61l-.291-.387V1.928l.011-.011h.592v.022l-.291.377Zm-.269-.387.269.355.269-.355Z" transform="translate(16.839 10.653)"/>
      <path id="Tracciato_9147" data-name="Tracciato 9147" d="M3.32,2.342H3.9l-.291-.387Z" transform="translate(16.849 11.016)" fill="#ffdc00"/>
      <path id="Tracciato_9148" data-name="Tracciato 9148" d="M3.911,2.362H3.33l-.011-.011V2.34l.291-.377.011-.011.011.011.291.377v.011Zm-.56-.022h.538L3.62,1.985Z" transform="translate(16.839 11.005)"/>
      <path id="Tracciato_9149" data-name="Tracciato 9149" d="M3.314,2.55V1.925l.355.312Z" transform="translate(16.788 10.736)" fill="#ffdc00"/>
      <path id="Tracciato_9150" data-name="Tracciato 9150" d="M3.324,2.57h0l-.011-.011V1.935l.011-.011h.011l.355.312v.022l-.355.312Zm.011-.613v.581l.334-.291Z" transform="translate(16.78 10.722)"/>
      <path id="Tracciato_9151" data-name="Tracciato 9151" d="M3.7,2.55V1.925l-.355.312Z" transform="translate(17.112 10.734)" fill="#ffdc00"/>
      <path id="Tracciato_9152" data-name="Tracciato 9152" d="M3.712,2.57H3.7l-.355-.312V2.247L3.7,1.924h.011l.011.011v.624Zm-.344-.323.334.291V1.956Z" transform="translate(17.102 10.722)"/>
      <path id="Tracciato_9153" data-name="Tracciato 9153" d="M4.086,2.361A.387.387,0,1,1,3.7,1.974a.386.386,0,0,1,.387.387" transform="translate(16.761 11.21)" fill="#ffdc00"/>
      <path id="Tracciato_9154" data-name="Tracciato 9154" d="M3.708,2.769a.4.4,0,1,1,.4-.4.4.4,0,0,1-.4.4m0-.775a.381.381,0,0,0-.377.377.377.377,0,1,0,.753,0,.381.381,0,0,0-.377-.377" transform="translate(16.751 11.2)"/>
      <path id="Tracciato_9155" data-name="Tracciato 9155" d="M3.569,2.265H3.322l-.011-.011.011-.011h.237V1.986l.011-.011.011.011v.269l-.011.011" transform="translate(16.761 11.218)"/>
      <path id="Tracciato_9156" data-name="Tracciato 9156" d="M3.646,2.275h-.28l-.011-.011v-.28l.011-.011.011.011v.269h.269l.011.011Z" transform="translate(17.191 11.208)"/>
      <path id="Tracciato_9157" data-name="Tracciato 9157" d="M4.075,2.039H3.311l.011-.022h.753l.011.011Z" transform="translate(16.758 11.635)"/>
      <path id="Tracciato_9158" data-name="Tracciato 9158" d="M3.548,4.218l-.065-.054a1.225,1.225,0,0,0-.172-.517l-.1-.194a1.314,1.314,0,0,1-.129-.613.868.868,0,0,1,.441-.732.91.91,0,0,1,.624-.043,2.53,2.53,0,0,1,.452.161l.1.043a.876.876,0,0,0,.829.032.057.057,0,0,1,.1.022l-.022.1A1.038,1.038,0,0,1,4.646,2.4l-.1-.043a1.374,1.374,0,0,0-.43-.151.894.894,0,0,0-.527.022.719.719,0,0,0-.366.624,1.179,1.179,0,0,0,.118.549l.086.183a1.2,1.2,0,0,1,.194.57C3.624,4.2,3.591,4.218,3.548,4.218Z" transform="translate(14.543 11.764)" fill="#ffdc00"/>
      <path id="Tracciato_9159" data-name="Tracciato 9159" d="M3.568,4.257a.085.085,0,0,1-.086-.086,1.18,1.18,0,0,0-.172-.506l-.1-.194a1.356,1.356,0,0,1-.129-.624A.887.887,0,0,1,3.535,2.1a.967.967,0,0,1,.635-.043,3.181,3.181,0,0,1,.452.151l.108.043a1.344,1.344,0,0,0,.5.129A.617.617,0,0,0,5.537,2.3a.087.087,0,0,1,.118.032l.011.065-.032.054a.776.776,0,0,1-.409.108,1.526,1.526,0,0,1-.56-.129l-.108-.054a2.874,2.874,0,0,0-.43-.14.719.719,0,0,0-.506.032.67.67,0,0,0-.355.592,1.161,1.161,0,0,0,.108.549l.1.172a1.475,1.475,0,0,1,.183.581l-.022.065Zm.334-2.2a.707.707,0,0,0-.344.075.846.846,0,0,0-.441.71,1.464,1.464,0,0,0,.129.613l.1.183a1.272,1.272,0,0,1,.172.527l.054.054v0L3.6,4.214l.022-.054a1.323,1.323,0,0,0-.183-.56l-.086-.183a1.241,1.241,0,0,1-.129-.56A.727.727,0,0,1,3.6,2.234a.814.814,0,0,1,.538-.043,2.949,2.949,0,0,1,.43.161l.108.043a1.521,1.521,0,0,0,.549.129.7.7,0,0,0,.387-.108l.022-.032V2.352l-.075-.022a.7.7,0,0,1-.334.086,1.34,1.34,0,0,1-.506-.129l-.108-.032a2.263,2.263,0,0,0-.452-.161A1.061,1.061,0,0,0,3.9,2.062" transform="translate(14.524 11.746)"/>
      <path id="Tracciato_9160" data-name="Tracciato 9160" d="M3.539,2.182a.142.142,0,0,1-.14.14.14.14,0,0,1,0-.28.142.142,0,0,1,.14.14" transform="translate(16.36 11.874)" fill="#fff"/>
      <path id="Tracciato_9161" data-name="Tracciato 9161" d="M3.419,2.342a.151.151,0,1,1,.151-.151.147.147,0,0,1-.151.151m0-.269a.118.118,0,1,0,.118.118.119.119,0,0,0-.118-.118" transform="translate(16.341 11.864)"/>
      <path id="Tracciato_9162" data-name="Tracciato 9162" d="M3.5,2.171a.142.142,0,0,1-.14.14.14.14,0,0,1,0-.28.142.142,0,0,1,.14.14" transform="translate(15.96 11.766)" fill="#fff"/>
      <path id="Tracciato_9163" data-name="Tracciato 9163" d="M3.378,2.331a.151.151,0,1,1,.151-.151.147.147,0,0,1-.151.151m0-.269a.118.118,0,1,0,.118.118.119.119,0,0,0-.118-.118" transform="translate(15.941 11.757)"/>
      <path id="Tracciato_9164" data-name="Tracciato 9164" d="M3.458,2.158a.142.142,0,0,1-.14.14.14.14,0,0,1,0-.28.142.142,0,0,1,.14.14" transform="translate(15.57 11.639)" fill="#fff"/>
      <path id="Tracciato_9165" data-name="Tracciato 9165" d="M3.338,2.318a.151.151,0,1,1,.151-.151.147.147,0,0,1-.151.151m0-.269a.118.118,0,1,0,.118.118.119.119,0,0,0-.118-.118" transform="translate(15.55 11.63)"/>
      <path id="Tracciato_9166" data-name="Tracciato 9166" d="M3.413,2.149a.142.142,0,0,1-.14.14.14.14,0,0,1,0-.28.142.142,0,0,1,.14.14" transform="translate(15.13 11.552)" fill="#fff"/>
      <path id="Tracciato_9167" data-name="Tracciato 9167" d="M3.293,2.309a.151.151,0,1,1,.151-.151.147.147,0,0,1-.151.151m0-.269a.118.118,0,1,0,.118.118.119.119,0,0,0-.118-.118" transform="translate(15.111 11.542)"/>
      <path id="Tracciato_9168" data-name="Tracciato 9168" d="M3.369,2.156a.145.145,0,0,1-.14.151A.137.137,0,0,1,3.1,2.156a.131.131,0,0,1,.129-.129.141.141,0,0,1,.14.129" transform="translate(14.701 11.727)" fill="#fff"/>
      <path id="Tracciato_9169" data-name="Tracciato 9169" d="M3.249,2.327A.151.151,0,1,1,3.4,2.177a.147.147,0,0,1-.151.151m0-.269a.118.118,0,1,0,.118.118.119.119,0,0,0-.118-.118" transform="translate(14.681 11.717)"/>
      <path id="Tracciato_9170" data-name="Tracciato 9170" d="M3.34,2.207a.142.142,0,0,1-.14.14.14.14,0,0,1,0-.28.142.142,0,0,1,.14.14" transform="translate(14.418 12.118)" fill="#fff"/>
      <path id="Tracciato_9171" data-name="Tracciato 9171" d="M3.22,2.368a.151.151,0,1,1,.151-.151.147.147,0,0,1-.151.151m0-.269a.118.118,0,1,0,.118.118A.119.119,0,0,0,3.22,2.1" transform="translate(14.398 12.118)"/>
      <path id="Tracciato_9172" data-name="Tracciato 9172" d="M3.334,2.252a.142.142,0,0,1-.14.14.14.14,0,0,1,0-.28.142.142,0,0,1,.14.14" transform="translate(14.359 12.557)" fill="#fff"/>
      <path id="Tracciato_9173" data-name="Tracciato 9173" d="M3.214,2.422a.147.147,0,0,1-.151-.151.151.151,0,1,1,.3,0,.147.147,0,0,1-.151.151m0-.269a.118.118,0,1,0,.118.118.119.119,0,0,0-.118-.118" transform="translate(14.34 12.538)"/>
      <path id="Tracciato_9174" data-name="Tracciato 9174" d="M3.346,2.3a.142.142,0,0,1-.14.14.14.14,0,0,1,0-.28.142.142,0,0,1,.14.14" transform="translate(14.476 13.006)" fill="#fff"/>
      <path id="Tracciato_9175" data-name="Tracciato 9175" d="M3.236,2.458a.151.151,0,1,1,0-.3.151.151,0,1,1,0,.3m0-.269a.118.118,0,1,0,.118.118.119.119,0,0,0-.118-.118" transform="translate(14.457 12.996)"/>
      <path id="Tracciato_9176" data-name="Tracciato 9176" d="M3.361,2.334a.142.142,0,0,1-.14.14.14.14,0,0,1,0-.28.142.142,0,0,1,.14.14" transform="translate(14.623 13.358)" fill="#fff"/>
      <path id="Tracciato_9177" data-name="Tracciato 9177" d="M3.241,2.494a.151.151,0,1,1,.151-.151.147.147,0,0,1-.151.151m0-.269a.118.118,0,1,0,.118.118.119.119,0,0,0-.118-.118" transform="translate(14.603 13.348)"/>
      <path id="Tracciato_9178" data-name="Tracciato 9178" d="M5.448,4.218c.043,0,.075-.022.075-.054a1.081,1.081,0,0,1,.161-.517l.1-.194a1.314,1.314,0,0,0,.129-.613.846.846,0,0,0-.441-.732.883.883,0,0,0-.613-.043,2.046,2.046,0,0,0-.452.161L4.3,2.27a.876.876,0,0,1-.829.032.057.057,0,0,0-.1.022l.022.1A1.038,1.038,0,0,0,4.35,2.4l.108-.043a1.317,1.317,0,0,1,.42-.151.894.894,0,0,1,.527.022.719.719,0,0,1,.366.624,1.179,1.179,0,0,1-.118.549l-.086.183a1.2,1.2,0,0,0-.194.57C5.373,4.2,5.405,4.218,5.448,4.218Z" transform="translate(17.346 11.764)" fill="#ffdc00"/>
      <path id="Tracciato_9179" data-name="Tracciato 9179" d="M5.468,4.257h0L5.4,4.225,5.382,4.16a1.371,1.371,0,0,1,.183-.57l.1-.183a1.331,1.331,0,0,0,.118-.549.714.714,0,0,0-.355-.592.823.823,0,0,0-.517-.032,1.767,1.767,0,0,0-.42.151l-.108.043a1.639,1.639,0,0,1-.57.129.714.714,0,0,1-.4-.108L3.369,2.4l.011-.065A.087.087,0,0,1,3.5,2.3a.649.649,0,0,0,.312.086,1.473,1.473,0,0,0,.5-.118l.108-.043a2.531,2.531,0,0,1,.452-.161A.961.961,0,0,1,5.5,2.1a.887.887,0,0,1,.452.743,1.33,1.33,0,0,1-.129.624l-.1.194a1.078,1.078,0,0,0-.161.506.1.1,0,0,1-.1.086M5.134,2.169a.655.655,0,0,1,.3.065.727.727,0,0,1,.377.624,1.221,1.221,0,0,1-.118.56L5.6,3.6a1.322,1.322,0,0,0-.183.57l.011.022.043.032v0l.054-.054a1.177,1.177,0,0,1,.172-.517l.1-.194a1.314,1.314,0,0,0,.129-.613.846.846,0,0,0-.441-.71.868.868,0,0,0-.6-.043,3.709,3.709,0,0,0-.452.151l-.1.043a1.24,1.24,0,0,1-.517.129.732.732,0,0,1-.334-.086L3.4,2.352v.022l.011.043a.765.765,0,0,0,.4.108A1.521,1.521,0,0,0,4.359,2.4l.108-.043A2.281,2.281,0,0,1,4.9,2.2a.96.96,0,0,1,.237-.032" transform="translate(17.327 11.746)"/>
      <path id="Tracciato_9180" data-name="Tracciato 9180" d="M3.4,2.182a.142.142,0,0,0,.14.14.14.14,0,0,0,0-.28.142.142,0,0,0-.14.14" transform="translate(17.591 11.874)" fill="#fff"/>
      <path id="Tracciato_9181" data-name="Tracciato 9181" d="M3.545,2.342A.151.151,0,1,1,3.7,2.192a.147.147,0,0,1-.151.151m0-.269a.118.118,0,1,0,.118.118.119.119,0,0,0-.118-.118" transform="translate(17.571 11.864)"/>
      <path id="Tracciato_9182" data-name="Tracciato 9182" d="M3.437,2.171a.142.142,0,0,0,.14.14.14.14,0,0,0,0-.28.142.142,0,0,0-.14.14" transform="translate(17.991 11.766)" fill="#fff"/>
      <path id="Tracciato_9183" data-name="Tracciato 9183" d="M3.587,2.331a.151.151,0,1,1,.151-.151.147.147,0,0,1-.151.151m0-.269a.118.118,0,1,0,.118.118.119.119,0,0,0-.118-.118" transform="translate(17.981 11.757)"/>
      <path id="Tracciato_9184" data-name="Tracciato 9184" d="M3.476,2.158a.142.142,0,0,0,.14.14.14.14,0,0,0,0-.28.142.142,0,0,0-.14.14" transform="translate(18.372 11.639)" fill="#fff"/>
      <path id="Tracciato_9185" data-name="Tracciato 9185" d="M3.626,2.318a.151.151,0,1,1,.151-.151.147.147,0,0,1-.151.151m0-.269a.118.118,0,1,0,.118.118.119.119,0,0,0-.118-.118" transform="translate(18.362 11.63)"/>
      <path id="Tracciato_9186" data-name="Tracciato 9186" d="M3.522,2.149a.142.142,0,0,0,.14.14.14.14,0,0,0,0-.28.142.142,0,0,0-.14.14" transform="translate(18.821 11.552)" fill="#fff"/>
      <path id="Tracciato_9187" data-name="Tracciato 9187" d="M3.672,2.309a.151.151,0,1,1,.151-.151.147.147,0,0,1-.151.151m0-.269a.118.118,0,1,0,.118.118.119.119,0,0,0-.118-.118" transform="translate(18.811 11.542)"/>
      <path id="Tracciato_9188" data-name="Tracciato 9188" d="M3.566,2.156a.145.145,0,0,0,.14.151.137.137,0,0,0,.129-.151.131.131,0,0,0-.129-.129.141.141,0,0,0-.14.129" transform="translate(19.25 11.727)" fill="#fff"/>
      <path id="Tracciato_9189" data-name="Tracciato 9189" d="M3.715,2.327a.151.151,0,1,1,.151-.151.147.147,0,0,1-.151.151m0-.269a.118.118,0,1,0,.118.118.119.119,0,0,0-.118-.118" transform="translate(19.231 11.717)"/>
      <path id="Tracciato_9190" data-name="Tracciato 9190" d="M3.594,2.207a.142.142,0,0,0,.14.14.14.14,0,0,0,0-.28.142.142,0,0,0-.14.14" transform="translate(19.523 12.118)" fill="#fff"/>
      <path id="Tracciato_9191" data-name="Tracciato 9191" d="M3.744,2.368a.151.151,0,1,1,.151-.151.147.147,0,0,1-.151.151m0-.269a.118.118,0,1,0,.118.118A.119.119,0,0,0,3.744,2.1" transform="translate(19.514 12.118)"/>
      <path id="Tracciato_9192" data-name="Tracciato 9192" d="M3.6,2.252a.136.136,0,0,0,.14.14.14.14,0,0,0,0-.28.136.136,0,0,0-.14.14" transform="translate(19.592 12.557)" fill="#fff"/>
      <path id="Tracciato_9193" data-name="Tracciato 9193" d="M3.76,2.422A.15.15,0,0,1,3.6,2.271.158.158,0,0,1,3.76,2.11a.156.156,0,0,1,.151.161.147.147,0,0,1-.151.151m0-.269a.119.119,0,1,0,0,.237.118.118,0,1,0,0-.237" transform="translate(19.572 12.538)"/>
      <path id="Tracciato_9194" data-name="Tracciato 9194" d="M3.588,2.3a.142.142,0,0,0,.14.14.14.14,0,0,0,0-.28.142.142,0,0,0-.14.14" transform="translate(19.465 13.006)" fill="#fff"/>
      <path id="Tracciato_9195" data-name="Tracciato 9195" d="M3.747,2.458a.151.151,0,1,1,0-.3.151.151,0,1,1,0,.3m0-.269a.118.118,0,1,0,.118.118.119.119,0,0,0-.118-.118" transform="translate(19.445 12.996)"/>
      <path id="Tracciato_9196" data-name="Tracciato 9196" d="M3.574,2.334a.142.142,0,0,0,.14.14.14.14,0,0,0,0-.28.142.142,0,0,0-.14.14" transform="translate(19.328 13.358)" fill="#fff"/>
      <path id="Tracciato_9197" data-name="Tracciato 9197" d="M3.724,2.494a.151.151,0,1,1,.151-.151.147.147,0,0,1-.151.151m0-.269a.118.118,0,1,0,.118.118.119.119,0,0,0-.118-.118" transform="translate(19.318 13.348)"/>
      <rect id="Rettangolo_798" data-name="Rettangolo 798" width="0.775" height="1.474" transform="translate(20.061 13.937)" fill="#ffdc00"/>
      <path id="Tracciato_9198" data-name="Tracciato 9198" d="M4.1,3.559H3.33l-.022-.022V2.064l.022-.022H4.1l.011.011V3.538ZM3.34,3.516h.743V2.074H3.34Z" transform="translate(16.731 11.874)"/>
      <path id="Tracciato_9199" data-name="Tracciato 9199" d="M3.694,2.337a.183.183,0,1,1-.366,0,.183.183,0,1,1,.366,0" transform="translate(16.927 12.967)" fill="#fff"/>
      <path id="Tracciato_9200" data-name="Tracciato 9200" d="M3.53,2.55a.2.2,0,1,1,.2-.2.2.2,0,0,1-.2.2m0-.366a.166.166,0,0,0-.161.161.168.168,0,0,0,.161.172.161.161,0,0,0,.161-.172.158.158,0,0,0-.161-.161" transform="translate(16.907 12.948)"/>
      <path id="Tracciato_9201" data-name="Tracciato 9201" d="M3.694,2.308a.183.183,0,1,1-.366,0,.183.183,0,1,1,.366,0" transform="translate(16.927 12.684)" fill="#fff"/>
      <path id="Tracciato_9202" data-name="Tracciato 9202" d="M3.53,2.522a.2.2,0,1,1,.2-.2.2.2,0,0,1-.2.2m0-.366a.166.166,0,0,0-.161.161.168.168,0,0,0,.161.172.161.161,0,0,0,.161-.172.158.158,0,0,0-.161-.161" transform="translate(16.907 12.674)"/>
      <path id="Tracciato_9203" data-name="Tracciato 9203" d="M3.694,2.269a.183.183,0,1,1-.366,0,.183.183,0,0,1,.366,0" transform="translate(16.927 12.411)" fill="#fff"/>
      <path id="Tracciato_9204" data-name="Tracciato 9204" d="M3.53,2.493a.2.2,0,1,1,.2-.2.2.2,0,0,1-.2.2m0-.366a.166.166,0,0,0-.161.161.158.158,0,0,0,.161.161.153.153,0,0,0,.161-.161.158.158,0,0,0-.161-.161" transform="translate(16.907 12.391)"/>
      <path id="Tracciato_9205" data-name="Tracciato 9205" d="M3.694,2.253a.183.183,0,1,1-.366,0,.183.183,0,1,1,.366,0" transform="translate(16.927 12.147)" fill="#fff"/>
      <path id="Tracciato_9206" data-name="Tracciato 9206" d="M3.53,2.466a.2.2,0,1,1,.2-.2.2.2,0,0,1-.2.2m0-.366a.166.166,0,0,0-.161.161.168.168,0,0,0,.161.172.161.161,0,0,0,.161-.172A.158.158,0,0,0,3.53,2.1" transform="translate(16.907 12.128)"/>
      <path id="Tracciato_9207" data-name="Tracciato 9207" d="M3.694,2.231a.183.183,0,1,1-.366,0,.183.183,0,1,1,.366,0" transform="translate(16.927 11.932)" fill="#fff"/>
      <path id="Tracciato_9208" data-name="Tracciato 9208" d="M3.53,2.444a.2.2,0,1,1,.2-.2.2.2,0,0,1-.2.2m0-.366a.166.166,0,0,0-.161.161.168.168,0,0,0,.161.172.161.161,0,0,0,.161-.172.158.158,0,0,0-.161-.161" transform="translate(16.907 11.913)"/>
      <path id="Tracciato_9209" data-name="Tracciato 9209" d="M3.694,2.21a.183.183,0,1,1-.366,0,.183.183,0,1,1,.366,0" transform="translate(16.927 11.727)" fill="#fff"/>
      <path id="Tracciato_9210" data-name="Tracciato 9210" d="M3.53,2.424a.2.2,0,1,1,.2-.2.2.2,0,0,1-.2.2m0-.366a.166.166,0,0,0-.161.161.168.168,0,0,0,.161.172.161.161,0,0,0,.161-.172.158.158,0,0,0-.161-.161" transform="translate(16.907 11.717)"/>
      <path id="Tracciato_9211" data-name="Tracciato 9211" d="M3.694,2.193a.183.183,0,1,1-.183-.183.189.189,0,0,1,.183.183" transform="translate(16.927 11.561)" fill="#fff"/>
      <path id="Tracciato_9212" data-name="Tracciato 9212" d="M3.53,2.406a.2.2,0,1,1,.2-.2.2.2,0,0,1-.2.2m0-.366a.166.166,0,0,0-.161.161.168.168,0,0,0,.161.172A.161.161,0,0,0,3.692,2.2.158.158,0,0,0,3.53,2.04" transform="translate(16.907 11.542)"/>
      <path id="Tracciato_9213" data-name="Tracciato 9213" d="M3.3,2.181H4.361l-.538.646Z" transform="translate(16.613 13.232)" fill="#ffdc00"/>
      <path id="Tracciato_9214" data-name="Tracciato 9214" d="M3.843,2.868H3.832l-.538-.657V2.19l.022-.011H4.37l.022.011-.011.022-.527.657Zm-.5-.646.5.6.484-.6Z" transform="translate(16.595 13.211)"/>
      <path id="Tracciato_9215" data-name="Tracciato 9215" d="M3.3,2.9H4.362l-.538-.657Z" transform="translate(16.615 13.818)" fill="#ffdc00"/>
      <path id="Tracciato_9216" data-name="Tracciato 9216" d="M4.37,2.929H3.316l-.022-.011V2.9l.538-.657h.022l.527.657.011.022ZM3.348,2.886h.99l-.5-.6Z" transform="translate(16.595 13.807)"/>
      <path id="Tracciato_9217" data-name="Tracciato 9217" d="M3.285,3.257V2.192l.656.538Z" transform="translate(16.504 13.338)" fill="#ffdc00"/>
      <path id="Tracciato_9218" data-name="Tracciato 9218" d="M3.294,3.289h0l-.011-.022V2.191H3.3l.656.527.011.022-.011.011L3.3,3.278Zm.022-1.044v.979l.6-.484Z" transform="translate(16.487 13.328)"/>
      <path id="Tracciato_9219" data-name="Tracciato 9219" d="M3.991,3.257V2.192l-.646.527Z" transform="translate(17.099 13.336)" fill="#ffdc00"/>
      <path id="Tracciato_9220" data-name="Tracciato 9220" d="M4.011,3.288H4L3.344,2.75V2.728L4,2.2l.011-.011.022.022V3.277l-.011.011H4.011m-.624-.549.6.5v-.99Z" transform="translate(17.083 13.319)"/>
      <path id="Tracciato_9221" data-name="Tracciato 9221" d="M3.787,2.457a.239.239,0,0,1-.237.237.237.237,0,0,1,0-.474.239.239,0,0,1,.237.237" transform="translate(16.888 13.611)" fill="#fff"/>
      <path id="Tracciato_9222" data-name="Tracciato 9222" d="M3.57,2.714a.248.248,0,1,1,.248-.248.244.244,0,0,1-.248.248m0-.474a.218.218,0,0,0-.215.226.215.215,0,1,0,.43,0,.218.218,0,0,0-.215-.226" transform="translate(16.868 13.602)"/>
      <path id="Tracciato_9223" data-name="Tracciato 9223" d="M3.112,2.33,3.3,3.492,3.7,3.438,3.3,2.986l.646.258L3.779,2.33l-.527.581.344-.7Z" transform="translate(14.82 13.525)" fill="#ffdc00"/>
      <path id="Tracciato_9224" data-name="Tracciato 9224" d="M3.3,3.534l-.011-.011L3.111,2.35V2.328l.5-.118.011.011.011.022-.291.581.441-.484.011-.011.022.011.151.915.011.011-.022.022H3.94l-.57-.237.355.4.011.011-.011.011-.409.065ZM3.143,2.361l.183,1.13.355-.043-.387-.43V3l.022-.011.613.258-.151-.85-.506.549H3.251V2.92l.323-.667Z" transform="translate(14.808 13.514)"/>
      <path id="Tracciato_9225" data-name="Tracciato 9225" d="M3.567,2.483a.239.239,0,0,1-.237.237A.23.23,0,0,1,3.1,2.483a.221.221,0,0,1,.226-.226.23.23,0,0,1,.237.226" transform="translate(14.74 13.973)" fill="#fff"/>
      <path id="Tracciato_9226" data-name="Tracciato 9226" d="M3.351,2.75A.248.248,0,1,1,3.6,2.5a.244.244,0,0,1-.248.248m0-.463a.215.215,0,1,0,.215.215.216.216,0,0,0-.215-.215" transform="translate(14.73 13.953)"/>
      <path id="Tracciato_9227" data-name="Tracciato 9227" d="M4.33,2.33,4.147,3.492l-.409-.054.409-.452L3.5,3.244l.161-.915.527.581-.344-.7Z" transform="translate(18.614 13.525)" fill="#ffdc00"/>
      <path id="Tracciato_9228" data-name="Tracciato 9228" d="M4.156,3.533h0l-.4-.054-.022-.011V3.447l.355-.4-.57.237H3.51L3.5,3.264l.161-.915.011-.011h.022l.441.484-.291-.581V2.231l.011-.022.5.129.011.011L4.177,3.522ZM3.79,3.447l.355.054L4.328,2.36l-.43-.1.323.667v.011L4.2,2.952l-.506-.56-.151.85.613-.248h.011l.011.032Z" transform="translate(18.596 13.504)"/>
      <path id="Tracciato_9229" data-name="Tracciato 9229" d="M3.543,2.483a.239.239,0,0,0,.237.237.23.23,0,0,0,.226-.237.221.221,0,0,0-.226-.226.23.23,0,0,0-.237.226" transform="translate(19.026 13.973)" fill="#fff"/>
      <path id="Tracciato_9230" data-name="Tracciato 9230" d="M3.789,2.75A.248.248,0,1,1,4.036,2.5a.244.244,0,0,1-.248.248m0-.463A.215.215,0,1,0,4,2.5a.216.216,0,0,0-.215-.215" transform="translate(19.006 13.953)"/>
      <path id="Tracciato_9231" data-name="Tracciato 9231" d="M3.205,2.694l.183-.4.161-.022.323.323Z" transform="translate(15.731 14.14)" fill="#ffdc00"/>
      <path id="Tracciato_9232" data-name="Tracciato 9232" d="M3.215,2.724H3.2V2.713L3.376,2.3H3.4l.161-.032H3.57l.334.334h0l-.011.032-.667.086Zm.194-.4L3.247,2.7l.6-.1-.3-.291Z" transform="translate(15.716 14.119)"/>
      <path id="Tracciato_9233" data-name="Tracciato 9233" d="M3.659,2.695a.542.542,0,0,0-.183-.366c-.054-.054-.194-.161-.248-.054a.579.579,0,0,0-.043.237v.215A.208.208,0,0,1,3.336,2.6a.3.3,0,0,1,.323.1" transform="translate(15.531 13.697)" fill="#ffdc00"/>
      <path id="Tracciato_9234" data-name="Tracciato 9234" d="M3.2,2.754H3.193l-.011-.011V2.518a1.108,1.108,0,0,1,.054-.237.089.089,0,0,1,.086-.054.369.369,0,0,1,.194.1A.684.684,0,0,1,3.7,2.7v.011l-.022.011H3.666a.27.27,0,0,0-.226-.108l-.075.011a.255.255,0,0,0-.151.118Zm.118-.5-.054.032a.7.7,0,0,0-.043.226v.161a.246.246,0,0,1,.129-.086.29.29,0,0,1,.3.065.514.514,0,0,0-.172-.3.264.264,0,0,0-.161-.1" transform="translate(15.501 13.68)"/>
      <path id="Tracciato_9235" data-name="Tracciato 9235" d="M3.23,2.748a.7.7,0,0,1,.108-.4c.054-.054.172-.194.237-.086a.777.777,0,0,1,.1.215l.032.215a.247.247,0,0,0-.172-.108.324.324,0,0,0-.3.161" transform="translate(15.97 13.654)" fill="#ffdc00"/>
      <path id="Tracciato_9236" data-name="Tracciato 9236" d="M3.25,2.772H3.228a.646.646,0,0,1,.118-.42c.043-.054.118-.129.183-.129l.075.043a.569.569,0,0,1,.1.215l.032.183V2.7h.011l-.022.022H3.712a.292.292,0,0,0-.172-.1.276.276,0,0,0-.28.151H3.25m.28-.517c-.043,0-.1.043-.151.118a.629.629,0,0,0-.118.334.314.314,0,0,1,.291-.118.24.24,0,0,1,.14.054l-.032-.151a.4.4,0,0,0-.086-.2l-.043-.032" transform="translate(15.95 13.641)"/>
      <path id="Tracciato_9237" data-name="Tracciato 9237" d="M3.285,2.167a1.5,1.5,0,0,1,.14,1.152,1.291,1.291,0,0,1-.14-1.152" transform="translate(15.775 13.094)" fill="#ffdc00"/>
      <path id="Tracciato_9238" data-name="Tracciato 9238" d="M3.431,3.349H3.42a1.359,1.359,0,0,1-.14-1.173L3.3,2.165l.011.011a1.526,1.526,0,0,1,.14,1.162l-.011.011ZM3.3,2.23A1.319,1.319,0,0,0,3.431,3.3,1.487,1.487,0,0,0,3.3,2.23" transform="translate(15.758 13.074)"/>
      <path id="Tracciato_9239" data-name="Tracciato 9239" d="M3.433,2.292l-.1.054c-.065.011-.118,0-.118-.022l.1-.054c.065-.011.118,0,.118.022" transform="translate(15.853 14.066)" fill="#ffdc00"/>
      <path id="Tracciato_9240" data-name="Tracciato 9240" d="M3.3,2.383,3.218,2.34c-.011-.032.054-.065.108-.075H3.38l.086.043-.011.022-.108.054H3.3M3.38,2.3H3.336L3.25,2.33l.054.022.043-.011.086-.032L3.38,2.3" transform="translate(15.842 14.051)"/>
      <path id="Tracciato_9241" data-name="Tracciato 9241" d="M4.091,2.694l-.172-.4-.172-.022L3.424,2.6Z" transform="translate(17.862 14.14)" fill="#ffdc00"/>
      <path id="Tracciato_9242" data-name="Tracciato 9242" d="M4.1,2.724h0l-.667-.1-.011-.011V2.595l.334-.312.011-.011.161.022.011.011.183.4v.022Zm-.624-.129.6.1-.161-.366-.14-.011Z" transform="translate(17.844 14.119)"/>
      <path id="Tracciato_9243" data-name="Tracciato 9243" d="M3.462,2.695a.656.656,0,0,1,.183-.366c.054-.054.194-.161.248-.054a.845.845,0,0,1,.054.237v.215A.259.259,0,0,0,3.785,2.6a.3.3,0,0,0-.323.1" transform="translate(18.235 13.697)" fill="#ffdc00"/>
      <path id="Tracciato_9244" data-name="Tracciato 9244" d="M3.956,2.754l-.011-.011a.31.31,0,0,0-.151-.129L3.719,2.6a.322.322,0,0,0-.226.108l-.022.011-.011-.011a.583.583,0,0,1,.194-.387.306.306,0,0,1,.183-.1.1.1,0,0,1,.086.054.7.7,0,0,1,.054.237v.215l-.022.011Zm-.237-.183.086.011a.255.255,0,0,1,.129.1V2.518a.7.7,0,0,0-.043-.226l-.054-.032a.3.3,0,0,0-.161.086.607.607,0,0,0-.172.312.342.342,0,0,1,.215-.086" transform="translate(18.225 13.68)"/>
      <path id="Tracciato_9245" data-name="Tracciato 9245" d="M3.891,2.748a.64.64,0,0,0-.118-.4c-.043-.054-.161-.194-.226-.086a.534.534,0,0,0-.086.215l-.043.215a.277.277,0,0,1,.172-.108.324.324,0,0,1,.3.161" transform="translate(17.796 13.654)" fill="#ffdc00"/>
      <path id="Tracciato_9246" data-name="Tracciato 9246" d="M3.911,2.772H3.89a.276.276,0,0,0-.28-.151.232.232,0,0,0-.161.1H3.427L3.416,2.7V2.664l.043-.183a.813.813,0,0,1,.086-.215l.075-.043c.065,0,.14.075.194.129a.619.619,0,0,1,.108.409Zm-.269-.194a.352.352,0,0,1,.248.129.583.583,0,0,0-.108-.334c-.065-.075-.118-.118-.161-.118l-.043.032a.51.51,0,0,0-.086.2l-.032.151.14-.065h.043" transform="translate(17.786 13.641)"/>
      <path id="Tracciato_9247" data-name="Tracciato 9247" d="M3.646,2.167a1.549,1.549,0,0,0-.14,1.152,1.291,1.291,0,0,0,.14-1.152" transform="translate(18.18 13.094)" fill="#ffdc00"/>
      <path id="Tracciato_9248" data-name="Tracciato 9248" d="M3.52,3.349H3.51a1.547,1.547,0,0,1,.14-1.173l.011-.011.022.011a1.359,1.359,0,0,1-.14,1.173ZM3.66,2.23A1.487,1.487,0,0,0,3.531,3.3,1.319,1.319,0,0,0,3.66,2.23" transform="translate(18.166 13.074)"/>
      <path id="Tracciato_9249" data-name="Tracciato 9249" d="M3.453,2.292c0,.022.043.043.108.054s.108,0,.108-.022l-.1-.054c-.065-.011-.118,0-.118.022" transform="translate(18.147 14.066)" fill="#ffdc00"/>
      <path id="Tracciato_9250" data-name="Tracciato 9250" d="M3.612,2.383H3.569L3.462,2.33l-.011-.022c0-.032.032-.043.086-.043H3.58c.065.011.129.043.118.075l-.086.043M3.537,2.3l-.054.011.086.032.032.011.065-.011L3.58,2.3H3.537" transform="translate(18.127 14.051)"/>
      <path id="Tracciato_9251" data-name="Tracciato 9251" d="M7.044,2.676c0,.161-.872.291-1.937.291s-1.948-.129-1.948-.291.872-.291,1.948-.291,1.937.129,1.937.291" transform="translate(15.277 15.222)" fill="#9f9f9f"/>
      <path id="Tracciato_9252" data-name="Tracciato 9252" d="M7.768,3.349a6.865,6.865,0,0,0-4.639,0v-.71a8.1,8.1,0,0,1,4.639,0Z" transform="translate(14.984 14.387)" fill="#ffdc00"/>
      <path id="Tracciato_9253" data-name="Tracciato 9253" d="M7.8,3.385l-.022-.011a6.912,6.912,0,0,0-2.271-.4,7.629,7.629,0,0,0-2.357.4l-.022.011V2.632h.011A8.463,8.463,0,0,1,5.485,2.3a8.112,8.112,0,0,1,2.3.334H7.8ZM3.16,2.664v.667a7.6,7.6,0,0,1,2.346-.387,6.836,6.836,0,0,1,2.26.387V2.664A7.912,7.912,0,0,0,5.485,2.33a8.314,8.314,0,0,0-2.325.334" transform="translate(14.974 14.373)"/>
      <rect id="Rettangolo_799" data-name="Rettangolo 799" width="0.7" height="0.28" transform="translate(20.093 16.854)" fill="#002782"/>
      <path id="Tracciato_9254" data-name="Tracciato 9254" d="M4.054,2.626H3.311V2.314h.743Zm-.71-.032h.667V2.357H3.343Z" transform="translate(16.761 14.529)"/>
      <path id="Tracciato_9255" data-name="Tracciato 9255" d="M3.822,2.6,3.3,2.759l-.183-.086.183-.2.441-.129Z" transform="translate(14.819 14.776)" fill="#f20000"/>
      <path id="Tracciato_9256" data-name="Tracciato 9256" d="M3.314,2.8l-.2-.1.2-.226.463-.14.086.291Zm-.151-.108.161.075.5-.161L3.756,2.38l-.43.129Z" transform="translate(14.799 14.754)"/>
      <path id="Tracciato_9257" data-name="Tracciato 9257" d="M3.8,2.434c.011.075-.108.161-.269.183s-.3-.022-.312-.1.108-.161.269-.194.3.032.312.108" transform="translate(15.872 14.603)" fill="#00830e"/>
      <path id="Tracciato_9258" data-name="Tracciato 9258" d="M3.456,2.655c-.129,0-.226-.054-.237-.118-.011-.1.108-.183.28-.215h.086c.129,0,.226.043.248.118.011.1-.118.183-.291.2l-.086.011m.129-.3-.075.011c-.151.022-.269.1-.258.161s.1.1.2.1l.086-.011c.151-.022.258-.1.248-.161s-.1-.1-.2-.1" transform="translate(15.862 14.597)"/>
      <path id="Tracciato_9259" data-name="Tracciato 9259" d="M3.356,2.411A.085.085,0,0,1,3.27,2.5a.093.093,0,0,1-.086-.086.085.085,0,0,1,.086-.086.079.079,0,0,1,.086.086" transform="translate(15.521 14.636)" fill="#fff"/>
      <path id="Tracciato_9260" data-name="Tracciato 9260" d="M3.3,2.528a.117.117,0,0,1-.118-.108c0-.054.065-.1.118-.1a.1.1,0,0,1,.086.1.1.1,0,0,1-.086.108m0-.172a.057.057,0,0,0-.065.065c0,.043.011.075.065.075a.073.073,0,0,0,.054-.075L3.3,2.356" transform="translate(15.501 14.627)"/>
      <path id="Tracciato_9261" data-name="Tracciato 9261" d="M3.367,2.437a.085.085,0,0,1-.086.086.086.086,0,0,1,0-.172.085.085,0,0,1,.086.086" transform="translate(15.628 14.89)" fill="#fff"/>
      <path id="Tracciato_9262" data-name="Tracciato 9262" d="M3.3,2.553a.108.108,0,0,1-.108-.108.108.108,0,0,1,.215,0,.108.108,0,0,1-.108.108m0-.172-.065.065a.072.072,0,0,0,.065.075c.043,0,.065-.032.065-.075A.062.062,0,0,0,3.3,2.381" transform="translate(15.609 14.871)"/>
      <path id="Tracciato_9263" data-name="Tracciato 9263" d="M3.457,2.394a.085.085,0,0,1-.086.086.093.093,0,0,1-.086-.086.085.085,0,0,1,.086-.086.079.079,0,0,1,.086.086" transform="translate(16.507 14.47)" fill="#fff"/>
      <path id="Tracciato_9264" data-name="Tracciato 9264" d="M3.391,2.511A.108.108,0,0,1,3.283,2.4a.106.106,0,0,1,.108-.1.1.1,0,0,1,.1.1.1.1,0,0,1-.1.108m0-.183a.071.071,0,0,0-.065.075.057.057,0,0,0,.065.065A.062.062,0,0,0,3.455,2.4l-.065-.075" transform="translate(16.487 14.461)"/>
      <path id="Tracciato_9265" data-name="Tracciato 9265" d="M3.46,2.419a.086.086,0,1,1-.086-.086.093.093,0,0,1,.086.086" transform="translate(16.536 14.715)" fill="#fff"/>
      <path id="Tracciato_9266" data-name="Tracciato 9266" d="M3.394,2.536a.108.108,0,0,1-.108-.108.106.106,0,0,1,.108-.1.1.1,0,0,1,.1.1.1.1,0,0,1-.1.108m0-.172a.062.062,0,0,0-.065.065c0,.043.022.075.065.075a.072.072,0,0,0,.065-.075l-.065-.065" transform="translate(16.517 14.705)"/>
      <path id="Tracciato_9267" data-name="Tracciato 9267" d="M3.512,2.6l.527.161.183-.086-.183-.2L3.6,2.335Z" transform="translate(18.724 14.739)" fill="#f20000"/>
      <path id="Tracciato_9268" data-name="Tracciato 9268" d="M4.059,2.8,3.51,2.625,3.6,2.334l.474.14.2.226ZM3.553,2.6l.506.161.151-.075-.161-.183-.42-.129Z" transform="translate(18.703 14.724)"/>
      <path id="Tracciato_9269" data-name="Tracciato 9269" d="M3.417,2.432c-.011.075.108.161.269.183s.291-.022.312-.1-.118-.161-.269-.194-.3.022-.312.108" transform="translate(17.785 14.573)" fill="#00830e"/>
      <path id="Tracciato_9270" data-name="Tracciato 9270" d="M3.78,2.652h0l-.086-.011c-.161-.022-.291-.108-.28-.2.011-.075.118-.118.248-.118h.086c.172.032.291.118.28.215-.011.065-.108.118-.248.118m-.118-.3c-.118,0-.2.043-.2.1s.1.14.248.161l.075.011c.118,0,.2-.043.215-.1s-.108-.14-.258-.161L3.662,2.35" transform="translate(17.766 14.568)"/>
      <path id="Tracciato_9271" data-name="Tracciato 9271" d="M3.49,2.409a.086.086,0,1,0,.172,0,.086.086,0,1,0-.172,0" transform="translate(18.508 14.617)" fill="#fff"/>
      <path id="Tracciato_9272" data-name="Tracciato 9272" d="M3.6,2.525a.108.108,0,0,1-.108-.108.108.108,0,0,1,.215,0,.108.108,0,0,1-.108.108m0-.172a.062.062,0,0,0-.065.065c0,.043.022.075.065.075a.072.072,0,0,0,.065-.075L3.6,2.353" transform="translate(18.489 14.597)"/>
      <path id="Tracciato_9273" data-name="Tracciato 9273" d="M3.479,2.434a.085.085,0,0,0,.086.086.093.093,0,0,0,.086-.086.085.085,0,0,0-.086-.086.079.079,0,0,0-.086.086" transform="translate(18.401 14.861)" fill="#fff"/>
      <path id="Tracciato_9274" data-name="Tracciato 9274" d="M3.585,2.551a.108.108,0,0,1-.108-.108.108.108,0,0,1,.215,0,.108.108,0,0,1-.108.108m0-.172a.062.062,0,0,0-.065.065c0,.043.022.075.065.075s.065-.032.065-.075a.062.062,0,0,0-.065-.065" transform="translate(18.381 14.851)"/>
      <path id="Tracciato_9275" data-name="Tracciato 9275" d="M3.389,2.391a.086.086,0,1,0,.172,0,.086.086,0,0,0-.172,0" transform="translate(17.522 14.441)" fill="#fff"/>
      <path id="Tracciato_9276" data-name="Tracciato 9276" d="M3.495,2.508A.108.108,0,0,1,3.387,2.4a.108.108,0,0,1,.215,0,.108.108,0,0,1-.108.108m0-.172L3.43,2.4a.065.065,0,1,0,.129,0l-.065-.065" transform="translate(17.503 14.431)"/>
      <path id="Tracciato_9277" data-name="Tracciato 9277" d="M3.386,2.417a.093.093,0,0,0,.086.086.086.086,0,0,0,0-.172.093.093,0,0,0-.086.086" transform="translate(17.493 14.695)" fill="#fff"/>
      <path id="Tracciato_9278" data-name="Tracciato 9278" d="M3.5,2.533a.1.1,0,1,1,0-.2.114.114,0,0,1,.108.1.115.115,0,0,1-.108.108m0-.172c-.054,0-.075.032-.075.065A.068.068,0,0,0,3.5,2.5a.073.073,0,0,0,.054-.075L3.5,2.361" transform="translate(17.473 14.675)"/>
      <path id="Tracciato_9279" data-name="Tracciato 9279" d="M7.891,2.4a7.612,7.612,0,0,1-4.746,0,.549.549,0,0,0,0,.323,6.565,6.565,0,0,0,4.746,0,.473.473,0,0,0,0-.323" transform="translate(14.903 15.33)" fill="#fff"/>
      <path id="Tracciato_9280" data-name="Tracciato 9280" d="M5.53,3.2A6.879,6.879,0,0,1,3.151,2.76h0V2.749a.445.445,0,0,1,0-.334V2.394l.011.011a8.129,8.129,0,0,0,2.389.377A7.693,7.693,0,0,0,7.9,2.4l.032-.011v.022a.579.579,0,0,1,0,.334V2.76a7,7,0,0,1-2.4.441M3.184,2.728a6.659,6.659,0,0,0,2.346.441A6.82,6.82,0,0,0,7.9,2.728a.408.408,0,0,0,0-.28,7.679,7.679,0,0,1-2.346.366,7.918,7.918,0,0,1-2.368-.366.413.413,0,0,0,0,.28" transform="translate(14.886 15.31)"/>
      <path id="Tracciato_9281" data-name="Tracciato 9281" d="M7.9,3.123a7.494,7.494,0,0,0-4.757,0,.813.813,0,0,1,0-.323A6.593,6.593,0,0,1,7.9,2.8a.652.652,0,0,1,0,.323" transform="translate(14.921 14.937)" fill="#fff"/>
      <path id="Tracciato_9282" data-name="Tracciato 9282" d="M3.147,3.16l-.011-.011a.866.866,0,0,1,0-.334l.011-.011a6.71,6.71,0,0,1,2.389-.452,6.7,6.7,0,0,1,2.378.452l.011.011a.441.441,0,0,1,0,.334l-.011.011H7.9a7.458,7.458,0,0,0-2.357-.387,7.809,7.809,0,0,0-2.389.387Zm2.4-.42a7.693,7.693,0,0,1,2.346.377.443.443,0,0,0,0-.291,6.7,6.7,0,0,0-4.725,0,.658.658,0,0,0,0,.291A8,8,0,0,1,5.547,2.74" transform="translate(14.901 14.91)"/>
      <path id="Tracciato_9283" data-name="Tracciato 9283" d="M3.406,2.412l-.032.043-.043-.043.043-.043.032.043" transform="translate(16.952 15.064)"/>
      <path id="Tracciato_9284" data-name="Tracciato 9284" d="M3.413,2.4l-.032.032L3.338,2.4l.043-.032.032.032" transform="translate(17.019 15.014)"/>
      <path id="Tracciato_9285" data-name="Tracciato 9285" d="M3.413,2.408l-.032.043-.043-.043.043-.032.032.032" transform="translate(17.019 15.127)"/>
      <path id="Tracciato_9286" data-name="Tracciato 9286" d="M3.342,2.431l.291-.065-.1.065.1.075Z" transform="translate(17.065 15.045)"/>
      <path id="Tracciato_9287" data-name="Tracciato 9287" d="M3.5,2.421l-.043.032L3.428,2.41l.043-.032.032.043" transform="translate(17.9 15.155)"/>
      <path id="Tracciato_9288" data-name="Tracciato 9288" d="M3.511,2.416l-.043.032-.032-.043.043-.032.032.043" transform="translate(17.979 15.109)"/>
      <path id="Tracciato_9289" data-name="Tracciato 9289" d="M3.509,2.428l-.043.032-.032-.043.043-.032.032.043" transform="translate(17.958 15.221)"/>
      <path id="Tracciato_9290" data-name="Tracciato 9290" d="M3.439,2.393l.291-.011-.1.054.075.086Z" transform="translate(18.013 15.191)"/>
      <path id="Tracciato_9291" data-name="Tracciato 9291" d="M3.588,2.438l-.043.032-.032-.054L3.556,2.4l.032.043" transform="translate(18.733 15.323)"/>
      <path id="Tracciato_9292" data-name="Tracciato 9292" d="M3.6,2.435l-.043.022-.032-.043.043-.022.032.043" transform="translate(18.815 15.286)"/>
      <path id="Tracciato_9293" data-name="Tracciato 9293" d="M3.594,2.446l-.043.022-.032-.043L3.572,2.4l.022.043" transform="translate(18.784 15.394)"/>
      <path id="Tracciato_9294" data-name="Tracciato 9294" d="M3.524,2.4l.291.011-.108.043.075.086Z" transform="translate(18.844 15.374)"/>
      <path id="Tracciato_9295" data-name="Tracciato 9295" d="M3.3,2.414l-.032.043-.043-.032.032-.043.043.032" transform="translate(15.931 15.195)"/>
      <path id="Tracciato_9296" data-name="Tracciato 9296" d="M3.307,2.408l-.032.043-.043-.032.032-.043.043.032" transform="translate(15.99 15.127)"/>
      <path id="Tracciato_9297" data-name="Tracciato 9297" d="M3.309,2.419l-.032.043L3.234,2.43l.032-.043.043.032" transform="translate(16.004 15.24)"/>
      <path id="Tracciato_9298" data-name="Tracciato 9298" d="M3.237,2.482l.269-.108-.075.086.1.054Z" transform="translate(16.043 15.122)"/>
      <path id="Tracciato_9299" data-name="Tracciato 9299" d="M3.217,2.425,3.2,2.468l-.054-.022L3.174,2.4l.043.022" transform="translate(15.109 15.4)"/>
      <path id="Tracciato_9300" data-name="Tracciato 9300" d="M3.222,2.417,3.19,2.46l-.043-.022L3.179,2.4l.043.022" transform="translate(15.161 15.325)"/>
      <path id="Tracciato_9301" data-name="Tracciato 9301" d="M3.225,2.428,3.2,2.471,3.15,2.45l.032-.043.043.022" transform="translate(15.19 15.433)"/>
      <path id="Tracciato_9302" data-name="Tracciato 9302" d="M3.153,2.531l.258-.14-.075.086.118.043Z" transform="translate(15.22 15.28)"/>
    </g>
  </g>
</svg>
