<svg xmlns="http://www.w3.org/2000/svg" xmlns:xlink="http://www.w3.org/1999/xlink" width="24" height="23.989" viewBox="0 0 24 23.989">
  <defs>
    <clipPath id="clip-path">
      <path id="Tracciato_9647" data-name="Tracciato 9647" d="M.239,12.744A12,12,0,1,0,12.244.749,12,12,0,0,0,.239,12.744" transform="translate(-0.239 -0.749)" fill="none"/>
    </clipPath>
  </defs>
  <g id="Turkmenistan" transform="translate(-0.239 -0.749)">
    <g id="Raggruppa_261" data-name="Raggruppa 261" transform="translate(0.239 0.749)" clip-path="url(#clip-path)">
      <rect id="Rettangolo_820" data-name="Rettangolo 820" width="35.769" height="23.849" transform="translate(-2.571 0.075)" fill="#006a4e"/>
      <rect id="Rettangolo_821" data-name="Rettangolo 821" width="6.455" height="23.849" transform="translate(1.7 0.075)" fill="#b31b2d"/>
      <path id="Tracciato_9335" data-name="Tracciato 9335" d="M3.448,4.306H2.007L1.6,4.015H1.039l-.269-.3V3.381L.49,2.972V2.154l.258-.387L.77,1.444l.269-.3h.538L2,.831H3.427l.452.312h.538l.269.3v.333l.269.409v.8l-.258.4L4.685,3.7l-.269.312H3.889ZM2.007,4.295H3.448L3.879,4h.538l.258-.312.011-.312.258-.409V2.186l-.269-.409V1.455l-.258-.3H3.868l-.441-.3H2.007l-.43.3H1.049l-.258.3-.032.323L.5,2.165v.807l.29.4V3.7l.258.29L1.6,4Zm-1-1.721H.834V2.563h.172Z" transform="translate(2.21 0.051)"/>
      <path id="Tracciato_9336" data-name="Tracciato 9336" d="M2.58,1.454l-.28-.3H1.774L1.322.841H.7V2.476H2.839V2.164L2.58,1.777Z" transform="translate(4.238 0.149)" fill="#f4981a"/>
      <path id="Tracciato_9337" data-name="Tracciato 9337" d="M1.585,1.153H1.047l-.28.3v.312L.5,2.175v.312H2.639V2.476h0V.841H2.026Z" transform="translate(2.291 0.145)" fill="#fff"/>
      <path id="Tracciato_9338" data-name="Tracciato 9338" d="M.5,1.3l.269.4v.312l.28.312.549.011.42.29h.624V.993H.5Z" transform="translate(2.294 1.631)" fill="#f4981a"/>
      <path id="Tracciato_9339" data-name="Tracciato 9339" d="M.7,2.209v.42h.635l.441-.3H2.3l.28-.29L2.569,1.7l.269-.4V.993H.7Z" transform="translate(4.236 1.634)" fill="#fff"/>
      <path id="Tracciato_9340" data-name="Tracciato 9340" d="M1.785,1.045l-.194-.2h-.3l-.215.215h-.3l-.151.1.075.1.161-.1h.172l.151.28h.506l.151-.28h.194l.151.1.075-.1L2.1,1.045Zm-.355,0v0Z" transform="translate(3.508 0.149)" fill="#b31b2d"/>
      <path id="Tracciato_9341" data-name="Tracciato 9341" d="M2.031,1.369H1.837l-.151-.28H1.181l-.151.28H.858L.7,1.283l-.075.086.151.108h.3l.2.2h.3l.2-.194L2.1,1.477l.161-.1-.086-.1Z" transform="translate(3.495 2.575)" fill="#b31b2d"/>
      <path id="Tracciato_9342" data-name="Tracciato 9342" d="M.916,1.043.84.957H.754l-.247.387.247.409h.1l.065-.1L.84,1.549H1v-.4L.84,1.129Zm-.247.3h0Z" transform="translate(2.376 1.281)" fill="#b31b2d"/>
      <path id="Tracciato_9343" data-name="Tracciato 9343" d="M1,.956l-.075.086.075.1L.843,1.15v.4H1l-.075.108.065.108h.1l.247-.409-.247-.4Z" transform="translate(5.656 1.271)" fill="#b31b2d"/>
      <path id="Tracciato_9344" data-name="Tracciato 9344" d="M.9.871.822.957.65.871.574.946l.14.172L.639,1.2l.215.022.333.28.151-.1L.919,1.1Z" transform="translate(3.034 0.438)" fill="#b31b2d"/>
      <path id="Tracciato_9345" data-name="Tracciato 9345" d="M.865.89.79.976.618.89.542.966l.129.172-.065.086.215.011.323.29.161-.108-.42-.3Z" transform="translate(2.719 0.63)" fill="#b31b2d"/>
      <path id="Tracciato_9346" data-name="Tracciato 9346" d="M.849.927l-.075.086L.6.927.526,1l.129.172L.59,1.26l.215.011.333.29.151-.108L.87,1.142Z" transform="translate(2.559 0.986)" fill="#b31b2d"/>
      <path id="Tracciato_9347" data-name="Tracciato 9347" d="M1.439.871,1.267.957,1.192.871,1.17,1.1l-.42.312.151.1.333-.29L1.45,1.2l-.065-.086L1.515.946Z" transform="translate(4.756 0.441)" fill="#b31b2d"/>
      <path id="Tracciato_9348" data-name="Tracciato 9348" d="M1.472.891,1.3.977,1.224.891,1.2,1.117l-.42.312.151.1.333-.29.215-.011-.075-.086.14-.172Z" transform="translate(5.072 0.633)" fill="#b31b2d"/>
      <path id="Tracciato_9349" data-name="Tracciato 9349" d="M1.488.927l-.172.086L1.241.927l-.022.226-.42.3.151.108.333-.29L1.5,1.261l-.075-.086L1.553,1Z" transform="translate(5.233 0.989)" fill="#b31b2d"/>
      <path id="Tracciato_9350" data-name="Tracciato 9350" d="M.854,1.347l-.215.011.075.086-.14.172.075.075.172-.075L.9,1.691l.022-.215.42-.312-.151-.108Z" transform="translate(3.033 2.248)" fill="#b31b2d"/>
      <path id="Tracciato_9351" data-name="Tracciato 9351" d="M.812,1.327.6,1.338l.075.086L.543,1.6l.065.075L.79,1.585l.065.086.022-.215.42-.312-.151-.108Z" transform="translate(2.726 2.058)" fill="#b31b2d"/>
      <path id="Tracciato_9352" data-name="Tracciato 9352" d="M.8,1.291.58,1.3l.075.086L.526,1.56l.065.075.183-.086.065.086L.86,1.42l.42-.312L1.129,1Z" transform="translate(2.565 1.702)" fill="#b31b2d"/>
      <path id="Tracciato_9353" data-name="Tracciato 9353" d="M1.45,1.357l-.215-.011L.9,1.056l-.151.108.42.312.022.215L1.267,1.6l.172.086.075-.075-.129-.172Z" transform="translate(4.756 2.247)" fill="#b31b2d"/>
      <path id="Tracciato_9354" data-name="Tracciato 9354" d="M1.482,1.338l-.215-.011-.333-.29-.151.108.42.312.022.215L1.3,1.585l.172.086L1.547,1.6l-.14-.172Z" transform="translate(5.07 2.055)" fill="#b31b2d"/>
      <path id="Tracciato_9355" data-name="Tracciato 9355" d="M1.5,1.3l-.215-.011L.95,1,.8,1.108l.42.3.022.226.075-.086.172.086.075-.075-.129-.172Z" transform="translate(5.23 1.701)" fill="#b31b2d"/>
      <path id="Tracciato_9356" data-name="Tracciato 9356" d="M2.246,1.26h.086v-.1h.075v.108l-.656.441H1.192l-.011.441-.247.226H.772L.7,2.271l.065-.086H.686l-.172.3H2.493V.84l-.247.312Z" transform="translate(2.445 0.141)" fill="#f4981a"/>
      <path id="Tracciato_9357" data-name="Tracciato 9357" d="M2.429,2.175l.075.108-.086.1H2.257L2.01,2.142V1.7H1.45L.783,1.25v-.1l.086.011V1.25H.945V1.142L.7.841V2.476H2.677l-.161-.3Z" transform="translate(4.234 0.147)" fill="#fff"/>
      <path id="Tracciato_9358" data-name="Tracciato 9358" d="M.762.993H.515L.676,1.3H.762L.687,1.2l.075-.1H.923l.258.226v.441h.57l.656.441v.108H2.322v-.1H2.247v.108l.237.3V.993H.762Z" transform="translate(2.451 1.63)" fill="#fff"/>
      <path id="Tracciato_9359" data-name="Tracciato 9359" d="M.7.993V2.628l.247-.29V2.219H.87v.086H.784V2.219l.656-.452h.581V1.3l.237-.2H2.43l.065.108-.065.1H2.5L2.677.993H.7Z" transform="translate(4.236 1.63)" fill="#f4981a"/>
      <path id="Tracciato_9360" data-name="Tracciato 9360" d="M.895,1.3l.011.409h.527l.7.506V.993H.551Z" transform="translate(2.801 1.628)" fill="#02684a"/>
      <path id="Tracciato_9361" data-name="Tracciato 9361" d="M.7,2.209l.71-.495L1.935,1.7v-.4L2.279.993H.7Z" transform="translate(4.236 1.634)" fill="#b31c2a"/>
      <path id="Tracciato_9362" data-name="Tracciato 9362" d="M.895,1.376v.409l-.344.3H2.132V.881l-.7.495Z" transform="translate(2.801 0.538)" fill="#b31c2a"/>
      <path id="Tracciato_9363" data-name="Tracciato 9363" d="M1.935,1.386H1.408L.7.88V2.1H2.279l-.344-.3Z" transform="translate(4.239 0.531)" fill="#02684a"/>
      <path id="Tracciato_9364" data-name="Tracciato 9364" d="M.766.938V.852L.691.938Z" transform="translate(4.167 0.258)" fill="#fff"/>
      <path id="Tracciato_9365" data-name="Tracciato 9365" d="M.7.938H.773L.7.852Z" transform="translate(4.236 0.258)" fill="#f4981a"/>
      <path id="Tracciato_9366" data-name="Tracciato 9366" d="M.7,1.213l.075-.086H.7Z" transform="translate(4.236 2.937)" fill="#fff"/>
      <path id="Tracciato_9367" data-name="Tracciato 9367" d="M.766,1.213V1.127H.691Z" transform="translate(4.167 2.937)" fill="#f4981a"/>
      <path id="Tracciato_9368" data-name="Tracciato 9368" d="M.608,1.09l.086-.1H.522Z" transform="translate(2.521 1.634)" fill="#f4981a"/>
      <path id="Tracciato_9369" data-name="Tracciato 9369" d="M.522,1.081H.694L.608.984Z" transform="translate(2.524 1.542)" fill="#fff"/>
      <path id="Tracciato_9370" data-name="Tracciato 9370" d="M.858,1.081H1.03L.944.984Z" transform="translate(5.803 1.542)" fill="#f4981a"/>
      <path id="Tracciato_9371" data-name="Tracciato 9371" d="M.944,1.079,1.03.993H.858Z" transform="translate(5.8 1.635)" fill="#fff"/>
      <path id="Tracciato_9372" data-name="Tracciato 9372" d="M2.395.932l-.194.1-.118-.1L2.04,1.19.953,1.943H.706l.054.108-.151.172.086.1.237-.1.1.1.032-.258,1.108-.742.28-.011L2.373,1.19,2.5,1.039c.032-.032-.065-.129-.108-.108" transform="translate(3.371 1.005)" fill="#b31b2d"/>
      <path id="Tracciato_9373" data-name="Tracciato 9373" d="M2.369,2.051l.054-.108-.247-.011-1.1-.742L1.035.932l-.118.1L.723.932C.68.911.584,1,.616,1.04l.14.151L.67,1.309l.28.011,1.108.732.032.269.1-.1.237.1c.043.022.108-.075.086-.1l-.14-.172" transform="translate(3.375 1.004)" fill="#016946"/>
      <rect id="Rettangolo_822" data-name="Rettangolo 822" width="0.745" height="0.745" transform="translate(4.406 2.622) rotate(-45)" fill="#fff"/>
      <path id="Tracciato_9374" data-name="Tracciato 9374" d="M1.066.956H.9v.2H.668v.377H.9v.226h.161V1.537H1.3V1.161H1.066Z" transform="translate(3.95 1.274)" fill="#b31b2d"/>
      <path id="Tracciato_9375" data-name="Tracciato 9375" d="M1.2,1.359l-.065.054-.075-.054-.065.054L.918,1.359l-.065.054L.779,1.359l-.065.054L.639,1.359l-.065.054L.5,1.359V2.6l.075-.065L.65,2.6l.065-.065L.789,2.6l.065-.065L.929,2.6l.065-.065.075.065.065-.065L1.2,2.6l.075-.065.075.065V1.359l-.075.054Z" transform="translate(2.297 5.202)" fill="#02684a"/>
      <path id="Tracciato_9376" data-name="Tracciato 9376" d="M1.259,1.343l-.075.075-.065-.075-.075.075L.979,1.343l-.065.075L.839,1.343l-.065.075L.7,1.343l-.065.075L.549,1.343V2.924l.086-.075.075.075.065-.075.065.075.075-.075.065.075.075-.075.065.075.075-.075.065.075.075-.075.075.075V1.343l-.086.075Z" transform="translate(2.783 5.047)" fill="#f4981a"/>
      <path id="Tracciato_9377" data-name="Tracciato 9377" d="M1.3,1.3l-.065.054L1.16,1.3,1.1,1.353,1.02,1.3l-.065.054L.881,1.3l-.065.054L.741,1.3l-.065.054L.6,1.3V3.827l.075-.075.075.075.065-.075.075.075.065-.075.065.075L1.1,3.752l.075.075.065-.075.065.075.075-.075.075.075V1.3l-.075.054Z" transform="translate(3.292 4.621)" fill="#02684a"/>
      <path id="Tracciato_9378" data-name="Tracciato 9378" d="M1.516,1.359l-.065.054-.075-.054-.065.054-.075-.054-.065.054L1.1,1.359l-.065.054L.957,1.359l-.065.054L.817,1.359V2.6l.075-.065L.968,2.6l.065-.065.075.065.065-.065.065.065.075-.065.075.065.065-.065.065.065.075-.065.075.065V1.359l-.075.054Z" transform="translate(5.402 5.202)" fill="#02684a"/>
      <path id="Tracciato_9379" data-name="Tracciato 9379" d="M1.467,1.343l-.075.075-.065-.075-.065.075-.075-.075-.065.075-.075-.075-.065.075L.908,1.343l-.065.075L.768,1.343V2.924l.075-.075.075.075.065-.075.075.075.065-.075.065.075.075-.075.065.075L1.4,2.849l.065.075.075-.075.075.075V1.343l-.075.075Z" transform="translate(4.921 5.047)" fill="#f4981a"/>
      <path id="Tracciato_9380" data-name="Tracciato 9380" d="M1.414,1.3l-.065.054L1.274,1.3l-.065.054L1.134,1.3l-.065.054L.994,1.3.93,1.353.854,1.3.79,1.353.714,1.3V3.827L.79,3.752l.075.075L.93,3.752,1,3.827l.065-.075.075.075.065-.075.065.075.075-.075.075.075.065-.075.075.075V1.3l-.075.054Z" transform="translate(4.401 4.621)" fill="#02684a"/>
      <path id="Tracciato_9381" data-name="Tracciato 9381" d="M1.358,1.277l-.065.054-.075-.054-.065.054-.075-.054-.065.054L.938,1.277.874,1.33.8,1.277.734,1.33.659,1.277V4.289l.075-.075.075.075.065-.075.075.075.065-.075.075.075.065-.075.075.075.065-.075.075.075.065-.075.075.075V1.277l-.075.054Z" transform="translate(3.855 4.4)" fill="#f4981a"/>
      <path id="Tracciato_9382" data-name="Tracciato 9382" d="M3.213,4.453H2.2V4.217H1.567V3.765H.986V3.614H.491V2.108H.986V1.947h.581l-.011-.441H2.2V1.269H3.223v.226h.635v.463h.581v.151h.495V3.614H4.439v.151H3.858v.452H3.213Zm-1-.011h1V4.206h.635V3.754h.581V3.6h.506V2.119H4.428V1.957H3.847V1.506H3.213V1.28h-1v.226H1.567v.452H.986v.151l-.495.011V3.6H1v.161l.57-.011v.452h.645Z" transform="translate(2.22 4.325)"/>
      <path id="Tracciato_9383" data-name="Tracciato 9383" d="M3.081,4.31H2.2V4.073H1.553V3.632H.983V3.471H.5V2.115H.972V1.964h.581V1.491H2.2V1.276h.882v.215h.635v.473H4.3v.161H4.78V3.471H4.3v.161H3.715v.441H3.081Zm-.871-.022H3.07V4.073h.645V3.61h.57v-.14H4.77V2.126H4.286V1.964h-.57V1.491H3.07V1.276H2.209v.237H1.564v.452H.983v.161H.51V3.471H.983l.011.14h.57v.463h.645Z" transform="translate(2.298 4.393)"/>
      <path id="Tracciato_9384" data-name="Tracciato 9384" d="M3.536,2.045l-.624-.71H2.073l-.6.721H.61l-.1.161.118.14H1.46l.613.71h.85l.613-.7h.828l.14-.151-.14-.172Z" transform="translate(2.434 4.968)" fill="#b31b2d"/>
      <path id="Tracciato_9385" data-name="Tracciato 9385" d="M2.864,2.921H2.036l-.592-.678H.594L.519,2.168l.065-.075h.861L2.09,1.34H2.81l.645.742h.85l.086.075-.086.1-.85-.011Zm-.828,0h.818l.6-.678h.85l.075-.086-.086-.065h-.85L2.81,1.351H2.1L1.455,2.1H.584L.53,2.168l.065.065h.861Z" transform="translate(2.493 5.018)"/>
      <path id="Tracciato_9386" data-name="Tracciato 9386" d="M1.731,1.5l-.065.065v.086h.086L1.817,1.6l.129.151-.269.312L1.4,1.729l.258-.3V1.342H1.581l-.258.3-.269-.3H.978v.086l.269.3-.28.323L.7,1.751.828,1.6l.065.054H.978V1.568L.914,1.5H.763l-.129.14v.183L.9,2.138.634,2.45v.172l.129.14H.914L.978,2.7V2.611l-.086.011-.065.054L.7,2.525l.269-.312.28.333-.258.3v.086h.075l.258-.312.258.312h.086V2.848l-.269-.3.28-.333.269.312-.129.151-.065-.054-.086-.011V2.7l.065.065h.151l.129-.14V2.45l-.269-.312.269-.312V1.643L1.882,1.5Zm-.409.957-.28-.323.28-.323.28.323Z" transform="translate(3.615 5.037)" fill="#f4981a"/>
      <path id="Tracciato_9387" data-name="Tracciato 9387" d="M.965,1.542.933,1.6l-.054.1V1.564c0-.054.054-.086.054-.14V1.381C.9,1.338.89,1.306.847,1.284l-.054.022L.739,1.37v.054l.043.086.011.118V1.7L.782,1.693.739,1.6.718,1.542l-.032.022a.148.148,0,0,0,.043.129l.043.065L.793,1.8l.086.011V1.8L.89,1.779l.054-.086a.148.148,0,0,0,.043-.129L.965,1.542" transform="translate(4.091 4.471)" fill="#b31c2a"/>
      <path id="Tracciato_9388" data-name="Tracciato 9388" d="M.849,1.543l-.032.022L.753,1.64V1.554l.065-.1V1.435L.731,1.36l-.054.022-.054.043-.011.032.054.065L.688,1.6.677,1.65V1.64L.624,1.575.6,1.554H.559l.043.1.043.043.032.022v.011H.753V1.715L.774,1.7.828,1.65l.043-.1L.849,1.543" transform="translate(2.883 5.213)" fill="#b31c2a"/>
      <path id="Tracciato_9389" data-name="Tracciato 9389" d="M1.086,1.543l-.032.032L1,1.64V1.554l.065-.1-.011-.032L.978,1.36l-.054.022-.054.043L.86,1.457.9,1.521.924,1.6V1.65L.871,1.575.838,1.543l-.032.011.043.1.043.043.032.022v.011H1V1.715L1.021,1.7l.054-.054.043-.1-.032-.011" transform="translate(5.294 5.213)" fill="#b31c2a"/>
      <path id="Tracciato_9390" data-name="Tracciato 9390" d="M1.032,1.5l-.022.022L.946,1.6v-.1l.065-.086L1,1.379.924,1.314.87,1.336l-.054.043-.011.032.054.065.011.075V1.6H.86L.817,1.529.784,1.5l-.032.011L.8,1.6l.043.043.032.022V1.68H.946l.032-.032L1.021,1.6l.043-.1L1.032,1.5" transform="translate(4.767 4.764)" fill="#fff"/>
      <path id="Tracciato_9391" data-name="Tracciato 9391" d="M.894,1.5l-.032.032L.808,1.6v-.1l.065-.086L.861,1.379.786,1.314l-.043.011-.065.054-.011.032.054.065.011.075V1.6L.679,1.529.646,1.5l-.032.011.043.1L.7,1.647l.032.022V1.68H.808L.84,1.647.883,1.6l.043-.1L.894,1.5" transform="translate(3.42 4.764)" fill="#fff"/>
      <path id="Tracciato_9392" data-name="Tracciato 9392" d="M.989,1.507.956,1.485H.892l-.043.022L.806,1.56c-.032.032-.054.054-.054.086L.8,1.668l.022-.043L.87,1.56V1.539H.892v.075L.86,1.679l-.054.054.011.043.054.043.054.022L1,1.775l.011-.043C1,1.7.956,1.679.956,1.646V1.56L1,1.625l.043.043.022-.022L1.021,1.56.989,1.507" transform="translate(4.767 6.433)" fill="#fff"/>
      <path id="Tracciato_9393" data-name="Tracciato 9393" d="M.843,1.507.811,1.485H.735L.7,1.507.66,1.56c-.022.032-.054.054-.043.086l.032.022.032-.043L.735,1.56v.054l-.011.065-.054.054.011.043.054.043.054.022.075-.065.011-.043C.864,1.7.811,1.679.811,1.646V1.56l.054.065L.9,1.668l.032-.022L.886,1.56.843,1.507" transform="translate(3.428 6.433)" fill="#fff"/>
      <path id="Tracciato_9394" data-name="Tracciato 9394" d="M.787,1.474.755,1.442H.679l-.022.022L.6,1.517l-.043.1.032.011.032-.032.043-.075.011-.011v.065l-.011.075L.615,1.7l.011.032.054.054.054.022.075-.075L.819,1.7.755,1.614v-.1l.054.065.032.043.032-.011a.1.1,0,0,0-.043-.1L.787,1.474" transform="translate(2.903 6.013)" fill="#b31c2a"/>
      <path id="Tracciato_9395" data-name="Tracciato 9395" d="M1.034,1.474,1,1.442H.926l-.032.032-.043.043-.043.1.032.011.032-.032.054-.075V1.507l.011.065-.022.075L.862,1.7v.022l.065.065.054.022.075-.075L1.066,1.7,1,1.614v-.1l.054.065.032.043.032-.011a.1.1,0,0,0-.043-.1l-.043-.043" transform="translate(5.313 6.013)" fill="#b31c2a"/>
      <path id="Tracciato_9396" data-name="Tracciato 9396" d="M.911,1.552.879,1.52V1.5H.8V1.52l-.032.032-.043.075a.216.216,0,0,0-.043.14l.032.022.032-.054.043-.1L.8,1.627v.065L.793,1.8l-.054.1.011.043L.8,2.014l.054.022.075-.1L.943,1.9C.932,1.842.879,1.8.879,1.745V1.627l.054.1.032.054L1,1.745c.011-.032-.022-.086-.043-.118L.911,1.552" transform="translate(4.091 6.559)" fill="#b31c2a"/>
      <path id="Tracciato_9397" data-name="Tracciato 9397" d="M.678,1.405l-.032.043h0L.6,1.373H.592l-.011.075H.56L.549,1.405H.539c-.054.108.011.172.054.172a.119.119,0,0,0,.1-.172H.678" transform="translate(2.484 5.34)" fill="#fff"/>
      <path id="Tracciato_9398" data-name="Tracciato 9398" d="M1.024,1.4,1,1.447v.011L.959,1.383V1.372l-.032.075H.916L.895,1.4H.884c-.054.108.022.172.075.172A.116.116,0,0,0,1.034,1.4Z" transform="translate(5.872 5.33)" fill="#fff"/>
      <path id="Tracciato_9399" data-name="Tracciato 9399" d="M.607,1.441c-.054,0-.129.065-.065.172H.553L.575,1.57H.586l.022.065H.618L.65,1.57H.661l.022.043c.054-.118-.022-.172-.075-.172" transform="translate(2.48 6.003)" fill="#fff"/>
      <path id="Tracciato_9400" data-name="Tracciato 9400" d="M.958,1.44C.9,1.44.829,1.5.883,1.612H.9l.011-.043H.926l.032.065H.969L1,1.569h.011l.011.043h.011A.111.111,0,0,0,.958,1.44" transform="translate(5.862 5.993)" fill="#fff"/>
      <path id="Tracciato_9401" data-name="Tracciato 9401" d="M.753,1.409c-.075,0-.14.032-.14.075s.065.065.14.065.14-.032.14-.065-.065-.075-.14-.075" transform="translate(3.41 5.691)" fill="#02684a"/>
      <path id="Tracciato_9402" data-name="Tracciato 9402" d="M.825,1.409c-.075,0-.14.032-.14.075s.065.065.14.065.14-.032.14-.065S.9,1.409.825,1.409" transform="translate(4.113 5.691)" fill="#02684a"/>
      <path id="Tracciato_9403" data-name="Tracciato 9403" d="M.9,1.409c-.075,0-.14.032-.14.075s.065.065.14.065.14-.032.14-.065S.971,1.409.9,1.409" transform="translate(4.806 5.691)" fill="#02684a"/>
      <path id="Tracciato_9404" data-name="Tracciato 9404" d="M3.6,5.536H2.858L2.664,5.4l-.194.14H1.728l-.3-.43h.732l.086.14-.495.011.1.14h.506l.1-.151-.2-.269H1.115V4.707H.8v-.29H.491V3.169H.8v-.29h.312V2.61h1.14l.194-.28L2.363,2.2H1.846l-.1.129h.506l-.108.151H1.416l.312-.42H2.47l.194.14.194-.14H3.6l.312.42H3.18L3.073,2.33h.506l-.1-.129H2.954l-.075.129.194.28H4.31v.269h.323v.29h.3V4.417H4.622l.011.29H4.321v.269H3.084l-.2.269.1.151h.506l.1-.14-.495-.011.086-.14H3.9Zm-.742-.011h.732l.29-.409h-.7l-.086.129H3.6l-.108.161H2.965l-.1-.161.2-.28H4.31V4.7h.312l-.011-.29h.312V3.18h-.3v-.29H4.3V2.62H3.073l-.2-.29L2.954,2.2h.538l.108.14H3.094l.086.129h.71l-.3-.409H2.858l-.194.151L2.47,2.061H1.739l-.3.409h.71l.086-.129H1.728l.108-.14h.538l.086.129-.194.29H1.126v.269H.814v.28H.5V4.406H.824L.8,4.7h.323v.269h1.13l.2.28-.1.161H1.836l-.108-.161h.495l-.075-.129h-.7l.29.409H2.47l.194-.151Z" transform="translate(2.22 12.053)"/>
      <path id="Tracciato_9405" data-name="Tracciato 9405" d="M4.418,2.776H4.106V2.5H2.965l-.409-.409-.4.409H1.115v.28H.8v.269H.5v.979H.8V4.3h.312v.269H2.148l.409.409.42-.409h1.13V4.3h.312v-.28h.3V3.045h-.3Z" transform="translate(2.325 12.313)" fill="#006a4e"/>
      <path id="Tracciato_9406" data-name="Tracciato 9406" d="M2.576,5.043l-.42-.42H1.113V4.355h-.3v-.29H.5V3.053H.812V2.784h.3V2.5H2.167l.409-.42L3,2.5H4.147v.28h.312v.269h.3V4.064h-.3v.29H4.147l.011.269H3.006Zm-1.42-.463H2.178l.4.409.409-.409h1.13L4.1,4.312h.312v-.28h.3V3.1h-.3V2.827h-.3v-.28H2.974l-.4-.4-.387.4H1.156v.28H.844V3.1h-.3v.936h.3v.28h.312Z" transform="translate(2.308 12.287)" fill="#ff9a05"/>
      <path id="Tracciato_9407" data-name="Tracciato 9407" d="M1.171,2.138H.762v.14h-.1v.14h.1v.14h.409v-.14h.1v-.14h-.1Z" transform="translate(3.92 12.808)" fill="#870800"/>
      <path id="Tracciato_9408" data-name="Tracciato 9408" d="M.7,2.142l-.022.032.011.043L.72,2.174.7,2.142" transform="translate(4.035 12.838)" fill="#fff"/>
      <path id="Tracciato_9409" data-name="Tracciato 9409" d="M.727,2.142l-.022.032.022.043.022-.043L.727,2.142" transform="translate(4.314 12.838)" fill="#fff"/>
      <path id="Tracciato_9410" data-name="Tracciato 9410" d="M.7,2.168.677,2.2l.011.032L.72,2.2.7,2.168" transform="translate(4.035 13.096)" fill="#fff"/>
      <path id="Tracciato_9411" data-name="Tracciato 9411" d="M.727,2.168.706,2.2l.022.032L.749,2.2.727,2.168" transform="translate(4.314 13.096)" fill="#fff"/>
      <path id="Tracciato_9412" data-name="Tracciato 9412" d="M.689,2.155l-.022.032.022.032.022-.032L.689,2.155" transform="translate(3.943 12.968)" fill="#fff"/>
      <path id="Tracciato_9413" data-name="Tracciato 9413" d="M.713,2.155l-.022.032.022.032.022-.032L.713,2.155" transform="translate(4.175 12.968)" fill="#fff"/>
      <path id="Tracciato_9414" data-name="Tracciato 9414" d="M.737,2.155l-.022.032.022.032.022-.032L.737,2.155" transform="translate(4.409 12.968)" fill="#fff"/>
      <path id="Tracciato_9415" data-name="Tracciato 9415" d="M.675,2.382h.409l-.2-.269Z" transform="translate(4.011 12.564)" fill="#f4981a"/>
      <path id="Tracciato_9416" data-name="Tracciato 9416" d="M.879,2.447l.2-.269H.674Z" transform="translate(4.008 13.193)" fill="#f4981a"/>
      <path id="Tracciato_9417" data-name="Tracciato 9417" d="M1.171,2.267H.762v.14h-.1v.14h.1v.14h.409v-.14h.1v-.14h-.1Z" transform="translate(3.92 14.065)" fill="#870800"/>
      <path id="Tracciato_9418" data-name="Tracciato 9418" d="M.7,2.27.677,2.3l.011.032L.72,2.3.7,2.27" transform="translate(4.035 14.095)" fill="#fff"/>
      <path id="Tracciato_9419" data-name="Tracciato 9419" d="M.727,2.27.706,2.3l.022.032L.749,2.3.727,2.27" transform="translate(4.314 14.095)" fill="#fff"/>
      <path id="Tracciato_9420" data-name="Tracciato 9420" d="M.7,2.3l-.022.032.011.043L.72,2.329.7,2.3" transform="translate(4.035 14.349)" fill="#fff"/>
      <path id="Tracciato_9421" data-name="Tracciato 9421" d="M.727,2.3l-.022.032.022.043.022-.043L.727,2.3" transform="translate(4.314 14.349)" fill="#fff"/>
      <path id="Tracciato_9422" data-name="Tracciato 9422" d="M.689,2.283l-.022.032.022.032.022-.032L.689,2.283" transform="translate(3.943 14.223)" fill="#fff"/>
      <path id="Tracciato_9423" data-name="Tracciato 9423" d="M.713,2.283l-.022.032.022.032.022-.032L.713,2.283" transform="translate(4.175 14.223)" fill="#fff"/>
      <path id="Tracciato_9424" data-name="Tracciato 9424" d="M.737,2.283l-.022.032.022.032.022-.032L.737,2.283" transform="translate(4.409 14.223)" fill="#fff"/>
      <path id="Tracciato_9425" data-name="Tracciato 9425" d="M.675,2.521h.409l-.2-.28Z" transform="translate(4.011 13.811)" fill="#f4981a"/>
      <path id="Tracciato_9426" data-name="Tracciato 9426" d="M.879,2.585l.2-.28H.674Z" transform="translate(4.008 14.44)" fill="#f4981a"/>
      <path id="Tracciato_9427" data-name="Tracciato 9427" d="M1.094,2.2H.685v.14h-.1v.14h.1v.14h.409v-.14h.1v-.14h-.1Z" transform="translate(3.168 13.436)" fill="#f4981a"/>
      <rect id="Rettangolo_823" data-name="Rettangolo 823" width="0.215" height="0.14" transform="translate(3.948 15.781)" fill="#c03"/>
      <path id="Tracciato_9428" data-name="Tracciato 9428" d="M.622,2.206.6,2.238l.011.043.032-.043L.622,2.206" transform="translate(3.283 13.467)" fill="#fff"/>
      <path id="Tracciato_9429" data-name="Tracciato 9429" d="M.65,2.206l-.022.032.022.043.022-.043L.65,2.206" transform="translate(3.563 13.467)" fill="#fff"/>
      <path id="Tracciato_9430" data-name="Tracciato 9430" d="M.622,2.232.6,2.264.611,2.3l.032-.032L.622,2.232" transform="translate(3.283 13.722)" fill="#fff"/>
      <path id="Tracciato_9431" data-name="Tracciato 9431" d="M.65,2.232l-.022.032L.65,2.3l.022-.032L.65,2.232" transform="translate(3.563 13.722)" fill="#fff"/>
      <path id="Tracciato_9432" data-name="Tracciato 9432" d="M.612,2.219.59,2.251l.022.043.022-.043L.612,2.219" transform="translate(3.19 13.595)" fill="#fff"/>
      <path id="Tracciato_9433" data-name="Tracciato 9433" d="M.636,2.219l-.022.032.022.043.022-.043L.636,2.219" transform="translate(3.423 13.595)" fill="#fff"/>
      <path id="Tracciato_9434" data-name="Tracciato 9434" d="M.66,2.219l-.022.032.022.043.022-.043L.66,2.219" transform="translate(3.656 13.595)" fill="#fff"/>
      <path id="Tracciato_9435" data-name="Tracciato 9435" d="M.6,2.447h.409L.8,2.178Z" transform="translate(3.259 13.193)" fill="#c03"/>
      <path id="Tracciato_9436" data-name="Tracciato 9436" d="M.8,2.521l.2-.28H.6Z" transform="translate(3.255 13.811)" fill="#c03"/>
      <path id="Tracciato_9437" data-name="Tracciato 9437" d="M1.247,2.2H.838v.14h-.1v.14h.1v.14h.409v-.14h.1v-.14h-.1Z" transform="translate(4.665 13.436)" fill="#f4981a"/>
      <rect id="Rettangolo_824" data-name="Rettangolo 824" width="0.215" height="0.14" transform="translate(5.605 15.781)" fill="#c03"/>
      <path id="Tracciato_9438" data-name="Tracciato 9438" d="M.775,2.206l-.022.032.011.043L.8,2.238.775,2.206" transform="translate(4.78 13.467)" fill="#fff"/>
      <path id="Tracciato_9439" data-name="Tracciato 9439" d="M.8,2.206l-.022.032L.8,2.281l.022-.043L.8,2.206" transform="translate(5.059 13.467)" fill="#fff"/>
      <path id="Tracciato_9440" data-name="Tracciato 9440" d="M.775,2.232l-.022.032L.764,2.3.8,2.264.775,2.232" transform="translate(4.78 13.722)" fill="#fff"/>
      <path id="Tracciato_9441" data-name="Tracciato 9441" d="M.8,2.232l-.022.032L.8,2.3l.022-.032L.8,2.232" transform="translate(5.059 13.722)" fill="#fff"/>
      <path id="Tracciato_9442" data-name="Tracciato 9442" d="M.766,2.219l-.022.032.022.043.022-.043L.766,2.219" transform="translate(4.69 13.595)" fill="#fff"/>
      <path id="Tracciato_9443" data-name="Tracciato 9443" d="M.789,2.219l-.022.032.011.043.032-.043L.789,2.219" transform="translate(4.921 13.595)" fill="#fff"/>
      <path id="Tracciato_9444" data-name="Tracciato 9444" d="M.813,2.219l-.022.032.022.043.022-.043L.813,2.219" transform="translate(5.154 13.595)" fill="#fff"/>
      <path id="Tracciato_9445" data-name="Tracciato 9445" d="M.751,2.447H1.16l-.2-.269Z" transform="translate(4.757 13.193)" fill="#c03"/>
      <path id="Tracciato_9446" data-name="Tracciato 9446" d="M.955,2.521l.2-.28H.751Z" transform="translate(4.754 13.811)" fill="#c03"/>
      <path id="Tracciato_9447" data-name="Tracciato 9447" d="M.579,2.816l.6-.678h-.6Z" transform="translate(3.081 12.804)" fill="#c03"/>
      <path id="Tracciato_9448" data-name="Tracciato 9448" d="M.579,2.922h.6l-.6-.678Z" transform="translate(3.081 13.837)" fill="#c03"/>
      <path id="Tracciato_9449" data-name="Tracciato 9449" d="M1.354,2.815V2.138h-.6Z" transform="translate(4.766 12.801)" fill="#c03"/>
      <path id="Tracciato_9450" data-name="Tracciato 9450" d="M1.354,2.911V2.244l-.6.667Z" transform="translate(4.766 13.841)" fill="#c03"/>
      <path id="Tracciato_9451" data-name="Tracciato 9451" d="M1.009,1.855l-.1.065C.87,1.866.827,1.833.805,1.866s-.011.075.032.118c-.043.054-.065.1-.032.129l.108-.054L1,2.124l-.043-.14.054-.129" transform="translate(5.133 10.021)" fill="#02684a"/>
      <path id="Tracciato_9452" data-name="Tracciato 9452" d="M1.011,2.132h0l-.1-.065-.086.065L.806,2.121q-.048-.032.032-.129C.785,1.938.774,1.884.806,1.863l.022-.011.086.065.1-.065v.011l-.043.129Zm-.1-.075h0L1,2.121h.011L.957,1.992l.054-.129-.1.065L.828,1.863l-.022.011.043.118L.806,2.11l.022.011Z" transform="translate(5.121 10.014)" fill="#024f04"/>
      <path id="Tracciato_9453" data-name="Tracciato 9453" d="M1.009,1.813l-.1.065C.87,1.824.827,1.8.805,1.824s-.011.075.032.118c-.043.054-.065.1-.032.129l.108-.054L1,2.082l-.043-.14.054-.129" transform="translate(5.133 9.633)" fill="#02684a"/>
      <path id="Tracciato_9454" data-name="Tracciato 9454" d="M1.011,2.092h0l-.1-.065-.086.065L.806,2.081q-.048-.048.032-.129C.785,1.9.774,1.844.806,1.823l.022-.011.086.065.1-.065v.011l-.043.129.043.129Zm-.1-.075h0L1,2.081h.011L.957,1.952l.054-.129-.1.065L.828,1.823l-.022.011.043.118L.806,2.07l.022.011Z" transform="translate(5.121 9.623)" fill="#024f04"/>
      <path id="Tracciato_9455" data-name="Tracciato 9455" d="M1.009,1.776l-.1.065C.87,1.787.827,1.754.805,1.787s-.011.075.032.118c-.043.054-.065.1-.032.129L.913,1.98,1,2.045l-.043-.14.054-.129" transform="translate(5.133 9.251)" fill="#02684a"/>
      <path id="Tracciato_9456" data-name="Tracciato 9456" d="M1.011,2.053h0l-.1-.065-.086.065L.806,2.042q-.048-.048.032-.129C.785,1.859.774,1.805.806,1.784l.011-.011.1.065.1-.065v.011l-.043.129.043.129Zm-.1-.075h0L1,2.042h.011L.957,1.913l.054-.129-.1.065L.828,1.784l-.022.011.043.118-.043.118.022.011Z" transform="translate(5.121 9.243)" fill="#024f04"/>
      <path id="Tracciato_9457" data-name="Tracciato 9457" d="M.8,1.864c-.032-.022-.065.011-.108.054L.608,1.853a.281.281,0,0,0,.043.14l-.065.118c.022.022.065-.011.108-.054.043.054.075.075.108.054s.011-.075-.032-.118c.043-.054.065-.1.032-.129" transform="translate(3.147 10.023)" fill="#02684a"/>
      <path id="Tracciato_9458" data-name="Tracciato 9458" d="M.587,2.132V2.121l.054-.129-.054-.14.1.065L.77,1.852l.022.011c.032.022.022.075-.032.129q.081.081.032.129L.77,2.132.684,2.067l-.1.065m0-.011h0l.1-.065.086.065L.791,2.11.748,1.992l.043-.118L.781,1.863l-.1.065L.6,1.863H.587l.054.129L.587,2.11Z" transform="translate(3.157 10.014)" fill="#024f04"/>
      <path id="Tracciato_9459" data-name="Tracciato 9459" d="M.794,1.824C.762,1.8.729,1.835.686,1.878L.6,1.813a.281.281,0,0,0,.043.14c-.043.054-.065.118-.054.129l.1-.065c.043.043.075.075.108.054S.8,2,.762,1.953C.8,1.9.826,1.845.794,1.824" transform="translate(3.154 9.633)" fill="#02684a"/>
      <path id="Tracciato_9460" data-name="Tracciato 9460" d="M.587,2.092V2.081l.054-.129L.587,1.823V1.812l.1.065L.77,1.812l.022.011c.032.022.022.075-.032.129q.081.081.032.129l-.011.011H.77L.684,2.027l-.1.065m0-.011h0l.1-.065.086.065L.791,2.07.748,1.952l.043-.118L.781,1.823l-.1.065L.6,1.823H.587l.054.129-.054.129" transform="translate(3.157 9.623)" fill="#024f04"/>
      <path id="Tracciato_9461" data-name="Tracciato 9461" d="M.794,1.785C.762,1.763.729,1.8.686,1.839L.6,1.774A.232.232,0,0,0,.643,1.9c-.043.065-.065.129-.054.14l.1-.065c.043.043.075.075.108.054S.8,1.957.762,1.9c.043-.043.065-.1.032-.118" transform="translate(3.154 9.252)" fill="#02684a"/>
      <path id="Tracciato_9462" data-name="Tracciato 9462" d="M.607,2.053V2.042L.66,1.913.585,1.784l.022-.011.1.065.086-.065.022.011c.032.022.022.075-.032.129q.081.081.032.129L.8,2.053H.789L.7,1.988l-.1.065m0-.011h0l.1-.065.086.065.022-.011L.768,1.913l.043-.118L.789,1.784.7,1.848.617,1.784H.607l.054.129Z" transform="translate(3.137 9.243)" fill="#024f04"/>
      <path id="Tracciato_9463" data-name="Tracciato 9463" d="M.972,1.905c-.032-.032-.1,0-.161.032C.746,1.905.682,1.873.65,1.905s0,.075.065.108L.628,2.1c.022.022.1,0,.183-.043l.161.065C.994,2.1.951,2.056.9,2.013.961,1.98,1,1.937.972,1.905" transform="translate(3.557 10.401)" fill="#02684a"/>
      <path id="Tracciato_9464" data-name="Tracciato 9464" d="M.982,2.118.821,2.064l-.172.054H.638L.627,2.107l.1-.1L.638,1.935.649,1.9l.032-.011.14.043.118-.043L.982,1.9l.011.011c-.011.043-.022.065-.086.1l.086.1H.982ZM.821,2.053h0l.161.054h0L.9,2.01l.086-.086V1.9L.95,1.892a.255.255,0,0,0-.129.054l-.14-.054L.649,1.9l-.011.022.1.086-.1.1H.649Z" transform="translate(3.547 10.404)" fill="#024f04"/>
      <path id="Tracciato_9465" data-name="Tracciato 9465" d="M1.016,1.905c-.032-.032-.1,0-.161.032C.79,1.905.726,1.873.693,1.905s0,.075.065.108l-.075.1a.6.6,0,0,0,.172-.054.31.31,0,0,0,.172.054l-.086-.1c.065-.032.108-.075.075-.108" transform="translate(4.072 10.401)" fill="#02684a"/>
      <path id="Tracciato_9466" data-name="Tracciato 9466" d="M1.024,2.118.863,2.064.7,2.118H.691L.68,2.107l.086-.1L.68,1.935.7,1.9l.032-.011.129.043.129-.043h.022l.032.022c-.011.043-.032.065-.086.1l.086.1H1.035ZM.863,2.053h0l.161.054h.011l-.086-.1.086-.086L1.024,1.9.992,1.892l-.129.054L.734,1.892.7,1.9l-.011.022.086.086-.086.1H.7Z" transform="translate(4.064 10.404)" fill="#024f04"/>
      <path id="Tracciato_9467" data-name="Tracciato 9467" d="M1.075,1.905c-.032-.032-.1,0-.161.032C.85,1.905.785,1.873.742,1.905s.011.075.075.108l-.075.1a.359.359,0,0,0,.172-.054l.161.065C1.1,2.1,1.054,2.056,1,2.013c.065-.032.108-.075.075-.108" transform="translate(4.561 10.401)" fill="#02684a"/>
      <path id="Tracciato_9468" data-name="Tracciato 9468" d="M1.075,2.118.914,2.064l-.161.054H.742L.731,2.107l.086-.1L.731,1.935.753,1.9l.032-.011.129.043.118-.043h.032l.032.022c-.011.043-.032.065-.086.1l.086.1H1.086l-.011.011M.914,2.053h0l.161.054h.011L1,2.01l.086-.086L1.075,1.9l-.043-.011-.118.054L.785,1.892.753,1.9l-.011.022.086.086-.086.1H.753Z" transform="translate(4.562 10.404)" fill="#024f04"/>
      <path id="Tracciato_9469" data-name="Tracciato 9469" d="M.9,1.837l.086-.1a.31.31,0,0,0-.172.054A.359.359,0,0,0,.626,1.74l.086.1C.648,1.87.6,1.913.637,1.945s.108,0,.172-.032c.054.032.118.065.161.032S.96,1.87.9,1.837" transform="translate(3.537 8.899)" fill="#02684a"/>
      <path id="Tracciato_9470" data-name="Tracciato 9470" d="M.937,1.963h0L.808,1.92l-.129.043L.647,1.952.625,1.941c.011-.043.032-.065.086-.1l-.086-.1.011-.011H.647l.161.054.161-.054H.98v.011l-.075.1L.98,1.92l-.011.032-.032.011M.808,1.909h0l.129.054.022-.011L.98,1.931.894,1.845l.086-.1H.969L.808,1.8.647,1.748H.636l.086.1L.636,1.92l.011.032.032.011Z" transform="translate(3.527 8.891)" fill="#024f04"/>
      <path id="Tracciato_9471" data-name="Tracciato 9471" d="M.948,1.837l.086-.1a.359.359,0,0,0-.183.054A.31.31,0,0,0,.679,1.74l.086.1C.7,1.87.658,1.913.69,1.945s.108,0,.161-.032c.065.032.129.065.172.032S1.013,1.87.948,1.837" transform="translate(4.054 8.899)" fill="#02684a"/>
      <path id="Tracciato_9472" data-name="Tracciato 9472" d="M.98,1.963h0L.851,1.92l-.129.043H.7L.679,1.941c0-.043.022-.065.075-.1l-.075-.1V1.737H.69l.161.054.172-.054.011.011-.086.1.086.075-.022.032L.98,1.963M.851,1.909h0l.129.054.032-.011.011-.022L.937,1.845l.086-.1L.851,1.8.69,1.748H.679l.086.1L.679,1.92l.011.032.022.011A.253.253,0,0,0,.851,1.909Z" transform="translate(4.054 8.891)" fill="#024f04"/>
      <path id="Tracciato_9473" data-name="Tracciato 9473" d="M1,1.845l.086-.1A.31.31,0,0,0,.909,1.8L.737,1.737c-.011.011.022.065.075.108C.748,1.877.7,1.92.748,1.952s.1,0,.161-.032c.065.032.129.065.161.032S1.06,1.877,1,1.845" transform="translate(4.556 8.891)" fill="#02684a"/>
      <path id="Tracciato_9474" data-name="Tracciato 9474" d="M1.03,1.963h0L.912,1.92l-.129.043L.751,1.952.729,1.941c0-.043.032-.065.086-.1l-.086-.1V1.737H.74l.172.054.161-.054h.011l.011.011-.086.1.086.075-.022.032-.043.011M.912,1.909h0l.118.054.043-.011.011-.032L1,1.845l.086-.1H1.073L.912,1.8.74,1.748l.086.1H.815L.74,1.92l.011.032.032.011Z" transform="translate(4.542 8.891)" fill="#024f04"/>
      <path id="Tracciato_9475" data-name="Tracciato 9475" d="M.9,1.7c-.022-.032-.075-.011-.118.032C.732,1.689.689,1.668.657,1.7s.011.075.054.108l-.065.1c.011.011.075-.011.14-.054L.915,1.9l-.065-.1C.9,1.775.926,1.732.9,1.7" transform="translate(3.732 8.38)" fill="#02684a"/>
      <path id="Tracciato_9476" data-name="Tracciato 9476" d="M.914,1.918h0L.785,1.864l-.129.054L.71,1.81.645,1.735l.011-.022c.032-.043.075-.032.129.022C.839,1.681.892,1.67.914,1.7l.011.032L.86,1.81l.065.1ZM.785,1.853h0l.129.054-.065-.1.065-.086L.9,1.7.892,1.692l-.108.054-.1-.054L.677,1.7l-.022.022L.72,1.81l-.065.1Z" transform="translate(3.723 8.377)" fill="#024f04"/>
      <path id="Tracciato_9477" data-name="Tracciato 9477" d="M.944,1.7c-.022-.032-.075-.011-.118.032C.772,1.689.729,1.668.7,1.7s.011.075.054.108l-.065.1c.011.011.075-.011.14-.054.054.043.118.065.129.054l-.065-.1c.054-.032.075-.075.054-.108" transform="translate(4.123 8.38)" fill="#02684a"/>
      <path id="Tracciato_9478" data-name="Tracciato 9478" d="M.954,1.918h0L.825,1.864.7,1.918.685,1.907l.065-.1L.685,1.735V1.713c.032-.043.075-.032.14.022Q.906,1.654.954,1.7l.011.032L.9,1.81l.065.1ZM.825,1.853h0l.129.054-.065-.1.065-.086L.943,1.7.922,1.692l-.1.054-.1-.054L.707,1.7.7,1.724.76,1.81l-.065.1Z" transform="translate(4.113 8.377)" fill="#024f04"/>
      <path id="Tracciato_9479" data-name="Tracciato 9479" d="M.983,1.7c-.032-.032-.075-.011-.129.032C.811,1.689.768,1.668.736,1.7s.011.075.054.108l-.065.1c.011.011.075-.011.129-.054l.129.065a.223.223,0,0,0-.054-.108C.972,1.775,1,1.732.983,1.7" transform="translate(4.503 8.38)" fill="#02684a"/>
      <path id="Tracciato_9480" data-name="Tracciato 9480" d="M.993,1.918h0L.864,1.864l-.129.054V1.907l.054-.1L.724,1.735l.011-.022c.022-.043.075-.032.129.022q.1-.081.129-.032L1,1.735.939,1.81l.065.1ZM.864,1.853h0l.129.054-.065-.1.065-.086L.982,1.7.961,1.692l-.1.054-.1-.054L.746,1.7l-.011.022L.8,1.81l-.065.1Z" transform="translate(4.493 8.377)" fill="#024f04"/>
      <path id="Tracciato_9481" data-name="Tracciato 9481" d="M1.21,1.859a.19.19,0,0,0-.172.043L.887,1.848c-.032.011.011.065.075.108-.065.054-.108.108-.086.118l.161-.054a.19.19,0,0,0,.172.043c.054-.022.011-.065-.054-.108.065-.032.108-.075.054-.1" transform="translate(5.923 9.975)" fill="#02684a"/>
      <path id="Tracciato_9482" data-name="Tracciato 9482" d="M.882,2.084H.871V2.073l.086-.108L.871,1.858V1.847H.882l.161.054.129-.054.043.011.022.011c0,.043-.022.065-.075.1l.075.075-.022.032-.043.011L1.043,2.03l-.161.054m0-.226h0c0,.011.022.054.086.108l-.086.1v.011l.151-.054h.011c.075.043.129.065.172.043l.022-.011-.086-.086.086-.075-.022-.022c-.043-.022-.1,0-.172.043H1.032L.882,1.858" transform="translate(5.928 9.965)" fill="#024f04"/>
      <path id="Tracciato_9483" data-name="Tracciato 9483" d="M1.21,1.825c-.043-.022-.108.011-.172.043L.887,1.814c-.032.011.011.065.075.118-.065.043-.108.1-.086.108l.161-.054a.19.19,0,0,0,.172.043c.054-.022.011-.065-.054-.1.065-.043.108-.086.054-.108" transform="translate(5.923 9.643)" fill="#02684a"/>
      <path id="Tracciato_9484" data-name="Tracciato 9484" d="M.882,2.04H.871l.086-.108L.871,1.825V1.814H.882l.161.054.129-.054.043.011.022.022-.075.086.075.075-.011.022-.054.011L1.043,2,.882,2.04m0-.215h0a.306.306,0,0,0,.086.108l-.086.1V2.04l.151-.054h.011l.129.054H1.2l.032-.022-.086-.086.086-.075-.022-.022c-.043-.022-.1,0-.172.043H1.032L.882,1.825" transform="translate(5.928 9.643)" fill="#024f04"/>
      <path id="Tracciato_9485" data-name="Tracciato 9485" d="M1.21,1.793a.19.19,0,0,0-.172.043L.887,1.782c-.032.011.011.065.075.118C.9,1.943.855,2,.876,2.008l.161-.054A.19.19,0,0,0,1.21,2c.054-.022.011-.065-.054-.1.065-.043.108-.086.054-.108" transform="translate(5.923 9.331)" fill="#02684a"/>
      <path id="Tracciato_9486" data-name="Tracciato 9486" d="M.882,2.019H.871V2.008L.957,1.9.871,1.793l.011-.011.161.054.129-.054.043.011.022.022L1.161,1.9l.075.086-.022.022-.043.011-.129-.054-.161.054m0-.226h0A.306.306,0,0,0,.968,1.9C.9,1.954.882,2,.882,2.008l.151-.054h.011l.129.054H1.2l.032-.022L1.151,1.9l.086-.075L1.215,1.8c-.043-.022-.1,0-.172.043H1.032L.882,1.793" transform="translate(5.928 9.331)" fill="#024f04"/>
      <path id="Tracciato_9487" data-name="Tracciato 9487" d="M.852,1.848.691,1.9a.2.2,0,0,0-.183-.043c-.043.022,0,.054.065.1C.508,2,.465,2.042.508,2.063s.118-.011.183-.054c.075.043.151.065.161.054L.766,1.956l.086-.108" transform="translate(2.214 9.975)" fill="#02684a"/>
      <path id="Tracciato_9488" data-name="Tracciato 9488" d="M.555,2.085.512,2.074.49,2.052l.075-.086L.49,1.88l.022-.022.043-.011.14.054.151-.054H.856v.011L.77,1.966l.086.108-.011.011L.694,2.031l-.14.054m0-.226H.522L.5,1.88l.075.086h0L.5,2.042l.022.022c.032.022.1,0,.172-.043l.151.054H.856L.77,1.966h0l.086-.1V1.859H.845l-.151.054-.14-.054" transform="translate(2.21 9.975)" fill="#024f04"/>
      <path id="Tracciato_9489" data-name="Tracciato 9489" d="M.852,1.815l-.161.054a.2.2,0,0,0-.183-.043c-.043.022,0,.065.065.1-.065.043-.108.086-.065.108s.118-.011.183-.043l.161.054L.766,1.923l.086-.108" transform="translate(2.214 9.653)" fill="#02684a"/>
      <path id="Tracciato_9490" data-name="Tracciato 9490" d="M.846,2.051.685,2a.287.287,0,0,1-.14.054L.523,2.04.491,2.008l.075-.075L.491,1.857l.022-.032.032-.011a.287.287,0,0,1,.14.054l.161-.054.011.011-.086.108.086.108H.846ZM.685,1.986h0l.161.054c0-.011-.022-.054-.086-.108l.086-.1V1.825l-.161.054C.609,1.836.556,1.814.513,1.836l-.022.011.086.086-.086.075.022.022C.556,2.051.609,2.029.685,1.986Z" transform="translate(2.22 9.643)" fill="#024f04"/>
      <path id="Tracciato_9491" data-name="Tracciato 9491" d="M.852,1.783l-.161.054a.2.2,0,0,0-.183-.043c-.043.022,0,.065.065.1C.508,1.934.465,1.977.508,2s.118-.011.183-.043L.852,2,.766,1.891l.086-.108" transform="translate(2.214 9.34)" fill="#02684a"/>
      <path id="Tracciato_9492" data-name="Tracciato 9492" d="M.846,2.008h0L.685,1.965l-.14.043H.523L.491,1.986.566,1.9.491,1.814l.022-.022.032-.011a.287.287,0,0,1,.14.054l.161-.054.011.011L.771,1.9l.086.108ZM.685,1.954h0l.161.054C.846,2,.824,1.954.76,1.9l.086-.1V1.793l-.161.054a.21.21,0,0,0-.172-.054l-.022.022L.577,1.9l-.086.075L.513,2C.556,2.019.609,2.008.685,1.954Z" transform="translate(2.22 9.331)" fill="#024f04"/>
      <path id="Tracciato_9493" data-name="Tracciato 9493" d="M.847,2.053l.065-.1C.9,1.945.836,1.967.772,2.01L.653,1.945c-.011.022.011.065.054.108C.664,2.1.632,2.128.653,2.16s.075,0,.118-.032c.054.032.108.065.129.032S.9,2.1.847,2.053" transform="translate(3.736 10.921)" fill="#02684a"/>
      <path id="Tracciato_9494" data-name="Tracciato 9494" d="M.679,2.171.647,2.16V2.128L.7,2.053.647,1.945.776,2l.129-.054-.054.108.065.075v.022l-.043.022-.1-.043-.1.043m.1-.054h0l.1.054L.894,2.16l.011-.032L.851,2.053H.841l.065-.1L.776,2.01.647,1.956l.065.1-.065.075v.022l.022.022Z" transform="translate(3.742 10.921)" fill="#024f04"/>
      <path id="Tracciato_9495" data-name="Tracciato 9495" d="M.887,2.053l.065-.1a.3.3,0,0,0-.129.054L.693,1.945c-.011.022.011.065.054.108C.7,2.1.672,2.128.693,2.16s.075,0,.129-.032c.043.032.1.065.118.032s0-.065-.054-.108" transform="translate(4.126 10.921)" fill="#02684a"/>
      <path id="Tracciato_9496" data-name="Tracciato 9496" d="M.729,2.171.7,2.16.686,2.128l.065-.075L.686,1.945H.7L.826,2l.129-.054H.966L.9,2.053l.065.075-.011.022-.032.022-.1-.043-.1.043m.1-.054h0l.1.054L.944,2.16l.011-.032L.89,2.053l.065-.1L.826,2.01.7,1.956l.065.1L.7,2.128l.011.032.022.011Z" transform="translate(4.123 10.921)" fill="#024f04"/>
      <path id="Tracciato_9497" data-name="Tracciato 9497" d="M.929,2.045l.065-.086A.281.281,0,0,0,.854,2C.8,1.959.736,1.938.725,1.948l.065.1c-.054.043-.075.075-.054.108s.075,0,.118-.032c.054.032.108.065.129.032L.929,2.045" transform="translate(4.503 10.928)" fill="#02684a"/>
      <path id="Tracciato_9498" data-name="Tracciato 9498" d="M.768,2.171.736,2.16.725,2.128.79,2.053.725,1.945H.736L.865,2l.129-.054H1L.94,2.053,1,2.128v.022l-.032.022H.962l-.1-.043-.1.043m.1-.054h0l.1.054L.983,2.16l.011-.032L.929,2.053l.065-.1L.865,2.01.736,1.956l.065.1-.065.075.011.032.022.011Z" transform="translate(4.503 10.921)" fill="#024f04"/>
      <path id="Tracciato_9499" data-name="Tracciato 9499" d="M1.4,1.714l-.871.828V3.3l.882.807h1.8L4.072,3.3V2.542l-.861-.828ZM3.556,3.532l-.441.409H1.5l-.43-.4V2.284l.43-.4H3.115l.441.409Z" transform="translate(2.63 8.667)" fill="#02684a"/>
      <path id="Tracciato_9500" data-name="Tracciato 9500" d="M3.212,4.113h-1.8L.533,3.3V2.532L1.4,1.714H3.212l.861.828V3.3ZM1.415,4.1H3.2L4.061,3.3V2.542L3.2,1.725H1.4l-.861.818V3.3Zm1.7-.161H1.5L1.06,3.554V2.284l.441-.4H3.115l.452.409V3.543ZM1.5,3.93H3.115l.43-.4V2.306L3.115,1.9H1.5l-.43.387V3.543Z" transform="translate(2.63 8.667)"/>
      <path id="Tracciato_9501" data-name="Tracciato 9501" d="M2.952,1.729H.833v.258H.575V3.536H.833v.247H2.952V3.536h.258V1.987H2.952Zm.1.441v1.2l-.366.333H1.1L.747,3.375V2.149L1.1,1.826H2.683Z" transform="translate(3.04 8.813)" fill="#b31b2d"/>
      <path id="Tracciato_9502" data-name="Tracciato 9502" d="M.631,1.886h.29L.793,1.714Z" transform="translate(3.588 8.67)" fill="#b31c2a"/>
      <path id="Tracciato_9503" data-name="Tracciato 9503" d="M.932,1.9h-.3V1.886l.161-.172Zm-.29-.011h.29l-.14-.161Z" transform="translate(3.586 8.667)"/>
      <path id="Tracciato_9504" data-name="Tracciato 9504" d="M.659,1.886H.927L.8,1.714Z" transform="translate(3.854 8.67)" fill="#f4981a"/>
      <path id="Tracciato_9505" data-name="Tracciato 9505" d="M.938,1.9H.658l.151-.183v.011ZM.669,1.886H.938L.809,1.725Z" transform="translate(3.849 8.667)"/>
      <path id="Tracciato_9506" data-name="Tracciato 9506" d="M.711,1.886h.28L.862,1.714Z" transform="translate(4.368 8.67)" fill="#f4981a"/>
      <path id="Tracciato_9507" data-name="Tracciato 9507" d="M1,1.9H.71l.161-.183Zm-.28-.011H.99L.871,1.725Z" transform="translate(4.357 8.667)"/>
      <path id="Tracciato_9508" data-name="Tracciato 9508" d="M.684,1.886h.29L.845,1.714Z" transform="translate(4.102 8.67)" fill="#b31c2a"/>
      <path id="Tracciato_9509" data-name="Tracciato 9509" d="M.984,1.9h-.3V1.886l.161-.172Zm-.29-.011h.29l-.14-.161Z" transform="translate(4.093 8.667)"/>
      <path id="Tracciato_9510" data-name="Tracciato 9510" d="M.737,1.886h.29l-.14-.172Z" transform="translate(4.62 8.67)" fill="#b31c2a"/>
      <path id="Tracciato_9511" data-name="Tracciato 9511" d="M1.038,1.9h-.3V1.886L.9,1.714Zm-.29-.011h.28L.9,1.725Z" transform="translate(4.62 8.667)"/>
      <path id="Tracciato_9512" data-name="Tracciato 9512" d="M.793,2.093l.14-.172h-.3Z" transform="translate(3.591 10.681)" fill="#b31c2a"/>
      <path id="Tracciato_9513" data-name="Tracciato 9513" d="M.792,2.093.631,1.921h.3ZM.642,1.921l.151.161.14-.161Z" transform="translate(3.586 10.687)"/>
      <path id="Tracciato_9514" data-name="Tracciato 9514" d="M.8,2.093.928,1.92H.66Z" transform="translate(3.864 10.681)" fill="#f4981a"/>
      <path id="Tracciato_9515" data-name="Tracciato 9515" d="M.809,2.093V2.082L.658,1.921h.28Zm-.14-.172.14.161.118-.161Z" transform="translate(3.849 10.687)"/>
      <path id="Tracciato_9516" data-name="Tracciato 9516" d="M.862,2.093.991,1.92H.712Z" transform="translate(4.371 10.681)" fill="#f4981a"/>
      <path id="Tracciato_9517" data-name="Tracciato 9517" d="M.862,2.093V2.082L.711,1.921H1Zm-.14-.172.14.161.129-.161Z" transform="translate(4.367 10.687)"/>
      <path id="Tracciato_9518" data-name="Tracciato 9518" d="M.845,2.093l.14-.172h-.3Z" transform="translate(4.103 10.681)" fill="#b31c2a"/>
      <path id="Tracciato_9519" data-name="Tracciato 9519" d="M.845,2.093.684,1.921h.3ZM.695,1.921l.151.161.14-.161Z" transform="translate(4.103 10.687)"/>
      <path id="Tracciato_9520" data-name="Tracciato 9520" d="M.9,2.093l.14-.172h-.3Z" transform="translate(4.623 10.681)" fill="#b31c2a"/>
      <path id="Tracciato_9521" data-name="Tracciato 9521" d="M.9,2.093.737,1.921h.3ZM.748,1.921.9,2.082l.14-.161Z" transform="translate(4.62 10.687)"/>
      <path id="Tracciato_9522" data-name="Tracciato 9522" d="M.534,1.866l.075.075H.986V1.791H.609Z" transform="translate(2.637 9.417)" fill="#f4981a"/>
      <path id="Tracciato_9523" data-name="Tracciato 9523" d="M.985,1.941H.608L.533,1.876.608,1.79H.985Zm-.377,0H.985V1.8H.608l-.075.075Z" transform="translate(2.63 9.409)"/>
      <path id="Tracciato_9524" data-name="Tracciato 9524" d="M.534,1.922.609,2H.986V1.847H.609Z" transform="translate(2.637 9.962)" fill="#f4981a"/>
      <path id="Tracciato_9525" data-name="Tracciato 9525" d="M.985,2H.608L.533,1.921l.075-.075H.985ZM.608,2H.985V1.846H.608l-.075.075Z" transform="translate(2.63 9.955)"/>
      <path id="Tracciato_9526" data-name="Tracciato 9526" d="M.534,1.894l.075.075H.986V1.819H.609Z" transform="translate(2.637 9.69)" fill="#f4981a"/>
      <path id="Tracciato_9527" data-name="Tracciato 9527" d="M.985,1.969H.608L.533,1.893l.075-.075H.985Zm-.377,0H.985v-.14H.608l-.075.065Z" transform="translate(2.63 9.682)"/>
      <path id="Tracciato_9528" data-name="Tracciato 9528" d="M.534,1.89l.075.075H.986V1.8H.609Z" transform="translate(2.637 9.545)" fill="#b31b2d"/>
      <path id="Tracciato_9529" data-name="Tracciato 9529" d="M.985,1.955H.608L.533,1.89V1.879L.608,1.8H.985Zm-.377,0H.985V1.8H.608L.533,1.89Z" transform="translate(2.63 9.545)"/>
      <path id="Tracciato_9530" data-name="Tracciato 9530" d="M.534,1.908l.075.075H.986V1.833H.609Z" transform="translate(2.637 9.825)" fill="#b31b2d"/>
      <path id="Tracciato_9531" data-name="Tracciato 9531" d="M.985,1.983H.608L.533,1.907l.075-.075H.985Zm-.377,0H.985V1.832H.608l-.075.075Z" transform="translate(2.63 9.818)"/>
      <path id="Tracciato_9532" data-name="Tracciato 9532" d="M.82,1.791v.151H1.2l.075-.075L1.2,1.791Z" transform="translate(5.429 9.415)" fill="#f4981a"/>
      <path id="Tracciato_9533" data-name="Tracciato 9533" d="M1.206,1.941H.819V1.79h.387l.075.075Zm-.377,0h.377l.065-.075L1.206,1.79H.83Z" transform="translate(5.42 9.409)"/>
      <path id="Tracciato_9534" data-name="Tracciato 9534" d="M.82,1.847V2H1.2l.075-.075L1.2,1.847Z" transform="translate(5.429 9.961)" fill="#f4981a"/>
      <path id="Tracciato_9535" data-name="Tracciato 9535" d="M1.206,2H.819V1.846h.387l.075.075ZM.83,2h.377l.065-.075-.065-.075H.83Z" transform="translate(5.42 9.955)"/>
      <path id="Tracciato_9536" data-name="Tracciato 9536" d="M.82,1.819v.151H1.2l.075-.075L1.2,1.819Z" transform="translate(5.429 9.689)" fill="#f4981a"/>
      <path id="Tracciato_9537" data-name="Tracciato 9537" d="M1.206,1.969H.819V1.818h.387l.075.086Zm-.377,0h.377L1.271,1.9l-.065-.086H.83Z" transform="translate(5.42 9.682)"/>
      <path id="Tracciato_9538" data-name="Tracciato 9538" d="M.82,1.8v.151H1.2l.075-.075L1.2,1.8Z" transform="translate(5.429 9.551)" fill="#b31b2d"/>
      <path id="Tracciato_9539" data-name="Tracciato 9539" d="M1.206,1.956H.819V1.805h.387l.075.075Zm-.377,0h.377l.065-.075-.065-.075H.83Z" transform="translate(5.42 9.555)"/>
      <path id="Tracciato_9540" data-name="Tracciato 9540" d="M.82,1.833v.151H1.2l.075-.075L1.2,1.833Z" transform="translate(5.429 9.824)" fill="#b31b2d"/>
      <path id="Tracciato_9541" data-name="Tracciato 9541" d="M1.206,1.984H.819V1.833h.387l.075.075Zm-.377,0h.377l.065-.075-.065-.075H.83Z" transform="translate(5.42 9.828)"/>
      <path id="Tracciato_9542" data-name="Tracciato 9542" d="M1.012,1.731l-.43.4V3.388l.43.387H2.637l.441-.4V2.14l-.441-.409ZM2.981,3.366,2.615,3.7H1.034L.679,3.366V2.14l.355-.333H2.615l.366.344Z" transform="translate(3.108 8.833)" fill="#02684a"/>
      <path id="Tracciato_9543" data-name="Tracciato 9543" d="M2.637,3.785H1.012l-.43-.4V2.128l.43-.4H2.637l.441.409V3.376ZM1.023,3.774H2.637l.441-.4V2.139L2.637,1.73H1.023l-.43.4V3.387Zm1.592-.065H1.034L.679,3.365V2.139l.355-.333H2.626l.355.355v1.2ZM1.034,3.7H2.615l.366-.333V2.16l-.366-.355H1.034l-.355.333V3.365Z" transform="translate(3.108 8.823)"/>
      <path id="Tracciato_9544" data-name="Tracciato 9544" d="M3.817,1.705H.966v.409H.525V3.867H.966v.42H3.817v-.42h.43V2.125h-.43Zm.333.516V3.77H3.72v.42H1.063V3.77H.622V2.211h.441V1.8H3.72v.42Z" transform="translate(2.552 8.579)" fill="#900"/>
      <path id="Tracciato_9545" data-name="Tracciato 9545" d="M3.817,4.287H.966v-.42H.525V2.114H.966V1.705H3.817v.42h.43V3.867h-.43Zm-2.851,0h2.84v-.43h.441V2.125h-.43v-.42H.966v.409H.525V3.867H.966Zm2.754-.1H1.063V3.77H.622V2.211L1.063,2.2V1.8H3.72v.42h.43V3.77H3.72Zm-2.657,0H3.709V3.76H4.15V2.221H3.72V1.8H1.063v.409H.622V3.77h.441Z" transform="translate(2.552 8.579)"/>
      <rect id="Rettangolo_825" data-name="Rettangolo 825" width="0.097" height="0.075" transform="translate(3.077 10.618)" fill="#02684a"/>
      <path id="Tracciato_9546" data-name="Tracciato 9546" d="M.622,1.811h-.1V1.736h.1Zm-.1,0H.611V1.736H.525Z" transform="translate(2.552 8.882)" fill="#023104"/>
      <rect id="Rettangolo_826" data-name="Rettangolo 826" width="0.075" height="0.086" transform="translate(2.991 10.714)" fill="#02684a"/>
      <path id="Tracciato_9547" data-name="Tracciato 9547" d="M.6,1.831H.517V1.745H.6Zm-.086,0H.592V1.745H.517Z" transform="translate(2.474 8.969)" fill="#023104"/>
      <rect id="Rettangolo_827" data-name="Rettangolo 827" width="0.097" height="0.075" transform="translate(3.518 10.209)" fill="#02684a"/>
      <path id="Tracciato_9548" data-name="Tracciato 9548" d="M.663,1.784h-.1V1.709h.1Zm-.1-.011h.1V1.7h-.1Z" transform="translate(2.952 8.511)" fill="#023104"/>
      <rect id="Rettangolo_828" data-name="Rettangolo 828" width="0.075" height="0.086" transform="translate(3.432 10.306)" fill="#02684a"/>
      <path id="Tracciato_9549" data-name="Tracciato 9549" d="M.644,1.793H.558V1.707H.644Zm-.075,0H.644V1.707H.569Z" transform="translate(2.874 8.599)" fill="#023104"/>
      <rect id="Rettangolo_829" data-name="Rettangolo 829" width="0.097" height="0.075" transform="translate(2.98 12.36)" fill="#02684a"/>
      <path id="Tracciato_9550" data-name="Tracciato 9550" d="M.613,1.973h-.1V1.9h.1Zm-.1-.011H.6V1.9H.516Z" transform="translate(2.464 10.462)" fill="#023104"/>
      <rect id="Rettangolo_830" data-name="Rettangolo 830" width="0.075" height="0.086" transform="translate(3.077 12.446)" fill="#02684a"/>
      <path id="Tracciato_9551" data-name="Tracciato 9551" d="M.611,2H.525V1.917H.611ZM.525,1.992H.6V1.906H.525Z" transform="translate(2.552 10.54)" fill="#023104"/>
      <rect id="Rettangolo_831" data-name="Rettangolo 831" width="0.097" height="0.075" transform="translate(3.421 12.78)" fill="#02684a"/>
      <path id="Tracciato_9552" data-name="Tracciato 9552" d="M.654,2.012h-.1V1.937h.1Zm-.1,0H.643V1.937H.557Z" transform="translate(2.864 10.843)" fill="#023104"/>
      <rect id="Rettangolo_832" data-name="Rettangolo 832" width="0.075" height="0.086" transform="translate(3.518 12.877)" fill="#02684a"/>
      <path id="Tracciato_9553" data-name="Tracciato 9553" d="M.651,2.042H.565V1.956H.651ZM.576,2.031H.651V1.945H.576Z" transform="translate(2.942 10.921)" fill="#023104"/>
      <rect id="Rettangolo_833" data-name="Rettangolo 833" width="0.097" height="0.075" transform="translate(6.702 10.628)" fill="#02684a"/>
      <path id="Tracciato_9554" data-name="Tracciato 9554" d="M.959,1.812h-.1V1.737h.1Zm-.1,0H.948V1.748H.862Z" transform="translate(5.84 8.891)" fill="#023104"/>
      <rect id="Rettangolo_834" data-name="Rettangolo 834" width="0.086" height="0.086" transform="translate(6.799 10.725)" fill="#02684a"/>
      <path id="Tracciato_9555" data-name="Tracciato 9555" d="M.956,1.832H.87V1.746H.956Zm-.075,0H.956V1.746H.881Z" transform="translate(5.918 8.979)" fill="#023104"/>
      <rect id="Rettangolo_835" data-name="Rettangolo 835" width="0.097" height="0.075" transform="translate(6.272 10.209)" fill="#02684a"/>
      <path id="Tracciato_9556" data-name="Tracciato 9556" d="M.919,1.784h-.1V1.709h.1Zm-.1-.011H.908V1.7H.822Z" transform="translate(5.45 8.511)" fill="#023104"/>
      <rect id="Rettangolo_836" data-name="Rettangolo 836" width="0.086" height="0.086" transform="translate(6.368 10.306)" fill="#02684a"/>
      <path id="Tracciato_9557" data-name="Tracciato 9557" d="M.917,1.793H.831V1.707H.917Zm-.086,0H.906V1.707H.831Z" transform="translate(5.537 8.599)" fill="#023104"/>
      <rect id="Rettangolo_837" data-name="Rettangolo 837" width="0.097" height="0.075" transform="translate(6.799 12.35)" fill="#02684a"/>
      <path id="Tracciato_9558" data-name="Tracciato 9558" d="M.968,1.972h-.1V1.9h.1Zm-.1,0H.957V1.9H.871Z" transform="translate(5.928 10.453)" fill="#023104"/>
      <rect id="Rettangolo_838" data-name="Rettangolo 838" width="0.075" height="0.086" transform="translate(6.713 12.446)" fill="#02684a"/>
      <path id="Tracciato_9559" data-name="Tracciato 9559" d="M.949,1.992H.863V1.906H.949Zm-.086,0H.938V1.906H.863Z" transform="translate(5.85 10.54)" fill="#023104"/>
      <rect id="Rettangolo_839" data-name="Rettangolo 839" width="0.097" height="0.075" transform="translate(6.358 12.78)" fill="#02684a"/>
      <path id="Tracciato_9560" data-name="Tracciato 9560" d="M.927,2.012H.83V1.937h.1Zm-.086,0H.927V1.937H.841Z" transform="translate(5.528 10.843)" fill="#023104"/>
      <rect id="Rettangolo_840" data-name="Rettangolo 840" width="0.075" height="0.086" transform="translate(6.282 12.877)" fill="#02684a"/>
      <path id="Tracciato_9561" data-name="Tracciato 9561" d="M.909,2.042H.823V1.956H.909ZM.823,2.031H.9V1.945H.823Z" transform="translate(5.459 10.921)" fill="#023104"/>
      <path id="Tracciato_9562" data-name="Tracciato 9562" d="M.993,1.923H.821v.161H.649v.14h.527V1.783H.993Z" transform="translate(3.762 9.344)" fill="#fff"/>
      <path id="Tracciato_9563" data-name="Tracciato 9563" d="M.649,1.986H.821v.161H.993v.14h.172V1.825H.649Z" transform="translate(3.764 9.748)" fill="#f4981a"/>
      <path id="Tracciato_9564" data-name="Tracciato 9564" d="M1.042,1.923H.87v-.14H.7v.441h.516v-.14H1.042Z" transform="translate(4.238 9.344)" fill="#f4981a"/>
      <path id="Tracciato_9565" data-name="Tracciato 9565" d="M.7,2.288H.87v-.14h.172V1.986h.172V1.825H.7Z" transform="translate(4.236 9.75)" fill="#fff"/>
      <path id="Tracciato_9566" data-name="Tracciato 9566" d="M.673,2.069H.942V1.8H.931a.264.264,0,0,0-.258.269" transform="translate(3.996 9.506)" fill="#b31b2d"/>
      <path id="Tracciato_9567" data-name="Tracciato 9567" d="M.673,1.836a.274.274,0,0,0,.258.28H.942v-.29H.673Z" transform="translate(3.996 9.75)" fill="#02684a"/>
      <path id="Tracciato_9568" data-name="Tracciato 9568" d="M.7,1.8v.28H.956A.274.274,0,0,0,.7,1.8" transform="translate(4.24 9.496)" fill="#02684a"/>
      <path id="Tracciato_9569" data-name="Tracciato 9569" d="M.7,1.825V2.1a.264.264,0,0,0,.258-.269V1.825Z" transform="translate(4.24 9.75)" fill="#b31b2d"/>
      <path id="Tracciato_9570" data-name="Tracciato 9570" d="M1.966,2.477.492,3.348V4.789l1.463.85H3.461l1.463-.871V3.348L3.44,2.477Z" transform="translate(2.232 16.108)" fill="#006a4e"/>
      <path id="Tracciato_9571" data-name="Tracciato 9571" d="M3.472,5.65H1.966L.492,4.79V3.348l1.485-.871H3.45l1.485.871v1.42ZM1.966,5.64h1.5l1.474-.871V3.348l-1.5-.871H1.977L.5,3.348V4.79Z" transform="translate(2.23 16.112)"/>
      <path id="Tracciato_9572" data-name="Tracciato 9572" d="M.5,3.311v.678H2.64V2.483H1.93Z" transform="translate(2.297 16.167)" fill="#fff"/>
      <path id="Tracciato_9573" data-name="Tracciato 9573" d="M2.651,3.989H.5V3.311L1.93,2.483h.721ZM.5,3.989H2.64V2.483H1.93L.5,3.311Z" transform="translate(2.298 16.171)"/>
      <path id="Tracciato_9574" data-name="Tracciato 9574" d="M.7,2.633h0v0Z" transform="translate(4.24 17.527)" fill="#f49919"/>
      <path id="Tracciato_9575" data-name="Tracciato 9575" d="M2.64,2.623H.5v.7l1.42.807H2.64V2.623Z" transform="translate(2.297 17.536)" fill="#f49919"/>
      <path id="Tracciato_9576" data-name="Tracciato 9576" d="M2.651,4.129H1.919L.5,3.322v-.7H2.64v.011h.011Zm-.732,0H2.64V2.623H.5v.7Z" transform="translate(2.298 17.537)"/>
      <path id="Tracciato_9577" data-name="Tracciato 9577" d="M.7,2.633V4.139H1.43L2.85,3.3V2.622H.7Z" transform="translate(4.242 17.531)" fill="#fff"/>
      <path id="Tracciato_9578" data-name="Tracciato 9578" d="M1.43,4.129H.7V2.623H2.85V3.3H2.839Zm-.732,0h.721L2.839,3.3V2.623H.7Z" transform="translate(4.24 17.537)"/>
      <path id="Tracciato_9579" data-name="Tracciato 9579" d="M.7,2.483V3.989H2.85V3.311L1.408,2.483Z" transform="translate(4.242 16.17)" fill="#f49919"/>
      <path id="Tracciato_9580" data-name="Tracciato 9580" d="M2.85,3.989H.7V2.483h.71l1.442.828ZM.7,3.989H2.839V3.311L1.408,2.483H.7Z" transform="translate(4.24 16.171)"/>
      <path id="Tracciato_9581" data-name="Tracciato 9581" d="M1.335,2.489h-.28l.215.2v.473l-.355.215H.625v.559H1.41V3.167H1.335Z" transform="translate(3.525 16.227)" fill="#f49919"/>
      <path id="Tracciato_9582" data-name="Tracciato 9582" d="M1.41,3.94H.625V3.381l.28.011.366-.215L1.26,2.7l-.215-.215h.29v.678H1.41Zm-.785,0H1.41V3.176H1.335V2.5h-.28l.215.2v.473L.9,3.392H.625Z" transform="translate(3.527 16.219)"/>
      <path id="Tracciato_9583" data-name="Tracciato 9583" d="M.625,3.172h.3l.344.2v.463l-.215.226h.28V3.377H1.41V2.624H.625Z" transform="translate(3.526 17.544)" fill="#fff"/>
      <path id="Tracciato_9584" data-name="Tracciato 9584" d="M1.346,4.075h-.29l.215-.226V3.387l-.344-.2h-.3V2.623H1.41v.764H1.346Zm-.29,0h.28V3.387l.075-.011V2.634H.625v.549h.3l.344.2V3.86Z" transform="translate(3.527 17.537)"/>
      <path id="Tracciato_9585" data-name="Tracciato 9585" d="M.7,3.377H.762l.011.7h.28L.838,3.85V3.387l.344-.2h.3V2.624H.7Z" transform="translate(4.239 17.541)" fill="#f49919"/>
      <path id="Tracciato_9586" data-name="Tracciato 9586" d="M1.064,4.075H.773L.763,3.387H.7V2.623h.785v.559h-.29l-.344.2-.011.463Zm-.29,0h.28L.838,3.86V3.387H.849l.333-.2h.3V2.634H.7v.742H.773Z" transform="translate(4.24 17.537)"/>
      <path id="Tracciato_9587" data-name="Tracciato 9587" d="M.837,3.167V2.7l.226-.215H.773v.678H.7v.775h.785V3.382H1.2Z" transform="translate(4.234 16.228)" fill="#fff"/>
      <path id="Tracciato_9588" data-name="Tracciato 9588" d="M1.483,3.94H.7V3.166H.763V2.488h.3L.827,2.7v.463l.366.215h.29ZM.7,3.94h.785V3.392h-.29L.827,3.176V2.7l.226-.2H.763v.678H.7Z" transform="translate(4.24 16.219)"/>
      <path id="Tracciato_9589" data-name="Tracciato 9589" d="M1.362,2.936V2.528l-.85.409Z" transform="translate(2.43 16.605)" fill="#f49919"/>
      <path id="Tracciato_9590" data-name="Tracciato 9590" d="M1.382,2.947H.511l.871-.42ZM.543,2.936h.828v-.4Z" transform="translate(2.415 16.6)" fill="#caa600"/>
      <path id="Tracciato_9591" data-name="Tracciato 9591" d="M.8,2.936h.85L.8,2.528Z" transform="translate(5.279 16.605)" fill="#fff"/>
      <path id="Tracciato_9592" data-name="Tracciato 9592" d="M1.675,2.947H.8v-.42H.815ZM.815,2.936h.828l-.828-.4Z" transform="translate(5.274 16.6)" fill="#caa600"/>
      <path id="Tracciato_9593" data-name="Tracciato 9593" d="M1.362,3.091V2.682H.512Z" transform="translate(2.43 18.111)" fill="#fff"/>
      <path id="Tracciato_9594" data-name="Tracciato 9594" d="M1.382,3.1h0l-.871-.42h.871ZM.543,2.692l.828.4v-.4Z" transform="translate(2.415 18.103)" fill="#caa600"/>
      <path id="Tracciato_9595" data-name="Tracciato 9595" d="M.8,3.091l.85-.409H.8Z" transform="translate(5.279 18.111)" fill="#f49919"/>
      <path id="Tracciato_9596" data-name="Tracciato 9596" d="M.8,3.1v-.42h.871Zm.011-.409v.4l.828-.4Z" transform="translate(5.274 18.103)" fill="#caa600"/>
      <path id="Tracciato_9597" data-name="Tracciato 9597" d="M.9,2.712h-.2v-.2H.618v.484H.694V2.777H.9v.215H.973V2.508H.9Z" transform="translate(3.462 16.413)" fill="#be1636"/>
      <path id="Tracciato_9598" data-name="Tracciato 9598" d="M1.014,2.712H.81v-.2H.745v.484H.81V2.777h.2v.215h.075V2.508H1.014Z" transform="translate(4.699 16.413)" fill="#be1636"/>
      <path id="Tracciato_9599" data-name="Tracciato 9599" d="M.9,2.9h-.2v-.2H.618v.484H.694V2.962H.9v.215H.973V2.693H.9Z" transform="translate(3.462 18.221)" fill="#be1636"/>
      <path id="Tracciato_9600" data-name="Tracciato 9600" d="M.808,2.777H.6v-.2H.54v.484H.6V2.842h.2v.215H.884V2.573H.808Z" transform="translate(2.693 17.046)" fill="#be1636"/>
      <path id="Tracciato_9601" data-name="Tracciato 9601" d="M.808,2.834H.6v-.2H.54v.484H.6V2.9h.2v.215H.884V2.63H.808Z" transform="translate(2.693 17.606)" fill="#be1636"/>
      <path id="Tracciato_9602" data-name="Tracciato 9602" d="M1.1,2.777H.9v-.2H.824v.484H.9V2.842h.2v.215h.075V2.573H1.1Z" transform="translate(5.465 17.046)" fill="#be1636"/>
      <path id="Tracciato_9603" data-name="Tracciato 9603" d="M1.1,2.834H.9v-.2H.824v.484H.9V2.9h.2v.215h.075V2.63H1.1Z" transform="translate(5.465 17.606)" fill="#be1636"/>
      <path id="Tracciato_9604" data-name="Tracciato 9604" d="M1.024,2.9H.82v-.2H.744v.484H.82V2.962h.2v.215H1.1V2.693H1.024Z" transform="translate(4.691 18.221)" fill="#be1636"/>
      <path id="Tracciato_9605" data-name="Tracciato 9605" d="M1.332,2.553l-.484.28H.633V3.79H.848l.495.258.484-.269h.226V2.833H1.816Z" transform="translate(3.602 16.855)" fill="#be1636"/>
      <path id="Tracciato_9606" data-name="Tracciato 9606" d="M1.561,2.576H1.27V2.77h.075V2.641H1.5v.14l-.29.247-.29-.247v-.14h.151V2.77H1.13V2.576H.851V2.77h-.2v.247H.84V2.953H.711V2.835H.861l.29.247-.29.247H.711V3.211H.84V3.136H.646v.247h.2v.194h.28V3.383H1.066v.129H.915V3.383l.29-.258.29.258v.129H1.345V3.383H1.27v.194h.29V3.383h.2V3.136H1.571v.075H1.7v.118H1.539l-.28-.247.28-.247H1.7v.118H1.571v.065h.194V2.77h-.2Z" transform="translate(3.734 17.082)" fill="#006a4e"/>
      <path id="Tracciato_9607" data-name="Tracciato 9607" d="M.775,3.924l-.054-.1.172-.28L.785,3.364l.1-.172.108.172.022.022.043.065L1.431,2.8,1.054,2.16l-.043.065L.99,2.256l-.108.172-.1-.172.108-.183-.172-.29.054-.1L.4,1.052v.183l.269.452-.065.1.172.29L.731,2.16.624,1.977l-.065.1L.936,2.7.99,2.6.947,2.525l.108-.172.269.452-.269.463L.947,3.1.99,3.02l-.054-.1-.377.624.065.086.108-.172.043.086L.6,3.838l.065.1L.4,4.376v.194Z" transform="translate(1.312 2.203)" fill="#f4981a"/>
      <path id="Tracciato_9608" data-name="Tracciato 9608" d="M.462,1.8H.634l.1-.086-.1-.1H.462v-.3L.4,1.163v1.1l.065-.172Z" transform="translate(1.308 3.291)" fill="#f4981a"/>
      <path id="Tracciato_9609" data-name="Tracciato 9609" d="M1.677,3.9l.054-.1-.172-.29.054-.086L1.72,3.6l.065-.086-.377-.624-.065.1.054.075-.108.172-.269-.452.269-.463L1.4,2.5l-.054.075.065.1.377-.624L1.72,1.958l-.108.172-.054-.086.172-.29-.054-.1.247-.409V1.054l-.355.613.043.1-.161.28.108.183L1.451,2.4l-.108-.172-.011-.022L1.289,2.13.9,2.775v.011l.387.645.043-.075.011-.022.108-.172.108.172-.108.183.161.28-.043.1.355.613V4.324Z" transform="translate(6.232 2.229)" fill="#f4981a"/>
      <path id="Tracciato_9610" data-name="Tracciato 9610" d="M1.237,1.275v.29H1.065l-.1.108.108.086h.161v.29l.043.118v-1Z" transform="translate(6.875 3.332)" fill="#f4981a"/>
      <path id="Tracciato_9611" data-name="Tracciato 9611" d="M.774,1.885l-.054-.1.172-.28L.785,1.326l.108-.172.1.172.022.022.043.065L1.441.766h0L1.43.756H1.312l.011.011-.28.463-.1-.172L.989.982.936.885l-.377.624.065.086.108-.183.043.1L.6,1.8l.065.1L.4,2.337v.194Z" transform="translate(1.31 -0.685)" fill="#f4981a"/>
      <path id="Tracciato_9612" data-name="Tracciato 9612" d="M.462.842H.634l.1-.086H.4v.538l.065-.161Z" transform="translate(1.304 -0.68)" fill="#f4981a"/>
      <path id="Tracciato_9613" data-name="Tracciato 9613" d="M1.675,1.875l.065-.1-.183-.29L1.611,1.4l.108.183.065-.1L1.406.864l-.054.1.043.086-.108.161L1.019.756H.9l.387.645.043-.075L1.342,1.3l.108-.172.108.172-.108.183.161.28-.043.1.377.635V2.316Z" transform="translate(6.219 -0.679)" fill="#f4981a"/>
      <path id="Tracciato_9614" data-name="Tracciato 9614" d="M.968.756l.086.075h.172l.011.3.054.151V.756Z" transform="translate(6.871 -0.683)" fill="#f4981a"/>
      <path id="Tracciato_9615" data-name="Tracciato 9615" d="M.785,4.33l-.054-.1L.9,3.954.8,3.771.9,3.6l.108.172.011.022.043.065.387-.645h0l-.387-.645-.043.065-.011.032L.9,2.835.8,2.663.9,2.48.731,2.19.785,2.1.408,1.458H.4V1.63l.28.463-.065.1.183.28-.054.1L.634,2.394.57,2.48.946,3.1,1,3.007.957,2.921l.108-.161.269.452-.269.463L.957,3.5,1,3.427l-.054-.1L.57,3.954l.065.086.108-.172L.8,3.954l-.183.29.065.1L.4,4.8v.161l.011.011Z" transform="translate(1.309 6.17)" fill="#f4981a"/>
      <path id="Tracciato_9616" data-name="Tracciato 9616" d="M.472,2.224H.645l.1-.086-.1-.1H.472v-.3L.4,1.568v1.14l.075-.194Z" transform="translate(1.304 7.239)" fill="#f4981a"/>
      <path id="Tracciato_9617" data-name="Tracciato 9617" d="M1.676,4.321l.054-.1-.172-.29.054-.086.108.172.054-.086L1.4,3.31l-.054.1.054.075-.108.172L1.009,3.2l.28-.463.108.172-.054.075.054.1.377-.624-.054-.086-.108.172L1.558,2.46l.172-.29-.054-.1.247-.42V1.46l-.366.624.054.1-.161.28.1.183-.1.172-.108-.172-.022-.022-.032-.065L.9,3.2l.387.645.032-.075.022-.022.108-.172.1.172-.1.183.161.29-.054.086.366.624V4.741Z" transform="translate(6.229 6.188)" fill="#f4981a"/>
      <path id="Tracciato_9618" data-name="Tracciato 9618" d="M1.237,1.692v.29H1.065l-.1.1.1.1h.172v.29l.054.129V1.573Z" transform="translate(6.872 7.293)" fill="#f4981a"/>
      <path id="Tracciato_9619" data-name="Tracciato 9619" d="M.774,4.738l-.054-.1.172-.28L.785,4.178l.1-.172.108.172.022.022.043.065.377-.645-.377-.645-.043.065L.99,3.07l-.108.172-.1-.172.108-.183-.172-.28L.774,2.5.4,1.865v.183L.667,2.5.6,2.6l.172.29-.054.086L.624,2.8l-.065.086.377.624.054-.1L.947,3.339l.1-.172.28.452-.28.463-.1-.172L.99,3.834l-.054-.1-.377.624.065.086.1-.172.054.086L.6,4.651l.065.1L.4,5.189v.194Z" transform="translate(1.311 10.143)" fill="#f4981a"/>
      <path id="Tracciato_9620" data-name="Tracciato 9620" d="M.462,2.612H.634l.1-.086-.1-.1H.462v-.3L.4,1.977v1.1L.462,2.9Z" transform="translate(1.306 11.232)" fill="#f4981a"/>
      <path id="Tracciato_9621" data-name="Tracciato 9621" d="M1.676,4.728l.054-.1-.172-.29.054-.086.108.172.065-.086-.377-.624-.065.1L1.4,3.9l-.108.161L1.02,3.609l.269-.463.108.172-.054.075.065.1.377-.624-.065-.086-.108.172-.054-.086.172-.29-.054-.1.258-.43V1.867l-.377.624.054.1-.161.28.108.183-.108.172L1.342,3.05l-.011-.022-.043-.075L.9,3.609l.387.645.043-.065.011-.032.108-.172.108.172-.108.183.161.28-.054.1.377.635V5.158Z" transform="translate(6.224 10.156)" fill="#f4981a"/>
      <path id="Tracciato_9622" data-name="Tracciato 9622" d="M1.236,2.108V2.4H1.064l-.1.1.1.1h.172v.29l.054.14V1.979Z" transform="translate(6.869 11.251)" fill="#f4981a"/>
      <path id="Tracciato_9623" data-name="Tracciato 9623" d="M.784,5.119l-.054-.1L.9,4.742.8,4.56l.1-.172L1,4.549V4.56l.022.022.043.065L1.441,4l-.377-.645-.043.065L1,3.452l-.108.172L.8,3.452.9,3.269l-.172-.29.054-.1L.408,2.247H.4V2.43l.28.452-.065.1.172.29-.054.086-.1-.183-.065.1.377.624L1,3.785.957,3.71l.1-.161L1.333,4l-.28.463-.1-.172L1,4.215l-.054-.1-.377.624.065.086.1-.172.054.086-.172.29.065.1L.4,5.571v.183H.408Z" transform="translate(1.305 13.865)" fill="#f4981a"/>
      <path id="Tracciato_9624" data-name="Tracciato 9624" d="M.462,3H.634l.1-.086-.1-.1H.462v-.3L.4,2.357V3.476l.065-.183Z" transform="translate(1.309 14.943)" fill="#f4981a"/>
      <path id="Tracciato_9625" data-name="Tracciato 9625" d="M1.676,5.11l.054-.1-.172-.29.054-.086.108.172.054-.086L1.407,4.1l-.065.1.054.075-.108.172-.28-.463.28-.452L1.4,3.7l-.054.075.065.1.366-.624-.054-.086-.108.172-.054-.086.172-.29-.054-.1.258-.42V2.248l-.366.624.043.1-.161.28.108.183L1.45,3.6l-.108-.172L1.332,3.41l-.043-.075L.9,3.98l.387.656.043-.075.011-.022.108-.172.108.172-.108.183L1.612,5l-.043.1.366.624V5.529Z" transform="translate(6.226 13.881)" fill="#f4981a"/>
      <path id="Tracciato_9626" data-name="Tracciato 9626" d="M1.237,2.48v.29H1.065l-.1.108.1.086h.172v.29l.054.129V2.361Z" transform="translate(6.871 14.984)" fill="#f4981a"/>
      <path id="Tracciato_9627" data-name="Tracciato 9627" d="M.966,2.85c-.086.14.032.441.172.624a.536.536,0,0,0-.613-.032c.1.194.549.215.764.172.075-.129-.108-.775-.323-.764" transform="translate(2.552 19.751)" fill="#f4981a"/>
      <path id="Tracciato_9628" data-name="Tracciato 9628" d="M1.029,2.815c-.108.129-.043.441.054.645A.525.525,0,0,0,.491,3.31c.043.2.495.323.71.323.1-.118.043-.775-.172-.818" transform="translate(2.22 19.41)" fill="#f4981a"/>
      <path id="Tracciato_9629" data-name="Tracciato 9629" d="M1.049,2.779c-.118.108-.108.42-.043.635a.483.483,0,0,0-.538-.226c.011.2.42.377.624.4.108-.086.161-.742-.043-.807" transform="translate(1.995 19.059)" fill="#f4981a"/>
      <path id="Tracciato_9630" data-name="Tracciato 9630" d="M.447,3.016c.151-.043.409.14.559.312a.5.5,0,0,1,.1-.581c.172.118.086.57,0,.753-.14.043-.71-.28-.656-.484" transform="translate(1.758 18.747)" fill="#f4981a"/>
      <path id="Tracciato_9631" data-name="Tracciato 9631" d="M.442,2.867c.161-.022.387.2.495.387a.49.49,0,0,1,.194-.549c.151.151,0,.57-.118.742-.14.022-.656-.387-.57-.581" transform="translate(1.645 18.346)" fill="#f4981a"/>
      <path id="Tracciato_9632" data-name="Tracciato 9632" d="M.522,2.653c.247.032.4.732.194.871C.544,3.471.329,2.75.522,2.653" transform="translate(1.78 17.829)" fill="#f4981a"/>
      <path id="Tracciato_9633" data-name="Tracciato 9633" d="M1.15,2.85c.075.14-.043.441-.183.624a.536.536,0,0,1,.613-.032c-.086.194-.549.215-.764.172-.075-.129.108-.775.333-.764" transform="translate(5.229 19.751)" fill="#f4981a"/>
      <path id="Tracciato_9634" data-name="Tracciato 9634" d="M1.065,2.815c.108.129.032.441-.065.645a.525.525,0,0,1,.592-.151c-.043.2-.495.323-.71.323-.1-.118-.043-.775.183-.818" transform="translate(5.584 19.41)" fill="#f4981a"/>
      <path id="Tracciato_9635" data-name="Tracciato 9635" d="M1.009,2.779c.118.108.108.42.032.635a.489.489,0,0,1,.538-.226c-.011.2-.409.377-.613.4-.118-.086-.172-.742.043-.807" transform="translate(5.844 19.059)" fill="#f4981a"/>
      <path id="Tracciato_9636" data-name="Tracciato 9636" d="M1.639,3.016c-.151-.043-.409.14-.559.312a.5.5,0,0,0-.1-.581c-.172.118-.086.57,0,.753.14.043.71-.28.656-.484" transform="translate(6.052 18.747)" fill="#f4981a"/>
      <path id="Tracciato_9637" data-name="Tracciato 9637" d="M1.651,2.867c-.161-.022-.387.2-.506.387a.49.49,0,0,0-.194-.549c-.14.151.011.57.129.742.14.022.656-.387.57-.581" transform="translate(6.169 18.346)" fill="#f4981a"/>
      <path id="Tracciato_9638" data-name="Tracciato 9638" d="M1.207,2.653c-.247.032-.4.732-.194.871.172-.054.377-.775.194-.871" transform="translate(6.387 17.829)" fill="#f4981a"/>
      <path id="Tracciato_9639" data-name="Tracciato 9639" d="M.5,2.914c.947.484,1.183.011,1.528,0a1.421,1.421,0,0,1,1.14.463,1.641,1.641,0,0,0-1.087-.194C1.558,3.3,1.354,3.646.5,2.914" transform="translate(2.347 20.354)" fill="#f4981a"/>
      <path id="Tracciato_9640" data-name="Tracciato 9640" d="M3.317,2.914c-.947.484-1.194.011-1.528,0a1.421,1.421,0,0,0-1.14.463,1.641,1.641,0,0,1,1.087-.194c.527.118.732.463,1.581-.269" transform="translate(3.762 20.354)" fill="#f4981a"/>
      <path id="Tracciato_9641" data-name="Tracciato 9641" d="M4.214.988A2.958,2.958,0,0,1,2.439,6.313a2.982,2.982,0,0,1-1.076-.194A3.033,3.033,0,0,0,3.31,6.84a2.995,2.995,0,0,0,.9-5.852" transform="translate(10.728 1.583)" fill="#fff"/>
      <path id="Tracciato_9642" data-name="Tracciato 9642" d="M1.533.977l.333.237L2.2.966l-.118.387.333.247H2.006L1.877,2l-.129-.387H1.339l.323-.247Z" transform="translate(10.497 1.371)" fill="#fff"/>
      <path id="Tracciato_9643" data-name="Tracciato 9643" d="M1.672,1.048l.333.237.333-.247-.129.4.344.237h-.42l-.118.4-.129-.387H1.478L1.8,1.436Z" transform="translate(11.854 2.068)" fill="#fff"/>
      <path id="Tracciato_9644" data-name="Tracciato 9644" d="M1.533,1.119l.333.237L2.2,1.108l-.118.4.333.237H2.006l-.129.4-.129-.4-.409.011.323-.247Z" transform="translate(10.497 2.758)" fill="#fff"/>
      <path id="Tracciato_9645" data-name="Tracciato 9645" d="M1.394,1.187l.333.237.333-.247-.129.4.344.237h-.42l-.118.4-.129-.387H1.2l.323-.247Z" transform="translate(9.142 3.423)" fill="#fff"/>
      <path id="Tracciato_9646" data-name="Tracciato 9646" d="M1.533,1.26l.333.237L2.2,1.25l-.118.4.333.237H2.006l-.129.4-.129-.387H1.339l.323-.247Z" transform="translate(10.497 4.135)" fill="#fff"/>
    </g>
  </g>
</svg>
