<svg xmlns="http://www.w3.org/2000/svg" xmlns:xlink="http://www.w3.org/1999/xlink" width="24" height="23.989" viewBox="0 0 24 23.989">
  <defs>
    <clipPath id="clip-path">
      <path id="Tracciato_9677" data-name="Tracciato 9677" d="M.545,12.744A12,12,0,1,0,12.55.749,11.994,11.994,0,0,0,.545,12.744" transform="translate(-0.545 -0.749)" fill="none"/>
    </clipPath>
  </defs>
  <g id="Uganda_" data-name="Uganda " transform="translate(-0.545 -0.749)">
    <g id="Raggruppa_264" data-name="Raggruppa 264" transform="translate(0.545 0.749)" clip-path="url(#clip-path)">
      <rect id="Rettangolo_845" data-name="Rettangolo 845" width="35.715" height="23.817" transform="translate(-5.863 0.086)"/>
      <rect id="Rettangolo_846" data-name="Rettangolo 846" width="35.715" height="19.848" transform="translate(-5.863 4.056)" fill="#ffed00"/>
      <rect id="Rettangolo_847" data-name="Rettangolo 847" width="35.715" height="15.878" transform="translate(-5.863 8.025)" fill="#de3908"/>
      <rect id="Rettangolo_848" data-name="Rettangolo 848" width="35.715" height="11.909" transform="translate(-5.863 11.995)"/>
      <rect id="Rettangolo_849" data-name="Rettangolo 849" width="35.715" height="7.961" transform="translate(-5.863 15.943)" fill="#ffed00"/>
      <rect id="Rettangolo_850" data-name="Rettangolo 850" width="35.715" height="3.98" transform="translate(-5.863 19.923)" fill="#de3908"/>
      <path id="Tracciato_9659" data-name="Tracciato 9659" d="M8.717,5.219a3.7,3.7,0,1,1-3.7-3.7,3.7,3.7,0,0,1,3.7,3.7" transform="translate(6.978 6.755)" fill="#fff"/>
      <path id="Tracciato_9660" data-name="Tracciato 9660" d="M5.036,8.95A3.717,3.717,0,1,1,8.747,5.228,3.723,3.723,0,0,1,5.036,8.95m0-7.4A3.679,3.679,0,1,0,8.715,5.228,3.684,3.684,0,0,0,5.036,1.549" transform="translate(6.959 6.745)"/>
      <path id="Tracciato_9661" data-name="Tracciato 9661" d="M1.9,2.21l-.333-.42a1.036,1.036,0,0,1,.8-.237,1.1,1.1,0,0,1,.871.893l-.506.043c-.269-.1-.549-.183-.828-.28" transform="translate(9.447 6.999)" fill="#de3108"/>
      <path id="Tracciato_9662" data-name="Tracciato 9662" d="M2.75,2.52h0l-.828-.28H1.911l-.344-.43.011-.022a1.087,1.087,0,0,1,.667-.247l.151.011a1.087,1.087,0,0,1,.871.9v.022H3.256l-.495.043Zm-.818-.312.828.269.473-.032a1.079,1.079,0,0,0-.85-.861l-.14-.011A1.075,1.075,0,0,0,1.61,1.8Z" transform="translate(9.427 6.979)"/>
      <path id="Tracciato_9663" data-name="Tracciato 9663" d="M1.622,2.276c.011-.237.011-.484.022-.732a1.052,1.052,0,0,1,.506.1.9.9,0,0,1,.258.2l-.387.57c-.129-.054-.269-.086-.4-.14" transform="translate(9.964 7.008)" fill="#ffe700"/>
      <path id="Tracciato_9664" data-name="Tracciato 9664" d="M2.039,2.451h0l-.2-.075-.194-.065-.022-.022.022-.721.011-.022a.929.929,0,0,1,.516.1.849.849,0,0,1,.269.2l.011.011L2.06,2.44Zm-.377-.172.194.065.183.065L2.4,1.859a1.336,1.336,0,0,0-.247-.183.933.933,0,0,0-.484-.1Z" transform="translate(9.935 6.984)"/>
      <path id="Tracciato_9665" data-name="Tracciato 9665" d="M3.178,2.4a.645.645,0,0,0,.075-.538.557.557,0,0,0-.6-.269.5.5,0,0,0-.377.28.489.489,0,0,0,0,.312.691.691,0,0,0-.42.118l-.129.108c.194-.022.387-.054.581-.086l-.516.129a1.237,1.237,0,0,0,.29.011l.226-.043a.238.238,0,0,0-.075.215.21.21,0,0,0,.086.151,1.693,1.693,0,0,0-.6.925A1.181,1.181,0,0,0,1.78,4.6a1,1,0,0,0,.237.29l.043-.032a.988.988,0,0,0,.387.377,1.114,1.114,0,0,0,.258.1l.161.172L3,5.63v.549a7.98,7.98,0,0,0-1-.011.55.55,0,0,0-.3.086c-.237.183-.172.624-.151.721l.151-.312.043.151.1.118a.384.384,0,0,1-.022-.2.543.543,0,0,1,.075-.2.333.333,0,0,0,.043.226l.086.1A.483.483,0,0,1,2.1,6.6a.571.571,0,0,1,.237-.215c.215.011.441.011.667.022.022.355.054.7.075,1.054A1.173,1.173,0,0,0,2.4,7.5a1.176,1.176,0,0,0-.269.161l.538.022a.369.369,0,0,0-.172.226A.651.651,0,0,0,2.49,8.1a1.783,1.783,0,0,1,.538-.344,1.75,1.75,0,0,1,.893-.086.69.69,0,0,0-.613-.237c-.022-.344-.032-.7-.054-1.043l.581.011a.268.268,0,0,0,.118-.161c.022-.1-.054-.172-.118-.258a1.115,1.115,0,0,1-.14-.452,1.831,1.831,0,0,1,.344,0,1.729,1.729,0,0,1,.495.129L4.372,4.651A1.613,1.613,0,0,1,2.834,3.78a1.453,1.453,0,0,1-.011-.71A1.446,1.446,0,0,1,3,2.629.861.861,0,0,0,3.178,2.4" transform="translate(8.956 7.419)"/>
      <path id="Tracciato_9666" data-name="Tracciato 9666" d="M2.114,1.975,2.049,2.1c-.065.086-.269.194-.366.108a.108.108,0,0,1-.054-.118l.022-.054L1.716,2c.075-.032.161-.032.215-.086A.148.148,0,0,0,2,1.77a.274.274,0,0,0-.032-.161A.43.43,0,0,1,2.1,1.8a.466.466,0,0,1,.011.172" transform="translate(10.01 7.642)" fill="#9ca6ab"/>
      <path id="Tracciato_9667" data-name="Tracciato 9667" d="M2.128,1.715a1.652,1.652,0,0,0-.559,1.173,1.4,1.4,0,0,0,.14.645l.011-.28.161.108-.075-.247.247.065-.118-.247H2.15a1.078,1.078,0,0,1-.129-.645,3.286,3.286,0,0,1,.172-.559c.011-.032-.011-.065-.065-.011" transform="translate(9.436 8.397)" fill="#9ca6ab"/>
      <path id="Tracciato_9668" data-name="Tracciato 9668" d="M1.706,1.662l-.043.022a.354.354,0,0,0-.075.172.2.2,0,0,0,.065.161l.022.011.032-.011A.252.252,0,0,0,1.825,1.9a.129.129,0,0,0,0-.151.162.162,0,0,0-.1-.075Z" transform="translate(9.632 8.16)" fill="#de3108"/>
      <path id="Tracciato_9669" data-name="Tracciato 9669" d="M2.364,2.488l-.011-.022-.086-.075L2.16,2.316a1.519,1.519,0,0,1-.484-.42c-.043-.054-.054,0-.043.054l.022.108.1.237a.294.294,0,0,0,.1.129l.14.043h.161l.151.043.065-.022" transform="translate(10.029 10.228)" fill="#9ca6ab"/>
      <path id="Tracciato_9670" data-name="Tracciato 9670" d="M3.346,3.978a1.5,1.5,0,0,0-.667-.764c-.118-.065-.183-.086-.4-.194-.29-.151-.452-.226-.559-.42a.815.815,0,0,1-.065-.57.384.384,0,0,1,.151-.247c.161-.054.366.172.6.333a1.948,1.948,0,0,0,1.011.323.586.586,0,0,1-.4.054c.215.129.441.247.656.377-.118.366-.226.742-.333,1.108" transform="translate(10.036 9.265)" fill="#9ca6ab"/>
      <path id="Tracciato_9671" data-name="Tracciato 9671" d="M3.367,4.012,3.345,4a1.5,1.5,0,0,0-.656-.775L2.56,3.172l-.269-.118c-.29-.161-.463-.247-.57-.441a.782.782,0,0,1-.065-.57c.032-.086.065-.2.172-.247l.065-.022a.748.748,0,0,1,.366.2l.183.14a2.206,2.206,0,0,0,1,.333l.011.011v.011a.846.846,0,0,1-.323.065l.57.323.011.011L3.378,4ZM1.893,1.806l-.054.011c-.1.032-.129.151-.151.237a.717.717,0,0,0,.065.549c.1.183.258.269.559.42l.258.129L2.7,3.2a1.441,1.441,0,0,1,.656.753l.323-1.076-.645-.366V2.506l.022-.011a.511.511,0,0,0,.323-.032A2.246,2.246,0,0,1,2.42,2.14L2.237,2a.667.667,0,0,0-.344-.194" transform="translate(10.015 9.252)"/>
      <path id="Tracciato_9672" data-name="Tracciato 9672" d="M2.118,1.836a5.167,5.167,0,0,1,.71.29,1.36,1.36,0,0,1,.688.559A1.244,1.244,0,0,1,3.6,3.17a1.462,1.462,0,0,1-.4.893,1.631,1.631,0,0,1-.688.441l.161-.28c-.183.118-.247.151-.269.129s.129-.151.108-.194-.129-.011-.247.032c.2-.1.312-.161.3-.194-.011-.011-.075-.011-.2.011a.7.7,0,0,0,.409-.377.718.718,0,0,0,.011-.506.583.583,0,0,1-.1.323.71.71,0,0,1-.161.183.96.96,0,0,0-.032-.645c-.129-.312-.215-.452-.581-.484.043-.054.086-.086.237-.1a.358.358,0,0,0-.172-.172.336.336,0,0,0-.269-.043.546.546,0,0,1,.28-.075.663.663,0,0,1,.452.172.768.768,0,0,0-.075-.194.7.7,0,0,0-.247-.258" transform="translate(10.813 9.857)" fill="#de3100"/>
      <path id="Tracciato_9673" data-name="Tracciato 9673" d="M2.526,4.534H2.515V4.513l.129-.237c-.151.1-.194.118-.215.118l-.011-.011.032-.1.065-.108-.032-.011-.2.054-.022-.011.011-.022c.247-.118.29-.161.29-.172H2.536l-.161.022-.011-.011V4.018a.733.733,0,0,0,.4-.377.671.671,0,0,0,.043-.42.987.987,0,0,1-.1.247.589.589,0,0,1-.172.194H2.526l-.011-.011a.9.9,0,0,0-.022-.645c-.129-.312-.226-.441-.57-.473l-.011-.011V2.512c.032-.065.086-.1.226-.108a.4.4,0,0,0-.151-.151.368.368,0,0,0-.194-.043H1.719L1.708,2.2V2.189A.586.586,0,0,1,2,2.114h.011a.662.662,0,0,1,.42.151l-.065-.151c-.1-.151-.194-.237-.247-.247V1.856l.011-.022.118.043a5.9,5.9,0,0,1,.6.247,1.417,1.417,0,0,1,.688.57,1.084,1.084,0,0,1,.086.484,1.431,1.431,0,0,1-.4.9A1.711,1.711,0,0,1,2.526,4.534Zm.161-.312H2.7v.022l-.14.247a1.553,1.553,0,0,0,.645-.43,1.364,1.364,0,0,0,.387-.882,1.043,1.043,0,0,0-.075-.473,1.394,1.394,0,0,0-.678-.549,3.725,3.725,0,0,0-.6-.247L2.224,1.9a1.128,1.128,0,0,1,.161.2.764.764,0,0,1,.086.194l-.011.022H2.44a.618.618,0,0,0-.43-.183H2l-.2.043a.445.445,0,0,1,.2.054.438.438,0,0,1,.172.183v.011l-.011.011c-.129.011-.183.022-.215.065.344.043.441.172.581.495a.879.879,0,0,1,.032.613.566.566,0,0,0,.129-.151.6.6,0,0,0,.1-.312V3.136h.022a.761.761,0,0,1-.011.516A.776.776,0,0,1,2.472,4h.065l.054.011c.011.022,0,.054-.172.14.065-.011.1-.011.118.011.022.043-.022.1-.065.151l-.032.054a.912.912,0,0,0,.237-.14Z" transform="translate(10.803 9.838)"/>
      <path id="Tracciato_9674" data-name="Tracciato 9674" d="M1.712,2.2a.363.363,0,0,1-.054-.183l.022-.086a.2.2,0,0,1,.215-.118.387.387,0,0,1,.237.1l.226.161a1.09,1.09,0,0,0,.42.1l.108.032A.442.442,0,0,1,3.11,2.4l.14.215-.226-.118A.142.142,0,0,0,2.9,2.471c.032.129.151.215.151.344-.129,0-.215-.129-.333-.183a.5.5,0,0,1,.054.226A.627.627,0,0,0,2.6,2.74a.268.268,0,0,0-.183-.032,1.847,1.847,0,0,0-.495-.366.419.419,0,0,1-.215-.14" transform="translate(10.315 9.642)" fill="#fff"/>
      <path id="Tracciato_9675" data-name="Tracciato 9675" d="M2.776,2.879H2.765A.426.426,0,0,0,2.6,2.771a.249.249,0,0,0-.172-.032H2.421a2.033,2.033,0,0,0-.495-.366l-.032-.011a.468.468,0,0,1-.194-.14.308.308,0,0,1-.043-.183l.011-.086a.224.224,0,0,1,.226-.14.455.455,0,0,1,.258.1l.065.065.151.1a1.273,1.273,0,0,0,.409.108l.118.022a.548.548,0,0,1,.237.2l.14.215v.011l-.022.011-.226-.118L2.916,2.5l.065.129a.387.387,0,0,1,.086.194v.011l-.011.011a.41.41,0,0,1-.215-.108l-.1-.065a.422.422,0,0,1,.043.194Zm-.3-.172.151.032.129.1A.363.363,0,0,0,2.7,2.653l.011-.022h.011l.129.086a.5.5,0,0,0,.183.1.3.3,0,0,0-.075-.172l-.075-.151.011-.011.043-.011.1.032.183.1-.108-.172a.463.463,0,0,0-.226-.2L2.776,2.2a.971.971,0,0,1-.42-.108L2.206,2,2.13,1.943a.51.51,0,0,0-.237-.108.24.24,0,0,0-.2.118l-.011.086a.405.405,0,0,0,.043.172.438.438,0,0,0,.183.129l.032.011a1.643,1.643,0,0,1,.495.366l.043-.011" transform="translate(10.305 9.632)"/>
      <path id="Tracciato_9676" data-name="Tracciato 9676" d="M1.759,1.7a.075.075,0,1,1-.075-.075.074.074,0,0,1,.075.075" transform="translate(9.827 7.828)" fill="#fff"/>
    </g>
  </g>
</svg>
