<svg xmlns="http://www.w3.org/2000/svg" xmlns:xlink="http://www.w3.org/1999/xlink" width="24" height="24" viewBox="0 0 24 24">
  <defs>
    <clipPath id="clip-path">
      <path id="Tracciato_9752" data-name="Tracciato 9752" d="M.138,12.749a12,12,0,1,0,12-12,11.99,11.99,0,0,0-12,12" transform="translate(-0.138 -0.749)" fill="none"/>
    </clipPath>
  </defs>
  <g id="Raggruppa_296" data-name="Raggruppa 296" transform="translate(-0.138 -0.749)">
    <g id="Raggruppa_266" data-name="Raggruppa 266" transform="translate(0.138 0.749)" clip-path="url(#clip-path)">
      <rect id="Rettangolo_854" data-name="Rettangolo 854" width="40.875" height="24.215" transform="translate(-1.485 -0.108)" fill="#fff"/>
      <rect id="Rettangolo_855" data-name="Rettangolo 855" width="40.875" height="21.18" transform="translate(-1.485 2.927)" fill="#0038b0"/>
      <rect id="Rettangolo_856" data-name="Rettangolo 856" width="40.875" height="18.145" transform="translate(-1.485 5.962)" fill="#fff"/>
      <rect id="Rettangolo_857" data-name="Rettangolo 857" width="40.875" height="15.132" transform="translate(-1.485 8.976)" fill="#0038b0"/>
      <rect id="Rettangolo_858" data-name="Rettangolo 858" width="40.875" height="12.14" transform="translate(-1.485 11.968)" fill="#fff"/>
      <rect id="Rettangolo_859" data-name="Rettangolo 859" width="40.875" height="9.083" transform="translate(-1.485 15.024)" fill="#0038b0"/>
      <rect id="Rettangolo_860" data-name="Rettangolo 860" width="40.875" height="6.07" transform="translate(-1.485 18.038)" fill="#fff"/>
      <rect id="Rettangolo_861" data-name="Rettangolo 861" width="40.875" height="3.035" transform="translate(-1.485 21.073)" fill="#0038b0"/>
      <rect id="Rettangolo_862" data-name="Rettangolo 862" width="15.132" height="15.1" transform="translate(-1.485 -0.097)" fill="#fff"/>
      <path id="Tracciato_9679" data-name="Tracciato 9679" d="M.632.965A1.605,1.605,0,0,0,.5,1.8,3.1,3.1,0,0,0,.987,2.87a2.433,2.433,0,0,1,.14,1.55c.549.57,1.1,1.141,1.647,1.7-.043-.043,0-.377,0-.452l-.032-.5a7.616,7.616,0,0,0-.172-.99,3.951,3.951,0,0,0-.893-1.754C1.245,1.966.6,1.7.632.965" transform="translate(3.307 1.36)" fill="#fcd116"/>
      <path id="Tracciato_9680" data-name="Tracciato 9680" d="M2.822,6.2,2.79,6.191l-1.647-1.7-.011-.032A2.578,2.578,0,0,0,.992,2.92L.8,2.586a1.809,1.809,0,0,1-.3-.732A1.693,1.693,0,0,1,.637.983L.68.961.713,1a1.356,1.356,0,0,0,.657,1.087,3.868,3.868,0,0,1,.377.344,3.969,3.969,0,0,1,.9,1.776,6.767,6.767,0,0,1,.172.99l.032.506-.011.118.011.312L2.844,6.2H2.822m-1.6-1.754L2.757,6.03V5.815l.011-.108-.032-.5a5.46,5.46,0,0,0-.172-.979A3.821,3.821,0,0,0,1.692,2.5a3.635,3.635,0,0,0-.377-.334,1.587,1.587,0,0,1-.678-.947,1.778,1.778,0,0,0-.054.624,1.669,1.669,0,0,0,.291.689l.194.355a2.564,2.564,0,0,1,.151,1.561" transform="translate(3.269 1.321)"/>
      <path id="Tracciato_9681" data-name="Tracciato 9681" d="M.632.965A1.605,1.605,0,0,0,.5,1.8,3.1,3.1,0,0,0,.987,2.87a2.433,2.433,0,0,1,.14,1.55c.28.291.549.57.829.85C2.429,2.924.19,2.256.632.965" transform="translate(3.307 1.36)" fill="#fcd116"/>
      <path id="Tracciato_9682" data-name="Tracciato 9682" d="M1.993,5.363l-.032-.022-.818-.85-.011-.032A2.578,2.578,0,0,0,.992,2.92L.8,2.586a1.809,1.809,0,0,1-.3-.732A1.693,1.693,0,0,1,.637.983L.691.961l.022.054c-.183.549.14,1,.517,1.507a3.247,3.247,0,0,1,.807,2.8L2,5.352Zm-.775-.915.743.775a3.175,3.175,0,0,0-.8-2.648A2.592,2.592,0,0,1,.583,1.5a1.841,1.841,0,0,0,0,.344,1.669,1.669,0,0,0,.291.689l.194.355a2.564,2.564,0,0,1,.151,1.561" transform="translate(3.269 1.321)"/>
      <path id="Tracciato_9683" data-name="Tracciato 9683" d="M.223,1.246a1.606,1.606,0,0,0,.506.689,3.244,3.244,0,0,0,1.087.4,2.539,2.539,0,0,1,1.205,1c.786.022,1.582.032,2.368.043-.065,0-.28-.269-.334-.323l-.366-.323a6.359,6.359,0,0,0-.829-.581A3.942,3.942,0,0,0,2,1.537C1.364,1.515.718,1.784.223,1.246" transform="translate(0.692 4.103)" fill="#fcd116"/>
      <path id="Tracciato_9684" data-name="Tracciato 9684" d="M5.429,3.47h0L3.061,3.416l-.032-.022a2.49,2.49,0,0,0-1.184-.969,2.884,2.884,0,0,0-.377-.108,1.589,1.589,0,0,1-.732-.312,1.8,1.8,0,0,1-.517-.7l.022-.065L.3,1.253a1.03,1.03,0,0,0,.829.323,2.6,2.6,0,0,0,.409-.022c.161,0,.334-.011.506-.011a3.844,3.844,0,0,1,1.883.613,5.126,5.126,0,0,1,.829.592c.129.1.248.2.377.312l.086.086a.942.942,0,0,0,.215.237l.043.032-.043.054M3.083,3.33l2.206.032L5.138,3.2l-.065-.065A3.19,3.19,0,0,0,4.7,2.813a6.38,6.38,0,0,0-.818-.581,3.9,3.9,0,0,0-1.84-.6,2,2,0,0,0-.506.022c-.129.011-.269.011-.409.011a1.158,1.158,0,0,1-.732-.194,1.413,1.413,0,0,0,.4.463,1.525,1.525,0,0,0,.7.3l.387.108a2.6,2.6,0,0,1,1.205.99" transform="translate(0.663 4.064)"/>
      <path id="Tracciato_9685" data-name="Tracciato 9685" d="M.223,1.246a1.606,1.606,0,0,0,.506.689,3.244,3.244,0,0,0,1.087.4,2.539,2.539,0,0,1,1.205,1c.4.011.786.022,1.184.022C2.881,1.354.826,2.462.223,1.246" transform="translate(0.692 4.103)" fill="#fcd116"/>
      <path id="Tracciato_9686" data-name="Tracciato 9686" d="M4.245,3.448h0L3.061,3.416l-.032-.022a2.49,2.49,0,0,0-1.184-.969,2.884,2.884,0,0,0-.377-.108,1.589,1.589,0,0,1-.732-.312,1.8,1.8,0,0,1-.517-.7l.022-.065L.3,1.274c.258.517.807.6,1.442.689a3.208,3.208,0,0,1,2.54,1.421v.032l-.032.032M3.083,3.33l1.076.032A3.162,3.162,0,0,0,1.716,2.049,2.79,2.79,0,0,1,.554,1.7a1.165,1.165,0,0,0,.237.226,1.525,1.525,0,0,0,.7.3l.387.108a2.6,2.6,0,0,1,1.205.99" transform="translate(0.663 4.064)"/>
      <path id="Tracciato_9687" data-name="Tracciato 9687" d="M.224,3.586a1.605,1.605,0,0,0,.839.129c.463-.054.678-.312,1.065-.484a2.433,2.433,0,0,1,1.55-.14c.57-.549,1.141-1.1,1.7-1.647-.043.043-.387,0-.452,0-.172.011-.334.022-.5.043a6.459,6.459,0,0,0-1,.161,3.97,3.97,0,0,0-1.743.893C1.225,2.972.956,3.618.224,3.586" transform="translate(0.702 6.036)" fill="#fcd116"/>
      <path id="Tracciato_9688" data-name="Tracciato 9688" d="M.92,3.808a1.779,1.779,0,0,1-.678-.14L.22,3.614l.043-.032c.517.022.8-.312,1.087-.657.108-.129.226-.258.344-.377a3.928,3.928,0,0,1,1.765-.9,6.946,6.946,0,0,1,1-.161c.161-.022.334-.032.5-.043h.011l.118.011.2.011.1-.011L5.44,1.44l.011.075L3.75,3.162l-.032.011A2.582,2.582,0,0,0,2.179,3.3a1.961,1.961,0,0,0-.334.2,1.8,1.8,0,0,1-.732.291L.92,3.808M.478,3.657a1.386,1.386,0,0,0,.624.054,1.529,1.529,0,0,0,.689-.28,2.792,2.792,0,0,1,.355-.2,2.637,2.637,0,0,1,1.561-.151L5.289,1.548l-.215-.011H4.966a3.7,3.7,0,0,0-.5.032,6.793,6.793,0,0,0-.99.161,3.957,3.957,0,0,0-1.722.883,3.655,3.655,0,0,0-.344.366,1.564,1.564,0,0,1-.936.678" transform="translate(0.663 5.997)"/>
      <path id="Tracciato_9689" data-name="Tracciato 9689" d="M.224,2.9a1.605,1.605,0,0,0,.839.129c.463-.054.678-.312,1.065-.484a2.433,2.433,0,0,1,1.55-.14c.291-.28.57-.549.85-.829C2.183,1.106,1.515,3.345.224,2.9" transform="translate(0.702 6.718)" fill="#fcd116"/>
      <path id="Tracciato_9690" data-name="Tracciato 9690" d="M.92,3.124a1.7,1.7,0,0,1-.678-.14L.22,2.931.274,2.9A.849.849,0,0,0,.6,2.952a2.12,2.12,0,0,0,1.184-.57A3.48,3.48,0,0,1,3.922,1.51a3.478,3.478,0,0,1,.657.065l.032.032L4.6,1.65l-.85.818-.043.011a2.628,2.628,0,0,0-1.528.14c-.129.065-.237.129-.344.194a1.626,1.626,0,0,1-.721.3L.92,3.124m-.161-.1a1.841,1.841,0,0,0,.344,0,1.669,1.669,0,0,0,.689-.291l.355-.194a2.554,2.554,0,0,1,1.561-.151l.775-.743a2.526,2.526,0,0,0-.56-.054,3.344,3.344,0,0,0-2.088.861,2.694,2.694,0,0,1-1.076.57" transform="translate(0.663 6.68)"/>
      <path id="Tracciato_9691" data-name="Tracciato 9691" d="M.505,6.61A1.606,1.606,0,0,0,1.194,6.1a3.244,3.244,0,0,0,.4-1.087A2.45,2.45,0,0,1,2.6,3.812l.032-2.368c0,.065-.269.28-.323.334l-.323.366a6.36,6.36,0,0,0-.581.829A3.942,3.942,0,0,0,.8,4.834c-.022.635.248,1.281-.291,1.776" transform="translate(3.445 6.036)" fill="#fcd116"/>
      <path id="Tracciato_9692" data-name="Tracciato 9692" d="M.534,6.692.5,6.67V6.617A1.342,1.342,0,0,0,.814,5.379a2.617,2.617,0,0,1-.022-.506A3.9,3.9,0,0,1,1.4,2.99a6.916,6.916,0,0,1,.592-.829l.323-.377.1-.075c.054-.054.2-.183.215-.226l.043-.043.043.043L2.676,3.851l-.011.032a2.51,2.51,0,0,0-1,1.184,2.776,2.776,0,0,0-.1.377,1.857,1.857,0,0,1-.312.732,1.83,1.83,0,0,1-.7.517ZM2.622,1.623l-.161.151-.086.075-.323.366a6.38,6.38,0,0,0-.581.818,3.882,3.882,0,0,0-.592,1.84A3.977,3.977,0,0,0,.9,5.379,1.557,1.557,0,0,1,.706,6.52a1.6,1.6,0,0,0,.484-.4,1.767,1.767,0,0,0,.291-.7,2.125,2.125,0,0,1,.108-.387,2.553,2.553,0,0,1,1-1.205Z" transform="translate(3.415 5.997)"/>
      <path id="Tracciato_9693" data-name="Tracciato 9693" d="M.505,5.536a1.606,1.606,0,0,0,.689-.506,3.244,3.244,0,0,0,.4-1.087A2.45,2.45,0,0,1,2.6,2.738c0-.4.011-.786.011-1.184-2,1.324-.883,3.379-2.109,3.982" transform="translate(3.445 7.11)" fill="#fcd116"/>
      <path id="Tracciato_9694" data-name="Tracciato 9694" d="M.534,5.618.5,5.607l.011-.065c.527-.269.6-.807.7-1.442a3.223,3.223,0,0,1,1.41-2.54l.043-.011.022.043L2.665,2.777v.032a2.51,2.51,0,0,0-1,1.184c-.043.129-.075.258-.108.377a1.684,1.684,0,0,1-.3.732,1.79,1.79,0,0,1-.71.517ZM2.6,1.679A3.18,3.18,0,0,0,1.3,4.122,2.641,2.641,0,0,1,.954,5.285a2.459,2.459,0,0,0,.237-.237,1.739,1.739,0,0,0,.28-.7,3.82,3.82,0,0,1,.118-.387,2.539,2.539,0,0,1,.99-1.205Z" transform="translate(3.415 7.071)"/>
      <path id="Tracciato_9695" data-name="Tracciato 9695" d="M2.846,6.6a1.677,1.677,0,0,0,.129-.839A3.622,3.622,0,0,0,2.491,4.7,2.544,2.544,0,0,1,2.34,3.144C1.8,2.574,1.253,2.014.7,1.444a1.664,1.664,0,0,1,0,.463l.032.5a6.587,6.587,0,0,0,.172.99A4.067,4.067,0,0,0,1.8,5.146c.43.463,1.065.721,1.044,1.453" transform="translate(5.387 6.036)" fill="#fcd116"/>
      <path id="Tracciato_9696" data-name="Tracciato 9696" d="M2.884,6.691H2.873l-.032-.043c.022-.517-.312-.8-.657-1.087-.129-.108-.258-.226-.377-.344A3.978,3.978,0,0,1,.9,3.452a6.946,6.946,0,0,1-.161-1C.721,2.289.71,2.128.7,1.956L.71,1.837a1,1,0,0,0,0-.312V1.461l.043-.022L2.421,3.161l.011.043a2.463,2.463,0,0,0,.14,1.528c.054.129.129.237.183.344a1.468,1.468,0,0,1,.3.721,1.782,1.782,0,0,1-.129.872l-.043.022M.807,1.622.8,1.837v.108a3.7,3.7,0,0,0,.032.5,6.561,6.561,0,0,0,.161.99,3.846,3.846,0,0,0,.883,1.722,3.656,3.656,0,0,0,.366.344,1.564,1.564,0,0,1,.678.936,1.557,1.557,0,0,0,.054-.624,1.66,1.66,0,0,0-.28-.689,2.2,2.2,0,0,1-.2-.355A2.554,2.554,0,0,1,2.335,3.2Z" transform="translate(5.339 5.987)"/>
      <path id="Tracciato_9697" data-name="Tracciato 9697" d="M2.164,5.828a1.677,1.677,0,0,0,.129-.839,3.622,3.622,0,0,0-.484-1.055,2.544,2.544,0,0,1-.151-1.561c-.269-.28-.538-.57-.818-.85C.367,3.88,2.595,4.547,2.164,5.828" transform="translate(6.069 6.807)" fill="#fcd116"/>
      <path id="Tracciato_9698" data-name="Tracciato 9698" d="M2.2,5.911H2.191l-.032-.054c.194-.549-.129-1-.517-1.507a3.28,3.28,0,0,1-.807-2.8L.868,1.52l.043.011.829.85.011.032a2.5,2.5,0,0,0,.14,1.539,1.506,1.506,0,0,0,.194.323,1.708,1.708,0,0,1,.291.743,1.591,1.591,0,0,1-.129.872L2.2,5.911M.911,1.638A3.143,3.143,0,0,0,1.718,4.3,2.8,2.8,0,0,1,2.3,5.373a1.323,1.323,0,0,0-.011-.355,1.636,1.636,0,0,0-.28-.689,3.469,3.469,0,0,1-.2-.355,2.532,2.532,0,0,1-.14-1.55Z" transform="translate(6.02 6.778)"/>
      <path id="Tracciato_9699" data-name="Tracciato 9699" d="M5.869,3.575a1.606,1.606,0,0,0-.506-.689,3.424,3.424,0,0,0-1.087-.409,2.38,2.38,0,0,1-1.205-.99C2.285,1.466,1.489,1.455.7,1.444c.065,0,.28.269.334.323L1.4,2.09a6.359,6.359,0,0,0,.829.581,3.929,3.929,0,0,0,1.862.6c.635.022,1.281-.237,1.776.3" transform="translate(5.378 6.036)" fill="#fcd116"/>
      <path id="Tracciato_9700" data-name="Tracciato 9700" d="M5.908,3.658l-.032-.011a1.063,1.063,0,0,0-.839-.334c-.129,0-.258.011-.4.022a2.655,2.655,0,0,1-.506.022,3.96,3.96,0,0,1-1.894-.613,7.314,7.314,0,0,1-.829-.581c-.118-.108-.248-.215-.366-.334L.957,1.742a1.334,1.334,0,0,0-.215-.215L.7,1.473l.043-.032,2.368.032.022.011a2.582,2.582,0,0,0,1.195,1,2.423,2.423,0,0,0,.377.1,1.754,1.754,0,0,1,.721.312,1.573,1.573,0,0,1,.517.7l.011.022Zm-.872-.43a1.168,1.168,0,0,1,.743.215,1.633,1.633,0,0,0-.409-.484,1.533,1.533,0,0,0-.689-.291,1.912,1.912,0,0,1-.387-.108,2.575,2.575,0,0,1-1.216-1l-2.2-.032.14.161.075.075c.118.118.248.226.377.334a6.18,6.18,0,0,0,.807.57,3.825,3.825,0,0,0,1.851.6,3.81,3.81,0,0,0,.5-.022c.14-.011.28-.022.409-.022" transform="translate(5.339 6.007)"/>
      <path id="Tracciato_9701" data-name="Tracciato 9701" d="M4.8,3.555a1.606,1.606,0,0,0-.506-.689A3.424,3.424,0,0,0,3.2,2.458,2.38,2.38,0,0,1,2,1.468c-.4-.011-.786-.022-1.184-.022,1.324,2,3.379.883,3.982,2.109" transform="translate(6.452 6.055)" fill="#fcd116"/>
      <path id="Tracciato_9702" data-name="Tracciato 9702" d="M4.824,3.638l-.032-.022c-.258-.517-.807-.6-1.431-.7A3.272,3.272,0,0,1,.81,1.507V1.464l.022-.022,1.195.022h.032a2.51,2.51,0,0,0,1.184,1c.129.043.258.075.377.108a1.634,1.634,0,0,1,.732.3,1.635,1.635,0,0,1,.517.7l-.022.065ZM.928,1.528a3.18,3.18,0,0,0,2.443,1.3,2.51,2.51,0,0,1,1.162.355A1.73,1.73,0,0,0,4.3,2.938a1.739,1.739,0,0,0-.7-.28c-.118-.032-.248-.065-.377-.108A2.654,2.654,0,0,1,2,1.55Z" transform="translate(6.422 6.016)"/>
      <path id="Tracciato_9703" data-name="Tracciato 9703" d="M5.859,1.373a1.605,1.605,0,0,0-.839-.129c-.463.054-.678.312-1.065.484a2.494,2.494,0,0,1-1.55.151c-.57.549-1.141,1.087-1.7,1.636.043-.043.387,0,.452,0l.5-.032a6.493,6.493,0,0,0,1-.172A3.97,3.97,0,0,0,4.4,2.416c.463-.43.732-1.065,1.464-1.044" transform="translate(5.387 3.966)" fill="#fcd116"/>
      <path id="Tracciato_9704" data-name="Tracciato 9704" d="M.723,3.6.7,3.585V3.52L2.4,1.873l.032-.011a2.5,2.5,0,0,0,1.539-.14,1.691,1.691,0,0,0,.334-.194,1.8,1.8,0,0,1,.732-.291,1.74,1.74,0,0,1,.861.129l.032.043-.043.043c-.517-.022-.8.312-1.087.657-.108.129-.226.258-.344.377a3.928,3.928,0,0,1-1.765.9,6.946,6.946,0,0,1-1,.161c-.161.022-.334.032-.506.043l-.108-.011L.862,3.574l-.108.011Zm.14-.108.215.011h.108a3.7,3.7,0,0,0,.5-.032A6.642,6.642,0,0,0,2.66,3.3a3.831,3.831,0,0,0,1.733-.883c.118-.108.237-.248.344-.366a1.534,1.534,0,0,1,.936-.678,1.557,1.557,0,0,0-.624-.054,1.539,1.539,0,0,0-.689.291l-.355.194a2.637,2.637,0,0,1-1.561.151Z" transform="translate(5.358 3.928)"/>
      <path id="Tracciato_9705" data-name="Tracciato 9705" d="M5.088,1.373a1.605,1.605,0,0,0-.839-.129c-.463.054-.678.312-1.065.484a2.494,2.494,0,0,1-1.55.151c-.291.269-.57.549-.85.818C3.129,3.17,3.8.942,5.088,1.373" transform="translate(6.159 3.966)" fill="#fcd116"/>
      <path id="Tracciato_9706" data-name="Tracciato 9706" d="M1.457,2.843h0a2.708,2.708,0,0,1-.646-.075L.779,2.746.79,2.7l.85-.829.032-.011a2.5,2.5,0,0,0,1.539-.14,1.691,1.691,0,0,0,.334-.194,1.663,1.663,0,0,1,.732-.291,1.627,1.627,0,0,1,.861.129l.032.043-.043.043H5.116A.884.884,0,0,0,4.793,1.4a2.088,2.088,0,0,0-1.184.57,3.485,3.485,0,0,1-2.152.872M.908,2.7a3.378,3.378,0,0,0,.549.054,3.436,3.436,0,0,0,2.1-.861,2.5,2.5,0,0,1,1.076-.57.926.926,0,0,0-.344,0,1.625,1.625,0,0,0-.7.28,2.065,2.065,0,0,1-.344.194,2.561,2.561,0,0,1-1.561.161Z" transform="translate(6.12 3.926)"/>
      <path id="Tracciato_9707" data-name="Tracciato 9707" d="M2.834.964a1.606,1.606,0,0,0-.689.506,3.162,3.162,0,0,0-.4,1.087A2.56,2.56,0,0,1,.735,3.762L.7,6.13c0-.065.269-.28.323-.334l.323-.366A6.359,6.359,0,0,0,1.93,4.6a3.929,3.929,0,0,0,.6-1.862c.022-.646-.237-1.281.3-1.776" transform="translate(5.378 1.35)" fill="#fcd116"/>
      <path id="Tracciato_9708" data-name="Tracciato 9708" d="M.742,6.213h0L.7,6.159.742,3.8V3.77a2.51,2.51,0,0,0,1-1.184,3.454,3.454,0,0,0,.108-.377,1.634,1.634,0,0,1,.3-.732,1.606,1.606,0,0,1,.71-.517l.054.022-.011.054a1.316,1.316,0,0,0-.3,1.227c.011.172.022.344.022.517a3.959,3.959,0,0,1-.613,1.883,6.805,6.805,0,0,1-.581.829c-.108.129-.215.248-.334.377l-.086.075a1.112,1.112,0,0,0-.226.226l-.043.043M.828,3.824.785,6.03l.161-.151L1.033,5.8c.118-.118.226-.248.323-.366a6.38,6.38,0,0,0,.581-.818,3.9,3.9,0,0,0,.6-1.84c0-.172-.011-.334-.022-.506A1.553,1.553,0,0,1,2.7,1.133a1.439,1.439,0,0,0-.474.4,1.622,1.622,0,0,0-.291.7l-.108.377a2.654,2.654,0,0,1-1,1.216" transform="translate(5.339 1.321)"/>
      <path id="Tracciato_9709" data-name="Tracciato 9709" d="M2.814.964a1.606,1.606,0,0,0-.689.506,3.162,3.162,0,0,0-.4,1.087A2.56,2.56,0,0,1,.716,3.762c0,.4-.011.786-.011,1.184,2-1.324.883-3.379,2.109-3.982" transform="translate(5.397 1.35)" fill="#fcd116"/>
      <path id="Tracciato_9710" data-name="Tracciato 9710" d="M.744,5.029.723,5.018.7,4.986.723,3.8V3.77a2.51,2.51,0,0,0,1-1.184,3.454,3.454,0,0,0,.108-.377,1.634,1.634,0,0,1,.3-.732,1.606,1.606,0,0,1,.71-.517L2.9.983l-.022.054c-.517.258-.6.807-.7,1.431A3.2,3.2,0,0,1,.766,5.018ZM.809,3.824.787,4.9a3.148,3.148,0,0,0,1.3-2.443,2.791,2.791,0,0,1,.355-1.162.989.989,0,0,0-.237.237,1.622,1.622,0,0,0-.291.7l-.108.377a2.654,2.654,0,0,1-1,1.216" transform="translate(5.358 1.321)"/>
      <path id="Tracciato_9711" data-name="Tracciato 9711" d="M1.6.912.611,6.626h2Z" transform="translate(4.476 0.839)" fill="#fcd116"/>
      <path id="Tracciato_9712" data-name="Tracciato 9712" d="M2.651,6.709h-2L.617,6.7.606,6.655,1.6.94,1.639.908,1.682.94,2.694,6.655,2.683,6.7l-.032.011M.7,6.623H2.6L1.639,1.209Z" transform="translate(4.431 0.803)"/>
      <path id="Tracciato_9713" data-name="Tracciato 9713" d="M1.6.912.611,6.626h1Z" transform="translate(4.476 0.839)" fill="#fcd116"/>
      <path id="Tracciato_9714" data-name="Tracciato 9714" d="M1.65,6.709h-1L.617,6.7.606,6.655,1.6.94,1.65.908l.032.043.011,5.715L1.682,6.7ZM.7,6.623h.9L1.6,1.457Z" transform="translate(4.431 0.803)"/>
      <path id="Tracciato_9715" data-name="Tracciato 9715" d="M.327,1.068,3.664,5.814,5.084,4.393Z" transform="translate(1.711 2.361)" fill="#fcd116"/>
      <path id="Tracciato_9716" data-name="Tracciato 9716" d="M3.7,5.886H3.693L3.66,5.864.324,1.129V1.064H.389L5.135,4.39l.022.032v.032L3.725,5.875,3.7,5.886M.539,1.279,3.7,5.778,5.049,4.433Z" transform="translate(1.678 2.326)"/>
      <path id="Tracciato_9717" data-name="Tracciato 9717" d="M.327,1.068,3.664,5.814l.71-.71Z" transform="translate(1.711 2.361)" fill="#fcd116"/>
      <path id="Tracciato_9718" data-name="Tracciato 9718" d="M3.693,5.887h0L3.66,5.865.324,1.119V1.065H.389L4.435,5.1l.011.022-.011.043-.71.71-.032.011M.679,1.485,3.7,5.779l.635-.657Z" transform="translate(1.678 2.336)"/>
      <path id="Tracciato_9719" data-name="Tracciato 9719" d="M.172,2.361l5.715.99v-2Z" transform="translate(0.196 5.111)" fill="#fcd116"/>
      <path id="Tracciato_9720" data-name="Tracciato 9720" d="M5.916,3.433h0L.2,2.443.169,2.4.2,2.357,5.916,1.345l.032.011.022.032v2l-.022.032ZM.46,2.4l5.413.936V1.442Z" transform="translate(0.165 5.069)"/>
      <path id="Tracciato_9721" data-name="Tracciato 9721" d="M.172,1.453l5.715.99v-1Z" transform="translate(0.196 6.019)" fill="#fcd116"/>
      <path id="Tracciato_9722" data-name="Tracciato 9722" d="M5.926,2.525h0L.211,1.535.168,1.492l.043-.043,5.715-.011.022.011.022.022V2.482l-.011.032ZM.717,1.535l5.166.893v-.9Z" transform="translate(0.155 5.977)"/>
      <path id="Tracciato_9723" data-name="Tracciato 9723" d="M.328,6.133,5.074,2.8,3.654,1.377Z" transform="translate(1.72 5.377)" fill="#fcd116"/>
      <path id="Tracciato_9724" data-name="Tracciato 9724" d="M.357,6.205H.336L.325,6.141,3.651,1.384l.032-.011H3.7L5.136,2.794l.011.043-.022.032L.379,6.205ZM3.694,1.481.54,5.99l4.5-3.164Z" transform="translate(1.688 5.343)"/>
      <path id="Tracciato_9725" data-name="Tracciato 9725" d="M.328,5.489,5.074,2.153l-.71-.71Z" transform="translate(1.72 6.021)" fill="#fcd116"/>
      <path id="Tracciato_9726" data-name="Tracciato 9726" d="M.357,5.571H.336L.325,5.5,4.361,1.449l.032-.011.022.011.721.71.011.032-.022.032L.379,5.571ZM4.393,1.546.745,5.2,5.028,2.181Z" transform="translate(1.688 5.977)"/>
      <path id="Tracciato_9727" data-name="Tracciato 9727" d="M1.622,7.157l.99-5.715h-2Z" transform="translate(4.47 6.023)" fill="#fcd116"/>
      <path id="Tracciato_9728" data-name="Tracciato 9728" d="M1.661,7.229,1.618,7.2.606,1.493V1.461l.043-.022h2l.032.022.011.032L1.7,7.2l-.043.032M.7,1.514l.958,5.435L2.6,1.514Z" transform="translate(4.431 5.987)"/>
      <path id="Tracciato_9729" data-name="Tracciato 9729" d="M.714,7.157,1.7,1.443H.7Z" transform="translate(5.378 6.023)" fill="#fcd116"/>
      <path id="Tracciato_9730" data-name="Tracciato 9730" d="M.753,7.229H.742L.7,7.2V1.471L.71,1.439H1.743l.032.022.011.032-1,5.7-.032.032M.785,1.514V6.68l.9-5.166Z" transform="translate(5.339 5.987)"/>
      <path id="Tracciato_9731" data-name="Tracciato 9731" d="M5.394,6.123,2.058,1.377.637,2.8Z" transform="translate(4.735 5.378)" fill="#fcd116"/>
      <path id="Tracciato_9732" data-name="Tracciato 9732" d="M5.433,6.205l-.022-.011L.655,2.869.633,2.837l.011-.022L2.064,1.384,2.1,1.373l.032.022L5.476,6.13l-.011.065-.032.011M.751,2.826,5.261,5.979l-3.175-4.5Z" transform="translate(4.694 5.343)"/>
      <path id="Tracciato_9733" data-name="Tracciato 9733" d="M4.75,6.123,1.414,1.377l-.71.71Z" transform="translate(5.38 5.378)" fill="#fcd116"/>
      <path id="Tracciato_9734" data-name="Tracciato 9734" d="M4.789,6.205l-.022-.011L.71,2.159.7,2.126.71,2.094l.71-.71.032-.011.032.022L4.832,6.13l-.011.065-.032.011M.807,2.126,4.466,5.775,1.442,1.491Z" transform="translate(5.339 5.343)"/>
      <path id="Tracciato_9735" data-name="Tracciato 9735" d="M6.418,2.34.7,1.35v2Z" transform="translate(5.38 5.117)" fill="#fcd116"/>
      <path id="Tracciato_9736" data-name="Tracciato 9736" d="M.742,3.433.71,3.422.7,3.39v-2L.71,1.356l.022-.011,5.726.99.043.043-.043.043L.753,3.433ZM.785,1.442V3.336L6.2,2.378Z" transform="translate(5.339 5.069)"/>
      <path id="Tracciato_9737" data-name="Tracciato 9737" d="M6.418,2.34.7,1.35v1Z" transform="translate(5.38 5.117)" fill="#fcd116"/>
      <path id="Tracciato_9738" data-name="Tracciato 9738" d="M.742,2.432.71,2.421.7,2.389v-1L.71,1.356l.022-.011,5.726.99.043.054-.043.043Zm.043-.99v.9l5.166-.011Z" transform="translate(5.339 5.069)"/>
      <path id="Tracciato_9739" data-name="Tracciato 9739" d="M5.383,1.067.637,4.4,2.058,5.824Z" transform="translate(4.736 2.352)" fill="#fcd116"/>
      <path id="Tracciato_9740" data-name="Tracciato 9740" d="M2.087,5.9H2.065L.645,4.464.634,4.432.645,4.4,5.391,1.063h.054l.011.065L2.13,5.874,2.1,5.9ZM.742,4.442,2.087,5.788,5.24,1.278Z" transform="translate(4.704 2.316)"/>
      <path id="Tracciato_9741" data-name="Tracciato 9741" d="M5.383,1.067.637,4.4l.71.71Z" transform="translate(4.736 2.352)" fill="#fcd116"/>
      <path id="Tracciato_9742" data-name="Tracciato 9742" d="M1.377,5.185l-.022-.011-.71-.71L.634,4.432.645,4.4,5.391,1.063l.054.011v.054L1.409,5.174ZM.742,4.442l.635.646,3.659-3.67Z" transform="translate(4.704 2.316)"/>
      <path id="Tracciato_9743" data-name="Tracciato 9743" d="M4.274,3.142A1.873,1.873,0,1,1,2.391,1.269,1.876,1.876,0,0,1,4.274,3.142" transform="translate(3.679 4.327)" fill="#fcd116"/>
      <path id="Tracciato_9744" data-name="Tracciato 9744" d="M2.441,5.1A1.916,1.916,0,1,1,4.356,3.181,1.92,1.92,0,0,1,2.441,5.1m0-3.745a1.824,1.824,0,1,0,1.83,1.83,1.828,1.828,0,0,0-1.83-1.83" transform="translate(3.64 4.288)"/>
      <path id="Tracciato_9745" data-name="Tracciato 9745" d="M1.622,1.634,1.493,1.5l-.075-.075a.414.414,0,0,0-.387-.054,1.224,1.224,0,0,0-.377.183c-.032.022-.086.065-.065.108L.75,1.58a.845.845,0,0,1,.839.086l.043.011Z" transform="translate(4.212 5.125)"/>
      <path id="Tracciato_9746" data-name="Tracciato 9746" d="M1.33,1.4a.817.817,0,0,0-.323-.011.7.7,0,0,0-.215.054.363.363,0,0,0-.183.118L.587,1.6A1.571,1.571,0,0,1,.835,1.49L.8,1.565a.148.148,0,0,0,0,.118L.727,1.63l.054.065.086.065a.5.5,0,0,0,.3.054.5.5,0,0,0,.226-.065l.043-.032.022-.022a.089.089,0,0,0-.086-.054l-.065.054L1.2,1.759l-.086.011-.1-.011a.38.38,0,0,1-.2-.065.176.176,0,0,1,0-.129L.845,1.49l.108-.011.022.011L1,1.554a.174.174,0,0,0,.065.14.117.117,0,0,0,.151.022l.032-.022.075-.118V1.533l.032-.022h.011l.108.065a.1.1,0,0,0,.1.043A.341.341,0,0,0,1.33,1.4" transform="translate(4.245 5.431)"/>
      <path id="Tracciato_9747" data-name="Tracciato 9747" d="M1.705,1.557a1.3,1.3,0,0,0-.366-.183.414.414,0,0,0-.387.054L.877,1.5l-.129.129-.022.032H.78a.843.843,0,0,1,.839-.075l.151.075c.022-.043-.022-.086-.065-.108" transform="translate(5.602 5.115)"/>
      <path id="Tracciato_9748" data-name="Tracciato 9748" d="M1.687,1.565A.363.363,0,0,0,1.5,1.447a.7.7,0,0,0-.215-.054A.817.817,0,0,0,.966,1.4a.341.341,0,0,0-.237.215.1.1,0,0,0,.1-.043l.108-.065H.955l.022.022.011.022a.2.2,0,0,0,.054.118l.043.043a.117.117,0,0,0,.151-.022.174.174,0,0,0,.065-.14l.022-.065H1.45l.043.075a.23.23,0,0,1-.011.129.38.38,0,0,1-.2.065l-.1.011-.086-.011L1,1.694.923,1.64l-.075.032.011.043L.9,1.748a.5.5,0,0,0,.226.065.5.5,0,0,0,.3-.054l.086-.065.054-.065-.075.054A.2.2,0,0,0,1.5,1.565L1.472,1.49a1.206,1.206,0,0,1,.237.118l-.022-.043" transform="translate(5.632 5.431)"/>
      <path id="Tracciato_9749" data-name="Tracciato 9749" d="M1.06,1.745l.151.075a.211.211,0,0,0,.161-.011l.151-.043a.391.391,0,0,1,.291.022l.108.065.054.032.011-.022-.032-.054-.1-.065a.229.229,0,0,1-.118-.108l-.043-.1-.086-.075-.032-.011.065.108-.032.1H1.533L1.469,1.6a.155.155,0,0,1-.172.118L1.243,1.7,1.2,1.658,1.189,1.6l-.032-.011-.043.032h-.1l-.011-.043c-.011-.043.011-.108.054-.118l-.1.032L.909,1.6l-.065.1-.075.032-.1.054L.651,1.82.64,1.852l.022-.022.032-.022.065-.032.172-.032a.262.262,0,0,1,.129,0" transform="translate(4.763 6.133)"/>
      <path id="Tracciato_9750" data-name="Tracciato 9750" d="M2.467,1.692l-.022-.043-.1-.108L2.316,1.52l.022.043.054.086a.871.871,0,0,1-.4-.054L1.864,1.53A.259.259,0,0,0,1.7,1.509c-.054.011-.086.054-.151.054a.474.474,0,0,1-.172-.022.656.656,0,0,0-.344.065.535.535,0,0,1-.344.054l.043-.043.032-.043L.8,1.541l-.054.011-.022.022L.67,1.638l-.043.108L.616,1.8l.022-.043L.691,1.67.745,1.7l.377.161a.507.507,0,0,0,.161.065h.1l.172.011a1.065,1.065,0,0,0,.377-.054,3.678,3.678,0,0,0,.355-.172l.129-.054.011.032.022.043.032.065V1.746l-.011-.054m-.6.118a1.227,1.227,0,0,1-.28.022.964.964,0,0,1-.248-.022.986.986,0,0,1-.269-.065L1.025,1.7h.011l.14.011h.463l.28-.011a1.039,1.039,0,0,1,.183,0,.672.672,0,0,1-.237.108" transform="translate(4.528 6.627)"/>
      <path id="Tracciato_9751" data-name="Tracciato 9751" d="M.689,1.594l.043-.022.022-.011H.829l.108.022.032.022H.732L.689,1.594" transform="translate(5.241 7.188)"/>
    </g>
  </g>
</svg>
