<svg xmlns="http://www.w3.org/2000/svg" xmlns:xlink="http://www.w3.org/1999/xlink" width="24" height="24" viewBox="0 0 24 24">
  <defs>
    <clipPath id="clip-path">
      <path id="Tracciato_9790" data-name="Tracciato 9790" d="M15.389,12.924a12,12,0,1,0,12-12,12,12,0,0,0-12,12" transform="translate(-15.389 -0.924)" fill="none"/>
    </clipPath>
  </defs>
  <g id="Zambia" transform="translate(-15.389 -0.924)">
    <g id="Raggruppa_274" data-name="Raggruppa 274" transform="translate(15.389 0.924)" clip-path="url(#clip-path)">
      <rect id="Rettangolo_872" data-name="Rettangolo 872" width="35.997" height="23.998" transform="translate(-5.999 0.015)" fill="#1aa000"/>
      <rect id="Rettangolo_873" data-name="Rettangolo 873" width="3.028" height="15.427" transform="translate(20.973 8.585)" fill="#ff7b00"/>
      <rect id="Rettangolo_874" data-name="Rettangolo 874" width="3.028" height="15.427" transform="translate(17.944 8.585)"/>
      <rect id="Rettangolo_875" data-name="Rettangolo 875" width="3.028" height="15.427" transform="translate(14.917 8.585)" fill="#e10000"/>
      <path id="Tracciato_9779" data-name="Tracciato 9779" d="M62.29,13.822a1.2,1.2,0,0,1-.334.134,1.343,1.343,0,0,0,.31-.222c.093-.1.1-.117.091-.134-.023-.033-.134.03-.283.1a2.9,2.9,0,0,1-1.471.214c-.295-.016-.414.143-.592.318a1.2,1.2,0,0,1-.824.391,1.253,1.253,0,0,1-.485-.092h0a.188.188,0,0,1-.11-.236c.054-.117.153-.022.226-.1a.1.1,0,0,1,.037.078v.032l.025-.019c.139-.1.078-.261-.154-.282-.058-.075-.129-.115-.32-.115-.322,0-.53.381-.53.735a1.311,1.311,0,0,1-.782-.451.634.634,0,0,0-.535-.261,2.9,2.9,0,0,1-1.471-.214c-.19-.087-.263-.128-.283-.1s0,.038.092.134a1.3,1.3,0,0,0,.31.222,1.243,1.243,0,0,1-.335-.134l-.008.013c-.023.038.01.1.088.161a1.49,1.49,0,0,0,.531.233,1.526,1.526,0,0,1-.512-.1l-.007.014c-.017.041.024.095.109.145a1.3,1.3,0,0,0,.423.136,1.477,1.477,0,0,1-.4-.035l0,.015c-.011.042.034.089.124.127a1.835,1.835,0,0,0,.736.082,1.522,1.522,0,0,1-.538.042l0,.015c-.007.042.038.082.121.11a1.421,1.421,0,0,0,.568.018.93.93,0,0,1-.355.048v.015c0,.042.038.079.111.1a.965.965,0,0,0,.372.007.621.621,0,0,1-.176.027v.016c0,.02.01.067.1.092a1.01,1.01,0,0,0,.526-.067.874.874,0,0,1-.3.137l0,.015c0,.018.021.059.108.066a.767.767,0,0,0,.333-.084.757.757,0,0,1-.163.091l.005.015c.039.1.226.035.321-.011h0a.746.746,0,0,1-.069.044l.009.014c.058.1.263,0,.357-.068a1.08,1.08,0,0,1-.142.134l.011.013c.061.074.218-.014.294-.073l-.065.074.012.011c.056.053.166,0,.23-.044a.515.515,0,0,1-.054.048l.009.012c.064.089.236-.036.316-.125a.722.722,0,0,1-.085.111l.011.011c.064.065.183-.025.248-.094l0,0c-.028.051-.044.072-.058.1l.012.009c.049.041.128-.011.177-.062.089.081.161.094.13.164a.751.751,0,0,0-.1.374l.055-.05c-.029.117-.022.223-.078.219-.036,0-.158-.007-.2.042a.07.07,0,0,0-.016.056.155.155,0,0,0,.038.191l.03.027-.006-.063a.164.164,0,0,1,0-.05.122.122,0,0,0,.1-.006.18.18,0,0,0,0,.084c-.014.06.02.141.089.141h.025c-.007-.025-.024-.062-.015-.087.034-.011.1-.039.1-.184.039.016,0,.139.1.134,0,.009,0,.022-.016.048l-.015.02.025.005a.093.093,0,0,0,.094-.037.246.246,0,0,0,.062.061l-.006-.064a.172.172,0,0,1,0-.048.131.131,0,0,0,.1-.005.176.176,0,0,0,0,.083c-.015.06.019.14.089.14h.024c-.006-.025-.023-.062-.015-.087.034-.011.1-.039.1-.184.039.02.005.139.1.134.012.023-.016.043-.031.068l.025.006a.1.1,0,0,0,.078-.02.137.137,0,0,0,.045-.111.119.119,0,0,0-.064-.118.115.115,0,0,1,.11.041l.019.029.011-.034a.121.121,0,0,0-.131-.15.058.058,0,0,1-.04-.007c-.027-.026,0-.139.011-.174a.24.24,0,0,0,.073.065l0-.033a.524.524,0,0,1,.051-.25.454.454,0,0,0,.03.309l.016-.007a.338.338,0,0,0,.154-.162h0a.667.667,0,0,0,.16.325A.313.313,0,0,0,59.6,16a1.188,1.188,0,0,0,.244.288l0,.006h.032a.455.455,0,0,0-.019-.286,1.188,1.188,0,0,0,.286.206.529.529,0,0,0-.131-.309,1.16,1.16,0,0,0,.318.154.831.831,0,0,0-.238-.294,1.115,1.115,0,0,0,.325.1A1.042,1.042,0,0,0,60.1,15.6a.88.88,0,0,0,.313.033,1.207,1.207,0,0,0-.38-.19.7.7,0,0,0,.285-.029,1.275,1.275,0,0,0-.143-.056.084.084,0,0,0,.062-.038l.009-.014a.7.7,0,0,1-.069-.044.6.6,0,0,0,.219.062c.071,0,.095-.032.1-.051l.006-.015a.729.729,0,0,1-.163-.091c.133.061.416.146.44.018l0-.015a.886.886,0,0,1-.3-.137,1,1,0,0,0,.525.067c.093-.025.1-.072.1-.092V15a.6.6,0,0,1-.174-.027.948.948,0,0,0,.369-.007c.074-.021.115-.058.111-.1v-.015a.99.99,0,0,1-.355-.048,1.417,1.417,0,0,0,.568-.018c.083-.027.128-.068.121-.11l0-.015a1.483,1.483,0,0,1-.538-.042,1.83,1.83,0,0,0,.736-.082c.09-.038.136-.085.124-.127l0-.015a1.4,1.4,0,0,1-.4.035,1.314,1.314,0,0,0,.423-.136c.085-.05.126-.1.108-.145l-.007-.014a1.534,1.534,0,0,1-.512.1A1.474,1.474,0,0,0,62.21,14c.078-.063.111-.124.088-.161Zm-3.8,2.066a.249.249,0,0,0,.072.07l0-.035a.411.411,0,0,1,.076-.3.271.271,0,0,1,.106-.044.491.491,0,0,0-.03.058.625.625,0,0,0,.176-.012.056.056,0,0,1-.006.02l-.009.018a.591.591,0,0,0-.094.318l.052-.041c-.027.108-.02.211-.076.207a.493.493,0,0,0-.11,0,.129.129,0,0,0-.128-.076c-.047,0-.051-.014-.05-.063a.654.654,0,0,1,.023-.123" transform="translate(-39.439 -8.653)" fill="#ff7b00"/>
      <path id="Tracciato_9780" data-name="Tracciato 9780" d="M64.048,14.628l.005.015.006.015a.318.318,0,0,1,.091-.02c-.044.077.093.109.093.025v-.011a.057.057,0,0,1,.021.017l.013-.009.014-.009c-.039-.06-.169-.053-.242-.024m.163.035a.018.018,0,0,1-.017.018.017.017,0,0,1-.014-.027.017.017,0,0,1,.029,0,.015.015,0,0,1,0,.007" transform="translate(-45.081 -9.273)" fill="#661414"/>
      <path id="Tracciato_9781" data-name="Tracciato 9781" d="M62.29,13.822a1.254,1.254,0,0,1-.334.134,1.4,1.4,0,0,0,.31-.222c.093-.1.1-.117.091-.134-.023-.033-.134.03-.283.1a2.9,2.9,0,0,1-1.471.214c-.295-.016-.413.142-.592.318a1.2,1.2,0,0,1-.824.391,1.257,1.257,0,0,1-.485-.092h0a.189.189,0,0,1-.11-.236c.055-.117.153-.022.226-.1a.1.1,0,0,1,.037.078v.032l.025-.019c.139-.1.078-.261-.154-.282-.058-.075-.129-.115-.32-.115-.325,0-.53.387-.53.735a1.308,1.308,0,0,1-.781-.451.635.635,0,0,0-.536-.261,2.9,2.9,0,0,1-1.471-.214c-.19-.087-.263-.128-.283-.1s0,.038.092.134a1.3,1.3,0,0,0,.31.222,1.235,1.235,0,0,1-.335-.134l-.009.013c-.023.038.011.1.088.161a1.489,1.489,0,0,0,.531.233,1.526,1.526,0,0,1-.512-.1l-.007.014c-.017.041.023.095.109.145a1.31,1.31,0,0,0,.423.136,1.481,1.481,0,0,1-.4-.035l0,.015c-.011.042.034.089.124.127a1.823,1.823,0,0,0,.737.082,1.522,1.522,0,0,1-.538.042l0,.015c-.007.042.038.082.121.11a1.419,1.419,0,0,0,.568.018.966.966,0,0,1-.355.048v.015c0,.042.039.079.112.1a.964.964,0,0,0,.372.007.617.617,0,0,1-.177.027v.016c0,.02.011.067.1.092a1.016,1.016,0,0,0,.526-.067.891.891,0,0,1-.3.137l0,.015c.011.052.076.067.129.067a.8.8,0,0,0,.311-.085.8.8,0,0,1-.163.091l.006.015c.007.019.03.051.1.051a.578.578,0,0,0,.219-.062.746.746,0,0,1-.069.044l.008.014c.058.1.263,0,.357-.068a1.161,1.161,0,0,1-.143.134l.011.013c.06.072.212-.009.294-.073l-.065.074.012.011c.055.053.166,0,.23-.045a.531.531,0,0,1-.054.048l.009.012c.063.089.236-.037.316-.125a.692.692,0,0,1-.085.111l.01.011a.076.076,0,0,0,.056.022.342.342,0,0,0,.2-.119c-.028.051-.043.072-.058.1l.012.009c.05.042.13-.015.177-.062.089.081.161.094.13.164l-.009.02a.747.747,0,0,0-.094.354c.031-.028.005-.007.055-.05-.03.117-.022.223-.079.219-.093-.007-.231.006-.218.1a.154.154,0,0,0,.038.191l.03.027-.005-.063a.158.158,0,0,1,0-.05.123.123,0,0,0,.1-.006.179.179,0,0,0,0,.084.147.147,0,0,0,.022.106.079.079,0,0,0,.067.035h.025a.18.18,0,0,1-.015-.087c.034-.011.1-.039.1-.184.039.016,0,.139.1.134,0,.009,0,.022-.016.048l-.015.02c.025,0,.075.028.118-.032a.253.253,0,0,0,.062.061l-.006-.064a.163.163,0,0,1,0-.048.132.132,0,0,0,.1-.005.17.17,0,0,0,0,.083c-.015.061.019.14.089.14h.024c-.006-.025-.023-.062-.015-.087.035-.011.1-.039.1-.184.039.02.005.139.1.134.011.023-.016.043-.031.068l.025.006a.1.1,0,0,0,.078-.02.151.151,0,0,0-.016-.23h0a.114.114,0,0,1,.11.041l.019.029a.128.128,0,0,0-.009-.135.134.134,0,0,0-.111-.049.058.058,0,0,1-.04-.007c-.027-.025,0-.139.011-.174a.241.241,0,0,0,.074.065l0-.034a.519.519,0,0,1,.051-.249.454.454,0,0,0,.03.309l.016-.007a.34.34,0,0,0,.154-.162h0a.658.658,0,0,0,.16.325A.313.313,0,0,0,59.6,16a1.144,1.144,0,0,0,.244.288l0,.006h.032a.455.455,0,0,0-.019-.286,1.179,1.179,0,0,0,.287.206.553.553,0,0,0-.131-.309,1.166,1.166,0,0,0,.317.154.833.833,0,0,0-.238-.294,1.12,1.12,0,0,0,.324.1A1.042,1.042,0,0,0,60.1,15.6a.88.88,0,0,0,.313.033,1.221,1.221,0,0,0-.38-.19.7.7,0,0,0,.285-.029,1.325,1.325,0,0,0-.143-.056.085.085,0,0,0,.062-.038l.008-.014a.7.7,0,0,1-.069-.044.6.6,0,0,0,.22.062c.071,0,.094-.032.1-.051l.006-.015a.693.693,0,0,1-.162-.091c.133.061.416.146.44.018l0-.015a.912.912,0,0,1-.3-.137,1,1,0,0,0,.525.067c.093-.025.1-.072.1-.092V15a.612.612,0,0,1-.174-.027.946.946,0,0,0,.369-.007c.074-.021.115-.058.112-.1v-.015a.989.989,0,0,1-.355-.048,1.418,1.418,0,0,0,.568-.018c.083-.027.128-.068.121-.11l0-.015a.885.885,0,0,1-.119.008,2.27,2.27,0,0,1-.418-.05,1.817,1.817,0,0,0,.736-.082c.09-.038.135-.085.124-.127l0-.015a1.383,1.383,0,0,1-.353.036h-.046a1.306,1.306,0,0,0,.422-.136c.085-.05.126-.1.108-.145l-.007-.014a1.534,1.534,0,0,1-.512.1A1.5,1.5,0,0,0,62.21,14c.079-.063.112-.124.088-.161Zm-1.06.452a.674.674,0,0,0,.335-.164c.164-.044.2-.076.315-.1a1.588,1.588,0,0,0,.393-.139.213.213,0,0,1-.083.1,2.115,2.115,0,0,1-.96.3m.936-.1a.21.21,0,0,1-.094.086,1.74,1.74,0,0,1-.706.165c.043-.02.109-.055.1-.1l0-.016a.846.846,0,0,1-.237.026,2,2,0,0,1-.218-.013,3.391,3.391,0,0,0,.491-.052,2.236,2.236,0,0,0,.669-.094m-.131.256a.214.214,0,0,1-.1.072,1.766,1.766,0,0,1-.683.08c.058-.021.089-.05.085-.081l0-.016a.771.771,0,0,1-.088,0,1.3,1.3,0,0,1-.136-.008,1.04,1.04,0,0,0,.131-.018,3.63,3.63,0,0,1,.4-.007,1.785,1.785,0,0,0,.4-.027m-.322.261a.176.176,0,0,1-.095.058,1.58,1.58,0,0,1-.689,0c.052-.009.129-.028.129-.081v-.016h-.016a1.177,1.177,0,0,1-.288-.052,1.65,1.65,0,0,0,.31.02,2.251,2.251,0,0,0,.648.076m-1.1.168c.062,0,.161-.011.165-.074l0-.016a.806.806,0,0,1-.246-.064,1.439,1.439,0,0,0,.255.042,1.971,1.971,0,0,0,.592.131.135.135,0,0,1-.085.05,1.385,1.385,0,0,1-.683-.07m-.231.1c.051,0,.121-.009.13-.064l0-.016a.667.667,0,0,1-.234-.095,1.123,1.123,0,0,0,.183.055c.077.029.118.044.205.07a1.453,1.453,0,0,0,.4.114.116.116,0,0,1-.076.046,1.121,1.121,0,0,1-.616-.111m-.239.06h.009c.055,0,.083-.009.094-.044l.005-.015a.452.452,0,0,1-.131-.071.849.849,0,0,0,.154.053,2.3,2.3,0,0,0,.463.251.1.1,0,0,1-.071.025,1.031,1.031,0,0,1-.525-.2m.312.256a.094.094,0,0,1-.063.017h-.007a.9.9,0,0,1-.467-.244c.035.006.078.009.1-.03l.007-.013a.54.54,0,0,1-.091-.066.769.769,0,0,0,.127.061c.025.018.055.042.1.072a1.375,1.375,0,0,0,.293.2m-.6-.077a1.082,1.082,0,0,1-.161-.153c.042.013.085.019.113-.015l.009-.013L59.793,15a.38.38,0,0,0,.05.027,3.613,3.613,0,0,0,.35.293c-.071.054-.257-.057-.338-.118m.143.21a.025.025,0,0,0,.008-.008l.011-.013c-.011-.009-.035-.028-.046-.039a1.144,1.144,0,0,1,.239.058.724.724,0,0,1-.211,0m-.269.023a.081.081,0,0,0,.036-.019l0,0a1.709,1.709,0,0,1,.536.193,3.4,3.4,0,0,1-.574-.172m-.076.025.037,0a2,2,0,0,1,.635.352,3.441,3.441,0,0,1-.672-.35m-.073.007.012,0a2.075,2.075,0,0,1,.669.535,2.057,2.057,0,0,1-.681-.533m-.056.009.009,0c.157.145.231.233.37.348a.76.76,0,0,1,.2.33,1.625,1.625,0,0,1-.578-.677m.327.773a.916.916,0,0,1-.324-.511c-.018-.065-.034-.14-.06-.245l.018-.007c.07.1.074.12.15.241.105.165.258.289.215.522m-.345-.091a.6.6,0,0,1-.136-.346,1.214,1.214,0,0,0,.025-.285l.039-.021a3.126,3.126,0,0,0,.129.427.312.312,0,0,1-.056.225m-.315-.151a.4.4,0,0,1,.007-.32c.05-.037.077-.068.154-.132l.005,0,0,0a.8.8,0,0,1-.046.32.3.3,0,0,1-.124.137m-.284-1.38a2.431,2.431,0,0,0,.276.029,1.28,1.28,0,0,0,.905-.458.6.6,0,0,1,.511-.252,2.916,2.916,0,0,0,1.718-.32,1.454,1.454,0,0,1-.685.431c-.706.219-1.1-.111-1.38.191a1.188,1.188,0,0,1-1.055.47l0,.017,0,.015a.317.317,0,0,0,.054.007.741.741,0,0,0,.045.09h0a1.516,1.516,0,0,0,.107.189c-.065.01-.168-.109-.145-.084a.607.607,0,0,1-.136-.239l-.018,0-.018,0a.255.255,0,0,0,.009.032.378.378,0,0,0-.184-.111m.391.41c.041.028.094.051.134.024l.013-.01-.028-.043a.446.446,0,0,0,.047.039.871.871,0,0,0,.09.133,2.224,2.224,0,0,0,.173.223.084.084,0,0,1-.026,0h0c-.14,0-.34-.215-.4-.37m1-.787c.21-.225.592.017,1.2-.123a2.1,2.1,0,0,1-1.2.123m-.078.081.052-.054a2.686,2.686,0,0,0,.485.047,2.419,2.419,0,0,0,.667.028.2.2,0,0,1-.078.05,2.034,2.034,0,0,1-1.125-.071m-.166.154.074-.065.06.025h0a3.173,3.173,0,0,0,.327.1,1.785,1.785,0,0,0,.5.133.158.158,0,0,1-.074.03,1.7,1.7,0,0,1-.888-.227m.68.316c-.046.046-.193.027-.262.013a1.591,1.591,0,0,1-.536-.24,1.072,1.072,0,0,0,.091-.067,2.106,2.106,0,0,0,.255.118,1.572,1.572,0,0,0,.453.175m-.926-.15h0a1.034,1.034,0,0,0,.1-.056,1.6,1.6,0,0,0,.178.108,1.326,1.326,0,0,0,.384.206.094.094,0,0,1-.058.022.993.993,0,0,1-.6-.28M59.7,14.7c.036-.015.016-.005.083-.036a1.254,1.254,0,0,0,.163.129,1.579,1.579,0,0,0,.263.188.08.08,0,0,1-.051.009.873.873,0,0,1-.458-.29m-.133.039a.925.925,0,0,0,.1-.028,3.07,3.07,0,0,0,.313.3.078.078,0,0,1-.049,0,.738.738,0,0,1-.363-.28m.406.654c-.058.028-.186-.048-.237-.088a.95.95,0,0,1-.208-.227.1.1,0,0,0,.1-.005l.011-.011a.843.843,0,0,1-.082-.1.53.53,0,0,0,.074.056,1.115,1.115,0,0,0,.088.1,2.573,2.573,0,0,0,.255.274m-.247-.056c.01.007.016.012.056.038l-.032-.008c-.009-.009-.018-.021-.027-.03Zm-.28-.5a1.237,1.237,0,0,0,.145.218c-.038.007-.1-.033-.125-.058h0a.7.7,0,0,1-.175-.239c.026,0,.027,0,.1,0,.011.018.037.054.054.078m-.016-.08c.02,0,.06-.006.1-.013a1.078,1.078,0,0,0,.1.115,1.659,1.659,0,0,0,.146.16c-.084.036-.265-.134-.344-.262m.506.554c-.019-.018-.038-.038-.056-.058a.739.739,0,0,0,.11.064l-.054-.007m.224-.92.041-.04a2.61,2.61,0,0,0,.732.131,1.433,1.433,0,0,0,.365.036.185.185,0,0,1-.081.04,2.071,2.071,0,0,1-1.057-.167M58.8,14.6a.589.589,0,0,1,.34.235.581.581,0,0,0,.115.156.763.763,0,0,0,.255.356.527.527,0,0,0,.141.078c-.264,0-.36.157-.483.247a.4.4,0,0,0-.1.281.241.241,0,0,1-.054-.118.62.62,0,0,0-.092.129.305.305,0,0,1,0-.123.584.584,0,0,0-.1.065c.034-.246.2-.271.029-.38-.17-.089-.217-.088-.292-.2l-.014.007-.015.007a.505.505,0,0,0,.262.194c-.142.04-.2.039-.243.2a.709.709,0,0,0-.018.152.307.307,0,0,1-.053-.131.622.622,0,0,0-.093.144.384.384,0,0,1,0-.136.49.49,0,0,0-.1.073c.03-.249.166-.3.068-.4h0l-.019-.014v0a.981.981,0,0,1-.393-.989c.009-.007.043-.036.081-.072a.713.713,0,0,0,0,.157c.025-.023.06-.054.133-.125a.442.442,0,0,0,.052.187c.013-.025.038-.075.079-.15.035.094.065.169.075.194a.471.471,0,0,1,.05-.165c.013.042.026.074.055.155a.429.429,0,0,1,.062-.133.287.287,0,0,0,.1.106l.005,0,.035.015-.032-.089a.391.391,0,0,0,.172.084m.2,1.554c.043.04.095-.015.149.052a.072.072,0,0,1,.016.042c-.038-.03-.121-.048-.142-.013s0,.036.018.046a.069.069,0,0,1,.041.059c-.039-.012-.094.013-.094.055-.027,0-.031-.035-.036-.064-.011-.087-.088-.087-.086-.042,0,.1-.032.138-.06.151a.056.056,0,0,0-.078-.049.178.178,0,0,1,.031-.1l-.027-.019a.1.1,0,0,1-.111.053c.034-.06,0-.113-.043-.109l0,0c.032-.034.13-.034.176-.031s.08-.041.088-.112a1.025,1.025,0,0,1,.032-.158l.009-.007a.192.192,0,0,0,.025.113l.017.021a.58.58,0,0,1,.075-.132l.007.016c-.017.058-.055.194-.011.235m.028.314a.06.06,0,0,0,0-.066.015.015,0,0,1,0-.019c.017-.019.058-.024.057.005a.1.1,0,0,1-.032.068.069.069,0,0,1-.023.011m-.254-.013a.094.094,0,0,0,0,.074.091.091,0,0,1-.038-.09l-.015,0,.015,0h0c.014-.04.05-.01.041.016h0l.014.005Zm-.2-.129h0a.067.067,0,0,0-.008.042.139.139,0,0,1,0-.117c.021-.027.054.013.013.064l-.009.01h0m-.053-.255c-.048,0-.051-.014-.05-.063a.654.654,0,0,1,.023-.123.245.245,0,0,0,.072.07l0-.035a.413.413,0,0,1,.076-.3.267.267,0,0,1,.106-.044.572.572,0,0,0-.03.058.628.628,0,0,0,.176-.012.078.078,0,0,1-.006.02l-.009.018a.586.586,0,0,0-.094.318l.052-.041c-.027.108-.02.211-.076.207a.493.493,0,0,0-.11,0,.129.129,0,0,0-.127-.076m.309-.518a.167.167,0,0,1,.051.04.579.579,0,0,1-.114.012.275.275,0,0,1,.032-.041.23.23,0,0,0,.031-.011m-.274.634a.071.071,0,0,0-.012.02.1.1,0,0,0-.029-.02h0a.08.08,0,0,1,.045,0m-.477-.771h-.008a1.221,1.221,0,0,0,.068-.124.759.759,0,0,0,.053.058.2.2,0,0,1-.112.067m-.212,0a1.27,1.27,0,0,0,.165-.27,1.243,1.243,0,0,0,.073.109c-.048.061-.169.189-.238.161m-.239.007a1.327,1.327,0,0,0,.286-.414l.009-.017.025-.027a1.163,1.163,0,0,0,.067.149,1.058,1.058,0,0,1-.169.208c-.026.024-.157.136-.218.1m-.187-.021a2.885,2.885,0,0,0,.264-.356.485.485,0,0,0,.046-.039l-.028.043.013.01c.041.027.094,0,.134-.024-.109.256-.357.4-.429.365m-.239-.007a1.511,1.511,0,0,0,.223-.243,1.073,1.073,0,0,0,.12-.135.594.594,0,0,0,.074-.056,1,1,0,0,1-.083.1l.011.011a.088.088,0,0,0,.087.01l.011,0c-.084.134-.326.368-.443.315m-.175-.061a.085.085,0,0,1-.05-.013,1.147,1.147,0,0,0,.186-.152,1.878,1.878,0,0,0,.164-.141A.41.41,0,0,0,57.37,15l-.024.021.009.013c.027.034.071.029.113.015a.78.78,0,0,1-.449.285m-.31-.055A2.386,2.386,0,0,0,57.1,15a.805.805,0,0,0,.127-.061.528.528,0,0,1-.091.066l.007.013a.072.072,0,0,0,.068.034l.027,0h0c-.146.147-.463.3-.537.227m-.284-.081a2.338,2.338,0,0,0,.463-.251.833.833,0,0,0,.155-.053.469.469,0,0,1-.131.071l.005.015c.012.038.055.044.092.044h.011a1.37,1.37,0,0,1-.3.157c-.069.026-.248.074-.3.018m-.145-.113h0c-.055,0-.164-.009-.19-.058a3.747,3.747,0,0,0,.639-.191,1.208,1.208,0,0,0,.153-.048.7.7,0,0,1-.233.095l0,.016c.009.051.072.063.124.064h.005a1.582,1.582,0,0,1-.358.111.872.872,0,0,1-.143.012m-.412-.154a.135.135,0,0,1-.084-.05,1.976,1.976,0,0,0,.592-.131,1.378,1.378,0,0,0,.255-.042.96.96,0,0,1-.246.064v.016c.005.064.106.073.165.074a1.383,1.383,0,0,1-.683.07m-.323-.181a.175.175,0,0,1-.1-.058,2.257,2.257,0,0,0,.649-.076,1.644,1.644,0,0,0,.309-.02,1.1,1.1,0,0,1-.3.052v.016c0,.054.078.073.129.081a1.578,1.578,0,0,1-.688,0m-.417-.319a2.163,2.163,0,0,0,.552.019c.078.007.161.013.244.014a1.057,1.057,0,0,0,.131.018.983.983,0,0,1-.224,0l0,.016c0,.032.027.061.085.081-.18.009-.709-.009-.786-.152m.538-.162a3.368,3.368,0,0,0,.491.052,1.285,1.285,0,0,1-.454-.012l0,.016c-.011.044.055.084.1.1-.182-.01-.737-.088-.8-.251a2.247,2.247,0,0,0,.669.094m-.693-.3a.214.214,0,0,1-.082-.1,1.723,1.723,0,0,0,.456.153,1.709,1.709,0,0,0,.253.087.668.668,0,0,0,.335.164,2.975,2.975,0,0,1-.6-.122,1.228,1.228,0,0,1-.363-.18m1.588-.027c.28-.015.389.133.567.309a1.311,1.311,0,0,0,.749.4c0,.023,0,.046.005.07-.653.046-.918-.526-1.135-.591-.187-.06-.564.027-.889-.009a1.567,1.567,0,0,1-1.016-.5,2.892,2.892,0,0,0,1.719.32m1.366.983c-.027.038-.114.117-.166.109a1.638,1.638,0,0,0,.106-.189h0a.42.42,0,0,0,.025-.047,1.04,1.04,0,0,0,.034.129M57.7,15h0a.2.2,0,0,1-.126.058,1.3,1.3,0,0,0,.127-.184c.025-.05.034-.049.072-.112.024,0,.076,0,.1,0a.8.8,0,0,1-.065.115A.636.636,0,0,1,57.7,15m-.308.023a2.987,2.987,0,0,0,.241-.275.976.976,0,0,0,.1.013.835.835,0,0,1-.147.173c-.039.036-.145.111-.2.089m-.207-.006a1.668,1.668,0,0,0,.23-.216c.029-.028.057-.058.084-.087a.945.945,0,0,0,.1.028.934.934,0,0,1-.205.2c-.043.031-.159.1-.207.072m-.229-.034a1.665,1.665,0,0,0,.264-.188,1.2,1.2,0,0,0,.162-.129c.057.027.052.023.084.036a1.081,1.081,0,0,1-.265.219c-.057.032-.193.1-.244.062m-.01-.086c-.027.009-.2.064-.256.011a2.544,2.544,0,0,0,.562-.314.986.986,0,0,0,.1.056,1.2,1.2,0,0,1-.4.247m-.522-.1a3.527,3.527,0,0,0,.707-.294c.046.037.067.05.091.067l0,0c-.009.005-.06.04-.069.043h0c-.023.014-.069.042-.108.06-.131.068-.518.216-.618.118m-.107-.081h0a.305.305,0,0,1-.173-.039,2.467,2.467,0,0,0,.558-.149c.074-.02.174-.052.268-.088l.061-.025c.028.027.044.041.074.065a1.887,1.887,0,0,1-.787.235m-.582-.369a2.963,2.963,0,0,0,.73-.028,2.414,2.414,0,0,0,.423-.046l.051.054c-.012,0-.083.027-.1.028a2.4,2.4,0,0,1-.806.092.56.56,0,0,1-.3-.1m-.078-.225a9.024,9.024,0,0,0,1.06.038c.073.029.072.011.143.085a1.873,1.873,0,0,1-1.2-.123m.21.4a1.432,1.432,0,0,0,.366-.036,2.588,2.588,0,0,0,.731-.131l.041.04a2.252,2.252,0,0,1-.977.182.318.318,0,0,1-.16-.055m2.8-.324h0a.16.16,0,0,0-.111.233c.006.019.023.073.034.1a.337.337,0,0,1-.074-.109.307.307,0,0,0-.069.1.93.93,0,0,1-.04-.129.246.246,0,0,0-.076.12l-.06-.159c-.013.024-.025.043-.081.153a.371.371,0,0,1-.016-.2c-.035.035-.019.022-.143.139a.821.821,0,0,1,.023-.181c-.055.053-.019.022-.117.111.067-.245.231-.458.463-.458s.271.078.3.113h.008c.156.011.268.107.167.2-.021-.088-.128-.121-.2-.121v.032a.246.246,0,0,1,.11.026c-.032.03-.066.015-.117.021M58.02,16.3c-.022-.042-.009-.127.017-.126s.025.041,0,.073c-.015.013-.018.027-.016.053m.2.16c-.031-.012-.042-.059-.038-.092s.049-.007.04.017h0a.094.094,0,0,0,0,.074m.183-.2c-.014-.088-.089-.087-.087-.042,0,.1-.032.138-.061.151a.056.056,0,0,0-.076-.049.207.207,0,0,1,.02-.09l.01-.015-.027-.019a.113.113,0,0,0-.011.016.1.1,0,0,1-.1.036c.034-.058,0-.112-.043-.108v0a.26.26,0,0,1,.177-.032c.046,0,.08-.041.088-.112a1.036,1.036,0,0,1,.037-.175l0,0a.231.231,0,0,0,.025.126l.018.026a.67.67,0,0,1,.074-.149c0,.009.007.015.009.023-.111.377.082.187.146.308a.264.264,0,0,0-.027.009c-.1-.041-.144.027-.09.053a.059.059,0,0,1,.035.037l-.005.018c-.037,0-.081.021-.081.058-.028,0-.032-.035-.036-.064m.074.137a.06.06,0,0,0,0-.066c-.009-.019.021-.035.042-.033a.143.143,0,0,0,.007.061.07.07,0,0,1-.044.039" transform="translate(-39.439 -8.653)" fill="#661414"/>
      <path id="Tracciato_9782" data-name="Tracciato 9782" d="M64.311,17.528a.284.284,0,0,1-.293-.137c-.01-.017-.013-.034-.032-.027l0,0a.017.017,0,0,0,0,.015v0c.088.2.363.211.353.157a.016.016,0,0,0-.019-.013" transform="translate(-45.037 -10.955)" fill="#661414"/>
      <path id="Tracciato_9783" data-name="Tracciato 9783" d="M64.862,17.278a.016.016,0,0,0-.018-.014.357.357,0,0,1-.3-.18.016.016,0,0,0-.02-.012c-.058.019.113.225.312.225.017,0,.032,0,.03-.019" transform="translate(-45.362 -10.778)" fill="#661414"/>
      <path id="Tracciato_9784" data-name="Tracciato 9784" d="M65.667,17.586a.019.019,0,0,0-.022-.009c-.017.008-.009.021,0,.036l0,0a.312.312,0,0,0,.348.15h0l0,0,0,0h0a.02.02,0,0,0,0-.012h0v0h0l0,0,0,0a.305.305,0,0,1-.274-.066.276.276,0,0,1-.055-.083" transform="translate(-46.049 -11.086)" fill="#661414"/>
      <path id="Tracciato_9785" data-name="Tracciato 9785" d="M65.517,18.116l0,0a.161.161,0,0,0-.03,0h0a.372.372,0,0,1-.286-.134l0,0c-.009-.013-.01-.028-.027-.022a.017.017,0,0,0-.009.022l0,0a.38.38,0,0,0,.339.166l.015,0a.016.016,0,0,0,.014-.012.019.019,0,0,0,0-.007h0a.018.018,0,0,0-.006-.009" transform="translate(-45.755 -11.315)" fill="#661414"/>
      <path id="Tracciato_9786" data-name="Tracciato 9786" d="M65.193,16.874a.016.016,0,0,0-.032.006.384.384,0,0,0,.33.24h0a.017.017,0,0,0,.017-.015c0-.03-.039,0-.133-.047a.315.315,0,0,1-.182-.184" transform="translate(-45.76 -10.649)" fill="#661414"/>
      <path id="Tracciato_9787" data-name="Tracciato 9787" d="M63.755,16.634h0a.016.016,0,0,0,.005-.032.258.258,0,0,1-.221-.269v0a.016.016,0,0,0-.032,0,.282.282,0,0,0,.2.286.25.25,0,0,0,.049.014" transform="translate(-44.752 -10.318)" fill="#661414"/>
      <path id="Tracciato_9788" data-name="Tracciato 9788" d="M64.372,16.543h0a.016.016,0,0,0,.016-.014c0-.02-.019-.018-.039-.022-.282-.053-.219-.255-.263-.251a.015.015,0,0,0-.014.017.3.3,0,0,0,.3.27" transform="translate(-45.097 -10.28)" fill="#661414"/>
      <path id="Tracciato_9789" data-name="Tracciato 9789" d="M64.562,16.188h0c-.017,0-.012.023,0,.039a.51.51,0,0,0,.347.191h0a.016.016,0,1,0,0-.032c-.094,0-.305-.109-.325-.186a.015.015,0,0,0-.019-.011" transform="translate(-45.387 -10.238)" fill="#661414"/>
    </g>
  </g>
</svg>
