<svg xmlns="http://www.w3.org/2000/svg" xmlns:xlink="http://www.w3.org/1999/xlink" width="24" height="24" viewBox="0 0 24 24">
  <defs>
    <clipPath id="clip-path">
      <path id="Tracciato_2" data-name="Tracciato 2" d="M.551,12.749a12,12,0,1,0,12-12,11.99,11.99,0,0,0-12,12" transform="translate(-0.551 -0.749)" fill="none"/>
    </clipPath>
  </defs>
  <g id="Albania" transform="translate(-0.551 -0.749)">
    <g id="Raggruppa_1" data-name="Raggruppa 1" transform="translate(0.551 0.749)" clip-path="url(#clip-path)">
      <rect id="Rettangolo_1" data-name="Rettangolo 1" width="34.192" height="23.763" transform="translate(-5.93 0.118)" fill="#cd122f"/>
      <path id="Tracciato_1" data-name="Tracciato 1" d="M4.392,13.154a.451.451,0,0,0,.172.043l.194-.022a.579.579,0,0,1,.323.183.737.737,0,0,1,.226.291.314.314,0,0,1-.011.172l-.075.054-.054-.054-.054-.075-.129-.065c-.1-.011-.194.043-.3.032a.356.356,0,0,1-.237-.172.71.71,0,0,0-.312-.215L3.94,13.24a.721.721,0,0,0-.194-.075.528.528,0,0,0-.377.118c-.118.075-.248.14-.366.226l-.118.118-.1.151a.365.365,0,0,1-.215.183,2.753,2.753,0,0,0-.291.054A.339.339,0,0,0,2.1,14.2l-.032.075-.032.065-.065-.043a.423.423,0,0,1-.032-.377l.054-.2a.722.722,0,0,1,.065-.161.362.362,0,0,1,.269-.151c.129-.022.269,0,.4-.032a1.063,1.063,0,0,0,.344-.183l.108-.1c.011-.043-.108-.022-.129-.022H2.606a2.045,2.045,0,0,0-.441.043.925.925,0,0,1-.344.054l-.151-.054-.151-.118A.7.7,0,0,0,1.153,13l-.14-.011.043-.118a.428.428,0,0,1,.258-.172l.2-.032.194-.054a.379.379,0,0,1,.355.022l.151.1a.354.354,0,0,0,.183.043c.14.022.291.032.43.043l.226.011c.043,0,.14.022.161-.032s-.065-.075-.108-.108l-.172-.118a.667.667,0,0,0-.355-.118.5.5,0,0,1-.323-.1l-.129-.118L2,12.164a.77.77,0,0,0-.312-.011c-.054,0-.086-.022-.075-.075s.065-.086.1-.118a.4.4,0,0,1,.3-.108l.194.022a.724.724,0,0,0,.215-.011.457.457,0,0,1,.291.054.777.777,0,0,1,.194.258,2.313,2.313,0,0,0,.624.484l.161.1a.4.4,0,0,0,.194-.054l.4-.151c.269-.108.538-.215.786-.344l.086-.054-.022-.075-.118-.151-.075-.075L4.9,11.776l.043-.054.1-.054.172-.1c.108-.054.226-.129.334-.194a3.269,3.269,0,0,0,.581-.506,2.109,2.109,0,0,0,.409-.613,1.653,1.653,0,0,0,.129-.366c0-.043.011-.129-.054-.1a.45.45,0,0,0-.118.161,3.628,3.628,0,0,1-.2.344,1.291,1.291,0,0,1-.248.237,1.163,1.163,0,0,1-.323.172.179.179,0,0,1-.226-.129c-.032-.118.065-.215.129-.3a1.262,1.262,0,0,0,.2-.323.747.747,0,0,0,.086-.377c0-.1-.043-.226-.172-.215a.148.148,0,0,0-.108.086.984.984,0,0,0-.1.183c-.054.129-.108.258-.172.387a4.712,4.712,0,0,1-.4.721c-.14.2-.323.42-.592.4a.432.432,0,0,1-.3-.129.21.21,0,0,1,0-.248.958.958,0,0,1,.28-.226,1.641,1.641,0,0,0,.237-.237A1.609,1.609,0,0,0,4.9,9.721l.043-.194a.454.454,0,0,0,.032-.2c-.011-.086-.1-.215-.194-.118l-.118.14-.118.172A3.824,3.824,0,0,1,4.3,9.85c-.161.215-.334.43-.517.635a4.671,4.671,0,0,1-.57.56,1.529,1.529,0,0,1-.635.312,1.21,1.21,0,0,1-.678-.011.873.873,0,0,1-.3-.183.386.386,0,0,1-.151-.28.218.218,0,0,1,.2-.183l.215-.011h.2a1.471,1.471,0,0,0,.377,0,1.305,1.305,0,0,0,.323-.118,2.147,2.147,0,0,0,.56-.474,4.171,4.171,0,0,0,.43-.613l.194-.366.075-.194.043-.108.022-.065A.053.053,0,0,0,4,8.7l-.151.118-.28.269a3.672,3.672,0,0,1-.624.538,1.762,1.762,0,0,1-.743.323,1.008,1.008,0,0,1-.743-.183.557.557,0,0,1-.2-.291.2.2,0,0,1,.075-.237A.752.752,0,0,1,1.713,9.2c.151.011.291.011.43.011a1.192,1.192,0,0,0,.387-.043A1.957,1.957,0,0,0,2.864,9a3.188,3.188,0,0,0,.581-.56,7.376,7.376,0,0,0,.484-.657l.1-.183c.022-.054.043-.118-.011-.151s-.108.022-.151.043l-.172.118a7.981,7.981,0,0,1-.667.527c-.118.086-.248.161-.366.237a.878.878,0,0,1-.366.129,2.885,2.885,0,0,1-.43.022.805.805,0,0,1-.344-.108A.488.488,0,0,1,1.3,8.193a.561.561,0,0,1-.054-.3.22.22,0,0,1,.172-.215.792.792,0,0,1,.42.032,1.626,1.626,0,0,0,.786.032,1.81,1.81,0,0,0,.646-.4,4.247,4.247,0,0,0,.517-.56c.032-.054.108-.2.011-.237a.221.221,0,0,0-.161.022l-.183.086c-.269.118-.517.258-.786.377a1.574,1.574,0,0,1-.8.151.766.766,0,0,1-.56-.334.373.373,0,0,1-.1-.28.265.265,0,0,1,.129-.194.507.507,0,0,1,.334-.032c.129.032.248.108.377.151a1.394,1.394,0,0,0,.786,0,2.054,2.054,0,0,0,.635-.312.985.985,0,0,0,.269-.248.426.426,0,0,0,.108-.161A.169.169,0,0,0,3.887,5.6c-.054-.108-.237-.032-.323,0l-.377.151A1.974,1.974,0,0,1,1.68,5.685a1.262,1.262,0,0,1-.323-.2.472.472,0,0,1-.2-.291.331.331,0,0,1,.129-.28.357.357,0,0,1,.28-.011,3.659,3.659,0,0,1,.366.172,2.223,2.223,0,0,0,.366.161,1.318,1.318,0,0,0,.839.032A1.4,1.4,0,0,0,3.7,4.9,1.763,1.763,0,0,0,3.93,4.63c.032-.054.065-.118.022-.172s-.1-.032-.161-.022c-.269.065-.527.194-.818.248a2.261,2.261,0,0,1-.85-.022,1.276,1.276,0,0,1-.592-.291.9.9,0,0,1-.215-.237.763.763,0,0,1-.161-.323.375.375,0,0,1,.118-.344.243.243,0,0,1,.291.011c.1.075.183.183.28.269a1.342,1.342,0,0,0,.323.226,1.645,1.645,0,0,0,.786.172,1.926,1.926,0,0,0,.43-.022.619.619,0,0,0,.366-.118.239.239,0,0,0,.065-.248.348.348,0,0,0-.258-.183l-.4-.086a3.853,3.853,0,0,1-.377-.118,5.539,5.539,0,0,1-.732-.312,3.257,3.257,0,0,1-.624-.441.841.841,0,0,1-.344-.624c0-.215.118-.463.366-.463a.36.36,0,0,1,.291.183,3.2,3.2,0,0,1,.215.312,2.605,2.605,0,0,0,.56.527,4.223,4.223,0,0,0,.689.366,2.476,2.476,0,0,0,.366.129l.194.054a.214.214,0,0,0,.118.011c.086-.022.108-.161.14-.226A.121.121,0,0,1,4.091,2.8a.176.176,0,0,1,.129.022c.14.043.269.108.4.151.14.065.28.108.409.161a2.26,2.26,0,0,1,.732.334.756.756,0,0,1,.258.538v.452a.69.69,0,0,0,.086.323.494.494,0,0,0,.624.118.563.563,0,0,0,.258-.56,1.576,1.576,0,0,0-.151-.7,1.747,1.747,0,0,0-.818-.829A2.021,2.021,0,0,0,5.4,2.628a2.219,2.219,0,0,1-.786-.194l-.075-.043-.075-.054.043-.032A2.666,2.666,0,0,1,4.8,2.273c.043,0,.183-.011.172-.075,0-.043-.108-.032-.14-.032l-.2-.011a1.621,1.621,0,0,1-.4-.022.789.789,0,0,1-.323-.118,1.547,1.547,0,0,1-.269-.194.444.444,0,0,1-.108-.14A.093.093,0,0,1,3.6,1.563c.054-.011.108.043.151.086l.151.14a.849.849,0,0,0,.312.194,1.447,1.447,0,0,0,.377.054.585.585,0,0,0,.194,0,.157.157,0,0,0,.129-.054c.086-.1-.086-.151-.151-.172A.4.4,0,0,0,4.565,1.8l-.086.022-.086.022a.081.081,0,0,1-.075-.065.226.226,0,0,1,.054-.161.535.535,0,0,1,.312-.151c.14-.022.291-.011.43-.032a.341.341,0,0,0,.172-.043l.14-.108a.57.57,0,0,1,.355-.022,1.642,1.642,0,0,1,.4.086c.129.043.258.1.387.151a1.244,1.244,0,0,0,.4.075A1.964,1.964,0,0,0,7.4,1.52a1.251,1.251,0,0,1,.194-.043l.054.043-.032.065a1.217,1.217,0,0,1-.28.248.53.53,0,0,0-.161.108l.032.108a1.262,1.262,0,0,0,.323.2c.065.032.215.065.14.161-.022.043-.065.054-.108.075l-.108.075c-.054.086.1.172.14.2a.833.833,0,0,0,.334.129c.043.011.1.032.065.086s-.1.075-.14.086-.129.022-.108.075.065.086.1.118a.331.331,0,0,0,.28.108l.1.022-.011.1c-.032.086-.065.172.043.2a.388.388,0,0,0,.194.011c.032-.022.075-.032.086-.075A.194.194,0,0,0,8.493,3.5l-.022-.108.1-.022a.242.242,0,0,0,.151-.011.463.463,0,0,0,.226-.2L8.9,3.091a.494.494,0,0,1-.172-.075c-.032-.032-.054-.086,0-.108L8.794,2.9l.1-.022A.947.947,0,0,0,9.2,2.682c.032-.032.075-.075.043-.118s-.086-.065-.14-.086C9.074,2.456,9,2.413,9,2.37s.086-.075.118-.1a1.216,1.216,0,0,0,.344-.2c.032-.022.075-.054.075-.1L9.472,1.9a2.257,2.257,0,0,1-.323-.237c-.032-.022-.108-.086-.1-.14s.075-.032.118-.032l.194.054.215.022a1.225,1.225,0,0,0,.4-.022,2.408,2.408,0,0,0,.387-.151,2.409,2.409,0,0,1,.4-.108,1.04,1.04,0,0,1,.409-.032c.118.022.194.129.312.172a2.1,2.1,0,0,0,.366.032c.194.011.527.054.517.312l-.022.075h-.054l-.1-.032a.483.483,0,0,0-.366.043c-.043.022-.1.065-.065.108a.218.218,0,0,0,.151.086,1.96,1.96,0,0,0,.355-.011,1.21,1.21,0,0,0,.334-.108,1.074,1.074,0,0,0,.269-.226c.043-.065.183-.226.258-.1.054.1-.054.194-.129.258a1.157,1.157,0,0,1-.334.2.815.815,0,0,1-.387.086c-.14.011-.28.011-.42.011h-.1l-.065.022c-.032.043.086.065.118.075.118.032.237.022.355.043l.054.032-.043.032-.1.054a1.916,1.916,0,0,1-.775.194,2.107,2.107,0,0,0-.721.237A1.735,1.735,0,0,0,9.752,3.92a1.359,1.359,0,0,0-.011.689.471.471,0,0,0,.4.355.461.461,0,0,0,.5-.269,1.528,1.528,0,0,0,.043-.387V4.1l.011-.226a.79.79,0,0,1,.463-.549l.387-.151.42-.151c.129-.054.269-.108.409-.172.065-.022.172-.086.248-.043s.1.161.129.226l.075.075a.265.265,0,0,0,.129-.011,4.071,4.071,0,0,0,1.345-.635,2.047,2.047,0,0,0,.527-.57c.118-.172.258-.4.5-.355a.463.463,0,0,1,.3.5.989.989,0,0,1-.42.635,2.816,2.816,0,0,1-.646.43,4.224,4.224,0,0,1-.764.312,2.733,2.733,0,0,1-.4.108,1.287,1.287,0,0,0-.4.108.233.233,0,0,0-.118.226c0,.108.086.172.183.215a1.369,1.369,0,0,0,.409.075,2,2,0,0,0,.441-.011,1.657,1.657,0,0,0,.721-.215,2.138,2.138,0,0,0,.291-.237,1.089,1.089,0,0,1,.3-.248.226.226,0,0,1,.269.108.422.422,0,0,1,.022.377,1.254,1.254,0,0,1-.452.527,1.426,1.426,0,0,1-.721.258,2.892,2.892,0,0,1-.807-.065,2.927,2.927,0,0,1-.4-.14l-.194-.065a.238.238,0,0,0-.172,0c-.108.075,0,.2.054.28a2.933,2.933,0,0,0,.248.269,1.363,1.363,0,0,0,.689.323,1.578,1.578,0,0,0,.8-.129c.118-.054.237-.118.355-.183a.915.915,0,0,1,.366-.118.233.233,0,0,1,.226.14.276.276,0,0,1-.032.334,1.039,1.039,0,0,1-.291.237,1.509,1.509,0,0,1-.323.161,2.062,2.062,0,0,1-1.539-.075l-.2-.075-.194-.054c-.1,0-.14.054-.118.151a.874.874,0,0,0,.2.312,1.43,1.43,0,0,0,.28.226,2.2,2.2,0,0,0,.678.28,1.206,1.206,0,0,0,.807-.075c.183-.086.474-.194.646-.011.14.161.011.387-.108.517a.741.741,0,0,1-.56.237,1.29,1.29,0,0,1-.409-.032A2.875,2.875,0,0,1,13.949,7c-.258-.129-.517-.258-.775-.377a.721.721,0,0,0-.194-.075c-.043-.011-.1-.011-.118.022l-.011.108a.578.578,0,0,0,.108.172,3.772,3.772,0,0,0,.538.56,1.438,1.438,0,0,0,.667.355,1.39,1.39,0,0,0,.366.011c.14-.022.28-.054.409-.086.151-.022.387-.075.474.1a.519.519,0,0,1,.022.258.508.508,0,0,1-.118.269.745.745,0,0,1-.57.215,1.358,1.358,0,0,1-.42-.032,1.064,1.064,0,0,1-.355-.161,5.884,5.884,0,0,1-.678-.474c-.118-.086-.215-.183-.334-.269a.891.891,0,0,0-.161-.118c-.032-.011-.1-.054-.14-.022s-.011.086,0,.129l.1.172c.065.108.129.215.2.323a4.951,4.951,0,0,0,.484.581,2.229,2.229,0,0,0,.624.474.832.832,0,0,0,.366.086h.43a1.372,1.372,0,0,1,.42,0,.178.178,0,0,1,.151.194.4.4,0,0,1-.161.3.7.7,0,0,1-.28.183,1.163,1.163,0,0,1-.764-.011,3.613,3.613,0,0,1-1.281-.958l-.161-.151c-.032-.032-.086-.086-.14-.086-.108,0,.022.248.043.28a4.014,4.014,0,0,0,.344.678,3.251,3.251,0,0,0,.474.6,1.5,1.5,0,0,0,.635.42,1.05,1.05,0,0,0,.409.022c.151,0,.291-.011.441,0a.256.256,0,0,1,.237.14.253.253,0,0,1-.075.269,1.147,1.147,0,0,1-1.421.108,2.492,2.492,0,0,1-.592-.474c-.183-.194-.366-.4-.538-.613s-.334-.42-.5-.646L11.991,9.3c-.032-.043-.075-.118-.129-.129s-.108.054-.129.1a.312.312,0,0,0,0,.172,1.71,1.71,0,0,0,.215.635,1.483,1.483,0,0,0,.463.506c.086.065.215.129.248.248a.233.233,0,0,1-.1.237.483.483,0,0,1-.323.075.519.519,0,0,1-.312-.161,2.546,2.546,0,0,1-.452-.657c-.129-.248-.237-.506-.355-.764-.043-.086-.086-.215-.215-.183-.108.011-.129.14-.129.237a1.238,1.238,0,0,0,.323.7c.075.1.172.226.065.344-.075.1-.194.054-.291.011a1.218,1.218,0,0,1-.527-.463c-.075-.108-.118-.237-.2-.344-.022-.032-.086-.118-.108-.043a.368.368,0,0,0,.032.183,2.054,2.054,0,0,0,.312.635,3.481,3.481,0,0,0,1.162.969l.172.086.075.065-.022.075-.108.129-.065.075-.065.086c-.011.054.086.086.118.1a3.276,3.276,0,0,0,.4.183l.807.323c.054.022.118.054.172.022l.172-.108a3.894,3.894,0,0,0,.344-.237.878.878,0,0,0,.258-.269.72.72,0,0,1,.215-.226.448.448,0,0,1,.291-.032.651.651,0,0,0,.2,0l.183-.022a.373.373,0,0,1,.28.1l.108.129c.022.065-.054.065-.1.065a.827.827,0,0,0-.323.032c-.108.043-.161.14-.258.194a.49.49,0,0,1-.323.086.585.585,0,0,0-.366.151l-.161.118-.065.086.129.022.215-.011c.151-.011.291-.022.43-.043a.627.627,0,0,0,.2-.032l.151-.1a.381.381,0,0,1,.323-.043l.183.054.194.032a.453.453,0,0,1,.3.172l.022.108c-.011.043-.043.032-.075.032l-.2-.022a.211.211,0,0,0-.161.011l-.14.1-.161.065a.808.808,0,0,1-.355-.043,1.7,1.7,0,0,0-.409-.032c-.14-.011-.291-.011-.441-.011H13.54l.032.054a.85.85,0,0,0,.269.2l.172.054.2.011a.551.551,0,0,1,.344.086.412.412,0,0,1,.14.258,1.061,1.061,0,0,1,.075.409l-.065.151-.075.022-.022-.065-.032-.075-.086-.108a.423.423,0,0,0-.269-.086.438.438,0,0,1-.269-.118c-.075-.075-.1-.183-.172-.269a1.593,1.593,0,0,0-.323-.226l-.183-.118a1.057,1.057,0,0,0-.194-.086.585.585,0,0,0-.377.1,1.937,1.937,0,0,0-.366.183l-.129.118a.286.286,0,0,1-.108.118l-.151.032-.183-.032a.264.264,0,0,0-.248.14c-.022.022-.043.075-.086.075s-.065-.032-.065-.075l.011-.151a.339.339,0,0,1,.086-.161,1.332,1.332,0,0,1,.28-.269.475.475,0,0,1,.172-.065l.194.032a.459.459,0,0,0,.194-.065.468.468,0,0,0,.161-.086l.075-.075L12.5,12.96l-.118-.043c-.14-.054-.28-.108-.42-.151l-.409-.161-.2-.086a.354.354,0,0,0-.183-.043c-.054,0-.1.043-.14.075l-.161.108a1.077,1.077,0,0,1-.366.14.265.265,0,0,1-.129-.011l-.054-.075-.161-.366c-.118-.248-.248-.484-.387-.721a2.371,2.371,0,0,0-.226-.344,1.328,1.328,0,0,0-.237-.312c-.086-.075-.194-.161-.3-.086a.343.343,0,0,0-.108.3,2.331,2.331,0,0,0,.151.807,2.909,2.909,0,0,0,.312.667,2.385,2.385,0,0,0,.484.56,1.518,1.518,0,0,0,.646.28,1.145,1.145,0,0,1,.377.1l.054.075a.258.258,0,0,1-.075.129.565.565,0,0,1-.237.183.7.7,0,0,1-.334.032,1.071,1.071,0,0,1-.355-.086l-.161-.1a.315.315,0,0,0-.172-.075c-.108-.022-.1.108-.086.194a.533.533,0,0,0,.151.248c.2.183.506.161.753.226.1.032.226.065.269.172.043.086-.022.172-.086.237a.672.672,0,0,1-.678.108,1.841,1.841,0,0,1-.657-.452c-.032-.022-.1-.086-.14-.065s-.032.108-.032.14a.662.662,0,0,0,.075.377.784.784,0,0,0,.463.409,1.265,1.265,0,0,1,.387.129.177.177,0,0,1,.086.129.256.256,0,0,1-.1.14.661.661,0,0,1-.646.1.994.994,0,0,1-.3-.2,2.469,2.469,0,0,1-.291-.291c-.022-.022-.054-.1-.1-.086s-.043.108-.043.151a.849.849,0,0,0,.14.355,1.614,1.614,0,0,1,.2.344.515.515,0,0,1-.043.355A2.211,2.211,0,0,1,8.5,17.1l-.129.118c-.043.032-.075,0-.108-.032a3.2,3.2,0,0,1-.248-.291,1.605,1.605,0,0,1-.194-.323.668.668,0,0,1-.1-.344.566.566,0,0,1,.129-.344.963.963,0,0,0,.183-.344c.022-.032.075-.312-.032-.28l-.043.043-.065.075-.129.151a1.024,1.024,0,0,1-.646.355.735.735,0,0,1-.344-.075c-.075-.043-.2-.14-.161-.248s.194-.14.291-.172a1.625,1.625,0,0,0,.323-.108.813.813,0,0,0,.366-.5.746.746,0,0,0,.011-.344l-.075-.022-.151.118a1.564,1.564,0,0,1-.667.42.616.616,0,0,1-.667-.2c-.161-.269.269-.334.441-.366a.879.879,0,0,0,.624-.269.423.423,0,0,0,.086-.312c-.043-.129-.226-.011-.291.032a.98.98,0,0,1-.689.172.507.507,0,0,1-.28-.118l-.1-.108c-.032-.043-.075-.086-.065-.129s.065-.075.108-.1l.183-.043a2.132,2.132,0,0,0,.377-.086,1.377,1.377,0,0,0,.592-.4,2.883,2.883,0,0,0,.689-1.3,1.89,1.89,0,0,0,.065-.42.542.542,0,0,0-.054-.387c-.161-.226-.42.118-.517.248a4.77,4.77,0,0,0-.441.7,6.935,6.935,0,0,0-.366.753l-.065.14-.086.032a.8.8,0,0,1-.377-.108l-.172-.108-.151-.108c-.054-.032-.118,0-.172.032l-.2.075c-.237.086-.463.172-.7.269a.317.317,0,0,0-.172.161c-.032.065.011.118.075.14M6.1,1.864l-.022.011-.054.043H5.964L5.9,1.9l-.032-.054L5.9,1.778l-.011-.043H5.813l-.129.032A.13.13,0,0,0,5.6,1.9c0,.065.043.086.1.108a.755.755,0,0,0,.312.022c.065,0,.108-.011.118-.054.011-.022.022-.108-.022-.108m4.456.1c.011.043.032.054.075.065a.95.95,0,0,0,.387-.032.111.111,0,0,0,.022-.2.476.476,0,0,0-.161-.054c-.022,0-.1-.011-.1.032l.011.011.011.086-.043.043-.022.011h-.075l-.043-.032L10.6,1.864h-.011l-.032.1" transform="translate(3.959 4.066)" fill="#020000"/>
    </g>
  </g>
</svg>
