<svg xmlns="http://www.w3.org/2000/svg" xmlns:xlink="http://www.w3.org/1999/xlink" width="24" height="24" viewBox="0 0 24 24">
  <defs>
    <clipPath id="clip-path">
      <path id="Tracciato_142" data-name="Tracciato 142" d="M.558,12.749a12,12,0,1,0,12-12,12,12,0,0,0-12,12" transform="translate(-0.558 -0.749)" fill="none"/>
    </clipPath>
  </defs>
  <g id="Antartide" transform="translate(-0.558 -0.749)">
    <g id="Raggruppa_4" data-name="Raggruppa 4" transform="translate(0.558 0.749)" clip-path="url(#clip-path)">
      <rect id="Rettangolo_12" data-name="Rettangolo 12" width="36" height="24" transform="translate(-6.005 0)" fill="#00169f"/>
      <path id="Tracciato_101" data-name="Tracciato 101" d="M3.768,1.219,3.456,1.2,1.863,4.35a4.676,4.676,0,0,1,1.7,1.507l3.1-2.066a8.149,8.149,0,0,0-1.4-1.582H5.049L4.984,2.1,4.952,1.94a6.377,6.377,0,0,0-.517-.377l-.161.054Z" transform="translate(12.182 3.625)" fill="#fff"/>
      <path id="Tracciato_102" data-name="Tracciato 102" d="M1.674,1.1V4.822a4.457,4.457,0,0,1,1.991.484L5.258,2.153,4.892,2.12c-.043-.022-.624-.592-.624-.592l-.474.1L3.019,1.41l-.474.118-.667-.194V1.1h-.2" transform="translate(10.337 2.658)" fill="#fff"/>
      <path id="Tracciato_103" data-name="Tracciato 103" d="M2.312,1.222l-.2.075c.151.108.3.215.452.334L2.549,1.62Z" transform="translate(14.574 3.869)" fill="#fff"/>
      <path id="Tracciato_104" data-name="Tracciato 104" d="M3.129,2.1,1.138,3.42l.086.355.818.248.269.334L2.9,4.324l.538.5.183-.28L4,4.787,4.248,4.4l.14.14.452-.915A4.586,4.586,0,0,1,3.129,2.1" transform="translate(5.104 12.401)" fill="#fff"/>
      <path id="Tracciato_105" data-name="Tracciato 105" d="M1.674,6.3a4.247,4.247,0,0,0,1.991-.474L1.674,1.868Z" transform="translate(10.337 10.175)" fill="#fff"/>
      <path id="Tracciato_106" data-name="Tracciato 106" d="M3.423,1.37l-1.109.743A7.812,7.812,0,0,1,3.336,4.276L3.627,4,3.541,3.34l-.118-.764-.194-.409.194-.581Z" transform="translate(16.585 5.313)" fill="#fff"/>
      <path id="Tracciato_107" data-name="Tracciato 107" d="M.907,1.613l.237.183L.95,1.968l.215.086-.194.42.108-.022c.065-.269.14-.549.226-.807Z" transform="translate(2.849 7.686)" fill="#fff"/>
      <path id="Tracciato_108" data-name="Tracciato 108" d="M1.674,3.369l.108.022.161.291.42.2L2.7,3.627l.161-.409L3.3,3.24l-.054.387.151.312-.022.215.1.194L3.2,4.5l.108.226V5.08l-.291-.129-.14.28-.054.334-.108.226.2.269V5.877l.527.161.269.151a8.391,8.391,0,0,0,1.647-.624L3.687,2.239a4.661,4.661,0,0,1-2.013.484Z" transform="translate(10.337 13.797)" fill="#fff"/>
      <path id="Tracciato_109" data-name="Tracciato 109" d="M3.672,1.865A8.211,8.211,0,0,1,2.316,6.407l1.356.9L3.747,7.3l-.517-.4.258-.323.387-.065.118-.291.2-.237.344.075.1-.441-.355-.57.646-.592L4.781,4.33l-.065-.517h.463l.215-.43L5.082,2.92l.194-.312L4.92,2.026V1.865Z" transform="translate(16.604 10.146)" fill="#fff"/>
      <path id="Tracciato_110" data-name="Tracciato 110" d="M3.657,1.494,1.677,5.422,5.347,2.99a4.52,4.52,0,0,0-1.69-1.5" transform="translate(10.366 6.524)" fill="#fff"/>
      <path id="Tracciato_111" data-name="Tracciato 111" d="M2.52,1.691A7.98,7.98,0,0,1,3.542,2.939l1.13-.753V2.014l-.786-.258-.248.129-.323-.118V1.433l-.592-.151-.355.086H2.186l.334.323" transform="translate(15.335 4.454)" fill="#fff"/>
      <path id="Tracciato_112" data-name="Tracciato 112" d="M2.91,2.557l-.334-.775-.151-.075A8.49,8.49,0,0,1,2.6,3.364l1.248.011V3.128l-.28-.484Z" transform="translate(17.678 8.603)" fill="#fff"/>
      <path id="Tracciato_113" data-name="Tracciato 113" d="M.927,3.6l.2-.032.323-.118.054.409.538-.409.377.334-.484.237.118.237.312.172-.334.183v.678H1.648l.043.129H4.436A4.7,4.7,0,0,1,5.178,2.98l-.613-.42-.829.269-.872-.28L2.638,2.1l-.463-.323-.441-.28a6.984,6.984,0,0,0-.506,1.119h.108l.011.2-.2-.022c-.086.269-.151.538-.215.807" transform="translate(3.044 6.534)" fill="#fff"/>
      <path id="Tracciato_114" data-name="Tracciato 114" d="M6.5,5.961a7.968,7.968,0,0,0-.183-1.69l-.258-.14.108-.474A8.21,8.21,0,0,0,5.123,1.441l-3.1,2.066a4.525,4.525,0,0,1,.753,2.454Z" transform="translate(13.744 6.007)" fill="#fff"/>
      <path id="Tracciato_115" data-name="Tracciato 115" d="M6.062,1.865H1.682L5.341,4.3a4.483,4.483,0,0,0,.721-2.432" transform="translate(10.415 10.146)" fill="#fff"/>
      <path id="Tracciato_116" data-name="Tracciato 116" d="M5.32,1.635,1.682,4.057l4.38.011A4.411,4.411,0,0,0,5.32,1.635" transform="translate(10.415 7.9)" fill="#fff"/>
      <path id="Tracciato_117" data-name="Tracciato 117" d="M3.679,5.836a4.5,4.5,0,0,0,1.69-1.517L1.677,1.865Z" transform="translate(10.366 10.146)" fill="#fff"/>
      <path id="Tracciato_118" data-name="Tracciato 118" d="M1.674,5.85l1.98-3.928a4.549,4.549,0,0,0-1.98-.474Z" transform="translate(10.337 6.075)" fill="#fff"/>
      <path id="Tracciato_119" data-name="Tracciato 119" d="M6.665,4.162,3.565,2.1a4.554,4.554,0,0,1-1.7,1.528L3.544,6.95A8.368,8.368,0,0,0,6.665,4.162" transform="translate(12.201 12.401)" fill="#fff"/>
      <path id="Tracciato_120" data-name="Tracciato 120" d="M3.474,2.552a8.03,8.03,0,0,1-1.6.6l.065.043.57-.054.258.183.387-.032.4.108.269-.172Z" transform="translate(12.25 16.852)" fill="#fff"/>
      <path id="Tracciato_121" data-name="Tracciato 121" d="M1.2,2.464l.226.312-.28.161.118.248L1.486,3l.129.334.14.032.151.387.323.011a7.26,7.26,0,0,1,.517-1.141l-.161-.086-.075-.355H1.766L.991,1.377.819,1.7l.043.377L.819,2.3Z" transform="translate(1.99 5.382)" fill="#fff"/>
      <path id="Tracciato_122" data-name="Tracciato 122" d="M1.671,1.1Z" transform="translate(10.307 2.658)" fill="#fff"/>
      <path id="Tracciato_123" data-name="Tracciato 123" d="M1.9,2.24l-.463.926.151.151.323.215.032-.3.6.054.129-.2,1.012.237.215.043V2.724a4.614,4.614,0,0,1-2-.484" transform="translate(8.072 13.807)" fill="#fff"/>
      <path id="Tracciato_124" data-name="Tracciato 124" d="M2.991,5.39l.161.108.269-.1.011.1.172.237.215-.312.872-.355h.291l.14-.366.344-.334-.14-.43.086-.291.549-.108L5.983,3.3,6.5,3.183,5.165,2.29A7.875,7.875,0,0,1,4.121,3.571,8.525,8.525,0,0,1,2.022,5.1l.344.678L2.5,5.691Z" transform="translate(13.734 14.295)" fill="#fff"/>
      <path id="Tracciato_125" data-name="Tracciato 125" d="M1.9,1.339h.054V1.07l-.312.065Z" transform="translate(10.028 2.385)" fill="#fff"/>
      <path id="Tracciato_126" data-name="Tracciato 126" d="M1.878,1.368V1.315L1.8,1.067l-.129.022v.28h.2" transform="translate(10.337 2.355)" fill="#fff"/>
      <path id="Tracciato_127" data-name="Tracciato 127" d="M6.481,1.865H2.757a4.474,4.474,0,0,1-.732,2.454l3.1,2.066a8.156,8.156,0,0,0,1.356-4.52" transform="translate(13.763 10.146)" fill="#fff"/>
      <path id="Tracciato_128" data-name="Tracciato 128" d="M3.9,1.874V1.863H1.154l.151.893L1.23,2.95l-.248.075L1,3.6l.452.108.14-.42.118.194.657-.1.043.151-.129.291-.312.312.4.269v.57l.215.377.065.3L4.63,4.328A4.447,4.447,0,0,1,3.9,1.874" transform="translate(3.581 10.126)" fill="#fff"/>
      <path id="Tracciato_129" data-name="Tracciato 129" d="M1.872,4.032A4.53,4.53,0,0,1,3.583,2.525L3,1.384l-.237.291.258.194.043.355-.344.14-.075.344-.355.108v.291l-.237-.032L2.012,3.4l-.743.237Z" transform="translate(6.383 5.45)" fill="#fff"/>
      <path id="Tracciato_130" data-name="Tracciato 130" d="M3.018,1.493a4.362,4.362,0,0,0-1.69,1.5L4.987,5.432Z" transform="translate(6.959 6.514)" fill="#fff"/>
      <path id="Tracciato_131" data-name="Tracciato 131" d="M1.257,1.874a4.483,4.483,0,0,0,.721,2.432L5.637,1.874l-4.38-.011Z" transform="translate(6.266 10.126)" fill="#fff"/>
      <path id="Tracciato_132" data-name="Tracciato 132" d="M1.433,4.1l.581,1.162a4.369,4.369,0,0,1,1.98-.474V1.1l-.291.28-.28.183-.409-.011L3,1.8l-.527.14-.065.42-.334.011-.032.248-.377.022.022.678-.2.721Z" transform="translate(7.984 2.697)" fill="#fff"/>
      <path id="Tracciato_133" data-name="Tracciato 133" d="M1.257,4.057l4.38.011L2,1.635a4.464,4.464,0,0,0-.743,2.422" transform="translate(6.266 7.9)" fill="#fff"/>
      <path id="Tracciato_134" data-name="Tracciato 134" d="M3.458,5.807V1.448a4.466,4.466,0,0,0-1.97.474L3.458,5.85Z" transform="translate(8.521 6.075)" fill="#fff"/>
      <path id="Tracciato_135" data-name="Tracciato 135" d="M3.467,1.911V1.868L1.487,5.839a4.512,4.512,0,0,0,1.98.474Z" transform="translate(8.511 10.175)" fill="#fff"/>
      <path id="Tracciato_136" data-name="Tracciato 136" d="M3.025,5.837,5.016,1.866,1.325,4.32a4.526,4.526,0,0,0,1.7,1.517" transform="translate(6.93 10.156)" fill="#fff"/>
      <path id="Tracciato_137" data-name="Tracciato 137" d="M29.973,12.76,36,12.771v-.043H29.973a11.9,11.9,0,0,0-1.991-6.608L36,.771V.749h-.032L27.961,6.087a11.838,11.838,0,0,0-1.5-1.8,11.6,11.6,0,0,0-3.057-2.228L24.065.749h-.043L23.376,2.04A12.082,12.082,0,0,0,12.657,2.03L12.011.749h-.043l.657,1.3A11.556,11.556,0,0,0,9.535,4.29a11.765,11.765,0,0,0-1.485,1.8L.032.749H0V.771L8.029,6.119a11.888,11.888,0,0,0-2,6.576L0,12.684v.043l6.027.011v.011a11.826,11.826,0,0,0,1.98,6.6L0,24.7v.054H.043l7.986-5.37a11.613,11.613,0,0,0,1.507,1.84A12.086,12.086,0,0,0,12.6,23.447l-.657,1.3h.043l.646-1.281a11.961,11.961,0,0,0,5.349,1.259v.022h.032v-.022a11.885,11.885,0,0,0,5.37-1.27l.656,1.291h.043l-.656-1.313a12.146,12.146,0,0,0,3.035-2.217,12.311,12.311,0,0,0,1.517-1.84l8,5.37H36v-.022l-8-5.381a11.893,11.893,0,0,0,1.97-6.587M12.646,2.084l1.625,3.272A8.2,8.2,0,0,0,12.14,6.894a9.413,9.413,0,0,0-1.022,1.248L8.083,6.119a11.967,11.967,0,0,1,4.563-4.036M6.059,12.749l.011-.011H9.718v.011A8.22,8.22,0,0,0,11.074,17.3L8.039,19.325a11.864,11.864,0,0,1-1.98-6.576M12.624,23.4a11.994,11.994,0,0,1-4.563-4.047L11.1,17.334A8.4,8.4,0,0,0,12.14,18.6a8.151,8.151,0,0,0,2.12,1.539Zm.032.022,1.636-3.261a8.175,8.175,0,0,0,3.691.872v3.648a11.809,11.809,0,0,1-5.327-1.259m15.3-4.1-1.679-1.119-.043.011,1.7,1.141a12.042,12.042,0,0,1-4.531,4.036l-1.3-2.583-.032.022,1.291,2.583a11.873,11.873,0,0,1-5.349,1.27V21.036a8.1,8.1,0,0,0,2.109-.28l-.054-.022a8.6,8.6,0,0,1-2.056.258V17.915l-.032-.011v3.089a8.058,8.058,0,0,1-3.67-.872l1.205-2.411-.032-.022L14.271,20.11a8.438,8.438,0,0,1-3.132-2.8l1.109-.743-.011-.043-1.119.753a8.192,8.192,0,0,1-1.356-4.531v-.011h.979l-.011-.032L9.761,12.7a8.388,8.388,0,0,1,.2-1.808l-.043.011a8.289,8.289,0,0,0-.2,1.8H6.07A11.852,11.852,0,0,1,8.061,6.152L11.1,8.175a6.454,6.454,0,0,0-.355.581l.043.022q.161-.291.355-.581l2.475,1.647.043-.011-2.5-1.668a8.291,8.291,0,0,1,3.132-2.777l1.1,2.2.032-.032-1.1-2.174a8.221,8.221,0,0,1,3.659-.872l-.054-.032a8.168,8.168,0,0,0-3.616.861L12.678,2.073A11.719,11.719,0,0,1,17.984.814V4.2l.032-.011V.814a11.828,11.828,0,0,1,5.338,1.27L21.708,5.345a8.226,8.226,0,0,0-3.487-.872v.043a8.12,8.12,0,0,1,3.465.861L21.6,5.56h.022l.108-.161a6.781,6.781,0,0,1,.893.538l.054-.022a10.241,10.241,0,0,0-.936-.56l1.647-3.261a12.1,12.1,0,0,1,4.531,4.025l-1.9,1.27v.043l1.926-1.281a11.881,11.881,0,0,1,2,6.576H27.53v.032h2.411a11.855,11.855,0,0,1-1.98,6.565" transform="translate(-6.005 -0.749)" fill="#fff"/>
      <path id="Tracciato_138" data-name="Tracciato 138" d="M2.537,1.594,2.15,1.26l.011.065.312.269Z" transform="translate(14.984 4.24)" fill="#fff"/>
      <path id="Tracciato_139" data-name="Tracciato 139" d="M1.009,1.6l-.065.183.043.011L1.052,1.6Z" transform="translate(3.21 7.549)" fill="#fff"/>
      <path id="Tracciato_140" data-name="Tracciato 140" d="M2.568,2.329l.043.022c-.054-.237-.108-.474-.183-.71v.011l-.022.065q.1.307.161.613" transform="translate(17.493 7.949)" fill="#fff"/>
      <path id="Tracciato_141" data-name="Tracciato 141" d="M1.671,1.131l.022-.022L1.671,1.1Z" transform="translate(10.306 2.662)" fill="#fff"/>
    </g>
  </g>
</svg>
