<svg xmlns="http://www.w3.org/2000/svg" xmlns:xlink="http://www.w3.org/1999/xlink" width="24" height="24" viewBox="0 0 24 24">
  <defs>
    <clipPath id="clip-path">
      <path id="Tracciato_170" data-name="Tracciato 170" d="M.547,12.749a12,12,0,1,0,12-12,12,12,0,0,0-12,12" transform="translate(-0.547 -0.749)" fill="none"/>
    </clipPath>
  </defs>
  <g id="Arabia_saudita" data-name="Arabia saudita" transform="translate(-0.547 -0.749)">
    <g id="Raggruppa_5" data-name="Raggruppa 5" transform="translate(0.547 0.749)" clip-path="url(#clip-path)">
      <rect id="Rettangolo_13" data-name="Rettangolo 13" width="35.785" height="23.882" transform="translate(-5.887 0.065)" fill="#093"/>
      <path id="Tracciato_143" data-name="Tracciato 143" d="M1.034,3.539c.065.108.269.248.387.108l.065-.14a8.624,8.624,0,0,1,.248-.9c.011-.032.032-.118.075-.118a2.585,2.585,0,0,0,.248,1.173.365.365,0,0,0,.334.161l.118-.032c.011.226.022.452.022.678l.032.56c0,.108,0,.312.1.4.14.1.161-.269.161-.334a9.046,9.046,0,0,0-.108-1.528l.022-.032c.043-.065.161-.2.237-.194.054.022.086.14.108.183a.462.462,0,0,0,.2.151.5.5,0,0,0,.7-.4,2.251,2.251,0,0,0-.075-.71l-.054-.269V2.216h.054l.054-.032V2.129l-.043-.14c-.032-.108-.108-.269-.248-.269-.118,0-.183.108-.2.215a.592.592,0,0,0,.086.377,2.416,2.416,0,0,1,.14.613c.022.118.043.28-.129.291-.215.022-.344-.215-.387-.387a2.247,2.247,0,0,1-.086-.538,1.053,1.053,0,0,0-.075-.452c-.108-.172-.237-.043-.258.108-.054.291.172.538.161.818a.64.64,0,0,1-.237.484,5.361,5.361,0,0,1-.054-.57c-.011-.151-.011-.291-.032-.441,0-.043-.022-.1,0-.14l.086-.108a.613.613,0,0,0-.248-.635c-.075-.043-.108-.054-.151.022a.444.444,0,0,0-.054.312.323.323,0,0,0,.075.258L2.347,2c.032.043.022.1.032.14l.032.161c.022.344.054.678.075,1.012a.373.373,0,0,1-.334-.183,1.514,1.514,0,0,1-.032-1.022.705.705,0,0,0,.011-.258c-.022-.086-.118-.075-.183-.043a.381.381,0,0,0-.172.172,3.225,3.225,0,0,0-.194.441l-.065.269c-.022.118-.075.237-.108.355-.032.075-.065.215-.161.194s-.129-.14-.14-.215c-.032-.108-.043-.226-.065-.334s-.022-.215-.022-.323a.88.88,0,0,0-.011-.291c-.065-.151-.129.065-.14.151A2.02,2.02,0,0,0,.959,3.41l.075.129" transform="translate(2.173 4.834)" fill="#fff"/>
      <path id="Tracciato_144" data-name="Tracciato 144" d="M.922,1.581c.054.022.065-.032.1-.065h.065c.043,0,.065.043.075.075a.451.451,0,0,1-.043.172l-.032.065-.043.108-.022.043L1.084,1.9,1.159,1.8a.433.433,0,0,0,.1-.355l-.054-.1a.23.23,0,0,0-.334.129.089.089,0,0,0,.054.108" transform="translate(2.565 4.726)" fill="#fff"/>
      <path id="Tracciato_145" data-name="Tracciato 145" d="M1.109,1.694a.161.161,0,0,0,.14.011l.118-.065.043-.011L1.5,1.7a.214.214,0,0,0,.118-.011.2.2,0,0,0,.118-.172c0-.043-.022-.118-.086-.108s-.032.1-.054.14l-.065.032-.1-.065-.022-.043L1.4,1.435H1.368l-.022.032c-.032.075-.14.118-.183.022l-.011-.075c0-.032.043-.1-.022-.1l-.054.011-.032.043a.308.308,0,0,0,.011.258l.054.065" transform="translate(4.089 4.796)" fill="#fff"/>
      <path id="Tracciato_146" data-name="Tracciato 146" d="M2.079,1.765l-.108-.022-.043-.032-.022-.032H1.874l-.011.043c-.011.075-.1.151-.161.075L1.67,1.732c-.011-.043,0-.108-.054-.086l-.054.032-.011.054a.282.282,0,0,0,.1.237l.065.043a.209.209,0,0,0,.14-.032l.086-.108.043-.022.108.043L2.2,1.84a.2.2,0,0,0,.043-.2c-.011-.043-.054-.1-.108-.065s0,.086,0,.14l-.054.054" transform="translate(9.243 7.179)" fill="#fff"/>
      <path id="Tracciato_147" data-name="Tracciato 147" d="M2.179,1.57l-.032.043-.086.043-.054-.032c-.022-.043.022-.108-.043-.129s-.086.043-.086.086a.2.2,0,0,0,.1.172l.108.022.086-.065.043.011.1.075a.175.175,0,0,0,.129-.011l.054-.043a.269.269,0,0,0,.032-.237L2.5,1.463l-.054-.022c-.054,0-.022.054-.032.086L2.405,1.6c-.043.075-.14.032-.172-.032V1.538L2.2,1.527l-.022.043" transform="translate(12.447 6.007)" fill="#fff"/>
      <path id="Tracciato_148" data-name="Tracciato 148" d="M1.658,1.689a2.7,2.7,0,0,0-.57.4l-.032.022c-.065.054-.237.14-.215.237.1-.032.194-.108.291-.151a2.677,2.677,0,0,1,.3-.161c.118-.043.226-.065.344-.1.1-.032.323-.075.344-.2.011-.075-.022-.14-.086-.14a.785.785,0,0,0-.377.1" transform="translate(2.292 7.47)" fill="#fff"/>
      <path id="Tracciato_149" data-name="Tracciato 149" d="M1.327,2.706c-.043.054-.065.118-.151.054a.316.316,0,0,1-.1-.237,3.213,3.213,0,0,1,.151-.71V1.748c-.011-.043-.054-.011-.075.022l-.043.086a2.056,2.056,0,0,0-.161.3,2.058,2.058,0,0,0-.108.56.453.453,0,0,0,.118.42A.3.3,0,0,0,1.413,3.1a.488.488,0,0,0,.043-.366.071.071,0,0,0-.129-.032" transform="translate(2.268 8.799)" fill="#fff"/>
      <path id="Tracciato_150" data-name="Tracciato 150" d="M3.844,5.487c0-.291.011-.57,0-.861a.189.189,0,0,1,.151.065.414.414,0,0,0,.28.14.479.479,0,0,0,.28-.108c.065-.043.129-.14.215-.1s.14.129.237.151a.425.425,0,0,0,.3-.075.617.617,0,0,0,.14-.452c-.011-.054-.022-.237-.1-.226s-.086.108-.086.161c0,.086.065.2,0,.28l-.108.022H5.071A.235.235,0,0,1,4.91,4.3l-.032-.129-.065-.118a1.708,1.708,0,0,1-.194.366c-.1.1-.344.194-.43.043a.424.424,0,0,1-.065-.226c0-.043.032-.151-.022-.172s-.108.086-.14.108l-.14.118L3.812,4.12c-.032-.248-.065-.484-.086-.732a3.789,3.789,0,0,1-.043-.85c.022-.108.161-.075.237-.1.086-.118.011-.28-.032-.4-.054-.161-.118-.312-.183-.474-.032-.075-.075-.226-.183-.248s-.2.161-.226.258a1.645,1.645,0,0,0,.011.4c.022.194.075.377.1.57.054.635.151,1.27.172,1.916l-.291.14a1.294,1.294,0,0,0-.194-.43.421.421,0,0,0-.678.065.661.661,0,0,0-.043.6.331.331,0,0,0,.248.226.952.952,0,0,0,.452-.1l.022-.011.011.022a1.189,1.189,0,0,1-.549.85.811.811,0,0,1-.764.108.643.643,0,0,1-.334-.581l.022-.151L1.5,5.142l.011-.075c-.011-.086-.065.011-.075.043a1.367,1.367,0,0,0-.011.99.658.658,0,0,0,.226.258.93.93,0,0,0,.592.043,1.716,1.716,0,0,0,.71-.291,1.165,1.165,0,0,0,.4-.592,1.357,1.357,0,0,0-.011-.657l.237-.108A3.529,3.529,0,0,1,3.424,6.1a1.25,1.25,0,0,1-1.012.667,1.276,1.276,0,0,1-1.065-.183.786.786,0,0,1-.183-.366V6.2a2.5,2.5,0,0,1-.043-.57l.054-.237v-.1l-.086.054c-.043.1-.054.2-.086.3L.96,5.82a2.943,2.943,0,0,0-.054.538c.032.807.807,1,1.485.915A1.9,1.9,0,0,0,3.5,6.735a1.722,1.722,0,0,0,.344-1.248M2.822,4.712c-.075-.011-.161-.043-.183-.118a.122.122,0,0,1,.054-.161c.108-.054.226.075.291.151l.065.108a.769.769,0,0,1-.226.022" transform="translate(2.958 4.824)" fill="#fff"/>
      <path id="Tracciato_151" data-name="Tracciato 151" d="M1.274,2.828l.194-.065.2-.1a2.613,2.613,0,0,0,.344-.258,1.728,1.728,0,0,0,.3-.323l.022-.043h.054c.065,0,.108-.022.043-.075l-.011-.011.043-.14a.493.493,0,0,0,0-.409A.2.2,0,0,0,2.2,1.354a.377.377,0,0,0-.032.635l-.054.075a1.556,1.556,0,0,1-.4.4,3.389,3.389,0,0,1-.441.334l-.054.043.054-.011M2.285,1.58c.054.022.032.075.022.118l-.043.129a.354.354,0,0,1-.075-.14c0-.054.032-.14.1-.108" transform="translate(6.023 4.867)" fill="#fff"/>
      <path id="Tracciato_152" data-name="Tracciato 152" d="M1.515,1.585l.011-.011.065-.1-.043-.022c-.086.022-.151.129-.194.194a.4.4,0,0,0-.043.409c.108.226.463.1.506-.118,0-.022.011-.129-.032-.129L1.708,1.9a.222.222,0,0,1-.215.022c-.065-.043-.043-.151-.032-.215l.054-.118" transform="translate(6.536 6.153)" fill="#fff"/>
      <path id="Tracciato_153" data-name="Tracciato 153" d="M1.455,2.462a.349.349,0,0,0,.108-.194,1.284,1.284,0,0,0,.054-.28c0-.14-.065-.355-.248-.3a.175.175,0,0,0-.129.129l.011.086.022.075.1.011a.127.127,0,0,1,.1.1,1.04,1.04,0,0,1-.043.312c-.011.032-.022.1.032.065" transform="translate(6.218 8.322)" fill="#fff"/>
      <path id="Tracciato_154" data-name="Tracciato 154" d="M1.508,3.23c.14.248.527.474.71.14.118-.226.075-.517.183-.753.022-.032.065-.129.118-.108s.065.151.065.2c.022.28-.032.624.2.829a.619.619,0,0,0,.506.129.808.808,0,0,0,.452-.3c.054-.054.086-.14.183-.065.065.043.1.129.172.172a.535.535,0,0,0,.764-.172.837.837,0,0,0,.054-.56,3.972,3.972,0,0,1-.151-.71c0-.183.269.1.226-.161-.022-.151-.194-.6-.42-.452a.338.338,0,0,0-.118.151c-.118.258.108.538.161.775a3.345,3.345,0,0,1,.032.463.368.368,0,0,1-.1.312.252.252,0,0,1-.334-.1A1.136,1.136,0,0,1,4.048,2.4a2.278,2.278,0,0,0-.194-1c-.043-.065-.108-.118-.183-.075a.265.265,0,0,0-.108.215,1.545,1.545,0,0,0,.086.5,3.255,3.255,0,0,1,.022.463.827.827,0,0,1-.183.57.519.519,0,0,1-.549.172.422.422,0,0,1-.183-.248,2.444,2.444,0,0,1-.032-.484c.011-.161.054-.3.075-.452a.417.417,0,0,0-.011-.3c-.14-.022-.269.129-.355.215a.841.841,0,0,0-.151.452.957.957,0,0,1-.086.355c-.054.086-.151.226-.248.248-.172.043-.28-.183-.323-.312a1.244,1.244,0,0,1-.086-.344A1.036,1.036,0,0,1,1.583,2c0-.022.022-.1-.032-.075l-.032.043a.68.68,0,0,0-.151.409l-.011.054a1.97,1.97,0,0,0,.032.506.87.87,0,0,0,.118.291" transform="translate(7.35 4.723)" fill="#fff"/>
      <path id="Tracciato_155" data-name="Tracciato 155" d="M1.709,2.1h0l-.043.108c.043.054.1-.086.1-.108l.054-.2a.874.874,0,0,0-.032-.441c-.043-.086-.14-.183-.226-.1-.118.1.032.28.1.355a.414.414,0,0,1,.054.387" transform="translate(8.892 4.883)" fill="#fff"/>
      <path id="Tracciato_156" data-name="Tracciato 156" d="M2.073,2.1h0L2.03,2.21c.043.054.1-.086.1-.108l.054-.2a.874.874,0,0,0-.032-.441c-.043-.086-.14-.183-.226-.1-.118.1.032.28.1.355a.414.414,0,0,1,.054.387" transform="translate(12.446 4.883)" fill="#fff"/>
      <path id="Tracciato_157" data-name="Tracciato 157" d="M2.574,2.129h0l-.043.108c.032.054.086-.086.1-.108l.054-.2a.874.874,0,0,0-.032-.441c-.043-.086-.14-.183-.237-.1s.043.28.108.366a.393.393,0,0,1,.054.377" transform="translate(17.294 5.146)" fill="#fff"/>
      <path id="Tracciato_158" data-name="Tracciato 158" d="M2.391,2.308l-.043.1c.043.043.1-.086.1-.1A.689.689,0,0,0,2.5,2.125a.677.677,0,0,0-.032-.387c-.043-.075-.14-.161-.226-.086-.118.1.032.248.1.323A.315.315,0,0,1,2.391,2.308Z" transform="translate(15.55 7.776)" fill="#fff"/>
      <path id="Tracciato_159" data-name="Tracciato 159" d="M6.4,4.157a6.66,6.66,0,0,1,.624-.3c.2-.075.43-.086.646-.151.129-.043.344-.129.366-.291.011-.183-.215-.215-.344-.215-.237,0-.474.043-.71.054-.065.011-.893-.011-.893-.022.011-.161.42-.3.71-.4l.043.022.129-.022L7,2.768l.086-.032a1.161,1.161,0,0,0,.4-.28.5.5,0,0,0-.14-.7.61.61,0,0,0-.861.312A.657.657,0,0,0,6.5,2.5l-.366.108c-.172.043-.334.086-.5.14a.842.842,0,0,0-.377.194.348.348,0,0,0,.032.527.894.894,0,0,0,.527.1c.118.011.387,0,.42.151.022.118-.118.172-.2.215-.108.054-.226.108-.248.248-.011.075-.011.344.054.387a5.567,5.567,0,0,1-.635-.387c-.269-.215-.258-.549-.269-.883a5.185,5.185,0,0,0-.258-1.227l-.065-.323a.27.27,0,0,0-.086-.194.255.255,0,0,0-.291.108.347.347,0,0,0-.065.248,1.785,1.785,0,0,0,.172.527c.075.215.151.42.215.635a1.175,1.175,0,0,1-.086.915,1.933,1.933,0,0,1-.6.678c-.226.151-.6.28-.829.065a.384.384,0,0,1-.118-.237l.086-.054c.517-.312,1.216-.936,1.044-1.625-.032-.118-.226-.441,0-.474.065-.011-.065-.323-.086-.344a.417.417,0,0,0-.291-.215c-.2-.011-.269.291-.248.43a1.629,1.629,0,0,0,.269.549.665.665,0,0,1-.065.8,2.532,2.532,0,0,1-.635.5,1.668,1.668,0,0,0,.075-.377V3.651c0-.065-.022-.14-.086-.108a.34.34,0,0,0-.151.151,1.3,1.3,0,0,0-.2.581c-.237.151-.452.3-.689.452L1.655,4.9c-.161.086-.334.151-.506.237.215.1.517-.075.721-.14a6.124,6.124,0,0,0,.764-.344l.054.248a.757.757,0,0,0,.4.377,1.382,1.382,0,0,0,.979-.215,2.09,2.09,0,0,0,.4-.355c.086-.086.161-.172.248-.248.054-.065.075-.172.172-.14s.172.151.237.226a1.755,1.755,0,0,0,.248.312,1.579,1.579,0,0,0,.4.258,1.359,1.359,0,0,0,.581.14c.14,0,.344-.108.323-.258-.043-.323-.807-.56-.269-.839M6.778,2.2a.167.167,0,0,1,.086-.118c.14-.065.366.065.248.215a.337.337,0,0,1-.258.129A.357.357,0,0,1,6.778,2.2" transform="translate(5.33 6.928)" fill="#fff"/>
      <path id="Tracciato_160" data-name="Tracciato 160" d="M2.424,2.147c-.1.054-.258.14-.366.075-.043-.032-.022-.086-.011-.129s.1-.237.022-.28c-.043-.022-.108.032-.151.043l-.151.054a.087.087,0,0,0-.054.1l.011.011c.032.043.118.011.161.011l-.108.2a.17.17,0,0,0,.054.215c.151.129.42-.065.538-.161.1-.065.215-.108.248-.226-.043-.022-.151.065-.194.086" transform="translate(10.824 9.595)" fill="#fff"/>
      <path id="Tracciato_161" data-name="Tracciato 161" d="M3.58,4.424c.183.312.366.613.517.926a1.919,1.919,0,0,1,.151.387c.011.022.172.323.183.28.054-.14-.043-.312-.1-.452a11.408,11.408,0,0,0-1.119-2.12,2.777,2.777,0,0,0-.032-.517c-.011-.032-.075-.592-.011-.57.108.065.3.172.312-.011a1.176,1.176,0,0,0-.172-.538c-.043-.086-.118-.43-.237-.43-.14.011-.215.183-.248.312l-.022.075a1.793,1.793,0,0,0,.043.635l.065.581a2.131,2.131,0,0,0-.258-.377c-.022-.022-.355-.474-.291-.484.118,0,.344,0,.269-.172a1.29,1.29,0,0,0-.42-.377c-.086-.054-.323-.312-.42-.248-.118.075-.1.258-.065.4l.022.075a1.9,1.9,0,0,0,.355.527c.161.194.3.4.452.6.151.183.291.366.43.56a13.236,13.236,0,0,1,.086,1.474c0,.355.011.71-.022,1.065-.011.14-.032.269-.054.409l.011.334c.118-.108.118-.3.14-.452a12.351,12.351,0,0,0,.1-2.443c.118.183.226.366.334.549" transform="translate(10.744 4.767)" fill="#fff"/>
      <path id="Tracciato_162" data-name="Tracciato 162" d="M3.079,1.31c-.14.011-.2.183-.248.312l-.011.086a1.826,1.826,0,0,0,.065.635c.043.248.065.5.118.743A15.875,15.875,0,0,1,3.2,5.12a2.14,2.14,0,0,1-.484,1.808,2.65,2.65,0,0,1-.678.334c-.151.075-.291.194-.065.258.463.14,1.065-.387,1.259-.775a4.41,4.41,0,0,0,.14-2.088,11.2,11.2,0,0,0-.118-1.7c-.011-.075-.065-.678-.054-.667.108.054.312.161.323-.032a1.209,1.209,0,0,0-.194-.527c-.043-.086-.129-.43-.248-.42" transform="translate(12.193 4.727)" fill="#fff"/>
      <path id="Tracciato_163" data-name="Tracciato 163" d="M3.735,1.73c-.043-.086-.129-.42-.248-.42-.14.011-.2.183-.248.323l-.011.075a1.826,1.826,0,0,0,.065.635c.043.248.065.5.118.743A16.253,16.253,0,0,1,3.606,5.12a2.324,2.324,0,0,1-.194,1.205,1.885,1.885,0,0,1-.549.581c-.118.086-.592.334-.506.517.065.172.42.022.517-.032A2.382,2.382,0,0,0,3.821,5.3c0-.215-.032-.43-.043-.646a11.2,11.2,0,0,0-.118-1.7c-.011-.075-.065-.678-.054-.667.108.054.312.161.323-.022a1.2,1.2,0,0,0-.194-.538" transform="translate(17.026 4.728)" fill="#fff"/>
      <path id="Tracciato_164" data-name="Tracciato 164" d="M2.579,4.874c.022.355.075.7.075,1.055a2.743,2.743,0,0,1-.022.42l.032.334c.129-.118.1-.312.108-.463A11.684,11.684,0,0,0,2.6,3.55a3.9,3.9,0,0,0-.108-.71c-.011-.032-.118-.581-.054-.56.108.043.3.14.3-.054a1.106,1.106,0,0,0-.226-.517c-.032-.086-.14-.42-.269-.4s-.194.194-.226.323v.086a1.772,1.772,0,0,0,.108.624c.043.248.086.5.14.743a10.013,10.013,0,0,1,.312,1.787" transform="translate(13.759 4.737)" fill="#fff"/>
      <path id="Tracciato_165" data-name="Tracciato 165" d="M5.519,4.667q.032.4.032.807c0,.129-.011.248-.022.377l.022.3a.65.65,0,0,0,.108-.42c.022-.269.022-.549.022-.818.1.14.183.28.269.43a2.434,2.434,0,0,1,.183.377l.194.269A.677.677,0,0,0,6.2,5.539c-.161-.334-.334-.646-.517-.958a9.939,9.939,0,0,0-.108-1.259c-.032-.215-.032-.43-.086-.646,0-.022-.1-.517-.043-.506.1.043.269.129.269-.043a1.008,1.008,0,0,0-.172-.463c-.043-.075-.129-.377-.237-.355s-.172.183-.194.3l-.022.075a1.96,1.96,0,0,0,.086.56c.032.226.075.441.118.667a9.718,9.718,0,0,1,.194,1.367,10.708,10.708,0,0,0-.71-1.012l-.011-.011a4.84,4.84,0,0,0-.075-.678c-.011-.022-.065-.43-.022-.409.075.032.215.108.215-.022a.83.83,0,0,0-.129-.387c-.032-.065-.1-.312-.183-.3S4.421,1.6,4.4,1.7l-.011.065a1.089,1.089,0,0,0,.054.452c.032.237.054.463.065.7A1.623,1.623,0,0,0,4.324,2.7C4.3,2.676,3.937,2.245,4,2.235c.118-.011.344-.022.258-.183A1.13,1.13,0,0,0,3.808,1.7c-.075-.054-.334-.291-.43-.226-.108.086-.075.269-.032.4l.022.086a1.92,1.92,0,0,0,.4.5c.161.194.323.387.5.57l.269.312.011.3c.011.43.065.872.075,1.3.011.291.022,1.248-.463,1.227-.269-.022-.355-.441-.624-.43-.56.022-.3,1.195-.99,1.162-.226-.011-.28-.248-.3-.43-.011-.086.032-.549-.054-.6s-.14.086-.151.161c-.054.366.215,1.733.829,1.227a3.216,3.216,0,0,0,.517-.807c.032-.054.14-.2.226-.151.161.1.226.248.409.312a.72.72,0,0,0,.56-.043c.355-.237.3-.839.312-1.205A13.155,13.155,0,0,0,4.8,3.9l-.011-.269c.2.269.4.538.581.818l.151.215" transform="translate(13.885 4.707)" fill="#fff"/>
      <path id="Tracciato_166" data-name="Tracciato 166" d="M2.183,2.032c.054.022.054-.065.086-.075.129-.065.161.506.334.441.075-.022.043-.172.032-.226a1.388,1.388,0,0,1,0-.366c.011-.118.108-.054.183-.086.108-.032.065-.2-.011-.248-.108-.065-.237.032-.269.14a1.421,1.421,0,0,0,.022.3c0,.043.022.14-.022.172s-.065-.032-.075-.065c-.043-.065-.194-.506-.323-.3a.31.31,0,0,0-.011.14c0,.054,0,.151.054.172" transform="translate(14.875 6.115)" fill="#fff"/>
      <path id="Tracciato_167" data-name="Tracciato 167" d="M3.125,1.583c-.075-.075-.183.054-.237.118a2.775,2.775,0,0,1-.57.5c-.032.032-.226.14-.172.183l.1-.022a4.819,4.819,0,0,0,.506-.3,2.731,2.731,0,0,0,.366-.248.155.155,0,0,0,.011-.226" transform="translate(14.967 7.167)" fill="#fff"/>
      <path id="Tracciato_168" data-name="Tracciato 168" d="M2.555,2.137c-.086-.1.043-.172.065-.248.022-.108-.183-.065-.237-.065-.086,0-.14.032-.065.1.108.1.129.183.011.28-.043.032-.086.065-.086.129s.032.075.108.075.42-.108.377-.215c-.022-.075-.129-.011-.172-.054" transform="translate(15.989 9.669)" fill="#fff"/>
      <path id="Tracciato_169" data-name="Tracciato 169" d="M14.421,2.992a.385.385,0,0,0-.215-.215,1.227,1.227,0,0,0-.28-.022H12.312V2.583a.152.152,0,0,0,.108-.151.156.156,0,0,0-.151-.161.166.166,0,0,0-.161.161.152.152,0,0,0,.108.151v.172H1.033c.538.721,2.228.549,4.961.56h.7l.5-.011c.183,0,.377,0,.57-.011h.646c.226,0,.463-.011.689-.011s.474-.011.71-.011h.721c.237-.011.463-.011.7-.011.215-.011.441-.011.656-.011h.334v.237a.19.19,0,0,0-.086.161.181.181,0,0,0,.183.183.189.189,0,0,0,.183-.183h.484a.165.165,0,0,0,.172.14.173.173,0,0,0,.172-.14h.517l.011.054a.266.266,0,0,0,.248.086.39.39,0,0,0,.344-.355l.022-.14a.972.972,0,0,0-.043-.3m-1.937.592a.184.184,0,0,0-.172-.118V3.25l.161-.011h.517l.4-.011h.43c.043,0,.032.022.032.065l-.011.237-.011.054h-.506a.183.183,0,0,0-.172-.151.174.174,0,0,0-.172.151Z" transform="translate(4.197 14.109)" fill="#fff"/>
    </g>
  </g>
</svg>
