<svg xmlns="http://www.w3.org/2000/svg" xmlns:xlink="http://www.w3.org/1999/xlink" width="24" height="24" viewBox="0 0 24 24">
  <defs>
    <clipPath id="clip-path">
      <path id="Tracciato_237" data-name="Tracciato 237" d="M1.43,12.749a12,12,0,1,0,12-12,12,12,0,0,0-12,12" transform="translate(-1.43 -0.749)" fill="none"/>
    </clipPath>
  </defs>
  <g id="Bosnia_Erzegovina" data-name="Bosnia Erzegovina" transform="translate(-1.43 -0.749)">
    <g id="Raggruppa_19" data-name="Raggruppa 19" transform="translate(1.43 0.749)" clip-path="url(#clip-path)">
      <rect id="Rettangolo_41" data-name="Rettangolo 41" width="48.151" height="24.075" transform="translate(-15.39 -0.032)" fill="#160d96"/>
      <path id="Tracciato_229" data-name="Tracciato 229" d="M3.255,1.076,3.75,2.6h1.6l-1.291.947.5,1.528-1.3-.947-1.3.947.5-1.528L1.146,2.6H2.76Z" transform="translate(-4.205 2.439)" fill="#fff"/>
      <path id="Tracciato_230" data-name="Tracciato 230" d="M3.533,1.353l.5,1.528H5.642l-1.3.947.5,1.528-1.3-.947-1.3.947.5-1.528-1.3-.947H3.037Z" transform="translate(-1.497 5.148)" fill="#fff"/>
      <path id="Tracciato_231" data-name="Tracciato 231" d="M3.8,1.635l.5,1.528H5.909l-1.3.947.5,1.528L3.8,4.692l-1.3.947.5-1.528L1.7,3.163H3.3Z" transform="translate(1.219 7.901)" fill="#fff"/>
      <path id="Tracciato_232" data-name="Tracciato 232" d="M4.092,1.917l.5,1.528H6.2l-1.3.947.5,1.528-1.3-.947-1.3.947.5-1.528-1.3-.947H3.6Z" transform="translate(3.964 10.649)" fill="#fff"/>
      <path id="Tracciato_233" data-name="Tracciato 233" d="M4.362,2.194l.5,1.528H6.471l-1.3.947.5,1.528-1.3-.947L3.06,6.2l.5-1.528L2.263,3.722h1.6Z" transform="translate(6.705 13.356)" fill="#fff"/>
      <path id="Tracciato_234" data-name="Tracciato 234" d="M4.651,2.476,5.146,4h1.6l-1.291.947.5,1.528-1.3-.947-1.3.947.5-1.528L2.541,4H4.156Z" transform="translate(9.418 16.106)" fill="#fff"/>
      <path id="Tracciato_235" data-name="Tracciato 235" d="M4.918,2.751l.5,1.528H7.027l-1.3.947v.011H4.111V5.227L2.819,4.28h1.6Z" transform="translate(12.134 18.8)" fill="#fff"/>
      <path id="Tracciato_236" data-name="Tracciato 236" d="M1.187.746H25.316V24.821Z" transform="translate(-3.806 -0.78)" fill="#ffd900"/>
    </g>
  </g>
</svg>
