<svg xmlns="http://www.w3.org/2000/svg" xmlns:xlink="http://www.w3.org/1999/xlink" width="24" height="23.989" viewBox="0 0 24 23.989">
  <defs>
    <clipPath id="clip-path">
      <path id="Tracciato_366" data-name="Tracciato 366" d="M1.1,12.744A12,12,0,1,0,13.107.749,12,12,0,0,0,1.1,12.744" transform="translate(-1.102 -0.749)" fill="none"/>
    </clipPath>
  </defs>
  <g id="Brunei_Darussalam" data-name="Brunei Darussalam" transform="translate(-1.102 -0.749)">
    <g id="Raggruppa_22" data-name="Raggruppa 22" transform="translate(1.102 0.749)" clip-path="url(#clip-path)">
      <rect id="Rettangolo_46" data-name="Rettangolo 46" width="51.72" height="25.86" transform="translate(-13.855 -0.935)" fill="#ffe600"/>
      <path id="Tracciato_285" data-name="Tracciato 285" d="M0,7.16V1.351L47.72,11.28v5.648Z" transform="translate(-11.855 5.125)"/>
      <path id="Tracciato_286" data-name="Tracciato 286" d="M0,6.72V.911L47.72,10.84v5.648Z" transform="translate(-11.855 0.832)" fill="#fff"/>
      <path id="Tracciato_287" data-name="Tracciato 287" d="M4.525,2.791A.763.763,0,0,0,5,2.328c.183.172,0,.678,0,.678a1.085,1.085,0,0,1,.9.592c-1.678-.7-1.592,1.1-3.5.71L3.977,2.683Z" transform="translate(11.622 14.658)" fill="#cf1121"/>
      <path id="Tracciato_288" data-name="Tracciato 288" d="M2.941,4.413a3.122,3.122,0,0,1-.516-.054L2.4,4.338l.011-.022L3.984,2.692h.022l.549.1a.811.811,0,0,0,.452-.441l.011-.022h.022c.183.161.065.559.032.678a1.108,1.108,0,0,1,.882.6v.032l-.022.011a1.9,1.9,0,0,0-.7-.161,1.553,1.553,0,0,0-.968.409,2.047,2.047,0,0,1-1.323.516m-.452-.1a2.284,2.284,0,0,0,.452.043,2.023,2.023,0,0,0,1.291-.506,1.625,1.625,0,0,1,1-.42,1.851,1.851,0,0,1,.635.129,1.063,1.063,0,0,0-.828-.506l-.032-.011V3.014s.151-.42.032-.6a.794.794,0,0,1-.463.43H4.555l-.538-.1Z" transform="translate(11.593 14.639)"/>
      <path id="Tracciato_289" data-name="Tracciato 289" d="M3.076,2.791A.763.763,0,0,1,2.6,2.328c-.183.172,0,.678,0,.678a1.085,1.085,0,0,0-.9.592c1.8-.667,1.42,1.043,3.5.71L3.625,2.683Z" transform="translate(4.723 14.658)" fill="#cf1121"/>
      <path id="Tracciato_290" data-name="Tracciato 290" d="M4.71,4.4a2.006,2.006,0,0,1-1.355-.516,1.379,1.379,0,0,0-.9-.4,2.051,2.051,0,0,0-.721.161L1.7,3.638V3.606A1.094,1.094,0,0,1,2.58,3c-.043-.129-.151-.516.022-.678h.022l.022.011a.8.8,0,0,0,.452.452l.549-.108h.011L5.237,4.305v.032l-.022.022A2.752,2.752,0,0,1,4.71,4.4M2.451,3.434a1.424,1.424,0,0,1,.947.409,1.878,1.878,0,0,0,1.312.506,2.284,2.284,0,0,0,.452-.043L3.634,2.746l-.538.1H3.086A.8.8,0,0,1,2.612,2.4c-.118.183.032.613.032.613l.011.022-.032.022a1.041,1.041,0,0,0-.839.506,2.073,2.073,0,0,1,.667-.129" transform="translate(4.713 14.639)"/>
      <path id="Tracciato_291" data-name="Tracciato 291" d="M3.832,2.379c.312.28-1.14,1.076-1.355.979,0,0,.861-1.1,1.355-.979" transform="translate(12.315 15.07)" fill="#cf1121"/>
      <path id="Tracciato_292" data-name="Tracciato 292" d="M2.55,3.411H2.507L2.475,3.39V3.368c.032-.043.8-1,1.3-1l.086.011.011.011a.147.147,0,0,1,.043.183,2.451,2.451,0,0,1-1.366.839m1.226-.99c-.43,0-1.076.753-1.226.936a2.324,2.324,0,0,0,1.312-.807.1.1,0,0,0-.022-.118l-.065-.011" transform="translate(12.295 15.048)"/>
      <path id="Tracciato_293" data-name="Tracciato 293" d="M1.867,2.38c-.312.28,1.14,1.076,1.355.979,0,0-1-1.108-1.355-.979" transform="translate(5.933 15.068)" fill="#cf1121"/>
      <path id="Tracciato_294" data-name="Tracciato 294" d="M3.195,3.411h0a2.334,2.334,0,0,1-1.355-.839.15.15,0,0,1,.032-.183l.011-.022h.075c.409,0,1.269.947,1.312,1V3.39l-.011.022H3.195M1.9,2.422a.142.142,0,0,0-.022.129,2.424,2.424,0,0,0,1.312.818c-.172-.183-.893-.947-1.237-.947H1.9" transform="translate(5.917 15.048)"/>
      <path id="Tracciato_295" data-name="Tracciato 295" d="M2.409,2.264a4.592,4.592,0,0,0,7.165,0c.452.183.183.99.6,1.151C9.165,3.383,8.831,5.448,6,5.405,3.087,5.351,2.861,3.49,1.828,3.415c.409-.3.108-.925.581-1.151" transform="translate(5.982 14.034)" fill="#cf1121"/>
      <path id="Tracciato_296" data-name="Tracciato 296" d="M6.128,5.456h-.1A4.088,4.088,0,0,1,2.825,4.09a1.592,1.592,0,0,0-.979-.613l-.022-.022.011-.032a.751.751,0,0,0,.247-.559c.043-.237.075-.473.344-.6l.032.011a4.875,4.875,0,0,0,3.55,1.71,4.9,4.9,0,0,0,3.571-1.71l.032-.011c.247.108.29.366.333.624.043.237.075.463.269.538l.011.032-.022.022c-.366-.011-.645.258-1,.613A3.877,3.877,0,0,1,6.128,5.456M1.922,3.423a1.828,1.828,0,0,1,.947.635A4.069,4.069,0,0,0,6.031,5.4a3.786,3.786,0,0,0,3.13-1.355c.333-.323.6-.592.936-.624a.833.833,0,0,1-.2-.527c-.043-.247-.086-.484-.28-.57a4.971,4.971,0,0,1-3.6,1.71,4.923,4.923,0,0,1-3.582-1.71c-.215.118-.247.323-.28.549a.89.89,0,0,1-.226.549" transform="translate(5.953 14.004)"/>
      <path id="Tracciato_297" data-name="Tracciato 297" d="M2.637,7.583H2.2l.075-6.368h.28Z" transform="translate(9.568 3.798)" fill="#cf1121"/>
      <path id="Tracciato_298" data-name="Tracciato 298" d="M2.7,7.634H2.192l.086-6.422h.333ZM2.246,7.58h.4l-.1-6.315H2.321Z" transform="translate(9.534 3.769)"/>
      <path id="Tracciato_299" data-name="Tracciato 299" d="M2.9,1.536a.36.36,0,1,1-.366-.366.361.361,0,0,1,.366.366" transform="translate(9.436 3.359)" fill="#cf1121"/>
      <path id="Tracciato_300" data-name="Tracciato 300" d="M2.566,1.943a.387.387,0,1,1,.387-.387.386.386,0,0,1-.387.387m0-.721a.333.333,0,1,0,.333.333.335.335,0,0,0-.333-.333" transform="translate(9.407 3.339)"/>
      <path id="Tracciato_301" data-name="Tracciato 301" d="M2.229,1.261c.516-.108.7.656,1.388.516a1.248,1.248,0,0,1-.452.387,2.135,2.135,0,0,0,.237.473c-.4.054-.581-.323-1.162-.387Z" transform="translate(9.895 4.15)" fill="#cf1121"/>
      <path id="Tracciato_302" data-name="Tracciato 302" d="M3.335,2.691a.794.794,0,0,1-.441-.161A1.674,1.674,0,0,0,2.259,2.3l-.022-.011-.011-1,.022-.032.1-.011a.852.852,0,0,1,.506.258.972.972,0,0,0,.624.29l.161-.022.022.011.011.032a1.26,1.26,0,0,1-.452.387,2.392,2.392,0,0,0,.2.409l.022.032v.022l-.011.022h-.1M2.292,2.249a1.567,1.567,0,0,1,.635.237.785.785,0,0,0,.452.151A2.148,2.148,0,0,1,3.152,2.2l.011-.032a1.316,1.316,0,0,0,.42-.323l-.108.011a1.015,1.015,0,0,1-.656-.3A.786.786,0,0,0,2.345,1.3l-.065.011Z" transform="translate(9.875 4.13)"/>
      <path id="Tracciato_303" data-name="Tracciato 303" d="M4.422,3.476l.42-.118a2.488,2.488,0,0,0,.678-.323V2.992H5.476A2.074,2.074,0,0,1,4.82,3.3l-.42.118H4.39a1.335,1.335,0,0,1-.29.032,1.684,1.684,0,0,1-.57-.043l-.086-.043-.032-.032.043-.022a2.85,2.85,0,0,0,1.355-.3l.022-.032L4.788,2.97a3,3,0,0,1-1.4.29,3.384,3.384,0,0,1-.473-.032.328.328,0,0,1-.237-.086l-.011-.075.258.011a3.835,3.835,0,0,0,1.022-.161l.022-.011.258-.075L4.239,2.8l-.022-.022-.269.086H3.927A3.331,3.331,0,0,1,2.647,3a1.179,1.179,0,0,1-.28-.065.4.4,0,0,1-.226-.14V2.723a2.429,2.429,0,0,0,.592.065c.151,0,.333-.022.516-.032l.032-.032L3.26,2.691a3.4,3.4,0,0,1-1.119-.022L2.13,2.658H2.12a.472.472,0,0,1-.3-.215L1.8,2.368c.011-.065.086-.065.183-.065l.075.011.366.011a4.078,4.078,0,0,0,.85-.054,6.258,6.258,0,0,0,1.312-.43l.14-.054A1.857,1.857,0,0,1,5.745,1.55a1.634,1.634,0,0,1,.215.065A.9.9,0,0,0,6.3,1.7a.9.9,0,0,0,.344-.086,1.634,1.634,0,0,1,.215-.065,1.857,1.857,0,0,1,1.022.237l.14.054a6.058,6.058,0,0,0,1.312.43,4.026,4.026,0,0,0,.85.054l.366-.011.075-.011c.086,0,.172,0,.183.065l-.022.075a.491.491,0,0,1-.312.215l-.011.011A3.614,3.614,0,0,1,9.36,2.7l-.032.022.022.032a3.67,3.67,0,0,0,1.119-.032v.065a.368.368,0,0,1-.226.151A1.269,1.269,0,0,1,9.951,3a3.3,3.3,0,0,1-1.269-.14H8.66L8.4,2.787,8.37,2.8V2.83l.269.075.032.011a3.754,3.754,0,0,0,1.011.161l.258-.011-.011.075a.351.351,0,0,1-.237.086,3.384,3.384,0,0,1-.473.032,3,3,0,0,1-1.4-.29L7.789,2.96l-.011.054a2.961,2.961,0,0,0,1.377.3h.032l-.022.054-.1.043a1.642,1.642,0,0,1-.559.043,1.335,1.335,0,0,1-.29-.032H8.208a3.911,3.911,0,0,1-.42-.118,2.074,2.074,0,0,1-.656-.312H7.09l-.011.032a2.415,2.415,0,0,0,.688.333c.151.043.28.086.42.118,0,.054-.054.086-.075.1A.274.274,0,0,1,7.95,3.6a1.517,1.517,0,0,1-.721-.14,1.465,1.465,0,0,1-.538-.387H6.659l-.011.043a1.8,1.8,0,0,0,.484.366.871.871,0,0,1-.43-.075.976.976,0,0,1-.344-.29l-.022-.032-.022-.032-.032.011v.011L6.261,3.1l-.011.011a.95.95,0,0,1-.28.269L5.9,3.411a.811.811,0,0,1-.42.075,1.8,1.8,0,0,0,.484-.366V3.089l-.043-.022a1.379,1.379,0,0,1-.538.4,1.517,1.517,0,0,1-.721.14A.274.274,0,0,1,4.5,3.573c-.022-.011-.075-.043-.075-.1" transform="translate(5.679 6.927)" fill="#cf1121"/>
      <path id="Tracciato_304" data-name="Tracciato 304" d="M10.914,2.407c-.011-.118-.161-.108-.237-.108L10.6,2.31l-.366.011A4.772,4.772,0,0,1,9.4,2.267a5.6,5.6,0,0,1-1.3-.43l-.14-.054A1.872,1.872,0,0,0,6.9,1.546l-.226.075a1.087,1.087,0,0,1-.323.075,1.17,1.17,0,0,1-.323-.075L5.8,1.546a1.872,1.872,0,0,0-1.054.237l-.14.054a5.44,5.44,0,0,1-1.3.43,3.866,3.866,0,0,1-.828.054L2.115,2.31,2.029,2.3c-.075,0-.226-.011-.237.108l.032.108a.446.446,0,0,0,.312.237.152.152,0,0,0,.011.118.421.421,0,0,0,.247.172,1.222,1.222,0,0,0,.269.065.158.158,0,0,0,.022.118c.043.075.172.108.28.118.14.011.29.022.441.022l.054.086.108.054a1.476,1.476,0,0,0,.473.065h.108l.269-.032a.219.219,0,0,0,.1.129.4.4,0,0,0,.194.054h.065a1.807,1.807,0,0,0,.667-.14l.172.011a.892.892,0,0,0,.366-.075l.065-.043a.961.961,0,0,0,.312-.28V3.181l.011.022h.011a.9.9,0,0,0,.355.312.936.936,0,0,0,.538.065,1.818,1.818,0,0,0,.678.14H8a.4.4,0,0,0,.194-.054.158.158,0,0,0,.1-.129l.269.032h.108A1.437,1.437,0,0,0,9.139,3.5l.118-.054L9.3,3.364c.151,0,.3-.011.452-.022a.417.417,0,0,0,.28-.118.152.152,0,0,0,.011-.118,1.092,1.092,0,0,0,.269-.065.392.392,0,0,0,.247-.172.152.152,0,0,0,.011-.118.485.485,0,0,0,.323-.237l.022-.108m-.075.086a.466.466,0,0,1-.312.215l-.011.011a3.344,3.344,0,0,1-1.108.022l-.032.032.032.032a3.614,3.614,0,0,0,1.108-.032v.065a.379.379,0,0,1-.215.151,1.409,1.409,0,0,1-.29.065,3.331,3.331,0,0,1-1.28-.14L8.709,2.9l-.258-.075-.032.022V2.88l.28.075.022.011a3.754,3.754,0,0,0,1.011.161l.258-.011v.075a.361.361,0,0,1-.247.086,3.384,3.384,0,0,1-.473.032,3,3,0,0,1-1.4-.29l-.032-.011-.011.054a2.989,2.989,0,0,0,1.377.3h.032l-.022.054-.086.043a2.012,2.012,0,0,1-.57.043,1.335,1.335,0,0,1-.29-.032,4.129,4.129,0,0,1-.43-.118,2.336,2.336,0,0,1-.656-.312H7.138v.032a2.212,2.212,0,0,0,.678.333l.42.118c0,.043-.054.086-.065.1A.31.31,0,0,1,8,3.654a1.517,1.517,0,0,1-.721-.14,1.428,1.428,0,0,1-.527-.387H6.708V3.17a1.745,1.745,0,0,0,.473.366.811.811,0,0,1-.42-.075.821.821,0,0,1-.344-.29L6.407,3.16l-.022-.022-.022-.032-.032.011v.011l-.022.022V3.16a.986.986,0,0,1-.29.269l-.065.032a.871.871,0,0,1-.43.075,1.8,1.8,0,0,0,.484-.366l.011-.032-.043-.022a1.5,1.5,0,0,1-.549.4,1.517,1.517,0,0,1-.721.14.274.274,0,0,1-.161-.032c-.022-.011-.075-.054-.075-.1.14-.032.269-.075.42-.118a2.488,2.488,0,0,0,.678-.323V3.041H5.536a2.583,2.583,0,0,1-.667.312l-.42.118H4.438a1.335,1.335,0,0,1-.29.032,1.966,1.966,0,0,1-.559-.043l-.1-.043L3.47,3.385,3.5,3.364a2.891,2.891,0,0,0,1.366-.3l.011-.032L4.836,3.02a3,3,0,0,1-1.4.29,3.384,3.384,0,0,1-.473-.032.351.351,0,0,1-.237-.086l-.011-.075.258.011A3.766,3.766,0,0,0,4,2.966l.022-.011.258-.075.011-.032-.011-.022L4,2.9l-.022.011a3.307,3.307,0,0,1-1.28.14,1.482,1.482,0,0,1-.28-.065.345.345,0,0,1-.215-.14L2.19,2.772a2.465,2.465,0,0,0,.592.054c.161,0,.333-.011.527-.022l.022-.032L3.32,2.74A3.388,3.388,0,0,1,2.2,2.718l-.022-.011a.491.491,0,0,1-.312-.215l-.022-.075c.011-.065.1-.065.183-.065l.075.011.366.011a3.975,3.975,0,0,0,.85-.054,6.058,6.058,0,0,0,1.312-.43l.14-.054A1.857,1.857,0,0,1,5.794,1.6a1.634,1.634,0,0,1,.215.065.954.954,0,0,0,.344.086A.9.9,0,0,0,6.7,1.664,1.634,1.634,0,0,1,6.913,1.6a1.857,1.857,0,0,1,1.022.237l.14.054a6.258,6.258,0,0,0,1.312.43,4.078,4.078,0,0,0,.85.054l.366-.011.075-.011c.1,0,.172,0,.183.065l-.022.075" transform="translate(5.631 6.877)"/>
      <path id="Tracciato_305" data-name="Tracciato 305" d="M3.794,1.493l.054.054a1.811,1.811,0,0,1-.968.14,1.5,1.5,0,0,1-.742-.151L2.2,1.5a1.3,1.3,0,0,1,.333-.1,3.769,3.769,0,0,1,1.043.022.5.5,0,0,1,.215.065" transform="translate(8.997 5.413)" fill="#cf1121"/>
      <path id="Tracciato_306" data-name="Tracciato 306" d="M3.858,2.451l-.086-.086L3.7,2.225l-.011-.032-.054-.108-.022-.022-.032-.011-.043.022-.032.1-.022.054-.075.14-.054.065a.122.122,0,0,1-.14-.043l-.065-.129-.011-.032-.011-.032-.011-.022L3.105,2.15l-.022-.043a.087.087,0,0,0-.1-.043c-.043.011-.065.086-.086.161v.022a.374.374,0,0,1-.075.161l-.086.054H2.729l-.065-.054-.043-.14L2.557,2.1l-.032-.032L2.5,2.053c-.032,0-.054.043-.1.183L2.4,2.268l-.108.2-.043.054-.032.011-.075-.043A.31.31,0,0,1,2.1,2.322a1.528,1.528,0,0,1,.075-.57A.847.847,0,0,1,2.428,1.4a1.643,1.643,0,0,0,.785.183h.151a1.535,1.535,0,0,0,.85-.161l.065.108a1.356,1.356,0,0,1,.215.957l-.022.054-.032.011L4.4,2.537,4.321,2.43,4.31,2.419l-.022-.065-.043-.108-.065-.118-.065-.065-.011-.011L4.052,2.1,4.009,2.2l-.043.118c-.011.032-.043.14-.108.129" transform="translate(8.663 5.574)" fill="#cf1121"/>
      <path id="Tracciato_307" data-name="Tracciato 307" d="M3.961,1.475a3.691,3.691,0,0,0-1.033-.011.955.955,0,0,0-.344.086l-.065.032a1.475,1.475,0,0,0,.742.161,1.782,1.782,0,0,0,.968-.151l-.054-.054a.631.631,0,0,0-.215-.065m-.14,1.108.086.086c.065.011.1-.1.108-.129l.043-.118L4.1,2.314l.043-.043.022.011.065.054v.011l.065.129.043.1.022.065.011.011.065.1.054.022.032-.011L4.542,2.7a1.328,1.328,0,0,0-.215-.947l-.065-.118a1.535,1.535,0,0,1-.85.161H3.262a1.643,1.643,0,0,1-.785-.183.847.847,0,0,0-.247.355,1.528,1.528,0,0,0-.075.57.292.292,0,0,0,.032.172l.075.043.032-.011.043-.054a1.192,1.192,0,0,0,.1-.2l.022-.032c.043-.14.065-.183.1-.183l.022.011L2.6,2.3a.824.824,0,0,1,.075.183l.043.14.065.054h.011l.086-.054a.374.374,0,0,0,.075-.161V2.443c.022-.075.043-.14.086-.161a.087.087,0,0,1,.1.043l.022.032.011.032.011.022.011.032.011.032.065.129a.122.122,0,0,0,.14.043l.054-.065.075-.14.022-.054L3.585,2.3l.032-.032.043.011.011.022.054.086.022.054Zm.247-.022c-.032.118-.1.172-.172.161-.054-.011-.086-.054-.118-.108L3.7,2.475l-.032-.065-.032-.075H3.628l-.022.075-.022.054L3.51,2.6l-.086.1a.178.178,0,0,1-.2-.065L3.155,2.5l-.011-.022-.011-.032-.022-.032V2.389L3.09,2.357l-.022-.022c-.022,0-.032.022-.065.129v.022a.471.471,0,0,1-.086.183.168.168,0,0,1-.129.065H2.778c-.065,0-.086-.043-.108-.075L2.617,2.5l-.065-.151L2.5,2.475l-.011.032-.108.215-.043.065H2.326l-.065.032a.164.164,0,0,1-.129-.075.431.431,0,0,1-.032-.2,1.44,1.44,0,0,1,.075-.592A.854.854,0,0,1,2.563,1.5a1.071,1.071,0,0,1,.355-.086,3.465,3.465,0,0,1,1.054.011.558.558,0,0,1,.237.075.6.6,0,0,1,.172.226,1.519,1.519,0,0,1,.215,1l-.043.065-.065.032-.1-.032-.075-.118V2.658l-.032-.065-.043-.108-.054-.108-.011-.011-.022-.032-.043.108Z" transform="translate(8.614 5.356)"/>
      <path id="Tracciato_308" data-name="Tracciato 308" d="M2.242,2.478c.183,0,.366.14.516.4l.032.011.032-.032a1.561,1.561,0,0,1,.4-.785,1.474,1.474,0,0,1,.409.785l.011.032h.043c.151-.258.323-.4.484-.4l.151.032c-.237.14-.226.4-.226.742v.161L2.35,3.446v-.14c-.011-.355-.022-.667-.237-.807l.129-.022" transform="translate(8.763 12.131)" fill="#cf1121"/>
      <path id="Tracciato_309" data-name="Tracciato 309" d="M3.868,2.094c-.28.258-.269.925-.258,1.678v.441h.011l-.161.194a1.554,1.554,0,0,0-.441-.764H2.975a1.576,1.576,0,0,0-.43.764l-.161-.194V3.772c.011-.753.022-1.42-.247-1.678a.962.962,0,0,1,.495.441l.011.022.032-.011A1.2,1.2,0,0,1,3,1.9a1.2,1.2,0,0,1,.323.624l.022.032.032-.022a.924.924,0,0,1,.495-.441" transform="translate(8.987 10.482)" fill="#cf1121"/>
      <path id="Tracciato_310" data-name="Tracciato 310" d="M3.372,2.393a.924.924,0,0,1,.495-.441c-.28.258-.269.925-.258,1.667v.032a1.329,1.329,0,0,0-.247.28,1.312,1.312,0,0,0-.344-.613L3,3.308a1.322,1.322,0,0,0-.355.624,1.329,1.329,0,0,0-.247-.28V3.62c.011-.753.022-1.409-.258-1.667a.962.962,0,0,1,.495.441l.022.011.032-.022A1.177,1.177,0,0,1,3,1.748a1.251,1.251,0,0,1,.323.635l.011.022.043-.011" transform="translate(8.978 8.999)" fill="#cf1121"/>
      <path id="Tracciato_311" data-name="Tracciato 311" d="M2.952,2.442A.924.924,0,0,0,2.457,2c.28.258.269.914.258,1.678V3.7a1.085,1.085,0,0,1,.247.28,1.312,1.312,0,0,1,.344-.613H3.35a1.241,1.241,0,0,1,.333.613,1.1,1.1,0,0,1,.258-.28V3.679C3.931,2.926,3.92,2.259,4.2,2a.936.936,0,0,0-.506.441l-.022.011-.022-.022A1.3,1.3,0,0,0,3.328,1.8a1.3,1.3,0,0,0-.323.635l-.022.022ZM3.942,5.3c-.011-.753-.022-1.42.258-1.678a.936.936,0,0,0-.506.441l-.022.022-.022-.011a1.2,1.2,0,0,0-.323-.645,1.2,1.2,0,0,0-.323.635l-.022.022-.032-.022a.924.924,0,0,0-.495-.441c.28.258.269.925.258,1.678L2.7,5.745l.161.194a1.554,1.554,0,0,1,.441-.764H3.35a1.49,1.49,0,0,1,.43.764l.161-.194Zm.473.4-.14-.032c-.172,0-.333.14-.484.387l-.032.011-.032-.032a1.407,1.407,0,0,0-.4-.785,1.474,1.474,0,0,0-.409.785L2.9,6.068l-.043-.011c-.151-.258-.323-.4-.506-.4L2.22,5.68c.215.14.215.452.226.807v.14L4.2,6.605V6.444c-.011-.344-.011-.6.215-.742m.1-.022.011.022-.011.032c-.247.108-.247.355-.247.71v.194l-.011.032-1.84.022-.032-.032V6.487c-.011-.377-.022-.667-.258-.775L2.1,5.68l.011-.022a.462.462,0,0,1,.237-.065.49.49,0,0,1,.3.108l.011-.4c.011-.828.022-1.549-.344-1.71L2.3,3.583l.022-.043a.606.606,0,0,1,.344.129c.011-.828.022-1.538-.344-1.7L2.3,1.947l.032-.032a.841.841,0,0,1,.635.441,1.3,1.3,0,0,1,.333-.6l.054-.011a1.271,1.271,0,0,1,.333.613.822.822,0,0,1,.645-.441l.022.011-.011.043c-.366.161-.355.871-.344,1.7a.591.591,0,0,1,.323-.129l.032.011-.011.043c-.366.161-.355.882-.344,1.71v.4a.484.484,0,0,1,.28-.1.417.417,0,0,1,.237.075" transform="translate(8.656 8.95)"/>
      <path id="Tracciato_312" data-name="Tracciato 312" d="M9.415,1.748A3.52,3.52,0,1,1,2.853,3.523a3.488,3.488,0,0,1,.473-1.764,2.311,2.311,0,0,1-.506-.065,4.6,4.6,0,1,0,8.165,2.9,4.555,4.555,0,0,0-1.033-2.9,2.172,2.172,0,0,1-.538.054" transform="translate(5.592 8.472)" fill="#cf1121"/>
      <path id="Tracciato_313" data-name="Tracciato 313" d="M6.412,9.243A4.623,4.623,0,0,1,1.786,4.628,4.542,4.542,0,0,1,2.829,1.691h.032a1.367,1.367,0,0,0,.495.054H3.41L3.389,1.8a3.264,3.264,0,0,0-.473,1.743,3.491,3.491,0,1,0,6.982,0,3.568,3.568,0,0,0-.484-1.764l-.022-.032h.054a2.014,2.014,0,0,0,.527-.054h.022a4.542,4.542,0,0,1,1.043,2.937A4.616,4.616,0,0,1,6.412,9.243m-3.55-7.5a4.575,4.575,0,0,0,3.55,7.444,4.565,4.565,0,0,0,3.55-7.444,2.171,2.171,0,0,1-.473.065,3.343,3.343,0,0,1,.463,1.732,3.55,3.55,0,0,1-7.1,0A3.44,3.44,0,0,1,3.3,1.809a1.186,1.186,0,0,1-.441-.065" transform="translate(5.572 8.443)"/>
      <path id="Tracciato_314" data-name="Tracciato 314" d="M2.6,2.984l.1.032c.172-.032.1-.312.011-.4a.312.312,0,0,0-.333-.1.194.194,0,0,0-.108.151c0,.054,0,.14-.043.172-.075.043-.151-.065-.172-.118a.977.977,0,0,1-.065-.43.34.34,0,0,1,.075-.2.254.254,0,0,1,.172-.075l.086.011.022-.011V2.005l-.011-.032-.118-.022a.349.349,0,0,0-.387.3.884.884,0,0,0,.022.441.438.438,0,0,0,.42.247l.108-.032c.086-.065.022-.2.086-.29.054-.054.108.022.129.065a.219.219,0,0,1,.022.215L2.6,2.984" transform="translate(5.8 10.979)" fill="#ffed00"/>
      <path id="Tracciato_315" data-name="Tracciato 315" d="M1.936,2.049l.011.065.043.065.043.022.032.043v.043H2l-.108-.065-.065-.086.011-.075.022-.011h.075" transform="translate(5.982 11.936)" fill="#ffed00"/>
      <path id="Tracciato_316" data-name="Tracciato 316" d="M3.184,2.626a.263.263,0,0,0-.2.032l-.086.1a.352.352,0,0,1-.161.118.205.205,0,0,1-.194,0,.278.278,0,0,1-.118-.129L2.377,2.68,2.4,2.594l.118-.022a.132.132,0,0,0,.14-.118.141.141,0,0,0-.129-.14l-.065.022L2.3,2.347l-.1-.054.022-.108-.011-.108L2.14,2.067l-.1.032a.137.137,0,0,0-.022.129l.054.129c.011.043.022.086-.011.118s-.129,0-.183.043l-.032.1.032.108.086.011h.183a.211.211,0,0,1,.161.054l.032.086a.2.2,0,0,0,.129.1.277.277,0,0,0,.161.011.269.269,0,0,0,.14-.043.7.7,0,0,0,.172-.14.546.546,0,0,1,.172-.1l.043-.011.022-.065M2.151,2.6l-.065.065H2.033l-.011-.043.032-.043.054-.043.022.011.032.022L2.151,2.6m.215-.14V2.454l.022-.022.022-.011h.043l.011.022v.075L2.42,2.53l-.043-.011Z" transform="translate(6.197 12.111)" fill="#ffed00"/>
      <path id="Tracciato_317" data-name="Tracciato 317" d="M2.146,2.775a.117.117,0,0,1-.075-.14.187.187,0,0,1,.065-.118,1.532,1.532,0,0,1,.323-.269.149.149,0,0,0,.075-.086V2.141L2.512,2.13a.806.806,0,0,0-.215.108,1.654,1.654,0,0,0-.2.183c-.054.054-.151.129-.161.215l.022.108a.3.3,0,0,0,.452.043l.032-.043.032-.108V2.614l-.043-.022a.142.142,0,0,0-.108.075c-.043.054-.1.129-.172.108" transform="translate(6.987 12.726)" fill="#ffed00"/>
      <path id="Tracciato_318" data-name="Tracciato 318" d="M2.084,2.235v.011l-.022.032L2,2.289l-.054-.011-.022-.022V2.224h.011l.022-.011L2.02,2.2l.065.032" transform="translate(6.906 13.437)" fill="#ffed00"/>
      <path id="Tracciato_319" data-name="Tracciato 319" d="M2.033,2.337l-.011-.011.011-.043.022-.022.065-.054L2.14,2.2l.022.022-.032.054-.022.032-.022.022-.043.011Z" transform="translate(7.874 13.386)" fill="#ffed00"/>
      <path id="Tracciato_320" data-name="Tracciato 320" d="M2.722,2.415l.011.032a.182.182,0,0,1-.043.194.45.45,0,0,1-.516.086l-.065-.043-.022-.022-.043-.054L1.98,2.49a.265.265,0,0,1,.011-.129l.075-.075.14-.086h.011v.011l-.043.054-.065.1.043.108a.611.611,0,0,0,.366.215L2.6,2.641V2.533l.022-.075.065-.043Z" transform="translate(7.422 13.409)" fill="#ffed00"/>
      <path id="Tracciato_321" data-name="Tracciato 321" d="M2.024,2.7l.14.043h.151a.379.379,0,0,1,.269.022l.075.054a.367.367,0,0,0,.237.032l.065-.011.022-.054-.022-.043-.054-.011H2.8l-.1-.011L2.626,2.65l-.054-.118.043-.14a.12.12,0,0,1,.108-.032h.011l.011.011v.1l-.011.043H2.82c.043-.011.054-.054.054-.1a.16.16,0,0,0-.043-.151.151.151,0,0,0-.151-.022l-.129.075a.24.24,0,0,0-.065.14v.1l-.011.086L2.4,2.693l-.054-.022L2.26,2.628A.249.249,0,0,0,2.088,2.6l-.065.022L2,2.671l.022.032" transform="translate(7.68 13.701)" fill="#ffed00"/>
      <path id="Tracciato_322" data-name="Tracciato 322" d="M2.19,2.233h.032l.011.011-.011.043V2.3l-.043.032-.065.032V2.351H2.1l.022-.075.011-.011.022-.022.032-.011" transform="translate(8.676 13.731)" fill="#ffed00"/>
      <path id="Tracciato_323" data-name="Tracciato 323" d="M2.119,3.2a.171.171,0,0,0,.1-.129l.022-.075h.011l.011.032a.686.686,0,0,0,.011.258l.022.043.032.011A.2.2,0,0,0,2.5,3.317c.065-.043.108-.14.161-.194l.022-.011.022.022c.032.065-.011.151.032.215L2.8,3.4l.108.022L3,3.35l.054-.065.022-.043.032-.032H3.13V3.22c.032.065.011.14.075.194l.075.022.075-.011a.171.171,0,0,0,.1-.1c.022-.032.043-.086.086-.1H3.56l.011.011v.1l.022.075.065.032a.568.568,0,0,0,.269,0L4.012,3.4l.054-.075-.032-.054L4,3.231l.011-.086.075-.065a.514.514,0,0,1,.194-.065h.1l.054.065c0,.043-.043.075-.054.129s.022.1.075.118c.172.032.269-.226.366-.323A.28.28,0,0,1,5.1,2.9l.075.032a.209.209,0,0,0,.161.022.079.079,0,0,0,.075-.065V2.822c-.022-.065-.075-.108-.1-.161l-.075-.129L5.12,2.338l-.032-.1.032-.065.043.011a.214.214,0,0,1,.086.129l.1.183a1.392,1.392,0,0,1,.129.409v.1l-.043.075c-.054.032-.183.022-.183.108l-.086.118-.054.043-.129.043-.086-.011c-.043-.032-.065-.1-.118-.1l-.086.022-.118.1-.043.054a.135.135,0,0,1-.14-.022l-.065-.043-.075-.022a.128.128,0,0,0-.108.086.308.308,0,0,1-.2.118.474.474,0,0,1-.323-.011c-.043-.032-.086-.1-.151-.086L3.4,3.511c-.043.043-.172.151-.237.086l-.011-.011c-.032-.065-.108-.151-.172-.118L2.947,3.5a.22.22,0,0,1-.14.086A.117.117,0,0,1,2.689,3.5l-.011-.022a.114.114,0,0,0-.129-.054.145.145,0,0,0-.1.054.354.354,0,0,1-.14.075.2.2,0,0,1-.14-.054l-.043-.086-.011-.108L2.1,3.253,2.119,3.2" transform="translate(8.607 13.185)" fill="#ffed00"/>
      <path id="Tracciato_324" data-name="Tracciato 324" d="M2.836,2.859c-.043.011-.065-.032-.086-.065l-.226-.333-.086-.14-.032-.075L2.4,2.182l.011-.011.032.022.032.032.065.065.108.151.022.032a2.067,2.067,0,0,1,.151.312l.022.075" transform="translate(11.514 13.126)" fill="#ffed00"/>
      <path id="Tracciato_325" data-name="Tracciato 325" d="M2.562,2.292,2.541,2.3l-.075-.054-.011-.086.011-.011.032.011.054.075.022.022-.011.032" transform="translate(12.095 12.943)" fill="#ffed00"/>
      <path id="Tracciato_326" data-name="Tracciato 326" d="M2.5,2.6a.146.146,0,0,0,.14.075.491.491,0,0,0,.215-.022.316.316,0,0,0,.161-.172c.011-.065.032-.151-.054-.161a.2.2,0,0,1-.172-.129L2.8,2.16l.086-.011.129.108.043.086.022.086A.328.328,0,0,1,3,2.719a.428.428,0,0,1-.333.118.287.287,0,0,1-.151-.075.375.375,0,0,1-.065-.183l.011-.032h.022L2.5,2.6" transform="translate(12.022 12.912)" fill="#ffed00"/>
      <path id="Tracciato_327" data-name="Tracciato 327" d="M3.338,2.432a.242.242,0,0,0,.011-.151l-.075-.14-.1-.1H3.123l-.011.032.075.108.065.086-.022.108-.075.065-.14.086a.2.2,0,0,0-.086.14v.172l-.022.1L2.843,3l-.1-.054-.065-.1L2.574,2.83l-.043.022-.011.022a.367.367,0,0,0,0,.215l.043.14a.226.226,0,0,0,.118.075l.086.022.022.075-.054.108-.075.1-.011.011a.109.109,0,0,0-.054.108L2.65,3.8,2.7,3.766a.7.7,0,0,0,.151-.312,1.037,1.037,0,0,1,.108-.323L3,2.97V2.959a.072.072,0,0,1,.065-.075l.086.022H3.23c.043-.022.032-.065.065-.1l.011-.1-.043-.086a.148.148,0,0,1,.011-.118l.065-.075m-.581.688H2.725l-.054.011a.086.086,0,0,1-.065-.086l.011-.022V3.013L2.639,3l.032-.011L2.7,3l.043.011.022.022.011.011-.022.075m.42-.377-.043.011H3.08l-.011-.011A.07.07,0,0,1,3.1,2.615l.065.022.011.108" transform="translate(12.572 11.897)" fill="#ffed00"/>
      <path id="Tracciato_328" data-name="Tracciato 328" d="M2.557,2.156l-.022-.043-.011-.054V2.049l.022-.011a.215.215,0,0,1,.14.022h.022l.022.011L2.7,2.113l-.032.011-.011.065.032.043.022.075v.011H2.7L2.633,2.3,2.59,2.221l-.032-.065" transform="translate(12.783 11.786)" fill="#ffed00"/>
      <path id="Tracciato_329" data-name="Tracciato 329" d="M2.621,2.037l.054.022c.075.022.151.075.237.108l.054.011a.849.849,0,0,1,.323.172l.022.032L3.3,2.392H3.223l-.075-.043c-.172-.1-.377-.161-.559-.247l-.065-.054V2.016l.032-.011.065.032" transform="translate(12.773 11.506)" fill="#ffed00"/>
      <path id="Tracciato_330" data-name="Tracciato 330" d="M2.638,2.029h.011a.3.3,0,0,1,.043.161l-.022.043-.032.022-.022-.043-.011-.054.011-.022.011-.1Z" transform="translate(13.573 11.741)" fill="#ffed00"/>
      <path id="Tracciato_331" data-name="Tracciato 331" d="M3.056,2.533l-.032-.054.065-.022.118-.032a.1.1,0,0,0,.065-.1l-.011-.054L3.228,2.21a.266.266,0,0,0-.172-.086l-.194-.011a.9.9,0,0,1-.28-.075L2.54,1.985l.054-.022a.265.265,0,0,1,.129.011l.075.043.151.011a.572.572,0,0,1,.366.161l.086.118a.148.148,0,0,1-.011.118l-.075.043-.054.1v.043l-.054.032L3.185,2.6,3.11,2.565l-.054-.032" transform="translate(12.929 11.054)" fill="#ffed00"/>
      <path id="Tracciato_332" data-name="Tracciato 332" d="M3.164,2.125,3.11,2.093A.516.516,0,0,0,2.9,2.017H2.573L2.551,2l.022-.032.108-.022a1.3,1.3,0,0,1,.495.129l.043.065-.054-.011" transform="translate(13.037 10.892)" fill="#ffed00"/>
      <path id="Tracciato_333" data-name="Tracciato 333" d="M2.781,2.717a.3.3,0,0,0-.215-.043.7.7,0,0,1-.4-.065.531.531,0,0,1-.194-.215l-.043-.043L1.9,2.33a.053.053,0,0,0-.032.075v.043l.043.054a.565.565,0,0,0,.237.183,1.176,1.176,0,0,1,.183.054.162.162,0,0,1,.075.1l.032.151a.182.182,0,0,0,.183.086A.4.4,0,0,0,2.8,2.965l.032-.022L2.845,2.9a.227.227,0,0,0-.065-.183m-.075.172-.032.032-.086.011H2.576l-.011-.011-.011-.075.032-.065h.075l.043.075v.032" transform="translate(6.299 14.678)" fill="#ffed00"/>
      <path id="Tracciato_334" data-name="Tracciato 334" d="M2.085,2.81a.259.259,0,0,0,.344-.086A.332.332,0,0,0,2.473,2.5l.011-.075.043-.054c.043-.011.065.032.075.065a.318.318,0,0,1-.086.355l-.086.075v.1h.086a.619.619,0,0,0,.2-.2.373.373,0,0,1,.226-.161c.032.065-.022.129-.065.183a.547.547,0,0,0-.1.28.359.359,0,0,0,.129.269l.172.065c.1.011.215.011.269-.065l.054-.065.075-.032c.043.022.022.065,0,.1a.15.15,0,0,0,0,.118l.075.043.065.011a.209.209,0,0,0,.118-.1l.032-.032L3.8,3.39l.011.1.022.1.108.011L4,3.509l.011-.032.022-.022.043-.011.032.032.032.14a.171.171,0,0,0,.161.129h.032l.011-.011a.179.179,0,0,0,.022-.161l-.022-.2a.564.564,0,0,1,.022-.194l.043-.043.043.011.032.032.022.075a.959.959,0,0,1-.032.3c-.011.075-.011.172-.075.226a.172.172,0,0,1-.151.086A.338.338,0,0,1,4.076,3.8l-.118-.075-.118.011-.108-.022L3.677,3.67c-.065-.054-.183,0-.247-.054L3.4,3.573a.276.276,0,0,0-.215-.086.977.977,0,0,1-.355-.043L2.752,3.4,2.709,3.38a.323.323,0,0,1-.054-.215.148.148,0,0,0-.043-.129l-.086-.011-.086.032a.2.2,0,0,1-.14.011A.75.75,0,0,1,2.1,3a.342.342,0,0,1-.161-.14l-.011-.032.032-.043h.032l.075.011Z" transform="translate(6.919 15.037)" fill="#ffed00"/>
      <path id="Tracciato_335" data-name="Tracciato 335" d="M2.229,3.111l-.022-.032c-.011-.108.032-.215.011-.312L2.2,2.659a.205.205,0,0,1,.022-.14l.032-.054.043-.022.011.032v.065l-.022.129a.952.952,0,0,0,0,.247c0,.032.022.226-.054.194" transform="translate(9.54 15.79)" fill="#ffed00"/>
      <path id="Tracciato_336" data-name="Tracciato 336" d="M2.629,2.95l-.065.011a1.011,1.011,0,0,1-.312,0l-.1-.054V2.9l.011-.011A1.169,1.169,0,0,1,2.36,2.9a.715.715,0,0,0,.42-.075l.043-.032a.2.2,0,0,0,.065-.151L2.9,2.488l.011-.011h.022a.236.236,0,0,1,.032.237.5.5,0,0,1-.172.161l-.161.075" transform="translate(9.182 16.112)" fill="#ffed00"/>
      <path id="Tracciato_337" data-name="Tracciato 337" d="M2.243,2.512l.043-.065.054.032a.978.978,0,0,1,.086.4,1,1,0,0,1-.022.247v.022l-.032.022L2.34,3.135a2.249,2.249,0,0,1-.011-.269c-.011-.1-.065-.172-.075-.269l-.011-.086" transform="translate(10.031 15.819)" fill="#ffed00"/>
      <path id="Tracciato_338" data-name="Tracciato 338" d="M2.4,2.542l.022-.086.086.011a.319.319,0,0,1,.172.258l-.011.032-.032.086a.393.393,0,0,1-.3.151H2.316L2.273,2.94l.043-.054.108-.022.108-.032a.1.1,0,0,0,.1-.065L2.617,2.7,2.563,2.65,2.445,2.6l-.032-.032L2.4,2.542" transform="translate(10.324 15.907)" fill="#ffed00"/>
      <path id="Tracciato_339" data-name="Tracciato 339" d="M2.436,2.7a.287.287,0,0,0,.075.151.25.25,0,0,0,.215.043.832.832,0,0,0,.29-.086L3.1,2.753a1.183,1.183,0,0,0,.183-.3l.022-.022.022.032a.339.339,0,0,1-.1.258,1.22,1.22,0,0,1-.366.247.811.811,0,0,1-.258.086.231.231,0,0,1-.226-.129L2.361,2.8,2.4,2.677l.011-.011Z" transform="translate(11.183 15.653)" fill="#ffed00"/>
      <path id="Tracciato_340" data-name="Tracciato 340" d="M2.5,2.508l.011.022-.022.043H2.468l-.043-.022V2.5l.011-.022h.043l.022.032" transform="translate(11.804 16.101)" fill="#ffed00"/>
      <path id="Tracciato_341" data-name="Tracciato 341" d="M2.544,2.479l.022.011-.011.043-.032.011H2.469l-.032-.032V2.5l.022-.022.022-.011.065.011" transform="translate(11.921 16.028)" fill="#ffed00"/>
      <path id="Tracciato_342" data-name="Tracciato 342" d="M2.43,2.389l.011.011v.075l-.022.043-.011-.011V2.389Z" transform="translate(11.644 15.252)" fill="#ffed00"/>
      <path id="Tracciato_343" data-name="Tracciato 343" d="M2.516,2.458l.022.011.022.022-.011.054-.011.022-.022.011-.022-.011V2.544L2.44,2.49,2.43,2.48l-.011-.011V2.415l.022-.032.011.011.065.065" transform="translate(11.747 15.194)" fill="#ffed00"/>
      <path id="Tracciato_344" data-name="Tracciato 344" d="M2.594,2.407l.043.108a.12.12,0,0,0,.075.086h.054l.043.065L2.788,2.7l-.022.011h-.1c-.075.011-.14.075-.2.086H2.422V2.773c.032-.065.129-.065.161-.129l.011-.054-.011-.054L2.562,2.45l.011-.043L2.583,2.4Z" transform="translate(11.778 15.322)" fill="#ffed00"/>
      <path id="Tracciato_345" data-name="Tracciato 345" d="M2.5,2.389l.065-.022a.262.262,0,0,1,.129,0,.357.357,0,0,1,.14.28,1.409,1.409,0,0,1,0,.3.772.772,0,0,1-.075.269l-.065.129L2.585,3.4V3.325l.032-.065A1.052,1.052,0,0,0,2.8,2.647l-.032-.065-.054.032-.043.1L2.6,2.787l-.075-.022L2.467,2.69V2.647l.011-.032.054.032H2.6a.16.16,0,0,0,.075-.161L2.66,2.464H2.6l-.043.043c-.011.022-.1.086-.1.022l.011-.075L2.5,2.389" transform="translate(12.11 14.963)" fill="#ffed00"/>
      <path id="Tracciato_346" data-name="Tracciato 346" d="M2.6,2.319l.086-.011.054.086a.351.351,0,0,1,0,.183c-.043.075-.14.108-.151.183s.022.129.043.194a.594.594,0,0,1,0,.506l-.054.054H2.572V3.5c-.032-.129.065-.247.043-.366-.011-.1-.086-.161-.108-.258a.276.276,0,0,1,.075-.28l.065-.054.032-.075-.054-.075L2.6,2.319" transform="translate(12.489 14.463)" fill="#ffed00"/>
      <path id="Tracciato_347" data-name="Tracciato 347" d="M2.567,2.487H2.556l-.011-.022-.022-.054.022-.054V2.336h.022l.022.011v.011l.011.086-.011.032Z" transform="translate(12.771 14.739)" fill="#ffed00"/>
      <path id="Tracciato_348" data-name="Tracciato 348" d="M1.74,1.818a1.091,1.091,0,0,1,.108.549H1.826L1.74,2.4l-.022.065a.3.3,0,0,1-.075-.2l-.011-.118-.011-.194L1.568,1.8l.054-.075.065.022.054.075" transform="translate(3.445 8.735)" fill="#cf1121"/>
      <path id="Tracciato_349" data-name="Tracciato 349" d="M2.291,3.1a.826.826,0,0,1,.1.237.785.785,0,0,0-.3-.323l-.022-.011L2,2.952l-.065-.14V2.78a.914.914,0,0,0-.312-.463L1.6,2.3l-.011-.054A1.157,1.157,0,0,0,1.538,1.8V1.78l.011-.032.086-.032a.177.177,0,0,1,.129.1.448.448,0,0,1,.086.194l.011.183.011.129a.4.4,0,0,0,.14.29,1.352,1.352,0,0,0,.194.344l.086.151" transform="translate(3.152 8.677)" fill="#cf1121"/>
      <path id="Tracciato_350" data-name="Tracciato 350" d="M2.348,3.139a.77.77,0,0,1,.333.42h.011l-.011.075a1.628,1.628,0,0,0-.344-.3l-.151-.054a.367.367,0,0,1-.237-.151l-.022-.1L1.918,3a1,1,0,0,0-.172-.377A1.481,1.481,0,0,1,1.6,2.364l-.043-.258a.8.8,0,0,0-.043-.28c.032-.086.065-.118.108-.118s.065.022.1.075a.9.9,0,0,1,.108.527l.011.075.032.032a.887.887,0,0,1,.3.452V2.9a.6.6,0,0,0,.075.172l.086.054Z" transform="translate(2.869 8.608)" fill="#cf1121"/>
      <path id="Tracciato_351" data-name="Tracciato 351" d="M2.667,2.586a.391.391,0,0,1,.269.151l.118.183.065.1a1.393,1.393,0,0,0,.463.441l.065.043a.817.817,0,0,1,.237.183.722.722,0,0,1,.086.355c.043.8.043,3.658.022,3.808a.828.828,0,0,1-.613.183.967.967,0,0,1-.667-.183c.011-.226.1-3.023.1-3.13V4.609a.558.558,0,0,0-.194-.3,2.247,2.247,0,0,0-.237-.215,2.15,2.15,0,0,1-.559-.613,1.971,1.971,0,0,1-.161-.559l-.032-.129-.032-.172a2.3,2.3,0,0,1-.1-.85L1.527,1.7h.054a.2.2,0,0,1,.108.108.842.842,0,0,1,.075.333.808.808,0,0,0,.054.28.906.906,0,0,0,.14.269.909.909,0,0,1,.172.355V3.07l.032.129a.453.453,0,0,0,.269.172l.14.054c.1.054.366.269.344.323l.011.032.011.011.032-.011V3.769a.632.632,0,0,0-.075-.581l-.1-.151A1.418,1.418,0,0,1,2.6,2.683V2.618l.065-.032" transform="translate(2.604 8.569)" fill="#cf1121"/>
      <path id="Tracciato_352" data-name="Tracciato 352" d="M4.1,6.31c0-1.033-.011-1.861-.032-2.216a.672.672,0,0,0-.1-.387.787.787,0,0,0-.247-.2L3.662,3.47a1.439,1.439,0,0,1-.452-.43l-.054-.1L3.028,2.76A.494.494,0,0,0,2.78,2.6a1.063,1.063,0,0,0-.108-.581l-.065-.1a.154.154,0,0,0-.118-.032l-.075.065a.274.274,0,0,0-.172-.129l-.118.043L2.1,1.9l-.022-.032c-.054-.086-.1-.118-.151-.118a.178.178,0,0,0-.14.108V1.834a.383.383,0,0,0-.14-.129c-.043-.011-.075-.011-.1.011a.143.143,0,0,0-.065.1,2.365,2.365,0,0,0,.1.871l.043.172.022.129a1.834,1.834,0,0,0,.172.57,2.112,2.112,0,0,0,.57.635l.237.2a.568.568,0,0,1,.172.28v.1c0,.108-.1,3.109-.1,3.141v.022a1.068,1.068,0,0,0,.721.2.834.834,0,0,0,.656-.2c.022-.011.022-.086.022-.506,0-.3.011-.7,0-1.119M3.426,8.085A.987.987,0,0,1,2.759,7.9c.011-.226.108-3.023.1-3.13V4.664a.5.5,0,0,0-.194-.3,2.356,2.356,0,0,0-.237-.215,2.15,2.15,0,0,1-.559-.613A1.971,1.971,0,0,1,1.7,2.975l-.032-.129L1.64,2.674a2.088,2.088,0,0,1-.086-.85l.022-.065h.054c.043.011.075.054.108.108a.692.692,0,0,1,.075.333,1.172,1.172,0,0,0,.054.28.729.729,0,0,0,.151.269.887.887,0,0,1,.161.355l.011.032.032.118a.4.4,0,0,0,.269.172l.129.054c.1.054.377.269.344.323l.011.043H3l.022-.011V3.825a.632.632,0,0,0-.075-.581l-.1-.151a1.114,1.114,0,0,1-.183-.355l-.011-.065.065-.032a.368.368,0,0,1,.269.151l.118.183.065.1a1.544,1.544,0,0,0,.463.452l.065.032a.694.694,0,0,1,.237.183.722.722,0,0,1,.086.355c.043.8.043,3.658.022,3.808a.81.81,0,0,1-.613.183M2.511,1.942l.065.022.043.075a.988.988,0,0,1,.108.549H2.716l-.1.032L2.6,2.684a.472.472,0,0,1-.075-.2V2.362L2.5,2.168a.361.361,0,0,0-.054-.151l.065-.075m-.377.011.011-.032.1-.043a.2.2,0,0,1,.118.108.448.448,0,0,1,.086.194l.011.183.011.129a.372.372,0,0,0,.151.29,1.062,1.062,0,0,0,.183.344l.086.151a.89.89,0,0,1,.1.226.805.805,0,0,0-.29-.312l-.032-.011L2.6,3.125l-.054-.14-.011-.032a.878.878,0,0,0-.312-.473L2.2,2.458l-.011-.043a1.13,1.13,0,0,0-.054-.441Zm-.2-.151.1.075a.9.9,0,0,1,.108.527l.011.075.032.032a.887.887,0,0,1,.3.452V3a.494.494,0,0,0,.075.172l.086.054.022.011A.852.852,0,0,1,3,3.653l.011.011L3,3.728a1.628,1.628,0,0,0-.344-.3L2.5,3.373a.367.367,0,0,1-.237-.151l-.022-.1L2.232,3.1a.973.973,0,0,0-.172-.387l-.151-.247L1.866,2.2a.8.8,0,0,0-.043-.28c.032-.086.065-.118.108-.118" transform="translate(2.555 8.514)"/>
      <path id="Tracciato_353" data-name="Tracciato 353" d="M1.749,2.494A.339.339,0,0,1,1.6,2.343a.135.135,0,0,1,.054-.183c.075-.032.14.022.2.054a1.064,1.064,0,0,0,.9.043.635.635,0,0,1,.269-.075.152.152,0,0,1,.118.108c.022.194-.344.29-.484.333a1.1,1.1,0,0,1-.592,0,1.828,1.828,0,0,1-.323-.129" transform="translate(3.597 12.922)" fill="#cf1121"/>
      <path id="Tracciato_354" data-name="Tracciato 354" d="M1.756,2.527a.44.44,0,0,1-.161-.151.127.127,0,0,1,.065-.183c.065-.032.14.022.2.054a1.163,1.163,0,0,0,.947.043.989.989,0,0,1,.28-.075.152.152,0,0,1,.129.108c.022.194-.366.29-.506.333a1.312,1.312,0,0,1-.613,0,1.706,1.706,0,0,1-.344-.129" transform="translate(3.559 13.244)" fill="#cf1121"/>
      <path id="Tracciato_355" data-name="Tracciato 355" d="M1.754,2.558a.368.368,0,0,1-.161-.151.13.13,0,0,1,.065-.183c.065-.032.14.022.215.054a1.212,1.212,0,0,0,.968.043.674.674,0,0,1,.29-.065c.054,0,.118.043.118.1.022.194-.366.29-.516.333a1.268,1.268,0,0,1-.635,0,1.237,1.237,0,0,1-.344-.129" transform="translate(3.539 13.546)" fill="#cf1121"/>
      <path id="Tracciato_356" data-name="Tracciato 356" d="M3.164,2.879a.222.222,0,0,0,.118-.2c0-.075-.075-.118-.14-.129H3.11a.275.275,0,0,0,.151-.226A.172.172,0,0,0,3.11,2.19a.365.365,0,0,0-.2.054l-.065.022a1.086,1.086,0,0,1-.893-.043H1.937a.283.283,0,0,0-.161-.075l-.032.011a.156.156,0,0,0-.1.086.21.21,0,0,0,.011.14.287.287,0,0,0,.108.129H1.69L1.6,2.6a.208.208,0,0,0,0,.14l.086.108H1.668c-.043.011-.065.043-.086.086a.21.21,0,0,0,.011.14.361.361,0,0,0,.172.161,1.121,1.121,0,0,0,.355.129,1.259,1.259,0,0,0,.344.043,1.361,1.361,0,0,0,.3-.032l.011-.011c.183-.043.549-.151.527-.355,0-.075-.075-.118-.14-.129M1.7,2.362v-.1l.054-.054h.022l.14.054.011.011a1.048,1.048,0,0,0,.925.032l.065-.022a.628.628,0,0,1,.194-.043l.1.075c.011.172-.333.269-.452.3l-.022.011a1.027,1.027,0,0,1-.57,0A1.829,1.829,0,0,1,1.851,2.5a.383.383,0,0,1-.151-.14m-.043.355v-.1l.054-.043.022-.011a.361.361,0,0,1,.151.054l.011.011a1.177,1.177,0,0,0,.968.043l.075-.022a.32.32,0,0,1,.194-.043c.043,0,.1.032.1.075.011.086-.1.151-.215.2l-.086.032-.065.022a1.574,1.574,0,0,1-.42.075,1.434,1.434,0,0,1-.3-.032l-.269-.1-.065-.032a.383.383,0,0,1-.151-.14m1.108.592-.011.011a1.315,1.315,0,0,1-.613-.011A.96.96,0,0,1,1.8,3.18a.307.307,0,0,1-.151-.129v-.1L1.69,2.9h.032l.075.011.043.022.022.011.011.011a1.012,1.012,0,0,0,.581.129h.011a.906.906,0,0,0,.29-.043h.022l.258-.1.118-.011c.043.011.1.032.1.075.011.161-.344.258-.484.3" transform="translate(3.517 12.892)"/>
      <path id="Tracciato_357" data-name="Tracciato 357" d="M2.945,1.818a.98.98,0,0,0-.1.549h.011l.086.032.032.065a.354.354,0,0,0,.065-.2l.011-.118.011-.194L3.117,1.8l-.054-.075L3,1.743l-.054.075" transform="translate(15.87 8.735)" fill="#cf1121"/>
      <path id="Tracciato_358" data-name="Tracciato 358" d="M2.914,3.1a.89.89,0,0,0-.1.226.831.831,0,0,1,.3-.312l.022-.011L3.2,2.952a.213.213,0,0,0,.065-.14V2.78a.914.914,0,0,1,.312-.463L3.6,2.3l.011-.054A1.157,1.157,0,0,1,3.667,1.8V1.78l-.011-.032L3.57,1.715a.177.177,0,0,0-.129.1.448.448,0,0,0-.086.194l-.011.183-.011.129a.4.4,0,0,1-.14.29A1.352,1.352,0,0,1,3,2.952L2.914,3.1" transform="translate(15.632 8.677)" fill="#cf1121"/>
      <path id="Tracciato_359" data-name="Tracciato 359" d="M3.16,3.139a.77.77,0,0,0-.333.42H2.816l.011.075a1.628,1.628,0,0,1,.344-.3l.14-.054c.108-.032.2-.065.247-.151l.022-.1V3a1.022,1.022,0,0,1,.183-.377.99.99,0,0,0,.14-.258.686.686,0,0,0,.043-.258A1.172,1.172,0,0,1,4,1.826c-.032-.086-.075-.118-.108-.118s-.065.022-.1.075a.9.9,0,0,0-.108.527l-.011.075-.032.032a.887.887,0,0,0-.3.452L3.332,2.9a.3.3,0,0,1-.075.172l-.075.054Z" transform="translate(15.622 8.608)" fill="#cf1121"/>
      <path id="Tracciato_360" data-name="Tracciato 360" d="M4.056,2.586a.416.416,0,0,0-.269.151l-.129.183-.054.1a1.509,1.509,0,0,1-.463.441L3.077,3.5a.694.694,0,0,0-.237.183.722.722,0,0,0-.086.355c-.043.8-.043,3.658-.022,3.808a.828.828,0,0,0,.613.183.987.987,0,0,0,.667-.183c-.011-.226-.1-3.023-.1-3.13V4.609a.6.6,0,0,1,.183-.3,2.364,2.364,0,0,1,.247-.215,2.15,2.15,0,0,0,.559-.613,1.971,1.971,0,0,0,.161-.559L5.1,2.791l.032-.172a2.3,2.3,0,0,0,.1-.85L5.2,1.7H5.143c-.043.011-.075.043-.108.108a.842.842,0,0,0-.075.333,1.172,1.172,0,0,1-.054.28.922.922,0,0,1-.151.269.887.887,0,0,0-.161.355V3.07L4.551,3.2a.4.4,0,0,1-.258.172l-.14.054c-.1.054-.377.269-.344.323L3.8,3.78l-.022.011L3.755,3.78V3.769a.632.632,0,0,1,.075-.581l.1-.151a1.063,1.063,0,0,0,.183-.366V2.6l-.054-.011" transform="translate(14.673 8.569)" fill="#cf1121"/>
      <path id="Tracciato_361" data-name="Tracciato 361" d="M2.718,7.426c0,.42,0,.495.022.516a.88.88,0,0,0,.656.194,1.049,1.049,0,0,0,.721-.2V7.91c0-.022-.1-3.034-.1-3.141v-.1a.618.618,0,0,1,.172-.28l.237-.2A2.112,2.112,0,0,0,5,3.553a1.751,1.751,0,0,0,.172-.57L5.2,2.865l.032-.183a2.333,2.333,0,0,0,.1-.861.143.143,0,0,0-.065-.108.135.135,0,0,0-.1-.011.3.3,0,0,0-.129.129l-.011.022a.178.178,0,0,0-.14-.108c-.054,0-.1.032-.14.1L4.73,1.9,4.7,1.864l-.118-.043a.274.274,0,0,0-.172.129L4.332,1.9a.149.149,0,0,0-.118.022l-.065.1a.99.99,0,0,0-.108.581.494.494,0,0,0-.247.161,1.117,1.117,0,0,0-.129.183l-.054.1a1.564,1.564,0,0,1-.452.43l-.065.043a.777.777,0,0,0-.258.194.762.762,0,0,0-.086.387c-.022.355-.032,1.183-.032,2.216-.011.42,0,.818,0,1.119m.065.473c-.022-.151-.022-3.012.022-3.808a.722.722,0,0,1,.086-.355.694.694,0,0,1,.237-.183l.065-.032a1.544,1.544,0,0,0,.463-.452l.054-.1.129-.183a.435.435,0,0,1,.269-.151l.043.011c.022.022.022.043.011.086a1.114,1.114,0,0,1-.183.355l-.1.151a.649.649,0,0,0-.075.592l.011.011h.032l.011-.032c-.032-.054.247-.28.344-.333l.14-.054A.4.4,0,0,0,4.6,3.252l.043-.118V3.112a.931.931,0,0,1,.161-.366.922.922,0,0,0,.151-.269A1.172,1.172,0,0,0,5.01,2.2a.842.842,0,0,1,.075-.333c.032-.054.065-.1.108-.108h.054l.022.065a2.069,2.069,0,0,1-.086.85l-.032.172-.032.129a1.971,1.971,0,0,1-.161.559,2.15,2.15,0,0,1-.559.613c-.086.075-.172.14-.247.215a.535.535,0,0,0-.183.3v.108c0,.108.086,2.915.1,3.141a1.059,1.059,0,0,1-.667.172A.784.784,0,0,1,2.783,7.9M4.375,2.015l-.054.151-.011.194L4.3,2.478a.472.472,0,0,1-.075.2L4.2,2.617l-.1-.032H4.1a1.082,1.082,0,0,1,.1-.549l.054-.075L4.31,1.95l.065.065m.312-.043a1.13,1.13,0,0,0-.054.441v.032L4.6,2.478a.919.919,0,0,0-.312.473v.032l-.065.14-.075.054-.022.011a.76.76,0,0,0-.3.312.884.884,0,0,1,.108-.226l.086-.151A1.062,1.062,0,0,0,4.2,2.779a.372.372,0,0,0,.151-.29l.011-.129.011-.183a.605.605,0,0,1,.075-.194c.032-.043.075-.1.129-.1l.086.022.022.043ZM5,1.918a1.172,1.172,0,0,0-.054.28.743.743,0,0,1-.043.269,1.522,1.522,0,0,1-.14.258A.867.867,0,0,0,4.59,3.1l-.011.022-.022.108a.4.4,0,0,1-.237.14l-.151.054a1.628,1.628,0,0,0-.344.3l-.011-.065.011-.011a.917.917,0,0,1,.333-.42l.022-.011.086-.054a.42.42,0,0,0,.075-.172V2.962a.794.794,0,0,1,.29-.43l.043-.054L4.687,2.4a.9.9,0,0,1,.108-.527l.1-.075c.043,0,.075.043.108.118" transform="translate(14.623 8.517)"/>
      <path id="Tracciato_362" data-name="Tracciato 362" d="M4.1,2.494a.4.4,0,0,0,.151-.151A.135.135,0,0,0,4.2,2.16c-.075-.032-.14.022-.2.054a1.062,1.062,0,0,1-.9.043.635.635,0,0,0-.269-.075.152.152,0,0,0-.118.108c-.011.194.355.29.484.333a1.1,1.1,0,0,0,.592,0A1.828,1.828,0,0,0,4.1,2.494" transform="translate(14.549 12.922)" fill="#cf1121"/>
      <path id="Tracciato_363" data-name="Tracciato 363" d="M4.167,2.527a.44.44,0,0,0,.161-.151.127.127,0,0,0-.065-.183c-.065-.032-.14.022-.2.054A1.186,1.186,0,0,1,3.1,2.29a.842.842,0,0,0-.269-.075.152.152,0,0,0-.129.108c-.022.194.366.29.506.333a1.312,1.312,0,0,0,.613,0,1.706,1.706,0,0,0,.344-.129" transform="translate(14.519 13.244)" fill="#cf1121"/>
      <path id="Tracciato_364" data-name="Tracciato 364" d="M4.2,2.558a.368.368,0,0,0,.161-.151.13.13,0,0,0-.065-.183c-.065-.032-.14.022-.2.054a1.24,1.24,0,0,1-.979.043.674.674,0,0,0-.29-.065c-.054,0-.118.043-.118.1-.022.194.366.29.516.333a1.268,1.268,0,0,0,.635,0A1.237,1.237,0,0,0,4.2,2.558" transform="translate(14.509 13.546)" fill="#cf1121"/>
      <path id="Tracciato_365" data-name="Tracciato 365" d="M2.7,3c-.022.215.344.312.527.366h.011a.952.952,0,0,0,.312.043,1.235,1.235,0,0,0,.333-.043,1.121,1.121,0,0,0,.355-.129.42.42,0,0,0,.172-.161.236.236,0,0,0,.011-.151l-.086-.075-.022-.011.086-.1a.208.208,0,0,0,0-.14c-.022-.043-.043-.075-.086-.086L4.27,2.5l-.022.011.1-.129a.16.16,0,0,0,0-.14.1.1,0,0,0-.075-.086l-.043-.011a.364.364,0,0,0-.161.065l-.011.011a1.029,1.029,0,0,1-.882.032l-.065-.022a.547.547,0,0,0-.215-.043c-.065.011-.14.054-.14.129a.237.237,0,0,0,.151.226H2.883c-.086.011-.161.054-.161.129a.222.222,0,0,0,.118.2A.14.14,0,0,0,2.7,3M4.152,2.5a1.114,1.114,0,0,1-.312.118,1.027,1.027,0,0,1-.57,0H3.248c-.118-.032-.463-.14-.441-.3,0-.043.043-.065.086-.075a.628.628,0,0,1,.194.043l.065.022a1.085,1.085,0,0,0,.925-.032l.011-.011c.043-.022.1-.065.14-.065l.022.011.054.054v.1a.48.48,0,0,1-.151.14m.043.355h0l-.065.032-.269.1a1.434,1.434,0,0,1-.3.032,1.574,1.574,0,0,1-.42-.075l-.065-.022L2.99,2.889c-.118-.054-.226-.118-.215-.215,0-.043.054-.065.1-.075a.628.628,0,0,1,.194.043l.075.032a1.177,1.177,0,0,0,.968-.043L4.12,2.62a.361.361,0,0,1,.151-.054H4.3l.043.054v.1a.384.384,0,0,1-.151.14m-1.442.151a.1.1,0,0,1,.1-.075.224.224,0,0,1,.118.011l.258.1h.022a1.27,1.27,0,0,0,.3.043,1.012,1.012,0,0,0,.581-.129l.032-.022L4.2,2.922l.086-.032.032.011.054.043v.1a.354.354,0,0,1-.161.14,1.267,1.267,0,0,1-.333.129,1.226,1.226,0,0,1-.624,0H3.238c-.14-.043-.495-.14-.484-.3" transform="translate(14.48 12.892)"/>
    </g>
  </g>
</svg>
