<svg xmlns="http://www.w3.org/2000/svg" xmlns:xlink="http://www.w3.org/1999/xlink" width="24" height="24" viewBox="0 0 24 24">
  <defs>
    <clipPath id="clip-path">
      <path id="Tracciato_1034" data-name="Tracciato 1034" d="M.547,12.749a12,12,0,1,0,12-12,12,12,0,0,0-12,12" transform="translate(-0.547 -0.749)" fill="none"/>
    </clipPath>
  </defs>
  <g id="Corea_del_sud" data-name="Corea del sud" transform="translate(-0.547 -0.749)">
    <g id="Raggruppa_39" data-name="Raggruppa 39" transform="translate(0.547 0.749)" clip-path="url(#clip-path)">
      <rect id="Rettangolo_80" data-name="Rettangolo 80" width="35.785" height="23.882" transform="translate(-5.887 0.065)" fill="#fff"/>
      <g id="Raggruppa_40" data-name="Raggruppa 40" transform="translate(2.396 1.867)">
        <path id="Tracciato_1023" data-name="Tracciato 1023" d="M5.925,4.092C4.675,6.054.638,5.42,1.819,1.574A4.822,4.822,0,0,0,9.337,7.5a5.228,5.228,0,0,0,.773-1.016c.964-3.212-2.787-4.584-4.184-2.4" transform="translate(3.678 6.041)" fill="#003f87"/>
        <path id="Tracciato_1024" data-name="Tracciato 1024" d="M8.9,2.724a4.81,4.81,0,0,0-6.815,0,4.376,4.376,0,0,0-.7.894C.2,7.464,4.234,8.089,5.485,6.136c1.4-2.2,5.148-.816,4.184,2.4A4.844,4.844,0,0,0,8.9,2.724" transform="translate(4.119 4.006)" fill="#c03"/>
        <rect id="Rettangolo_81" data-name="Rettangolo 81" width="4.811" height="0.763" transform="matrix(0.557, -0.83, 0.83, 0.557, -0.386, 6.338)"/>
        <rect id="Rettangolo_82" data-name="Rettangolo 82" width="4.811" height="0.763" transform="matrix(0.557, -0.83, 0.83, 0.557, 0.614, 7.002)"/>
        <rect id="Rettangolo_83" data-name="Rettangolo 83" width="4.811" height="0.763" transform="matrix(0.557, -0.83, 0.83, 0.557, 1.613, 7.667)"/>
        <rect id="Rettangolo_84" data-name="Rettangolo 84" width="0.763" height="2.196" transform="translate(16.283 2.773) rotate(-33.879)"/>
        <rect id="Rettangolo_85" data-name="Rettangolo 85" width="0.763" height="2.153" transform="matrix(0.83, -0.557, 0.557, 0.83, 17.76, 4.975)"/>
        <rect id="Rettangolo_86" data-name="Rettangolo 86" width="0.763" height="4.811" transform="translate(15.28 3.433) rotate(-33.871)"/>
        <path id="Tracciato_1025" data-name="Tracciato 1025" d="M4.067,2.952,2.843,1.12,2.2,1.546,3.433,3.377Z" transform="translate(12.079 2.555)"/>
        <path id="Tracciato_1026" data-name="Tracciato 1026" d="M3.006,1.375,2.372,1.8l1.2,1.78L4.2,3.154Z" transform="translate(13.394 4.51)"/>
        <rect id="Rettangolo_87" data-name="Rettangolo 87" width="0.763" height="2.196" transform="matrix(0.83, -0.557, 0.557, 0.83, 0.603, 13.242)"/>
        <rect id="Rettangolo_88" data-name="Rettangolo 88" width="0.763" height="2.153" transform="translate(2.079 15.443) rotate(-33.871)"/>
        <path id="Tracciato_1027" data-name="Tracciato 1027" d="M3.417,6.517l.634-.425L1.377,2.1l-.634.425Z" transform="translate(0.881 10.067)"/>
        <rect id="Rettangolo_89" data-name="Rettangolo 89" width="0.767" height="4.801" transform="translate(-0.396 13.935) rotate(-33.871)"/>
        <path id="Tracciato_1028" data-name="Tracciato 1028" d="M2.368,3.927,3.592,2.1l.634.425L3,4.352Z" transform="translate(13.365 10.046)"/>
        <path id="Tracciato_1029" data-name="Tracciato 1029" d="M3.4,2.35l.634.425-1.2,1.78L2.2,4.129Z" transform="translate(12.08 12)"/>
        <path id="Tracciato_1030" data-name="Tracciato 1030" d="M2.483,4,3.715,2.173l.634.425L3.116,4.43Z" transform="translate(14.245 10.642)"/>
        <path id="Tracciato_1031" data-name="Tracciato 1031" d="M3.513,2.427l.634.425-1.2,1.78-.634-.425Z" transform="translate(12.96 12.598)"/>
        <path id="Tracciato_1032" data-name="Tracciato 1032" d="M2.6,4.081,3.83,2.249l.634.425L3.231,4.506Z" transform="translate(15.127 11.227)"/>
        <path id="Tracciato_1033" data-name="Tracciato 1033" d="M3.628,2.5l.634.425-1.2,1.78L2.43,4.283Z" transform="translate(13.841 13.182)"/>
      </g>
    </g>
  </g>
</svg>
