<svg xmlns="http://www.w3.org/2000/svg" xmlns:xlink="http://www.w3.org/1999/xlink" width="24" height="24" viewBox="0 0 24 24">
  <defs>
    <clipPath id="clip-path">
      <path id="Tracciato_1141" data-name="Tracciato 1141" d="M1.122,12.749a12,12,0,1,0,11.989-12,11.995,11.995,0,0,0-11.989,12" transform="translate(-1.122 -0.749)" fill="none"/>
    </clipPath>
  </defs>
  <g id="Croazia" transform="translate(-1.122 -0.749)">
    <g id="Raggruppa_42" data-name="Raggruppa 42" transform="translate(1.122 0.749)" clip-path="url(#clip-path)">
      <rect id="Rettangolo_93" data-name="Rettangolo 93" width="48.151" height="24.075" transform="translate(-12.075 -0.032)" fill="#dd1811"/>
      <rect id="Rettangolo_94" data-name="Rettangolo 94" width="48.151" height="16.079" transform="translate(-12.075 7.964)" fill="#fff"/>
      <rect id="Rettangolo_95" data-name="Rettangolo 95" width="48.151" height="8.072" transform="translate(-12.075 15.971)" fill="#052a8f"/>
      <path id="Tracciato_1036" data-name="Tracciato 1036" d="M2.6,4.894,1.9,2.321l.99-1.248,1.485.85.2,2.691a13.711,13.711,0,0,0-1.98.28" transform="translate(6.483 2.414)" fill="#052a8a"/>
      <path id="Tracciato_1037" data-name="Tracciato 1037" d="M4.18,1.286l.054.667a8.84,8.84,0,0,0-2.12.3l-.183-.667a5.339,5.339,0,0,1,2.249-.3" transform="translate(6.776 4.353)" fill="#dd180c"/>
      <path id="Tracciato_1038" data-name="Tracciato 1038" d="M2.083,2.217l-.161-.57L1.9,1.55a9.175,9.175,0,0,1,2.486-.4v.065l.054.657a6.45,6.45,0,0,0-2.357.344" transform="translate(6.473 3.185)" fill="#dd180c"/>
      <path id="Tracciato_1039" data-name="Tracciato 1039" d="M2.8,4.862,1.692,2.451l.732-1.324,1.55.6.667,2.637a6.525,6.525,0,0,0-1.84.5" transform="translate(4.443 2.941)" fill="#0b7aa4"/>
      <path id="Tracciato_1040" data-name="Tracciato 1040" d="M4.733,1.121l.8,1.421L4.378,4.92A13.018,13.018,0,0,0,2.505,4.4l.753-2.658Z" transform="translate(12.379 2.883)" fill="#0b7aa4"/>
      <path id="Tracciato_1041" data-name="Tracciato 1041" d="M2.848,1.268a8.692,8.692,0,0,1,2.174.7L4.473,3.119a9.683,9.683,0,0,0-1.959-.635Z" transform="translate(12.467 4.318)" fill="#fff"/>
      <path id="Tracciato_1042" data-name="Tracciato 1042" d="M2.681,1.293a8.077,8.077,0,0,1,2.152.678l-.323.667A11.6,11.6,0,0,0,2.52,1.993Z" transform="translate(12.526 4.562)" fill="#dd180c"/>
      <path id="Tracciato_1043" data-name="Tracciato 1043" d="M3.9,1.075,5,2.28,4.223,4.831c-.678-.108-1.324-.194-1.894-.237l.183-2.648Z" transform="translate(10.661 2.434)" fill="#052a8a"/>
      <path id="Tracciato_1044" data-name="Tracciato 1044" d="M3.311,1.061,4.527,2,4.3,4.731a14.384,14.384,0,0,0-1.926,0L2.127,1.987Z" transform="translate(8.689 2.297)" fill="#0b7aa4"/>
      <path id="Tracciato_1045" data-name="Tracciato 1045" d="M7.632,4.708h.3l.291.011.3.011.3.022.3.032.3.032.291.043.291.043.3.054.291.065.291.065.291.065.291.086.291.075.291.086.28.1-.043.011,1.119-2.4V3.18l-.818-1.41.118.043-1.464.635a.114.114,0,0,1-.129-.022l-.538-.56-.538-.549.161.022-1.356.786A.115.115,0,0,1,8.7,2.115L7.481,1.189h.183L6.469,2.1a.115.115,0,0,1-.151.011L4.877,1.308l.161-.032-.474.6L4.08,2.47a.1.1,0,0,1-.129.032L2.4,1.867l.118-.043L1.766,3.137V3.073L2.853,5.5,2.8,5.494l.291-.1.3-.086.291-.086.3-.075.3-.075.291-.065.3-.054A3.154,3.154,0,0,1,5.189,4.9l.3-.054.3-.043.3-.032L6.4,4.751l.3-.022.312-.022h.613Zm0,.011H7.32l-.3.011-.312.022-.3.022-.3.032-.312.032-.3.043-.3.043-.3.054-.3.065-.3.075-.291.065-.3.086L3.4,5.354l-.291.086-.291.1H2.8L1.691,3.1V3.094L2.423,1.77l.011-.011,1.561.624H3.983L4.92,1.189l.022-.011,1.453.807H6.373L7.556,1.06h.022L8.794,2H8.773l1.356-.786h.011L11.216,2.33h-.022l1.485-.624h.011l.8,1.431v.011L12.335,5.537l-.291-.1-.291-.086-.28-.086-.291-.075-.291-.075L10.6,5.053l-.3-.065-.291-.054L9.72,4.891l-.3-.054-.291-.032-.3-.032-.3-.022-.3-.022H7.933Z" transform="translate(4.433 2.287)" fill="#fff"/>
      <path id="Tracciato_1046" data-name="Tracciato 1046" d="M2.1,1.2l.194.161.3-.1-.032.28.2.2-.248.118-.032.28-.226-.172-.312.118.032-.3-.226-.194.28-.108Z" transform="translate(5.034 3.621)" fill="#fec504"/>
      <path id="Tracciato_1047" data-name="Tracciato 1047" d="M1.785,1.2l.161.484.032-.323Z" transform="translate(5.347 3.621)" fill="#fef90f"/>
      <path id="Tracciato_1048" data-name="Tracciato 1048" d="M1.8,1.622l.334-.42L2.1,1.493l.2.2Z" transform="translate(5.494 3.677)" fill="#fef90f"/>
      <path id="Tracciato_1049" data-name="Tracciato 1049" d="M1.8,1.241l.258.183-.032.28Z" transform="translate(5.494 4.058)" fill="#fef90f"/>
      <path id="Tracciato_1050" data-name="Tracciato 1050" d="M2.083,1.241v.3l-.312.108Z" transform="translate(5.211 4.058)" fill="#fef90f"/>
      <path id="Tracciato_1051" data-name="Tracciato 1051" d="M2.259,1.417l-.506-.075.28-.118Z" transform="translate(5.035 3.882)" fill="#fef90f"/>
      <path id="Tracciato_1052" data-name="Tracciato 1052" d="M1.776,1.91c.6.667,1.636.14,1.41-.6-.291.527-.689.678-1.41.6" transform="translate(5.263 4.698)" fill="#fff"/>
      <path id="Tracciato_1053" data-name="Tracciato 1053" d="M3.314,1.188l.043.248.291.129-.2.194.022.291-.258-.086-.215.194-.065-.269-.3-.118.215-.2-.043-.3.291.1Z" transform="translate(13.558 3.539)" fill="#fec504"/>
      <path id="Tracciato_1054" data-name="Tracciato 1054" d="M2.865,1.188l-.194.474.237-.226Z" transform="translate(14.007 3.539)" fill="#fef90f"/>
      <path id="Tracciato_1055" data-name="Tracciato 1055" d="M2.672,1.32l.527-.1-.215.194.022.291Z" transform="translate(14.012 3.878)" fill="#fef90f"/>
      <path id="Tracciato_1056" data-name="Tracciato 1056" d="M2.789,1.232l.075.312-.2.194Z" transform="translate(13.894 3.966)" fill="#fef90f"/>
      <path id="Tracciato_1057" data-name="Tracciato 1057" d="M3.131,1.232l-.194.226L2.625,1.34Z" transform="translate(13.553 3.966)" fill="#fef90f"/>
      <path id="Tracciato_1058" data-name="Tracciato 1058" d="M2.975,1.593l-.334-.4.3.108Z" transform="translate(13.709 3.605)" fill="#fef90f"/>
      <path id="Tracciato_1059" data-name="Tracciato 1059" d="M4.09,2.183v.011l-.065.032-.032-.032L4,2.151c.032-.054-.022-.118-.075-.14a.444.444,0,0,1-.161-.075l-.011-.011-.065.032L3.638,2l-.1-.011-.032-.011-.086-.011-.054-.054.043-.022.14.022.011-.043L3.509,1.86H3.455L3.379,1.85a.654.654,0,0,1-.194-.1l-.151-.011-.065.011-.086.022a.521.521,0,0,1-.194.032L2.669,1.8V1.753l.043-.022h.075l.065-.022.022-.032-.022-.022H2.734a.221.221,0,0,1-.118,0l-.032-.011L2.54,1.6l.043-.043.054.032h.1L2.82,1.57V1.527l-.054-.043-.1-.011-.043-.065.022-.022a.326.326,0,0,1,.28-.065h.022v.065l.043.054.065.011.118.054a.451.451,0,0,0,.172.011l.172.011.172.022.118.065.054.054L3.9,1.7,4,1.742a1.739,1.739,0,0,0,.334.022l.086.032-.032.1a.239.239,0,0,1-.172.032L4.09,1.893l-.054-.022H3.961l-.011.022.022.043.108.054.011.032-.011.043.022.065-.011.043Z" transform="translate(12.721 4.769)"/>
      <path id="Tracciato_1060" data-name="Tracciato 1060" d="M3.076,1.478h0l-.011.011a1.3,1.3,0,0,1-.2,0l-.108-.022-.086-.043L2.6,1.381l.011-.022.032-.011.129.011h.194l.043.022.065.1" transform="translate(13.326 5.108)" fill="#fff"/>
      <path id="Tracciato_1061" data-name="Tracciato 1061" d="M3.856,2.837,3.9,2.708c.043-.054.129-.086.129-.151l-.043-.129.032-.075c.011-.065-.011-.129.011-.183s.108-.1.1-.161l-.011-.075.043-.118a.193.193,0,0,0-.043-.151l-.054.043-.108.032H3.77L3.5,1.75a1.113,1.113,0,0,1-.323.022.244.244,0,0,1-.237-.194.291.291,0,0,0,.237-.172.629.629,0,0,1-.2-.022,1.117,1.117,0,0,1-.183-.129.147.147,0,0,0-.194,0l-.011.022H2.554l-.118-.043-.022-.022-.054.054.054.075.065.075a.13.13,0,0,1-.032.108l-.065.086.022.1.086.022.043-.011.032.011v.011l-.011.032.011.032.011.011v.011l.022.032.022.032L2.6,1.922l-.086.086a.064.064,0,0,0,.032.1l-.022.043.011.032.011.075a.548.548,0,0,1-.065.226L2.4,2.6a.136.136,0,0,0-.011.129l.065.043L2.5,2.762l.032-.022.022-.022.011-.032V2.643c0-.065.054-.118.1-.172l.086-.054.075.054-.043.086c-.032.065.011.151-.032.2l-.022.032a.084.084,0,0,0,0,.118l.1.032c.054-.011.075-.075.1-.129a.392.392,0,0,1,.022-.161l.065-.086.032-.032.022-.065L3.1,2.46l.14-.011h.118l.022.011L3.372,2.5l-.043.086-.065.129v.043l.054.032h.054l.043-.022a.365.365,0,0,0,.1-.151L3.6,2.5c.032-.022.075-.065.118-.043l.032.043.011.043a.488.488,0,0,1-.086.237l-.032.065.032.065h.022a.21.21,0,0,0,.161-.075" transform="translate(10.964 3.771)" fill="#fef90f"/>
      <path id="Tracciato_1062" data-name="Tracciato 1062" d="M2.59,1.457V1.424H2.6L2.58,1.4H2.558L2.472,1.37l-.022-.022-.032.011-.011.022-.043.054-.011.022.011.054.065.022h.1l.065-.075" transform="translate(10.902 5.107)" fill="#dd180c"/>
      <path id="Tracciato_1063" data-name="Tracciato 1063" d="M2.492,1.508h.022L2.546,1.5l.043-.032L2.6,1.432,2.546,1.4l-.054-.022-.011-.011-.043.011L2.427,1.4l-.043.032v.043l.032.022.075.011" transform="translate(11.202 5.29)" fill="#dd180c"/>
      <path id="Tracciato_1064" data-name="Tracciato 1064" d="M2.651,1.428,2.64,1.407,2.608,1.4l-.065-.032V1.353H2.532L2.5,1.364,2.479,1.4l-.022.032-.022.011V1.46l.022.011.118.011L2.64,1.45Z" transform="translate(11.701 5.145)" fill="#dd180c"/>
      <path id="Tracciato_1065" data-name="Tracciato 1065" d="M2.685,1.408H2.664L2.631,1.4l-.065-.032H2.524l-.011.022-.022.032L2.47,1.43l.011.075.065.011a.141.141,0,0,0,.129-.032l.032-.065L2.7,1.408Z" transform="translate(12.038 5.265)" fill="#dd180c"/>
      <path id="Tracciato_1066" data-name="Tracciato 1066" d="M2.661,1.39l-.129.032H2.5c-.054,0-.075-.011-.1-.043L2.392,1.3l.086-.065a.757.757,0,0,1,.409-.022.967.967,0,0,0,.291.075l.1-.011.108-.011.086-.011-.043.075-.108.043a.988.988,0,0,1-.3.054,3.131,3.131,0,0,0-.334-.043H2.661" transform="translate(11.276 3.647)" fill="#dd180c"/>
      <path id="Tracciato_1067" data-name="Tracciato 1067" d="M2.4,1.215,2.429,1.2l.065.032.022.065v.032L2.5,1.3l-.032-.043-.043-.032Z" transform="translate(11.322 3.7)"/>
      <path id="Tracciato_1068" data-name="Tracciato 1068" d="M2.422,1.2l.022.011.054.043v.022l-.011.043-.011.022V1.286l-.011-.022-.022-.043L2.422,1.2" transform="translate(11.568 3.658)"/>
      <path id="Tracciato_1069" data-name="Tracciato 1069" d="M2.466,1.2l.022.022v.011l.011.011.011.022-.032.054-.032.022.011-.022.022-.043V1.226Z" transform="translate(11.789 3.699)"/>
      <path id="Tracciato_1070" data-name="Tracciato 1070" d="M2.465,1.21h.011l.032.032v.022L2.5,1.285,2.487,1.3V1.264l-.011-.011-.011-.032V1.21" transform="translate(11.989 3.75)"/>
      <path id="Tracciato_1071" data-name="Tracciato 1071" d="M2.481,1.208h.011l.022.011V1.24L2.5,1.251,2.481,1.24Z" transform="translate(12.145 3.73)"/>
      <path id="Tracciato_1072" data-name="Tracciato 1072" d="M2.65,1.4l-.129.011L2.467,1.4,2.4,1.347V1.271l.086-.054a.8.8,0,0,1,.42.054,1.2,1.2,0,0,0,.269.118l.1.011a.977.977,0,0,0,.248-.032h.011V1.4a.5.5,0,0,1-.237.1.943.943,0,0,1-.3,0,2.828,2.828,0,0,0-.323-.1Z" transform="translate(11.374 3.744)" fill="#dd180c"/>
      <path id="Tracciato_1073" data-name="Tracciato 1073" d="M2.407,1.213H2.44l.054.032.022.075v.022L2.493,1.32l-.022-.054-.043-.043Z" transform="translate(11.427 3.777)"/>
      <path id="Tracciato_1074" data-name="Tracciato 1074" d="M2.433,1.211l.022.011.043.054V1.3l-.011.032-.022.032V1.287l-.011-.043-.022-.032" transform="translate(11.675 3.765)"/>
      <path id="Tracciato_1075" data-name="Tracciato 1075" d="M2.5,1.22l.022.022v.054L2.5,1.338l-.043.022.011-.022.022-.032L2.5,1.273V1.22" transform="translate(11.868 3.845)"/>
      <path id="Tracciato_1076" data-name="Tracciato 1076" d="M2.474,1.227l.011.011.022.032v.022L2.5,1.3l-.011.011V1.271l-.011-.032Z" transform="translate(12.075 3.922)"/>
      <path id="Tracciato_1077" data-name="Tracciato 1077" d="M2.49,1.228H2.5l.011.011.011.022L2.5,1.282,2.49,1.26Z" transform="translate(12.233 3.927)"/>
      <path id="Tracciato_1078" data-name="Tracciato 1078" d="M2.437,1.5l.011-.011.011-.011.011-.022.011-.011L2.5,1.4l.011-.043.022-.032.011-.011L2.566,1.3v.065l-.032.043-.022.032L2.5,1.452H2.491v.011l-.022.022H2.458L2.448,1.5Z" transform="translate(11.714 4.644)" fill="#6c4b00"/>
      <path id="Tracciato_1079" data-name="Tracciato 1079" d="M2.4,1.276H2.383l.032-.043h.075l.086.022-.011.022-.032.011-.1.011L2.4,1.276" transform="translate(11.188 3.976)" fill="#6c4b00"/>
      <path id="Tracciato_1080" data-name="Tracciato 1080" d="M2.388,1.282l.022.022.022.022.011.022.011.043v.032l-.011.032-.011-.011V1.432L2.42,1.4l-.011-.032V1.346L2.4,1.314Z" transform="translate(11.233 4.452)" fill="#6c4b00"/>
      <path id="Tracciato_1081" data-name="Tracciato 1081" d="M2.4,1.273l.022.043.032.086.011.054L2.455,1.5l-.011.043H2.433V1.531L2.423,1.5V1.4l-.011-.086L2.4,1.284Z" transform="translate(11.365 4.368)" fill="#6c4b00"/>
      <path id="Tracciato_1082" data-name="Tracciato 1082" d="M2.42,1.284l.043.054.011.022v.022l-.011.032H2.452l-.011-.022-.011-.011V1.359Z" transform="translate(11.55 4.474)" fill="#6c4b00"/>
      <path id="Tracciato_1083" data-name="Tracciato 1083" d="M2.446,1.279l.011.022.032.054.011.022v.032l-.011.032H2.478V1.419L2.467,1.4l-.011-.032-.011-.054L2.435,1.29Z" transform="translate(11.698 4.425)" fill="#6c4b00"/>
      <path id="Tracciato_1084" data-name="Tracciato 1084" d="M2.455,1.509,2.487,1.4V1.38L2.5,1.326V1.3l.011-.011H2.52V1.3l.011.032v.032l-.011.043-.043.065Z" transform="translate(11.891 4.571)" fill="#6c4b00"/>
      <path id="Tracciato_1085" data-name="Tracciato 1085" d="M2.457,1.276h0l.011.022.043.043.022.022.011.022v.043H2.532l-.022-.022L2.5,1.394l-.011-.032-.022-.043-.011-.032Z" transform="translate(11.911 4.397)" fill="#6c4b00"/>
      <path id="Tracciato_1086" data-name="Tracciato 1086" d="M2.475,1.28l.022.032.022.065.011.043v.043l-.011.011V1.5H2.507V1.484L2.5,1.463V1.441L2.486,1.4Z" transform="translate(12.086 4.435)" fill="#6c4b00"/>
      <path id="Tracciato_1087" data-name="Tracciato 1087" d="M2.654,1.524H2.622L2.568,1.5l-.022.022H2.525L2.5,1.47a.436.436,0,0,0,0-.118l-.011-.065.022.011.011.022.022.054.043.032h.032l.032.032-.011.032.011.022Z" transform="translate(12.262 4.503)" fill="#6c4b00"/>
      <path id="Tracciato_1088" data-name="Tracciato 1088" d="M2.844,2.065V2.022H2.9l.054-.011.011-.032.011-.054L3,1.9h.032V1.85l-.011-.032L3.048,1.8H3.07l.022-.022L3.08,1.753l-.043-.032-.011-.054L3,1.613,2.94,1.549,2.93,1.506,2.9,1.42l-.032-.065L2.919,1.3V1.247h-.1l-.1.086L2.7,1.247l-.118-.075-.108.075-.011.1-.118-.1h-.1V1.3l.1.108.011.032-.032.022H2.305l-.022.022v.065l-.011.043L2.252,1.6l-.043.011-.065.1v.032l.022.011v.054l-.022.022.011.022.032.054.022.032h.032l.011.022v.022l.032.043h.043l.065.022.043.065.075.011h.032l.043.022H2.65l.043-.011H2.7l.032-.011H2.79l.032-.011.022-.043" transform="translate(8.855 3.38)" fill="#cba200"/>
      <path id="Tracciato_1089" data-name="Tracciato 1089" d="M2.157,1.212V1.18l.1.086.108.022h.28l.1-.1.043-.011-.011.032L2.706,1.3,2.7,1.32l-.022.011-.065.011-.032-.011H2.544a.307.307,0,0,0-.172.011l-.032.022H2.265l-.011-.022L2.2,1.266l-.032-.032Z" transform="translate(8.982 3.459)" fill="#fef912"/>
      <path id="Tracciato_1090" data-name="Tracciato 1090" d="M2.221,1.253h0l-.043-.022.032-.022.043-.022V1.177h.022l.022.032h.043l.011.032L2.274,1.22H2.264l-.043.032" transform="translate(9.183 3.431)" fill="#fef912"/>
      <path id="Tracciato_1091" data-name="Tracciato 1091" d="M2.4,1.272l.022-.011.022-.011L2.436,1.24H2.318l-.011.011.011.011H2.35l.022.032v.043H2.21l-.043-.043L2.2,1.262l.118-.054L2.436,1.2l.1.011.065.075V1.3l-.032.032-.1.011L2.4,1.326V1.272" transform="translate(9.08 3.625)" fill="#fef912"/>
      <path id="Tracciato_1092" data-name="Tracciato 1092" d="M2.423,1.395,2.4,1.406,2.38,1.395l-.032-.011-.011.011v.011l.011.022H2.38l.011.011-.011.043v.011L2.359,1.5H2.326l-.011-.022L2.3,1.449a.236.236,0,0,0-.1-.108L2.187,1.32l-.011-.032-.011-.043V1.223l.022-.011.022.011.086.1L2.3,1.33l.043-.011.011-.043.032-.032.054.011.011.022.032.032h.022L2.531,1.3l.043-.054L2.6,1.223h.032l.011.032.011.054-.011.032-.065.022-.011.043-.011.043-.022.032L2.5,1.492l-.054-.011L2.434,1.46l.032-.043V1.384H2.456l-.032.011" transform="translate(9.06 3.771)" fill="#fef912"/>
      <path id="Tracciato_1093" data-name="Tracciato 1093" d="M2.215,1.261l.022-.022.032.011.043.011.032.011v.022l-.032.022-.022.022-.022.011H2.226L2.2,1.325l-.022-.032.011-.022.022-.011" transform="translate(9.237 4.036)" fill="#fef912"/>
      <path id="Tracciato_1094" data-name="Tracciato 1094" d="M2.181,1.259l-.011-.011V1.237l.022-.011h.032l.011.011v.075L2.2,1.334l-.022.032H2.16l-.011-.022.022-.011L2.192,1.3l-.011-.043" transform="translate(8.904 3.912)" fill="#fef912"/>
      <path id="Tracciato_1095" data-name="Tracciato 1095" d="M2.2,1.236l.011.011v.022L2.2,1.311l.011.032L2.2,1.376H2.167l-.011-.032V1.279h.011l.011-.022.011-.022Z" transform="translate(8.976 4.005)" fill="#fef912"/>
      <path id="Tracciato_1096" data-name="Tracciato 1096" d="M2.231,1.3l.011.011v.043H2.22L2.177,1.3l-.011-.011V1.278l.043-.032H2.22l.011.032Z" transform="translate(9.072 4.098)" fill="#fef912"/>
      <path id="Tracciato_1097" data-name="Tracciato 1097" d="M2.243,1.479l.011.032L2.286,1.5,2.3,1.425,2.286,1.4l.022-.032.022.011L2.34,1.4l.011.011L2.372,1.4V1.382l-.043-.075V1.285h.043l.022.011L2.4,1.285l-.011-.011-.022-.032H2.361L2.34,1.221H2.3l-.043.065-.032.032L2.21,1.35l.011.065v.022l.022.043" transform="translate(9.503 3.855)" fill="#fef912"/>
      <path id="Tracciato_1098" data-name="Tracciato 1098" d="M2.308,1.3v.011H2.3l-.022.032v.054H2.243l-.022-.043L2.211,1.34,2.2,1.308l.011-.022h.011l.032-.022.022-.022.011.043Z" transform="translate(9.404 4.075)" fill="#fef912"/>
      <path id="Tracciato_1099" data-name="Tracciato 1099" d="M2.212,1.265l.011-.011h.022l.011.022.011.011V1.3l-.022.011-.011.011H2.2L2.19,1.309,2.2,1.287Z" transform="translate(9.308 4.188)" fill="#fef912"/>
      <path id="Tracciato_1100" data-name="Tracciato 1100" d="M2.238,1.309H2.195L2.184,1.3V1.288l.011-.011.011-.011V1.255l.011.011v.011l.011.011Z" transform="translate(9.244 4.194)" fill="#fef912"/>
      <path id="Tracciato_1101" data-name="Tracciato 1101" d="M2.187,1.224,2.2,1.213H2.23c.011.043,0,.054-.032.054l-.022-.011.011-.032" transform="translate(9.167 3.781)" fill="#6c4b0c"/>
      <path id="Tracciato_1102" data-name="Tracciato 1102" d="M2.2,1.223l.011-.011.032.022-.032.032L2.2,1.256V1.223" transform="translate(9.354 3.776)" fill="#6c4b0c"/>
      <path id="Tracciato_1103" data-name="Tracciato 1103" d="M2.3,1.327l-.043-.022V1.284l.011-.032L2.3,1.24V1.23H2.29l-.075.011V1.23H2.182l.011.011.011.011h.022l.022.022-.022.054-.032.022H2.182v.011l.043-.011.043-.022.022.011.065.011V1.337L2.3,1.327" transform="translate(9.226 3.944)" fill="#6c4b0c"/>
      <path id="Tracciato_1104" data-name="Tracciato 1104" d="M2.954,2.063V2.02L3,2.009l.054.011.022-.065.022-.043L3.116,1.9h.022l.011-.011v-.1l.032-.011L3.2,1.773l-.011-.022-.043-.032-.011-.032L3.116,1.6l-.065-.054L3.04,1.514l-.032-.1-.032-.065L3.03,1.3V1.245h-.1l-.1.086-.011-.1L2.7,1.17l-.108.075-.011.1-.118-.1H2.373V1.3l.086.108.011.022-.022.032H2.416l-.022.022v.054l-.011.054H2.362l-.043.032-.065.086-.011.022.022.011.011.054-.022.043.011.011.022.032.032.054h.043l.011.022V2l.022.022h.043l.065.022.043.065h.075l.032.011.043.011.065.011L2.8,2.128l.011-.011H2.9L2.944,2.1Z" transform="translate(9.831 3.361)" fill="#cba200"/>
      <path id="Tracciato_1105" data-name="Tracciato 1105" d="M2.257,1.21V1.178l.1.086.108.022h.28l.1-.1.043-.011L2.87,1.21,2.806,1.3,2.8,1.318l-.011.011-.054.011-.054-.011H2.623a.37.37,0,0,0-.151.011l-.054.032H2.386l-.032-.032L2.3,1.264l-.032-.032Z" transform="translate(9.958 3.439)" fill="#fef912"/>
      <path id="Tracciato_1106" data-name="Tracciato 1106" d="M2.321,1.26h0l-.043-.022L2.3,1.228,2.354,1.2l.011-.022.011.022.022.022h.022l.022-.011.011.054-.075-.032H2.364l-.043.032" transform="translate(10.166 3.397)" fill="#fef912"/>
      <path id="Tracciato_1107" data-name="Tracciato 1107" d="M2.5,1.27l.032-.011.011-.011-.011-.011H2.408v.011l.011.011.032.011.022.032-.022.032h-.14l-.043-.043L2.3,1.26l.118-.054L2.526,1.2l.108.011a.081.081,0,0,1,.065.075V1.3l-.032.032h-.1l-.075-.011L2.5,1.27" transform="translate(10.066 3.605)" fill="#fef912"/>
      <path id="Tracciato_1108" data-name="Tracciato 1108" d="M2.524,1.393H2.438v.032l.043-.011.011.022-.011.043L2.47,1.49,2.46,1.5H2.427l-.011-.032-.011-.022a.236.236,0,0,0-.1-.108l-.022-.022-.022-.032V1.232l.011-.022H2.3l.1.108.011.011.043-.011.011-.032.022-.032h.054l.032.032.011.022.032.011.032-.032.032-.043.011-.011.032-.022.022.032v.065l-.011.032-.054.032L2.664,1.4v.032l-.022.032L2.6,1.49l-.054-.011-.011-.032.022-.022.011-.043-.043.011" transform="translate(10.046 3.751)" fill="#fef912"/>
      <path id="Tracciato_1109" data-name="Tracciato 1109" d="M2.316,1.248l.011-.011H2.37l.022.011h.043v.032l-.011.011-.032.032-.043.011-.032-.011L2.306,1.3l-.022-.022.011-.022Z" transform="translate(10.222 4.022)" fill="#fef912"/>
      <path id="Tracciato_1110" data-name="Tracciato 1110" d="M2.282,1.256l-.011-.011.011-.011V1.224h.032l.022.022v.075l-.043.032-.022.011H2.26L2.25,1.342l.022-.011.022-.022-.011-.054" transform="translate(9.887 3.887)" fill="#fef912"/>
      <path id="Tracciato_1111" data-name="Tracciato 1111" d="M2.3,1.233l.011.011v.032L2.3,1.309l.011.032L2.3,1.373H2.279l-.022-.032V1.287l.011-.011.022-.022V1.244Z" transform="translate(9.959 3.98)" fill="#fef912"/>
      <path id="Tracciato_1112" data-name="Tracciato 1112" d="M2.331,1.3l.011.022v.032H2.321L2.278,1.3H2.267V1.275l.043-.032h.011l.011.032Z" transform="translate(10.055 4.075)" fill="#fef912"/>
      <path id="Tracciato_1113" data-name="Tracciato 1113" d="M2.344,1.477l.022.032.022-.022L2.4,1.423,2.387,1.4,2.4,1.369l.022.011L2.44,1.4h.022l.011-.011V1.38L2.43,1.294V1.283l.011-.011.011.011h.022l.022.011.011-.011-.011-.011L2.473,1.24H2.462L2.43,1.218H2.387l-.032.065-.032.032-.011.043.011.032v.054l.022.032" transform="translate(10.488 3.832)" fill="#fef912"/>
      <path id="Tracciato_1114" data-name="Tracciato 1114" d="M2.409,1.285V1.3l-.022.011-.011.022v.054H2.355l-.022-.011-.011-.032-.011-.011L2.3,1.3V1.285l.032-.011.022-.032h.032l.011.032Z" transform="translate(10.391 4.06)" fill="#fef912"/>
      <path id="Tracciato_1115" data-name="Tracciato 1115" d="M2.313,1.263l.011-.011h.022l.011.022.011.011V1.3l-.011.011-.022.011H2.313L2.291,1.3,2.3,1.284l.011-.022" transform="translate(10.293 4.163)" fill="#fef912"/>
      <path id="Tracciato_1116" data-name="Tracciato 1116" d="M2.338,1.307H2.3V1.3l-.011-.022H2.3l.011-.011V1.253l.011.011v.011l.022.011v.022Z" transform="translate(10.227 4.171)" fill="#fef912"/>
      <path id="Tracciato_1117" data-name="Tracciato 1117" d="M2.277,1.221,2.3,1.21l.022.022L2.3,1.264H2.277V1.221" transform="translate(10.156 3.75)" fill="#6c4b0c"/>
      <rect id="Rettangolo_96" data-name="Rettangolo 96" width="0.037" height="0.042" transform="translate(12.634 4.969)" fill="#6c4b0c"/>
      <path id="Tracciato_1118" data-name="Tracciato 1118" d="M2.4,1.324,2.369,1.3l-.011-.022.022-.032L2.4,1.238V1.227H2.39l-.075.011-.032-.011v.022h.043l.022.011-.022.065-.032.022H2.283v.011l.032-.011.065-.022.022.011.054.011V1.335L2.4,1.324" transform="translate(10.209 3.919)" fill="#6c4b0c"/>
      <path id="Tracciato_1119" data-name="Tracciato 1119" d="M2.905,2.153V2.1l.054.011L3.013,2.1l.011-.043.011-.043.032-.022h.011L3.1,1.981V1.938l-.011-.032L3.1,1.884l.032-.011.022-.011-.022-.022L3.11,1.82l-.022-.065L3.067,1.7,3,1.637,2.991,1.6l-.032-.1-.032-.065.054-.054V1.335h-.1l-.1.086-.022-.086L2.647,1.26l-.108.075-.011.1-.118-.1h-.1v.054l.1.108.011.032-.032.022-.022.011H2.346v.086l-.011.032L2.3,1.69,2.27,1.7l-.065.1-.011.022.022.011.011.065-.022.032.011.011.022.043.022.043.054.011v.043l.022.032H2.41l.043.032L2.5,2.2l.075.011H2.6l.022.011.086.011h.043l.011-.011L2.8,2.207h.054l.043-.022.011-.032" transform="translate(9.353 4.24)" fill="#cba200"/>
      <path id="Tracciato_1120" data-name="Tracciato 1120" d="M2.208,1.3V1.268l.1.086.108.022h.28l.1-.1.043-.011L2.821,1.3l-.065.086v.022l-.032.011-.065.011-.032-.011H2.574a.247.247,0,0,0-.151.011l-.054.022H2.316L2.3,1.429l-.054-.075-.043-.043Z" transform="translate(9.48 4.318)" fill="#fef912"/>
      <path id="Tracciato_1121" data-name="Tracciato 1121" d="M2.272,1.35h0l-.043-.022.032-.022L2.3,1.286l.011-.022.011.022.022.022H2.39l.032.032a.1.1,0,0,1-.108-.022l-.043.032" transform="translate(9.685 4.279)" fill="#fef912"/>
      <path id="Tracciato_1122" data-name="Tracciato 1122" d="M2.456,1.36l.032-.022L2.5,1.328H2.37l-.011.011.022.011.032.011.011.032L2.4,1.414l-.14.011-.043-.043.032-.032L2.37,1.3l.118-.011.1.011.065.065v.032l-.011.022a.24.24,0,0,1-.118.011L2.456,1.4V1.36" transform="translate(9.587 4.484)" fill="#fef912"/>
      <path id="Tracciato_1123" data-name="Tracciato 1123" d="M2.475,1.483H2.443l-.022-.011H2.389v.011H2.378l.011.022h.043l.011.022-.011.043-.011.011v.011H2.389l-.022-.032-.011-.032-.1-.1-.011-.011-.022-.043-.011-.043V1.311L2.228,1.3h.022l.1.108v.011h.043l.022-.054.032-.032h.032l.043.043.011.022h.032l.022-.022.043-.043.022-.022H2.68l.011.032.011.032-.032.065-.043.022-.011.032L2.6,1.537l-.022.032-.022.011H2.508l-.022-.054L2.5,1.515l.043-.032-.022-.011Z" transform="translate(9.568 4.63)" fill="#fef912"/>
      <path id="Tracciato_1124" data-name="Tracciato 1124" d="M2.267,1.349l.011-.011.032-.011.032.022.043.011v.022l-.011.011-.022.032L2.3,1.435l-.032-.011-.011-.011-.022-.022.011-.032.022-.011" transform="translate(9.742 4.895)" fill="#fef912"/>
      <path id="Tracciato_1125" data-name="Tracciato 1125" d="M2.233,1.347l-.011-.011V1.325l.011-.011h.043l.011.011V1.4l-.054.043-.011.011H2.211L2.2,1.443l.011-.022L2.244,1.4Z" transform="translate(9.409 4.77)" fill="#fef912"/>
      <path id="Tracciato_1126" data-name="Tracciato 1126" d="M2.251,1.324l.011.011v.032l-.011.022.011.032-.011.043H2.219l-.011-.043V1.378l.011-.011.011-.022.011-.011Z" transform="translate(9.481 4.862)" fill="#fef912"/>
      <path id="Tracciato_1127" data-name="Tracciato 1127" d="M2.282,1.387V1.4l.011.032v.011l-.022.011-.043-.065H2.218V1.366l.022-.032h.032l.011.032Z" transform="translate(9.577 4.955)" fill="#fef912"/>
      <path id="Tracciato_1128" data-name="Tracciato 1128" d="M2.294,1.567l.011.032.032-.011.011-.075-.011-.032.022-.022.011.011.022.022H2.4l.022-.011V1.47L2.38,1.395V1.384l.011-.022.011.011.022.011h.011l.022-.011-.011-.011-.022-.022V1.33l-.032-.022-.054.011-.032.054-.022.022-.022.054.011.032v.043Z" transform="translate(10.008 4.714)" fill="#fef912"/>
      <path id="Tracciato_1129" data-name="Tracciato 1129" d="M2.36,1.375v.011H2.338l-.011.032v.054H2.306l-.011-.011L2.284,1.44l-.022-.022-.011-.032.011-.022h.011l.022-.022.043-.011.011.032Z" transform="translate(9.908 4.942)" fill="#fef912"/>
      <path id="Tracciato_1130" data-name="Tracciato 1130" d="M2.264,1.353l.011-.011H2.3l.011.022.011.011v.011L2.3,1.4l-.011.011H2.264l-.022-.022.011-.011Z" transform="translate(9.813 5.046)" fill="#fef912"/>
      <path id="Tracciato_1131" data-name="Tracciato 1131" d="M2.289,1.4h0l-.032.011L2.246,1.4l-.011-.022V1.365l.011-.011.011-.011.011.011v.011l.011.011Z" transform="translate(9.748 5.054)" fill="#fef912"/>
      <path id="Tracciato_1132" data-name="Tracciato 1132" d="M2.228,1.311,2.25,1.3l.022.011-.022.043H2.228V1.311" transform="translate(9.676 4.633)" fill="#6c4b0c"/>
      <path id="Tracciato_1133" data-name="Tracciato 1133" d="M2.247,1.311,2.258,1.3l.032.011-.032.043-.011-.011V1.311" transform="translate(9.859 4.633)" fill="#6c4b0c"/>
      <path id="Tracciato_1134" data-name="Tracciato 1134" d="M2.352,1.415l-.043-.022V1.361l.011-.022.032-.011V1.318H2.341l-.075.011V1.318H2.234l.011.011h.011l.011.011h.011l.011.011-.011.065-.043.022v.011l.043-.022.043-.011.032.011.043.011.011-.011V1.415H2.352" transform="translate(9.731 4.804)" fill="#6c4b0c"/>
      <path id="Tracciato_1135" data-name="Tracciato 1135" d="M1.8,1.5h9.482V7.6c-.011,2.013-2.142,4.154-4.682,4.187-2.6.022-4.8-2.174-4.8-4.187Z" transform="translate(5.458 6.573)" fill="#fff"/>
      <rect id="Rettangolo_97" data-name="Rettangolo 97" width="1.851" height="2.034" transform="translate(7.351 8.169)" fill="#e30613"/>
      <rect id="Rettangolo_98" data-name="Rettangolo 98" width="1.851" height="2.034" transform="translate(11.074 8.169)" fill="#e30613"/>
      <rect id="Rettangolo_99" data-name="Rettangolo 99" width="1.851" height="2.034" transform="translate(14.798 8.169)" fill="#e30613"/>
      <rect id="Rettangolo_100" data-name="Rettangolo 100" width="1.851" height="2.034" transform="translate(7.351 12.129)" fill="#e30613"/>
      <rect id="Rettangolo_101" data-name="Rettangolo 101" width="1.851" height="2.034" transform="translate(11.074 12.129)" fill="#e30613"/>
      <rect id="Rettangolo_102" data-name="Rettangolo 102" width="1.851" height="2.034" transform="translate(9.213 14.163)" fill="#e30613"/>
      <rect id="Rettangolo_103" data-name="Rettangolo 103" width="1.851" height="2.034" transform="translate(12.936 14.163)" fill="#e30613"/>
      <rect id="Rettangolo_104" data-name="Rettangolo 104" width="1.851" height="1.937" transform="translate(9.213 10.203)" fill="#e30613"/>
      <rect id="Rettangolo_105" data-name="Rettangolo 105" width="1.851" height="1.937" transform="translate(12.936 10.203)" fill="#e30613"/>
      <rect id="Rettangolo_106" data-name="Rettangolo 106" width="1.851" height="2.034" transform="translate(14.798 12.129)" fill="#e30613"/>
      <path id="Tracciato_1136" data-name="Tracciato 1136" d="M1.871,2.253H3.012V3.415A4.337,4.337,0,0,1,1.871,2.253" transform="translate(6.19 13.934)" fill="#e30613"/>
      <path id="Tracciato_1137" data-name="Tracciato 1137" d="M2.151,2.253H4V4.287a3.19,3.19,0,0,1-1.851,0Z" transform="translate(8.923 13.934)" fill="#e30613"/>
      <path id="Tracciato_1138" data-name="Tracciato 1138" d="M2.5,2.253H3.649A4.336,4.336,0,0,1,2.5,3.448Z" transform="translate(12.301 13.934)" fill="#e30613"/>
      <path id="Tracciato_1139" data-name="Tracciato 1139" d="M6.621,11.941a5.108,5.108,0,0,1-3.562-1.517,4.011,4.011,0,0,1-1.27-2.744V1.491h9.643V7.679a4.1,4.1,0,0,1-1.421,2.9,5.149,5.149,0,0,1-3.336,1.367ZM1.95,1.652V7.679a3.807,3.807,0,0,0,1.227,2.626A4.9,4.9,0,0,0,6.621,11.78h.032c2.594-.032,4.606-2.228,4.617-4.1V1.652Z" transform="translate(5.389 6.495)" fill="#fff"/>
      <path id="Tracciato_1140" data-name="Tracciato 1140" d="M6.641,11.993a5.123,5.123,0,0,1-3.584-1.528A4.038,4.038,0,0,1,1.787,7.7V1.489h9.7V7.7a4.142,4.142,0,0,1-1.431,2.917,5.138,5.138,0,0,1-3.358,1.378Zm-4.8-10.45V7.7A3.973,3.973,0,0,0,3.1,10.432a5.066,5.066,0,0,0,3.541,1.507h.032a5.132,5.132,0,0,0,3.347-1.367A4.108,4.108,0,0,0,11.43,7.7V1.543Zm4.8,10.289a4.95,4.95,0,0,1-3.465-1.474A3.877,3.877,0,0,1,1.948,7.7V1.65h9.363V7.7c0,1.883-2.023,4.1-4.617,4.133ZM2,1.7V7.7a3.815,3.815,0,0,0,1.216,2.615,4.886,4.886,0,0,0,3.422,1.464h.032c2.583-.032,4.585-2.217,4.6-4.079V1.7Z" transform="translate(5.37 6.475)" fill="#e30613"/>
    </g>
  </g>
</svg>
