<svg xmlns="http://www.w3.org/2000/svg" xmlns:xlink="http://www.w3.org/1999/xlink" width="24" height="23.989" viewBox="0 0 24 23.989">
  <defs>
    <clipPath id="clip-path">
      <path id="Tracciato_1277" data-name="Tracciato 1277" d="M1.112,12.744A12,12,0,1,0,13.107.749,12,12,0,0,0,1.112,12.744" transform="translate(-1.112 -0.749)" fill="none"/>
    </clipPath>
  </defs>
  <g id="Dominica" transform="translate(-1.112 -0.749)">
    <g id="Raggruppa_44" data-name="Raggruppa 44" transform="translate(1.112 0.749)" clip-path="url(#clip-path)">
      <rect id="Rettangolo_108" data-name="Rettangolo 108" width="47.925" height="23.957" transform="translate(-11.962 0.022)" fill="#006a35"/>
      <rect id="Rettangolo_109" data-name="Rettangolo 109" width="47.925" height="5.96" transform="translate(-11.962 9.015)" fill="#fff"/>
      <rect id="Rettangolo_110" data-name="Rettangolo 110" width="47.925" height="3.98" transform="translate(-11.962 9.015)" fill="#1d1d1b"/>
      <rect id="Rettangolo_111" data-name="Rettangolo 111" width="47.925" height="1.979" transform="translate(-11.962 9.015)" fill="#ffe600"/>
      <rect id="Rettangolo_112" data-name="Rettangolo 112" width="5.96" height="23.957" transform="translate(9.015 0.022)" fill="#fff"/>
      <rect id="Rettangolo_113" data-name="Rettangolo 113" width="3.98" height="23.957" transform="translate(9.015 0.022)" fill="#1d1d1b"/>
      <rect id="Rettangolo_114" data-name="Rettangolo 114" width="1.979" height="23.957" transform="translate(9.015 0.022)" fill="#ffe600"/>
      <path id="Tracciato_1144" data-name="Tracciato 1144" d="M13.615,7.278a5.97,5.97,0,1,1-5.97-5.97,5.971,5.971,0,0,1,5.97,5.97" transform="translate(4.372 4.705)" fill="#d31c2d"/>
      <path id="Tracciato_1145" data-name="Tracciato 1145" d="M2.9,1.373l.183.538h.57l-.463.344.172.538L2.9,2.46l-.463.333.172-.538-.452-.344h.57Z" transform="translate(9.091 5.345)" fill="#006a35"/>
      <path id="Tracciato_1146" data-name="Tracciato 1146" d="M2.455,2.865l.183-.57L2.154,1.94h.6l.183-.57.183.57h.6L3.241,2.3l.183.57L2.939,2.51Zm.484-.387.441.312-.172-.506.011-.011.43-.312H3.111l-.172-.516-.161.516H2.229l.441.323L2.5,2.79Z" transform="translate(9.055 5.31)" fill="#1d1d1b"/>
      <path id="Tracciato_1147" data-name="Tracciato 1147" d="M2.2,1.468l.463.333.463-.333-.172.549.452.333h-.57L2.665,2.9,2.482,2.35h-.57l.463-.333Z" transform="translate(6.697 6.268)" fill="#006a35"/>
      <path id="Tracciato_1148" data-name="Tracciato 1148" d="M2.694,2.971,2.511,2.39h-.6l.484-.355-.183-.57.484.355.484-.355L3,2.035l.484.355h-.6Zm-.71-.6h.538l.172.516.161-.516H3.4l-.441-.323.172-.506-.441.312L2.253,1.54l.172.506Z" transform="translate(6.665 6.237)" fill="#1d1d1b"/>
      <path id="Tracciato_1149" data-name="Tracciato 1149" d="M1.755,2.22h.57l.183-.549.172.549h.57l-.463.333.183.549-.463-.333L2.035,3.1l.183-.549Z" transform="translate(5.164 8.253)" fill="#006a35"/>
      <path id="Tracciato_1150" data-name="Tracciato 1150" d="M3.021,3.174l-.484-.355-.484.355.183-.581-.484-.344h.6l.183-.581.183.581h.6l-.484.344Zm-.484-.387.441.323-.172-.516.441-.323H2.709l-.172-.516-.161.516H1.827l.441.323L2.1,3.11Z" transform="translate(5.133 8.218)" fill="#1d1d1b"/>
      <path id="Tracciato_1151" data-name="Tracciato 1151" d="M1.761,2.817l.463-.333-.172-.549.463.344.463-.344-.183.549.463.333h-.57l-.172.538-.183-.538Z" transform="translate(5.221 10.819)" fill="#006a35"/>
      <path id="Tracciato_1152" data-name="Tracciato 1152" d="M2.543,3.437,2.36,2.856h-.6L2.242,2.5l-.183-.57.484.355.484-.355-.183.57.484.355h-.6Zm-.71-.6h.538l.172.516L2.7,2.835h.549l-.441-.323L2.984,2l-.441.323L2.1,2l.172.516Z" transform="translate(5.191 10.784)" fill="#1d1d1b"/>
      <path id="Tracciato_1153" data-name="Tracciato 1153" d="M2.2,3.549l.172-.538-.463-.344h.57l.183-.538.172.538h.57l-.452.344.172.538-.463-.333Z" transform="translate(6.697 12.719)" fill="#006a35"/>
      <path id="Tracciato_1154" data-name="Tracciato 1154" d="M3.178,3.621l-.484-.355-.484.355.183-.57L1.909,2.7h.6l.183-.57.183.57h.6L3,3.051Zm-.484-.387.441.312L2.963,3.04,3.4,2.718H2.866L2.694,2.2l-.172.516H1.984l.441.323-.172.506Z" transform="translate(6.665 12.687)" fill="#1d1d1b"/>
      <path id="Tracciato_1155" data-name="Tracciato 1155" d="M2.913,3.641l-.172-.549H2.16l.463-.333L2.45,2.221l.463.333.463-.333L3.2,2.759l.463.333H3.085Z" transform="translate(9.11 13.614)" fill="#006a35"/>
      <path id="Tracciato_1156" data-name="Tracciato 1156" d="M2.942,3.712l-.183-.57h-.6l.484-.355-.183-.57.484.355.484-.355-.183.57.484.355h-.6Zm-.71-.592H2.77l.172.516L3.1,3.121h.549L3.211,2.8l.172-.506L2.942,2.6,2.5,2.292l.172.506Z" transform="translate(9.085 13.575)" fill="#1d1d1b"/>
      <path id="Tracciato_1157" data-name="Tracciato 1157" d="M3.621,3.546l-.463-.333L2.7,3.546l.172-.538-.463-.344h.581l.172-.538.172.538h.581l-.463.344Z" transform="translate(11.506 12.689)" fill="#006a35"/>
      <path id="Tracciato_1158" data-name="Tracciato 1158" d="M3.671,3.628l-.484-.355L2.7,3.628l.183-.581L2.4,2.692H3l.183-.57.183.57h.6l-.484.355Zm-1.194-.9.441.323-.172.506.441-.312.441.312-.172-.506.011-.011.43-.312H3.349l-.161-.516-.172.516Z" transform="translate(11.475 12.648)" fill="#1d1d1b"/>
      <path id="Tracciato_1159" data-name="Tracciato 1159" d="M4.049,2.806h-.57l-.172.549-.183-.549h-.57l.463-.333-.172-.549.463.333.452-.333-.172.549Z" transform="translate(12.958 10.712)" fill="#006a35"/>
      <path id="Tracciato_1160" data-name="Tracciato 1160" d="M3.346,3.416l-.194-.57h-.6l.495-.355-.183-.57.484.344.484-.344-.183.57.484.355h-.6Zm-.71-.6h.538l.172.516.161-.516h.549l-.441-.323.161-.506-.43.312L2.9,1.986l.172.506L3.066,2.5Z" transform="translate(12.919 10.687)" fill="#1d1d1b"/>
      <path id="Tracciato_1161" data-name="Tracciato 1161" d="M4.047,2.21l-.463.333.172.549-.463-.344-.463.344.183-.549L2.552,2.21h.57l.172-.549.183.549Z" transform="translate(12.94 8.152)" fill="#006a35"/>
      <path id="Tracciato_1162" data-name="Tracciato 1162" d="M3.818,3.153,3.334,2.8l-.484.355.183-.57-.484-.355h.6l.183-.57.183.57h.6l-.484.355Zm-1.194-.9.441.323-.172.516.441-.323.441.323L3.6,2.572l.011-.011.43-.312H3.506l-.172-.516-.172.516Z" transform="translate(12.91 8.121)" fill="#1d1d1b"/>
      <path id="Tracciato_1163" data-name="Tracciato 1163" d="M3.615,1.466l-.183.549.473.333H3.324l-.172.538-.183-.538H2.4l.463-.333L2.69,1.466l.463.333Z" transform="translate(11.448 6.245)" fill="#006a35"/>
      <path id="Tracciato_1164" data-name="Tracciato 1164" d="M3.191,2.968,3.008,2.4H2.4l.495-.366-.183-.57.484.355.484-.355-.183.57.484.366h-.6Zm-.71-.6h.538l.172.516.161-.516H3.9L3.46,2.054l.172-.516-.441.312L2.75,1.537l.172.516H2.911Z" transform="translate(11.407 6.208)" fill="#1d1d1b"/>
      <path id="Tracciato_1165" data-name="Tracciato 1165" d="M2.841,3.087c0,.624-.118,1.119-.258,1.119s-.258-.495-.258-1.119.118-1.119.258-1.119.258.506.258,1.119" transform="translate(10.724 11.145)" fill="#006a35"/>
      <path id="Tracciato_1166" data-name="Tracciato 1166" d="M2.593,4.237c-.172,0-.269-.581-.269-1.14s.1-1.13.269-1.13.269.581.269,1.13-.108,1.14-.269,1.14M2.593,2c-.118,0-.237.441-.237,1.1S2.475,4.2,2.593,4.2,2.84,3.764,2.84,3.1,2.711,2,2.593,2" transform="translate(10.714 11.136)" fill="#1d1d1b"/>
      <path id="Tracciato_1167" data-name="Tracciato 1167" d="M2.8,3.087c0,.624-.108,1.119-.247,1.119S2.29,3.711,2.29,3.087s.108-1.119.258-1.119.247.506.247,1.119" transform="translate(10.382 11.145)" fill="#006a35"/>
      <path id="Tracciato_1168" data-name="Tracciato 1168" d="M2.558,4.237c-.172,0-.269-.581-.269-1.14s.1-1.13.269-1.13.269.581.269,1.13-.1,1.14-.269,1.14M2.558,2c-.118,0-.247.441-.247,1.1S2.44,4.2,2.558,4.2s.237-.441.237-1.108S2.676,2,2.558,2" transform="translate(10.373 11.136)" fill="#1d1d1b"/>
      <path id="Tracciato_1169" data-name="Tracciato 1169" d="M2.813,3.11c0,.613-.118,1.119-.258,1.119s-.247-.506-.247-1.119.108-1.119.247-1.119.258.506.258,1.119" transform="translate(10.548 11.37)" fill="#006a35"/>
      <path id="Tracciato_1170" data-name="Tracciato 1170" d="M2.575,4.249c-.172,0-.269-.581-.269-1.13s.1-1.13.269-1.13.269.57.269,1.13-.1,1.13-.269,1.13m0-2.238c-.118,0-.237.441-.237,1.108s.118,1.1.237,1.1.237-.441.237-1.1-.118-1.108-.237-1.108" transform="translate(10.538 11.36)" fill="#1d1d1b"/>
      <path id="Tracciato_1171" data-name="Tracciato 1171" d="M2.532,2.389c.032.226-.011.409-.108.43s-.183-.161-.2-.387.011-.409.1-.42.183.161.215.377" transform="translate(9.592 11.574)" fill="#006a35"/>
      <path id="Tracciato_1172" data-name="Tracciato 1172" d="M2.439,2.841c-.1,0-.194-.172-.226-.4s.022-.42.118-.43.194.151.226.387a.7.7,0,0,1-.011.3C2.525,2.787,2.493,2.83,2.439,2.841Zm-.1-.807H2.331c-.075.011-.118.194-.086.409s.118.387.194.366c.043,0,.065-.043.086-.118a.843.843,0,0,0,.011-.29c-.032-.2-.118-.366-.194-.366" transform="translate(9.577 11.563)" fill="#1d1d1b"/>
      <path id="Tracciato_1173" data-name="Tracciato 1173" d="M2.559,2.391c.032.226-.011.409-.1.42s-.183-.151-.215-.377.011-.409.1-.42.183.161.215.377" transform="translate(9.855 11.594)" fill="#006a35"/>
      <path id="Tracciato_1174" data-name="Tracciato 1174" d="M2.469,2.85c-.1,0-.194-.172-.226-.4s.022-.42.118-.43l.011-.011c.1,0,.183.172.215.4a.871.871,0,0,1,0,.29C2.566,2.786,2.523,2.839,2.469,2.85Zm-.1-.807H2.362c-.075.011-.118.194-.086.409s.108.366.194.366c.043,0,.075-.043.086-.118a.843.843,0,0,0,.011-.29c-.032-.2-.118-.366-.194-.366" transform="translate(9.837 11.565)" fill="#1d1d1b"/>
      <path id="Tracciato_1175" data-name="Tracciato 1175" d="M2.51,2.359c.032.226-.022.409-.108.42s-.183-.161-.2-.377.011-.409.1-.42.183.151.215.377" transform="translate(9.377 11.271)" fill="#006a35"/>
      <path id="Tracciato_1176" data-name="Tracciato 1176" d="M2.417,2.81c-.1,0-.194-.172-.226-.4s.022-.42.118-.43.194.161.226.387a.921.921,0,0,1-.011.3c-.022.075-.054.129-.1.14ZM2.32,2H2.309c-.075.011-.118.194-.086.409s.118.387.194.366c.043,0,.065-.043.086-.118a.793.793,0,0,0,.011-.28C2.481,2.164,2.4,2,2.32,2" transform="translate(9.363 11.261)" fill="#1d1d1b"/>
      <path id="Tracciato_1177" data-name="Tracciato 1177" d="M2.537,2.36c.032.226-.011.42-.108.43s-.183-.151-.2-.387c-.032-.215.011-.409.1-.42s.183.161.215.377" transform="translate(9.641 11.28)" fill="#006a35"/>
      <path id="Tracciato_1178" data-name="Tracciato 1178" d="M2.444,2.82c-.1,0-.194-.172-.226-.4s.022-.42.118-.441.194.161.226.4-.011.43-.108.441Zm-.1-.807h0c-.086.011-.129.194-.1.409s.118.387.194.366.118-.194.1-.409c-.032-.194-.118-.366-.194-.366" transform="translate(9.626 11.262)" fill="#1d1d1b"/>
      <path id="Tracciato_1179" data-name="Tracciato 1179" d="M2.554,2.341c.032.226-.011.409-.108.42s-.183-.151-.2-.377.011-.409.1-.42.183.161.215.377" transform="translate(9.807 11.106)" fill="#006a35"/>
      <path id="Tracciato_1180" data-name="Tracciato 1180" d="M2.464,2.8c-.1,0-.194-.172-.226-.4s.022-.42.118-.441.194.161.226.4S2.561,2.78,2.464,2.8Zm-.1-.807H2.357c-.075.011-.118.194-.086.409s.118.377.194.366.118-.194.1-.409-.118-.366-.194-.366" transform="translate(9.788 11.086)" fill="#1d1d1b"/>
      <path id="Tracciato_1181" data-name="Tracciato 1181" d="M2.576,2.352c.032.226-.011.409-.1.42S2.3,2.621,2.264,2.4s.011-.409.1-.42.183.151.215.377" transform="translate(10.021 11.213)" fill="#006a35"/>
      <path id="Tracciato_1182" data-name="Tracciato 1182" d="M2.469,2.8c-.086,0-.183-.172-.2-.387a.941.941,0,0,1,0-.3c.022-.086.065-.14.108-.14.1-.022.194.161.226.387a.94.94,0,0,1,0,.3c-.022.086-.065.129-.108.14ZM2.383,2H2.372c-.032.011-.065.054-.075.129a.781.781,0,0,0-.011.28c.022.2.108.366.183.366h.011c.043,0,.075-.043.086-.118a.794.794,0,0,0,.011-.28C2.544,2.168,2.458,2,2.383,2" transform="translate(10.01 11.193)" fill="#1d1d1b"/>
      <path id="Tracciato_1183" data-name="Tracciato 1183" d="M2.526,2.326c.032.226-.022.409-.108.42s-.183-.151-.2-.377.011-.409.1-.42.183.151.215.377" transform="translate(9.533 10.949)" fill="#006a35"/>
      <path id="Tracciato_1184" data-name="Tracciato 1184" d="M2.424,2.777c-.086,0-.183-.172-.215-.4a.843.843,0,0,1,.011-.29c.022-.086.065-.14.108-.14.1-.022.194.151.226.387a.921.921,0,0,1-.011.3c-.022.086-.054.129-.1.14ZM2.338,1.97H2.327c-.032,0-.065.054-.075.129a.6.6,0,0,0-.011.28c.022.215.118.377.194.377.032-.011.065-.054.086-.129a.793.793,0,0,0,.011-.28c-.032-.2-.118-.377-.194-.377" transform="translate(9.517 10.939)" fill="#1d1d1b"/>
      <path id="Tracciato_1185" data-name="Tracciato 1185" d="M2.541,2.314c.032.215-.022.409-.118.43s-.2-.161-.237-.387.032-.409.129-.42.194.151.226.377" transform="translate(9.324 10.842)" fill="#006a35"/>
      <path id="Tracciato_1186" data-name="Tracciato 1186" d="M2.416,2.766c-.1,0-.194-.172-.226-.4s.022-.42.129-.43.215.151.247.387a.82.82,0,0,1-.022.29c-.022.1-.065.14-.118.151ZM2.33,1.959H2.32c-.086.011-.14.2-.108.409s.129.387.215.366c.043,0,.075-.043.1-.118a.65.65,0,0,0,.011-.29c-.022-.194-.118-.366-.2-.366" transform="translate(9.32 10.832)" fill="#1d1d1b"/>
      <path id="Tracciato_1187" data-name="Tracciato 1187" d="M2.621,1.774a.924.924,0,0,0-.42.732A3.115,3.115,0,0,0,2.223,3.98a2.865,2.865,0,0,0,.527.979,1.318,1.318,0,0,0,.9.559c.323.011.527-.237.656-.549.2-.538-.29-.775-.71-2.205-.151-.527-.215-.925-.527-1.043a.409.409,0,0,0-.452.054" transform="translate(8.75 8.295)" fill="#9457c7"/>
      <path id="Tracciato_1188" data-name="Tracciato 1188" d="M3.689,5.547H3.667a1.319,1.319,0,0,1-.914-.559A2.992,2.992,0,0,1,2.226,4,2.983,2.983,0,0,1,2.2,2.524a.949.949,0,0,1,.409-.732l.011-.011a.484.484,0,0,1,.28-.108l.194.043c.269.118.355.409.463.828l.065.237a6.632,6.632,0,0,0,.538,1.323c.183.377.29.581.172.882-.151.377-.366.559-.645.559M2.9,1.706a.455.455,0,0,0-.258.1l-.011.011c-.108.065-.312.2-.4.71a2.931,2.931,0,0,0,.011,1.463,2.8,2.8,0,0,0,.527.979,1.3,1.3,0,0,0,.893.559h.022c.269,0,.473-.183.624-.549.108-.29.011-.495-.172-.861A6.632,6.632,0,0,1,3.6,2.793l-.065-.237c-.118-.409-.194-.71-.452-.807A.444.444,0,0,0,2.9,1.706" transform="translate(8.736 8.277)" fill="#1d1d1b"/>
      <path id="Tracciato_1189" data-name="Tracciato 1189" d="M2.578,2.428c-.032.226-.129.387-.215.377s-.129-.194-.1-.42.118-.387.215-.377.129.2.1.42" transform="translate(10.041 11.535)" fill="#006a35"/>
      <path id="Tracciato_1190" data-name="Tracciato 1190" d="M2.384,2.836H2.373c-.043-.011-.086-.054-.108-.14a.941.941,0,0,1,0-.3c.032-.226.129-.4.226-.387.043,0,.086.054.108.14a.707.707,0,0,1,0,.3c-.022.215-.118.387-.215.387m.1-.807c-.075,0-.161.172-.194.377a.794.794,0,0,0,.011.28c.011.075.043.118.086.129.075.011.161-.161.194-.377a1.207,1.207,0,0,0,0-.28c-.022-.075-.054-.118-.086-.129Z" transform="translate(10.02 11.526)" fill="#1d1d1b"/>
      <path id="Tracciato_1191" data-name="Tracciato 1191" d="M2.6,2.447c-.032.226-.129.387-.215.377s-.129-.194-.1-.42.118-.4.215-.387.129.2.1.43" transform="translate(10.285 11.613)" fill="#006a35"/>
      <path id="Tracciato_1192" data-name="Tracciato 1192" d="M2.4,2.845H2.394c-.043-.011-.075-.054-.1-.14a.921.921,0,0,1-.011-.3c.032-.226.129-.4.226-.387.054.011.086.054.108.14a.868.868,0,0,1,.011.29c-.032.226-.129.4-.226.4m.1-.807c-.075,0-.161.172-.194.366a.843.843,0,0,0,.011.29c.011.075.043.118.086.129.075.011.172-.161.194-.377a.808.808,0,0,0,0-.28c-.022-.075-.054-.118-.086-.129Z" transform="translate(10.278 11.613)" fill="#1d1d1b"/>
      <path id="Tracciato_1193" data-name="Tracciato 1193" d="M2.565,2.394c-.032.215-.129.387-.215.377s-.129-.2-.1-.42.118-.4.215-.377.129.194.1.42" transform="translate(9.914 11.193)" fill="#006a35"/>
      <path id="Tracciato_1194" data-name="Tracciato 1194" d="M2.37,2.8H2.359c-.1-.022-.14-.2-.108-.441s.129-.409.226-.387c.043,0,.086.054.108.14A.856.856,0,0,1,2.6,2.4c-.043.226-.129.4-.226.4m.1-.807c-.075,0-.161.161-.194.366s.011.4.1.409.161-.151.194-.366a.856.856,0,0,0-.011-.29c-.011-.065-.043-.118-.075-.118Z" transform="translate(9.904 11.173)" fill="#1d1d1b"/>
      <path id="Tracciato_1195" data-name="Tracciato 1195" d="M2.59,2.411c-.032.215-.129.387-.215.377s-.129-.194-.1-.42.118-.4.215-.387.129.2.1.43" transform="translate(10.158 11.262)" fill="#006a35"/>
      <path id="Tracciato_1196" data-name="Tracciato 1196" d="M2.395,2.81H2.384c-.1-.011-.14-.2-.108-.441s.129-.409.226-.387.14.2.118.43-.129.4-.226.4M2.492,2c-.075,0-.161.172-.194.377s.011.387.1.4.172-.151.194-.366S2.578,2.014,2.5,2Z" transform="translate(10.148 11.261)" fill="#1d1d1b"/>
      <path id="Tracciato_1197" data-name="Tracciato 1197" d="M2.617,2.388c-.032.226-.129.4-.215.387s-.129-.2-.108-.43.129-.387.215-.377.14.194.108.42" transform="translate(10.368 11.145)" fill="#006a35"/>
      <path id="Tracciato_1198" data-name="Tracciato 1198" d="M2.415,2.805H2.4c-.086-.022-.14-.2-.108-.441s.118-.4.215-.4h.011c.1.022.14.215.108.441s-.118.4-.215.4M2.512,2c-.075,0-.161.161-.194.366s.011.4.1.409.172-.151.194-.366S2.6,2.009,2.522,2Z" transform="translate(10.354 11.126)" fill="#1d1d1b"/>
      <path id="Tracciato_1199" data-name="Tracciato 1199" d="M2.63,2.4c-.032.226-.129.387-.215.377s-.129-.194-.1-.42.118-.387.215-.377.129.2.1.42" transform="translate(10.548 11.301)" fill="#006a35"/>
      <path id="Tracciato_1200" data-name="Tracciato 1200" d="M2.436,2.813H2.425c-.043-.011-.086-.054-.108-.14a.94.94,0,0,1,0-.3c.032-.226.129-.409.226-.387.054,0,.086.054.108.14a.907.907,0,0,1,.011.3c-.032.215-.129.387-.226.387m.1-.807c-.075,0-.161.172-.194.377a.793.793,0,0,0,.011.28c.011.075.043.118.086.118.075.011.172-.151.194-.366a.808.808,0,0,0,0-.28c-.022-.075-.054-.118-.086-.129Z" transform="translate(10.527 11.29)" fill="#1d1d1b"/>
      <path id="Tracciato_1201" data-name="Tracciato 1201" d="M2.589,2.365c-.032.226-.129.387-.215.377s-.129-.194-.1-.42.118-.387.215-.377c.075.011.129.194.1.42" transform="translate(10.148 10.921)" fill="#006a35"/>
      <path id="Tracciato_1202" data-name="Tracciato 1202" d="M2.4,2.774H2.385a.19.19,0,0,1-.108-.14.94.94,0,0,1,0-.3c.032-.226.129-.409.226-.387.043,0,.086.054.108.14a.907.907,0,0,1,.011.3c-.032.215-.129.387-.226.387m.1-.807c-.075,0-.161.161-.194.377a.793.793,0,0,0,.011.28c.011.075.043.118.086.118.075.022.161-.151.194-.366a.6.6,0,0,0-.011-.28c-.011-.075-.043-.129-.075-.129Z" transform="translate(10.137 10.91)" fill="#1d1d1b"/>
      <path id="Tracciato_1203" data-name="Tracciato 1203" d="M2.6,2.361c-.032.215-.129.387-.226.377s-.151-.2-.118-.43.129-.387.226-.377.151.2.118.43" transform="translate(9.915 10.774)" fill="#006a35"/>
      <path id="Tracciato_1204" data-name="Tracciato 1204" d="M2.392,2.769H2.382a.218.218,0,0,1-.118-.151.7.7,0,0,1-.011-.3c.032-.226.129-.4.237-.387.054,0,.1.054.118.14a.706.706,0,0,1,.011.3c-.022.215-.129.4-.226.4m.086-.818c-.086,0-.172.172-.2.366a.921.921,0,0,0,.011.3c.022.075.054.108.1.108.086.022.183-.14.215-.355a.933.933,0,0,0-.011-.3c-.022-.054-.054-.118-.1-.118Z" transform="translate(9.903 10.764)" fill="#1d1d1b"/>
      <path id="Tracciato_1205" data-name="Tracciato 1205" d="M3.617,4.646c-.3.14-.807-.409-1.13-1.216s-.355-1.538-.054-1.667.807.43,1.14,1.226.344,1.549.043,1.657" transform="translate(9.712 8.984)" fill="#d3122f"/>
      <path id="Tracciato_1206" data-name="Tracciato 1206" d="M3.533,4.7c-.312,0-.764-.527-1.054-1.248a3.225,3.225,0,0,1-.258-1.1c-.011-.312.065-.527.215-.592l.1-.022c.312,0,.764.527,1.054,1.259a2.988,2.988,0,0,1,.258,1.087c.011.323-.065.538-.215.592l-.1.022m-1-2.926-.086.011c-.14.065-.215.269-.2.57A3.227,3.227,0,0,0,2.5,3.444c.29.7.732,1.237,1.033,1.237l.086-.022c.14-.054.215-.258.2-.57a3.116,3.116,0,0,0-.258-1.076c-.29-.71-.732-1.237-1.033-1.237" transform="translate(9.698 8.96)" fill="#1d1d1b"/>
      <path id="Tracciato_1207" data-name="Tracciato 1207" d="M3.889,5.061c-.312.14-.9-.495-1.312-1.409s-.484-1.786-.161-1.926.9.495,1.312,1.409.484,1.786.161,1.926" transform="translate(9.644 8.601)" fill="#006a35"/>
      <path id="Tracciato_1208" data-name="Tracciato 1208" d="M3.8,5.106c-.344,0-.861-.613-1.226-1.442-.42-.925-.484-1.8-.161-1.936l.1-.022c.344,0,.861.6,1.226,1.442A4.234,4.234,0,0,1,4.1,4.407c.032.366-.032.6-.194.678l-.1.022M2.514,1.729l-.086.022c-.312.129-.237.99.172,1.9.355.807.871,1.42,1.2,1.42l.086-.011c.151-.065.215-.3.183-.656a4.175,4.175,0,0,0-.355-1.248c-.355-.818-.882-1.431-1.2-1.431" transform="translate(9.631 8.599)" fill="#1d1d1b"/>
      <path id="Tracciato_1209" data-name="Tracciato 1209" d="M2.343,2.112c0-.022.086-.032.054-.237l.065.065a.442.442,0,0,1,.1.28l-.011.022L2.5,2.273a.177.177,0,0,1-.129-.086l-.032-.075" transform="translate(10.899 10.238)" fill="#006a35"/>
      <path id="Tracciato_1210" data-name="Tracciato 1210" d="M2.514,2.294c-.054,0-.1-.032-.14-.1l-.032-.065.011-.043c.022-.022.065-.054.043-.2l.011-.011h.011l.065.065a.472.472,0,0,1,.1.29v.032Zm-.086-.377a.211.211,0,0,1-.054.194l-.011.011.032.065c.022.032.065.086.118.086l.043-.022V2.229a.413.413,0,0,0-.1-.269l-.032-.043" transform="translate(10.89 10.228)" fill="#1d1d1b"/>
      <path id="Tracciato_1211" data-name="Tracciato 1211" d="M2.673,2.94A.3.3,0,0,1,2.544,2.9l-.108-.118V2.768h.022l.1.108.151.032c.054-.043.032-.151.032-.215L2.727,2.66a1.333,1.333,0,0,0-.065-.312,1.384,1.384,0,0,0-.355-.538V1.789h.022a1.422,1.422,0,0,1,.355.549,2.381,2.381,0,0,1,.075.323v.032c.011.075.022.194-.043.237l-.043.011" transform="translate(10.548 9.399)" fill="#1d1d1b"/>
      <path id="Tracciato_1212" data-name="Tracciato 1212" d="M2.645,2.677l-.1-.032a.476.476,0,0,1-.129-.161L2.386,2.43a1.056,1.056,0,0,1-.129-.323.95.95,0,0,1-.022-.3L2.257,1.8l.011.022a.825.825,0,0,0,.011.28,1.056,1.056,0,0,0,.129.323l.032.054.118.151.108.022c.043-.032.032-.108.022-.161V2.462l-.054-.237L2.623,2.2l-.011-.022.011-.022.011.011.011.011.011.032.054.247v.022c.011.054.022.151-.022.183l-.043.011" transform="translate(9.813 9.457)" fill="#1d1d1b"/>
      <path id="Tracciato_1213" data-name="Tracciato 1213" d="M2.445,2.3l-.1-.032-.075-.086V2.155h.022l.065.086.108.022c.043-.022.032-.108.022-.161L2.477,2.08a.839.839,0,0,0-.043-.237l-.011-.011V1.822l.032.011v.011l.054.237v.011c.011.065.022.161-.032.194L2.445,2.3" transform="translate(10.216 9.721)" fill="#1d1d1b"/>
      <path id="Tracciato_1214" data-name="Tracciato 1214" d="M2.486,2.221l-.108-.043L2.292,2.1V2.081h.022l.075.086.129.022c.043-.032.022-.118.022-.161l-.065-.194V1.812l.022.011.065.194c.011.054.022.151-.032.194l-.043.011" transform="translate(10.402 9.623)" fill="#1d1d1b"/>
      <path id="Tracciato_1215" data-name="Tracciato 1215" d="M2.752,2.81l-.118-.043a.551.551,0,0,1-.151-.194L2.44,2.509a1.347,1.347,0,0,1-.172-.4l-.022-.247.011-.011.022.011A.844.844,0,0,0,2.3,2.1a1.287,1.287,0,0,0,.161.4l.043.065a.464.464,0,0,0,.14.183l.14.032c.043-.032.032-.14.022-.2V2.552l-.065-.29a1.281,1.281,0,0,0-.2-.377V1.875l.022-.011a1.491,1.491,0,0,1,.2.387,1.138,1.138,0,0,1,.065.3v.011c.011.086.032.194-.032.237l-.043.011" transform="translate(9.953 10.023)" fill="#1d1d1b"/>
      <path id="Tracciato_1216" data-name="Tracciato 1216" d="M2.521,2.6,2.4,2.558l-.1-.1L2.3,2.44h.022l.1.1c.043.032.108.054.14.032s.032-.14.022-.2V2.343l-.065-.29-.086-.194.011-.011h.011l.086.194a1.241,1.241,0,0,1,.065.3v.022c.011.075.032.183-.032.226L2.521,2.6" transform="translate(10.431 9.975)" fill="#1d1d1b"/>
      <path id="Tracciato_1217" data-name="Tracciato 1217" d="M2.555,2.276H2.544c-.108-.022-.183-.14-.215-.183a.876.876,0,0,1-.1-.269l.011-.011.011.011a1.079,1.079,0,0,0,.1.247c.032.054.108.161.194.172.011.011.043.011.065-.043a.334.334,0,0,0,0-.226L2.544,1.8V1.792h.022l.065.183a.372.372,0,0,1,0,.237c-.022.054-.054.065-.075.065" transform="translate(9.816 9.428)" fill="#1d1d1b"/>
      <path id="Tracciato_1218" data-name="Tracciato 1218" d="M2.471,2.069l-.032-.011a.263.263,0,0,1-.172-.14L2.278,1.9l.011.011a.261.261,0,0,0,.151.129H2.5a.2.2,0,0,0,.011-.215L2.525,1.8h.022c.032.118.022.226-.032.258Z" transform="translate(10.158 9.506)" fill="#1d1d1b"/>
      <path id="Tracciato_1219" data-name="Tracciato 1219" d="M2.641,2.469l-.1-.043a1.9,1.9,0,0,1-.258-.29l-.011-.011L2.3,2.114a1.865,1.865,0,0,0,.269.29l.075.043c.032-.022.011-.161-.065-.355A2.458,2.458,0,0,0,2.4,1.759l-.011-.011h.032a2.458,2.458,0,0,1,.172.333c.011.022.14.344.065.387Z" transform="translate(10.236 8.999)" fill="#1d1d1b"/>
      <path id="Tracciato_1220" data-name="Tracciato 1220" d="M2.543,2.19,2.51,2.179a.584.584,0,0,1-.29-.4V1.77h.022a.615.615,0,0,0,.269.387h.032c.022-.011.043-.086-.032-.258V1.888h.022c.086.183.065.28.032.29Z" transform="translate(9.699 9.213)" fill="#1d1d1b"/>
      <path id="Tracciato_1221" data-name="Tracciato 1221" d="M2.593,2.154c-.032,0-.118-.065-.355-.377l-.011-.011.032-.011c.28.377.333.377.333.377a.318.318,0,0,0-.043-.215V1.907h.022c.054.108.075.226.032.237Z" transform="translate(9.768 9.077)" fill="#1d1d1b"/>
      <path id="Tracciato_1222" data-name="Tracciato 1222" d="M2.6,2.312,2.565,2.3c-.054-.011-.172-.1-.323-.42V1.871h.022c.161.333.269.4.312.409h.032L2.586,2.1a1.3,1.3,0,0,0-.161-.355l.011-.011h.011a1.227,1.227,0,0,1,.161.366c.032.118.043.194.011.2Z" transform="translate(9.914 8.833)" fill="#1d1d1b"/>
      <path id="Tracciato_1223" data-name="Tracciato 1223" d="M3.007,3.214c-.043.011-.065-.183-.269-.484a2.793,2.793,0,0,0-.387-.484,1.137,1.137,0,0,0-.032-.366s.161.226.29.129l.129.161a1.712,1.712,0,0,1,.161.29,1.291,1.291,0,0,1,.108.753" transform="translate(10.665 10.287)" fill="#006a35"/>
      <path id="Tracciato_1224" data-name="Tracciato 1224" d="M3.007,3.245l-.065-.108a2.336,2.336,0,0,0-.2-.387,2.793,2.793,0,0,0-.387-.484V2.256A1.574,1.574,0,0,0,2.319,1.9V1.879l.022.011s.108.14.2.14l.065-.022H2.62l.129.161a1.216,1.216,0,0,1,.161.3,1.538,1.538,0,0,1,.129.753l-.022.011Zm-.635-.99a2.434,2.434,0,0,1,.387.484,2.63,2.63,0,0,1,.215.387l.032.086a1.385,1.385,0,0,0-.118-.732,1.216,1.216,0,0,0-.161-.3l-.118-.14-.065.022c-.075,0-.151-.075-.194-.118a1.326,1.326,0,0,1,.022.312" transform="translate(10.665 10.277)" fill="#1d1d1b"/>
      <path id="Tracciato_1225" data-name="Tracciato 1225" d="M3.148,3.575c-.032.011-.054-.183-.226-.506a3.282,3.282,0,0,0-.366-.506l-.2-.237c-.086-.108-.022-.344-.022-.344s.14.075.151-.075l.054.065.237.3.183.237a1.783,1.783,0,0,1,.129.312,1.207,1.207,0,0,1,.065.753" transform="translate(10.547 10.56)" fill="#006a35"/>
      <path id="Tracciato_1226" data-name="Tracciato 1226" d="M3.162,3.607,3.1,3.5a2.885,2.885,0,0,0-.172-.409,3.283,3.283,0,0,0-.366-.506l-.032-.032-.172-.2C2.258,2.23,2.333,2,2.333,2V1.982h.022L2.419,2c.043,0,.065-.022.065-.086V1.907h.022l.043.075.14.161.108.14a1.528,1.528,0,0,1,.172.237.955.955,0,0,1,.14.312,1.441,1.441,0,0,1,.075.753ZM2.355,2.015c-.011.054-.054.226.022.312a1.21,1.21,0,0,0,.172.2l.022.032a3.278,3.278,0,0,1,.377.516,3.326,3.326,0,0,1,.183.409l.022.086a1.264,1.264,0,0,0-.065-.742,1.633,1.633,0,0,0-.14-.3,2.319,2.319,0,0,0-.172-.237l-.108-.129-.129-.172-.022-.022a.1.1,0,0,1-.1.054l-.065-.011" transform="translate(10.533 10.55)" fill="#1d1d1b"/>
      <path id="Tracciato_1227" data-name="Tracciato 1227" d="M3.344,4.034c-.032.011-.054-.183-.226-.506a3.857,3.857,0,0,0-.355-.506,1.219,1.219,0,0,1-.215-.237.861.861,0,0,1-.172-.247A.679.679,0,0,1,2.29,2.3c.183.011.075-.355.065-.4a.267.267,0,0,0,.129.118,2.238,2.238,0,0,0,.237.409l.247.3a2.319,2.319,0,0,1,.172.237,1.091,1.091,0,0,1,.14.312,1.207,1.207,0,0,1,.065.753" transform="translate(10.382 10.521)" fill="#006a35"/>
      <path id="Tracciato_1228" data-name="Tracciato 1228" d="M3.354,4.055l-.065-.108a1.736,1.736,0,0,0-.172-.4,3.006,3.006,0,0,0-.355-.506L2.719,3l-.172-.2a1.3,1.3,0,0,1-.172-.247,1,1,0,0,1-.086-.237L2.3,2.3l.011-.011.054-.022c.065-.065.011-.258,0-.333l-.011-.022L2.364,1.9h.011c.032.043.086.108.129.118l.011.011a1.853,1.853,0,0,0,.237.4l.129.161.108.14a1.786,1.786,0,0,1,.183.237,3.389,3.389,0,0,1,.14.312,1.3,1.3,0,0,1,.065.753ZM2.321,2.323a.829.829,0,0,0,.075.215.943.943,0,0,0,.172.247l.172.194.022.032a2.645,2.645,0,0,1,.377.527c.1.183.151.323.183.4l.022.086a1.277,1.277,0,0,0-.054-.732c-.054-.14-.118-.247-.14-.3-.043-.075-.086-.118-.172-.237l-.118-.14L2.73,2.452a1.694,1.694,0,0,1-.237-.409l-.1-.075c.022.118.043.258-.011.323l-.065.032" transform="translate(10.373 10.511)" fill="#1d1d1b"/>
      <path id="Tracciato_1229" data-name="Tracciato 1229" d="M2.611,1.9a.2.2,0,0,1-.409,0,.2.2,0,0,1,.409,0" transform="translate(9.524 8.472)" fill="#006a35"/>
      <path id="Tracciato_1230" data-name="Tracciato 1230" d="M2.416,2.114a.21.21,0,1,1,0-.42.2.2,0,0,1,.2.2.207.207,0,0,1-.2.215m0-.4a.181.181,0,0,0-.183.183.175.175,0,0,0,.183.183A.181.181,0,0,0,2.6,1.9a.189.189,0,0,0-.183-.183" transform="translate(9.514 8.472)" fill="#1d1d1b"/>
      <path id="Tracciato_1231" data-name="Tracciato 1231" d="M2.679,1.894a.226.226,0,1,1-.226-.226.221.221,0,0,1,.226.226" transform="translate(9.768 8.218)" fill="#006a35"/>
      <path id="Tracciato_1232" data-name="Tracciato 1232" d="M2.463,2.141A.237.237,0,1,1,2.7,1.9a.239.239,0,0,1-.237.237m0-.452a.216.216,0,0,0-.215.215.215.215,0,0,0,.43,0,.216.216,0,0,0-.215-.215" transform="translate(9.758 8.218)" fill="#1d1d1b"/>
      <path id="Tracciato_1233" data-name="Tracciato 1233" d="M2.556,1.858a.193.193,0,0,1-.194.194.194.194,0,1,1,0-.387.193.193,0,0,1,.194.194" transform="translate(9.094 8.179)" fill="#006a35"/>
      <path id="Tracciato_1234" data-name="Tracciato 1234" d="M2.372,2.092a.215.215,0,1,1,.215-.215.216.216,0,0,1-.215.215m0-.4a.189.189,0,0,0-.183.183.183.183,0,1,0,.366,0,.189.189,0,0,0-.183-.183" transform="translate(9.085 8.16)" fill="#1d1d1b"/>
      <path id="Tracciato_1235" data-name="Tracciato 1235" d="M2.605,1.877a.193.193,0,0,1-.194.194.2.2,0,0,1-.2-.194.2.2,0,0,1,.2-.2.2.2,0,0,1,.194.2" transform="translate(9.572 8.267)" fill="#006a35"/>
      <path id="Tracciato_1236" data-name="Tracciato 1236" d="M2.421,2.1a.216.216,0,0,1-.215-.215.215.215,0,0,1,.43,0,.216.216,0,0,1-.215.215m0-.4a.181.181,0,0,0-.183.183.175.175,0,0,0,.183.183A.181.181,0,0,0,2.6,1.887.189.189,0,0,0,2.421,1.7" transform="translate(9.563 8.257)" fill="#1d1d1b"/>
      <path id="Tracciato_1237" data-name="Tracciato 1237" d="M2.615,1.837a.2.2,0,0,1-.194.2.212.212,0,0,1-.2-.2.2.2,0,0,1,.2-.194.193.193,0,0,1,.194.194" transform="translate(9.67 7.974)" fill="#006a35"/>
      <path id="Tracciato_1238" data-name="Tracciato 1238" d="M2.431,2.071a.215.215,0,1,1,.215-.215.216.216,0,0,1-.215.215m0-.4a.183.183,0,0,0,0,.366.183.183,0,1,0,0-.366" transform="translate(9.66 7.955)" fill="#1d1d1b"/>
      <path id="Tracciato_1239" data-name="Tracciato 1239" d="M2.58,1.87a.2.2,0,1,1-.4,0,.2.2,0,0,1,.2-.194.193.193,0,0,1,.194.194" transform="translate(9.329 8.296)" fill="#006a35"/>
      <path id="Tracciato_1240" data-name="Tracciato 1240" d="M2.4,2.095a.21.21,0,1,1,0-.42.2.2,0,0,1,.2.2.207.207,0,0,1-.2.215m0-.4a.181.181,0,0,0-.183.183.184.184,0,0,0,.183.194.191.191,0,0,0,.183-.194A.189.189,0,0,0,2.4,1.7" transform="translate(9.319 8.286)" fill="#1d1d1b"/>
      <path id="Tracciato_1241" data-name="Tracciato 1241" d="M2.593,1.84a.2.2,0,0,1-.2.194.194.194,0,1,1,0-.387.2.2,0,0,1,.2.194" transform="translate(9.455 8.003)" fill="#006a35"/>
      <path id="Tracciato_1242" data-name="Tracciato 1242" d="M2.408,2.074a.215.215,0,1,1,.215-.215.216.216,0,0,1-.215.215m0-.4a.189.189,0,0,0-.183.183.191.191,0,0,0,.183.194.184.184,0,0,0,.183-.194.181.181,0,0,0-.183-.183" transform="translate(9.436 7.984)" fill="#1d1d1b"/>
      <path id="Tracciato_1243" data-name="Tracciato 1243" d="M2.551,1.87a.2.2,0,1,1-.4,0,.2.2,0,0,1,.2-.194.193.193,0,0,1,.194.194" transform="translate(9.046 8.296)" fill="#006a35"/>
      <path id="Tracciato_1244" data-name="Tracciato 1244" d="M2.366,2.095a.21.21,0,1,1,.215-.215.216.216,0,0,1-.215.215m0-.4a.189.189,0,0,0-.183.183.191.191,0,0,0,.183.194.184.184,0,0,0,.183-.194A.181.181,0,0,0,2.366,1.7" transform="translate(9.026 8.286)" fill="#1d1d1b"/>
      <path id="Tracciato_1245" data-name="Tracciato 1245" d="M2.564,1.84a.193.193,0,0,1-.194.194.194.194,0,1,1,0-.387.193.193,0,0,1,.194.194" transform="translate(9.172 8.003)" fill="#006a35"/>
      <path id="Tracciato_1246" data-name="Tracciato 1246" d="M2.379,2.074a.215.215,0,1,1,.215-.215.216.216,0,0,1-.215.215m0-.4a.181.181,0,0,0-.183.183.184.184,0,0,0,.183.194.191.191,0,0,0,.183-.194.189.189,0,0,0-.183-.183" transform="translate(9.153 7.984)" fill="#1d1d1b"/>
      <path id="Tracciato_1247" data-name="Tracciato 1247" d="M3.494,2.252c.011.043-.161.172-.366.183a.744.744,0,0,1-.484-.194c-.118-.1-.323-.237-.377-.387a.158.158,0,0,1,0-.14l.086-.022a1.507,1.507,0,0,1,.635.29,2.066,2.066,0,0,0,.29.183l.108.054.108.032" transform="translate(9.996 8.462)" fill="#9457c7"/>
      <path id="Tracciato_1248" data-name="Tracciato 1248" d="M3.11,2.455a.745.745,0,0,1-.463-.194l-.065-.054a1.025,1.025,0,0,1-.312-.333c-.011-.022-.043-.108,0-.151l.1-.032h.011a1.513,1.513,0,0,1,.635.29,1.748,1.748,0,0,0,.29.183l.108.054.065.022.043.011-.011.043a.529.529,0,0,1-.366.161Zm-.742-.742-.075.022c-.032.043,0,.108,0,.129A1.017,1.017,0,0,0,2.6,2.2l.065.043a.7.7,0,0,0,.441.194h.032a.541.541,0,0,0,.344-.151L3.5,2.272l-.022-.011L3.4,2.24,3.293,2.2A2.13,2.13,0,0,1,2.991,2a1.451,1.451,0,0,0-.613-.29Z" transform="translate(9.982 8.443)" fill="#1d1d1b"/>
      <path id="Tracciato_1249" data-name="Tracciato 1249" d="M3.488,2.234c.011.043-.161.161-.366.172a.682.682,0,0,1-.484-.183,1.293,1.293,0,0,1-.377-.387.158.158,0,0,1,0-.14l.1-.032a1.556,1.556,0,0,1,.624.3,1.767,1.767,0,0,0,.29.183l.118.054.1.032" transform="translate(9.938 8.179)" fill="#9457c7"/>
      <path id="Tracciato_1250" data-name="Tracciato 1250" d="M3.1,2.437a.745.745,0,0,1-.463-.194l-.065-.054a.922.922,0,0,1-.312-.333c-.011-.032-.043-.108,0-.151l.1-.043h.011a1.638,1.638,0,0,1,.635.3,1.748,1.748,0,0,0,.29.183l.108.054.065.022.043.011L3.5,2.275a.529.529,0,0,1-.366.161Zm-.742-.742-.075.022a.116.116,0,0,0,0,.108.9.9,0,0,0,.312.355l.065.043a.7.7,0,0,0,.441.194h.032a.541.541,0,0,0,.344-.151l.011-.011L3.47,2.243l-.075-.022-.108-.043a2.13,2.13,0,0,1-.3-.194A1.584,1.584,0,0,0,2.362,1.694Z" transform="translate(9.924 8.16)" fill="#1d1d1b"/>
      <path id="Tracciato_1251" data-name="Tracciato 1251" d="M3.478,2.2c.011.043-.161.172-.366.183a.744.744,0,0,1-.484-.194A1.293,1.293,0,0,1,2.251,1.8a.158.158,0,0,1,0-.14l.086-.022a1.438,1.438,0,0,1,.635.29,1.766,1.766,0,0,0,.29.183l.108.054.108.032" transform="translate(9.84 7.935)" fill="#9457c7"/>
      <path id="Tracciato_1252" data-name="Tracciato 1252" d="M3.094,2.4a.689.689,0,0,1-.463-.194L2.6,2.176a1.072,1.072,0,0,1-.344-.355c-.011-.022-.043-.108,0-.151l.1-.032h.011A1.446,1.446,0,0,1,3,1.928a2.645,2.645,0,0,0,.29.194l.108.043.054.011L3.5,2.2V2.23a.517.517,0,0,1-.377.172ZM2.352,1.66l-.075.022c-.032.043,0,.108,0,.129a1.144,1.144,0,0,0,.312.333l.065.043a.718.718,0,0,0,.441.194h.032A.541.541,0,0,0,3.47,2.23l.011-.011L3.46,2.208l-.075-.022-.108-.043a1.877,1.877,0,0,1-.29-.194,1.671,1.671,0,0,0-.624-.29Z" transform="translate(9.826 7.925)" fill="#1d1d1b"/>
      <path id="Tracciato_1253" data-name="Tracciato 1253" d="M3.46,2.178c.011.032-.161.172-.366.183a.744.744,0,0,1-.484-.194,1.293,1.293,0,0,1-.377-.387.158.158,0,0,1,0-.14l.1-.032a1.556,1.556,0,0,1,.624.3,1.766,1.766,0,0,0,.29.183l.108.043.108.043" transform="translate(9.664 7.633)" fill="#9457c7"/>
      <path id="Tracciato_1254" data-name="Tracciato 1254" d="M3.076,2.371a.745.745,0,0,1-.463-.194l-.054-.054a.955.955,0,0,1-.323-.333c-.011-.032-.043-.108,0-.151l.1-.032h.011a1.446,1.446,0,0,1,.635.29,1.748,1.748,0,0,0,.29.183l.108.054.054.011.054.022-.011.043a.529.529,0,0,1-.366.161Zm-.742-.742-.075.022c-.032.043,0,.108,0,.129a1.133,1.133,0,0,0,.312.333l.065.043a.7.7,0,0,0,.441.194h.032A.541.541,0,0,0,3.452,2.2l.011-.011-.022-.011-.075-.022-.108-.043a1.877,1.877,0,0,1-.29-.194,1.515,1.515,0,0,0-.624-.29Z" transform="translate(9.65 7.623)" fill="#1d1d1b"/>
      <path id="Tracciato_1255" data-name="Tracciato 1255" d="M2.167,2.218a.547.547,0,0,1,.054-.43A.5.5,0,0,1,2.5,1.6a.851.851,0,0,1,.613.043,2.309,2.309,0,0,1,.42.3,1.7,1.7,0,0,0,.29.247,2.157,2.157,0,0,0,.3.172v.011a.582.582,0,0,1-.312,0c-.054-.022-.118-.065-.183-.043L3.6,2.358a1.568,1.568,0,0,1-.409.2,1.124,1.124,0,0,1-.57.043.6.6,0,0,1-.344-.161.465.465,0,0,1-.108-.226" transform="translate(8.968 7.216)" fill="#9457c7"/>
      <path id="Tracciato_1256" data-name="Tracciato 1256" d="M2.831,2.641,2.638,2.63a.608.608,0,0,1-.355-.172.762.762,0,0,1-.118-.226.553.553,0,0,1,.065-.452.567.567,0,0,1,.28-.183.977.977,0,0,1,.247-.032.959.959,0,0,1,.377.075,1.767,1.767,0,0,1,.42.312l.14.118a.611.611,0,0,0,.151.118,1.721,1.721,0,0,0,.3.172l.011.022L4.144,2.4H4.122l-.14.022-.151-.032L3.8,2.383a.292.292,0,0,0-.151-.032l-.032.022a1.3,1.3,0,0,1-.409.2,1.108,1.108,0,0,1-.377.065M2.756,1.587a.9.9,0,0,0-.237.032A.545.545,0,0,0,2.25,1.8a.481.481,0,0,0-.054.42.511.511,0,0,0,.1.215.563.563,0,0,0,.344.161l.194.022a1.155,1.155,0,0,0,.377-.065A1.6,1.6,0,0,0,3.6,2.361l.043-.032h.043L3.8,2.35l.043.022.14.022.129-.011-.28-.172L3.67,2.092l-.129-.129a2.309,2.309,0,0,0-.42-.3.914.914,0,0,0-.366-.075" transform="translate(8.959 7.213)" fill="#1d1d1b"/>
      <path id="Tracciato_1257" data-name="Tracciato 1257" d="M2.517,1.687c0,.054-.075.086-.161.086s-.172-.032-.172-.086.075-.086.172-.086.161.032.161.086" transform="translate(9.348 7.564)" fill="#e30613"/>
      <path id="Tracciato_1258" data-name="Tracciato 1258" d="M2.366,1.8c-.1,0-.183-.043-.183-.108s.086-.1.183-.1.183.043.183.1-.086.108-.183.108m0-.183c-.086,0-.151.032-.151.075s.065.086.151.086.151-.043.151-.086-.065-.075-.151-.075" transform="translate(9.338 7.545)" fill="#1d1d1b"/>
      <path id="Tracciato_1259" data-name="Tracciato 1259" d="M2.262,1.638l-.032.032L2.2,1.66l.032-.054.032.032" transform="translate(9.475 7.613)" fill="#1d1d1b"/>
      <path id="Tracciato_1260" data-name="Tracciato 1260" d="M2.128,1.9c.011.054.086.065.118.065a.4.4,0,0,0,.194-.022.254.254,0,0,0,.151-.129.111.111,0,0,0-.065-.172c-.161-.054-.43.172-.4.258" transform="translate(8.78 7.859)" fill="#ffed00"/>
      <path id="Tracciato_1261" data-name="Tracciato 1261" d="M2.308,1.985H2.254a.131.131,0,0,1-.129-.065l.032-.108A.471.471,0,0,1,2.48,1.63h.043c.054.022.086.043.1.086s.011.065-.011.108a.262.262,0,0,1-.161.14l-.14.022m.172-.333a.479.479,0,0,0-.3.172l-.032.086c.011.043.075.043.118.054h.043l.129-.022a.23.23,0,0,0,.151-.129L2.6,1.727l-.065-.065L2.48,1.652" transform="translate(8.772 7.847)" fill="#1d1d1b"/>
      <path id="Tracciato_1262" data-name="Tracciato 1262" d="M2.21,2.353l-.032-.086-.032-.1a.694.694,0,0,1-.032-.215.31.31,0,0,1,.172-.28c.1-.065.323-.129.366.032a.187.187,0,0,1-.043.194c-.075.065-.172.086-.247.151a.666.666,0,0,0-.151.3" transform="translate(8.655 7.619)" fill="#ffed00"/>
      <path id="Tracciato_1263" data-name="Tracciato 1263" d="M2.229,2.38H2.219l-.011-.011L2.2,2.326l-.011-.032-.043-.108-.032-.215a.317.317,0,0,1,.183-.29A.469.469,0,0,1,2.52,1.6a.153.153,0,0,1,.161.118.187.187,0,0,1-.054.194l-.118.075-.129.086a.526.526,0,0,0-.14.29Zm.29-.742A.46.46,0,0,0,2.3,1.7a.306.306,0,0,0-.172.269.5.5,0,0,0,.043.2l.032.108v.011l.011.022a.629.629,0,0,1,.151-.258L2.5,1.971,2.617,1.9a.162.162,0,0,0,.043-.172.135.135,0,0,0-.14-.086" transform="translate(8.636 7.603)" fill="#1d1d1b"/>
      <path id="Tracciato_1264" data-name="Tracciato 1264" d="M2.245,1.647,2.2,1.69l-.065-.022.043-.054.065.032" transform="translate(8.895 7.699)" fill="#1d1d1b"/>
      <path id="Tracciato_1265" data-name="Tracciato 1265" d="M5.311,2.37c-.065-.022-2.334.043-2.334.043H2.933L2.89,2.38l-.022-.043A.253.253,0,0,0,2.8,2.144a.279.279,0,0,0-.226-.075c-.075,0-.194.032-.226.108l-.043.086-.043.054c-.065.065-.161.011-.194.054-.065.086.183.344.237.409l.022.011L2.4,2.8l2.926-.032c.065-.108.108-.355-.011-.4" transform="translate(8.158 12.121)" fill="#9b5103"/>
      <path id="Tracciato_1266" data-name="Tracciato 1266" d="M2.383,2.83,2.34,2.819,2.319,2.8c-.215-.226-.29-.366-.247-.42l.075-.022h.022l.1-.032.043-.065L2.351,2.2V2.184a.285.285,0,0,1,.237-.118H2.62a.258.258,0,0,1,.2.075.32.32,0,0,1,.075.194l.011.054.043.022h.032c.022,0,1.6-.043,2.152-.043H5.32a.1.1,0,0,1,.075.086.455.455,0,0,1-.054.333V2.8l-2.937.022-.022.011m-.237-.452-.054.011c-.022.022-.022.1.237.387l.022.011.054.011c.022,0,2.722-.022,2.926-.032a.42.42,0,0,0,.043-.3L5.32,2.389H5.137c-.549,0-2.13.043-2.13.043H2.954L2.889,2.4l-.011-.065A.286.286,0,0,0,2.8,2.163.241.241,0,0,0,2.62,2.1H2.6a.274.274,0,0,0-.226.1v.011L2.33,2.27l-.043.065a.128.128,0,0,1-.118.043Z" transform="translate(8.137 12.102)" fill="#1d1d1b"/>
      <path id="Tracciato_1267" data-name="Tracciato 1267" d="M2.712,2.29a.209.209,0,0,1-.183.2.2.2,0,0,1,.011-.4.189.189,0,0,1,.172.194" transform="translate(10.929 12.394)" fill="#9b5103"/>
      <path id="Tracciato_1268" data-name="Tracciato 1268" d="M2.539,2.524a.205.205,0,0,1-.194-.215.222.222,0,0,1,.2-.215.216.216,0,0,1-.011.43m.011-.4a.189.189,0,0,0-.183.183.2.2,0,0,0,.172.194.2.2,0,0,0,.172-.194.177.177,0,0,0-.161-.183" transform="translate(10.919 12.375)" fill="#1d1d1b"/>
      <path id="Tracciato_1269" data-name="Tracciato 1269" d="M2.829,2.167l-.065-.075c-.161-.075-.333.108-.441.2a.351.351,0,0,0-.075.463.5.5,0,0,0,.409.215l.086-.032.011-.065c-.011-.151-.215-.129-.269-.258A.2.2,0,0,1,2.539,2.4c.086-.065.28-.1.29-.237" transform="translate(9.434 12.183)" fill="#fbd022"/>
      <path id="Tracciato_1270" data-name="Tracciato 1270" d="M2.665,3h0a.476.476,0,0,1-.409-.215A.365.365,0,0,1,2.321,2.3l.032-.032c.1-.075.215-.194.344-.194l.086.022c.032.011.075.054.065.1-.011.1-.1.14-.183.183l-.108.054a.211.211,0,0,0-.054.2.316.316,0,0,0,.129.108c.075.032.14.065.151.151l-.022.075L2.665,3M2.7,2.1c-.118,0-.226.108-.323.183l-.032.032a.349.349,0,0,0-.075.452.5.5,0,0,0,.4.2l.086-.022.011-.043c-.011-.086-.075-.118-.14-.151a.3.3,0,0,1-.14-.118.2.2,0,0,1,.065-.226l.108-.065c.075-.043.161-.086.172-.161l-.054-.075L2.7,2.1" transform="translate(9.427 12.16)" fill="#1d1d1b"/>
      <path id="Tracciato_1271" data-name="Tracciato 1271" d="M2.849,2.167a.079.079,0,0,0-.065-.075c-.161-.075-.333.108-.441.2a.351.351,0,0,0-.075.463.537.537,0,0,0,.409.215l.1-.032.011-.065c-.022-.151-.215-.129-.28-.258A.184.184,0,0,1,2.57,2.4c.086-.065.269-.1.28-.237" transform="translate(9.629 12.183)" fill="#fbd022"/>
      <path id="Tracciato_1272" data-name="Tracciato 1272" d="M2.691,3h0a.509.509,0,0,1-.42-.215A.367.367,0,0,1,2.347,2.3l.032-.032c.1-.075.215-.194.344-.194l.075.022a.1.1,0,0,1,.075.1c-.011.1-.108.14-.183.183l-.108.054a.189.189,0,0,0-.054.2c.022.054.075.075.129.108s.14.065.151.151l-.022.075L2.691,3M2.723,2.1a.578.578,0,0,0-.323.183l-.032.032a.338.338,0,0,0-.075.452.488.488,0,0,0,.4.2l.075-.022.011-.043c-.011-.086-.065-.118-.129-.151a.3.3,0,0,1-.14-.118.189.189,0,0,1,.065-.226l.108-.065c.075-.043.161-.086.172-.161l-.065-.075L2.723,2.1" transform="translate(9.627 12.16)" fill="#1d1d1b"/>
      <path id="Tracciato_1273" data-name="Tracciato 1273" d="M2.869,2.172A.094.094,0,0,0,2.8,2.086c-.161-.065-.333.108-.441.2a.363.363,0,0,0-.075.473.5.5,0,0,0,.409.2l.086-.032L2.8,2.882c-.022-.161-.215-.14-.28-.269A.193.193,0,0,1,2.59,2.4c.075-.065.269-.1.28-.226" transform="translate(9.824 12.157)" fill="#fbd022"/>
      <path id="Tracciato_1274" data-name="Tracciato 1274" d="M2.707,3h0a.573.573,0,0,1-.42-.215A.378.378,0,0,1,2.363,2.3L2.4,2.265a.589.589,0,0,1,.344-.194l.086.011a.124.124,0,0,1,.065.1c-.011.1-.1.151-.183.183L2.6,2.426a.168.168,0,0,0-.054.194.316.316,0,0,0,.129.108c.065.032.14.065.151.161L2.8,2.953,2.707,3m.032-.9c-.118,0-.226.108-.323.183l-.043.032a.349.349,0,0,0-.065.452.475.475,0,0,0,.4.2l.075-.022.011-.054c0-.075-.065-.108-.129-.14a.3.3,0,0,1-.14-.118A.189.189,0,0,1,2.589,2.4L2.7,2.34c.075-.032.161-.075.172-.161L2.815,2.1l-.075-.011" transform="translate(9.815 12.15)" fill="#1d1d1b"/>
      <path id="Tracciato_1275" data-name="Tracciato 1275" d="M2.884,2.167,2.82,2.092c-.161-.075-.333.108-.441.2a.351.351,0,0,0-.075.463.5.5,0,0,0,.409.215L2.8,2.942l.022-.065c-.022-.151-.215-.129-.28-.258A.184.184,0,0,1,2.6,2.4c.086-.065.269-.1.28-.237" transform="translate(9.971 12.183)" fill="#fbd022"/>
      <path id="Tracciato_1276" data-name="Tracciato 1276" d="M2.722,3h0a.509.509,0,0,1-.42-.215A.38.38,0,0,1,2.378,2.3l.032-.032c.1-.075.215-.194.344-.194l.086.022a.109.109,0,0,1,.065.1c-.011.1-.108.14-.183.183l-.108.054a.211.211,0,0,0-.054.2c.022.054.075.075.129.108s.14.065.151.151l-.022.075L2.722,3M2.754,2.1a.578.578,0,0,0-.323.183L2.4,2.319a.338.338,0,0,0-.075.452.488.488,0,0,0,.4.2L2.8,2.954,2.808,2.9c-.011-.075-.065-.108-.129-.14a.3.3,0,0,1-.14-.118A.189.189,0,0,1,2.6,2.416l.108-.065c.075-.043.161-.086.172-.161L2.83,2.115,2.754,2.1" transform="translate(9.961 12.16)" fill="#1d1d1b"/>
    </g>
  </g>
</svg>
