<svg xmlns="http://www.w3.org/2000/svg" xmlns:xlink="http://www.w3.org/1999/xlink" width="24" height="24" viewBox="0 0 24 24">
  <defs>
    <clipPath id="clip-path">
      <path id="Tracciato_1738" data-name="Tracciato 1738" d="M.56,12.749a12,12,0,1,0,12-12,12,12,0,0,0-12,12" transform="translate(-0.56 -0.749)" fill="none"/>
    </clipPath>
  </defs>
  <g id="Egitto" transform="translate(-0.56 -0.749)">
    <g id="Raggruppa_46" data-name="Raggruppa 46" transform="translate(0.56 0.749)" clip-path="url(#clip-path)">
      <rect id="Rettangolo_143" data-name="Rettangolo 143" width="35.785" height="24.903" transform="translate(-6.027 -0.946)" fill="#c03"/>
      <rect id="Rettangolo_144" data-name="Rettangolo 144" width="35.785" height="15.928" transform="translate(-6.027 8.029)" fill="#fff"/>
      <rect id="Rettangolo_145" data-name="Rettangolo 145" width="35.785" height="7.964" transform="translate(-6.027 15.993)"/>
      <path id="Tracciato_1656" data-name="Tracciato 1656" d="M1.478,2.395c.022-.108.377-.226.377-.226l.022-.1a5.9,5.9,0,0,0,3.347,0l.043.118s.323.108.344.2-.248.323-.248.323l.043.118a6.581,6.581,0,0,1-3.735,0l.043-.129s-.258-.215-.237-.312" transform="translate(8.391 12.167)" fill="#fff"/>
      <path id="Tracciato_1657" data-name="Tracciato 1657" d="M3.53,3.177A5.7,5.7,0,0,1,1.69,2.9l-.011-.011L1.7,2.757c-.065-.065-.248-.237-.226-.334s.291-.215.387-.248l.022-.1.032-.011a5.318,5.318,0,0,0,1.636.248,5.962,5.962,0,0,0,1.7-.248l.032.011.043.118c.086.032.323.129.344.226s-.161.28-.237.334l.032.118L5.446,2.9a6.335,6.335,0,0,1-1.916.28m-1.8-.334a5.688,5.688,0,0,0,1.8.269A6.344,6.344,0,0,0,5.4,2.843l-.032-.075.011-.032c.118-.108.237-.248.226-.3s-.172-.129-.323-.183l-.022-.022-.011-.086a5.956,5.956,0,0,1-1.7.237,5.3,5.3,0,0,1-1.625-.237V2.2l-.032.032c-.14.054-.344.14-.355.2s.118.183.226.291l.011.032-.043.086" transform="translate(8.351 12.128)" fill="#fc0"/>
      <path id="Tracciato_1658" data-name="Tracciato 1658" d="M1.937,1.926l-.312,1.4.118.086.118-.075Z" transform="translate(9.84 10.744)" fill="#fc0"/>
      <path id="Tracciato_1659" data-name="Tracciato 1659" d="M1.68,1.927l.312,1.4-.118.086-.118-.075Z" transform="translate(10.375 10.753)" fill="#fc0"/>
      <path id="Tracciato_1660" data-name="Tracciato 1660" d="M1.755,1.929,1.884,3.35l-.129.075-.1-.086Z" transform="translate(10.16 10.77)" fill="#fc0"/>
      <path id="Tracciato_1661" data-name="Tracciato 1661" d="M1.667,1.771,1.581,3.633,1.85,3.3,1.9,1.846a.49.49,0,0,1-.237-.075" transform="translate(9.407 9.228)" fill="#fc0"/>
      <path id="Tracciato_1662" data-name="Tracciato 1662" d="M1.974,1.771l.1,1.937-.28-.269L1.726,1.846a.549.549,0,0,0,.248-.075" transform="translate(10.823 9.228)" fill="#fc0"/>
      <path id="Tracciato_1663" data-name="Tracciato 1663" d="M2.143,1.861l-.6,2.077.786.194.151-.194.269-1.356Z" transform="translate(9.015 10.111)" fill="#fff"/>
      <path id="Tracciato_1664" data-name="Tracciato 1664" d="M2.346,4.173H2.335L1.55,3.979l-.011-.011V3.958l.592-2.077.011-.011.022-.011.613.732v.022L2.508,3.968v.011l-.151.183Zm-.764-.226.753.183.129-.172.269-1.345-.57-.678Z" transform="translate(8.997 10.087)" fill="#fc0"/>
      <path id="Tracciato_1665" data-name="Tracciato 1665" d="M1.58,2.559H1.569l-.011-.022.323-.517L1.9,2.01l.022.022.086.215.172-.161.032-.011v.043L2.021,2.3,2,2.312,1.989,2.3,1.9,2.086l-.3.463-.022.011" transform="translate(9.188 11.564)" fill="#fc0"/>
      <path id="Tracciato_1666" data-name="Tracciato 1666" d="M1.822,2.956,1.8,2.935l-.194-.947.011-.022.032.011.194.947-.011.032Z" transform="translate(9.655 11.135)" fill="#fc0"/>
      <path id="Tracciato_1667" data-name="Tracciato 1667" d="M1.72,3.258,1.7,3.247l-.14-.506V2.72l.248-.258.011-.011.022.011.1.226.5-.764.022-.011.022.022-.527.807-.011.011-.022-.011-.1-.226L1.6,2.741l.14.484Z" transform="translate(9.192 10.612)" fill="#fc0"/>
      <path id="Tracciato_1668" data-name="Tracciato 1668" d="M1.684,2.451h0L1.663,2.44l-.086-.194.011-.022.032.011.075.151L2.061,1.9l.022-.011.011.032-.387.517Z" transform="translate(9.366 10.403)" fill="#fc0"/>
      <path id="Tracciato_1669" data-name="Tracciato 1669" d="M1.813,3.445H1.8V3.412l.258-.3-.161-.4-.1.151-.022.011H1.77L1.6,1.884l.011-.022.022.011L1.8,2.8l.086-.14L1.9,2.648l.032.011.172.452v.022l-.269.3-.022.011" transform="translate(9.569 10.122)" fill="#fc0"/>
      <path id="Tracciato_1670" data-name="Tracciato 1670" d="M2.285,1.861l.6,2.077L2.1,4.132l-.151-.194L1.683,2.582Z" transform="translate(10.4 10.111)" fill="#fff"/>
      <path id="Tracciato_1671" data-name="Tracciato 1671" d="M2.122,4.163,2.1,4.152l-.14-.183L1.95,3.959,1.681,2.6V2.592l.6-.732h.022l.022.011.6,2.088-.011.022Zm-.129-.215.129.172.753-.183L2.294,1.925l-.57.678Z" transform="translate(10.384 10.097)" fill="#fc0"/>
      <path id="Tracciato_1672" data-name="Tracciato 1672" d="M2.351,2.559l-.022-.011-.3-.463-.086.2-.011.022L1.91,2.3l-.194-.183V2.086l.022-.011.183.172.086-.215.022-.022.022.011.323.506-.011.032Z" transform="translate(10.725 11.564)" fill="#fc0"/>
      <path id="Tracciato_1673" data-name="Tracciato 1673" d="M1.728,2.956h0l-.022-.032L1.9,1.988l.011-.022.032.022-.194.947Z" transform="translate(10.636 11.135)" fill="#fc0"/>
      <path id="Tracciato_1674" data-name="Tracciato 1674" d="M2.435,3.258h0l-.022-.032.14-.484-.215-.226-.1.226-.022.011-.011-.011-.517-.8L1.7,1.913l.022.011.5.764.1-.226.011-.011h.022L2.6,2.72v.011l-.14.517Z" transform="translate(10.497 10.612)" fill="#fc0"/>
      <path id="Tracciato_1675" data-name="Tracciato 1675" d="M2.12,2.441,2.1,2.431l-.387-.517V1.892h.032l.366.484.075-.151L2.206,2.2l.022.032-.086.194-.011.011Z" transform="translate(10.674 10.413)" fill="#fc0"/>
      <path id="Tracciato_1676" data-name="Tracciato 1676" d="M1.981,3.445,1.96,3.434l-.258-.3-.011-.022.172-.452.011-.011.032.011.086.14.172-.926.022-.011.022.022-.183.979-.011.011H1.992l-.1-.161-.161.4.258.3L2,3.434l-.022.011" transform="translate(10.48 10.122)" fill="#fc0"/>
      <path id="Tracciato_1677" data-name="Tracciato 1677" d="M2.946,2.083a1.363,1.363,0,0,1-.5-.172c-.248-.129-.506-.258-.7-.172a.451.451,0,0,0-.248.3l-.032.022-.011-.032A.515.515,0,0,1,1.73,1.7a.964.964,0,0,1,.732.172c.237.118.452.226.592.151l.032.011-.011.032-.129.022" transform="translate(8.236 8.217)" fill="#fc0"/>
      <path id="Tracciato_1678" data-name="Tracciato 1678" d="M1.854,2.083l-.129-.022V2.029l.011-.022c.151.086.366-.022.592-.14A1,1,0,0,1,3.07,1.7a.515.515,0,0,1,.269.334l-.011.032L3.3,2.05a.449.449,0,0,0-.248-.312c-.194-.086-.452.043-.7.172a1.363,1.363,0,0,1-.5.172" transform="translate(10.813 8.217)" fill="#fc0"/>
      <path id="Tracciato_1679" data-name="Tracciato 1679" d="M1.637,1.843,1.443,5.911l.28-.3.183-3.917a.522.522,0,0,0-.269.151" transform="translate(8.06 8.457)" fill="#fc0"/>
      <path id="Tracciato_1680" data-name="Tracciato 1680" d="M1.64,1.694c.118-.011.248.172.248.172l-.14,3.369L1.479,5.5Z" transform="translate(8.412 8.476)" fill="#fc0"/>
      <path id="Tracciato_1681" data-name="Tracciato 1681" d="M1.672,1.72a.781.781,0,0,0,.237.226L1.8,4.637l-.291.269Z" transform="translate(8.724 8.73)" fill="#fc0"/>
      <path id="Tracciato_1682" data-name="Tracciato 1682" d="M1.663,1.745,1.545,4.274l.28-.258.086-2.185a.677.677,0,0,1-.248-.086" transform="translate(9.056 8.974)" fill="#fc0"/>
      <path id="Tracciato_1683" data-name="Tracciato 1683" d="M2.119,1.843l.194,4.068-.28-.3L1.85,1.692a.522.522,0,0,1,.269.151" transform="translate(12.033 8.457)" fill="#fc0"/>
      <path id="Tracciato_1684" data-name="Tracciato 1684" d="M2.067,1.694c-.118-.011-.248.172-.248.172l.14,3.369.269.269Z" transform="translate(11.731 8.476)" fill="#fc0"/>
      <path id="Tracciato_1685" data-name="Tracciato 1685" d="M2.026,1.72a.781.781,0,0,1-.237.226L1.9,4.637l.291.269Z" transform="translate(11.438 8.73)" fill="#fc0"/>
      <path id="Tracciato_1686" data-name="Tracciato 1686" d="M2,1.745l.118,2.529-.28-.258L1.757,1.831A.677.677,0,0,0,2,1.745" transform="translate(11.126 8.974)" fill="#fc0"/>
      <path id="Tracciato_1687" data-name="Tracciato 1687" d="M1.626,1.943l.463-.2.409.2-.022,1.7L2.1,3.891l-.43-.323Z" transform="translate(9.849 8.916)" fill="#fff"/>
      <path id="Tracciato_1688" data-name="Tracciato 1688" d="M2.252,1.762V3.355l-.28-.237-.258-.5L1.584,2.16l-.011-.4Z" transform="translate(9.336 9.138)" fill="#fc0"/>
      <path id="Tracciato_1689" data-name="Tracciato 1689" d="M1.7,1.762V3.355l.291-.237.248-.5.129-.463.011-.4Z" transform="translate(10.571 9.138)" fill="#fc0"/>
      <path id="Tracciato_1690" data-name="Tracciato 1690" d="M3.751,1.987a1.88,1.88,0,0,1-1.087-.258,1.623,1.623,0,0,1-1.087.258A2.334,2.334,0,0,0,2.664,4.118,2.278,2.278,0,0,0,3.751,1.987M2.664,3.925A2.018,2.018,0,0,1,1.717,2.17a1.649,1.649,0,0,0,.947-.248,1.754,1.754,0,0,0,.947.237,2.008,2.008,0,0,1-.947,1.765" transform="translate(9.261 8.818)" fill="#fff"/>
      <path id="Tracciato_1691" data-name="Tracciato 1691" d="M2.685,4.149H2.674a2.3,2.3,0,0,1-1.1-2.142L1.587,2,1.6,1.985a.662.662,0,0,0,.2.022,1.851,1.851,0,0,0,.872-.269L2.7,1.727a1.993,1.993,0,0,0,.893.28l.172-.022L3.783,2A2.27,2.27,0,0,1,2.7,4.149ZM1.609,2.039A2.3,2.3,0,0,0,2.685,4.116,2.27,2.27,0,0,0,3.75,2.039l-.161.011a2.02,2.02,0,0,1-.9-.269A1.853,1.853,0,0,1,1.8,2.05l-.194-.011M2.685,3.966H2.674A2.061,2.061,0,0,1,1.716,2.19l.011-.022h.011l.118.011a1.727,1.727,0,0,0,.818-.248L2.7,1.921a1.852,1.852,0,0,0,.829.248h.108l.022.011A2.019,2.019,0,0,1,2.7,3.966ZM1.759,2.2a1.993,1.993,0,0,0,.926,1.722A1.966,1.966,0,0,0,3.61,2.2H3.524a2.063,2.063,0,0,1-.839-.226,1.744,1.744,0,0,1-.829.226h-.1" transform="translate(9.24 8.799)" fill="#fc0"/>
      <path id="Tracciato_1692" data-name="Tracciato 1692" d="M3.075,3.286c.011-.032-.1-.108-.161-.226a1.429,1.429,0,0,1-.129-.43c-.011-.14-.011-.269-.011-.409a1.739,1.739,0,0,0-.022-.334.285.285,0,0,0-.129-.215l-.151-.054h-.1L2.3,1.607l-.1-.043-.1.022-.075.043L1.912,1.6l-.129-.043c-.14-.011-.161.118-.161.226.086-.011.764.269.054,1.367-.022.043-.118.151-.054.161.086.011.215-.086.28-.032l.011.1c.065.043.2-.161.28-.151.054.011.108.151.161.151s.086-.151.14-.161c.086-.011.129.172.323.14l-.054-.118c.043-.054.269.129.312.054M2.149,1.64l.043.032L2.149,1.7l-.043-.032.043-.032m.43.926c0-.043-.043-.011-.054.032a.784.784,0,0,0,.043.312l.075.226.032.086v.032l-.022-.011L2.6,3.2l-.065-.075-.065-.172-.011-.2-.011-.161c0-.032-.054-.043-.054,0a1.4,1.4,0,0,0,.043.549c.022.043-.043.129-.086.14a.165.165,0,0,1-.118-.118,1.8,1.8,0,0,0,.054-.56c0-.043-.065-.054-.065,0l.011.2a.8.8,0,0,1-.1.355l-.086.075-.043.032c-.043.011.011-.054.022-.065l.054-.1a1.434,1.434,0,0,0,.1-.527l-.075.011a.857.857,0,0,1-.043.366.362.362,0,0,1-.172.226l-.1.032-.043.011L1.708,3.2l.011-.022.043-.054.086-.14a1.731,1.731,0,0,0,.183-.463A.875.875,0,0,0,2,1.973c-.011-.032.151.075.151.032a.393.393,0,0,0-.463-.291.118.118,0,0,1,.151-.086l.1.043a.358.358,0,0,0,.118.1l.054.022.065.054a.174.174,0,0,0,.161.011c.043-.022.054-.108.1-.108a.2.2,0,0,1,.2.086.6.6,0,0,1,.075.28l.022.4a1.708,1.708,0,0,0,.065.409L2.87,3.1l.065.086c.022.043-.032.022-.043.022l-.054-.022a.279.279,0,0,1-.161-.151,1.165,1.165,0,0,1-.1-.474" transform="translate(9.593 7.099)" fill="#fc0"/>
      <path id="Tracciato_1693" data-name="Tracciato 1693" d="M3.17,2.358l-.022-.011c-.043-.032-.075-.011-.118,0l-.086-.011-.108-.022-.108.032a.12.12,0,0,1-.151-.054l-.022-.086-.022-.043c-.065-.022-.1.075-.086.118l-.1-.043-.086.043a.137.137,0,0,0,.022-.129l-.054-.108a.343.343,0,0,0-.1.172l-.065-.043-.1.011-.054-.054c-.043-.032-.118.054-.151-.011L1.717,2.1a.406.406,0,0,0-.172.054L1.5,2.207l.075.075.161.065.215.065.258.054.269.043.258.022.226-.011L3.116,2.5l.075-.065L3.17,2.358" transform="translate(8.636 11.913)" fill="#fff"/>
      <path id="Tracciato_1694" data-name="Tracciato 1694" d="M2.871,2.57H2.764l-.258-.022-.269-.032-.258-.065a.7.7,0,0,1-.226-.065l-.161-.065L1.5,2.247c-.011-.022,0-.065.043-.1a.566.566,0,0,1,.183-.043L1.763,2.1l.054.032.011.022L1.87,2.14h.086l.022.022L2,2.194h.054L2.1,2.183h.011l.043.011a.328.328,0,0,1,.1-.14l.011-.011.075.129v.075l.032-.011.086.032.032-.075.075-.032.032.065.022.075c.043.054.075.065.129.043h.011l.1-.032.086.022.032.011h.215l.022.022.032.1-.086.075L2.99,2.57H2.871M1.763,2.14H1.741a.461.461,0,0,0-.172.054l-.022.032.065.065.151.065.226.065.258.054.258.032.258.022h.215L3.13,2.5l.065-.043-.011-.043-.022-.022h-.1a.359.359,0,0,1-.108,0l-.022-.011-.075-.011-.086.022H2.764a.133.133,0,0,1-.183-.065l-.032-.086V2.2H2.538l-.022.011L2.495,2.3l-.011.022H2.462L2.376,2.28l-.065.032L2.3,2.323H2.269V2.291l.022-.108L2.258,2.1a.222.222,0,0,0-.075.151l-.022.022-.022-.011V2.247l-.032-.022-.043.011H1.989l-.043-.043-.011-.022-.054.011-.054.011-.054-.043L1.763,2.14" transform="translate(8.623 11.883)" fill="#fc0"/>
      <path id="Tracciato_1695" data-name="Tracciato 1695" d="M1.785,2.128H1.71L1.6,2.074a.2.2,0,0,0,.043.28l.043.032v-.1a.188.188,0,0,1,.065-.129l.032-.022V2.128" transform="translate(9.246 12.186)" fill="#fff"/>
      <path id="Tracciato_1696" data-name="Tracciato 1696" d="M1.716,2.407l-.065-.022a.21.21,0,0,1-.086-.14.232.232,0,0,1,.043-.172h.032l.1.032h.043l.043.022v.022l-.032.032a.181.181,0,0,0-.065.118l.011.022-.011.086ZM1.63,2.116a.149.149,0,0,0-.022.118l.065.118h.022V2.342L1.684,2.31a.194.194,0,0,1,.075-.161H1.727l-.1-.032" transform="translate(9.229 12.176)" fill="#fc0"/>
      <path id="Tracciato_1697" data-name="Tracciato 1697" d="M1.725,2.147l-.054-.022a.2.2,0,0,1-.108-.065.152.152,0,0,0-.022.237L1.6,2.33V2.255a.145.145,0,0,1,.1-.1h.032Z" transform="translate(8.574 12.059)" fill="#fff"/>
      <path id="Tracciato_1698" data-name="Tracciato 1698" d="M1.611,2.381l-.065-.043a.165.165,0,0,1-.054-.14.149.149,0,0,1,.075-.129l.022-.011.1.065.011.011.065.032v.022l-.043.022a.116.116,0,0,0-.086.075V2.37H1.622Zm-.032-.269L1.536,2.2a.13.13,0,0,0,.032.108l.032.022L1.59,2.306V2.284a.14.14,0,0,1,.1-.108l-.022-.011-.086-.054" transform="translate(8.548 12.03)" fill="#fc0"/>
      <path id="Tracciato_1699" data-name="Tracciato 1699" d="M1.644,2.132l.075-.011.108-.043a.2.2,0,0,1-.043.28l-.043.032v-.1a.188.188,0,0,0-.065-.129l-.032-.022Z" transform="translate(10.022 12.225)" fill="#fff"/>
      <path id="Tracciato_1700" data-name="Tracciato 1700" d="M1.751,2.42H1.74l-.011-.1.011-.011a.139.139,0,0,0-.065-.118l-.032-.032V2.141l.043-.022h.043l.1-.043.032.011a.232.232,0,0,1,.043.172.187.187,0,0,1-.086.129l-.065.032m-.043-.258a.188.188,0,0,1,.075.151l-.011.022-.011.043.022-.022a.136.136,0,0,0,.075-.108L1.837,2.13l-.108.032Z" transform="translate(10.013 12.206)" fill="#fc0"/>
      <path id="Tracciato_1701" data-name="Tracciato 1701" d="M1.639,2.144H1.629l-.043-.022-.011-.011L1.543,2.1,1.51,2.08l.022-.022L1.6,2.08l.011.011L1.65,2.1l.011.032-.022.011" transform="translate(8.717 12.033)" fill="#fc0"/>
      <path id="Tracciato_1702" data-name="Tracciato 1702" d="M1.611,2.107H1.579L1.558,2.1l-.032-.011.011-.022h.086l.022.022v.022H1.611Z" transform="translate(8.865 12.092)" fill="#fc0"/>
      <path id="Tracciato_1703" data-name="Tracciato 1703" d="M1.627,2.12l-.065-.011L1.541,2.1l.011-.032.086.011h.022l.022.011L1.67,2.12H1.627Z" transform="translate(9.017 12.108)" fill="#fc0"/>
      <path id="Tracciato_1704" data-name="Tracciato 1704" d="M1.7,2.122H1.663l-.032-.011L1.6,2.122V2.079h.1l.022.011L1.7,2.122" transform="translate(9.579 12.232)" fill="#fc0"/>
      <path id="Tracciato_1705" data-name="Tracciato 1705" d="M1.72,2.123H1.634l-.022-.011.022-.032H1.72l.022.011-.022.032" transform="translate(9.712 12.242)" fill="#fc0"/>
      <path id="Tracciato_1706" data-name="Tracciato 1706" d="M1.69,2.122H1.658l-.032-.011.022-.032h.1v.032l-.054.011" transform="translate(9.842 12.239)" fill="#fc0"/>
      <path id="Tracciato_1707" data-name="Tracciato 1707" d="M1.7,2.357l.022-.011c.032-.032.075-.011.118,0l.086-.011.108-.022.108.032a.124.124,0,0,0,.151-.054l.022-.086.022-.043c.065-.032.1.075.086.118l.1-.043.086.043a.137.137,0,0,1-.022-.129l.054-.108a.343.343,0,0,1,.1.172L2.8,2.174l.1.011.054-.054c.043-.032.118.054.151-.022L3.152,2.1a.461.461,0,0,1,.172.054l.043.054-.075.075-.161.065-.215.065-.258.054-.269.043-.258.022H1.9L1.753,2.5l-.075-.065L1.7,2.357" transform="translate(10.354 11.903)" fill="#fff"/>
      <path id="Tracciato_1708" data-name="Tracciato 1708" d="M2.042,2.581,1.924,2.57l-.161-.032-.086-.075.032-.1.022-.022c.032-.022.065-.011.108,0h.1l.043-.011.075-.011.108.022A.094.094,0,0,0,2.289,2.3l.022-.065V2.226l.032-.054.086.022.032.075.075-.032.022.011.022-.075.065-.129.022.011a.3.3,0,0,1,.1.151l.043-.022h.011l.032.011.043.011.022-.022.032-.043h.1l.022.011.022-.011L3.15,2.1l.032.011a.532.532,0,0,1,.172.054.081.081,0,0,1,.054.086l-.086.075-.161.065-.226.075-.258.043-.269.043L2.15,2.57l-.108.011m-.258-.2H1.762L1.741,2.4l-.022.054.054.054.151.022a.794.794,0,0,0,.226,0L2.4,2.506l.269-.032.258-.065a.893.893,0,0,0,.215-.054L3.3,2.291l.065-.065-.032-.032-.151-.043L3.172,2.14H3.15l-.022.011-.054.043-.043-.011-.054-.011-.022.022-.043.043H2.838l-.032-.011-.032.022-.011.011-.022.011-.011-.022A.393.393,0,0,0,2.655,2.1l-.032.075.011.118h.011v.032l-.022.011-.011-.011H2.6L2.537,2.28l-.086.043H2.429L2.419,2.3,2.4,2.215,2.376,2.2H2.365l-.011.022v.011l-.032.086a.119.119,0,0,1-.172.065H2.139l-.086-.022-.065.011-.043.011H1.827l-.043-.011" transform="translate(10.335 11.883)" fill="#fc0"/>
      <path id="Tracciato_1709" data-name="Tracciato 1709" d="M1.752,2.127l.075-.011.108-.043a.215.215,0,0,1-.043.28l-.054.022.011-.086a.153.153,0,0,0-.065-.129Z" transform="translate(11.077 12.176)" fill="#fff"/>
      <path id="Tracciato_1710" data-name="Tracciato 1710" d="M1.858,2.416H1.847c-.032-.011-.022-.054-.011-.1l.011-.011a.158.158,0,0,0-.065-.118L1.75,2.169V2.137l.043-.022h.043l.1-.032.022-.011a.232.232,0,0,1,.054.183.239.239,0,0,1-.086.14l-.065.022m-.043-.258a.188.188,0,0,1,.075.151l-.011.032-.011.032.022-.011a.176.176,0,0,0,.075-.118l-.022-.118-.108.032Z" transform="translate(11.057 12.167)" fill="#fc0"/>
      <path id="Tracciato_1711" data-name="Tracciato 1711" d="M1.821,2.145l.054-.022.1-.065A.174.174,0,0,1,2,2.307l-.043.032L1.95,2.263a.146.146,0,0,0-.1-.1l-.022-.011Z" transform="translate(11.75 12.04)" fill="#fff"/>
      <path id="Tracciato_1712" data-name="Tracciato 1712" d="M1.98,2.381H1.97l-.022-.086V2.284c-.011-.043-.065-.075-.086-.086H1.851L1.83,2.187l-.011-.022.065-.043h.011l.075-.054L2,2.058a.188.188,0,0,1,.075.151.138.138,0,0,1-.043.129l-.054.043m-.086-.215a.159.159,0,0,1,.1.108v.054L2,2.316a.1.1,0,0,0,.032-.108l-.043-.1-.086.054Z" transform="translate(11.731 12.03)" fill="#fc0"/>
      <path id="Tracciato_1713" data-name="Tracciato 1713" d="M1.889,2.131,1.824,2.12l-.118-.043a.215.215,0,0,0,.043.28l.054.022-.011-.086a.188.188,0,0,1,.065-.129l.032-.022Z" transform="translate(10.305 12.215)" fill="#fff"/>
      <path id="Tracciato_1714" data-name="Tracciato 1714" d="M1.824,2.419,1.76,2.4a.21.21,0,0,1-.086-.14.232.232,0,0,1,.043-.172l.022-.011.108.043h.032l.054.022v.022l-.022.022L1.9,2.193a.181.181,0,0,0-.065.118l.011.022-.011.086Zm-.086-.291-.022.118.065.108.022.022V2.344l-.011-.022a.194.194,0,0,1,.075-.161H1.846l-.108-.032" transform="translate(10.283 12.196)" fill="#fc0"/>
      <path id="Tracciato_1715" data-name="Tracciato 1715" d="M1.834,2.144l-.022-.011L1.834,2.1l.032-.022.022-.011.054-.011.022.011L1.942,2.1l-.032.011-.022.011-.043.022Z" transform="translate(11.671 12.028)" fill="#fc0"/>
      <path id="Tracciato_1716" data-name="Tracciato 1716" d="M1.833,2.107H1.822L1.8,2.085V2.064h.108l.022.011L1.9,2.107H1.833Z" transform="translate(11.553 12.086)" fill="#fc0"/>
      <path id="Tracciato_1717" data-name="Tracciato 1717" d="M1.827,2.119H1.805L1.784,2.1l.011-.022h.022l.075-.011.022.022L1.9,2.108l-.075.011" transform="translate(11.387 12.098)" fill="#fc0"/>
      <path id="Tracciato_1718" data-name="Tracciato 1718" d="M1.749,2.121,1.728,2.11l.022-.032h.086l.022.022-.043.022H1.749" transform="translate(10.838 12.226)" fill="#fc0"/>
      <path id="Tracciato_1719" data-name="Tracciato 1719" d="M1.821,2.122H1.735L1.713,2.1l.011-.022h.1l.022.022-.022.022" transform="translate(10.699 12.236)" fill="#fc0"/>
      <path id="Tracciato_1720" data-name="Tracciato 1720" d="M1.764,2.132l-.043-.011L1.7,2.11l.022-.032.065.011h.022l.022.011-.011.032H1.764Z" transform="translate(10.568 12.222)" fill="#fc0"/>
      <path id="Tracciato_1721" data-name="Tracciato 1721" d="M1.983,2.442c.011-.032.054-.054.022-.1l-.043-.011L1.929,2.4l-.011.043H1.843V2.324l-.022-.043-.032.054L1.767,2.4l-.043.011L1.713,2.3l.043-.1V2.087L1.7,2.152l-.022.1L1.627,2.3l-.075.032L1.509,2.4l.054.043h.075l.032-.011.054.043h.065L1.81,2.5l.054-.011.054.022.043.022c.043-.011.022-.054.022-.086M1.66,2.388H1.617c-.043-.022.011-.054.032-.043l.011.043" transform="translate(8.704 12.313)" fill="#fc0"/>
      <path id="Tracciato_1722" data-name="Tracciato 1722" d="M2.007,2.415,2,2.361V2.307l-.032-.032-.022.054V2.4L1.9,2.415l-.032-.1.011-.108c0-.032.011-.1-.032-.108l-.032.075v.1L1.77,2.34l-.054.043-.022.075.065.032.065-.022.043-.011.054.022L2,2.426l.011-.011m-.215.011c-.043-.011-.011-.043.022-.043l.022.022-.043.022" transform="translate(10.52 12.469)" fill="#fc0"/>
      <path id="Tracciato_1723" data-name="Tracciato 1723" d="M1.572,2.112l-.022.022-.032-.022.011-.022.043.022" transform="translate(8.793 12.345)" fill="#fc0"/>
      <path id="Tracciato_1724" data-name="Tracciato 1724" d="M1.57,2.121l-.022.022-.032-.022L1.548,2.1l.022.022" transform="translate(8.771 12.434)" fill="#fc0"/>
      <path id="Tracciato_1725" data-name="Tracciato 1725" d="M1.572,2.149,1.55,2.17l-.032-.022.011-.022.043.022" transform="translate(8.793 12.704)" fill="#fc0"/>
      <path id="Tracciato_1726" data-name="Tracciato 1726" d="M1.58,2.151l-.022.022-.032-.022.032-.022.022.022" transform="translate(8.874 12.727)" fill="#fc0"/>
      <path id="Tracciato_1727" data-name="Tracciato 1727" d="M1.594,2.154l-.022.022-.032-.022.032-.022.022.022" transform="translate(9.013 12.755)" fill="#fc0"/>
      <path id="Tracciato_1728" data-name="Tracciato 1728" d="M2.144,2.156V2.1l-.032.011-.022.1a.705.705,0,0,1,0,.151l-.011.054-.011.075-.032-.022-.022-.054-.054-.022.065-.043c.043-.011.011-.054-.011-.075L1.95,2.188l-.043-.022L1.864,2.2l-.075.054L1.767,2.3l.043.011.011.043-.108-.032L1.7,2.242l-.054.032.011.086-.043.075-.065.011.011.043a.188.188,0,0,0,.129-.043c.054-.032.1,0,.151-.022.022-.011.043-.065.065-.022l.022.043.022.011.011.065c.022.065.108.065.161.022l.011-.108-.011-.161.022-.118m-.269.129L1.9,2.263l.022-.011.032.022c.022.054-.086.065-.075.011" transform="translate(9.124 12.459)" fill="#fc0"/>
      <path id="Tracciato_1729" data-name="Tracciato 1729" d="M1.684,2.22a.261.261,0,0,0,0,.129l-.011.1-.032.032-.032-.043.022-.065a.705.705,0,0,0,0-.151v-.1L1.652,2.1l.032.032.043.043L1.7,2.21l-.011.011" transform="translate(9.681 12.459)" fill="#fc0"/>
      <path id="Tracciato_1730" data-name="Tracciato 1730" d="M2.44,2.171l-.1.022-.054.043-.011.054H2.236l.011-.032C2.29,2.214,2.225,2.2,2.2,2.2l-.183-.022H1.978l-.022-.043-.022-.022-.043.022-.022.054.011.065-.054.011-.032-.032-.011-.043-.032-.022v.022l-.032.022.011.032.032.086L1.7,2.386,1.612,2.4c-.011.043.108.022.129.022l.075-.054L1.9,2.343a.519.519,0,0,1,.129,0h.032l.022.075.054.032v.022l.043.022L2.2,2.451l.032-.011.022-.065.054-.011H2.4L2.451,2.3V2.225L2.44,2.171m-.258.194H2.139l.011-.032L2.074,2.3H2l-.054-.011-.011-.022L2,2.257h.129a.057.057,0,0,1,.065.065l-.011.043m.2-.075-.043-.022.043.022" transform="translate(9.7 12.606)" fill="#fc0"/>
      <path id="Tracciato_1731" data-name="Tracciato 1731" d="M1.739,2.13l-.022.022L1.7,2.13l.022-.022.022.022" transform="translate(10.529 12.518)" fill="#fc0"/>
      <path id="Tracciato_1732" data-name="Tracciato 1732" d="M1.75,2.138l-.022.032L1.7,2.138l.032-.022.022.022" transform="translate(10.528 12.599)" fill="#fc0"/>
      <path id="Tracciato_1733" data-name="Tracciato 1733" d="M1.761,2.174l-.032.032-.022-.032.022-.032.032.032" transform="translate(10.637 12.848)" fill="#fc0"/>
      <path id="Tracciato_1734" data-name="Tracciato 1734" d="M1.771,2.174l-.011.032-.043-.032.022-.032.032.032" transform="translate(10.738 12.848)" fill="#fc0"/>
      <path id="Tracciato_1735" data-name="Tracciato 1735" d="M1.793,2.248c-.022-.032-.054-.054-.043-.1L1.8,2.119l.011.043.022.043.022.043a.141.141,0,0,1-.032.129h-.1l.043-.032.022-.1" transform="translate(10.842 12.625)" fill="#fc0"/>
      <path id="Tracciato_1736" data-name="Tracciato 1736" d="M2.627,2.4l-.065-.011-.022.022L2.5,2.379l-.022-.043-.022-.043-.011-.086A.1.1,0,0,0,2.39,2.12L2.3,2.088l-.043.075.022.022.032-.022.086.043v.108l.011.032.022.032-.022.032-.054-.022h-.1L2.2,2.454l-.011-.032-.032-.054-.086-.032-.032-.086L2,2.271l-.032.043L2,2.336v.043l-.032.032-.032.043-.011.054L1.884,2.5l-.011-.1-.054.032-.065.054v.065l.043.032.043.011-.011.043-.086.043h.065l.054-.011.032-.043.011-.043.065-.032.075.022.075.075L2.2,2.615l.011-.043.022-.043.043.022.043.011a.1.1,0,0,0,.1-.054l.043-.032h.054l.054-.011.032-.022.043-.011L2.627,2.4m-.818.14L1.83,2.5l-.022.043M2.035,2.5,2,2.508l.022-.065.011.054m.075-.075c.032.011.032.075-.011.065-.022-.011-.032-.065.011-.065m.043.14A.029.029,0,1,1,2.1,2.54c.022-.032.065-.022.054.022m.161-.043A.039.039,0,0,1,2.3,2.443l.043.032-.032.043" transform="translate(10.999 12.323)" fill="#fc0"/>
      <path id="Tracciato_1737" data-name="Tracciato 1737" d="M1.867,2.159l-.032.022L1.813,2.17l.022-.043.032.032" transform="translate(11.676 12.705)" fill="#fc0"/>
    </g>
  </g>
</svg>
