<svg xmlns="http://www.w3.org/2000/svg" xmlns:xlink="http://www.w3.org/1999/xlink" width="24" height="24" viewBox="0 0 24 24">
  <defs>
    <clipPath id="clip-path">
      <path id="Tracciato_2747" data-name="Tracciato 2747" d="M1.449,12.749a12,12,0,1,0,12-12,12,12,0,0,0-12,12" transform="translate(-1.449 -0.749)" fill="none"/>
    </clipPath>
  </defs>
  <g id="Fiji" transform="translate(-1.449 -0.749)">
    <g id="Raggruppa_50" data-name="Raggruppa 50" transform="translate(1.449 0.749)" clip-path="url(#clip-path)">
      <rect id="Rettangolo_212" data-name="Rettangolo 212" width="47.677" height="23.839" transform="translate(-15.595 0.086)" fill="#51b5ea"/>
      <rect id="Rettangolo_213" data-name="Rettangolo 213" width="23.839" height="11.892" transform="translate(-11.451 0.086)" fill="#002870"/>
      <path id="Tracciato_2510" data-name="Tracciato 2510" d="M24.223,2.135V.757h-2.68l-7.3,3.659V.757h-3.9V4.373L3.064.757H.385v1.27L5.83,4.75H.385V8.657h5.4l-5.4,2.7v1.27h2.68l7.286-3.616V12.65h3.9V8.969l7.3,3.659h2.68V11.25L18.982,8.657h5.241V4.75H18.95Z" transform="translate(-11.84 -0.669)" fill="#fff"/>
      <path id="Tracciato_2511" data-name="Tracciato 2511" d="M24.223,5.546H13.472V.757H11.136V5.546H.385V7.87H11.136v4.778h2.335V7.87H24.223Z" transform="translate(-11.84 -0.676)" fill="#d61126"/>
      <path id="Tracciato_2512" data-name="Tracciato 2512" d="M3.6,1.5H1.875l7.8,3.9V4.6Z" transform="translate(2.709 6.561)" fill="#d61126"/>
      <path id="Tracciato_2513" data-name="Tracciato 2513" d="M1.73,4.653H3.452l7.641-3.9H9.532Z" transform="translate(1.292 -0.668)" fill="#d61126"/>
      <path id="Tracciato_2514" data-name="Tracciato 2514" d="M2.967,1.309S2.913,5.861,2.9,7.756C2.891,9.9,4.29,12.093,7.422,13.277c3.121-1.184,4.52-3.379,4.509-5.521-.011-1.894-.043-6.447-.043-6.447Z" transform="translate(12.736 4.718)" fill="#fff"/>
      <path id="Tracciato_2515" data-name="Tracciato 2515" d="M7.412,13.278c.312-.118.872-.377.872-.377L8.263,8.833H11.8a9.441,9.441,0,0,0,.118-1.087v-.6L8.273,7.111,8.252,4.453H11.9L11.879,1.31H2.946L2.925,4.453H6.573L6.551,7.111,2.9,7.143v.6a9.441,9.441,0,0,0,.118,1.087H6.562L6.541,12.9s.56.258.872.377" transform="translate(12.745 4.728)" fill="#d21034"/>
      <path id="Tracciato_2516" data-name="Tracciato 2516" d="M7.422,13.308h0A7.579,7.579,0,0,1,3.989,10.9,5.015,5.015,0,0,1,2.9,7.765c.011-1.873.043-6.393.043-6.436l.011-.022h8.933l.011.022c0,.043.043,4.563.054,6.436A5.147,5.147,0,0,1,10.866,10.9a7.638,7.638,0,0,1-3.433,2.411ZM2.978,1.34c0,.269-.043,4.6-.054,6.425-.011,2.368,1.668,4.434,4.5,5.521,2.83-1.087,4.509-3.153,4.5-5.521,0-1.83-.043-6.156-.043-6.425Z" transform="translate(12.735 4.708)" fill="#1d1d1b"/>
      <path id="Tracciato_2517" data-name="Tracciato 2517" d="M3.617,2.59l-.011.054-.032.022a.183.183,0,0,0-.086.14l.065-.065c.118-.054.237.011.366.043a1.265,1.265,0,0,0,.721-.011c.043-.022.1-.043.1-.086L4.715,2.6a.848.848,0,0,1-.022-.463.691.691,0,0,1,.183-.377L4.941,1.7A.15.15,0,0,0,4.909,1.5a.241.241,0,0,0-.2-.054.334.334,0,0,0-.194.1.436.436,0,0,0-.118.366l.086-.075a.1.1,0,0,1,.1-.022L4.532,1.9a.625.625,0,0,0-.011.344c.032.129.022.248-.108.3a.566.566,0,0,1-.4.011c-.14-.043-.248-.151-.387-.172a.314.314,0,0,0-.172.011.2.2,0,0,0-.1.129.387.387,0,0,1,.237-.1l.075.011.022.065-.108.022a.153.153,0,0,0-.161.129.16.16,0,0,1,.161-.075l.032.011" transform="translate(17.197 6.052)" fill="#ffd100"/>
      <path id="Tracciato_2518" data-name="Tracciato 2518" d="M4.273,2.844a1.213,1.213,0,0,1-.344-.054l-.075-.022a.629.629,0,0,0-.194-.043l-.1.022L3.5,2.812v.022l-.011-.022a.164.164,0,0,1,.075-.129l.022-.011.032-.032V2.6l-.011-.011H3.573a.184.184,0,0,0-.14.075l-.011.032V2.65a.164.164,0,0,1,.172-.129h.086L3.67,2.446l-.054-.011H3.606a.463.463,0,0,0-.237.1l-.011.011V2.532a.228.228,0,0,1,.108-.14.3.3,0,0,1,.172-.011.6.6,0,0,1,.226.1l.161.075.183.032a.466.466,0,0,0,.2-.043c.129-.054.14-.151.118-.291L4.52,2.22a.513.513,0,0,1,.011-.312L4.542,1.9l.032-.065-.086.022-.075.054-.022.011a.453.453,0,0,1,.129-.377.339.339,0,0,1,.183-.1h.065a.187.187,0,0,1,.151.054.157.157,0,0,1,.043.2l-.054.054-.022.022a.659.659,0,0,0-.183.366.767.767,0,0,0,.032.452v.011l.022.086c-.011.043-.043.065-.108.086a1.155,1.155,0,0,1-.377.065m-.613-.129a.629.629,0,0,1,.194.043l.075.022a1.209,1.209,0,0,0,.344.043,1.181,1.181,0,0,0,.377-.054l.1-.075-.022-.075V2.607A.764.764,0,0,1,4.7,2.134a.552.552,0,0,1,.172-.366L4.9,1.746,4.951,1.7a.165.165,0,0,0-.032-.194.257.257,0,0,0-.151-.054H4.7a.343.343,0,0,0-.172.1.412.412,0,0,0-.118.344l.065-.054h.011c.032-.022.054-.043.1-.032,0,0,.011.011-.032.086l-.011.011a.482.482,0,0,0-.011.3l.011.043c.022.118.022.248-.118.3a.513.513,0,0,1-.215.043l-.183-.022-.172-.086a.555.555,0,0,0-.215-.1.451.451,0,0,0-.172.011.171.171,0,0,0-.086.108.347.347,0,0,1,.226-.086h.011l.065.011L3.7,2.51l-.054.022H3.595a.14.14,0,0,0-.151.1.178.178,0,0,1,.129-.054h.011l.043.022.011.043-.054.043-.075.1.043-.043.108-.022" transform="translate(17.187 6.046)" fill="#1d1d1b"/>
      <path id="Tracciato_2519" data-name="Tracciato 2519" d="M7.454,2.041l-.022-.118a.529.529,0,0,0-.312-.258A1.123,1.123,0,0,0,6.5,1.611l-.355.075a4.647,4.647,0,0,1-1.022.108h-.1a6.558,6.558,0,0,1-.786-.108h-.1l-.086.086c-.086.065-.194-.011-.291-.043a.891.891,0,0,0-.377-.054L3.278,1.7a.066.066,0,0,0-.032.1.147.147,0,0,1,.1-.226.27.27,0,0,1-.054-.2.21.21,0,0,0,.161.151.549.549,0,0,0,.226-.032l.3-.043.14.022a.081.081,0,0,1,.011.129,4.119,4.119,0,0,0,1.7.075,6.814,6.814,0,0,1,.8-.129,1.171,1.171,0,0,1,.764.172.521.521,0,0,1-.075-.194.251.251,0,0,1,.065-.194c.011.129.032.291.161.323l.108.011a.351.351,0,0,1,.291.2A.35.35,0,0,0,7.69,1.75l-.065.011-.032.086c-.011.14.065.312-.032.441a.438.438,0,0,1-.237.108,1.773,1.773,0,0,1-.344.065L6.872,2.45c-.043-.022-.075-.054-.065-.1a.135.135,0,0,1,.118-.065,1.781,1.781,0,0,0,.344-.032.283.283,0,0,0,.183-.215" transform="translate(15.836 4.825)" fill="#ffd100"/>
      <path id="Tracciato_2520" data-name="Tracciato 2520" d="M6.946,2.472,6.87,2.461c-.032-.022-.075-.065-.054-.108s.086-.065.118-.065l.108-.011a.525.525,0,0,0,.226-.032.267.267,0,0,0,.194-.2l-.022-.118a.614.614,0,0,0-.323-.248A1.179,1.179,0,0,0,6.5,1.621l-.194.043L6.149,1.7a5.545,5.545,0,0,1-.969.118H5.127L5.03,1.8a5.367,5.367,0,0,1-.581-.075l-.2-.032-.054-.011L4.148,1.7l-.054.043-.032.043L3.975,1.8a.32.32,0,0,1-.161-.054L3.782,1.74a.993.993,0,0,0-.387-.054H3.383l-.1.022-.043.043.022.043L3.254,1.8a.13.13,0,0,1-.022-.151.171.171,0,0,1,.108-.086.27.27,0,0,1-.054-.2L3.3,1.32v.043a.184.184,0,0,0,.161.14l.032.011.172-.022.022-.011.3-.043h.022l.118.022.043.086-.011.032a3.534,3.534,0,0,0,1.012.14,4.526,4.526,0,0,0,.667-.054l.269-.054a3.886,3.886,0,0,1,.527-.075l.108-.011a1.135,1.135,0,0,1,.635.172.532.532,0,0,1-.054-.172.219.219,0,0,1,.065-.2H7.4v.011c0,.183.054.291.151.312l.075.011h.032a.384.384,0,0,1,.3.2l.011.043-.022-.032A.371.371,0,0,0,7.7,1.761l-.065.022L7.6,1.858l.011.151a.417.417,0,0,1-.032.28.387.387,0,0,1-.226.118H7.333a1.773,1.773,0,0,1-.344.065H6.946m-.237-.883a1.061,1.061,0,0,1,.409.075.57.57,0,0,1,.334.258l.022.118a.292.292,0,0,1-.194.226.883.883,0,0,1-.237.022L6.935,2.3c-.032,0-.1.011-.108.065-.011.032.011.065.054.086l.065.011h.043A3.053,3.053,0,0,0,7.323,2.4h.032a.41.41,0,0,0,.215-.108.417.417,0,0,0,.032-.28.37.37,0,0,1-.011-.151l.043-.1L7.7,1.75a.37.37,0,0,1,.226.086.354.354,0,0,0-.269-.172H7.635l-.1-.011c-.1-.032-.151-.129-.151-.312a.179.179,0,0,0-.054.172.514.514,0,0,0,.065.194l.022.032-.032-.022a1.067,1.067,0,0,0-.646-.172H6.634a2.839,2.839,0,0,0-.527.086l-.269.043a4.526,4.526,0,0,1-.667.054A4.181,4.181,0,0,1,4.137,1.6l-.011-.011h.011l.022-.043-.032-.075-.1-.022H3.986l-.3.043L3.674,1.5,3.5,1.524H3.47A.208.208,0,0,1,3.3,1.406a.357.357,0,0,0,.054.172h0a.128.128,0,0,0-.108.086V1.75L3.276,1.7l.108-.032h.011a1.516,1.516,0,0,1,.377.054l.043.022a.357.357,0,0,0,.161.054l.075-.022.022-.022.065-.065.032-.011h.075l.2.043a5.367,5.367,0,0,0,.581.075h.1a5.312,5.312,0,0,0,1.022-.108l.161-.043L6.5,1.611l.2-.022" transform="translate(15.827 4.825)" fill="#1d1d1b"/>
      <path id="Tracciato_2521" data-name="Tracciato 2521" d="M9,3.432l-.032.161L8.89,3.421c-.032-.054-.065-.108-.043-.151l.086-.054h.1l.194.011h.043a.115.115,0,0,0,.054-.118.7.7,0,0,0-.172-.344L9.03,2.646a.358.358,0,0,0-.237-.032l-.237.054a.654.654,0,0,1-.538-.151,2.338,2.338,0,0,0-.387-.344v.118a.575.575,0,0,0,.054.194L7.62,2.431l-.043-.086c-.043-.086-.054-.258-.14-.3l-.011-.011-.011.022c.011.172,0,.334.011.517a1.783,1.783,0,0,0-.151-.4l-.086-.118-.011-.011-.011.011c-.022.129-.043.248-.075.377a.366.366,0,0,0-.129-.312.405.405,0,0,0-.334.043,9.465,9.465,0,0,1-3.207.775A.389.389,0,0,1,3.229,2.9a.29.29,0,0,1-.108-.291.43.43,0,0,1,.108-.248c.129-.129.334-.075.517-.086a1.324,1.324,0,0,0,.42-.086c.775-.215,1.55-.43,2.325-.657a2.531,2.531,0,0,1,.8-.14A.933.933,0,0,1,8,1.732a1.363,1.363,0,0,1,.161.334.545.545,0,0,0,.183.258.5.5,0,0,0,.355.022,1.773,1.773,0,0,1,.344-.065.194.194,0,0,1,.172.065c.065.086-.011.215.054.3a2,2,0,0,0,.226.3.281.281,0,0,1,.075.183c.022.129-.172.269-.3.215l-.011.2c-.032-.065-.065-.194-.129-.172-.043.011-.022.118-.032.172-.043-.108-.065-.161-.1-.118" transform="translate(14.852 5.576)" fill="#ffd100"/>
      <path id="Tracciato_2522" data-name="Tracciato 2522" d="M8.967,3.614l-.032-.075-.043-.1L8.881,3.42c-.022-.054-.054-.108-.032-.14l.086-.054H9.29l.032-.108c0-.129-.086-.215-.172-.334l-.108-.108a.255.255,0,0,0-.237-.032l-.118.011-.129.022-.1.011a.648.648,0,0,1-.441-.151l-.129-.129a.939.939,0,0,0-.248-.215V2.3a.835.835,0,0,0,.054.194H7.686l-.032-.032H7.632l-.054-.086V2.355l-.043-.108a.281.281,0,0,0-.1-.194l-.011.022.011.28v.237H7.428a1.868,1.868,0,0,0-.151-.409L7.2,2.075H7.191l-.032.108-.054.258-.011.054V2.441a.406.406,0,0,0-.118-.312l-.108-.022a.436.436,0,0,0-.226.075,9.463,9.463,0,0,1-3.218.775H3.371l-.14-.032a.314.314,0,0,1-.108-.3.407.407,0,0,1,.108-.248.448.448,0,0,1,.3-.086h.1a.519.519,0,0,0,.129,0,1.913,1.913,0,0,0,.42-.075l2.314-.657A2.3,2.3,0,0,1,7.3,1.4a.933.933,0,0,1,.71.355,1.3,1.3,0,0,1,.161.323.45.45,0,0,0,.194.248.308.308,0,0,0,.183.054L8.7,2.355l.108-.032a.917.917,0,0,1,.248-.032h.011a.185.185,0,0,1,.161.065.291.291,0,0,1,.032.161.154.154,0,0,0,.022.14,1.023,1.023,0,0,0,.161.215l.065.086a.481.481,0,0,1,.086.183.217.217,0,0,1-.054.151.276.276,0,0,1-.194.075H9.29l-.011.086-.011.108v.032L9.258,3.56l-.011-.022c-.022-.065-.054-.14-.1-.14H9.139l-.022.108V3.56l-.011.032L9.1,3.56l-.054-.118-.022.011-.043.161Zm0-.387H8.935l-.065.065.022.129H8.9l.043.118.022.054L9,3.452l.032-.032.075.118V3.506C9.1,3.452,9.1,3.4,9.128,3.388H9.15c.054,0,.086.086.108.151h0l.011-.086V3.345h.011l.065.022a.265.265,0,0,0,.183-.086.253.253,0,0,0,.054-.14.481.481,0,0,0-.086-.183L9.43,2.893a1.152,1.152,0,0,1-.161-.237.154.154,0,0,1-.022-.14.291.291,0,0,0-.032-.161c-.032-.054-.1-.054-.151-.054H9.053a.684.684,0,0,0-.248.054l-.1.022-.161.011a.369.369,0,0,1-.194-.043.5.5,0,0,1-.194-.269A1.3,1.3,0,0,0,8,1.752a.869.869,0,0,0-.71-.334,3.164,3.164,0,0,0-.786.14l-2.325.657a1.817,1.817,0,0,1-.42.086H3.532a.411.411,0,0,0-.291.075.394.394,0,0,0-.108.248c0,.054-.011.226.108.28l.129.032h.043a8.934,8.934,0,0,0,3.218-.775.63.63,0,0,1,.237-.054l.108.022c.086.032.118.172.129.28l.043-.226.022-.108.011-.022h.011l.011.022.086.108a2.78,2.78,0,0,1,.14.334V2.355l-.011-.28.011-.032h.011l.011.011c.054.022.086.108.1.194l.043.108.043.075.022.032h.011L7.632,2.3l.011-.118a1.273,1.273,0,0,1,.258.2l.129.129a.63.63,0,0,0,.43.161h.1l.129-.022.118-.032a.339.339,0,0,1,.237.032c.054.022.086.075.118.108a.682.682,0,0,1,.172.355c0,.032,0,.086-.043.108l-.065.011a.585.585,0,0,1-.194,0l-.011-.011H8.967" transform="translate(14.85 5.566)" fill="#1d1d1b"/>
      <path id="Tracciato_2523" data-name="Tracciato 2523" d="M3.527,1.813a.344.344,0,0,1-.3.377.351.351,0,0,1-.3-.377.34.34,0,0,1,.3-.366.333.333,0,0,1,.3.366" transform="translate(12.95 6.065)" fill="#fff"/>
      <path id="Tracciato_2524" data-name="Tracciato 2524" d="M3.235,2.2a.355.355,0,0,1-.312-.387.341.341,0,0,1,.312-.366.341.341,0,0,1,.312.366.355.355,0,0,1-.312.387m0-.743a.329.329,0,0,0-.291.355.333.333,0,0,0,.291.366.333.333,0,0,0,.291-.366.329.329,0,0,0-.291-.355" transform="translate(12.941 6.055)" fill="#1d1d1b"/>
      <path id="Tracciato_2525" data-name="Tracciato 2525" d="M3.112,1.726l.011.022v.065l.011.043.022-.032.022-.054A.291.291,0,0,1,3.36,1.6a.57.57,0,0,1,.355-.022.639.639,0,0,1,.28.28l.065.075a.113.113,0,0,0,.161-.075,1.29,1.29,0,0,0-.42-.377.4.4,0,0,0-.194-.054.537.537,0,0,0-.226.054l-.151.065-.118.065L3.026,1.6l-.043.043-.043.108.022.054.011-.011L3,1.715l.022.011-.011.065v.065l.054-.043.022-.065L3.1,1.726Z" transform="translate(13.107 5.829)" fill="#ffd100"/>
      <path id="Tracciato_2526" data-name="Tracciato 2526" d="M4.112,1.949l-.054-.011-.065-.075V1.852a.641.641,0,0,0-.28-.269L3.6,1.562a.915.915,0,0,0-.237.043.361.361,0,0,0-.172.161L3.176,1.8l-.011.032-.011.032H3.133l-.022-.032.011-.043V1.756l-.011-.022L3.1,1.756l-.011.022-.011.043-.054.043H3.014V1.8l.011-.065-.011-.011-.022.043-.011.022-.022.022L2.939,1.8V1.756l.043-.118.043-.043h.054L3.1,1.6l.1-.043L3.24,1.54l.14-.054L3.4,1.476a.445.445,0,0,1,.2-.054.41.41,0,0,1,.2.065,1.087,1.087,0,0,1,.42.377.117.117,0,0,1-.118.086m-.517-.4.118.022A.638.638,0,0,1,4,1.852l.065.075.043.011a.117.117,0,0,0,.108-.075A1.211,1.211,0,0,0,3.811,1.5a.41.41,0,0,0-.2-.065.445.445,0,0,0-.2.054L3.38,1.5l-.14.054-.022.011-.108.054H3.068L3.047,1.6,3,1.626l-.054.129v.032l.011.011.011-.011.011-.022.011-.032.022-.022.022.022L3.025,1.8l-.011.043.011.011.043-.043.011-.032V1.756l.011-.011V1.723h.032l.011.032v.022l-.011.032.011.043.022-.022V1.809l.011-.032a.4.4,0,0,1,.194-.183A.915.915,0,0,1,3.6,1.551" transform="translate(13.097 5.821)" fill="#1d1d1b"/>
      <path id="Tracciato_2527" data-name="Tracciato 2527" d="M3.111,1.684l.011-.032.011-.086.022-.054.011.054.022.075a.346.346,0,0,0,.161.226.465.465,0,0,0,.355.065.741.741,0,0,0,.334-.323l.075-.1c.065-.043.151.022.151.108A1.21,1.21,0,0,1,3.8,2.06a.55.55,0,0,1-.215.065.551.551,0,0,1-.226-.108l-.14-.1L3.09,1.834H3.014L2.961,1.78,2.939,1.63l.022-.065.022.022.011.1h.022a.148.148,0,0,0,0-.1L3.025,1.5l.054.065.011.086v.022Z" transform="translate(13.097 6.56)" fill="#ffd100"/>
      <path id="Tracciato_2528" data-name="Tracciato 2528" d="M3.605,2.133H3.595a.6.6,0,0,1-.215-.086l-.022-.022-.14-.086-.032-.032L3.1,1.853H3.078l-.065-.011L2.97,1.789l-.032-.151.022-.065.011-.011.022.032L3,1.627l.011.054v.011l.011-.022V1.595c-.011-.043-.011-.075,0-.086L3.046,1.5l.054.075v.065l.011.022v.022h.011l.011-.022V1.584l.011-.075h.022l.022.054v.022l.011.054a.387.387,0,0,0,.161.226.561.561,0,0,0,.269.086l.1-.022a.8.8,0,0,0,.312-.323l.011-.011.075-.086L4.165,1.5a.119.119,0,0,1,.118.118v.011a1.317,1.317,0,0,1-.474.441.384.384,0,0,1-.2.065m-.517-.3H3.11L3.2,1.9l.032.022.14.1.022.011a.511.511,0,0,0,.2.1.632.632,0,0,0,.215-.065,1.382,1.382,0,0,0,.463-.441.115.115,0,0,0-.108-.108l-.043.011-.065.086v.011a.866.866,0,0,1-.334.334l-.1.011a.528.528,0,0,1-.269-.086.383.383,0,0,1-.172-.237l-.011-.032V1.563L3.164,1.53l-.022.043v.065l-.011.054L3.121,1.7,3.11,1.692,3.089,1.67V1.616l-.011-.043-.022-.065H3.046l-.011.075v.1L3.013,1.7,3,1.692l-.011-.043-.011-.054L2.97,1.584H2.96v.054l.022.151.043.043h.065Z" transform="translate(13.087 6.563)" fill="#1d1d1b"/>
      <path id="Tracciato_2529" data-name="Tracciato 2529" d="M3.609,1.467c-.032,0-.474.237-.592.28l.312.075-.2.248.291-.1-.022.334.183-.2.065.3.172-.215.1.258L4,2.22l.14.215.054-.312.194.172V1.951l.237.086-.14-.269.248-.011L4.6,1.671a1.332,1.332,0,0,0-.355-.161,2.8,2.8,0,0,0-.42-.054l-.215.011" transform="translate(13.858 6.153)" fill="#ffd100"/>
      <path id="Tracciato_2530" data-name="Tracciato 2530" d="M3.92,2.462H3.909l-.086-.248-.161.194-.011.011a1.3,1.3,0,0,1-.075-.291L3.4,2.322H3.393V2.312L3.414,2l-.28.086V2.075l.183-.237-.3-.075V1.752c.065-.022.237-.108.377-.172l.215-.108a.535.535,0,0,1,.226-.011l.129.011a1.355,1.355,0,0,1,.291.043,1.672,1.672,0,0,1,.355.161l.032.022.075.065h.032l-.011.011-.248.011.14.258-.011.011-.226-.086v.344H4.383L4.2,2.15l-.054.291v.011H4.135l-.129-.2Zm-.1-.269h0l.1.248L4,2.226V2.215l.011.011.129.2.054-.3H4.2l.183.172V1.946h.011l.215.086L4.48,1.774l.011-.011h.215l-.065-.054L4.609,1.7a1.378,1.378,0,0,0-.366-.172l-.28-.043-.129-.011-.215.011-.226.108-.355.172.3.065v.011l-.183.226.269-.086v.011L3.414,2.3l.161-.194h.011l.065.291L3.812,2.2Z" transform="translate(13.849 6.137)" fill="#1d1d1b"/>
      <path id="Tracciato_2531" data-name="Tracciato 2531" d="M3.413,1.451l-.366.161.215.043-.118.129.161-.043-.011.172.1-.108.043.161.1-.118.054.14.043-.118.086.108.032-.161.108.1V1.72l.129.043-.075-.14h.14l-.237-.14Z" transform="translate(14.151 6.106)" fill="#ffd100"/>
      <path id="Tracciato_2532" data-name="Tracciato 2532" d="M3.585,2h0l-.054-.129-.086.1-.011.011-.043-.151-.086.1H3.295V1.914l.011-.161L3.144,1.8V1.785l.108-.118-.2-.043V1.612l.366-.161.4.022.237.151h.011l-.011.011H3.919l.065.14v.011l-.129-.054v.194l-.108-.1-.032.161H3.7l-.065-.108L3.6,2Zm-.054-.151h.011l.043.129.043-.108h.011l.065.1.032-.151h.011l.1.086V1.731l.011-.011.118.043L3.9,1.634V1.623h.129l-.215-.129-.4-.032-.344.151.194.043v.011l-.1.118.14-.054.011.011L3.305,1.9l.086-.1H3.4l.032.151.086-.1.011-.011" transform="translate(14.151 6.104)" fill="#1d1d1b"/>
      <path id="Tracciato_2533" data-name="Tracciato 2533" d="M3.716,1.668l.054-.011A.13.13,0,0,0,3.78,1.55l-.043-.043A.611.611,0,0,0,3.5,1.431L3.264,1.4H3.221l-.032.022c-.043-.011-.108-.022-.118.022a.059.059,0,0,0,.054.075h.032l-.043.065-.032.075a.941.941,0,0,0,.054.387c.011.086.022.183.108.226L3.36,2.26l.065-.075L3.5,2.163a.2.2,0,0,0,.151-.14.885.885,0,0,0,.022-.291L3.7,1.679Z" transform="translate(14.354 5.597)" fill="#ffd100"/>
      <path id="Tracciato_2534" data-name="Tracciato 2534" d="M3.3,2.291h0L3.25,2.281c-.1-.032-.1-.14-.108-.226l-.032-.14a.438.438,0,0,1-.022-.237l.032-.086.011-.011.032-.043H3.132l-.043-.011-.022-.054a.069.069,0,0,1,.075-.054H3.2L3.218,1.4h.054l.151.032.1.011a.7.7,0,0,1,.226.075l.054.043c.022.043,0,.086,0,.108l-.022.011-.011.011H3.724L3.7,1.742l-.011.086a.629.629,0,0,1-.022.2.234.234,0,0,1-.151.151H3.487l-.054.022L3.4,2.237l-.011.022L3.3,2.291m-.14-.764h.011l-.032.054-.011.011L3.1,1.678a.438.438,0,0,0,.022.237l.032.14c.011.086.022.183.108.215l.022.011.086-.022.022-.011.043-.054.054-.022h.032c.075-.011.118-.086.14-.14a.629.629,0,0,0,.022-.2V1.742l.032-.065h.065V1.656l.011-.086-.043-.043a.791.791,0,0,0-.226-.075l-.108-.011-.14-.022-.032-.011-.032.022v.011H3.2L3.142,1.43l-.054.032v.032l.043.032h.032Z" transform="translate(14.346 5.587)" fill="#1d1d1b"/>
      <path id="Tracciato_2535" data-name="Tracciato 2535" d="M3.08,1.421l.032.011.054.022.032.022.043.022H3.21l-.043-.011L3.1,1.442,3.08,1.432Z" transform="translate(14.477 5.809)" fill="#1d1d1b"/>
      <path id="Tracciato_2536" data-name="Tracciato 2536" d="M3.078,1.453h.043l.108.032.075.043.043.022H3.3L3.2,1.518l-.1-.043-.011-.011-.011-.011" transform="translate(14.454 6.124)" fill="#1d1d1b"/>
      <path id="Tracciato_2537" data-name="Tracciato 2537" d="M3.1,1.431h.022l.054.011.043.032.011.011H3.209l-.043-.022-.043-.022Z" transform="translate(14.682 5.909)" fill="#1d1d1b"/>
      <path id="Tracciato_2538" data-name="Tracciato 2538" d="M3.088,1.444h.022l.054.022.032.011.022.032L3.2,1.5l-.032-.011-.054-.032-.022-.011" transform="translate(14.549 6.035)" fill="#1d1d1b"/>
      <path id="Tracciato_2539" data-name="Tracciato 2539" d="M3.1,1.575h0l-.011-.011L3.1,1.531l.011-.043V1.467l.011-.011.011-.011.011.011v.022l-.011.011v.032l-.011.032L3.1,1.575" transform="translate(14.565 6.049)" fill="#1d1d1b"/>
      <path id="Tracciato_2540" data-name="Tracciato 2540" d="M3.3,1.856a.212.212,0,0,1-.129-.065l-.022-.1c-.011-.108-.065-.215-.075-.334l.14.108H3.156L3.21,1.6v.011h.032c.054-.011.118.032.183.054l.011.011.022-.011.054-.118.011-.011L3.479,1.49l.172-.1-.032.172v.011l-.032-.011-.065.108a.335.335,0,0,1,.172.129l.151-.129L3.77,1.641H4.06c-.032.022-.258.226-.355.291l-.075.043-.1-.032L3.3,1.856" transform="translate(14.376 5.226)" fill="#ffd100"/>
      <path id="Tracciato_2541" data-name="Tracciato 2541" d="M3.63,1.995l-.1-.032h0L3.3,1.877c-.054-.022-.108-.032-.129-.075l-.022-.086h0l-.032-.161a.451.451,0,0,1-.043-.172V1.36l.011.022.14.108.011.011-.065-.011.043.118h.043a.227.227,0,0,1,.14.054h.022l.032.022.011-.022.054-.108V1.543L3.5,1.521H3.468L3.479,1.5l.172-.108.011-.011-.032.194V1.6H3.6V1.575l-.065.118A.362.362,0,0,1,3.7,1.8l.129-.108L3.77,1.661H3.759l.011-.011h.312l-.022.011-.1.086-.248.215Zm-.549-.613.043.172.032.14v.022l.022.086a.126.126,0,0,0,.118.054l.248.086.086.043L3.7,1.941a3.007,3.007,0,0,0,.258-.2l.075-.075H3.791l.065.022h.011l-.161.14H3.694a.406.406,0,0,0-.172-.129H3.511l.075-.118h.032l.022-.161L3.49,1.5v.022h.032v.032l-.054.108-.011.022-.022.011-.043-.032-.14-.032H3.21L3.2,1.608l-.054-.118V1.468H3.2l-.118-.086" transform="translate(14.376 5.216)" fill="#1d1d1b"/>
      <path id="Tracciato_2542" data-name="Tracciato 2542" d="M3.122,2.589l.075.054.086-.022L3.3,2.556A5.476,5.476,0,0,1,3.5,1.835V1.782L3.455,1.76l-.075.022-.043.065c-.1.215-.151.452-.226.678v.043Z" transform="translate(14.776 9.121)" fill="#b2802e"/>
      <path id="Tracciato_2543" data-name="Tracciato 2543" d="M3.228,2.652H3.2L3.121,2.6,3.11,2.588V2.545l.032-.118a5.127,5.127,0,0,1,.2-.57l.043-.065.065-.032.054.032v.054l-.075.28a3.2,3.2,0,0,0-.118.43l-.022.075-.065.022m.226-.883L3.39,1.8l-.032.065a3.442,3.442,0,0,0-.194.56l-.043.108v.032l.011.022.075.054h.054L3.3,2.555a2.237,2.237,0,0,1,.118-.441L3.5,1.845V1.813Z" transform="translate(14.766 9.111)" fill="#936037"/>
      <path id="Tracciato_2544" data-name="Tracciato 2544" d="M3.692,1.865c.022.054.075.172.054.215.054-.1.108-.215.237-.215a.4.4,0,0,1,.312.194l.086.172.011.086v.065L4.348,2.36c-.108-.14-.226-.312-.4-.269a.185.185,0,0,0-.118.118.688.688,0,0,0-.086.2l-.011.022-.043.022-.118-.022V2.414L3.6,2.3l.011-.1L3.6,2.08a.3.3,0,0,0-.118-.226c-.118-.086-.258.161-.377.183a.769.769,0,0,1,.226-.3.252.252,0,0,1,.183-.075A.292.292,0,0,1,3.692,1.865Z" transform="translate(14.669 8.133)" fill="#004500"/>
      <path id="Tracciato_2545" data-name="Tracciato 2545" d="M3.682,1.9c.022.043.075.172.054.215.032-.065.075-.161.161-.161L4,1.994a.714.714,0,0,1,.194.592l-.011.086a.251.251,0,0,1-.14-.172A.839.839,0,0,1,4,2.274l-.054-.129-.022-.011H3.919a.3.3,0,0,0-.108.129.391.391,0,0,0-.075.183l-.011.022L3.7,2.489l-.14-.032.022-.129.011-.1-.011-.118a.3.3,0,0,0-.118-.226c-.118-.086-.258.161-.377.183a.7.7,0,0,1,.226-.3A.252.252,0,0,1,3.5,1.693a.3.3,0,0,1,.183.194Z" transform="translate(14.571 8.446)" fill="#004500"/>
      <path id="Tracciato_2546" data-name="Tracciato 2546" d="M3.7,1.828c.022.043.075.172.054.215.086-.161.2-.344.4-.344l.086.022a.3.3,0,0,1,.14.183.275.275,0,0,1,0,.161L4.312,2c-.022-.086-.054-.151-.151-.151a.173.173,0,0,0-.118.054l-.1.118-.1.129a1.1,1.1,0,0,0-.086.226V2.4L3.72,2.42,3.6,2.4l-.011-.011.022-.129.011-.1-.011-.118a.4.4,0,0,0-.129-.226c-.118-.075-.258.183-.377.2a.9.9,0,0,1,.215-.312.252.252,0,0,1,.183-.075c.1.011.161.108.194.183Z" transform="translate(14.737 7.879)" fill="#004500"/>
      <path id="Tracciato_2547" data-name="Tracciato 2547" d="M3.208,1.909h0V1.9L3.165,1.7l-.011-.011V1.683h.011l.011.022.043.161c.054-.086.14-.215.269-.183v.011c-.14-.032-.226.129-.269.215Z" transform="translate(15.196 8.316)" fill="#1d1d1b"/>
      <path id="Tracciato_2548" data-name="Tracciato 2548" d="M3.2,1.936h0V1.925l-.043-.194-.011-.011V1.71h.011v.011a.442.442,0,0,1,.054.172.217.217,0,0,1,.129-.129.128.128,0,0,1,.118.032l.011.011H3.457l-.108-.032c-.065.011-.108.1-.14.161Z" transform="translate(15.108 8.633)" fill="#1d1d1b"/>
      <path id="Tracciato_2549" data-name="Tracciato 2549" d="M3.093,2.606l.086.032L3.244,2.6l.011-.075c-.032-.226-.011-.463-.022-.7l-.022-.054-.032-.011L3.1,1.81l-.011.065a4.809,4.809,0,0,0-.022.678l.011.043Z" transform="translate(14.374 9.082)" fill="#b2802e"/>
      <path id="Tracciato_2550" data-name="Tracciato 2550" d="M3.187,2.648,3.1,2.616,3.08,2.605l-.011-.032V2.455A3.509,3.509,0,0,1,3.1,1.873l.011-.065.065-.054H3.22l.022.065.011.269a2.957,2.957,0,0,0,.022.441l-.011.065-.075.054m0-.883H3.177l-.054.043L3.1,1.884a4.959,4.959,0,0,0-.022.57v.108l.022.032v.011l.086.022v0l.065-.032V2.53a2,2,0,0,1-.011-.441L3.23,1.82V1.787l-.043-.022" transform="translate(14.366 9.072)" fill="#936037"/>
      <path id="Tracciato_2551" data-name="Tracciato 2551" d="M3.516,1.8c.032.032.118.14.108.183.022-.108.043-.226.161-.269A.4.4,0,0,1,4.13,1.8l.129.129.032.086.022.054-.075-.022c-.118-.075-.269-.2-.42-.118a.184.184,0,0,0-.075.14.732.732,0,0,0-.022.215v.011l-.032.043a.214.214,0,0,1-.118.011l-.011-.011-.011-.118-.022-.1-.032-.1a.407.407,0,0,0-.172-.183c-.14-.032-.2.237-.3.291a.731.731,0,0,1,.118-.344.238.238,0,0,1,.151-.118.266.266,0,0,1,.226.118Z" transform="translate(13.897 8.212)" fill="#004500"/>
      <path id="Tracciato_2552" data-name="Tracciato 2552" d="M3.517,1.829c.022.043.118.14.108.183.011-.065.011-.172.108-.194l.108.011c.194.065.28.291.334.474l.022.086a.244.244,0,0,1-.172-.118c-.043-.054-.065-.129-.108-.194-.022-.043-.043-.086-.1-.1H3.786a.257.257,0,0,0-.054.151.5.5,0,0,0-.022.183v.022L3.7,2.357l-.14.022-.022-.129-.011-.1-.032-.1a.354.354,0,0,0-.183-.172c-.14-.043-.2.226-.291.28a.662.662,0,0,1,.118-.344A.218.218,0,0,1,3.28,1.7.27.27,0,0,1,3.517,1.829Z" transform="translate(13.907 8.524)" fill="#004500"/>
      <path id="Tracciato_2553" data-name="Tracciato 2553" d="M3.505,1.886c.032.032.118.129.118.172a.476.476,0,0,1,.269-.42l.075-.011a.279.279,0,0,1,.183.129.193.193,0,0,1,.043.151l-.075-.054c-.043-.065-.1-.108-.172-.086l-.108.086-.054.129-.043.151a.806.806,0,0,0-.022.226v.032L3.7,2.414l-.118.022L3.57,2.424V2.414l-.022-.108-.022-.1-.043-.1a.3.3,0,0,0-.172-.172c-.14-.043-.194.237-.291.291a.681.681,0,0,1,.108-.344.3.3,0,0,1,.151-.129.281.281,0,0,1,.226.118Z" transform="translate(13.897 7.832)" fill="#004500"/>
      <path id="Tracciato_2554" data-name="Tracciato 2554" d="M3.175,1.96h0l-.1-.161-.011-.022h.011a.661.661,0,0,1,.1.14c.022-.086.065-.226.194-.248l.011.022H3.368c-.14,0-.172.194-.183.269Z" transform="translate(14.346 8.232)" fill="#1d1d1b"/>
      <path id="Tracciato_2555" data-name="Tracciato 2555" d="M3.185,1.921h0L3.164,1.91l-.075-.161-.022-.011V1.727l.022.011c.032.054.075.1.1.14.011-.065.022-.129.086-.161a.182.182,0,0,1,.108,0H3.4l-.022.011a.182.182,0,0,0-.108,0c-.065.032-.075.118-.086.183Z" transform="translate(14.346 8.616)" fill="#1d1d1b"/>
      <path id="Tracciato_2556" data-name="Tracciato 2556" d="M3.232,2.6h.086l.054-.065L3.35,2.466c-.1-.215-.151-.441-.248-.657l-.022-.043-.043-.011L3,1.831v.075a4.46,4.46,0,0,0,.194.646l.011.032.032.011" transform="translate(13.644 9.082)" fill="#b2802e"/>
      <path id="Tracciato_2557" data-name="Tracciato 2557" d="M3.284,2.605H3.241l-.022-.011L3.2,2.573l-.043-.118c-.054-.172-.118-.366-.161-.549V1.83l.022-.054.075-.022.032.054.1.248a2.652,2.652,0,0,0,.151.409l.022.065-.065.075H3.284m-.215-.839-.032.011L3,1.83l.011.075a3.527,3.527,0,0,0,.161.549l.032.1.022.032.011.011h.086L3.38,2.53l-.022-.065c-.065-.129-.108-.269-.161-.4l-.086-.258L3.09,1.777Z" transform="translate(13.624 9.072)" fill="#936037"/>
      <path id="Tracciato_2558" data-name="Tracciato 2558" d="M3.316,2c.043.022.151.086.161.14a.616.616,0,0,1,.011-.28.356.356,0,0,1,.237-.172L3.9,1.66a.92.92,0,0,1,.172,0l.011.011a.176.176,0,0,1-.161.108l-.151.011c-.151.054-.172.248-.161.387a.79.79,0,0,0,.054.215l.011.022-.022.043L3.542,2.5H3.531V2.489l-.054-.1-.043-.086L3.359,2.22a.345.345,0,0,0-.215-.108c-.14,0-.118.28-.194.366a.7.7,0,0,1,0-.366.288.288,0,0,1,.108-.161A.234.234,0,0,1,3.305,2Z" transform="translate(12.968 8.101)" fill="#004500"/>
      <path id="Tracciato_2559" data-name="Tracciato 2559" d="M3.326,2.088c.043.032.151.1.161.14a.6.6,0,0,1,.043-.334.378.378,0,0,1,.3-.183L4,1.679l-.043.065c-.075.032-.151.032-.2.1a.321.321,0,0,0-.129.183.875.875,0,0,0-.011.237.863.863,0,0,0,.054.226l.011.022L3.66,2.54l-.108.054-.065-.118-.043-.086L3.38,2.314A.359.359,0,0,0,3.154,2.2c-.14,0-.118.28-.194.366a.7.7,0,0,1,0-.366.258.258,0,0,1,.118-.161A.269.269,0,0,1,3.326,2.088Z" transform="translate(13.065 8.33)" fill="#004500"/>
      <path id="Tracciato_2560" data-name="Tracciato 2560" d="M3.319,1.949c.043.032.151.1.151.14A.8.8,0,0,1,3.5,1.82a.365.365,0,0,1,.237-.172l.183-.011a.92.92,0,0,1,.172,0v.022a.159.159,0,0,1-.161.086l-.151.022C3.631,1.8,3.6,2,3.61,2.132a.562.562,0,0,0,.043.226V2.38l-.022.043-.108.043H3.513V2.455L3.47,2.348l-.043-.1-.075-.075a.32.32,0,0,0-.215-.129c-.129,0-.129.28-.2.355a.667.667,0,0,1,.022-.355.258.258,0,0,1,.118-.161A.277.277,0,0,1,3.319,1.949Z" transform="translate(12.889 7.877)" fill="#004500"/>
      <path id="Tracciato_2561" data-name="Tracciato 2561" d="M3.133,2.033l-.011-.011L2.983,1.9l-.011-.011-.011-.011h.011l.022.011.129.1a.447.447,0,0,1,.022-.237L3.2,1.667l.011.011-.054.075a.575.575,0,0,0-.011.269Z" transform="translate(13.312 8.213)" fill="#1d1d1b"/>
      <path id="Tracciato_2562" data-name="Tracciato 2562" d="M3.143,2.043H3.132c0-.043-.1-.1-.14-.129L2.982,1.9l-.011-.011h.011L3,1.9l.129.1a.661.661,0,0,1,.043-.3h.011V1.71a.521.521,0,0,0-.032.323Z" transform="translate(13.409 8.525)" fill="#1d1d1b"/>
      <path id="Tracciato_2563" data-name="Tracciato 2563" d="M3.036,1.776H3.025l.011-.011c.065-.011.086-.032.1-.054V1.69L3.057,1.7V1.69l.075-.011h.011v.043Z" transform="translate(13.936 8.33)" fill="#1d1d1b"/>
      <path id="Tracciato_2564" data-name="Tracciato 2564" d="M3.034,1.773l-.011-.011a.15.15,0,0,0,.1-.065l-.032-.032H3.066l.011-.011.065.011v.011a.157.157,0,0,1-.108.1" transform="translate(13.917 8.096)" fill="#1d1d1b"/>
      <path id="Tracciato_2565" data-name="Tracciato 2565" d="M3.1,1.893h0l-.011-.011.1-.172h.022l-.1.161a.3.3,0,0,0,.129-.086l.022-.022.022-.022.011.011L3.25,1.8a.5.5,0,0,1-.151.1" transform="translate(14.561 8.633)" fill="#1d1d1b"/>
      <path id="Tracciato_2566" data-name="Tracciato 2566" d="M3.4,1.9h0c-.032-.086-.086-.183-.183-.194l-.086.011H3.119L3.13,1.7l.086-.011a.267.267,0,0,1,.194.194Z" transform="translate(14.854 8.447)" fill="#1d1d1b"/>
      <path id="Tracciato_2567" data-name="Tracciato 2567" d="M3.11,1.94h0L3.1,1.929a.835.835,0,0,1,.172-.258h.011v.011a.842.842,0,0,0-.161.237.45.45,0,0,0,.129-.086l.118-.1.011.011-.118.1A.5.5,0,0,1,3.11,1.94Z" transform="translate(14.659 8.252)" fill="#1d1d1b"/>
      <path id="Tracciato_2568" data-name="Tracciato 2568" d="M3.228,1.8l-.075-.054L3.12,1.7V1.694h.011l.022.043.065.054h.011a.2.2,0,0,0-.054-.14V1.64h.011a.2.2,0,0,1,.054.151Z" transform="translate(14.864 7.949)" fill="#1d1d1b"/>
      <path id="Tracciato_2569" data-name="Tracciato 2569" d="M3.547,3.162l.022-1.453h.291V3.162a.322.322,0,0,1-.312,0" transform="translate(19.032 8.623)" fill="#b28027"/>
      <path id="Tracciato_2570" data-name="Tracciato 2570" d="M3.718,3.216l-.172-.043V3.162L3.568,1.72V1.709h.291l.011.011V3.173l-.151.043m-.161-.054a.3.3,0,0,0,.3,0V1.72h-.28Z" transform="translate(19.023 8.623)" fill="#1d1d1b"/>
      <path id="Tracciato_2571" data-name="Tracciato 2571" d="M4.5,1.717l-.517.118-.527.71.861-.56Z" transform="translate(18.18 8.702)" fill="#007500"/>
      <path id="Tracciato_2572" data-name="Tracciato 2572" d="M3.459,2.566V2.555l.527-.721L4.5,1.716l.011.011L4.331,2l-.85.56Zm.549-.721-.517.678.829-.538.172-.248Z" transform="translate(18.173 8.691)" fill="#1d1d1b"/>
      <path id="Tracciato_2573" data-name="Tracciato 2573" d="M4.474,2.553l-.151-.4-.861-.527.775.958Z" transform="translate(18.204 7.828)" fill="#007500"/>
      <path id="Tracciato_2574" data-name="Tracciato 2574" d="M4.237,2.6h0l-.775-.958V1.627h.011l.85.527.161.4v.011H4.474Zm-.743-.936.743.926.226-.032-.151-.387Z" transform="translate(18.203 7.822)" fill="#1d1d1b"/>
      <path id="Tracciato_2575" data-name="Tracciato 2575" d="M3.559,1.717l.291.291,1.109.538-.883-.764Z" transform="translate(19.146 8.702)" fill="#007500"/>
      <path id="Tracciato_2576" data-name="Tracciato 2576" d="M4.968,2.566V2.555L3.849,2.017l-.291-.291.011-.011.517.075.883.764h.011Zm-1.109-.56,1.065.517L4.085,1.8,3.58,1.738Z" transform="translate(19.14 8.691)" fill="#1d1d1b"/>
      <path id="Tracciato_2577" data-name="Tracciato 2577" d="M3.556,2.213l.269-.355L4.8,1.664l-.85.538Z" transform="translate(19.123 8.184)" fill="#007500"/>
      <path id="Tracciato_2578" data-name="Tracciato 2578" d="M3.556,2.233h0V2.223l.258-.355.99-.2.011.011L4.8,1.685l-.85.527Zm.28-.355-.269.344L3.943,2.2l.829-.517Z" transform="translate(19.12 8.174)" fill="#1d1d1b"/>
      <path id="Tracciato_2579" data-name="Tracciato 2579" d="M4.063,2.737l-.226-.269L3.5,1.607l.57.635Z" transform="translate(18.61 7.622)" fill="#007500"/>
      <path id="Tracciato_2580" data-name="Tracciato 2580" d="M4.073,2.747h0l-.237-.269L3.5,1.617V1.606h.011l.57.635h.011l-.011.506Zm-.226-.28.215.258.011-.474-.549-.6Z" transform="translate(18.603 7.617)" fill="#1d1d1b"/>
      <path id="Tracciato_2581" data-name="Tracciato 2581" d="M3.557,2.637l.086-.387.732-.635-.463.85Z" transform="translate(19.127 7.699)" fill="#007500"/>
      <path id="Tracciato_2582" data-name="Tracciato 2582" d="M3.556,2.647h0V2.636l.086-.387V2.238l.732-.624h.011v.011l-.474.839-.344.183Zm.1-.4-.086.377L3.9,2.453l.452-.807Z" transform="translate(19.12 7.695)" fill="#1d1d1b"/>
      <path id="Tracciato_2583" data-name="Tracciato 2583" d="M3.562,1.895,3.8,1.7l1.13.151-1.076.183Z" transform="translate(19.18 8.543)" fill="#007500"/>
      <path id="Tracciato_2584" data-name="Tracciato 2584" d="M3.862,2.045h0l-.291-.14-.011-.011L3.8,1.7h.011l1.13.151v.011Zm-.28-.151.28.129L4.9,1.862,3.809,1.7Z" transform="translate(19.169 8.545)" fill="#1d1d1b"/>
      <path id="Tracciato_2585" data-name="Tracciato 2585" d="M3.559,1.72l.075.334.506.452-.409-.657Z" transform="translate(19.146 8.726)" fill="#007500"/>
      <path id="Tracciato_2586" data-name="Tracciato 2586" d="M4.139,2.515h0l-.506-.441V2.063L3.558,1.73V1.719h.011l.172.129L4.15,2.5Zm-.5-.452.463.42L3.73,1.859l-.161-.118Z" transform="translate(19.14 8.72)" fill="#1d1d1b"/>
      <path id="Tracciato_2587" data-name="Tracciato 2587" d="M4,1.728l-.065.248-.43.355L3.82,1.8Z" transform="translate(18.648 8.805)" fill="#007500"/>
      <path id="Tracciato_2588" data-name="Tracciato 2588" d="M3.508,2.34h0V2.33L3.82,1.8,4,1.727l.011.011-.075.248V2l-.42.344Zm.323-.527-.291.5.387-.323.065-.237Z" transform="translate(18.652 8.799)" fill="#1d1d1b"/>
      <path id="Tracciato_2589" data-name="Tracciato 2589" d="M4.9,2.009l-.323.075-1.162-.4,1.27.032Z" transform="translate(17.75 8.399)" fill="#007500"/>
      <path id="Tracciato_2590" data-name="Tracciato 2590" d="M4.578,2.106h0l-1.162-.42h0l1.27.032L4.9,2l.011.022H4.9Zm-1.119-.42,1.119.387L4.89,2l-.215-.28Z" transform="translate(17.754 8.398)" fill="#1d1d1b"/>
      <path id="Tracciato_2591" data-name="Tracciato 2591" d="M4.26,2.235l-.226-.086-.549-.484.56.312Z" transform="translate(18.424 8.185)" fill="#007500"/>
      <path id="Tracciato_2592" data-name="Tracciato 2592" d="M4.27,2.255h0l-.237-.086-.549-.5V1.663l.57.312h.011l.2.269H4.28Zm-.226-.1.2.075-.194-.248-.527-.28Z" transform="translate(18.417 8.174)" fill="#1d1d1b"/>
      <path id="Tracciato_2593" data-name="Tracciato 2593" d="M3.6,2.467l-.043-.344.4-.484Z" transform="translate(19.084 7.93)" fill="#007500"/>
      <path id="Tracciato_2594" data-name="Tracciato 2594" d="M3.606,2.477h0L3.6,2.467l-.043-.344.4-.484h.011Zm-.043-.355.043.323.323-.764Z" transform="translate(19.081 7.93)" fill="#1d1d1b"/>
      <path id="Tracciato_2595" data-name="Tracciato 2595" d="M3.557,1.824l.14-.118.56.1Z" transform="translate(19.127 8.595)" fill="#007500"/>
      <path id="Tracciato_2596" data-name="Tracciato 2596" d="M3.556,1.835h0V1.824l.129-.118H3.7l.56.1.011.011H4.256Zm.14-.118-.118.108L4.191,1.8Z" transform="translate(19.12 8.594)" fill="#1d1d1b"/>
      <path id="Tracciato_2597" data-name="Tracciato 2597" d="M3.557,1.719l.108.215.538.484-.4-.57Z" transform="translate(19.127 8.719)" fill="#007500"/>
      <path id="Tracciato_2598" data-name="Tracciato 2598" d="M4.2,2.428h0l-.538-.474-.108-.226V1.718l.258.129h.011l.387.57v.011Zm-.527-.484.5.441-.355-.527L3.578,1.74Z" transform="translate(19.12 8.711)" fill="#1d1d1b"/>
      <path id="Tracciato_2599" data-name="Tracciato 2599" d="M4.4,1.723l-.14.161-.8.312.667-.409Z" transform="translate(18.247 8.763)" fill="#007500"/>
      <path id="Tracciato_2600" data-name="Tracciato 2600" d="M3.476,2.207H3.465V2.2l.667-.409h.011l.269-.065h.011v.011L4.272,1.9ZM4.143,1.8l-.6.377.732-.291L4.4,1.734Z" transform="translate(18.232 8.76)" fill="#1d1d1b"/>
      <path id="Tracciato_2601" data-name="Tracciato 2601" d="M4.191,2.016l-.215-.334-.484.108.43.054Z" transform="translate(18.487 8.365)" fill="#007500"/>
      <path id="Tracciato_2602" data-name="Tracciato 2602" d="M4.191,2.037V2.026l-.269-.161L3.5,1.811,3.491,1.8V1.79l.484-.108.226.344ZM3.534,1.8l.4.054L4.169,2l-.2-.312Z" transform="translate(18.486 8.359)" fill="#1d1d1b"/>
      <path id="Tracciato_2603" data-name="Tracciato 2603" d="M4.816,1.737l-.441-.022-.947.323L4.569,1.93Z" transform="translate(17.868 8.682)" fill="#007500"/>
      <path id="Tracciato_2604" data-name="Tracciato 2604" d="M3.427,2.049h0V2.038l.958-.323.441.022h.011v.011l-.258.194Zm.958-.323-.9.312,1.1-.108L4.8,1.747Z" transform="translate(17.861 8.681)" fill="#1d1d1b"/>
      <path id="Tracciato_2605" data-name="Tracciato 2605" d="M3.058,2.654a2.027,2.027,0,0,1,1.787-.592L4.436,2.3a3.215,3.215,0,0,1-1.378.355" transform="translate(14.259 11.865)" fill="#fff"/>
      <path id="Tracciato_2606" data-name="Tracciato 2606" d="M3.122,2.676l-.054-.011-.011-.011a1.9,1.9,0,0,1,1.507-.613,1.372,1.372,0,0,1,.3.022v.011a1.432,1.432,0,0,1-.409.226,3.96,3.96,0,0,1-1.335.377m-.043-.022.043.011a4.133,4.133,0,0,0,1.324-.377,1.662,1.662,0,0,0,.409-.215,1.229,1.229,0,0,0-.291-.022,1.884,1.884,0,0,0-1.485.6" transform="translate(14.249 11.864)" fill="#1d1d1b"/>
      <path id="Tracciato_2607" data-name="Tracciato 2607" d="M3.066,2.67A1.445,1.445,0,0,1,4.5,2.078c.022.032-.28.2-.323.226a2.248,2.248,0,0,1-1.109.366" transform="translate(14.337 12.021)" fill="#fff"/>
      <path id="Tracciato_2608" data-name="Tracciato 2608" d="M3.109,2.692,3.066,2.67a1.391,1.391,0,0,1,1.205-.613.883.883,0,0,1,.237.022s.022.032-.334.237a2.826,2.826,0,0,1-1.065.377M3.077,2.67h.032A2.746,2.746,0,0,0,4.175,2.3,1.693,1.693,0,0,0,4.5,2.089a.769.769,0,0,0-.226-.022,1.388,1.388,0,0,0-1.195.6" transform="translate(14.337 12.02)" fill="#1d1d1b"/>
      <path id="Tracciato_2609" data-name="Tracciato 2609" d="M2.978,2.062l.108.118.248.022-.269-.129Z" transform="translate(13.482 12.068)" fill="#007500"/>
      <path id="Tracciato_2610" data-name="Tracciato 2610" d="M3.344,2.212h0L3.1,2.179l-.118-.108V2.061l.1.011ZM3.1,2.179l.237.032-.258-.14H2.989Z" transform="translate(13.478 12.059)" fill="#1d1d1b"/>
      <path id="Tracciato_2611" data-name="Tracciato 2611" d="M3.036,2.063l-.065.1L3,2.45l.075-.334Z" transform="translate(13.417 12.074)" fill="#007500"/>
      <path id="Tracciato_2612" data-name="Tracciato 2612" d="M3,2.461H3l-.032-.3.054-.1h.011l.043.054Zm-.032-.3L3,2.44l.075-.323-.054-.054Z" transform="translate(13.419 12.079)" fill="#1d1d1b"/>
      <path id="Tracciato_2613" data-name="Tracciato 2613" d="M3.046,2.491l.011-.118-.065-.355-.022.334Z" transform="translate(13.409 11.633)" fill="#007500"/>
      <path id="Tracciato_2614" data-name="Tracciato 2614" d="M3.037,2.491h0l-.065-.14.011-.334.075.366-.011.108Zm-.065-.14.065.14.011-.108-.065-.355Z" transform="translate(13.419 11.63)" fill="#1d1d1b"/>
      <path id="Tracciato_2615" data-name="Tracciato 2615" d="M3.281,2.277l-.118-.011L2.947,2.04l.269.14Z" transform="translate(13.175 11.855)" fill="#007500"/>
      <path id="Tracciato_2616" data-name="Tracciato 2616" d="M3.281,2.278h0l-.118-.022-.215-.215.269.129Zm-.118-.022.118.022-.065-.1-.258-.14Z" transform="translate(13.175 11.864)" fill="#1d1d1b"/>
      <path id="Tracciato_2617" data-name="Tracciato 2617" d="M3.114,2.063l-.022.1-.129.215.043-.237Z" transform="translate(13.335 12.078)" fill="#007500"/>
      <path id="Tracciato_2618" data-name="Tracciato 2618" d="M2.963,2.385h0V2.374l.043-.237.108-.075-.022.108-.129.2Zm.043-.248-.032.226.118-.194.022-.1Z" transform="translate(13.331 12.069)" fill="#1d1d1b"/>
      <path id="Tracciato_2619" data-name="Tracciato 2619" d="M3.309,2.121l-.1.032-.269-.1h.269Z" transform="translate(13.134 12.019)" fill="#007500"/>
      <path id="Tracciato_2620" data-name="Tracciato 2620" d="M3.2,2.165h0l-.258-.1L3.2,2.057l.108.065v.011Zm-.248-.1.248.1.1-.043-.1-.054Z" transform="translate(13.136 12.02)" fill="#1d1d1b"/>
      <path id="Tracciato_2621" data-name="Tracciato 2621" d="M3.2,2.373,3.116,2.34l-.161-.312.226.248Z" transform="translate(13.253 11.739)" fill="#007500"/>
      <path id="Tracciato_2622" data-name="Tracciato 2622" d="M3.2,2.372h0L3.116,2.34l-.161-.312.226.248ZM3.116,2.34l.075.032-.022-.1-.2-.237Z" transform="translate(13.253 11.737)" fill="#1d1d1b"/>
      <path id="Tracciato_2623" data-name="Tracciato 2623" d="M2.979,2.3l.065-.075.011-.183-.075.194Z" transform="translate(13.483 11.826)" fill="#007500"/>
      <path id="Tracciato_2624" data-name="Tracciato 2624" d="M2.989,2.305H2.978V2.24l.075-.2h.011l-.011.194V2.24Zm0-.065v.054l.054-.065.011-.172Z" transform="translate(13.478 11.815)" fill="#1d1d1b"/>
      <path id="Tracciato_2625" data-name="Tracciato 2625" d="M2.981,2.081l.065-.022.151.065-.172-.011Z" transform="translate(13.508 12.041)" fill="#007500"/>
      <path id="Tracciato_2626" data-name="Tracciato 2626" d="M3.206,2.124h0l-.161-.011-.054-.032h0l.065-.022.151.054Zm-.161-.011H3.2l-.14-.054-.065.022Z" transform="translate(13.497 12.04)" fill="#1d1d1b"/>
      <path id="Tracciato_2627" data-name="Tracciato 2627" d="M3.008,2.063l.075.075.108.355L2.976,2.16Z" transform="translate(13.457 12.078)" fill="#007500"/>
      <path id="Tracciato_2628" data-name="Tracciato 2628" d="M3.181,2.493h0l-.2-.334L3,2.063l.075.065.108.355Zm-.2-.334.2.312-.108-.344L3,2.063Z" transform="translate(13.468 12.079)" fill="#1d1d1b"/>
      <path id="Tracciato_2629" data-name="Tracciato 2629" d="M3,2.062l.022.075-.011.2-.032-.194Z" transform="translate(13.462 12.068)" fill="#007500"/>
      <path id="Tracciato_2630" data-name="Tracciato 2630" d="M3,2.352H3l-.022-.194.011-.086L3,2.061v.011l.022.065-.011.215Zm-.022-.194L3,2.33l.011-.194L3,2.072Z" transform="translate(13.468 12.059)" fill="#1d1d1b"/>
      <path id="Tracciato_2631" data-name="Tracciato 2631" d="M3.193,2.062l-.065.065-.172-.032Z" transform="translate(13.263 12.07)" fill="#007500"/>
      <path id="Tracciato_2632" data-name="Tracciato 2632" d="M3.128,2.127h0l-.172-.032.237-.032Zm-.161-.032.161.032.065-.065Z" transform="translate(13.263 12.069)" fill="#1d1d1b"/>
      <path id="Tracciato_2633" data-name="Tracciato 2633" d="M3.086,2.218,3.043,2.2l-.075-.151Z" transform="translate(13.374 11.912)" fill="#007500"/>
      <path id="Tracciato_2634" data-name="Tracciato 2634" d="M3.085,2.218h0l-.043-.011V2.2l-.075-.151.129.172ZM3.042,2.2l.043.011-.108-.151Z" transform="translate(13.37 11.913)" fill="#1d1d1b"/>
      <path id="Tracciato_2635" data-name="Tracciato 2635" d="M2.989,2.306l.032-.065.011-.2-.054.183Z" transform="translate(13.477 11.822)" fill="#007500"/>
      <path id="Tracciato_2636" data-name="Tracciato 2636" d="M2.989,2.306h0L2.978,2.22l.054-.183-.011.2ZM2.978,2.22l.011.075.032-.054.011-.194Z" transform="translate(13.478 11.825)" fill="#1d1d1b"/>
      <path id="Tracciato_2637" data-name="Tracciato 2637" d="M2.98,2.062l.065.011.2.161-.2-.108Z" transform="translate(13.5 12.066)" fill="#007500"/>
      <path id="Tracciato_2638" data-name="Tracciato 2638" d="M3.249,2.233h0l-.2-.108L2.98,2.072V2.061l.065.011v.011Zm-.2-.108.183.1-.183-.14L3,2.072Z" transform="translate(13.497 12.059)" fill="#1d1d1b"/>
      <path id="Tracciato_2639" data-name="Tracciato 2639" d="M3.007,2.063l-.032.108.1.108-.054-.118Z" transform="translate(13.446 12.074)" fill="#007500"/>
      <path id="Tracciato_2640" data-name="Tracciato 2640" d="M3.083,2.277H3.072l-.1-.108.032-.108.011.1ZM2.975,2.17l.1.1-.054-.108-.011-.086Z" transform="translate(13.448 12.069)" fill="#1d1d1b"/>
      <path id="Tracciato_2641" data-name="Tracciato 2641" d="M2.978,2.062l.075.118.237.194-.226-.28Z" transform="translate(13.482 12.068)" fill="#007500"/>
      <path id="Tracciato_2642" data-name="Tracciato 2642" d="M3.29,2.385h0L3.053,2.17l-.075-.108.086.043.226.258ZM3.053,2.17l.226.194-.215-.258-.075-.032Z" transform="translate(13.478 12.069)" fill="#1d1d1b"/>
      <path id="Tracciato_2643" data-name="Tracciato 2643" d="M2.978,2.392a.481.481,0,0,0,.14-.237l.043-.075A.193.193,0,0,1,3.4,2.058c.118.075.151.215.215.334.075.14.269.366.452.344a.274.274,0,0,0,.14-.065,1.76,1.76,0,0,1,1.5-.237c.032.011.075.054.065.1a2.584,2.584,0,0,1-.409.129l.248.022.043.032-.032.032-.4.129.3.022a.732.732,0,0,1-.409.172,1.22,1.22,0,0,0,.344.065C5.4,3.2,5.3,3.2,5.217,3.21l-.269.011a.628.628,0,0,0,.28.065.885.885,0,0,1-.441.1.684.684,0,0,0,.355.075.885.885,0,0,1-.592.161l.086.054c.108.032.161.14.237.215a1.071,1.071,0,0,0,.161.151.983.983,0,0,0,.42.183.944.944,0,0,1-.3,0,.4.4,0,0,1-.258-.129,2.489,2.489,0,0,1,.215.258,2.2,2.2,0,0,1,.2.355,3.526,3.526,0,0,0-.6-.452,1.123,1.123,0,0,0-.258-.118,2.27,2.27,0,0,1-.463-.129.682.682,0,0,1-.248-.248A2.644,2.644,0,0,1,3.3,2.79a.633.633,0,0,0-.1-.323.23.23,0,0,0-.226-.075" transform="translate(13.478 11.739)" fill="#fff"/>
      <path id="Tracciato_2644" data-name="Tracciato 2644" d="M5.313,4.707h0a4.13,4.13,0,0,0-.6-.441.948.948,0,0,0-.258-.118L4.269,4.1a.846.846,0,0,1-.28-.086.682.682,0,0,1-.248-.248,2.958,2.958,0,0,1-.452-.979l-.011-.086A.473.473,0,0,0,3.2,2.468a.254.254,0,0,0-.172-.075L2.989,2.4H2.978V2.393a.446.446,0,0,0,.129-.2l.011-.032.043-.075a.145.145,0,0,1,.129-.054l.118.032a.541.541,0,0,1,.172.237l.043.1c.075.14.258.344.42.344h.011l.14-.054L4.2,2.673A2.046,2.046,0,0,1,5.26,2.35a.981.981,0,0,1,.441.086c.043.011.1.054.075.1a2.22,2.22,0,0,1-.377.129l.215.022.043.032-.043.043c-.118.032-.237.086-.366.118l.28.022V2.91a.685.685,0,0,1-.387.161,1.008,1.008,0,0,0,.312.065h.011v.011a.449.449,0,0,1-.248.075l-.237.011a.65.65,0,0,0,.258.054V3.3a.959.959,0,0,1-.42.1.641.641,0,0,0,.291.065h.043v.011a.89.89,0,0,1-.517.161H4.592l.054.043a.52.52,0,0,1,.172.14l.065.075.151.151a1.062,1.062,0,0,0,.42.183l.011.011H5.453l-.161.011-.14-.011L4.98,4.169l.14.183a1.152,1.152,0,0,1,.14.226l.065.118v.011ZM3.032,2.382a.265.265,0,0,1,.183.086.441.441,0,0,1,.075.237l.022.086a2.611,2.611,0,0,0,.441.969A.682.682,0,0,0,4,4.007a.788.788,0,0,0,.269.086l.194.043a1.048,1.048,0,0,1,.248.118,4.425,4.425,0,0,1,.581.42l-.043-.1-.14-.226-.194-.226L4.9,4.1l-.011-.011H4.9l.011.011a.513.513,0,0,0,.248.118l.129.011.118-.011a.938.938,0,0,1-.377-.172A.724.724,0,0,1,4.872,3.9l-.065-.065a.335.335,0,0,0-.172-.151l-.086-.054V3.62h.086a.859.859,0,0,0,.484-.151H5.109a.65.65,0,0,1-.323-.075V3.383L4.8,3.372A.772.772,0,0,0,5.206,3.3a.541.541,0,0,1-.258-.065V3.222L5.217,3.2a.372.372,0,0,0,.226-.054,1.158,1.158,0,0,1-.334-.075h0a.919.919,0,0,0,.4-.161l-.291-.022V2.877l.4-.129.032-.032-.022-.022-.269-.022V2.662a1.836,1.836,0,0,0,.409-.14L5.7,2.447a1.152,1.152,0,0,0-.441-.086A2.046,2.046,0,0,0,4.2,2.684l-.011.011-.129.054H4.043c-.172,0-.355-.2-.43-.344L3.559,2.3A.423.423,0,0,0,3.4,2.07L3.29,2.038a.145.145,0,0,0-.129.054l-.032.075L3.118,2.2a.515.515,0,0,1-.108.183Z" transform="translate(13.478 11.727)" fill="#1d1d1b"/>
      <path id="Tracciato_2645" data-name="Tracciato 2645" d="M5.872,2.373a.1.1,0,0,0,.086-.14.249.249,0,0,0-.108-.151.124.124,0,0,0-.129-.043.687.687,0,0,0-.312.172,1.231,1.231,0,0,0-.258.269c-.312.42-.613.85-.915,1.281A2.985,2.985,0,0,0,4,4.16a1.94,1.94,0,0,1-.086.226.317.317,0,0,1-.161.172c-.108.043-.183.032-.237.129-.054.075-.129.226-.075.323a.2.2,0,0,0,.2.108c.118-.022.183-.14.258-.226a6.339,6.339,0,0,0,.839-1.335,2.2,2.2,0,0,1,.215-.334l.108-.161a.54.54,0,0,0,.086-.151,1.168,1.168,0,0,1,.161-.3l.161-.215a.322.322,0,0,1,.129-.14c.129-.054.161.118.269.118" transform="translate(17.805 11.812)" fill="#006000"/>
      <path id="Tracciato_2646" data-name="Tracciato 2646" d="M3.628,5.125h0a.226.226,0,0,1-.194-.108.4.4,0,0,1,.086-.334.231.231,0,0,1,.161-.108l.075-.022a.314.314,0,0,0,.161-.172l.054-.129.032-.1a2.985,2.985,0,0,1,.237-.4c.291-.42.6-.861.915-1.281a1.231,1.231,0,0,1,.258-.269.687.687,0,0,1,.312-.172H5.77l.1.043a.3.3,0,0,1,.108.151.149.149,0,0,1-.022.118l-.075.032a.164.164,0,0,1-.118-.065l-.1-.054-.043.011c-.054.011-.086.065-.118.108L5.479,2.4l-.151.215-.011.022a1.4,1.4,0,0,0-.151.28L5.1,3.026l-.022.032-.108.172L4.9,3.338a.8.8,0,0,0-.14.226A6.6,6.6,0,0,1,3.93,4.877l-.011.011-.032.054c-.065.086-.129.172-.237.183ZM5.77,2.047H5.727a.89.89,0,0,0-.312.172,1.5,1.5,0,0,0-.248.269c-.312.42-.613.861-.915,1.281a2.986,2.986,0,0,0-.237.4l-.032.1-.054.129a.333.333,0,0,1-.172.172l-.075.022a.213.213,0,0,0-.151.108c-.065.1-.129.226-.075.312a.192.192,0,0,0,.172.108h.011c.108-.011.172-.108.237-.194L3.9,4.9l.022-.032a5.853,5.853,0,0,0,.818-1.313l.151-.226.075-.108.108-.161.022-.043.065-.108a1.01,1.01,0,0,1,.151-.28l.011-.011A2,2,0,0,1,5.469,2.4L5.49,2.37a.252.252,0,0,1,.118-.118l.054-.011a.164.164,0,0,1,.108.065.164.164,0,0,0,.108.065l.054-.022.032-.108a.3.3,0,0,0-.108-.151L5.77,2.047" transform="translate(17.799 11.815)" fill="#1d1d1b"/>
      <path id="Tracciato_2647" data-name="Tracciato 2647" d="M3.794,2.521c-.14.172-.291.291-.334.248s.032-.2.172-.377.28-.291.334-.258-.032.215-.172.387" transform="translate(18.065 12.718)" fill="#ffd100"/>
      <path id="Tracciato_2648" data-name="Tracciato 2648" d="M3.483,2.806l-.022-.022c-.054-.032.043-.226.172-.4.118-.151.248-.258.312-.258h.032c.054.043-.043.237-.172.4s-.258.28-.323.28m.463-.667c-.054,0-.183.118-.3.269-.151.172-.2.344-.172.366h.011c.065,0,.194-.108.312-.258.14-.183.2-.344.172-.355Z" transform="translate(18.052 12.713)" fill="#1d1d1b"/>
      <path id="Tracciato_2649" data-name="Tracciato 2649" d="M3.8,2.517c-.14.183-.291.291-.334.269-.043-.043.032-.226.172-.387.14-.183.291-.291.334-.258s-.032.215-.172.377" transform="translate(18.133 12.776)" fill="#ffd100"/>
      <path id="Tracciato_2650" data-name="Tracciato 2650" d="M3.485,2.8l-.011-.011c-.065-.043.032-.237.161-.4s.248-.258.312-.258H3.97c.065.043-.043.237-.161.4S3.55,2.8,3.485,2.8m.463-.657c-.054,0-.183.108-.3.258-.151.194-.215.344-.172.377h.011c.065,0,.194-.108.312-.258.14-.183.2-.344.172-.366Z" transform="translate(18.125 12.772)" fill="#1d1d1b"/>
      <path id="Tracciato_2651" data-name="Tracciato 2651" d="M3.811,2.526c-.14.183-.291.291-.334.269-.043-.043.032-.2.172-.387s.291-.291.334-.258-.032.215-.172.377" transform="translate(18.231 12.864)" fill="#ffd100"/>
      <path id="Tracciato_2652" data-name="Tracciato 2652" d="M3.5,2.82l-.011-.011c-.065-.043.032-.237.161-.4s.248-.269.312-.269l.022.011c.054.043-.043.237-.161.4s-.258.269-.323.269m.463-.657a.633.633,0,0,0-.3.258c-.151.183-.215.344-.172.377H3.5c.065,0,.194-.108.312-.258.14-.183.2-.344.172-.377H3.959" transform="translate(18.233 12.85)" fill="#1d1d1b"/>
      <path id="Tracciato_2653" data-name="Tracciato 2653" d="M3.83,2.535c-.151.183-.3.291-.344.258s.032-.2.172-.387.291-.291.334-.248-.032.2-.161.377" transform="translate(18.319 12.92)" fill="#ffd100"/>
      <path id="Tracciato_2654" data-name="Tracciato 2654" d="M3.51,2.816l-.022-.011c-.054-.043.043-.237.161-.4s.258-.258.323-.258h.022c.032.032.011.1-.011.151a1.272,1.272,0,0,1-.151.248c-.129.151-.258.269-.323.269m.463-.656c-.054,0-.183.108-.3.258-.151.183-.215.344-.172.377H3.51c.065,0,.194-.108.312-.258a1.272,1.272,0,0,0,.151-.248c.032-.065.032-.108.011-.129Z" transform="translate(18.316 12.918)" fill="#1d1d1b"/>
      <path id="Tracciato_2655" data-name="Tracciato 2655" d="M3.831,2.549c-.14.172-.291.291-.334.258s.032-.2.172-.387S3.96,2.13,4,2.162s-.032.215-.172.387" transform="translate(18.426 12.992)" fill="#ffd100"/>
      <path id="Tracciato_2656" data-name="Tracciato 2656" d="M3.522,2.823,3.5,2.813c-.032-.022-.011-.1.011-.151a.964.964,0,0,1,.161-.248c.118-.151.248-.258.312-.258l.032.011L4,2.307a1.272,1.272,0,0,1-.151.248c-.118.161-.258.269-.323.269m.463-.656c-.054,0-.183.108-.3.258a.7.7,0,0,0-.151.248c-.032.065-.043.108-.022.129h.011c.065,0,.194-.108.312-.258l.151-.237c.032-.065.032-.118.022-.129Z" transform="translate(18.422 12.987)" fill="#1d1d1b"/>
      <path id="Tracciato_2657" data-name="Tracciato 2657" d="M3.849,2.555c-.14.172-.3.291-.344.258s.032-.2.172-.387.28-.291.334-.258-.032.215-.161.387" transform="translate(18.504 13.05)" fill="#ffd100"/>
      <path id="Tracciato_2658" data-name="Tracciato 2658" d="M3.529,2.83,3.508,2.82c-.054-.043.043-.237.172-.4s.248-.258.312-.258h.032L4,2.314a1.272,1.272,0,0,1-.151.248c-.118.151-.248.269-.323.269m.463-.657c-.054,0-.183.108-.3.258-.151.183-.2.344-.172.377h.011c.065,0,.194-.108.312-.258A1.272,1.272,0,0,0,3.992,2.3a.156.156,0,0,0,.022-.129Z" transform="translate(18.501 13.055)" fill="#1d1d1b"/>
      <path id="Tracciato_2659" data-name="Tracciato 2659" d="M3.849,2.561c-.14.172-.291.291-.334.258s.032-.215.172-.387.28-.291.334-.258-.032.2-.172.387" transform="translate(18.602 13.109)" fill="#ffd100"/>
      <path id="Tracciato_2660" data-name="Tracciato 2660" d="M3.539,2.836l-.022-.022c-.054-.032.043-.226.172-.4A.6.6,0,0,1,4,2.169h.022c.032.022.011.1-.011.151a1.272,1.272,0,0,1-.151.248c-.129.151-.258.269-.323.269M4,2.169c-.054,0-.194.118-.3.269-.151.183-.215.344-.172.377h.011c.065,0,.194-.108.312-.258L4,2.32a.207.207,0,0,0,.022-.151Z" transform="translate(18.599 13.114)" fill="#1d1d1b"/>
      <path id="Tracciato_2661" data-name="Tracciato 2661" d="M3.859,2.565c-.14.172-.291.291-.334.258s.032-.2.172-.387.291-.291.334-.248-.032.2-.172.377" transform="translate(18.699 13.213)" fill="#ffd100"/>
      <path id="Tracciato_2662" data-name="Tracciato 2662" d="M3.549,2.855l-.022-.011c-.054-.043.043-.237.161-.4s.258-.269.323-.269l.032.022-.022.14a1.272,1.272,0,0,1-.151.248c-.129.151-.258.269-.323.269M4.012,2.2c-.065,0-.194.108-.312.258-.14.183-.194.344-.161.377h.011c.065,0,.194-.108.312-.258a1.272,1.272,0,0,0,.151-.248c.032-.065.032-.108.022-.118Z" transform="translate(18.696 13.192)" fill="#1d1d1b"/>
      <path id="Tracciato_2663" data-name="Tracciato 2663" d="M3.873,2.58c-.14.172-.291.291-.334.248s.032-.2.172-.377.28-.291.334-.258-.032.2-.172.387" transform="translate(18.836 13.284)" fill="#ffd100"/>
      <path id="Tracciato_2664" data-name="Tracciato 2664" d="M3.563,2.853H3.542c-.054-.043.043-.237.161-.4s.258-.269.323-.269l.022.011c.032.032.011.1-.011.151a1.272,1.272,0,0,1-.151.248c-.129.151-.258.258-.323.258m.463-.646c-.054,0-.183.108-.3.258-.151.183-.215.344-.172.377h.011c.065,0,.194-.108.312-.258a1.272,1.272,0,0,0,.151-.248c.032-.065.032-.108.011-.129Z" transform="translate(18.833 13.279)" fill="#1d1d1b"/>
      <path id="Tracciato_2665" data-name="Tracciato 2665" d="M3.823,2.479c-.14.172-.291.291-.334.248s.022-.2.161-.387.291-.28.334-.248-.022.215-.161.387" transform="translate(18.304 12.298)" fill="#ffd100"/>
      <path id="Tracciato_2666" data-name="Tracciato 2666" d="M3.52,2.752l-.032-.011c-.032-.032-.011-.1.011-.151a1.272,1.272,0,0,1,.151-.248.655.655,0,0,1,.323-.258H4c.032.032.011.1-.011.161a1.662,1.662,0,0,1-.151.237c-.129.161-.258.269-.323.269M3.972,2.1c-.065,0-.194.108-.312.258l-.151.237c-.032.075-.032.118-.011.14H3.52c.054,0,.183-.108.3-.248a1.272,1.272,0,0,0,.151-.248L4,2.117Z" transform="translate(18.295 12.293)" fill="#1d1d1b"/>
      <path id="Tracciato_2667" data-name="Tracciato 2667" d="M3.835,2.488c-.14.172-.291.291-.344.248s.032-.2.172-.387S3.954,2.057,4,2.1s-.022.215-.161.387" transform="translate(18.367 12.354)" fill="#ffd100"/>
      <path id="Tracciato_2668" data-name="Tracciato 2668" d="M3.537,2.768l-.043-.011c-.054-.043.043-.237.161-.4s.248-.269.334-.269L4.01,2.1c.032.032.022.1-.011.151a.766.766,0,0,1-.151.248c-.129.151-.248.269-.312.269m.452-.657a.6.6,0,0,0-.312.258c-.14.183-.215.344-.172.377h.011c.065,0,.194-.108.312-.248a.964.964,0,0,0,.161-.248A.22.22,0,0,0,4,2.112Z" transform="translate(18.364 12.342)" fill="#1d1d1b"/>
      <path id="Tracciato_2669" data-name="Tracciato 2669" d="M3.842,2.5c-.14.172-.291.291-.334.248s.022-.2.161-.387.291-.291.334-.248-.022.215-.161.387" transform="translate(18.489 12.442)" fill="#ffd100"/>
      <path id="Tracciato_2670" data-name="Tracciato 2670" d="M3.538,2.767l-.032-.011c-.054-.043.043-.237.161-.4S3.926,2.1,3.99,2.1h.032c.054.054-.043.248-.161.4s-.258.269-.323.269m.452-.657c-.065,0-.194.108-.312.258-.14.183-.2.344-.161.377h.022c.065,0,.194-.108.3-.248.151-.194.2-.355.172-.377Z" transform="translate(18.482 12.44)" fill="#1d1d1b"/>
      <path id="Tracciato_2671" data-name="Tracciato 2671" d="M3.852,2.493c-.14.183-.291.291-.334.269-.054-.043.022-.226.161-.387.14-.194.291-.3.334-.258s-.022.2-.161.377" transform="translate(18.587 12.509)" fill="#ffd100"/>
      <path id="Tracciato_2672" data-name="Tracciato 2672" d="M3.547,2.774l-.032-.011c-.054-.054.043-.237.161-.4s.258-.258.323-.258h.032c.032.032.011.1-.011.151a1.018,1.018,0,0,1-.151.248c-.129.161-.258.269-.323.269M4,2.118c-.065,0-.194.108-.3.258-.151.183-.215.344-.172.377h.011c.075,0,.2-.108.312-.248A.8.8,0,0,0,4,2.258c.032-.065.043-.118.022-.14Z" transform="translate(18.569 12.508)" fill="#1d1d1b"/>
      <path id="Tracciato_2673" data-name="Tracciato 2673" d="M3.863,2.509c-.14.172-.291.291-.334.248s.022-.2.161-.377.291-.291.334-.258-.022.215-.161.387" transform="translate(18.694 12.591)" fill="#ffd100"/>
      <path id="Tracciato_2674" data-name="Tracciato 2674" d="M3.558,2.792l-.022-.011c-.043-.032-.022-.1,0-.151a1.272,1.272,0,0,1,.151-.248c.129-.161.258-.269.323-.269l.022.011c.065.054-.032.237-.151.4s-.258.269-.323.269m.452-.657c-.065,0-.194.108-.312.258l-.151.237c-.022.075-.032.118-.011.14h.022c.065,0,.194-.108.3-.258.151-.183.2-.344.172-.377Z" transform="translate(18.688 12.577)" fill="#1d1d1b"/>
      <path id="Tracciato_2675" data-name="Tracciato 2675" d="M3.872,2.519c-.14.172-.291.291-.334.248s.022-.2.161-.387.291-.291.334-.248-.022.215-.161.387" transform="translate(18.782 12.656)" fill="#ffd100"/>
      <path id="Tracciato_2676" data-name="Tracciato 2676" d="M3.563,2.789H3.542c-.065-.065.032-.248.151-.409s.258-.258.323-.258h.032c.054.054-.043.248-.161.4s-.258.269-.323.269m.452-.657c-.065,0-.194.108-.312.258-.14.183-.2.344-.161.377h.022c.065,0,.183-.108.3-.248.151-.194.2-.355.172-.387Z" transform="translate(18.779 12.655)" fill="#1d1d1b"/>
      <path id="Tracciato_2677" data-name="Tracciato 2677" d="M3.883,2.511c-.14.183-.291.3-.334.258s.022-.2.151-.387c.151-.172.3-.28.344-.248s-.022.215-.161.377" transform="translate(18.88 12.718)" fill="#ffd100"/>
      <path id="Tracciato_2678" data-name="Tracciato 2678" d="M3.578,2.8l-.032-.011c-.054-.043.043-.237.161-.4a.655.655,0,0,1,.323-.258h.032c.032.032.011.1-.011.151a.964.964,0,0,1-.161.248c-.118.161-.248.269-.312.269m.452-.657c-.065,0-.194.108-.312.258-.14.183-.2.344-.161.377h.022c.065,0,.194-.108.3-.248a.7.7,0,0,0,.151-.248.181.181,0,0,0,.022-.14Z" transform="translate(18.872 12.713)" fill="#1d1d1b"/>
      <path id="Tracciato_2679" data-name="Tracciato 2679" d="M3.893,2.532c-.14.172-.291.291-.334.248s.022-.2.161-.387.291-.28.334-.248-.022.215-.161.387" transform="translate(18.987 12.815)" fill="#ffd100"/>
      <path id="Tracciato_2680" data-name="Tracciato 2680" d="M3.59,2.805l-.032-.011c-.032-.032-.011-.1.011-.151A1.272,1.272,0,0,1,3.719,2.4a.6.6,0,0,1,.323-.258h.032c.054.054-.043.237-.161.4s-.258.269-.323.269m.452-.657c-.065,0-.194.108-.312.258a1.221,1.221,0,0,0-.151.237c-.022.075-.032.118-.011.14h.011c.065,0,.194-.108.312-.258.151-.183.2-.344.172-.377H4.042" transform="translate(18.978 12.811)" fill="#1d1d1b"/>
      <path id="Tracciato_2681" data-name="Tracciato 2681" d="M3.908,2.544c-.14.172-.291.291-.334.248s.022-.2.161-.387.291-.291.334-.248-.022.215-.161.387" transform="translate(19.134 12.9)" fill="#ffd100"/>
      <path id="Tracciato_2682" data-name="Tracciato 2682" d="M3.6,2.814,3.572,2.8c-.054-.043.043-.237.161-.4a.6.6,0,0,1,.323-.258h.032c.054.054-.043.237-.172.4s-.248.269-.312.269m.452-.657c-.065,0-.194.108-.312.258-.14.183-.2.344-.161.377H3.6c.065,0,.194-.108.3-.258.151-.183.2-.344.172-.366l-.022-.011" transform="translate(19.126 12.899)" fill="#1d1d1b"/>
      <path id="Tracciato_2683" data-name="Tracciato 2683" d="M3.851,2.565c-.161.161-.312.258-.344.226s.065-.183.215-.344.323-.269.355-.237S4,2.4,3.851,2.565" transform="translate(18.578 13.46)" fill="#ffd100"/>
      <path id="Tracciato_2684" data-name="Tracciato 2684" d="M3.523,2.817,3.5,2.807l.032-.129a1.533,1.533,0,0,1,.183-.226A.884.884,0,0,1,4.05,2.2l.022.022c.032.022,0,.086-.032.129a1.533,1.533,0,0,1-.183.226.815.815,0,0,1-.334.237m.527-.592a.741.741,0,0,0-.323.237,1.5,1.5,0,0,0-.183.215c-.043.075-.043.118-.032.129h.011a.741.741,0,0,0,.323-.237,1.125,1.125,0,0,0,.183-.226l.043-.108L4.05,2.226" transform="translate(18.583 13.455)" fill="#1d1d1b"/>
      <path id="Tracciato_2685" data-name="Tracciato 2685" d="M3.89,2.546c-.172.129-.344.215-.377.183s.1-.183.269-.323.355-.215.377-.172-.086.172-.269.312" transform="translate(18.657 13.64)" fill="#ffd100"/>
      <path id="Tracciato_2686" data-name="Tracciato 2686" d="M3.548,2.74H3.516c-.043-.054.108-.215.269-.334a.9.9,0,0,1,.355-.183l.032.011-.054.129a1.293,1.293,0,0,1-.215.194.9.9,0,0,1-.355.183m.592-.506a.818.818,0,0,0-.344.183c-.194.14-.291.28-.269.312h.022a.963.963,0,0,0,.344-.183,1.293,1.293,0,0,0,.215-.194l.054-.108L4.14,2.234" transform="translate(18.655 13.641)" fill="#1d1d1b"/>
      <path id="Tracciato_2687" data-name="Tracciato 2687" d="M3.87,2.559c-.172.151-.334.237-.366.2s.086-.183.258-.334.323-.237.355-.2-.075.183-.248.334" transform="translate(18.591 13.596)" fill="#ffd100"/>
      <path id="Tracciato_2688" data-name="Tracciato 2688" d="M3.531,2.778l-.022-.011c-.043-.043.1-.2.248-.344a.878.878,0,0,1,.344-.2l.032.011-.054.129a.916.916,0,0,1-.2.2.758.758,0,0,1-.344.215m.57-.549a.863.863,0,0,0-.334.2c-.172.161-.269.3-.248.323l.011.011a.758.758,0,0,0,.344-.215,1.129,1.129,0,0,0,.194-.2c.054-.065.065-.108.054-.118Z" transform="translate(18.586 13.592)" fill="#1d1d1b"/>
      <path id="Tracciato_2689" data-name="Tracciato 2689" d="M3.76,2.572c-.118.194-.248.323-.291.3s.022-.194.14-.387.248-.334.291-.3-.022.194-.14.387" transform="translate(18.184 13.217)" fill="#ffd100"/>
      <path id="Tracciato_2690" data-name="Tracciato 2690" d="M3.487,2.889H3.476c-.054-.032.032-.237.14-.409s.215-.3.28-.3h0c.054.032-.022.237-.129.4-.108.183-.226.312-.28.312m.409-.7c-.054,0-.161.118-.28.3-.108.2-.172.366-.14.387h.011c.043,0,.161-.118.269-.3.118-.2.172-.366.14-.387Z" transform="translate(18.178 13.211)" fill="#1d1d1b"/>
      <path id="Tracciato_2691" data-name="Tracciato 2691" d="M3.705,2.563c-.086.2-.2.355-.248.334s-.022-.2.065-.409.2-.355.258-.334.011.2-.075.409" transform="translate(17.905 12.946)" fill="#ffd100"/>
      <path id="Tracciato_2692" data-name="Tracciato 2692" d="M3.47,2.916l-.022-.011c-.043-.022-.011-.237.086-.42.075-.194.183-.334.248-.334h.011c.065.022,0,.237-.075.42s-.183.344-.248.344m.312-.753c-.054,0-.14.118-.237.334s-.129.377-.075.4c.032.022.14-.108.226-.334s.129-.377.1-.4Z" transform="translate(17.893 12.948)" fill="#1d1d1b"/>
      <path id="Tracciato_2693" data-name="Tracciato 2693" d="M3.715,2.574c-.1.194-.215.344-.258.323s.011-.2.108-.4.215-.355.258-.334-.011.2-.108.409" transform="translate(18.003 13.053)" fill="#ffd100"/>
      <path id="Tracciato_2694" data-name="Tracciato 2694" d="M3.473,2.906H3.463c-.032-.022-.022-.086-.011-.14A1.4,1.4,0,0,1,3.559,2.5c.1-.194.2-.334.258-.334h.011c.054.032-.011.237-.1.409-.1.194-.2.334-.258.334m.344-.732c-.043,0-.14.118-.248.323l-.108.269-.011.118h.022c.043,0,.14-.118.248-.312C3.818,2.357,3.861,2.2,3.818,2.174Z" transform="translate(17.998 13.055)" fill="#1d1d1b"/>
      <path id="Tracciato_2695" data-name="Tracciato 2695" d="M3.75,2.564c-.118.194-.248.323-.291.3s.032-.2.14-.387.248-.334.291-.3-.022.194-.14.387" transform="translate(18.097 13.139)" fill="#ffd100"/>
      <path id="Tracciato_2696" data-name="Tracciato 2696" d="M3.484,2.881l-.022-.011c-.022-.011-.011-.075.011-.129A1.493,1.493,0,0,1,3.6,2.472c.108-.172.226-.3.28-.3h.011c.032.022.011.086,0,.14a1.923,1.923,0,0,1-.129.258c-.108.183-.226.312-.28.312m.4-.7c-.043,0-.151.108-.269.3l-.129.258-.022.118.022.011c.043,0,.151-.118.269-.3l.129-.258L3.9,2.193Z" transform="translate(18.094 13.133)" fill="#1d1d1b"/>
      <path id="Tracciato_2697" data-name="Tracciato 2697" d="M3.82,2.58c-.14.172-.28.3-.323.269s.043-.194.183-.377S3.97,2.182,4,2.2s-.043.2-.183.377" transform="translate(18.469 13.424)" fill="#ffd100"/>
      <path id="Tracciato_2698" data-name="Tracciato 2698" d="M3.512,2.858H3.49l.022-.14.161-.248c.129-.161.258-.269.312-.269h.022c.043.043-.065.226-.183.387s-.258.269-.312.269M3.985,2.2c-.054,0-.183.129-.3.28l-.161.237c-.032.075-.032.118-.022.129h.011c.054,0,.183-.118.3-.269.14-.183.2-.344.183-.377Z" transform="translate(18.476 13.426)" fill="#1d1d1b"/>
      <path id="Tracciato_2699" data-name="Tracciato 2699" d="M3.819,2.58c-.14.172-.28.3-.334.269-.032-.032.054-.194.194-.377s.269-.291.312-.269-.043.2-.172.377" transform="translate(18.362 13.424)" fill="#ffd100"/>
      <path id="Tracciato_2700" data-name="Tracciato 2700" d="M3.509,2.858H3.488c-.043-.043.065-.226.183-.387s.258-.269.312-.269h.011c.054.043-.054.226-.172.387s-.258.269-.312.269M3.983,2.2c-.054,0-.183.129-.3.28-.14.183-.215.344-.183.366h.011c.054,0,.183-.118.3-.269.14-.183.2-.344.183-.377Z" transform="translate(18.36 13.426)" fill="#1d1d1b"/>
      <path id="Tracciato_2701" data-name="Tracciato 2701" d="M3.815,2.576c-.14.183-.291.291-.334.258s.032-.2.172-.387.291-.291.334-.248-.032.2-.172.377" transform="translate(18.27 13.32)" fill="#ffd100"/>
      <path id="Tracciato_2702" data-name="Tracciato 2702" d="M3.506,2.856H3.485c-.032-.032-.011-.1.011-.151a1.272,1.272,0,0,1,.151-.248c.129-.151.258-.269.323-.269l.022.011c.032.032.011.1-.011.151a1.272,1.272,0,0,1-.151.248c-.129.151-.258.258-.323.258m.463-.646c-.065,0-.194.108-.312.258a1.272,1.272,0,0,0-.151.248c-.022.065-.032.108-.011.129h.011c.065,0,.194-.108.312-.258a1.272,1.272,0,0,0,.151-.248c.022-.065.032-.108.011-.129H3.969" transform="translate(18.266 13.309)" fill="#1d1d1b"/>
      <path id="Tracciato_2703" data-name="Tracciato 2703" d="M3.816,2.43c-.14.172-.28.291-.323.269s.054-.2.183-.377.291-.291.323-.269-.043.2-.183.377" transform="translate(18.44 11.959)" fill="#ffd100"/>
      <path id="Tracciato_2704" data-name="Tracciato 2704" d="M3.512,2.708H3.5c-.054-.043.054-.237.172-.387s.258-.269.312-.269h.022c.043.043-.065.226-.183.387s-.258.269-.312.269m.474-.646c-.054,0-.183.108-.3.269-.14.183-.215.334-.183.366h.011c.054,0,.183-.118.3-.269.14-.183.215-.344.183-.366Z" transform="translate(18.443 11.962)" fill="#1d1d1b"/>
      <path id="Tracciato_2705" data-name="Tracciato 2705" d="M3.83,2.438c-.14.172-.28.3-.323.269s.054-.194.194-.377.28-.291.312-.269-.043.2-.183.377" transform="translate(18.577 12.037)" fill="#ffd100"/>
      <path id="Tracciato_2706" data-name="Tracciato 2706" d="M3.529,2.715H3.508c-.022-.022,0-.086.032-.14A.964.964,0,0,1,3.7,2.327c.118-.161.248-.269.3-.269h.022c.043.043-.054.226-.183.387s-.248.269-.312.269M4,2.069c-.054,0-.172.118-.3.269a1.662,1.662,0,0,0-.151.237c-.043.075-.043.118-.032.129h.011c.054,0,.183-.118.3-.269.151-.183.215-.334.183-.366Z" transform="translate(18.566 12.03)" fill="#1d1d1b"/>
      <path id="Tracciato_2707" data-name="Tracciato 2707" d="M3.844,2.448c-.14.172-.28.291-.323.269s.043-.2.183-.377.28-.3.323-.269-.043.194-.183.377" transform="translate(18.703 12.113)" fill="#ffd100"/>
      <path id="Tracciato_2708" data-name="Tracciato 2708" d="M3.544,2.723H3.523c-.043-.043.065-.226.183-.387s.258-.269.312-.269h.011c.032.022.011.1-.011.14l-.161.248c-.129.151-.258.269-.312.269m.474-.646c-.054,0-.183.118-.3.269-.14.183-.215.344-.183.366h.011c.054,0,.183-.118.3-.269L4,2.206c.043-.075.043-.118.032-.129Z" transform="translate(18.701 12.108)" fill="#1d1d1b"/>
      <path id="Tracciato_2709" data-name="Tracciato 2709" d="M3.848,2.455c-.14.172-.28.3-.312.269s.043-.194.172-.377.28-.291.323-.269-.043.2-.183.377" transform="translate(18.817 12.203)" fill="#ffd100"/>
      <path id="Tracciato_2710" data-name="Tracciato 2710" d="M3.555,2.732H3.534c-.043-.043.065-.226.183-.387s.258-.269.312-.269H4.05l-.022.14-.161.248c-.129.151-.258.269-.312.269m.474-.646c-.054,0-.183.118-.3.269-.14.183-.215.334-.183.366h.011c.054,0,.183-.118.3-.269l.161-.237c.032-.075.032-.118.022-.129Z" transform="translate(18.809 12.196)" fill="#1d1d1b"/>
      <path id="Tracciato_2711" data-name="Tracciato 2711" d="M3.859,2.455c-.14.194-.28.291-.312.28-.043-.043.043-.194.183-.387.14-.161.28-.291.312-.258s-.043.2-.183.366" transform="translate(18.925 12.289)" fill="#ffd100"/>
      <path id="Tracciato_2712" data-name="Tracciato 2712" d="M3.56,2.741H3.549c-.054-.043.054-.226.183-.387s.248-.269.312-.269h.011c.043.043-.065.226-.183.387s-.248.269-.312.269m.484-.646c-.065,0-.194.118-.312.269-.14.183-.215.334-.183.366H3.56c.065,0,.183-.118.312-.269.14-.183.215-.334.172-.366Z" transform="translate(18.912 12.284)" fill="#1d1d1b"/>
      <path id="Tracciato_2713" data-name="Tracciato 2713" d="M3.933,2.505c-.14.172-.28.291-.323.258S3.653,2.57,3.8,2.4c.129-.183.269-.3.312-.269s-.043.194-.183.377" transform="translate(19.572 12.669)" fill="#ffd100"/>
      <path id="Tracciato_2714" data-name="Tracciato 2714" d="M3.633,2.78H3.612c-.043-.043.065-.226.183-.387s.258-.269.312-.269h.022c.043.043-.065.226-.183.387s-.258.269-.312.269m.474-.646c-.054,0-.183.118-.3.269-.14.183-.215.344-.183.366h.011a.814.814,0,0,0,.3-.269c.14-.183.215-.334.183-.366Z" transform="translate(19.57 12.664)" fill="#1d1d1b"/>
      <path id="Tracciato_2715" data-name="Tracciato 2715" d="M3.924,2.491c-.14.183-.28.3-.323.269s.043-.194.183-.377.291-.291.323-.258-.043.194-.183.366" transform="translate(19.484 12.63)" fill="#ffd100"/>
      <path id="Tracciato_2716" data-name="Tracciato 2716" d="M3.619,2.775H3.608c-.054-.032.054-.215.172-.377s.258-.28.312-.28h.022c.043.054-.065.237-.183.4s-.258.258-.312.258m.474-.646c-.054,0-.183.129-.3.28-.14.183-.215.344-.183.355h.011c.054,0,.183-.108.3-.258.14-.183.215-.344.183-.377Z" transform="translate(19.488 12.616)" fill="#1d1d1b"/>
      <path id="Tracciato_2717" data-name="Tracciato 2717" d="M3.914,2.492c-.14.172-.28.291-.323.269s.043-.194.183-.377.291-.291.323-.269-.043.2-.183.377" transform="translate(19.387 12.565)" fill="#ffd100"/>
      <path id="Tracciato_2718" data-name="Tracciato 2718" d="M3.614,2.77H3.593c-.043-.043.065-.226.183-.387s.258-.269.312-.269h.022c.043.043-.065.226-.183.387s-.258.269-.312.269m.474-.646c-.054,0-.183.118-.3.269-.14.183-.215.334-.183.366h.011c.054,0,.183-.118.3-.269.14-.183.215-.344.183-.366Z" transform="translate(19.385 12.567)" fill="#1d1d1b"/>
      <path id="Tracciato_2719" data-name="Tracciato 2719" d="M3.9,2.486c-.14.172-.28.291-.323.269s.043-.194.183-.377.28-.291.323-.269-.043.2-.183.377" transform="translate(19.25 12.506)" fill="#ffd100"/>
      <path id="Tracciato_2720" data-name="Tracciato 2720" d="M3.6,2.764H3.579c-.043-.043.065-.226.183-.387s.258-.269.312-.269H4.1c.043.043-.065.226-.183.387s-.258.269-.312.269m.474-.646c-.054,0-.183.118-.3.269-.14.183-.215.334-.183.366H3.6c.054,0,.183-.118.3-.269.14-.183.2-.344.183-.366Z" transform="translate(19.248 12.508)" fill="#1d1d1b"/>
      <path id="Tracciato_2721" data-name="Tracciato 2721" d="M3.886,2.478c-.14.172-.28.3-.323.269s.054-.194.183-.377.291-.291.323-.269-.043.2-.183.377" transform="translate(19.124 12.428)" fill="#ffd100"/>
      <path id="Tracciato_2722" data-name="Tracciato 2722" d="M3.587,2.756H3.566c-.043-.043.065-.226.183-.387s.258-.269.312-.269h.011c.032.022.011.086-.011.14L3.9,2.486c-.129.151-.258.269-.312.269m.474-.646c-.054,0-.183.118-.3.269-.14.183-.215.334-.183.355l.011.011c.054,0,.183-.118.3-.269l.151-.237.043-.118Z" transform="translate(19.121 12.43)" fill="#1d1d1b"/>
      <path id="Tracciato_2723" data-name="Tracciato 2723" d="M3.875,2.473c-.14.172-.28.3-.323.269s.054-.194.194-.377.28-.291.312-.269-.043.2-.183.377" transform="translate(19.016 12.379)" fill="#ffd100"/>
      <path id="Tracciato_2724" data-name="Tracciato 2724" d="M3.576,2.75l-.022-.011c-.043-.032.065-.215.183-.377S4,2.093,4.05,2.093h.022c.043.043-.065.226-.183.387s-.258.269-.312.269M4.05,2.1c-.054,0-.183.118-.3.269-.14.183-.215.334-.183.355l.011.011c.054,0,.172-.118.3-.269.14-.183.215-.344.183-.366Z" transform="translate(19.014 12.372)" fill="#1d1d1b"/>
      <path id="Tracciato_2725" data-name="Tracciato 2725" d="M3.778,2.48c-.14.172-.28.291-.323.269s.043-.194.194-.377c.129-.172.28-.291.312-.269s-.043.2-.183.377" transform="translate(18.059 12.447)" fill="#ffd100"/>
      <path id="Tracciato_2726" data-name="Tracciato 2726" d="M3.479,2.757H3.457c-.043-.043.054-.226.183-.387S3.9,2.1,3.952,2.1h.022c.043.043-.065.226-.183.387s-.258.269-.312.269m.474-.646c-.054,0-.183.118-.3.269-.14.183-.215.344-.183.366h.011a.814.814,0,0,0,.3-.269c.14-.183.215-.344.183-.366Z" transform="translate(18.056 12.44)" fill="#1d1d1b"/>
      <path id="Tracciato_2727" data-name="Tracciato 2727" d="M3.791,2.488c-.14.172-.28.291-.323.269s.054-.2.183-.377.28-.291.323-.269-.043.194-.183.377" transform="translate(18.196 12.525)" fill="#ffd100"/>
      <path id="Tracciato_2728" data-name="Tracciato 2728" d="M3.484,2.774l-.022-.011.022-.129.161-.248c.129-.161.258-.28.312-.28l.011.011c.054.043-.054.226-.172.387s-.258.269-.312.269m.474-.646c-.054,0-.183.118-.3.269a1.221,1.221,0,0,0-.151.237l-.043.118.022.011a.814.814,0,0,0,.3-.269c.14-.183.2-.344.183-.366Z" transform="translate(18.203 12.508)" fill="#1d1d1b"/>
      <path id="Tracciato_2729" data-name="Tracciato 2729" d="M3.8,2.495c-.14.172-.28.291-.323.269s.054-.194.194-.377.28-.291.312-.269-.043.2-.183.377" transform="translate(18.323 12.594)" fill="#ffd100"/>
      <path id="Tracciato_2730" data-name="Tracciato 2730" d="M3.505,2.773H3.484c-.043-.043.065-.226.183-.387s.258-.269.312-.269H4c.022.022,0,.086-.032.14a1.272,1.272,0,0,1-.151.248c-.129.151-.258.269-.312.269m.474-.646c-.054,0-.183.118-.3.269-.14.183-.215.334-.183.366h.011c.054,0,.172-.118.3-.269l.151-.237C4,2.181,4,2.138,3.99,2.127Z" transform="translate(18.321 12.596)" fill="#1d1d1b"/>
      <path id="Tracciato_2731" data-name="Tracciato 2731" d="M3.816,2.5c-.14.183-.28.3-.323.269s.043-.194.183-.377.291-.291.323-.269-.043.2-.183.377" transform="translate(18.43 12.682)" fill="#ffd100"/>
      <path id="Tracciato_2732" data-name="Tracciato 2732" d="M3.511,2.782H3.5c-.054-.043.054-.226.172-.387s.258-.269.312-.269h.011c.032.022.011.086-.022.14a1.271,1.271,0,0,1-.151.248c-.129.151-.258.269-.312.269m.474-.646c-.054,0-.183.118-.3.269-.14.183-.215.344-.183.366h.011c.054,0,.183-.118.3-.269l.151-.237.043-.118Z" transform="translate(18.434 12.684)" fill="#1d1d1b"/>
      <path id="Tracciato_2733" data-name="Tracciato 2733" d="M3.82,2.505c-.14.183-.28.312-.312.28s.043-.2.172-.377.291-.3.323-.269-.043.2-.183.366" transform="translate(18.544 12.777)" fill="#ffd100"/>
      <path id="Tracciato_2734" data-name="Tracciato 2734" d="M3.521,2.791H3.51c-.054-.043.054-.226.172-.387s.258-.269.312-.269H4c.054.043-.043.226-.172.387s-.258.269-.312.269m.474-.646a.814.814,0,0,0-.3.269c-.14.183-.215.334-.183.355l.011.011c.054,0,.183-.118.3-.269.151-.183.215-.344.183-.366Z" transform="translate(18.531 12.772)" fill="#1d1d1b"/>
      <path id="Tracciato_2735" data-name="Tracciato 2735" d="M3.894,2.553c-.14.172-.28.291-.323.269s.043-.194.183-.377.291-.291.323-.269-.043.2-.183.377" transform="translate(19.192 13.16)" fill="#ffd100"/>
      <path id="Tracciato_2736" data-name="Tracciato 2736" d="M3.588,2.83H3.577c-.054-.043.054-.226.172-.387s.258-.269.312-.269h.022c.043.043-.054.226-.183.387s-.258.269-.312.269m.474-.646c-.054,0-.183.118-.3.269-.14.183-.215.334-.183.366h.011c.054,0,.183-.118.3-.269.14-.183.215-.334.183-.366Z" transform="translate(19.185 13.153)" fill="#1d1d1b"/>
      <path id="Tracciato_2737" data-name="Tracciato 2737" d="M3.884,2.55c-.14.172-.28.291-.323.269s.054-.2.183-.377.28-.3.323-.269-.043.194-.183.377" transform="translate(19.104 13.109)" fill="#ffd100"/>
      <path id="Tracciato_2738" data-name="Tracciato 2738" d="M3.58,2.815H3.569c-.054-.032.054-.215.172-.377s.258-.269.312-.269h.011c.054.043-.054.226-.172.387s-.258.258-.312.258m.474-.646c-.054,0-.183.129-.3.28-.14.183-.215.334-.183.366H3.58c.054,0,.183-.118.3-.269.14-.183.215-.344.183-.377Z" transform="translate(19.107 13.114)" fill="#1d1d1b"/>
      <path id="Tracciato_2739" data-name="Tracciato 2739" d="M3.869,2.542c-.14.172-.28.291-.312.269s.032-.194.183-.377c.129-.172.28-.291.312-.269s-.043.2-.183.377" transform="translate(19.012 13.053)" fill="#ffd100"/>
      <path id="Tracciato_2740" data-name="Tracciato 2740" d="M3.567,2.82H3.545l.022-.14.161-.248c.129-.151.258-.269.312-.269h.022c.043.043-.065.226-.183.387s-.258.269-.312.269m.474-.646c-.054,0-.183.118-.3.269a1.662,1.662,0,0,0-.151.237L3.545,2.8l.011.011c.065,0,.194-.118.312-.269.14-.183.215-.334.183-.366Z" transform="translate(19.013 13.055)" fill="#1d1d1b"/>
      <path id="Tracciato_2741" data-name="Tracciato 2741" d="M3.86,2.536c-.14.172-.28.3-.323.269s.054-.194.183-.377.291-.291.323-.269-.043.2-.183.377" transform="translate(18.87 12.994)" fill="#ffd100"/>
      <path id="Tracciato_2742" data-name="Tracciato 2742" d="M3.561,2.814H3.54c-.043-.043.065-.226.183-.387s.258-.269.312-.269h.011c.054.043-.054.226-.172.387s-.258.269-.312.269m.474-.646c-.054,0-.172.118-.3.269-.14.183-.215.344-.183.366h.011c.054,0,.183-.118.3-.269.14-.183.215-.334.183-.366Z" transform="translate(18.867 12.996)" fill="#1d1d1b"/>
      <path id="Tracciato_2743" data-name="Tracciato 2743" d="M3.848,2.528c-.14.172-.28.291-.323.269s.043-.2.183-.377S4,2.13,4.031,2.151s-.043.2-.183.377" transform="translate(18.743 12.916)" fill="#ffd100"/>
      <path id="Tracciato_2744" data-name="Tracciato 2744" d="M3.548,2.806l-.022-.011c-.043-.032.065-.215.183-.377s.258-.269.312-.269h.022l-.022.14-.161.248c-.129.151-.258.269-.312.269m.474-.646c-.054,0-.183.118-.3.269-.14.183-.215.334-.183.366h.011c.054,0,.183-.118.3-.269L4,2.289c.043-.086.043-.118.032-.129Z" transform="translate(18.74 12.918)" fill="#1d1d1b"/>
      <path id="Tracciato_2745" data-name="Tracciato 2745" d="M3.83,2.523c-.14.172-.28.291-.312.269s.043-.194.183-.377.28-.291.312-.269-.043.2-.183.377" transform="translate(18.642 12.867)" fill="#ffd100"/>
      <path id="Tracciato_2746" data-name="Tracciato 2746" d="M3.531,2.8H3.52c-.054-.043.054-.226.172-.387s.258-.269.323-.269h0c.054.043-.054.226-.172.387s-.258.269-.312.269m.484-.646c-.065,0-.194.118-.312.269-.14.183-.215.344-.183.366h.011c.054,0,.183-.118.3-.269.14-.183.215-.334.183-.366Z" transform="translate(18.629 12.86)" fill="#1d1d1b"/>
    </g>
  </g>
</svg>
