<svg xmlns="http://www.w3.org/2000/svg" xmlns:xlink="http://www.w3.org/1999/xlink" width="24" height="24" viewBox="0 0 24 24">
  <defs>
    <clipPath id="clip-path">
      <path id="Tracciato_2765" data-name="Tracciato 2765" d="M1.1,12.749a12,12,0,1,0,12-12,11.99,11.99,0,0,0-12,12" transform="translate(-1.101 -0.749)" fill="none"/>
    </clipPath>
  </defs>
  <g id="Giamaica" transform="translate(-1.101 -0.749)">
    <g id="Raggruppa_58" data-name="Raggruppa 58" transform="translate(1.101 0.749)" clip-path="url(#clip-path)">
      <rect id="Rettangolo_233" data-name="Rettangolo 233" width="47.688" height="23.839" transform="translate(-11.849 0.086)" fill="#308a2a"/>
      <path id="Tracciato_2762" data-name="Tracciato 2762" d="M0,.757,23.839,12.681,0,24.6Z" transform="translate(-11.849 -0.674)"/>
      <path id="Tracciato_2763" data-name="Tracciato 2763" d="M26.055.757,2.216,12.681,26.055,24.6Z" transform="translate(9.784 -0.674)"/>
      <path id="Tracciato_2764" data-name="Tracciato 2764" d="M28.294,12.682,47.688,2.963V.757H43.254l-19.4,9.7L4.445.757H0V2.963l19.4,9.718L0,22.379V24.6H4.5l19.351-9.686L43.189,24.6h4.5V22.379Z" transform="translate(-11.852 -0.671)" fill="#f9da00"/>
    </g>
  </g>
</svg>
