<svg xmlns="http://www.w3.org/2000/svg" xmlns:xlink="http://www.w3.org/1999/xlink" width="24" height="24" viewBox="0 0 24 24">
  <defs>
    <clipPath id="clip-path">
      <path id="Tracciato_2836" data-name="Tracciato 2836" d="M.679,12.749a12,12,0,1,0,12-12,11.99,11.99,0,0,0-12,12" transform="translate(-0.679 -0.749)" fill="none"/>
    </clipPath>
  </defs>
  <g id="Gibilterra" transform="translate(-0.679 -0.749)">
    <g id="Raggruppa_60" data-name="Raggruppa 60" transform="translate(0.679 0.749)" clip-path="url(#clip-path)">
      <rect id="Rettangolo_235" data-name="Rettangolo 235" width="35.29" height="24" transform="translate(-7.308 0)" fill="#fff"/>
      <rect id="Rettangolo_236" data-name="Rettangolo 236" width="35.29" height="7.943" transform="translate(-7.308 16.057)" fill="#fe0005"/>
      <rect id="Rettangolo_237" data-name="Rettangolo 237" width="3.422" height="4.165" transform="translate(13.84 9.912)" fill="#fe0005"/>
      <path id="Tracciato_2768" data-name="Tracciato 2768" d="M5.417,5.9H1.994l-.032-.032V1.7l.032-.032H5.417l.032.032V5.864L5.417,5.9m-3.39-.075H5.384V1.732H2.027Z" transform="translate(11.846 8.213)"/>
      <rect id="Rettangolo_238" data-name="Rettangolo 238" width="2.174" height="4.176" transform="translate(14.465 5.403)" fill="#fe0005"/>
      <path id="Tracciato_2769" data-name="Tracciato 2769" d="M4.226,5.5H2.052L2.02,5.466V1.29l.032-.043H4.226l.043.043V5.466L4.226,5.5M2.085,5.423H4.194v-4.1H2.085Z" transform="translate(12.412 4.113)"/>
      <rect id="Rettangolo_239" data-name="Rettangolo 239" width="4.176" height="0.334" transform="translate(13.464 9.578)" fill="#fe0005"/>
      <path id="Tracciato_2770" data-name="Tracciato 2770" d="M6.135,2.044H1.959l-.032-.032V1.678l.032-.043H6.135l.043.043v.334l-.043.032M1.992,1.979H6.1V1.71H1.992Z" transform="translate(11.504 7.9)"/>
      <rect id="Rettangolo_240" data-name="Rettangolo 240" width="4.714" height="0.506" transform="translate(13.195 14.4)" fill="#fe0005"/>
      <path id="Tracciato_2771" data-name="Tracciato 2771" d="M6.648,2.654H1.934L1.9,2.622V2.116l.032-.032H6.648l.032.032v.506l-.032.032M1.967,2.59H6.616v-.43H1.967Z" transform="translate(11.26 12.284)"/>
      <path id="Tracciato_2772" data-name="Tracciato 2772" d="M1.905,2.39l.646-.334H5.973l.646.334Z" transform="translate(11.292 12.011)" fill="#fe0005"/>
      <path id="Tracciato_2773" data-name="Tracciato 2773" d="M6.649,2.452H1.925L1.9,2.441l.011-.054.646-.334H6.014l.635.323.032.032-.032.043M2.075,2.377H6.5l-.506-.258H2.581Z" transform="translate(11.27 11.991)"/>
      <path id="Tracciato_2774" data-name="Tracciato 2774" d="M3.008,1.8h-.1a.866.866,0,0,0-.872.861V4.617h1.83V2.658A.864.864,0,0,0,3.008,1.8" transform="translate(12.598 9.482)"/>
      <path id="Tracciato_2775" data-name="Tracciato 2775" d="M2.71,1.409H2.495a.427.427,0,0,0-.42.42V3.454H3.13V1.829a.42.42,0,0,0-.42-.42" transform="translate(12.949 5.694)"/>
      <path id="Tracciato_2776" data-name="Tracciato 2776" d="M5.983,1.543v.42H5.434v-.42H4.691V2H3.648V1.543H2.9v.42H2.356v-.42H1.915V2.576h4.5V1.543Z" transform="translate(11.385 7.004)" fill="#fe0005"/>
      <path id="Tracciato_2777" data-name="Tracciato 2777" d="M6.443,2.638H1.955l-.043-.043V1.572l.043-.032h.43l.032.032V1.96H2.9V1.572l.032-.032h.743l.032.032v.42h.979v-.42l.032-.032h.743l.032.032V1.96H5.98V1.572l.032-.032h.43l.043.032V2.595l-.043.043M1.987,2.562H6.411V1.6H6.055v.387l-.043.032H5.464l-.032-.032V1.6H4.753v.42l-.032.043H3.677l-.032-.043V1.6H2.977v.387l-.043.032H2.386l-.032-.032V1.6H1.987Z" transform="translate(11.358 6.973)"/>
      <rect id="Rettangolo_241" data-name="Rettangolo 241" width="2.798" height="0.226" transform="translate(14.152 5.177)" fill="#fe0005"/>
      <path id="Tracciato_2778" data-name="Tracciato 2778" d="M4.821,1.528h-2.8l-.032-.043V1.27l.032-.043h2.8l.043.043v.215l-.043.043M2.056,1.453H4.789V1.3H2.056Z" transform="translate(12.129 3.917)"/>
      <path id="Tracciato_2779" data-name="Tracciato 2779" d="M4.707,1.167v.28H4.341v-.28H3.835v.312H3.147V1.167H2.641v.28H2.275v-.28H1.984v.689H5V1.167Z" transform="translate(12.063 3.329)" fill="#fe0005"/>
      <path id="Tracciato_2780" data-name="Tracciato 2780" d="M5.027,1.927h-3l-.043-.043V1.2l.043-.032h.291l.032.032v.248h.3V1.2l.032-.032h.5l.032.032v.28h.635V1.2l.032-.032h.5L4.4,1.2v.248h.3V1.2l.043-.032h.28L5.07,1.2v.689l-.043.043m-2.97-.075H4.994V1.238H4.779v.248l-.032.032H4.37l-.032-.032V1.238h-.43v.269l-.032.032h-.7l-.032-.032V1.238h-.43v.248l-.032.032H2.315l-.043-.032V1.238H2.056Z" transform="translate(12.032 3.293)"/>
      <rect id="Rettangolo_242" data-name="Rettangolo 242" width="3.422" height="4.165" transform="translate(7.06 9.912)" fill="#fe0005"/>
      <path id="Tracciato_2781" data-name="Tracciato 2781" d="M4.8,5.9H1.374l-.043-.032V1.7l.043-.032H4.8l.032.032V5.864L4.8,5.9m-3.39-.075H4.753V1.732H1.406Z" transform="translate(5.686 8.213)"/>
      <rect id="Rettangolo_243" data-name="Rettangolo 243" width="2.174" height="4.176" transform="translate(7.684 5.403)" fill="#fe0005"/>
      <path id="Tracciato_2782" data-name="Tracciato 2782" d="M3.606,5.5H1.432l-.043-.032V1.29l.043-.043H3.606l.032.043V5.466L3.606,5.5M1.464,5.423H3.574v-4.1H1.464Z" transform="translate(6.252 4.113)"/>
      <rect id="Rettangolo_244" data-name="Rettangolo 244" width="4.176" height="0.334" transform="translate(6.683 9.578)" fill="#fe0005"/>
      <path id="Tracciato_2783" data-name="Tracciato 2783" d="M5.515,2.044H1.328L1.3,2.012V1.678l.032-.043H5.515l.032.043v.334l-.032.032M1.371,1.979H5.483V1.71H1.371Z" transform="translate(5.344 7.9)"/>
      <rect id="Rettangolo_245" data-name="Rettangolo 245" width="4.714" height="0.506" transform="translate(6.414 14.4)" fill="#fe0005"/>
      <path id="Tracciato_2784" data-name="Tracciato 2784" d="M6.028,2.654H1.314l-.043-.032V2.116l.043-.032H6.028l.032.032v.506l-.032.032M1.346,2.59H6v-.43H1.346Z" transform="translate(5.1 12.284)"/>
      <path id="Tracciato_2785" data-name="Tracciato 2785" d="M1.275,2.39l.646-.334H5.343l.646.334Z" transform="translate(5.137 12.011)" fill="#fe0005"/>
      <path id="Tracciato_2786" data-name="Tracciato 2786" d="M6.017,2.452H1.3L1.271,2.42V2.388l.667-.334H5.382l.646.323.032.032-.043.043M1.454,2.377H5.877l-.506-.258H1.96Z" transform="translate(5.1 11.991)"/>
      <path id="Tracciato_2787" data-name="Tracciato 2787" d="M2.377,1.8h-.1a.866.866,0,0,0-.872.861V4.617h1.83V2.658A.864.864,0,0,0,2.377,1.8" transform="translate(6.438 9.482)"/>
      <path id="Tracciato_2788" data-name="Tracciato 2788" d="M2.079,1.409H1.864a.427.427,0,0,0-.42.42V3.454H2.5V1.829a.42.42,0,0,0-.42-.42" transform="translate(6.789 5.694)"/>
      <path id="Tracciato_2789" data-name="Tracciato 2789" d="M5.353,1.543v.42H4.8v-.42H4.061V2H3.017V1.543H2.275v.42H1.726v-.42H1.285V2.576h4.5V1.543Z" transform="translate(5.232 7.004)" fill="#fe0005"/>
      <path id="Tracciato_2790" data-name="Tracciato 2790" d="M5.813,2.638h-4.5l-.032-.043V1.572l.032-.032h.43l.043.032V1.96h.474V1.572l.032-.032h.743l.043.032v.42h.969v-.42L4.08,1.54h.743l.043.032V1.96h.474V1.572l.032-.032h.441l.032.032V2.595l-.032.043M1.347,2.562H5.77V1.6H5.415v.387l-.043.032H4.823l-.032-.032V1.6H4.123v.42l-.043.043H3.036L3,2.024V1.6H2.337v.387l-.043.032H1.745l-.032-.032V1.6H1.347Z" transform="translate(5.208 6.973)"/>
      <rect id="Rettangolo_246" data-name="Rettangolo 246" width="2.798" height="0.226" transform="translate(7.372 5.177)" fill="#fe0005"/>
      <path id="Tracciato_2791" data-name="Tracciato 2791" d="M4.2,1.528H1.392L1.36,1.485V1.27l.032-.043H4.2l.032.043v.215L4.2,1.528M1.435,1.453H4.169V1.3H1.435Z" transform="translate(5.969 3.917)"/>
      <path id="Tracciato_2792" data-name="Tracciato 2792" d="M4.077,1.167v.28H3.711v-.28H3.205v.312h-.7V1.167h-.5v.28H1.644v-.28H1.354v.689H4.367V1.167Z" transform="translate(5.91 3.329)" fill="#fe0005"/>
      <path id="Tracciato_2793" data-name="Tracciato 2793" d="M4.407,1.927H1.393L1.35,1.884V1.2l.043-.032h.291l.032.032v.248h.3V1.2l.032-.032h.5l.043.032v.28h.624V1.2l.032-.032h.5l.043.032v.248h.291V1.2l.043-.032h.291l.032.032v.689l-.032.043M1.425,1.852H4.363V1.238H4.148v.248l-.032.032H3.739l-.032-.032V1.238h-.42v.269l-.043.032h-.7l-.032-.032V1.238h-.43v.248l-.032.032H1.684l-.032-.032V1.238H1.425Z" transform="translate(5.872 3.293)"/>
      <rect id="Rettangolo_247" data-name="Rettangolo 247" width="4.165" height="4.165" transform="translate(10.106 10.03)" fill="#fe0005"/>
      <path id="Tracciato_2794" data-name="Tracciato 2794" d="M5.822,5.917H1.657l-.043-.032V1.72l.043-.043H5.822l.032.043V5.885l-.032.032M1.7,5.842H5.779V1.763H1.7Z" transform="translate(8.449 8.31)"/>
      <rect id="Rettangolo_248" data-name="Rettangolo 248" width="2.648" height="4.531" transform="translate(10.859 5.134)" fill="#fe0005"/>
      <path id="Tracciato_2795" data-name="Tracciato 2795" d="M4.375,5.839H1.727L1.684,5.8V1.265l.043-.043H4.375l.043.043V5.8l-.043.043m-2.6-.086H4.332V1.308H1.77Z" transform="translate(9.132 3.869)"/>
      <rect id="Rettangolo_249" data-name="Rettangolo 249" width="5.08" height="0.366" transform="translate(9.643 9.665)" fill="#fe0005"/>
      <path id="Tracciato_2796" data-name="Tracciato 2796" d="M6.684,2.1H1.6l-.032-.043V1.686L1.6,1.643h5.08l.043.043v.366L6.684,2.1M1.647,2.009H6.641v-.28H1.647Z" transform="translate(8.039 7.979)"/>
      <rect id="Rettangolo_250" data-name="Rettangolo 250" width="5.726" height="0.549" transform="translate(9.32 14.551)" fill="#fe0005"/>
      <path id="Tracciato_2797" data-name="Tracciato 2797" d="M7.31,2.732H1.584l-.043-.043V2.14L1.584,2.1H7.31l.043.043v.549l-.043.043M1.627,2.646h5.65V2.183H1.627Z" transform="translate(7.736 12.411)"/>
      <path id="Tracciato_2798" data-name="Tracciato 2798" d="M1.545,2.423l.786-.355H6.485l.786.355Z" transform="translate(7.776 12.128)" fill="#fe0005"/>
      <path id="Tracciato_2799" data-name="Tracciato 2799" d="M7.31,2.494H1.584l-.043-.022.022-.054.786-.355H6.535l.786.355.032.043-.043.032M1.778,2.419H7.127l-.613-.28H2.37Z" transform="translate(7.736 12.088)"/>
      <path id="Tracciato_2800" data-name="Tracciato 2800" d="M2.817,1.819h0A1.109,1.109,0,0,0,1.708,2.938V4.52H3.925V2.938A1.109,1.109,0,0,0,2.817,1.819" transform="translate(9.366 9.697)"/>
      <path id="Tracciato_2801" data-name="Tracciato 2801" d="M2.548,1.4H2.236a.482.482,0,0,0-.484.484V3.615H3.033V1.882A.482.482,0,0,0,2.548,1.4" transform="translate(9.796 5.587)"/>
      <path id="Tracciato_2802" data-name="Tracciato 2802" d="M6.5,1.544V2H5.83V1.544h-.9v.5H3.656v-.5H2.763V2H2.085V1.544H1.557V2.663H7.024V1.544Z" transform="translate(7.894 7.01)" fill="#fe0005"/>
      <path id="Tracciato_2803" data-name="Tracciato 2803" d="M7.063,2.744H1.6l-.043-.032V1.593L1.6,1.539h.527l.043.054V2h.592V1.593l.032-.054h.9l.043.054v.463H4.922V1.593l.043-.054h.9l.032.054V2h.592V1.593l.043-.054h.527l.043.054V2.712l-.043.032M1.639,2.658H7.02V1.636H6.579v.42l-.043.032H5.869l-.043-.032v-.42H5.008v.452l-.043.043H3.695l-.043-.043V1.636H2.834v.42l-.043.032H2.123l-.032-.032v-.42H1.639Z" transform="translate(7.853 6.963)"/>
      <rect id="Rettangolo_251" data-name="Rettangolo 251" width="3.401" height="0.248" transform="translate(10.483 4.897)" fill="#fe0005"/>
      <path id="Tracciato_2804" data-name="Tracciato 2804" d="M5.093,1.534h-3.4l-.043-.043V1.243L1.692,1.2h3.4l.043.043v.248l-.043.043M1.735,1.448H5.061V1.286H1.735Z" transform="translate(8.79 3.654)"/>
      <path id="Tracciato_2805" data-name="Tracciato 2805" d="M4.946,1.135v.312H4.494V1.135h-.6v.334h-.85V1.135h-.6v.312H2V1.135H1.642v.753H5.3V1.135Z" transform="translate(8.718 3.015)" fill="#fe0005"/>
      <path id="Tracciato_2806" data-name="Tracciato 2806" d="M5.339,1.96H1.68l-.043-.043V1.163l.043-.032h.355l.043.032v.269h.366V1.163l.043-.032h.6l.032.032v.3H3.9v-.3l.043-.032h.6l.043.032v.269h.366V1.163l.043-.032h.344l.043.032v.753l-.043.043M1.723,1.874H5.3V1.206H5.027v.269l-.032.043H4.543L4.5,1.475V1.206H3.983V1.5L3.94,1.54H3.09L3.047,1.5V1.206H2.53v.269l-.043.043H2.035l-.043-.043V1.206H1.723Z" transform="translate(8.673 2.98)"/>
      <rect id="Rettangolo_252" data-name="Rettangolo 252" width="0.301" height="1.259" transform="translate(12.043 5.5)"/>
      <rect id="Rettangolo_253" data-name="Rettangolo 253" width="0.301" height="0.936" transform="translate(12.678 5.726)"/>
      <rect id="Rettangolo_254" data-name="Rettangolo 254" width="0.301" height="0.936" transform="translate(11.397 5.726)"/>
      <rect id="Rettangolo_255" data-name="Rettangolo 255" width="0.387" height="4.552" transform="translate(11.978 17.015)" fill="#ffd900"/>
      <path id="Tracciato_2807" data-name="Tracciato 2807" d="M2.2,6.924H1.812L1.79,6.9V2.35l.022-.022H2.2l.022.022V6.9L2.2,6.924M1.833,6.88h.344V2.371H1.833Z" transform="translate(10.167 14.666)"/>
      <rect id="Rettangolo_256" data-name="Rettangolo 256" width="0.387" height="3.842" transform="translate(11.978 17.381)" fill="#ffd900"/>
      <path id="Tracciato_2808" data-name="Tracciato 2808" d="M2.2,6.237H1.812L1.79,6.216V2.385l.022-.022H2.2l.022.022V6.216Zm-.366-.043h.344V2.4H1.833Z" transform="translate(10.167 15.007)"/>
      <path id="Tracciato_2809" data-name="Tracciato 2809" d="M2.983,3.163h-.4V2.851H2.068v.312h-.4V2.571H2.983Z" transform="translate(8.995 17.041)" fill="#ffd900"/>
      <path id="Tracciato_2810" data-name="Tracciato 2810" d="M3,3.2H2.6l-.022-.022V2.892H2.109v.291L2.1,3.2H1.69l-.022-.022V2.591l.022-.022H3l.011.022v.592L3,3.2m-.377-.043h.355V2.612H1.711v.549h.355V2.87l.022-.022H2.6l.022.022Z" transform="translate(8.976 17.018)"/>
      <path id="Tracciato_2811" data-name="Tracciato 2811" d="M2.983,2.659h-.4v.312H2.068V2.659h-.4v.592H2.983Z" transform="translate(8.995 17.901)" fill="#ffd900"/>
      <path id="Tracciato_2812" data-name="Tracciato 2812" d="M3,3.292H1.69l-.022-.011v-.6l.022-.022h.4l.022.022v.291h.474V2.679L2.6,2.657H3l.022.022V3.27L3,3.292M1.711,3.249h1.27V2.7H2.626v.312H2.088l-.022-.022V2.7H1.711Z" transform="translate(8.976 17.878)"/>
      <path id="Tracciato_2813" data-name="Tracciato 2813" d="M1.813,2.637a3.193,3.193,0,0,1,.527-.355c.194-.1.366-.183.527-.248v.248a3.073,3.073,0,0,0-.409.215,2.69,2.69,0,0,0-.409.3l-.237-.161" transform="translate(10.391 11.796)" fill="#ffd900"/>
      <path id="Tracciato_2814" data-name="Tracciato 2814" d="M2.08,2.839H2.069l-.248-.161-.011-.011.011-.022A3.882,3.882,0,0,1,2.36,2.29a4.781,4.781,0,0,1,.527-.258h.022l.011.022V2.3l-.011.022a2.126,2.126,0,0,0-.409.215,3.532,3.532,0,0,0-.409.291l-.011.011m-.215-.183.215.14a2.734,2.734,0,0,1,.8-.506v-.2a4.327,4.327,0,0,0-.506.237,5.127,5.127,0,0,0-.506.334" transform="translate(10.372 11.776)"/>
      <path id="Tracciato_2815" data-name="Tracciato 2815" d="M1.87,2.435l-.022-.022L1.838,2.09l.022-.022.022.022.011.323-.022.022" transform="translate(10.634 12.134)"/>
      <path id="Tracciato_2816" data-name="Tracciato 2816" d="M1.877,2.392l-.022-.011v-.3l.022-.022L1.9,2.08v.291Z" transform="translate(10.804 12.036)"/>
      <path id="Tracciato_2817" data-name="Tracciato 2817" d="M1.893,2.362h0L1.871,2.34V2.071l.011-.022h.011l.022.022V2.34l-.022.022" transform="translate(10.961 11.95)"/>
      <path id="Tracciato_2818" data-name="Tracciato 2818" d="M1.909,2.343l-.022-.022V2.063l.022-.022.022.011v.269l-.022.022" transform="translate(11.122 11.87)"/>
      <path id="Tracciato_2819" data-name="Tracciato 2819" d="M1.721,2.034a4.393,4.393,0,0,1,.936.463,3.7,3.7,0,0,1,.538.409.351.351,0,0,1,.022.258.375.375,0,0,1-.291.226.4.4,0,0,1-.344-.108.337.337,0,0,1-.065-.334A.377.377,0,0,1,2.646,2.8q-.194-.129-.42-.258c-.172-.1-.344-.183-.517-.269l.011-.237" transform="translate(9.386 11.796)" fill="#ffd900"/>
      <path id="Tracciato_2820" data-name="Tracciato 2820" d="M2.87,3.431a.426.426,0,0,1-.291-.108.381.381,0,0,1-.065-.366.389.389,0,0,1,.118-.14c-.129-.086-.269-.161-.4-.237-.172-.1-.344-.183-.517-.269L1.708,2.3l.011-.248V2.043l.022-.011a5.144,5.144,0,0,1,.947.463,6.443,6.443,0,0,1,.538.409v.011a.346.346,0,0,1,.022.269.377.377,0,0,1-.312.248H2.87M1.751,2.28c.172.086.334.172.506.269a4.419,4.419,0,0,1,.42.258l.011.011-.011.011a.288.288,0,0,0-.118.151.292.292,0,0,0,.054.312A.341.341,0,0,0,2.87,3.4l.065-.011a.368.368,0,0,0,.28-.215.326.326,0,0,0-.022-.237,5.054,5.054,0,0,0-.538-.409,4.058,4.058,0,0,0-.893-.441Z" transform="translate(9.366 11.776)"/>
      <path id="Tracciato_2821" data-name="Tracciato 2821" d="M2.032,2.491H2.021l-.086-.043V2.416h.032l.065.032.075-.043L2.1,2.362,2.01,2.287l-.2-.151L1.8,2.1h.032a1.348,1.348,0,0,1,.215.151l.075.075a.093.093,0,0,1,.032.086c-.011.054-.075.075-.118.075" transform="translate(10.216 12.479)"/>
      <path id="Tracciato_2822" data-name="Tracciato 2822" d="M1.753,2.353l-.022-.022V2.063l.011-.022.032.011v.28Z" transform="translate(9.599 11.864)"/>
      <path id="Tracciato_2823" data-name="Tracciato 2823" d="M1.776,2.385l-.022-.011v-.3l.022-.022.022.022v.291l-.022.022" transform="translate(9.817 11.964)"/>
      <path id="Tracciato_2824" data-name="Tracciato 2824" d="M1.8,2.406l-.022-.022V2.073l.011-.011.032.011v.312L1.8,2.406" transform="translate(10.015 12.07)"/>
      <path id="Tracciato_2825" data-name="Tracciato 2825" d="M1.814,2.417h0l-.022-.011.022-.312.022-.022.022.022-.022.3-.022.022" transform="translate(10.19 12.177)"/>
      <path id="Tracciato_2826" data-name="Tracciato 2826" d="M1.829,2.388H1.818l-.011-.032L1.882,2.1,1.9,2.087l.011.032-.065.258-.022.011" transform="translate(10.334 12.31)"/>
      <path id="Tracciato_2827" data-name="Tracciato 2827" d="M1.842,2.35H1.831l-.011-.022.161-.215L1.993,2.1l.022.032-.151.2Z" transform="translate(10.466 12.468)"/>
      <path id="Tracciato_2828" data-name="Tracciato 2828" d="M2.105,2.17H1.836l-.011-.022.011-.022h.269l.022.022-.022.022" transform="translate(10.513 12.701)"/>
      <path id="Tracciato_2829" data-name="Tracciato 2829" d="M2.058,2.317H2.048l-.215-.14-.011-.022.022-.022.226.151.011.022Z" transform="translate(10.476 12.769)"/>
      <path id="Tracciato_2830" data-name="Tracciato 2830" d="M1.881,2.416,1.86,2.394l-.043-.226.011-.032.032.011.043.248Z" transform="translate(10.429 12.789)"/>
      <path id="Tracciato_2831" data-name="Tracciato 2831" d="M1.8,2.339H1.793V2.307l.194-.172h.022v.032l-.194.161Z" transform="translate(10.2 12.782)"/>
      <path id="Tracciato_2832" data-name="Tracciato 2832" d="M2.532,2.374l.032.151v.85a.407.407,0,0,1-.4.409.4.4,0,0,1-.387-.409v-.85a.4.4,0,0,1,.366-.409c.1.065.172.129.14.194l-.118-.022a.237.237,0,0,0-.226.237v.85a.231.231,0,1,0,.463,0v-.85a.263.263,0,0,0,.129-.151" transform="translate(10.06 12.596)" fill="#ffd900"/>
      <path id="Tracciato_2833" data-name="Tracciato 2833" d="M2.187,3.825a.421.421,0,0,1-.409-.43v-.85a.416.416,0,0,1,.377-.43h.022c.086.065.183.14.14.226l-.022.011H2.284l-.1-.032a.225.225,0,0,0-.215.226v.85a.21.21,0,1,0,.42,0v-.85L2.4,2.534a.3.3,0,0,0,.129-.151l.011-.011.022.011.032.161v.85a.421.421,0,0,1-.409.43M2.155,2.157a.379.379,0,0,0-.344.387v.85a.384.384,0,0,0,.377.387.375.375,0,0,0,.366-.387v-.85l-.011-.1-.108.118v.829a.26.26,0,0,1-.248.258.253.253,0,0,1-.248-.258v-.85a.253.253,0,0,1,.248-.258l.1.022c0-.043-.043-.086-.129-.151" transform="translate(10.05 12.577)"/>
      <path id="Tracciato_2834" data-name="Tracciato 2834" d="M2.83,2.66A1.655,1.655,0,0,1,2.819,2.3L2.98,2.2l1.076.635h.226v.334H4.057l-1.065.646L1.915,3.176l-.226-.011V2.832h.2l.764-.441v.258l.011.054.011.032-.506.28.807.463.786-.463L2.98,2.541Z" transform="translate(9.181 13.387)" fill="#ffd900"/>
      <path id="Tracciato_2835" data-name="Tracciato 2835" d="M3.011,3.842H3L1.935,3.217l-.226-.011-.022-.022V2.852l.022-.022h.2l.753-.441h.022L2.7,2.41l.011.258v.043l.011.022-.011.032-.474.258.775.441.732-.43-.732-.452-.14.108H2.839a1.1,1.1,0,0,1-.022-.3l.011-.065V2.3l.161-.108h.022l1.065.635H4.3l.022.022v.323L4.3,3.2H4.087l-1.065.646H3.011M1.73,3.164l.215.011L3.011,3.8l1.065-.635h.215V2.873H4.065L3,2.238l-.14.1v.054l.011.248L3,2.539h.022l.775.474.011.022v.011l-.786.463H3l-.807-.463-.011-.022.011-.011.484-.28-.011-.065-.011-.226-.721.42H1.924l-.194.011Z" transform="translate(9.161 13.367)"/>
    </g>
  </g>
</svg>
