<svg xmlns="http://www.w3.org/2000/svg" xmlns:xlink="http://www.w3.org/1999/xlink" width="24" height="24" viewBox="0 0 24 24">
  <defs>
    <clipPath id="clip-path">
      <path id="Tracciato_2872" data-name="Tracciato 2872" d="M.263,12.749a12,12,0,1,0,12-12,12,12,0,0,0-12,12" transform="translate(-0.263 -0.749)" fill="none"/>
    </clipPath>
  </defs>
  <g id="Guadalupa" transform="translate(-0.263 -0.749)">
    <g id="Raggruppa_65" data-name="Raggruppa 65" transform="translate(0.263 0.749)" clip-path="url(#clip-path)">
      <rect id="Rettangolo_271" data-name="Rettangolo 271" width="29.661" height="24" transform="translate(-2.83 0)" fill="#00138c"/>
      <rect id="Rettangolo_272" data-name="Rettangolo 272" width="29.661" height="15.853" transform="translate(-2.83 8.147)" fill="#fe0014"/>
      <path id="Tracciato_2852" data-name="Tracciato 2852" d="M15.026,6.32l-.161-.032c-.108-.011-.258-.043-.463-.075s-.43-.086-.71-.129c-.14-.032-.28-.065-.43-.086s-.323-.065-.5-.108c-.334-.065-.7-.151-1.076-.237s-.786-.183-1.205-.291-.85-.215-1.281-.344c-.2-.054-.441-.118-.657-.183s-.441-.129-.646-.2c-.452-.129-.883-.269-1.313-.409s-.85-.291-1.259-.43S4.555,3.5,4.178,3.36s-.721-.28-1.044-.409l-.441-.194c-.14-.054-.28-.118-.409-.161l-.366-.161-.3-.129-.43-.194-.14-.065.14.065.43.183.3.129.366.151c.129.043.269.108.409.161.161.054.3.118.463.183.334.118.667.248,1.044.387l1.162.409c.4.14.839.28,1.259.409s.872.269,1.3.4c.226.065.441.118.667.183s.43.118.657.172c.43.118.861.226,1.27.323s.829.183,1.216.269.743.161,1.076.226c.172.032.334.054.484.086l.441.086.71.118.452.065.172.032Z" transform="translate(7.381 11.923)" fill="#007c00"/>
      <path id="Tracciato_2853" data-name="Tracciato 2853" d="M14.788,7.022l-.172-.032c-.108-.032-.248-.065-.452-.108-.183-.043-.43-.108-.7-.172L13.023,6.6l-.463-.129q-.517-.129-1.065-.291c-.387-.108-.8-.237-1.195-.355s-.839-.269-1.259-.409L8.4,5.193,7.75,4.967c-.43-.161-.872-.323-1.281-.484s-.829-.334-1.238-.5c-.387-.172-.764-.334-1.13-.5s-.689-.312-1-.463c-.161-.065-.312-.14-.452-.2s-.269-.14-.4-.194L1.9,2.459,1.6,2.309l-.42-.215-.14-.075.14.075c.108.043.237.118.42.2l.3.14.355.172.4.183.452.2c.312.14.657.291,1.022.441s.743.312,1.141.474.807.323,1.227.474.861.312,1.291.463l.646.226c.215.065.42.14.646.2.43.14.861.269,1.27.387s.807.237,1.184.334.743.194,1.065.28c.172.043.323.075.474.118l.441.1.71.161.441.1.161.032Z" transform="translate(7.371 11.639)" fill="#007c00"/>
      <path id="Tracciato_2854" data-name="Tracciato 2854" d="M14.443,7.859l-.161-.043-.441-.14c-.194-.054-.43-.129-.689-.215l-.43-.129-.463-.161c-.334-.108-.678-.226-1.055-.366s-.764-.269-1.162-.43-.818-.312-1.227-.484l-.635-.258c-.2-.1-.42-.183-.624-.28-.42-.183-.839-.366-1.248-.56S5.5,4.4,5.112,4.211,4.359,3.834,4,3.651l-.969-.517L2.6,2.887l-.387-.215c-.129-.075-.237-.14-.344-.194l-.291-.172-.4-.237-.14-.086.14.086.409.226.291.161c.108.065.215.129.344.194l.387.215.43.226c.3.161.635.334.99.517s.721.355,1.109.538.786.366,1.205.56c.409.172.829.366,1.248.538l.635.258.635.258c.42.161.829.312,1.238.463s.786.28,1.162.409.721.237,1.044.344c.172.054.323.1.474.151l.43.129c.258.075.5.151.689.2l.441.118.161.043Z" transform="translate(7.361 11.298)" fill="#007c00"/>
      <path id="Tracciato_2855" data-name="Tracciato 2855" d="M14.173,8.429l-.161-.054-.441-.151c-.194-.065-.42-.151-.689-.248-.118-.054-.269-.1-.42-.151-.129-.065-.3-.118-.441-.183-.323-.118-.678-.258-1.033-.409s-.764-.312-1.152-.484-.8-.344-1.205-.538l-.613-.291c-.215-.1-.43-.194-.624-.3-.409-.194-.818-.409-1.216-.613S5.391,4.587,5,4.383c-.366-.215-.743-.42-1.076-.613s-.657-.387-.947-.57q-.226-.129-.42-.258c-.14-.086-.258-.161-.377-.248-.118-.054-.226-.14-.334-.194l-.28-.194-.387-.248-.14-.086.14.086.4.248a1.706,1.706,0,0,1,.269.183l.344.2c.118.054.248.151.377.215L3,3.167c.291.172.6.366.958.56.334.183.71.387,1.076.581s.786.409,1.173.613c.42.194.829.4,1.238.592l.624.291c.2.1.409.194.613.28q.613.274,1.227.517c.387.172.775.323,1.13.463.377.14.71.269,1.044.4l.463.161c.14.054.28.1.409.151.269.086.5.172.689.226l.441.151.161.054Z" transform="translate(7.352 11.19)" fill="#007c00"/>
      <path id="Tracciato_2856" data-name="Tracciato 2856" d="M13.885,8.947l-.151-.054-.441-.172-.667-.269-.409-.172c-.14-.054-.291-.129-.452-.2-.312-.129-.657-.28-1.012-.452-.366-.151-.743-.344-1.13-.517s-.786-.387-1.184-.592l-.6-.323-.6-.312c-.409-.237-.807-.452-1.195-.689L4.9,4.534c-.366-.237-.721-.441-1.055-.657s-.635-.42-.926-.6L2.509,3l-.366-.248-.323-.226a2.911,2.911,0,0,1-.269-.194l-.377-.269-.14-.1.14.1.377.258c.086.065.183.118.28.194l.323.215.377.248.409.269q.436.274.936.581c.334.215.689.42,1.065.646s.753.42,1.141.646.807.43,1.205.656l.613.312c.2.1.4.194.6.3.409.194.807.387,1.195.57s.764.355,1.13.506.7.291,1.012.441c.161.065.312.118.463.172a4.19,4.19,0,0,0,.409.172l.667.269a3.713,3.713,0,0,1,.441.161l.151.043Z" transform="translate(7.274 11.093)" fill="#007c00"/>
      <path id="Tracciato_2857" data-name="Tracciato 2857" d="M13.568,9.505l-.151-.065L13,9.247c-.194-.075-.409-.183-.667-.3l-.4-.183c-.14-.075-.291-.14-.441-.215-.312-.151-.646-.323-1-.506s-.71-.366-1.1-.57-.764-.42-1.152-.646c-.2-.108-.4-.226-.592-.344s-.4-.226-.592-.344c-.4-.237-.786-.484-1.162-.721s-.753-.484-1.109-.721l-1.022-.71q-.484-.339-.9-.646l-.4-.291-.355-.269a3.68,3.68,0,0,1-.3-.237l-.269-.2-.366-.28L1.041,1.95l.129.108.377.28.258.194.323.237.355.258.4.28c.28.2.592.42.915.635s.667.452,1.033.678.732.474,1.119.71.775.474,1.173.7c.194.118.4.226.592.344l.592.323c.4.226.786.43,1.173.624s.743.387,1.1.56l1,.484c.151.065.3.14.441.2s.28.118.409.183c.258.108.474.2.657.291l.43.183.151.054Z" transform="translate(7.332 10.976)" fill="#007c00"/>
      <path id="Tracciato_2858" data-name="Tracciato 2858" d="M7.662,4.69l.517-.032.215-.032L8.576,4.6l.258-.043.043-.011V4.54l-.043.011H8.576l-.183.011H8.2l.022-.011a1.85,1.85,0,0,0,.28-.022h.118l.086-.011-.032-.011L8.5,4.486a1.814,1.814,0,0,0-.269-.022c-.108-.011-.226-.011-.355-.011a2.981,2.981,0,0,0-.42.032l-.14.011-.14.032-.043-.054L7.1,4.421l-.226-.366-.108-.183-.1-.172-.1-.183-.022-.043-.011-.022-.011-.022-.043-.086a1.988,1.988,0,0,1-.14-.312l-.1-.269-.065-.226L6.166,2.4l-.011-.022V2.4l-.011.065v.086l.011.226.054.3a2.622,2.622,0,0,0,.118.344l.032.1.011.022.011.022.011.043.043.1.022.043.022.043.194.387.1.161c.054.1.032.151-.065.151s-.183-.054-.2-.108L6.445,4.3l-.1-.161-.1-.161-.1-.161-.172-.28-.075-.129-.065-.118-.108-.183L5.66,2.99l-.011-.022H5.638l.011.022.043.14.065.2.043.129.054.14.065.151.075.151.075.172.086.161.054.1.022.086H6.209l-.172-.032-.118-.022a.279.279,0,0,1-.183-.129l-.075-.1q-.113-.178-.226-.323l-.215-.291-.183-.237L4.9,3.119,4.8,3l-.022-.022h0l.011.032.065.129.108.2L5.1,3.6l.183.312.194.334.011.011.011.032-.011-.011-.172-.032-.366-.1L4.863,4.12,4.82,4.109,4.777,4.1,4.7,4.066,4.605,4l-.022-.032c-.108-.151-.215-.291-.3-.43l-.248-.4c-.086-.118-.151-.237-.215-.334s-.108-.194-.14-.28L3.6,2.355l-.011-.043-.011.011.011.032.043.194a1.4,1.4,0,0,0,.108.291,3.472,3.472,0,0,0,.161.366c.065.14.14.28.226.43l.011.022-.011-.011L4.11,3.625l-.344-.377-.3-.355-.258-.3-.194-.237-.075-.108-.075-.075.022.032.1.172.151.269.215.323a4.364,4.364,0,0,0,.28.387l.108.151c.065.086.075.118.022.086l-.1-.065a2.665,2.665,0,0,1-.28-.2l-.129-.1-.065-.054-.054-.054-.118-.108L2.9,2.9l-.2-.2-.086-.108-.086-.1L2.377,2.3c-.086-.129-.161-.237-.215-.334l-.075-.118-.043-.108V1.677l-.011.075.022.108.065.129a3.842,3.842,0,0,0,.183.366l.129.2.075.108.086.118.194.237.1.108L3,3.248l.065.065.054.054.129.118c.1.075.183.151.28.215a3.118,3.118,0,0,0,.312.2c.108.065.215.129.323.183l.075.043.086.043.011.011.054.054.065.043.118.1.032.022.1.086.054.065a3.273,3.273,0,0,0,.441.42l.022.011H5.186l-.065-.022-.108-.032-.28-.1-.161-.075-.011-.011-.075-.032-.065-.043L4.228,4.54c-.129-.1-.258-.183-.377-.291A3.346,3.346,0,0,1,3.5,3.937l-.086-.086-.043-.043-.043-.043-.161-.172c-.108-.118-.226-.237-.344-.344a2.6,2.6,0,0,0-.387-.291c-.172-.129-.355-.248-.538-.377-.14-.1-.161-.1-.065-.022l.194.151.377.3a3.3,3.3,0,0,1,.366.312c.108.108.215.226.312.344l.161.183.032.043.043.043.086.1a3.509,3.509,0,0,0,.355.334l.054.054.032.032-.032-.011-.194-.075L3.421,4.3l-.14-.054a2.056,2.056,0,0,1-.3-.161l-.14-.118-.43-.334c-.14-.108-.291-.215-.43-.312s-.291-.215-.441-.312-.291-.2-.441-.312l-.226-.14C.752,2.473.741,2.484.86,2.57l.215.161c.14.108.28.215.42.334s.291.215.42.334l.42.334.2.172c.108.086.108.14,0,.108l-.2-.054L2.162,3.9,2,3.872l-.161-.043L1.678,3.8l-.151-.022-.14-.032-.14-.022-.129-.011L.892,3.679l-.2-.011L.6,3.657H.526L.408,3.646H.354v.011l.054.011.118.011.151.032.2.043.226.043.129.032.129.032.14.032.14.043L1.8,3.98l.161.043.161.054.161.054a6.839,6.839,0,0,1,.7.248l.1.032a1.558,1.558,0,0,1,.248.161c.086.065.065.129-.043.14l-.2.032-.291.032-.28.032-.258.011-.237.043-.054.022-.043.022L1.9,4.916H1.893l-.022.011-.032.022A.448.448,0,0,0,1.7,5.1a.318.318,0,0,0-.065.237v.032l.011.022V5.336a.348.348,0,0,1,.086-.215.407.407,0,0,1,.129-.1l.086-.043L1.99,4.97l.043-.011a2.29,2.29,0,0,1,.484-.022,2.425,2.425,0,0,0,.28,0l.3-.022c.2-.011.409-.022.624-.022h.032l.151.086.129.075a5.29,5.29,0,0,0,.484.258c.161.075.334.151.506.215l.032.011L4.82,5.487l-.28-.032-.075-.011-.043-.011H4.379l-.161-.011-.312-.011c-.2,0-.4.011-.581.022s-.355.022-.517.043a2.637,2.637,0,0,0-.452.075.588.588,0,0,0-.3.172.275.275,0,0,0-.108.194l-.011.054v0l.022-.054a.325.325,0,0,1,.129-.161.658.658,0,0,1,.291-.118l.2-.022h.226c.161-.011.334,0,.517,0s.387,0,.581.011l.3.022.3.032.054.011L4.487,5.7l-.118.011a2.507,2.507,0,0,0-.5.086l-.054.011-.054.022-.108.032-.194.086a1.764,1.764,0,0,0-.312.215,1.828,1.828,0,0,0-.2.194l-.1.151-.022.032H2.84l.022-.022.054-.054.032-.032.043-.043.215-.161a2.844,2.844,0,0,1,.312-.151l.194-.054.1-.032.054-.011.054-.011a3.075,3.075,0,0,1,.463-.043c.161-.011.323,0,.5,0l.075.011.065.043-.022.043L4.95,6.1a.541.541,0,0,1-.248.151l-.215.1L4.3,6.455l-.151.129a1.251,1.251,0,0,0-.226.269.9.9,0,0,0-.108.237L3.8,7.133l-.011.054v.075l.011.011.022.032-.011-.011L3.8,7.252l.022-.065.011-.032.032-.043a.992.992,0,0,1,.14-.2,1.154,1.154,0,0,1,.237-.215,1.934,1.934,0,0,1,.334-.183L4.616,6.5l.011-.011h.011l.022-.011.1-.032.054-.011.043-.011v.011a1.425,1.425,0,0,0-.011.366l.011.032L4.81,6.9l-.043.032a.6.6,0,0,0-.172.151.188.188,0,0,0-.032.14v.032l.011.011V7.219l.022-.054.043-.054A.525.525,0,0,1,4.81,7l.032-.011.032.032.011.043.043.172v.022l.011-.086V7.069L4.928,7A.1.1,0,0,1,5,6.929l.065-.022.065-.022.075-.032.161-.043a3.427,3.427,0,0,1,.355-.086c.118-.032.248-.054.377-.075l.387-.043.2-.011.1-.011H6.8l-.032.022-.054.022-.075.032-.075.022-.151.075a1.263,1.263,0,0,0-.291.161,1.036,1.036,0,0,0-.237.194l-.032.022-.022.032-.043.054-.075.118a.777.777,0,0,0-.1.215l-.043.172v.129h.011V7.844l.043-.108L5.7,7.585l.118-.172A1.309,1.309,0,0,1,6,7.252,1.275,1.275,0,0,1,6.241,7.1l.129-.075.14-.054.14-.065.075-.032L6.8,6.853,6.951,6.8,7.1,6.746h.011l.086.043.043.054.011.022h.011l-.011-.022L7.22,6.778c-.011-.032.022-.075.075-.086l.1-.022.022-.011.022-.011.011.011.1.086.161.161.151.14.108.108.075.1.032.032.011-.011-.032-.032-.161-.226-.129-.161-.075-.086-.075-.086-.032-.032.043-.043L7.672,6.6h.054l.043.011h.022l.312.14.118.065.075.043.032.011H8.34l-.032-.022-.075-.065-.108-.065L8.049,6.66c-.043-.032.032-.043.172-.032l.237.011.14.011h.022V6.638L8.6,6.627l-.129-.043-.161-.043-.161-.032L8.178,6.5h.054l.032.011.129.043.1.022.032.011.011-.011L8.5,6.563,8.4,6.52,8.361,6.5l-.054-.022h.011l.108-.022h.022V6.444H8.426l-.108-.022H8.243l-.1-.022-.011-.011-.1-.043-.1-.043L7.834,6.24c-.065-.032-.043-.054.032-.054h.161l.043.011h.194l.054.054.054.054.022.011.011.011-.022-.032-.022-.043.011-.043h.086L8.437,6.2l-.075-.022a.2.2,0,0,1-.108-.086l-.032-.118-.043-.054-.065-.032L8.1,5.863l-.1-.129-.14-.2-.14-.194h.011l.043-.011H7.737l-.011-.011-.075-.1-.075-.1-.118-.172-.118-.172-.011-.022L7.3,4.7H7.36l.3-.011M5.326,5.96l.065.011.14.011.129.011.258.032h.011l.043.011-.032.011H5.886c-.172.011-.334.022-.5.043l-.129.022-.129.022.011-.022L5.2,6.036a.182.182,0,0,1,.129-.075m.28-1c-.108-.075-.086-.1.043-.043l.237.075L5.9,5l-.022.043-.054.043H5.811l-.2-.129M7.662,6.412H7.64l-.065-.022L7.565,6.38l-.118-.054L7.36,6.283l-.075-.032H7.3l.183.043.172.043.032.011.075.032-.032.032H7.662m-1.6-1.184.011-.011.022.011-.011.011ZM7.07,6.348l-.022.011-.043-.022h.022l.043.011m.8.043h.022L7.92,6.4H7.9l-.032-.011M6.9,5.648l-.129-.054L6.639,5.53a.557.557,0,0,1-.194-.194L6.37,5.218l-.032-.054.011-.032.032.011.194.054a.6.6,0,0,1,.2.065l.022.022c.075.118.161.226.237.323l.054.065c.032.043.032.065,0,.054L6.9,5.648M6.532,4.97l.065.022c.022.022,0,.032-.043.022L6.532,4.97M6.37,4.658l.043.043c.011.022-.032.065-.108.108l-.151.054H6.144l-.011-.011-.075-.118c-.043-.075.011-.108.108-.1l.194.022ZM5.628,4.55l.022.011.032.022.022.032.032.054c.011.022-.043.022-.129-.022l-.161-.065-.118-.054-.1-.054h.022l.194.043.183.032m-1.3.43.054.011.334.1.118.043h.011l.065.032.043.022a4.156,4.156,0,0,0,.441.215l.022.011.011.011-.161-.043L5.1,5.325c-.194-.075-.377-.14-.549-.226l-.226-.118M6.682,6.358l-.2.011a2.8,2.8,0,0,0-.42.054c-.129.022-.258.054-.387.086l-.355.129a1.956,1.956,0,0,0-.3.14l-.032.011-.043.022V6.8a1.95,1.95,0,0,1,.054-.334L5,6.423c0-.022.1-.054.215-.075l.2-.022L5.9,6.294c.161-.022.323-.032.484-.043l.161-.011a.558.558,0,0,1,.2.011l.065.032.022.022.011.011-.022.032H6.779l-.1.011M8.2,6.132Zm-.269-.28c.011.022-.086.022-.237-.011l-.258-.054-.011-.011-.1-.14L7.21,5.476,7.1,5.314h.065l.075.011.118.011a.393.393,0,0,1,.215.118l.086.1.118.14L7.9,5.82l.032.032m-.517-.592L7.339,5.25l-.086-.011L7.124,5.2l-.129-.032V5.153L6.9,5l-.086-.151.011-.011.118-.032.054-.022a.107.107,0,0,1,.108.054l.043.075L7.4,5.25Z" transform="translate(0.625 8.203)" fill="#007c00"/>
      <path id="Tracciato_2859" data-name="Tracciato 2859" d="M12.871,9.637a1.993,1.993,0,0,0-.657-.657,1.877,1.877,0,0,0-.915-.258,1.619,1.619,0,0,1,.42-.3,1.747,1.747,0,0,1,1.4-.054,1.826,1.826,0,0,0-.775-.506,1.7,1.7,0,0,0-.947-.054,1.623,1.623,0,0,1,.344-.387,1.774,1.774,0,0,1,1.367-.344,1.824,1.824,0,0,0-.872-.334,1.8,1.8,0,0,0-.936.14,1.784,1.784,0,0,1,.258-.452,1.758,1.758,0,0,1,1.27-.613,1.892,1.892,0,0,0-.926-.151A1.826,1.826,0,0,0,11.019,6a1.656,1.656,0,0,1,.161-.5,1.772,1.772,0,0,1,1.109-.872,1.913,1.913,0,0,0-.936.054,1.783,1.783,0,0,0-.8.506,1.508,1.508,0,0,1,.054-.517,1.763,1.763,0,0,1,.9-1.076,1.915,1.915,0,0,0-.9.237,1.8,1.8,0,0,0-.667.667,1.557,1.557,0,0,1-.054-.517,1.731,1.731,0,0,1,.657-1.238,1.856,1.856,0,0,0-.839.42,1.821,1.821,0,0,0-.517.786,1.826,1.826,0,0,1-.161-.484,1.783,1.783,0,0,1,.387-1.356,1.879,1.879,0,0,0-.732.581,1.965,1.965,0,0,0-.344.883,1.776,1.776,0,0,1-.248-.452,1.736,1.736,0,0,1,.086-1.4,1.983,1.983,0,0,0-.592.721,1.929,1.929,0,0,0-.151.936A1.762,1.762,0,0,1,7.091,3a1.827,1.827,0,0,1-.2-1.388,1.917,1.917,0,0,0-.42.829,1.865,1.865,0,0,0,.043.947,2.008,2.008,0,0,1-.42-.312,1.757,1.757,0,0,1-.484-1.313,1.844,1.844,0,0,0,0,1.808,1.374,1.374,0,0,1-.474-.2,1.8,1.8,0,0,1-.753-1.195,1.945,1.945,0,0,0-.054.926,1.93,1.93,0,0,0,.43.85,1.583,1.583,0,0,1-.506-.108,1.788,1.788,0,0,1-.979-1.012,1.919,1.919,0,0,0,.14.926A1.837,1.837,0,0,0,4,4.482a1.384,1.384,0,0,1-.517,0,1.789,1.789,0,0,1-1.173-.775,2.072,2.072,0,0,0,.334.872,1.766,1.766,0,0,0,.743.592,1.833,1.833,0,0,1-.506.108A1.775,1.775,0,0,1,1.57,4.761a1.933,1.933,0,0,0,.506.775,1.819,1.819,0,0,0,.839.441,1.609,1.609,0,0,1-.474.2,1.763,1.763,0,0,1-1.388-.237,1.862,1.862,0,0,0,1.571.915,1.619,1.619,0,0,1-.42.3,1.751,1.751,0,0,1-1.4.054,1.826,1.826,0,0,0,.775.506,1.8,1.8,0,0,0,.947.054,1.623,1.623,0,0,1-.344.387,1.768,1.768,0,0,1-1.367.344,1.824,1.824,0,0,0,.872.334,1.8,1.8,0,0,0,.936-.14,1.571,1.571,0,0,1-.258.441,1.741,1.741,0,0,1-1.27.624,1.892,1.892,0,0,0,.926.151A1.826,1.826,0,0,0,2.9,9.583a1.657,1.657,0,0,1-.161.5,1.772,1.772,0,0,1-1.109.872,1.913,1.913,0,0,0,.936-.054,1.88,1.88,0,0,0,.8-.506,1.426,1.426,0,0,1-.054.506,1.761,1.761,0,0,1-.9,1.087,1.915,1.915,0,0,0,.9-.237,1.8,1.8,0,0,0,.667-.667,1.557,1.557,0,0,1,.054.517,1.752,1.752,0,0,1-.657,1.248,2.012,2.012,0,0,0,.839-.43,1.821,1.821,0,0,0,.517-.786,1.423,1.423,0,0,1,.161.484,1.783,1.783,0,0,1-.387,1.356,1.806,1.806,0,0,0,.732-.581A1.828,1.828,0,0,0,5.574,12a1.51,1.51,0,0,1,.258.452,1.736,1.736,0,0,1-.086,1.4,1.983,1.983,0,0,0,.592-.721,1.929,1.929,0,0,0,.151-.936,1.762,1.762,0,0,1,.344.387,1.825,1.825,0,0,1,.2,1.388,1.917,1.917,0,0,0,.42-.829,1.865,1.865,0,0,0-.043-.947,2.008,2.008,0,0,1,.42.312,1.766,1.766,0,0,1,.484,1.324,2.155,2.155,0,0,0,.248-.9,1.893,1.893,0,0,0-.248-.915,1.374,1.374,0,0,1,.474.2,1.783,1.783,0,0,1,.753,1.195,1.832,1.832,0,0,0,.043-.926,1.811,1.811,0,0,0-.42-.85,1.583,1.583,0,0,1,.506.108,1.788,1.788,0,0,1,.979,1.012,1.919,1.919,0,0,0-.14-.926,1.873,1.873,0,0,0-.592-.743,1.685,1.685,0,0,1,.517.011,1.783,1.783,0,0,1,1.173.775A2.071,2.071,0,0,0,11.278,11a1.806,1.806,0,0,0-.732-.592,1.676,1.676,0,0,1,.506-.108,1.766,1.766,0,0,1,1.3.517A1.862,1.862,0,0,0,11.009,9.6a1.609,1.609,0,0,1,.474-.2,1.763,1.763,0,0,1,1.388.237" transform="translate(5.038 7.637)" fill="#ffe900"/>
      <path id="Tracciato_2860" data-name="Tracciato 2860" d="M1.159.992c-1.485.893-.151,2.97-.172,4.122h.387C1.245,4.038,2.634,1.9,1.159.992" transform="translate(1.628 1.623)" fill="#ffe900"/>
      <path id="Tracciato_2861" data-name="Tracciato 2861" d="M2.307,3.323a3.283,3.283,0,0,0-.323-1.281,1.726,1.726,0,0,0-.56-.7.953.953,0,0,0-.366-.161.734.734,0,0,0-.506.108.707.707,0,0,0-.248.581A1.036,1.036,0,0,0,.6,2.6a1.273,1.273,0,0,0,.7.4.583.583,0,0,1-.129-.484c.011-.043.032-.161.118-.2s.226.043.291.086a1.462,1.462,0,0,1,.463.926,2.244,2.244,0,0,1,.269,0" transform="translate(0.147 3.414)" fill="#ffe900"/>
      <path id="Tracciato_2862" data-name="Tracciato 2862" d="M.551,3.323A3.1,3.1,0,0,1,.874,2.042a1.726,1.726,0,0,1,.56-.7A.953.953,0,0,1,1.8,1.181a.734.734,0,0,1,.506.108.707.707,0,0,1,.248.581,1.036,1.036,0,0,1-.291.732,1.289,1.289,0,0,1-.689.4.627.627,0,0,0,.118-.484.26.26,0,0,0-.118-.2c-.1-.043-.226.043-.291.086a1.462,1.462,0,0,0-.463.926,2.242,2.242,0,0,0-.269,0" transform="translate(2.549 3.414)" fill="#ffe900"/>
      <rect id="Rettangolo_273" data-name="Rettangolo 273" width="1.453" height="0.118" transform="translate(2.045 6.834)" fill="#ffe900"/>
      <path id="Tracciato_2863" data-name="Tracciato 2863" d="M1.032,1.407a1.745,1.745,0,0,1-.2.334,1.624,1.624,0,0,1-.4.312,1.8,1.8,0,0,0,.42,0,2.155,2.155,0,0,0,.4-.1,1.289,1.289,0,0,0-.043.5A1.492,1.492,0,0,0,1.376,3l.054.022L1.473,3a.922.922,0,0,0,.14-.258,2.5,2.5,0,0,0,.043-.3,2.151,2.151,0,0,0-.043-.484,1.441,1.441,0,0,0,.28.086,1.686,1.686,0,0,0,.506.022,1.333,1.333,0,0,1-.344-.258,1.128,1.128,0,0,1-.215-.4H1.032" transform="translate(1.358 5.675)" fill="#ffe900"/>
      <path id="Tracciato_2864" data-name="Tracciato 2864" d="M2.019.992c-1.5.893-.151,2.97-.172,4.122h.387C2.1,4.038,3.493,1.9,2.019.992" transform="translate(9.971 1.623)" fill="#ffe900"/>
      <path id="Tracciato_2865" data-name="Tracciato 2865" d="M3.162,3.323A3.245,3.245,0,0,0,2.85,2.042a1.732,1.732,0,0,0-.57-.7.953.953,0,0,0-.366-.161.7.7,0,0,0-.5.108.76.76,0,0,0-.258.581,1.086,1.086,0,0,0,.291.732,1.273,1.273,0,0,0,.7.4.623.623,0,0,1-.129-.484c.011-.043.032-.161.118-.2s.226.043.291.086a1.538,1.538,0,0,1,.474.926,2.068,2.068,0,0,1,.258,0" transform="translate(8.493 3.414)" fill="#ffe900"/>
      <path id="Tracciato_2866" data-name="Tracciato 2866" d="M1.406,3.323a3.1,3.1,0,0,1,.323-1.281,1.726,1.726,0,0,1,.56-.7.953.953,0,0,1,.366-.161.734.734,0,0,1,.506.108.742.742,0,0,1,.248.581,1.036,1.036,0,0,1-.291.732,1.273,1.273,0,0,1-.7.4.583.583,0,0,0,.129-.484c-.011-.043-.032-.161-.118-.2s-.226.043-.291.086a1.462,1.462,0,0,0-.463.926,2.242,2.242,0,0,0-.269,0" transform="translate(10.895 3.414)" fill="#ffe900"/>
      <rect id="Rettangolo_274" data-name="Rettangolo 274" width="1.453" height="0.118" transform="translate(11.247 6.834)" fill="#ffe900"/>
      <path id="Tracciato_2867" data-name="Tracciato 2867" d="M1.9,1.407a1.745,1.745,0,0,1-.2.334,1.465,1.465,0,0,1-.409.312,1.9,1.9,0,0,0,.43,0,2.155,2.155,0,0,0,.4-.1,1.289,1.289,0,0,0-.043.5A1.492,1.492,0,0,0,2.241,3l.043.022L2.338,3a.716.716,0,0,0,.129-.258,1.03,1.03,0,0,0,.054-.3,1.734,1.734,0,0,0-.054-.484,1.863,1.863,0,0,0,.291.086,1.677,1.677,0,0,0,.506.022,1.333,1.333,0,0,1-.344-.258.972.972,0,0,1-.215-.4H1.9" transform="translate(9.695 5.675)" fill="#ffe900"/>
      <path id="Tracciato_2868" data-name="Tracciato 2868" d="M2.891.992c-1.485.893-.161,2.97-.172,4.122h.387C2.977,4.038,4.365,1.9,2.891.992" transform="translate(18.505 1.623)" fill="#ffe900"/>
      <path id="Tracciato_2869" data-name="Tracciato 2869" d="M4.036,3.323a3.1,3.1,0,0,0-.323-1.281,1.726,1.726,0,0,0-.56-.7.953.953,0,0,0-.366-.161.734.734,0,0,0-.506.108.742.742,0,0,0-.248.581,1.086,1.086,0,0,0,.291.732,1.273,1.273,0,0,0,.7.4A.583.583,0,0,1,2.9,2.516c.011-.043.032-.161.118-.2s.226.043.291.086a1.462,1.462,0,0,1,.463.926,2.242,2.242,0,0,1,.269,0" transform="translate(17.026 3.414)" fill="#ffe900"/>
      <path id="Tracciato_2870" data-name="Tracciato 2870" d="M2.28,3.323A3.1,3.1,0,0,1,2.6,2.042a1.643,1.643,0,0,1,.56-.7.953.953,0,0,1,.366-.161.734.734,0,0,1,.506.108.742.742,0,0,1,.248.581,1.036,1.036,0,0,1-.291.732,1.273,1.273,0,0,1-.7.4.583.583,0,0,0,.129-.484c-.011-.043-.032-.161-.118-.2s-.226.043-.291.086a1.462,1.462,0,0,0-.463.926,2.242,2.242,0,0,0-.269,0" transform="translate(19.428 3.414)" fill="#ffe900"/>
      <rect id="Rettangolo_275" data-name="Rettangolo 275" width="1.453" height="0.118" transform="translate(20.664 6.834)" fill="#ffe900"/>
      <path id="Tracciato_2871" data-name="Tracciato 2871" d="M2.762,1.407a1.069,1.069,0,0,1-.2.334,1.624,1.624,0,0,1-.4.312,1.887,1.887,0,0,0,.43,0,2.016,2.016,0,0,0,.387-.1,1.289,1.289,0,0,0-.043.5A1.492,1.492,0,0,0,3.106,3l.054.022L3.2,3a.922.922,0,0,0,.14-.258,2.5,2.5,0,0,0,.043-.3,2.151,2.151,0,0,0-.043-.484,1.441,1.441,0,0,0,.28.086,1.748,1.748,0,0,0,.517.022,1.193,1.193,0,0,1-.355-.258,1.128,1.128,0,0,1-.215-.4H2.762" transform="translate(18.246 5.675)" fill="#ffe900"/>
    </g>
  </g>
</svg>
