<svg xmlns="http://www.w3.org/2000/svg" xmlns:xlink="http://www.w3.org/1999/xlink" width="24" height="24" viewBox="0 0 24 24">
  <defs>
    <clipPath id="clip-path">
      <path id="Tracciato_2886" data-name="Tracciato 2886" d="M.949,12.749a12,12,0,1,0,12-12,12,12,0,0,0-12,12" transform="translate(-0.949 -0.749)" fill="none"/>
    </clipPath>
  </defs>
  <g id="Guam" transform="translate(-0.949 -0.749)">
    <g id="Raggruppa_66" data-name="Raggruppa 66" transform="translate(0.949 0.749)" clip-path="url(#clip-path)">
      <rect id="Rettangolo_276" data-name="Rettangolo 276" width="44.427" height="23.828" transform="translate(-10.213 0.086)" fill="#e71437"/>
      <rect id="Rettangolo_277" data-name="Rettangolo 277" width="42.231" height="21.535" transform="translate(-9.18 1.141)" fill="#001d7e"/>
      <path id="Tracciato_2873" data-name="Tracciato 2873" d="M5.856,1.268c-9.4,6.92,0,12.646,0,12.646s9.223-5.683,0-12.646" transform="translate(6.187 4.318)" fill="#1db4ee"/>
      <path id="Tracciato_2874" data-name="Tracciato 2874" d="M1.992,2.786a.956.956,0,0,0,.366-.56.761.761,0,0,0,.022-.3A8.871,8.871,0,0,0,4,2.183,8.553,8.553,0,0,0,6.738,1.9a1.576,1.576,0,0,1,0,.506,1.527,1.527,0,0,1-.194.57L1.992,2.786" transform="translate(9.233 10.517)" fill="#a78618"/>
      <path id="Tracciato_2875" data-name="Tracciato 2875" d="M1.694,1.968,9.637,2A9.3,9.3,0,0,1,8.216,4.745,9.52,9.52,0,0,1,5.719,7.1a9.055,9.055,0,0,1-2.3-1.937,8.978,8.978,0,0,1-1.722-3.2" transform="translate(6.324 11.151)" fill="#fff600"/>
      <path id="Tracciato_2876" data-name="Tracciato 2876" d="M1.694,1.968,9.637,2l-.344.9c-.1.2-.086.269-.323.248a1.237,1.237,0,0,0-.484.043,4.229,4.229,0,0,1-.463.194c-.474.1-.872-.387-1.356-.42a.987.987,0,0,0-.592.161l-.118.1c-.14.172-.022.42.1.592l.377.613a.5.5,0,0,1,.118.291.456.456,0,0,1-.377.42,1.7,1.7,0,0,1-.613-.054.893.893,0,0,0-.6.065c-.172.1-.258.3-.377.463a.566.566,0,0,1-.506.3.558.558,0,0,1-.312-.237.492.492,0,0,1-.118-.355c.022-.183.237-.291.409-.355.248-.1.5-.183.743-.28.14-.054.312-.151.312-.3a.387.387,0,0,0-.118-.215,1.614,1.614,0,0,0-.8-.312A1.842,1.842,0,0,0,3.653,3.8a6.164,6.164,0,0,0-.6.151c-.56.108-.721-.387-.915-.818-.043-.086-.42-1.162-.441-1.162" transform="translate(6.324 11.151)" fill="#0071e3"/>
      <path id="Tracciato_2877" data-name="Tracciato 2877" d="M6.054,14.405l-.108-.065A12.17,12.17,0,0,1,3.869,12.63,7.118,7.118,0,0,1,1.663,8.088C1.566,5.763,3,3.492,5.925,1.34l.129-.1.129.1C9.068,3.514,10.478,5.8,10.359,8.131A7.136,7.136,0,0,1,8.2,12.64a12.187,12.187,0,0,1-2.023,1.7Zm0-12.624C3.342,3.815,2.008,5.925,2.094,8.066c.14,3.132,3.315,5.4,3.961,5.833.635-.43,3.735-2.669,3.874-5.79.108-2.142-1.195-4.273-3.874-6.328" transform="translate(5.978 4.074)" fill="#e71137"/>
      <path id="Tracciato_2878" data-name="Tracciato 2878" d="M4.4,3.183l-.065-.441-.269-.226.161-.032-.312-.14.248-.14-.248-.1.172-.054L3.98,1.9l.086-.151L3.98,1.59l.1-.183.161.194-.075.194H4.4l-.108.194.237.054L4.422,2.3,4.6,2.171l-.054.3.237-.022-.129.194.129.011-.118.269.161-.065-.108.215a2.139,2.139,0,0,1,1.4-.624l-.269.108.118.1-.194.022.108.183-.42-.054.054.14-.237-.022-.032.086-.226.032a2.748,2.748,0,0,1,1.4.334L6.1,3.29l.043.151-.237-.183-.086.118-.172-.118-.075.118-.129-.14-.086.2-.269-.065A2.125,2.125,0,0,1,6.273,4.593l-.215-.151L5.789,4.41l.032-.151H5.67l.011-.183-.151.086L5.5,3.968l-.1.1-.065-.194-.161.054-.1-.161-.065.151-.14-.129.237.344-.086.011.248.2-.183.065.161.183H5.164l.14.183-.129.032.194.258H5.283v.248l-.118-.269-.151.108V4.862L4.82,4.851l.118-.28-.1-.032V4.377l-.1.065.022-.291-.108.032.032-.215-.151.011.054-.1-.237-.1-.1.312-.194-.054.065.194-.086-.011.086.269-.183-.011.043.183-.118.043.054.269L3.787,4.9v.161H3.733l-.054.248L3.6,5.066l-.14-.032.226-.226-.151-.269L3.7,4.485l-.075-.14.183-.054-.043-.151.086-.065-.032-.129.194-.129-.3.075.043-.14-.118.312-.129-.151-.043.237-.108-.108-.075.226-.065-.075L3.1,4.367l-.043-.14-.1.2-.065-.14-.118.226-.043-.075-.161.2A2.189,2.189,0,0,1,3.754,3.463l-.4.118V3.463l-.075.14-.086-.108L3.109,3.6l-.151-.14-.129.3-.1-.237-.065.183-.1-.118-.118.194-.075-.108-.054.151-.054-.075-.226.065V3.7l-.215.065A2.438,2.438,0,0,1,3.97,3.226l-.161-.118.151-.065L3.636,3l.172-.086-.323-.065.151-.129H3.324l.172-.2-.226.054.1-.14-.1-.065-.032-.172a1.843,1.843,0,0,1,1.162.99" transform="translate(7.632 5.675)" fill="#009c6f"/>
      <path id="Tracciato_2879" data-name="Tracciato 2879" d="M4.013,7.8h0l-.065-.043-.161-.108a2.7,2.7,0,0,1-.538-.463L3.1,7l-.065-.1-.065-.1a2.522,2.522,0,0,1-.215-.484c-.054-.172-.108-.366-.151-.56s-.075-.4-.108-.6-.054-.409-.075-.6-.043-.409-.054-.592c-.032-.387-.032-.753-.043-1.065s.011-.57.011-.743V2.02l.075.022a.131.131,0,0,0,.129-.129l-.022-.075a.173.173,0,0,0,.054-.118.124.124,0,0,0-.129-.129l-.1.043-.1-.043a.124.124,0,0,0-.129.129l.022.065a.139.139,0,0,0-.1.129.131.131,0,0,0,.129.129l.1-.032-.011.14c-.022.183-.032.441-.043.753s-.022.678-.011,1.065c0,.194.011.4.022.6s.022.42.043.624.054.409.086.624a5.821,5.821,0,0,0,.129.592A2.426,2.426,0,0,0,2.7,6.96l.065.129.075.108L3,7.4a3.249,3.249,0,0,0,.56.549l.183.129.065.043.011.011a.186.186,0,0,0,.258-.075A.192.192,0,0,0,4.013,7.8" transform="translate(9.731 7.461)" fill="#8b3900"/>
      <rect id="Rettangolo_278" data-name="Rettangolo 278" width="0.118" height="1.765" transform="translate(10.601 12.334)"/>
      <path id="Tracciato_2880" data-name="Tracciato 2880" d="M4.088,2.04l-.054.011a4.033,4.033,0,0,1-1.345.129c-.2-.022-.409-.054-.613-.086-.032,0-.248-.054-.258,0s.1.108.129.129L2,2.266a2.035,2.035,0,0,0,.484.183v.065L2.312,2.47l-.022.022c.011.065.075.086.108.1l.172.054c.118.011.248.011.366.011A2.281,2.281,0,0,0,3.41,2.61c.075-.011.194-.032.226-.108l.011-.032-.226.054V2.46a1.272,1.272,0,0,0,.527-.172c.043-.032.172-.14.14-.248m-.743.5a1.966,1.966,0,0,1-.377.032c-.151,0-.291-.022-.409-.032V2.47a2.6,2.6,0,0,0,.764.011h.011Z" transform="translate(7.503 11.854)" fill="#8b3900"/>
      <path id="Tracciato_2881" data-name="Tracciato 2881" d="M2.2,1.9a2.088,2.088,0,0,1,.689.5A1.952,1.952,0,0,1,3.36,3.437a1.574,1.574,0,0,0-.506-.151,1.851,1.851,0,0,0-1,.172A1.458,1.458,0,0,0,2.2,1.9" transform="translate(7.876 10.468)" fill="#fff"/>
      <path id="Tracciato_2882" data-name="Tracciato 2882" d="M2.367,2.437H2.184V2.286h.334v.506l-.043.022-.065.011-.075.011-.075.011A.514.514,0,0,1,2.066,2.8l-.14-.1L1.84,2.544l-.022-.2.011-.151.043-.129.065-.108.1-.086.108-.054.14-.022.118.022.086.022V2l-.1-.032-.1-.011-.129.022-.1.075L2,2.168l-.032.161a.4.4,0,0,0,.086.269.267.267,0,0,0,.215.086h.054l.043-.011Z" transform="translate(7.534 9.423)" fill="#e80e36"/>
      <path id="Tracciato_2883" data-name="Tracciato 2883" d="M2.3,2.815,2.186,2.8,2.1,2.751l-.075-.065-.043-.1-.022-.1v-.7h.151v.57l.022.172.065.1.108.032.108-.032.065-.1A.394.394,0,0,0,2.5,2.363v-.57H2.66v.592l-.011.108-.022.1-.043.1-.065.065-.1.054L2.3,2.815" transform="translate(8.921 9.443)" fill="#e80e36"/>
      <path id="Tracciato_2884" data-name="Tracciato 2884" d="M2.665,2.546H2.353L2.266,2.8H2.1l.323-1.012h.14L2.9,2.8H2.74ZM2.5,2.041,2.428,2.3,2.4,2.4h.215l-.032-.1Z" transform="translate(10.336 9.443)" fill="#e80e36"/>
      <path id="Tracciato_2885" data-name="Tracciato 2885" d="M2.655,2.526l.065-.258.151-.474h.2v1H2.924V2.289l.011-.258H2.924L2.9,2.117l-.032.108-.172.57H2.6l-.172-.57-.022-.108-.032-.086.011.248v.517H2.235v-1h.2l.14.474Z" transform="translate(11.605 9.453)" fill="#e80e36"/>
    </g>
  </g>
</svg>
