<svg xmlns="http://www.w3.org/2000/svg" xmlns:xlink="http://www.w3.org/1999/xlink" width="24" height="23.989" viewBox="0 0 24 23.989">
  <defs>
    <clipPath id="clip-path">
      <path id="Tracciato_2949" data-name="Tracciato 2949" d="M.545,12.744A12,12,0,1,0,12.55.749,11.994,11.994,0,0,0,.545,12.744" transform="translate(-0.545 -0.749)" fill="none"/>
    </clipPath>
  </defs>
  <g id="Guinea_Equatoriale" data-name="Guinea Equatoriale" transform="translate(-0.545 -0.749)">
    <g id="Raggruppa_68" data-name="Raggruppa 68" transform="translate(0.545 0.749)" clip-path="url(#clip-path)">
      <rect id="Rettangolo_282" data-name="Rettangolo 282" width="35.715" height="23.817" transform="translate(-5.863 0.086)" fill="#e32118"/>
      <rect id="Rettangolo_283" data-name="Rettangolo 283" width="35.715" height="15.803" transform="translate(-5.863 0.097)" fill="#fff"/>
      <rect id="Rettangolo_284" data-name="Rettangolo 284" width="35.715" height="8.025" transform="translate(-5.863 0.086)" fill="#3e9a12"/>
      <path id="Tracciato_2888" data-name="Tracciato 2888" d="M0,24.574,11.833,12.73,0,.757Z" transform="translate(-5.863 -0.669)" fill="#0073d3"/>
      <path id="Tracciato_2889" data-name="Tracciato 2889" d="M5.017,1.648s.032,2.9,0,3.862a.529.529,0,0,1-.4.559c-.247.043-.732-.043-.979,0a.506.506,0,0,0-.377.355.489.489,0,0,0-.377-.355c-.237-.043-.732.043-.968,0A.527.527,0,0,1,1.51,5.51c-.032-.957,0-3.862,0-3.862Z" transform="translate(8.731 8.023)" fill="#ccc"/>
      <path id="Tracciato_2890" data-name="Tracciato 2890" d="M3.283,6.465l-.022-.022A.463.463,0,0,0,2.9,6.11L2.713,6.1,2.4,6.11l-.3.011L1.928,6.11a.568.568,0,0,1-.42-.592c-.032-.947,0-3.819,0-3.851l.022-.022H5.036l.022.022c0,.032.022,2.9,0,3.851a.566.566,0,0,1-.43.592l-.172.011-.3-.011-.3-.011L3.66,6.11a.478.478,0,0,0-.366.333l-.011.022m-.57-.409.194.011a.516.516,0,0,1,.377.323.5.5,0,0,1,.377-.323l.194-.011.3.011.3.011.172-.011a.516.516,0,0,0,.387-.549c.032-.9,0-3.582,0-3.83H1.551c-.011.247-.032,2.926,0,3.83a.505.505,0,0,0,.387.549l.161.011.3-.011.312-.011" transform="translate(8.712 8.003)" fill="#1d1d1b"/>
      <path id="Tracciato_2891" data-name="Tracciato 2891" d="M2.455,2.844a1.47,1.47,0,0,1,0-.377.414.414,0,0,1,.226-.3l.065-.032.022-.075c-.011-.032-.075-.032-.118,0a2.821,2.821,0,0,0-.269.237L2.422,2a.235.235,0,0,0-.011-.172c-.032-.054-.118-.086-.151-.032l-.011.086.011.3A.74.74,0,0,0,1.766,2a.22.22,0,0,0-.118,0l-.054.1c0,.065.075.065.14.065.183,0,.366-.032.463.161a1.4,1.4,0,0,1,.108.6,4.763,4.763,0,0,1-.14,1.011l-.054.172A1.624,1.624,0,0,0,2,4.436a.115.115,0,0,0,.032.118l.065.022h.075L2.218,4.5a.121.121,0,0,0,.129.086c.054-.011.086-.022.086-.129l.054.129.022.043.1-.022.011-.118c.022.043.032.1.075.118.065.032.14-.043.151-.118a.415.415,0,0,0-.065-.215,3.759,3.759,0,0,1-.323-1.431" transform="translate(9.691 9.237)" fill="#682900"/>
      <path id="Tracciato_2892" data-name="Tracciato 2892" d="M2.561,4.676l-.022-.011L2.5,4.611l-.022-.043V4.557a.124.124,0,0,1-.1.065.134.134,0,0,1-.129-.054L2.216,4.6l-.1.011-.065-.022A.154.154,0,0,1,2,4.45a.929.929,0,0,1,.075-.226l.043-.108.054-.172A3.949,3.949,0,0,0,2.3,2.933a1.271,1.271,0,0,0-.1-.592.337.337,0,0,0-.333-.151L1.8,2.2H1.754c-.1,0-.14-.032-.161-.086a.1.1,0,0,1,.075-.108A.169.169,0,0,1,1.8,2a.73.73,0,0,1,.463.161V1.9l.011-.1.075-.032.108.054a.4.4,0,0,1,.022.194l-.043.226a1.979,1.979,0,0,1,.237-.183l.086-.032.065.032-.032.086-.054.032-.011.011a.389.389,0,0,0-.215.29,1.1,1.1,0,0,0-.011.377,3.95,3.95,0,0,0,.323,1.431L2.83,4.3a.344.344,0,0,1,.054.2.141.141,0,0,1-.129.14l-.043-.011-.054-.043-.011.043-.086.043m-.1-.215.022.011.032.086.011.032.011.032.075-.011.011-.1.022-.022.011.011.065.1.022.011h.011a.115.115,0,0,0,.1-.108A.363.363,0,0,0,2.8,4.321L2.787,4.31a3.837,3.837,0,0,1-.323-1.442,1.642,1.642,0,0,1,0-.4A.43.43,0,0,1,2.7,2.158l.022-.011.043-.022.022-.043-.032-.022-.065.032a1.814,1.814,0,0,0-.269.215L2.4,2.32l-.011-.011.043-.3a.271.271,0,0,0-.011-.161L2.346,1.8,2.3,1.825,2.292,1.9l.011.3-.011.022H2.27a.633.633,0,0,0-.484-.183.182.182,0,0,0-.108,0L1.636,2.1c.011.054.086.054.118.054h.118a.361.361,0,0,1,.366.172,1.178,1.178,0,0,1,.108.6,4.589,4.589,0,0,1-.14,1.022l-.043.183-.043.108a.666.666,0,0,0-.075.2l.032.108.054.011h.065l.022-.022V4.514l.022-.022.011.011a.159.159,0,0,0,.118.086c.054-.011.075-.022.075-.108Z" transform="translate(9.66 9.223)" fill="#1d1d1b"/>
      <path id="Tracciato_2893" data-name="Tracciato 2893" d="M1.69,3.208h0L1.679,3.2A.4.4,0,0,0,1.669,3V2.993l-.022-.086.065-.1.043-.043.022-.151V2.455l.011-.1.022-.043.022-.054.011-.075L1.83,1.917l.011-.011.011.011.011.258-.011.1-.022.043-.022.043-.011.1v.161a.24.24,0,0,1-.032.151l-.043.054-.054.086.011.075.011.011a.439.439,0,0,1,.011.2Z" transform="translate(10.208 10.54)" fill="#1d1d1b"/>
      <path id="Tracciato_2894" data-name="Tracciato 2894" d="M1.753,2.872h0l-.011-.011-.032-.086-.022-.032a.185.185,0,0,1,0-.183L1.7,2.549,1.731,2.5,1.72,2.431l-.011-.054.011-.065.011-.022.022-.118V1.947l.011-.011v.011a.8.8,0,0,1,0,.226l-.011.118-.011.022-.022.065.022.043.011.075L1.72,2.56,1.7,2.581a.184.184,0,0,0,0,.151l.022.032.043.1Z" transform="translate(10.371 10.833)" fill="#1d1d1b"/>
      <path id="Tracciato_2895" data-name="Tracciato 2895" d="M1.8,2.613h0L1.791,2.6,1.8,2.538,1.813,2.5a.131.131,0,0,0-.054-.129l-.022-.011-.043-.032c-.022-.022-.022-.054-.011-.1L1.7,2.183l.011-.032a.238.238,0,0,0,0-.172V1.968h.011a.3.3,0,0,1,.011.194l-.022.032L1.7,2.226v.086l.043.032.022.011a.155.155,0,0,1,.065.151l-.011.043L1.813,2.6Z" transform="translate(10.494 11.145)" fill="#1d1d1b"/>
      <path id="Tracciato_2896" data-name="Tracciato 2896" d="M4.46,2.273c.075.043.075.161.022.258-.022.075-.086.172-.075.258v.075L4.341,2.9,4.3,2.962c-.108.022-.2-.108-.28-.065l-.086.054c-.075.022-.129-.065-.194-.054l-.075.011L3.6,2.854a.141.141,0,0,0-.129-.065.809.809,0,0,1-.161,0,.173.173,0,0,1-.14-.065c-.054-.043-.086-.118-.14-.14-.108-.032-.237.054-.3-.011l-.022.011-.086.086-.086.043-.086.022-.022.032-.032.108L2.373,2.9a.3.3,0,0,1-.323-.032l-.086-.032L1.9,2.9c-.054.054-.129.011-.2-.022l-.14-.086-.032-.065L1.545,2.7a.2.2,0,0,1,.14-.054l.032-.086.086.011L1.846,2.5l.086-.022A.664.664,0,0,0,2.2,2.424L2.265,2.4a.134.134,0,0,0-.022-.161l.108-.011.022-.118.054-.043V2.026L2.459,2l.022-.086c.011-.054.086-.075.14-.1s.129-.054.129-.118c.065-.011.14.065.226.054L3.094,1.7l.129.032L3.3,1.714l.065.011v.032l.086.011a.2.2,0,0,1,.183.14c.032.032.086-.011.14-.043.032-.032.108-.065.14-.022l.032.118c.043.032.1.022.1.065l.011.054.043.011h.1l.1.054L4.3,2.2c.043.054.1.043.161.075" transform="translate(8.998 8.549)" fill="#009200"/>
      <path id="Tracciato_2897" data-name="Tracciato 2897" d="M1.685,2.039H1.674V2.006l.065-.054.011-.022L1.76,1.9l.054-.054h.011l.043-.054V1.759l-.022-.011-.011-.022.011-.022.054.032V1.8l-.054.065v.011L1.8,1.92l-.011.022-.022.032L1.7,2.039Z" transform="translate(10.473 8.581)" fill="#005e00"/>
      <path id="Tracciato_2898" data-name="Tracciato 2898" d="M1.955,1.964H1.944l-.043-.1-.011-.011h-.1l-.022-.022L1.708,1.77l-.075.022L1.611,1.8V1.77l.108-.043L1.8,1.8v.011l.011.011H1.9l.032.022.043.1v.011l-.022.011" transform="translate(9.857 8.794)" fill="#005e00"/>
      <path id="Tracciato_2899" data-name="Tracciato 2899" d="M2.013,2.119H1.991l-.043-.011-.022-.022-.043-.1-.011-.011H1.862A.211.211,0,0,1,1.7,1.925a.18.18,0,0,1-.043-.161l.022-.022.022.032a.121.121,0,0,0,.032.118.139.139,0,0,0,.118.054h.032l.032.022.043.086.011.022H2.1l.011.011L2.1,2.108l-.086.011" transform="translate(10.273 8.94)" fill="#005e00"/>
      <path id="Tracciato_2900" data-name="Tracciato 2900" d="M2.126,1.968H2.115l-.032-.011-.022-.032-.054-.032-.054-.011H1.932A.3.3,0,0,1,1.717,1.8V1.775l.022-.011a.269.269,0,0,0,.194.086h.075l.086.054v.011l.011.011h.011l.075-.032.022-.011.011.032-.1.054" transform="translate(10.891 9.155)" fill="#005e00"/>
      <path id="Tracciato_2901" data-name="Tracciato 2901" d="M2.074,1.918H2.042a1.2,1.2,0,0,0-.28-.011l-.022-.022.011-.022.3.011.043.011.011-.022L2.118,1.8V1.746h.022l.011.065-.011.054-.011.022-.054.032" transform="translate(11.125 8.979)" fill="#005e00"/>
      <path id="Tracciato_2902" data-name="Tracciato 2902" d="M1.782,2.141H1.771L1.76,2.119l.032-.108V2L1.782,1.99l-.032-.022a.151.151,0,0,1-.022-.151l.011-.075.011-.022.032.032-.022.075a.119.119,0,0,0,.011.108l.011.011.054.043-.011.032L1.8,2.13Z" transform="translate(10.902 8.735)" fill="#005e00"/>
      <path id="Tracciato_2903" data-name="Tracciato 2903" d="M1.778,1.954l-.054-.011-.011-.022.032-.011L1.831,1.9l.032-.1.022-.011.022.022-.065.108-.065.032" transform="translate(10.852 9.438)" fill="#005e00"/>
      <path id="Tracciato_2904" data-name="Tracciato 2904" d="M1.95,2h0a.264.264,0,0,1-.129-.043l-.065-.1V1.824L1.746,1.8l.032-.011.022.054v.011l.043.065.108.043.022.022L1.95,2" transform="translate(11.174 9.428)" fill="#005e00"/>
      <path id="Tracciato_2905" data-name="Tracciato 2905" d="M1.924,1.91l-.075-.022c-.043-.011-.065-.043-.086-.086l.011-.011h.032l.054.065.1.011.054-.022.022-.032L2.064,1.8l.011.022-.043.054-.075.032H1.924" transform="translate(11.34 9.428)" fill="#005e00"/>
      <path id="Tracciato_2906" data-name="Tracciato 2906" d="M1.63,1.856l-.011-.011V1.824a.325.325,0,0,1,.312-.054l.011.011L1.92,1.8a.291.291,0,0,0-.28.054H1.63" transform="translate(9.935 9.02)" fill="#005e00"/>
      <path id="Tracciato_2907" data-name="Tracciato 2907" d="M1.957,1.841H1.946a.194.194,0,0,0-.129-.032l-.054.011H1.709a.143.143,0,0,1-.118-.032V1.766h.032l.086.022.054-.011.043-.011a.3.3,0,0,1,.161.043l.011.011Z" transform="translate(9.661 9.174)" fill="#005e00"/>
      <path id="Tracciato_2908" data-name="Tracciato 2908" d="M1.642,1.921h0L1.62,1.9l.011-.011a.166.166,0,0,0,.161-.108l.022-.011.022.011a.218.218,0,0,1-.194.14" transform="translate(9.944 9.213)" fill="#005e00"/>
      <path id="Tracciato_2909" data-name="Tracciato 2909" d="M1.712,1.887l-.065-.022-.011-.011-.022-.022-.022-.022.022-.022.043.032.022.011.043.011.022.011-.011.032Z" transform="translate(9.688 9.41)" fill="#005e00"/>
      <path id="Tracciato_2910" data-name="Tracciato 2910" d="M1.708,1.926l-.129-.032-.011-.022L1.6,1.862a.252.252,0,0,0,.129.022A.081.081,0,0,0,1.8,1.808L1.826,1.8l.011.011c.011.065-.054.108-.108.118H1.708" transform="translate(9.437 9.477)" fill="#005e00"/>
      <path id="Tracciato_2911" data-name="Tracciato 2911" d="M1.673,1.921,1.565,1.91l-.032-.022.022-.022.011.011h.011a.7.7,0,0,0,.151,0c.054-.011.1-.032.108-.075l.022-.011.022.022a.183.183,0,0,1-.14.108H1.673" transform="translate(9.095 9.428)" fill="#005e00"/>
      <path id="Tracciato_2912" data-name="Tracciato 2912" d="M4.306,3l-.129-.032a.149.149,0,0,0-.129-.032l-.022.011-.054.043H3.951l-.1-.032-.086-.022H3.758l-.075.011L3.628,2.9V2.883A.169.169,0,0,0,3.5,2.84H3.349a.283.283,0,0,1-.161-.075l-.043-.054c-.032-.032-.054-.075-.1-.086l-.129.011-.086.011-.075-.022-.1.086-.086.043H2.553l-.043.011L2.467,2.8l-.011.043V2.9l-.043.032-.151.032A.322.322,0,0,1,2.069,2.9H2.058L2,2.873,1.961,2.9l-.022.032c-.043.043-.118.032-.226-.022l-.14-.086a.089.089,0,0,1-.054-.086l.032-.032.129-.054V2.636l.043-.065h.1l.054-.065.086-.022h.011a1.1,1.1,0,0,0,.258-.054l.054-.022c.022-.022.011-.075-.022-.129V2.27l.011-.022.086-.011-.011-.054.043-.065.022-.011L2.434,2.1V2.044l.032-.032h.011l.011-.043V1.947a.2.2,0,0,1,.161-.118c.032-.011.108-.043.108-.1l.022-.022.118.022.1.032.054-.032L3.134,1.7l.065.022.054.011h.043l.022-.011.086.022.011.011v.011l.032.011h.043a.208.208,0,0,1,.183.14l.118-.043A.168.168,0,0,1,3.9,1.829l.065.032.022.065.011.043.043.022.065.054V2.1h.129a.109.109,0,0,1,.1.065l.022.032v.022l.075.043.065.022c.1.054.086.183.054.28l-.032.054a.32.32,0,0,0-.043.194v.086l-.075.043H4.381l-.043.022.011.032L4.328,3ZM4.08,2.894l.118.032.108.043L4.371,2.9h.011l.043-.032V2.819A.378.378,0,0,1,4.478,2.6l.032-.065c.032-.086.032-.183-.043-.226l-.043-.022-.108-.054-.011-.032V2.184L4.22,2.141H4.113L4.07,2.12l-.011-.043V2.055l-.043-.022L3.962,1.99,3.94,1.926,3.93,1.883,3.9,1.861,3.811,1.9l-.118.054-.054-.011V1.937a.159.159,0,0,0-.14-.118H3.456L3.392,1.8l-.011-.022L3.37,1.765l-.022-.011H3.327l-.011.011-.065.011-.075-.022-.043-.011-.065.022L3,1.8a.213.213,0,0,1-.118-.022L2.8,1.743c-.011.054-.054.1-.14.118-.054.022-.118.043-.129.086v.022l-.022.065-.022.022H2.477V2.1l-.054.043-.011.011-.032.032.022.054v.011l-.011.022-.086.011c.032.065.032.118,0,.151l-.065.043-.269.054H1.961l-.075.011-.032.054.011.011-.032.011L1.746,2.6l-.032.043.011.011V2.69H1.7l-.129.043-.011.022L1.6,2.8l.14.086c.086.043.14.054.183.022l.022-.022.054-.043.086.032.011.011a.325.325,0,0,0,.172.054L2.391,2.9l.022-.011.011-.054.011-.065.043-.032.054-.022.032-.011.075-.032.1-.086V2.582h.032l.065.022.075-.011a.354.354,0,0,1,.151,0,.162.162,0,0,1,.108.1l.054.043a.153.153,0,0,0,.129.065H3.5a.181.181,0,0,1,.151.065l.011.011.032.043L3.725,2.9h.032a.125.125,0,0,1,.108.022l.1.022.032-.022.022-.011.065-.022" transform="translate(8.969 8.53)" fill="#1d1d1b"/>
      <path id="Tracciato_2913" data-name="Tracciato 2913" d="M2.059,2.078v.559l-.484-.086.118-.312Z" transform="translate(9.509 12.223)" fill="#c6c6c6"/>
      <path id="Tracciato_2914" data-name="Tracciato 2914" d="M1.7,2.079V2.67l.473-.108-.129-.344Z" transform="translate(10.725 12.226)" fill="#c6c6c6"/>
      <path id="Tracciato_2915" data-name="Tracciato 2915" d="M1.915,2.022l-.161.764L1.41,2.4l.075-.3.032-.054.032-.032L1.636,2l.075.043.022.011.065.011.118-.043" transform="translate(7.892 11.464)" fill="#c6c6c6"/>
      <path id="Tracciato_2916" data-name="Tracciato 2916" d="M1.864,2.12l.151.7.323-.3.075-.3-.247-.226Z" transform="translate(12.322 11.367)" fill="#c6c6c6"/>
      <path id="Tracciato_2917" data-name="Tracciato 2917" d="M2.051,2.667c-.043.032-.086.054-.129.032l-.054-.043a.177.177,0,0,1,.054-.151,2.039,2.039,0,0,1,.226-.2l.473-.366V2.72c0,.065-.108.183-.237.226a.966.966,0,0,0-.129-.258V2.677H2.245l-.011-.011L2.18,2.634c-.043-.022-.086.011-.129.032" transform="translate(12.342 10.823)" fill="#c6c6c6"/>
      <path id="Tracciato_2918" data-name="Tracciato 2918" d="M3.9,2.014l.075.183a.8.8,0,0,1,.043.247.646.646,0,0,1-.086.463.675.675,0,0,1-.3.226,2.232,2.232,0,0,1-.764.129H2.626c-.183.011-.366.011-.559.011V3.111l-.011-.065a.559.559,0,0,0-.2-.183l-.108-.075L1.7,2.713l.011-.022c.032-.043.086-.032.129-.022a3.2,3.2,0,0,0,.764.151,1.265,1.265,0,0,0,1.054-.312,1.61,1.61,0,0,0,.183-.247A.469.469,0,0,0,3.9,2.014" transform="translate(10.735 11.594)" fill="#c6c6c6"/>
      <path id="Tracciato_2919" data-name="Tracciato 2919" d="M3.168,2.121V2.7a3.031,3.031,0,0,1-1.581,0V2.121a2.384,2.384,0,0,0,.785.075A2.421,2.421,0,0,0,3.168,2.121Z" transform="translate(9.622 12.638)" fill="#c6c6c6"/>
      <path id="Tracciato_2920" data-name="Tracciato 2920" d="M2.846,2.831A3.315,3.315,0,0,0,3.61,2.68h.108l.011.043L3.7,2.8l-.118.075a.406.406,0,0,0-.183.172l-.032.065V3.3c-.183,0-.377,0-.549-.011H2.566A2.639,2.639,0,0,1,1.8,3.164a.691.691,0,0,1-.3-.226.572.572,0,0,1-.086-.473.888.888,0,0,1,.14-.452.352.352,0,0,0,.054.258.669.669,0,0,0,.183.237,1.256,1.256,0,0,0,1.054.323" transform="translate(7.815 11.584)" fill="#c6c6c6"/>
      <path id="Tracciato_2921" data-name="Tracciato 2921" d="M1.75,2.7a.61.61,0,0,0-.129.247c-.086-.022-.237-.1-.237-.237V1.935l.473.377a1.333,1.333,0,0,1,.237.194.217.217,0,0,1,.054.151l-.054.054a.138.138,0,0,1-.129-.043.209.209,0,0,0-.14-.032l-.032.011L1.75,2.7" transform="translate(7.642 10.823)" fill="#c6c6c6"/>
      <path id="Tracciato_2922" data-name="Tracciato 2922" d="M2.157,2.675c.022-.043-.011-.108-.043-.151a1.333,1.333,0,0,0-.237-.194L1.4,1.955v.775c0,.14.14.215.237.237a.61.61,0,0,1,.129-.247L1.8,2.675l.043-.022a.18.18,0,0,1,.129.032.169.169,0,0,0,.14.043l.043-.054M3.566,4.1V3.9l.011-.065a.478.478,0,0,1,.2-.183l.108-.075L3.921,3.5V3.471c-.032-.032-.086-.022-.129-.011a3.2,3.2,0,0,1-.764.151,1.234,1.234,0,0,1-1.054-.323.878.878,0,0,1-.183-.237.486.486,0,0,1-.054-.258,1.171,1.171,0,0,0-.14.452.664.664,0,0,0,.086.473A.712.712,0,0,0,2,3.945a2.275,2.275,0,0,0,.764.129H3l.57.022m1.592.441V3.955a2.112,2.112,0,0,1-.785.075,2.077,2.077,0,0,1-.785-.075H3.577v.581a3.031,3.031,0,0,0,1.581,0m1.581-.624a.661.661,0,0,0,.3-.215.664.664,0,0,0,.086-.473l-.043-.237L7.008,2.8a.469.469,0,0,1-.054.247,1.17,1.17,0,0,1-.183.237,1.269,1.269,0,0,1-1.065.323,3.01,3.01,0,0,1-.753-.151c-.043-.011-.1-.022-.118,0L4.814,3.5l.043.075.108.075a.548.548,0,0,1,.2.183l.011.065v.161l.559-.011h.237a2.355,2.355,0,0,0,.764-.14m.194-1.237.022.022h.011v.011a.727.727,0,0,1,.129.258c.129-.043.247-.151.247-.226V1.955l-.473.377a1.035,1.035,0,0,0-.237.194.217.217,0,0,0-.054.151l.054.054a.158.158,0,0,0,.129-.043.209.209,0,0,1,.14-.032l.032.022m0,.366c.075-.161.075-.28-.011-.355L6.9,2.675a.18.18,0,0,0-.129.032c-.043.022-.086.054-.14.032l-.075-.054a.218.218,0,0,1,.065-.172,2.039,2.039,0,0,1,.226-.2l.495-.377h.011V2.74c0,.086-.118.2-.247.247l.043.237a.693.693,0,0,1-.086.484.751.751,0,0,1-.323.226,2.034,2.034,0,0,1-.764.129l-.237.011-.559.011v.473a2.379,2.379,0,0,1-.828.108,1.982,1.982,0,0,1-.785-.108V4.106L3,4.1H2.759a2.414,2.414,0,0,1-.775-.14.638.638,0,0,1-.312-.226.6.6,0,0,1-.086-.484.91.91,0,0,1,.043-.258c-.1-.032-.247-.108-.247-.258V1.944l.011-.011H1.4l.484.377a2.151,2.151,0,0,1,.237.2c.032.043.075.118.054.172l-.065.054c-.054.022-.1-.011-.151-.032l-.108-.032-.043.011c-.075.075-.086.194,0,.355a.823.823,0,0,0,.172.237,1.294,1.294,0,0,0,1.043.312,3.01,3.01,0,0,0,.753-.151c.054-.011.108-.022.14.011l.022.054L3.9,3.59l-.118.086a.523.523,0,0,0-.183.161v.108a2.194,2.194,0,0,0,.775.075,2.194,2.194,0,0,0,.775-.075V3.837a.474.474,0,0,0-.194-.161L4.846,3.59,4.8,3.5l.011-.054c.032-.032.1-.022.14-.011a3.2,3.2,0,0,0,.764.151,1.3,1.3,0,0,0,1.043-.312,1.44,1.44,0,0,0,.172-.237" transform="translate(7.622 10.804)" fill="#1d1d1b"/>
      <path id="Tracciato_2923" data-name="Tracciato 2923" d="M1.758,2.193l.022.022-.151.14L1.554,2.4l-.065.011-.054-.032-.022-.065.011-.054.065-.065.151-.129.032.022-.161.129-.043.054-.011.043.011.032.054.032.086-.054Z" transform="translate(7.934 12.082)"/>
      <path id="Tracciato_2924" data-name="Tracciato 2924" d="M1.434,2.38l.194-.3.032.032-.011.312L1.8,2.2l.032.022-.194.29L1.6,2.488l.022-.323L1.467,2.4Z" transform="translate(8.132 12.227)"/>
      <rect id="Rettangolo_285" data-name="Rettangolo 285" width="0.356" height="0.05" transform="translate(9.971 14.779) rotate(-75.964)"/>
      <path id="Tracciato_2925" data-name="Tracciato 2925" d="M1.493,2.449V2.094h.1l.054.011.043.022.032.054.011.086v.075L1.708,2.4l-.032.032-.032.011-.054.011Zm.032-.043H1.59L1.633,2.4l.022-.011.032-.054V2.266L1.676,2.18l-.032-.032L1.59,2.137H1.525Z" transform="translate(8.705 12.375)"/>
      <path id="Tracciato_2926" data-name="Tracciato 2926" d="M1.516,2.449l.118-.355h.043l.129.355H1.763L1.72,2.331H1.591l-.032.118ZM1.6,2.3H1.71l-.032-.1-.022-.075-.022.065Z" transform="translate(8.93 12.375)"/>
      <path id="Tracciato_2927" data-name="Tracciato 2927" d="M1.547,2.449V2.094h.129l.054.032.032.065.011.075-.011.075-.011.043-.022.032L1.7,2.438l-.054.011Zm.032-.043h.086L1.7,2.4l.032-.054V2.266L1.719,2.18l-.032-.043H1.579Z" transform="translate(9.232 12.375)"/>
      <path id="Tracciato_2928" data-name="Tracciato 2928" d="M1.62,2.555v-.42h.129l.054.011.043.022.032.032.011.065-.032.086a.143.143,0,0,1-.108.043H1.663v.161Zm.043-.215h.086l.065-.022.022-.054-.011-.043-.032-.032H1.663Z" transform="translate(9.944 12.775)"/>
      <path id="Tracciato_2929" data-name="Tracciato 2929" d="M1.644,2.556l.129-.42h.054l.14.42H1.913l-.032-.129H1.73l-.043.129Zm.1-.172h.118l-.032-.118-.032-.086-.011.086Z" transform="translate(10.179 12.785)"/>
      <path id="Tracciato_2930" data-name="Tracciato 2930" d="M1.675,2.555V2.5l.183-.258.032-.054H1.7V2.135h.247v.054l-.194.29L1.728,2.5h.226v.054Z" transform="translate(10.478 12.779)"/>
      <path id="Tracciato_2931" data-name="Tracciato 2931" d="M1.737,2.352l.043-.011.011.065.032.011.032-.011.011-.022.011-.043V2.094h.043v.247l-.011.065-.032.043-.054.011-.065-.032-.022-.075" transform="translate(11.082 12.372)"/>
      <path id="Tracciato_2932" data-name="Tracciato 2932" d="M1.977,2.094H2.02v.2l-.011.086-.043.054-.075.011-.075-.011-.043-.054L1.762,2.3v-.2h.043v.2l.011.065.022.032.054.022.065-.032L1.977,2.3Z" transform="translate(11.33 12.375)"/>
      <path id="Tracciato_2933" data-name="Tracciato 2933" d="M1.794,2.341h.032l.011.032.032.032.043.011.032-.011.022-.022.011-.011V2.341l-.022-.032L1.89,2.287l-.043-.022-.032-.032L1.8,2.19l.011-.043L1.847,2.1,1.9,2.094l.054.011.032.043.022.054H1.966V2.169L1.9,2.137l-.043.011-.022.043.011.032.054.022.054.022L2,2.309l.011.043L2,2.405l-.032.043-.054.011-.065-.011L1.8,2.405l-.011-.065" transform="translate(11.637 12.37)"/>
      <path id="Tracciato_2934" data-name="Tracciato 2934" d="M1.943,2.458l-.022-.312-.108.011V2.114l.247-.022v.043l-.108.011.032.3Z" transform="translate(11.84 12.355)"/>
      <rect id="Rettangolo_286" data-name="Rettangolo 286" width="0.051" height="0.351" transform="translate(13.912 14.438) rotate(-21.161)"/>
      <path id="Tracciato_2935" data-name="Tracciato 2935" d="M2.1,2.266H2.14l-.011.1-.054.054L2,2.428l-.065-.043-.054-.075-.032-.1.022-.075.054-.054H2l.065.054-.022.022-.054-.043-.043.011L1.9,2.159l-.011.065.022.065.043.065.054.032h.043L2.1,2.342V2.266" transform="translate(12.184 12.271)"/>
      <rect id="Rettangolo_287" data-name="Rettangolo 287" width="0.047" height="0.354" transform="translate(14.232 14.305) rotate(-29.745)"/>
      <path id="Tracciato_2936" data-name="Tracciato 2936" d="M2.058,2.426l-.183-.333.032-.022.323.172L2.2,2.275l-.1-.054L2.026,2.3l.054.1ZM2,2.265,2.069,2.2l-.086-.054-.065-.032.032.054Z" transform="translate(12.432 12.15)"/>
      <path id="Tracciato_2937" data-name="Tracciato 2937" d="M2.025,1.544l-.118.161H1.67l.108.183-.108.194H1.9l.129.183.108-.172H2.38L2.261,1.9l.118-.194H2.132Z" transform="translate(10.43 7.01)" fill="#ffed00"/>
      <path id="Tracciato_2938" data-name="Tracciato 2938" d="M2.025,2.276H2.014L1.9,2.1H1.681L1.67,2.093V2.082l.1-.183-.1-.183V1.705h.237l.108-.161h.022l.108.161h.247v.011l-.118.194.118.172V2.1H2.143l-.108.172Zm-.333-.194h.215l.118.172.108-.161.011-.011h.215L2.251,1.91V1.9l.108-.172H2.133l-.011-.011-.1-.151-.108.151-.011.011H1.692l.1.161V1.9Z" transform="translate(10.432 7.008)" fill="#1d1d1b"/>
      <path id="Tracciato_2939" data-name="Tracciato 2939" d="M1.938,1.544l-.118.161H1.583l.108.183-.108.194h.226l.129.183.108-.172h.247L2.175,1.9l.118-.194H2.045Z" transform="translate(9.582 7.01)" fill="#ffed00"/>
      <path id="Tracciato_2940" data-name="Tracciato 2940" d="M1.938,2.276H1.927L1.809,2.1H1.583V2.082l.1-.183-.1-.183V1.705H1.82l.108-.161h.022l.1.161h.247l.011.011-.118.194.108.172.011.011L2.293,2.1H2.056l-.108.172ZM1.6,2.082H1.82l.118.172.108-.161V2.082h.226L2.164,1.91V1.9l.108-.172H2.046l-.011-.011-.1-.151-.108.151-.011.011H1.6l.1.161V1.9Z" transform="translate(9.583 7.008)" fill="#1d1d1b"/>
      <path id="Tracciato_2941" data-name="Tracciato 2941" d="M1.826,1.559l-.086.183L1.5,1.774l.129.161-.075.215.226-.032.151.151.086-.194.237-.032-.14-.161L2.2,1.667l-.247.043Z" transform="translate(8.805 7.155)" fill="#ffed00"/>
      <path id="Tracciato_2942" data-name="Tracciato 2942" d="M1.943,2.29H1.932l-.14-.151-.226.032L1.556,2.16l.075-.2L1.5,1.795V1.784l.011-.011.226-.032.086-.172V1.558l.011.011.129.14L2.2,1.666h.011v.022l-.086.2.151.161v.011H2.266l-.237.043-.075.183Zm-.151-.172H1.8l.14.151.075-.183h.011l.215-.032-.129-.161H2.1l.086-.2-.226.043H1.954l-.118-.14-.086.161-.011.011-.215.032.129.151v.011l-.065.194Z" transform="translate(8.793 7.145)" fill="#1d1d1b"/>
      <path id="Tracciato_2943" data-name="Tracciato 2943" d="M1.7,1.588l-.054.194-.226.075L1.583,2l-.032.226.215-.075.172.118.054-.194.226-.086-.172-.129.043-.226-.226.075Z" transform="translate(8.009 7.441)" fill="#ffed00"/>
      <path id="Tracciato_2944" data-name="Tracciato 2944" d="M1.937,2.286h0l-.172-.118-.2.075H1.55V2.232l.022-.215-.151-.14V1.867h.011l.2-.075L1.69,1.6,1.7,1.587h.011l.151.129.226-.086H2.1v.011l-.043.215L2.228,2l-.011.011L2,2.093l-.054.194Zm-.172-.14h.011l.161.118.043-.183.011-.011L2.2,2l-.161-.129V1.856l.043-.2-.215.086H1.851l-.14-.118L1.658,1.8H1.647l-.2.075.151.129-.032.2Z" transform="translate(8.003 7.428)" fill="#1d1d1b"/>
      <path id="Tracciato_2945" data-name="Tracciato 2945" d="M2.174,1.557l.1.183.226.032-.129.161.086.215-.226-.032-.151.151-.086-.183-.237-.032.14-.172-.1-.2.247.032Z" transform="translate(11.255 7.138)" fill="#ffed00"/>
      <path id="Tracciato_2946" data-name="Tracciato 2946" d="M2.1,2.289H2.086L2,2.095l-.237-.022-.011-.011.011-.011L1.9,1.89l-.1-.2V1.675h.011l.237.032.129-.151h.011l.1.172.226.032h.011v.022L2.4,1.944l.075.2v.011H2.463l-.215-.032Zm-.312-.237.226.032.086.172.14-.14.011-.011.2.032-.075-.194V1.934L2.5,1.783,2.28,1.751l-.086-.172-.129.14-.011.011L1.839,1.7l.075.194h.011Z" transform="translate(11.242 7.135)" fill="#1d1d1b"/>
      <path id="Tracciato_2947" data-name="Tracciato 2947" d="M2.344,1.592l.054.194.226.075L2.463,2l.032.226L2.28,2.151l-.172.118-.054-.194L1.828,1.99,2,1.85l-.043-.226.226.1Z" transform="translate(11.974 7.478)" fill="#ffed00"/>
      <path id="Tracciato_2948" data-name="Tracciato 2948" d="M2.117,2.29H2.107l-.043-.2-.226-.075H1.827l.011-.022L2.01,1.86l-.054-.215V1.634h.011l.226.086L2.343,1.6l.011-.011.011.011.054.194.215.075v.011l-.151.14.032.215L2.5,2.247,2.29,2.172ZM1.859,2l.215.075.043.194L2.29,2.15l.2.065-.032-.2.151-.129-.2-.075L2.4,1.8l-.043-.172L2.2,1.731H2.193l-.215-.075.043.2v.011Z" transform="translate(11.964 7.467)" fill="#1d1d1b"/>
    </g>
  </g>
</svg>
