<svg xmlns="http://www.w3.org/2000/svg" xmlns:xlink="http://www.w3.org/1999/xlink" width="24" height="24.011" viewBox="0 0 24 24.011">
  <defs>
    <clipPath id="clip-path">
      <path id="Tracciato_2956" data-name="Tracciato 2956" d="M.525,12.754A12,12,0,1,0,12.52.749,11.993,11.993,0,0,0,.525,12.754" transform="translate(-0.525 -0.749)" fill="none"/>
    </clipPath>
  </defs>
  <g id="Guyana" transform="translate(-0.525 -0.749)">
    <g id="Raggruppa_70" data-name="Raggruppa 70" transform="translate(0.525 0.749)" clip-path="url(#clip-path)">
      <rect id="Rettangolo_291" data-name="Rettangolo 291" width="40.42" height="24.248" transform="translate(-5.653 -0.118)" fill="#009e44"/>
      <path id="Tracciato_2952" data-name="Tracciato 2952" d="M0,.738,40.42,12.862,0,24.986Z" transform="translate(-5.653 -0.854)" fill="#fff"/>
      <path id="Tracciato_2953" data-name="Tracciato 2953" d="M0,.843l36.673,11L0,22.84Z" transform="translate(-5.653 0.165)" fill="#fcd107"/>
      <path id="Tracciato_2954" data-name="Tracciato 2954" d="M0,.738,20.21,12.862,0,24.986Z" transform="translate(-5.653 -0.854)"/>
      <path id="Tracciato_2955" data-name="Tracciato 2955" d="M0,.873l17.787,10.67L0,22.224Z" transform="translate(-5.653 0.461)" fill="#ce111c"/>
    </g>
  </g>
</svg>
