<svg xmlns="http://www.w3.org/2000/svg" xmlns:xlink="http://www.w3.org/1999/xlink" width="24" height="24" viewBox="0 0 24 24">
  <defs>
    <clipPath id="clip-path">
      <path id="Tracciato_3437" data-name="Tracciato 3437" d="M.547,12.749a12,12,0,1,0,12-12,12,12,0,0,0-12,12" transform="translate(-0.547 -0.749)" fill="none"/>
    </clipPath>
  </defs>
  <g id="India" transform="translate(-0.547 -0.749)">
    <g id="Raggruppa_74" data-name="Raggruppa 74" transform="translate(0.547 0.749)" clip-path="url(#clip-path)">
      <rect id="Rettangolo_331" data-name="Rettangolo 331" width="35.785" height="23.882" transform="translate(-5.887 0.065)" fill="#f93"/>
      <rect id="Rettangolo_332" data-name="Rettangolo 332" width="35.785" height="15.928" transform="translate(-5.887 8.018)" fill="#fff"/>
      <rect id="Rettangolo_333" data-name="Rettangolo 333" width="35.785" height="7.953" transform="translate(-5.887 15.993)" fill="#093"/>
      <path id="Tracciato_3411" data-name="Tracciato 3411" d="M2.8,2.4a.6.6,0,1,1-.592-.592A.59.59,0,0,1,2.8,2.4" transform="translate(9.801 9.599)" fill="#336"/>
      <path id="Tracciato_3412" data-name="Tracciato 3412" d="M4.893,1.533A3.568,3.568,0,1,0,8.466,5.1,3.56,3.56,0,0,0,4.893,1.533M6.97,7.5a.172.172,0,0,0-.226-.054.16.16,0,0,0-.054.226l.011.022a1.7,1.7,0,0,1-.42.258.181.181,0,0,0-.2-.108.172.172,0,0,0-.118.2l.011.032a2.4,2.4,0,0,1-.474.14.175.175,0,0,0-.172-.161.17.17,0,0,0-.172.172l.011.032-.269.011-.226-.011a.16.16,0,0,0-.118-.194.184.184,0,0,0-.215.118v.022A2.327,2.327,0,0,1,3.86,8.1a.174.174,0,0,0-.075-.226.163.163,0,0,0-.226.065l-.011.032a2.8,2.8,0,0,1-.43-.248A.166.166,0,0,0,3.107,7.5a.169.169,0,0,0-.237,0l-.022.022a3.6,3.6,0,0,1-.355-.344.169.169,0,0,0-.172-.291L2.289,6.9a2.691,2.691,0,0,1-.248-.42.169.169,0,0,0-.1-.323l-.032.011A1.818,1.818,0,0,1,1.783,5.7a.166.166,0,0,0,.151-.172.175.175,0,0,0-.161-.172l-.032.011L1.718,5.1l.011-.226a.16.16,0,0,0,.194-.118A.166.166,0,0,0,1.8,4.536H1.772a3.966,3.966,0,0,1,.118-.484.161.161,0,0,0,.226-.065.163.163,0,0,0-.065-.226L2.031,3.75a2.088,2.088,0,0,1,.237-.43.166.166,0,0,0,.226-.011.152.152,0,0,0,0-.237L2.472,3.05A3.6,3.6,0,0,1,2.816,2.7a.169.169,0,0,0,.291-.172l-.022-.032a3.3,3.3,0,0,1,.42-.248.171.171,0,0,0,.2.108.156.156,0,0,0,.118-.2l-.011-.032a2.37,2.37,0,0,1,.474-.129.174.174,0,0,0,.172.151.168.168,0,0,0,.172-.161l-.011-.043.269-.011.226.011a.169.169,0,0,0,.118.194.166.166,0,0,0,.215-.118V1.974a3.966,3.966,0,0,1,.484.118A.161.161,0,0,0,6,2.319a.163.163,0,0,0,.226-.065l.011-.022a1.842,1.842,0,0,1,.43.237A.166.166,0,0,0,6.68,2.7a.152.152,0,0,0,.237,0l.022-.011a2.607,2.607,0,0,1,.355.334.172.172,0,0,0-.054.226.183.183,0,0,0,.237.065l.011-.022a1.921,1.921,0,0,1,.258.42.181.181,0,0,0-.108.2.163.163,0,0,0,.2.118l.022-.011a1.867,1.867,0,0,1,.151.474.175.175,0,0,0-.161.172.17.17,0,0,0,.172.172l.032-.011.011.269-.011.226a.169.169,0,0,0-.194.118.174.174,0,0,0,.118.215H8a1.96,1.96,0,0,1-.108.484A.161.161,0,0,0,7.67,6.2a.163.163,0,0,0,.065.226l.032.011a2.8,2.8,0,0,1-.248.43.166.166,0,0,0-.226.011.169.169,0,0,0,0,.237l.022.022A2.686,2.686,0,0,1,6.97,7.5" transform="translate(7.107 6.905)" fill="#336"/>
      <path id="Tracciato_3413" data-name="Tracciato 3413" d="M1.736,4.152a11.031,11.031,0,0,0,0-2.583,11.706,11.706,0,0,0,0,2.583" transform="translate(10.264 7.256)" fill="#336"/>
      <path id="Tracciato_3414" data-name="Tracciato 3414" d="M2.253,4.066A10.455,10.455,0,0,0,1.586,1.58a11.564,11.564,0,0,0,.667,2.486" transform="translate(9.596 7.363)" fill="#336"/>
      <path id="Tracciato_3415" data-name="Tracciato 3415" d="M2.806,3.837A10.734,10.734,0,0,0,1.515,1.609,11.568,11.568,0,0,0,2.806,3.837" transform="translate(8.903 7.647)" fill="#336"/>
      <path id="Tracciato_3416" data-name="Tracciato 3416" d="M3.273,3.475A10.7,10.7,0,0,0,1.454,1.656,11.631,11.631,0,0,0,3.273,3.475" transform="translate(8.307 8.105)" fill="#336"/>
      <path id="Tracciato_3417" data-name="Tracciato 3417" d="M3.635,3.008A10.77,10.77,0,0,0,1.407,1.717,11.374,11.374,0,0,0,3.635,3.008" transform="translate(7.849 8.701)" fill="#336"/>
      <path id="Tracciato_3418" data-name="Tracciato 3418" d="M3.874,2.455a10.837,10.837,0,0,0-2.5-.667,11.7,11.7,0,0,0,2.5.667" transform="translate(7.556 9.394)" fill="#336"/>
      <path id="Tracciato_3419" data-name="Tracciato 3419" d="M3.95,1.942a11.031,11.031,0,0,0-2.583,0,11.706,11.706,0,0,0,2.583,0" transform="translate(7.458 10.058)" fill="#336"/>
      <path id="Tracciato_3420" data-name="Tracciato 3420" d="M3.874,1.879a10.583,10.583,0,0,0-2.5.667,11.615,11.615,0,0,0,2.5-.667" transform="translate(7.556 10.282)" fill="#336"/>
      <path id="Tracciato_3421" data-name="Tracciato 3421" d="M3.635,1.892A10.439,10.439,0,0,0,1.407,3.183,11.568,11.568,0,0,0,3.635,1.892" transform="translate(7.849 10.409)" fill="#336"/>
      <path id="Tracciato_3422" data-name="Tracciato 3422" d="M3.273,1.9A11.116,11.116,0,0,0,1.454,3.722,11.158,11.158,0,0,0,3.273,1.9" transform="translate(8.307 10.517)" fill="#336"/>
      <path id="Tracciato_3423" data-name="Tracciato 3423" d="M2.806,1.912A10.77,10.77,0,0,0,1.515,4.14,11.374,11.374,0,0,0,2.806,1.912" transform="translate(8.903 10.605)" fill="#336"/>
      <path id="Tracciato_3424" data-name="Tracciato 3424" d="M2.253,1.918A10.652,10.652,0,0,0,1.586,4.4a11.553,11.553,0,0,0,.667-2.486" transform="translate(9.596 10.663)" fill="#336"/>
      <path id="Tracciato_3425" data-name="Tracciato 3425" d="M1.74,1.92a10.936,10.936,0,0,0,0,2.572,11.6,11.6,0,0,0,0-2.572" transform="translate(10.26 10.683)" fill="#336"/>
      <path id="Tracciato_3426" data-name="Tracciato 3426" d="M1.677,1.918A11.012,11.012,0,0,0,2.344,4.4a11.564,11.564,0,0,0-.667-2.486" transform="translate(10.484 10.663)" fill="#336"/>
      <path id="Tracciato_3427" data-name="Tracciato 3427" d="M1.69,1.912A10.439,10.439,0,0,0,2.981,4.14,11.568,11.568,0,0,0,1.69,1.912" transform="translate(10.611 10.605)" fill="#336"/>
      <path id="Tracciato_3428" data-name="Tracciato 3428" d="M1.7,1.9A10.3,10.3,0,0,0,3.52,3.722,12.122,12.122,0,0,0,1.7,1.9" transform="translate(10.719 10.517)" fill="#336"/>
      <path id="Tracciato_3429" data-name="Tracciato 3429" d="M1.71,1.892A10.77,10.77,0,0,0,3.938,3.183,11.374,11.374,0,0,0,1.71,1.892" transform="translate(10.807 10.409)" fill="#336"/>
      <path id="Tracciato_3430" data-name="Tracciato 3430" d="M1.716,1.879A10.652,10.652,0,0,0,4.2,2.546a11.553,11.553,0,0,0-2.486-.667" transform="translate(10.865 10.282)" fill="#336"/>
      <path id="Tracciato_3431" data-name="Tracciato 3431" d="M1.718,1.938a10.455,10.455,0,0,0,2.583,0,11.706,11.706,0,0,0-2.583,0" transform="translate(10.885 10.062)" fill="#336"/>
      <path id="Tracciato_3432" data-name="Tracciato 3432" d="M1.716,2.455A11.012,11.012,0,0,0,4.2,1.788a11.564,11.564,0,0,0-2.486.667" transform="translate(10.865 9.394)" fill="#336"/>
      <path id="Tracciato_3433" data-name="Tracciato 3433" d="M1.71,3.008A10.734,10.734,0,0,0,3.938,1.717,11.568,11.568,0,0,0,1.71,3.008" transform="translate(10.807 8.701)" fill="#336"/>
      <path id="Tracciato_3434" data-name="Tracciato 3434" d="M1.7,3.475a10.882,10.882,0,0,0,1.83-1.819A11.576,11.576,0,0,0,1.7,3.475" transform="translate(10.719 8.105)" fill="#336"/>
      <path id="Tracciato_3435" data-name="Tracciato 3435" d="M1.69,3.837A10.771,10.771,0,0,0,2.981,1.609,11.374,11.374,0,0,0,1.69,3.837" transform="translate(10.611 7.647)" fill="#336"/>
      <path id="Tracciato_3436" data-name="Tracciato 3436" d="M1.677,4.066A10.788,10.788,0,0,0,2.344,1.58a11.553,11.553,0,0,0-.667,2.486" transform="translate(10.484 7.363)" fill="#336"/>
    </g>
  </g>
</svg>
