<svg xmlns="http://www.w3.org/2000/svg" xmlns:xlink="http://www.w3.org/1999/xlink" width="24" height="23.989" viewBox="0 0 24 23.989">
  <defs>
    <clipPath id="clip-path">
      <path id="Tracciato_3454" data-name="Tracciato 3454" d="M1.111,12.744A12,12,0,1,0,13.116.749,12,12,0,0,0,1.111,12.744" transform="translate(-1.111 -0.749)" fill="none"/>
    </clipPath>
  </defs>
  <g id="Isola_Norfolk" data-name="Isola Norfolk" transform="translate(-1.111 -0.749)">
    <g id="Raggruppa_78" data-name="Raggruppa 78" transform="translate(1.111 0.749)" clip-path="url(#clip-path)">
      <rect id="Rettangolo_337" data-name="Rettangolo 337" width="47.225" height="24.022" transform="translate(-11.952 -0.011)" fill="#007a23"/>
      <rect id="Rettangolo_338" data-name="Rettangolo 338" width="18.793" height="24.022" transform="translate(2.668 -0.011)" fill="#fff"/>
      <path id="Tracciato_3453" data-name="Tracciato 3453" d="M14.271,17.568a.377.377,0,0,0-.333-.323,1.845,1.845,0,0,0-.484.043,2.67,2.67,0,0,1-.925-.011,1.81,1.81,0,0,0-.473-.075c-.194.011-.377.1-.57.108a.807.807,0,0,1-.785-.452,4.612,4.612,0,0,1,1.442.054,5.562,5.562,0,0,0,.688.2c.473.065.957-.161,1.42-.065a.288.288,0,0,0-.14-.387.841.841,0,0,0-.463-.065c-.441.032-.893.054-1.334.086a1.062,1.062,0,0,1-.71-.129,1.891,1.891,0,0,1,.818-.118,10.572,10.572,0,0,0,1.162-.1l.14-.032a.288.288,0,0,0,.022-.452.6.6,0,0,0-.506-.086c-.172.043-.333.129-.506.161-.463.1-.947-.129-1.4-.022-.29.075-.635.28-.861.075a3.446,3.446,0,0,1,1.28-.215.99.99,0,0,0,.71-.118c.054-.032.086-.086.14-.108a.366.366,0,0,1,.215-.032.871.871,0,0,0,.592-.14c.151-.14.118-.463-.086-.484a.258.258,0,0,0-.151.022c-.377.086-.753.183-1.14.28a3.131,3.131,0,0,0-.538.172,1.783,1.783,0,0,1-.4.151.3.3,0,0,1-.344-.183l.613-.366.118-.086a.258.258,0,0,0,.054-.247,4.668,4.668,0,0,0,1.14.183.6.6,0,0,0,.387-.1.249.249,0,0,0,.054-.355,3.969,3.969,0,0,1-1.28.14.479.479,0,0,1-.247-.075.171.171,0,0,1-.043-.226,18.519,18.519,0,0,1,2.044-.043A.119.119,0,0,0,13.572,14a.315.315,0,0,0-.172-.075,3.182,3.182,0,0,0-1.151-.043.655.655,0,0,1-.323,0,2.006,2.006,0,0,1-.215-.108c-.226-.086-.463.075-.7.054a.137.137,0,0,1-.118-.054.128.128,0,0,1,.054-.194.414.414,0,0,1,.226-.054h1.657c.108,0,.237-.022.258-.118a.18.18,0,0,0-.032-.129.737.737,0,0,0-.645-.247,3.358,3.358,0,0,0-1.517.333.335.335,0,0,1-.215.065.13.13,0,0,1-.129-.151l.065-.075c.118-.1.29-.129.344-.269a.277.277,0,0,0-.011-.161,6.137,6.137,0,0,0,1.764-.366A.6.6,0,0,0,13,12.21a.535.535,0,0,0,.032-.366L13,11.737a.116.116,0,0,0-.118,0c-.2.065-.333.312-.559.323-.183.011-.355-.172-.538-.161-.151.022-.258.14-.387.2a.5.5,0,0,1-.516-.075c-.108-.1-.161-.29-.043-.387a.361.361,0,0,1,.151-.054,2.782,2.782,0,0,1,.99.011.372.372,0,0,0,.215.011.239.239,0,0,0,.108-.3.484.484,0,0,0-.247-.237.158.158,0,0,1,.161-.161c.022-.194-.2-.323-.4-.312a2.5,2.5,0,0,0-.549.172.5.5,0,0,1-.549-.075,2.133,2.133,0,0,1-.118-.215l-.011-.011.1.011a2.853,2.853,0,0,0,.6-.054c.2-.032.42-.075.635-.108a.246.246,0,0,0,.183-.086.2.2,0,0,0-.043-.28.678.678,0,0,0-.29-.108c-.215-.043-.42-.075-.624-.118a.461.461,0,0,1-.172-.054.161.161,0,0,1-.054-.161.225.225,0,0,1,.14-.075c.28-.065.57.022.85-.065l.065-.043c.043-.054-.022-.129-.075-.172a1.948,1.948,0,0,0-.29-.194.414.414,0,0,0,.258-.086c.075-.065.1-.194.032-.247a.193.193,0,0,0-.151-.043,2.93,2.93,0,0,0-.8.129,8.811,8.811,0,0,1-1.915.247A.916.916,0,0,0,8.8,9a1.315,1.315,0,0,0-.2.129c-.011-.118-.022-.237-.022-.355l.215-.086a4.892,4.892,0,0,1,2-.323c.075,0,.194-.022.172-.108L10.9,8.2a1.961,1.961,0,0,0-1.6-.29,1.779,1.779,0,0,1-.473.108,2.835,2.835,0,0,1-.3-.022l-.011-.183a.8.8,0,0,1,.678-.377,2.04,2.04,0,0,1,.8.14.638.638,0,0,0,.247.054.271.271,0,0,0,.215-.1A.157.157,0,0,0,10.42,7.3L10.3,7.273a6.106,6.106,0,0,0-1.323.108l.011-.108L9.1,7.208a1.968,1.968,0,0,1,.828-.086.137.137,0,0,0,.129-.022l-.011-.108-.1-.054A.9.9,0,0,0,9.441,6.9a3.418,3.418,0,0,0-.613.2.977.977,0,0,1-.355.043c-.011-.226-.022-.452-.043-.667l.2.086.194.086a2.212,2.212,0,0,0,.8.086A.9.9,0,0,0,10,6.67.369.369,0,0,0,10.1,6a.709.709,0,0,0-.42-.118A4.834,4.834,0,0,0,8.8,6a1.171,1.171,0,0,1-.387.011L8.4,5.831a.41.41,0,0,0,.161-.011A2.032,2.032,0,0,0,8.827,5.7a1.735,1.735,0,0,1,.764-.183.585.585,0,0,1,.194,0l.194.075c.054.032.151.054.183-.011l-.011-.108-.1-.054a1.97,1.97,0,0,0-.753,0,2.2,2.2,0,0,0-.377.011c-.118.032-.237.086-.355.118a.6.6,0,0,1-.194.022l-.011-.29.118-.032a1.914,1.914,0,0,1,.656-.032l.344.022c.075,0,.161,0,.2-.065a.151.151,0,0,0-.075-.183.32.32,0,0,0-.2-.022c-.237,0-.473.011-.71.022a1.322,1.322,0,0,0-.29.022l-.054.011-.011-.043V4.874c.226,0,.452-.043.688-.022.14.011.28.043.42.043.065-.011.129-.022.151-.065a.138.138,0,0,0-.043-.172.354.354,0,0,0-.183-.043c-.226,0-.452.054-.678.075L8.623,4.7l-.1.011H8.333L8.322,4.6l.312-.075a2.537,2.537,0,0,1,.807,0,.18.18,0,0,0,.129-.011c.065-.032.065-.129.054-.2L9.6,4.239l-.043-.032a.8.8,0,0,0-.57.032,1.868,1.868,0,0,1-.57.151H8.311c-.011-.118-.022-.237-.022-.366l.065.011A1.434,1.434,0,0,0,8.655,4a.655.655,0,0,1-.172-.172L8.44,3.8,8.4,3.787H8.279l-.011-.215.011-.108A.194.194,0,0,1,8.451,3.4l.269-.032.043-.011L8.774,3.3,8.72,3.174A.13.13,0,0,0,8.612,3.1a.287.287,0,0,0-.151.075l-.172.075-.011-.226V2.948l.161-.075c.1-.032.194,0,.28-.054a.206.206,0,0,0-.172-.2.8.8,0,0,0-.28.043c-.011-.108-.011-.226-.011-.333A1.515,1.515,0,0,0,8.2,1.948a5.069,5.069,0,0,1-.1-1.076S8.1,1.56,8.064,2.69l-.108-.011c-.151-.022-.28-.108-.43-.129a.237.237,0,0,0,.172.161,1.94,1.94,0,0,1,.226.086l.14.1c-.011.118-.011.247-.011.377H8a.366.366,0,0,1-.215-.032c-.1-.054-.151-.172-.247-.215.022.075-.075.151-.086.226s.086.151.161.183a.574.574,0,0,0,.269.022l.054.065.108.011-.011.258a2.223,2.223,0,0,0-.463-.022l.161.086a.693.693,0,0,1,.3.194c-.011.118-.011.237-.011.366a1.521,1.521,0,0,1-.366-.2,1.016,1.016,0,0,0-.742-.258c-.054.011-.129.032-.14.1a.13.13,0,0,0,.032.108l.075.1.054.043c.043.011.086-.022.14-.043a.545.545,0,0,1,.516.108,1.391,1.391,0,0,0,.42.247v.108H7.967a9.084,9.084,0,0,0-1.162-.2.272.272,0,0,0-.161.065.092.092,0,0,0-.011.14l.086.032a8.985,8.985,0,0,1,1.076.032l.215.054L8,5c-.247-.022-.506-.032-.764-.043a1.168,1.168,0,0,1-.269-.043l-.118-.043a.76.76,0,0,0-.269.022c-.065.022-.129.065-.129.129s.065.1.118.108a1.583,1.583,0,0,0,.592.054c.237,0,.452,0,.678-.011l.118.011L8,5.207l-.011.269H7.945L7.924,5.5l-.043.011-.118.011a.422.422,0,0,1-.194-.043c-.108-.032-.2-.086-.312-.129A2.024,2.024,0,0,0,6.9,5.293a.525.525,0,0,0-.366.065.1.1,0,0,0-.054.118l.108.043c.269-.011.527,0,.785.011a1.014,1.014,0,0,1,.323.054.659.659,0,0,0,.183.075h.108l-.011.2-.011-.011c-.1-.032-.194-.032-.28-.054a1.259,1.259,0,0,0-.28-.043,1.871,1.871,0,0,0-.344-.011,3.1,3.1,0,0,1-.839-.108.893.893,0,0,0-.29-.032.242.242,0,0,0-.2.172.21.21,0,0,0,.118.215.518.518,0,0,0,.258.075,5.147,5.147,0,0,0,.818.032,2.763,2.763,0,0,1,.732.043,1.555,1.555,0,0,1,.312.118V6.52a5.35,5.35,0,0,0-1.485-.237.341.341,0,0,0-.172.043c-.043.032-.075.108-.043.151l.086.054a2.171,2.171,0,0,0,.527.1,2.447,2.447,0,0,1,.839.075l.237.118-.011.172A4.338,4.338,0,0,0,6.9,6.746l-.377-.022-.387-.043a1.352,1.352,0,0,0-.506.086.43.43,0,0,0-.194.14c-.032.075-.011.183.065.2l.075.032c.043.032-.022.1-.011.151l.075.065a2.943,2.943,0,0,0,.613.118,2.84,2.84,0,0,1,1.173.452,2,2,0,0,0,.441.247l.032.011.022.065-.1.032A3.553,3.553,0,0,1,6.3,7.95c-.183-.086-.366-.194-.549-.258a1.093,1.093,0,0,0-.613-.075.48.48,0,0,0-.247.14.27.27,0,0,0-.065.269c.29.054.581.118.871.183l.086.043-.011.075c0,.086.1.14.183.151a2.705,2.705,0,0,0,.656.054,1.6,1.6,0,0,1,.452.032,3.342,3.342,0,0,1,.484.237,1.918,1.918,0,0,0,.355.1l-.011.29H7.881a1.232,1.232,0,0,1-.344.011,2.223,2.223,0,0,1-.7-.172,4.452,4.452,0,0,0-1.226-.452,2.882,2.882,0,0,0-.861.065c-.086.011-.183.054-.194.14a.2.2,0,0,0,.108.172,1.392,1.392,0,0,0,.506.2l.118.054v.108l-.065.011h-.28l-.086.011c-.065.032-.054.129-.011.172A.292.292,0,0,0,5.03,9.6a9.1,9.1,0,0,0,.914.172,4.607,4.607,0,0,1,1.216.247c.215.1.409.237.624.344l.075.043v.3l-.075.011a3.185,3.185,0,0,1-.559-.043,4.886,4.886,0,0,1-.656-.258,8.577,8.577,0,0,0-.914-.377,3,3,0,0,0-1.269-.161l-.1.032c-.054.043-.032.151.022.194a.418.418,0,0,0,.2.065c.172.032.333.054.506.075.086.011.194.054.194.14l-.054.108c-.054.151.108.269.247.344-.118.118-.323.065-.473,0a.583.583,0,0,0-.495-.054l-.086.054a.41.41,0,0,1-.161.011A.261.261,0,0,0,4,11.178a.427.427,0,0,0,.312.29,1.98,1.98,0,0,0,.441.054.348.348,0,0,1,.183.032.133.133,0,0,1,.054.161l-.086.054a1.569,1.569,0,0,1-.323.075.417.417,0,0,0-.28.161.193.193,0,0,0,.054.28l.118.022c.635.022,1.259.032,1.893.011a2.472,2.472,0,0,1,1.442.28l-.011.538a1.238,1.238,0,0,1-.269-.129c-.151-.1-.3-.226-.473-.2-.14.011-.258.108-.4.129-.215.032-.4-.151-.613-.2-.237-.065-.495.032-.732-.032a1.62,1.62,0,0,0-.441-.14c-.086.011-.183.054-.28.065a.756.756,0,0,1-.344-.065.5.5,0,0,0-.355,0,.2.2,0,0,0-.075.3.29.29,0,0,0,.161.054l1.4.194c.183.022.409.1.4.28a1.016,1.016,0,0,1-.753-.022,2.606,2.606,0,0,0-.753-.2c-.129,0-.312.075-.29.215.011.108.161.161.28.172q.758.113,1.517.194a2.791,2.791,0,0,1,1.076.226c.333.161.592.452.9.624v.043l-.054.022a1.235,1.235,0,0,1-.592-.108c-.247-.108-.506-.2-.753-.312a.685.685,0,0,0-.559-.043c-.075.032-.14.108-.215.14-.269.108-.527-.269-.807-.237-.086.011-.172.065-.258.075a.785.785,0,0,1-.377-.1,2,2,0,0,0-.9-.118c-.151.011-.333.108-.3.258.032.118.183.151.3.151.409.022.818.043,1.237.054a.5.5,0,0,1,.247.065.144.144,0,0,1-.086.269,3.055,3.055,0,0,1-.99,0,.236.236,0,0,0-.172.022.133.133,0,0,0,.011.183.351.351,0,0,0,.194.086,10.877,10.877,0,0,0,1.183.043,1.513,1.513,0,0,1,1.076.452A4.623,4.623,0,0,1,4.912,15.5l-.6-.065a3.543,3.543,0,0,1-.947-.2.609.609,0,0,0-.269-.086c-.1,0-.2.054-.2.151-.011.118.129.194.247.237a7.06,7.06,0,0,0,1.42.28c.151.011.355.086.312.226a1.048,1.048,0,0,0-.753.2c-.2.032-.355-.226-.559-.269-.183-.032-.366.1-.549.043-.151-.043-.323-.2-.441-.1a.21.21,0,0,0,0,.247c.108.183.323.237.506.344s.323.355.183.516c-.29-.075-.538-.258-.828-.333a.609.609,0,0,0-.764.269.537.537,0,0,0,.215.581,1.506,1.506,0,0,0,.613.226,2.679,2.679,0,0,0,1.4-.011c.194-.075.377-.194.57-.269a1.792,1.792,0,0,1,1.355.011c.161.065.344.194.333.377-.237-.011-.473-.022-.71-.043a.426.426,0,0,0-.237.043,1.606,1.606,0,0,0-.129.151c-.151.151-.409.054-.592-.054s-.473-.172-.581.011l-.075.161a.324.324,0,0,1-.366.065,2.547,2.547,0,0,0-.366-.14c-.129-.011-.29.054-.3.183a.27.27,0,0,0,.129.237,1.08,1.08,0,0,0,.947.2c.323-.075.624-.3.936-.194.151.043.28.172.441.183.269.011.484-.323.753-.247.118.032.194.129.3.194.377.215.85-.183,1.28-.086l.075.032c-.054,2.022-.086,3.389-.086,3.389l.71.011c.3-.022.624-.086.742-.409a1.727,1.727,0,0,0,0-.742,10.2,10.2,0,0,1-.108-2.065,1.052,1.052,0,0,1,.065-.409l.011-.032a1.85,1.85,0,0,1,1.043.269c.118.065.28.118.377.032a.61.61,0,0,0,.086-.28.554.554,0,0,1,.473-.355,1.986,1.986,0,0,1,.613.065,7.2,7.2,0,0,0,2.3.108.187.187,0,0,0,.151-.054c.086-.075,0-.226-.118-.258a.709.709,0,0,0-.333.032,1,1,0,0,1-.506-.022.728.728,0,0,0-.29-.075.807.807,0,0,0-.269.1.656.656,0,0,1-.9-.441c.893-.043,1.807.409,2.657.129M7.924,6.122,7.9,6.132l-.108-.054c-.118-.075-.28-.032-.4-.1L7.364,5.95l.011-.043L7.407,5.9a.7.7,0,0,1,.42.075L7.87,5.96a.158.158,0,0,1,.054.151v.011M7.709,8.305l.086-.011-.086.011m.086,1.872a.471.471,0,0,1-.377-.065c-.129-.054-.226-.14-.355-.194a1.779,1.779,0,0,0-.344-.075L6.439,9.8a.662.662,0,0,1-.247-.075.221.221,0,0,1-.108-.2,1.673,1.673,0,0,1,.861.1,5.321,5.321,0,0,1,.785.387l.011-.011a.169.169,0,0,1,.054.183m.022-.4A2.911,2.911,0,0,1,6.88,9.51l-.29-.118-.215-.118a.292.292,0,0,1-.118-.215,2.076,2.076,0,0,1,.506.054l.29.086c.258.086.516.183.785.269l-.043.054a.649.649,0,0,1,.065.2l.011.032ZM5.342,17.266A.461.461,0,0,1,4.89,17.2a.413.413,0,0,1-.118-.118.185.185,0,0,1-.011-.151l.022-.032.032-.022c.151-.022.29.118.43.118.086.011.2-.022.237.065s-.065.172-.14.2m5.5-2.829c-.118.054-.237.129-.355.194a2.98,2.98,0,0,1-1.312.377.72.72,0,0,1-.215,0c-.022-.129-.032-.258-.043-.387a5.32,5.32,0,0,1,.775-.237,2.776,2.776,0,0,1,1.151.054M9.107,16.094h0l-.054-.344a.43.43,0,0,0,.194-.075l.065-.011.011.011a.3.3,0,0,1-.054.247c-.043.065-.108.108-.161.172m-.344-3.98.194.022.065.011.022.043-.011.032-.129.086-.129.043-.011-.237m.151-.29-.118.032H8.763a.9.9,0,0,1-.032-.237l.333-.032a1.454,1.454,0,0,0,.312-.054,1.837,1.837,0,0,1,.29-.1H9.72l.011.1-.1.065c-.237.075-.484.161-.721.226m.828-.753c-.258.065-.549.065-.818.14l-.215.054L8.7,11.038c.344-.032.688-.065,1.033-.065l.075.043-.065.054m-.925,1.99h.1l-.1.054Zm.075,1.248.1-.054a6.348,6.348,0,0,1,1.022-.344.518.518,0,0,1,.129,0c.032.022.075.054.075.1,0,.065-.075.1-.129.118l-.247.032a3.605,3.605,0,0,0-.581.172c-.043.011-.237.086-.355.108l-.011-.129m.581-.473a.185.185,0,0,1-.118.118A.786.786,0,0,1,9,14.039H8.871v-.054l-.011-.129a.54.54,0,0,0,.226-.022l.237-.065.108.011.022.011.022.043m.882-.9a.127.127,0,0,1-.043.172.3.3,0,0,1-.172.065,5.918,5.918,0,0,0-1.194.377l-.1.032-.022-.333a9.019,9.019,0,0,0,.936-.194c.129-.043.258-.108.4-.151.065-.011.151-.022.194.032m-.43-.129a1.065,1.065,0,0,1-.323.022,2.179,2.179,0,0,1,.452-.065l-.129.043m-.549-2.195a2.2,2.2,0,0,1-.688.151,3.039,3.039,0,0,1-.022-.312l.172-.065a1.8,1.8,0,0,1,.893-.1l.247.043a6.121,6.121,0,0,0-.6.28m.129-1.2a.327.327,0,0,1,.3.075l.022.1a.21.21,0,0,1-.161.1c-.172.032-.355.054-.527.075l-.194.043a1.868,1.868,0,0,1-.312.075l-.022-.29A5.035,5.035,0,0,1,9.505,9.4M9.2,8.133l.1.011.054.075-.086.065q-.355.129-.71.226H8.548l-.011-.258c.226-.054.441-.086.667-.118m-2.818-.99c-.043-.011-.1-.032-.1-.075s.065-.086.118-.086L6.6,6.972a2.546,2.546,0,0,1,.688.151c.129.043.28.075.409.118.065.032.14.14.075.226H7.709a4.045,4.045,0,0,0-.495-.215.74.74,0,0,0-.269-.032,3.326,3.326,0,0,1-.559-.075m1.538.85a.31.31,0,0,1-.172-.032,2.722,2.722,0,0,1-.473-.226L7.214,7.66l.054-.075.086-.011A1.21,1.21,0,0,1,7.9,7.7l.032.011Zm-.269,4.238a1.8,1.8,0,0,1-.473-.118,2.988,2.988,0,0,0-.914-.269.6.6,0,0,1-.194-.022c-.054-.032-.1-.108-.054-.161s.118-.043.183-.032a11.492,11.492,0,0,1,1.226.355l.172.054c.065.022.14.022.161.1s-.043.1-.108.1m.129-.721a.271.271,0,0,1-.161.011l-.14-.043L7.3,11.361a1.921,1.921,0,0,0-.721-.29l-.1-.032a.14.14,0,0,1,.043-.215.389.389,0,0,1,.247,0,1.588,1.588,0,0,1,.29.108l.129.065a.529.529,0,0,1,.226.043,1.46,1.46,0,0,0,.258.14.843.843,0,0,1,.161.108v.194l-.054.032M6.762,15.04l.1-.022a4.289,4.289,0,0,1,.807.226l.075.032-.011.2a1.8,1.8,0,0,1-.667-.215.543.543,0,0,1-.29-.183l-.011-.043m-.108,1.485c-.118-.065-.247-.172-.237-.312l.011-.032h.011a.66.66,0,0,1,.355.022,2.669,2.669,0,0,0,.377.14,2.942,2.942,0,0,0,.538-.065c0,.129,0,.258-.011.387H7.515a3.045,3.045,0,0,1-.624-.043l-.237-.1m.828.807-.1-.075a1.811,1.811,0,0,0-.258-.065C7.052,17.17,6.966,17.084,7,17a1.105,1.105,0,0,1,.42.022l.161.022.108.011v.333a.344.344,0,0,1-.2-.054m1.979-.108-.118.065-.022-.118-.022-.1.022.011.108-.011a.1.1,0,0,1,.032.151m.172-.775-.086.043-.215.075L9.2,16.61l-.054-.247h.011a4.292,4.292,0,0,1,.452-.14h.032l.011.022c.011.075.022.161-.022.2m.742-.99a.512.512,0,0,1-.269.1c-.086-.011-.183-.118-.14-.194l.011-.086V15.2a.417.417,0,0,0,.258-.054c.086-.054.161-.14.247-.118a.175.175,0,0,1,.1.237.588.588,0,0,1-.2.194" transform="translate(4.049 0.451)" fill="#007a23"/>
    </g>
  </g>
</svg>
