<svg xmlns="http://www.w3.org/2000/svg" xmlns:xlink="http://www.w3.org/1999/xlink" width="24" height="24" viewBox="0 0 24 24">
  <defs>
    <clipPath id="clip-path">
      <path id="Tracciato_4203" data-name="Tracciato 4203" d="M1.115,12.749a12,12,0,1,0,12-12,12,12,0,0,0-12,12" transform="translate(-1.115 -0.749)" fill="none"/>
    </clipPath>
  </defs>
  <g id="Isole_Solomon" data-name="Isole Solomon" transform="translate(-1.115 -0.749)">
    <g id="Raggruppa_170" data-name="Raggruppa 170" transform="translate(1.115 0.749)" clip-path="url(#clip-path)">
      <rect id="Rettangolo_382" data-name="Rettangolo 382" width="48" height="24" transform="translate(-4 0)" fill="#0051ba"/>
      <path id="Tracciato_4199" data-name="Tracciato 4199" d="M48,24.749H0l48-24Z" transform="translate(-4 -0.745)" fill="#215b2c"/>
      <path id="Tracciato_4200" data-name="Tracciato 4200" d="M2.5,24.749H0V23.641L45.589.749H48v1.3Z" transform="translate(-3.998 -0.745)" fill="#fcd111"/>
      <g id="Raggruppa_171" data-name="Raggruppa 171" transform="translate(2)">
        <path id="Tracciato_4201" data-name="Tracciato 4201" d="M3.249.784l.538,1.647H5.52l-1.4,1.022.538,1.657L3.249,4.088,1.839,5.111l.538-1.657L.978,2.431H2.711Z" transform="translate(3.55 -0.404)" fill="#fff"/>
        <path id="Tracciato_4202" data-name="Tracciato 4202" d="M3.249,1.6l.538,1.647H5.52l-1.4,1.022.538,1.647L3.249,4.909,1.839,5.921l.538-1.647L.978,3.252H2.711Z" transform="translate(3.55 7.607)" fill="#fff"/>
      </g>
      <path id="Tracciato_4204" data-name="Tracciato 4204" d="M3.249,1.6l.538,1.647H5.52l-1.4,1.022.538,1.647L3.249,4.909,1.839,5.921l.538-1.647L.978,3.252H2.711Z" transform="translate(1.022 3.191)" fill="#fff"/>
    </g>
  </g>
</svg>
