<svg xmlns="http://www.w3.org/2000/svg" xmlns:xlink="http://www.w3.org/1999/xlink" width="24" height="24" viewBox="0 0 24 24">
  <defs>
    <clipPath id="clip-path">
      <path id="Tracciato_3462" data-name="Tracciato 3462" d="M2.13,12.015A12,12,0,1,0,14.125.02,12.008,12.008,0,0,0,2.13,12.015" transform="translate(-2.13 -0.02)" fill="none"/>
    </clipPath>
  </defs>
  <g id="Isola_di_Natale" data-name="Isola di Natale" transform="translate(-2.13 -0.02)">
    <g id="Raggruppa_79" data-name="Raggruppa 79" transform="translate(2.13 0.02)" clip-path="url(#clip-path)">
      <rect id="Rettangolo_339" data-name="Rettangolo 339" width="48.29" height="24.14" transform="translate(-22.913 -0.061)" fill="#0011b2"/>
      <path id="Tracciato_3455" data-name="Tracciato 3455" d="M48.29,24.154,0,.014H48.29Z" transform="translate(-22.913 -0.081)" fill="#008b2e"/>
      <path id="Tracciato_3456" data-name="Tracciato 3456" d="M10.584,5.1A4.373,4.373,0,1,1,6.216.73,4.371,4.371,0,0,1,10.584,5.1" transform="translate(-4.979 6.908)" fill="#ffc720"/>
      <path id="Tracciato_3457" data-name="Tracciato 3457" d="M2.8,3.148a.346.346,0,0,0,.194-.237C3,2.739,2.8,2.588,2.637,2.534s-.194.011-.269-.043A.519.519,0,0,1,2.4,1.867a.515.515,0,0,1,.441-.247.474.474,0,0,1,.377.441.557.557,0,0,0,.42.538c.172.054.258-.129.473-.108a.6.6,0,0,1,.441.323,1.5,1.5,0,0,0,.624.14c.925.011,1.8-.861,1.732-1.42-.022-.129-.086-.29,0-.366A.236.236,0,0,1,7.22,1.2a.3.3,0,0,1-.022.409c.226,0,.3-.054.323-.108.054-.1-.075-.194-.043-.387.011-.1.065-.226.14-.247.065,0,.1.1.269.226a.716.716,0,0,0,.194.086A.381.381,0,0,0,8.371,1a1.156,1.156,0,0,0,.011.506c.075.258.194.3.194.484,0,.269-.269.387-.2.527s.3.086.344.215a.251.251,0,0,1-.065.194c-.065.065-.14.032-.194.086s.011.14-.011.215c-.054.183-.441.075-.656.29-.194.194-.054.42-.269.581-.129.1-.247.054-.333.183a.465.465,0,0,0-.065.3c.011.678.022.678.011.785-.043.312-.2.312-.29.635a1.349,1.349,0,0,0,.065.85,3.312,3.312,0,0,1-.861.054.579.579,0,0,1-.237-.043l-.086-.065a.184.184,0,0,1,0-.151l.065-.14a1.376,1.376,0,0,0,.14-.538c.086-.516.151-.968-.1-1.2a.957.957,0,0,0-.85-.1.348.348,0,0,1-.237-.011.294.294,0,0,1-.14-.215,1.619,1.619,0,0,0-.237-.118.4.4,0,0,1-.29.194c-.2,0-.247-.258-.538-.377a2.4,2.4,0,0,0-.549-.011c-.409.011-.463.043-.506.086-.1.108-.043.226-.172.366-.022.022-.129.129-.226.1-.118-.022-.2-.215-.161-.355.054-.226.333-.183.516-.495.032-.043.065-.538.355-.678" transform="translate(-4.219 8.245)" fill="#008b3a"/>
      <path id="Tracciato_3458" data-name="Tracciato 3458" d="M17.627,7.858a1.362,1.362,0,0,0-.882-.129c-.312.075-.409.2-.635.161a.692.692,0,0,1-.43-.29,3.911,3.911,0,0,1-.549-2.141,7.821,7.821,0,0,0-.172-1.689,3.767,3.767,0,0,0-.839-1.334A12.635,12.635,0,0,0,11.775.274C11.549.07,11.291.08,11.194.2c-.086.1-.022.28-.011.3a3.4,3.4,0,0,1,.559,1.14,3.563,3.563,0,0,1,.086.527,5.951,5.951,0,0,1,.441.6c.258.43.3.645.538.99a3.439,3.439,0,0,0,.57.6,2.325,2.325,0,0,1,.032.581c-.022.226-.065.366-.1.742a2.151,2.151,0,0,0-.032.323.31.31,0,0,1-.215.086.293.293,0,0,1-.215-.075,5.383,5.383,0,0,0-2.184-1.248,10.869,10.869,0,0,1-1.7-.4,1.328,1.328,0,0,0-.473-.108c-.28-.032-.344.022-.366.065a.165.165,0,0,0-.022.14c.366.4.71.721,1,.99a7.157,7.157,0,0,0,1.442,1.076c.538.28.871.323,1.183.656a2.342,2.342,0,0,0,.463.43,4.1,4.1,0,0,1,.409.258,1.042,1.042,0,0,1,.3.667,1.191,1.191,0,0,1-.161.656,2.017,2.017,0,0,1-.258.452.766.766,0,0,1-.151.527.8.8,0,0,1-.323.247,8.893,8.893,0,0,1-3.593,1.84,7.52,7.52,0,0,1-2.195.269c-1.635-.022-2.517-.247-3.141-.237-.075,0-.247,0-.269.054,0,.011,0,.043.075.1a11.178,11.178,0,0,0,2.3.495A9.9,9.9,0,0,0,7.6,12.9a6.838,6.838,0,0,0,1.753-.463c.269-.118.473-.226.473-.226a5.147,5.147,0,0,1,.581-.3c.3-.108.4-.022.742-.151A1.741,1.741,0,0,0,11.5,11.6c.57-.312,1.237-.688,1.4-.785a7.767,7.767,0,0,1,1.194-.581c.592-.215.828-.215,1.485-.473.355-.14.645-.28.828-.366a.834.834,0,0,0,.893-.258.456.456,0,0,0,.065-.247.618.618,0,0,0,.387-.14.492.492,0,0,0,.14-.2l.14-.022c.086-.032.172-.1.183-.161.043-.161-.323-.4-.581-.506m-.678.559c-.011.075-.118.129-.237.108s-.183-.108-.172-.183.118-.129.226-.108.194.1.183.183" transform="translate(4.544 0.899)" fill="#ffc720"/>
      <path id="Tracciato_3459" data-name="Tracciato 3459" d="M3.739,2.359l.333-.721.29.721.818-.2-.42.71.656.484-.839.129.086.807-.613-.538-.592.538V3.5L2.7,3.349l.656-.495-.387-.732Z" transform="translate(3.387 15.771)" fill="#fff"/>
      <path id="Tracciato_3460" data-name="Tracciato 3460" d="M4.227,2.738l.333-.721.28.721.828-.2-.42.71.656.484-.839.14.086.8-.613-.538-.592.538V3.878l-.764-.151.656-.495L3.453,2.5Z" transform="translate(8.154 19.469)" fill="#fff"/>
      <path id="Tracciato_3461" data-name="Tracciato 3461" d="M3.245,2.914l.323-.721.29.721.828-.2-.42.71.656.484-.839.14.086.8L3.557,4.3l-.592.538V4.054L2.19,3.9l.656-.495L2.47,2.677Z" transform="translate(-1.541 21.184)" fill="#fff"/>
    </g>
  </g>
</svg>
