<svg xmlns="http://www.w3.org/2000/svg" xmlns:xlink="http://www.w3.org/1999/xlink" width="24" height="24" viewBox="0 0 24 24">
  <defs>
    <clipPath id="clip-path">
      <path id="Tracciato_4161" data-name="Tracciato 4161" d="M.525,12.749a12,12,0,1,0,12-12,11.99,11.99,0,0,0-12,12" transform="translate(-0.525 -0.749)" fill="none"/>
    </clipPath>
  </defs>
  <g id="Isole_Marshall" data-name="Isole Marshall" transform="translate(-0.525 -0.749)">
    <g id="Raggruppa_168" data-name="Raggruppa 168" transform="translate(0.525 0.749)" clip-path="url(#clip-path)">
      <rect id="Rettangolo_372" data-name="Rettangolo 372" width="45.568" height="23.989" transform="translate(-5.65 0.011)" fill="#002c93"/>
      <path id="Tracciato_4158" data-name="Tracciato 4158" d="M9.613,8.636c1.808-.043,3.627-.151,5.435-.312-1.894-.14-3.778-.237-5.661-.28q1.84-.565,3.648-1.259c-1.324.269-2.626.57-3.928.893,1.141-.71,2.26-1.464,3.358-2.239-1.195.57-2.368,1.184-3.509,1.83.9-.969,1.776-1.959,2.615-2.96-1.033.872-2.034,1.787-3,2.734.624-1.205,1.205-2.422,1.754-3.659-.743,1.13-1.453,2.271-2.131,3.433q.436-1.97.743-3.971C8.559,4,8.2,5.149,7.881,6.3,7.838,4.492,7.751,2.684,7.6.876c-.161,1.873-.269,3.745-.312,5.618Q6.724,4.67,6.062,2.878c.237,1.313.527,2.615.861,3.907C6.212,5.644,5.47,4.546,4.695,3.459,5.276,4.664,5.89,5.837,6.535,7q-1.453-1.356-3-2.615c.9,1.033,1.83,2.023,2.766,3C5.1,6.752,3.877,6.16,2.629,5.611c1.119.743,2.249,1.442,3.4,2.12Q4.06,7.28,2.091,6.957c1.141.4,2.3.764,3.465,1.1-1.83.032-3.638.118-5.435.269,1.862.161,3.735.269,5.6.312-1.216.377-2.411.786-3.595,1.227q1.986-.371,3.939-.872c-1.13.721-2.249,1.474-3.326,2.26,1.205-.592,2.389-1.227,3.541-1.883-.9.979-1.787,1.991-2.637,3.024,1.022-.893,2.013-1.8,2.97-2.734-.635,1.195-1.227,2.411-1.787,3.638.753-1.109,1.464-2.228,2.142-3.369-.3,1.3-.56,2.6-.764,3.907.4-1.141.764-2.3,1.087-3.465C7.332,12.176,7.439,14,7.6,15.8c.151-1.883.237-3.767.28-5.629Q8.446,12,9.14,13.791c-.269-1.335-.57-2.658-.915-3.961.732,1.141,1.485,2.26,2.282,3.358C9.915,11.993,9.291,10.82,8.645,9.68c.969.915,1.97,1.8,2.981,2.637-.872-1.022-1.776-2.013-2.7-2.981q1.792.936,3.616,1.776c-1.119-.753-2.249-1.474-3.4-2.152,1.3.28,2.615.538,3.95.743-1.162-.387-2.314-.743-3.476-1.065" transform="translate(-4.469 0.491)" fill="#fff"/>
      <path id="Tracciato_4159" data-name="Tracciato 4159" d="M0,23.188,45.568.791v9.331L0,23.963Z" transform="translate(-5.65 -0.337)" fill="#dd7300"/>
      <path id="Tracciato_4160" data-name="Tracciato 4160" d="M0,19.347,45.568,1.223V5.9L0,19.745Z" transform="translate(-5.65 3.88)" fill="#fff"/>
    </g>
  </g>
</svg>
