<svg xmlns="http://www.w3.org/2000/svg" xmlns:xlink="http://www.w3.org/1999/xlink" width="24" height="24" viewBox="0 0 24 24">
  <defs>
    <clipPath id="clip-path">
      <path id="Tracciato_3717" data-name="Tracciato 3717" d="M1.716,12.749a12,12,0,1,0,12-12,12,12,0,0,0-12,12" transform="translate(-1.716 -0.749)" fill="none"/>
    </clipPath>
    <clipPath id="clip-path-2">
      <path id="Tracciato_3718" data-name="Tracciato 3718" d="M3.866,2.35c-.093.4-.174.779-.256,1.186a1.056,1.056,0,0,1,.965.012.9.9,0,0,1,.233.256c.151-.186.314-.372.453-.57-.1-.233-.2-.477-.3-.721a.858.858,0,0,0-.384-.3l-.221-.035a.761.761,0,0,0-.488.174" transform="translate(-3.61 -2.176)" fill="none"/>
    </clipPath>
    <linearGradient id="linear-gradient" x1="-25.422" y1="5.891" x2="-18.385" y2="5.891" gradientUnits="objectBoundingBox">
      <stop offset="0" stop-color="#fff"/>
      <stop offset="1" stop-color="#c34205"/>
    </linearGradient>
    <clipPath id="clip-path-4">
      <path id="Tracciato_3721" data-name="Tracciato 3721" d="M3.587,2.9a3.033,3.033,0,0,0,.291,1.942A2.651,2.651,0,0,0,5.459,6.191l.163.047c.233-.314.453-.628.663-.965a1.219,1.219,0,0,1-.442-.047A1.712,1.712,0,0,1,4.831,4.3a2.769,2.769,0,0,1-.209-2.1c-.337.233-.686.465-1.035.709" transform="translate(-3.539 -2.192)" fill="none"/>
    </clipPath>
    <linearGradient id="linear-gradient-2" x1="-14.346" y1="2.332" x2="-10.28" y2="2.332" xlink:href="#linear-gradient"/>
    <clipPath id="clip-path-6">
      <path id="Tracciato_3724" data-name="Tracciato 3724" d="M3.609,2.2a.683.683,0,0,0-.384.3c-.1.244-.2.488-.314.721.151.186.314.384.453.581a1.019,1.019,0,0,1,.244-.267,1.119,1.119,0,0,1,.965-.023c-.093-.4-.174-.779-.256-1.174a.761.761,0,0,0-.488-.174L3.609,2.2" transform="translate(-2.911 -2.169)" fill="none"/>
    </clipPath>
    <linearGradient id="linear-gradient-3" x1="-20.357" y1="5.87" x2="-13.364" y2="5.87" xlink:href="#linear-gradient"/>
    <clipPath id="clip-path-8">
      <path id="Tracciato_3727" data-name="Tracciato 3727" d="M4.661,4.278a1.809,1.809,0,0,1-1,.942,1.664,1.664,0,0,1-.8,0,5.244,5.244,0,0,1,.256.512,2.713,2.713,0,0,0,.43.535,2.26,2.26,0,0,0,.477-.081A2.647,2.647,0,0,0,5.614,4.836a2.931,2.931,0,0,0,.279-1.942c-.337-.233-.686-.477-1.035-.709a2.776,2.776,0,0,1-.2,2.093" transform="translate(-2.859 -2.185)" fill="none"/>
    </clipPath>
    <linearGradient id="linear-gradient-4" x1="-10.359" y1="2.316" x2="-6.736" y2="2.316" xlink:href="#linear-gradient"/>
    <clipPath id="clip-path-10">
      <path id="Tracciato_3730" data-name="Tracciato 3730" d="M2.866,3.248a.624.624,0,0,0,.035.233A6.773,6.773,0,0,0,4.563,4.736a7.533,7.533,0,0,0,3.72.849,8.415,8.415,0,0,0,2.755-.465c1.07-.372,2.825-1.221,2.72-1.918l-.07-.163c-.163-.244-.326-.488-.488-.721A6.9,6.9,0,0,1,8.318,4.376,6.965,6.965,0,0,1,3.424,2.26a2.7,2.7,0,0,0-.558.988" transform="translate(-2.863 -2.26)" fill="none"/>
    </clipPath>
    <linearGradient id="linear-gradient-5" x1="-3.023" y1="2.587" x2="-1.967" y2="2.587" xlink:href="#linear-gradient"/>
    <clipPath id="clip-path-12">
      <path id="Tracciato_3733" data-name="Tracciato 3733" d="M3.74,2.646a.488.488,0,0,0,.035.326l.07.116c.151-.209.291-.419.43-.628a1.139,1.139,0,0,0-.535.186" transform="translate(-3.727 -2.46)" fill="none"/>
    </clipPath>
    <linearGradient id="linear-gradient-6" x1="-76.02" y1="11.198" x2="-55.612" y2="11.198" xlink:href="#linear-gradient"/>
    <clipPath id="clip-path-14">
      <path id="Tracciato_3736" data-name="Tracciato 3736" d="M4.044,2.585a2.086,2.086,0,0,1-.116.93,2.49,2.49,0,0,1-.2.4l.116-.035a.449.449,0,0,1,.314-.058h.012a11.6,11.6,0,0,0,.7-1.232.43.43,0,0,0-.221-.209l-.163-.035a.559.559,0,0,0-.442.244" transform="translate(-3.73 -2.341)" fill="none"/>
    </clipPath>
    <linearGradient id="linear-gradient-7" x1="-37.28" y1="5.433" x2="-27.28" y2="5.433" xlink:href="#linear-gradient"/>
    <clipPath id="clip-path-16">
      <path id="Tracciato_3739" data-name="Tracciato 3739" d="M2.879,2.475c.151.233.3.465.453.709A.559.559,0,0,0,3.5,2.975a.421.421,0,0,0,.047-.314A1.108,1.108,0,0,0,3,2.452l-.116.023" transform="translate(-2.879 -2.452)" fill="none"/>
    </clipPath>
    <linearGradient id="linear-gradient-8" x1="-47.984" y1="8.733" x2="-31.317" y2="8.733" xlink:href="#linear-gradient"/>
    <clipPath id="clip-path-18">
      <path id="Tracciato_3742" data-name="Tracciato 3742" d="M3.123,2.369a.523.523,0,0,0-.221.744c.174.349.36.7.535,1.046.023-.151.058-.3.163-.349a.475.475,0,0,1,.3.047l.14.047a1.784,1.784,0,0,1-.2-.4,1.8,1.8,0,0,1-.116-.93.529.529,0,0,0-.442-.244l-.163.035" transform="translate(-2.83 -2.334)" fill="none"/>
    </clipPath>
    <linearGradient id="linear-gradient-9" x1="-24.974" y1="4.234" x2="-16.124" y2="4.234" xlink:href="#linear-gradient"/>
  </defs>
  <g id="Isole_Falkland" data-name="Isole Falkland" transform="translate(-217.95 -291.708)">
    <g id="Raggruppa_127" data-name="Raggruppa 127" transform="translate(217.95 291.708)" clip-path="url(#clip-path)">
      <rect id="Rettangolo_356" data-name="Rettangolo 356" width="46.02" height="23.914" transform="translate(-18.468 0.043)" fill="#000061"/>
      <path id="Tracciato_3712" data-name="Tracciato 3712" d="M24.476,2.132V.754H21.8L14.488,4.413V.754h-3.9V4.37L3.3.754H.616v1.27L6.061,4.758H.616V8.675H6.029L.616,11.387v1.27H3.3l7.3-3.616v3.638h3.9V8.987l7.308,3.67h2.68V11.28l-5.241-2.6h5.241V4.758H19.191Z" transform="translate(-12.457 -0.7)" fill="#fff"/>
      <path id="Tracciato_3713" data-name="Tracciato 3713" d="M24.476,5.553H13.713V.754H11.378v4.8H.616V7.889H11.378v4.8h2.335v-4.8H24.476Z" transform="translate(-12.457 -0.705)" fill="#fa0000"/>
      <path id="Tracciato_3714" data-name="Tracciato 3714" d="M3.829,1.5H2.108L9.91,5.4v-.8Z" transform="translate(2.106 6.551)" fill="#fa0000"/>
      <path id="Tracciato_3715" data-name="Tracciato 3715" d="M1.962,4.661H3.684L11.336.754H9.775Z" transform="translate(0.685 -0.7)" fill="#fa0000"/>
      <path id="Tracciato_3716" data-name="Tracciato 3716" d="M13.884,4.443a.587.587,0,0,0-.323-.355l-.043-.011-.054-.118L13,3.27l-.258-.6V2.657a.851.851,0,0,0-.441-.344.631.631,0,0,0-.248-.043.694.694,0,0,0-.215.032l.022-.075-.194.14-.161.1-.043.032-.011.011-.936.657-.011.065a2.94,2.94,0,0,0,.1,1.485,5.968,5.968,0,0,1-2.206.42H8.374a5.935,5.935,0,0,1-2.249-.441,2.962,2.962,0,0,0,.118-1.539l-.011-.065-.947-.657V2.42l-.043-.032-.161-.1-.194-.14.022.075a.715.715,0,0,0-.226-.032.706.706,0,0,0-.248.043A.815.815,0,0,0,4,2.571l-.011.022-.269.646a3.04,3.04,0,0,0-.484.753L3.208,4a.657.657,0,0,0-.355.366.671.671,0,0,0,.043.538l.377.732.118.237.022.032.215.409.011-.1.172.183.043.043.065-.011A1.873,1.873,0,0,0,4.4,6.37a2.4,2.4,0,0,0,.829-.42,7.23,7.23,0,0,0,3.046.6h.075a7.987,7.987,0,0,0,2.583-.441l.474-.172a2.239,2.239,0,0,0,.936.506,1.756,1.756,0,0,0,.484.065l.054.011.043-.043.183-.183.011.1.2-.4.022-.032.011-.011.118-.248.377-.71a.7.7,0,0,0,.032-.549m-2.217-.71.172-.011a.579.579,0,0,1,.334.1,4.483,4.483,0,0,1-.409.291,2.147,2.147,0,0,1-.1-.377M4.909,3.647l.161.011a2.518,2.518,0,0,1-.1.409,3.409,3.409,0,0,1-.43-.312h.022a.547.547,0,0,1,.344-.108" transform="translate(9.018 12.938)" fill="#fff"/>
    </g>
    <g id="Raggruppa_130" data-name="Raggruppa 130" transform="translate(238.044 306.983)">
      <g id="Raggruppa_129" data-name="Raggruppa 129" clip-path="url(#clip-path-2)">
        <rect id="Rettangolo_357" data-name="Rettangolo 357" width="1.651" height="1.628" fill="url(#linear-gradient)"/>
      </g>
    </g>
    <g id="Raggruppa_132" data-name="Raggruppa 132" transform="translate(217.95 291.708)">
      <g id="Raggruppa_131" data-name="Raggruppa 131" clip-path="url(#clip-path)">
        <path id="Tracciato_3719" data-name="Tracciato 3719" d="M4.749,3.735h0l-.022-.011A.622.622,0,0,0,4.512,3.5.655.655,0,0,0,4.1,3.379a1.228,1.228,0,0,0-.463.1H3.619l-.011-.022.226-1.1.011-.022a.933.933,0,0,1,.484-.161l.2.032A.666.666,0,0,1,4.9,2.5l.291.678L5.179,3.2l-.409.527ZM4.1,3.326a.761.761,0,0,1,.441.129.783.783,0,0,1,.2.215l.387-.5-.28-.657a.628.628,0,0,0-.334-.258l-.194-.032a.889.889,0,0,0-.441.14L3.673,3.412a1.141,1.141,0,0,1,.43-.086" transform="translate(16.754 13.162)"/>
      </g>
    </g>
    <g id="Raggruppa_134" data-name="Raggruppa 134" transform="translate(237.216 307.007)">
      <g id="Raggruppa_133" data-name="Raggruppa 133" clip-path="url(#clip-path-4)">
        <rect id="Rettangolo_358" data-name="Rettangolo 358" width="2.86" height="4.046" transform="translate(-0.114)" fill="url(#linear-gradient-2)"/>
      </g>
    </g>
    <g id="Raggruppa_136" data-name="Raggruppa 136" transform="translate(217.95 291.708)">
      <g id="Raggruppa_135" data-name="Raggruppa 135" clip-path="url(#clip-path)">
        <path id="Tracciato_3722" data-name="Tracciato 3722" d="M5.8,6.011h0a1.53,1.53,0,0,1-.452-.065A2.485,2.485,0,0,1,3.858,4.687a2.715,2.715,0,0,1-.269-1.819L3.6,2.857l.958-.667h.022l.011.032a2.573,2.573,0,0,0,.183,1.926A1.649,1.649,0,0,0,5.7,5,1.366,1.366,0,0,0,6.42,5h.022l.011.022L6.215,5.5a2.4,2.4,0,0,1-.409.506ZM3.632,2.89A2.8,2.8,0,0,0,3.9,4.665,2.486,2.486,0,0,0,5.354,5.9a2.764,2.764,0,0,0,.43.065,2.94,2.94,0,0,0,.387-.484l.2-.43a1.354,1.354,0,0,1-.689-.011,1.67,1.67,0,0,1-.958-.861,2.586,2.586,0,0,1-.2-1.9Z" transform="translate(16.052 13.319)"/>
      </g>
    </g>
    <g id="Raggruppa_138" data-name="Raggruppa 138" transform="translate(230.74 306.908)">
      <g id="Raggruppa_137" data-name="Raggruppa 137" clip-path="url(#clip-path-6)">
        <rect id="Rettangolo_359" data-name="Rettangolo 359" width="1.662" height="1.639" transform="translate(0 0)" fill="url(#linear-gradient-3)"/>
      </g>
    </g>
    <g id="Raggruppa_140" data-name="Raggruppa 140" transform="translate(217.95 291.708)">
      <g id="Raggruppa_139" data-name="Raggruppa 139" clip-path="url(#clip-path)">
        <path id="Tracciato_3725" data-name="Tracciato 3725" d="M3.35,3.737l-.022-.011V3.716L2.909,3.2V3.167l.28-.667a.7.7,0,0,1,.366-.291.847.847,0,0,1,.215-.043.774.774,0,0,1,.474.172l.011.011.237,1.1-.011.022-.022.011A1.21,1.21,0,0,0,4,3.371a.731.731,0,0,0-.409.118.757.757,0,0,0-.215.237Zm-.387-.56.387.484a.652.652,0,0,1,.2-.215A.755.755,0,0,1,4,3.328a1.193,1.193,0,0,1,.43.086L4.211,2.37A.772.772,0,0,0,3.77,2.22l-.194.032a.722.722,0,0,0-.344.269Z" transform="translate(9.93 13.084)"/>
      </g>
    </g>
    <g id="Raggruppa_142" data-name="Raggruppa 142" transform="translate(230.118 306.931)">
      <g id="Raggruppa_141" data-name="Raggruppa 141" clip-path="url(#clip-path-8)">
        <rect id="Rettangolo_360" data-name="Rettangolo 360" width="3.209" height="4.081" transform="translate(0)" fill="url(#linear-gradient-4)"/>
      </g>
    </g>
    <g id="Raggruppa_144" data-name="Raggruppa 144" transform="translate(217.95 291.708)">
      <g id="Raggruppa_143" data-name="Raggruppa 143" clip-path="url(#clip-path)">
        <path id="Tracciato_3728" data-name="Tracciato 3728" d="M3.513,6H3.5A2.3,2.3,0,0,1,3.1,5.5l-.248-.474.011-.032.022-.011a1.366,1.366,0,0,0,.721,0,1.638,1.638,0,0,0,.926-.839,2.573,2.573,0,0,0,.183-1.926l.011-.032H4.75l.958.667.011.011A2.715,2.715,0,0,1,5.45,4.68,2.485,2.485,0,0,1,3.965,5.939,1.53,1.53,0,0,1,3.513,6m-.581-.958.215.43a2.086,2.086,0,0,0,.377.474,1.886,1.886,0,0,0,.43-.054A2.486,2.486,0,0,0,5.407,4.658a2.726,2.726,0,0,0,.269-1.776l-.893-.613a2.556,2.556,0,0,1-.2,1.894,1.647,1.647,0,0,1-.958.872,1.354,1.354,0,0,1-.689.011" transform="translate(9.413 13.25)"/>
      </g>
    </g>
    <g id="Raggruppa_146" data-name="Raggruppa 146" transform="translate(229.356 307.778)">
      <g id="Raggruppa_145" data-name="Raggruppa 145" clip-path="url(#clip-path-10)">
        <rect id="Rettangolo_361" data-name="Rettangolo 361" width="11.01" height="3.325" transform="translate(-0.009)" fill="url(#linear-gradient-5)"/>
      </g>
    </g>
    <g id="Raggruppa_148" data-name="Raggruppa 148" transform="translate(217.95 291.708)">
      <g id="Raggruppa_147" data-name="Raggruppa 147" clip-path="url(#clip-path)">
        <path id="Tracciato_3731" data-name="Tracciato 3731" d="M7.846,5.379a6.956,6.956,0,0,1-3.4-.8A6.494,6.494,0,0,1,2.895,3.42L2.884,3.41a.844.844,0,0,1-.022-.226A2.334,2.334,0,0,1,3.4,2.258h.032a6.349,6.349,0,0,0,4.5,1.948h.032a6.426,6.426,0,0,0,4.477-1.894l.022-.011.022.011.441.667a.338.338,0,0,1,.065.172c.108.646-1.453,1.421-2.529,1.8a8.079,8.079,0,0,1-2.551.43ZM2.938,3.388A6.19,6.19,0,0,0,4.477,4.54a6.909,6.909,0,0,0,3.369.786H7.91a8.013,8.013,0,0,0,2.54-.43c1.012-.344,2.583-1.13,2.5-1.733l-.065-.151-.42-.635a6.531,6.531,0,0,1-4.5,1.883H7.932a6.4,6.4,0,0,1-4.52-1.948,2.5,2.5,0,0,0-.5.872.7.7,0,0,0,.022.2" transform="translate(9.449 13.982)"/>
      </g>
    </g>
    <g id="Raggruppa_150" data-name="Raggruppa 150" transform="translate(239.402 310.085)">
      <g id="Raggruppa_149" data-name="Raggruppa 149" clip-path="url(#clip-path-12)">
        <rect id="Rettangolo_362" data-name="Rettangolo 362" width="0.57" height="0.628" transform="translate(-0.022)" fill="url(#linear-gradient-6)"/>
      </g>
    </g>
    <g id="Raggruppa_152" data-name="Raggruppa 152" transform="translate(217.95 291.708)">
      <g id="Raggruppa_151" data-name="Raggruppa 151" clip-path="url(#clip-path)">
        <path id="Tracciato_3734" data-name="Tracciato 3734" d="M3.958,3.173H3.948a.57.57,0,0,1-.172-.2.494.494,0,0,1-.043-.312l.011-.011a.8.8,0,0,1,.635-.172l.022.011v.022l-.42.657-.011.011Zm-.172-.5a.418.418,0,0,0,.032.269.538.538,0,0,0,.14.161l.377-.592a.767.767,0,0,0-.549.161" transform="translate(17.889 15.931)"/>
      </g>
    </g>
    <g id="Raggruppa_154" data-name="Raggruppa 154" transform="translate(239.439 308.753)">
      <g id="Raggruppa_153" data-name="Raggruppa 153" clip-path="url(#clip-path-14)">
        <rect id="Rettangolo_363" data-name="Rettangolo 363" width="1.163" height="1.604" transform="translate(-0.023)" fill="url(#linear-gradient-7)"/>
      </g>
    </g>
    <g id="Raggruppa_156" data-name="Raggruppa 156" transform="translate(217.95 291.708)">
      <g id="Raggruppa_155" data-name="Raggruppa 155" clip-path="url(#clip-path)">
        <path id="Tracciato_3737" data-name="Tracciato 3737" d="M4.308,4.082h0l-.022-.011c-.022-.183-.065-.28-.14-.312l-.065-.011a1.106,1.106,0,0,0-.269.075l-.065.032-.022-.022V3.8a1.873,1.873,0,0,0,.194-.355,1.921,1.921,0,0,0,.1-.861V2.576a.538.538,0,0,1,.43-.237l.161.032a.474.474,0,0,1,.258.28.555.555,0,0,1-.032.452l-.506.958-.022.022M4.082,3.7l.086.022a.34.34,0,0,1,.161.258l.463-.9a.512.512,0,0,0,.032-.4A.4.4,0,0,0,4.6,2.425l-.151-.032a.466.466,0,0,0-.377.2,1.844,1.844,0,0,1-.108.872,2.068,2.068,0,0,1-.151.312A.661.661,0,0,1,4.082,3.7" transform="translate(17.916 14.773)"/>
      </g>
    </g>
    <g id="Raggruppa_158" data-name="Raggruppa 158" transform="translate(230.44 309.993)">
      <g id="Raggruppa_157" data-name="Raggruppa 157" clip-path="url(#clip-path-16)">
        <rect id="Rettangolo_364" data-name="Rettangolo 364" width="0.698" height="0.732" transform="translate(0 0)" fill="url(#linear-gradient-8)"/>
      </g>
    </g>
    <g id="Raggruppa_160" data-name="Raggruppa 160" transform="translate(217.95 291.708)">
      <g id="Raggruppa_159" data-name="Raggruppa 159" clip-path="url(#clip-path)">
        <path id="Tracciato_3740" data-name="Tracciato 3740" d="M3.318,3.164H3.307L3.3,3.154l-.42-.646V2.486L2.9,2.465a.826.826,0,0,1,.624.172l.011.011a.473.473,0,0,1-.2.517H3.318m-.377-.657.377.592a.48.48,0,0,0,.14-.151.555.555,0,0,0,.032-.28.823.823,0,0,0-.549-.161" transform="translate(9.618 15.863)"/>
      </g>
    </g>
    <g id="Raggruppa_162" data-name="Raggruppa 162" transform="translate(229.89 308.662)">
      <g id="Raggruppa_161" data-name="Raggruppa 161" clip-path="url(#clip-path-18)">
        <rect id="Rettangolo_365" data-name="Rettangolo 365" width="1.314" height="1.825" transform="translate(-0.09)" fill="url(#linear-gradient-9)"/>
      </g>
    </g>
    <g id="Raggruppa_164" data-name="Raggruppa 164" transform="translate(217.95 291.708)">
      <g id="Raggruppa_163" data-name="Raggruppa 163" clip-path="url(#clip-path)">
        <path id="Tracciato_3743" data-name="Tracciato 3743" d="M3.42,4.074H3.4l-.506-.99a.506.506,0,0,1-.032-.43.476.476,0,0,1,.258-.28l.161-.043a.551.551,0,0,1,.43.248h0a1.827,1.827,0,0,0,.108.872A1.588,1.588,0,0,0,4,3.805l.011.022-.022.032-.075-.032a.527.527,0,0,0-.269-.075l-.065.011c-.075.022-.118.118-.14.3Zm-.14-1.69-.14.032a.428.428,0,0,0-.226.248.5.5,0,0,0,.022.409l.474.9c.022-.151.075-.226.151-.258L3.646,3.7a.6.6,0,0,1,.28.075,2.056,2.056,0,0,1-.161-.3,1.885,1.885,0,0,1-.1-.872.514.514,0,0,0-.387-.215" transform="translate(9.129 14.695)"/>
        <path id="Tracciato_3744" data-name="Tracciato 3744" d="M3.533,2.96l-.108.032-.118-.022-.118-.043-.183-.118-.032-.032.022-.011.011.011.032.011h.022l.022-.022.215-.3.011-.022L3.3,2.422,3.285,2.4l-.022-.022V2.368l.054.011L3.49,2.5l.086.065.054.075.032.118-.043.118-.086.086m.032-.226V2.648l-.043-.075-.065-.065L3.436,2.5l-.022-.011-.043.032-.2.291v.043l.054.054.1.032h.075L3.468,2.9l.065-.075.032-.086" transform="translate(10.555 15.056)"/>
        <path id="Tracciato_3745" data-name="Tracciato 3745" d="M3.545,2.979l-.032.043-.065.022c-.129-.054-.248-.118-.377-.183l-.043-.032.022-.011.011.011.032.011h.022l.022-.022.183-.334.011-.011-.011-.022L3.3,2.43,3.286,2.42,3.276,2.4l.054.011a2.789,2.789,0,0,0,.312.151l.022.065-.011.032-.032.032L3.6,2.646V2.613L3.577,2.57l-.043-.022-.022-.011-.054-.032-.065.022-.054.1.011.065.022.011.043.022.043-.011L3.491,2.7,3.5,2.678h.022l-.011.054-.043.086-.032.043-.011-.022V2.785L3.4,2.753l-.032-.022L3.34,2.71l-.054.032-.054.1-.011.022v.032l.032.022.043.032.032.011.032.022.032.011h.032l.065-.032.022-.022.032-.011v.054" transform="translate(11.092 15.349)"/>
        <path id="Tracciato_3746" data-name="Tracciato 3746" d="M3.51,2.821,3.5,2.875a.116.116,0,0,1-.1.086.247.247,0,0,1-.151-.011l-.075-.043-.022-.022-.043-.032-.032.011V2.81L3.1,2.735l.043-.043.011.043v.032l.011.065.043.054.065.032.043.011H3.36l.022-.011.032-.043V2.81l-.043-.054-.054-.043-.032-.032L3.22,2.6l.011-.1.032-.043.054-.022.065-.011.065.022.065.032.011.011.032.032.032-.011v.054l-.022.065-.022.043-.022-.032V2.606L3.51,2.552,3.478,2.5l-.054-.032H3.36L3.317,2.5l-.011.065.032.054.054.043.043.032.032.043.032.043.011.043" transform="translate(11.6 15.593)"/>
        <path id="Tracciato_3747" data-name="Tracciato 3747" d="M3.335,2.974,3.163,2.92,3.12,2.9l.022-.022.022.011h.054l.011-.022.129-.355V2.49l-.011-.022-.032-.011L3.3,2.447l-.011-.011h.054l.151.043L3.54,2.5l-.022.011H3.475l-.032.011v.011l-.129.355V2.91l.011.022.032.022h.022l.011.022H3.335" transform="translate(11.99 15.72)"/>
        <path id="Tracciato_3748" data-name="Tracciato 3748" d="M3.678,3.069l-.065-.022-.065-.054-.043-.1-.043-.086-.032-.043L3.366,2.8l-.032.108v.022l.022.022.022.011.022.011.011.011H3.355L3.2,2.94l-.054-.011.022-.022h.011l.032.011.022-.011.011-.022c.043-.118.075-.237.108-.355l.011-.022-.022-.022-.022-.011-.011-.011L3.3,2.445l.054.011.2.054.065.022.043.032.032.043v.065l-.022.043-.032.032-.054.022H3.56l-.011.043.032.065.054.1.011.022.032.032.032.022h.011l.011.022H3.678m-.086-.5-.075-.043L3.485,2.52l-.043.032-.032.118.011.065h.022a.182.182,0,0,0,.108,0L3.6,2.649l-.011-.075" transform="translate(12.293 15.808)"/>
        <path id="Tracciato_3749" data-name="Tracciato 3749" d="M3.723,2.932l-.011.043-.065.065C3.518,3.018,3.389,3,3.26,2.964l-.054-.011.022-.022h.043l.022-.011L3.3,2.9l.075-.366V2.523L3.367,2.5,3.346,2.49,3.324,2.48l-.011-.011.054-.011.323.065.043.054V2.6l-.022.054L3.68,2.609l-.011-.032-.043-.043H3.572l-.065-.011-.043.032-.022.108.022.054h.022l.043.011.043-.011.022-.032V2.673l.022-.011.011.054-.011.1-.022.043-.022-.022V2.813l-.011-.032L3.54,2.77,3.5,2.749H3.454l-.032.032L3.4,2.9l-.011.032.011.022.032.011.054.011.032.011L3.561,3l.032-.011h.022l.054-.054L3.69,2.91l.022-.022.011.043" transform="translate(12.83 15.935)"/>
        <path id="Tracciato_3750" data-name="Tracciato 3750" d="M3.753,2.639l-.011-.011-.011-.011-.022-.043-.022-.022-.032-.022-.022-.011H3.58l-.022.054c0,.118-.011.237-.022.355l.011.022.022.022.032.011h.011l.022.011-.054.011L3.4,2.994l-.043-.011.022-.011h.011l.032-.011H3.44l.011-.032.032-.366L3.473,2.51H3.4l-.032.011-.022.022-.022.032L3.311,2.6l-.032.011V2.532a.061.061,0,0,1,.054-.065A2.353,2.353,0,0,0,3.72,2.5l.043.054v.032l-.011.054" transform="translate(13.543 16.023)"/>
        <path id="Tracciato_3751" data-name="Tracciato 3751" d="M3.9,2.986,3.748,3,3.7,2.986V2.964h.043l.022-.011.011-.032-.011-.129-.043-.054-.183.011L3.5,2.792v.151l.011.011.032.011.022.011.011.011L3.532,3H3.382l-.054-.011.011-.022h.043L3.4,2.953V2.932l.011-.377L3.4,2.534l-.011-.011L3.36,2.512H3.35l-.011-.022.043-.011h.14l.054.011-.022.022H3.522L3.5,2.534v.129l.043.054.172-.011.054-.054-.011-.1V2.534l-.022-.022H3.715L3.7,2.5l-.022-.011.054-.011.129-.011H3.92L3.9,2.491V2.5H3.877l-.022.011-.011.032c.011.118.022.248.022.366l.011.022.022.022h.032l.022.011L3.9,2.986" transform="translate(14.021 16.042)"/>
        <path id="Tracciato_3752" data-name="Tracciato 3752" d="M3.917,2.862v.032c.011.054-.011.075-.043.075-.129.022-.269.032-.4.043H3.422l.011-.022h.022l.032-.011.022-.011V2.948l-.032-.377L3.465,2.55l-.022-.011-.022-.011H3.4L3.39,2.518,3.433,2.5l.334-.032.054.043.011.022v.054L3.788,2.55l-.022-.022-.054-.022H3.638l-.043.011-.032.054.011.1.032.054.032-.011L3.691,2.7l.022-.011.011-.032V2.636l.011-.022.022.054.022.1-.011.054-.022-.011-.011-.022-.011-.022L3.7,2.744H3.616L3.584,2.8l.011.108v.032l.011.022.032.011H3.7l.043-.011.022-.011H3.81l.022-.022.032-.054.011-.032L3.9,2.808l.022.054" transform="translate(14.626 15.993)"/>
        <path id="Tracciato_3753" data-name="Tracciato 3753" d="M4.081,2.906l-.065.011L3.931,2.9l-.086-.065-.075-.054-.054-.022-.032.054.022.108.011.022.022.011H3.8l-.043.032L3.6,3.014H3.554V2.992h.022L3.6,2.981l.022-.022V2.938c-.032-.118-.054-.248-.075-.366l-.011-.022L3.511,2.54H3.479l-.022-.011L3.5,2.508l.2-.043.065-.011.065.011.032.011.043.065.011.054-.011.032-.054.054-.022.011.011.043.054.043.086.065.043.022h.022l.043.011L4.1,2.863l.022.011-.043.032m-.312-.4L3.683,2.5l-.032.011-.022.054.022.118.022.043H3.7l.1-.054.011-.1-.043-.065" transform="translate(15.28 15.896)"/>
        <path id="Tracciato_3754" data-name="Tracciato 3754" d="M3.863,2.947,3.691,3H3.648V2.979h.022l.022-.011.022-.022V2.915L3.6,2.559l-.011-.022H3.508l.043-.043L3.7,2.452l.054-.011-.011.032H3.734l-.022.011-.022.022-.011.022.118.366.011.011.032.011h.065l-.043.032" transform="translate(15.778 15.769)"/>
        <path id="Tracciato_3755" data-name="Tracciato 3755" d="M4.112,2.681H4.1L4.08,2.7l-.011.022v.022l.011.032.032.054v.022L4.08,2.9l-.054.043-.1.054-.118.022L3.7,2.993,3.617,2.94l-.054-.108-.022-.108.032-.1.065-.086.1-.065.086-.022H3.9l.011-.032.043.043.032.075.011.043H3.962L3.94,2.563,3.876,2.52,3.811,2.5l-.065.011-.065.043-.043.065L3.628,2.7l.022.1.043.086.065.054.086.032.1-.022.054-.032L4,2.907l.022-.032V2.853l-.011-.032L4,2.8l-.022-.032-.032-.011-.032.011H3.876l.043-.032.151-.065.043-.011v.022" transform="translate(16.11 15.593)"/>
        <path id="Tracciato_3756" data-name="Tracciato 3756" d="M4.341,2.868l-.14.075-.054.022V2.943l.022-.022.022-.011L4.2,2.889V2.868l-.075-.118-.065-.022L3.9,2.8l-.022.065L3.932,3l.011.011.022.011L4,3.007h.032L4,3.04,3.846,3.1l-.054.011L3.8,3.094h.011l.032-.022.011-.011-.011-.032c-.054-.108-.1-.226-.161-.334l-.011-.022H3.61l-.022-.011.043-.022.129-.065L3.8,2.566l.011.022L3.792,2.6l-.022.011-.011.022.011.022.043.1.075.032L4.051,2.7l.022-.065-.054-.1-.011-.011-.032-.011-.022.011H3.932l-.011-.011.032-.032.129-.065.043-.022.011.022-.022.022-.022.011-.011.022.011.022.183.334.011.011h.054l.022-.011.011.011-.032.032" transform="translate(16.559 15.31)"/>
        <path id="Tracciato_3757" data-name="Tracciato 3757" d="M4.119,2.467H4.1l-.022-.011-.022-.011-.043-.011H3.968l-.032.011L3.9,2.467l-.011.011.022.043.2.312.011.011.022.011.043-.022L4.2,2.822l.032.011L4.2,2.865l-.172.108-.054.011.011-.022L4,2.951l.022-.022.022-.022V2.887c-.075-.108-.14-.215-.2-.323L3.8,2.531l-.011.011-.022.011-.022.022-.032.032v.032L3.7,2.671l.011.022L3.7,2.725l-.043-.032-.011-.032.011-.075c.118-.065.237-.14.355-.215l.065.011.032.032.011.054" transform="translate(17.116 15.076)"/>
        <path id="Tracciato_3758" data-name="Tracciato 3758" d="M7.543,14.629A6.726,6.726,0,0,1,2.9,8.365V1.176H12.16V8.365a6.74,6.74,0,0,1-4.639,6.264Z" transform="translate(9.882 3.42)" fill="#fff"/>
        <path id="Tracciato_3759" data-name="Tracciato 3759" d="M7.308,14.058a6.429,6.429,0,0,1-4.38-5.984V1.2h8.739V8.074a6.429,6.429,0,0,1-4.38,5.984Z" transform="translate(10.116 3.625)" fill="#0073cf"/>
        <path id="Tracciato_3760" data-name="Tracciato 3760" d="M3.875,2.841a.218.218,0,0,0-.194-.248.52.52,0,0,0-.334.086c-.054.032-.129.054-.161.011l-.022-.065-.086-.1a.384.384,0,0,1,.065-.592c.118-.065.269-.054.387-.118.194-.1.269-.334.43-.452a.654.654,0,0,1,.581-.086,1.792,1.792,0,0,1,.527.291l.28.2.14.118.108.161a.488.488,0,0,0,.355.151,5.508,5.508,0,0,1,1.119.043l.2.054a1.689,1.689,0,0,0,.463-.1,3.453,3.453,0,0,1,.743.054c.248,0,.517-.086.732.032l.14.108a1.8,1.8,0,0,1,.441.506.949.949,0,0,1,.1.549.352.352,0,0,0,0,.183l.032.075a.356.356,0,0,1,0,.258l-.1.129a.418.418,0,0,0-.022.161.676.676,0,0,1,.032.2l-.065.118c-.043.086-.011.183-.022.28C9.73,5,9.6,5.1,9.483,5.187L9.45,5.22v.032c.011.086.075.183.022.258-.065.108.022.226.022.355,0,.075-.054.151-.022.226.011.043.043.075.032.118a.134.134,0,0,1-.118.043L9.17,6.242l-.022-.6a.341.341,0,0,0-.086-.269.36.36,0,0,0-.3-.032c.054.118-.032.258-.011.387a2.1,2.1,0,0,1,.065.248.436.436,0,0,1-.194.334l-.065.054a.172.172,0,0,1-.172-.054.391.391,0,0,1-.075-.183l-.011-.1c.022-.054.1-.1.075-.151l-.022-.032A.347.347,0,0,1,8.288,5.6a.39.39,0,0,0-.043-.269.34.34,0,0,0-.377-.054.753.753,0,0,1-.4.1.6.6,0,0,0-.237-.065.362.362,0,0,0-.151.054.672.672,0,0,1-.592-.043.658.658,0,0,1-.42.14l-.1.011-.065.054a1.109,1.109,0,0,0-.14.452c-.032.151-.118.323-.28.344s-.312-.129-.484-.161a.637.637,0,0,0-.312-.8L4.575,5.3l-.022-.118a2.154,2.154,0,0,0-.334-.291,1.269,1.269,0,0,1-.312-.323.471.471,0,0,1-.043-.43c.032-.1.118-.172.161-.269a.379.379,0,0,0,.032-.269c-.032-.14-.118-.269-.151-.42V3.046a1.162,1.162,0,0,0-.032-.2" transform="translate(10.503 4.144)" fill="#fff"/>
        <path id="Tracciato_3761" data-name="Tracciato 3761" d="M4.1,2.529c.065.011.118-.054.129-.118a.388.388,0,0,0-.032-.183A.141.141,0,0,0,4.3,2l-.1-.1-.011-.1a.368.368,0,0,0-.151-.334.309.309,0,0,0-.344.011.752.752,0,0,0-.14.183c-.054.054-.129.108-.2.075a.247.247,0,0,0,.011-.151.107.107,0,0,0-.129-.075l-.075.054-.086.043c-.108-.032.108-.226.14-.248A.654.654,0,0,1,3.8,1.281a2.522,2.522,0,0,1,.527.291l.269.2.14.118.108.161a.488.488,0,0,0,.355.151,5.646,5.646,0,0,1,1.13.043.637.637,0,0,0,.2.054,1.363,1.363,0,0,0,.452-.1,4.312,4.312,0,0,1,.743.054,1.567,1.567,0,0,1,.743.032L8.6,2.4a2.244,2.244,0,0,1,.28.269.576.576,0,0,1,.14.28.359.359,0,0,1,.011.183c-.032.054-.129.075-.161.022L8.854,3.1c-.011-.108-.118-.172-.215-.215l-.075-.022c-.043,0-.065.065-.1.1a.193.193,0,0,1-.3-.022.281.281,0,0,0-.108-.323A.775.775,0,0,0,7.714,2.5H7.66l-.022.054c0,.108.054.215.011.312L7.6,2.906c-.043,0-.054-.065-.065-.108a.194.194,0,0,0-.183-.14A.484.484,0,0,0,7.1,2.7c-.054.011-.118.043-.118.086v.054a.515.515,0,0,0,.323.28l.086.043c.108.054.086.237-.011.312a.486.486,0,0,1-.366.054c-.065-.011-.151-.043-.14-.1.011-.086.14-.075.183-.151s-.022-.14-.086-.172-.14-.054-.172-.118,0-.172-.032-.248c-.054-.108-.226-.1-.344-.065a.916.916,0,0,1,.172.5l-.022.065c-.032.054-.118,0-.172,0a.219.219,0,0,0-.161.065.43.43,0,0,1-.161.1c-.065.011-.14-.032-.129-.1s.086-.1.151-.108a.453.453,0,0,0,.3-.151c.065-.1.011-.258-.1-.258.011-.129.011-.291-.108-.334s-.258.108-.248.237l-.022.129c-.054.086-.194.054-.258.129l-.043.1a.269.269,0,0,1-.291.172.357.357,0,0,1-.054.172.1.1,0,0,1-.151.011L5.1,3.293c0-.054.011-.118.065-.14l.075-.011a.156.156,0,0,0,.118-.215.624.624,0,0,0,.334-.172.248.248,0,0,0,0-.334L5.669,2.4l-.043.022-.258.151a.266.266,0,0,0-.129-.2.193.193,0,0,0-.226.022c-.054.043-.065.108-.1.161s-.108.086-.161.043-.022-.14-.065-.194a.14.14,0,0,0-.2-.022c-.065.043-.118.118-.172.161s-.172.054-.215-.011" transform="translate(11.26 4.144)" fill="#bcbec0"/>
        <path id="Tracciato_3762" data-name="Tracciato 3762" d="M3.733,2.107a.218.218,0,0,0-.194-.248.52.52,0,0,0-.334.086c-.054.032-.129.054-.161.011-.043-.065-.129-.3.032-.28a.309.309,0,0,1,.14.086c.043.032.118.054.14,0l-.108-.151c-.022-.043-.043-.1,0-.129s.086.032.108.086.1.108.129.054A.211.211,0,0,1,3.5,1.461c.022-.043.108-.065.14-.022s-.011.129.032.172a.091.091,0,0,0,.14-.043L3.851,1.4c.022-.054.086-.1.129-.054l.032.1a.527.527,0,0,1-.086.258c.151.011.269-.118.377-.226.054-.032.118-.075.172-.032l.043.054a.263.263,0,0,1,0,.28c-.065.075-.172.075-.258.108s-.172.14-.108.2c.161-.065.323-.129.484-.183.065.054.032.172-.032.226a.679.679,0,0,1-.248.086c-.086.022-.183.054-.215.14a.242.242,0,0,0,.291,0l.075-.065c.1-.043.215.075.323.043A.2.2,0,0,0,4.949,2.2c.032-.054.054-.118.108-.151a.1.1,0,0,1,.151.043c.022.075-.1.118-.172.161-.118.065-.194.226-.334.258l-.161.022-.129.086a.358.358,0,0,0-.1.118.117.117,0,0,0,.032.14c.065.054.161-.022.215-.075s.172-.129.226-.065c.075.065,0,.2.065.269s.172-.032.194-.118.011-.183.065-.248a.276.276,0,0,1,.2-.043c.054.043.022.129-.022.172s-.108.1-.129.161c-.022.1.043.2-.011.291-.086.1-.28.032-.323.14-.022.054.011.108-.022.151l-.075.075c-.032.086.1.161.054.237l-.1.1a.1.1,0,0,0,.065.129.226.226,0,0,0,.312-.194c.011-.118-.086-.269,0-.355l.108-.065c.054-.043.054-.14.075-.215s.108-.151.172-.1c.065.108-.075.215-.1.334s.086.269.032.387L5.3,3.969c-.011.065.054.108.108.118a.368.368,0,0,0,.183-.032c.043-.011.1-.043.1-.086s-.032-.065-.054-.1c-.1-.108-.022-.28.065-.387.043-.065.118-.118.183-.086s.043.129.011.194-.075.151-.032.2l.065.043a.188.188,0,0,1,0,.291.168.168,0,0,0,.2-.043.309.309,0,0,0,.032-.237c-.022-.1-.075-.215,0-.28s.194.011.28-.032c.043-.022.065-.075.1-.118s.1-.086.14-.054c.065.032.032.129,0,.183s-.086.129-.043.183.118.054.118.118c.011.1-.172.075-.183.172A.609.609,0,0,0,6.886,4a.2.2,0,0,0,.108-.258c-.032-.054-.108-.108-.086-.172l.075-.054a.916.916,0,0,1,.377-.054.17.17,0,0,1,.108-.248.157.157,0,0,1,.172.194.316.316,0,0,1-.108.129l-.172.129-.075.086a.13.13,0,0,0,.065.151.28.28,0,0,0,.161.043c.086,0,.2-.032.2-.118.011-.054-.032-.118,0-.161l.065-.043c.054-.043.022-.118.022-.194s.065-.151.108-.108L7.93,3.4v.5l.011.075L8.005,4a.533.533,0,0,0,.226,0c.011-.086-.075-.161-.1-.258-.032-.14.108-.28.054-.42.043-.065.14.011.151.075s-.011.161.022.226l.1.118c.022.086-.065.194-.011.269.043.054.118.043.183.022L8.684,4l-.011-.043-.118-.248c.086,0,.118-.108.1-.194a.488.488,0,0,1-.011-.248l.043-.086L8.63,3.1l-.226-.2a.313.313,0,0,1,.452.226,1.049,1.049,0,0,0,.022.269c.022.054.075.1.086.151s-.011.14.022.2c.043.1.2.075.258-.022a.306.306,0,0,0-.043-.3c.118.043.248-.108.2-.226.054.054.108-.086.183-.1s.118.065.108.129a2.863,2.863,0,0,0-.032.3.676.676,0,0,1,.032.2l-.065.118c-.043.086-.011.183-.022.28-.022.14-.151.237-.269.323l-.032.032v.032c.011.086.075.183.022.258-.065.108.022.226.022.355,0,.075-.054.151-.022.226.011.043.043.075.032.118a.134.134,0,0,1-.118.043l-.215-.011-.022-.6a.341.341,0,0,0-.086-.269.36.36,0,0,0-.3-.032c.054.118-.032.258-.011.387a2.1,2.1,0,0,1,.065.248.436.436,0,0,1-.194.334l-.065.054a.172.172,0,0,1-.172-.054.391.391,0,0,1-.075-.183l-.011-.1c.022-.054.1-.1.075-.151L8.21,5.11a.347.347,0,0,1-.065-.248A.39.39,0,0,0,8.1,4.593a.34.34,0,0,0-.377-.054.753.753,0,0,1-.4.1.6.6,0,0,0-.237-.065.362.362,0,0,0-.151.054.672.672,0,0,1-.592-.043.658.658,0,0,1-.42.14l-.1.011-.065.054a1.109,1.109,0,0,0-.14.452c-.032.151-.118.323-.28.344s-.312-.129-.484-.161a.637.637,0,0,0-.312-.8l-.118-.065-.022-.118a2.154,2.154,0,0,0-.334-.291,1.269,1.269,0,0,1-.312-.323.471.471,0,0,1-.043-.43c.032-.1.118-.172.161-.269a.379.379,0,0,0,.032-.269c-.032-.14-.118-.269-.151-.42V2.312a1.162,1.162,0,0,0-.032-.2" transform="translate(10.646 4.878)" fill="#bcbec0"/>
        <path id="Tracciato_3763" data-name="Tracciato 3763" d="M3.233,1.47l-.108.075-.011.108c-.043.022-.1-.054-.108-.086-.032-.065-.043-.215.032-.248h.054c.054.022.032.065.043.108h.086l.011.043" transform="translate(10.65 4.816)" fill="#bcbec0"/>
        <path id="Tracciato_3764" data-name="Tracciato 3764" d="M3.531,1.685h.043c.108,0,.2.086.3.065l.032-.14.022-.043h.043c.054.011.1.032.1.086s-.054.086-.108.118-.086.1-.14.108-.1-.043-.14-.054L3.552,1.8c-.043-.011-.086-.022-.1-.065l-.022-.032H3.4a.134.134,0,0,1-.14-.043c-.022-.043,0-.118.043-.118l.065.011.065-.011.022-.054.086-.032.032.086L3.52,1.61l.011.075" transform="translate(13.291 6.182)" fill="#bcbec0"/>
        <path id="Tracciato_3765" data-name="Tracciato 3765" d="M3.156,1.553H3.081L3.027,1.51l.065-.065.2-.108.118-.032a.121.121,0,0,1,.118.032.115.115,0,0,1,.011.118l-.108.054-.118.011-.086.011-.075.022" transform="translate(11.082 4.646)" fill="#fff"/>
        <path id="Tracciato_3766" data-name="Tracciato 3766" d="M3.114,1.593H3.081c-.022-.011-.065-.032-.054-.075l.043-.065L3.3,1.346,3.426,1.3a.148.148,0,0,1,.129.043l.011.129a.146.146,0,0,1-.118.065l-.065.011H3.35l-.108.022-.075.011-.054.011m.334-.258H3.426l-.108.043-.2.1-.054.043.022.032h.086l.065-.022.1-.011.054-.011h.065l.086-.043-.011-.1-.075-.032" transform="translate(11.071 4.628)"/>
        <path id="Tracciato_3767" data-name="Tracciato 3767" d="M3.176,1.381a.069.069,0,0,1-.054.086.091.091,0,0,1-.075-.075L3.1,1.306a.074.074,0,0,1,.075.075" transform="translate(11.278 4.689)"/>
        <path id="Tracciato_3768" data-name="Tracciato 3768" d="M9.535,2.345c.075-.086.226.022.312-.043a.19.19,0,0,0-.075-.118,3.168,3.168,0,0,1,.452,0l.086.022.054.075a.338.338,0,0,1-.237.42,2.237,2.237,0,0,0-.248.032c-.075.032-.14.129-.086.194-.2.032-.3.258-.474.355-.075.043-.161.054-.237.1a1.128,1.128,0,0,0-.237.215.9.9,0,0,1-.334.2,2.411,2.411,0,0,1-1.345.161,4.6,4.6,0,0,0-1-.151,7.109,7.109,0,0,0-.786.215,2.082,2.082,0,0,1-1.8-.4.662.662,0,0,1-.172-.215c-.075-.183.032-.409-.043-.581-.043-.086-.129-.151-.183-.237-.183-.28-.108-.743-.161-.969a.52.52,0,0,0,.151.215.548.548,0,0,1,.172.14.683.683,0,0,1,.086.4c.011.129.108.291.237.258a.191.191,0,0,1-.032-.226A.6.6,0,0,0,3.7,2.173c0-.054-.011-.14.043-.151l.054.022a.253.253,0,0,1,.086.226l.022.129.086.022a.208.208,0,0,1,.14.248c.118-.075.011-.291.108-.387l.118-.043A.3.3,0,0,1,4.6,2.41l.043.108.129.043c.14.011.28.022.42.022a2.154,2.154,0,0,1,.3-.4l.248.377c.108.011.14-.172.248-.183l.086-.011c.043-.022.022-.086.032-.14a.154.154,0,0,1,.215-.065.408.408,0,0,1,.151.194.51.51,0,0,0,.129.2.258.258,0,0,0,.3-.011c.043-.043.075-.086.118-.1.065-.011.129.043.183.022.118-.043.022-.258.108-.344.086.151.172.3.248.452a.268.268,0,0,0,.183-.258.445.445,0,0,0,.517-.2.7.7,0,0,1-.043.441,3.018,3.018,0,0,0,.441,0,.218.218,0,0,1,.129-.3h.14a.764.764,0,0,0,.237-.14.481.481,0,0,0,.065.3.174.174,0,0,0,.269.022l.043-.1" transform="translate(11.053 7.793)" fill="#005015"/>
        <path id="Tracciato_3769" data-name="Tracciato 3769" d="M4.906,4.13a2.119,2.119,0,0,1-1.324-.474.506.506,0,0,1-.194-.517.609.609,0,0,0-.032-.28.371.371,0,0,0-.1-.129l-.086-.108a1.321,1.321,0,0,1-.129-.678,2.183,2.183,0,0,0-.022-.3V1.622h.043a.379.379,0,0,0,.151.215l.054.043.118.1a.454.454,0,0,1,.075.312l.011.1a.284.284,0,0,0,.161.248.248.248,0,0,1-.011-.215l.032-.065L3.7,2.192V2.182a.2.2,0,0,1,.011-.14l.043-.022h.011l.065.022a.29.29,0,0,1,.1.248v.022l.011.086.054.022H4a.183.183,0,0,1,.14.108l.032.075.011-.108a.3.3,0,0,1,.054-.215.172.172,0,0,1,.129-.043.293.293,0,0,1,.269.183l.011.032.022.065.118.032.4.032a2.153,2.153,0,0,1,.3-.4L5.5,2.171l.022.011.248.366.1-.075c.032-.043.075-.1.129-.1h.022l.054-.011L6.09,2.3,6.1,2.257a.146.146,0,0,1,.161-.118l.075.011a.453.453,0,0,1,.172.2v.022a.537.537,0,0,0,.118.183.243.243,0,0,0,.28-.011l.022-.032a.164.164,0,0,1,.108-.065l.1.011H7.21c.043-.011.043-.054.043-.14a.227.227,0,0,1,.065-.194h.011l.022.011.237.43a.261.261,0,0,0,.151-.226V2.322l.032-.011.118.022a.417.417,0,0,0,.366-.215l.011-.011.032.022a.7.7,0,0,1-.032.42,1.107,1.107,0,0,0,.377,0,.209.209,0,0,1,0-.161.223.223,0,0,1,.151-.129l.086-.011h.054a.479.479,0,0,0,.226-.129l.022-.011.022.011a.562.562,0,0,0,.054.312.213.213,0,0,0,.14.065l.086-.043L9.5,2.408l.032-.065L9.642,2.3l.065.011L9.836,2.3l-.065-.086L9.76,2.2l.022-.032a3.32,3.32,0,0,1,.463,0l.1.032.054.086a.324.324,0,0,1-.022.28.336.336,0,0,1-.226.172l-.108.011-.14.022a.156.156,0,0,0-.086.1l.011.054v.022L9.8,2.967a.575.575,0,0,0-.258.183.968.968,0,0,1-.194.172l-.118.043L9.1,3.419l-.151.129-.075.086a1.072,1.072,0,0,1-.344.2,2.542,2.542,0,0,1-1.356.172l-.312-.075a2.71,2.71,0,0,0-.581-.086l-.1.011a2.036,2.036,0,0,0-.506.118,2.125,2.125,0,0,1-.28.086,1.835,1.835,0,0,1-.5.065M3.088,1.783v.161a1.416,1.416,0,0,0,.129.646L3.3,2.7l.108.14a.609.609,0,0,1,.022.312.761.761,0,0,0,.022.269.712.712,0,0,0,.161.2,2.072,2.072,0,0,0,1.291.452,2.3,2.3,0,0,0,.484-.054l.28-.086a2.02,2.02,0,0,1,.517-.129h.1a2.71,2.71,0,0,1,.592.086l.312.065A2.422,2.422,0,0,0,8.512,3.8,1.185,1.185,0,0,0,8.845,3.6l.075-.086a.507.507,0,0,1,.161-.14l.129-.054.118-.043c.065-.043.118-.108.183-.161a.568.568,0,0,1,.258-.194V2.849a.165.165,0,0,1,.118-.118l.151-.022.108-.011a.313.313,0,0,0,.183-.151.291.291,0,0,0,.022-.248l-.043-.054-.075-.022c-.129-.011-.258-.011-.387-.011l.043.1-.011.022-.1.032-.075-.011H9.642l-.075.022-.022.054-.022.043a.141.141,0,0,1-.129.065.23.23,0,0,1-.183-.086.441.441,0,0,1-.065-.258.617.617,0,0,1-.2.108H8.8a.177.177,0,0,0-.108.108.15.15,0,0,0,0,.151V2.58L8.673,2.6a3.018,3.018,0,0,1-.441,0L8.21,2.591V2.569A.866.866,0,0,0,8.264,2.2a.508.508,0,0,1-.377.183L7.78,2.375a.291.291,0,0,1-.194.248l-.032-.011-.226-.42-.022.129c0,.086,0,.161-.086.194L7.113,2.5l-.075-.011-.065.054-.022.022a.276.276,0,0,1-.194.075A.32.32,0,0,1,6.6,2.591.412.412,0,0,1,6.467,2.4l-.011-.022a.4.4,0,0,0-.14-.183l-.054-.011a.1.1,0,0,0-.108.075l-.011.022c0,.054,0,.108-.043.129l-.032.011H6A.2.2,0,0,0,5.9,2.5c-.043.054-.086.108-.151.1l-.022-.011L5.5,2.235a2.2,2.2,0,0,0-.269.377l-.022.011c-.14,0-.28-.011-.42-.022a.2.2,0,0,1-.151-.054l-.043-.086-.011-.011a.24.24,0,0,0-.215-.172l-.1.032a.311.311,0,0,0-.032.183c0,.075,0,.161-.075.2H4.132l-.011-.011a.132.132,0,0,0-.022-.14A.115.115,0,0,0,4,2.472l-.011-.011-.086-.032A.137.137,0,0,1,3.884,2.3V2.279A.252.252,0,0,0,3.8,2.085l-.032-.022-.011.011-.011.1v.011a.437.437,0,0,1-.043.2L3.68,2.44c-.032.065-.032.161.022.194l.022.022L3.7,2.677l-.032.011c-.14,0-.237-.151-.248-.291V2.289a.474.474,0,0,0-.075-.28l-.108-.086L3.174,1.88l-.086-.1" transform="translate(11.043 7.774)" fill="#002403"/>
        <path id="Tracciato_3770" data-name="Tracciato 3770" d="M3.581,2.7h0L3.56,2.672l-.043-.1-.043-.022-.086-.043-.032-.1-.011-.065-.032-.032a.089.089,0,0,1-.054-.086l.054-.054.011-.011V2.091L3.312,2.07,3.28,1.983l.011-.054V1.908a.1.1,0,0,0-.043-.118.137.137,0,0,0-.129-.022H3.1l.011-.043a.194.194,0,0,1,.172.022.178.178,0,0,1,.065.172V1.94l-.011.043.022.065.011.022a.1.1,0,0,1,.011.118l-.043.032-.022.022.032.043.032.032.032.1.022.065.054.032.032.011c.075.043.108.108.086.161L3.581,2.7" transform="translate(11.766 8.671)" fill="#002403"/>
        <path id="Tracciato_3771" data-name="Tracciato 3771" d="M3.185,2.073l-.022-.011V2.03a.277.277,0,0,1,.269-.054l.065.011a.533.533,0,0,0,.183.022l.086-.032.075-.022a.208.208,0,0,1,.14,0c0-.054.043-.1.086-.151l.086-.054a.185.185,0,0,1,.172.086.607.607,0,0,0,.463.172l.022.011L4.8,2.052a.588.588,0,0,1-.506-.183H4.282c-.032-.043-.075-.086-.118-.075L4.1,1.847a.208.208,0,0,0-.075.161V2.03H3.981c-.022-.043-.086-.043-.129-.032l-.075.022-.086.032a.724.724,0,0,1-.215-.011L3.443,2.03c-.075-.022-.183-.032-.237.032Z" transform="translate(12.41 9.012)" fill="#002403"/>
        <path id="Tracciato_3772" data-name="Tracciato 3772" d="M3.2,2.033H3.179L3.168,2a.442.442,0,0,1,.474-.14h.022l.043.011.14-.054.043-.032a.5.5,0,0,1,.2-.065,1.162,1.162,0,0,1,.2.032l.226.054.032-.032H4.6V1.8l-.054.054-.022.011-.248-.054-.183-.032a.3.3,0,0,0-.172.054l-.043.032a.338.338,0,0,1-.172.065L3.642,1.9H3.631a.427.427,0,0,0-.42.118L3.2,2.033" transform="translate(12.459 8.74)" fill="#002403"/>
        <path id="Tracciato_3773" data-name="Tracciato 3773" d="M3.723,2.3a.354.354,0,0,1-.183-.043l-.032-.022L3.4,2.195l-.032-.022.022-.032a.165.165,0,0,1,.14.054l.032.022a.469.469,0,0,0,.344.011l.075-.043-.054-.075H3.917c-.032-.022-.086-.054-.086-.108V1.969l.043-.043.194-.043.022-.011-.011-.011c-.043-.043-.108-.1-.161-.086H3.885l.022-.043a.213.213,0,0,1,.2.1l.022.043-.054.054L3.9,1.979H3.874V1.99l.075.075v.011c.065.032.1.086.075.129s-.075.065-.108.075L3.723,2.3" transform="translate(14.411 8.804)" fill="#002403"/>
        <path id="Tracciato_3774" data-name="Tracciato 3774" d="M3.523,2.689l-.032-.022L3.48,2.431l.011-.054.043-.054.022-.011a.114.114,0,0,0,.022-.129l-.011-.022L3.534,2.1a.1.1,0,0,1,.1-.1l.14-.075L3.792,1.9l-.011-.022-.1-.108V1.731h.032l.108.118.022.065L3.8,1.968l-.161.075L3.588,2.1l.022.043.011.022a.167.167,0,0,1-.032.194l-.022.011L3.534,2.4v.269Z" transform="translate(15.505 8.838)" fill="#002403"/>
        <path id="Tracciato_3775" data-name="Tracciato 3775" d="M4.234,2.107,4.212,2.1l-.065-.129-.032-.075c-.032-.054-.086-.118-.151-.108L3.9,1.805a.185.185,0,0,1-.129.022L3.76,1.816l-.022-.011-.086-.011H3.609l-.022.022v.011l-.011.032H3.545l-.011-.054.032-.054.086-.011.108.011.011.011.022.011.086-.011.075-.032a.221.221,0,0,1,.2.14l.032.075.065.118V2.1Z" transform="translate(16.032 8.817)" fill="#002403"/>
        <path id="Tracciato_3776" data-name="Tracciato 3776" d="M3.053,3.727A3.729,3.729,0,0,1,4.312,3.1c.42-.011,1.109.657,1.528.657.387-.011,1.033-.646,1.421-.657.441-.011,1.205.667,1.647.657C9.3,3.749,9.941,3.1,10.339,3.1a3.886,3.886,0,0,1,1.281.624A7.067,7.067,0,0,0,11.749,2.4a4.821,4.821,0,0,0-1.41-.657c-.4,0-1.044.646-1.431.657-.441.022-1.205-.667-1.647-.657-.387.011-1.033.657-1.421.657-.42.011-1.109-.657-1.528-.657A4.922,4.922,0,0,0,2.924,2.4a7.243,7.243,0,0,0,.129,1.324" transform="translate(10.077 8.994)" fill="#fff"/>
        <path id="Tracciato_3777" data-name="Tracciato 3777" d="M3.465,3.5a1.2,1.2,0,0,1,.5-.161C4.369,3.332,5.068,4,5.488,4c.4,0,1.044-.646,1.431-.657.452-.011,1.216.667,1.657.657.4-.011,1.033-.657,1.431-.657a1.541,1.541,0,0,1,.517.161,5.549,5.549,0,0,0,.506-1.1,2.851,2.851,0,0,0-1.022-.42c-.4,0-1.033.646-1.431.657-.441.011-1.205-.667-1.657-.657-.387.011-1.033.657-1.431.657-.42,0-1.119-.667-1.528-.657a2.85,2.85,0,0,0-1,.42,6.542,6.542,0,0,0,.506,1.1" transform="translate(10.419 11.337)" fill="#fff"/>
        <path id="Tracciato_3778" data-name="Tracciato 3778" d="M4.886,3.735l.43.183.366-.161A7.992,7.992,0,0,0,7.415,2.723a1.224,1.224,0,0,1-.5.183c-.452.022-1.238-.678-1.69-.667-.4.011-1.055.667-1.464.667a1.326,1.326,0,0,1-.635-.248A7.957,7.957,0,0,0,4.886,3.735" transform="translate(12.107 13.797)" fill="#fff"/>
        <path id="Tracciato_3779" data-name="Tracciato 3779" d="M3.036,3.424H3.026V3.392L4.737,1.928l.022-.011V1.95L3.047,3.424Z" transform="translate(11.068 10.659)" fill="#752729"/>
        <path id="Tracciato_3780" data-name="Tracciato 3780" d="M3.6,4.286l-.011-.011V4.264L3.328,2.026l.011-.011L3.35,2l.129.022.022.011.656,2.013-.011.022-.538.2ZM3.371,2.047l.248,2.185.5-.194-.646-1.98Z" transform="translate(14.021 11.503)" fill="#752729"/>
        <path id="Tracciato_3781" data-name="Tracciato 3781" d="M3.789,4.1l-.022-.022-.43-2.056V2.005l.032.011.441,2.066Z" transform="translate(14.109 11.515)" fill="#752729"/>
        <path id="Tracciato_3782" data-name="Tracciato 3782" d="M3.37,2.331,3.348,2.32,3.37,2.3l.484-.129.022.022-.011.022Z" transform="translate(14.22 13.116)" fill="#752729"/>
        <path id="Tracciato_3783" data-name="Tracciato 3783" d="M3.357,2.309H3.346V2.276l.42-.14.022.011v.022l-.42.14Z" transform="translate(14.195 12.796)" fill="#752729"/>
        <path id="Tracciato_3784" data-name="Tracciato 3784" d="M3.363,2.25l-.022-.011.011-.022.355-.108h.022l-.011.032Z" transform="translate(14.154 12.539)" fill="#752729"/>
        <path id="Tracciato_3785" data-name="Tracciato 3785" d="M3.359,2.139l-.022-.011.011-.022.323-.022.022.022-.022.022Z" transform="translate(14.116 12.299)" fill="#752729"/>
        <path id="Tracciato_3786" data-name="Tracciato 3786" d="M3.357,2.141,3.336,2.13l.011-.022.248-.043h.022L3.6,2.1Z" transform="translate(14.096 12.103)" fill="#752729"/>
        <path id="Tracciato_3787" data-name="Tracciato 3787" d="M3.354,2.113,3.333,2.1l.022-.032.194-.032.022.011-.011.022Z" transform="translate(14.067 11.832)" fill="#752729"/>
        <path id="Tracciato_3788" data-name="Tracciato 3788" d="M3.5,2.05H3.352l-.022-.022.022-.011H3.5l.022.011Z" transform="translate(14.046 11.639)" fill="#752729"/>
        <path id="Tracciato_3789" data-name="Tracciato 3789" d="M5.092,5.154l-.011-.011L3.273,1.9V1.883H3.3L5.113,5.122v.022Z" transform="translate(13.481 10.319)" fill="#752729"/>
        <path id="Tracciato_3790" data-name="Tracciato 3790" d="M3.412,1.774,3.315,6.4h.172V1.774Z" transform="translate(13.895 9.258)" fill="#f88b4b"/>
        <path id="Tracciato_3791" data-name="Tracciato 3791" d="M3.507,6.433H3.324l-.011-.011.1-4.628.011-.022h.086l.022.022V6.422l-.022.011M3.356,6.39h.129V1.805H3.442Z" transform="translate(13.874 9.248)" fill="#752729"/>
        <path id="Tracciato_3792" data-name="Tracciato 3792" d="M3.281,2.046l.99-.237v.065l-.99.323Z" transform="translate(13.561 9.599)" fill="#f88b4b"/>
        <path id="Tracciato_3793" data-name="Tracciato 3793" d="M3.3,2.227H3.279V2.044l1-.237H4.3v.075L4.291,1.9Zm.011-.151v.108l.958-.312V1.85Z" transform="translate(13.543 9.58)" fill="#752729"/>
        <path id="Tracciato_3794" data-name="Tracciato 3794" d="M3.275,2.313V2.13l1.378-.28V1.9Z" transform="translate(13.503 10)" fill="#f88b4b"/>
        <path id="Tracciato_3795" data-name="Tracciato 3795" d="M3.285,2.354H3.274v-.2l.011-.022,1.388-.28h.011l.011.022v.054l-.022.022L3.3,2.354Zm.022-.194v.151l1.345-.4V1.891Z" transform="translate(13.494 9.98)" fill="#752729"/>
        <path id="Tracciato_3796" data-name="Tracciato 3796" d="M3.3,2.25l-.032-.194,1.27-.065v.054Z" transform="translate(13.474 11.382)" fill="#f88b4b"/>
        <path id="Tracciato_3797" data-name="Tracciato 3797" d="M3.324,2.29H3.313L3.3,2.28,3.27,2.086l.011-.022h.011l1.27-.075L4.572,2v.075l-.011.011ZM3.313,2.1l.022.151L4.54,2.054V2.032Z" transform="translate(13.455 11.356)" fill="#752729"/>
        <path id="Tracciato_3798" data-name="Tracciato 3798" d="M3.281,2.071l.99-.258a.268.268,0,0,1-.065.215.262.262,0,0,1-.248.065.248.248,0,0,1-.1.172A.25.25,0,0,1,3.6,2.243L3.518,2.3c-.075.022-.183-.065-.237-.226" transform="translate(13.562 9.638)" fill="#ffd011"/>
        <path id="Tracciato_3799" data-name="Tracciato 3799" d="M3.516,2.338c-.086,0-.183-.1-.237-.237V2.08l.011-.011.99-.258h.011l.011.022a.256.256,0,0,1-.3.3.24.24,0,0,1-.108.161.268.268,0,0,1-.269-.011l-.075.054ZM3.322,2.1c.054.151.151.215.215.194L3.6,2.252l.011-.011h.011a.231.231,0,0,0,.248.022.221.221,0,0,0,.086-.14l.011-.032h.022a.252.252,0,0,0,.226-.054.284.284,0,0,0,.054-.183Z" transform="translate(13.543 9.619)" fill="#752729"/>
        <path id="Tracciato_3800" data-name="Tracciato 3800" d="M3.411,2.187c.463-.108.926-.215,1.388-.334a1.25,1.25,0,0,0-.258.474,1.855,1.855,0,0,0,.086,1.022c-.022-.022-.28-.452-.646-.4a.7.7,0,0,0-.527.452,1.259,1.259,0,0,1-.194-.613,1.185,1.185,0,0,1,.151-.6" transform="translate(13.357 10.029)" fill="#ffd011"/>
        <path id="Tracciato_3801" data-name="Tracciato 3801" d="M3.473,3.433l-.011-.011a1.214,1.214,0,0,1-.2-.624,1.189,1.189,0,0,1,.161-.6l.011-.011,1.388-.334h.011l.011.022a1.312,1.312,0,0,0-.269.474,1.92,1.92,0,0,0,.086,1.012v.011H4.636l-.011-.011c-.194-.28-.409-.409-.624-.377a.643.643,0,0,0-.506.441ZM3.441,2.217A1.141,1.141,0,0,0,3.29,2.8a1.123,1.123,0,0,0,.183.581A.7.7,0,0,1,4,2.949a.674.674,0,0,1,.592.312,1.945,1.945,0,0,1-.054-.926,1.345,1.345,0,0,1,.237-.441Z" transform="translate(13.338 10.009)" fill="#752729"/>
        <path id="Tracciato_3802" data-name="Tracciato 3802" d="M3.275,2.135c.409-.043.829-.086,1.238-.14a.38.38,0,0,1-.172.215.353.353,0,0,1-.3-.032.228.228,0,0,1-.129.2.2.2,0,0,1-.258-.1l-.043.054c-.065.043-.194-.043-.334-.2" transform="translate(13.503 11.415)" fill="#ffd011"/>
        <path id="Tracciato_3803" data-name="Tracciato 3803" d="M3.854,2.434a.23.23,0,0,1-.194-.1l-.032.043c-.065.032-.2-.043-.355-.215V2.144l.011-.011,1.238-.14h.011l.011.022a.311.311,0,0,1-.183.226l-.129.032a.493.493,0,0,1-.172-.043.213.213,0,0,1-.129.194l-.075.011M3.66,2.284l.011.011a.222.222,0,0,0,.183.108l.065-.022A.2.2,0,0,0,4.026,2.2V2.176h.022a.391.391,0,0,0,.183.054l.118-.022A.311.311,0,0,0,4.5,2.036l-1.173.129a.488.488,0,0,0,.258.183h.032l.022-.054Z" transform="translate(13.484 11.395)" fill="#752729"/>
        <path id="Tracciato_3804" data-name="Tracciato 3804" d="M3.89,1.774l-.624.291.624.129Z" transform="translate(13.417 9.258)" fill="#ff0008"/>
        <path id="Tracciato_3805" data-name="Tracciato 3805" d="M3.91,2.224h0l-.635-.129-.011-.011.011-.022L3.9,1.772h.022l.011.022V2.2l-.011.022Zm-.57-.151.549.108V1.826Z" transform="translate(13.396 9.238)" fill="#752729"/>
        <path id="Tracciato_3806" data-name="Tracciato 3806" d="M3.8,4.272h0L3.26,4.057l-.011-.022.657-2.013.022-.011L4.056,2h.011l.011.022L3.819,4.261l-.011.011Zm-.506-.237.5.194.248-2.2-.1.011Z" transform="translate(13.25 11.473)" fill="#752729"/>
        <path id="Tracciato_3807" data-name="Tracciato 3807" d="M3.295,4.1h0l-.022-.011.441-2.066L3.736,2l.011.022-.43,2.066Z" transform="translate(13.484 11.476)" fill="#752729"/>
        <path id="Tracciato_3808" data-name="Tracciato 3808" d="M3.762,2.317h0l-.5-.118-.011-.022.022-.011.484.118.022.011-.022.022" transform="translate(13.324 13.088)" fill="#752729"/>
        <path id="Tracciato_3809" data-name="Tracciato 3809" d="M3.7,2.3H3.687l-.409-.14-.011-.022.022-.011.42.14.011.022Z" transform="translate(13.427 12.759)" fill="#752729"/>
        <path id="Tracciato_3810" data-name="Tracciato 3810" d="M3.642,2.256h0l-.355-.108-.011-.022L3.3,2.105l.355.118.011.022Z" transform="translate(13.517 12.492)" fill="#752729"/>
        <path id="Tracciato_3811" data-name="Tracciato 3811" d="M3.607,2.136h0l-.312-.011L3.284,2.1l.011-.022.312.022.022.011-.022.022" transform="translate(13.593 12.261)" fill="#752729"/>
        <path id="Tracciato_3812" data-name="Tracciato 3812" d="M3.55,2.137h0l-.237-.043-.022-.022.022-.011L3.55,2.1l.022.011Z" transform="translate(13.671 12.065)" fill="#752729"/>
        <path id="Tracciato_3813" data-name="Tracciato 3813" d="M3.515,2.109H3.5L3.31,2.066,3.3,2.045l.022-.011.194.032.022.022Z" transform="translate(13.742 11.795)" fill="#752729"/>
        <path id="Tracciato_3814" data-name="Tracciato 3814" d="M3.478,2.046H3.327l-.022-.022V2.014h.172l.022.011-.022.022" transform="translate(13.805 11.602)" fill="#752729"/>
        <path id="Tracciato_3815" data-name="Tracciato 3815" d="M5.169,3.847h0a2.545,2.545,0,0,1-1.378-.818,2.4,2.4,0,0,1-.517-1l.011-.022.022.011a2.568,2.568,0,0,0,.517.99,2.593,2.593,0,0,0,1.345.807l.022.022Z" transform="translate(13.503 11.532)" fill="#752729"/>
        <path id="Tracciato_3816" data-name="Tracciato 3816" d="M4.751,4.041h0a2,2,0,0,1-.979-.624,2.125,2.125,0,0,1-.5-1.388l.011-.022.022.022A2.123,2.123,0,0,0,3.8,3.4a2.069,2.069,0,0,0,.947.613l.022.022Z" transform="translate(13.502 11.532)" fill="#752729"/>
        <path id="Tracciato_3817" data-name="Tracciato 3817" d="M3.442,3.759H3.432l-.291-.172V3.576L3.5,2.016,3.507,2l.075-.011L3.6,2l-.14,1.743v.011Zm-.269-.183.258.151.14-1.7H3.528Z" transform="translate(12.195 11.405)" fill="#752729"/>
        <path id="Tracciato_3818" data-name="Tracciato 3818" d="M3.165,3.609h0L3.155,3.6,3.391,2h.032L3.176,3.6Z" transform="translate(12.328 11.415)" fill="#752729"/>
        <path id="Tracciato_3819" data-name="Tracciato 3819" d="M3.425,2.24h0l-.269-.1H3.145l.011-.022.28.1v.011Z" transform="translate(12.237 12.653)" fill="#752729"/>
        <path id="Tracciato_3820" data-name="Tracciato 3820" d="M3.388,2.225h0l-.226-.108-.011-.011L3.173,2.1,3.4,2.2v.011Z" transform="translate(12.296 12.404)" fill="#752729"/>
        <path id="Tracciato_3821" data-name="Tracciato 3821" d="M3.361,2.183H3.35L3.156,2.1V2.086l.011-.011.194.086.011.011Z" transform="translate(12.345 12.201)" fill="#752729"/>
        <path id="Tracciato_3822" data-name="Tracciato 3822" d="M3.343,2.089h0l-.172-.011L3.16,2.068l.011-.011.172.011.011.011Z" transform="translate(12.384 12.022)" fill="#752729"/>
        <path id="Tracciato_3823" data-name="Tracciato 3823" d="M3.305,2.095h0l-.129-.032-.011-.011.011-.011.129.032.011.011Z" transform="translate(12.433 11.865)" fill="#752729"/>
        <path id="Tracciato_3824" data-name="Tracciato 3824" d="M3.287,2.073h0L3.18,2.041,3.169,2.02H3.18l.108.032.011.011Z" transform="translate(12.47 11.655)" fill="#752729"/>
        <path id="Tracciato_3825" data-name="Tracciato 3825" d="M3.269,2.026h-.1V2h.1l.011.011Z" transform="translate(12.503 11.506)" fill="#752729"/>
        <path id="Tracciato_3826" data-name="Tracciato 3826" d="M5.086,5.367l-.011-.011L3.138,1.913l.011-.022H3.16L5.1,5.346v.022Z" transform="translate(12.17 10.402)" fill="#752729"/>
        <rect id="Rettangolo_366" data-name="Rettangolo 366" width="4.004" height="0.102" transform="translate(15.712 15.286) rotate(-88.922)" fill="#f88b4b"/>
        <path id="Tracciato_3827" data-name="Tracciato 3827" d="M3.335,5.832H3.185L3.174,5.81l.075-4L3.26,1.8h.075l.022.011V5.821ZM3.206,5.8h.108V1.828H3.282Z" transform="translate(12.517 9.472)" fill="#752729"/>
        <rect id="Rettangolo_367" data-name="Rettangolo 367" width="0.895" height="0.091" transform="matrix(0.973, -0.231, 0.231, 0.973, 15.367, 11.816)" fill="#f88b4b"/>
        <path id="Tracciato_3828" data-name="Tracciato 3828" d="M3.155,2.192h0L3.144,2.17V2.052l.011-.022.861-.2.011.011.011.011V1.9l-.011.011-.861.28Zm.022-.129v.086L4,1.891V1.869Z" transform="translate(12.225 9.765)" fill="#752729"/>
        <path id="Tracciato_3829" data-name="Tracciato 3829" d="M3.14,2.262V2.1l1.195-.237v.043Z" transform="translate(12.188 10.132)" fill="#f88b4b"/>
        <path id="Tracciato_3830" data-name="Tracciato 3830" d="M3.15,2.292h0l-.011-.011V2.12L3.15,2.1l1.195-.237h.022v.065l-.011.011-1.195.355Zm.022-.161V2.26l1.162-.344V1.905Z" transform="translate(12.176 10.116)" fill="#752729"/>
        <path id="Tracciato_3831" data-name="Tracciato 3831" d="M3.16,2.211l-.022-.172,1.1-.054v.054Z" transform="translate(12.169 11.32)" fill="#f88b4b"/>
        <path id="Tracciato_3832" data-name="Tracciato 3832" d="M3.169,2.242V2.232l-.011-.011-.022-.161V2.049l.011-.011,1.1-.054h.011v.065l-.011.011L3.18,2.242Zm0-.172.022.129,1.033-.161V2.016Z" transform="translate(12.156 11.307)" fill="#752729"/>
        <path id="Tracciato_3833" data-name="Tracciato 3833" d="M3.146,2.057,4,1.831a.239.239,0,0,1-.054.194.2.2,0,0,1-.2.054.183.183,0,0,1-.086.14A.2.2,0,0,1,3.426,2.2l-.054.054c-.086.022-.172-.054-.226-.194" transform="translate(12.244 9.814)" fill="#ffd011"/>
        <path id="Tracciato_3834" data-name="Tracciato 3834" d="M3.349,2.282c-.086,0-.161-.086-.2-.215V2.056h.011l.85-.226h.011l.011.011a.248.248,0,0,1-.065.2.2.2,0,0,1-.2.054.183.183,0,0,1-.086.14.212.212,0,0,1-.237-.011l-.065.054H3.349m-.172-.2c.054.118.129.183.183.172L3.425,2.2h.022a.164.164,0,0,0,.28-.118l.011-.011h.011a.2.2,0,0,0,.194-.043A.221.221,0,0,0,4,1.862Z" transform="translate(12.234 9.804)" fill="#752729"/>
        <path id="Tracciato_3835" data-name="Tracciato 3835" d="M3.258,2.157l1.205-.291a.936.936,0,0,0-.226.42,1.556,1.556,0,0,0,.075.872c-.011-.011-.248-.387-.56-.344A.574.574,0,0,0,3.3,3.2a.983.983,0,0,1-.043-1.044" transform="translate(12.068 10.156)" fill="#ffd011"/>
        <path id="Tracciato_3836" data-name="Tracciato 3836" d="M3.32,3.231H3.309a1,1,0,0,1-.183-.549,1.023,1.023,0,0,1,.14-.517l.011-.011,1.195-.291h.022V1.9a1.058,1.058,0,0,0-.226.4,1.542,1.542,0,0,0,.075.872v.022H4.321L4.31,3.177c-.172-.237-.355-.366-.538-.334a.585.585,0,0,0-.441.377ZM3.287,2.187a.975.975,0,0,0-.129.5,1.127,1.127,0,0,0,.151.506.631.631,0,0,1,.463-.377.59.59,0,0,1,.506.269,1.585,1.585,0,0,1-.043-.8,1.177,1.177,0,0,1,.2-.377Z" transform="translate(12.049 10.136)" fill="#752729"/>
        <path id="Tracciato_3837" data-name="Tracciato 3837" d="M3.14,2.107c.355-.043.71-.075,1.076-.118a.37.37,0,0,1-.151.183A.283.283,0,0,1,3.8,2.14a.2.2,0,0,1-.108.183.182.182,0,0,1-.226-.086l-.022.043c-.065.043-.183-.032-.3-.172" transform="translate(12.186 11.356)" fill="#ffd011"/>
        <path id="Tracciato_3838" data-name="Tracciato 3838" d="M3.644,2.364a.194.194,0,0,1-.161-.075l-.011.022c-.075.043-.194-.032-.323-.172l-.011-.022.022-.011,1.065-.118h.011l.011.022A.343.343,0,0,1,4.1,2.2l-.118.022a.279.279,0,0,1-.151-.043.184.184,0,0,1-.118.172l-.065.011m-.161-.129h.011a.162.162,0,0,0,.151.1L3.7,2.321a.145.145,0,0,0,.1-.161l.011-.011.011-.011a.315.315,0,0,0,.161.054l.1-.022A.271.271,0,0,0,4.2,2.019l-1.012.118a.386.386,0,0,0,.226.151h.022l.022-.043Z" transform="translate(12.166 11.337)" fill="#752729"/>
        <path id="Tracciato_3839" data-name="Tracciato 3839" d="M3.681,1.8l-.549.248.549.118Z" transform="translate(12.106 9.486)" fill="#ff0008"/>
        <path id="Tracciato_3840" data-name="Tracciato 3840" d="M3.691,2.183H3.68l-.538-.108-.011-.011.011-.022L3.68,1.8H3.7v.387Zm-.5-.129.474.1V1.839Z" transform="translate(12.098 9.472)" fill="#752729"/>
        <path id="Tracciato_3841" data-name="Tracciato 3841" d="M5.1,4.247H5.088a7.318,7.318,0,0,1-1.5-1.356A2.18,2.18,0,0,1,3.14,2.02L3.151,2l.022.011a2.138,2.138,0,0,0,.452.861A7.36,7.36,0,0,0,5.1,4.215l.022.022Z" transform="translate(12.186 11.444)" fill="#752729"/>
        <path id="Tracciato_3842" data-name="Tracciato 3842" d="M4.433,4.13h0c-.129-.032-.366-.323-.613-.635-.086-.086-.172-.194-.248-.28a1.786,1.786,0,0,1-.43-1.205V2h.011l.022.011a1.772,1.772,0,0,0,.42,1.184,3.2,3.2,0,0,1,.248.291c.237.28.484.581.6.613l.011.022Z" transform="translate(12.184 11.454)" fill="#752729"/>
        <path id="Tracciato_3843" data-name="Tracciato 3843" d="M4.909,4.558,4.9,4.547,3.424,1.91l.011-.022.022.011L4.92,4.536v.022Z" transform="translate(14.959 10.378)" fill="#752729"/>
        <path id="Tracciato_3844" data-name="Tracciato 3844" d="M3.878,3.961H3.867l-.452-.183L3.4,3.756l.56-1.743L3.974,2l.118-.011H4.1V2L3.888,3.95v.011Zm-.441-.2.43.172.2-1.9L4,2.034Z" transform="translate(14.763 11.376)" fill="#752729"/>
        <path id="Tracciato_3845" data-name="Tracciato 3845" d="M3.446,3.81h0l-.022-.022.387-1.776.011-.022.011.032L3.457,3.8Z" transform="translate(14.962 11.377)" fill="#752729"/>
        <path id="Tracciato_3846" data-name="Tracciato 3846" d="M3.851,2.274h0l-.43-.108L3.41,2.144l.022-.011.42.108.022.011-.022.022" transform="translate(14.822 12.769)" fill="#752729"/>
        <path id="Tracciato_3847" data-name="Tracciato 3847" d="M3.8,2.256H3.785L3.43,2.137l-.011-.011L3.441,2.1l.366.118.011.011Z" transform="translate(14.91 12.488)" fill="#752729"/>
        <path id="Tracciato_3848" data-name="Tracciato 3848" d="M3.75,2.211h0l-.312-.1-.011-.022.022-.011.312.1.011.022Z" transform="translate(14.987 12.26)" fill="#752729"/>
        <path id="Tracciato_3849" data-name="Tracciato 3849" d="M3.724,2.1h0l-.269-.011-.022-.011.022-.022.269.011.011.022Z" transform="translate(15.048 12.063)" fill="#752729"/>
        <path id="Tracciato_3850" data-name="Tracciato 3850" d="M3.657,2.108h0l-.2-.032-.011-.022.011-.011.2.032.011.022Z" transform="translate(15.134 11.89)" fill="#752729"/>
        <path id="Tracciato_3851" data-name="Tracciato 3851" d="M3.631,2.084h0l-.172-.032-.011-.011.011-.022.172.032.022.011-.022.022" transform="translate(15.188 11.657)" fill="#752729"/>
        <path id="Tracciato_3852" data-name="Tracciato 3852" d="M3.6,2.035H3.474l-.022-.011L3.464,2H3.6l.022.022Z" transform="translate(15.239 11.486)" fill="#752729"/>
        <rect id="Rettangolo_368" data-name="Rettangolo 368" width="4.004" height="0.113" transform="translate(18.787 15.26) rotate(-88.922)" fill="#f88b4b"/>
        <path id="Tracciato_3853" data-name="Tracciato 3853" d="M3.621,5.83H3.471L3.46,5.819,3.535,1.8l.022-.011h.086V5.808l-.022.022M3.492,5.8h.118V1.826H3.568Z" transform="translate(15.31 9.453)" fill="#752729"/>
        <rect id="Rettangolo_369" data-name="Rettangolo 369" width="0.895" height="0.091" transform="matrix(0.973, -0.231, 0.231, 0.973, 18.446, 11.79)" fill="#f88b4b"/>
        <path id="Tracciato_3854" data-name="Tracciato 3854" d="M3.452,2.19H3.441L3.43,2.168V2.05l.011-.022.861-.2.011.011h.011V1.9l-.011.011Zm.011-.14v.1l.829-.269V1.856Z" transform="translate(15.017 9.746)" fill="#752729"/>
        <path id="Tracciato_3855" data-name="Tracciato 3855" d="M3.426,2.259V2.1l1.195-.237V1.9Z" transform="translate(14.981 10.106)" fill="#f88b4b"/>
        <path id="Tracciato_3856" data-name="Tracciato 3856" d="M3.447,2.289H3.436l-.011-.011V2.117L3.436,2.1,4.63,1.859h.011l.011.022v.043l-.011.011Zm.011-.161v.129L4.62,1.913V1.9Z" transform="translate(14.968 10.087)" fill="#752729"/>
        <path id="Tracciato_3857" data-name="Tracciato 3857" d="M3.446,2.209l-.022-.172,1.087-.054v.054Z" transform="translate(14.962 11.297)" fill="#f88b4b"/>
        <path id="Tracciato_3858" data-name="Tracciato 3858" d="M3.466,2.23H3.445l-.022-.172V2.047l.011-.011,1.1-.054h.011l.011.011v.054l-.011.011Zm-.011-.161.022.129L4.51,2.036V2.014Z" transform="translate(14.948 11.288)" fill="#752729"/>
        <path id="Tracciato_3859" data-name="Tracciato 3859" d="M3.432,2.054l.85-.226a.244.244,0,0,1-.054.194.2.2,0,0,1-.2.054.221.221,0,0,1-.086.14.2.2,0,0,1-.226-.022l-.054.054c-.086.022-.183-.054-.226-.194" transform="translate(15.036 9.785)" fill="#ffd011"/>
        <path id="Tracciato_3860" data-name="Tracciato 3860" d="M3.635,2.279c-.075,0-.161-.086-.2-.215V2.053l.011-.011.85-.215H4.3l.011.011a.242.242,0,0,1-.065.2.2.2,0,0,1-.2.054.25.25,0,0,1-.086.14.233.233,0,0,1-.237,0l-.065.043Zm-.172-.2c.043.129.129.183.183.172L3.711,2.2V2.193h.022a.164.164,0,0,0,.28-.118l.011-.011h.011a.187.187,0,0,0,.194-.054.2.2,0,0,0,.054-.151Z" transform="translate(15.026 9.775)" fill="#752729"/>
        <path id="Tracciato_3861" data-name="Tracciato 3861" d="M3.543,2.154l1.205-.291a1.139,1.139,0,0,0-.226.42,1.464,1.464,0,0,0,.075.872c-.022-.011-.248-.387-.56-.334a.574.574,0,0,0-.452.387.94.94,0,0,1-.172-.538,1.094,1.094,0,0,1,.129-.517" transform="translate(14.86 10.126)" fill="#ffd011"/>
        <path id="Tracciato_3862" data-name="Tracciato 3862" d="M3.606,3.229l-.022-.011a1.168,1.168,0,0,1-.172-.538,1.034,1.034,0,0,1,.14-.527l.011-.011,1.205-.28h.011v.022a1.022,1.022,0,0,0-.226.409,1.516,1.516,0,0,0,.075.861v.022H4.607L4.6,3.164c-.172-.237-.355-.355-.538-.334a.585.585,0,0,0-.441.377ZM3.573,2.174a.987.987,0,0,0-.129.506,1.122,1.122,0,0,0,.151.5.617.617,0,0,1,.463-.366.553.553,0,0,1,.506.258,1.551,1.551,0,0,1-.043-.786.988.988,0,0,1,.2-.377Z" transform="translate(14.841 10.116)" fill="#752729"/>
        <path id="Tracciato_3863" data-name="Tracciato 3863" d="M3.426,2.1c.355-.043.71-.086,1.076-.118a.314.314,0,0,1-.151.183.263.263,0,0,1-.269-.032.172.172,0,0,1-.108.183.182.182,0,0,1-.226-.086l-.022.043c-.065.043-.183-.032-.3-.172" transform="translate(14.978 11.327)" fill="#ffd011"/>
        <path id="Tracciato_3864" data-name="Tracciato 3864" d="M3.93,2.362a.229.229,0,0,1-.161-.075l-.022.022c-.065.043-.183-.032-.312-.183l-.011-.011L3.446,2.1l1.065-.118h.022v.022a.319.319,0,0,1-.161.183l-.108.032a.279.279,0,0,1-.151-.043.213.213,0,0,1-.108.172l-.075.011m-.161-.129.011.011a.172.172,0,0,0,.151.086h.043a.185.185,0,0,0,.108-.172V2.146H4.1a.366.366,0,0,0,.161.043l.1-.022a.233.233,0,0,0,.129-.151l-1.012.118a.386.386,0,0,0,.226.151h.022l.022-.043.011-.011Z" transform="translate(14.958 11.317)" fill="#752729"/>
        <path id="Tracciato_3865" data-name="Tracciato 3865" d="M3.957,1.795l-.538.248.538.108Z" transform="translate(14.905 9.462)" fill="#ff0008"/>
        <path id="Tracciato_3866" data-name="Tracciato 3866" d="M3.966,2.191h0l-.538-.108-.011-.011V2.051L3.966,1.8l.011-.011.011.022V2.17l-.011.022Zm-.484-.129.474.1V1.836Z" transform="translate(14.89 9.443)" fill="#752729"/>
        <path id="Tracciato_3867" data-name="Tracciato 3867" d="M3.7,3.89H3.688V3.879L3.473,2.007V1.985h.011L3.6,2l.011.011L4.162,3.7v.011ZM3.505,2.017l.2,1.84.42-.172L3.591,2.028Z" transform="translate(15.436 11.317)" fill="#752729"/>
        <path id="Tracciato_3868" data-name="Tracciato 3868" d="M3.857,3.74l-.011-.011L3.48,2V1.986L3.5,2l.366,1.722Z" transform="translate(15.506 11.324)" fill="#752729"/>
        <path id="Tracciato_3869" data-name="Tracciato 3869" d="M3.5,2.252,3.49,2.242V2.22l.42-.1h.011l-.011.032Z" transform="translate(15.603 12.666)" fill="#752729"/>
        <path id="Tracciato_3870" data-name="Tracciato 3870" d="M3.5,2.245l-.011-.011L3.5,2.213l.344-.118.011.011-.011.022-.334.118Z" transform="translate(15.574 12.388)" fill="#752729"/>
        <path id="Tracciato_3871" data-name="Tracciato 3871" d="M3.5,2.191l-.011-.011L3.5,2.159l.291-.086.022.011L3.8,2.095Z" transform="translate(15.547 12.177)" fill="#752729"/>
        <path id="Tracciato_3872" data-name="Tracciato 3872" d="M3.492,2.1l-.011-.011V2.064l.269-.011.022.011-.022.022Z" transform="translate(15.517 11.981)" fill="#752729"/>
        <path id="Tracciato_3873" data-name="Tracciato 3873" d="M3.49,2.1,3.48,2.09V2.068l.2-.032.022.011-.011.022Z" transform="translate(15.502 11.812)" fill="#752729"/>
        <path id="Tracciato_3874" data-name="Tracciato 3874" d="M3.488,2.077l-.011-.011V2.044l.172-.032h.022l-.011.032Z" transform="translate(15.474 11.583)" fill="#752729"/>
        <path id="Tracciato_3875" data-name="Tracciato 3875" d="M3.625,2.028H3.5l-.022-.011L3.485,2h.14l.011.011Z" transform="translate(15.446 11.422)" fill="#752729"/>
        <path id="Tracciato_3876" data-name="Tracciato 3876" d="M4.8,3.492H4.783a1.494,1.494,0,0,1-.915-.6,2.033,2.033,0,0,1-.441-.872L3.438,2l.022.011a2.1,2.1,0,0,0,.43.861,1.458,1.458,0,0,0,.893.592H4.8l.011.022Z" transform="translate(14.987 11.425)" fill="#752729"/>
        <path id="Tracciato_3877" data-name="Tracciato 3877" d="M4.707,3.761h0a1.67,1.67,0,0,1-.839-.538,1.828,1.828,0,0,1-.441-1.205L3.448,2l.011.022A1.8,1.8,0,0,0,3.889,3.2a1.716,1.716,0,0,0,.818.527l.022.011Z" transform="translate(14.978 11.425)" fill="#752729"/>
        <path id="Tracciato_3878" data-name="Tracciato 3878" d="M3.456,4.44h0l-.011-.022L3.187,2.008V2l.022-.011.129.022.022.011.656,2.174L4,4.214l-.538.226ZM3.23,2.029,3.478,4.4l.5-.2L3.327,2.04Z" transform="translate(12.644 11.327)" fill="#752729"/>
        <path id="Tracciato_3879" data-name="Tracciato 3879" d="M3.647,4.248l-.022-.011-.43-2.228.011-.022L3.227,2l.441,2.228Z" transform="translate(12.722 11.344)" fill="#752729"/>
        <path id="Tracciato_3880" data-name="Tracciato 3880" d="M3.228,2.337l-.022-.011L3.228,2.3l.484-.14.022.022-.011.022Z" transform="translate(12.835 13.071)" fill="#752729"/>
        <path id="Tracciato_3881" data-name="Tracciato 3881" d="M3.224,2.322,3.2,2.311l.011-.022.42-.161.022.022-.011.022-.409.151Z" transform="translate(12.799 12.716)" fill="#752729"/>
        <path id="Tracciato_3882" data-name="Tracciato 3882" d="M3.221,2.251,3.2,2.241l.011-.032L3.566,2.1H3.6l-.022.032-.344.118Z" transform="translate(12.767 12.447)" fill="#752729"/>
        <path id="Tracciato_3883" data-name="Tracciato 3883" d="M3.218,2.128,3.2,2.118l.022-.032.312-.011.022.011-.022.022Z" transform="translate(12.732 12.191)" fill="#752729"/>
        <path id="Tracciato_3884" data-name="Tracciato 3884" d="M3.215,2.138l-.022-.022L3.215,2.1l.237-.043.022.022L3.463,2.1Z" transform="translate(12.711 11.971)" fill="#752729"/>
        <path id="Tracciato_3885" data-name="Tracciato 3885" d="M3.212,2.108,3.191,2.1l.022-.032.194-.043.022.022-.011.022Z" transform="translate(12.681 11.676)" fill="#752729"/>
        <path id="Tracciato_3886" data-name="Tracciato 3886" d="M3.361,2.043H3.21l-.022-.022L3.2,2h.161l.022.011-.022.032" transform="translate(12.66 11.467)" fill="#752729"/>
        <path id="Tracciato_3887" data-name="Tracciato 3887" d="M3.658,4.708H3.647l-.678-.786V3.9h.022l.678.775h.194l.678-.161L3.68,3.557H3.6l-.624.118-.022-.011.011-.022,1.991-1.8h.022l.011.022L3.023,3.632,3.6,3.525H3.69l.011.011.883.969v.022l-.011.011-.71.172Z" transform="translate(10.414 9.957)" fill="#752729"/>
        <path id="Tracciato_3888" data-name="Tracciato 3888" d="M3.867,2.538l-.011-.011-.291-.377-.377-.323V1.807L3.21,1.8l.377.334.291.387v.022Z" transform="translate(12.659 9.47)" fill="#752729"/>
        <path id="Tracciato_3889" data-name="Tracciato 3889" d="M4.364,2.968l-.011-.011-.581-.8L3.33,1.8V1.774h.022l.441.366.581.807v.011l-.011.011" transform="translate(14.044 9.253)" fill="#752729"/>
        <path id="Tracciato_3890" data-name="Tracciato 3890" d="M5.249,4.505H5.238L4.151,2.536l-.28-.387-.387-.323L3.473,1.8l.022-.011.4.334.28.387L5.26,4.484l.011.011Z" transform="translate(15.437 9.444)" fill="#752729"/>
        <path id="Tracciato_3891" data-name="Tracciato 3891" d="M3.545,3.2h0l-.022-.022L3.653,1.87l.022-.011.011.011L3.556,3.194Z" transform="translate(15.931 10.093)" fill="#752729"/>
        <path id="Tracciato_3892" data-name="Tracciato 3892" d="M3.589,2.53h-.1V2.4l1.883-.366-.054.194-.2.022c-.506.1-1.022.183-1.528.28" transform="translate(15.622 11.805)" fill="#f88b4b"/>
        <path id="Tracciato_3893" data-name="Tracciato 3893" d="M5.079,2.055a.392.392,0,0,0-.237.258.375.375,0,0,0,.183.387L4.8,2.69V2.184l-.172.022v.474H4.455V2.238l-.172.032-.011.4h-.14V2.313l-.2.022v.323l-.118-.011V2.378l-.172.032v.226H3.5l.043-.3c.517-.1,1.022-.183,1.539-.28" transform="translate(15.671 12.001)" fill="#f88b4b"/>
        <path id="Tracciato_3894" data-name="Tracciato 3894" d="M3.823,2.067v.517L3.6,2.562h.065V2.089Z" transform="translate(16.647 12.118)" fill="#f88b4b"/>
        <path id="Tracciato_3895" data-name="Tracciato 3895" d="M3.763,2.072v.441H3.569l.022-.4Z" transform="translate(16.374 12.167)" fill="#f88b4b"/>
        <path id="Tracciato_3896" data-name="Tracciato 3896" d="M3.742,2.078v.366l-.2-.022V2.11Z" transform="translate(16.071 12.225)" fill="#f88b4b"/>
        <path id="Tracciato_3897" data-name="Tracciato 3897" d="M3.682,2.085v.269L3.51,2.343V2.107Z" transform="translate(15.798 12.293)" fill="#f88b4b"/>
        <path id="Tracciato_3898" data-name="Tracciato 3898" d="M4.6,2.152c.215.011.42.022.635.022l-.011.108c-.269,0-.527.011-.8.011V2.281H4.279L4,2.27c-.118-.011-.248-.011-.366-.011H3.623l-.14-.011v-.14l.592.022.2.011.323.011" transform="translate(15.534 12.528)" fill="#f88b4b"/>
        <path id="Tracciato_3899" data-name="Tracciato 3899" d="M3.274,2.222a2.266,2.266,0,0,0,.9,1.27,2.409,2.409,0,0,0,2.109.183,2.51,2.51,0,0,0,1.4-1.539V2.125h.151v.011a3.3,3.3,0,0,1-.334.7A2.737,2.737,0,0,1,5.846,3.987a2.476,2.476,0,0,1-2.239-.646,2.141,2.141,0,0,1-.474-1.162l.14.032Z" transform="translate(12.127 12.684)" fill="#f88b4b"/>
        <path id="Tracciato_3900" data-name="Tracciato 3900" d="M4.051,3.5a2.266,2.266,0,0,1-.9-1.27V2.221l.14.022v.022a2.065,2.065,0,0,0,.646.893,2.225,2.225,0,0,0,1.97.3A2.271,2.271,0,0,0,7.28,2.124l.28.011v.022A2.507,2.507,0,0,1,6.171,3.685,2.394,2.394,0,0,1,4.051,3.5" transform="translate(12.254 12.674)" fill="#f88b4b"/>
        <path id="Tracciato_3901" data-name="Tracciato 3901" d="M4.416,3.278a.129.129,0,0,0,.118.129.131.131,0,0,0,.129-.129.122.122,0,0,0-.129-.118.119.119,0,0,0-.118.118m3.035-.291a.129.129,0,0,0-.129-.118.119.119,0,0,0-.118.118.122.122,0,0,0,.118.129.131.131,0,0,0,.129-.129M3.824,2.643l-.14-.022-.14-.032-.452-.108c0-.14,0-.269.011-.4.344.108.7.215,1.055.323a1.414,1.414,0,0,0,.42.56,1.7,1.7,0,0,0,1.173.366,2.441,2.441,0,0,0,1.69-.818c.129,0,.248,0,.366.011A2.3,2.3,0,0,1,6.439,3.859a2.283,2.283,0,0,1-1.97-.312,2.007,2.007,0,0,1-.646-.893ZM6.9,3.364a.118.118,0,1,0-.118.118A.119.119,0,0,0,6.9,3.364m-.732.291a.118.118,0,1,0-.118.118.119.119,0,0,0,.118-.118m-.839-.086a.119.119,0,0,0-.118-.118.113.113,0,0,0-.118.118.108.108,0,0,0,.118.118.113.113,0,0,0,.118-.118" transform="translate(11.717 12.274)" fill="#f88b4b"/>
        <path id="Tracciato_3902" data-name="Tracciato 3902" d="M3.712,2.275a.119.119,0,0,1-.118.118.118.118,0,1,1,0-.237.119.119,0,0,1,.118.118" transform="translate(15.456 12.996)"/>
        <path id="Tracciato_3903" data-name="Tracciato 3903" d="M3.542,2.191a.119.119,0,0,1,.118.118.118.118,0,1,1-.237,0,.119.119,0,0,1,.118-.118" transform="translate(14.958 13.328)"/>
        <path id="Tracciato_3904" data-name="Tracciato 3904" d="M3.474,2.218a.119.119,0,0,1,.118.118.118.118,0,0,1-.237,0,.119.119,0,0,1,.118-.118" transform="translate(14.294 13.592)"/>
        <path id="Tracciato_3905" data-name="Tracciato 3905" d="M3.4,2.21a.119.119,0,0,1,.118.118.118.118,0,1,1-.237,0A.119.119,0,0,1,3.4,2.21" transform="translate(13.533 13.514)"/>
        <path id="Tracciato_3906" data-name="Tracciato 3906" d="M3.334,2.183a.119.119,0,0,1,.118.118.119.119,0,1,1-.237,0,.119.119,0,0,1,.118-.118" transform="translate(12.927 13.25)"/>
        <path id="Tracciato_3907" data-name="Tracciato 3907" d="M5.728,4.471a2.231,2.231,0,0,1-1.711-.7A2.2,2.2,0,0,1,3.532,2.62L3.1,2.512,3.091,2.5V2.1L3.1,2.093l.022-.011L4.178,2.4l.011.011a1.5,1.5,0,0,0,.409.549A1.688,1.688,0,0,0,5.76,3.33a2.376,2.376,0,0,0,1.679-.818h.022l.8.022.022.011v.011a3.075,3.075,0,0,1-.334.71A2.722,2.722,0,0,1,6.277,4.428a3.107,3.107,0,0,1-.549.043M3.123,2.48l.43.108.022.011A2.089,2.089,0,0,0,4.049,3.75a2.407,2.407,0,0,0,2.217.635A2.649,2.649,0,0,0,7.913,3.244a2.462,2.462,0,0,0,.323-.678l-.775-.022a2.413,2.413,0,0,1-1.69.818A1.748,1.748,0,0,1,4.576,3a1.536,1.536,0,0,1-.42-.56L3.134,2.125Z" transform="translate(11.707 12.264)" fill="#752729"/>
        <path id="Tracciato_3908" data-name="Tracciato 3908" d="M3.928,2.763H3.918a1.769,1.769,0,0,1-.28-.355l-.075-.161-.129-.022L3.315,2.2H3.293l-.151-.032L3.132,2.16l.011-.032L3.3,2.16l.011.011.118.022.14.022.011.011.086.161a1.653,1.653,0,0,0,.269.344v.032Z" transform="translate(12.107 12.713)" fill="#752729"/>
        <path id="Tracciato_3909" data-name="Tracciato 3909" d="M5.074,3.6a1.983,1.983,0,0,1-1.259-.42,1.992,1.992,0,0,1-.657-.893l.011-.022.022.011a2.018,2.018,0,0,0,.646.883,2.216,2.216,0,0,0,1.948.3A2.323,2.323,0,0,0,7.151,2.144l.022-.022.011.022A2.343,2.343,0,0,1,5.795,3.489a2.314,2.314,0,0,1-.721.108" transform="translate(12.361 12.655)" fill="#752729"/>
        <path id="Tracciato_3910" data-name="Tracciato 3910" d="M5.255,3.868A2.176,2.176,0,0,1,4.05,3.513a2.291,2.291,0,0,1-.9-1.281V2.211h.032a2.232,2.232,0,0,0,.893,1.27,2.348,2.348,0,0,0,2.1.172A2.49,2.49,0,0,0,7.559,2.136l.011-.011.022.011A2.489,2.489,0,0,1,6.181,3.7a2.573,2.573,0,0,1-.926.172" transform="translate(12.244 12.684)" fill="#752729"/>
        <path id="Tracciato_3911" data-name="Tracciato 3911" d="M3.354,2.461a.14.14,0,1,1,.14-.14.142.142,0,0,1-.14.14m0-.237a.1.1,0,0,0-.1.1.1.1,0,1,0,.194,0,.1.1,0,0,0-.1-.1" transform="translate(12.908 13.231)" fill="#752729"/>
        <path id="Tracciato_3912" data-name="Tracciato 3912" d="M3.416,2.478a.136.136,0,0,1-.14-.14.14.14,0,0,1,.28,0,.136.136,0,0,1-.14.14m0-.237a.106.106,0,0,0-.108.1.108.108,0,0,0,.215,0,.106.106,0,0,0-.108-.1" transform="translate(13.513 13.504)" fill="#752729"/>
        <path id="Tracciato_3913" data-name="Tracciato 3913" d="M3.494,2.5a.14.14,0,1,1,.14-.14.142.142,0,0,1-.14.14m0-.237a.1.1,0,0,0-.1.1.1.1,0,0,0,.1.108A.108.108,0,0,0,3.6,2.356a.106.106,0,0,0-.108-.1" transform="translate(14.275 13.572)" fill="#752729"/>
        <path id="Tracciato_3914" data-name="Tracciato 3914" d="M3.562,2.459a.133.133,0,0,1-.14-.129.14.14,0,1,1,.28,0,.133.133,0,0,1-.14.129m0-.248a.11.11,0,0,0-.1.118.1.1,0,0,0,.1.1.1.1,0,0,0,.108-.1.111.111,0,0,0-.108-.118" transform="translate(14.939 13.319)" fill="#752729"/>
        <path id="Tracciato_3915" data-name="Tracciato 3915" d="M3.612,2.434a.133.133,0,0,1-.14-.129.14.14,0,1,1,.28,0,.133.133,0,0,1-.14.129m0-.237A.108.108,0,0,0,3.5,2.3a.106.106,0,0,0,.108.1.1.1,0,0,0,.1-.1.1.1,0,0,0-.1-.108" transform="translate(15.427 12.967)" fill="#752729"/>
        <path id="Tracciato_3916" data-name="Tracciato 3916" d="M4.45,2.323l-.022-.011.011-.022c.269,0,.517-.011.764-.011h.022l.011-.065-.613-.032c-.108,0-.215,0-.323-.011L3.513,2.14l.011.108.118.011.022.011-.022.022H3.5l-.022-.022V2.119l.011-.011L4.3,2.14l.323.011.635.022h.011v.022L5.257,2.3l-.011.022h-.8" transform="translate(15.515 12.518)" fill="#752729"/>
        <path id="Tracciato_3917" data-name="Tracciato 3917" d="M5.045,2.742h0L4.582,2.72H4.474L4.281,2.71,4.152,2.7H4.022l-.194-.011-.172-.011h-.14l-.011-.011-.011-.011.043-.28V2.354l.022-.022,1.528-.28.022.011v.022a.363.363,0,0,0-.226.248.369.369,0,0,0,.172.377l.011.011-.022.022M3.538,2.634l.118.011h.172l.194.011.129.011h.14l.183.011.108.011.4.011a.389.389,0,0,1-.129-.377.4.4,0,0,1,.14-.215L3.57,2.365v.022l-.032.248" transform="translate(15.651 11.981)" fill="#752729"/>
        <path id="Tracciato_3918" data-name="Tracciato 3918" d="M4.682,2.6l-.022-.022V2.108l-.129.022V2.6H4.348l-.022-.022v-.42l-.14.022-.011.387-.022.022H4.026l-.011-.011L4,2.571V2.227l-.161.032v.3l-.011.022H3.821l-.129-.011-.011-.022V2.3l-.14.022v.215L3.52,2.56l-.011-.011V2.291l.183-.032.022.011v.258l.086.011v-.3l.022-.022.2-.022h.011l.011.011v.344h.086l.022-.377.011-.022.183-.032h.011l.011.011v.441H4.5V2.108l.011-.022.172-.022.011.011H4.7v.506L4.682,2.6" transform="translate(15.788 12.099)" fill="#752729"/>
        <path id="Tracciato_3919" data-name="Tracciato 3919" d="M3.609,2.561h-.1L3.49,2.539V2.41L3.5,2.389,5.4,2.034h.011l.011.022-.054.194-.022.011-.194.022L5.126,2.27l.011-.022.194-.022.043-.151-1.84.344v.108h.075l.022.011Z" transform="translate(15.604 11.791)" fill="#752729"/>
        <path id="Tracciato_3920" data-name="Tracciato 3920" d="M4.391,2.757,2.96,2.015v.248l1.421.6Z" transform="translate(10.424 11.605)" fill="#f88b4b"/>
        <path id="Tracciato_3921" data-name="Tracciato 3921" d="M4.39,2.905H4.38L2.97,2.3H2.959V2.012h.022l1.431.753h.011l-.011.14H4.39Zm-1.4-.635,1.378.592L4.38,2.8,2.991,2.055Z" transform="translate(10.419 11.581)" fill="#752729"/>
        <path id="Tracciato_3922" data-name="Tracciato 3922" d="M3.018,2l.054,1.152h.2L3.1,2Z" transform="translate(10.997 11.498)" fill="#f88b4b"/>
        <path id="Tracciato_3923" data-name="Tracciato 3923" d="M3.3,3.186h-.2L3.07,3.175,3.016,2.024V2.013L3.038,2h.086l.022.022.172,1.141v.022Zm-.183-.032h.161L3.113,2.034H3.059Z" transform="translate(10.975 11.483)" fill="#752729"/>
        <path id="Tracciato_3924" data-name="Tracciato 3924" d="M3.536,2.234,3.492,2.2a.6.6,0,0,0-.28-.129l-.108.032a.1.1,0,0,0-.032.129.243.243,0,0,0,.086.118l.065.054-.032.1-.043.1a.131.131,0,0,0,.065.129.213.213,0,0,0,.14.065.123.123,0,0,0,.14-.065c.043-.065,0-.151.011-.226l.043-.14c.011-.043.022-.1-.011-.129" transform="translate(11.424 12.176)" fill="#b7b7bb"/>
        <path id="Tracciato_3925" data-name="Tracciato 3925" d="M3.392,2.829H3.37a.277.277,0,0,1-.161-.075.174.174,0,0,1-.065-.14l.043-.086L3.2,2.506l.022-.075-.043-.043-.011-.011a.25.25,0,0,1-.1-.118A.144.144,0,0,1,3.112,2.1a.133.133,0,0,1,.118-.022.577.577,0,0,1,.291.118l.043.043a.16.16,0,0,1,.022.151l-.011.032-.032.1V2.6a.242.242,0,0,1-.011.151.168.168,0,0,1-.14.075m-.183-.721-.054.011a.114.114,0,0,0-.054.129l.086.108H3.2l.054.054a.126.126,0,0,1-.022.118l-.011.022-.043.065a.143.143,0,0,0,.065.108A.258.258,0,0,0,3.37,2.8.141.141,0,0,0,3.5,2.732L3.51,2.6l-.011-.1.032-.086.011-.043a.15.15,0,0,0,0-.118L3.5,2.227a.6.6,0,0,0-.28-.118Z" transform="translate(11.407 12.163)" fill="#752729"/>
        <path id="Tracciato_3926" data-name="Tracciato 3926" d="M3.494,2a.1.1,0,0,1-.086.1.1.1,0,0,1-.1-.1.088.088,0,0,1,.1-.086A.085.085,0,0,1,3.494,2" transform="translate(13.855 10.595)" fill="#ff0008"/>
        <path id="Tracciato_3927" data-name="Tracciato 3927" d="M3.417,2.124a.1.1,0,0,1-.108-.108.108.108,0,0,1,.215,0,.1.1,0,0,1-.108.108m0-.183a.075.075,0,1,0,.075.075.074.074,0,0,0-.075-.075" transform="translate(13.835 10.575)" fill="#752729"/>
        <path id="Tracciato_3928" data-name="Tracciato 3928" d="M3.486,2.018a.1.1,0,0,1-.1.1.1.1,0,1,1,0-.194.1.1,0,0,1,.1.1" transform="translate(13.572 10.692)" fill="#ff0008"/>
        <path id="Tracciato_3929" data-name="Tracciato 3929" d="M3.409,2.157a.129.129,0,0,1-.129-.118.129.129,0,0,1,.129-.118.118.118,0,1,1,0,.237m0-.2a.087.087,0,1,0,0,.172.087.087,0,0,0,0-.172" transform="translate(13.552 10.683)" fill="#752729"/>
        <path id="Tracciato_3930" data-name="Tracciato 3930" d="M3.527,1.991a.1.1,0,0,1-.086.1.1.1,0,0,1-.1-.1.1.1,0,0,1,.1-.086.093.093,0,0,1,.086.086" transform="translate(14.177 10.536)" fill="#ff0008"/>
        <path id="Tracciato_3931" data-name="Tracciato 3931" d="M3.45,2.119a.116.116,0,0,1-.108-.108A.108.108,0,0,1,3.45,1.9a.1.1,0,0,1,.108.108.108.108,0,0,1-.108.108m0-.183a.075.075,0,1,0,.075.075.074.074,0,0,0-.075-.075" transform="translate(14.158 10.526)" fill="#752729"/>
        <path id="Tracciato_3932" data-name="Tracciato 3932" d="M3.446,2l-.065.065L3.317,2l.065-.065L3.446,2" transform="translate(13.916 10.839)" fill="#ff0008"/>
        <path id="Tracciato_3933" data-name="Tracciato 3933" d="M3.391,2.1a.083.083,0,0,1-.075-.086.075.075,0,1,1,.151,0,.083.083,0,0,1-.075.086m0-.129-.043.043.043.054.043-.054-.043-.043" transform="translate(13.904 10.829)" fill="#752729"/>
        <path id="Tracciato_3934" data-name="Tracciato 3934" d="M3.486,1.971a.085.085,0,0,1-.086.086.086.086,0,0,1,0-.172.085.085,0,0,1,.086.086" transform="translate(13.884 10.341)" fill="#ff0008"/>
        <path id="Tracciato_3935" data-name="Tracciato 3935" d="M3.42,2.087a.106.106,0,0,1-.108-.1.108.108,0,1,1,.215,0,.106.106,0,0,1-.108.1m0-.172a.081.081,0,0,0-.075.075l.075.065a.072.072,0,0,0,.075-.065.074.074,0,0,0-.075-.075" transform="translate(13.865 10.321)" fill="#752729"/>
      </g>
    </g>
  </g>
</svg>
