<svg xmlns="http://www.w3.org/2000/svg" xmlns:xlink="http://www.w3.org/1999/xlink" width="24" height="24" viewBox="0 0 24 24">
  <defs>
    <clipPath id="clip-path">
      <path id="Tracciato_4559" data-name="Tracciato 4559" d="M1.574,12.749a12,12,0,1,0,12-12,12,12,0,0,0-12,12" transform="translate(-1.574 -0.749)" fill="none"/>
    </clipPath>
  </defs>
  <g id="Isole_Vergini_Britanniche" data-name="Isole Vergini Britanniche" transform="translate(-1.574 -0.749)">
    <g id="Raggruppa_173" data-name="Raggruppa 173" transform="translate(1.574 0.749)" clip-path="url(#clip-path)">
      <rect id="Rettangolo_384" data-name="Rettangolo 384" width="47.946" height="23.968" transform="translate(-16.94 0.022)" fill="#000093"/>
      <path id="Tracciato_4323" data-name="Tracciato 4323" d="M24.43,2.139V.751H21.74L14.4,4.431V.751H10.471V4.388L3.153.751H.462V2.031L5.93,4.776H.462V8.693H5.887L.462,11.416V12.7H3.153l7.318-3.638v3.659H14.4v-3.7L21.74,12.7H24.43V11.309L19.167,8.693H24.43V4.776H19.124Z" transform="translate(-12.426 -0.732)" fill="#fff"/>
      <path id="Tracciato_4324" data-name="Tracciato 4324" d="M24.43,5.561H13.614V.751H11.268V5.561H.462V7.9H11.268v4.822h2.346V7.9H24.43Z" transform="translate(-12.426 -0.732)" fill="#fa0000"/>
      <path id="Tracciato_4325" data-name="Tracciato 4325" d="M3.693,1.5H1.961L9.806,5.424V4.617Z" transform="translate(2.199 6.542)" fill="#fa0000"/>
      <path id="Tracciato_4326" data-name="Tracciato 4326" d="M1.815,4.669H3.547L11.232.751H9.66Z" transform="translate(0.776 -0.726)" fill="#fa0000"/>
      <path id="Tracciato_4327" data-name="Tracciato 4327" d="M15.821,3.734a.761.761,0,0,0-.334-.43,3.039,3.039,0,0,1-.839-.936.18.18,0,0,0-.118-.1.71.71,0,0,0-.291-.065h-.086a.888.888,0,0,0-.581.4,13.971,13.971,0,0,1-1.808,1.453,3.874,3.874,0,0,1-2.378.657H9.2a3.93,3.93,0,0,1-2.389-.657A14.348,14.348,0,0,1,5.015,2.6a.888.888,0,0,0-.581-.4H4.348a.8.8,0,0,0-.3.065.189.189,0,0,0-.108.1A3.282,3.282,0,0,1,3.11,3.3H3.1a.746.746,0,0,0-.161,1.152.891.891,0,0,0,.657.355.694.694,0,0,0,.215-.032.707.707,0,0,0,.183-.129l.226-.172a9.111,9.111,0,0,0,.958.743,7.5,7.5,0,0,0,2.8,1.27,5.965,5.965,0,0,0,1.313.14H9.3a6.023,6.023,0,0,0,1.313-.14,7.5,7.5,0,0,0,2.8-1.27,9.11,9.11,0,0,0,.958-.743l.226.172a.707.707,0,0,0,.183.129.694.694,0,0,0,.215.032.891.891,0,0,0,.657-.355.768.768,0,0,0,.172-.721" transform="translate(9.761 13.475)" fill="#fff"/>
      <path id="Tracciato_4328" data-name="Tracciato 4328" d="M3.435,3.414l.689-.549-.689-.549-.657.517Z" transform="translate(10.187 14.552)" fill="#ffc800"/>
      <path id="Tracciato_4329" data-name="Tracciato 4329" d="M3.464,3.456H3.453l-.667-.581-.011-.032.011-.011.667-.517h.032l.689.549.011.022-.011.022-.689.549ZM2.85,2.842l.613.538.646-.5-.646-.517Z" transform="translate(10.151 14.539)"/>
      <path id="Tracciato_4330" data-name="Tracciato 4330" d="M3.012,2.386a.562.562,0,0,0-.237.3.586.586,0,0,0,.14.527.584.584,0,0,0,.613.248.359.359,0,0,0,.237-.344.429.429,0,0,0-.517-.28l.42-.334a.574.574,0,0,0-.355-.183.593.593,0,0,0-.3.065" transform="translate(9.968 14.586)" fill="#ffc800"/>
      <path id="Tracciato_4331" data-name="Tracciato 4331" d="M3.419,3.536a.73.73,0,0,1-.506-.291.6.6,0,0,1-.14-.549.6.6,0,0,1,.248-.312l.011-.011a.6.6,0,0,1,.312-.054A.525.525,0,0,1,3.71,2.5l.011.022-.011.022-.344.28a.545.545,0,0,1,.323.1.328.328,0,0,1,.129.215A.367.367,0,0,1,3.57,3.5l-.151.032M3.053,2.428a.508.508,0,0,0-.226.291.553.553,0,0,0,.129.5.577.577,0,0,0,.592.248.333.333,0,0,0,.215-.312.256.256,0,0,0-.108-.183.452.452,0,0,0-.377-.075L3.258,2.88V2.837l.4-.323a.563.563,0,0,0-.312-.14.454.454,0,0,0-.291.054" transform="translate(9.937 14.566)"/>
      <path id="Tracciato_4332" data-name="Tracciato 4332" d="M4.475,3.414l-.689-.549.689-.549.657.517Z" transform="translate(20.021 14.552)" fill="#ffc800"/>
      <path id="Tracciato_4333" data-name="Tracciato 4333" d="M4.5,3.456H4.483L3.8,2.907l-.022-.022L3.8,2.864l.678-.549h.032l.667.517.011.022-.011.011-.667.592Zm-.646-.57L4.5,3.4l.613-.549L4.5,2.369Z" transform="translate(19.991 14.539)"/>
      <path id="Tracciato_4334" data-name="Tracciato 4334" d="M8.861,6.214a5.715,5.715,0,0,0,1.281-.129,7.354,7.354,0,0,0,2.712-1.238,8.93,8.93,0,0,0,1.733-1.507.265.265,0,0,1,.2-.065l.151.022a3.342,3.342,0,0,1-.926-1.033.607.607,0,0,0-.269-.032.647.647,0,0,0-.43.312,13,13,0,0,1-1.851,1.5,4.18,4.18,0,0,1-2.6.71,4.18,4.18,0,0,1-2.6-.71,13,13,0,0,1-1.851-1.5.647.647,0,0,0-.43-.312.607.607,0,0,0-.269.032A3.341,3.341,0,0,1,2.78,3.3l.151-.022a.265.265,0,0,1,.2.065A8.93,8.93,0,0,0,4.868,4.848,7.354,7.354,0,0,0,7.58,6.085a5.715,5.715,0,0,0,1.281.129" transform="translate(10.199 13.674)" fill="#ffc800"/>
      <path id="Tracciato_4335" data-name="Tracciato 4335" d="M8.88,6.273h0A5.722,5.722,0,0,1,7.6,6.133,7.32,7.32,0,0,1,4.866,4.9,9.5,9.5,0,0,1,3.144,3.389a.335.335,0,0,0-.194-.065l-.14.032-.032-.011.011-.032A3.974,3.974,0,0,0,3.7,2.291l.011-.022a.659.659,0,0,1,.28-.043.7.7,0,0,1,.452.323A13.875,13.875,0,0,0,6.3,4.045a4.178,4.178,0,0,0,2.583.7,4.178,4.178,0,0,0,2.583-.7,13.109,13.109,0,0,0,1.851-1.5.7.7,0,0,1,.452-.323.659.659,0,0,1,.28.043l.011.011a3.815,3.815,0,0,0,.915,1.033l.022.022-.043.022-.14-.032a.369.369,0,0,0-.194.065A9.505,9.505,0,0,1,12.895,4.9a7.32,7.32,0,0,1-2.734,1.238,5.722,5.722,0,0,1-1.281.14m0-.054h0a6.092,6.092,0,0,0,1.27-.129,7.274,7.274,0,0,0,2.712-1.238,9.505,9.505,0,0,0,1.722-1.507.432.432,0,0,1,.226-.075h.043a3.429,3.429,0,0,1-.839-.947.407.407,0,0,0-.248-.043.676.676,0,0,0-.409.3,12.882,12.882,0,0,1-1.851,1.5A4.2,4.2,0,0,1,8.88,4.8a4.2,4.2,0,0,1-2.626-.721A12.882,12.882,0,0,1,4.4,2.582a.676.676,0,0,0-.409-.3.407.407,0,0,0-.248.043,3.429,3.429,0,0,1-.839.947H2.95a.4.4,0,0,1,.226.075A9.505,9.505,0,0,0,4.9,4.853,7.274,7.274,0,0,0,7.61,6.09a6.154,6.154,0,0,0,1.27.129" transform="translate(10.18 13.648)"/>
      <path id="Tracciato_4336" data-name="Tracciato 4336" d="M3.937,2.933l-.043-.022L3.851,2.9,3.8,2.912l-.054.032-.312.215c-.14.1-.291.2-.441.3l-.043-.032.129-.538.075-.366L3.162,2.5l-.022-.065L3.119,2.4,3.1,2.374l.011-.054.344.237L3.431,2.6l-.075-.043H3.3v.022l-.011.011-.054.237-.108.463.28-.183.2-.151L3.69,2.89l.022-.022.011-.032L3.7,2.794l-.032-.032-.043-.032.032-.043.312.2Z" transform="translate(11.83 14.588)"/>
      <path id="Tracciato_4337" data-name="Tracciato 4337" d="M3.423,3.492l-.4-.226.032-.043.043.022.043.022h.043l.032-.022L3.585,2.6l.022-.043-.022-.043L3.542,2.47,3.52,2.449l.011-.054.387.226L3.9,2.664l-.043-.022-.043-.011-.043-.011-.043.043L3.359,3.3l-.011.032.022.043.032.043.043.032Z" transform="translate(12.591 15.317)"/>
      <path id="Tracciato_4338" data-name="Tracciato 4338" d="M4.038,3.252,4,3.241l-.032-.011-.054.022-.032.032-.032.075L3.8,3.467,3.791,3.5a.438.438,0,0,1-.2,0l-.172-.054a.5.5,0,0,1-.161-.1.5.5,0,0,1-.1-.161.369.369,0,0,1-.032-.194.547.547,0,0,1,.043-.215.492.492,0,0,1,.118-.172.352.352,0,0,1,.161-.118.394.394,0,0,1,.194-.043.422.422,0,0,1,.194.043l.129.075.086.1.043-.043.054.022-.129.334L3.963,2.94l.011-.108-.011-.118-.054-.1-.1-.075-.14-.022-.129.043-.118.108a.546.546,0,0,0-.1.172l-.054.172.011.161.065.14.118.086.118.022h.075l.032-.065L3.726,3.3l.022-.043.011-.043-.022-.065-.054-.032L3.629,3.08l.022-.043.409.172Z" transform="translate(13.526 15.808)"/>
      <path id="Tracciato_4339" data-name="Tracciato 4339" d="M3.685,3.537l-.441-.075V3.419H3.3l.043.011.043-.022.022-.043.118-.721V2.612L3.48,2.569l-.043-.022-.043-.022V2.472l.441.075-.011.043h-.1L3.685,2.6l-.022.054-.108.721v.043l.032.032.054.022.032.011Z" transform="translate(14.726 16.069)"/>
      <path id="Tracciato_4340" data-name="Tracciato 4340" d="M4.156,3.181l-.011.3-.786.011V3.45L3.4,3.439l.032-.011.043-.022.011-.032-.011-.743L3.467,2.6l-.032-.032-.054-.011-.032-.011-.011-.054.42-.011v.054l-.043.011-.054.011-.032.032v.043l.011.667v.054l.032.065.043.011h.14l.065-.011.043-.011L3.995,3.4l.065-.108L4.1,3.181Z" transform="translate(15.647 16.159)"/>
      <path id="Tracciato_4341" data-name="Tracciato 4341" d="M4.474,3.318l-.4.108-.022-.043L4.14,3.34l.032-.022V3.3l-.011-.022-.14-.194-.344.086-.011.1V3.4l.054.043.108-.011.011.054-.366.1-.011-.054.043-.011.043-.032.032-.054.011-.065.054-.452c.022-.161.032-.312.043-.441l.054-.022.549.753.022.032.054.032h.086Zm-.5-.291-.248-.334L3.688,3.1Z" transform="translate(16.857 15.925)"/>
      <path id="Tracciato_4342" data-name="Tracciato 4342" d="M4.448,2.634l-.043.022-.054-.043-.065-.043-.065-.022H4.169l-.054.022L4.061,2.6l-.032.011.387.71.022.032.043.011.054-.011.054-.022.032.032L4.212,3.6l-.032-.043.054-.043.043-.022L4.3,3.462l-.011-.043-.4-.732-.032.022-.043.022-.054.043-.032.043-.011.075v.075l.011.065-.043.022-.129-.237.764-.42Z" transform="translate(17.766 15.339)"/>
      <path id="Tracciato_4343" data-name="Tracciato 4343" d="M4.764,2.851l.172.248L4.268,3.6l-.022-.032.043-.043L4.312,3.5l.011-.032L4.3,3.41l-.441-.56-.022-.022-.043-.022-.065.022-.043.032-.032-.043.613-.484.14.194-.032.032-.118-.054a.143.143,0,0,0-.118.011l-.022.011-.075.054-.118.1L4.172,3l.086-.075L4.3,2.883l.022-.065-.011-.065-.032-.065.043-.032.248.312L4.527,3l-.054-.043L4.43,2.937H4.355l-.065.032L4.2,3.044l.183.237.032.043.043.022.065-.022L4.6,3.281l.054-.043L4.7,3.195l.032-.022.032-.054-.011-.129L4.72,2.883Z" transform="translate(18.741 14.724)"/>
      <path id="Tracciato_4344" data-name="Tracciato 4344" d="M7.926,14.029,7.8,14c-.581-.3-1.055-.549-1.442-.753l-.032-.022A9.414,9.414,0,0,1,3.793,11.6a5,5,0,0,1-.883-1.259l-.032-.118V1.555a.276.276,0,0,1,.28-.269h9.535a.276.276,0,0,1,.28.269v8.664l-.043.118a4.7,4.7,0,0,1-.872,1.259,9.414,9.414,0,0,1-2.529,1.625l-.032.022c-.387.2-.872.452-1.453.753l-.118.032m-4.5-3.874A4.431,4.431,0,0,0,4.18,11.22a8.972,8.972,0,0,0,2.4,1.517l.032.022c.355.194.8.42,1.313.7.527-.28.958-.506,1.313-.7l.032-.022a8.972,8.972,0,0,0,2.4-1.517,4.751,4.751,0,0,0,.753-1.065V1.824h-9Z" transform="translate(11.156 4.493)" fill="#fff"/>
      <path id="Tracciato_4345" data-name="Tracciato 4345" d="M7.672,13.515c-.592-.312-1.1-.57-1.474-.775a9.3,9.3,0,0,1-2.465-1.582A4.9,4.9,0,0,1,2.9,9.975V1.311h9.535V9.975a4.9,4.9,0,0,1-.829,1.184,9.3,9.3,0,0,1-2.465,1.582c-.377.2-.883.463-1.474.775" transform="translate(11.41 4.737)" fill="#00611b"/>
      <path id="Tracciato_4346" data-name="Tracciato 4346" d="M7.72,13.618H7.7c-.581-.3-1.055-.56-1.442-.764l-.032-.022A8.772,8.772,0,0,1,3.748,11.25a4.687,4.687,0,0,1-.839-1.195L2.9,10.023V1.36l.054-.054H12.5l.054.054v8.664l-.011.022A4.828,4.828,0,0,1,11.7,11.25a8.964,8.964,0,0,1-2.475,1.582l-.032.022-1.442.764ZM3.006,10.013a4.92,4.92,0,0,0,.818,1.162,8.71,8.71,0,0,0,2.443,1.561l.043.022c.377.2.839.452,1.41.743q.856-.436,1.421-.743l.032-.022a9.053,9.053,0,0,0,2.454-1.561,4.88,4.88,0,0,0,.807-1.162v-8.6H3.006Z" transform="translate(11.351 4.689)"/>
      <path id="Tracciato_4347" data-name="Tracciato 4347" d="M3.707,1.514a.444.444,0,0,1-.108.14.287.287,0,0,0-.075.151l.011.1L3.6,2a.422.422,0,0,1,.043.194.156.156,0,0,1-.011.118l.086-.129a.477.477,0,0,0,.022-.42.161.161,0,0,1,.011-.14c.032-.065.065-.118.032-.183l-.065-.1.011.075-.022.1" transform="translate(17.463 5.04)" fill="red"/>
      <path id="Tracciato_4348" data-name="Tracciato 4348" d="M3.651,2.321h0L3.64,2.311V2.3l.011-.108-.043-.183-.032-.032-.032-.065-.022-.1a.388.388,0,0,1,.086-.161l.022-.032.086-.108.011-.086V1.342h.022l.065.1c.043.075.011.129-.032.194a.154.154,0,0,0-.011.14.507.507,0,0,1-.022.43l-.032.043-.054.065v.011Zm.1-.8-.1.118-.022.022a.657.657,0,0,0-.075.151l.011.086.022.032.032.054a.388.388,0,0,1,.054.2l.011.032h.011l.032-.043a.5.5,0,0,0,.022-.409.173.173,0,0,1,.011-.161.175.175,0,0,0,.032-.161l-.043-.065.011.022v.011l-.011.108" transform="translate(17.443 5.04)"/>
      <path id="Tracciato_4349" data-name="Tracciato 4349" d="M4.772,2.391H3.61l-.054-.032V2.3l.613-.926L4.2,1.347l.054.032.57.926v.054l-.054.032M3.707,2.283h.969l-.463-.775Z" transform="translate(17.775 5.089)" fill="#ffc800"/>
      <path id="Tracciato_4350" data-name="Tracciato 4350" d="M4.546,1.691H3.567l.011-.1A.278.278,0,0,1,3.7,1.465h.7a.226.226,0,0,1,.129.1.219.219,0,0,1,.022.129" transform="translate(17.882 6.241)" fill="#ffc800"/>
      <path id="Tracciato_4351" data-name="Tracciato 4351" d="M3.588,1.721l-.022-.011L3.588,1.6a.234.234,0,0,1,.118-.129l.011-.011h.689a.26.26,0,0,1,.151.118.194.194,0,0,1,.022.129l-.011.011ZM3.717,1.5a.2.2,0,0,0-.108.118L3.6,1.689h.947a.132.132,0,0,0-.011-.108A.235.235,0,0,0,4.416,1.5Z" transform="translate(17.873 6.221)"/>
      <path id="Tracciato_4352" data-name="Tracciato 4352" d="M4.116,1.429H3.524a.75.75,0,0,0,.14.194.638.638,0,0,0,.452.1V1.429" transform="translate(17.463 5.889)" fill="#ffc800"/>
      <path id="Tracciato_4353" data-name="Tracciato 4353" d="M4,1.751a.574.574,0,0,1-.334-.108.492.492,0,0,1-.14-.2V1.428h.613v.3l-.011.011L4,1.751m-.441-.3a.5.5,0,0,0,.129.172.538.538,0,0,0,.42.1l.011-.269h-.56" transform="translate(17.453 5.88)"/>
      <path id="Tracciato_4354" data-name="Tracciato 4354" d="M3.546,1.634h.538l.075-.118A.284.284,0,0,1,4.3,1.43a.256.256,0,0,1,.237.194h.377L5.063,1.5a.579.579,0,0,1,.3-.1l.14.032c.054.065-.022.183-.022.183a.374.374,0,0,1-.226.161l-.086.022.011.043a.152.152,0,0,1-.054.118C5.085,2,5,1.978,4.988,1.946c-.022-.054.075-.161.172-.215s.183-.054.226-.129V1.559c-.011-.032-.118-.022-.183,0-.1.043-.118.118-.194.226a2.736,2.736,0,0,1-.237.248l-.065.043-.85-.011L3.8,2.021a.691.691,0,0,1-.258-.387" transform="translate(17.677 5.684)" fill="#ffc800"/>
      <path id="Tracciato_4355" data-name="Tracciato 4355" d="M4.717,2.106h0l-.839-.011-.011-.011L3.8,2.052a.938.938,0,0,1-.258-.4l.011-.011.011-.011h.527l.075-.118a.366.366,0,0,1,.151-.086.3.3,0,0,1,.248.194h.355l.151-.108a.554.554,0,0,1,.3-.108c.065,0,.129,0,.161.043.054.075-.022.2-.022.2a.424.424,0,0,1-.237.161l-.065.011v.032A.144.144,0,0,1,5.148,2H5.04L5,1.955c-.032-.065.086-.172.172-.215l.1-.043a.2.2,0,0,0,.118-.086L5.4,1.589c-.022-.032-.1-.032-.172,0a.38.38,0,0,0-.14.151L5.04,1.8a1.5,1.5,0,0,1-.248.248l-.065.054Zm-.839-.043.839.011.054-.043a1.346,1.346,0,0,0,.237-.237l.054-.075a.34.34,0,0,1,.151-.151c.065-.032.183-.054.2,0V1.61a.228.228,0,0,1-.14.108l-.1.043c-.1.054-.183.151-.161.194l.032.022h.086a.16.16,0,0,0,.043-.118V1.815L5.191,1.8l.086-.022a.313.313,0,0,0,.215-.14s.065-.118.022-.172l-.14-.032a.515.515,0,0,0-.291.1l-.151.118H4.556l-.011-.011c-.054-.118-.14-.194-.226-.183a.2.2,0,0,0-.129.075l-.075.118L4.1,1.664H3.576a.749.749,0,0,0,.248.355l.054.043" transform="translate(17.658 5.665)"/>
      <path id="Tracciato_4356" data-name="Tracciato 4356" d="M3.833,1.506a.111.111,0,0,1-.118.108.108.108,0,0,1-.108-.108.118.118,0,0,1,.108-.118.119.119,0,0,1,.118.118" transform="translate(18.273 5.489)" fill="#ffc800"/>
      <path id="Tracciato_4357" data-name="Tracciato 4357" d="M3.745,1.645a.127.127,0,0,1-.14-.129.134.134,0,0,1,.14-.129.122.122,0,0,1,.118.129.116.116,0,0,1-.118.129m0-.226a.1.1,0,1,0,0,.194.1.1,0,0,0,0-.194" transform="translate(18.253 5.479)"/>
      <path id="Tracciato_4358" data-name="Tracciato 4358" d="M3.8,1.44a.1.1,0,1,1-.1-.1.1.1,0,0,1,.1.1" transform="translate(18.292 5.05)" fill="#ffc800"/>
      <path id="Tracciato_4359" data-name="Tracciato 4359" d="M3.735,1.567a.121.121,0,0,1-.129-.108.129.129,0,0,1,.129-.118.118.118,0,0,1,.108.118.108.108,0,0,1-.108.108m0-.194a.087.087,0,1,0,0,.172.087.087,0,0,0,0-.172" transform="translate(18.263 5.03)"/>
      <path id="Tracciato_4360" data-name="Tracciato 4360" d="M3.707,1.654a.444.444,0,0,1-.108.14.287.287,0,0,0-.075.151l.011.1.065.1a.394.394,0,0,1,.043.194.156.156,0,0,1-.011.118l.086-.129a.477.477,0,0,0,.022-.42.188.188,0,0,1,.011-.151c.032-.054.065-.108.032-.172l-.065-.086.011.065-.022.1" transform="translate(17.463 6.514)" fill="red"/>
      <path id="Tracciato_4361" data-name="Tracciato 4361" d="M3.651,2.47h0L3.64,2.449l.011-.108-.043-.183-.032-.043-.032-.054-.022-.1A.388.388,0,0,1,3.608,1.8l.022-.032.086-.108.011-.086V1.5l.022-.011.065.1c.043.075.011.129-.032.194a.154.154,0,0,0-.011.14.482.482,0,0,1-.022.42L3.716,2.4l-.054.065V2.47Zm.1-.8-.1.118-.011.022a.422.422,0,0,0-.086.151l.011.086.043.054.022.043a.422.422,0,0,1,.043.194l.011.032h.011l.032-.043a.493.493,0,0,0,.022-.409.173.173,0,0,1,.011-.161A.175.175,0,0,0,3.791,1.6l-.043-.065v.011l.011.022-.011.108" transform="translate(17.443 6.495)"/>
      <path id="Tracciato_4362" data-name="Tracciato 4362" d="M4.782,2.54H3.62l-.054-.032-.011-.032.624-.947L4.212,1.5l.054.011.57.947v.054l-.054.032M3.716,2.432h.969l-.463-.775Z" transform="translate(17.765 6.543)" fill="#ffc800"/>
      <path id="Tracciato_4363" data-name="Tracciato 4363" d="M4.546,1.84H3.567l.011-.1A.278.278,0,0,1,3.7,1.614h.7a.226.226,0,0,1,.129.1.211.211,0,0,1,.022.129" transform="translate(17.882 7.695)" fill="#ffc800"/>
      <path id="Tracciato_4364" data-name="Tracciato 4364" d="M3.588,1.871l-.022-.011.022-.108a.234.234,0,0,1,.118-.129l.011-.011h.689a.28.28,0,0,1,.151.108.243.243,0,0,1,.022.14l-.011.011Zm.129-.226a.2.2,0,0,0-.108.118L3.6,1.839h.947l-.011-.1a.219.219,0,0,0-.118-.1Z" transform="translate(17.873 7.686)"/>
      <path id="Tracciato_4365" data-name="Tracciato 4365" d="M4.116,1.578H3.524a.586.586,0,0,0,.14.183.54.54,0,0,0,.452.1v-.28" transform="translate(17.463 7.344)" fill="#ffc800"/>
      <path id="Tracciato_4366" data-name="Tracciato 4366" d="M4,1.9a.574.574,0,0,1-.334-.108.492.492,0,0,1-.14-.2V1.577h.613v.3l-.011.011L4,1.9m-.441-.3a.421.421,0,0,0,.129.172.588.588,0,0,0,.42.1L4.115,1.6h-.56" transform="translate(17.453 7.334)"/>
      <path id="Tracciato_4367" data-name="Tracciato 4367" d="M3.546,1.783h.538l.075-.118a.284.284,0,0,1,.14-.086.256.256,0,0,1,.237.194h.377l.151-.118a.579.579,0,0,1,.3-.1l.14.032c.054.065-.022.183-.022.183a.374.374,0,0,1-.226.161l-.086.022L5.182,2a.152.152,0,0,1-.054.118c-.043.032-.129.011-.14-.032s.075-.151.172-.2.183-.054.226-.129L5.4,1.718c-.022-.043-.129-.032-.194-.011-.1.043-.118.118-.194.215a2.158,2.158,0,0,1-.237.258l-.065.043-.85-.011L3.8,2.17a.691.691,0,0,1-.258-.387" transform="translate(17.677 7.139)" fill="#ffc800"/>
      <path id="Tracciato_4368" data-name="Tracciato 4368" d="M4.717,2.256h0l-.839-.011-.011-.011L3.8,2.2a.938.938,0,0,1-.258-.4l.011-.011.011-.011h.527l.075-.118a.277.277,0,0,1,.151-.086.3.3,0,0,1,.248.194h.355l.151-.108V1.653a.661.661,0,0,1,.3-.1c.065,0,.129,0,.161.043.054.075-.022.2-.022.2a.424.424,0,0,1-.237.161l-.065.011v.032c0,.022,0,.108-.065.14H5.04L5,2.1c-.032-.065.086-.172.172-.215l.1-.043a.2.2,0,0,0,.118-.086L5.4,1.739c-.022-.032-.1-.032-.172,0a.32.32,0,0,0-.14.151l-.043.065H5.029a1.1,1.1,0,0,1-.237.248l-.065.054Zm-.839-.043.839.011.054-.043a1.346,1.346,0,0,0,.237-.237l.054-.075a.34.34,0,0,1,.151-.151c.065-.032.183-.054.2,0V1.76a.228.228,0,0,1-.14.108l-.1.043c-.1.054-.183.151-.161.194l.032.022h.086a.152.152,0,0,0,.043-.108V1.965l.011-.011.086-.022a.313.313,0,0,0,.215-.14s.065-.118.022-.172c-.022-.043-.086-.043-.14-.032a.515.515,0,0,0-.291.1l-.151.108V1.8H4.556l-.011-.011c-.054-.118-.14-.194-.226-.183a.167.167,0,0,0-.129.075L4.114,1.8,4.1,1.814H3.576a.858.858,0,0,0,.248.366l.054.032" transform="translate(17.658 7.129)"/>
      <path id="Tracciato_4369" data-name="Tracciato 4369" d="M3.833,1.646a.111.111,0,0,1-.118.108.108.108,0,1,1,0-.215.111.111,0,0,1,.118.108" transform="translate(18.273 6.953)" fill="#ffc800"/>
      <path id="Tracciato_4370" data-name="Tracciato 4370" d="M3.745,1.794a.127.127,0,0,1-.14-.129.134.134,0,0,1,.14-.129.122.122,0,0,1,.118.129.116.116,0,0,1-.118.129m0-.226a.09.09,0,0,0-.1.1.1.1,0,0,0,.1.108.106.106,0,0,0,.086-.108.1.1,0,0,0-.086-.1" transform="translate(18.253 6.934)"/>
      <path id="Tracciato_4371" data-name="Tracciato 4371" d="M3.8,1.59a.1.1,0,1,1-.1-.1.1.1,0,0,1,.1.1" transform="translate(18.292 6.514)" fill="#ffc800"/>
      <path id="Tracciato_4372" data-name="Tracciato 4372" d="M3.735,1.717a.121.121,0,0,1-.129-.108.129.129,0,0,1,.129-.118.118.118,0,0,1,.108.118.108.108,0,0,1-.108.108m0-.194a.087.087,0,1,0,0,.172.087.087,0,0,0,0-.172" transform="translate(18.263 6.495)"/>
      <path id="Tracciato_4373" data-name="Tracciato 4373" d="M3.707,1.8a.444.444,0,0,1-.108.14.287.287,0,0,0-.075.151l.011.1.065.1a.369.369,0,0,1,.043.194l-.011.108.086-.118a.477.477,0,0,0,.022-.42A.185.185,0,0,1,3.75,1.9c.032-.054.065-.108.032-.172l-.065-.086.011.043L3.707,1.8" transform="translate(17.463 7.969)" fill="red"/>
      <path id="Tracciato_4374" data-name="Tracciato 4374" d="M3.651,2.62h0L3.64,2.61V2.6l.011-.108-.043-.183-.032-.043-.032-.054-.022-.1a.388.388,0,0,1,.086-.161l.022-.032.086-.108.011-.086V1.641h.022l.065.1c.043.075.011.129-.032.194a.136.136,0,0,0-.011.129.5.5,0,0,1-.022.43l-.032.043-.054.075V2.62Zm.1-.8-.1.118-.022.022a.657.657,0,0,0-.075.151l.011.086.043.054L3.63,2.3a.394.394,0,0,1,.043.194l.011.043.011-.011.032-.043a.5.5,0,0,0,.022-.409.173.173,0,0,1,.011-.161.181.181,0,0,0,.032-.161l-.043-.075.011.022v.022l-.011.108" transform="translate(17.443 7.959)"/>
      <path id="Tracciato_4375" data-name="Tracciato 4375" d="M4.772,2.69H3.61l-.054-.032V2.6l.613-.936L4.2,1.646l.054.022.57.936v.054l-.054.032M3.707,2.572h.969l-.463-.764Z" transform="translate(17.775 8.008)" fill="#ffc800"/>
      <path id="Tracciato_4376" data-name="Tracciato 4376" d="M4.546,1.99H3.567l.011-.1A.278.278,0,0,1,3.7,1.764h.7a.226.226,0,0,1,.129.1.211.211,0,0,1,.022.129" transform="translate(17.882 9.16)" fill="#ffc800"/>
      <path id="Tracciato_4377" data-name="Tracciato 4377" d="M3.588,2.02,3.566,2.01,3.588,1.9a.234.234,0,0,1,.118-.129l.011-.011h.689a.28.28,0,0,1,.151.108.234.234,0,0,1,.022.14l-.011.011Zm.129-.226a.235.235,0,0,0-.108.118L3.6,1.988h.947l-.011-.1a.219.219,0,0,0-.118-.1Z" transform="translate(17.873 9.14)"/>
      <path id="Tracciato_4378" data-name="Tracciato 4378" d="M4.116,1.728H3.524a.586.586,0,0,0,.14.183.54.54,0,0,0,.452.1v-.28" transform="translate(17.463 8.808)" fill="#ffc800"/>
      <path id="Tracciato_4379" data-name="Tracciato 4379" d="M4,2.06a.525.525,0,0,1-.334-.118.414.414,0,0,1-.14-.194V1.737l.011-.011.3.011h.3v.3l-.011.011L4,2.06m-.441-.3a.421.421,0,0,0,.129.172.588.588,0,0,0,.42.1l.011-.258-.28-.011h-.28" transform="translate(17.453 8.789)"/>
      <path id="Tracciato_4380" data-name="Tracciato 4380" d="M3.546,1.933h.538l.075-.118a.284.284,0,0,1,.14-.086.256.256,0,0,1,.237.194h.377L5.063,1.8a.579.579,0,0,1,.3-.1l.14.032c.054.065-.022.183-.022.183a.374.374,0,0,1-.226.161l-.086.022.011.032s0,.1-.054.129-.129.011-.14-.032.075-.151.172-.2.183-.054.226-.129V1.858c-.011-.043-.118-.022-.183,0-.1.043-.118.118-.194.215a2.158,2.158,0,0,1-.237.258l-.065.043-.85-.011L3.8,2.32a.691.691,0,0,1-.258-.387" transform="translate(17.677 8.603)" fill="#ffc800"/>
      <path id="Tracciato_4381" data-name="Tracciato 4381" d="M4.717,2.4h0l-.839-.022H3.867L3.8,2.351a.938.938,0,0,1-.258-.4l.011-.011.011-.011h.527l.075-.118a.277.277,0,0,1,.151-.086.3.3,0,0,1,.248.194h.355l.151-.108a.554.554,0,0,1,.3-.108c.065,0,.129,0,.161.043.054.075-.022.2-.022.2a.489.489,0,0,1-.237.161l-.065.022v.022c0,.022,0,.108-.065.14l-.108.011L5,2.254c-.032-.065.086-.172.172-.215L5.266,2a.2.2,0,0,0,.118-.086L5.4,1.888c-.022-.032-.1-.032-.172,0a.38.38,0,0,0-.14.151L5.04,2.1a1.5,1.5,0,0,1-.248.248L4.728,2.4Zm-.839-.043.839.011.054-.043a1.346,1.346,0,0,0,.237-.237l.054-.075a.34.34,0,0,1,.151-.151c.065-.032.183-.054.2,0v.043a.228.228,0,0,1-.14.108l-.1.043c-.1.054-.183.151-.161.194l.032.022h.086a.152.152,0,0,0,.043-.108V2.114L5.191,2.1l.086-.022a.355.355,0,0,0,.215-.14s.065-.118.022-.172l-.14-.032a.515.515,0,0,0-.291.1l-.151.108v.011H4.556l-.011-.011c-.054-.118-.14-.194-.226-.183a.193.193,0,0,0-.118.054l-.086.14L4.1,1.963H3.576a.858.858,0,0,0,.248.366l.054.032" transform="translate(17.658 8.584)"/>
      <path id="Tracciato_4382" data-name="Tracciato 4382" d="M3.833,1.785a.114.114,0,1,1-.226,0,.106.106,0,0,1,.108-.1.11.11,0,0,1,.118.1" transform="translate(18.273 8.418)" fill="#ffc800"/>
      <path id="Tracciato_4383" data-name="Tracciato 4383" d="M3.745,1.934A.127.127,0,0,1,3.6,1.8a.126.126,0,0,1,.14-.118.113.113,0,0,1,.118.118.116.116,0,0,1-.118.129m0-.226a.09.09,0,0,0-.1.1c0,.065.032.108.1.108A.1.1,0,0,0,3.831,1.8a.1.1,0,0,0-.086-.1" transform="translate(18.253 8.398)"/>
      <path id="Tracciato_4384" data-name="Tracciato 4384" d="M3.8,1.739a.1.1,0,1,1-.1-.1.1.1,0,0,1,.1.1" transform="translate(18.292 7.969)" fill="#ffc800"/>
      <path id="Tracciato_4385" data-name="Tracciato 4385" d="M3.735,1.867a.129.129,0,0,1-.129-.118.121.121,0,0,1,.129-.108.108.108,0,0,1,.108.108.118.118,0,0,1-.108.118m0-.2a.087.087,0,1,0,0,.172.087.087,0,0,0,0-.172" transform="translate(18.263 7.959)"/>
      <path id="Tracciato_4386" data-name="Tracciato 4386" d="M3.707,1.952a.444.444,0,0,1-.108.14.287.287,0,0,0-.075.151l.011.1.065.1a.354.354,0,0,1,.043.183.18.18,0,0,1-.011.129l.086-.129a.477.477,0,0,0,.022-.42.188.188,0,0,1,.011-.151c.032-.054.065-.108.032-.172l-.065-.086.011.065-.022.1" transform="translate(17.463 9.423)" fill="red"/>
      <path id="Tracciato_4387" data-name="Tracciato 4387" d="M3.652,2.779V2.768l-.011-.011V2.747l.011-.1-.043-.183-.032-.043-.032-.065-.022-.1A.388.388,0,0,1,3.609,2.1l.022-.022.086-.118.011-.086V1.8l.011-.011.075.1a.183.183,0,0,1-.032.194.215.215,0,0,0-.022.14.469.469,0,0,1-.011.43l-.032.043-.054.065v.011Zm.1-.947v.011l.011.022-.022.108-.086.118-.022.032a.253.253,0,0,0-.075.151l.011.075.022.043.043.054a.422.422,0,0,1,.043.194l.011.054L3.7,2.672l.022-.043a.435.435,0,0,0,.022-.4.172.172,0,0,1,.022-.161A.2.2,0,0,0,3.792,1.9l-.043-.065" transform="translate(17.453 9.404)"/>
      <path id="Tracciato_4388" data-name="Tracciato 4388" d="M4.772,2.839H3.61l-.043-.011-.011-.075.613-.926L4.2,1.8l.054.032.57.936v.054l-.054.022M3.707,2.731h.969l-.463-.775Z" transform="translate(17.775 9.462)" fill="#ffc800"/>
      <path id="Tracciato_4389" data-name="Tracciato 4389" d="M4.546,2.139H3.567l.011-.1A.278.278,0,0,1,3.7,1.913h.7a.226.226,0,0,1,.129.1.219.219,0,0,1,.022.129" transform="translate(17.882 10.614)" fill="#ffc800"/>
      <path id="Tracciato_4390" data-name="Tracciato 4390" d="M3.588,2.169H3.566l.022-.118a.32.32,0,0,1,.118-.14h.7a.28.28,0,0,1,.151.108.234.234,0,0,1,.022.14l-.011.011Zm.129-.226a.235.235,0,0,0-.108.118L3.6,2.137h.947l-.011-.1a.219.219,0,0,0-.118-.1Z" transform="translate(17.873 10.595)"/>
      <path id="Tracciato_4391" data-name="Tracciato 4391" d="M4.116,1.887l-.592-.011a.509.509,0,0,0,.14.194.54.54,0,0,0,.452.1v-.28" transform="translate(17.463 10.253)" fill="#ffc800"/>
      <path id="Tracciato_4392" data-name="Tracciato 4392" d="M4,2.209A.574.574,0,0,1,3.663,2.1a.492.492,0,0,1-.14-.2V1.875h.011l.3.011h.3v.291L4.126,2.2,4,2.209m-.441-.3a.5.5,0,0,0,.129.172.651.651,0,0,0,.42.1l.011-.269h-.56" transform="translate(17.453 10.243)"/>
      <path id="Tracciato_4393" data-name="Tracciato 4393" d="M3.546,2.082h.538l.075-.129c.022-.011.075-.075.14-.075a.244.244,0,0,1,.237.194h.377l.151-.118a.579.579,0,0,1,.3-.1l.14.032c.054.065-.022.183-.022.183a.374.374,0,0,1-.226.161l-.086.022.011.032c0,.011,0,.1-.054.129s-.129.011-.14-.032.075-.151.172-.2.183-.054.226-.129V2.007c-.011-.043-.118-.032-.183,0-.1.043-.118.118-.194.215a2.158,2.158,0,0,1-.237.258l-.065.043L3.858,2.5,3.8,2.469a.691.691,0,0,1-.258-.387" transform="translate(17.677 10.058)" fill="#ffc800"/>
      <path id="Tracciato_4394" data-name="Tracciato 4394" d="M4.717,2.554h0l-.839-.022H3.867L3.8,2.489A.826.826,0,0,1,3.544,2.1l.011-.011.011-.011h.527l.075-.118a.277.277,0,0,1,.151-.086.3.3,0,0,1,.248.194h.355l.151-.108a.554.554,0,0,1,.3-.108c.065,0,.129,0,.161.043.054.075-.022.2-.022.2a.489.489,0,0,1-.237.161l-.065.011v.032c0,.022,0,.108-.065.14H5.04L5,2.4c-.032-.065.086-.172.172-.215l.1-.043a.2.2,0,0,0,.118-.086L5.4,2.026a.2.2,0,0,0-.172.011.38.38,0,0,0-.14.151l-.043.065a1.825,1.825,0,0,1-.248.258l-.065.043Zm-.839-.043.839.011.054-.043a1.2,1.2,0,0,0,.237-.248l.054-.065a.34.34,0,0,1,.151-.151c.065-.032.183-.054.2,0l-.011.054a.2.2,0,0,1-.129.1l-.1.043c-.1.054-.183.151-.161.194l.032.022h.086a.148.148,0,0,0,.043-.118V2.263l.011-.011.086-.022a.412.412,0,0,0,.215-.14s.065-.118.022-.172c-.022-.043-.075-.032-.14-.032a.515.515,0,0,0-.291.1.523.523,0,0,0-.151.118H4.556l-.011-.011c-.054-.118-.14-.194-.226-.183a.167.167,0,0,0-.129.075L4.114,2.1,4.1,2.112H3.576a.749.749,0,0,0,.248.355l.054.043" transform="translate(17.658 10.038)"/>
      <path id="Tracciato_4395" data-name="Tracciato 4395" d="M3.833,1.945a.119.119,0,0,1-.118.118.118.118,0,0,1-.108-.118.108.108,0,0,1,.108-.108.111.111,0,0,1,.118.108" transform="translate(18.273 9.872)" fill="#ffc800"/>
      <path id="Tracciato_4396" data-name="Tracciato 4396" d="M3.745,2.093a.127.127,0,0,1-.14-.129.134.134,0,0,1,.14-.129.122.122,0,0,1,.118.129.116.116,0,0,1-.118.129m0-.226a.09.09,0,0,0-.1.1.1.1,0,0,0,.1.108.106.106,0,0,0,.086-.108.1.1,0,0,0-.086-.1" transform="translate(18.253 9.853)"/>
      <path id="Tracciato_4397" data-name="Tracciato 4397" d="M3.8,1.888a.1.1,0,1,1-.1-.1.1.1,0,0,1,.1.1" transform="translate(18.292 9.423)" fill="#ffc800"/>
      <path id="Tracciato_4398" data-name="Tracciato 4398" d="M3.735,2.015a.121.121,0,0,1-.129-.108.129.129,0,0,1,.129-.118.118.118,0,0,1,.108.118.108.108,0,0,1-.108.108m0-.194a.087.087,0,1,0,0,.172.087.087,0,0,0,0-.172" transform="translate(18.263 9.404)"/>
      <path id="Tracciato_4399" data-name="Tracciato 4399" d="M3.707,2.112a.444.444,0,0,1-.108.14.287.287,0,0,0-.075.151l.011.1.065.1a.38.38,0,0,1,.043.183.18.18,0,0,1-.011.129l.086-.129a.477.477,0,0,0,.022-.42.187.187,0,0,1,.011-.151c.032-.054.065-.108.032-.172l-.065-.1.011.075-.022.1" transform="translate(17.463 10.878)" fill="red"/>
      <path id="Tracciato_4400" data-name="Tracciato 4400" d="M3.651,2.918h0L3.64,2.908V2.9l.011-.108-.043-.183-.032-.032-.032-.065-.022-.1a.388.388,0,0,1,.086-.161L3.63,2.23l.086-.118.011-.086V2l-.011-.043.032-.022.065.1c.043.075.011.129-.032.194a.158.158,0,0,0-.011.14.507.507,0,0,1-.022.43l-.032.043-.054.065v.011Zm.1-.8-.1.118-.022.032a.43.43,0,0,0-.075.14l.011.086.043.054.011.032a.388.388,0,0,1,.054.2l.011.032.011.011.032-.054a.493.493,0,0,0,.022-.409.174.174,0,0,1,.011-.161.175.175,0,0,0,.032-.161l-.043-.065.011.011v.022l-.011.108" transform="translate(17.443 10.868)"/>
      <path id="Tracciato_4401" data-name="Tracciato 4401" d="M4.782,2.988H3.62l-.054-.022-.011-.043.624-.947.032-.032.054.011.57.947v.065l-.054.022M3.716,2.88h.969l-.463-.775Z" transform="translate(17.765 10.917)" fill="#ffc800"/>
      <path id="Tracciato_4402" data-name="Tracciato 4402" d="M4.546,2.288H3.567l.011-.1A.278.278,0,0,1,3.7,2.062h.7a.226.226,0,0,1,.129.1.211.211,0,0,1,.022.129" transform="translate(17.882 12.069)" fill="#ffc800"/>
      <path id="Tracciato_4403" data-name="Tracciato 4403" d="M3.588,2.319l-.022-.011L3.588,2.2a.32.32,0,0,1,.118-.14h.7a.28.28,0,0,1,.151.108.234.234,0,0,1,.022.14l-.011.011Zm.129-.226a.2.2,0,0,0-.108.118L3.6,2.287h.947l-.011-.1a.219.219,0,0,0-.118-.1Z" transform="translate(17.873 12.059)"/>
      <path id="Tracciato_4404" data-name="Tracciato 4404" d="M4.116,2.026H3.524a.605.605,0,0,0,.14.194.638.638,0,0,0,.452.1V2.026" transform="translate(17.463 11.717)" fill="#ffc800"/>
      <path id="Tracciato_4405" data-name="Tracciato 4405" d="M4,2.358a.574.574,0,0,1-.334-.108.492.492,0,0,1-.14-.2V2.035l.011-.011.3.011h.3v.291l-.011.022L4,2.358m-.441-.3a.5.5,0,0,0,.129.172.651.651,0,0,0,.42.1l.011-.269h-.56Z" transform="translate(17.453 11.698)"/>
      <path id="Tracciato_4406" data-name="Tracciato 4406" d="M3.546,2.231h.538l.075-.118a.284.284,0,0,1,.14-.086.256.256,0,0,1,.237.194h.377L5.063,2.1a.579.579,0,0,1,.3-.1l.14.032c.054.065-.022.194-.022.194a.4.4,0,0,1-.226.151L5.171,2.4l.011.043s0,.1-.054.118-.129.011-.14-.022c-.022-.054.075-.161.172-.215s.183-.054.226-.129V2.156c-.011-.032-.118-.022-.183,0-.1.043-.118.118-.194.226a1.711,1.711,0,0,1-.237.248l-.065.043-.85-.011L3.8,2.618a.691.691,0,0,1-.258-.387" transform="translate(17.677 11.512)" fill="#ffc800"/>
      <path id="Tracciato_4407" data-name="Tracciato 4407" d="M4.717,2.7h0l-.839-.011H3.867L3.8,2.639a.826.826,0,0,1-.258-.387l.011-.011.011-.011h.527l.075-.118a.366.366,0,0,1,.151-.086c.1-.011.194.075.248.194h.355l.151-.108A.554.554,0,0,1,5.374,2c.065,0,.129,0,.161.043.054.075-.022.2-.022.2a.489.489,0,0,1-.237.161l-.065.011v.032c0,.022,0,.108-.065.14H5.04L5,2.553c-.032-.065.086-.172.172-.215l.1-.043a.2.2,0,0,0,.118-.086L5.4,2.187c-.022-.032-.1-.032-.172,0a.38.38,0,0,0-.14.151L5.04,2.4a1.5,1.5,0,0,1-.248.248l-.065.043Zm-.839-.043.839.011.054-.043a1.2,1.2,0,0,0,.237-.248l.054-.065a.34.34,0,0,1,.151-.151c.065-.032.183-.054.2,0v.043a.228.228,0,0,1-.14.108l-.1.043c-.1.054-.183.151-.161.194l.032.022h.086a.148.148,0,0,0,.043-.118V2.413L5.191,2.4l.086-.022a.412.412,0,0,0,.215-.14s.065-.118.022-.172c-.022-.043-.075-.043-.14-.043a.609.609,0,0,0-.291.108l-.151.108v.011H4.556l-.011-.011c-.054-.118-.14-.194-.226-.183a.167.167,0,0,0-.129.075l-.075.118L4.1,2.262H3.576a.749.749,0,0,0,.248.355l.054.043" transform="translate(17.658 11.503)"/>
      <path id="Tracciato_4408" data-name="Tracciato 4408" d="M3.833,2.1a.111.111,0,0,1-.118.108A.108.108,0,0,1,3.607,2.1a.118.118,0,0,1,.108-.118.119.119,0,0,1,.118.118" transform="translate(18.273 11.327)" fill="#ffc800"/>
      <path id="Tracciato_4409" data-name="Tracciato 4409" d="M3.745,2.242a.126.126,0,0,1-.14-.118.136.136,0,0,1,.14-.14.125.125,0,0,1,.118.14.113.113,0,0,1-.118.118m0-.226c-.065,0-.1.043-.1.108a.1.1,0,0,0,.1.1.1.1,0,0,0,.086-.1.1.1,0,0,0-.086-.108" transform="translate(18.253 11.307)"/>
      <path id="Tracciato_4410" data-name="Tracciato 4410" d="M3.8,2.027a.1.1,0,1,1-.194,0,.1.1,0,0,1,.194,0" transform="translate(18.292 10.888)" fill="#ffc800"/>
      <path id="Tracciato_4411" data-name="Tracciato 4411" d="M3.735,2.165a.121.121,0,0,1-.129-.108.129.129,0,0,1,.129-.118.118.118,0,0,1,.108.118.108.108,0,0,1-.108.108m0-.194c-.065,0-.1.032-.1.086a.088.088,0,0,0,.1.086.083.083,0,0,0,.075-.086.077.077,0,0,0-.075-.086" transform="translate(18.263 10.868)"/>
      <path id="Tracciato_4412" data-name="Tracciato 4412" d="M3.707,2.261A.444.444,0,0,1,3.6,2.4a.287.287,0,0,0-.075.151l.011.1.065.1a.422.422,0,0,1,.043.194.156.156,0,0,1-.011.118l.086-.129a.477.477,0,0,0,.022-.42.188.188,0,0,1,.011-.151c.032-.054.065-.108.032-.172l-.065-.1.011.075-.022.1" transform="translate(17.463 12.333)" fill="red"/>
      <path id="Tracciato_4413" data-name="Tracciato 4413" d="M3.651,3.067h0L3.64,3.057V3.046l.011-.108-.043-.183-.032-.032-.032-.065-.022-.1A.388.388,0,0,1,3.608,2.4l.022-.032.086-.108.011-.086V2.088h.022l.065.1c.043.075.011.129-.032.194a.154.154,0,0,0-.011.14.507.507,0,0,1-.022.43l-.032.043-.054.065v.011Zm.1-.8-.1.118-.011.022a.422.422,0,0,0-.086.151l.011.086.043.054.022.043a.422.422,0,0,1,.043.194l.011.054.011-.022.032-.043a.5.5,0,0,0,.022-.409.173.173,0,0,1,.011-.161A.175.175,0,0,0,3.791,2.2l-.043-.065v.011l.011.022-.011.108" transform="translate(17.443 12.323)"/>
      <path id="Tracciato_4414" data-name="Tracciato 4414" d="M4.782,3.138H3.62l-.054-.032-.011-.032.624-.947.032-.032.054.032.57.926v.054l-.054.032M3.716,3.03h.969l-.463-.775Z" transform="translate(17.765 12.381)" fill="#ffc800"/>
      <path id="Tracciato_4415" data-name="Tracciato 4415" d="M4.546,2.438H3.567l.011-.1A.278.278,0,0,1,3.7,2.212h.7a.2.2,0,0,1,.151.226" transform="translate(17.882 13.533)" fill="#ffc800"/>
      <path id="Tracciato_4416" data-name="Tracciato 4416" d="M3.588,2.468l-.022-.011.022-.108a.234.234,0,0,1,.118-.129l.011-.011h.689a.28.28,0,0,1,.151.108.234.234,0,0,1,.022.14l-.011.011Zm.129-.226a.2.2,0,0,0-.108.118L3.6,2.436h.947l-.011-.1a.219.219,0,0,0-.118-.1Z" transform="translate(17.873 13.514)"/>
      <path id="Tracciato_4417" data-name="Tracciato 4417" d="M4.116,2.176H3.524a.75.75,0,0,0,.14.194.638.638,0,0,0,.452.1V2.176" transform="translate(17.463 13.182)" fill="#ffc800"/>
      <path id="Tracciato_4418" data-name="Tracciato 4418" d="M4,2.508A.574.574,0,0,1,3.663,2.4a.492.492,0,0,1-.14-.2V2.174h.011l.3.011h.3v.3L4.126,2.5,4,2.508m-.441-.3a.4.4,0,0,0,.129.161.5.5,0,0,0,.42.1l.011-.258h-.56" transform="translate(17.453 13.162)"/>
      <path id="Tracciato_4419" data-name="Tracciato 4419" d="M3.546,2.381h.538l.075-.118a.284.284,0,0,1,.14-.086.256.256,0,0,1,.237.194h.377l.151-.118a.579.579,0,0,1,.3-.1l.14.032c.054.065-.022.183-.022.183a.374.374,0,0,1-.226.161l-.086.022.011.022c0,.032,0,.108-.054.14s-.129.011-.14-.022c-.022-.054.075-.161.172-.215s.183-.054.226-.129V2.306c-.011-.032-.118-.022-.183,0-.1.043-.118.118-.194.226a2.736,2.736,0,0,1-.237.248l-.065.043-.85-.011L3.8,2.768a.691.691,0,0,1-.258-.387" transform="translate(17.677 12.977)" fill="#ffc800"/>
      <path id="Tracciato_4420" data-name="Tracciato 4420" d="M4.717,2.853h0l-.839-.011-.011-.011L3.8,2.8a.871.871,0,0,1-.258-.4l.011-.011.011-.011h.527l.075-.118a.366.366,0,0,1,.151-.086.3.3,0,0,1,.248.194h.355l.151-.108a.554.554,0,0,1,.3-.108c.065,0,.129,0,.161.043.054.075-.022.2-.022.2a.424.424,0,0,1-.237.161l-.065.011v.032a.144.144,0,0,1-.065.14H5.04L5,2.7c-.032-.065.086-.172.172-.215l.1-.043a.2.2,0,0,0,.118-.086L5.4,2.325a.2.2,0,0,0-.172.011.32.32,0,0,0-.14.151l-.043.065a1.5,1.5,0,0,1-.248.248l-.065.054ZM3.878,2.81l.839.011.054-.043a1.346,1.346,0,0,0,.237-.237l.032-.054c.065-.086.1-.14.172-.172s.183-.043.2,0v.043a.228.228,0,0,1-.14.108l-.1.043c-.1.054-.183.151-.161.194l.032.022h.086a.152.152,0,0,0,.043-.108V2.562l.011-.011.086-.022a.313.313,0,0,0,.215-.14s.065-.118.022-.172l-.14-.032a.515.515,0,0,0-.291.1L4.932,2.4H4.556L4.545,2.39c-.054-.118-.14-.194-.226-.183a.254.254,0,0,0-.118.065.3.3,0,0,0-.086.129L4.1,2.411H3.576a.858.858,0,0,0,.248.366l.054.032" transform="translate(17.658 12.957)"/>
      <path id="Tracciato_4421" data-name="Tracciato 4421" d="M3.833,2.253a.111.111,0,0,1-.118.108.108.108,0,0,1-.108-.108.118.118,0,0,1,.108-.118.119.119,0,0,1,.118.118" transform="translate(18.273 12.782)" fill="#ffc800"/>
      <path id="Tracciato_4422" data-name="Tracciato 4422" d="M3.745,2.392a.127.127,0,0,1-.14-.129.134.134,0,0,1,.14-.129.122.122,0,0,1,.118.129.116.116,0,0,1-.118.129m0-.226a.1.1,0,1,0,0,.194.1.1,0,0,0,0-.194" transform="translate(18.253 12.772)"/>
      <path id="Tracciato_4423" data-name="Tracciato 4423" d="M3.8,2.187a.1.1,0,1,1-.1-.1.1.1,0,0,1,.1.1" transform="translate(18.292 12.342)" fill="#ffc800"/>
      <path id="Tracciato_4424" data-name="Tracciato 4424" d="M3.735,2.325a.119.119,0,1,1,0-.237.119.119,0,0,1,0,.237m0-.2c-.065,0-.1.032-.1.086a.088.088,0,0,0,.1.086.083.083,0,0,0,.075-.086.077.077,0,0,0-.075-.086" transform="translate(18.263 12.323)"/>
      <path id="Tracciato_4425" data-name="Tracciato 4425" d="M3.17,1.514a.444.444,0,0,1-.108.14.287.287,0,0,0-.075.151L3,1.9l.065.1a.422.422,0,0,1,.043.194.156.156,0,0,1-.011.118l.086-.129a.444.444,0,0,0,.011-.42.165.165,0,0,1,.022-.14c.032-.065.065-.118.032-.183l-.065-.1.011.075-.022.1" transform="translate(12.22 5.04)" fill="red"/>
      <path id="Tracciato_4426" data-name="Tracciato 4426" d="M3.114,2.321h0L3.1,2.311V2.3l.011-.108a.591.591,0,0,0-.054-.183l-.022-.032-.032-.065-.022-.1a.388.388,0,0,1,.086-.161l.022-.032.086-.108.011-.086V1.342h.022l.065.1a.209.209,0,0,1-.032.194.154.154,0,0,0-.011.14.507.507,0,0,1-.022.43l-.022.022-.065.086v.011Zm.086-.8h0l-.086.118-.022.022a.287.287,0,0,0-.075.151l.011.086.032.054L3.093,2a.629.629,0,0,1,.043.194v.032h.022l.032-.043A.456.456,0,0,0,3.2,1.772a.215.215,0,0,1,.022-.161.175.175,0,0,0,.032-.161l-.043-.065v.022l.011.011L3.2,1.525" transform="translate(12.201 5.04)"/>
      <path id="Tracciato_4427" data-name="Tracciato 4427" d="M4.245,2.391H3.072l-.054-.032L3.029,2.3l.6-.926.032-.032.065.032.56.926v.054l-.043.032M3.169,2.283h.979l-.474-.775Z" transform="translate(12.523 5.089)" fill="#ffc800"/>
      <path id="Tracciato_4428" data-name="Tracciato 4428" d="M4.009,1.691H3.03l.011-.1a.278.278,0,0,1,.118-.129h.7a.226.226,0,0,1,.129.1.219.219,0,0,1,.022.129" transform="translate(12.64 6.241)" fill="#ffc800"/>
      <path id="Tracciato_4429" data-name="Tracciato 4429" d="M3.05,1.721l-.022-.011L3.05,1.6a.2.2,0,0,1,.118-.129V1.463h.7a.26.26,0,0,1,.151.118l.022.129-.011.011ZM3.179,1.5a.2.2,0,0,0-.108.118l-.011.075h.947A.132.132,0,0,0,4,1.581.235.235,0,0,0,3.878,1.5Z" transform="translate(12.62 6.221)"/>
      <path id="Tracciato_4430" data-name="Tracciato 4430" d="M3.578,1.429H2.986a.553.553,0,0,0,.14.194.619.619,0,0,0,.441.1l.011-.291" transform="translate(12.21 5.889)" fill="#ffc800"/>
      <path id="Tracciato_4431" data-name="Tracciato 4431" d="M3.469,1.751a.582.582,0,0,1-.344-.108.627.627,0,0,1-.14-.2V1.428H3.6v.3l-.011.011-.118.011m-.452-.3a.705.705,0,0,0,.129.172.538.538,0,0,0,.42.1l.011-.269h-.56" transform="translate(12.201 5.88)"/>
      <path id="Tracciato_4432" data-name="Tracciato 4432" d="M3.008,1.634h.538l.075-.118a.284.284,0,0,1,.14-.086A.266.266,0,0,1,4,1.623h.377L4.525,1.5a.579.579,0,0,1,.3-.1l.14.032c.054.065-.022.183-.022.183a.388.388,0,0,1-.215.161l-.075.022-.011.043a.152.152,0,0,1-.054.118c-.054.032-.129.011-.14-.022-.022-.054.075-.161.172-.215s.183-.054.226-.129l.011-.032c-.032-.043-.129-.032-.194-.011-.1.043-.118.118-.194.226a2.206,2.206,0,0,1-.248.248l-.065.043L3.32,2.065l-.054-.043a.691.691,0,0,1-.258-.387" transform="translate(12.425 5.684)" fill="#ffc800"/>
      <path id="Tracciato_4433" data-name="Tracciato 4433" d="M4.179,2.106h0L3.34,2.095l-.011-.011-.065-.032a.938.938,0,0,1-.258-.4l.011-.011.011-.011h.527l.075-.118a.366.366,0,0,1,.151-.086.3.3,0,0,1,.248.194h.355l.151-.108a.554.554,0,0,1,.3-.108c.065,0,.129,0,.161.043.054.075-.022.2-.022.2a.405.405,0,0,1-.226.161l-.075.011v.032A.144.144,0,0,1,4.61,2H4.5l-.043-.022c-.032-.086.086-.194.172-.237l.1-.043a.2.2,0,0,0,.118-.086l.011-.022c-.011-.032-.1-.032-.172,0a.38.38,0,0,0-.14.151L4.491,1.8a1.2,1.2,0,0,1-.237.248l-.065.054ZM3.34,2.063l.839.011.054-.043a1.346,1.346,0,0,0,.237-.237l.054-.075a.34.34,0,0,1,.151-.151c.065-.032.172-.054.2,0V1.61a.228.228,0,0,1-.14.108l-.086.043c-.108.054-.183.151-.172.194l.032.022H4.6a.119.119,0,0,0,.043-.118V1.815L4.653,1.8l.086-.022a.313.313,0,0,0,.215-.14s.065-.118.022-.172l-.14-.032a.515.515,0,0,0-.291.1l-.151.118H4.018l-.011-.011c-.054-.118-.14-.194-.226-.183a.2.2,0,0,0-.129.075l-.075.118-.011.011H3.038a.749.749,0,0,0,.248.355l.054.043" transform="translate(12.406 5.665)"/>
      <path id="Tracciato_4434" data-name="Tracciato 4434" d="M3.3,1.506a.111.111,0,0,1-.118.108.108.108,0,0,1-.108-.108.118.118,0,0,1,.108-.118.119.119,0,0,1,.118.118" transform="translate(13.021 5.489)" fill="#ffc800"/>
      <path id="Tracciato_4435" data-name="Tracciato 4435" d="M3.2,1.645a.124.124,0,0,1-.129-.129.129.129,0,1,1,.258,0,.124.124,0,0,1-.129.129m0-.226a.1.1,0,1,0,.1.1.1.1,0,0,0-.1-.1" transform="translate(13.011 5.479)"/>
      <path id="Tracciato_4436" data-name="Tracciato 4436" d="M3.265,1.44a.1.1,0,1,1-.1-.1.1.1,0,0,1,.1.1" transform="translate(13.04 5.05)" fill="#ffc800"/>
      <path id="Tracciato_4437" data-name="Tracciato 4437" d="M3.178,1.567a.1.1,0,0,1-.108-.108.108.108,0,1,1,.215,0,.1.1,0,0,1-.108.108m0-.194a.086.086,0,0,0,0,.172.086.086,0,1,0,0-.172" transform="translate(13.03 5.03)"/>
      <path id="Tracciato_4438" data-name="Tracciato 4438" d="M3.17,1.654a.444.444,0,0,1-.108.14.287.287,0,0,0-.075.151l.011.1.065.1a.394.394,0,0,1,.043.194.156.156,0,0,1-.011.118l.086-.129a.444.444,0,0,0,.011-.42.194.194,0,0,1,.022-.151c.032-.054.065-.108.032-.172l-.065-.086.011.065-.022.1" transform="translate(12.22 6.514)" fill="red"/>
      <path id="Tracciato_4439" data-name="Tracciato 4439" d="M3.114,2.47h0L3.1,2.449l.011-.108a.591.591,0,0,0-.054-.183l-.022-.043-.032-.054-.022-.1A.388.388,0,0,1,3.071,1.8l.022-.032.086-.108.011-.086V1.566l-.011-.054.032-.022.065.1a.209.209,0,0,1-.032.194.154.154,0,0,0-.011.14.482.482,0,0,1-.022.42l-.022.032-.065.086V2.47Zm.086-.8h0l-.086.118-.022.022a.287.287,0,0,0-.075.151l.011.086L3.06,2.1l.032.043a.629.629,0,0,1,.043.194v.032h.022l.022-.032a.448.448,0,0,0,.022-.42.215.215,0,0,1,.022-.161A.175.175,0,0,0,3.254,1.6l-.043-.065v.011l.011.022L3.2,1.674" transform="translate(12.201 6.495)"/>
      <path id="Tracciato_4440" data-name="Tracciato 4440" d="M4.245,2.54H3.072l-.054-.032V2.475l.613-.947L3.664,1.5l.054.011.57.947v.054l-.043.032M3.169,2.432h.979l-.474-.775Z" transform="translate(12.523 6.543)" fill="#ffc800"/>
      <path id="Tracciato_4441" data-name="Tracciato 4441" d="M4.009,1.84H3.03l.011-.1a.278.278,0,0,1,.118-.129h.7a.226.226,0,0,1,.129.1.211.211,0,0,1,.022.129" transform="translate(12.64 7.695)" fill="#ffc800"/>
      <path id="Tracciato_4442" data-name="Tracciato 4442" d="M3.05,1.871l-.022-.011.022-.108a.2.2,0,0,1,.118-.129V1.613h.7a.28.28,0,0,1,.151.108l.022.14-.011.011Zm.129-.226a.2.2,0,0,0-.108.118l-.011.075h.947L4,1.742a.219.219,0,0,0-.118-.1Z" transform="translate(12.62 7.686)"/>
      <path id="Tracciato_4443" data-name="Tracciato 4443" d="M3.578,1.578H2.986a.455.455,0,0,0,.14.183.521.521,0,0,0,.441.1l.011-.28" transform="translate(12.21 7.344)" fill="#ffc800"/>
      <path id="Tracciato_4444" data-name="Tracciato 4444" d="M3.469,1.9a.582.582,0,0,1-.344-.108.627.627,0,0,1-.14-.2V1.577H3.6v.3l-.011.011L3.469,1.9m-.452-.3a.549.549,0,0,0,.129.172.588.588,0,0,0,.42.1L3.577,1.6h-.56" transform="translate(12.201 7.334)"/>
      <path id="Tracciato_4445" data-name="Tracciato 4445" d="M3.008,1.783h.538l.075-.118a.284.284,0,0,1,.14-.086A.266.266,0,0,1,4,1.772h.377l.151-.118a.579.579,0,0,1,.3-.1l.14.032c.054.065-.022.183-.022.183a.388.388,0,0,1-.215.161l-.075.011L4.644,2a.152.152,0,0,1-.054.118c-.054.032-.129.011-.14-.032s.075-.151.172-.2.183-.054.226-.129l.011-.032c-.032-.043-.129-.032-.194-.011-.1.043-.118.118-.194.215a1.825,1.825,0,0,1-.248.258l-.065.043L3.32,2.214,3.266,2.17a.691.691,0,0,1-.258-.387" transform="translate(12.425 7.139)" fill="#ffc800"/>
      <path id="Tracciato_4446" data-name="Tracciato 4446" d="M4.179,2.256h0L3.34,2.245l-.011-.011L3.264,2.2a.938.938,0,0,1-.258-.4l.011-.011.011-.011h.527l.075-.118a.277.277,0,0,1,.151-.086.3.3,0,0,1,.248.194h.355l.151-.108V1.653a.661.661,0,0,1,.3-.1c.065,0,.129,0,.161.043.054.075-.022.2-.022.2a.405.405,0,0,1-.226.161l-.075.011v.032c0,.022,0,.108-.065.14H4.5L4.459,2.1c-.032-.065.086-.172.172-.215l.1-.043a.2.2,0,0,0,.118-.086l.011-.032c-.011-.022-.1-.022-.172.011a.32.32,0,0,0-.14.151l-.054.065a1.1,1.1,0,0,1-.237.248l-.065.054ZM3.34,2.213l.839.011.054-.043a1.346,1.346,0,0,0,.237-.237l.054-.075a.34.34,0,0,1,.151-.151c.065-.032.172-.054.2,0V1.76a.228.228,0,0,1-.14.108l-.086.043c-.108.054-.183.151-.172.194l.032.022H4.6a.171.171,0,0,0,.054-.1l-.011-.054V1.965l.011-.011.086-.022a.313.313,0,0,0,.215-.14s.065-.118.022-.172a.131.131,0,0,0-.14-.032.515.515,0,0,0-.291.1l-.151.108V1.8H4.018l-.011-.011c-.054-.118-.14-.194-.226-.183a.167.167,0,0,0-.129.075L3.576,1.8l-.011.011H3.038a.858.858,0,0,0,.248.366l.054.032" transform="translate(12.406 7.129)"/>
      <path id="Tracciato_4447" data-name="Tracciato 4447" d="M3.3,1.646a.111.111,0,0,1-.118.108.108.108,0,0,1,0-.215.111.111,0,0,1,.118.108" transform="translate(13.021 6.953)" fill="#ffc800"/>
      <path id="Tracciato_4448" data-name="Tracciato 4448" d="M3.2,1.794a.124.124,0,0,1-.129-.129.129.129,0,1,1,.258,0,.124.124,0,0,1-.129.129m0-.226a.1.1,0,0,0-.1.1.1.1,0,1,0,.194,0,.1.1,0,0,0-.1-.1" transform="translate(13.011 6.934)"/>
      <path id="Tracciato_4449" data-name="Tracciato 4449" d="M3.265,1.59a.1.1,0,1,1-.1-.1.1.1,0,0,1,.1.1" transform="translate(13.04 6.514)" fill="#ffc800"/>
      <path id="Tracciato_4450" data-name="Tracciato 4450" d="M3.178,1.717a.1.1,0,0,1-.108-.108.108.108,0,1,1,.215,0,.1.1,0,0,1-.108.108m0-.194a.086.086,0,0,0,0,.172.086.086,0,1,0,0-.172" transform="translate(13.03 6.495)"/>
      <path id="Tracciato_4451" data-name="Tracciato 4451" d="M3.17,1.8a.444.444,0,0,1-.108.14.287.287,0,0,0-.075.151l.011.1.065.1a.369.369,0,0,1,.043.194l-.011.108.086-.118a.444.444,0,0,0,.011-.42A.189.189,0,0,1,3.213,1.9c.032-.054.065-.108.032-.172l-.065-.086v.043A.2.2,0,0,1,3.17,1.8" transform="translate(12.22 7.969)" fill="red"/>
      <path id="Tracciato_4452" data-name="Tracciato 4452" d="M3.114,2.62h0L3.1,2.6l.011-.108a.591.591,0,0,0-.054-.183l-.022-.043-.032-.054-.022-.1a.388.388,0,0,1,.086-.161l.022-.032.086-.108.011-.086V1.641h.022l.065.1a.209.209,0,0,1-.032.194.136.136,0,0,0-.011.129.5.5,0,0,1-.022.43l-.032.043-.054.075V2.62Zm.086-.8h0l-.086.118-.022.022a.287.287,0,0,0-.075.151l.011.086.032.054.032.043a.567.567,0,0,1,.043.194v.032h.011l.043-.043A.457.457,0,0,0,3.2,2.071a.215.215,0,0,1,.022-.161.181.181,0,0,0,.032-.161l-.043-.075v.022l.011.022L3.2,1.824" transform="translate(12.201 7.959)"/>
      <path id="Tracciato_4453" data-name="Tracciato 4453" d="M4.245,2.69H3.072l-.054-.032L3.029,2.6l.6-.936.032-.022h.011l.054.022.56.936.011.032-.054.054M3.169,2.572h.979l-.474-.764Z" transform="translate(12.523 8.008)" fill="#ffc800"/>
      <path id="Tracciato_4454" data-name="Tracciato 4454" d="M4.009,1.99H3.03l.011-.1a.278.278,0,0,1,.118-.129h.7a.226.226,0,0,1,.129.1.211.211,0,0,1,.022.129" transform="translate(12.64 9.16)" fill="#ffc800"/>
      <path id="Tracciato_4455" data-name="Tracciato 4455" d="M3.039,2.02,3.028,2.01,3.05,1.9a.2.2,0,0,1,.118-.129V1.762h.7a.28.28,0,0,1,.151.108l.022.14-.011.011h-.99Zm.14-.226a.235.235,0,0,0-.108.118l-.011.075h.947L4,1.891a.219.219,0,0,0-.118-.1Z" transform="translate(12.62 9.14)"/>
      <path id="Tracciato_4456" data-name="Tracciato 4456" d="M3.578,1.728H2.986a.455.455,0,0,0,.14.183.521.521,0,0,0,.441.1l.011-.28" transform="translate(12.21 8.808)" fill="#ffc800"/>
      <path id="Tracciato_4457" data-name="Tracciato 4457" d="M3.469,2.06a.533.533,0,0,1-.344-.118.509.509,0,0,1-.14-.194V1.737L3,1.726l.3.011h.3v.3l-.011.011-.118.011m-.452-.3a.549.549,0,0,0,.129.172.588.588,0,0,0,.42.1l.011-.258L3.3,1.758h-.28" transform="translate(12.201 8.789)"/>
      <path id="Tracciato_4458" data-name="Tracciato 4458" d="M3.008,1.933h.538l.075-.118a.284.284,0,0,1,.14-.086A.266.266,0,0,1,4,1.922h.377L4.525,1.8a.579.579,0,0,1,.3-.1l.14.032c.054.065-.022.183-.022.183a.388.388,0,0,1-.215.161l-.075.011-.011.043s0,.1-.054.129-.129.011-.14-.032.075-.151.172-.2.183-.054.226-.129l.011-.032c-.032-.054-.129-.032-.194-.011-.1.043-.118.118-.194.215a1.825,1.825,0,0,1-.248.258l-.065.043L3.32,2.364l-.043-.032a.719.719,0,0,1-.269-.4" transform="translate(12.425 8.603)" fill="#ffc800"/>
      <path id="Tracciato_4459" data-name="Tracciato 4459" d="M4.179,2.4h0L3.34,2.383H3.329l-.065-.032a.938.938,0,0,1-.258-.4l.011-.011.011-.011h.527l.075-.118a.277.277,0,0,1,.151-.086.3.3,0,0,1,.248.194h.355l.151-.108a.554.554,0,0,1,.3-.108c.065,0,.129,0,.161.043.054.075-.022.2-.022.2a.468.468,0,0,1-.226.161l-.075.022v.022c0,.022,0,.108-.065.14L4.5,2.308l-.043-.054c-.032-.065.086-.172.172-.215L4.728,2a.2.2,0,0,0,.118-.086l.011-.022c-.011-.032-.1-.032-.172,0a.38.38,0,0,0-.14.151L4.491,2.1a1.2,1.2,0,0,1-.237.248L4.19,2.4ZM3.34,2.362l.839.011.054-.043a1.346,1.346,0,0,0,.237-.237l.054-.075a.34.34,0,0,1,.151-.151c.065-.032.172-.054.2,0v.043a.228.228,0,0,1-.14.108l-.086.043c-.108.054-.183.151-.172.194l.032.022H4.6a.119.119,0,0,0,.043-.118V2.114L4.653,2.1l.086-.022a.355.355,0,0,0,.215-.14s.065-.118.022-.172l-.14-.032a.515.515,0,0,0-.291.1l-.151.108v.011H4.018l-.011-.011c-.054-.118-.14-.194-.226-.183a.167.167,0,0,0-.129.075l-.075.118-.011.011H3.038a.858.858,0,0,0,.248.366l.054.032" transform="translate(12.406 8.584)"/>
      <path id="Tracciato_4460" data-name="Tracciato 4460" d="M3.3,1.785a.114.114,0,1,1-.226,0,.106.106,0,0,1,.108-.1.11.11,0,0,1,.118.1" transform="translate(13.021 8.418)" fill="#ffc800"/>
      <path id="Tracciato_4461" data-name="Tracciato 4461" d="M3.2,1.934A.124.124,0,0,1,3.068,1.8a.13.13,0,0,1,.258,0,.124.124,0,0,1-.129.129m0-.226a.1.1,0,0,0-.1.1.1.1,0,1,0,.194,0,.1.1,0,0,0-.1-.1" transform="translate(13.011 8.398)"/>
      <path id="Tracciato_4462" data-name="Tracciato 4462" d="M3.265,1.739a.1.1,0,1,1-.1-.1.1.1,0,0,1,.1.1" transform="translate(13.04 7.969)" fill="#ffc800"/>
      <path id="Tracciato_4463" data-name="Tracciato 4463" d="M3.178,1.867a.111.111,0,0,1-.108-.118.108.108,0,1,1,.215,0,.111.111,0,0,1-.108.118m0-.2a.086.086,0,0,0,0,.172.086.086,0,1,0,0-.172" transform="translate(13.03 7.959)"/>
      <path id="Tracciato_4464" data-name="Tracciato 4464" d="M3.264,1.97a.444.444,0,0,1-.108.14.287.287,0,0,0-.075.151l.011.1.065.1a.566.566,0,0,1,.043.194.156.156,0,0,1-.011.118l.086-.129a.444.444,0,0,0,.011-.42.165.165,0,0,1,.022-.14c.032-.065.065-.118.032-.183l-.065-.086.011.065-.022.1" transform="translate(13.138 9.599)" fill="red"/>
      <path id="Tracciato_4465" data-name="Tracciato 4465" d="M3.208,2.787h0L3.2,2.766V2.755l.011-.1a.507.507,0,0,0-.043-.183l-.032-.043L3.1,2.368l-.022-.1a.388.388,0,0,1,.086-.161l.022-.022.086-.118.011-.086V1.808h.022l.065.086a.18.18,0,0,1-.032.194.161.161,0,0,0-.011.14.5.5,0,0,1-.022.43l-.022.032-.054.086Zm.1-.947v.022l.011.022-.022.108-.086.118-.022.022a.253.253,0,0,0-.075.151l.011.075.032.065.032.043a.575.575,0,0,1,.054.194V2.7l.011-.011.032-.043a.457.457,0,0,0,.011-.409.209.209,0,0,1,.022-.161A.2.2,0,0,0,3.348,1.9L3.305,1.84" transform="translate(13.118 9.589)"/>
      <path id="Tracciato_4466" data-name="Tracciato 4466" d="M4.329,2.857H3.167l-.043-.011-.011-.075.613-.926.043-.032.043.032.57.936.011.032ZM3.264,2.749h.969L3.77,1.974Z" transform="translate(13.45 9.638)" fill="#ffc800"/>
      <path id="Tracciato_4467" data-name="Tracciato 4467" d="M4.1,2.157H3.124l.011-.1a.3.3,0,0,1,.1-.118c.258-.011.484-.011.721-.011a.2.2,0,0,1,.151.226" transform="translate(13.558 10.79)" fill="#ffc800"/>
      <path id="Tracciato_4468" data-name="Tracciato 4468" d="M3.145,2.187l-.022-.011.022-.108a.234.234,0,0,1,.118-.129l.011-.011h.689a.26.26,0,0,1,.151.118.2.2,0,0,1,.022.129l-.011.011Zm.129-.226a.235.235,0,0,0-.108.118l-.011.086H4.1l-.011-.108a.177.177,0,0,0-.118-.086Z" transform="translate(13.548 10.771)"/>
      <path id="Tracciato_4469" data-name="Tracciato 4469" d="M3.673,1.9H3.081a.455.455,0,0,0,.14.183.521.521,0,0,0,.441.1l.011-.28" transform="translate(13.138 10.439)" fill="#ffc800"/>
      <path id="Tracciato_4470" data-name="Tracciato 4470" d="M3.564,2.227a.533.533,0,0,1-.344-.118.509.509,0,0,1-.14-.194V1.9l.011-.011h.3l.291.011h.011l.011.011-.011.28-.011.022-.118.011m-.452-.3a.706.706,0,0,0,.129.172.52.52,0,0,0,.42.086l.011-.258h-.56" transform="translate(13.128 10.419)"/>
      <path id="Tracciato_4471" data-name="Tracciato 4471" d="M3.1,2.1h.538l.075-.129c.022-.011.075-.075.14-.075a.244.244,0,0,1,.237.194H4.47l.151-.118a.618.618,0,0,1,.3-.1l.14.032c.054.065-.022.183-.022.183a.347.347,0,0,1-.226.161l-.086.022.011.032s0,.1-.054.129-.129.011-.14-.032.075-.151.172-.2.183-.054.226-.129l.011-.032c-.022-.054-.118-.043-.194-.011s-.118.118-.194.215A2.158,2.158,0,0,1,4.33,2.5l-.065.043-.85-.011-.054-.043A.822.822,0,0,1,3.1,2.1" transform="translate(13.353 10.234)" fill="#ffc800"/>
      <path id="Tracciato_4472" data-name="Tracciato 4472" d="M4.274,2.572h0l-.839-.011L3.424,2.55l-.065-.043A.826.826,0,0,1,3.1,2.12V2.109L3.123,2.1H3.65l.075-.118a.277.277,0,0,1,.151-.086.3.3,0,0,1,.248.194h.355l.151-.108a.554.554,0,0,1,.3-.108c.065,0,.129,0,.161.043.054.075-.022.2-.022.2a.405.405,0,0,1-.226.161l-.086.011.011.032c0,.022,0,.108-.065.14H4.6l-.054-.043c-.022-.065.1-.172.183-.215l.1-.043a.2.2,0,0,0,.118-.086l.011-.022c-.011-.032-.1-.032-.172,0a.32.32,0,0,0-.14.151L4.6,2.27a1.5,1.5,0,0,1-.248.248l-.065.054Zm-.839-.043.839.011L4.328,2.5a1.2,1.2,0,0,0,.237-.248l.054-.065a.34.34,0,0,1,.151-.151c.065-.032.172-.043.2,0v.043a.228.228,0,0,1-.14.108l-.1.043c-.1.054-.183.151-.161.183l.032.032h.086a.148.148,0,0,0,.043-.118V2.281l.011-.011.086-.022a.336.336,0,0,0,.2-.14s.075-.118.032-.172L4.931,1.9A.515.515,0,0,0,4.64,2l-.151.118H4.113l-.022-.011c-.043-.118-.129-.194-.215-.183A.167.167,0,0,0,3.747,2l-.075.118-.011.011H3.133a.749.749,0,0,0,.248.355l.054.043" transform="translate(13.333 10.214)"/>
      <path id="Tracciato_4473" data-name="Tracciato 4473" d="M3.39,1.963a.118.118,0,0,1-.108.118.119.119,0,0,1-.118-.118.111.111,0,0,1,.118-.108.108.108,0,0,1,.108.108" transform="translate(13.948 10.048)" fill="#ffc800"/>
      <path id="Tracciato_4474" data-name="Tracciato 4474" d="M3.291,2.111a.124.124,0,0,1-.129-.129.129.129,0,0,1,.258,0,.124.124,0,0,1-.129.129m0-.226a.1.1,0,1,0,.1.1.1.1,0,0,0-.1-.1" transform="translate(13.929 10.029)"/>
      <path id="Tracciato_4475" data-name="Tracciato 4475" d="M3.369,1.906a.106.106,0,0,1-.108.1.1.1,0,1,1,0-.194.106.106,0,0,1,.108.1" transform="translate(13.958 9.599)" fill="#ffc800"/>
      <path id="Tracciato_4476" data-name="Tracciato 4476" d="M3.272,2.044a.119.119,0,1,1,.108-.118.111.111,0,0,1-.108.118m0-.2a.086.086,0,1,0,.086.086.093.093,0,0,0-.086-.086" transform="translate(13.948 9.58)"/>
      <path id="Tracciato_4477" data-name="Tracciato 4477" d="M3.17,2.112a.444.444,0,0,1-.108.14.287.287,0,0,0-.075.151L3,2.5l.065.1a.38.38,0,0,1,.043.183.18.18,0,0,1-.011.129l.086-.129a.444.444,0,0,0,.011-.42.194.194,0,0,1,.022-.151c.032-.054.065-.108.032-.172l-.065-.1.011.075-.022.1" transform="translate(12.22 10.878)" fill="red"/>
      <path id="Tracciato_4478" data-name="Tracciato 4478" d="M3.114,2.918h0L3.1,2.908V2.9l.011-.108a.591.591,0,0,0-.054-.183l-.022-.032-.032-.065-.022-.1a.388.388,0,0,1,.086-.161l.022-.022.086-.118.011-.086V2l-.011-.043.032-.022.065.1a.209.209,0,0,1-.032.194.158.158,0,0,0-.011.14.507.507,0,0,1-.022.43l-.022.022-.065.086v.011Zm.086-.8h0l-.086.118-.022.032a.225.225,0,0,0-.075.14l.011.086.032.054.032.043a.629.629,0,0,1,.043.194v.032l.011.011L3.179,2.8a.471.471,0,0,0,.022-.43.221.221,0,0,1,.022-.161.175.175,0,0,0,.032-.161l-.043-.065v.011l.011.022L3.2,2.122" transform="translate(12.201 10.868)"/>
      <path id="Tracciato_4479" data-name="Tracciato 4479" d="M4.245,2.988H3.072l-.054-.022V2.923l.613-.947.032-.032.065.032.56.926v.065l-.043.022M3.169,2.88h.979l-.474-.775Z" transform="translate(12.523 10.917)" fill="#ffc800"/>
      <path id="Tracciato_4480" data-name="Tracciato 4480" d="M4.009,2.288H3.03l.011-.1a.278.278,0,0,1,.118-.129h.7a.226.226,0,0,1,.129.1.211.211,0,0,1,.022.129" transform="translate(12.64 12.069)" fill="#ffc800"/>
      <path id="Tracciato_4481" data-name="Tracciato 4481" d="M3.039,2.319l-.011-.011L3.05,2.2a.264.264,0,0,1,.118-.14h.7a.28.28,0,0,1,.151.108l.022.14-.011.011Zm.14-.226a.2.2,0,0,0-.108.118l-.011.075h.947L4,2.19a.219.219,0,0,0-.118-.1Z" transform="translate(12.62 12.059)"/>
      <path id="Tracciato_4482" data-name="Tracciato 4482" d="M3.578,2.026H2.986a.472.472,0,0,0,.14.194.619.619,0,0,0,.441.1l.011-.291" transform="translate(12.21 11.717)" fill="#ffc800"/>
      <path id="Tracciato_4483" data-name="Tracciato 4483" d="M3.469,2.358a.582.582,0,0,1-.344-.108.627.627,0,0,1-.14-.2V2.035L3,2.024l.3.011h.3v.291l-.011.022-.118.011m-.452-.3a.705.705,0,0,0,.129.172.651.651,0,0,0,.42.1l.011-.269h-.56Z" transform="translate(12.201 11.698)"/>
      <path id="Tracciato_4484" data-name="Tracciato 4484" d="M3.008,2.231h.538l.075-.118a.284.284,0,0,1,.14-.086A.266.266,0,0,1,4,2.22h.377L4.525,2.1a.579.579,0,0,1,.3-.1l.14.032c.054.065-.022.194-.022.194a.416.416,0,0,1-.215.151l-.1.022.011.043s0,.1-.054.118-.129.011-.14-.022c-.022-.054.075-.161.172-.215s.183-.054.226-.129l.011-.032c-.032-.043-.129-.032-.194-.011-.1.043-.118.118-.194.226a1.5,1.5,0,0,1-.248.248l-.065.043L3.32,2.662l-.054-.043a.691.691,0,0,1-.258-.387" transform="translate(12.425 11.512)" fill="#ffc800"/>
      <path id="Tracciato_4485" data-name="Tracciato 4485" d="M4.179,2.7h0L3.34,2.693H3.329l-.065-.054a.826.826,0,0,1-.258-.387l.011-.011.011-.011h.527l.075-.118a.366.366,0,0,1,.151-.086c.1-.011.194.075.248.194h.355l.151-.108A.554.554,0,0,1,4.836,2C4.9,2,4.965,2,5,2.047c.054.075-.022.2-.022.2a.468.468,0,0,1-.226.161l-.075.011v.032c0,.022,0,.108-.065.14H4.5l-.043-.043c-.032-.065.086-.172.172-.215l.1-.043a.2.2,0,0,0,.118-.086l.011-.022c-.011-.032-.1-.032-.172,0a.38.38,0,0,0-.14.151L4.491,2.4a1.2,1.2,0,0,1-.237.248l-.065.043ZM3.34,2.661l.839.011.054-.043a1.2,1.2,0,0,0,.237-.248l.054-.065a.34.34,0,0,1,.151-.151c.065-.032.172-.054.2,0v.043a.228.228,0,0,1-.14.108l-.086.043c-.108.054-.183.151-.172.194l.032.022H4.6a.119.119,0,0,0,.043-.118V2.413L4.653,2.4l.086-.022a.412.412,0,0,0,.215-.14s.065-.118.022-.172-.086-.043-.14-.043a.609.609,0,0,0-.291.108l-.151.108v.011H4.018l-.011-.011c-.054-.118-.14-.194-.226-.183a.167.167,0,0,0-.129.075l-.075.118-.011.011H3.038a.749.749,0,0,0,.248.355l.054.043" transform="translate(12.406 11.503)"/>
      <path id="Tracciato_4486" data-name="Tracciato 4486" d="M3.3,2.1a.111.111,0,0,1-.118.108A.108.108,0,0,1,3.069,2.1a.118.118,0,0,1,.108-.118A.119.119,0,0,1,3.3,2.1" transform="translate(13.021 11.327)" fill="#ffc800"/>
      <path id="Tracciato_4487" data-name="Tracciato 4487" d="M3.2,2.242a.122.122,0,0,1-.129-.118.13.13,0,1,1,.258,0,.122.122,0,0,1-.129.118m0-.226a.1.1,0,0,0-.1.108.1.1,0,1,0,.194,0,.1.1,0,0,0-.1-.108" transform="translate(13.011 11.307)"/>
      <path id="Tracciato_4488" data-name="Tracciato 4488" d="M3.265,2.027a.1.1,0,1,1-.194,0,.1.1,0,0,1,.194,0" transform="translate(13.04 10.888)" fill="#ffc800"/>
      <path id="Tracciato_4489" data-name="Tracciato 4489" d="M3.178,2.165a.1.1,0,0,1-.108-.108.108.108,0,1,1,.215,0,.1.1,0,0,1-.108.108m0-.194a.085.085,0,0,0-.086.086.093.093,0,0,0,.086.086.085.085,0,0,0,.086-.086.079.079,0,0,0-.086-.086" transform="translate(13.03 10.868)"/>
      <path id="Tracciato_4490" data-name="Tracciato 4490" d="M3.17,2.261a.444.444,0,0,1-.108.14.287.287,0,0,0-.075.151l.011.1.065.1a.422.422,0,0,1,.043.194.156.156,0,0,1-.011.118l.086-.129a.444.444,0,0,0,.011-.42.194.194,0,0,1,.022-.151c.032-.054.065-.108.032-.172l-.065-.1.011.075-.022.1" transform="translate(12.22 12.333)" fill="red"/>
      <path id="Tracciato_4491" data-name="Tracciato 4491" d="M3.114,3.067h0L3.1,3.057V3.046l.011-.108a.591.591,0,0,0-.054-.183L3.05,2.734l-.043-.075-.022-.1A.388.388,0,0,1,3.071,2.4l.022-.032.086-.108.011-.086V2.163L3.179,2.11,3.2,2.088a.162.162,0,0,1,.075.1.209.209,0,0,1-.032.194.154.154,0,0,0-.011.14.507.507,0,0,1-.022.43l-.032.043-.054.065v.011Zm.086-.8h0l-.086.118-.022.022a.287.287,0,0,0-.075.151l.011.086L3.06,2.7l.032.043a.629.629,0,0,1,.043.194v.054l.022-.022.032-.043A.456.456,0,0,0,3.2,2.518a.215.215,0,0,1,.022-.161A.175.175,0,0,0,3.254,2.2l-.043-.065v.011l.011.022L3.2,2.271" transform="translate(12.201 12.323)"/>
      <path id="Tracciato_4492" data-name="Tracciato 4492" d="M4.245,3.138H3.072l-.054-.032V3.073l.613-.947.032-.032.065.032.56.926v.054l-.043.032M3.169,3.03h.979l-.474-.775Z" transform="translate(12.523 12.381)" fill="#ffc800"/>
      <path id="Tracciato_4493" data-name="Tracciato 4493" d="M4.009,2.438H3.03l.011-.1a.278.278,0,0,1,.118-.129h.7a.2.2,0,0,1,.151.226" transform="translate(12.64 13.533)" fill="#ffc800"/>
      <path id="Tracciato_4494" data-name="Tracciato 4494" d="M3.039,2.468l-.011-.011L3.05,2.35a.2.2,0,0,1,.118-.129V2.21h.7a.28.28,0,0,1,.151.108l.022.14-.011.011Zm.14-.226a.2.2,0,0,0-.108.118l-.011.075h.947L4,2.339a.219.219,0,0,0-.118-.1Z" transform="translate(12.62 13.514)"/>
      <path id="Tracciato_4495" data-name="Tracciato 4495" d="M3.578,2.176H2.986a.553.553,0,0,0,.14.194.619.619,0,0,0,.441.1l.011-.291" transform="translate(12.21 13.182)" fill="#ffc800"/>
      <path id="Tracciato_4496" data-name="Tracciato 4496" d="M3.469,2.508A.582.582,0,0,1,3.125,2.4a.627.627,0,0,1-.14-.2V2.185L3,2.174l.3.011h.3v.3L3.588,2.5l-.118.011m-.452-.3a.526.526,0,0,0,.129.161.5.5,0,0,0,.42.1l.011-.258h-.56" transform="translate(12.201 13.162)"/>
      <path id="Tracciato_4497" data-name="Tracciato 4497" d="M3.008,2.381h.538l.075-.118a.284.284,0,0,1,.14-.086A.266.266,0,0,1,4,2.37h.377l.151-.118a.579.579,0,0,1,.3-.1l.14.032c.054.065-.022.183-.022.183a.388.388,0,0,1-.215.161l-.075.022-.011.022c0,.032,0,.108-.054.14s-.129.011-.14-.022c-.022-.054.075-.161.172-.215s.183-.054.226-.129V2.306c-.022-.032-.118-.022-.183,0-.1.043-.118.118-.194.226a2.206,2.206,0,0,1-.248.248l-.065.043L3.32,2.812,3.277,2.79a.805.805,0,0,1-.269-.409" transform="translate(12.425 12.977)" fill="#ffc800"/>
      <path id="Tracciato_4498" data-name="Tracciato 4498" d="M4.179,2.853h0L3.34,2.842l-.011-.011L3.264,2.8a.871.871,0,0,1-.258-.4l.011-.011.011-.011h.527l.075-.118a.366.366,0,0,1,.151-.086.3.3,0,0,1,.248.194h.355l.151-.108a.554.554,0,0,1,.3-.108c.065,0,.129,0,.161.043.054.075-.022.2-.022.2a.405.405,0,0,1-.226.161l-.075.011v.032a.144.144,0,0,1-.065.14H4.5L4.459,2.7c-.032-.065.086-.172.172-.215l.1-.043a.2.2,0,0,0,.118-.086l.011-.032c-.011-.022-.1-.022-.172.011a.32.32,0,0,0-.14.151l-.054.065a1.2,1.2,0,0,1-.237.248l-.065.054ZM3.34,2.81l.839.011.054-.043A1.346,1.346,0,0,0,4.47,2.54l.054-.075a.34.34,0,0,1,.151-.151c.065-.032.172-.043.2,0v.043a.228.228,0,0,1-.14.108l-.086.043c-.108.054-.183.151-.172.194l.032.022H4.6a.119.119,0,0,0,.043-.118V2.562l.011-.011.086-.022a.313.313,0,0,0,.215-.14s.065-.118.022-.172l-.14-.032a.515.515,0,0,0-.291.1L4.394,2.4H4.018L4.007,2.39c-.054-.118-.14-.194-.226-.183a.266.266,0,0,0-.129.075L3.576,2.4l-.011.011H3.038a.858.858,0,0,0,.248.366l.054.032" transform="translate(12.406 12.957)"/>
      <path id="Tracciato_4499" data-name="Tracciato 4499" d="M3.3,2.253a.111.111,0,0,1-.118.108.108.108,0,0,1-.108-.108.118.118,0,0,1,.108-.118.119.119,0,0,1,.118.118" transform="translate(13.021 12.782)" fill="#ffc800"/>
      <path id="Tracciato_4500" data-name="Tracciato 4500" d="M3.2,2.392a.124.124,0,0,1-.129-.129.129.129,0,0,1,.258,0,.124.124,0,0,1-.129.129m0-.226a.1.1,0,1,0,.1.1.1.1,0,0,0-.1-.1" transform="translate(13.011 12.772)"/>
      <path id="Tracciato_4501" data-name="Tracciato 4501" d="M3.265,2.187a.1.1,0,1,1-.1-.1.1.1,0,0,1,.1.1" transform="translate(13.04 12.342)" fill="#ffc800"/>
      <path id="Tracciato_4502" data-name="Tracciato 4502" d="M3.178,2.325a.119.119,0,1,1,.108-.118.111.111,0,0,1-.108.118m0-.2a.085.085,0,0,0-.086.086.093.093,0,0,0,.086.086.085.085,0,0,0,.086-.086.079.079,0,0,0-.086-.086" transform="translate(13.03 12.323)"/>
      <path id="Tracciato_4503" data-name="Tracciato 4503" d="M3.284,2.645,3.252,2.57,3.3,2.516a1.269,1.269,0,0,1,.215-.043.233.233,0,0,0,.129-.118l.022-.043a.132.132,0,0,1,.129-.075.237.237,0,0,1,.151.011l.065.065.011.022-.043.086a1.063,1.063,0,0,1-.344.226l-.183.032a.274.274,0,0,1-.161-.032" transform="translate(14.807 13.703)" fill="#ffc8af"/>
      <path id="Tracciato_4504" data-name="Tracciato 4504" d="M3.423,2.705a.209.209,0,0,1-.14-.032l-.032-.086.043-.054.129-.043.086-.022a.192.192,0,0,0,.129-.1l.011-.022.011-.032a.178.178,0,0,1,.14-.086.259.259,0,0,1,.161.022l.065.065.011.054-.043.075-.022.011a1.06,1.06,0,0,1-.323.215.521.521,0,0,1-.194.032H3.423ZM3.3,2.652a.209.209,0,0,0,.14.032h.011l.183-.032a.9.9,0,0,0,.312-.215l.022-.011.043-.065L4,2.329l-.054-.054A.23.23,0,0,0,3.8,2.264a.119.119,0,0,0-.108.054l-.022.032v.032A.25.25,0,0,1,3.52,2.5l-.1.022-.108.032-.043.032.011.054Z" transform="translate(14.797 13.686)"/>
      <path id="Tracciato_4505" data-name="Tracciato 4505" d="M3.258,2.337c.1.086.2.161.3.248l-.129.022c-.086.022-.151.022-.161.075a.081.081,0,0,0,.043.1c.075.054.215-.022.334-.1a1.574,1.574,0,0,0,.409-.355L4,2.283a.313.313,0,0,1-.129.1.339.339,0,0,1-.183.1l-.108-.248a1.266,1.266,0,0,1-.323.108" transform="translate(14.866 13.699)" fill="#ffc800"/>
      <path id="Tracciato_4506" data-name="Tracciato 4506" d="M3.374,2.821,3.321,2.8a.123.123,0,0,1-.054-.129c.011-.054.086-.065.172-.086l.1-.011-.269-.215-.011-.022.334-.108H3.6l.108.237A.518.518,0,0,0,3.88,2.38L4,2.261H4.02l.065.054v.022a2.163,2.163,0,0,1-.42.355.623.623,0,0,1-.291.129M3.3,2.347l.28.215.011.022-.011.011-.14.022a.219.219,0,0,0-.151.065l.043.1c.065.054.2-.043.323-.108a1.93,1.93,0,0,0,.4-.334L4.02,2.294,3.891,2.4a.6.6,0,0,1-.183.1H3.7l-.118-.237Z" transform="translate(14.846 13.699)"/>
      <path id="Tracciato_4507" data-name="Tracciato 4507" d="M3.376,2.337a.928.928,0,0,0,.2.452.446.446,0,0,0,.237.183c.3.075.4-.366.42-.581a.719.719,0,0,0-.387-.172.79.79,0,0,0-.474.118" transform="translate(16.018 13.57)" fill="#ffc800"/>
      <path id="Tracciato_4508" data-name="Tracciato 4508" d="M3.881,3.007,3.816,3A.367.367,0,0,1,3.59,2.8a.982.982,0,0,1-.215-.452V2.34a.672.672,0,0,1,.5-.118.771.771,0,0,1,.387.161v.011a.8.8,0,0,1-.226.56.257.257,0,0,1-.151.054m-.474-.657a.9.9,0,0,0,.183.441.5.5,0,0,0,.248.172.173.173,0,0,0,.172-.032A.751.751,0,0,0,4.236,2.4a.726.726,0,0,0-.366-.161.692.692,0,0,0-.463.108" transform="translate(16.008 13.556)"/>
      <path id="Tracciato_4509" data-name="Tracciato 4509" d="M3.4,2.575l.086.108.086.054a.161.161,0,0,0,.1-.14l.1-.022.011-.1.054-.054c.032-.043.011-.108,0-.108l-.108-.086a.431.431,0,0,1-.118.215.411.411,0,0,1-.2.129" transform="translate(16.272 13.719)" fill="#ffc8af"/>
      <path id="Tracciato_4510" data-name="Tracciato 4510" d="M3.584,2.767l-.108-.054L3.4,2.595V2.584h0a.514.514,0,0,0,.215-.14.755.755,0,0,0,.108-.2V2.229h.011l.108.1h.022a.135.135,0,0,1,0,.118L3.8,2.487a.167.167,0,0,1-.011.108l-.1.032C3.659,2.692,3.627,2.756,3.584,2.767Zm-.151-.172.054.086.1.054a.144.144,0,0,0,.075-.118V2.595H3.67l.086-.011.011-.1V2.477h.022l.043-.043a.056.056,0,0,0,0-.075l-.1-.086a.46.46,0,0,1-.118.2.639.639,0,0,1-.183.118" transform="translate(16.262 13.699)"/>
      <path id="Tracciato_4511" data-name="Tracciato 4511" d="M3.554,2.372H3.543l-.118-.108V2.243h.022l.118.108v.022Z" transform="translate(16.493 13.831)"/>
      <path id="Tracciato_4512" data-name="Tracciato 4512" d="M3.534,2.383H3.523l-.108-.108V2.254h.022l.108.108v.022Z" transform="translate(16.403 13.939)"/>
      <path id="Tracciato_4513" data-name="Tracciato 4513" d="M4.174,2.557a.461.461,0,0,1,.011-.366l.022-.043a.64.64,0,0,0-.129-.7.683.683,0,0,0-.4-.065l-.226.054a.584.584,0,0,0,0,.194l.011.022a.121.121,0,0,1,.011.086l-.032.108a.263.263,0,0,1-.118.1l-.011.011A.176.176,0,0,0,3.431,2h.011l-.011.011H3.4l-.022.054v.065a.138.138,0,0,0,.129-.011h.011l.011.022-.118.032H3.388l-.022.086.011.075.1.032a.482.482,0,0,0,.248,0h.022v.022l-.011.151a.49.49,0,0,1-.086.2.52.52,0,0,0,.172.172.374.374,0,0,0,.43-.075l.065-.14a.35.35,0,0,1-.14-.14M3.6,1.792,3.528,1.76,3.6,1.739l.065.022L3.6,1.792m.226.57H3.819l.011-.022a.687.687,0,0,0,.312-.172h.011l.011.011v.011a.558.558,0,0,1-.334.172" transform="translate(15.403 5.418)" fill="#ffc8af"/>
      <path id="Tracciato_4514" data-name="Tracciato 4514" d="M3.7,1.454v.022a.639.639,0,0,1-.334.183L3.36,1.648l.011-.022a.562.562,0,0,0,.312-.172Z" transform="translate(15.862 6.133)"/>
      <path id="Tracciato_4515" data-name="Tracciato 4515" d="M3.408,1.414l.075.032-.075.032-.075-.032.075-.032" transform="translate(15.598 5.743)"/>
      <path id="Tracciato_4516" data-name="Tracciato 4516" d="M4.269,2.857l.065-.129A.566.566,0,0,1,4.2,2.577a.426.426,0,0,1,0-.366l.022-.054A.6.6,0,0,0,4.1,1.468.662.662,0,0,0,3.709,1.4l-.226.054a.4.4,0,0,0-.011.194l.011.022.022.1-.043.1a.236.236,0,0,1-.108.1l-.011.022.108.022.011.011-.011.022H3.419L3.4,2.082v.065a.132.132,0,0,0,.129-.011h.011l.011.022-.118.032H3.408l-.022.086.011.075.1.032a.525.525,0,0,0,.258,0h.011v.011a.314.314,0,0,1-.011.172.548.548,0,0,1-.075.183.326.326,0,0,0,.161.183.352.352,0,0,0,.43-.075m.086-.151.011.011A.338.338,0,0,1,4.011,3a.354.354,0,0,1-.183-.043.505.505,0,0,1-.183-.194V2.749a.765.765,0,0,0,.086-.194l.011-.14a.482.482,0,0,1-.248,0l-.108-.043-.011-.011-.011-.086.022-.108-.011-.086V2.05l-.065-.065.022-.043a.236.236,0,0,0,.108-.1l.032-.075-.011-.1-.011-.022L3.44,1.565l.011-.108.011-.022A.94.94,0,0,1,3.7,1.382a.692.692,0,0,1,.42.065.663.663,0,0,1,.14.721.469.469,0,0,0-.032.4.527.527,0,0,0,.129.14" transform="translate(15.383 5.398)"/>
      <path id="Tracciato_4517" data-name="Tracciato 4517" d="M4.56,2.669l-.054.054-.1.022L4.42,2.8c-.011.022-.011.065-.054.086l-.1-.022a.223.223,0,0,1-.1-.151s-.075-.011-.1-.065a.144.144,0,0,1,.065-.172c-.043-.022-.086-.054-.086-.1a.123.123,0,0,1,.065-.14.145.145,0,0,1-.108-.054.194.194,0,0,1-.032-.237L3.893,1.9a.33.33,0,0,1-.108-.129l-.118.054c-.1.032-.151.065-.215.043a.175.175,0,0,1-.118-.086.2.2,0,0,1,.032-.226.158.158,0,0,1,.129-.022.813.813,0,0,0,.118-.151l.011.054a.118.118,0,0,0,.129.032c.065-.022.054-.086.129-.118a.161.161,0,0,1,.14.011.137.137,0,0,1,.075.108.4.4,0,0,1,.2-.022c.215.043.312.312.344.387a.82.82,0,0,1,.022.42l.075.065.032.1-.108.1-.075.054-.032.1" transform="translate(15.393 5.059)" fill="#b24800"/>
      <path id="Tracciato_4518" data-name="Tracciato 4518" d="M4.351,2.925,4.286,2.9a.3.3,0,0,1-.108-.161.2.2,0,0,1-.1-.075.153.153,0,0,1,.054-.172.153.153,0,0,1-.086-.1.165.165,0,0,1,.054-.14L4.017,2.2a.21.21,0,0,1-.043-.237L3.91,1.935a.324.324,0,0,1-.118-.129l-.1.054a.508.508,0,0,1-.226.043.268.268,0,0,1-.129-.086.2.2,0,0,1,.032-.248.16.16,0,0,1,.151-.022l.1-.151H3.63l.011.011V1.44a.118.118,0,0,0,.129.032l.054-.054L3.9,1.354a.155.155,0,0,1,.151.022.162.162,0,0,1,.075.1.3.3,0,0,1,.194-.011c.151.032.269.151.355.387a.752.752,0,0,1,.022.409l.075.075a.11.11,0,0,1,.043.108l-.054.054-.075.043-.054.054-.011.032-.032.065-.054.054-.086.032v.043a.114.114,0,0,1-.054.1ZM3.8,1.774h0l.011.011a.269.269,0,0,0,.108.118L4,1.946h.011v.022a.217.217,0,0,0,.032.226l.1.043.022.011-.011.011a.116.116,0,0,0-.065.129.1.1,0,0,0,.086.086l.011.011-.011.011a.149.149,0,0,0-.065.161l.086.054.011.022a.3.3,0,0,0,.1.14l.086.022.032-.086V2.753l.022-.011.075-.022.054-.043.022-.043.022-.054.065-.065.075-.054.032-.022-.032-.1L4.674,2.28V2.269a.818.818,0,0,0-.022-.42c-.086-.215-.194-.334-.334-.366a.3.3,0,0,0-.194.022H4.114L4.1,1.494s-.022-.075-.065-.1a.115.115,0,0,0-.129-.011l-.065.054-.075.054a.117.117,0,0,1-.14-.032L3.619,1.44l-.086.129V1.58a.163.163,0,0,0-.14.011.149.149,0,0,0-.022.2.122.122,0,0,0,.1.075c.065.022.118,0,.2-.043l.118-.054Z" transform="translate(15.376 5.049)"/>
      <path id="Tracciato_4519" data-name="Tracciato 4519" d="M3.935,1.976h0a.21.21,0,0,1-.14-.129.33.33,0,0,1-.043-.183V1.643C3.742,1.611,3.72,1.6,3.666,1.6H3.645a.415.415,0,0,1-.194-.065.347.347,0,0,1-.086-.151V1.363l.022.011a.442.442,0,0,0,.086.14.3.3,0,0,0,.172.054h.043a.112.112,0,0,1,.086.065v.022a.623.623,0,0,0,.032.183.209.209,0,0,0,.129.108v.032Z" transform="translate(15.91 5.245)"/>
      <path id="Tracciato_4520" data-name="Tracciato 4520" d="M3.5,1.643l-.054-.022-.032-.075.022-.011h.011v.054l.075.022c.043,0,.086-.032.086-.065a.087.087,0,0,0-.054-.1l-.011-.011.011-.011a.117.117,0,0,1,.086.118.14.14,0,0,1-.118.1Z" transform="translate(16.408 5.88)"/>
      <path id="Tracciato_4521" data-name="Tracciato 4521" d="M3.743,1.609l-.1-.043-.011-.022-.065-.054A.446.446,0,0,0,3.4,1.47l-.011-.011L3.4,1.448a.475.475,0,0,1,.183.022l.075.054.011.022.108.032.108-.054.011-.011.011.011v.011l-.011.011L3.786,1.6l-.043.011" transform="translate(16.135 6.075)"/>
      <path id="Tracciato_4522" data-name="Tracciato 4522" d="M4.823,1.53c-.1-.032-.269.172-.334.355a.567.567,0,0,0-.022.291,1.323,1.323,0,0,0-.108.377l-.011.28A3.1,3.1,0,0,0,3.9,3.3a2.7,2.7,0,0,0-.344.635.75.75,0,0,0-.237.248c-.161.2-.226.71-.054.818l.118.032a.951.951,0,0,0,.2-.312.75.75,0,0,0,.022-.538l.065-.065c.108-.086.237-.151.344-.237a2.74,2.74,0,0,0,.646-.624l.022-.022c.463-.657.344-1.647.14-1.7" transform="translate(13.914 6.843)" fill="#ffc8af"/>
      <path id="Tracciato_4523" data-name="Tracciato 4523" d="M4.965,1.68c-.032-.086-.075-.14-.118-.151-.118-.032-.291.172-.355.355a.7.7,0,0,0-.022.3,1.432,1.432,0,0,0-.108.366l-.011.28a3.682,3.682,0,0,0-.452.463,2.956,2.956,0,0,0-.344.624,1.379,1.379,0,0,0-.237.258,1.026,1.026,0,0,0-.151.667.232.232,0,0,0,.1.161l.022.011v.011l.118.022a.793.793,0,0,0,.2-.323.784.784,0,0,0,.032-.538l.054-.054h.011c.054-.054.129-.1.194-.151l.14-.086A3.342,3.342,0,0,0,4.7,3.273l.011-.022A1.982,1.982,0,0,0,4.965,1.68M4.7,3.219l-.022.032a3.262,3.262,0,0,1-.646.624l-.14.086-.2.151-.075.075a.728.728,0,0,1-.022.527.614.614,0,0,1-.194.3l-.086-.022a.51.51,0,0,1-.032-.248L3.286,4.7V4.672l-.022.011-.011.054a.646.646,0,0,0,.022.248.25.25,0,0,1-.075-.14A.946.946,0,0,1,3.34,4.2a1.766,1.766,0,0,1,.226-.258h.011a2.235,2.235,0,0,1,.355-.624,2.052,2.052,0,0,1,.452-.463V2.842l.011-.28A1.1,1.1,0,0,1,4.5,2.2V2.186a.53.53,0,0,1,.022-.291c.054-.172.2-.344.3-.344h.011c.043.011.075.065.108.14A1.913,1.913,0,0,1,4.7,3.219" transform="translate(13.902 6.833)"/>
      <path id="Tracciato_4524" data-name="Tracciato 4524" d="M3.222,1.825l-.011-.011-.022.011.011.032a.265.265,0,0,1-.011.129V2h.022a.321.321,0,0,0,.011-.14Z" transform="translate(14.202 9.648)"/>
      <path id="Tracciato_4525" data-name="Tracciato 4525" d="M6.007,3.626,6,3.6a2.354,2.354,0,0,0,.043-.291,1.969,1.969,0,0,0-.2-.872,2.008,2.008,0,0,0-.172-.3H5.652a.183.183,0,0,1-.14-.108.327.327,0,0,1-.269.129.294.294,0,0,1-.194-.1.481.481,0,0,1-.474.183.423.423,0,0,1-.237-.14.43.43,0,0,1-.377.1l-.054-.011a.405.405,0,0,1-.151-.1,1.463,1.463,0,0,1-.344.172L3.381,3.454H3.37a.372.372,0,0,0-.129.248l.032.086.032.129-.032.118-.032.118s0,.129.075.172c.043.032.1.022.194-.011a1.809,1.809,0,0,1,.3-.086c.215-.032.28,0,.312.022l.086.1.075.086a.2.2,0,0,0,.194-.065L4.5,4.325l.032-.054h.011l.043.054.054.086a.286.286,0,0,0,.248.054c.032,0,.118-.022.129-.065V4.358l-.011-.022.065-.022.054.022c.043,0,.065-.032.1-.065A.226.226,0,0,1,5.34,4.2h.075l.14.032c.151.032.183.032.215.011l.054-.086.011-.011.011-.011A.244.244,0,0,0,6.1,4.121a.287.287,0,0,0,.054-.14.522.522,0,0,0-.151-.355m-.872-1.3.022.011.108.355a3.725,3.725,0,0,0,.42,1V3.7l-.011.011L5.663,3.7a3.41,3.41,0,0,1-.42-1l-.118-.355Zm.377,1.313v.011H5.48A1.982,1.982,0,0,0,5.3,3.238V3.217h.011a2.507,2.507,0,0,1,.2.42M4.145,2.862h.011a4.784,4.784,0,0,1,.2,1.022l-.011.011H4.339l-.011-.011a5.416,5.416,0,0,0-.194-1.012Zm-.258-.646H3.9v.011l.1.667.118.743L4.1,3.647,4.08,3.637l-.2-1.41Zm-.086,1L3.811,3.2l.022.011a2.151,2.151,0,0,1,0,.743l-.022.011L3.8,3.949a1.679,1.679,0,0,0,0-.732m1,1.119-.032.011-.1-.054-.011-.022-.054-.065L4.522,4.2l-.065.022a.164.164,0,0,1-.172-.011.126.126,0,0,1-.054-.118l-.032-.1a.108.108,0,0,0-.118-.032l-.129.054-.022.011-.108.065A.49.49,0,0,1,3.6,4.11a.219.219,0,0,1-.183-.1l.011-.022h.011c.022.054.086.075.172.086a.311.311,0,0,0,.2-.022L3.908,4l.032-.011.14-.065.108.022.022.022.054.118L4.3,4.2a.24.24,0,0,0,.151,0,.2.2,0,0,1,.172-.011l.065.065.022.032.086.032H4.8Zm.947-.248H5.727A.423.423,0,0,0,5.5,3.938a.264.264,0,0,0-.215.032l-.022.011-.1.043a.975.975,0,0,1-.248.011l-.129-.043a.232.232,0,0,1-.1-.151L4.7,3.83h.011c.022.065.043.118.086.14L4.92,4a.585.585,0,0,0,.237,0l.086-.043.032-.011a.387.387,0,0,1,.237-.043.618.618,0,0,1,.237.161v.022" transform="translate(14.7 11.786)" fill="#fff"/>
      <path id="Tracciato_4526" data-name="Tracciato 4526" d="M3.738,7.288h.011a.416.416,0,0,0,.194.108.463.463,0,0,0,.366-.1l.022.011a.447.447,0,0,0,.226.129.461.461,0,0,0,.452-.183l.011-.011.011.011a.386.386,0,0,0,.194.1.3.3,0,0,0,.258-.14L5.492,7.2l.011.011a.125.125,0,0,0,.118.108A.093.093,0,0,0,5.708,7.3l-.57-2.368.011-.011a1.034,1.034,0,0,0,.1-.6l-.032-.14a.629.629,0,0,1-.043-.2l.022-.129.022-.022a.974.974,0,0,0,.054-.183l-.022-.129-.054-.086-.032-.086.032-.054.043-.032A.409.409,0,0,0,5.3,3.059a.362.362,0,0,1-.108-.172.522.522,0,0,1,.022-.42A.7.7,0,0,1,5.589,2.1a.653.653,0,0,0-.054-.194.8.8,0,0,0-.377-.4L4.976,1.5l-.1.118a.4.4,0,0,1-.2.1.315.315,0,0,1-.258-.043l-.1-.1-.011-.011L4.3,1.541a.309.309,0,0,0-.194.075.6.6,0,0,0-.2.334l-.011.022L3.846,2.1a.2.2,0,0,1-.054.118l-.086.086-.086.1a.411.411,0,0,0-.075.215.361.361,0,0,0,.065.172.593.593,0,0,0,.183.183l.022.022L3.835,3a3.131,3.131,0,0,1,.011.635l-.054.291a2.576,2.576,0,0,1-.14.409,1.637,1.637,0,0,0-.14.517v.1c.032.032.161-.043.226-.1h.011l.011.011v.011a.526.526,0,0,1-.161.1l-.086.334c-.065.344-.086.6-.118.9-.011.129-.022.269-.043.42-.032.258-.065.517-.108.775l.022.043c.065.065.323-.065.474-.161m.086-1.055-.011.011v.011L3.8,6.244A1.359,1.359,0,0,1,3.76,5.7V5.652a2.617,2.617,0,0,1,.086-.592l.011-.011.022.011a2.617,2.617,0,0,0-.1.592V5.7a1.5,1.5,0,0,0,.043.538m.248-1.205a.5.5,0,0,1-.291-.108V4.91L3.8,4.9a.5.5,0,0,0,.269.1.71.71,0,0,0,.291-.032l.011.011v.011a.749.749,0,0,1-.248.043Zm.312,1.528v.118a1.2,1.2,0,0,1-.054.387H4.319l-.011-.011a1.16,1.16,0,0,0,.043-.387V6.556c.011-.172.011-.355.011-.538V5.932A1.756,1.756,0,0,0,4.3,5.351l.011-.022.011.011a2.233,2.233,0,0,1,.075.592v.086l-.011.538M4.7,4.963l-.065.011a.387.387,0,0,1-.237-.1V4.856h.022a.323.323,0,0,0,.28.075l.011.011Zm.172,2.174H4.857l-.011-.011a2.215,2.215,0,0,1-.1-1l.011-.3.011-.011h.011l-.011.312a2.345,2.345,0,0,0,.108.99ZM4.836,4.813H4.825L4.814,4.8l.011-.011a.18.18,0,0,0,.108-.183.492.492,0,0,0-.1-.215l-.011-.022L4.75,4.264a.187.187,0,0,1-.011-.151L4.75,4.1l.011.022a.147.147,0,0,0,.022.129l.065.108.011.022a.428.428,0,0,1,.1.226.189.189,0,0,1-.118.2m.312.936a2.482,2.482,0,0,0,.215,1.324v.022H5.342a2.457,2.457,0,0,1-.215-1.345l.011-.011ZM5.094,3.984a.316.316,0,0,1-.172.043H4.879A.507.507,0,0,1,4.7,3.984l-.032-.011-.075-.022-.075.011H4.491a.591.591,0,0,1-.42-.075l-.054-.054.011-.022.011.011c.075.118.312.129.441.118L4.5,3.93h.086l.086.022h.032l.172.054a.275.275,0,0,0,.194-.043h.022v.022Zm-.732-.753.011.022-.032.108a.916.916,0,0,0-.054.28l-.022.011H4.255a1.263,1.263,0,0,1,.054-.291l.032-.118ZM4.47,3.3l.011-.011L4.5,3.3a.4.4,0,0,0,.075.269v.022H4.556A.57.57,0,0,1,4.47,3.3m.958-1.313h.011V2a.768.768,0,0,0-.323.215c-.043.043-.108.183-.054.237v.011l-.011.011L5.04,2.467c-.065-.065.011-.215.054-.269a.7.7,0,0,1,.334-.215m-.269-.022.065-.086.022-.011v.022l-.065.1-.022.011-.032.022v.011l-.011-.011V2l.011-.022.032-.022m-.5.172h.011l.075-.1.14-.14L5.1,1.746l.022.011v.011a1.651,1.651,0,0,0-.226.151l-.129.14-.075.1H4.685l-.054.1-.011.011H4.61L4.6,2.251l.065-.118m-.194.323.011-.011.011.011a.537.537,0,0,0,.022.344.378.378,0,0,0,.248.172A.406.406,0,0,0,5.116,2.9l.022.011v.011a.421.421,0,0,1-.28.1L4.76,3a.423.423,0,0,1-.269-.194L4.481,2.8a.477.477,0,0,1-.011-.344m-.1.377h.011a.86.86,0,0,0,.14.237,1.432,1.432,0,0,0,.151.2,1.231,1.231,0,0,0,.355.248v.022l-.011.011H5.008a1.288,1.288,0,0,1-.355-.269c-.054-.054-.1-.129-.151-.194a.924.924,0,0,1-.14-.248Zm-.054.011H4.33v.011a.591.591,0,0,1-.1.355,1.443,1.443,0,0,1-.194.3v.011H4.029L4.018,3.5A2.8,2.8,0,0,0,4.2,3.2a.591.591,0,0,0,.108-.344Zm-.14-1.109H4.19v.011a.363.363,0,0,0-.108.269l.054.129.011.032a1.051,1.051,0,0,1,.108.474l-.011.011L4.233,2.65a1.324,1.324,0,0,0-.108-.463l-.011-.022-.054-.151a.306.306,0,0,1,.118-.28m-.237.344.011-.011.022.011a.286.286,0,0,0,.032.2l.054.086.054.1a.4.4,0,0,1,.032.215l-.011.011H4.126l-.011-.011a.32.32,0,0,0-.022-.2l-.065-.1-.043-.086a.336.336,0,0,1-.043-.215m-.054.893L3.9,2.962a.273.273,0,0,0,.2-.022.3.3,0,0,0,.14-.118l.022-.011.011.022-.022.022-.14.118L3.964,3,3.9,2.994l-.011-.011ZM3.8,4.716a.4.4,0,0,1-.022-.194.492.492,0,0,1,.1-.215l.032-.054a.27.27,0,0,0,.054-.269l.011-.022h.011L4,3.973a.338.338,0,0,1-.054.291L3.9,4.318a.511.511,0,0,0-.1.2.268.268,0,0,0,.032.183l-.011.022H3.813Zm-.043.3.011-.011.011.022A5.9,5.9,0,0,0,3.6,6.675v.011l-.022-.011A5.6,5.6,0,0,1,3.76,5.017" transform="translate(14.719 6.563)" fill="#fff"/>
      <path id="Tracciato_4527" data-name="Tracciato 4527" d="M3.432,2.165V2.143h.022a2.966,2.966,0,0,1,.194.42v.011H3.636l-.011-.011a2.721,2.721,0,0,0-.194-.4" transform="translate(16.564 12.86)"/>
      <path id="Tracciato_4528" data-name="Tracciato 4528" d="M3.448,2.071c.043.118.075.237.108.355a3.519,3.519,0,0,0,.42.99l.011.022H3.954a3.794,3.794,0,0,1-.42-1.012l-.118-.344.011-.022Z" transform="translate(16.408 12.049)"/>
      <path id="Tracciato_4529" data-name="Tracciato 4529" d="M3.455,1.9a2.383,2.383,0,0,0,.215,1.324v.022H3.649A2.371,2.371,0,0,1,3.423,1.9l.022-.011Z" transform="translate(16.423 10.409)"/>
      <path id="Tracciato_4530" data-name="Tracciato 4530" d="M3.461,1.629l.065-.086.022-.011v.022l-.065.1-.022.011-.032.022-.011.011V1.672l.011-.022.032-.022" transform="translate(16.423 6.895)"/>
      <path id="Tracciato_4531" data-name="Tracciato 4531" d="M3.831,1.565a.693.693,0,0,0-.323.2c-.032.054-.108.183-.054.237v.022H3.433c-.065-.065.011-.215.054-.269a.754.754,0,0,1,.334-.215h.022Z" transform="translate(16.327 7.002)"/>
      <path id="Tracciato_4532" data-name="Tracciato 4532" d="M3.492,3.222a2.23,2.23,0,0,1-.1-1l.011-.3L3.416,1.9l.011.011-.011.312a2.343,2.343,0,0,0,.1.99v.022H3.5Z" transform="translate(16.074 10.468)"/>
      <path id="Tracciato_4533" data-name="Tracciato 4533" d="M3.407,1.9a.282.282,0,0,1-.022-.161h.022l.011.011a.214.214,0,0,0,.011.14l.065.1.022.022a.428.428,0,0,1,.1.237.221.221,0,0,1-.129.2L3.472,2.44V2.418a.15.15,0,0,0,.108-.172.382.382,0,0,0-.086-.215l-.022-.022L3.407,1.9" transform="translate(16.072 8.925)"/>
      <path id="Tracciato_4534" data-name="Tracciato 4534" d="M3.936,2.36l-.086.032A.484.484,0,0,1,3.6,2.4l-.129-.032a.4.4,0,0,1-.1-.151L3.387,2.2l.022.011a.225.225,0,0,0,.075.14l.129.032a.894.894,0,0,0,.237-.011l.075-.032.032-.022a.321.321,0,0,1,.237-.032.468.468,0,0,1,.237.161l.011.011-.022.011-.011-.011a.52.52,0,0,0-.215-.151.443.443,0,0,0-.226.032l-.032.022" transform="translate(16.018 13.406)"/>
      <path id="Tracciato_4535" data-name="Tracciato 4535" d="M3.456,1.93l-.054.1-.022.011L3.37,2.027c0-.054.043-.086.065-.118h.011l.075-.1.129-.14a1.375,1.375,0,0,1,.226-.151l.022.011-.011.011-.215.151-.129.14-.086.086Z" transform="translate(15.959 6.788)"/>
      <path id="Tracciato_4536" data-name="Tracciato 4536" d="M3.465,1.944v.011l-.011.011-.011-.011a.533.533,0,0,1-.086-.28l.011-.011.022.011a.559.559,0,0,0,.075.269" transform="translate(15.832 8.184)"/>
      <path id="Tracciato_4537" data-name="Tracciato 4537" d="M3.678,2.123a.413.413,0,0,0,.355-.075h.022v.022a.442.442,0,0,1-.28.1l-.1-.011a.419.419,0,0,1-.28-.194V1.951A.507.507,0,0,1,3.377,1.6l.011-.011.022.022a.426.426,0,0,0,.022.344.354.354,0,0,0,.248.172" transform="translate(15.812 7.412)"/>
      <path id="Tracciato_4538" data-name="Tracciato 4538" d="M3.372,1.81a.332.332,0,0,0,.28.075l.022.011-.022.022H3.587a.376.376,0,0,1-.237-.086V1.81Z" transform="translate(15.764 9.609)"/>
      <path id="Tracciato_4539" data-name="Tracciato 4539" d="M3.648,2.084,3.487,1.89a1.126,1.126,0,0,1-.14-.248V1.632l.022-.011v.011a1.055,1.055,0,0,0,.14.237l.151.194A1.158,1.158,0,0,0,4,2.321l.011.022H4a.979.979,0,0,1-.355-.258" transform="translate(15.735 7.764)"/>
      <path id="Tracciato_4540" data-name="Tracciato 4540" d="M3.445,1.659l.011.022-.032.108a.859.859,0,0,0-.054.28l-.022.011-.011-.011a1.379,1.379,0,0,1,.054-.291l.043-.108Z" transform="translate(15.637 8.135)"/>
      <path id="Tracciato_4541" data-name="Tracciato 4541" d="M3.438,2.543c0,.183,0,.355-.011.538V3.2a1.128,1.128,0,0,1-.043.377l-.022.011-.011-.022a1.067,1.067,0,0,0,.043-.377l.011-.108V2.457a1.756,1.756,0,0,0-.065-.581l.011-.022.022.011a1.853,1.853,0,0,1,.065.592Z" transform="translate(15.676 10.038)"/>
      <path id="Tracciato_4542" data-name="Tracciato 4542" d="M3.518,3.132a5.254,5.254,0,0,0-.194-1.012V2.11h.022a5.378,5.378,0,0,1,.2,1.022l-.022.011H3.518Z" transform="translate(15.51 12.538)"/>
      <path id="Tracciato_4543" data-name="Tracciato 4543" d="M3.374,1.949,3.32,1.81a.366.366,0,0,1,.118-.291H3.46v.022a.314.314,0,0,0-.108.269l.043.129.022.022a1.313,1.313,0,0,1,.108.484L3.5,2.455l-.011-.011a.976.976,0,0,0-.108-.463l-.011-.032" transform="translate(15.46 6.768)"/>
      <path id="Tracciato_4544" data-name="Tracciato 4544" d="M3.338,1.724c.075.118.3.14.441.118H3.8l.075-.011.086.022.032.011.172.043a.262.262,0,0,0,.194-.043h.022l.011.011-.011.011a.3.3,0,0,1-.172.054H4.166l-.183-.054-.022-.011-.086-.022L3.8,1.864H3.779a.541.541,0,0,1-.42-.075l-.043-.054V1.713Z" transform="translate(15.432 8.662)"/>
      <path id="Tracciato_4545" data-name="Tracciato 4545" d="M3.53,2a1.792,1.792,0,0,1-.194.3v.011L3.326,2.3l-.011-.011a2.365,2.365,0,0,0,.194-.3.668.668,0,0,0,.1-.344l.022-.022.011.011A.634.634,0,0,1,3.53,2" transform="translate(15.422 7.774)"/>
      <path id="Tracciato_4546" data-name="Tracciato 4546" d="M3.462,1.96l-.054-.1-.054-.086a.336.336,0,0,1-.043-.215l.022-.011h.011a.286.286,0,0,0,.043.2l.043.086.054.108a.264.264,0,0,1,.032.215l-.011.011H3.494l-.011-.022a.3.3,0,0,0-.022-.194" transform="translate(15.35 7.08)"/>
      <path id="Tracciato_4547" data-name="Tracciato 4547" d="M3.529,1.781l-.14.032L3.314,1.8,3.3,1.792l.011-.011a.43.43,0,0,0,.2-.022.358.358,0,0,0,.151-.129L3.69,1.62v.022l-.011.022a.387.387,0,0,1-.151.118" transform="translate(15.305 7.754)"/>
      <path id="Tracciato_4548" data-name="Tracciato 4548" d="M3.537,3.47v.011H3.526L3.515,3.47,3.3,2.071V2.049h.022V2.06l.108.667Z" transform="translate(15.274 11.944)"/>
      <path id="Tracciato_4549" data-name="Tracciato 4549" d="M3.293,2.884a2.029,2.029,0,0,0,0-.721L3.3,2.141l.022.011a1.917,1.917,0,0,1-.011.743L3.3,2.905Z" transform="translate(15.207 12.84)"/>
      <path id="Tracciato_4550" data-name="Tracciato 4550" d="M3.512,1.738a.338.338,0,0,1-.054.291l-.032.054a.744.744,0,0,0-.108.2.268.268,0,0,0,.032.183l-.011.022H3.329V2.48A.3.3,0,0,1,3.3,2.287.579.579,0,0,1,3.4,2.071l.032-.054a.286.286,0,0,0,.043-.269l.011-.022H3.5Z" transform="translate(15.204 8.799)"/>
      <path id="Tracciato_4551" data-name="Tracciato 4551" d="M3.637,1.943H3.584a.579.579,0,0,1-.28-.1l-.011-.022.022-.011a.413.413,0,0,0,.269.1.692.692,0,0,0,.291-.032l.022.011-.011.022a1.043,1.043,0,0,1-.248.032" transform="translate(15.207 9.648)"/>
      <path id="Tracciato_4552" data-name="Tracciato 4552" d="M3.3,2.44a3.126,3.126,0,0,1,.086-.592L3.4,1.827l.022.022a2.521,2.521,0,0,0-.1.592v.032a1.764,1.764,0,0,0,.043.538l-.011.022H3.341a1.4,1.4,0,0,1-.043-.56Z" transform="translate(15.181 9.775)"/>
      <path id="Tracciato_4553" data-name="Tracciato 4553" d="M3.482,1.846A5.526,5.526,0,0,0,3.3,3.492V3.5l-.022-.011A5.3,5.3,0,0,1,3.46,1.835l.011-.011Z" transform="translate(15.03 9.746)"/>
      <path id="Tracciato_4554" data-name="Tracciato 4554" d="M4.043,2.278a.119.119,0,0,0-.118-.043.236.236,0,0,0-.129.054l-.022.022-.108.054a.39.39,0,0,1-.226.022c-.1-.011-.161-.043-.183-.1V2.267h.022a.179.179,0,0,0,.161.1.444.444,0,0,0,.215-.022l.1-.054.022-.022a.317.317,0,0,1,.14-.054.214.214,0,0,1,.118.011l.022.022.043.118.043.108a.15.15,0,0,0,.151,0,.192.192,0,0,1,.172-.011l.054.075.022.032.086.032h.022l-.011.022-.022.011a.113.113,0,0,1-.1-.054l-.022-.032-.043-.054a.1.1,0,0,0-.1-.011l-.065.011a.194.194,0,0,1-.172,0l-.043-.118-.032-.1" transform="translate(14.856 13.5)"/>
      <path id="Tracciato_4555" data-name="Tracciato 4555" d="M3.335,9.578c.043.032.1.011.194-.011a1.25,1.25,0,0,1,.312-.086c.2-.032.28,0,.312.022a.245.245,0,0,1,.086.1c.022.032.032.065.075.075a.192.192,0,0,0,.194-.065l.022-.032.022-.054h.011l.043.043.065.1a.281.281,0,0,0,.248.054c.032,0,.108-.022.118-.065V9.61l-.011-.032L5.1,9.567l.054.011.1-.054.118-.086.065.011.151.032c.151.032.183.032.215.011l.054-.1.011-.011h.011a.246.246,0,0,0,.248-.011.21.21,0,0,0,.054-.14.425.425,0,0,0-.151-.355V8.856a1.336,1.336,0,0,0,.032-.291,1.794,1.794,0,0,0-.2-.872,1.766,1.766,0,0,0-.172-.312.182.182,0,0,1-.151-.1.321.321,0,0,1-.258.129.329.329,0,0,1-.2-.108.5.5,0,0,1-.474.194.391.391,0,0,1-.226-.14.468.468,0,0,1-.387.1l-.054-.022-.14-.086a1.14,1.14,0,0,1-.344.161L3.41,8.7,3.4,8.706a.374.374,0,0,0-.129.237l.032.1.032.129L3.3,9.287l-.043.108s.011.14.075.183M3.3,7.479c.065.075.334-.065.484-.161H3.8a.341.341,0,0,0,.194.108.431.431,0,0,0,.366-.086h.022a.544.544,0,0,0,.226.14.469.469,0,0,0,.452-.194l.011-.011.011.011a.315.315,0,0,0,.194.1.3.3,0,0,0,.258-.14h.011l.011.011a.152.152,0,0,0,.118.108l.086-.032-.57-2.357L5.2,4.96a1.056,1.056,0,0,0,.1-.613l-.043-.14A1.162,1.162,0,0,1,5.218,4l.022-.118.011-.032A.369.369,0,0,0,5.3,3.669a.291.291,0,0,0-.011-.129L5.24,3.454l-.032-.086.032-.054.032-.032A.316.316,0,0,0,5.347,3.1a.457.457,0,0,1-.108-.183.524.524,0,0,1,.022-.42.74.74,0,0,1,.377-.366.653.653,0,0,0-.054-.194.851.851,0,0,0-.377-.4l-.194-.011-.086.118a.491.491,0,0,1-.2.108A.356.356,0,0,1,4.465,1.7l-.1-.086L4.357,1.6V1.592L4.347,1.57a.387.387,0,0,0-.194.075.676.676,0,0,0-.215.344V2l-.043.129-.054.118-.086.086-.086.1a.419.419,0,0,0-.075.226l.054.161a.664.664,0,0,0,.194.194l.022.011.022.011a2.508,2.508,0,0,1,0,.635,1.324,1.324,0,0,1-.043.291,2.246,2.246,0,0,1-.14.409,1.722,1.722,0,0,0-.14.517L3.55,4.96l.011.022c.032.032.161-.032.226-.086L3.8,4.885l.011.011v.011a.526.526,0,0,1-.161.1l-.086.334a7.752,7.752,0,0,0-.118.9c-.011.129-.022.269-.043.43-.032.248-.065.506-.108.764l.011.043m.108.043-.032.011L3.292,7.5,3.26,7.436c.043-.258.086-.517.108-.775.022-.151.032-.291.043-.42a7.6,7.6,0,0,1,.129-.9c.022-.108.043-.215.075-.323H3.561L3.529,4.96V4.885a1.79,1.79,0,0,1,.151-.527,4.142,4.142,0,0,0,.14-.4l.043-.291a2.425,2.425,0,0,0-.011-.624.622.622,0,0,1-.226-.215.362.362,0,0,1-.054-.172.419.419,0,0,1,.075-.248l.1-.1.075-.075.054-.108.032-.14.011-.011a.756.756,0,0,1,.215-.355.777.777,0,0,1,.215-.1l.011.011.022.043.1.1a.334.334,0,0,0,.248.043.313.313,0,0,0,.183-.1L5,1.506l.011-.011.2.022a.861.861,0,0,1,.4.409l.054.215-.011.011a.668.668,0,0,0-.377.355.559.559,0,0,0-.022.4.362.362,0,0,0,.108.172v.011a.293.293,0,0,1-.075.215l-.032.032-.022.022.022.075.054.1.022.151a.346.346,0,0,1-.065.194L5.261,3.9a.455.455,0,0,0,.022.312l.032.14a.987.987,0,0,1-.1.613l.57,2.368v.011l-.075.043a1.96,1.96,0,0,1,.161.291,1.911,1.911,0,0,1,.215.893l-.032.291a.558.558,0,0,1,.151.377.233.233,0,0,1-.065.151.238.238,0,0,1-.269.032q-.016.081-.065.1c-.032.022-.075.032-.237,0l-.14-.043H5.38a.165.165,0,0,0-.108.075.164.164,0,0,1-.118.065l-.065-.022-.022-.011v.086c-.022.054-.118.075-.151.075l-.075.011a.265.265,0,0,1-.194-.065l-.065-.108-.011-.022-.011.011-.032.065a.223.223,0,0,1-.226.075c-.054-.022-.065-.054-.1-.1l-.075-.086c-.011-.011-.065-.054-.291-.011a2.427,2.427,0,0,0-.3.075c-.1.032-.161.054-.215.011a.248.248,0,0,1-.086-.2l.032-.118L3.3,9.169,3.27,9.05l-.032-.1a.39.39,0,0,1,.14-.258Z" transform="translate(14.671 6.534)"/>
      <path id="Tracciato_4556" data-name="Tracciato 4556" d="M3.744,4.063c.1-.2.14-.43.2-.57.129-.291.28-.474.215-.678-.043-.108-.118-.2-.172-.312a.508.508,0,0,1-.043-.646.744.744,0,0,1,.323-.3,1.929,1.929,0,0,1,.172.549,3.632,3.632,0,0,1,.129.775l.022.3-.011.043a.537.537,0,0,0-.118.183c-.065.129-.194.323-.334.6a2.822,2.822,0,0,1-.226.4.436.436,0,0,1,.011.172.581.581,0,0,1-.086.291l.043.054c.011.075-.075.172-.161.194a.251.251,0,0,1-.28-.086c-.14-.151.032-.474.054-.517l.14-.226.118-.226" transform="translate(16.037 7.119)" fill="#ffc8af"/>
      <path id="Tracciato_4557" data-name="Tracciato 4557" d="M3.652,5.149a.239.239,0,0,1-.215-.108c-.129-.14-.022-.387.054-.527l.043-.086.1-.14a1.206,1.206,0,0,0,.118-.237,2.129,2.129,0,0,0,.129-.334A.83.83,0,0,1,3.953,3.5l.1-.215c.1-.194.161-.312.118-.452L4.05,2.619,4,2.512a.529.529,0,0,1-.043-.657.717.717,0,0,1,.334-.3h.022a2.157,2.157,0,0,1,.14.43l.032.118a6.646,6.646,0,0,1,.129.786l.011.3-.011.032-.118.194-.1.172a4.554,4.554,0,0,0-.237.43,1.928,1.928,0,0,1-.226.387.533.533,0,0,1,.022.183.931.931,0,0,1-.086.28l.032.054c.022.086-.065.172-.161.226H3.652m.635-3.573a.679.679,0,0,0-.312.28.513.513,0,0,0,.043.635l.054.108a1.069,1.069,0,0,1,.118.215c.054.161-.022.3-.118.5l-.1.194L3.9,3.717a2,2,0,0,1-.129.355L3.652,4.3l-.1.14-.043.1c-.054.1-.172.366-.065.506a.323.323,0,0,0,.28.075c.075-.022.161-.129.14-.194L3.835,4.88V4.869a.564.564,0,0,0,.086-.28L3.91,4.406a3.61,3.61,0,0,0,.226-.387c.086-.183.172-.323.237-.441l.1-.183.118-.172L4.6,3.19l-.022-.3a3.56,3.56,0,0,0-.129-.764L4.416,2a1.593,1.593,0,0,0-.129-.42" transform="translate(16.022 7.11)"/>
      <path id="Tracciato_4558" data-name="Tracciato 4558" d="M3.614,2.21h0L3.6,2.2V2.178a.2.2,0,0,0-.043-.183.394.394,0,0,0-.172-.108l-.011-.022.011-.011a.438.438,0,0,1,.194.129l.054.108.011-.032a.351.351,0,0,1,.215-.194l.022.011L3.872,1.9a.314.314,0,0,0-.2.183l-.022.065-.011.043L3.625,2.2Z" transform="translate(16.027 10.048)"/>
    </g>
  </g>
</svg>
