<svg xmlns="http://www.w3.org/2000/svg" xmlns:xlink="http://www.w3.org/1999/xlink" width="24" height="24" viewBox="0 0 24 24">
  <defs>
    <clipPath id="clip-path">
      <path id="Tracciato_4157" data-name="Tracciato 4157" d="M.621,12.749a12,12,0,1,0,12-12,12,12,0,0,0-12,12" transform="translate(-0.621 -0.749)" fill="none"/>
    </clipPath>
  </defs>
  <g id="Isole_Marianne_Settentrionali" data-name="Isole Marianne Settentrionali" transform="translate(-0.621 -0.749)">
    <g id="Raggruppa_167" data-name="Raggruppa 167" transform="translate(0.621 0.749)" clip-path="url(#clip-path)">
      <rect id="Rettangolo_371" data-name="Rettangolo 371" width="37.378" height="24" transform="translate(-6.683 0)" fill="#0072ca"/>
      <path id="Tracciato_3940" data-name="Tracciato 3940" d="M5.7,16.649l-.032-.011-.161.022-.075.022a.526.526,0,0,1-.42-.2,2.43,2.43,0,0,1-.237-.4l-.022-.054L4.7,15.938l.248.011h.075a.368.368,0,0,0,.183-.032l.022-.054-.054-.011a.769.769,0,0,1-.226.022,1.471,1.471,0,0,1-.484-.075H4.437a.679.679,0,0,1-.28-.9l-.011-.054-.054.011a.776.776,0,0,0-.086.43A.388.388,0,0,1,3.6,15.11l-.1-.118a1.158,1.158,0,0,0-.366-.355l-.086-.065-.054-.108-.065-.118a.806.806,0,0,0,.226.022,1.3,1.3,0,0,0,.409-.065l.022-.054-.054-.022a1.044,1.044,0,0,1-.786-.022H2.737l-.011-.011-.151-.086a2.048,2.048,0,0,1-.323-.387.46.46,0,0,1-.075-.42c.032-.108.1-.14.183-.183a.51.51,0,0,1,.334.022l.054-.022-.022-.054a.6.6,0,0,0-.387-.022.382.382,0,0,0-.172.118.88.88,0,0,0-.215-.129L1.8,12.957a.54.54,0,0,1-.14-.753V12.15a1.316,1.316,0,0,1-.3-.409.472.472,0,0,1,.065-.452l.011-.043a1.616,1.616,0,0,1-.366-.409.485.485,0,0,1,0-.484l.054-.075a.579.579,0,0,0,.1-.129.578.578,0,0,0-.075-.441l-.011-.043a.755.755,0,0,1-.075-.377.371.371,0,0,1,.183-.3l.022-.022-.011-.043a1.111,1.111,0,0,1-.323-.839L.95,7.953a.394.394,0,0,1,.129-.14.446.446,0,0,0,.129-.118.678.678,0,0,0,.075-.463l-.011-.194a1.02,1.02,0,0,1,.6-.829.574.574,0,0,0,.312.226L2.231,6.4,2.209,6.36a.524.524,0,0,1-.323-.269,1.158,1.158,0,0,1-.075-.764,1.084,1.084,0,0,1,.5-.635l.043-.022.1-.054a.851.851,0,0,0,.054.441l.043.022h.022l.011-.054a.717.717,0,0,1-.011-.538l.086-.194.043-.118a.681.681,0,0,1,.291-.312l.161-.118a1.621,1.621,0,0,1,.624-.377h.011L3.9,3.325l.054-.075V3.239a1.406,1.406,0,0,1,1.227-.71l.086-.011a.106.106,0,0,0,.075-.075l.065-.118a.926.926,0,0,1,.215-.28.7.7,0,0,1,.312-.14,1.751,1.751,0,0,1,.818.011l.054.011a1.4,1.4,0,0,1-.344.452v.054l.032.011H6.5a1.4,1.4,0,0,0,.409-.57l.032-.065c.054-.161.118-.28.269-.312a1.106,1.106,0,0,1,.42.022l.151.032a.957.957,0,0,0,.57-.043,1.312,1.312,0,0,1-.517.387l-.022.054.022.032.032-.011a1.5,1.5,0,0,0,.667-.57l.043-.054.011-.011a.761.761,0,0,1,.592-.269.846.846,0,0,1,.6.291c.043.043.086.1.151.1a.236.236,0,0,0,.129-.054,1.458,1.458,0,0,1,.474-.215.608.608,0,0,1,.484.1l.065.065a.443.443,0,0,0,.215.14l.194-.032.011-.011a.737.737,0,0,1,.484,0,.641.641,0,0,1,.226.194l.129.14.054.032a.5.5,0,0,1,.118.2,1.686,1.686,0,0,1,.054.323l.043.032.032-.043a1.908,1.908,0,0,0-.054-.344.8.8,0,0,0-.086-.161l.086-.011a1.635,1.635,0,0,1,1.022.108,1.551,1.551,0,0,1,.409.43.575.575,0,0,1,.129.3v.032l.054.011a.978.978,0,0,1,.775.108.989.989,0,0,1,.42.635.722.722,0,0,0-.183.086,1.179,1.179,0,0,0-.248.226l.011.065.022.011.032-.022a1.042,1.042,0,0,1,.226-.215.492.492,0,0,1,.291-.075.386.386,0,0,1,.28.183.548.548,0,0,1,.065.226.591.591,0,0,0,.075.258l.043.043.086.161.032.14.022.161.043.043.032-.054-.022-.161-.032-.151-.022-.032.161.054.14.054a.737.737,0,0,1,.4.581l.022.032a.959.959,0,0,1,.56,1.087l.011.032.022.011c.172.032.334.226.474.549a1.189,1.189,0,0,1-.011,1.033.622.622,0,0,1-.452.344l-.043.043.043.032a.625.625,0,0,0,.441-.258,1.463,1.463,0,0,1,.355.689.871.871,0,0,1-.183.753v.054a1.124,1.124,0,0,1,.161,1.109l-.043.086-.075.183-.022.2.011.258a2.329,2.329,0,0,1,0,.387.586.586,0,0,1-.592.6h-.387l-.043.043.043.032h.387A.418.418,0,0,0,17.7,12.3v.022l.032.118.011.011a.393.393,0,0,1-.108.43.709.709,0,0,1-.387.161h-.022l-.011.011A.87.87,0,0,1,16.921,13a1.556,1.556,0,0,1-.312-.118l-.054.022.022.054c.108.043.215.1.323.129l.237.043c.011.075.011.344.011.377a1.105,1.105,0,0,1-.14.334,2.287,2.287,0,0,1-.9.775.916.916,0,0,1-.786-.065l-.065.011.022.065a1.04,1.04,0,0,0,.506.129l.151-.011-.075.151v.011a1.6,1.6,0,0,1-.291.527.81.81,0,0,1-.323.183h-.118l-.086-.011a.467.467,0,0,1-.226-.054,1.149,1.149,0,0,1-.269-.172l-.065.011.011.054a2.652,2.652,0,0,0,.291.183l.118.043-.054.118V15.8a.825.825,0,0,1-.71.624l-.108.011-.14.011a.574.574,0,0,1-.269-.054.627.627,0,0,1-.194-.118l-.043-.032-.065.011.022.054.043.043a1.018,1.018,0,0,0,.215.118l.108.032-.129.118-.043.043a1.239,1.239,0,0,1-.926.291,3.682,3.682,0,0,1-.5-.043,4.737,4.737,0,0,0-.549-.054,4.347,4.347,0,0,0-1.765.484,2.926,2.926,0,0,0-1.55-.441l-.108-.011c-.161-.011-.312-.022-.463-.022a2.387,2.387,0,0,0-.4.032,2.641,2.641,0,0,0-.312.086c-.108.032-.215.075-.323.1a.681.681,0,0,1-.581-.118l-.108-.108-.075-.086a1.513,1.513,0,0,1-.334-.743L5.5,15.992l-.032.054a1.519,1.519,0,0,0,.226.6M4.512,5.7a.872.872,0,0,1-.409.613l-.022.011-.1.065-.011-.065a.565.565,0,0,0-.065-.215l-.054-.022-.011.054.054.194.011.215a.809.809,0,0,0,0,.161l.011.129a.721.721,0,0,1-.237.43,1.347,1.347,0,0,0-.194.258l-.054-.226-.054-.032-.022.054.054.291-.065.054a.7.7,0,0,1-.312.118l-.032.054.043.032a.754.754,0,0,0,.344-.14l.022-.011V7.77a1.08,1.08,0,0,0,.043.258l.022.1a1.046,1.046,0,0,1-.172.818L3.3,8.964l-.032.043-.011.011A.682.682,0,0,0,3.06,8.76l-.054.011v.054a.532.532,0,0,1,.194.258.569.569,0,0,1-.409.172L2.758,9.3l.032.043a.672.672,0,0,0,.43-.172.985.985,0,0,0,.1.183l.022.022a.909.909,0,0,1,.043,1.055.779.779,0,0,0-.5,0l-.022.043.043.032a.682.682,0,0,1,.484.011,1.035,1.035,0,0,1,.441,1.065l-.011.011-.011.108a1.532,1.532,0,0,1-.355.678l.011.054.011.011.032-.011a1.622,1.622,0,0,0,.344-.6l.086.075.011.011a.87.87,0,0,1,.387.829v.108l-.022.1-.022.075a.775.775,0,0,1-.258.3l-.011.065.022.011h.043a1.068,1.068,0,0,0,.28-.344l.032-.086v-.011l.075.032a1.074,1.074,0,0,1,.743.9l-.151.054-.022.011a1.316,1.316,0,0,0-.2.129l-.161.108-.022.054.043.022.011-.011.172-.108.194-.118.022-.011a.441.441,0,0,1,.258-.065.959.959,0,0,1,.732.635H6l-.1.022a2.426,2.426,0,0,0-.721.258l-.011.054.022.022.032-.011a2.474,2.474,0,0,1,.7-.248L6,14.679l.129-.011h.011l.011.011a2.255,2.255,0,0,1,.861.14,1.29,1.29,0,0,1,.657.549l.022.022.032-.011a5.532,5.532,0,0,1,2.992-.237l.065.086.011.011.043-.011a2.109,2.109,0,0,1,1.862-.624.473.473,0,0,1,.237.075l.054.032a1.348,1.348,0,0,0,.043.624l.032.022h.011L13.1,15.3a1.342,1.342,0,0,1,.011-.8l.065-.183a1.151,1.151,0,0,1,.474-.409.753.753,0,0,1,.474-.14l.054.011.011.011.043.011.151.065a.508.508,0,0,1,.194.172l.032.022.011-.011L14.64,14a.572.572,0,0,0-.226-.194l-.032-.022a.224.224,0,0,0,.032-.14,1.2,1.2,0,0,1,.721-.947l.065-.043a1.458,1.458,0,0,1,.43-.086l.032-.043-.032-.043a2.807,2.807,0,0,0-.355.065l-.011-.1-.011-.011a1.058,1.058,0,0,1,.3-1.076l.022-.032a1.448,1.448,0,0,1,.269-1l.043-.065a1.559,1.559,0,0,0,.409.43h.043v-.075a1.3,1.3,0,0,1-.5-1.582l.011-.011a.233.233,0,0,0,.022-.129.243.243,0,0,0-.086-.172L15.77,8.7a.864.864,0,0,1-.086-.764V7.92l.032-.129a.7.7,0,0,1,.1-.248.739.739,0,0,1,.312-.194l.022-.054-.054-.022a.717.717,0,0,0-.344.226l-.054.1-.011-.022L15.6,7.49l-.022-.022a.734.734,0,0,1-.248-.7l-.011-.043a1.021,1.021,0,0,1-.355-.829l.226.011H15.3l.075-.022.022-.054-.054-.022-.043.011a1.93,1.93,0,0,1-.355-.011,1.8,1.8,0,0,1-.721-.248.833.833,0,0,1-.323-.409l-.011-.043a1.157,1.157,0,0,1,.054-.527l.011-.043L13.93,4.5l-.054.022-.011.043a1.728,1.728,0,0,0-.075.334,2.73,2.73,0,0,1-.764-.183.592.592,0,0,1-.355-.323L12.66,4.38l-.022-.043A2.356,2.356,0,0,0,13.1,4.2l.022-.054-.054-.022a2.036,2.036,0,0,1-.624.161.855.855,0,0,1-.818-.441l-.032-.14a1.061,1.061,0,0,1-.011-.258L11.551,3.4l-.043.032a.826.826,0,0,0,.011.28v.054a1.081,1.081,0,0,1-.85-.14L10.658,3.6l-.1-.054a.5.5,0,0,0,.237-.28l-.032-.043-.043.022a.431.431,0,0,1-.2.237l-.108.043-.086.022h-.011a1.474,1.474,0,0,1-.85-.043l-.075-.043-.011-.011L9.334,3.4a1.8,1.8,0,0,0,.022-.334V3l-.032-.043L9.28,3v.065a1.472,1.472,0,0,1-.022.312v.011l-.043.14-.054.118-.108.075a.5.5,0,0,1-.28.054,2.015,2.015,0,0,1-.344-.086l-.2-.065L8.107,3.6a.621.621,0,0,0,.065-.183c.022-.108.032-.215.043-.323l-.043-.032L8.129,3.1a1.435,1.435,0,0,1-.032.3.531.531,0,0,1-.118.248l-.032.043-.054.065-.075.108a.672.672,0,0,1-.108.172.807.807,0,0,1-.624.151l-.5-.022a.851.851,0,0,1-.334-.086l-.129-.054-.043.022.011.043.129.065.215.075a1.943,1.943,0,0,1-.258.4.542.542,0,0,1-.441.183H5.675L5.632,4.8a2.528,2.528,0,0,1-.43-.118H5.147l.011.065a.792.792,0,0,0,.258.086.25.25,0,0,0-.086.14l-.011.022a1.025,1.025,0,0,1-.7.613H4.609l-.054.011-.086.011a.725.725,0,0,1-.28-.1l-.054.011.011.054a.819.819,0,0,0,.323.108h.043Z" transform="translate(2.375 2.325)" fill="#fff"/>
      <path id="Tracciato_3941" data-name="Tracciato 3941" d="M2.755,11.023v.1l.011.022.086.054a1.151,1.151,0,0,1,.786.947l.086.011h.011v.011a1.035,1.035,0,0,1,.786.71h.065a2.187,2.187,0,0,1,.8.151,1.309,1.309,0,0,1,.667.549,5.674,5.674,0,0,1,3.024-.237l.022.011.043.065a2.2,2.2,0,0,1,1.9-.613.449.449,0,0,1,.258.1l.022.011.011-.011.032-.129.011-.011v-.011l.075-.183a1.211,1.211,0,0,1,.5-.441.8.8,0,0,1,.527-.14h.043l.022.011.054.022L12.657,12l.022-.075a1.22,1.22,0,0,1,.753-1.022c.054-.022.1-.054.1-.086l-.011-.075a1.124,1.124,0,0,1,.312-1.152,1.585,1.585,0,0,1,.28-1.033h.011l.043-.1L14.142,8.4,14.1,8.3V8.289a1.4,1.4,0,0,1,.011-1V7.278l.032-.1c0-.043-.043-.086-.075-.129l-.022-.032a.983.983,0,0,1-.108-.829l.011-.011.022-.086V6.072a.257.257,0,0,0-.022-.183l-.065-.065-.011-.011a.823.823,0,0,1-.291-.764,1.117,1.117,0,0,1-.355-.893L13.1,4.135a1.629,1.629,0,0,1-.592-.237.907.907,0,0,1-.344-.441l-.022-.065V3.371l-.022-.118a2.476,2.476,0,0,1-.786-.194.745.745,0,0,1-.409-.366V2.682l-.032-.043h-.118a.944.944,0,0,1-.818-.387l-.065-.108L9.88,2.112a1.1,1.1,0,0,1-.915-.151L8.944,1.95l-.118-.065H8.761l-.194.054H8.556l-.022-.011a1.3,1.3,0,0,1-.764-.075l-.1-.054-.011-.022-.022-.011-.011.065a.494.494,0,0,1-.075.151l-.129.086a.548.548,0,0,1-.323.065,1.456,1.456,0,0,1-.355-.1l-.2-.065-.129-.011-.043.022v.011l-.043.032-.043.043-.054.108a1.117,1.117,0,0,1-.129.183.886.886,0,0,1-.678.183l-.5-.022H4.854a1.846,1.846,0,0,1-.28.43.619.619,0,0,1-.506.215l-.075-.011H3.95a.236.236,0,0,0-.151.011l-.065.118V3.3a1.123,1.123,0,0,1-.753.657l-.032.011a1,1,0,0,1-.474.689l-.022.022-.1.075c-.054.054-.043.14-.032.237l.011.14a.857.857,0,0,1-.258.484.811.811,0,0,0-.248.42,1.289,1.289,0,0,0,.043.258l.022.1a1.116,1.116,0,0,1-.183.883L1.7,7.278l-.054.108-.011.022.022.065.065.108.022.022A1.012,1.012,0,0,1,1.8,8.731v.011a1.093,1.093,0,0,1,.452,1.13l-.011.011-.011.1.011.043.086.086.011.011a.973.973,0,0,1,.42.9m-.075,0v-.011a.891.891,0,0,0-.387-.829l-.011-.011L2.2,10.108a1.582,1.582,0,0,1-.344.592l-.022.011L1.8,10.7v-.054a1.408,1.408,0,0,0,.344-.678l.022-.108V9.85A1,1,0,0,0,1.733,8.8a.682.682,0,0,0-.484-.022l-.043-.022L1.227,8.7a.779.779,0,0,1,.5,0,.927.927,0,0,0-.043-1.055l-.022-.022a.377.377,0,0,1-.1-.183.62.62,0,0,1-.43.172L1.1,7.579l.032-.043a.7.7,0,0,0,.409-.172.644.644,0,0,0-.194-.269l-.011-.054L1.4,7.03a.682.682,0,0,1,.194.258l.043-.054.011-.011a1.1,1.1,0,0,0,.172-.818L1.8,6.3a.917.917,0,0,1-.043-.248V6l-.022.022a.789.789,0,0,1-.344.129H1.378l-.032-.032.032-.043a.851.851,0,0,0,.312-.118l.065-.065L1.7,5.6l.022-.043.054.022.043.237a1.617,1.617,0,0,1,.194-.258.808.808,0,0,0,.248-.43L2.25,5l-.011-.172a.654.654,0,0,0-.011-.2.344.344,0,0,0-.054-.194L2.2,4.372l.054.011a.7.7,0,0,1,.065.226v.065l.108-.065.022-.022a.883.883,0,0,0,.409-.613l-.022.011-.022-.011a.678.678,0,0,1-.323-.108l-.022-.054L2.519,3.8a.662.662,0,0,0,.291.1h.075l.065-.022H2.96a1.025,1.025,0,0,0,.7-.613V3.253a.309.309,0,0,1,.086-.14V3.1a.9.9,0,0,1-.258-.086V2.962l.054-.011a1.421,1.421,0,0,0,.42.118l.032.011.086.011A.554.554,0,0,0,4.52,2.9a1.943,1.943,0,0,0,.258-.4l-.215-.075L4.434,2.37l-.022-.054.054-.022.129.065a.99.99,0,0,0,.334.075l.5.022a.77.77,0,0,0,.613-.151.567.567,0,0,0,.118-.161l.065-.118.054-.065.032-.022a.691.691,0,0,0,.129-.269,2.585,2.585,0,0,0,.032-.3l.043-.032.032.043a1.619,1.619,0,0,1-.032.312.721.721,0,0,1-.075.194l.118.011.215.065a1.347,1.347,0,0,0,.344.086A.547.547,0,0,0,7.383,2l.108-.075.065-.118.032-.151H7.6a1.576,1.576,0,0,0,.022-.312V1.272l.032-.032.043.032v.075a1.629,1.629,0,0,1-.022.323l.043.054.011.011.075.043a1.371,1.371,0,0,0,.839.054l.022-.011L8.75,1.81l.108-.054a.356.356,0,0,0,.194-.226L9.105,1.5l.022.054a.467.467,0,0,1-.226.28l.086.054.022.011a1.074,1.074,0,0,0,.85.14l-.011-.043-.011-.28L9.88,1.67l.043.043a1.037,1.037,0,0,0,0,.258l.043.151a.878.878,0,0,0,.807.441,2.355,2.355,0,0,0,.635-.172l.043.022-.011.054a2.356,2.356,0,0,1-.463.14l.011.032L11,2.671a.605.605,0,0,0,.366.312,2.146,2.146,0,0,0,.764.183,1.941,1.941,0,0,1,.075-.334l.011-.032.054-.032.022.054-.011.032a1.02,1.02,0,0,0-.065.527l.022.043a.825.825,0,0,0,.312.409,1.749,1.749,0,0,0,.721.248h.011a1.8,1.8,0,0,0,.344.022l.054-.011.054.011-.022.065-.075.011h-.108L13.3,4.167a1.033,1.033,0,0,0,.344.839l.022.022a.763.763,0,0,0,.248.721l.011.011.1.086v.011l.054-.086a.791.791,0,0,1,.355-.215l.054.011-.032.054a.683.683,0,0,0-.3.2.5.5,0,0,0-.1.248l-.032.118v.022a.869.869,0,0,0,.075.753L14.131,7a.362.362,0,0,1,.086.183l-.032.129v.011a1.307,1.307,0,0,0-.011.947,1.481,1.481,0,0,0,.506.635l.011.054-.032.011h-.022a1.423,1.423,0,0,1-.409-.43l-.043.065v.011a1.413,1.413,0,0,0-.28.99l-.011.032a1.054,1.054,0,0,0-.3,1.087l.022.108a1.183,1.183,0,0,1,.344-.065L14,10.8l-.032.043a1.923,1.923,0,0,0-.43.1l-.075.032a1.183,1.183,0,0,0-.71.958.148.148,0,0,1-.043.129l.043.022a.6.6,0,0,1,.226.2l-.022.054h-.011l-.032-.011a.59.59,0,0,0-.194-.172l-.151-.065-.043-.022h-.022l-.043-.011a.678.678,0,0,0-.474.14,1.124,1.124,0,0,0-.474.4l-.065.183a1.3,1.3,0,0,0-.011.807l-.032.043H11.4l-.043-.022a1.511,1.511,0,0,1-.032-.624l-.065-.022a.451.451,0,0,0-.226-.086A2.139,2.139,0,0,0,9.17,13.5l-.032.022L9.105,13.5l-.065-.075a5.349,5.349,0,0,0-2.992.237H6.038l-.043-.022a1.264,1.264,0,0,0-.646-.549,2.292,2.292,0,0,0-.861-.14H4.337l-.086.022a2.185,2.185,0,0,0-.689.237l-.011.011L3.509,13.2l.011-.054a2.426,2.426,0,0,1,.721-.258l.086-.011.108-.011a.946.946,0,0,0-.732-.624.433.433,0,0,0-.258.054l-.022.011-.194.118-.172.118H3.046L3,12.519l.022-.054.161-.108.2-.129h.022l.151-.065a1.048,1.048,0,0,0-.743-.893l-.075-.043-.011.011-.032.086a.965.965,0,0,1-.28.344l-.022.011-.032-.022.011-.054a1.028,1.028,0,0,0,.258-.312l.022-.075.022-.1v-.1" transform="translate(4.036 4.044)"/>
      <path id="Tracciato_3942" data-name="Tracciato 3942" d="M4.558,15.983a.788.788,0,0,1-.463-.517l-.011-.022a.5.5,0,0,1-.484-.2l-.086-.129a1.452,1.452,0,0,0-.344-.334L3.062,14.7,3,14.573l-.075-.129a.8.8,0,0,0-.161-.1L2.6,14.24a1.837,1.837,0,0,1-.344-.4.514.514,0,0,1-.086-.463l.022-.086-.2-.118L1.835,13.1a.586.586,0,0,1-.269-.4.564.564,0,0,1,.086-.441,1.059,1.059,0,0,1-.291-.42.563.563,0,0,1,.043-.5,1.319,1.319,0,0,1-.334-.4.574.574,0,0,1,0-.56l.065-.086.075-.108a.511.511,0,0,0-.065-.387l-.022-.054a.831.831,0,0,1-.075-.409.435.435,0,0,1,.183-.323,1.21,1.21,0,0,1-.312-.872A.274.274,0,0,1,.953,8,.472.472,0,0,1,1.1,7.826l.118-.1a.672.672,0,0,0,.054-.42l-.011-.194a1.135,1.135,0,0,1,.635-.9L1.889,6.2V6.19A1.22,1.22,0,0,1,1.8,5.382,1.1,1.1,0,0,1,2.341,4.7l.032-.022.14-.086.054-.075.022-.032.054-.14.043-.129a.837.837,0,0,1,.323-.344l.161-.118a1.614,1.614,0,0,1,.657-.387h.011l.075-.032.043-.054a1.487,1.487,0,0,1,1.3-.753L5.3,2.52l.054-.043.065-.108a.811.811,0,0,1,.215-.312A.777.777,0,0,1,5.99,1.9a1.75,1.75,0,0,1,.85.022l.054.011.043-.065A.465.465,0,0,1,7.27,1.5a.921.921,0,0,1,.452.022l.14.032a.786.786,0,0,0,.732-.183L8.6,1.357a.857.857,0,0,1,.657-.3.97.97,0,0,1,.657.312v.011l.1.065.086-.032a1.411,1.411,0,0,1,.5-.237.726.726,0,0,1,.549.118l.065.075a.421.421,0,0,0,.172.108.291.291,0,0,0,.161-.032h.022a.8.8,0,0,1,.527-.011.742.742,0,0,1,.258.226l.1.108.011.011.054.043h.065l.086-.011a1.632,1.632,0,0,1,1.065.118,1.324,1.324,0,0,1,.43.452.61.61,0,0,1,.14.291,1.083,1.083,0,0,1,.8.14,1.045,1.045,0,0,1,.463.678.505.505,0,0,1,.42.237.591.591,0,0,1,.075.258.5.5,0,0,0,.065.215.543.543,0,0,0,.291.183l.151.054a.8.8,0,0,1,.452.624A1.068,1.068,0,0,1,17.6,6.19c.226.054.387.344.484.581A1.27,1.27,0,0,1,18.1,7.836l-.011.022-.043.075a1.675,1.675,0,0,1,.387.732,1,1,0,0,1-.183.807,1.194,1.194,0,0,1,.151,1.162l-.043.075-.065.172a.664.664,0,0,0-.022.194l.011.248c0,.129.011.269,0,.409a.764.764,0,0,1-.323.57l-.011.011c-.054.032-.1.054-.1.1l.022.065.011.011a.491.491,0,0,1-.129.538.744.744,0,0,1-.42.172l-.032.011H17.29c.011.118.011.377.011.377a.931.931,0,0,1-.161.366,2.323,2.323,0,0,1-.936.818h-.011l-.1.065a.433.433,0,0,0-.086.172H16a1.456,1.456,0,0,1-.312.56.79.79,0,0,1-.355.2h-.28L15,15.886V15.9a.92.92,0,0,1-.786.678l-.108.011-.14.011-.151.043-.108.108-.043.043a1.317,1.317,0,0,1-.99.312,3.683,3.683,0,0,1-.5-.043c-.183-.022-.366-.043-.549-.054a4.355,4.355,0,0,0-1.754.5H9.843a2.743,2.743,0,0,0-1.528-.452H8.207a2.742,2.742,0,0,0-.839,0,2.462,2.462,0,0,0-.3.086c-.108.032-.226.075-.334.1a.856.856,0,0,1-.657-.129l-.108-.129-.011-.011-.065-.075a.3.3,0,0,0-.161-.086.321.321,0,0,0-.14.011l-.075.022a.629.629,0,0,1-.5-.226,1.868,1.868,0,0,1-.248-.42l-.022-.054-.075-.108-.086-.043Zm-.4-.592a.72.72,0,0,0,.355.484h.011a1.9,1.9,0,0,0,.5.075.575.575,0,0,0,.226-.032l.043.022-.011.054a.409.409,0,0,1-.194.032H5.01l-.237-.011.054.086.022.054a1.813,1.813,0,0,0,.226.4.5.5,0,0,0,.43.194l.075-.011.161-.022.022.011a1.583,1.583,0,0,1-.226-.6l.032-.054.043.032a1.478,1.478,0,0,0,.344.743l.065.086.108.108a.67.67,0,0,0,.592.108l.323-.086.3-.086a2.5,2.5,0,0,1,.4-.043c.151,0,.312.022.474.032l.1.011a2.871,2.871,0,0,1,1.55.441,4.395,4.395,0,0,1,1.765-.484,3.182,3.182,0,0,1,.56.054,3.522,3.522,0,0,0,.484.043,1.264,1.264,0,0,0,.936-.291l.043-.043.118-.118-.108-.032a.819.819,0,0,1-.2-.129l-.054-.032-.011-.054.054-.011.054.032a1.164,1.164,0,0,0,.194.118.525.525,0,0,0,.258.043l.14-.011h.118a.813.813,0,0,0,.7-.624l.011-.011.043-.118-.118-.043a2.5,2.5,0,0,1-.28-.183l-.011-.054.054-.011a1.426,1.426,0,0,0,.269.172.772.772,0,0,0,.226.054l.1.011h.118a.691.691,0,0,0,.312-.194,1.345,1.345,0,0,0,.291-.527h.011a.287.287,0,0,1,.075-.151h-.161a1.071,1.071,0,0,1-.506-.129l-.011-.054.054-.011a.94.94,0,0,0,.8.065,2.277,2.277,0,0,0,.893-.786.779.779,0,0,0,.14-.323v-.377l-.248-.054a1.556,1.556,0,0,1-.312-.118l-.022-.054.054-.022a1.462,1.462,0,0,0,.3.118,1.379,1.379,0,0,0,.291.054l.011-.011h.022a.709.709,0,0,0,.387-.161.38.38,0,0,0,.108-.43l-.011-.022-.032-.108.011-.011-.161.011h-.4l-.032-.043.032-.032.4-.011a.6.6,0,0,0,.3-.075.639.639,0,0,0,.28-.517,1.643,1.643,0,0,0,0-.4v-.248a.662.662,0,0,1,.022-.2.721.721,0,0,1,.075-.194l.032-.075a1.124,1.124,0,0,0-.161-1.109V9.44a.86.86,0,0,0,.183-.764A1.563,1.563,0,0,0,18,8a.69.69,0,0,1-.441.258h-.011l-.032-.032.032-.043a.662.662,0,0,0,.463-.344,1.157,1.157,0,0,0,0-1.033c-.14-.334-.3-.527-.463-.549l-.022-.011-.011-.032a.977.977,0,0,0-.56-1.087l-.022-.043a.725.725,0,0,0-.409-.57l-.14-.054-.151-.065.011.022.032.172.032.161-.043.043-.043-.032L16.2,4.6l-.032-.14L16.085,4.3l-.032-.043a.812.812,0,0,1-.086-.258.392.392,0,0,0-.054-.226.5.5,0,0,0-.28-.194h-.011a.473.473,0,0,0-.28.086.846.846,0,0,0-.226.215l-.022.011h-.032l-.011-.065A.964.964,0,0,1,15.3,3.6a.58.58,0,0,1,.183-.086.978.978,0,0,0-.43-.635,1.028,1.028,0,0,0-.775-.118h-.032l-.022-.032a.541.541,0,0,0-.129-.3,1.51,1.51,0,0,0-.4-.43,1.644,1.644,0,0,0-1.022-.108l-.086.011a.429.429,0,0,1,.075.161,1.3,1.3,0,0,1,.065.344l-.043.043-.043-.032a.816.816,0,0,0-.054-.323.627.627,0,0,0-.108-.2l-.065-.032-.129-.14a.588.588,0,0,0-.226-.2.716.716,0,0,0-.474.011l-.022.011a.565.565,0,0,1-.194.022.4.4,0,0,1-.215-.14l-.065-.054a.546.546,0,0,0-.474-.1,1.277,1.277,0,0,0-.474.215.236.236,0,0,1-.129.054.22.22,0,0,1-.151-.1l-.011-.011a.837.837,0,0,0-.6-.28.74.74,0,0,0-.581.269l-.011.011L8.6,1.465a1.433,1.433,0,0,1-.657.581H7.927l-.032-.022.022-.054a1.519,1.519,0,0,0,.517-.387,1.2,1.2,0,0,1-.581.043l-.14-.032a.98.98,0,0,0-.43-.022c-.151.032-.215.151-.269.312l-.032.065a1.344,1.344,0,0,1-.4.56L6.56,2.52,6.528,2.5l.011-.054A1.331,1.331,0,0,0,6.872,2l-.054-.011a1.863,1.863,0,0,0-.807-.022.826.826,0,0,0-.323.14.944.944,0,0,0-.2.291l-.065.118L5.344,2.6l-.086.011a1.406,1.406,0,0,0-1.227.71H4.02l-.054.075-.118.054H3.837a1.739,1.739,0,0,0-.624.366l-.161.129a.685.685,0,0,0-.291.312l-.043.118-.075.194a.717.717,0,0,0,.011.538l-.022.043-.011.011-.043-.022a.764.764,0,0,1-.054-.441l-.108.054-.032.022a.981.981,0,0,0-.5.635,1.012,1.012,0,0,0,.075.753.475.475,0,0,0,.312.269l.032.054-.043.032H2.255a.633.633,0,0,1-.312-.226,1.041,1.041,0,0,0-.6.829l.011.194a.577.577,0,0,1-.075.463l-.118.118a.575.575,0,0,0-.14.14L1,8.148A1.135,1.135,0,0,0,1.319,9l.011.032-.022.032a.369.369,0,0,0-.183.291A.755.755,0,0,0,1.2,9.73l.022.054a.574.574,0,0,1,.065.441l-.086.129-.065.075a.494.494,0,0,0,.011.474,1.231,1.231,0,0,0,.344.4v.065a.5.5,0,0,0-.054.452,1.113,1.113,0,0,0,.291.409l.011.054a.524.524,0,0,0-.1.409.533.533,0,0,0,.237.344l.14.075.215.118a.578.578,0,0,1,.172-.108.537.537,0,0,1,.387.022l.022.054-.054.022a.478.478,0,0,0-.323-.022.256.256,0,0,0-.194.183.46.46,0,0,0,.075.42,2,2,0,0,0,.323.377,1.182,1.182,0,0,0,.151.1l.011.011h.011a1.072,1.072,0,0,0,.8.011l.043.032-.022.043a1.008,1.008,0,0,1-.4.075l-.226-.022.065.118.043.108.1.065a1.239,1.239,0,0,1,.355.355l.1.118c.108.129.28.226.409.172a.837.837,0,0,1,.086-.43l.054-.011.022.054a.716.716,0,0,0-.075.42" transform="translate(2.297 2.248)"/>
      <path id="Tracciato_3943" data-name="Tracciato 3943" d="M2.486,2.519A1.188,1.188,0,0,1,1.959,2.4.737.737,0,0,1,1.7,2.185.708.708,0,0,1,1.636,1.7a.868.868,0,0,1,.248-.5c.269-.248.743-.108.915-.065a1.3,1.3,0,0,1,.366.172.813.813,0,0,0,.334.14,1.072,1.072,0,0,0,.366.011,1.284,1.284,0,0,1,.355,0,1.52,1.52,0,0,1,.7.366l.011.043-.043.022a1.33,1.33,0,0,0-.57-.1,2.069,2.069,0,0,0-.786.291L3,2.357c-.226.118-.269.151-.387.161H2.486M2.314,1.141a.564.564,0,0,0-.377.118.747.747,0,0,0-.215.452.618.618,0,0,0,.054.43.584.584,0,0,0,.215.194,1.158,1.158,0,0,0,.613.1.99.99,0,0,0,.366-.14c.118-.065.28-.151.527-.269a2.2,2.2,0,0,1,.818-.312,2.323,2.323,0,0,1,.377.032,1.285,1.285,0,0,0-.5-.194.835.835,0,0,0-.323-.011,1.269,1.269,0,0,1-.4-.011.84.84,0,0,1-.355-.151,1.3,1.3,0,0,0-.344-.161,1.955,1.955,0,0,0-.463-.075" transform="translate(9.148 2.314)" fill="#7c10ba"/>
      <path id="Tracciato_3944" data-name="Tracciato 3944" d="M1.934,1.233a.14.14,0,1,1-.14-.14.142.142,0,0,1,.14.14" transform="translate(9.463 2.609)" fill="#7c10ba"/>
      <path id="Tracciato_3945" data-name="Tracciato 3945" d="M2.071,1.3a.189.189,0,0,1-.183.183.183.183,0,0,1,0-.366.189.189,0,0,1,.183.183" transform="translate(9.961 2.814)" fill="#7c10ba"/>
      <path id="Tracciato_3946" data-name="Tracciato 3946" d="M2,1.236a.131.131,0,0,1-.129.129.13.13,0,0,1,0-.258A.131.131,0,0,1,2,1.236" transform="translate(10.469 2.746)" fill="#7c10ba"/>
      <path id="Tracciato_3947" data-name="Tracciato 3947" d="M4.133,4.48h0L4.1,4.437A1.269,1.269,0,0,0,3.928,3.9c-.108-.183-.226-.28-.624-.57L2.82,2.984c-.2-.151-.248-.172-.323-.28A1.251,1.251,0,0,1,2.3,2.069a.663.663,0,0,1,.075-.323.735.735,0,0,1,.409-.28.874.874,0,0,1,.549-.011c.344.129.43.613.474.8a1.271,1.271,0,0,1,.011.4.878.878,0,0,0,.032.355A1.219,1.219,0,0,0,4,3.339a.765.765,0,0,1,.161.312,1.527,1.527,0,0,1,.011.8l-.043.032M2.809,1.542a.642.642,0,0,0-.355.248.521.521,0,0,0-.075.28,1.137,1.137,0,0,0,.194.592c.054.086.086.118.291.258l.484.344a2.079,2.079,0,0,1,.646.592,1.287,1.287,0,0,1,.14.355,1.264,1.264,0,0,0-.043-.538,1.037,1.037,0,0,0-.151-.291,1.227,1.227,0,0,1-.161-.355.85.85,0,0,1-.032-.387.947.947,0,0,0-.022-.377c-.032-.172-.118-.613-.42-.732a.783.783,0,0,0-.5.011" transform="translate(15.799 5.766)" fill="#7c10ba"/>
      <path id="Tracciato_3948" data-name="Tracciato 3948" d="M2.572,1.7a.133.133,0,0,1-.183-.065.129.129,0,0,1,.054-.183.145.145,0,0,1,.194.065.142.142,0,0,1-.065.183" transform="translate(16.445 5.993)" fill="#7c10ba"/>
      <path id="Tracciato_3949" data-name="Tracciato 3949" d="M2.548,1.733a.148.148,0,0,1-.194-.065.142.142,0,0,1,.065-.183.148.148,0,0,1,.194.065.142.142,0,0,1-.065.183" transform="translate(16.178 6.296)" fill="#7c10ba"/>
      <path id="Tracciato_3950" data-name="Tracciato 3950" d="M2.46,1.6a.077.077,0,0,1-.108-.032.087.087,0,0,1,.032-.118A.09.09,0,0,1,2.5,1.5.093.093,0,0,1,2.46,1.6" transform="translate(16.18 6.048)" fill="#7c10ba"/>
      <path id="Tracciato_3951" data-name="Tracciato 3951" d="M2.512,1.644A.075.075,0,0,1,2.4,1.612a.087.087,0,0,1,.032-.118.076.076,0,0,1,.108.043.077.077,0,0,1-.032.108" transform="translate(16.688 6.438)" fill="#7c10ba"/>
      <path id="Tracciato_3952" data-name="Tracciato 3952" d="M2.635,1.838a.193.193,0,0,1-.248-.075.183.183,0,0,1,.323-.172.177.177,0,0,1-.075.248" transform="translate(16.436 6.546)" fill="#7c10ba"/>
      <path id="Tracciato_3953" data-name="Tracciato 3953" d="M2.678,1.907a.193.193,0,0,1-.248-.075.183.183,0,1,1,.323-.172.177.177,0,0,1-.075.248" transform="translate(16.856 7.219)" fill="#7c10ba"/>
      <path id="Tracciato_3954" data-name="Tracciato 3954" d="M2.585,1.763a.125.125,0,0,1-.172-.054.119.119,0,0,1,.054-.161.116.116,0,0,1,.161.054.121.121,0,0,1-.043.161" transform="translate(16.744 6.901)" fill="#7c10ba"/>
      <path id="Tracciato_3955" data-name="Tracciato 3955" d="M1.617,4.884a.582.582,0,0,1-.2-.032.778.778,0,0,1-.258-.215A1.152,1.152,0,0,1,.939,4a.955.955,0,0,1,.086-.409c.043-.129.108-.3.183-.56A1.905,1.905,0,0,0,1.37,2.2a1.148,1.148,0,0,0-.183-.538L1.2,1.612h.043a1.42,1.42,0,0,1,.474.646.869.869,0,0,1,.054.344,1,1,0,0,0,.075.355.82.82,0,0,0,.194.312,1.272,1.272,0,0,1,.215.323c.086.172.291.613.1.926a.865.865,0,0,1-.441.312,1.046,1.046,0,0,1-.291.054M1.359,1.827a1.536,1.536,0,0,1,.1.366,2.068,2.068,0,0,1-.172.861l-.183.57A1,1,0,0,0,1.015,4a1.118,1.118,0,0,0,.2.592.69.69,0,0,0,.226.183.6.6,0,0,0,.43-.022.735.735,0,0,0,.409-.28c.172-.269-.022-.689-.1-.839a1.177,1.177,0,0,0-.215-.312,1.121,1.121,0,0,1-.2-.334,1.156,1.156,0,0,1-.075-.377,1.019,1.019,0,0,0-.054-.334,1.263,1.263,0,0,0-.28-.452" transform="translate(2.462 7.676)" fill="#7c10ba"/>
      <path id="Tracciato_3956" data-name="Tracciato 3956" d="M1.142,1.854a.144.144,0,0,0-.118.161.151.151,0,0,0,.161.118A.151.151,0,0,0,1.3,1.973a.144.144,0,0,0-.161-.118" transform="translate(3.292 10.027)" fill="#7c10ba"/>
      <path id="Tracciato_3957" data-name="Tracciato 3957" d="M1.1,1.845a.144.144,0,0,0-.118.161.134.134,0,0,0,.161.108.134.134,0,0,0,.118-.151A.144.144,0,0,0,1.1,1.845" transform="translate(2.902 9.94)" fill="#7c10ba"/>
      <path id="Tracciato_3958" data-name="Tracciato 3958" d="M1.068,1.879a.084.084,0,0,0-.065.1.069.069,0,0,0,.086.065.092.092,0,0,0,.075-.1.084.084,0,0,0-.1-.065" transform="translate(3.097 10.261)" fill="#7c10ba"/>
      <path id="Tracciato_3959" data-name="Tracciato 3959" d="M1.086,1.816a.084.084,0,0,0-.065.1.074.074,0,0,0,.1.065.082.082,0,1,0-.032-.161" transform="translate(3.272 9.646)" fill="#7c10ba"/>
      <path id="Tracciato_3960" data-name="Tracciato 3960" d="M1.137,1.8a.186.186,0,1,0,.065.366A.186.186,0,0,0,1.137,1.8" transform="translate(2.931 9.5)" fill="#7c10ba"/>
      <path id="Tracciato_3961" data-name="Tracciato 3961" d="M1.133,1.721a.174.174,0,0,0-.151.2.168.168,0,0,0,.2.151.168.168,0,0,0,.151-.2.174.174,0,0,0-.2-.151" transform="translate(2.871 8.707)" fill="#7c10ba"/>
      <path id="Tracciato_3962" data-name="Tracciato 3962" d="M1.092,1.765a.126.126,0,1,0,.14.108.122.122,0,0,0-.14-.108" transform="translate(3.019 9.158)" fill="#7c10ba"/>
      <path id="Tracciato_3963" data-name="Tracciato 3963" d="M1.8,3.715,1.681,3.7a.678.678,0,0,1-.387-.3.87.87,0,0,1-.172-.517c.022-.366.452-.6.613-.689a1.1,1.1,0,0,1,.377-.14.877.877,0,0,0,.334-.129,1.025,1.025,0,0,0,.269-.248,1.074,1.074,0,0,1,.248-.248,1.569,1.569,0,0,1,.764-.248l.032.032-.022.043a1.347,1.347,0,0,0-.463.334,1.77,1.77,0,0,0-.355.764,5.263,5.263,0,0,0-.183.56,1.215,1.215,0,0,1-.172.387,1.177,1.177,0,0,1-.549.377.566.566,0,0,1-.215.032M1.358,3.36a.663.663,0,0,0,.344.269.616.616,0,0,0,.291-.022A1.068,1.068,0,0,0,2.5,3.252c.065-.075.075-.118.151-.355.043-.129.108-.3.194-.57a2.033,2.033,0,0,1,.366-.786A1.268,1.268,0,0,1,3.5,1.294a1.4,1.4,0,0,0-.484.2,1.313,1.313,0,0,0-.248.226.96.96,0,0,1-.28.269.926.926,0,0,1-.366.14,1.207,1.207,0,0,0-.355.129c-.14.086-.549.3-.57.624a.785.785,0,0,0,.161.474" transform="translate(4.249 3.517)" fill="#7c10ba"/>
      <path id="Tracciato_3964" data-name="Tracciato 3964" d="M1.377,1.379a.137.137,0,1,1-.194,0,.136.136,0,0,1,.194,0" transform="translate(4.477 5.003)" fill="#7c10ba"/>
      <path id="Tracciato_3965" data-name="Tracciato 3965" d="M1.531,1.4a.228.228,0,0,1-.323.323A.228.228,0,0,1,1.531,1.4" transform="translate(4.485 4.962)" fill="#7c10ba"/>
      <path id="Tracciato_3966" data-name="Tracciato 3966" d="M1.438,1.4a.137.137,0,1,1-.194,0,.136.136,0,0,1,.194,0" transform="translate(5.073 5.248)" fill="#7c10ba"/>
      <path id="Tracciato_3967" data-name="Tracciato 3967" d="M1.294,1.391v.118H1.175V1.391h.118" transform="translate(4.789 5.517)" fill="#7c10ba"/>
      <path id="Tracciato_3968" data-name="Tracciato 3968" d="M1.3,1.314v.118H1.183V1.314H1.3" transform="translate(4.863 4.766)" fill="#7c10ba"/>
      <path id="Tracciato_3969" data-name="Tracciato 3969" d="M1.51,1.369a.183.183,0,1,1-.258.258.183.183,0,0,1,.258-.258" transform="translate(4.98 4.755)" fill="#7c10ba"/>
      <path id="Tracciato_3970" data-name="Tracciato 3970" d="M1.46,1.286a.131.131,0,0,1,0,.172.121.121,0,0,1-.172-.011.117.117,0,0,1,0-.161.131.131,0,0,1,.172,0" transform="translate(5.578 4.181)" fill="#7c10ba"/>
      <path id="Tracciato_3971" data-name="Tracciato 3971" d="M1.435,1.32a.12.12,0,0,1,0,.172.112.112,0,0,1-.172,0,.112.112,0,0,1,0-.172.12.12,0,0,1,.172,0" transform="translate(5.249 4.47)" fill="#7c10ba"/>
      <path id="Tracciato_3972" data-name="Tracciato 3972" d="M1.406,1.322a.112.112,0,0,1,0,.172.112.112,0,0,1-.172,0,.112.112,0,0,1,0-.172.112.112,0,0,1,.172,0" transform="translate(4.965 4.447)" fill="#7c10ba"/>
      <path id="Tracciato_3973" data-name="Tracciato 3973" d="M3.074,5.126l-.022-.011-.011-.043a1.194,1.194,0,0,0,.086-.57,2.01,2.01,0,0,0-.291-.786c-.129-.248-.215-.409-.269-.527A.822.822,0,0,1,2.407,2.8a1.3,1.3,0,0,1,.108-.657.655.655,0,0,1,.215-.258.74.74,0,0,1,.5-.065.859.859,0,0,1,.5.237,1.053,1.053,0,0,1,.054.926.914.914,0,0,1-.161.355.971.971,0,0,0-.14.334,1.072,1.072,0,0,0-.011.366,1.292,1.292,0,0,1,0,.355,1.48,1.48,0,0,1-.355.71l-.032.022M3.063,1.887a.61.61,0,0,0-.291.065.8.8,0,0,0-.183.226,1.16,1.16,0,0,0-.108.613c.011.108.032.14.151.366l.28.517a2.209,2.209,0,0,1,.3.829,1.529,1.529,0,0,1-.032.377,1.135,1.135,0,0,0,.194-.5.891.891,0,0,0,.011-.334A1.2,1.2,0,0,1,3.4,3.663a.731.731,0,0,1,.151-.355A1.047,1.047,0,0,0,3.7,2.963c.054-.172.172-.613-.043-.85A.812.812,0,0,0,3.214,1.9l-.151-.011" transform="translate(16.761 9.586)" fill="#7c10ba"/>
      <path id="Tracciato_3974" data-name="Tracciato 3974" d="M2.738,2.417a.289.289,0,0,1-.291-.291.291.291,0,1,1,.581,0,.289.289,0,0,1-.291.291" transform="translate(17.205 9.755)" fill="#7c10ba"/>
      <path id="Tracciato_3975" data-name="Tracciato 3975" d="M2.742,2.526a.3.3,0,0,1-.3-.291.308.308,0,0,1,.3-.3.3.3,0,0,1,0,.592" transform="translate(17.146 10.819)" fill="#7c10ba"/>
      <path id="Tracciato_3976" data-name="Tracciato 3976" d="M2.614,2.144a.124.124,0,0,1-.129-.129.129.129,0,0,1,.258,0,.124.124,0,0,1-.129.129" transform="translate(17.576 10.351)" fill="#7c10ba"/>
      <path id="Tracciato_3977" data-name="Tracciato 3977" d="M2.329,2.639a.948.948,0,0,1-.065.387.283.283,0,0,1-.172.161l-.14.022c-.086,0,.011-.129.032-.161a.842.842,0,0,0,.065-.7,1.941,1.941,0,0,1-.086-.42l.011-.075.065-.075a.453.453,0,0,0,.108-.28V1.2l.065-.086.043.032a.42.42,0,0,1,.086.2,1.325,1.325,0,0,0,.022.215c.032.1.118.151.183.226a.386.386,0,0,1,.086.3.417.417,0,0,1-.161.28c-.043.032-.1.054-.118.108a.271.271,0,0,0-.022.161" transform="translate(12.038 2.785)" fill="#ffe500"/>
      <path id="Tracciato_3978" data-name="Tracciato 3978" d="M2.006,3.271H2L1.92,3.239c-.022-.043.011-.1.054-.172h.011a.859.859,0,0,0,.065-.689,1.389,1.389,0,0,1-.086-.42l.011-.1L2.028,1.8l.022-.022a.409.409,0,0,0,.1-.258V1.226A.145.145,0,0,1,2.2,1.119l.054-.011.075.043a.522.522,0,0,1,.086.226l.011.075.011.129a.381.381,0,0,0,.108.129l.065.075a.425.425,0,0,1,.1.334.4.4,0,0,1-.172.3L2.5,2.453l-.075.065L2.4,2.636v.032a1.124,1.124,0,0,1-.065.409.448.448,0,0,1-.194.183l-.14.011M2,3.2l.129-.011a.293.293,0,0,0,.14-.14.947.947,0,0,0,.065-.377V2.636a.294.294,0,0,1,.022-.161c.022-.043.065-.065.108-.1l.022-.011a.36.36,0,0,0,.151-.248.425.425,0,0,0-.075-.28l-.065-.075A.322.322,0,0,1,2.361,1.6L2.34,1.452V1.388a.387.387,0,0,0-.075-.194l-.022-.011-.022.043v.3a.512.512,0,0,1-.118.3l-.011.011-.032.043-.011.075a1.045,1.045,0,0,0,.075.4.864.864,0,0,1-.075.743l-.011.022L2,3.2" transform="translate(11.995 2.756)" fill="#ff8b00"/>
      <path id="Tracciato_3979" data-name="Tracciato 3979" d="M2.393,1.887a.327.327,0,0,1-.226.032c-.183-.032-.183-.3-.118-.43l.054-.1.118-.118a.5.5,0,0,1,.323-.118l.043.022-.011.1-.086.075a.209.209,0,0,0,0,.161l.043.161a.211.211,0,0,1-.14.215" transform="translate(12.933 3.215)" fill="#ffe500"/>
      <path id="Tracciato_3980" data-name="Tracciato 3980" d="M2.257,1.991H2.193a.208.208,0,0,1-.151-.118.477.477,0,0,1,0-.366L2.117,1.4l.108-.129a.587.587,0,0,1,.355-.118l.075.022.032.065-.043.1L2.6,1.367,2.569,1.4a.14.14,0,0,0-.011.129l.022.043.032.129a.264.264,0,0,1-.172.258,1.176,1.176,0,0,1-.183.032m.312-.764a.483.483,0,0,0-.291.108l-.1.118-.065.086a.343.343,0,0,0,0,.291.153.153,0,0,0,.1.086.432.432,0,0,0,.2-.032A.219.219,0,0,0,2.537,1.7L2.5,1.6,2.483,1.55A.2.2,0,0,1,2.5,1.356L2.559,1.3l.032-.022L2.6,1.238,2.58,1.227Z" transform="translate(12.896 3.185)" fill="#ff8b00"/>
      <path id="Tracciato_3981" data-name="Tracciato 3981" d="M2.323,1.552l.032.151a.379.379,0,0,1-.086.28.778.778,0,0,1-.237.183l-.043.054.065.032a.59.59,0,0,0,.269-.043.707.707,0,0,0,.355-.215l.1-.172a.457.457,0,0,0,.065-.2.338.338,0,0,0-.269-.355c-.054-.011-.129-.043-.183.022a.389.389,0,0,0-.065.269" transform="translate(12.734 4.077)" fill="#ffe500"/>
      <path id="Tracciato_3982" data-name="Tracciato 3982" d="M2.114,2.327H2.093c-.065-.011-.108-.032-.108-.075a.089.089,0,0,1,.054-.086.655.655,0,0,0,.226-.172.346.346,0,0,0,.075-.258l-.011-.065-.011-.086a.4.4,0,0,1,.065-.291A.209.209,0,0,1,2.6,1.251H2.62a.393.393,0,0,1,.291.409,1.137,1.137,0,0,1-.065.2l-.108.183a.736.736,0,0,1-.366.226.852.852,0,0,1-.258.054m-.043-.086h.011a.771.771,0,0,0,.258-.032.693.693,0,0,0,.334-.215.5.5,0,0,0,.1-.161.53.53,0,0,0,.065-.183A.3.3,0,0,0,2.6,1.337l-.011-.011c-.065-.011-.108-.022-.14.011a.4.4,0,0,0-.054.248l.011.065.022.075a.418.418,0,0,1-.1.312.663.663,0,0,1-.248.194l-.011.011" transform="translate(12.695 4.044)" fill="#ff8b00"/>
      <path id="Tracciato_3983" data-name="Tracciato 3983" d="M2.407,1.326h0a.6.6,0,0,1,.312.42.313.313,0,0,1-.054.237L2.547,2.1a.427.427,0,0,0-.043.258v.183l-.043.108-.1.022-.022-.086v-.2L2.331,2.23c-.022-.151-.151-.269-.194-.42A.456.456,0,0,1,2.17,1.52c.032-.086.129-.269.237-.194" transform="translate(14.081 4.712)" fill="#ffe500"/>
      <path id="Tracciato_3984" data-name="Tracciato 3984" d="M2.433,2.751l-.065-.022-.032-.118V2.417l-.011-.14a.635.635,0,0,0-.1-.215l-.086-.2a.482.482,0,0,1,.022-.323.422.422,0,0,1,.183-.226.158.158,0,0,1,.118.022.64.64,0,0,1,.323.441.372.372,0,0,1-.054.269l-.065.054L2.6,2.159a.432.432,0,0,0-.032.2V2.4a1.039,1.039,0,0,1,0,.183l-.043.129-.086.043ZM2.39,1.384H2.379c-.043.011-.1.086-.14.183a.337.337,0,0,0-.022.269.471.471,0,0,0,.086.183.649.649,0,0,1,.1.237l.011.161v.194l.011.065h.011l.032-.011.022-.1L2.5,2.4V2.374a.427.427,0,0,1,.043-.258l.075-.075.054-.054a.255.255,0,0,0,.043-.2.576.576,0,0,0-.291-.387l.022-.032-.022.032L2.39,1.384" transform="translate(14.045 4.675)" fill="#ff8b00"/>
      <path id="Tracciato_3985" data-name="Tracciato 3985" d="M2.2,1.434a.424.424,0,0,1,.215-.194.862.862,0,0,1,.291-.032l.14.011.118.054a.505.505,0,0,1,.237.237c-.075,0-.14-.065-.2-.086A.181.181,0,0,0,2.77,1.5a.205.205,0,0,0-.065.172V1.8l-.065.108-.086.022a.448.448,0,0,1-.269-.022A.4.4,0,0,1,2.1,1.714a.4.4,0,0,1,.1-.28" transform="translate(13.804 3.732)" fill="#ffe500"/>
      <path id="Tracciato_3986" data-name="Tracciato 3986" d="M2.5,2.018a.514.514,0,0,1-.194-.043.4.4,0,0,1-.2-.215c-.032-.086.032-.215.086-.312a.5.5,0,0,1,.248-.2A.623.623,0,0,1,2.75,1.21l.14.011.129.054a.549.549,0,0,1,.248.248v.043l-.043.022a.317.317,0,0,1-.14-.054L3.019,1.49a.168.168,0,0,0-.194.065.21.21,0,0,0-.043.151v.022l-.011.108a.2.2,0,0,1-.075.14l-.1.032-.1.011M2.7,1.286a.5.5,0,0,0-.226.032.4.4,0,0,0-.2.172.355.355,0,0,0-.086.248.3.3,0,0,0,.161.161.417.417,0,0,0,.248.032l.065-.022L2.7,1.824V1.738l.011-.032a.383.383,0,0,1,.054-.2.256.256,0,0,1,.28-.086l.086.043v.011a.421.421,0,0,0-.151-.129L2.868,1.3l-.129-.011Z" transform="translate(13.771 3.697)" fill="#ff8b00"/>
      <path id="Tracciato_3987" data-name="Tracciato 3987" d="M2.335,1.441a.779.779,0,0,1,.56-.151l.194.032a.228.228,0,0,1,.151.129l.011.022L3.2,1.516c-.086.022-.2-.022-.28.032a.232.232,0,0,0-.1.151.909.909,0,0,1-.054.183.291.291,0,0,1-.291.183c-.323-.022-.323-.441-.14-.624" transform="translate(14.906 4.532)" fill="#ffe500"/>
      <path id="Tracciato_3988" data-name="Tracciato 3988" d="M2.531,2.137H2.509a.317.317,0,0,1-.28-.2.476.476,0,0,1,.118-.484.8.8,0,0,1,.592-.161l.2.032a.341.341,0,0,1,.172.151v.065l-.075.054a.262.262,0,0,1-.129,0l-.14.022c-.043.022-.065.065-.075.14L2.875,1.8l-.032.129a.357.357,0,0,1-.312.2M2.4,1.5a.437.437,0,0,0-.1.409.233.233,0,0,0,.215.151A.272.272,0,0,0,2.768,1.9L2.8,1.793l.011-.065a.289.289,0,0,1,.118-.183.41.41,0,0,1,.194-.032H3.23L3.241,1.5a.233.233,0,0,0-.118-.108.6.6,0,0,0-.194-.022A.711.711,0,0,0,2.4,1.5" transform="translate(14.861 4.503)" fill="#ff8b00"/>
      <path id="Tracciato_3989" data-name="Tracciato 3989" d="M2.253,1.551l-.022.108A.955.955,0,0,0,2.317,2a.331.331,0,0,1-.032.269l-.043.065.011.054c.043.032.129,0,.161-.022a.42.42,0,0,0,.151-.183.972.972,0,0,0,.108-.42c0-.118-.022-.291-.14-.344-.086-.043-.237.043-.28.129" transform="translate(15.086 5.703)" fill="#ffe500"/>
      <path id="Tracciato_3990" data-name="Tracciato 3990" d="M2.335,2.487,2.27,2.465a.081.081,0,0,1-.022-.108L2.281,2.3l.011-.011a.309.309,0,0,0,.022-.237l-.032-.118a.638.638,0,0,1-.054-.248l.022-.118c.054-.1.226-.2.334-.151a.374.374,0,0,1,.161.387.907.907,0,0,1-.1.43.515.515,0,0,1-.172.194.3.3,0,0,1-.14.054m.183-1a.264.264,0,0,0-.194.118L2.3,1.7a.483.483,0,0,0,.054.2l.032.129a.378.378,0,0,1-.032.3l-.011.011-.022.032V2.4l.108-.032a.422.422,0,0,0,.14-.161.945.945,0,0,0,.1-.4c0-.1-.011-.269-.118-.312l-.032-.011" transform="translate(15.057 5.671)" fill="#ff8b00"/>
      <path id="Tracciato_3991" data-name="Tracciato 3991" d="M2.628,1.857a.917.917,0,0,0-.3.743l.054.065.011-.011A2.89,2.89,0,0,0,2.585,2.3l.065-.065.086-.022.129-.022a.327.327,0,0,0,.258-.118.274.274,0,0,0-.011-.258c-.108-.172-.366-.054-.484.043" transform="translate(16.023 8.787)" fill="#ffe500"/>
      <path id="Tracciato_3992" data-name="Tracciato 3992" d="M2.409,2.747H2.376a.1.1,0,0,1-.054-.1,1.007,1.007,0,0,1,.312-.786.6.6,0,0,1,.387-.14.272.272,0,0,1,.161.108.331.331,0,0,1,.011.3.376.376,0,0,1-.291.14l-.129.011L2.7,2.306l-.043.054L2.473,2.7l-.043.043H2.409m.28-.818a.882.882,0,0,0-.291.71l.011.022.183-.334.065-.086.108-.032L2.893,2.2c.1-.022.194-.032.237-.108a.25.25,0,0,0-.011-.215.131.131,0,0,0-.108-.065.433.433,0,0,0-.323.118" transform="translate(15.984 8.747)" fill="#ff8b00"/>
      <path id="Tracciato_3993" data-name="Tracciato 3993" d="M2.455,1.806A.386.386,0,0,1,2.9,1.774a1,1,0,0,1,.409.323c.043.065.226.312.14.387s-.215-.086-.28-.129a.639.639,0,0,0-.28-.075c-.108,0-.226.032-.312-.032L2.5,2.172c-.054-.086-.129-.28-.043-.366" transform="translate(16.906 8.741)" fill="#ffe500"/>
      <path id="Tracciato_3994" data-name="Tracciato 3994" d="M3.428,2.576a.322.322,0,0,1-.194-.108L3.18,2.425a.685.685,0,0,0-.258-.075l-.086.011a.44.44,0,0,1-.258-.043l-.086-.1c-.054-.086-.129-.3-.032-.409a.439.439,0,0,1,.484-.043,1.064,1.064,0,0,1,.43.334c.161.237.2.377.129.452l-.075.022m-.517-.3h.011a.6.6,0,0,1,.291.086l.075.054.161.075S3.5,2.425,3.3,2.156a.91.91,0,0,0-.387-.312.376.376,0,0,0-.4.022c-.054.065,0,.237.043.312l.065.075a.329.329,0,0,0,.2.022h.086" transform="translate(16.87 8.703)" fill="#ff8b00"/>
      <path id="Tracciato_3995" data-name="Tracciato 3995" d="M1.633,1.492a.577.577,0,0,0,.215.291l.108.118a.413.413,0,0,1,.032.258,2.1,2.1,0,0,1-.065.248l.022.086L2,2.483a.334.334,0,0,0,.151-.194c.032-.129-.011-.248.011-.377a1.2,1.2,0,0,1,.118-.269.374.374,0,0,0,.032-.3.326.326,0,0,0-.194-.161c-.2-.065-.549.022-.484.312" transform="translate(9.183 3.264)" fill="#ffe500"/>
      <path id="Tracciato_3996" data-name="Tracciato 3996" d="M2,2.569H1.986c-.054-.011-.086-.065-.054-.14l.011-.086.043-.161a.344.344,0,0,0-.032-.226l-.1-.108H1.846a.811.811,0,0,1-.215-.312.279.279,0,0,1,.075-.28.5.5,0,0,1,.452-.075.331.331,0,0,1,.226.183.393.393,0,0,1-.032.323l-.032.075a.765.765,0,0,0-.086.194v.366a.446.446,0,0,1-.183.237L2,2.569m.022-1.335a.333.333,0,0,0-.248.086.168.168,0,0,0-.065.194.691.691,0,0,0,.194.269l.011.011.108.118a.4.4,0,0,1,.054.28l-.054.172L2,2.45v.032h.022A.335.335,0,0,0,2.147,2.3a.463.463,0,0,0,0-.172l.011-.183a1.406,1.406,0,0,1,.086-.226l.043-.065A.332.332,0,0,0,2.32,1.4a.253.253,0,0,0-.183-.14l-.118-.022" transform="translate(9.142 3.232)" fill="#ff8b00"/>
      <path id="Tracciato_3997" data-name="Tracciato 3997" d="M1.543,1.733A.519.519,0,0,1,1.5,1.4a.343.343,0,0,1,.194-.258L1.8,1.109h.022l.022.054-.032.054a.228.228,0,0,0,.022.269,1.222,1.222,0,0,1,.161.248.246.246,0,0,1-.043.226c-.043.054-.172.129-.237.065l-.086-.129-.086-.161" transform="translate(7.831 2.765)" fill="#ffe500"/>
      <path id="Tracciato_3998" data-name="Tracciato 3998" d="M1.806,2.127,1.719,2.1l-.065-.108-.022-.032-.1-.172a.6.6,0,0,1-.043-.355.384.384,0,0,1,.215-.291l.118-.032H1.87l.043.043v.065l-.032.054-.011.011A.22.22,0,0,0,1.9,1.5l.054.065a.515.515,0,0,1,.108.183.3.3,0,0,1-.054.269.255.255,0,0,1-.183.1Zm-.194-.377L1.7,1.9l.022.054.054.075.043.011a.225.225,0,0,0,.14-.075.245.245,0,0,0,.032-.194l-.1-.151-.054-.075a.276.276,0,0,1-.032-.323l.022-.011.011-.022-.1.022a.3.3,0,0,0-.172.226.54.54,0,0,0,.043.312" transform="translate(7.794 2.726)" fill="#ff8b00"/>
      <path id="Tracciato_3999" data-name="Tracciato 3999" d="M1.527,1.463l-.022.086.043.075c.065.086.129.161.183.248a.457.457,0,0,1,.054.291c-.022.086-.075.161-.065.248l.011.011h.022c.108-.011.183-.118.226-.226a1.017,1.017,0,0,0,.011-.775.34.34,0,0,0-.118-.183c-.161-.118-.323.075-.344.226" transform="translate(8.009 3.66)" fill="#ffe500"/>
      <path id="Tracciato_4000" data-name="Tracciato 4000" d="M1.779,2.5l-.032-.011-.032-.054a.31.31,0,0,1,.032-.172l.032-.075a.372.372,0,0,0-.054-.269L1.618,1.76l-.065-.086L1.51,1.588a.182.182,0,0,1,0-.108.382.382,0,0,1,.215-.269.206.206,0,0,1,.2.032.44.44,0,0,1,.14.194,1.159,1.159,0,0,1-.022.807.372.372,0,0,1-.248.248ZM1.8,1.276l-.043.011a.342.342,0,0,0-.172.215v.065l.032.065.065.086.108.172a.4.4,0,0,1,.065.323l-.032.075-.032.129a.341.341,0,0,0,.183-.2,1.04,1.04,0,0,0,.022-.743.331.331,0,0,0-.108-.161L1.8,1.276" transform="translate(7.982 3.632)" fill="#ff8b00"/>
      <path id="Tracciato_4001" data-name="Tracciato 4001" d="M1.443,1.455a.492.492,0,0,0,.011.28c.054.108.151.172.2.28a.652.652,0,0,1,.022.323l.022.108.1.011.065-.075a.731.731,0,0,0,.075-.215,1.083,1.083,0,0,0-.151-.818c-.043-.065-.14-.151-.215-.118s-.118.161-.129.226" transform="translate(7.253 3.872)" fill="#ffe500"/>
      <path id="Tracciato_4002" data-name="Tracciato 4002" d="M1.786,2.549l-.075-.032a.18.18,0,0,1-.032-.14.56.56,0,0,0-.022-.3l-.1-.14L1.453,1.8a.521.521,0,0,1-.011-.312c.022-.086.054-.226.151-.258s.194.054.258.14a1.089,1.089,0,0,1,.161.85.915.915,0,0,1-.075.226l-.086.086-.065.022M1.636,1.3H1.614c-.054.022-.086.151-.1.194v.011a.332.332,0,0,0,.011.248l.1.14.108.14a.66.66,0,0,1,.022.355l.011.075h.054L1.873,2.4a.72.72,0,0,0,.054-.2,1.043,1.043,0,0,0-.14-.786c-.043-.054-.1-.108-.151-.108" transform="translate(7.211 3.833)" fill="#ff8b00"/>
      <path id="Tracciato_4003" data-name="Tracciato 4003" d="M1.359,1.626A.678.678,0,0,1,1.434,1.3l.118-.118c.032-.011.1-.054.129-.011V1.26l-.022.14a.257.257,0,0,0,.054.151l.065.086c.118.161.118.441-.129.484s-.3-.334-.291-.5" transform="translate(6.573 3.217)" fill="#ffe500"/>
      <path id="Tracciato_4004" data-name="Tracciato 4004" d="M1.646,2.189a.165.165,0,0,1-.14-.054.627.627,0,0,1-.151-.474.691.691,0,0,1,.075-.344.322.322,0,0,1,.14-.129c.043-.022.129-.065.183-.011v.129l-.022.129.043.129.043.043.022.032a.374.374,0,0,1,.065.377.243.243,0,0,1-.215.172H1.646m-.215-.527a.649.649,0,0,0,.129.42.143.143,0,0,0,.118.032A.207.207,0,0,0,1.84,2a.314.314,0,0,0-.065-.3l-.022-.032-.043-.054a.357.357,0,0,1-.054-.172l.022-.151V1.264l.011-.032H1.679l-.065.022-.108.108a.545.545,0,0,0-.075.3" transform="translate(6.533 3.181)" fill="#ff8b00"/>
      <path id="Tracciato_4005" data-name="Tracciato 4005" d="M1.514,1.753h0a.655.655,0,0,1,.1.248,1.824,1.824,0,0,0,.011.248V2.27h.022A.741.741,0,0,0,1.837,2a1.184,1.184,0,0,0,.043-.334.5.5,0,0,0-.054-.28.344.344,0,0,0-.258-.118.238.238,0,0,0-.194.065.328.328,0,0,0,0,.248c.022.065.1.118.14.172" transform="translate(6.493 4.327)" fill="#ffe500"/>
      <path id="Tracciato_4006" data-name="Tracciato 4006" d="M1.674,2.343l-.022-.011L1.631,2.3a.242.242,0,0,1-.011-.151l-.011-.1a.434.434,0,0,0-.086-.226l.032-.032-.032.022L1.47,1.762l-.1-.14a.3.3,0,0,1,.011-.269.234.234,0,0,1,.226-.086A.371.371,0,0,1,1.9,1.4a.5.5,0,0,1,.065.3,1,1,0,0,1-.054.344.513.513,0,0,1-.194.28l-.043.022m-.086-.57h0a.673.673,0,0,1,.108.269v.194a.466.466,0,0,0,.14-.226A1.58,1.58,0,0,0,1.889,1.7a.385.385,0,0,0-.054-.248.271.271,0,0,0-.226-.108c-.032,0-.118,0-.151.054s-.032.118,0,.2l.075.108.054.065" transform="translate(6.451 4.287)" fill="#ff8b00"/>
      <path id="Tracciato_4007" data-name="Tracciato 4007" d="M1.458,1.819h0a.526.526,0,0,1,.086.248c.022.086-.011.161.022.248v.011l.022-.011a.621.621,0,0,0,.194-.269,1.063,1.063,0,0,0,.032-.323.37.37,0,0,0-.054-.28.322.322,0,0,0-.248-.118c-.086,0-.161.011-.194.075a.233.233,0,0,0,0,.237c.011.065.086.118.14.183" transform="translate(5.861 4.864)" fill="#ffe500"/>
      <path id="Tracciato_4008" data-name="Tracciato 4008" d="M1.606,2.407V2.4l-.032-.032a.366.366,0,0,1-.022-.151v-.1a1,1,0,0,0-.086-.237L1.5,1.858l-.032.022-.054-.054L1.3,1.686a.271.271,0,0,1,.032-.28c.022-.054.108-.086.215-.086a.413.413,0,0,1,.28.14.425.425,0,0,1,.075.3,1.344,1.344,0,0,1-.054.344.513.513,0,0,1-.194.28l-.054.022m-.075-.57h0a.879.879,0,0,1,.108.269V2.3a.443.443,0,0,0,.129-.226.64.64,0,0,0,.054-.312.288.288,0,0,0-.054-.248.265.265,0,0,0-.215-.108c-.032,0-.129,0-.161.054a.225.225,0,0,0,0,.2l.075.108.065.065" transform="translate(5.82 4.825)" fill="#ff8b00"/>
      <path id="Tracciato_4009" data-name="Tracciato 4009" d="M1.385,1.886h0a.543.543,0,0,1,.1.248,1.905,1.905,0,0,0,.011.248l.011.011h.011a.553.553,0,0,0,.194-.28,1.064,1.064,0,0,0,.043-.323.5.5,0,0,0-.054-.28.327.327,0,0,0-.258-.118c-.075,0-.151.011-.183.065a.263.263,0,0,0-.011.237c.022.075.1.129.14.194" transform="translate(5.245 5.518)" fill="#ffe500"/>
      <path id="Tracciato_4010" data-name="Tracciato 4010" d="M1.545,2.463H1.535L1.5,2.431a.358.358,0,0,1-.011-.151v-.1a.682.682,0,0,0-.1-.237l.032-.022-.032.022-.054-.054a.347.347,0,0,1-.086-.151.266.266,0,0,1,0-.269.291.291,0,0,1,.226-.086.4.4,0,0,1,.291.14.481.481,0,0,1,.065.3,1.344,1.344,0,0,1-.054.344.513.513,0,0,1-.194.28l-.043.011M1.459,1.9h0a.673.673,0,0,1,.108.269v.194a.466.466,0,0,0,.14-.226,1.04,1.04,0,0,0,.043-.312.361.361,0,0,0-.043-.258.3.3,0,0,0-.226-.1c-.032,0-.118,0-.151.054a.179.179,0,0,0,0,.194l.075.118.054.065" transform="translate(5.203 5.479)" fill="#ff8b00"/>
      <path id="Tracciato_4011" data-name="Tracciato 4011" d="M1.509,1.717h0a.723.723,0,0,1-.248-.108c-.065-.043-.108-.129-.172-.161l-.011-.011-.011.011a.5.5,0,0,0,.054.334,1.159,1.159,0,0,0,.194.258.4.4,0,0,0,.237.161.325.325,0,0,0,.269-.1.2.2,0,0,0,.086-.183.283.283,0,0,0-.161-.172.9.9,0,0,0-.237-.032" transform="translate(3.657 5.967)" fill="#ffe500"/>
      <path id="Tracciato_4012" data-name="Tracciato 4012" d="M1.632,2.273H1.578A.5.5,0,0,1,1.33,2.1a1.105,1.105,0,0,1-.2-.28.551.551,0,0,1-.065-.344l.032-.043.054.011.108.1.075.065a.515.515,0,0,0,.226.1l-.011.043L1.556,1.7l.075.011.172.032a.3.3,0,0,1,.183.2.249.249,0,0,1-.1.215.386.386,0,0,1-.258.108m-.5-.743a.483.483,0,0,0,.054.258,1.618,1.618,0,0,0,.194.258.362.362,0,0,0,.215.14A.248.248,0,0,0,1.836,2.1a.174.174,0,0,0,.065-.14c-.011-.065-.065-.108-.14-.14l-.129-.032h-.1a.652.652,0,0,1-.248-.118l-.1-.086-.054-.054" transform="translate(3.62 5.938)" fill="#ff8b00"/>
      <path id="Tracciato_4013" data-name="Tracciato 4013" d="M1.442,1.88h0a1.015,1.015,0,0,1-.248-.108c-.065-.054-.108-.129-.172-.161L1.011,1.6,1,1.622a.494.494,0,0,0,.054.323.9.9,0,0,0,.194.258.449.449,0,0,0,.237.161.363.363,0,0,0,.269-.1.2.2,0,0,0,.086-.183.283.283,0,0,0-.161-.172.9.9,0,0,0-.237-.032" transform="translate(3.003 7.559)" fill="#ffe500"/>
      <path id="Tracciato_4014" data-name="Tracciato 4014" d="M1.565,2.436H1.511a.577.577,0,0,1-.258-.172A1.33,1.33,0,0,1,1.059,2a.584.584,0,0,1-.065-.344L1.026,1.6l.054.011.108.1.075.065a.8.8,0,0,0,.215.108v.032l.011-.032h.075l.161.032a.257.257,0,0,1,.183.2.207.207,0,0,1-.086.215.386.386,0,0,1-.258.108m-.5-.743a.44.44,0,0,0,.054.258,1.245,1.245,0,0,0,.194.258.438.438,0,0,0,.215.151.31.31,0,0,0,.237-.086c.022-.032.075-.086.065-.151s-.065-.1-.14-.14l-.129-.022-.086-.011H1.468a.779.779,0,0,1-.258-.118l-.086-.086L1.07,1.694" transform="translate(2.966 7.529)" fill="#ff8b00"/>
      <path id="Tracciato_4015" data-name="Tracciato 4015" d="M1.367,2.106h0A.626.626,0,0,1,1.55,2.3a2.007,2.007,0,0,0,.108.215l.011.011.011-.011a.553.553,0,0,0,.075-.323,1.035,1.035,0,0,0-.086-.312.5.5,0,0,0-.151-.237.308.308,0,0,0-.291-.011.228.228,0,0,0-.151.129.3.3,0,0,0,.086.226,1.268,1.268,0,0,0,.2.118" transform="translate(3.81 7.57)" fill="#ffe500"/>
      <path id="Tracciato_4016" data-name="Tracciato 4016" d="M1.7,2.6h0l-.043-.022L1.6,2.452l-.043-.1a.524.524,0,0,0-.172-.172L1.4,2.14l-.022.032L1.306,2.14a.366.366,0,0,1-.14-.1A.273.273,0,0,1,1.08,1.8c.011-.075.075-.129.172-.172a.371.371,0,0,1,.323.022.5.5,0,0,1,.172.258,1.014,1.014,0,0,1,.075.323.532.532,0,0,1-.075.344L1.7,2.6m-.28-.5h0a.706.706,0,0,1,.194.2l.054.108.032.075a.568.568,0,0,0,.043-.258,1.47,1.47,0,0,0-.075-.312.5.5,0,0,0-.14-.215A.306.306,0,0,0,1.274,1.7c-.032.011-.108.043-.118.108s.022.118.075.194l.118.065.075.043" transform="translate(3.784 7.525)" fill="#ff8b00"/>
      <path id="Tracciato_4017" data-name="Tracciato 4017" d="M1.345,2.217h0a.626.626,0,0,1,.183.194,2.007,2.007,0,0,0,.108.215v.011l.022-.011A.548.548,0,0,0,1.722,2.3a.783.783,0,0,0-.075-.312.38.38,0,0,0-.161-.237.319.319,0,0,0-.28-.022.276.276,0,0,0-.151.14c-.022.086.032.151.086.226a1.268,1.268,0,0,0,.2.118" transform="translate(3.563 8.642)" fill="#ffe500"/>
      <path id="Tracciato_4018" data-name="Tracciato 4018" d="M1.678,2.712h0L1.646,2.7l-.075-.14-.043-.1a.706.706,0,0,0-.172-.183l.022-.032-.022.032L1.291,2.25a.33.33,0,0,1-.151-.1.284.284,0,0,1-.086-.258.237.237,0,0,1,.172-.161.371.371,0,0,1,.323.022.5.5,0,0,1,.172.258,1.42,1.42,0,0,1,.075.323.532.532,0,0,1-.075.344l-.043.032m-.28-.5h0a.592.592,0,0,1,.194.2l.054.108.032.075a.467.467,0,0,0,.043-.258,1.47,1.47,0,0,0-.075-.312.5.5,0,0,0-.14-.215.3.3,0,0,0-.258-.011c-.032.011-.108.043-.118.108s.022.118.075.194l.118.065.075.043" transform="translate(3.531 8.599)" fill="#ff8b00"/>
      <path id="Tracciato_4019" data-name="Tracciato 4019" d="M1.33,3.768c-.172-1.162.743-1.388.183-2.378.108.7-.657,1.539-.183,2.378" transform="translate(4.773 5.509)" fill="#007900"/>
      <path id="Tracciato_4020" data-name="Tracciato 4020" d="M1.364,3.84l-.032-.022a1.8,1.8,0,0,1,.022-1.507,1.93,1.93,0,0,0,.161-.883l.022-.043L1.59,1.4A1.244,1.244,0,0,1,1.6,2.656,1.859,1.859,0,0,0,1.4,3.8l-.022.043ZM1.6,1.612a2.692,2.692,0,0,1-.172.721A2.006,2.006,0,0,0,1.3,3.56a1.905,1.905,0,0,1,.226-.936A1.166,1.166,0,0,0,1.6,1.612" transform="translate(4.739 5.47)"/>
      <path id="Tracciato_4021" data-name="Tracciato 4021" d="M1.322,3.833c-.248-1.152.657-1.421.054-2.389.161.7-.581,1.571-.054,2.389" transform="translate(4.349 6.036)" fill="#007900"/>
      <path id="Tracciato_4022" data-name="Tracciato 4022" d="M1.348,3.906l-.032-.022a1.8,1.8,0,0,1-.043-1.507,2.055,2.055,0,0,0,.108-.893L1.4,1.441l.054.011A1.173,1.173,0,0,1,1.52,2.7a1.911,1.911,0,0,0-.129,1.152l-.022.043Zm.129-2.239a3.18,3.18,0,0,1-.129.732,2.08,2.08,0,0,0-.075,1.227,2.182,2.182,0,0,1,.183-.947,1.143,1.143,0,0,0,.022-1.012" transform="translate(4.313 6.007)"/>
      <path id="Tracciato_4023" data-name="Tracciato 4023" d="M2.419,1.454a.357.357,0,0,1-.71,0,.357.357,0,0,1,.71,0" transform="translate(10 2.98)" fill="#ff1a00"/>
      <path id="Tracciato_4024" data-name="Tracciato 4024" d="M2.1,1.838a.383.383,0,0,1-.4-.355.383.383,0,0,1,.4-.355.383.383,0,0,1,.4.355.383.383,0,0,1-.4.355m0-.635a.3.3,0,0,0-.312.28.3.3,0,0,0,.312.28.3.3,0,0,0,.312-.28A.3.3,0,0,0,2.1,1.2" transform="translate(9.961 2.951)"/>
      <path id="Tracciato_4025" data-name="Tracciato 4025" d="M2,1.428c-.151,0-.28-.065-.28-.14s.129-.14.28-.14a.2.2,0,0,0,0,.28" transform="translate(10.069 3.146)" fill="#ffeb00"/>
      <path id="Tracciato_4026" data-name="Tracciato 4026" d="M2.54,1.465a.358.358,0,0,1-.4.3.35.35,0,0,1-.366-.334.358.358,0,0,1,.4-.3.357.357,0,0,1,.366.334" transform="translate(10.644 2.98)" fill="#ff1a00"/>
      <path id="Tracciato_4027" data-name="Tracciato 4027" d="M2.2,1.84H2.191a.393.393,0,0,1-.42-.377.346.346,0,0,1,.14-.248.433.433,0,0,1,.3-.086.4.4,0,0,1,.409.377.33.33,0,0,1-.14.248.48.48,0,0,1-.28.086m-.011-.635a.32.32,0,0,0-.226.075.257.257,0,0,0-.108.194.312.312,0,0,0,.323.291.377.377,0,0,0,.248-.075A.228.228,0,0,0,2.536,1.5a.312.312,0,0,0-.323-.291Z" transform="translate(10.605 2.949)"/>
      <path id="Tracciato_4028" data-name="Tracciato 4028" d="M2.074,1.429c-.161-.011-.3-.075-.291-.151s.14-.14.3-.129a.191.191,0,0,0-.011.28" transform="translate(10.722 3.145)" fill="#ffeb00"/>
      <path id="Tracciato_4029" data-name="Tracciato 4029" d="M2.587,1.566a.348.348,0,0,1-.452.161.347.347,0,0,1-.28-.387.342.342,0,0,1,.452-.172.358.358,0,0,1,.28.4" transform="translate(11.34 3.115)" fill="#ff1a00"/>
      <path id="Tracciato_4030" data-name="Tracciato 4030" d="M2.317,1.825A.418.418,0,0,1,2.156,1.8a.388.388,0,0,1-.3-.441.294.294,0,0,1,.151-.172.445.445,0,0,1,.355-.022.388.388,0,0,1,.3.441.266.266,0,0,1-.151.172.422.422,0,0,1-.194.043m-.118-.6-.161.032a.251.251,0,0,0-.108.129c-.043.129.075.291.248.344a.412.412,0,0,0,.3-.011.251.251,0,0,0,.108-.129c.043-.129-.075-.291-.248-.344L2.2,1.222" transform="translate(11.308 3.083)"/>
      <path id="Tracciato_4031" data-name="Tracciato 4031" d="M2.105,1.433c-.161-.054-.269-.14-.248-.215s.161-.075.323-.032a.17.17,0,0,0-.075.248" transform="translate(11.423 3.259)" fill="#ffeb00"/>
      <path id="Tracciato_4032" data-name="Tracciato 4032" d="M2.657,1.588A.348.348,0,0,1,2.2,1.75a.352.352,0,0,1-.28-.4.352.352,0,0,1,.452-.161.358.358,0,0,1,.28.4" transform="translate(12.023 3.33)" fill="#ff1a00"/>
      <path id="Tracciato_4033" data-name="Tracciato 4033" d="M2.387,1.846a.418.418,0,0,1-.161-.022.388.388,0,0,1-.3-.441.294.294,0,0,1,.151-.172.445.445,0,0,1,.355-.022.388.388,0,0,1,.3.441.266.266,0,0,1-.151.172.422.422,0,0,1-.194.043m-.118-.6-.161.032A.251.251,0,0,0,2,1.4c-.043.129.075.291.248.344a.412.412,0,0,0,.3-.011.251.251,0,0,0,.108-.129c.043-.129-.075-.291-.258-.344l-.129-.022" transform="translate(11.991 3.288)"/>
      <path id="Tracciato_4034" data-name="Tracciato 4034" d="M2.175,1.454c-.161-.054-.269-.14-.248-.215s.161-.075.323-.032a.17.17,0,0,0-.075.248" transform="translate(12.107 3.464)" fill="#ffeb00"/>
      <path id="Tracciato_4035" data-name="Tracciato 4035" d="M2.707,1.648a.35.35,0,0,1-.463.129A.36.36,0,0,1,2,1.358a.35.35,0,0,1,.463-.129.365.365,0,0,1,.248.42" transform="translate(12.673 3.604)" fill="#ff1a00"/>
      <path id="Tracciato_4036" data-name="Tracciato 4036" d="M2.46,1.88l-.194-.032A.4.4,0,0,1,2,1.374a.316.316,0,0,1,.161-.151.5.5,0,0,1,.355,0,.4.4,0,0,1,.269.474.316.316,0,0,1-.161.151L2.46,1.88m-.14-.613-.129.022a.252.252,0,0,0-.118.118c-.054.129.043.291.226.366a.39.39,0,0,0,.291.011.213.213,0,0,0,.118-.118c.054-.129-.054-.291-.226-.366L2.32,1.266" transform="translate(12.64 3.566)"/>
      <path id="Tracciato_4037" data-name="Tracciato 4037" d="M2.223,1.488c-.151-.065-.258-.161-.226-.226s.172-.075.323-.011a.171.171,0,0,0-.1.237" transform="translate(12.758 3.732)" fill="#ffeb00"/>
      <path id="Tracciato_4038" data-name="Tracciato 4038" d="M2.814,1.743a.375.375,0,0,1-.506.065C2.1,1.7,2,1.5,2.072,1.356a.375.375,0,0,1,.506-.065.366.366,0,0,1,.237.452" transform="translate(13.308 3.918)" fill="#ff1a00"/>
      <path id="Tracciato_4039" data-name="Tracciato 4039" d="M2.59,1.95a.654.654,0,0,1-.269-.065c-.226-.118-.334-.344-.248-.506a.282.282,0,0,1,.172-.14.509.509,0,0,1,.387.054c.226.118.344.344.248.506a.243.243,0,0,1-.151.14l-.14.011M2.375,1.3l-.1.011a.182.182,0,0,0-.129.1c-.054.129.032.3.226.4a.391.391,0,0,0,.323.043.191.191,0,0,0,.118-.086c.065-.129-.043-.312-.226-.409A.49.49,0,0,0,2.375,1.3" transform="translate(13.273 3.873)"/>
      <path id="Tracciato_4040" data-name="Tracciato 4040" d="M2.291,1.541c-.161-.086-.258-.2-.226-.269s.183-.043.344.043a.158.158,0,0,0-.118.226" transform="translate(13.412 4.034)" fill="#ffeb00"/>
      <path id="Tracciato_4041" data-name="Tracciato 4041" d="M2.816,1.877a.359.359,0,0,1-.506-.032A.37.37,0,0,1,2.16,1.36c.1-.129.323-.118.506.022s.248.366.151.5" transform="translate(13.962 4.333)" fill="#ff1a00"/>
      <path id="Tracciato_4042" data-name="Tracciato 4042" d="M2.647,2.045a.544.544,0,0,1-.334-.129.425.425,0,0,1-.151-.549.244.244,0,0,1,.194-.1.524.524,0,0,1,.377.118c.194.161.269.409.151.549a.29.29,0,0,1-.194.108H2.647m-.248-.7H2.368a.2.2,0,0,0-.14.075c-.086.108-.022.3.14.43a.46.46,0,0,0,.312.108.2.2,0,0,0,.14-.075c.086-.108.022-.3-.14-.43a.507.507,0,0,0-.28-.108" transform="translate(13.927 4.294)"/>
      <path id="Tracciato_4043" data-name="Tracciato 4043" d="M2.309,1.605c-.14-.108-.215-.248-.172-.3s.183-.011.334.1a.166.166,0,0,0-.161.2" transform="translate(14.06 4.443)" fill="#ffeb00"/>
      <path id="Tracciato_4044" data-name="Tracciato 4044" d="M2.853,1.907a.354.354,0,0,1-.5-.022c-.172-.129-.237-.355-.129-.474s.312-.118.5.022a.355.355,0,0,1,.129.474" transform="translate(14.561 4.841)" fill="#ff1a00"/>
      <path id="Tracciato_4045" data-name="Tracciato 4045" d="M2.684,2.076a.513.513,0,0,1-.312-.118.4.4,0,0,1-.14-.538.28.28,0,0,1,.194-.1.452.452,0,0,1,.355.108c.194.161.258.4.14.538a.253.253,0,0,1-.194.108H2.684M2.469,1.4H2.436a.2.2,0,0,0-.14.075.315.315,0,0,0,.129.42.383.383,0,0,0,.291.1.192.192,0,0,0,.14-.065.334.334,0,0,0-.118-.43.459.459,0,0,0-.269-.1" transform="translate(14.525 4.801)"/>
      <path id="Tracciato_4046" data-name="Tracciato 4046" d="M2.36,1.649c-.14-.108-.2-.237-.161-.291s.183-.022.323.086a.166.166,0,0,0-.161.2" transform="translate(14.655 4.949)" fill="#ffeb00"/>
      <path id="Tracciato_4047" data-name="Tracciato 4047" d="M2.8,2.014A.338.338,0,0,1,2.344,1.9a.34.34,0,0,1-.032-.474.338.338,0,0,1,.452.118.34.34,0,0,1,.032.474" transform="translate(15.091 5.348)" fill="#ff1a00"/>
      <path id="Tracciato_4048" data-name="Tracciato 4048" d="M2.682,2.137H2.65a.457.457,0,0,1-.3-.183.373.373,0,0,1-.032-.517.238.238,0,0,1,.2-.065.509.509,0,0,1,.312.172.4.4,0,0,1,.022.527.244.244,0,0,1-.172.065m-.194-.689-.118.043c-.108.086-.086.269.032.42a.434.434,0,0,0,.258.151.2.2,0,0,0,.14-.043c.108-.086.086-.269-.032-.42a.406.406,0,0,0-.258-.151Z" transform="translate(15.054 5.311)"/>
      <path id="Tracciato_4049" data-name="Tracciato 4049" d="M2.361,1.706c-.108-.129-.151-.269-.1-.312s.183.032.28.161a.146.146,0,0,0-.183.151" transform="translate(15.192 5.429)" fill="#ffeb00"/>
      <path id="Tracciato_4050" data-name="Tracciato 4050" d="M2.757,2.135c-.14.075-.323-.022-.42-.2a.349.349,0,0,1,.054-.474.345.345,0,0,1,.43.2c.1.194.075.4-.065.474" transform="translate(15.496 5.915)" fill="#ff1a00"/>
      <path id="Tracciato_4051" data-name="Tracciato 4051" d="M2.692,2.225l-.086-.011a.476.476,0,0,1-.269-.237.371.371,0,0,1,.075-.517.268.268,0,0,1,.2-.022.476.476,0,0,1,.269.237A.4.4,0,0,1,2.81,2.2l-.118.022M2.53,1.5l-.086.022a.324.324,0,0,0-.043.42.391.391,0,0,0,.226.194.15.15,0,0,0,.151-.011.324.324,0,0,0,.043-.42A.434.434,0,0,0,2.6,1.514L2.53,1.5" transform="translate(15.464 5.879)"/>
      <path id="Tracciato_4052" data-name="Tracciato 4052" d="M2.35,1.77c-.075-.151-.086-.291-.032-.323s.172.065.248.2a.16.16,0,0,0-.215.118" transform="translate(15.613 6.001)" fill="#ffeb00"/>
      <path id="Tracciato_4053" data-name="Tracciato 4053" d="M2.794,2.189c-.129.075-.323-.022-.42-.2a.333.333,0,0,1,.054-.463c.14-.075.323.011.43.194a.358.358,0,0,1-.065.474" transform="translate(15.867 6.529)" fill="#ff1a00"/>
      <path id="Tracciato_4054" data-name="Tracciato 4054" d="M2.732,2.287l-.086-.011a.464.464,0,0,1-.28-.237.382.382,0,0,1,.086-.517.262.262,0,0,1,.2-.022.476.476,0,0,1,.269.237.4.4,0,0,1-.075.527l-.118.022m-.161-.721-.086.022a.3.3,0,0,0-.043.42.407.407,0,0,0,.215.194.147.147,0,0,0,.151-.011c.118-.054.14-.248.054-.409a.457.457,0,0,0-.226-.2l-.065-.011" transform="translate(15.833 6.484)"/>
      <path id="Tracciato_4055" data-name="Tracciato 4055" d="M2.388,1.832c-.075-.14-.086-.291-.032-.323s.172.065.248.2a.16.16,0,0,0-.215.118" transform="translate(15.984 6.606)" fill="#ffeb00"/>
      <path id="Tracciato_4056" data-name="Tracciato 4056" d="M2.761,2.292c-.14.054-.323-.065-.387-.269A.343.343,0,0,1,2.5,1.571c.151-.054.323.065.387.269a.343.343,0,0,1-.129.452" transform="translate(16.18 7.147)" fill="#ff1a00"/>
      <path id="Tracciato_4057" data-name="Tracciato 4057" d="M2.726,2.365,2.6,2.344a.465.465,0,0,1-.226-.28.374.374,0,0,1,.151-.5.258.258,0,0,1,.215.022.421.421,0,0,1,.226.258.41.41,0,0,1-.151.517H2.726m-.118-.743-.054.022c-.129.043-.172.226-.108.4a.418.418,0,0,0,.183.237c.054.011.108.032.151.011.129-.054.172-.226.108-.42a.382.382,0,0,0-.194-.215l-.086-.032" transform="translate(16.152 7.116)"/>
      <path id="Tracciato_4058" data-name="Tracciato 4058" d="M2.4,1.891c-.065-.151-.065-.3,0-.323s.161.086.215.237a.144.144,0,0,0-.215.086" transform="translate(16.302 7.224)" fill="#ffeb00"/>
      <path id="Tracciato_4059" data-name="Tracciato 4059" d="M2.742,2.375c-.151.032-.312-.1-.366-.3a.358.358,0,0,1,.183-.441.333.333,0,0,1,.355.3c.054.2-.022.409-.172.441" transform="translate(16.394 7.828)" fill="#ff1a00"/>
      <path id="Tracciato_4060" data-name="Tracciato 4060" d="M2.731,2.453A.269.269,0,0,1,2.58,2.41a.5.5,0,0,1-.2-.291.389.389,0,0,1,.2-.484.231.231,0,0,1,.2.032.451.451,0,0,1,.2.3.384.384,0,0,1-.2.484H2.731M2.645,1.7,2.6,1.71c-.129.032-.194.2-.151.387a.431.431,0,0,0,.172.248.187.187,0,0,0,.151.032c.118-.032.194-.215.14-.4a.376.376,0,0,0-.161-.248L2.645,1.7" transform="translate(16.362 7.793)"/>
      <path id="Tracciato_4061" data-name="Tracciato 4061" d="M2.4,1.958c-.043-.161-.022-.3.043-.323s.151.108.194.269a.156.156,0,0,0-.237.054" transform="translate(16.531 7.9)" fill="#ffeb00"/>
      <path id="Tracciato_4062" data-name="Tracciato 4062" d="M2.693,2.509c-.151.011-.291-.151-.312-.377s.086-.42.237-.43.291.151.312.377-.086.42-.237.43" transform="translate(16.529 8.533)" fill="#ff1a00"/>
      <path id="Tracciato_4063" data-name="Tracciato 4063" d="M2.711,2.593a.264.264,0,0,1-.172-.065.549.549,0,0,1-.161-.355c-.022-.248.1-.463.269-.474a.237.237,0,0,1,.194.065A.521.521,0,0,1,3,2.108c.022.248-.1.463-.269.484Zm-.043-.818H2.657c-.129.011-.226.183-.2.387a.443.443,0,0,0,.14.3l.129.043c.129-.011.226-.183.2-.387a.443.443,0,0,0-.14-.3l-.118-.043" transform="translate(16.5 8.503)"/>
      <path id="Tracciato_4064" data-name="Tracciato 4064" d="M2.395,2.032c-.011-.172.022-.323.086-.323s.14.129.151.3a.142.142,0,0,0-.237.022" transform="translate(16.676 8.622)" fill="#ffeb00"/>
      <path id="Tracciato_4065" data-name="Tracciato 4065" d="M2.7,2.585c-.151.011-.291-.161-.312-.377s.086-.42.237-.43.291.151.312.377-.086.42-.237.43" transform="translate(16.588 9.275)" fill="#ff1a00"/>
      <path id="Tracciato_4066" data-name="Tracciato 4066" d="M2.717,2.668a.229.229,0,0,1-.172-.075.521.521,0,0,1-.161-.344c-.022-.248.1-.463.269-.474a.269.269,0,0,1,.194.054.575.575,0,0,1,.161.355c.022.248-.1.463-.269.474l-.022.011M2.674,1.85H2.663c-.14.011-.226.183-.2.387a.443.443,0,0,0,.14.3l.129.043c.129-.011.226-.183.2-.387a.443.443,0,0,0-.14-.3L2.674,1.85" transform="translate(16.558 9.235)"/>
      <path id="Tracciato_4067" data-name="Tracciato 4067" d="M2.4,2.117c-.011-.172.022-.323.086-.334s.14.14.151.312a.142.142,0,0,0-.237.022" transform="translate(16.725 9.345)" fill="#ffeb00"/>
      <path id="Tracciato_4068" data-name="Tracciato 4068" d="M1.331,1.754a.355.355,0,0,1,.312.387.355.355,0,0,1-.312.387.355.355,0,0,1-.312-.387.355.355,0,0,1,.312-.387" transform="translate(3.254 9.062)" fill="#ff1a00"/>
      <path id="Tracciato_4069" data-name="Tracciato 4069" d="M1.369,2.6h0a.344.344,0,0,1-.258-.118.5.5,0,0,1-.1-.3.46.46,0,0,1,.1-.3.355.355,0,0,1,.258-.129.408.408,0,0,1,.355.43.5.5,0,0,1-.1.3.362.362,0,0,1-.258.118m0-.764a.244.244,0,0,0-.194.1.384.384,0,0,0-.086.248.406.406,0,0,0,.086.248.242.242,0,0,0,.387,0,.384.384,0,0,0,.086-.248A.318.318,0,0,0,1.369,1.836Z" transform="translate(3.216 9.023)"/>
      <path id="Tracciato_4070" data-name="Tracciato 4070" d="M1.305,1.79c0,.161-.065.3-.14.3s-.14-.14-.129-.3a.188.188,0,0,0,.269,0" transform="translate(3.42 9.414)" fill="#ffeb00"/>
      <path id="Tracciato_4071" data-name="Tracciato 4071" d="M1.433,1.692a.361.361,0,0,1,.183.452.351.351,0,0,1-.387.291.361.361,0,0,1-.183-.452c.065-.2.237-.334.387-.291" transform="translate(3.367 8.371)" fill="#ff1a00"/>
      <path id="Tracciato_4072" data-name="Tracciato 4072" d="M1.327,2.508H1.252A.391.391,0,0,1,1.047,2a.518.518,0,0,1,.2-.291.331.331,0,0,1,.226-.022.383.383,0,0,1,.2.5.459.459,0,0,1-.215.291l-.14.032M1.4,1.755l-.108.032a.356.356,0,0,0-.172.237.316.316,0,0,0,.151.409A.222.222,0,0,0,1.435,2.4a.4.4,0,0,0,.172-.237c.043-.183-.022-.366-.151-.4L1.4,1.755" transform="translate(3.333 8.33)"/>
      <path id="Tracciato_4073" data-name="Tracciato 4073" d="M1.314,1.78c-.043.161-.129.269-.2.258s-.086-.172-.043-.323a.174.174,0,0,0,.248.065" transform="translate(3.508 8.681)" fill="#ffeb00"/>
      <path id="Tracciato_4074" data-name="Tracciato 4074" d="M1.451,1.617a.374.374,0,0,1,.183.463c-.054.2-.226.334-.387.28-.151-.032-.237-.248-.183-.441a.366.366,0,0,1,.387-.3" transform="translate(3.543 7.671)" fill="#ff1a00"/>
      <path id="Tracciato_4075" data-name="Tracciato 4075" d="M1.339,2.447l-.065-.011a.4.4,0,0,1-.215-.506.521.521,0,0,1,.215-.28A.284.284,0,0,1,1.5,1.619a.383.383,0,0,1,.2.5A.459.459,0,0,1,1.49,2.4a.35.35,0,0,1-.151.043m.086-.764-.108.032a.356.356,0,0,0-.172.237c-.054.183.011.366.151.4a.176.176,0,0,0,.161-.022.4.4,0,0,0,.172-.237c.043-.183-.022-.366-.151-.4l-.054-.011" transform="translate(3.504 7.637)"/>
      <path id="Tracciato_4076" data-name="Tracciato 4076" d="M1.332,1.709c-.043.161-.129.269-.2.258s-.086-.172-.043-.323a.174.174,0,0,0,.248.065" transform="translate(3.683 7.988)" fill="#ffeb00"/>
      <path id="Tracciato_4077" data-name="Tracciato 4077" d="M1.5,1.558a.345.345,0,0,1,.14.463.341.341,0,0,1-.4.258.345.345,0,0,1-.14-.463.341.341,0,0,1,.4-.258" transform="translate(3.792 7.02)" fill="#ff1a00"/>
      <path id="Tracciato_4078" data-name="Tracciato 4078" d="M1.357,2.373l-.086-.022A.384.384,0,0,1,1.1,1.845a.425.425,0,0,1,.237-.269.258.258,0,0,1,.215-.022.387.387,0,0,1,.172.517A.475.475,0,0,1,1.5,2.34l-.14.032m.108-.753-.1.022a.449.449,0,0,0-.194.226c-.065.183-.011.366.118.409a.21.21,0,0,0,.161,0,.393.393,0,0,0,.194-.237.315.315,0,0,0-.118-.409l-.065-.011" transform="translate(3.755 6.98)"/>
      <path id="Tracciato_4079" data-name="Tracciato 4079" d="M1.361,1.661c-.054.151-.151.258-.215.237s-.075-.172-.022-.323a.166.166,0,0,0,.237.086" transform="translate(3.923 7.315)" fill="#ffeb00"/>
      <path id="Tracciato_4080" data-name="Tracciato 4080" d="M1.6,1.491A.388.388,0,0,1,1.684,2c-.1.215-.3.323-.441.258a.376.376,0,0,1-.086-.506c.1-.215.291-.323.441-.258" transform="translate(4.074 6.312)" fill="#ff1a00"/>
      <path id="Tracciato_4081" data-name="Tracciato 4081" d="M1.372,2.347l-.108-.022c-.172-.075-.215-.334-.108-.56a.544.544,0,0,1,.28-.28.366.366,0,0,1,.215,0,.423.423,0,0,1,.108.57.587.587,0,0,1-.28.28l-.108.011m.172-.8-.075.011a.461.461,0,0,0-.237.237c-.086.194-.054.4.065.452a.236.236,0,0,0,.151.011.5.5,0,0,0,.237-.237c.086-.194.065-.4-.065-.463L1.545,1.55" transform="translate(4.041 6.285)"/>
      <path id="Tracciato_4082" data-name="Tracciato 4082" d="M1.413,1.613c-.086.161-.194.269-.248.237-.075-.022-.065-.183.022-.344a.153.153,0,0,0,.226.108" transform="translate(4.205 6.631)" fill="#ffeb00"/>
      <path id="Tracciato_4083" data-name="Tracciato 4083" d="M1.729,1.449c.129.1.129.323-.011.517s-.344.258-.484.161-.118-.323.011-.517.355-.258.484-.161" transform="translate(4.47 5.675)" fill="#ff1a00"/>
      <path id="Tracciato_4084" data-name="Tracciato 4084" d="M1.406,2.247a.264.264,0,0,1-.161-.054.435.435,0,0,1,0-.57.531.531,0,0,1,.334-.215.3.3,0,0,1,.215.043.425.425,0,0,1-.011.57.546.546,0,0,1-.323.226H1.406m.226-.764H1.589a.458.458,0,0,0-.269.194c-.129.172-.14.377-.022.452a.169.169,0,0,0,.151.032.437.437,0,0,0,.269-.183.346.346,0,0,0,.022-.463l-.108-.032" transform="translate(4.438 5.642)"/>
      <path id="Tracciato_4085" data-name="Tracciato 4085" d="M1.475,1.587c-.108.14-.237.226-.291.194-.065-.054-.022-.2.086-.344a.155.155,0,0,0,.2.151" transform="translate(4.584 5.958)" fill="#ffeb00"/>
      <path id="Tracciato_4086" data-name="Tracciato 4086" d="M1.761,1.392a.361.361,0,0,1,0,.5.371.371,0,0,1-.474.161.376.376,0,0,1,0-.506.355.355,0,0,1,.474-.151" transform="translate(4.944 5.087)" fill="#ff1a00"/>
      <path id="Tracciato_4087" data-name="Tracciato 4087" d="M1.474,2.154A.273.273,0,0,1,1.3,2.111a.408.408,0,0,1-.011-.56.515.515,0,0,1,.312-.2.309.309,0,0,1,.226.043.422.422,0,0,1,0,.56.544.544,0,0,1-.3.2H1.474m.194-.732H1.635a.511.511,0,0,0-.28.183.328.328,0,0,0-.011.441.187.187,0,0,0,.151.032.6.6,0,0,0,.28-.172.352.352,0,0,0,0-.452l-.108-.032" transform="translate(4.908 5.046)"/>
      <path id="Tracciato_4088" data-name="Tracciato 4088" d="M1.517,1.525c-.1.14-.226.215-.291.172s-.011-.183.086-.323a.165.165,0,0,0,.2.151" transform="translate(5.059 5.352)" fill="#ffeb00"/>
      <path id="Tracciato_4089" data-name="Tracciato 4089" d="M1.861,1.374a.344.344,0,0,1-.1.463A.343.343,0,0,1,1.3,1.89a.354.354,0,0,1,.086-.474.343.343,0,0,1,.474-.043" transform="translate(5.436 4.599)" fill="#ff1a00"/>
      <path id="Tracciato_4090" data-name="Tracciato 4090" d="M1.509,2.027H1.488A.23.23,0,0,1,1.3,1.941a.378.378,0,0,1,.1-.517A.453.453,0,0,1,1.735,1.3a.23.23,0,0,1,.183.086.377.377,0,0,1-.1.517.469.469,0,0,1-.312.129m.2-.657a.421.421,0,0,0-.258.108.324.324,0,0,0-.1.42.186.186,0,0,0,.14.054.348.348,0,0,0,.269-.108c.14-.129.183-.312.1-.409a.16.16,0,0,0-.14-.065Z" transform="translate(5.4 4.57)"/>
      <path id="Tracciato_4091" data-name="Tracciato 4091" d="M1.565,1.5c-.118.108-.258.161-.3.108s.022-.183.14-.291a.153.153,0,0,0,.161.183" transform="translate(5.527 4.816)" fill="#ffeb00"/>
      <path id="Tracciato_4092" data-name="Tracciato 4092" d="M1.981,1.369A.354.354,0,0,1,1.8,1.81a.351.351,0,0,1-.474-.054c-.075-.129.011-.323.194-.43a.335.335,0,0,1,.463.043" transform="translate(5.983 4.206)" fill="#ff1a00"/>
      <path id="Tracciato_4093" data-name="Tracciato 4093" d="M1.591,1.956l-.1-.011a.247.247,0,0,1-.161-.129.372.372,0,0,1,.194-.484.436.436,0,0,1,.355-.065.268.268,0,0,1,.161.118.384.384,0,0,1-.194.5.591.591,0,0,1-.258.075m.194-.624a.388.388,0,0,0-.215.065.315.315,0,0,0-.172.387.2.2,0,0,0,.118.086.416.416,0,0,0,.291-.054c.161-.1.248-.269.172-.387a.167.167,0,0,0-.118-.086l-.075-.011" transform="translate(5.954 4.168)"/>
      <path id="Tracciato_4094" data-name="Tracciato 4094" d="M1.629,1.48c-.14.086-.28.108-.312.043s.054-.172.194-.248a.145.145,0,0,0,.118.2" transform="translate(6.076 4.396)" fill="#ffeb00"/>
      <path id="Tracciato_4095" data-name="Tracciato 4095" d="M2.041,1.329c.075.129-.011.323-.194.43a.339.339,0,0,1-.463-.043.346.346,0,0,1,.183-.43.349.349,0,0,1,.474.043" transform="translate(6.568 3.816)" fill="#ff1a00"/>
      <path id="Tracciato_4096" data-name="Tracciato 4096" d="M1.651,1.916l-.1-.022a.207.207,0,0,1-.161-.118.372.372,0,0,1,.194-.484.436.436,0,0,1,.355-.065.268.268,0,0,1,.161.118.384.384,0,0,1-.194.5.591.591,0,0,1-.258.075m.194-.624a.388.388,0,0,0-.215.065c-.161.1-.248.269-.172.377a.217.217,0,0,0,.118.1.416.416,0,0,0,.291-.054c.161-.1.248-.269.172-.387A.167.167,0,0,0,1.92,1.3l-.075-.011" transform="translate(6.539 3.777)"/>
      <path id="Tracciato_4097" data-name="Tracciato 4097" d="M1.69,1.44c-.14.086-.28.108-.312.043s.043-.172.194-.248a.145.145,0,0,0,.118.2" transform="translate(6.661 4.005)" fill="#ffeb00"/>
      <path id="Tracciato_4098" data-name="Tracciato 4098" d="M2.139,1.336a.343.343,0,0,1-.248.4.322.322,0,0,1-.452-.118c-.065-.14.043-.323.248-.4a.341.341,0,0,1,.452.118" transform="translate(7.182 3.496)" fill="#ff1a00"/>
      <path id="Tracciato_4099" data-name="Tracciato 4099" d="M1.745,1.846l-.161-.032a.294.294,0,0,1-.151-.151c-.065-.161.065-.355.269-.441a.481.481,0,0,1,.366-.011.255.255,0,0,1,.14.14c.075.172-.054.366-.269.452a.422.422,0,0,1-.194.043m.161-.592-.172.032c-.172.075-.28.237-.226.355a.21.21,0,0,0,.108.108.419.419,0,0,0,.3-.011c.172-.075.269-.226.226-.355a.21.21,0,0,0-.108-.108l-.129-.022" transform="translate(7.144 3.46)"/>
      <path id="Tracciato_4100" data-name="Tracciato 4100" d="M1.754,1.427c-.151.065-.291.065-.323,0s.086-.161.237-.226a.147.147,0,0,0,.086.226" transform="translate(7.264 3.664)" fill="#ffeb00"/>
      <path id="Tracciato_4101" data-name="Tracciato 4101" d="M2.228,1.344c.043.151-.086.312-.291.377S1.54,1.71,1.5,1.56s.086-.323.291-.377a.331.331,0,0,1,.441.161" transform="translate(7.845 3.262)" fill="#ff1a00"/>
      <path id="Tracciato_4102" data-name="Tracciato 4102" d="M1.829,1.814a.483.483,0,0,1-.2-.054A.275.275,0,0,1,1.5,1.6c-.054-.172.086-.355.312-.42a.5.5,0,0,1,.355.022.266.266,0,0,1,.129.161.362.362,0,0,1-.312.42l-.151.032m.129-.581-.129.022c-.183.054-.3.194-.258.323a.2.2,0,0,0,.1.118.4.4,0,0,0,.3.022c.172-.054.291-.2.258-.334a.236.236,0,0,0-.1-.108.316.316,0,0,0-.172-.043" transform="translate(7.803 3.234)"/>
      <path id="Tracciato_4103" data-name="Tracciato 4103" d="M1.811,1.413c-.151.043-.3.032-.312-.032s.1-.151.248-.2a.159.159,0,0,0,.065.237" transform="translate(7.929 3.42)" fill="#ffeb00"/>
      <path id="Tracciato_4104" data-name="Tracciato 4104" d="M2.367,1.374c.022.151-.14.3-.366.334s-.42-.075-.441-.226.151-.3.366-.334.42.075.441.226" transform="translate(8.536 3.114)" fill="#ff1a00"/>
      <path id="Tracciato_4105" data-name="Tracciato 4105" d="M1.956,1.782A.515.515,0,0,1,1.665,1.7a.251.251,0,0,1-.108-.172c-.022-.172.161-.344.4-.377a.486.486,0,0,1,.377.086.251.251,0,0,1,.108.172c.022.172-.161.344-.4.377H1.956m.086-.56H1.967c-.194.032-.344.161-.334.291a.226.226,0,0,0,.086.118.427.427,0,0,0,.312.075c.194-.032.344-.161.334-.291A.2.2,0,0,0,2.289,1.3a.377.377,0,0,0-.248-.075" transform="translate(8.505 3.072)"/>
      <path id="Tracciato_4106" data-name="Tracciato 4106" d="M1.9,1.4c-.183.022-.323-.011-.334-.075s.118-.14.291-.161A.145.145,0,0,0,1.9,1.4" transform="translate(8.623 3.263)" fill="#ffeb00"/>
      <path id="Tracciato_4107" data-name="Tracciato 4107" d="M2.433,1.366c.022.151-.14.3-.366.334s-.42-.075-.43-.226.14-.3.366-.334.409.075.43.226" transform="translate(9.276 3.036)" fill="#ff1a00"/>
      <path id="Tracciato_4108" data-name="Tracciato 4108" d="M2.022,1.77a.444.444,0,0,1-.291-.086.237.237,0,0,1-.1-.172c-.032-.172.151-.344.387-.377a.521.521,0,0,1,.377.086.251.251,0,0,1,.108.172c.022.172-.151.344-.4.377H2.022m.086-.56-.075.011c-.194.022-.344.151-.323.28a.163.163,0,0,0,.075.118.427.427,0,0,0,.312.075c.2-.032.344-.161.334-.291a.2.2,0,0,0-.075-.118.377.377,0,0,0-.248-.075" transform="translate(9.236 2.997)"/>
      <path id="Tracciato_4109" data-name="Tracciato 4109" d="M1.976,1.389c-.172.022-.323-.011-.334-.075s.129-.14.3-.161a.148.148,0,0,0,.032.237" transform="translate(9.346 3.185)" fill="#ffeb00"/>
      <path id="Tracciato_4110" data-name="Tracciato 4110" d="M1.043,1.925A7.953,7.953,0,0,0,5.886,7.7l-.1.646A8.116,8.116,0,0,1,1.043,1.925" transform="translate(3.499 10.732)" fill="#ffe154"/>
      <path id="Tracciato_4111" data-name="Tracciato 4111" d="M5.828,8.421H5.807A8.434,8.434,0,0,1,2.6,5.849,8.714,8.714,0,0,1,1.039,1.964l.043-.043.032.032A7.987,7.987,0,0,0,5.936,7.7l.032.043-.108.646v.032H5.828M1.276,2.707A8.02,8.02,0,0,0,5.807,8.325l.075-.56a7.523,7.523,0,0,1-3.067-2.2A8.977,8.977,0,0,1,1.276,2.707" transform="translate(3.46 10.692)"/>
      <path id="Tracciato_4112" data-name="Tracciato 4112" d="M2.393,3.085l-.065.032-.043-.054L2.21,2.988,2.124,2.9l-.151-.065c-.075-.011-.161.011-.226-.022-.129-.032-.183-.172-.28-.248l-.075-.054-.022-.086a.314.314,0,0,1,.258.161l.043.043.108.011a.348.348,0,0,1,.269.1l.054.043.075.032a.283.283,0,0,1,.215.194v.075" transform="translate(6.701 15.641)" fill="#a51000"/>
      <path id="Tracciato_4113" data-name="Tracciato 4113" d="M1.98,2.794c-.065-.054-.151-.065-.215-.118S1.679,2.547,1.6,2.5c-.054-.022-.129-.022-.172-.065l-.065-.054-.075-.022c-.022.043.011.1.043.129l.129.075a.192.192,0,0,1,.118.086l.043.086.086.054.032.065a.209.209,0,0,0,.2.075.073.073,0,0,0,.032-.14" transform="translate(5.855 15.017)" fill="#a51000"/>
      <path id="Tracciato_4114" data-name="Tracciato 4114" d="M1.543,2.561l-.065-.086-.086-.108a.128.128,0,0,0-.118-.043H1.253l-.011.022.043.108.075.086.043.054.054.043h.1l-.011-.075" transform="translate(5.441 14.605)" fill="#a51000"/>
      <path id="Tracciato_4115" data-name="Tracciato 4115" d="M1.319,2.462,1.255,2.4,1.2,2.3V2.29l.011-.011.1.022.032.065.108.1a.131.131,0,0,1,.065.129L1.5,2.6h0c-.075,0-.151-.1-.183-.14" transform="translate(5.041 14.187)" fill="#a51000"/>
      <path id="Tracciato_4116" data-name="Tracciato 4116" d="M1.257,2.429,1.2,2.364l-.032-.108V2.246l.011-.011.075.032.043.075.1.1c.032.043.065.086.043.14l-.011.011c-.075-.011-.129-.118-.172-.161" transform="translate(4.748 13.758)" fill="#a51000"/>
      <path id="Tracciato_4117" data-name="Tracciato 4117" d="M1.216,2.386l-.054-.065-.022-.108V2.192h.022l.065.032.032.075.1.108a.181.181,0,0,1,.043.14l-.011.011H1.378c-.075-.022-.118-.118-.161-.172" transform="translate(4.455 13.338)" fill="#a51000"/>
      <path id="Tracciato_4118" data-name="Tracciato 4118" d="M1.162,2.331l-.043-.075-.011-.108V2.138l.022-.011.065.054.022.075.075.118a.135.135,0,0,1,.022.14v.011H1.3c-.075-.032-.108-.14-.14-.194" transform="translate(4.133 12.703)" fill="#a51000"/>
      <path id="Tracciato_4119" data-name="Tracciato 4119" d="M1.109,2.206l-.022-.054V2.088H1.1l.011-.011.032.032v.032l.054.1v.1H1.184c-.043-.022-.054-.1-.075-.129" transform="translate(3.928 12.215)" fill="#a51000"/>
      <path id="Tracciato_4120" data-name="Tracciato 4120" d="M1.1,2.135l-.011-.022L1.076,2.07l.011-.022H1.1l.022.022L1.13,2.1l.022.054v.065L1.1,2.135" transform="translate(3.822 11.94)" fill="#a51000"/>
      <path id="Tracciato_4121" data-name="Tracciato 4121" d="M6.794,1.925A7.976,7.976,0,0,1,1.951,7.7l.1.646A8.138,8.138,0,0,0,6.794,1.925" transform="translate(12.363 10.732)" fill="#ffe154"/>
      <path id="Tracciato_4122" data-name="Tracciato 4122" d="M2.087,8.421H2.076l-.022-.032-.108-.646L1.969,7.7A7.954,7.954,0,0,0,6.8,1.953l.043-.032.032.043A8.714,8.714,0,0,1,5.316,5.849,8.517,8.517,0,0,1,2.108,8.421Zm-.054-.657.086.56A8.046,8.046,0,0,0,6.65,2.707,9.334,9.334,0,0,1,5.1,5.569a7.452,7.452,0,0,1-3.067,2.2" transform="translate(12.324 10.692)"/>
      <path id="Tracciato_4123" data-name="Tracciato 4123" d="M1.979,3.085l.054.032.043-.054.075-.075L2.237,2.9l.151-.065a.806.806,0,0,0,.226-.022c.118-.032.183-.172.28-.248l.075-.054.022-.086a.314.314,0,0,0-.258.161l-.043.043-.108.011a.348.348,0,0,0-.269.1l-.054.043-.086.032a.255.255,0,0,0-.194.194v.075" transform="translate(12.636 15.641)" fill="#a51000"/>
      <path id="Tracciato_4124" data-name="Tracciato 4124" d="M2.134,2.794c.065-.054.151-.065.215-.118s.086-.129.161-.172c.054-.022.129-.022.172-.065l.065-.054.075-.022a.107.107,0,0,1-.043.129l-.129.075a.192.192,0,0,0-.118.086L2.5,2.741l-.1.054-.032.065a.209.209,0,0,1-.2.075.073.073,0,0,1-.032-.14" transform="translate(13.73 15.017)" fill="#a51000"/>
      <path id="Tracciato_4125" data-name="Tracciato 4125" d="M2.184,2.561l.065-.086.086-.108a.128.128,0,0,1,.118-.043h.011l.022.022-.043.108-.075.086-.043.054-.054.043h-.1l.011-.075" transform="translate(14.53 14.605)" fill="#a51000"/>
      <path id="Tracciato_4126" data-name="Tracciato 4126" d="M2.42,2.462,2.485,2.4l.043-.1V2.29l-.022-.011L2.442,2.3l-.054.065-.108.1a.131.131,0,0,0-.065.129l.011.011h.011c.075,0,.129-.1.183-.14" transform="translate(14.929 14.187)" fill="#a51000"/>
      <path id="Tracciato_4127" data-name="Tracciato 4127" d="M2.444,2.429,2.5,2.364l.032-.108V2.246l-.011-.011-.075.032L2.4,2.343l-.1.1a.178.178,0,0,0-.054.14l.022.011c.075-.011.129-.118.172-.161" transform="translate(15.26 13.758)" fill="#a51000"/>
      <path id="Tracciato_4128" data-name="Tracciato 4128" d="M2.464,2.386l.054-.065.022-.108V2.192H2.518l-.065.032L2.421,2.3l-.1.108a.181.181,0,0,0-.043.14l.011.011H2.3c.075-.022.118-.118.161-.172" transform="translate(15.562 13.338)" fill="#a51000"/>
      <path id="Tracciato_4129" data-name="Tracciato 4129" d="M2.484,2.331l.043-.075.011-.108V2.138l-.022-.011-.065.054-.022.075-.086.118a.132.132,0,0,0-.011.14v.011h.022c.065-.032.1-.14.129-.194" transform="translate(15.931 12.703)" fill="#a51000"/>
      <path id="Tracciato_4130" data-name="Tracciato 4130" d="M2.433,2.206l.022-.054V2.088l-.022-.011L2.4,2.109l-.011.054-.043.075v.1h.011c.043-.022.054-.1.075-.129" transform="translate(16.229 12.215)" fill="#a51000"/>
      <path id="Tracciato_4131" data-name="Tracciato 4131" d="M2.425,2.135l.011-.022V2.049H2.425L2.4,2.07,2.393,2.1l-.022.054-.011.065h.011l.054-.086" transform="translate(16.359 11.94)" fill="#a51000"/>
      <path id="Tracciato_4132" data-name="Tracciato 4132" d="M1.754,1.441c.732-.258,1.033.1.915,1.055.883-.829-.151-1.851-.915-1.055" transform="translate(10.44 3.197)" fill="#007900"/>
      <path id="Tracciato_4133" data-name="Tracciato 4133" d="M2.709,2.562H2.687l-.022-.043c.065-.506,0-.839-.183-.99-.14-.118-.366-.118-.678-.011L1.751,1.5l.011-.054a.843.843,0,0,1,.807-.269.694.694,0,0,1,.5.506.884.884,0,0,1-.334.872ZM2.192,1.357a.508.508,0,0,1,.344.108c.194.161.269.474.215.958A.815.815,0,0,0,2.989,1.7a.644.644,0,0,0-.441-.452.68.68,0,0,0-.592.14.96.96,0,0,1,.237-.032" transform="translate(10.41 3.164)"/>
      <path id="Tracciato_4134" data-name="Tracciato 4134" d="M1.7,1.281c.775-.022.958.409.549,1.281,1.1-.506.43-1.8-.549-1.281" transform="translate(9.913 3.272)" fill="#007900"/>
      <path id="Tracciato_4135" data-name="Tracciato 4135" d="M2.278,2.639H2.257l-.011-.054q.323-.71.129-1-.145-.242-.646-.226L1.7,1.326l.022-.043a.806.806,0,0,1,.85-.011.68.68,0,0,1,.312.635.916.916,0,0,1-.581.732ZM1.912,1.283a.665.665,0,0,1,.538.258,1.066,1.066,0,0,1-.086.969A.809.809,0,0,0,2.806,1.9a.656.656,0,0,0-.28-.56.71.71,0,0,0-.613-.054" transform="translate(9.883 3.227)"/>
      <path id="Tracciato_4136" data-name="Tracciato 4136" d="M2.443,1.87c.721.161.28,1.442.28,2.239a4.622,4.622,0,0,1-.28-2.239" transform="translate(16.897 10.195)" fill="#007900"/>
      <path id="Tracciato_4137" data-name="Tracciato 4137" d="M2.759,4.181,2.727,4.17A4.752,4.752,0,0,1,2.436,1.9l.011-.032h.032c.57.108.474.85.387,1.55a4.579,4.579,0,0,0-.065.721l-.032.043ZM2.512,1.953a4.766,4.766,0,0,0,.215,2c.011-.172.032-.355.054-.549.086-.646.172-1.324-.269-1.453" transform="translate(16.86 10.165)"/>
      <path id="Tracciato_4138" data-name="Tracciato 4138" d="M2.642,4.913c-.366-1.507,1-2.217.258-3.035.086.893-1.022,1.97-.258,3.035" transform="translate(16.472 10.273)" fill="#007900"/>
      <path id="Tracciato_4139" data-name="Tracciato 4139" d="M2.673,5l-.022-.011a1.961,1.961,0,0,1,0-2,2.524,2.524,0,0,0,.237-1.065l.022-.032.032-.011c.409.452.237.861.022,1.345a2.531,2.531,0,0,0-.258,1.722v.032Zm.3-2.96A3.062,3.062,0,0,1,2.727,3a2.071,2.071,0,0,0-.14,1.743A2.761,2.761,0,0,1,2.9,3.187c.183-.441.334-.786.075-1.152" transform="translate(16.441 10.234)"/>
      <path id="Tracciato_4140" data-name="Tracciato 4140" d="M2.882,3.982c.194-1.227-.936-1.733-.4-2.432-.011.721.936,1.528.4,2.432" transform="translate(16.135 7.071)" fill="#007900"/>
      <path id="Tracciato_4141" data-name="Tracciato 4141" d="M2.919,4.064l-.011-.011-.032-.043a2,2,0,0,0-.312-1.367c-.194-.377-.366-.71-.075-1.076l.043-.022.032.043a1.888,1.888,0,0,0,.258.829,1.642,1.642,0,0,1,.129,1.625l-.032.022m-.43-2.357c-.161.3-.022.57.151.893A2.411,2.411,0,0,1,2.984,3.8,1.722,1.722,0,0,0,2.747,2.45a2.66,2.66,0,0,1-.258-.743" transform="translate(16.098 7.032)"/>
      <path id="Tracciato_4142" data-name="Tracciato 4142" d="M2.346,3.89c.484-1.152-.5-1.9.194-2.454-.183.7.538,1.7-.194,2.454" transform="translate(15.617 5.958)" fill="#007900"/>
      <path id="Tracciato_4143" data-name="Tracciato 4143" d="M2.371,3.972l-.022-.011-.011-.043a2.049,2.049,0,0,0,.022-1.41c-.086-.409-.183-.775.183-1.065L2.6,1.432l.011.043a2.1,2.1,0,0,0,.054.883,1.653,1.653,0,0,1-.258,1.6l-.032.011m.151-2.389c-.237.248-.172.549-.086.9a2.276,2.276,0,0,1,.054,1.248,1.769,1.769,0,0,0,.1-1.367,2.221,2.221,0,0,1-.065-.786" transform="translate(15.581 5.919)"/>
      <path id="Tracciato_4144" data-name="Tracciato 4144" d="M1.615,4.589c.075-1.356-1-1.507-.474-2.7-.054.807.926,1.69.474,2.7" transform="translate(3.034 10.37)" fill="#007900"/>
      <path id="Tracciato_4145" data-name="Tracciato 4145" d="M1.645,4.662h0l-.032-.043a2.134,2.134,0,0,0-.355-1.281,1.39,1.39,0,0,1-.118-1.431l.043-.022.032.043a2.248,2.248,0,0,0,.269.99,2.086,2.086,0,0,1,.2,1.722l-.043.022m-.506-2.54a1.273,1.273,0,0,0,.194,1.173,2.274,2.274,0,0,1,.355,1.087,2.187,2.187,0,0,0-.28-1.431,3.232,3.232,0,0,1-.269-.829" transform="translate(3.004 10.341)"/>
      <path id="Tracciato_4146" data-name="Tracciato 4146" d="M1.2,4.622c.344-1.313-.689-1.668.065-2.744-.2.786.57,1.84-.065,2.744" transform="translate(2.891 10.273)" fill="#007900"/>
      <path id="Tracciato_4147" data-name="Tracciato 4147" d="M1.225,4.695H1.214l-.022-.054a2.167,2.167,0,0,0-.086-1.324,1.372,1.372,0,0,1,.161-1.431l.043-.011.022.043a2.477,2.477,0,0,0,.075,1.033,2.058,2.058,0,0,1-.151,1.733l-.032.011m0-2.594a1.286,1.286,0,0,0-.043,1.184,2.462,2.462,0,0,1,.14,1.141,2.312,2.312,0,0,0,.011-1.453A3.216,3.216,0,0,1,1.225,2.1" transform="translate(2.854 10.243)"/>
      <path id="Tracciato_4148" data-name="Tracciato 4148" d="M1.793,3.632a1.417,1.417,0,0,1-.14-.409,5.509,5.509,0,0,1-.1-1.033.863.863,0,0,1,.14-.527A.876.876,0,0,1,2.331,1.4a13.135,13.135,0,0,1,1.84-.032,2.01,2.01,0,0,1,.71.118A.781.781,0,0,1,5.3,1.9a.714.714,0,0,1-.022.5l-.161.484v.043a.887.887,0,0,1-.011.474.929.929,0,0,1-.334.5,1.6,1.6,0,0,1-.936.258,5.916,5.916,0,0,1-1.065-.075c-.4-.043-.764-.043-.979-.441" transform="translate(8.507 5.171)" fill="#8e8b86"/>
      <path id="Tracciato_4149" data-name="Tracciato 4149" d="M3.758,4.231a6.979,6.979,0,0,1-.829-.065L2.8,4.156l-.129-.022a.977.977,0,0,1-.883-.441,1.569,1.569,0,0,1-.129-.42,4.913,4.913,0,0,1-.108-1.044.915.915,0,0,1,.151-.56A.91.91,0,0,1,2.359,1.4,13.558,13.558,0,0,1,4.21,1.368a2.011,2.011,0,0,1,.732.129.752.752,0,0,1,.43.42.785.785,0,0,1-.022.527l-.022.065c-.043.14-.086.28-.14.42v.011a.813.813,0,0,1-.011.506.942.942,0,0,1-.344.517,1.643,1.643,0,0,1-.958.269Zm-.323-2.8a9.058,9.058,0,0,0-1.065.054.81.81,0,0,0-.6.237.812.812,0,0,0-.129.506,4.2,4.2,0,0,0,.1,1.033,1.265,1.265,0,0,0,.129.387c.183.344.484.366.818.409l.129.011.118.011a6.862,6.862,0,0,0,.936.075A1.615,1.615,0,0,0,4.781,3.9.858.858,0,0,0,5.1,3.424a.805.805,0,0,0,.011-.452V2.907c.054-.14.1-.291.14-.42l.022-.065A.71.71,0,0,0,5.3,1.949a.7.7,0,0,0-.4-.387,1.991,1.991,0,0,0-.7-.108c-.237-.011-.5-.022-.764-.022" transform="translate(8.468 5.132)"/>
      <path id="Tracciato_4150" data-name="Tracciato 4150" d="M1.855,2.4l-.032-.022.011-.054a.979.979,0,0,0,.441-.366l.108-.194L2.5,1.508l.054-.022.022.054L2.458,1.8,2.34,2a1.177,1.177,0,0,1-.463.4Z" transform="translate(11.113 6.446)"/>
      <path id="Tracciato_4151" data-name="Tracciato 4151" d="M4.2,1.677a7.853,7.853,0,0,1-.872-.011,1.024,1.024,0,0,0-.312.011.4.4,0,0,0-.248.344,16.854,16.854,0,0,0-.269,2.217Q2.366,5.433,2.2,6.628c-.161,1.238-.323,2.465-.484,3.691-.075.57-.161,1.141-.237,1.7a.787.787,0,0,0,.2.387.757.757,0,0,0,.42.226A.987.987,0,0,0,2.355,13a.968.968,0,0,0,.775.248c.312-.043.334-.215.624-.258.334-.054.538.14.775.215.3.108.818.054,1.679-.689a.511.511,0,0,0,.3-.161.634.634,0,0,0,.151-.3c-.194-1.636-.387-3.283-.57-4.929L5.8,4.659c-.065-.538-.14-1.076-.194-1.625-.022-.28-.022-.56-.054-.829a.851.851,0,0,0-.258-.549.746.746,0,0,0-.527-.032,5.11,5.11,0,0,1-.57.054" transform="translate(7.794 7.471)" fill="#8e8b86"/>
      <path id="Tracciato_4152" data-name="Tracciato 4152" d="M3.061,13.319a1.1,1.1,0,0,1-.689-.248.922.922,0,0,1-.248-.377.89.89,0,0,1-.43-.215.8.8,0,0,1-.2-.409l-.011-.022c.086-.56.161-1.13.237-1.69.2-1.5.355-2.637.484-3.7.1-.71.2-1.561.3-2.389l.065-.721a7.8,7.8,0,0,1,.194-1.5c.043-.161.1-.312.28-.366a.78.78,0,0,1,.312-.022h.022a7.629,7.629,0,0,0,.861.011c.151-.011.355-.022.56-.043l.043-.022a.712.712,0,0,1,.517.054.816.816,0,0,1,.269.57c.022.161.032.312.043.474,0,.118.011.237.022.366.032.355.086.721.129,1.087l.065.538.85,7.394V12.1a.681.681,0,0,1-.151.323.835.835,0,0,1-.312.172c-.7.592-1.281.829-1.711.678l-.215-.086a.823.823,0,0,0-.538-.129.689.689,0,0,0-.28.108.571.571,0,0,1-.344.151H3.061m-1.5-1.27a.761.761,0,0,0,.194.366.609.609,0,0,0,.4.2l.022.022A.876.876,0,0,0,2.426,13a.914.914,0,0,0,.743.248.7.7,0,0,0,.312-.129.56.56,0,0,1,.312-.129.992.992,0,0,1,.581.129l.2.1c.409.129.958-.1,1.647-.689h.022a.528.528,0,0,0,.269-.161.534.534,0,0,0,.14-.269L5.795,4.7,5.73,4.171c-.043-.366-.086-.732-.118-1.1l-.032-.366a3.345,3.345,0,0,0-.032-.463.814.814,0,0,0-.237-.517A.649.649,0,0,0,4.858,1.7L4.8,1.707a3.759,3.759,0,0,1-.57.043,7.852,7.852,0,0,1-.872,0l-.011-.011a.885.885,0,0,0-.291.022c-.129.043-.183.151-.226.312a8.5,8.5,0,0,0-.194,1.485c-.022.237-.032.484-.065.721-.1.839-.2,1.679-.291,2.389-.14,1.065-.291,2.206-.5,3.7l-.226,1.679" transform="translate(7.755 7.441)"/>
      <path id="Tracciato_4153" data-name="Tracciato 4153" d="M1.58,6.36h0l-.043-.043.215-4.036L1.8,2.238l.032.043-.2,4.047L1.58,6.36" transform="translate(8.325 13.787)"/>
      <path id="Tracciato_4154" data-name="Tracciato 4154" d="M2.342,5.861,2.3,5.829l-.42-3.5.032-.054.043.043.43,3.5-.032.043Z" transform="translate(11.664 14.172)"/>
      <path id="Tracciato_4155" data-name="Tracciato 4155" d="M6.006,1.4,7.126,4.819H10.72L7.8,6.94l1.119,3.422L6.006,8.253,3.09,10.362,4.209,6.94,1.292,4.819H4.9Z" transform="translate(5.933 5.576)" fill="#fff"/>
      <path id="Tracciato_4156" data-name="Tracciato 4156" d="M8.952,10.444l-.022-.011-2.9-2.1-2.884,2.1H3.108l-.022-.043,1.109-3.4-2.9-2.1-.011-.043.043-.022H4.905L6,1.425l.032-.032.043.032,1.109,3.4h3.562l.043.022-.011.043-2.9,2.1,1.109,3.4-.022.043ZM1.45,4.9,4.27,6.946l.011.043L3.2,10.3,6.014,8.259h.054L8.876,10.3,7.8,6.989l.022-.043L10.631,4.9H7.154l-.032-.011L6.035,1.565,4.97,4.869,4.927,4.9Z" transform="translate(5.9 5.538)"/>
    </g>
  </g>
</svg>
