<svg xmlns="http://www.w3.org/2000/svg" xmlns:xlink="http://www.w3.org/1999/xlink" width="24" height="24" viewBox="0 0 24 24">
  <defs>
    <clipPath id="clip-path">
      <path id="Tracciato_4561" data-name="Tracciato 4561" d="M.773,12.749a12,12,0,1,0,11.995-12,12,12,0,0,0-11.995,12" transform="translate(-0.773 -0.749)" fill="none"/>
    </clipPath>
  </defs>
  <g id="Israele" transform="translate(-0.773 -0.749)">
    <g id="Raggruppa_174" data-name="Raggruppa 174" transform="translate(0.773 0.749)" clip-path="url(#clip-path)">
      <rect id="Rettangolo_385" data-name="Rettangolo 385" width="40.646" height="24.022" transform="translate(-8.323 0)" fill="#0040b9"/>
      <rect id="Rettangolo_386" data-name="Rettangolo 386" width="40.646" height="14.755" transform="translate(-8.323 4.66)" fill="#fff"/>
      <path id="Tracciato_4560" data-name="Tracciato 4560" d="M8.7,10.812h3.65L10.53,7.638l1.82-3.175H8.7L6.869,1.277,5.028,4.463H1.378l1.83,3.175-1.83,3.175h3.65L6.869,14Zm2.11-.893H9.216l.8-1.388Zm-2.627,0H5.545l-1.3-2.282,1.3-2.282H8.183L9.5,7.638ZM10.8,5.356l-.786,1.388-.8-1.388ZM6.869,3.074l.8,1.388h-1.6ZM2.928,5.356H4.522l-.8,1.388Zm0,4.563.8-1.378.786,1.378Zm4.738.893-.8,1.4-.808-1.4Z" transform="translate(5.136 4.406)" fill="#0040b9"/>
    </g>
  </g>
</svg>
