<svg xmlns="http://www.w3.org/2000/svg" xmlns:xlink="http://www.w3.org/1999/xlink" width="24" height="24" viewBox="0 0 24 24">
  <defs>
    <clipPath id="clip-path">
      <path id="Tracciato_4598" data-name="Tracciato 4598" d="M.547,12.749a12,12,0,1,0,12-12,12,12,0,0,0-12,12" transform="translate(-0.547 -0.749)" fill="none"/>
    </clipPath>
  </defs>
  <g id="Kazakhistan" transform="translate(-0.547 -0.749)">
    <g id="Raggruppa_175" data-name="Raggruppa 175" transform="translate(0.547 0.749)" clip-path="url(#clip-path)">
      <rect id="Rettangolo_387" data-name="Rettangolo 387" width="47.86" height="23.935" transform="translate(-5.887 0.032)" fill="#09c"/>
      <path id="Tracciato_4563" data-name="Tracciato 4563" d="M2.4,2.465c.484,0,0-1.216,0-1.216s-.441,1.216,0,1.216" transform="translate(9.631 4.132)" fill="#fc3"/>
      <path id="Tracciato_4564" data-name="Tracciato 4564" d="M2.413,2.453c.484-.1-.237-1.195-.237-1.195s-.194,1.281.237,1.195" transform="translate(8.92 4.22)" fill="#fc3"/>
      <path id="Tracciato_4565" data-name="Tracciato 4565" d="M2.517,2.4c.452-.194-.463-1.119-.463-1.119s.054,1.291.463,1.119" transform="translate(8.149 4.474)" fill="#fc3"/>
      <path id="Tracciato_4566" data-name="Tracciato 4566" d="M2.655,2.336c.409-.269-.678-1.012-.678-1.012s.312,1.259.678,1.012" transform="translate(7.398 4.864)" fill="#fc3"/>
      <path id="Tracciato_4567" data-name="Tracciato 4567" d="M2.771,2.241C3.115,1.9,1.91,1.38,1.91,1.38s.549,1.173.861.861" transform="translate(6.743 5.411)" fill="#fc3"/>
      <path id="Tracciato_4568" data-name="Tracciato 4568" d="M2.868,2.125c.269-.409-1.012-.678-1.012-.678s.764,1.044,1.012.678" transform="translate(6.216 6.065)" fill="#fc3"/>
      <path id="Tracciato_4569" data-name="Tracciato 4569" d="M2.934,1.987c.194-.452-1.119-.463-1.119-.463s.958.872,1.119.463" transform="translate(5.816 6.817)" fill="#fc3"/>
      <path id="Tracciato_4570" data-name="Tracciato 4570" d="M2.985,1.9c.1-.474-1.195-.237-1.195-.237S2.9,2.328,2.985,1.9" transform="translate(5.572 7.573)" fill="#fc3"/>
      <path id="Tracciato_4571" data-name="Tracciato 4571" d="M3.008,1.889c0-.484-1.227,0-1.227,0s1.227.441,1.227,0" transform="translate(5.484 8.281)" fill="#fc3"/>
      <path id="Tracciato_4572" data-name="Tracciato 4572" d="M2.985,1.906c-.1-.474-1.195.237-1.195.237s1.281.194,1.195-.237" transform="translate(5.572 8.954)" fill="#fc3"/>
      <path id="Tracciato_4573" data-name="Tracciato 4573" d="M2.945,1.934c-.183-.452-1.13.463-1.13.463s1.3-.054,1.13-.463" transform="translate(5.816 9.593)" fill="#fc3"/>
      <path id="Tracciato_4574" data-name="Tracciato 4574" d="M2.869,1.96c-.269-.409-1.012.678-1.012.678s1.259-.312,1.012-.678" transform="translate(6.226 10.179)" fill="#fc3"/>
      <path id="Tracciato_4575" data-name="Tracciato 4575" d="M2.773,1.983c-.344-.344-.861.861-.861.861s1.173-.549.861-.861" transform="translate(6.763 10.695)" fill="#fc3"/>
      <path id="Tracciato_4576" data-name="Tracciato 4576" d="M2.657,2c-.409-.269-.678,1.012-.678,1.012S3.023,2.238,2.657,2" transform="translate(7.417 11.118)" fill="#fc3"/>
      <path id="Tracciato_4577" data-name="Tracciato 4577" d="M2.529,2.014c-.452-.183-.474,1.119-.474,1.119s.883-.947.474-1.119" transform="translate(8.159 11.428)" fill="#fc3"/>
      <path id="Tracciato_4578" data-name="Tracciato 4578" d="M2.429,2.02c-.474-.086-.237,1.195-.237,1.195s.667-1.1.237-1.195" transform="translate(8.925 11.616)" fill="#fc3"/>
      <path id="Tracciato_4579" data-name="Tracciato 4579" d="M2.426,2.023c-.5,0,0,1.216,0,1.216s.43-1.216,0-1.216" transform="translate(9.629 11.688)" fill="#fc3"/>
      <path id="Tracciato_4580" data-name="Tracciato 4580" d="M2.442,2.02c-.484.1.237,1.195.237,1.195s.194-1.281-.237-1.195" transform="translate(10.301 11.616)" fill="#fc3"/>
      <path id="Tracciato_4581" data-name="Tracciato 4581" d="M2.466,2.01c-.452.194.463,1.119.463,1.119S2.875,1.848,2.466,2.01" transform="translate(10.945 11.422)" fill="#fc3"/>
      <path id="Tracciato_4582" data-name="Tracciato 4582" d="M2.492,2c-.409.269.678,1.012.678,1.012S2.858,1.749,2.492,2" transform="translate(11.531 11.112)" fill="#fc3"/>
      <path id="Tracciato_4583" data-name="Tracciato 4583" d="M2.515,1.973c-.344.344.861.861.861.861s-.549-1.173-.861-.861" transform="translate(12.047 10.684)" fill="#fc3"/>
      <path id="Tracciato_4584" data-name="Tracciato 4584" d="M2.534,1.946c-.269.409,1.012.678,1.012.678S2.781,1.58,2.534,1.946" transform="translate(12.47 10.173)" fill="#fc3"/>
      <path id="Tracciato_4585" data-name="Tracciato 4585" d="M2.546,1.917c-.183.452,1.13.463,1.13.463s-.958-.872-1.13-.463" transform="translate(12.78 9.588)" fill="#fc3"/>
      <path id="Tracciato_4586" data-name="Tracciato 4586" d="M2.554,1.887c-.1.484,1.195.237,1.195.237S2.64,1.457,2.554,1.887" transform="translate(12.977 8.95)" fill="#fc3"/>
      <path id="Tracciato_4587" data-name="Tracciato 4587" d="M2.555,1.869c0,.5,1.216,0,1.216,0s-1.216-.441-1.216,0" transform="translate(13.04 8.269)" fill="#fc3"/>
      <path id="Tracciato_4588" data-name="Tracciato 4588" d="M2.554,1.881c.086.484,1.184-.237,1.184-.237s-1.281-.194-1.184.237" transform="translate(12.977 7.568)" fill="#fc3"/>
      <path id="Tracciato_4589" data-name="Tracciato 4589" d="M2.544,1.985c.183.452,1.119-.463,1.119-.463s-1.291.054-1.119.463" transform="translate(12.782 6.797)" fill="#fc3"/>
      <path id="Tracciato_4590" data-name="Tracciato 4590" d="M2.528,2.123c.269.409,1.012-.678,1.012-.678s-1.259.312-1.012.678" transform="translate(12.464 6.046)" fill="#fc3"/>
      <path id="Tracciato_4591" data-name="Tracciato 4591" d="M2.5,2.239c.344.344.861-.861.861-.861s-1.173.549-.861.861" transform="translate(12.036 5.392)" fill="#fc3"/>
      <path id="Tracciato_4592" data-name="Tracciato 4592" d="M2.478,2.335c.409.269.678-1.012.678-1.012s-1.044.764-.678,1.012" transform="translate(11.525 4.855)" fill="#fc3"/>
      <path id="Tracciato_4593" data-name="Tracciato 4593" d="M2.449,2.4c.452.194.463-1.119.463-1.119S2.04,2.241,2.449,2.4" transform="translate(10.94 4.464)" fill="#fc3"/>
      <path id="Tracciato_4594" data-name="Tracciato 4594" d="M2.419,2.452c.484.1.237-1.195.237-1.195s-.667,1.109-.237,1.195" transform="translate(10.302 4.21)" fill="#fc3"/>
      <path id="Tracciato_4595" data-name="Tracciato 4595" d="M8.166,4.513A3.116,3.116,0,1,1,5.045,1.4a3.116,3.116,0,0,1,3.121,3.11" transform="translate(6.988 5.636)" fill="#fc3"/>
      <path id="Tracciato_4596" data-name="Tracciato 4596" d="M10.928,3.237a1.911,1.911,0,0,0,.269-.764c0-.108-.011-.269-.151-.194-.161.086-.258.355-.344.506-.129.226-.269.452-.42.667-.054.086-.129.161-.194.248-.022.022-.108.172-.151.14s.022-.108.043-.14l.118-.248c.108-.258.2-.517.334-.764.054-.118.377-.893.108-.926-.183-.022-.3.387-.334.506-.054.161-.108.323-.172.484-.011.043-.161.4-.226.269-.054-.1,0-.237.022-.334A1.563,1.563,0,0,0,9.852,2.3c0-.086.022-.452-.161-.377-.129.054-.129.3-.14.42a2.288,2.288,0,0,1-.108.6c-.129.334-.28.667-.409,1a2.16,2.16,0,0,1-.2.42A5.018,5.018,0,0,1,7.742,5.616a5.428,5.428,0,0,1-1.119.8c-.151.075-.291.161-.441.237a2.269,2.269,0,0,1-.786.312,5.63,5.63,0,0,0-.915.215c-.4.151-.732.441-1.109.624A4.011,4.011,0,0,1,3,7.973a2.327,2.327,0,0,0-.624.334.775.775,0,0,0-.334.613L2.06,9l.022.032.011.022.022-.032.054-.1c.032-.032.065-.075.108-.086l.011-.011a.265.265,0,0,0,.129-.011L2.5,8.769a1.061,1.061,0,0,1,.258-.032l.312.022a1.312,1.312,0,0,1,.344.043c.065.011.161.043.172.129s-.108.172-.172.215a.728.728,0,0,0-.28.194c-.14.161.161.258.237.14a.131.131,0,0,1,.183-.054c.054.043.054.1.129.108a.2.2,0,0,0,.172-.054.2.2,0,0,1,.2-.032c.075.022.086.108.183.108a.217.217,0,0,0,.194-.065c.043-.065.054-.1.129-.1.1.011.151.1.248.129.075.022.183.022.226-.043L5.095,9.4a.159.159,0,0,1,.14.022.347.347,0,0,0,.323.043c.054-.022.032-.075.043-.108.022-.065.086-.065.14-.065a1.008,1.008,0,0,0,.172.043.284.284,0,0,0,.226-.065c.032-.043.032-.108.1-.129a.362.362,0,0,1,.151.054.325.325,0,0,0,.226.022c.065-.022.075-.118.086-.172.129-.011.248.032.377.032.161.011.269-.032.3-.2.022-.2.108-.172.291-.194a1.388,1.388,0,0,0,.3-.086c.183-.075.334-.291.1-.409a1.729,1.729,0,0,0-.743-.054c-.28-.011-.57-.011-.85-.043-.172-.011-.344-.043-.474.1-.108.129-.118.344-.312.387a2.161,2.161,0,0,1-.269.011c-.065.011-.366.226-.42.14V8.618c-.054-.065-.226-.065-.3-.065-.118-.011-.237-.011-.344-.011-.183,0-.366-.011-.549,0a1.733,1.733,0,0,1-.409,0c-.118-.032-.065-.108-.011-.172.032-.032.075-.065.075-.108.022-.183-.215-.1-.312-.108s.011-.075.054-.108a1.811,1.811,0,0,1,.366-.215c.194-.086.387-.151.581-.226a5.393,5.393,0,0,1,.592-.183c.441-.108.9-.129,1.345-.248A1.5,1.5,0,0,0,6.7,6.767a3.369,3.369,0,0,1,.71-.409,2.211,2.211,0,0,0,.6-.28,2.062,2.062,0,0,0,.344-.517A2.589,2.589,0,0,1,9.12,4.539c.108-.065.291-.151.409-.075.14.075.075.312-.022.4-.054.043-.108.086-.1.151,0,.086.065.054.129.065s.151.032.14.086c-.011.1-.183.2-.269.237a.1.1,0,0,0-.086.108c0,.1.161.086.118.215-.032.086-.14.086-.215.108a.592.592,0,0,0-.269.108c-.086.075.011.14-.022.226s-.129.086-.194.118c-.118.065-.054.1-.086.194-.032.075-.108.065-.172.075s-.14.043-.161.108.032.172-.032.226-.172.022-.226.065c-.054.022-.054.032-.054.086s.043.065.054.1c.086.183-.387.258-.484.291a3.584,3.584,0,0,1-.57.118l-.291.043c-.075.011-.2.022-.226.108-.032.108.075.086.151.086a5.633,5.633,0,0,0,.732-.032c.183-.032.377-.075.57-.118a3.064,3.064,0,0,0,.42-.118l.366-.129c.075-.032.2-.054.161-.161-.032-.086-.172-.032-.237-.108s.065-.086.129-.086L9.066,7c.065-.011.248-.054.248-.151s-.129-.022-.14-.108.387-.118.463-.151.108-.129.054-.183S9.54,6.4,9.518,6.347l.258-.086a.3.3,0,0,0,.194-.129c.032-.065.065-.151.022-.2l-.1-.043L9.777,5.9a3.281,3.281,0,0,1,.323-.2l.312-.194a.814.814,0,0,0,.226-.2.409.409,0,0,0,.086-.183c.011-.043.022-.108-.043-.108h-.086l-.269.075c-.1.043-.248.194-.344.183-.043-.011.258-.355.291-.387.151-.151.334-.28.5-.42.129-.108.366-.291.377-.484,0-.086-.032-.108-.108-.118-.161-.011-.377.161-.5.248-.075.065-.377.366-.474.344,0-.108.118-.237.183-.323a9.128,9.128,0,0,0,.678-.883m-8.1,5.187a.19.19,0,0,1-.14.129c-.054.022-.086-.011-.065-.075s.226-.183.2-.054" transform="translate(7.993 9.139)" fill="#fc3"/>
      <path id="Tracciato_4597" data-name="Tracciato 4597" d="M7.4,7.008H7.377c-.3-.065-.592-.129-.883-.215A3.543,3.543,0,0,1,5.02,5.985,8.818,8.818,0,0,1,3.879,4.532,5.987,5.987,0,0,1,3.168,2.9a2.928,2.928,0,0,1-.14-.527A.454.454,0,0,0,3,2.165l-.065-.032c-.118.011-.086.258-.086.344l.011.334c0,.032.011.161-.065.129l-.043-.054c-.086-.161-.129-.355-.2-.517a2.525,2.525,0,0,0-.269-.57c-.118-.151-.108.075-.108.161a1.431,1.431,0,0,0,.086.484c.043.14.118.258.151.387a4.619,4.619,0,0,0,.258.635,1.214,1.214,0,0,1,.086.258c.011.043.011.118-.054.065a.843.843,0,0,1-.108-.161c-.129-.248-.3-.484-.441-.743a1.77,1.77,0,0,0-.334-.517A.178.178,0,0,0,1.6,2.348c-.1.1-.011.291.032.387.086.161.172.312.269.463a2.965,2.965,0,0,0,.183.312c.118.183.248.355.355.538a1.309,1.309,0,0,1,.194.387c.022.054.022.129-.043.129a.3.3,0,0,1-.194-.129l-.215-.194a2.222,2.222,0,0,1-.334-.3.342.342,0,0,0-.161-.14c-.075-.022-.108.054-.1.118a.737.737,0,0,0,.2.355,1.288,1.288,0,0,0,.291.3c.161.118.323.2.484.312.054.032.14.086.151.161.043.237-.5-.075-.56.054s.086.28.183.355a3.038,3.038,0,0,0,.312.194,2.056,2.056,0,0,0,.291.172c.086.032.2.022.258.1.043.054-.032.075-.075.075l-.161-.011a.926.926,0,0,0-.172-.011.082.082,0,0,0-.065.108c.022.1.172.118.248.129a.772.772,0,0,1,.355.054c.032.011.086.1.054.14l-.161.043c-.043.011-.108-.011-.14.043-.032.086.075.118.129.14s.366,0,.291.129c-.032.065-.248.043-.172.161s.248.065.366.075c.065.011.118.011.1.1,0,.043-.043.065-.022.108s.1.065.129.1a.38.38,0,0,0,.183.043c.075.022.129.1.194.129a4.179,4.179,0,0,0,1.431.441,1.993,1.993,0,0,0,.872.043c.054-.011.14-.032.118-.108A5.427,5.427,0,0,1,5.45,7.7a5.042,5.042,0,0,1-.6-.248.614.614,0,0,1-.28-.2c-.065-.108.011-.108.075-.161.129-.14-.172-.172-.258-.183a.271.271,0,0,1-.161-.022c-.129-.108.1-.129.054-.215l-.086-.032c-.075-.022-.334-.1-.291-.2.022-.065.129-.043.086-.129-.032-.065-.129-.043-.161-.108-.032-.043.022-.086.054-.1l.054-.022v-.1c-.075-.129-.258-.1-.377-.118-.065-.011-.28-.086-.194-.172.054-.043.118,0,.129-.1,0-.129-.215-.237-.3-.291l-.118-.065-.129-.086c-.108-.14.161-.1.215-.118.161-.075-.054-.237-.108-.3A.185.185,0,0,1,3,4.522a.206.206,0,0,1,.194-.1.867.867,0,0,1,.624.43,4.657,4.657,0,0,1,.5.71,1.359,1.359,0,0,0,.344.538,1.289,1.289,0,0,0,.527.226c.484.118.786.56,1.152.85.248.194.517.129.807.161a2.112,2.112,0,0,1,.452.1,1.122,1.122,0,0,1,.366.118c.075.054.183.2.291.172.086-.043.129-.151.215-.215s.172-.086.258-.161c.032-.032.086-.151.022-.183H8.593A4.99,4.99,0,0,1,7.4,7.008" transform="translate(3.257 9.007)" fill="#fc3"/>
    </g>
  </g>
</svg>
