<svg xmlns="http://www.w3.org/2000/svg" xmlns:xlink="http://www.w3.org/1999/xlink" width="24" height="24" viewBox="0 0 24 24">
  <defs>
    <clipPath id="clip-path">
      <path id="Tracciato_4728" data-name="Tracciato 4728" d="M.557,12.749a12,12,0,1,0,12-12,12,12,0,0,0-12,12" transform="translate(-0.557 -0.749)" fill="none"/>
    </clipPath>
  </defs>
  <g id="Lesotho" transform="translate(-0.557 -0.749)">
    <g id="Raggruppa_179" data-name="Raggruppa 179" transform="translate(0.557 0.749)" clip-path="url(#clip-path)">
      <rect id="Rettangolo_395" data-name="Rettangolo 395" width="36" height="24" transform="translate(-5.995 0)" fill="#0020a7"/>
      <rect id="Rettangolo_396" data-name="Rettangolo 396" width="36" height="16.832" transform="translate(-5.995 7.168)" fill="#fff"/>
      <rect id="Rettangolo_397" data-name="Rettangolo 397" width="36" height="7.2" transform="translate(-5.995 16.8)" fill="#009539"/>
      <path id="Tracciato_4727" data-name="Tracciato 4727" d="M8.384,7.845l-.172.075-.161.065L6.178,5.509a4.775,4.775,0,0,0,.538-2.54A1.543,1.543,0,0,0,5.435,1.6a.313.313,0,0,0-.258-.151.3.3,0,0,0-.269.161,1.554,1.554,0,0,0-1.13.807,2.714,2.714,0,0,0-.043,1.9,5.485,5.485,0,0,0,.441,1.216L2.368,8.006l-.2-.086-.172-.075L1.313,9.3l.172.086a8.965,8.965,0,0,0,3.778.861,8.026,8.026,0,0,0,3.681-.872l.183-.086Zm-.129.613-.334.5L7.63,8.577c.194-.065.377-.14.57-.215Zm-2.82.678-.689.237-.269-.42q.355.032.71.032h.151Zm2-.3-.452.377-.291-.377c.2-.043.42-.1.624-.161Zm-3.218.3L3.735,9.3l-.226-.506a5.668,5.668,0,0,0,.56.108ZM3.132,8.7l.075.2-.463.161-.183-.549c.183.065.377.129.57.183m-.6.678c-.183-.054-.355-.129-.527-.194l.409-.14Zm.291-.129.474-.172.258.592Q3.229,9.6,2.906,9.5Zm.99.237.517-.172.323.517c-.237-.022-.484-.043-.721-.086ZM6.35,8.9l.108.14L5.93,9.33,5.7,8.975c.215-.022.43-.043.646-.075m.226.3.366.474c-.237.043-.474.086-.721.118l-.183-.3Zm.527.172L7.555,9l.312.409c-.194.065-.387.129-.592.183ZM6.317,3.013a4.191,4.191,0,0,1-.409,2.131l-.291-.387V3.863H6.1l-.624-.57V2.022a1.105,1.105,0,0,1,.839.99M4.111,4.229A2.373,2.373,0,0,1,4.133,2.6a1.173,1.173,0,0,1,.732-.581v1.3l-.549.538h.43v.915l-.3.409a5.934,5.934,0,0,1-.334-.958M2.174,8.383l.172.463-.463.161ZM5.037,9.847l-.183-.3.689-.237.334.517a5.842,5.842,0,0,1-.613.022H5.037m3.143-.56L8.05,9.115l.3-.463.237.463-.409.172" transform="translate(6.823 6.114)"/>
    </g>
  </g>
</svg>
