<svg xmlns="http://www.w3.org/2000/svg" xmlns:xlink="http://www.w3.org/1999/xlink" width="24" height="24" viewBox="0 0 24 24">
  <defs>
    <clipPath id="clip-path">
      <path id="Tracciato_4887" data-name="Tracciato 4887" d="M.37,12.749a12,12,0,1,0,12-12,12,12,0,0,0-12,12" transform="translate(-0.37 -0.749)" fill="none"/>
    </clipPath>
  </defs>
  <g id="Liechtenstein" transform="translate(-0.37 -0.749)">
    <g id="Raggruppa_181" data-name="Raggruppa 181" transform="translate(0.37 0.749)" clip-path="url(#clip-path)">
      <rect id="Rettangolo_400" data-name="Rettangolo 400" width="40.348" height="24.215" transform="translate(-3.982 -0.108)" fill="#002b87"/>
      <rect id="Rettangolo_401" data-name="Rettangolo 401" width="40.348" height="12.108" transform="translate(-3.982 12)" fill="#ce0f26"/>
      <g id="Raggruppa_182" data-name="Raggruppa 182" transform="translate(2.917)">
        <path id="Tracciato_4730" data-name="Tracciato 4730" d="M7.453,1.959a1.23,1.23,0,0,0-.732-.732,1.835,1.835,0,0,0-1.076.043,4.081,4.081,0,0,1-.517.151c-.183.032-.377.043-.57.065a2.311,2.311,0,0,0-.474.1l-.075.032-.065-.032a2.468,2.468,0,0,0-.474-.1c-.194-.022-.387-.032-.581-.065a4.5,4.5,0,0,1-.506-.151,1.838,1.838,0,0,0-1.076-.043,1.2,1.2,0,0,0-.732.732A1.284,1.284,0,0,0,.662,2.992a2.127,2.127,0,0,0,.538.85.372.372,0,0,0,.463.011.7.7,0,0,1,.56-.172,1.421,1.421,0,0,1,.538.237A.664.664,0,0,0,3.234,4a.651.651,0,0,0,.323-.312l.086-.2a.172.172,0,0,1,.1-.129l.118-.1a1.152,1.152,0,0,0,.151-.172V3.078l.011.011a.753.753,0,0,0,.151.172l.108.1c.075.043.075.054.108.129l.086.2A.611.611,0,0,0,4.795,4a.674.674,0,0,0,.474-.086,1.421,1.421,0,0,1,.538-.237.716.716,0,0,1,.56.172.357.357,0,0,0,.452-.011,2.274,2.274,0,0,0,.549-.85,1.284,1.284,0,0,0,.086-1.033" transform="translate(0.952 3.293)" fill="#ffd83d"/>
        <path id="Tracciato_4731" data-name="Tracciato 4731" d="M4.111,1.89a.3.3,0,0,0-.065-.237l-.1-.065a1.934,1.934,0,0,0-.484-.1c-.183-.022-.377-.043-.57-.075-.172-.032-.334-.1-.506-.14a1.682,1.682,0,0,0-1.076-.043,1.177,1.177,0,0,0-.732.732A1.257,1.257,0,0,0,.656,2.988a2.406,2.406,0,0,0,.549.861.371.371,0,0,0,.452,0,.825.825,0,0,1,.56-.172,1.666,1.666,0,0,1,.549.237A.614.614,0,0,0,3.239,4a.556.556,0,0,0,.312-.312l.086-.194a.238.238,0,0,1,.108-.14l.118-.086L4.014,3.1a.545.545,0,0,0,.075-.161A.575.575,0,0,0,4.122,2.7c0-.269-.011-.538-.011-.807M3.379,2.7a.546.546,0,0,1-.1.172.591.591,0,0,1-.441.14,1.459,1.459,0,0,1-.42-.086.787.787,0,0,0-.441-.075c-.269.054-.441.4-.721.42a.441.441,0,0,1-.3-.1.764.764,0,0,1-.2-.248,1.183,1.183,0,0,1-.075-.936,1.107,1.107,0,0,1,.667-.667,1.623,1.623,0,0,1,.958.043,1.872,1.872,0,0,1,.657.323,1.056,1.056,0,0,1,.484.753.76.76,0,0,1-.065.258" transform="translate(0.948 3.286)"/>
        <line id="Linea_5" data-name="Linea 5" x1="0.022" y2="2.002" transform="translate(2.664 4.509)" fill="#ffd83d"/>
        <path id="Tracciato_4732" data-name="Tracciato 4732" d="M.647,3.231h0L.615,3.2l.022-2,.032-.032L.7,1.2l-.022,2-.032.032" transform="translate(2.017 3.308)"/>
        <line id="Linea_6" data-name="Linea 6" x1="0.022" y2="2.002" transform="translate(2.865 4.509)" fill="#ffd83d"/>
        <path id="Tracciato_4733" data-name="Tracciato 4733" d="M.666,3.231h0L.633,3.2l.022-2,.032-.032L.719,1.2.7,3.2l-.032.032" transform="translate(2.201 3.308)"/>
        <line id="Linea_7" data-name="Linea 7" x1="0.022" y2="2.002" transform="translate(3.055 4.543)" fill="#ffd83d"/>
        <path id="Tracciato_4734" data-name="Tracciato 4734" d="M.683,3.234h0L.651,3.2l.022-2L.7,1.168.737,1.2l-.022,2-.032.032" transform="translate(2.373 3.338)"/>
        <line id="Linea_8" data-name="Linea 8" x1="0.022" y2="2.002" transform="translate(2.053 4.655)" fill="#ffd83d"/>
        <path id="Tracciato_4735" data-name="Tracciato 4735" d="M.59,3.244h0L.558,3.212l.022-2,.032-.032L.644,1.2.622,3.212.59,3.244" transform="translate(1.463 3.44)"/>
        <line id="Linea_9" data-name="Linea 9" x1="0.022" y2="1.991" transform="translate(1.843 4.704)" fill="#ffd83d"/>
        <path id="Tracciato_4736" data-name="Tracciato 4736" d="M.571,3.249h0L.538,3.217l.022-2,.032-.032.032.043L.6,3.217l-.032.032" transform="translate(1.273 3.483)"/>
        <line id="Linea_10" data-name="Linea 10" x1="0.022" y2="2.002" transform="translate(2.258 4.655)" fill="#ffd83d"/>
        <path id="Tracciato_4737" data-name="Tracciato 4737" d="M.609,3.244h0L.577,3.212l.022-2,.032-.032L.663,1.2.641,3.212l-.032.032" transform="translate(1.65 3.44)"/>
        <line id="Linea_11" data-name="Linea 11" x1="0.022" y2="2.077" transform="translate(2.447 4.605)" fill="#ffd83d"/>
        <path id="Tracciato_4738" data-name="Tracciato 4738" d="M.627,3.326h0L.595,3.293.616,1.216l.032-.043.032.043L.659,3.293l-.032.032" transform="translate(1.823 3.393)"/>
        <line id="Linea_12" data-name="Linea 12" x1="0.022" y2="2.002" transform="translate(3.269 4.573)" fill="#ffd83d"/>
        <path id="Tracciato_4739" data-name="Tracciato 4739" d="M.7,3.237h0L.671,3.2l.022-2,.032-.032L.757,1.2l-.022,2L.7,3.237" transform="translate(2.566 3.368)"/>
        <line id="Linea_13" data-name="Linea 13" x1="0.022" y2="2.002" transform="translate(3.465 4.605)" fill="#ffd83d"/>
        <path id="Tracciato_4740" data-name="Tracciato 4740" d="M.721,3.24h0L.689,3.208l.022-2,.032-.032.032.043L.754,3.208.721,3.24" transform="translate(2.744 3.395)"/>
        <line id="Linea_14" data-name="Linea 14" x1="0.022" y2="2.002" transform="translate(3.665 4.637)" fill="#ffd83d"/>
        <path id="Tracciato_4741" data-name="Tracciato 4741" d="M.74,3.243h0L.708,3.211l.022-2,.032-.032.032.032-.022,2L.74,3.243" transform="translate(2.925 3.426)"/>
        <line id="Linea_15" data-name="Linea 15" x1="0.022" y2="2.002" transform="translate(3.866 4.67)" fill="#ffd83d"/>
        <path id="Tracciato_4742" data-name="Tracciato 4742" d="M.758,3.246h0L.726,3.214l.022-2L.78,1.18l.032.032-.022,2-.032.032" transform="translate(3.107 3.454)"/>
        <line id="Linea_16" data-name="Linea 16" x1="0.022" y2="1.991" transform="translate(4.066 4.704)" fill="#ffd83d"/>
        <path id="Tracciato_4743" data-name="Tracciato 4743" d="M.777,3.249h0L.745,3.217l.022-2L.8,1.182l.032.043L.809,3.217l-.032.032" transform="translate(3.29 3.483)"/>
        <line id="Linea_17" data-name="Linea 17" x1="0.022" y2="2.002" transform="translate(4.267 4.734)" fill="#ffd83d"/>
        <path id="Tracciato_4744" data-name="Tracciato 4744" d="M.8,3.252h0L.764,3.22l.022-2,.032-.032.032.032-.022,2L.8,3.252" transform="translate(3.473 3.514)"/>
        <path id="Tracciato_4745" data-name="Tracciato 4745" d="M.822,2.7a1.744,1.744,0,0,0,.011.237l.086.151.151.172.118.1c.075.043.075.054.1.129l.086.2A.775.775,0,0,0,1.7,4a.636.636,0,0,0,.463-.086,1.92,1.92,0,0,1,.549-.248.742.742,0,0,1,.549.183.372.372,0,0,0,.463-.011,2.274,2.274,0,0,0,.549-.85,1.166,1.166,0,0,0,.075-1.033,1.2,1.2,0,0,0-.732-.732,1.8,1.8,0,0,0-1.065.043c-.183.054-.344.118-.506.151-.194.032-.387.043-.581.065a2.033,2.033,0,0,0-.484.1l-.108.065a.385.385,0,0,0-.054.248V2.7M1.5,2.432a1.147,1.147,0,0,1,.463-.753,2.478,2.478,0,0,1,.657-.323,1.575,1.575,0,0,1,.969-.032,1.09,1.09,0,0,1,.667.657,1.256,1.256,0,0,1-.065.947.8.8,0,0,1-.215.248.433.433,0,0,1-.3.086c-.28-.022-.452-.355-.721-.409a.921.921,0,0,0-.441.065A1.465,1.465,0,0,1,2.1,3a.577.577,0,0,1-.441-.14.343.343,0,0,1-.1-.172A.541.541,0,0,1,1.5,2.432" transform="translate(4.043 3.293)"/>
        <line id="Linea_18" data-name="Linea 18" x2="0.022" y2="2.002" transform="translate(7.247 4.509)" fill="#ffd83d"/>
        <path id="Tracciato_4746" data-name="Tracciato 4746" d="M1.094,3.231,1.062,3.2l-.022-2,.032-.032L1.1,1.2l.022,2-.032.032" transform="translate(6.172 3.308)"/>
        <line id="Linea_19" data-name="Linea 19" x2="0.022" y2="2.002" transform="translate(7.042 4.509)" fill="#ffd83d"/>
        <path id="Tracciato_4747" data-name="Tracciato 4747" d="M1.075,3.231,1.043,3.2l-.022-2,.032-.032.032.032.022,2-.032.032" transform="translate(5.988 3.308)"/>
        <line id="Linea_20" data-name="Linea 20" x2="0.022" y2="2.002" transform="translate(6.851 4.543)" fill="#ffd83d"/>
        <path id="Tracciato_4748" data-name="Tracciato 4748" d="M1.057,3.234,1.025,3.2,1,1.2l.032-.032.032.022L1.09,3.2l-.032.032" transform="translate(5.814 3.338)"/>
        <line id="Linea_21" data-name="Linea 21" x2="0.022" y2="2.002" transform="translate(7.855 4.655)" fill="#ffd83d"/>
        <path id="Tracciato_4749" data-name="Tracciato 4749" d="M1.151,3.244l-.032-.032-.022-2,.032-.032.032.032.022,2-.032.032" transform="translate(6.724 3.44)"/>
        <line id="Linea_22" data-name="Linea 22" x2="0.022" y2="1.991" transform="translate(8.065 4.704)" fill="#ffd83d"/>
        <path id="Tracciato_4750" data-name="Tracciato 4750" d="M1.17,3.249l-.032-.032L1.116,1.226l.022-.043h.011l.032.032.022,2-.011.032Z" transform="translate(6.915 3.483)"/>
        <line id="Linea_23" data-name="Linea 23" x2="0.022" y2="2.002" transform="translate(7.652 4.655)" fill="#ffd83d"/>
        <path id="Tracciato_4751" data-name="Tracciato 4751" d="M1.132,3.244,1.1,3.212l-.022-2,.032-.032.032.032.022,2Z" transform="translate(6.54 3.44)"/>
        <line id="Linea_24" data-name="Linea 24" x2="0.022" y2="2.077" transform="translate(7.462 4.605)" fill="#ffd83d"/>
        <path id="Tracciato_4752" data-name="Tracciato 4752" d="M1.114,3.326l-.032-.032L1.06,1.216l.032-.043.032.043.022,2.077-.032.032" transform="translate(6.368 3.393)"/>
        <line id="Linea_25" data-name="Linea 25" x2="0.022" y2="2.002" transform="translate(6.64 4.573)" fill="#ffd83d"/>
        <path id="Tracciato_4753" data-name="Tracciato 4753" d="M1.038,3.237,1.005,3.2l-.022-2,.032-.032.032.032.022,2Z" transform="translate(5.622 3.368)"/>
        <line id="Linea_26" data-name="Linea 26" x2="0.022" y2="2.002" transform="translate(6.443 4.605)" fill="#ffd83d"/>
        <path id="Tracciato_4754" data-name="Tracciato 4754" d="M1.02,3.24.987,3.208.966,1.217,1,1.174l.032.032.022,2L1.02,3.24" transform="translate(5.445 3.395)"/>
        <line id="Linea_27" data-name="Linea 27" x2="0.022" y2="2.002" transform="translate(6.244 4.637)" fill="#ffd83d"/>
        <path id="Tracciato_4755" data-name="Tracciato 4755" d="M1,3.243.969,3.211l-.022-2,.032-.032.032.032.022,2L1,3.243" transform="translate(5.264 3.426)"/>
        <line id="Linea_28" data-name="Linea 28" x2="0.022" y2="2.002" transform="translate(6.043 4.67)" fill="#ffd83d"/>
        <path id="Tracciato_4756" data-name="Tracciato 4756" d="M.982,3.246.95,3.214l-.022-2L.961,1.18l.032.032.022,2Z" transform="translate(5.08 3.454)"/>
        <line id="Linea_29" data-name="Linea 29" x2="0.022" y2="1.991" transform="translate(5.841 4.704)" fill="#ffd83d"/>
        <path id="Tracciato_4757" data-name="Tracciato 4757" d="M.963,3.249.931,3.217.91,1.226l.032-.043.032.032.022,2-.032.032" transform="translate(4.898 3.483)"/>
        <line id="Linea_30" data-name="Linea 30" x2="0.022" y2="2.002" transform="translate(5.642 4.734)" fill="#ffd83d"/>
        <path id="Tracciato_4758" data-name="Tracciato 4758" d="M.945,3.252.913,3.22l-.022-2,.032-.032.032.032.022,2-.032.032" transform="translate(4.716 3.514)"/>
        <path id="Tracciato_4759" data-name="Tracciato 4759" d="M1.008.941.814,1.3l.194.4L1.2,1.3Z" transform="translate(3.964 1.126)" fill="#ffd83d"/>
        <path id="Tracciato_4760" data-name="Tracciato 4760" d="M1.037,1.746,1,1.725l-.194-.4V1.3l.2-.366h.054l.194.355v.032l-.194.4-.032.022m-.161-.43.161.323L1.2,1.316l-.161-.291Z" transform="translate(3.935 1.106)"/>
        <path id="Tracciato_4761" data-name="Tracciato 4761" d="M1.008,1.034l-.194.355.194.4.194-.4Z" transform="translate(3.964 2.031)" fill="#ffd83d"/>
        <path id="Tracciato_4762" data-name="Tracciato 4762" d="M1.037,1.839,1,1.818l-.194-.4V1.387l.2-.355h.054l.194.355v.032l-.194.4-.032.022m-.161-.43.161.323L1.2,1.409l-.161-.291Z" transform="translate(3.935 2.014)"/>
        <path id="Tracciato_4763" data-name="Tracciato 4763" d="M.761,1.207l.312.2.344-.2L1.073,1Z" transform="translate(3.446 1.724)" fill="#ffd83d"/>
        <path id="Tracciato_4764" data-name="Tracciato 4764" d="M1.1,1.463l-.022-.011-.3-.194L.758,1.226.769,1.2,1.081,1h.043l.344.194.022.032-.011.022-.355.2ZM.855,1.226l.248.161.28-.161L1.1,1.065Z" transform="translate(3.418 1.701)"/>
        <path id="Tracciato_4765" data-name="Tracciato 4765" d="M.842,1.207l.312.2.344-.2L1.154,1Z" transform="translate(4.237 1.724)" fill="#ffd83d"/>
        <path id="Tracciato_4766" data-name="Tracciato 4766" d="M1.173,1.463l-.022-.011-.3-.194L.839,1.237.85,1.194,1.151,1H1.2l.344.194.011.032-.011.032L1.2,1.452ZM.936,1.226l.237.161.28-.161-.28-.161Z" transform="translate(4.209 1.701)"/>
        <path id="Tracciato_4767" data-name="Tracciato 4767" d="M1.11,1.148A.154.154,0,0,1,.959,1.3a.152.152,0,0,1-.14-.151.142.142,0,0,1,.14-.14.145.145,0,0,1,.151.14" transform="translate(4.013 1.779)" fill="#ffd83d"/>
        <path id="Tracciato_4768" data-name="Tracciato 4768" d="M.988,1.36a.173.173,0,0,1-.172-.183.17.17,0,0,1,.172-.172.179.179,0,0,1,.183.172.181.181,0,0,1-.183.183m0-.291a.108.108,0,0,0-.108.108.108.108,0,1,0,.215,0A.108.108,0,0,0,.988,1.07" transform="translate(3.984 1.75)"/>
        <path id="Tracciato_4769" data-name="Tracciato 4769" d="M4.068,1.542c-.5-.065-.893-.151-1.162-.2a3.969,3.969,0,0,0-1.152-.183,1.389,1.389,0,0,0-.6.129,1.265,1.265,0,0,0-.441.387,1.084,1.084,0,0,0-.194.56,1.527,1.527,0,0,0,.022.549,1.665,1.665,0,0,0,.14.484l.075.151.4-.011c-.043-.086-.086-.194-.14-.334a4.188,4.188,0,0,1-.129-.42A1.412,1.412,0,0,1,.85,2.134.827.827,0,0,1,.969,1.8a.98.98,0,0,1,.28-.237,1.355,1.355,0,0,1,.506-.118,3.257,3.257,0,0,1,.592.011c.086.011.075.011.721.151a6.44,6.44,0,0,1,.689.172l.183.054.129-.291" transform="translate(0.904 3.204)" fill="#ffd83d"/>
        <path id="Tracciato_4770" data-name="Tracciato 4770" d="M.783,3.477.761,3.466.675,3.315a1.649,1.649,0,0,1-.14-.506,1.575,1.575,0,0,1-.022-.56,1.179,1.179,0,0,1,.194-.57,1.227,1.227,0,0,1,.452-.387,1.434,1.434,0,0,1,.613-.14,3.214,3.214,0,0,1,1,.14l.172.032A9.488,9.488,0,0,0,4.1,1.54l.032.022v.022l-.14.3-.022.022-.194-.065a6.731,6.731,0,0,0-.667-.172H3.1c-.2-.043-.334-.075-.43-.086l-.291-.065c-.118-.011-.226-.011-.334-.011l-.258.011a1.158,1.158,0,0,0-.5.108.694.694,0,0,0-.377.549,1.124,1.124,0,0,0,.032.5,2.915,2.915,0,0,0,.129.42c.043.108.086.215.14.323v.032l-.032.022ZM1.87,1.217h-.1a1.289,1.289,0,0,0-.581.129,1.2,1.2,0,0,0-.43.377,1.218,1.218,0,0,0-.183.538A1.527,1.527,0,0,0,.6,2.809a1.572,1.572,0,0,0,.14.474L.8,3.412,1.127,3.4l-.118-.291a2.737,2.737,0,0,1-.129-.43,1.212,1.212,0,0,1-.032-.517.723.723,0,0,1,.129-.344.748.748,0,0,1,.28-.248,1.265,1.265,0,0,1,.517-.129l.269-.011.334.022.3.054.43.1h.011a6.942,6.942,0,0,1,.678.172l.151.043.1-.215c-.377-.054-.753-.118-1.119-.2l-.161-.043a3.445,3.445,0,0,0-.893-.14" transform="translate(0.875 3.174)"/>
        <path id="Tracciato_4771" data-name="Tracciato 4771" d="M.832,1.542c.5-.065.893-.151,1.162-.2a3.985,3.985,0,0,1,1.162-.183,1.375,1.375,0,0,1,.592.129,1.265,1.265,0,0,1,.441.387,1.084,1.084,0,0,1,.194.56,1.527,1.527,0,0,1-.022.549,1.665,1.665,0,0,1-.14.484l-.075.151L3.738,3.4a3.58,3.58,0,0,0,.151-.334,4.188,4.188,0,0,0,.129-.42,1.212,1.212,0,0,0,.032-.517A.827.827,0,0,0,3.932,1.8a.98.98,0,0,0-.28-.237,1.42,1.42,0,0,0-.5-.118,3.349,3.349,0,0,0-.6.011c-.086.011-.075.011-.721.151a6.44,6.44,0,0,0-.689.172l-.183.054c.065-.151-.011-.226-.129-.291" transform="translate(4.14 3.204)" fill="#ffd83d"/>
        <path id="Tracciato_4772" data-name="Tracciato 4772" d="M4.175,3.477h0l-.4-.011-.022-.011-.011-.032L3.9,3.089a2.107,2.107,0,0,0,.118-.42,1.327,1.327,0,0,0,.043-.5.744.744,0,0,0-.118-.323.755.755,0,0,0-.269-.226,1.025,1.025,0,0,0-.484-.108l-.258-.011c-.108,0-.226,0-.334.011L2.3,1.583c-.1.011-.237.043-.43.086H1.85c-.248.054-.42.1-.667.172l-.172.054L.979,1.884.968,1.852C1.011,1.744.979,1.669.85,1.6L.828,1.561.86,1.54a10.079,10.079,0,0,0,1.162-.215l.161-.032a3.31,3.31,0,0,1,1-.14,1.434,1.434,0,0,1,.613.14,1.137,1.137,0,0,1,.452.387,1.356,1.356,0,0,1,.2.57,1.965,1.965,0,0,1-.022.57,2.06,2.06,0,0,1-.151.5l-.075.151-.032.011M3.831,3.4l.334.011.065-.129a1.973,1.973,0,0,0,.14-.474,2.251,2.251,0,0,0,.022-.549A1.26,1.26,0,0,0,4.2,1.722a1.107,1.107,0,0,0-.43-.377,1.289,1.289,0,0,0-.581-.129,3.076,3.076,0,0,0-.979.14L2.033,1.4c-.344.075-.71.151-1.076.194a.231.231,0,0,1,.1.215l.108-.032c.248-.075.43-.118.678-.172h.022c.194-.043.334-.075.42-.086l.3-.065c.118-.011.226-.022.344-.022l.258.022a1.113,1.113,0,0,1,.517.118.844.844,0,0,1,.291.248.763.763,0,0,1,.129.344,1.221,1.221,0,0,1-.043.517,2.045,2.045,0,0,1-.118.43L3.831,3.4" transform="translate(4.101 3.174)"/>
        <path id="Tracciato_4773" data-name="Tracciato 4773" d="M1.1,1.295a.14.14,0,1,1-.14-.14.142.142,0,0,1,.14.14" transform="translate(4.013 3.215)" fill="#ffd83d"/>
        <path id="Tracciato_4774" data-name="Tracciato 4774" d="M.988,1.5a.172.172,0,1,1,.172-.172A.17.17,0,0,1,.988,1.5m0-.28a.116.116,0,0,0-.108.108.108.108,0,1,0,.215,0,.116.116,0,0,0-.108-.108" transform="translate(3.984 3.185)"/>
        <path id="Tracciato_4775" data-name="Tracciato 4775" d="M1.167,1.339a.194.194,0,1,1-.194-.194.193.193,0,0,1,.194.194" transform="translate(3.633 3.117)" fill="#ffd83d"/>
        <path id="Tracciato_4776" data-name="Tracciato 4776" d="M1,1.594a.226.226,0,0,1,0-.452.226.226,0,0,1,0,.452m0-.387a.161.161,0,1,0,.161.161A.166.166,0,0,0,1,1.207" transform="translate(3.603 3.088)"/>
        <path id="Tracciato_4777" data-name="Tracciato 4777" d="M1.125,1.33a.194.194,0,1,1-.194-.194.193.193,0,0,1,.194.194" transform="translate(3.223 3.029)" fill="#ffd83d"/>
        <path id="Tracciato_4778" data-name="Tracciato 4778" d="M.961,1.585a.226.226,0,1,1,0-.452.226.226,0,1,1,0,.452m0-.387a.161.161,0,1,0,.161.161A.166.166,0,0,0,.961,1.2" transform="translate(3.193 3)"/>
        <path id="Tracciato_4779" data-name="Tracciato 4779" d="M1.083,1.319A.194.194,0,1,1,.89,1.125a.193.193,0,0,1,.194.194" transform="translate(2.813 2.922)" fill="#ffd83d"/>
        <path id="Tracciato_4780" data-name="Tracciato 4780" d="M.919,1.574a.226.226,0,0,1,0-.452.226.226,0,0,1,0,.452m0-.387a.161.161,0,1,0,.161.161.166.166,0,0,0-.161-.161" transform="translate(2.783 2.892)"/>
        <path id="Tracciato_4781" data-name="Tracciato 4781" d="M1.041,1.312a.194.194,0,1,1-.194-.194.193.193,0,0,1,.194.194" transform="translate(2.402 2.853)" fill="#ffd83d"/>
        <path id="Tracciato_4782" data-name="Tracciato 4782" d="M.877,1.567a.226.226,0,0,1,0-.452.226.226,0,1,1,0,.452m0-.387a.161.161,0,1,0,.161.161A.166.166,0,0,0,.877,1.18" transform="translate(2.373 2.824)"/>
        <path id="Tracciato_4783" data-name="Tracciato 4783" d="M1,1.308A.194.194,0,1,1,.8,1.114.193.193,0,0,1,1,1.308" transform="translate(1.983 2.814)" fill="#ffd83d"/>
        <path id="Tracciato_4784" data-name="Tracciato 4784" d="M.834,1.563a.226.226,0,0,1,0-.452.226.226,0,0,1,0,.452m0-.387A.161.161,0,1,0,1,1.337a.166.166,0,0,0-.161-.161" transform="translate(1.953 2.785)"/>
        <path id="Tracciato_4785" data-name="Tracciato 4785" d="M.957,1.309a.194.194,0,1,1-.194-.194.193.193,0,0,1,.194.194" transform="translate(1.582 2.824)" fill="#ffd83d"/>
        <path id="Tracciato_4786" data-name="Tracciato 4786" d="M.793,1.564a.226.226,0,1,1,0-.452.226.226,0,1,1,0,.452m0-.387a.161.161,0,1,0,0,.323.161.161,0,1,0,0-.323" transform="translate(1.553 2.795)"/>
        <path id="Tracciato_4787" data-name="Tracciato 4787" d="M.918,1.324A.194.194,0,1,1,.725,1.13a.193.193,0,0,1,.194.194" transform="translate(1.202 2.97)" fill="#ffd83d"/>
        <path id="Tracciato_4788" data-name="Tracciato 4788" d="M.764,1.579a.226.226,0,1,1,0-.452.218.218,0,0,1,.215.226.218.218,0,0,1-.215.226m0-.387a.162.162,0,1,0,0,.323.162.162,0,0,0,0-.323" transform="translate(1.163 2.941)"/>
        <path id="Tracciato_4789" data-name="Tracciato 4789" d="M.884,1.348a.194.194,0,1,1-.194-.194.193.193,0,0,1,.194.194" transform="translate(0.87 3.205)" fill="#ffd83d"/>
        <path id="Tracciato_4790" data-name="Tracciato 4790" d="M.72,1.6a.226.226,0,1,1,0-.452.226.226,0,1,1,0,.452m0-.387a.161.161,0,0,0,0,.323.161.161,0,1,0,0-.323" transform="translate(0.841 3.175)"/>
        <path id="Tracciato_4791" data-name="Tracciato 4791" d="M.86,1.382a.194.194,0,1,1-.194-.194.193.193,0,0,1,.194.194" transform="translate(0.636 3.537)" fill="#ffd83d"/>
        <path id="Tracciato_4792" data-name="Tracciato 4792" d="M.7,1.637a.226.226,0,0,1,0-.452.226.226,0,0,1,0,.452m0-.387a.161.161,0,1,0,0,.323.161.161,0,0,0,0-.323" transform="translate(0.606 3.507)"/>
        <path id="Tracciato_4793" data-name="Tracciato 4793" d="M.848,1.422a.194.194,0,1,1-.194-.194.193.193,0,0,1,.194.194" transform="translate(0.518 3.927)" fill="#ffd83d"/>
        <path id="Tracciato_4794" data-name="Tracciato 4794" d="M.684,1.677a.226.226,0,1,1,0-.452.226.226,0,1,1,0,.452m0-.387a.161.161,0,0,0,0,.323.161.161,0,0,0,0-.323" transform="translate(0.489 3.898)"/>
        <path id="Tracciato_4795" data-name="Tracciato 4795" d="M.849,1.464A.194.194,0,1,1,.656,1.27a.193.193,0,0,1,.194.194" transform="translate(0.528 4.337)" fill="#ffd83d"/>
        <path id="Tracciato_4796" data-name="Tracciato 4796" d="M.685,1.719a.226.226,0,0,1,0-.452.226.226,0,0,1,0,.452m0-.387a.161.161,0,1,0,0,.323.161.161,0,1,0,0-.323" transform="translate(0.499 4.308)"/>
        <path id="Tracciato_4797" data-name="Tracciato 4797" d="M.857,1.5a.194.194,0,1,1-.194-.194A.193.193,0,0,1,.857,1.5" transform="translate(0.606 4.737)" fill="#ffd83d"/>
        <path id="Tracciato_4798" data-name="Tracciato 4798" d="M.693,1.76a.226.226,0,1,1,0-.452.226.226,0,1,1,0,.452m0-.387a.161.161,0,1,0,0,.323.161.161,0,1,0,0-.323" transform="translate(0.577 4.708)"/>
        <path id="Tracciato_4799" data-name="Tracciato 4799" d="M.848,1.339a.194.194,0,1,0,.194-.194.193.193,0,0,0-.194.194" transform="translate(4.296 3.117)" fill="#ffd83d"/>
        <path id="Tracciato_4800" data-name="Tracciato 4800" d="M1.071,1.594a.226.226,0,0,1,0-.452.226.226,0,0,1,0,.452m0-.387a.161.161,0,1,0,.161.161.166.166,0,0,0-.161-.161" transform="translate(4.267 3.088)"/>
        <path id="Tracciato_4801" data-name="Tracciato 4801" d="M.89,1.33a.194.194,0,1,0,.194-.194A.193.193,0,0,0,.89,1.33" transform="translate(4.706 3.029)" fill="#ffd83d"/>
        <path id="Tracciato_4802" data-name="Tracciato 4802" d="M1.113,1.585a.226.226,0,1,1,.226-.226.221.221,0,0,1-.226.226m0-.387a.161.161,0,1,0,.161.161A.166.166,0,0,0,1.113,1.2" transform="translate(4.677 3)"/>
        <path id="Tracciato_4803" data-name="Tracciato 4803" d="M.932,1.319a.194.194,0,1,0,.194-.194.193.193,0,0,0-.194.194" transform="translate(5.116 2.922)" fill="#ffd83d"/>
        <path id="Tracciato_4804" data-name="Tracciato 4804" d="M1.155,1.574a.226.226,0,1,1,.226-.226.221.221,0,0,1-.226.226m0-.387a.161.161,0,1,0,.161.161.166.166,0,0,0-.161-.161" transform="translate(5.087 2.892)"/>
        <path id="Tracciato_4805" data-name="Tracciato 4805" d="M.974,1.312a.194.194,0,1,0,.194-.194.193.193,0,0,0-.194.194" transform="translate(5.526 2.853)" fill="#ffd83d"/>
        <path id="Tracciato_4806" data-name="Tracciato 4806" d="M1.2,1.567a.226.226,0,1,1,.226-.226.221.221,0,0,1-.226.226m0-.387a.161.161,0,1,0,.161.161A.166.166,0,0,0,1.2,1.18" transform="translate(5.497 2.824)"/>
        <path id="Tracciato_4807" data-name="Tracciato 4807" d="M1.017,1.308a.194.194,0,1,0,.194-.194.193.193,0,0,0-.194.194" transform="translate(5.946 2.814)" fill="#ffd83d"/>
        <path id="Tracciato_4808" data-name="Tracciato 4808" d="M1.24,1.563a.226.226,0,1,1,.226-.226.221.221,0,0,1-.226.226m0-.387a.161.161,0,1,0,.161.161.166.166,0,0,0-.161-.161" transform="translate(5.917 2.785)"/>
        <path id="Tracciato_4809" data-name="Tracciato 4809" d="M1.058,1.309a.194.194,0,1,0,.194-.194.193.193,0,0,0-.194.194" transform="translate(6.346 2.824)" fill="#ffd83d"/>
        <path id="Tracciato_4810" data-name="Tracciato 4810" d="M1.281,1.564a.226.226,0,1,1,.226-.226.221.221,0,0,1-.226.226m0-.387a.161.161,0,1,0,.161.161.166.166,0,0,0-.161-.161" transform="translate(6.317 2.795)"/>
        <path id="Tracciato_4811" data-name="Tracciato 4811" d="M1.1,1.324a.194.194,0,1,0,.194-.194.193.193,0,0,0-.194.194" transform="translate(6.727 2.97)" fill="#ffd83d"/>
        <path id="Tracciato_4812" data-name="Tracciato 4812" d="M1.321,1.579a.226.226,0,1,1,.226-.226.221.221,0,0,1-.226.226m0-.387a.161.161,0,1,0,.161.161.166.166,0,0,0-.161-.161" transform="translate(6.708 2.941)"/>
        <path id="Tracciato_4813" data-name="Tracciato 4813" d="M1.131,1.348a.194.194,0,1,0,.194-.194.193.193,0,0,0-.194.194" transform="translate(7.059 3.205)" fill="#ffd83d"/>
        <path id="Tracciato_4814" data-name="Tracciato 4814" d="M1.354,1.6a.226.226,0,1,1,.226-.226.221.221,0,0,1-.226.226m0-.387a.161.161,0,1,0,.161.161.166.166,0,0,0-.161-.161" transform="translate(7.03 3.175)"/>
        <path id="Tracciato_4815" data-name="Tracciato 4815" d="M1.155,1.382a.194.194,0,1,0,.194-.194.193.193,0,0,0-.194.194" transform="translate(7.293 3.537)" fill="#ffd83d"/>
        <path id="Tracciato_4816" data-name="Tracciato 4816" d="M1.378,1.637A.226.226,0,1,1,1.6,1.411a.221.221,0,0,1-.226.226m0-.387a.161.161,0,1,0,.161.161.166.166,0,0,0-.161-.161" transform="translate(7.264 3.507)"/>
        <path id="Tracciato_4817" data-name="Tracciato 4817" d="M1.167,1.422a.194.194,0,1,0,.194-.194.193.193,0,0,0-.194.194" transform="translate(7.411 3.927)" fill="#ffd83d"/>
        <path id="Tracciato_4818" data-name="Tracciato 4818" d="M1.39,1.677a.226.226,0,1,1,.226-.226.221.221,0,0,1-.226.226m0-.387a.161.161,0,1,0,.161.161A.166.166,0,0,0,1.39,1.29" transform="translate(7.381 3.898)"/>
        <path id="Tracciato_4819" data-name="Tracciato 4819" d="M1.166,1.464A.194.194,0,1,0,1.36,1.27a.193.193,0,0,0-.194.194" transform="translate(7.401 4.337)" fill="#ffd83d"/>
        <path id="Tracciato_4820" data-name="Tracciato 4820" d="M1.389,1.719a.226.226,0,1,1,.226-.226.221.221,0,0,1-.226.226m0-.387a.161.161,0,1,0,.161.161.166.166,0,0,0-.161-.161" transform="translate(7.372 4.308)"/>
        <path id="Tracciato_4821" data-name="Tracciato 4821" d="M1.158,1.5a.194.194,0,1,0,.194-.194.193.193,0,0,0-.194.194" transform="translate(7.323 4.737)" fill="#ffd83d"/>
        <path id="Tracciato_4822" data-name="Tracciato 4822" d="M1.381,1.76a.226.226,0,1,1,0-.452.226.226,0,1,1,0,.452m0-.387a.161.161,0,1,0,.161.161.166.166,0,0,0-.161-.161" transform="translate(7.293 4.708)"/>
        <path id="Tracciato_4823" data-name="Tracciato 4823" d="M1.612,1.485A.409.409,0,1,1,1.2,1.076a.409.409,0,0,1,.409.409" transform="translate(3.769 2.443)" fill="#ffd83d"/>
        <path id="Tracciato_4824" data-name="Tracciato 4824" d="M1.232,1.956a.441.441,0,1,1,.441-.441.436.436,0,0,1-.441.441m0-.818a.377.377,0,1,0,.377.377.381.381,0,0,0-.377-.377" transform="translate(3.74 2.414)"/>
        <path id="Tracciato_4825" data-name="Tracciato 4825" d="M.8,1.369a.894.894,0,0,1,.291-.032V1.078" transform="translate(3.779 2.463)" fill="#ffd83d"/>
        <path id="Tracciato_4826" data-name="Tracciato 4826" d="M.824,1.43.792,1.409l.022-.043a.8.8,0,0,1,.269-.032V1.107l.032-.032.032.032v.258l-.011.022L1.115,1.4a.643.643,0,0,0-.28.032Z" transform="translate(3.75 2.434)"/>
        <path id="Tracciato_4827" data-name="Tracciato 4827" d="M1.134,1.369a.894.894,0,0,0-.291-.032V1.078" transform="translate(4.248 2.463)" fill="#ffd83d"/>
        <path id="Tracciato_4828" data-name="Tracciato 4828" d="M1.163,1.43H1.152A.614.614,0,0,0,.883,1.4L.851,1.387.84,1.376V1.107l.032-.032L.9,1.107v.226a.8.8,0,0,1,.269.032l.022.043-.032.022" transform="translate(4.218 2.434)"/>
        <path id="Tracciato_4829" data-name="Tracciato 4829" d="M.8,1.138a3.96,3.96,0,0,1,.8.011" transform="translate(3.779 2.898)" fill="#ffd83d"/>
        <path id="Tracciato_4830" data-name="Tracciato 4830" d="M1.621,1.2H1.61a4.657,4.657,0,0,0-.775,0L.792,1.168l.032-.032a3.94,3.94,0,0,1,.8.011l.032.032L1.621,1.2" transform="translate(3.75 2.879)"/>
        <path id="Tracciato_4831" data-name="Tracciato 4831" d="M1.078,1.183a4.637,4.637,0,0,1-.312,1.7l.43-.2a10.9,10.9,0,0,0,.129-1.5Z" transform="translate(3.496 3.488)" fill="#ffd83d"/>
        <path id="Tracciato_4832" data-name="Tracciato 4832" d="M.8,2.945H.785L.763,2.9a4.75,4.75,0,0,0,.312-1.69l.011-.022L1.1,1.18h.258l.022.011.011.022a10.491,10.491,0,0,1-.129,1.507l-.022.022-.43.2Zm.344-1.7a4.789,4.789,0,0,1-.28,1.6l.334-.161a9.7,9.7,0,0,0,.129-1.442Z" transform="translate(3.467 3.459)"/>
        <path id="Tracciato_4833" data-name="Tracciato 4833" d="M1.095,1.183a4.637,4.637,0,0,0,.312,1.7l-.43-.2a10.9,10.9,0,0,1-.129-1.5Z" transform="translate(4.287 3.488)" fill="#ffd83d"/>
        <path id="Tracciato_4834" data-name="Tracciato 4834" d="M1.436,2.945H1.425l-.43-.2L.984,2.719a9.088,9.088,0,0,1-.14-1.507l.011-.022L.866,1.18h.258l.022.011.011.022a4.47,4.47,0,0,0,.312,1.679v.022l-.032.032m-.4-.258.334.161a4.789,4.789,0,0,1-.28-1.6H.909a9.7,9.7,0,0,0,.129,1.442" transform="translate(4.257 3.459)"/>
        <path id="Tracciato_4835" data-name="Tracciato 4835" d="M1.1,1.324a.14.14,0,1,1-.14-.14.142.142,0,0,1,.14.14" transform="translate(4.013 3.498)" fill="#ffd83d"/>
        <path id="Tracciato_4836" data-name="Tracciato 4836" d="M.988,1.526a.177.177,0,0,1-.172-.172.172.172,0,0,1,.344,0,.177.177,0,0,1-.172.172m0-.28a.108.108,0,0,0-.108.108.116.116,0,0,0,.108.108A.116.116,0,0,0,1.1,1.354a.108.108,0,0,0-.108-.108" transform="translate(3.984 3.478)"/>
        <path id="Tracciato_4837" data-name="Tracciato 4837" d="M1.1,1.355a.14.14,0,1,1-.14-.14.142.142,0,0,1,.14.14" transform="translate(4.013 3.8)" fill="#ffd83d"/>
        <path id="Tracciato_4838" data-name="Tracciato 4838" d="M.988,1.556a.172.172,0,1,1,.172-.172.17.17,0,0,1-.172.172m0-.28a.108.108,0,1,0,0,.215.108.108,0,0,0,0-.215" transform="translate(3.984 3.771)"/>
        <path id="Tracciato_4839" data-name="Tracciato 4839" d="M1.129,1.4a.154.154,0,0,1-.151.151.151.151,0,1,1,0-.3.154.154,0,0,1,.151.151" transform="translate(3.994 4.122)" fill="#ffd83d"/>
        <path id="Tracciato_4840" data-name="Tracciato 4840" d="M1,1.622a.184.184,0,0,1-.183-.194A.181.181,0,0,1,1,1.245a.191.191,0,0,1,.194.183A.193.193,0,0,1,1,1.622M1,1.31a.119.119,0,0,0-.118.118.119.119,0,1,0,.237,0A.119.119,0,0,0,1,1.31" transform="translate(3.974 4.093)"/>
        <path id="Tracciato_4841" data-name="Tracciato 4841" d="M1.171,1.466a.189.189,0,0,1-.183.183.183.183,0,0,1,0-.366.189.189,0,0,1,.183.183" transform="translate(3.984 4.464)" fill="#ffd83d"/>
        <path id="Tracciato_4842" data-name="Tracciato 4842" d="M1.027,1.7a.21.21,0,1,1,.215-.2.214.214,0,0,1-.215.2m0-.355A.147.147,0,0,0,.877,1.5a.145.145,0,0,0,.151.14.152.152,0,0,0,.151-.14.154.154,0,0,0-.151-.151" transform="translate(3.945 4.445)"/>
        <path id="Tracciato_4843" data-name="Tracciato 4843" d="M8.64,1.92a.865.865,0,0,0-.344-.2A.753.753,0,0,0,7.919,1.7a.862.862,0,0,0-.517.2.882.882,0,0,0-.269.42,1.058,1.058,0,0,0-.172-.721.672.672,0,0,0-.28-.2.516.516,0,0,0-.387.011c-.463.129-.8.732-.839.818a.888.888,0,0,0-.1-.43.744.744,0,0,0-.28-.323.881.881,0,0,0-.527-.161.923.923,0,0,0-.829.484.983.983,0,0,0-.086.43c-.043-.086-.377-.689-.839-.818A.516.516,0,0,0,2.409,1.4a.566.566,0,0,0-.269.2.7.7,0,0,0-.151.3,1,1,0,0,0-.032.42.882.882,0,0,0-.269-.42.862.862,0,0,0-.517-.2.753.753,0,0,0-.377.011.865.865,0,0,0-.344.2,2.471,2.471,0,0,1,.3.366,2.094,2.094,0,0,1,.183.4,10.591,10.591,0,0,0,.56,1.238c2.045.011,4.09.022,6.124.043A3.126,3.126,0,0,0,7.887,3.5a5.089,5.089,0,0,0,.237-.613A3.184,3.184,0,0,1,8.64,1.92" transform="translate(0.411 4.796)" fill="#ffd83d"/>
        <path id="Tracciato_4844" data-name="Tracciato 4844" d="M8.691,1.918A.854.854,0,0,0,8.336,1.7.839.839,0,0,0,8.1,1.67l-.151.011A.969.969,0,0,0,7.41,1.9a.747.747,0,0,0-.2.258.839.839,0,0,0-.032-.237.717.717,0,0,0-.161-.312.614.614,0,0,0-.291-.226l-.172-.032a.934.934,0,0,0-.226.043,1.643,1.643,0,0,0-.807.732A1.034,1.034,0,0,0,5.43,1.8.907.907,0,0,0,4.6,1.315H4.558a.91.91,0,0,0-.527.151.834.834,0,0,0-.3.334.661.661,0,0,0-.086.323,1.643,1.643,0,0,0-.807-.732.934.934,0,0,0-.226-.043l-.183.032a.632.632,0,0,0-.28.226.717.717,0,0,0-.161.312l-.043.237A.856.856,0,0,0,1.749,1.9a.969.969,0,0,0-.538-.215L1.05,1.67A.9.9,0,0,0,.813,1.7a1.016,1.016,0,0,0-.355.215l-.011.022.011.032a1.27,1.27,0,0,1,.291.344,1.541,1.541,0,0,1,.183.377V2.7A11.386,11.386,0,0,0,1.5,3.952v.011c0,.226,1.388.474,3.1.474s3.11-.248,3.11-.474V3.952c.086-.14.161-.28.237-.42a3.648,3.648,0,0,0,.2-.538l.032-.086A3.291,3.291,0,0,1,8.7,1.961l-.011-.043m-.57.969-.032.086a4.232,4.232,0,0,1-.194.527l-.226.4L7.5,3.812,7.539,3.7l-.011-.043-.054.011-.043.118-.1-.022.043-.118-.032-.043L7.3,3.629l-.032.129-.108-.032.032-.108V3.586L7.141,3.6,7.1,3.715,7.012,3.7V3.672l.022-.065-.022-.043-.043.022-.022.075v.032L6.84,3.683l.022-.108-.032-.043L6.8,3.564l-.022.108-.118-.011V3.543l-.032-.032-.032.032V3.65l-.161-.022.011-.108-.011-.043-.054.032-.011.118-.129-.011V3.511L6.2,3.478,6.173,3.5v.108L6.022,3.6l.011-.118L6,3.446l-.032.032L5.957,3.6l-.14-.011V3.467l-.032-.032-.032.032v.118l-.161-.011V3.457l-.032-.032-.032.032v.118l-.161-.011.011-.129L5.355,3.4l-.043.022-.022.14H5.182v-.14L5.15,3.392l-.032.032v.129H4.924l.022-.14-.032-.032L4.87,3.4l-.011.151H4.634V3.392L4.6,3.36l-.032.032v.161H4.354L4.332,3.4l-.043-.022-.022.032.022.14H4.1V3.424l-.043-.032-.032.032v.14H3.912l-.022-.14L3.859,3.4l-.032.022.022.14-.161.011V3.457l-.032-.032-.032.032v.118l-.161.011V3.467l-.032-.032L3.4,3.467l-.011.118-.14.011-.011-.118-.022-.032-.043.032.011.118-.151.011v-.1L3,3.478l-.032.032v.108l-.118.011-.022-.118-.032-.032-.032.043.022.108L2.61,3.65V3.543l-.032-.032-.032.032v.118l-.118.011-.011-.108-.043-.032-.022.043.011.108-.108.011V3.661l-.022-.075L2.212,3.6l-.043.011.022.065V3.7l-.075.011L2.072,3.6l-.043-.022-.022.043.043.108-.118.032L1.9,3.629l-.043-.022-.022.043.032.118-.1.022-.043-.118-.043-.011L1.663,3.7l.043.108-.161.075A9.728,9.728,0,0,1,1,2.682a2.094,2.094,0,0,0-.183-.4,2.8,2.8,0,0,0-.28-.344.845.845,0,0,1,.3-.172.746.746,0,0,1,.215-.032l.151.011a.942.942,0,0,1,.506.2.825.825,0,0,1,.248.4L2,2.38l.022-.043a1.04,1.04,0,0,1,.032-.409,1.109,1.109,0,0,1,.14-.291.638.638,0,0,1,.269-.194l.151-.022a.809.809,0,0,1,.2.032,1.743,1.743,0,0,1,.829.807l.022.022L3.7,2.241a.956.956,0,0,1,.086-.409.8.8,0,0,1,.28-.312.858.858,0,0,1,.5-.14H4.6a.9.9,0,0,1,.5.14.852.852,0,0,1,.269.312.715.715,0,0,1,.086.409l.022.032.043-.011a1.761,1.761,0,0,1,.818-.807,1.015,1.015,0,0,1,.215-.032l.151.022a.53.53,0,0,1,.258.194.926.926,0,0,1,.151.291,1.039,1.039,0,0,1,.022.409l.032.043.032-.032a.86.86,0,0,1,.258-.4.913.913,0,0,1,.506-.2l.14-.011a.694.694,0,0,1,.215.032.707.707,0,0,1,.312.183,3.32,3.32,0,0,0-.506.936" transform="translate(0.382 4.776)"/>
        <path id="Tracciato_4845" data-name="Tracciato 4845" d="M.61,1.537H.621l.022-.011Z" transform="translate(1.971 6.836)"/>
        <path id="Tracciato_4846" data-name="Tracciato 4846" d="M.693,1.625.66,1.6.6,1.528.5,1.42.51,1.377l.054.011.075.086.086.1-.011.043Z" transform="translate(0.889 5.382)"/>
        <path id="Tracciato_4847" data-name="Tracciato 4847" d="M.694,1.66.661,1.638l-.14-.215L.532,1.38l.043.011.14.215v.043Z" transform="translate(1.108 5.41)"/>
        <path id="Tracciato_4848" data-name="Tracciato 4848" d="M.678,1.654.646,1.643a1.339,1.339,0,0,0-.108-.215l.011-.043L.592,1.4l.118.215-.022.043Z" transform="translate(1.27 5.46)"/>
        <path id="Tracciato_4849" data-name="Tracciato 4849" d="M.7,1.693.682,1.683a1.447,1.447,0,0,1-.129-.258V1.392L.607,1.4a1.013,1.013,0,0,0,.129.237l-.011.043L.7,1.693" transform="translate(1.417 5.528)"/>
        <path id="Tracciato_4850" data-name="Tracciato 4850" d="M.775,1.6.754,1.591.6,1.44.614,1.4H.657l.14.151v.043Z" transform="translate(1.905 5.577)"/>
        <path id="Tracciato_4851" data-name="Tracciato 4851" d="M.76,1.628.738,1.617.609,1.423.631,1.38l.043.011a.515.515,0,0,0,.108.183l.011.032L.76,1.628" transform="translate(1.963 5.411)"/>
        <path id="Tracciato_4852" data-name="Tracciato 4852" d="M.747,1.578H.726L.618,1.406l.011-.043.043.011.108.151-.011.043Z" transform="translate(2.051 5.245)"/>
        <path id="Tracciato_4853" data-name="Tracciato 4853" d="M.735,1.556.7,1.535.627,1.4l.011-.043H.681l.086.161-.022.043Z" transform="translate(2.139 5.138)"/>
        <path id="Tracciato_4854" data-name="Tracciato 4854" d="M.782,1.616.75,1.595A1.121,1.121,0,0,0,.642,1.4V1.347L.7,1.358l.118.215v.032Z" transform="translate(2.285 5.089)"/>
        <path id="Tracciato_4855" data-name="Tracciato 4855" d="M.747,1.573.715,1.562.661,1.379l.022-.032.043.011.054.172-.022.043Z" transform="translate(2.471 5.089)"/>
        <path id="Tracciato_4856" data-name="Tracciato 4856" d="M.808,1.622.776,1.6a.714.714,0,0,0-.1-.2V1.353l.054.011.108.215-.022.043Z" transform="translate(2.647 5.147)"/>
        <path id="Tracciato_4857" data-name="Tracciato 4857" d="M.828,1.674.8,1.653.7,1.394V1.362l.054.011.108.258-.022.043Z" transform="translate(2.842 5.235)"/>
        <path id="Tracciato_4858" data-name="Tracciato 4858" d="M.674,1.679.641,1.647.631,1.636.555,1.518.534,1.507.48,1.432l.011-.054L.534,1.4l.054.065L.6,1.475l.086.118.022.054Z" transform="translate(0.704 5.392)"/>
        <path id="Tracciato_4859" data-name="Tracciato 4859" d="M.859,1.678.826,1.657.762,1.409l.022-.032L.826,1.4l.065.237-.022.043Z" transform="translate(3.455 5.382)"/>
        <path id="Tracciato_4860" data-name="Tracciato 4860" d="M.851,1.585.819,1.564.776,1.4.8,1.359l.043.022.043.161-.022.043Z" transform="translate(3.594 5.209)"/>
        <path id="Tracciato_4861" data-name="Tracciato 4861" d="M.824,1.6h0L.792,1.567.8,1.374l.032-.032.032.043-.011.183L.824,1.6" transform="translate(3.746 5.034)"/>
        <path id="Tracciato_4862" data-name="Tracciato 4862" d="M.841,1.6.808,1.583V1.368l.032-.032.032.032v.2Z" transform="translate(3.91 4.98)"/>
        <path id="Tracciato_4863" data-name="Tracciato 4863" d="M.853,1.72h0L.821,1.688l.011-.323.032-.032L.9,1.375l-.011.312L.853,1.72" transform="translate(4.034 4.946)"/>
        <path id="Tracciato_4864" data-name="Tracciato 4864" d="M1.186,1.634l-.022-.011L1.143,1.6l.1-.118L1.315,1.4l.032-.022.032.054-.086.108-.075.075-.032.022" transform="translate(7.176 5.372)"/>
        <path id="Tracciato_4865" data-name="Tracciato 4865" d="M1.146,1.66l-.022-.011V1.606l.14-.215.043-.011.011.043-.14.215-.032.022" transform="translate(6.998 5.41)"/>
        <path id="Tracciato_4866" data-name="Tracciato 4866" d="M1.142,1.654H1.132L1.11,1.611,1.228,1.4l.043-.011.011.043-.108.2-.032.022" transform="translate(6.854 5.46)"/>
        <path id="Tracciato_4867" data-name="Tracciato 4867" d="M1.126,1.7,1.1,1.692l-.011-.043a1.013,1.013,0,0,0,.129-.237l.032-.022.022.043-.118.258L1.126,1.7" transform="translate(6.698 5.518)"/>
        <path id="Tracciato_4868" data-name="Tracciato 4868" d="M1.065,1.611,1.043,1.6V1.557l.14-.151L1.215,1.4l.022.043L1.086,1.6Z" transform="translate(6.2 5.567)"/>
        <path id="Tracciato_4869" data-name="Tracciato 4869" d="M1.061,1.628l-.022-.011V1.574a.515.515,0,0,0,.108-.183L1.19,1.38l.022.043-.129.194Z" transform="translate(6.161 5.411)"/>
        <path id="Tracciato_4870" data-name="Tracciato 4870" d="M1.063,1.578l-.022-.011-.011-.043.1-.151.054-.011.011.043-.108.161-.022.011" transform="translate(6.083 5.245)"/>
        <path id="Tracciato_4871" data-name="Tracciato 4871" d="M1.056,1.556H1.046l-.022-.043.086-.161h.054l.011.043-.086.14-.032.022" transform="translate(6.015 5.138)"/>
        <path id="Tracciato_4872" data-name="Tracciato 4872" d="M1.038,1.616H1.028l-.022-.043.118-.215.043-.011.011.054a1.121,1.121,0,0,0-.108.194l-.032.022" transform="translate(5.839 5.089)"/>
        <path id="Tracciato_4873" data-name="Tracciato 4873" d="M1.024,1.583H1.014L.992,1.54l.054-.172.022-.022.043.043-.054.161-.032.032" transform="translate(5.702 5.079)"/>
        <path id="Tracciato_4874" data-name="Tracciato 4874" d="M1,1.622H.992L.97,1.579l.108-.215.054-.011V1.4a.714.714,0,0,0-.1.2L1,1.622" transform="translate(5.487 5.147)"/>
        <path id="Tracciato_4875" data-name="Tracciato 4875" d="M.982,1.684H.972L.95,1.641l.108-.258L1.1,1.361l.011.043a2.519,2.519,0,0,0-.1.258l-.032.022" transform="translate(5.292 5.226)"/>
        <path id="Tracciato_4876" data-name="Tracciato 4876" d="M1.2,1.679h0l-.032-.032.022-.054.086-.118.011-.011L1.335,1.4l.043-.022L1.4,1.41l-.075.1-.011.011-.075.108-.011.022L1.2,1.679" transform="translate(7.372 5.392)"/>
        <path id="Tracciato_4877" data-name="Tracciato 4877" d="M.923,1.678H.912L.89,1.635.955,1.4,1,1.377l.022.032-.065.248-.032.022" transform="translate(4.709 5.382)"/>
        <path id="Tracciato_4878" data-name="Tracciato 4878" d="M.91,1.585H.9L.878,1.542l.043-.161.043-.022L.986,1.4l-.043.161L.91,1.585" transform="translate(4.589 5.209)"/>
        <path id="Tracciato_4879" data-name="Tracciato 4879" d="M.909,1.6.876,1.567.866,1.384.9,1.341l.032.032.011.194Z" transform="translate(4.468 5.034)"/>
        <path id="Tracciato_4880" data-name="Tracciato 4880" d="M.882,1.6.85,1.583V1.368l.032-.032.032.032v.2L.882,1.6" transform="translate(4.313 4.98)"/>
        <path id="Tracciato_4881" data-name="Tracciato 4881" d="M.879,1.72.847,1.688.836,1.375l.032-.043L.9,1.365l.011.323Z" transform="translate(4.179 4.946)"/>
        <path id="Tracciato_4882" data-name="Tracciato 4882" d="M.661,1.555.6,1.5.586,1.415c.108,0,.2.151.248.237l.032.032.1-.011c.043-.022.054-.054.075-.1V1.555l.011-.011h.011l.011.032c.011.075-.032.14-.043.215a.537.537,0,0,0,.022.291l.011.011.054.14.022.075.011.032-.022.011L1.1,2.33.984,2.158a.855.855,0,0,0-.151-.194L.618,1.813.553,1.77.521,1.716l.011-.022.054.022.086.022L.7,1.727l.011-.043-.032-.1L.661,1.555" transform="translate(1.104 5.753)"/>
        <path id="Tracciato_4883" data-name="Tracciato 4883" d="M.826,1.541.783,1.466V1.38l.075.054.065.086a.588.588,0,0,1,.065.194l.043.022.043-.054.054-.075c.043-.011.054.022.043.054l-.065.183a1.8,1.8,0,0,0-.022.334l.032.215V2.5L1.1,2.51l-.022-.032-.065-.215A.885.885,0,0,0,.9,2.037,1.98,1.98,0,0,0,.718,1.8L.665,1.735.643,1.681.665,1.66l.043.022.086.054H.815L.847,1.7a.215.215,0,0,0-.022-.161" transform="translate(2.295 5.411)"/>
        <path id="Tracciato_4884" data-name="Tracciato 4884" d="M1.57,1.545l.065-.054.011-.075c-.108-.011-.2.14-.248.226l-.032.032-.1-.011c-.043-.022-.054-.054-.075-.1l-.011-.022V1.534l-.011.011-.011.022a.7.7,0,0,0,.043.215.537.537,0,0,1-.022.291l-.011.011-.054.14L1.1,2.3l-.011.022.022.022.022-.022.108-.172A1.4,1.4,0,0,1,1.4,1.954L1.613,1.8l.065-.043.032-.054L1.689,1.7H1.656l-.1.032-.032-.011-.011-.032.032-.108.022-.032" transform="translate(6.62 5.752)"/>
        <path id="Tracciato_4885" data-name="Tracciato 4885" d="M1.317,1.54l.043-.075V1.379l-.075.032-.065.1a.588.588,0,0,0-.065.194l-.043.032L1.07,1.68l-.065-.075-.032.054.065.172a1.232,1.232,0,0,1,.011.344l-.022.2V2.5h.032l.011-.032.065-.2a1.207,1.207,0,0,1,.108-.237A1.865,1.865,0,0,1,1.425,1.8l.054-.065L1.5,1.67H1.468l-.022.011-.1.054H1.317L1.3,1.713a.229.229,0,0,1,.022-.172" transform="translate(5.517 5.401)"/>
        <path id="Tracciato_4886" data-name="Tracciato 4886" d="M1.233,2.659l.043-.075a1.892,1.892,0,0,1,.108-.441c.065-.172.215-.291.291-.452V1.6H1.631l-.118.075a.165.165,0,0,1-.14.022.294.294,0,0,1-.075-.14L1.255,1.4l-.022-.032L1.212,1.4l-.043.161a.294.294,0,0,1-.075.14.165.165,0,0,1-.14-.022L.835,1.6H.792v.086c.075.161.215.28.291.452a1.466,1.466,0,0,1,.1.441l.043.075Z" transform="translate(3.75 5.294)"/>
      </g>
    </g>
  </g>
</svg>
