<svg xmlns="http://www.w3.org/2000/svg" xmlns:xlink="http://www.w3.org/1999/xlink" width="24" height="24" viewBox="0 0 24 24">
  <defs>
    <clipPath id="clip-path">
      <path id="Tracciato_4901" data-name="Tracciato 4901" d="M.559,12.749a12,12,0,1,0,12-12,11.99,11.99,0,0,0-12,12" transform="translate(-0.559 -0.749)" fill="none"/>
    </clipPath>
  </defs>
  <g id="Macau" transform="translate(-0.559 -0.749)">
    <g id="Raggruppa_185" data-name="Raggruppa 185" transform="translate(0.559 0.749)" clip-path="url(#clip-path)">
      <rect id="Rettangolo_408" data-name="Rettangolo 408" width="36.022" height="24.161" transform="translate(-6.016 -0.075)" fill="#00784f"/>
      <path id="Tracciato_4890" data-name="Tracciato 4890" d="M12.309,7.972a3.45,3.45,0,0,1-.99.506,4.21,4.21,0,0,1-1.13.28,4.544,4.544,0,0,1-1.1-.108c-.14-.032-.312-.075-.506-.14A3.857,3.857,0,0,0,13.32,6.057a5,5,0,0,0-4.488.366,4.107,4.107,0,0,1,.732-.484A4.2,4.2,0,0,1,11.792,5.5a2.4,2.4,0,0,1,.463-.581c-.075-.011-.194-.032-.334-.043a4.168,4.168,0,0,0-1.065.065,4.251,4.251,0,0,0-1.442.592,4.751,4.751,0,0,0-.689.538,4.033,4.033,0,0,0,.5-1.248,4.053,4.053,0,0,0,.043-1.561,4,4,0,0,0-.312-1.022,2.587,2.587,0,0,0-.151-.3,2.326,2.326,0,0,1-.387.635,4.258,4.258,0,0,1,.366,2.249,4.124,4.124,0,0,1-.43,1.41A3.445,3.445,0,0,1,7.842,7a4.128,4.128,0,0,0-.613-5.543,4.15,4.15,0,0,0-.592,5.575,4.191,4.191,0,0,1-.527-.807,4.124,4.124,0,0,1-.43-1.41A4.391,4.391,0,0,1,6.034,2.57a2.65,2.65,0,0,1-.377-.635,2.587,2.587,0,0,0-.151.3,3.594,3.594,0,0,0-.312,1.022,4.053,4.053,0,0,0,.043,1.561,3.658,3.658,0,0,0,.484,1.238,3.321,3.321,0,0,0-.7-.549,4.03,4.03,0,0,0-1.442-.592,4.168,4.168,0,0,0-1.065-.065c-.14.011-.258.032-.334.043a2.061,2.061,0,0,1,.452.57,4.385,4.385,0,0,1,2.239.452A4.107,4.107,0,0,1,5.6,6.4a4.964,4.964,0,0,0-4.488-.366A3.877,3.877,0,0,0,5.851,8.489l-.506.129a3.571,3.571,0,0,1-1.1.108,3.783,3.783,0,0,1-1.13-.269,3.751,3.751,0,0,1-.99-.506,3.306,3.306,0,0,1-.43-.4,1.253,1.253,0,0,1-.506.129A4.447,4.447,0,0,0,2.3,8.543a4.207,4.207,0,0,0,3.81.108,3.383,3.383,0,0,0,1.1-.818,3.391,3.391,0,0,0,1.119.839,4.175,4.175,0,0,0,3.81-.108A4.21,4.21,0,0,0,13.245,7.7a1.455,1.455,0,0,1-.506-.118,3.357,3.357,0,0,1-.43.387" transform="translate(4.879 6.202)" fill="#fff"/>
      <path id="Tracciato_4891" data-name="Tracciato 4891" d="M9.919,3.212A4.406,4.406,0,0,1,9.036,3.1a4.247,4.247,0,0,1-1.9-1.012A4.356,4.356,0,0,1,5.216,3.1a4.406,4.406,0,0,1-.883.108c-.721.022-1.8.043-3.207.011l.312.387c.926.011,1.851.011,2.777.022a4.3,4.3,0,0,0,1.162-.1,3.607,3.607,0,0,0,1.044-.387,4.444,4.444,0,0,0,.71-.484,3.858,3.858,0,0,0,.7.484,3.711,3.711,0,0,0,1.055.387,4.23,4.23,0,0,0,1.152.1c.926-.011,1.851-.011,2.777-.022l.312-.387c-1.41.032-2.486.011-3.207-.011" transform="translate(4.976 12.372)" fill="#fff"/>
      <path id="Tracciato_4892" data-name="Tracciato 4892" d="M1.185,2.273H11.894l-.161.194H1.4Z" transform="translate(5.556 14.131)" fill="#fff"/>
      <path id="Tracciato_4893" data-name="Tracciato 4893" d="M1.245,2.334h9.439l-.387.3H1.632Z" transform="translate(6.133 14.719)" fill="#fff"/>
      <path id="Tracciato_4894" data-name="Tracciato 4894" d="M1.324,2.39H9.041l-.7.4H2.067Z" transform="translate(6.911 15.274)" fill="#fff"/>
      <path id="Tracciato_4895" data-name="Tracciato 4895" d="M1.436,2.447a7.451,7.451,0,0,0,5.327,0Z" transform="translate(8.003 15.827)" fill="#fff"/>
      <path id="Tracciato_4896" data-name="Tracciato 4896" d="M2.807,1.168l.291.893h.947l-.764.56.291.893-.764-.549-.764.549.291-.893-.764-.56h.947Z" transform="translate(9.305 3.345)" fill="#fbd10f"/>
      <path id="Tracciato_4897" data-name="Tracciato 4897" d="M1.643,1.317,2.16,1.7l.527-.366-.2.6L3,2.34l-.657-.011-.2.6-.194-.613L1.3,2.307l.538-.377Z" transform="translate(6.663 4.797)" fill="#fbd10f"/>
      <path id="Tracciato_4898" data-name="Tracciato 4898" d="M1.126,2.019l.635.075.28-.581.118.635.646.086-.57.3.118.635L1.89,2.729l-.57.312L1.6,2.46Z" transform="translate(4.979 6.708)" fill="#fbd10f"/>
      <path id="Tracciato_4899" data-name="Tracciato 4899" d="M3.257,1.317,2.741,1.7l-.527-.366.215.6-.517.4.646-.011.2.6.194-.613L3.6,2.307l-.538-.377Z" transform="translate(12.648 4.797)" fill="#fbd10f"/>
      <path id="Tracciato_4900" data-name="Tracciato 4900" d="M3.765,2.019l-.646.075L2.85,1.513l-.118.635-.646.086.57.3-.129.635L3,2.729l.57.312-.28-.581Z" transform="translate(14.344 6.708)" fill="#fbd10f"/>
    </g>
  </g>
</svg>
