<svg xmlns="http://www.w3.org/2000/svg" xmlns:xlink="http://www.w3.org/1999/xlink" width="24" height="24" viewBox="0 0 24 24">
  <defs>
    <clipPath id="clip-path">
      <path id="Tracciato_5017" data-name="Tracciato 5017" d="M.021,12.749a12,12,0,1,0,12-12,12,12,0,0,0-12,12" transform="translate(-0.021 -0.749)" fill="none"/>
    </clipPath>
  </defs>
  <g id="Malta" transform="translate(-0.021 -0.749)">
    <g id="Raggruppa_189" data-name="Raggruppa 189" transform="translate(0.021 0.749)" clip-path="url(#clip-path)">
      <rect id="Rettangolo_417" data-name="Rettangolo 417" width="35.892" height="23.925" transform="translate(0 0.043)" fill="#fff"/>
      <rect id="Rettangolo_418" data-name="Rettangolo 418" width="20.373" height="23.925" transform="translate(15.519 0.043)" fill="#cf0f2b"/>
      <path id="Tracciato_4948" data-name="Tracciato 4948" d="M6.552,3.257H4.141V.846H2.613V3.257H.2V4.785H2.613V7.2H4.141V4.785H6.552Z" transform="translate(1.747 0.197)" fill="#ccc"/>
      <path id="Tracciato_4949" data-name="Tracciato 4949" d="M4.253,7.3H2.607V4.9H.2V3.252H2.607V.841H4.253V3.252H6.664V4.9H4.253ZM2.725,7.191H4.146V4.78h2.4V3.37h-2.4V.959H2.725V3.37H.314V4.78H2.725Z" transform="translate(1.687 0.149)" fill="#e60d2e"/>
      <path id="Tracciato_4950" data-name="Tracciato 4950" d="M6.47,3.239H4.081V.85H2.6V3.239H.206v1.5H2.6V7.124H4.081V4.735H6.47Z" transform="translate(1.789 0.233)" fill="#ccc"/>
      <path id="Tracciato_4951" data-name="Tracciato 4951" d="M4.112,7.155H2.583V4.765H.205V3.237H2.583V.848H4.112V3.237h2.4V4.765h-2.4ZM2.627,7.112H4.079V4.722H6.469V3.27H4.079V.88H2.627V3.27H.237V4.722H2.627Z" transform="translate(1.775 0.217)" fill="#96876e"/>
      <path id="Tracciato_4952" data-name="Tracciato 4952" d="M1.252,1.261c.108.108.043.334-.129.506S.724,2,.617,1.9.574,1.562.746,1.39s.4-.237.506-.129" transform="translate(5.281 3.733)" fill="#e60d2e"/>
      <path id="Tracciato_4953" data-name="Tracciato 4953" d="M.413,1.261c-.108.108-.043.334.129.506s.4.237.506.129.043-.334-.129-.506-.4-.237-.506-.129" transform="translate(3.29 3.733)" fill="#e60d2e"/>
      <path id="Tracciato_4954" data-name="Tracciato 4954" d="M1.253,1.694c.108-.1.043-.334-.129-.506S.725.951.618,1.059s-.043.334.129.506.4.237.506.129" transform="translate(5.291 1.761)" fill="#e60d2e"/>
      <path id="Tracciato_4955" data-name="Tracciato 4955" d="M.414,1.694C.306,1.6.371,1.36.543,1.188s.4-.237.506-.129.043.334-.129.506-.4.237-.506.129" transform="translate(3.299 1.761)" fill="#e60d2e"/>
      <path id="Tracciato_4956" data-name="Tracciato 4956" d="M2.868,2.274A1.243,1.243,0,1,1,1.62,1.026,1.249,1.249,0,0,1,2.868,2.274" transform="translate(3.503 1.955)" fill="#ccc"/>
      <path id="Tracciato_4957" data-name="Tracciato 4957" d="M1.65,3.534A1.254,1.254,0,1,1,2.9,2.285,1.261,1.261,0,0,1,1.65,3.534m0-2.486A1.232,1.232,0,1,0,2.877,2.285,1.24,1.24,0,0,0,1.65,1.048" transform="translate(3.484 1.955)" fill="#96877d"/>
      <path id="Tracciato_4958" data-name="Tracciato 4958" d="M.76,1.2H.674L.653,1.189.577,1.156.545,1.146l-.054.022-.011.022L.47,1.21l.011.065L.5,1.328l-.011.054-.011.011L.448,1.4l-.022.011v.032l.011.011.011.032v.054l.043.086V1.587L.5,1.554l.054-.011L.577,1.49.567,1.468V1.415l.022-.022L.61,1.339.577,1.285.567,1.264.556,1.232.6,1.221l.065.032.075-.011L.76,1.2" transform="translate(3.94 3.122)" fill="#96877d"/>
      <path id="Tracciato_4959" data-name="Tracciato 4959" d="M.761,1.2H.653L.61,1.168.567,1.157H.513l-.032.032L.47,1.232l.011.054L.5,1.329l-.011.054-.043.032H.427v.032l.011.011.011.022v.065L.5,1.63H.492V1.587L.5,1.555l.054-.022L.567,1.5.556,1.458V1.415l.032-.032L.61,1.34.588,1.318.556,1.264V1.221H.61l.043.022L.7,1.254l.043-.022L.761,1.2m0,0-.022.043L.7,1.254H.653L.61,1.232.578,1.221l-.011.043L.588,1.3.61,1.34.6,1.383.578,1.4l-.011.043L.578,1.5l-.011.043H.535L.5,1.576V1.63H.492L.449,1.544V1.49L.438,1.469.427,1.447V1.415L.449,1.4l.043-.022L.5,1.329.481,1.286.459,1.232.47,1.2l.043-.054H.567l.043.022.054.022L.675,1.2H.761Z" transform="translate(3.943 3.127)" fill="#1d1d1b"/>
      <path id="Tracciato_4960" data-name="Tracciato 4960" d="M.491,1.172.512,1.15h.1l.032.043.011.022v.14L.7,1.376H.738l.054-.011.043.011.043.043.011.032-.011.022-.043.022V1.462L.814,1.441H.8V1.43L.792,1.419.728,1.43l-.075.011H.62l-.032.011L.566,1.441V1.365L.5,1.29.48,1.215l.011-.043" transform="translate(4.46 3.166)" fill="#96877d"/>
      <path id="Tracciato_4961" data-name="Tracciato 4961" d="M.491,1.181.5,1.171l.032-.022H.6l.054.075.011.1.011.054.043.011.065-.011L.835,1.4l.043.043.011.011v.032l-.011.011L.846,1.5H.835L.824,1.493V1.483L.814,1.461H.8V1.45L.792,1.44H.749L.684,1.45l-.054.011H.566V1.418L.555,1.364.5,1.3.48,1.235V1.2l.011-.022m0,0L.48,1.192v.043L.5,1.3l.065.065.011.043V1.45H.631L.684,1.44l.054-.011.032-.011L.8,1.429V1.45H.814l.022.032v.011H.867L.878,1.44.835,1.4.781,1.375.717,1.4.663,1.375.652,1.353V1.321l-.011-.1L.6,1.16.534,1.149.512,1.16l-.022.022" transform="translate(4.46 3.156)" fill="#1d1d1b"/>
      <path id="Tracciato_4962" data-name="Tracciato 4962" d="M1.424,1.5l-.075.065-.011.022H1.327l-.011-.022-.032-.032L1.241,1.5,1.23,1.449l-.075-.075L1.144,1.32h.022l.065-.032h.022l.065-.022.022-.043L1.294,1.18,1.23,1.169l-.086-.022-.032-.075-.075.108L1,1.233.961,1.32l-.032.075a.391.391,0,0,1,0,.194A.2.2,0,0,1,.81,1.7l-.14.032A.319.319,0,0,0,.509,1.8l-.032.032v.022L.466,1.89l-.011.054L.52,2.03l.075.054.043.032.032.022-.011.086v.054H.713c.054,0,.108.054.151.086l.022.043H.993A.089.089,0,0,0,.918,2.3L.875,2.277.789,2.245.767,2.191l.022-.054L.81,2.03l.011-.054H.832l.1-.011.086-.022a.406.406,0,0,1,.129-.108h.032c.043-.022.1,0,.14-.022L1.37,1.8l.1.011.065.054.054.054h.032L1.628,2,1.7,1.976,1.66,1.911,1.65,1.89l-.043-.054-.022-.022L1.51,1.772,1.434,1.75l-.1-.022L1.4,1.675l.011-.032.022-.054h.022L1.5,1.567l.075.022.054.054h.011l.011.022V1.642l.022.032.011.022.032-.022.032-.011V1.621l-.075-.032-.054-.032-.043-.022L1.52,1.5l-.065-.022Z" transform="translate(4.216 2.404)" fill="#96877d"/>
      <path id="Tracciato_4963" data-name="Tracciato 4963" d="M1.424,1.5l-.043.032-.043.054H1.327l-.011-.022H1.305l-.032-.032L1.23,1.47l-.011-.043-.054-.054-.022-.011-.011-.022.043-.022.011-.011.032-.022.032-.022h.054l.032-.032L1.305,1.18l-.054-.011-.108-.022H1.133l-.022-.075c0,.054-.032.075-.065.108l-.032.054-.032.054L.95,1.32l-.011.075L.95,1.5l-.032.118L.81,1.7l-.118.032L.584,1.75.53,1.782l-.043.054L.466,1.89l-.011.054A.107.107,0,0,0,.52,2.03l.108.075.011.011H.659l.011.022v.054l-.011.054.032.032H.756L.81,2.32l.043.032L.9,2.407h.1L.961,2.32.918,2.3.875,2.277.789,2.245.756,2.213l.011-.054.032-.1L.81,2.03l.011-.054.1-.011L1,1.922l.086-.054.075-.032.1-.022h.054L1.359,1.8h.1l.075.054.043.032.011.022.011.011h.022l.011.022L1.639,2H1.628L1.7,1.976l-.032-.054L1.65,1.911,1.639,1.89l-.022-.032L1.6,1.836l-.043-.022L1.51,1.772,1.456,1.75H1.338V1.729L1.381,1.7h.011L1.4,1.664l.011-.043.011-.011.022-.022.022-.022.108.022.054.032.011.022.011.022V1.642H1.66l.011.022v.011l.011.022V1.675H1.7l.022-.011h.032l-.032-.043L1.682,1.61l-.043-.043-.032-.011-.043-.022L1.51,1.5l-.043-.022L1.424,1.5m0,0,.043-.022L1.51,1.5l.032.011.065.022.043.032.032.022.054.032.022.043H1.736l-.022.011H1.693V1.7H1.671V1.675L1.66,1.664v0l-.022-.022-.022-.022-.043-.032H1.467l-.043.022v.011l-.011.043v.011l-.032.043-.043.032V1.729h.118l.054.022.032.032.065.054.022.022.011.011.022.022.022.032.032.054H1.7L1.639,2H1.628l-.011-.054-.011-.022-.022.022-.011-.022h0L1.564,1.89l-.032-.022-.075-.054H1.262l-.086.022L1.09,1.89l-.075.054-.1.032H.832L.81,2.019v.043l-.032.1-.011.032.022.054.086.032H.929l.043.043.022.086v.011L.9,2.407H.885L.853,2.363.81,2.331.692,2.277H.659L.649,2.267l.011-.075L.67,2.137.649,2.116H.616l-.1-.065C.487,2.019.455,2,.455,1.944L.466,1.89l.011-.054L.53,1.782.573,1.75l.118-.032L.81,1.675l.1-.054L.939,1.5.929,1.373.95,1.32l.022-.054.043-.043.032-.043L1.1,1.072h.011l.032.075.108.022.065.011.022.054-.032.032-.054.022H1.23L1.2,1.309l-.022.011H1.155l-.011.022.022.022.043.054.022.054.032.032.043.054.011.011v.022h.022l.043-.054Z" transform="translate(4.216 2.404)" fill="#1d1d1b"/>
      <path id="Tracciato_4964" data-name="Tracciato 4964" d="M.672,1.088.65,1.109V1.12l-.032.022L.6,1.174V1.2l-.032.011L.5,1.228l-.022.065.011.043-.043.022-.011.108-.011.011V1.5l.022.011H.478L.5,1.529l-.022.022-.022.011.011.011L.532,1.6l.075-.043L.661,1.5l.118-.108L.9,1.3.973,1.26l.043-.075L.994,1.131.984,1.109H.844L.736,1.077l-.065.011" transform="translate(3.913 2.453)" fill="#96877d"/>
      <path id="Tracciato_4965" data-name="Tracciato 4965" d="M.672,1.088.661,1.1.65,1.12l-.022.022-.022.032L.6,1.2l-.011.022-.054.011-.043.043v.022L.5,1.335l-.022.022-.032.022v.086l-.022.011.032.032L.5,1.518V1.54l-.011.011-.022.011v.011L.489,1.6a.1.1,0,0,0,.1-.022l.054-.065L.768,1.4.9,1.3.973,1.26l.043-.054-.011-.065L.994,1.12H.833L.747,1.077H.693l-.022.011m0,0,.022-.011H.747l.086.032H.984l.022.022.022.075-.054.065-.065.043-.14.1a.413.413,0,0,0-.118.118l-.065.054L.51,1.6.478,1.594.456,1.561l.022-.011L.5,1.54.489,1.518H.456L.424,1.5V1.475l.011-.011V1.378l.011-.022.032-.011.011-.032L.478,1.271l.043-.054.054-.011L.6,1.2V1.174l.032-.032L.65,1.131V1.109l.022-.022" transform="translate(3.913 2.453)" fill="#1d1d1b"/>
      <path id="Tracciato_4966" data-name="Tracciato 4966" d="M.485,1.15l.022-.043.022-.022.086-.022H.646l.065.054.011.075v.032L.7,1.236l-.011.032-.043.054-.054.022L.517,1.333.506,1.29V1.225L.485,1.193V1.15" transform="translate(4.507 2.323)" fill="#96877d"/>
      <path id="Tracciato_4967" data-name="Tracciato 4967" d="M.495,1.15l.011-.032.032-.032.054-.022H.656l.054.043.032.075V1.2l-.011.032L.71,1.247.7,1.29l-.022.022L.6,1.344.527,1.333.516,1.268V1.236L.484,1.182V1.161Zm0,0v.011l-.011.022L.506,1.2l.022.043v.086H.592l.075-.022.022-.032L.7,1.247l.022-.011.011-.022V1.193L.71,1.107.656,1.075.592,1.064l-.054.022-.022.022L.495,1.15" transform="translate(4.499 2.326)" fill="#1d1d1b"/>
      <path id="Tracciato_4968" data-name="Tracciato 4968" d="M.463,1.127H.474L.5,1.116l.032-.022L.6,1.083l.1.011H.732l.032-.022h.1L.9,1.159.829,1.148.743,1.137.668,1.17.582,1.18.506,1.148H.474L.463,1.137V1.127" transform="translate(4.297 2.411)" fill="#96877d"/>
      <path id="Tracciato_4969" data-name="Tracciato 4969" d="M.463,1.137.5,1.126l.022-.011.022-.022H.711L.732,1.1l.032-.022.065-.011L.883,1.1l.032.054L.9,1.169H.85L.786,1.147H.732l-.054.022L.624,1.2H.592L.56,1.19.506,1.158H.474L.463,1.147Zm0,0v.011l.011.011H.506L.56,1.18l.054.011.054-.022.065-.032H.8l.054.022H.9L.883,1.1.829,1.072l-.054.011L.743,1.1H.721l-.14-.011H.56l-.032.022L.5,1.126Z" transform="translate(4.294 2.404)" fill="#1d1d1b"/>
      <path id="Tracciato_4970" data-name="Tracciato 4970" d="M.658,1.078H.626a.159.159,0,0,0-.1.108L.5,1.326v.022l.011.022.022-.043.022-.054.065-.1.032-.043Z" transform="translate(4.626 2.463)" fill="#96877d"/>
      <path id="Tracciato_4971" data-name="Tracciato 4971" d="M.658,1.078H.626L.594,1.1l-.032.032-.043.1L.5,1.293l.011.065v.011H.519l.011-.032.022-.065.054-.1.032-.032L.648,1.11l.011-.022Zm0,0V1.11l-.043.065-.054.1L.54,1.336l-.011.032-.011.011H.508L.5,1.358V1.3l.011-.075.054-.108.065-.043H.658Z" transform="translate(4.626 2.463)" fill="#1d1d1b"/>
      <path id="Tracciato_4972" data-name="Tracciato 4972" d="M.627,1.252.5,1.285l.011.022H.53A.374.374,0,0,0,.746,1.2l.1-.108L.821,1.1a.526.526,0,0,1-.194.151" transform="translate(4.636 2.59)" fill="#96877d"/>
      <path id="Tracciato_4973" data-name="Tracciato 4973" d="M.627,1.251.5,1.294l.011.011H.541l.043-.011.108-.043A.724.724,0,0,0,.842,1.09V1.1l-.022.011L.81,1.133l-.065.054-.118.065m0,0,.108-.075.054-.043L.81,1.1.821,1.09H.853V1.1l-.161.151-.1.054-.054.011H.509L.5,1.284l.129-.032" transform="translate(4.636 2.58)" fill="#1d1d1b"/>
      <path id="Tracciato_4974" data-name="Tracciato 4974" d="M.446,1.131h0L.457,1.12H.478L.5,1.142l.054.022.022.011L.586,1.2l.086.054L.747,1.3c.043.032.065.086.108.108a.252.252,0,0,1-.194-.086l-.1-.1L.521,1.2.478,1.163V1.152L.446,1.131" transform="translate(4.128 2.873)" fill="#96877d"/>
      <path id="Tracciato_4975" data-name="Tracciato 4975" d="M.456,1.131H.445L.456,1.12H.467L.5,1.131l.065.032H.574l.011.011L.606,1.2l.065.043.108.075.086.1v.011L.746,1.389.639,1.3.6,1.249.585,1.238.553,1.217l-.1-.086m0,0,.1.075.032.022.022.022.043.043a.333.333,0,0,0,.215.118v.011l-.1-.108L.66,1.249.606,1.206.585,1.185.574,1.174.553,1.163.5,1.131.477,1.12H.456Z" transform="translate(4.118 2.873)" fill="#1d1d1b"/>
      <path id="Tracciato_4976" data-name="Tracciato 4976" d="M.976,1.4v.043l.011.022.032.011.075.011.054.065.011.065.032.108.065.075.043.022.054.054.022.011v.011L1.31,1.883l-.065-.022H1.213L1.2,1.84l-.054-.075a.149.149,0,0,1-.075-.129V1.625L1.052,1.6l-.1-.022a.182.182,0,0,1-.108,0L.772,1.539.74,1.4.718,1.356.7,1.248c-.043.011-.065.054-.108.086-.022.022-.065.043-.075.086l.022.054.011.011L.5,1.517v.022H.492L.449,1.485V1.464L.46,1.388.5,1.281l.032-.022.022-.032L.6,1.184.653,1.13l.1-.043.129.065.065.129L.955,1.3l.022.1" transform="translate(4.157 2.551)" fill="#96877d"/>
      <path id="Tracciato_4977" data-name="Tracciato 4977" d="M.981,1.4v.054l.054.011.108.054.022.043.011.054.032.108.075.075.043.032.043.043h.011l.011.022L1.357,1.9l-.065-.022-.054-.022H1.217l-.011-.011L1.2,1.84l-.022-.054-.022-.022-.022-.011-.054-.1-.022-.043-.043-.022a.436.436,0,0,0-.118,0L.787,1.561.765,1.507.755,1.453.744,1.4.712,1.356.7,1.248l-.065.043L.6,1.324l-.011.022-.065.075L.561,1.5H.529l-.011.022v.011l-.011.011H.486L.453,1.517a.224.224,0,0,1,0-.086l.011-.075.022-.065.054-.043L.55,1.227l.032-.032.054-.043L.69,1.1l.065-.011a.2.2,0,0,1,.129.054l.065.118.011.075Zm0,0L.959,1.335.948,1.27a.176.176,0,0,0-.075-.118L.755,1.087.69,1.109l-.054.043-.043.054-.022.011L.55,1.248.5,1.3l-.022.065-.011.065V1.5l.022.022L.5,1.528H.507V1.517L.518,1.5.55,1.485V1.5L.529,1.464.518,1.421l.022-.043.022-.022L.6,1.324l.032-.032L.7,1.238l.011.011.011.108L.755,1.4l.011.054v.054L.8,1.55l.1.032h.118l.054.022.011.022v.032l.054.086.022.011.022.022.032.054V1.84l.011.011h.022l.065.022.043.022.022-.011L1.314,1.84l-.043-.032L1.2,1.722l-.032-.108-.011-.054-.011-.032a.119.119,0,0,0-.108-.054l-.022-.011H.991L.981,1.4" transform="translate(4.153 2.551)" fill="#1d1d1b"/>
      <path id="Tracciato_4978" data-name="Tracciato 4978" d="M.68,1.2.627,1.149.573,1.106.519,1.084l-.043.022.011.043.032.043.032.032.022.086.011.043.011.022c.043.054.1.054.129.1-.011-.065.011-.118,0-.183L.68,1.2" transform="translate(4.421 2.521)" fill="#96877d"/>
      <path id="Tracciato_4979" data-name="Tracciato 4979" d="M.68,1.2.648,1.17.616,1.138.584,1.116.573,1.106.551,1.095.519,1.084l-.043.032.011.032.032.043.032.032.022.043V1.3l.022.054.022.032.022.022.086.054-.011.011.011-.14L.713,1.267.68,1.2m0,0,.032.065.022.065-.011.14H.713L.648,1.418.605,1.4.584,1.353.573,1.31.562,1.267.551,1.224.519,1.2.5,1.181.476,1.116l.011-.032H.562l.022.022.022.022.054.043L.68,1.2" transform="translate(4.421 2.521)" fill="#1d1d1b"/>
      <path id="Tracciato_4980" data-name="Tracciato 4980" d="M.6,1.223.58,1.212.558,1.2V1.18l.032-.022H.634l.022.032.011.022-.043.022L.6,1.223" transform="translate(5.224 3.249)" fill="#96877d"/>
      <path id="Tracciato_4981" data-name="Tracciato 4981" d="M.611,1.223H.6L.589,1.212H.579L.557,1.19l.011-.032H.632l.032.011L.675,1.2v.022l-.022.022H.632L.622,1.233Zm0,0,.011.011H.654L.665,1.2.654,1.18.632,1.158H.589L.579,1.2.6,1.212Z" transform="translate(5.212 3.244)" fill="#1d1d1b"/>
      <path id="Tracciato_4982" data-name="Tracciato 4982" d="M.584,1.451l.032.011.032-.011L.637,1.441.616,1.376l.011-.054a.449.449,0,0,1,.1-.172l-.043.011-.075.054-.032.022-.022.032L.53,1.311a.149.149,0,0,0,.022.118l.032.022" transform="translate(4.905 3.166)" fill="#96877d"/>
      <path id="Tracciato_4983" data-name="Tracciato 4983" d="M.59,1.461H.643L.654,1.45.633,1.44.622,1.386l.011-.054.043-.1.054-.086V1.16l-.043.011L.643,1.2l-.022.022H.611L.6,1.235.59,1.246H.579v.011l-.011.022L.547,1.3l-.011.022v.054l.011.043.043.043m0,0L.557,1.44.525,1.375V1.321l.011-.032.022-.022.011-.022H.579V1.235L.59,1.224.6,1.214H.611l.022-.022.054-.022.043-.022L.74,1.16l-.065.075-.043.1-.011.054.011.043.022.022v.011l-.011.011H.622L.59,1.461" transform="translate(4.899 3.156)" fill="#1d1d1b"/>
      <path id="Tracciato_4984" data-name="Tracciato 4984" d="M1.205,1.609l.075-.054.011-.022L1.313,1.5l.043-.054h.011V1.415l-.022-.022-.054.032-.011.043-.032.043-.054.022V1.512L1.173,1.49A.1.1,0,0,1,1.108,1.4V1.383H1.13l.054.032h.065l.043-.043L1.313,1.3c-.011-.054-.054-.086-.075-.129V1.157l-.022-.011-.022.011-.022.054.022.022.022.032-.011.022-.032-.011-.022-.022.022.054.043.022.022.011v.022l-.022.011-.043-.011L1.151,1.34,1.1,1.329l-.032.032V1.4l.022.032.011.022-.022.022-.022-.022-.011-.011-.032-.054a.226.226,0,0,0-.118-.086L.742,1.286l-.065.032.075.022.022.011.043.022.032.043.065.043.065.065-.1-.043L.775,1.5l-.032.011H.635L.57,1.555.527,1.6.506,1.62l-.022.032.065-.011L.559,1.63.613,1.62l.043.011.075.011v.011l-.011.022L.71,1.706l.022.011.022-.011.075-.011.043.011a.408.408,0,0,0,.161,0l.075-.043.065-.022.011.011.065.032.065-.032.011-.011.011-.011L1.323,1.6l-.032-.011L1.28,1.62l-.032.011-.065-.054" transform="translate(4.499 3.127)" fill="#96877d"/>
      <path id="Tracciato_4985" data-name="Tracciato 4985" d="M1.205,1.619l.054-.043L1.3,1.532l.032-.065.022-.011h.011l.011-.011-.011-.011-.054-.022L1.3,1.425l-.011.022-.011.043-.022.032-.065.032V1.543L1.173,1.5,1.13,1.468l-.022-.054.022-.032.022.011.054.032h.054l.022-.032.032-.065L1.3,1.274,1.27,1.231l-.032-.054-.022-.022-.022.011-.022.054.043.032v.022L1.194,1.3l-.054-.043h.011l.011.054.054.022.022.022v.032l-.065-.011-.054-.032-.054.032.011.054.011.032.011.022-.032.011-.011-.022-.011-.011L1.011,1.4l-.1-.075L.8,1.306H.732l-.054.022V1.317l.043.011H.742l.022.022.022.022.022.011.022.011.011.022.032.032.043.022.075.065v.011H.979L.914,1.511.85,1.5l-.075.011-.032.022H.721L.635,1.522l-.054.043-.054.054L.506,1.64l-.011.022v.011L.549,1.64l.043-.022.032.011.022.011H.732l.011.011-.022.043v.022L.753,1.7l.075-.011L.9,1.715H.979a.227.227,0,0,0,.14-.054l.032-.022.022.011.022.011.065.022.065-.032V1.619L1.313,1.6l-.022.022-.054.022-.054-.054.054.054H1.27l.011-.032L1.3,1.6l.022.022v.043l-.065.032-.075-.032-.011-.011H1.151l-.022.022a.257.257,0,0,1-.151.054H.9L.828,1.7l-.075.011-.032.011L.7,1.7.71,1.683l.022-.022L.721,1.651H.667L.635,1.64l-.075.011-.022.022-.043.011H.484L.495,1.64l.022-.022L.57,1.565l.065-.054.075.011H.742L.775,1.5.85,1.489.914,1.5l.075.032-.011.011L.914,1.468.871,1.446.828,1.414.8,1.382.775,1.371.753,1.36.732,1.339.678,1.328H.667V1.317L.732,1.3H.8l.118.022.1.086.032.054.011.011v.011l.022.011.011-.032-.011-.032-.011-.054.054-.032.054.032.054.011.011-.022-.022-.032-.065-.022-.011-.065h.011l.032.043h.022l.011-.022L1.173,1.22l.022-.054.022-.022.022.011v.011l.022.043.054.065.011.054L1.3,1.382l-.043.043-.065.011L1.151,1.4,1.13,1.393l-.022.022.022.054.043.032.032.054-.011-.011.054-.032L1.27,1.5l.011-.032.011-.043L1.313,1.4l.065.032v.022H1.367l-.022.011L1.3,1.532l-.043.043Z" transform="translate(4.499 3.117)" fill="#1d1d1b"/>
      <path id="Tracciato_4986" data-name="Tracciato 4986" d="M.564,1.186V1.2l-.011.022-.022.011L.521,1.24v.022H.543l.032.011.011.022v0L.564,1.283.543,1.272H.532L.511,1.262.521,1.24l.011-.011.022-.022V1.2Z" transform="translate(4.758 3.52)" fill="#1d1d1b"/>
      <path id="Tracciato_4987" data-name="Tracciato 4987" d="M1.532,1.353,1.607,1.3l-.1-.065L1.5,1.224l-.065.022a.3.3,0,0,1-.14.011L1.22,1.246H1.134l-.022.011-.022-.032V1.2l-.022-.011L.94,1.2l-.022.011-.1-.022-.065.022-.043.032-.086.011H.445l.1.022L.671,1.3H.488l.043.043L.6,1.353h.936" transform="translate(4.118 3.576)" fill="#96877d"/>
      <path id="Tracciato_4988" data-name="Tracciato 4988" d="M1.532,1.353l.075-.065-.065-.032L1.51,1.235l-.022-.011-.075.022-.065.022-.075-.011-.065-.011H1.145L1.1,1.257l-.011-.032V1.2H1.08l-.043-.011L.951,1.2l-.043.011H.875L.822,1.192H.8l-.054.032-.032.022-.086.011H.445V1.246l.108.032.118.011V1.3L.488,1.31V1.3l.054.043H1c.172,0,.355,0,.527.011m0,0H.606L.531,1.343.477,1.3H.488l.183-.011V1.3L.553,1.289.445,1.257V1.246l.183.011.086-.011.022-.022.043-.032H.822L.865,1.2H.908l.043-.011h.14L1.1,1.2l-.011.022.011.022h.032l.075-.011.065.011.075.011.065-.011.032-.022.032-.011.032.022.032.011.065.043Z" transform="translate(4.118 3.576)" fill="#1d1d1b"/>
      <path id="Tracciato_4989" data-name="Tracciato 4989" d="M1.377,2.969a.958.958,0,1,1,.947-.958.962.962,0,0,1-.947.958m0-1.894a.936.936,0,1,0,.926.936.939.939,0,0,0-.926-.936" transform="translate(3.757 2.219)" fill="#96877d"/>
      <path id="Tracciato_4990" data-name="Tracciato 4990" d="M1.172,1.043c.1.1.011.355-.2.57s-.463.3-.57.2-.011-.366.2-.57.474-.3.57-.2" transform="translate(3.262 1.734)" fill="#d0d0d0"/>
      <path id="Tracciato_4991" data-name="Tracciato 4991" d="M.975,1.066a.346.346,0,0,1-.1.463c-.151.151-.355.194-.452.1s-.065-.312.086-.463.366-.194.463-.1" transform="translate(3.351 1.818)" fill="#96876e"/>
      <path id="Tracciato_4992" data-name="Tracciato 4992" d="M.4,1.178.6,1.3l.086.054L.63,1.264.511,1.07l.043-.043.194.355-.032.032L.372,1.221Z" transform="translate(3.401 1.964)" fill="#d0d0d0"/>
      <rect id="Rettangolo_419" data-name="Rettangolo 419" width="0.053" height="0.388" transform="matrix(0.693, -0.721, 0.721, 0.693, 3.986, 2.963)" fill="#d0d0d0"/>
      <path id="Tracciato_4993" data-name="Tracciato 4993" d="M.6,1.043c-.1.1-.011.355.2.57s.463.3.56.2.011-.366-.194-.57-.474-.3-.57-.2" transform="translate(5.225 1.734)" fill="#d0d0d0"/>
      <path id="Tracciato_4994" data-name="Tracciato 4994" d="M.619,1.066c-.1.108-.054.312.1.463s.355.194.452.1.065-.312-.086-.463S.716.97.619,1.066" transform="translate(5.311 1.818)" fill="#96876e"/>
      <path id="Tracciato_4995" data-name="Tracciato 4995" d="M.975,1.21l-.355.2L.588,1.372l.2-.344.032.032-.118.194L.652,1.34l.086-.054.194-.118Z" transform="translate(5.512 1.97)" fill="#d0d0d0"/>
      <rect id="Rettangolo_420" data-name="Rettangolo 420" width="0.392" height="0.05" transform="translate(5.954 3.197) rotate(-45)" fill="#d0d0d0"/>
      <path id="Tracciato_4996" data-name="Tracciato 4996" d="M.4,1.239c.108-.1.355-.011.57.2s.3.463.2.57-.355.011-.57-.2-.3-.474-.2-.57" transform="translate(3.262 3.647)" fill="#d0d0d0"/>
      <path id="Tracciato_4997" data-name="Tracciato 4997" d="M.418,1.26c.1-.1.312-.054.463.1s.194.355.086.452-.3.065-.452-.086-.194-.366-.1-.463" transform="translate(3.349 3.734)" fill="#96876e"/>
      <path id="Tracciato_4998" data-name="Tracciato 4998" d="M.532,1.574.65,1.38.7,1.294l-.1.054-.194.118L.381,1.423.736,1.23l.032.032-.2.355Z" transform="translate(3.496 3.943)" fill="#d0d0d0"/>
      <rect id="Rettangolo_421" data-name="Rettangolo 421" width="0.388" height="0.053" transform="matrix(0.693, -0.721, 0.721, 0.693, 3.811, 5.301)" fill="#d0d0d0"/>
      <path id="Tracciato_4999" data-name="Tracciato 4999" d="M.6,2.012c-.1-.1-.011-.355.2-.57s.463-.3.56-.2.011.366-.194.57-.474.3-.57.2" transform="translate(5.225 3.649)" fill="#d0d0d0"/>
      <path id="Tracciato_5000" data-name="Tracciato 5000" d="M.619,1.817c-.1-.1-.054-.312.1-.463s.355-.194.452-.086.065.3-.086.452-.366.194-.463.1" transform="translate(5.311 3.736)" fill="#96876e"/>
      <path id="Tracciato_5001" data-name="Tracciato 5001" d="M.932,1.456.739,1.337.653,1.283l.054.086.118.194-.043.043L.588,1.251.62,1.219l.355.194Z" transform="translate(5.515 3.838)" fill="#d0d0d0"/>
      <rect id="Rettangolo_422" data-name="Rettangolo 422" width="0.053" height="0.388" transform="translate(5.952 5.242) rotate(-46.123)" fill="#d0d0d0"/>
      <path id="Tracciato_5002" data-name="Tracciato 5002" d="M.389,1.161H.432v.011l-.011.011H.41V1.2l.011.043L.5,1.237V1.2L.486,1.193H.475L.464,1.172H.529v.011H.518l-.011.011v.043l.065-.011H.593V1.2H.6l.011.065H.6V1.258H.572L.443,1.28H.421V1.3H.41Z" transform="translate(3.57 3.275)"/>
      <path id="Tracciato_5003" data-name="Tracciato 5003" d="M.6,1.215.59,1.247.58,1.28.558,1.29.494,1.3.44,1.29.408,1.258.386,1.215.4,1.172.44,1.14l.054-.011.054.022.043.022L.6,1.215m-.108.043H.558L.59,1.215.58,1.194.558,1.172.5,1.161.44,1.172l-.022.011-.011.032v.022l.022.022H.494" transform="translate(3.542 2.961)"/>
      <path id="Tracciato_5004" data-name="Tracciato 5004" d="M.52,1.218l.054.011H.585L.6,1.24V1.229l.011-.011H.617L.6,1.283H.585V1.272L.574,1.261l-.14-.043H.413L.4,1.229H.391l.022-.075.022-.032L.488,1.1l.032.022.011.043.011-.011.022-.011H.6l.022-.011.011-.011H.639l-.011.032-.011.011H.6l-.032.011H.542l-.011.011V1.2Zm-.1-.032.086.032V1.2L.52,1.175.509,1.154.5,1.143.488,1.132H.466l-.022.011-.011.022Z" transform="translate(3.591 2.678)"/>
      <path id="Tracciato_5005" data-name="Tracciato 5005" d="M.627,1.219.616,1.23.605,1.219l-.011.022-.022.011-.065.011L.455,1.209.433,1.155.444,1.1l.032-.032L.5,1.058l.022-.011.022.032L.53,1.09.519,1.079H.476L.455,1.1v.043l.022.043L.5,1.219l.043.032.022-.011.022-.022V1.2L.573,1.187.562,1.176V1.165H.541l.054-.032v.043Z" transform="translate(4.004 2.161)"/>
      <path id="Tracciato_5006" data-name="Tracciato 5006" d="M.573,1.229h0l.011-.011V1.2L.573,1.186.562,1.164.5,1.186v.043l.011.011H.519L.53,1.25l-.065.022V1.261L.476,1.25V1.218l.011-.172.022-.011.1.14.011.011.011.022H.648ZM.5,1.175l.065-.022L.5,1.067Z" transform="translate(4.313 2.043)"/>
      <path id="Tracciato_5007" data-name="Tracciato 5007" d="M.537,1.225H.591L.6,1.214.612,1.2V1.171H.634l-.011.065H.494L.5,1.225V1.042H.494V1.031H.558v.011H.537v.183Z" transform="translate(4.596 2.006)"/>
      <path id="Tracciato_5008" data-name="Tracciato 5008" d="M.572,1.229.6,1.24H.637V1.229H.648l.011-.022H.669l-.011.065-.14-.043.011-.011H.551V1.2l.043-.118V1.046L.583,1.035l.065.011-.011.011H.626v.011l-.011.011Z" transform="translate(4.836 2.046)"/>
      <path id="Tracciato_5009" data-name="Tracciato 5009" d="M.639,1.234H.671V1.2l.011-.011L.628,1.148H.617l-.011.011L.6,1.169l-.011.022L.6,1.2.542,1.169V1.159H.564l.022-.011.151-.1.022.011-.065.172v.043Zm0-.1.054.043.032-.1Z" transform="translate(5.065 2.199)"/>
      <path id="Tracciato_5010" data-name="Tracciato 5010" d="M.705,1.242l-.011.011v.022l.022-.022L.759,1.22.78,1.21.8,1.2V1.167l.032.043V1.22L.823,1.21H.813L.8,1.22l-.14.1L.651,1.306l.065-.151V1.134l.011-.011-.032.022-.054.032L.619,1.2.608,1.21v.022H.6L.565,1.188H.608l.108-.075L.727,1.1l.011-.011V1.08H.727L.737,1.07l.022.043Z" transform="translate(5.292 2.382)"/>
      <path id="Tracciato_5011" data-name="Tracciato 5011" d="M.765,1.1l.054.151-.054.022V1.26l.011-.022.011-.011V1.2l-.151.043-.011.011H.614V1.26L.6,1.271.582,1.206H.593L.6,1.217H.625l.151-.054L.765,1.153V1.142L.754,1.131H.722L.711,1.109Z" transform="translate(5.454 2.665)"/>
      <path id="Tracciato_5012" data-name="Tracciato 5012" d="M.685,1.172l-.054.011H.6v.011H.588V1.129H.6v.022H.62L.76,1.14H.782l.011-.011v.108l-.043.032H.717L.685,1.226l-.011.022-.022.011L.631,1.28H.62L.61,1.29.6,1.312V1.269L.61,1.258l.022-.011.022-.022H.663l.011-.011L.685,1.2V1.172Zm.1,0H.7v.054l.022.011H.771l.011-.011V1.172" transform="translate(5.514 2.961)"/>
      <path id="Tracciato_5013" data-name="Tracciato 5013" d="M.682,1.205l.086-.022.022-.011H.8l.011-.011L.8,1.227H.789V1.205H.768v.011l-.075.011.043.043.011.011.022.011.011-.011H.789l-.011.054H.768V1.324L.757,1.313.736,1.291.671,1.238.628,1.227H.6v.011H.585l.022-.065v.011H.617v.011H.639Z" transform="translate(5.485 3.285)"/>
      <path id="Tracciato_5014" data-name="Tracciato 5014" d="M.655,1.372v.1H.612v-.1H.483V1.339H.612V1.232H.655v.108H.784v.032Z" transform="translate(4.489 3.963)"/>
      <path id="Tracciato_5015" data-name="Tracciato 5015" d="M.555,1.283.5,1.337.448,1.283.5,1.229l.054.054" transform="translate(4.145 3.942)"/>
      <path id="Tracciato_5016" data-name="Tracciato 5016" d="M.634,1.283.58,1.337.537,1.283.58,1.229l.054.054" transform="translate(5.018 3.942)"/>
    </g>
  </g>
</svg>
