<svg xmlns="http://www.w3.org/2000/svg" xmlns:xlink="http://www.w3.org/1999/xlink" width="24" height="24.011" viewBox="0 0 24 24.011">
  <defs>
    <clipPath id="clip-path">
      <path id="Tracciato_5034" data-name="Tracciato 5034" d="M.18,12.719A12,12,0,1,0,12.185.714,12,12,0,0,0,.18,12.719" transform="translate(-0.18 -0.714)" fill="none"/>
    </clipPath>
  </defs>
  <g id="Martinica" transform="translate(-0.18 -0.714)">
    <g id="Raggruppa_191" data-name="Raggruppa 191" transform="translate(0.18 0.714)" clip-path="url(#clip-path)">
      <rect id="Rettangolo_424" data-name="Rettangolo 424" width="27.876" height="24.011" transform="translate(-1.938)" fill="#004092"/>
      <path id="Tracciato_5029" data-name="Tracciato 5029" d="M6.459,6.31l-.011-.043V6.246l-.022-.022L6.4,6.159l-.032-.065-.065-.108-.032-.043L6.233,5.9a.978.978,0,0,0-.28-.215l-.28-.108H5.651L5.63,5.567H5.608l-.054-.022-.075-.011-.065-.011a2.678,2.678,0,0,0-.5-.054,4.566,4.566,0,0,0-.9.1l-.2.043-.194.043c-.14.022-.248.043-.377.075-.215.032-.42.075-.6.108V5.826l.118-.054.162-.054.215-.032.258-.032.237-.043.948-.162c.162-.032.334-.065.485-.086a1.728,1.728,0,0,0,.3-.075l.162-.075L5.533,5.2l.022-.011.011-.011.022-.011.022-.011V5.147l.022-.011.032-.022L5.7,5.072a.51.51,0,0,0,.129-.2A.509.509,0,0,0,5.91,4.63a.9.9,0,0,0-.086-.452l-.065-.1V4.06l-.032-.022-.011-.032L5.7,4H5.683l-.011-.022-.011-.011-.011-.022-.032-.011-.065-.065a1.125,1.125,0,0,0-.3-.151,1.41,1.41,0,0,0-.291-.065c-.1-.022-.172-.022-.248-.032L4.273,3.6a3.212,3.212,0,0,1-.355-.043.6.6,0,0,1-.237-.1l-.043-.022-.011-.011V3.414l.043-.032.14-.065.129-.065.172-.065.323-.151a1.271,1.271,0,0,0,.345-.248l.032-.043L4.865,2.7l.022-.043.032-.054.065-.1.022-.032.011-.032.011-.065.011-.022V2.348l.022-.011V2.251l.011-.022.011-.065a.845.845,0,0,0-.022-.237,1.04,1.04,0,0,0-.14-.366A1.174,1.174,0,0,0,4.661,1.3l-.032-.022L4.585,1.25l-.054-.032-.011-.011H4.51V1.2l-.043-.011-.054-.032-.248-.075-.194-.022L3.81,1.045a1.441,1.441,0,0,0-.28.022l-.215.022a2.294,2.294,0,0,0-.894.108l-.215.14a1.072,1.072,0,0,0-.162.151l-.032.086.022.075L1.9,1.713a1.214,1.214,0,0,1-.258.086,1.187,1.187,0,0,1-.614-.011.588.588,0,0,1-.194-.065l.118.108L.763,1.809a1.408,1.408,0,0,0,1.066.054l.108-.043.194-.054a.591.591,0,0,0,.258.075c.431,0,.883,0,1.314-.043h.086l.226.022.1.043h.011l.032.011h.011l.022.022v.011h.022l.065.086.043.075v.065l-.011.022-.022.011-.011.022V2.2l-.011.011v.011L4.23,2.24a.343.343,0,0,1-.162.108,1.488,1.488,0,0,1-.258.118l-.151.065-.194.075-.194.108a1.96,1.96,0,0,0-.2.151l-.108.118-.054.075L2.873,3.1l-.011.054a.414.414,0,0,0-.054.226,1.613,1.613,0,0,0,.022.237l.043.086.011.043.032.043.032.032.022.032v.022h.011l.011.022.022.022.011.022.043.022L3.089,4l.032.032.108.086a1.37,1.37,0,0,0,.528.215,2.392,2.392,0,0,0,.463.065c.151.011.3.022.441.022l.172.022.151.043.1.043H5.07l-.151.043-.463.075L3.487,4.8l-.226.043-.237.022-.269.054a1.847,1.847,0,0,0-.3.086.906.906,0,0,0-.323.183.5.5,0,0,0-.162.172.807.807,0,0,0-.108.215L1.85,5.6V5.61l-.011.011v.032l-.011.032-.011.054v.054l-.011.162-.334.022H1.247l-.2-.011a1.17,1.17,0,0,1-.571-.129.454.454,0,0,1-.129-.108L.321,5.686.311,5.675v.011L.3,5.739a.515.515,0,0,0,.022.2.875.875,0,0,0,.2.28,1.381,1.381,0,0,0,.366.258l.118.043.118.054.269.075a2.722,2.722,0,0,0,.614.086h.162l.151.151a2.889,2.889,0,0,0,.248.183l.291.14a2.471,2.471,0,0,0,.528.162l.14.022.075.011.065.011.108.022.14.022a4.924,4.924,0,0,0,1.055.032,2.379,2.379,0,0,0,.549-.118l.28-.108.022-.011.043-.022.065-.043.129-.086.151-.118c.022-.043.075-.1.108-.162l.054-.086.043-.108.011-.065.022-.054.011-.022V6.31m-3.5-4.8c-.054,0-.108-.022-.108-.065-.022-.054.022-.1.075-.108a.117.117,0,0,1,.129.075.114.114,0,0,1-.1.1M5.124,4.5Zm-.011.043h0v0Zm.452,1.9-.054.043L5.468,6.5l-.011.011H5.436l-.172.075a3.329,3.329,0,0,1-.377.075,4.015,4.015,0,0,1-.872-.032l-.108-.011-.054-.011L3.778,6.6,3.724,6.59H3.67l-.1-.022-.1-.022.312-.075.183-.043.1-.022L4.122,6.4l.043-.011a4.346,4.346,0,0,1,.743-.075,1.9,1.9,0,0,1,.355.032h.043l.022.011.1.032.14.043v.011m.054-.054h0v0Zm0-.011Z" transform="translate(0.949 2.497)" fill="#fff"/>
      <path id="Tracciato_5030" data-name="Tracciato 5030" d="M7.88,6.31V6.246l-.011-.022-.022-.065-.032-.065-.065-.108-.032-.043L7.675,5.9a1.012,1.012,0,0,0-.291-.215L7.1,5.578H7.083l-.011-.011H7.04l-.054-.022-.065-.011-.065-.011a2.791,2.791,0,0,0-.506-.054,4.752,4.752,0,0,0-.9.1l-.2.043-.194.043a3.664,3.664,0,0,0-.366.075c-.215.032-.42.075-.6.108V5.826l.1-.054.183-.054.215-.032.248-.032L5.07,5.61l.948-.162c.162-.032.312-.065.474-.086a1.362,1.362,0,0,0,.3-.075l.162-.075L6.975,5.2l.011-.011.022-.011.022-.011.011-.011.011-.011.022-.011.022-.022.043-.043a.69.69,0,0,0,.14-.2.65.65,0,0,0,.065-.237.792.792,0,0,0-.075-.452l-.054-.1L7.2,4.071,7.191,4.06l-.022-.022-.022-.032L7.137,4H7.126l-.011-.022L7.1,3.963l-.022-.022-.022-.011-.075-.065a.989.989,0,0,0-.3-.151,1.483,1.483,0,0,0-.28-.065c-.1-.022-.183-.022-.258-.032L5.716,3.6a2.92,2.92,0,0,1-.355-.043.541.541,0,0,1-.237-.1L5.08,3.435,5.07,3.425V3.414l.043-.032.129-.065.14-.065.162-.065.334-.151a1.461,1.461,0,0,0,.345-.248l.032-.043L6.3,2.7l.032-.043.032-.054.065-.1.011-.032.011-.032.022-.065.011-.022V2.348l.011-.011V2.3L6.5,2.294V2.251l.011-.022V2.165A.855.855,0,0,0,6.5,1.928a.881.881,0,0,0-.162-.366A.918.918,0,0,0,6.1,1.3l-.032-.022L6.028,1.25l-.054-.032-.011-.011H5.942L5.931,1.2,5.9,1.185l-.054-.032L5.6,1.077,5.4,1.056l-.162-.011a1.153,1.153,0,0,0-.269.022l-.215.022a2.324,2.324,0,0,0-.9.108l-.215.14a2.156,2.156,0,0,0-.172.151l-.022.086.022.075-.129.065a1.453,1.453,0,0,1-.258.086,1.185,1.185,0,0,1-.614-.011.588.588,0,0,1-.194-.065l.118.108-.194-.022a1.408,1.408,0,0,0,1.066.054l.108-.043.194-.054a.591.591,0,0,0,.258.075c.441,0,.883,0,1.314-.043h.1l.215.022.108.043.022.011H5.6L5.63,1.9v.011H5.64l.075.086.032.075v.065l-.011.022-.011.011-.011.022L5.7,2.2l-.011.011-.011.011-.011.022a.52.52,0,0,1-.162.108,2.206,2.206,0,0,1-.269.118l-.162.065-.172.075-.194.108a2,2,0,0,0-.215.151l-.108.118-.054.075L4.316,3.1l-.032.054a.766.766,0,0,0-.043.226.84.84,0,0,0,.032.237l.032.086.022.043.022.043.032.032.022.032.011.022h.011l.011.022.011.022.022.022.032.022L4.531,4l.022.032.118.086a1.327,1.327,0,0,0,.517.215,2.5,2.5,0,0,0,.474.065c.151.011.291.022.431.022l.183.022.151.043.086.043h0l-.162.043-.463.075L4.93,4.8l-.237.043-.237.022-.269.054a1.847,1.847,0,0,0-.3.086.906.906,0,0,0-.323.183.5.5,0,0,0-.162.172.807.807,0,0,0-.108.215L3.282,5.6V5.61l-.011.011v.032l-.011.032-.011.054-.011.054v.162l-.334.022H2.679l-.2-.011A1.17,1.17,0,0,1,1.9,5.836a.454.454,0,0,1-.129-.108l-.022-.043-.011-.011-.011.011v.054a.37.37,0,0,0,.022.2.823.823,0,0,0,.194.28,1.658,1.658,0,0,0,.377.258l.118.043.118.054.269.075a2.722,2.722,0,0,0,.614.086h.162l.151.151a1.9,1.9,0,0,0,.258.183l.28.14a2.764,2.764,0,0,0,.538.162l.14.022.065.011.065.011.118.022.129.022a5,5,0,0,0,1.066.032,2.506,2.506,0,0,0,.549-.118l.269-.108.032-.011.022-.011.086-.054L7.5,7.107l.129-.118.129-.162.054-.086.043-.108.011-.065.011-.054V6.493l.011-.043V6.407l-.011-.1m-3.489-4.8c-.054,0-.108-.022-.118-.065a.105.105,0,0,1,.1-.108.084.084,0,0,1,.108.075c.011.043-.032.086-.086.1M6.566,4.5Zm-.022.043h0l.011.011ZM7,6.439l-.054.043L6.911,6.5H6.9l-.022.011-.172.075c-.118.032-.248.054-.377.075a3.992,3.992,0,0,1-.872-.032l-.118-.011-.054-.011L5.22,6.6,5.167,6.59H5.113l-.108-.022-.086-.022.312-.075.183-.043.1-.022L5.565,6.4l.043-.011A4.333,4.333,0,0,1,6.34,6.31a1.9,1.9,0,0,1,.355.032h.043l.032.011.1.032.14.043L7,6.439m.065-.054h0v0Zm0-.011Z" transform="translate(14.914 2.497)" fill="#fff"/>
      <path id="Tracciato_5031" data-name="Tracciato 5031" d="M6.459,7.3l-.011-.043V7.241l-.022-.032L6.4,7.144,6.373,7.08l-.065-.108-.032-.054-.043-.032a.978.978,0,0,0-.28-.215l-.28-.108-.022-.011H5.608l-.054-.022L5.479,6.52l-.065-.032c-.162-.011-.345-.032-.5-.032a3.883,3.883,0,0,0-.9.1l-.2.032-.194.054c-.14.022-.248.043-.377.075-.215.022-.42.075-.6.108V6.811l.118-.054L2.916,6.7l.215-.032.258-.032.237-.054c.334-.054.635-.1.948-.151.162-.032.334-.054.485-.1a1.011,1.011,0,0,0,.3-.065l.162-.086h.011l.022-.011.011-.011.022-.011.022-.011V6.132l.022-.011.032-.032L5.7,6.057a.549.549,0,0,0,.129-.215.436.436,0,0,0,.075-.226.874.874,0,0,0-.086-.452l-.065-.1V5.045h0l-.032-.022-.011-.032L5.7,4.98l-.022-.011-.011-.022H5.662V4.937l-.043-.022L5.554,4.84a2.619,2.619,0,0,0-.3-.151,2.754,2.754,0,0,0-.291-.054,1.2,1.2,0,0,0-.248-.043l-.441-.011c-.118-.011-.258-.032-.355-.043a.6.6,0,0,1-.237-.1L3.659,4.42,3.627,4.4h0l.043-.032.14-.075.129-.054.172-.065.323-.151a1.554,1.554,0,0,0,.345-.248l.032-.043.054-.043.022-.043.032-.054.065-.108.022-.032.011-.022.011-.075.011-.011V3.333L5.059,3.3V3.236L5.07,3.2,5.08,3.15A.924.924,0,0,0,5.059,2.9a1.129,1.129,0,0,0-.14-.366,1.392,1.392,0,0,0-.258-.248l-.032-.032-.043-.022L4.531,2.2l-.011-.011h0L4.51,2.181l-.043-.022-.054-.022-.248-.075-.194-.022L3.81,2.03a1.441,1.441,0,0,0-.28.022l-.215.022a2.294,2.294,0,0,0-.894.108l-.215.14a.53.53,0,0,0-.162.151l-.032.075.022.086-.14.065a1.674,1.674,0,0,1-.248.086,1.187,1.187,0,0,1-.614-.011C.978,2.751.881,2.741.838,2.7l.118.108L.763,2.794a1.459,1.459,0,0,0,1.066.043l.108-.032.194-.054a.591.591,0,0,0,.258.075c.431,0,.883,0,1.314-.043h.086l.226.022.1.032.011.011h.043l.022.032.022.011.065.086.043.075v.054l-.011.032-.022.011-.011.022-.011.011V3.2H4.23a.35.35,0,0,1-.162.129c-.065.043-.151.065-.258.118l-.151.054-.194.086L3.272,3.7a1.094,1.094,0,0,0-.2.151l-.108.118-.054.075-.032.043-.011.054a.392.392,0,0,0-.054.226,1.466,1.466,0,0,0,.022.226l.043.1.011.043.032.043.032.032.022.032v.022h.011l.011.022.022.011.011.032.043.022.022.032.032.032.108.086a1.37,1.37,0,0,0,.528.215,2.392,2.392,0,0,0,.463.065l.441.011.172.032.151.022.1.065H5.07l-.151.032-.463.086-.969.162-.226.032-.237.022-.269.065a1.169,1.169,0,0,0-.3.086.906.906,0,0,0-.323.183.577.577,0,0,0-.162.162,1.078,1.078,0,0,0-.108.226l-.011.022h0l-.011.022v.032l-.011.032-.011.054v.054l-.011.162-.334.022H1.247l-.2-.011a1.17,1.17,0,0,1-.571-.129L.343,6.7.321,6.681.311,6.649v.022L.3,6.724a.454.454,0,0,0,.022.194.8.8,0,0,0,.2.291,1.362,1.362,0,0,0,.366.248l.118.054.118.054L1.4,7.64a3.513,3.513,0,0,0,.614.086h.162l.151.151a2.89,2.89,0,0,0,.248.183l.291.14a3.291,3.291,0,0,0,.528.162l.14.022.075.011L3.67,8.4l.108.022.14.022a4.927,4.927,0,0,0,1.055.022,3.1,3.1,0,0,0,.549-.108,2.986,2.986,0,0,0,.28-.108l.022-.022.043-.011.065-.043.129-.1.151-.108c.022-.054.075-.1.108-.162l.054-.1.043-.1.011-.065L6.448,7.5l.011-.022V7.3m-3.5-4.813c-.054.011-.108-.011-.108-.075-.022-.032.022-.075.075-.086a.11.11,0,0,1,.129.065.1.1,0,0,1-.1.1m2.164,3Zm-.011.043h0v0Zm.452,1.9-.054.032-.043.032H5.457L5.436,7.5l-.172.075a3.328,3.328,0,0,1-.377.075,4.015,4.015,0,0,1-.872-.032l-.108-.011L3.853,7.6l-.075-.011-.054-.011H3.67l-.1-.032-.1-.011.312-.075.183-.043.1-.032h.054l.043-.011A4.346,4.346,0,0,1,4.908,7.3a1.9,1.9,0,0,1,.355.032h.043l.022.011.1.022.14.054v.011m.054-.054h0v0Zm0-.011Z" transform="translate(0.949 12.118)" fill="#fff"/>
      <path id="Tracciato_5032" data-name="Tracciato 5032" d="M7.88,7.3V7.241l-.011-.032-.022-.065L7.815,7.08l-.065-.108-.032-.054-.043-.032a1.012,1.012,0,0,0-.291-.215L7.1,6.563l-.022-.011H7.04l-.054-.022L6.922,6.52l-.065-.032c-.172-.011-.345-.032-.506-.032a4.017,4.017,0,0,0-.9.1l-.2.032-.194.054a3.663,3.663,0,0,0-.366.075c-.215.022-.42.075-.6.108V6.811l.1-.054L4.359,6.7l.215-.032.248-.032.248-.054c.323-.054.635-.1.948-.151l.474-.1a.9.9,0,0,0,.3-.065l.162-.086h.022l.011-.011.022-.011.022-.011.011-.011.011-.011.022-.011.022-.032.043-.032a.743.743,0,0,0,.14-.215.548.548,0,0,0,.065-.226.777.777,0,0,0-.075-.452l-.054-.1L7.2,5.045H7.191l-.022-.022-.022-.032L7.137,4.98l-.011-.011-.011-.022H7.1l-.011-.011-.032-.022L6.986,4.84a1.969,1.969,0,0,0-.3-.151c-.1-.022-.194-.043-.28-.054a1.289,1.289,0,0,0-.258-.043l-.431-.011c-.129-.011-.258-.032-.355-.043a.541.541,0,0,1-.237-.1L5.08,4.4H5.07l.043-.032.129-.075.14-.054.162-.065.334-.151a1.851,1.851,0,0,0,.345-.248l.032-.043L6.3,3.688l.032-.043.032-.054.065-.108.011-.032.011-.022.022-.075.011-.011V3.333L6.491,3.3V3.279H6.5V3.236L6.512,3.2V3.15A.935.935,0,0,0,6.5,2.9a.949.949,0,0,0-.162-.366A1.04,1.04,0,0,0,6.1,2.288l-.032-.032-.043-.022L5.974,2.2l-.011-.011H5.953l-.011-.011H5.931L5.91,2.159l-.065-.022L5.6,2.062,5.4,2.041,5.242,2.03a1.152,1.152,0,0,0-.269.022l-.215.022a2.324,2.324,0,0,0-.9.108l-.215.14a.72.72,0,0,0-.172.151l-.022.075.022.086-.14.065a2.255,2.255,0,0,1-.248.086,1.185,1.185,0,0,1-.614-.011c-.054-.022-.151-.032-.194-.075l.118.108-.194-.011a1.459,1.459,0,0,0,1.066.043l.108-.032.194-.054a.591.591,0,0,0,.258.075c.441,0,.883,0,1.314-.043h.1l.215.022.108.032.022.011H5.6l.032.032.011.011.075.086.032.075V3.1l-.011.011v.032l-.011.011-.011.022L5.7,3.182v.011L5.683,3.2H5.673a.527.527,0,0,1-.162.129c-.075.043-.162.065-.269.118l-.162.054-.172.086L4.714,3.7A1.132,1.132,0,0,0,4.5,3.85l-.108.118-.054.075-.022.043-.032.054a.7.7,0,0,0-.043.226.765.765,0,0,0,.032.226l.032.1.022.043.022.043.032.032L4.4,4.84l.011.022h.011l.011.022.011.011.022.032.032.022.032.032.022.032.118.086a1.327,1.327,0,0,0,.517.215,2.5,2.5,0,0,0,.474.065l.431.011.183.032.151.022.086.065h0l-.162.032-.463.086-.958.162-.237.032-.237.022-.269.065a1.169,1.169,0,0,0-.3.086.906.906,0,0,0-.323.183.577.577,0,0,0-.162.162,1.078,1.078,0,0,0-.108.226l-.011.022h0l-.011.022v.032l-.011.032-.011.054-.011.054V6.94l-.334.022H2.679l-.2-.011A1.17,1.17,0,0,1,1.9,6.821L1.775,6.7l-.022-.032-.011-.022-.011.022v.054a.33.33,0,0,0,.022.194.763.763,0,0,0,.194.291,1.633,1.633,0,0,0,.377.248l.118.054.118.054.269.075a3.513,3.513,0,0,0,.614.086h.162l.151.151a1.9,1.9,0,0,0,.258.183l.28.14a3.784,3.784,0,0,0,.538.162l.14.022.065.011L5.1,8.4l.118.022.129.022a5.012,5.012,0,0,0,1.066.022,3.3,3.3,0,0,0,.549-.108l.269-.108.032-.022.022-.011.086-.043.129-.1.129-.108.129-.162.054-.1.043-.1.011-.065L7.88,7.5V7.478l.011-.043V7.381L7.88,7.3M4.391,2.482a.092.092,0,0,1-.118-.075c0-.032.032-.075.1-.086a.079.079,0,0,1,.108.065.082.082,0,0,1-.086.1m2.175,3Zm-.022.043h0l.011.011V5.529ZM7,7.424l-.054.032-.032.032H6.9L6.879,7.5l-.172.075c-.118.032-.248.054-.377.075a3.992,3.992,0,0,1-.872-.032l-.118-.011L5.285,7.6,5.22,7.586l-.054-.011H5.113l-.108-.032-.086-.011.312-.075.183-.043.1-.032h.054l.043-.011A4.333,4.333,0,0,1,6.34,7.3a1.9,1.9,0,0,1,.355.032h.043l.032.011.1.022.14.054L7,7.424m.065-.054h0v0Zm0-.011Z" transform="translate(14.914 12.118)" fill="#fff"/>
      <path id="Tracciato_5033" data-name="Tracciato 5033" d="M27.876,11.909H15.29V.658H12.576V11.909H0v2.713H12.576V25.874H15.29V14.623H27.876Z" transform="translate(-1.935 -1.263)" fill="#fff"/>
    </g>
  </g>
</svg>
