<svg xmlns="http://www.w3.org/2000/svg" xmlns:xlink="http://www.w3.org/1999/xlink" width="24" height="24" viewBox="0 0 24 24">
  <defs>
    <clipPath id="clip-path">
      <path id="Tracciato_5757" data-name="Tracciato 5757" d="M1.128,12.749a12,12,0,1,0,12-12,11.99,11.99,0,0,0-12,12" transform="translate(-1.128 -0.749)" fill="none"/>
    </clipPath>
  </defs>
  <g id="Moldavia_" data-name="Moldavia " transform="translate(-1.128 -0.749)">
    <g id="Raggruppa_194" data-name="Raggruppa 194" transform="translate(1.128 0.749)" clip-path="url(#clip-path)">
      <rect id="Rettangolo_429" data-name="Rettangolo 429" width="48.269" height="24.129" transform="translate(-12.14 -0.065)" fill="#24378d"/>
      <rect id="Rettangolo_430" data-name="Rettangolo 430" width="32.169" height="24.129" transform="translate(3.961 -0.065)" fill="#ffde00"/>
      <rect id="Rettangolo_431" data-name="Rettangolo 431" width="16.09" height="24.129" transform="translate(20.039 -0.065)" fill="#e32104"/>
      <path id="Tracciato_5596" data-name="Tracciato 5596" d="M2.915,1.579a.26.26,0,0,1-.075.108H2.571V1.428a.236.236,0,0,1,.118-.075c-.022-.065-.3-.075-.334,0l.1.075v.258H2.215a.242.242,0,0,1-.086-.108c-.054.011-.065.291,0,.323l.086-.1h.237v.947h.011l-.108.075a.462.462,0,0,1,.161.183.454.454,0,0,1,.172-.183.352.352,0,0,1-.118-.075V1.8H2.84l.075.108c.075-.043.054-.312,0-.334" transform="translate(8.213 4.631)" fill="#f4e71e"/>
      <path id="Tracciato_5597" data-name="Tracciato 5597" d="M2.53,3.032l-.011-.011a.4.4,0,0,0-.161-.172l-.011-.011.011-.011.1-.075V1.826H2.218l-.075.1H2.132c-.043-.022-.054-.118-.043-.2l.043-.14.011.011.065.086.248.011V1.439l-.1-.075H2.347V1.353c.032-.043.14-.054.172-.054.075,0,.172.022.183.054l-.011.011-.1.065-.011.258h.258l.075-.1.011-.011.054.14c0,.1-.011.194-.054.215H2.917V1.923l-.065-.086-.269-.011v.926l.108.075.011.011-.011.011a.409.409,0,0,0-.151.172Zm-.151-.194A.441.441,0,0,1,2.53,3a.358.358,0,0,1,.14-.161l-.086-.065-.011-.011V1.8h.269l.011.011.075.086a.341.341,0,0,0,.032-.183l-.022-.1-.086.086h-.28v-.28l.1-.075a.306.306,0,0,0-.151-.032.238.238,0,0,0-.151.032l.1.075.011.011V1.7l-.011.011H2.218A.242.242,0,0,1,2.132,1.6L2.1,1.719a.341.341,0,0,0,.032.183l.075-.086L2.218,1.8h.248l.011.011v.947l-.1.075" transform="translate(8.211 4.62)"/>
      <path id="Tracciato_5598" data-name="Tracciato 5598" d="M2.218,1.56a.087.087,0,0,1-.043-.1c.022-.086.161-.1.237-.1l.065.054.054.065c.011.075-.054.086-.108.118-.075.054-.14,0-.2-.043" transform="translate(9.061 5.274)" fill="#963"/>
      <path id="Tracciato_5599" data-name="Tracciato 5599" d="M5.479,10.438A1.322,1.322,0,0,1,5.4,9.964V2.581a2.384,2.384,0,0,0-.947-1.162c-.118,0-.667.6-.893.753a3.943,3.943,0,0,1,.054.635c-.409.011-.6.312-1.184.5l-.108.032.129-.011a1.747,1.747,0,0,0,.377-.1l.334-.151c0,.032-.054.28-.1.258a1.312,1.312,0,0,0-.215-.075H2.832s.14.118.237.183c.043.032.161-.226.161-.226a.818.818,0,0,1,.215.226c.032.054.355-.463.355-.463l.1.118v.721a1.685,1.685,0,0,1-.28-.28l-.032.086a1.189,1.189,0,0,0,.334.42l.237-.2V8.813a8.764,8.764,0,0,1-.592-1.679,5.88,5.88,0,0,0,.624,1.959V9.028s.3.6.646.743l.011-.086a2.134,2.134,0,0,0,.635.753m-2-7.135c-.086-.075-.28-.2-.3-.226a.718.718,0,0,1,.484-.108c-.054.118-.151.355-.183.334m.7.3-.215.258V3.173l.215.258Zm0-.4-.291-.3a1.5,1.5,0,0,0,.291-.323Zm.258.022v.581l-.2-.172V3.4Zm-.2-.032V2.614l.2.172v.226Zm.463,6.317a1.983,1.983,0,0,1-.441-.549V3.851l.215.194.226-.194ZM4.7,3.647l-.2.183V3.206l.2.183Zm0-.452-.2-.183V2.764l.2-.28Zm0-.958V2.183l-.011-.032L4.683,2.14l-.022-.032L4.64,2.076l-.032-.011L4.6,2.076l-.032.011v.022l.032.043.022.032.011.032v.151l-.2.269-.215-.183V2.334L4.188,2.3l-.022-.032-.022-.032H4.1l-.032.022.011.032.022.032.032.054V2.5c-.075.1-.237.291-.355.323V2.194a3.344,3.344,0,0,0,.678-.506c.086,0,.409.323.6.6l-.108.248-.248-.2v-.1m.28.5v.28l-.215.194V2.538Zm-.215.678.215-.183V3.8l-.215-.172Zm.463,6.522a1.664,1.664,0,0,1-.441-.613V3.851l.215.194.226-.172Zm0-6.253-.011-.022-.172.14v-.56l.172.14.011-.022Zm0-.517-.183-.151V2.624l.1-.215.086.172Z" transform="translate(10.567 5.792)"/>
      <path id="Tracciato_5600" data-name="Tracciato 5600" d="M3.721,2.805a4.06,4.06,0,0,1,.054-.646c-.226-.151-.775-.743-.893-.743a2.34,2.34,0,0,0-.958,1.162V9.952a1.1,1.1,0,0,1-.075.474,2.16,2.16,0,0,0,.646-.753v.086c.355-.129.646-.743.646-.743V9.08a5.719,5.719,0,0,0,.635-1.959,8.1,8.1,0,0,1-.6,1.679V3.828l.237.2a1.189,1.189,0,0,0,.334-.42L3.71,3.526a1.351,1.351,0,0,1-.269.28V3.1l.1-.118s.323.506.355.452A.818.818,0,0,1,4.108,3.2s.118.258.161.226A2.388,2.388,0,0,0,4.5,3.247a1.138,1.138,0,0,0-.237.075c-.043.022-.086-.226-.1-.258a3.139,3.139,0,0,0,.334.151,1.506,1.506,0,0,0,.42.1L5,3.322,4.937,3.3c-.613-.183-.807-.5-1.216-.5M2.1,2.579A.673.673,0,0,1,2.182,2.4l.108.215v.4L2.1,3.15Zm0,.764.011.032.183-.151v.56l-.183-.14L2.1,3.666Zm.441,5.973a1.588,1.588,0,0,1-.441.6V3.86l.226.172.215-.194Zm.022-5.7L2.343,3.8V3.214l.215.183Zm0-.42L2.343,3v-.28l.215-.194Zm.28,0v.624l-.215-.183V3.376Zm-.215,0V2.472l.215.28V3Zm.463,5.769a2.149,2.149,0,0,1-.452.538V3.839l.226.194.226-.183ZM3.1,3.623l-.2.172V3.214l.2.172Zm0-.441-.2-.172V2.773l.2-.161Zm.28.667-.215-.258V3.419l.215-.258Zm-.215-.657V2.569a1.38,1.38,0,0,0,.28.334Zm.032-.721v-.1L3.2,2.364l.022-.054.022-.032.011-.022-.022-.022H3.183l-.011.022-.022.032-.022.022-.011.022v.086l-.215.2-.2-.269V2.2l.011-.011.022-.032.022-.054.022-.022-.022-.022H2.687l-.011.011-.022.032-.011.022-.022.032v.172l-.237.194-.118-.248c.2-.269.527-.6.613-.6a3.722,3.722,0,0,0,.667.517v.613c-.108-.032-.269-.226-.355-.334m.657.818c-.032.022-.129-.215-.172-.323a.733.733,0,0,1,.484.1,2.331,2.331,0,0,0-.312.226" transform="translate(5.901 5.772)"/>
      <path id="Tracciato_5601" data-name="Tracciato 5601" d="M3,1.667V7.726a1.588,1.588,0,0,1-.441-.6V1.645l.215.194Z" transform="translate(12.803 7.998)" fill="#963"/>
      <path id="Tracciato_5602" data-name="Tracciato 5602" d="M2.946,1.644V7.316a2.153,2.153,0,0,1-.441-.549V1.655l.215.183Z" transform="translate(12.315 7.988)" fill="#963"/>
      <path id="Tracciato_5603" data-name="Tracciato 5603" d="M2.693,1.83V2l-.215.258V1.582Z" transform="translate(12.045 7.387)" fill="#963"/>
      <path id="Tracciato_5604" data-name="Tracciato 5604" d="M2.707,1.586v.592L2.5,2V1.758Z" transform="translate(12.295 7.425)" fill="#963"/>
      <path id="Tracciato_5605" data-name="Tracciato 5605" d="M2.743,1.767v.269l-.215.183V1.584Z" transform="translate(12.532 7.406)" fill="#963"/>
      <path id="Tracciato_5606" data-name="Tracciato 5606" d="M2.768,1.587v.57l-.215-.172V1.759Z" transform="translate(12.783 7.432)" fill="#963"/>
      <path id="Tracciato_5607" data-name="Tracciato 5607" d="M2.762,1.706v.334l-.011-.032-.172.151v-.57l.172.151Z" transform="translate(13.036 7.435)" fill="#963"/>
      <path id="Tracciato_5608" data-name="Tracciato 5608" d="M2.762,1.683v.581l-.183-.151v-.4l.1-.2.086.172" transform="translate(13.037 6.69)" fill="#963"/>
      <path id="Tracciato_5609" data-name="Tracciato 5609" d="M2.768,1.717V2l-.215.194V1.523Z" transform="translate(12.783 6.805)" fill="#963"/>
      <path id="Tracciato_5610" data-name="Tracciato 5610" d="M2.743,1.518v.721l-.215-.194V1.8Z" transform="translate(12.532 6.754)" fill="#963"/>
      <path id="Tracciato_5611" data-name="Tracciato 5611" d="M2.707,1.7v.226l-.2.183V1.53Z" transform="translate(12.295 6.873)" fill="#963"/>
      <path id="Tracciato_5612" data-name="Tracciato 5612" d="M2.751,1.527v.624l-.28-.3a1.679,1.679,0,0,0,.28-.323" transform="translate(11.983 6.846)" fill="#963"/>
      <path id="Tracciato_5613" data-name="Tracciato 5613" d="M2.707,1.573c-.011.032-.054.28-.1.258a.891.891,0,0,0-.226-.086l-.011-.022.334-.151" transform="translate(11.026 7.295)" fill="#963"/>
      <path id="Tracciato_5614" data-name="Tracciato 5614" d="M2.405,1.678a.8.8,0,0,1,.484-.108c-.043.118-.151.355-.183.334-.086-.075-.28-.2-.3-.226" transform="translate(11.338 7.19)" fill="#963"/>
      <path id="Tracciato_5615" data-name="Tracciato 5615" d="M3.742,2.047l-.118.248-.237-.2-.011-.1.011-.054-.022-.032L3.354,1.9l-.011-.032-.032-.043H3.268l-.032.022.011.022.022.043.022.032.011.032.011.065L3.3,2.1v.022l-.194.258L2.891,2.2V2.122l-.011-.043-.022-.022-.011-.032-.022-.032H2.784l-.043.022.022.032.022.032.022.054.011.011v.1c-.086.108-.248.3-.355.334V1.95a3.424,3.424,0,0,0,.667-.506c.086,0,.409.323.613.6" transform="translate(11.885 6.036)" fill="#963"/>
      <path id="Tracciato_5616" data-name="Tracciato 5616" d="M2.363,1.653V6.765a1.983,1.983,0,0,1-.441.549V1.642l.226.2Z" transform="translate(6.623 7.969)" fill="#963"/>
      <path id="Tracciato_5617" data-name="Tracciato 5617" d="M2.312,1.642V7.109a1.565,1.565,0,0,1-.441.613V1.664l.226.172Z" transform="translate(6.125 7.969)" fill="#963"/>
      <path id="Tracciato_5618" data-name="Tracciato 5618" d="M2.4,1.753a.966.966,0,0,0-.237.075c-.043.022-.1-.226-.1-.258a1.933,1.933,0,0,0,.334.151Z" transform="translate(8 7.266)" fill="#963"/>
      <path id="Tracciato_5619" data-name="Tracciato 5619" d="M2.5,1.676,2.19,1.9c-.022.022-.129-.215-.172-.334a.731.731,0,0,1,.484.108" transform="translate(7.56 7.16)" fill="#963"/>
      <path id="Tracciato_5620" data-name="Tracciato 5620" d="M2.054,1.585v.57L1.882,2l-.011.032V1.7l.011.032Z" transform="translate(6.13 7.411)" fill="#963"/>
      <path id="Tracciato_5621" data-name="Tracciato 5621" d="M2.11,1.757v.226l-.215.172v-.57Z" transform="translate(6.354 7.41)" fill="#963"/>
      <path id="Tracciato_5622" data-name="Tracciato 5622" d="M2.135,1.582v.624L1.92,2.023V1.765Z" transform="translate(6.6 7.385)" fill="#963"/>
      <path id="Tracciato_5623" data-name="Tracciato 5623" d="M2.15,1.756V2l-.2.161V1.584Z" transform="translate(6.849 7.403)" fill="#963"/>
      <path id="Tracciato_5624" data-name="Tracciato 5624" d="M2.185,1.58v.678L1.97,2.01V1.827Z" transform="translate(7.087 7.361)" fill="#963"/>
      <path id="Tracciato_5625" data-name="Tracciato 5625" d="M3.693,1.917l-.032.022-.022.011L3.6,1.982H3.585L3.553,2a1.031,1.031,0,0,0,.732-.248,1.394,1.394,0,0,1-.14.258c.312,0,.43-.215.527-.258.054-.032.065.215.129.215s.065-.248.129-.215.161.194.366.248l.161.011a.752.752,0,0,1-.14-.258A1.089,1.089,0,0,0,6.071,2l-.151-.075a1.747,1.747,0,0,0,.377-.1l.011.032H6.3l.226.183c.043.032.172-.226.172-.226a.876.876,0,0,1,.2.226c.043.054.366-.452.366-.452l.1.108v.721a1.137,1.137,0,0,1-.28-.28l-.032.086a1.189,1.189,0,0,0,.334.42l.237-.2V7.417a8.764,8.764,0,0,1-.592-1.679L2.563,5.716a8.51,8.51,0,0,1-.592,1.668V2.423l.237.2a1.189,1.189,0,0,0,.334-.42l-.032-.086a1.052,1.052,0,0,1-.28.269V1.68l.1-.118s.323.517.366.463A.707.707,0,0,1,2.9,1.8s.118.258.172.226l.226-.183V1.81a2.015,2.015,0,0,0,.42.1L3.7,1.917Z" transform="translate(7.102 7.188)" fill="#963"/>
      <path id="Tracciato_5626" data-name="Tracciato 5626" d="M2.25,1.848l-.28.291V1.525a1.617,1.617,0,0,0,.28.323" transform="translate(7.092 6.827)" fill="#963"/>
      <path id="Tracciato_5627" data-name="Tracciato 5627" d="M2.15,1.528V2.1l-.2-.172V1.7Z" transform="translate(6.849 6.856)" fill="#963"/>
      <path id="Tracciato_5628" data-name="Tracciato 5628" d="M2.135,1.795v.258l-.215.183v-.71l.011-.011Z" transform="translate(6.6 6.727)" fill="#963"/>
      <path id="Tracciato_5629" data-name="Tracciato 5629" d="M2.11,1.52v.667l-.215-.194v-.28Z" transform="translate(6.354 6.783)" fill="#963"/>
      <path id="Tracciato_5630" data-name="Tracciato 5630" d="M2.054,1.723v.4l-.183.14v-.57l.086-.183Z" transform="translate(6.125 6.661)" fill="#963"/>
      <path id="Tracciato_5631" data-name="Tracciato 5631" d="M3.168,1.958v.624c-.108-.032-.269-.226-.355-.334V2.13l.032-.043.022-.032.011-.032L2.856,2H2.8l-.011.022-.022.032-.022.022-.011.032v.086l-.215.194-.2-.258V1.979l.011-.022.022-.032.022-.043.011-.032-.022-.022H2.307L2.3,1.85l-.022.032L2.264,1.9l-.022.022V2.1l-.248.194-.108-.237c.2-.28.517-.613.613-.613a3.224,3.224,0,0,0,.667.517" transform="translate(6.282 6.007)" fill="#963"/>
      <path id="Tracciato_5632" data-name="Tracciato 5632" d="M2.414,2.038c.086-.086.334.118.334.118,0-.075-.129-.151-.14-.269l.1.043a.154.154,0,0,0,.151-.151A.139.139,0,0,0,2.8,1.661a.61.61,0,0,1,.28,0,3.331,3.331,0,0,1,.377.2c.022-.043-.215-.215-.3-.258-.108-.054-.291,0-.377-.011a1.369,1.369,0,0,1-.226-.075c-.043-.011-.183.011-.2-.032s.075-.1.172-.118c.43-.108.883.248,1.152.312L3.6,1.758c0,.043.161.075.172.118s-.129.043-.129.075.151.129.129.172-.172-.1-.161-.054a2.756,2.756,0,0,1,.032.42,1.037,1.037,0,0,1-.129.269,1.669,1.669,0,0,0,.323,1.13.811.811,0,0,1-.452-.4V2.78H3.318v.71l.011.065.022.054.161.4H3.5a.779.779,0,0,1-.355-.334V2.78H3.082v.915L3,3.846l-.086-.183V2.78H2.845v.9A.829.829,0,0,1,2.479,4l.172-.4V3.587l.011-.011.022-.086V2.78H2.608v.71a.811.811,0,0,1-.452.4l.032-.043L2.2,3.824l.022-.032.011-.011.011-.022.022-.032.011-.022.011-.022.022-.032.011-.032L2.328,3.6l.011-.022.011-.022.011-.022.022-.043.011-.054L2.4,3.426l.011-.032V3.383l.011-.032V3.34l.011-.032.011-.022.011-.032V3.211l.011-.022V3.157l.011-.022V3.071l.011-.022V3L2.5,2.974V2.8a3.027,3.027,0,0,0-.011-.323c-.011-.118-.161-.334-.086-.43Z" transform="translate(8.908 5.119)" fill="#963"/>
      <path id="Tracciato_5633" data-name="Tracciato 5633" d="M2.313,1.552,2.367,1.5l-.054-.054L2.26,1.5l.054.054M2.281,1.38h.032a.119.119,0,1,1,0,.237L2.238,1.6l-.043-.1a.126.126,0,0,1,.086-.118" transform="translate(9.288 5.411)" fill="#f4e71e"/>
      <path id="Tracciato_5634" data-name="Tracciato 5634" d="M2.255,1.493,2.2,1.439l.054-.054.054.054-.054.054" transform="translate(9.35 5.465)"/>
      <path id="Tracciato_5635" data-name="Tracciato 5635" d="M2.158,1.625a.761.761,0,0,0,.269.022l-.011-.011.011-.011.022.011a.156.156,0,0,0-.032-.129L2.362,1.42l.022-.011.022.022.043.032.075.054V1.474l.022-.043.065-.043.032-.011V1.4a.132.132,0,0,0-.075.118l.043.1L2.6,1.625c.011.118.14.194.129.258,0,0-.248-.194-.334-.108v.011l-.054-.011V1.754l.043-.043.022-.022H2.373l-.14-.022L2.2,1.657H2.169Z" transform="translate(8.927 5.382)"/>
      <path id="Tracciato_5636" data-name="Tracciato 5636" d="M2.182,1.433l-.022-.022.022-.032.032.011.011.022v.032H2.214L2.2,1.433H2.182" transform="translate(8.953 5.402)"/>
      <path id="Tracciato_5637" data-name="Tracciato 5637" d="M2.156,1.435V1.4h.011l.032.011.043.011a.321.321,0,0,0,.14.011h.043L2.4,1.468,2.371,1.5l-.022.032-.011.011-.022.011-.075-.043-.086-.075" transform="translate(8.908 5.636)" fill="#c33"/>
      <path id="Tracciato_5638" data-name="Tracciato 5638" d="M2.181,3.6l.043-.032h.011l.043-.032.011-.011.1.011L2.31,3.516l.011-.011.011-.011.043-.022V3.462l.043-.032L2.45,3.4l.011-.011.032-.032.032-.043h.011l.011-.022.022-.032.022-.032.022-.032.011-.011.011-.032.011-.022L2.665,3.1l.011-.032.011-.022L2.708,3l.011-.043h.011V2.924L2.74,2.9l.011-.022V2.859l.011-.043.011-.032V2.762l.011-.032V2.719l.011-.043V2.6L2.8,2.579v-.3l-.022-.291c-.043-.441-.527-.506-.506-.581.011-.032.14.011.28.043v.022H2.546V1.5l.086.086.065.043.032-.011V1.611h.065c-.075.1.075.312.075.43a2.864,2.864,0,0,1,.022.323V2.4l-.011.032v.14l-.011.022v.065l-.011.032V2.73l-.011.022v.022l-.011.022v.011l-.011.032v.022L2.816,2.9,2.8,2.913v.032l-.011.011-.011.032V3l-.022.054L2.751,3.1l-.011.011-.011.032-.011.022-.011.032L2.7,3.2l-.022.043L2.643,3.3v.011l-.022.032-.011.011-.022.022-.011.032-.032.043A.811.811,0,0,0,3,3.053v-.71h.065v.71l-.022.1-.011.011-.172.4a.762.762,0,0,0,.366-.312v-.9H3.3v.893l.086.172.075-.151V2.343h.065v.893a.8.8,0,0,0,.366.334l-.022.054c-.194-.043-.291-.2-.366-.248-.054-.032-.054.226-.118.226s-.075-.248-.129-.226a.8.8,0,0,1-.538.258.817.817,0,0,0,.151-.258,1.072,1.072,0,0,1-.753.258l.054-.022Z" transform="translate(8.517 5.557)"/>
      <path id="Tracciato_5639" data-name="Tracciato 5639" d="M2.483,1.48,2.5,1.5l.022.011h.022V1.49l-.011-.022-.022-.011-.032.022m-.28,0L2.128,1.5V1.49l.022-.032.086-.065.054-.011.065-.011h.14l.065.011L2.6,1.4l.043.065.011.011.054.086.032.108-.022.011A.51.51,0,0,0,2.4,1.49L2.332,1.48a.519.519,0,0,0-.129,0" transform="translate(8.634 5.333)" fill="#c33"/>
      <path id="Tracciato_5640" data-name="Tracciato 5640" d="M2.2,1.756v.011l.075-.022a.262.262,0,0,1,.129,0l.065.011a.51.51,0,0,1,.323.194l-.022.011c-.377-.355-.646-.086-.646-.086s0-.344.484-.323c.043-.065.054-.226.517-.2.344.032.753.3,1.141.377.054,0-.183.043-.183.1-.011.022.194.129.194.172s-.151.011-.151.054.118.183.075.3l-.129-.1a2.519,2.519,0,0,1,0,.291.981.981,0,0,1-.129.28,1.4,1.4,0,0,0,.5,1.205l-.108.032.129-.011.151.075a1.041,1.041,0,0,1-.743-.248.649.649,0,0,0,.129.258.392.392,0,0,1-.161-.022l.011-.043h.011l-.161-.4-.022-.065L3.66,3.542v-.7h.065v.7a.848.848,0,0,0,.452.409A1.709,1.709,0,0,1,3.854,2.81a.879.879,0,0,0,.129-.269,2.865,2.865,0,0,0-.032-.42l.161.065c.022-.043-.129-.14-.129-.172l.129-.075C4.1,1.9,3.94,1.853,3.94,1.81l.075-.075c-.269-.054-.721-.42-1.152-.312-.1.022-.194.075-.172.118s.161.022.2.032a1.255,1.255,0,0,0,.226.086c.086.011.269-.054.377.011.086.043.323.215.3.248s-.269-.172-.366-.194a.679.679,0,0,0-.291-.011.173.173,0,0,1,.054.118.147.147,0,0,1-.151.151l-.1-.032.011-.011.075.022a.119.119,0,1,0,0-.237H3L2.993,1.7H3L2.96,1.67l-.1-.032c-.043-.011-.151-.011-.129.065l.011.022-.022.022-.011-.022L2.67,1.67l-.043-.022-.065-.011h-.14l-.065.011H2.325l-.108.075L2.2,1.756" transform="translate(8.566 5.068)"/>
      <path id="Tracciato_5641" data-name="Tracciato 5641" d="M4.127,2.05h.312S5.5,4.461,6.226,4.741a6.731,6.731,0,0,0-.883.441,5.692,5.692,0,0,1-.635-.872,3.49,3.49,0,0,0,.474.958,3.879,3.879,0,0,0-1.055.807,3.7,3.7,0,0,0-1.055-.807,3.49,3.49,0,0,0,.474-.958,5.691,5.691,0,0,1-.635.872,7.286,7.286,0,0,0-.872-.441c.883-.527,1.8-2.691,1.8-2.691Z" transform="translate(7.765 11.952)"/>
      <path id="Tracciato_5642" data-name="Tracciato 5642" d="M4.192,2.09A7.323,7.323,0,0,0,5.559,4.361a1.551,1.551,0,0,0-.506.172,4.825,4.825,0,0,1-.99-1.808,3.394,3.394,0,0,0,.5,2.034,2.843,2.843,0,0,0-.743.5,2.782,2.782,0,0,0-.753-.5,3.394,3.394,0,0,0,.5-2.034,4.825,4.825,0,0,1-.99,1.808,1.4,1.4,0,0,0-.5-.172A7.437,7.437,0,0,0,3.428,2.09Z" transform="translate(8.088 12.342)" fill="#963"/>
      <path id="Tracciato_5643" data-name="Tracciato 5643" d="M2.67,1.945l.215-.172v.28s-.161.011-.215-.108" transform="translate(13.926 9.248)" fill="#f4e71e"/>
      <path id="Tracciato_5644" data-name="Tracciato 5644" d="M2.884,2.083a.246.246,0,0,1-.215-.118l.237-.194v.312H2.884Zm-.194-.118a.225.225,0,0,0,.194.1V1.814Z" transform="translate(13.916 9.228)"/>
      <path id="Tracciato_5645" data-name="Tracciato 5645" d="M3.31,2.071,3.3,2.125c-.1.054-.377.237-.344.42.011.086-.4-.118-.323-.161.183-.108.14-.42.118-.538l.032-.032a1.029,1.029,0,0,1,.323.032c.065.022.161.161.2.226" transform="translate(13.468 9.638)" fill="#f4e71e"/>
      <path id="Tracciato_5646" data-name="Tracciato 5646" d="M2.945,2.586a.576.576,0,0,1-.323-.161L2.633,2.4c.129-.075.172-.269.118-.538l.011-.032.022-.022h.032a1.391,1.391,0,0,1,.312.032,1.158,1.158,0,0,1,.2.237l.011.022-.022.032c-.248.161-.366.3-.344.42l-.011.022Zm-.129-.753H2.794l-.011.011-.011.011c.054.291.011.484-.129.549v.011a.579.579,0,0,0,.3.161l.011-.011c-.022-.14.108-.28.355-.43l.011-.011-.011-.032a.979.979,0,0,0-.194-.226.876.876,0,0,0-.3-.032" transform="translate(13.457 9.619)"/>
      <path id="Tracciato_5647" data-name="Tracciato 5647" d="M2.977,1.817l-.14.043L2.805,1.9a.982.982,0,0,1-.172.506l.118.065a1.1,1.1,0,0,1,.3-.441l.011-.054-.032-.14-.054-.022" transform="translate(13.564 9.677)" fill="#f4e71e"/>
      <path id="Tracciato_5648" data-name="Tracciato 5648" d="M2.75,2.5h0L2.632,2.45V2.418A.951.951,0,0,0,2.8,1.912l.043-.054.14-.043.054.032.043.14-.011.075a.9.9,0,0,0-.3.43L2.75,2.5M3,1.837H2.987l-.129.043-.043.043a.962.962,0,0,1-.161.506v.011l.1.043a1.1,1.1,0,0,1,.3-.441l.022-.032L3.03,1.858Z" transform="translate(13.555 9.658)"/>
      <path id="Tracciato_5649" data-name="Tracciato 5649" d="M3.183,2.012l-.011.011-.022.043-.022.043-.1.172L2.9,2.55l-.086.161a.686.686,0,0,1-.086.151c-.032.054-.108.075-.151.118a.319.319,0,0,0-.075.161.169.169,0,0,0,.075.2l.065.022a.28.28,0,0,0,.161-.043.361.361,0,0,0,.065-.258.807.807,0,0,1,0-.161l.086-.151.129-.248.14-.28.043-.075L3.28,2.12,3.3,2.066l-.032-.043-.086-.011" transform="translate(12.239 11.581)" fill="#f4e71e"/>
      <path id="Tracciato_5650" data-name="Tracciato 5650" d="M2.692,3.389H2.649l-.065-.022a.19.19,0,0,1-.086-.2.373.373,0,0,1,.086-.172l.075-.054.075-.054L2.8,2.776l.022-.054.334-.646.011-.011.011-.032.011-.011c.022-.022.054-.011.1.011l.032.054-.011.054-.011.011-.323.624-.032.054-.043.1-.011.108.011.054a.368.368,0,0,1-.075.258l-.129.043m.527-1.356H3.208L3.2,2.044l-.022.022v.022l-.344.646-.022.054-.054.108-.086.065L2.595,3a.444.444,0,0,0-.075.161.174.174,0,0,0,.075.194l.065.011.022.011h.011l.118-.043a.39.39,0,0,0,.065-.248V3.056a.3.3,0,0,1,0-.14l.054-.086.032-.065.312-.613.011-.022.011-.043-.011-.022-.065-.032" transform="translate(12.225 11.57)"/>
      <path id="Tracciato_5651" data-name="Tracciato 5651" d="M3.2,1.943l-.1-.065a.125.125,0,0,0-.108.043c-.032.043,0,.086-.011.129L2.951,2.1l-.022.065L2.854,2.3l-.118.226-.129.258-.022.065.043.054.086-.022.075-.14.129-.248.161-.312.065-.086.065-.065L3.2,1.943" transform="translate(13.096 10.251)" fill="#f4e71e"/>
      <path id="Tracciato_5652" data-name="Tracciato 5652" d="M2.67,2.93h0l-.022-.011-.065-.065.022-.043V2.79l.323-.635.022-.032L2.961,2.1l.011-.022L2.982,2l.011-.075.118-.054a.119.119,0,0,1,.1.075l.022.086L3.176,2.1H3.154L3.1,2.187V2.2l-.118.2-.054.1L2.8,2.747l-.022.043-.043.1L2.67,2.93M3.1,1.9,3,1.94,2.993,2v.065L2.982,2.1l-.011.022-.022.032L2.616,2.8v.011l-.011.043.032.043.032.011.043-.022.054-.108.022-.043.129-.248.054-.1.1-.2h.011l.065-.1.011-.011.054-.043L3.2,1.95,3.1,1.9Z" transform="translate(13.086 10.243)"/>
      <path id="Tracciato_5653" data-name="Tracciato 5653" d="M2.821,2.135c-.022.043-.1.054-.161.011-.075-.022-.108-.086-.086-.129s.086-.043.151-.011.108.086.1.129" transform="translate(12.924 11.296)" fill="#f4e71e"/>
      <path id="Tracciato_5654" data-name="Tracciato 5654" d="M2.749,2.2l-.086-.022-.086-.065-.011-.086.086-.043L2.738,2l.086.065.011.086L2.749,2.2M2.652,2l-.065.032L2.6,2.09l.075.065.075.022.075-.032L2.8,2.09l-.075-.065L2.652,2" transform="translate(12.91 11.288)"/>
      <path id="Tracciato_5655" data-name="Tracciato 5655" d="M2.788,2.1a.1.1,0,0,1-.14.022.093.093,0,0,1-.065-.118.109.109,0,0,1,.14-.022.093.093,0,0,1,.065.118" transform="translate(13.012 11.166)" fill="#f4e71e"/>
      <path id="Tracciato_5656" data-name="Tracciato 5656" d="M2.726,2.162l-.065-.011L2.6,2.1l-.022-.054a.1.1,0,0,1,.1-.075l.065.011.065.065v.075l-.075.043M2.672,1.99l-.065.032L2.6,2.065l.065.065.043.022a.084.084,0,0,0,.086-.043V2.054L2.726,2,2.672,1.99" transform="translate(12.998 11.151)"/>
      <path id="Tracciato_5657" data-name="Tracciato 5657" d="M2.773,2.134a.111.111,0,0,1-.14.032c-.054-.032-.086-.086-.065-.129a.1.1,0,0,1,.14-.022.093.093,0,0,1,.065.118" transform="translate(12.865 11.437)" fill="#f4e71e"/>
      <path id="Tracciato_5658" data-name="Tracciato 5658" d="M2.7,2.191,2.636,2.18,2.572,2.1l-.011-.054C2.572,2.008,2.6,2,2.647,2l.065.011.065.065v.075L2.7,2.191m-.054-.183-.065.043V2.1l.054.054.043.011.086-.032-.011-.054L2.7,2.029l-.054-.022" transform="translate(12.861 11.434)"/>
      <path id="Tracciato_5659" data-name="Tracciato 5659" d="M2.9,1.913A.118.118,0,1,1,2.78,1.8a.119.119,0,0,1,.118.118" transform="translate(13.847 9.462)" fill="#f4e71e"/>
      <path id="Tracciato_5660" data-name="Tracciato 5660" d="M2.8,2.052a.134.134,0,0,1-.14-.129.127.127,0,0,1,.14-.129.129.129,0,0,1,.118.129.138.138,0,0,1-.118.129m0-.237a.111.111,0,0,0-.118.108.118.118,0,0,0,.118.108.125.125,0,0,0,.108-.108A.115.115,0,0,0,2.8,1.816" transform="translate(13.838 9.453)"/>
      <path id="Tracciato_5661" data-name="Tracciato 5661" d="M2.747,2.33a.138.138,0,0,1-.183.054A.13.13,0,0,1,2.5,2.212a.137.137,0,1,1,.248.118" transform="translate(12.137 12.78)" fill="#f4e71e"/>
      <path id="Tracciato_5662" data-name="Tracciato 5662" d="M2.627,2.425l-.043-.011A.149.149,0,0,1,2.5,2.22a.152.152,0,0,1,.129-.086l.065.022a.134.134,0,0,1,.065.194.149.149,0,0,1-.129.075m0-.269a.143.143,0,0,0-.108.065.125.125,0,0,0,.054.172l.032.011c.075,0,.118-.022.14-.065a.13.13,0,0,0-.065-.172l-.054-.011" transform="translate(12.128 12.772)"/>
      <path id="Tracciato_5663" data-name="Tracciato 5663" d="M2.628,2.359a.083.083,0,0,1-.118,0c-.054-.022-.075-.075-.054-.108a.084.084,0,0,1,.118,0c.054.022.075.075.054.108" transform="translate(11.751 13.677)" fill="#f4e71e"/>
      <path id="Tracciato_5664" data-name="Tracciato 5664" d="M2.577,2.409,2.5,2.387c-.043-.032-.075-.1-.043-.129l.054-.032.075.022.054.065v.065l-.065.032m-.065-.161-.043.022c-.022.022,0,.075.043.1l.065.022.043-.022V2.323l-.043-.054-.065-.022" transform="translate(11.737 13.67)"/>
      <path id="Tracciato_5665" data-name="Tracciato 5665" d="M2.436,2.614V2.238a.382.382,0,0,1,.312.151Z" transform="translate(11.641 13.766)" fill="#f4e71e"/>
      <path id="Tracciato_5666" data-name="Tracciato 5666" d="M2.446,2.644V2.622c-.022-.377-.011-.377,0-.387h.043a.408.408,0,0,1,.28.151v.022Zm.011-.387V2.6l.291-.2a.376.376,0,0,0-.258-.14Z" transform="translate(11.62 13.758)"/>
      <path id="Tracciato_5667" data-name="Tracciato 5667" d="M2.054,2.22a.687.687,0,0,1-.043.474l.409.226.1-.43a1.274,1.274,0,0,1-.4-.28l-.065.011" transform="translate(7.492 13.504)"/>
      <path id="Tracciato_5668" data-name="Tracciato 5668" d="M2.075,2.226l-.054.258.237.151.054-.28Z" transform="translate(7.588 13.672)" fill="#f4e71e"/>
      <path id="Tracciato_5669" data-name="Tracciato 5669" d="M1.9,2.086a.852.852,0,0,1,.85.4.884.884,0,0,1-.85-.4" transform="translate(6.399 12.282)"/>
      <path id="Tracciato_5670" data-name="Tracciato 5670" d="M1.906,2.087a.709.709,0,0,1,.689.334.723.723,0,0,1-.689-.334" transform="translate(6.467 12.313)" fill="#063"/>
      <path id="Tracciato_5671" data-name="Tracciato 5671" d="M2.2,2.035a.849.849,0,0,0-.161.926A.9.9,0,0,0,2.2,2.035" transform="translate(7.126 11.805)"/>
      <path id="Tracciato_5672" data-name="Tracciato 5672" d="M2.163,2.044a.671.671,0,0,0-.129.743.708.708,0,0,0,.129-.743" transform="translate(7.157 11.893)" fill="#063"/>
      <path id="Tracciato_5673" data-name="Tracciato 5673" d="M1.9,2.151a.749.749,0,0,1,.807.183A.764.764,0,0,1,1.9,2.151" transform="translate(6.438 12.561)"/>
      <path id="Tracciato_5674" data-name="Tracciato 5674" d="M1.911,2.144a.587.587,0,0,1,.635.151.6.6,0,0,1-.635-.151" transform="translate(6.516 12.579)" fill="#063"/>
      <path id="Tracciato_5675" data-name="Tracciato 5675" d="M2.087,2.246l-.14.054c-.075.075-.022.237.1.215.075-.011.1-.065.1-.129l.032-.118A.212.212,0,0,1,2.324,2.2l.1.043c.14.065.215-.129.086-.2a.16.16,0,0,0-.14,0l-.118.065L2.174,2.1l-.022.075-.065.075" transform="translate(6.533 11.713)"/>
      <path id="Tracciato_5676" data-name="Tracciato 5676" d="M2.136,2.3c-.043.022-.1.011-.14.043a.111.111,0,0,0,.086.194.125.125,0,0,0,.108-.108l.032-.108a.169.169,0,0,1,.14-.043l.1.043a.1.1,0,1,0,.1-.172.132.132,0,0,0-.14-.011L2.3,2.185l-.075-.011L2.2,2.249,2.136,2.3" transform="translate(6.98 12.7)"/>
      <rect id="Rettangolo_432" data-name="Rettangolo 432" width="0.07" height="3.882" transform="translate(7.699 11.841) rotate(-26.565)" fill="#f4e71e"/>
      <path id="Tracciato_5677" data-name="Tracciato 5677" d="M3.461,5.437,1.847,1.885l.1-.043v.011L3.558,5.4ZM1.879,1.9,3.472,5.415l.054-.022L1.933,1.874Z" transform="translate(5.891 9.921)"/>
      <path id="Tracciato_5678" data-name="Tracciato 5678" d="M1.932,2l.011.032L1.9,2.04l-.032-.011-.022.011-.032.032c.011.075.1.1.129.151l.032.054L2,2.3l.075.032.032.1-.075.022c-.118.011-.14.14-.054.215h.108c.054-.043.022-.151.086-.183.032-.011.086.032.108.075,0-.065.011-.054.065-.043-.032-.054-.043-.108-.011-.118l.075.054h.108c.086-.054.022-.2-.065-.226a.194.194,0,0,0-.129.032L2.3,2.266l-.022-.043V2.136l.011-.1-.022-.075L2.234,1.91l-.065-.075-.032-.011L2.126,1.8,2.1,1.792H2.094V1.8l-.032.022L2.051,1.8H1.975l-.043.043v.1l-.011.043Z" transform="translate(5.569 9.433)"/>
      <path id="Tracciato_5679" data-name="Tracciato 5679" d="M1.971,2.093h0c-.011.043-.118,0-.108.075l.065.086.043.043.011.022h.043l.065.032.043.054.022.065-.011.043-.075.022a.116.116,0,0,0-.043.215h.108c.054-.032.011-.151.075-.172.043-.022.065.086.065.086V2.621h.054L2.3,2.535l.1-.043.043.043a.1.1,0,0,0,.108,0c.054-.022.054-.075.032-.129A.1.1,0,0,0,2.5,2.33c-.075-.011-.14.1-.2.054C2.24,2.363,2.24,2.3,2.24,2.255V2.2l.043-.075.032-.054-.032-.065-.075-.086-.032-.011-.011-.022L2.122,1.9,2.1,1.889H2.036L2.025,1.9l.011.075c0,.043,0,.065-.054.065H1.971v.054" transform="translate(6.047 10.38)"/>
      <path id="Tracciato_5680" data-name="Tracciato 5680" d="M2.016,2.2h0c-.011.043-.118,0-.108.075l.065.086.043.043.032.022.032.011.054-.011.022.011.022.011L2.2,2.439l.032-.011.011-.011.043-.065.032-.011L2.328,2.3l.011-.043.022-.075-.032-.065L2.253,2.03l-.022-.011L2.2,1.987l-.011.022H2.145L2.135,2l-.022.043L2.1,2.084l-.011-.022-.011-.011v.032c0,.032,0,.065-.054.065H2.016V2.2" transform="translate(6.486 11.337)"/>
      <path id="Tracciato_5681" data-name="Tracciato 5681" d="M2.318,2.057a.754.754,0,0,0-.312.775.791.791,0,0,0,.312-.775" transform="translate(7.271 12.02)"/>
      <path id="Tracciato_5682" data-name="Tracciato 5682" d="M2.254,2.064a.6.6,0,0,0-.248.624.63.63,0,0,0,.248-.624" transform="translate(7.303 12.088)" fill="#063"/>
      <path id="Tracciato_5683" data-name="Tracciato 5683" d="M1.861,1.986A.728.728,0,0,1,2.6,2.33a.778.778,0,0,1-.743-.344" transform="translate(6.028 11.306)"/>
      <path id="Tracciato_5684" data-name="Tracciato 5684" d="M1.867,1.988a.625.625,0,0,1,.613.28.642.642,0,0,1-.613-.28" transform="translate(6.086 11.336)" fill="#063"/>
      <path id="Tracciato_5685" data-name="Tracciato 5685" d="M1.864,2.042a.665.665,0,0,1,.71.161.672.672,0,0,1-.71-.161" transform="translate(6.057 11.551)"/>
      <path id="Tracciato_5686" data-name="Tracciato 5686" d="M1.871,2.038a.528.528,0,0,1,.57.129.541.541,0,0,1-.57-.129" transform="translate(6.125 11.565)" fill="#063"/>
      <path id="Tracciato_5687" data-name="Tracciato 5687" d="M2.132,1.941a.739.739,0,0,0-.14.818.783.783,0,0,0,.14-.818" transform="translate(6.672 10.888)"/>
      <path id="Tracciato_5688" data-name="Tracciato 5688" d="M2.093,1.948a.614.614,0,0,0-.118.657.62.62,0,0,0,.118-.657" transform="translate(6.689 10.956)" fill="#063"/>
      <path id="Tracciato_5689" data-name="Tracciato 5689" d="M2.226,1.96a.65.65,0,0,0-.269.678.68.68,0,0,0,.269-.678" transform="translate(6.793 11.073)"/>
      <path id="Tracciato_5690" data-name="Tracciato 5690" d="M2.172,1.966a.524.524,0,0,0-.215.549.549.549,0,0,0,.215-.549" transform="translate(6.825 11.132)" fill="#063"/>
      <path id="Tracciato_5691" data-name="Tracciato 5691" d="M1.813,1.9a.741.741,0,0,1,.764.3.755.755,0,0,1-.764-.3" transform="translate(5.559 10.351)"/>
      <path id="Tracciato_5692" data-name="Tracciato 5692" d="M1.82,1.9a.6.6,0,0,1,.613.248A.6.6,0,0,1,1.82,1.9" transform="translate(5.628 10.384)" fill="#063"/>
      <path id="Tracciato_5693" data-name="Tracciato 5693" d="M1.819,1.965a.63.63,0,0,1,.71.118.644.644,0,0,1-.71-.118" transform="translate(5.618 10.594)"/>
      <path id="Tracciato_5694" data-name="Tracciato 5694" d="M1.825,1.958a.5.5,0,0,1,.57.086.513.513,0,0,1-.57-.086" transform="translate(5.676 10.612)" fill="#063"/>
      <path id="Tracciato_5695" data-name="Tracciato 5695" d="M2.031,1.835a.821.821,0,0,0-.065.861.851.851,0,0,0,.065-.861" transform="translate(6.192 9.853)"/>
      <path id="Tracciato_5696" data-name="Tracciato 5696" d="M2,1.843a.675.675,0,0,0-.054.689A.684.684,0,0,0,2,1.843" transform="translate(6.211 9.931)" fill="#063"/>
      <path id="Tracciato_5697" data-name="Tracciato 5697" d="M1.907,1.763a.717.717,0,0,0,.065.743.735.735,0,0,0-.065-.743" transform="translate(5.82 9.15)"/>
      <path id="Tracciato_5698" data-name="Tracciato 5698" d="M1.893,1.769a.585.585,0,0,0,.054.592.586.586,0,0,0-.054-.592" transform="translate(5.845 9.209)" fill="#063"/>
      <path id="Tracciato_5699" data-name="Tracciato 5699" d="M1.805,1.763a.714.714,0,0,0,.409.646.693.693,0,0,0-.409-.646" transform="translate(5.481 9.15)"/>
      <path id="Tracciato_5700" data-name="Tracciato 5700" d="M1.808,1.769a.575.575,0,0,0,.334.517.548.548,0,0,0-.334-.517" transform="translate(5.51 9.209)" fill="#063"/>
      <path id="Tracciato_5701" data-name="Tracciato 5701" d="M1.789,1.812a.7.7,0,0,0,.657.344.742.742,0,0,0-.657-.344" transform="translate(5.325 9.596)"/>
      <path id="Tracciato_5702" data-name="Tracciato 5702" d="M1.8,1.814a.562.562,0,0,0,.527.28.607.607,0,0,0-.527-.28" transform="translate(5.383 9.626)" fill="#063"/>
      <path id="Tracciato_5703" data-name="Tracciato 5703" d="M2.125,1.853a.729.729,0,0,0-.2.732.735.735,0,0,0,.2-.732" transform="translate(6.334 10.029)"/>
      <path id="Tracciato_5704" data-name="Tracciato 5704" d="M2.087,1.86a.6.6,0,0,0-.172.592.586.586,0,0,0,.172-.592" transform="translate(6.351 10.097)" fill="#063"/>
      <path id="Tracciato_5705" data-name="Tracciato 5705" d="M1.956,1.912l-.065.075c-.043,0-.065-.032-.065-.075a.061.061,0,0,1,.065-.054l.065.054" transform="translate(5.696 10.077)" fill="#f4e71e"/>
      <path id="Tracciato_5706" data-name="Tracciato 5706" d="M2.005,2.02l-.065.065a.065.065,0,0,1,0-.129l.065.065" transform="translate(6.174 11.024)" fill="#f4e71e"/>
      <path id="Tracciato_5707" data-name="Tracciato 5707" d="M2.046,2.12a.065.065,0,0,1-.129,0l.065-.065.065.065" transform="translate(6.574 12.001)" fill="#f4e71e"/>
      <path id="Tracciato_5708" data-name="Tracciato 5708" d="M2.092,2.214l-.065.065a.062.062,0,0,1-.065-.065.057.057,0,0,1,.065-.065.062.062,0,0,1,.065.065" transform="translate(7.024 12.918)" fill="#f4e71e"/>
      <path id="Tracciato_5709" data-name="Tracciato 5709" d="M2.132,2.2A.065.065,0,0,1,2,2.2l.065-.065.065.065" transform="translate(7.414 12.743)" fill="#f4e71e"/>
      <path id="Tracciato_5710" data-name="Tracciato 5710" d="M2.086,2.1l-.065.065A.062.062,0,0,1,1.957,2.1a.057.057,0,0,1,.065-.065.062.062,0,0,1,.065.065" transform="translate(6.965 11.766)" fill="#f4e71e"/>
      <path id="Tracciato_5711" data-name="Tracciato 5711" d="M2.044,2l-.065.065A.062.062,0,0,1,1.915,2a.057.057,0,0,1,.065-.065A.062.062,0,0,1,2.044,2" transform="translate(6.555 10.829)" fill="#f4e71e"/>
      <path id="Tracciato_5712" data-name="Tracciato 5712" d="M2,1.9a.062.062,0,0,1-.065.065L1.868,1.9l.065-.065A.062.062,0,0,1,2,1.9" transform="translate(6.096 9.882)" fill="#f4e71e"/>
      <path id="Tracciato_5713" data-name="Tracciato 5713" d="M1.986,2.178H2l.011.011.032-.011.011-.022V2.146l.011.022.022.043.032.086-.054.011H2.051l-.022-.022-.011-.022L2,2.232,1.986,2.2V2.178" transform="translate(7.252 12.887)"/>
      <path id="Tracciato_5714" data-name="Tracciato 5714" d="M2.922,2.544l-.011.022a2.023,2.023,0,0,1-.258.387c-.086.086-.237.065-.344.086a.422.422,0,0,0-.355.355l.011.183.054.065.065-.032.043.065c.043.108.151.248.28.237.075-.011.129-.086.194-.118a.434.434,0,0,0,.14-.14l.1-.215c.032-.075.506-.678.657-.893.054-.1.161-.269.1-.4-.043-.1-.3-.1-.377-.043a.367.367,0,0,0-.118.194c-.043.086-.118.161-.172.248" transform="translate(6.926 12.114)"/>
      <path id="Tracciato_5715" data-name="Tracciato 5715" d="M2.205,2.273,2.055,2.4H1.969l.011-.075.161-.14h.075l-.011.086" transform="translate(7.078 13.291)" fill="#d32620"/>
      <path id="Tracciato_5716" data-name="Tracciato 5716" d="M2.059,2.213l-.065.054H1.973V2.235l.065-.043.022-.011v.032" transform="translate(7.12 13.233)" fill="#d32620"/>
      <path id="Tracciato_5717" data-name="Tracciato 5717" d="M2.215,2.274,2.064,2.4H1.978l.011-.075L2.15,2.2h.075l-.011.075" transform="translate(7.169 13.402)" fill="#d32620"/>
      <path id="Tracciato_5718" data-name="Tracciato 5718" d="M2.224,2.284l-.151.129H1.987L2,2.338l.161-.129h.075l-.011.075" transform="translate(7.262 13.503)" fill="#d32620"/>
      <path id="Tracciato_5719" data-name="Tracciato 5719" d="M2.493,3.083a.193.193,0,0,1-.151.043l-.172.032-.118.065-.065.011-.022-.065c.032-.1.172-.151.258-.161a.306.306,0,0,1,.14,0l.14-.022a.305.305,0,0,0,.1-.108l.2-.312c.086-.129.172-.269.269-.4.043-.054.129-.118.2-.086l.075.065c.022.022.065.054.054.1l-.054.075-.065.1-.065.1-.075.1-.075.1-.118.161L2.9,2.932l-.043.054-.043.054-.075.1-.1.14-.032.086L2.6,3.449l-.032.032-.032-.032-.022-.14c-.011-.054-.108.065-.118,0l.054-.1c.011-.011.108-.108.065-.129Z" transform="translate(7.053 12.178)" fill="#d32620"/>
      <path id="Tracciato_5720" data-name="Tracciato 5720" d="M3.048,2.537l.022.043a2.065,2.065,0,0,0,.248.377.662.662,0,0,0,.355.075.434.434,0,0,1,.344.366l-.011.172-.054.065-.065-.022-.043.065c-.043.108-.151.248-.28.237-.075-.011-.129-.086-.194-.129a.527.527,0,0,1-.14-.129l-.1-.226c-.032-.065-.506-.667-.657-.893-.054-.086-.161-.258-.1-.4.043-.086.312-.1.377-.032s.086.118.129.194a1.152,1.152,0,0,0,.161.237" transform="translate(10.91 12.1)"/>
      <path id="Tracciato_5721" data-name="Tracciato 5721" d="M2.487,2.262l.161.129h.075l-.011-.075-.161-.129H2.476l.011.075" transform="translate(12.035 13.284)" fill="#d32620"/>
      <path id="Tracciato_5722" data-name="Tracciato 5722" d="M2.487,2.212l.065.054h.022V2.233L2.509,2.18H2.487v.032" transform="translate(12.139 13.217)" fill="#d32620"/>
      <path id="Tracciato_5723" data-name="Tracciato 5723" d="M2.478,2.282l.161.129h.075L2.7,2.336,2.542,2.2H2.467l.011.086" transform="translate(11.944 13.376)" fill="#d32620"/>
      <path id="Tracciato_5724" data-name="Tracciato 5724" d="M2.468,2.283l.151.129H2.7l-.011-.075-.161-.129H2.457l.011.075" transform="translate(11.85 13.486)" fill="#d32620"/>
      <path id="Tracciato_5725" data-name="Tracciato 5725" d="M3.284,3.081a.193.193,0,0,0,.151.043l.172.032.118.065.075.011.011-.065c-.032-.1-.172-.151-.258-.172h-.14a.21.21,0,0,1-.14-.011c-.043-.022-.065-.075-.1-.118-.065-.1-.14-.194-.2-.3a3.675,3.675,0,0,0-.269-.4c-.043-.054-.129-.118-.2-.086l-.075.065c-.022.022-.065.054-.054.1l.054.075.065.086.065.108.075.1.075.1.118.151.054.065.043.065.032.032.086.118.1.14.032.075.011.086.032.043.032-.043.022-.14c.011-.043.118.075.129.011l-.065-.1c-.011-.022-.108-.118-.065-.129Z" transform="translate(10.976 12.159)" fill="#d32620"/>
      <path id="Tracciato_5726" data-name="Tracciato 5726" d="M2.342,2.038a4.7,4.7,0,0,1-.291.517c-.043.032.215-.022.248-.022.043.022-.011.183.011.2s.14-.129.194-.108c.075.032,0,.387.054.323.118-.14.57-.581.57-.581Z" transform="translate(7.839 11.835)"/>
      <path id="Tracciato_5727" data-name="Tracciato 5727" d="M2.256,2.046a1.965,1.965,0,0,1-.194.334l.161-.032.032.151c.022.011.118-.075.161-.065s0,.248.032.2c.1-.086.377-.366.377-.366Z" transform="translate(7.99 11.913)" fill="#963"/>
      <path id="Tracciato_5728" data-name="Tracciato 5728" d="M3.107,2.038a4.7,4.7,0,0,0,.291.517c.043.032-.215-.022-.248-.022-.043.022.011.183-.022.2S3,2.608,2.945,2.63c-.075.032,0,.387-.054.323-.118-.14-.57-.581-.57-.581Z" transform="translate(10.518 11.835)"/>
      <path id="Tracciato_5729" data-name="Tracciato 5729" d="M2.9,2.046A1.965,1.965,0,0,0,3.1,2.38l-.161-.032L2.915,2.5c-.032.011-.129-.075-.172-.065s0,.248-.032.2l-.377-.366Z" transform="translate(10.645 11.913)" fill="#963"/>
      <path id="Tracciato_5730" data-name="Tracciato 5730" d="M2,1.607h5.08a.587.587,0,0,0-.194.355V5.7c.1.721-2,1.044-2.346,1.6-.323-.56-2.357-.9-2.346-1.571V1.962A.587.587,0,0,0,2,1.607" transform="translate(7.355 7.627)" fill="#f4e71e"/>
      <path id="Tracciato_5731" data-name="Tracciato 5731" d="M2.021,1.619H6.606c-.054.054-.054.14-.054.323V5.515c.1.7-1.9,1.012-2.239,1.55C4,6.527,2.053,6.2,2.064,5.558l.011-1.593V1.953c0-.172.011-.237-.054-.334" transform="translate(7.59 7.744)" fill="#069"/>
      <path id="Tracciato_5732" data-name="Tracciato 5732" d="M2.021,1.619H6.606c-.054.054-.054.14-.054.323V3.965H2.075V1.953c0-.172.011-.237-.054-.334" transform="translate(7.59 7.744)" fill="#d32620"/>
      <path id="Tracciato_5733" data-name="Tracciato 5733" d="M4.089,4.618a2.5,2.5,0,0,0-.054.786.719.719,0,0,0,.108.355c.054.075.161.1.226.161a.227.227,0,0,1,.054.14c.011.1-.075.14-.151.183l-.161.1-.161.14a.666.666,0,0,1-.2.075.382.382,0,0,1-.334-.086A.438.438,0,0,0,3.26,6.34a.744.744,0,0,1-.2-.108.217.217,0,0,1,.011-.344.755.755,0,0,0,.226-.258.948.948,0,0,0,.054-.312c0-.291.054-.667-.172-.893a.673.673,0,0,0-.506-.194l.215-.409C1.42,3.09,2.3,1.992,2.895,1.658c0,.226-.2.506-.237.775a1.1,1.1,0,0,0,0,.42.539.539,0,0,0,.215.377.461.461,0,0,0,.172.054l.1.022c.032.032.1.075.151.054s.075-.086.14-.1.086.022.129.075c.065.075.172.022.248-.022s.129-.1.2-.032c.054.054.108.129.194.065.043-.043.1-.043.161-.065.226-.054.3-.258.344-.474a1.2,1.2,0,0,0-.108-.667,1.478,1.478,0,0,1-.14-.517c.1.086,1.743,1.259.054,2.2l.2.409c-.409.011-.581.194-.635.387" transform="translate(8.212 7.813)"/>
      <path id="Tracciato_5734" data-name="Tracciato 5734" d="M4.525,1.649l.086.237a1.251,1.251,0,0,1,.108.721A.732.732,0,0,1,4.6,2.94a.454.454,0,0,1-.3.215L4.18,3.2l-.108.043L3.965,3.22l-.1-.086-.011-.011-.086.054a.489.489,0,0,1-.151.065.238.238,0,0,1-.215-.065l-.032-.032-.011-.011-.022.022-.108.075a.346.346,0,0,1-.151-.011L3,3.156H2.953a.509.509,0,0,1-.2-.065A.591.591,0,0,1,2.48,2.65a1.275,1.275,0,0,1,0-.452,1.684,1.684,0,0,1,.14-.43l.043-.108a1.52,1.52,0,0,0-.538.732.689.689,0,0,0,.065.56,1.493,1.493,0,0,0,.646.56.1.1,0,0,1,.054.129H2.878l-.14.28.129.032a.867.867,0,0,1,.291.172.808.808,0,0,1,.2.5c.011.172,0,.344,0,.484a1.107,1.107,0,0,1-.075.355.788.788,0,0,1-.248.28l-.054.1.043.1a.8.8,0,0,0,.194.1.653.653,0,0,1,.183.151c.043.065.14.075.248.054A.314.314,0,0,0,3.8,6.18a.936.936,0,0,0,.161-.14l.183-.108.086-.054.011-.043-.032-.065-.086-.065a.456.456,0,0,1-.14-.118.727.727,0,0,1-.129-.4,2.706,2.706,0,0,1,.054-.818.651.651,0,0,1,.57-.452l-.14-.28a.1.1,0,0,1,.043-.129,1.323,1.323,0,0,0,.678-.667A.764.764,0,0,0,5,2.23a1.885,1.885,0,0,0-.4-.506l-.075-.075" transform="translate(8.293 8.037)" fill="#f4e71e"/>
      <path id="Tracciato_5735" data-name="Tracciato 5735" d="M2.484,2.151,2.5,2.119c.022-.1-.1-.1-.161-.075l-.1.022L2.183,2.1l.075.065.1.022a.118.118,0,0,0,.129-.032" transform="translate(9.171 11.775)"/>
      <path id="Tracciato_5736" data-name="Tracciato 5736" d="M2.269,2.151l-.011-.032c-.022-.1.1-.1.161-.075l.1.022L2.57,2.1l-.086.065L2.4,2.183a.118.118,0,0,1-.129-.032" transform="translate(9.882 11.775)"/>
      <path id="Tracciato_5737" data-name="Tracciato 5737" d="M2.748,2.006l.14-.377.14.377L3.4,1.844l-.161.366.366.151-.377.14.172.366-.377-.161L2.9,3.082l-.151-.366-.355.161L2.543,2.5l-.377-.14.377-.14-.172-.377Z" transform="translate(9.011 7.842)"/>
      <path id="Tracciato_5738" data-name="Tracciato 5738" d="M2.548,1.882l.086-.226.086.226.226-.108-.086.237.215.1-.226.075.1.226-.226-.1-.086.237-.086-.237-.215.108.086-.226-.226-.1.237-.086-.108-.237Z" transform="translate(9.264 8.102)" fill="#f4e71e"/>
      <path id="Tracciato_5739" data-name="Tracciato 5739" d="M2.028,2.188A1.9,1.9,0,0,0,2.717,1.8a1.551,1.551,0,0,0,.657.377,2.156,2.156,0,0,0-.657.42,2.537,2.537,0,0,0-.689-.409" transform="translate(7.658 9.521)"/>
      <path id="Tracciato_5740" data-name="Tracciato 5740" d="M2.047,2.081a1.119,1.119,0,0,0,.474-.269,1.143,1.143,0,0,0,.474.269,1.25,1.25,0,0,0-.463.312,2.2,2.2,0,0,0-.484-.312" transform="translate(7.844 9.628)" fill="#f4e71e"/>
      <path id="Tracciato_5741" data-name="Tracciato 5741" d="M2.314,2.178A1.751,1.751,0,0,0,2.992,1.8a1.678,1.678,0,0,0,.667.387A2.142,2.142,0,0,0,3,2.6a2.56,2.56,0,0,0-.689-.42" transform="translate(10.45 9.521)"/>
      <path id="Tracciato_5742" data-name="Tracciato 5742" d="M2.333,2.081a1.215,1.215,0,0,0,.484-.269.946.946,0,0,0,.463.28,1.5,1.5,0,0,0-.463.3,1.87,1.87,0,0,0-.484-.312" transform="translate(10.636 9.628)" fill="#f4e71e"/>
      <rect id="Rettangolo_433" data-name="Rettangolo 433" width="0.274" height="0.274" transform="matrix(0.707, -0.707, 0.707, 0.707, 11.062, 12.398)"/>
      <rect id="Rettangolo_434" data-name="Rettangolo 434" width="0.148" height="0.148" transform="matrix(0.707, -0.707, 0.707, 0.707, 11.15, 12.396)" fill="#f4e71e"/>
      <rect id="Rettangolo_435" data-name="Rettangolo 435" width="0.274" height="0.274" transform="matrix(0.707, -0.707, 0.707, 0.707, 12.356, 12.398)"/>
      <rect id="Rettangolo_436" data-name="Rettangolo 436" width="0.152" height="0.152" transform="matrix(0.707, -0.707, 0.707, 0.707, 12.441, 12.396)" fill="#f4e71e"/>
      <path id="Tracciato_5743" data-name="Tracciato 5743" d="M2.576,2.054a.507.507,0,0,1,.043.172V2.42a.6.6,0,0,1-.269.549l-.022.011L2.285,3V2.926A1.6,1.6,0,0,0,2.188,2l-.032-.075a.637.637,0,0,1,.2.011A.305.305,0,0,1,2.533,2l.043.054" transform="translate(8.908 10.688)"/>
      <path id="Tracciato_5744" data-name="Tracciato 5744" d="M2.416,2.037l.022.129a.705.705,0,0,1,0,.151c0,.151-.043.355-.151.42l-.022.011-.022.022V2.7a1.755,1.755,0,0,0-.054-.71l-.022-.065.118.011.108.054.022.043" transform="translate(9.025 10.771)" fill="#f4e71e"/>
      <path id="Tracciato_5745" data-name="Tracciato 5745" d="M2.312,2.054a.507.507,0,0,0-.043.172V2.42a.6.6,0,0,0,.269.549l.032.022L2.613,3,2.6,2.926A1.6,1.6,0,0,1,2.7,2l.022-.075a.588.588,0,0,0-.194.011A.305.305,0,0,0,2.355,2l-.043.054" transform="translate(10.011 10.688)"/>
      <path id="Tracciato_5746" data-name="Tracciato 5746" d="M2.3,2.037l-.022.129a.7.7,0,0,0,0,.151c0,.151.043.355.151.42l.022.011.022.022V2.7a1.445,1.445,0,0,1,.054-.71l.011-.065-.118.011-.1.054L2.3,2.037" transform="translate(10.065 10.771)" fill="#f4e71e"/>
      <path id="Tracciato_5747" data-name="Tracciato 5747" d="M3,2.5a.21.21,0,0,0,.151-.2.227.227,0,0,0-.226-.226.208.208,0,0,0-.161.075.223.223,0,0,0-.215-.215.225.225,0,0,0-.226.215l.022.108H2.278a.215.215,0,0,0-.226.226.225.225,0,0,0,.226.215h.043a.188.188,0,0,0-.043.129.218.218,0,0,0,.226.215.215.215,0,0,0,.226-.194.223.223,0,0,0,.183.1.227.227,0,0,0,.226-.226A.27.27,0,0,0,3,2.5" transform="translate(7.892 10.751)"/>
      <path id="Tracciato_5748" data-name="Tracciato 5748" d="M2.437,2.117a.17.17,0,0,1-.172.172.179.179,0,0,1-.183-.172.189.189,0,0,1,.183-.183.179.179,0,0,1,.172.183" transform="translate(8.185 10.819)" fill="#f4e71e"/>
      <path id="Tracciato_5749" data-name="Tracciato 5749" d="M2.469,2.12a.17.17,0,0,1-.172.172.173.173,0,1,1,0-.344.17.17,0,0,1,.172.172" transform="translate(8.498 10.956)" fill="#f4e71e"/>
      <path id="Tracciato_5750" data-name="Tracciato 5750" d="M2.466,2.154a.17.17,0,0,1-.172.172.173.173,0,1,1,0-.344.17.17,0,0,1,.172.172" transform="translate(8.468 11.288)" fill="#f4e71e"/>
      <path id="Tracciato_5751" data-name="Tracciato 5751" d="M2.433,2.162a.17.17,0,0,1-.172.172.173.173,0,1,1,0-.344.17.17,0,0,1,.172.172" transform="translate(8.146 11.366)" fill="#f4e71e"/>
      <path id="Tracciato_5752" data-name="Tracciato 5752" d="M2.414,2.133a.17.17,0,0,1-.172.172.173.173,0,1,1,0-.344.17.17,0,0,1,.172.172" transform="translate(7.961 11.083)" fill="#f4e71e"/>
      <path id="Tracciato_5753" data-name="Tracciato 5753" d="M2.588,2.2a.253.253,0,1,1-.258-.248.253.253,0,0,1,.258.248" transform="translate(8.185 11.034)"/>
      <path id="Tracciato_5754" data-name="Tracciato 5754" d="M2.443,2.135a.17.17,0,0,1-.172.172.173.173,0,1,1,0-.344.17.17,0,0,1,.172.172" transform="translate(8.244 11.102)" fill="#f4e71e"/>
      <path id="Tracciato_5755" data-name="Tracciato 5755" d="M2.758,2.93a.464.464,0,0,1,.527-.689c-.646-.861-1.507.366-.527.689" transform="translate(10.469 10.878)"/>
      <path id="Tracciato_5756" data-name="Tracciato 5756" d="M2.511,2.644a.524.524,0,0,1,.441-.6.375.375,0,1,0-.441.6" transform="translate(10.554 10.981)" fill="#f4e71e"/>
    </g>
  </g>
</svg>
