<svg xmlns="http://www.w3.org/2000/svg" xmlns:xlink="http://www.w3.org/1999/xlink" width="24" height="24" viewBox="0 0 24 24">
  <defs>
    <clipPath id="clip-path">
      <path id="Tracciato_5932" data-name="Tracciato 5932" d="M.138,12.749a12,12,0,1,0,12-12,11.99,11.99,0,0,0-12,12" transform="translate(-0.138 -0.749)" fill="none"/>
    </clipPath>
  </defs>
  <g id="Mozambico" transform="translate(-0.138 -0.749)">
    <g id="Raggruppa_196" data-name="Raggruppa 196" transform="translate(0.138 0.749)" clip-path="url(#clip-path)">
      <rect id="Rettangolo_453" data-name="Rettangolo 453" width="35.247" height="23.494" transform="translate(-1.485 0.258)" fill="#007168"/>
      <rect id="Rettangolo_454" data-name="Rettangolo 454" width="35.247" height="16.154" transform="translate(-1.485 7.598)" fill="#fff"/>
      <rect id="Rettangolo_455" data-name="Rettangolo 455" width="35.247" height="15.455" transform="translate(-1.485 8.298)"/>
      <rect id="Rettangolo_456" data-name="Rettangolo 456" width="35.247" height="8.104" transform="translate(-1.485 15.648)" fill="#fff"/>
      <rect id="Rettangolo_457" data-name="Rettangolo 457" width="35.247" height="7.351" transform="translate(-1.485 16.402)" fill="#fce900"/>
      <path id="Tracciato_5924" data-name="Tracciato 5924" d="M0,.773,15.476,12.5,0,24.267Z" transform="translate(-1.485 -0.518)" fill="#d20434"/>
      <path id="Tracciato_5925" data-name="Tracciato 5925" d="M4.6,1.462,5.672,4.755H9.138L6.329,6.8,7.4,10.093,4.6,8.059,1.787,10.093,2.863,6.8.054,4.755H3.52Z" transform="translate(-0.956 6.21)" fill="#fce900"/>
      <path id="Tracciato_5926" data-name="Tracciato 5926" d="M.244,4.5c.689-.011,1.378-.011,2.066-.011a.7.7,0,0,0,.441.183.657.657,0,0,0,.323-.086l.269-.151a2.028,2.028,0,0,1,1.162-.065,4.632,4.632,0,0,1,.99.269c-.237-.786-.484-1.582-.732-2.378L4.549,2a3.287,3.287,0,0,0-.775-.183,2.56,2.56,0,0,0-1.012.118,2.318,2.318,0,0,0-.839-.129,2.532,2.532,0,0,0-.872.183l-.258.226L.244,4.5" transform="translate(0.897 9.569)" fill="#fff"/>
      <path id="Tracciato_5927" data-name="Tracciato 5927" d="M4.805,2.268,4.59,2H4.579a2.786,2.786,0,0,0-.786-.183,2.632,2.632,0,0,0-1,.108,2.706,2.706,0,0,0-.775-.118H1.953a2.488,2.488,0,0,0-.883.183L.8,2.225l-.56,2.3L2.33,4.517a.686.686,0,0,0,.452.183A.776.776,0,0,0,3.1,4.625l.14-.086.129-.065a1.192,1.192,0,0,1,.581-.118,3.634,3.634,0,0,1,.57.054,4.321,4.321,0,0,1,.99.258l.043.022ZM3.794,1.859a2.71,2.71,0,0,1,.764.172l.194,1.012.194.979a3.609,3.609,0,0,0-.474-.075,3.285,3.285,0,0,0-1.012.022,1.742,1.742,0,0,0-.613.172V1.956a2.337,2.337,0,0,1,.947-.1m-1.84-.011h.065a2.633,2.633,0,0,1,.764.118H2.8V4.14l-.172-.065A1.709,1.709,0,0,0,2.33,4,12.754,12.754,0,0,0,.64,3.99l.452-1.97a2.362,2.362,0,0,1,.861-.172m.4,2.637H.3L.845,2.246l.2-.183L.586,4.033H.619a15.19,15.19,0,0,1,1.711.011,2.3,2.3,0,0,1,.291.065l.151.065a1.958,1.958,0,0,0-.409.312Zm.743.1a.978.978,0,0,1-.312.086v0a.61.61,0,0,1-.387-.151,1.511,1.511,0,0,1,.42-.323,1.153,1.153,0,0,1,.258.151l.161.151-.011.011-.129.075m1.442-.215a3.766,3.766,0,0,0-.581-.054,1.311,1.311,0,0,0-.6.118l-.086.054.011-.011L3.1,4.313l-.237-.14A1.939,1.939,0,0,1,3.471,4a4,4,0,0,1,.99-.022,3.821,3.821,0,0,1,.506.1H5l-.011-.032L4.794,3.032c-.065-.312-.129-.624-.183-.936l.161.194.721,2.325a4.328,4.328,0,0,0-.958-.248" transform="translate(0.877 9.56)"/>
      <path id="Tracciato_5928" data-name="Tracciato 5928" d="M.151,3.663c.377-.538.764-1.087,1.141-1.636a.409.409,0,0,1,.194-.065,1.126,1.126,0,0,1,.183.043.455.455,0,0,0,.258-.022.391.391,0,0,1,.118-.291.406.406,0,0,1,.441-.043c.172.172.334.355.506.527l-.043.172Q4.935,4.626,6.942,6.9a.289.289,0,0,1-.054.215.224.224,0,0,1-.183.086C5.36,5.675,4.025,4.147,2.68,2.619l-.129.032a.3.3,0,0,1-.14,0l-.237-.269c-.011.14-.022.269-.043.409L.829,4.448C.6,4.19.377,3.921.151,3.663" transform="translate(-0.011 7.606)"/>
      <path id="Tracciato_5929" data-name="Tracciato 5929" d="M.121,7.25l.011-.022L.2,7.164.272,7.1l.14-.129c.086-.065.161-.14.237-.2l.172-.151.043-.032a.393.393,0,0,1,.151-.1.512.512,0,0,1,.172-.011l.42-.43h.065l.011-.086H1.649l.032-.366L1.7,5.571h.065L3.081,4.516l.011-.075.43-.377h.032l.022.054V4.15l.032.075.14.129.118-.108-.022-.022-.1.075-.14-.129V4.118l.108-.086.56-.517.075.075V3.526c.161-.161.323-.323.5-.474l.323.011c.14-.118.269-.237.409-.366V2.429l.043-.022.108.118.161.065L6,2.5a.108.108,0,0,1,.1.032A.117.117,0,0,1,6.1,2.7c.549-.377,1.1-.764,1.647-1.152l.022.022c-.484.506-.979.99-1.474,1.474a.147.147,0,0,1-.108.022L6.1,3.042c-.291.258-.592.506-.883.764l-.129-.118L5,3.645,4.684,3.9v.043l-.032.075c-.14.14-.291.28-.452.43-.183.161-.377.323-.56.474l-.194-.237-.022.043.118.161v.032L3.5,4.947l-.118.043a.209.209,0,0,0-.1.108l-.011.086.043.065a1.141,1.141,0,0,0,.452.161l.118.022a5.74,5.74,0,0,0,.646.1l-.022.592L4.3,6.163a.735.735,0,0,1-.323-.043,3.671,3.671,0,0,1-.657-.258,5.271,5.271,0,0,1-.474-.28l-.065.075.129.2c-.118.118-.226.248-.344.377l.151.57L2.435,7c-.075-.183-.14-.366-.215-.56l-.14-.129.323-.3L2.564,6l.14-.14-.075-.108L2.5,5.862l.032.022.054.011v.032l-.032.022H2.424l-.538.484V6.54c-.366.43-.721.861-1.076,1.3A.2.2,0,0,1,.7,7.885.226.226,0,0,1,.551,7.81C.487,7.756.433,7.681.369,7.616L.2,7.39.153,7.325.143,7.3.132,7.282.121,7.272V7.25" transform="translate(-0.304 7.032)"/>
      <path id="Tracciato_5930" data-name="Tracciato 5930" d="M.272,3.115l.022-.129.775-.646V2.265l.065.054.592-.474-.506.5-.011.086-.075.054-.065-.043Z" transform="translate(1.165 9.952)" fill="#fff"/>
      <path id="Tracciato_5931" data-name="Tracciato 5931" d="M.5,1.928.69,1.756.712,1.8.529,1.96Z" transform="translate(3.361 9.078)" fill="#fcee00"/>
    </g>
  </g>
</svg>
