<svg xmlns="http://www.w3.org/2000/svg" xmlns:xlink="http://www.w3.org/1999/xlink" width="24" height="24" viewBox="0 0 24 24">
  <defs>
    <clipPath id="clip-path">
      <path id="Tracciato_5952" data-name="Tracciato 5952" d="M.525,12.749A12,12,0,1,0,12.53.749a11.993,11.993,0,0,0-12.005,12" transform="translate(-0.525 -0.749)" fill="none"/>
    </clipPath>
  </defs>
  <g id="Nuova_Caledonia" data-name="Nuova Caledonia" transform="translate(-0.525 -0.749)">
    <g id="Raggruppa_200" data-name="Raggruppa 200" transform="translate(0.525 0.749)" clip-path="url(#clip-path)">
      <rect id="Rettangolo_464" data-name="Rettangolo 464" width="47.86" height="23.914" transform="translate(-5.653 0.043)" fill="#0028b2"/>
      <rect id="Rettangolo_465" data-name="Rettangolo 465" width="47.86" height="15.95" transform="translate(-5.653 8.007)" fill="#ff3f2a"/>
      <rect id="Rettangolo_466" data-name="Rettangolo 466" width="47.86" height="7.975" transform="translate(-5.653 15.982)" fill="#009635"/>
      <path id="Tracciato_5950" data-name="Tracciato 5950" d="M16.541,9.019a7.9,7.9,0,1,1-7.9-7.889,7.89,7.89,0,0,1,7.9,7.889" transform="translate(1.634 2.97)" fill="#ffe700"/>
      <path id="Tracciato_5951" data-name="Tracciato 5951" d="M8.756,1.118a8.023,8.023,0,1,0,8.032,8.029A8.035,8.035,0,0,0,8.756,1.118M.992,9.147A7.785,7.785,0,0,1,8.6,1.376V3.12a1.944,1.944,0,0,0-.323.172,1.631,1.631,0,0,0-.7.8,1.582,1.582,0,0,0-.043.689c.075-.032.172-.14.3-.194A6.646,6.646,0,0,0,8.6,4.25v.99a1.017,1.017,0,0,0,0,2.013v.269a1.062,1.062,0,0,1-.678-.215,1.254,1.254,0,0,1-.269-.484,2.284,2.284,0,0,0-.754-.9,2.127,2.127,0,0,1,.323.947c.011.248-.043.355.032.538a1.131,1.131,0,0,0,.646.56,1.58,1.58,0,0,0,.7.1V8.21H7.313v.334H8.6v.14c-.517.054-.915.323-.915.657s.4.613.915.657v.129H7.313v.334H8.6v.194a1.19,1.19,0,0,0-.7.129,1.267,1.267,0,0,0-.646.732,2.456,2.456,0,0,0-.032.71A3.434,3.434,0,0,1,6.9,13.462a2.9,2.9,0,0,0,.754-1.184,1.828,1.828,0,0,1,.269-.624.862.862,0,0,1,.678-.291v.151a1.18,1.18,0,0,0-.7,1.205,1.17,1.17,0,0,0,.7,1.205v.452a2.912,2.912,0,0,0-1.271.3A10.84,10.84,0,0,0,5.751,16.3,7.8,7.8,0,0,1,.992,9.147m10.692,7.189A10.382,10.382,0,0,0,10.112,14.7a3.438,3.438,0,0,0-1.249-.323v-.441A1.172,1.172,0,0,0,9.6,12.72a1.157,1.157,0,0,0-.732-1.205v-.151a.856.856,0,0,1,.7.291,1.828,1.828,0,0,1,.269.624,3.146,3.146,0,0,0,.754,1.184,3.171,3.171,0,0,1-.312-1.238,2.456,2.456,0,0,0-.032-.71,1.321,1.321,0,0,0-1.378-.861V10.46h1.314v-.334H8.863V10c.528-.043.937-.312.937-.657s-.409-.613-.937-.657v-.14h1.314V8.21H8.863V8.06a1.536,1.536,0,0,0,.721-.1,1.146,1.146,0,0,0,.657-.56c.075-.183.022-.291.032-.538a1.96,1.96,0,0,1,.312-.947,2.491,2.491,0,0,0-.754.9,1.254,1.254,0,0,1-.269.484.988.988,0,0,1-.7.215V7.253a1.012,1.012,0,0,0,0-2.013V4.088a1.66,1.66,0,0,0,.312-.248,2.11,2.11,0,0,0,.754-1.065,2.043,2.043,0,0,0,.043-.592,2.466,2.466,0,0,1-.7.667,2.107,2.107,0,0,1-.409.183V1.376a7.765,7.765,0,0,1,2.821,14.96" transform="translate(1.516 2.853)"/>
    </g>
  </g>
</svg>
