<svg xmlns="http://www.w3.org/2000/svg" xmlns:xlink="http://www.w3.org/1999/xlink" width="24" height="23.989" viewBox="0 0 24 23.989">
  <defs>
    <clipPath id="clip-path">
      <path id="Tracciato_6395" data-name="Tracciato 6395" d="M.743,12.744A12,12,0,1,0,12.748.749,12,12,0,0,0,.743,12.744" transform="translate(-0.743 -0.749)" fill="none"/>
    </clipPath>
  </defs>
  <g id="Paraguay" transform="translate(-0.743 -0.749)">
    <g id="Raggruppa_205" data-name="Raggruppa 205" transform="translate(0.743 0.749)" clip-path="url(#clip-path)">
      <rect id="Rettangolo_473" data-name="Rettangolo 473" width="39.986" height="23.989" transform="translate(-7.993 0)" fill="#ce111c"/>
      <rect id="Rettangolo_474" data-name="Rettangolo 474" width="39.986" height="16.007" transform="translate(-7.993 7.982)" fill="#fff"/>
      <rect id="Rettangolo_475" data-name="Rettangolo 475" width="39.986" height="7.993" transform="translate(-7.993 15.996)" fill="#0038ad"/>
      <path id="Tracciato_5975" data-name="Tracciato 5975" d="M2.759,1.972a1.419,1.419,0,0,0-.344.2,1.114,1.114,0,0,1-.237.151L2.1,2.359a.361.361,0,0,1-.29-.075.294.294,0,0,0,.1.14.272.272,0,0,0,.237.022c.1-.022.14-.086.215-.14a1.024,1.024,0,0,1,.366-.2l.032-.129" transform="translate(9.688 11.184)" fill="#006f00"/>
      <path id="Tracciato_5976" data-name="Tracciato 5976" d="M2.048,2.467h0l-.14-.032a.272.272,0,0,1-.1-.151h.011a.4.4,0,0,0,.226.086L2.1,2.359l.086-.032a1.375,1.375,0,0,0,.226-.151,1.166,1.166,0,0,1,.344-.2h.011L2.736,2.1v.011a.988.988,0,0,0-.377.2l-.022.022a.45.45,0,0,1-.194.118l-.1.011m-.226-.172a.228.228,0,0,0,.086.129.305.305,0,0,0,.14.043l.1-.022a.362.362,0,0,0,.172-.108l.043-.032a.974.974,0,0,1,.377-.2l.022-.118a1.309,1.309,0,0,0-.344.194v.011a1.179,1.179,0,0,1-.226.151l-.075.032H2.048a.379.379,0,0,1-.226-.075" transform="translate(9.678 11.184)" fill="#1d1d1b"/>
      <path id="Tracciato_5977" data-name="Tracciato 5977" d="M1.827,1.972a1.419,1.419,0,0,1,.344.2,1.114,1.114,0,0,0,.237.151l.075.032a.361.361,0,0,0,.29-.075.294.294,0,0,1-.1.14.272.272,0,0,1-.237.022c-.1-.022-.14-.086-.215-.14a.914.914,0,0,0-.377-.2l-.022-.129" transform="translate(9.834 11.184)" fill="#006f00"/>
      <path id="Tracciato_5978" data-name="Tracciato 5978" d="M2.558,2.478l-.086-.011a.46.46,0,0,1-.194-.118l-.043-.043a.96.96,0,0,0-.377-.194l-.032-.14h.011a1.4,1.4,0,0,1,.355.2.829.829,0,0,0,.226.151l.075.032.065.011a.425.425,0,0,0,.226-.086.273.273,0,0,1-.086.151.305.305,0,0,1-.14.043M1.869,2.1a1.16,1.16,0,0,1,.377.2l.032.032a.361.361,0,0,0,.172.108l.108.022.129-.043a.228.228,0,0,0,.086-.129.373.373,0,0,1-.215.075H2.493l-.075-.032a1.769,1.769,0,0,1-.237-.151,1.254,1.254,0,0,0-.333-.2Z" transform="translate(9.824 11.184)" fill="#1d1d1b"/>
      <path id="Tracciato_5979" data-name="Tracciato 5979" d="M1.794,1.842l.065-.075L2.3,1.734l-.387.14Z" transform="translate(9.515 8.862)" fill="#006f00"/>
      <path id="Tracciato_5980" data-name="Tracciato 5980" d="M1.912,1.885h0l-.118-.032V1.842l.065-.065.43-.043H2.3v.011ZM1.8,1.842l.108.032.344-.129-.387.043Z" transform="translate(9.512 8.862)" fill="#1d1d1b"/>
      <path id="Tracciato_5981" data-name="Tracciato 5981" d="M1.792,1.774l.1-.032.527.129-.495-.022Z" transform="translate(9.49 8.933)" fill="#006f00"/>
      <path id="Tracciato_5982" data-name="Tracciato 5982" d="M2.426,1.881h0l-.495-.022L1.8,1.784H1.791L1.8,1.773l.1-.032.527.129Zm-.495-.032.441.022L1.9,1.752l-.086.032Z" transform="translate(9.483 8.93)" fill="#1d1d1b"/>
      <path id="Tracciato_5983" data-name="Tracciato 5983" d="M1.793,2.151V2.065L2,1.71l-.118.366Z" transform="translate(9.5 8.624)" fill="#006f00"/>
      <path id="Tracciato_5984" data-name="Tracciato 5984" d="M1.8,2.161H1.792V2.075L2,1.709h.011l-.118.377Zm0-.086V2.15l.086-.075.1-.312Z" transform="translate(9.493 8.618)" fill="#1d1d1b"/>
      <path id="Tracciato_5985" data-name="Tracciato 5985" d="M1.788,2.063l.022-.1.355-.247-.258.312Z" transform="translate(9.458 8.712)" fill="#006f00"/>
      <path id="Tracciato_5986" data-name="Tracciato 5986" d="M1.788,2.073h0V2.062l.022-.086V1.965l.355-.247h.011v.011l-.258.312Zm.032-.1L1.8,2.062l.108-.032.226-.28Z" transform="translate(9.454 8.706)" fill="#1d1d1b"/>
      <path id="Tracciato_5987" data-name="Tracciato 5987" d="M1.787,1.886l.065-.075.42-.075-.366.172Z" transform="translate(9.441 8.871)" fill="#006f00"/>
      <path id="Tracciato_5988" data-name="Tracciato 5988" d="M1.905,1.918h0L1.787,1.9V1.875l.065-.065.43-.075v.011l-.366.172ZM1.8,1.875l.108.032.333-.161-.387.075Z" transform="translate(9.444 8.872)" fill="#1d1d1b"/>
      <path id="Tracciato_5989" data-name="Tracciato 5989" d="M1.784,1.788l.1-.043.527.086-.484.022Z" transform="translate(9.416 8.971)" fill="#006f00"/>
      <path id="Tracciato_5990" data-name="Tracciato 5990" d="M1.934,1.863H1.923L1.794,1.8l-.011-.011h.011l.1-.043.527.075.011.011H2.418ZM1.8,1.788l.129.065.441-.032-.484-.065Z" transform="translate(9.405 8.969)" fill="#1d1d1b"/>
      <path id="Tracciato_5991" data-name="Tracciato 5991" d="M1.8,2.175l-.011-.086.172-.377-.086.377Z" transform="translate(9.422 8.652)" fill="#006f00"/>
      <path id="Tracciato_5992" data-name="Tracciato 5992" d="M1.795,2.185h0L1.784,2.1l.172-.377.011-.011v.011L1.881,2.1l-.075.086Zm0-.086.011.075.065-.086.075-.323Z" transform="translate(9.415 8.647)" fill="#1d1d1b"/>
      <path id="Tracciato_5993" data-name="Tracciato 5993" d="M1.782,2.1,1.792,2l.333-.28L1.9,2.054Z" transform="translate(9.391 8.734)" fill="#006f00"/>
      <path id="Tracciato_5994" data-name="Tracciato 5994" d="M1.781,2.107h0l.011-.1V2l.333-.28v.011l-.215.333H1.9Zm.022-.1L1.792,2.1,1.9,2.064l.2-.312Z" transform="translate(9.385 8.726)" fill="#1d1d1b"/>
      <path id="Tracciato_5995" data-name="Tracciato 5995" d="M1.779,1.982,1.822,1.9l.4-.161-.312.247Z" transform="translate(9.362 8.863)" fill="#006f00"/>
      <path id="Tracciato_5996" data-name="Tracciato 5996" d="M1.907,1.992H1.778V1.981L1.821,1.9l.4-.161H2.23v.011ZM1.8,1.981h.108l.29-.226-.366.151Z" transform="translate(9.356 8.862)" fill="#1d1d1b"/>
      <path id="Tracciato_5997" data-name="Tracciato 5997" d="M1.776,1.846l.086-.065L2.4,1.749l-.473.129Z" transform="translate(9.34 9.011)" fill="#006f00"/>
      <path id="Tracciato_5998" data-name="Tracciato 5998" d="M1.927,1.889h0l-.14-.032-.011-.011h.011l.086-.065.538-.032V1.76ZM1.8,1.846l.129.032.43-.118-.484.032Z" transform="translate(9.337 9.009)" fill="#1d1d1b"/>
      <path id="Tracciato_5999" data-name="Tracciato 5999" d="M1.809,2.2l-.032-.075.086-.409v.387Z" transform="translate(9.341 8.715)" fill="#006f00"/>
      <path id="Tracciato_6000" data-name="Tracciato 6000" d="M1.808,2.214h0V2.2l-.032-.075.086-.409h.011v.387l-.065.1Zm-.022-.086.022.065.054-.086V1.773Z" transform="translate(9.337 8.716)" fill="#1d1d1b"/>
      <path id="Tracciato_6001" data-name="Tracciato 6001" d="M1.775,2.165v-.1l.258-.344L1.883,2.1Z" transform="translate(9.33 8.767)" fill="#006f00"/>
      <path id="Tracciato_6002" data-name="Tracciato 6002" d="M1.785,2.176H1.774V2.068l.258-.344h.011v.011l-.151.377Zm0-.1.011.086.1-.054.129-.355Z" transform="translate(9.317 8.765)" fill="#1d1d1b"/>
      <path id="Tracciato_6003" data-name="Tracciato 6003" d="M1.773,2.005l.043-.086L2.2,1.736l-.3.258Z" transform="translate(9.302 8.883)" fill="#006f00"/>
      <path id="Tracciato_6004" data-name="Tracciato 6004" d="M1.783,2.015H1.772l.043-.1.4-.183v.011l-.3.269H1.783Zm.043-.086L1.794,2H1.9l.28-.247Z" transform="translate(9.297 8.872)" fill="#1d1d1b"/>
      <path id="Tracciato_6005" data-name="Tracciato 6005" d="M1.77,1.879l.086-.065.527-.065-.463.161Z" transform="translate(9.281 9.02)" fill="#006f00"/>
      <path id="Tracciato_6006" data-name="Tracciato 6006" d="M1.92,1.911h0L1.78,1.89l-.011-.011.086-.065h.011l.527-.065v.011l-.463.151Zm-.129-.032L1.92,1.9l.42-.14-.473.065Z" transform="translate(9.268 9.018)" fill="#1d1d1b"/>
      <path id="Tracciato_6007" data-name="Tracciato 6007" d="M1.8,2.207l-.032-.075.065-.409.022.377Z" transform="translate(9.284 8.752)" fill="#006f00"/>
      <path id="Tracciato_6008" data-name="Tracciato 6008" d="M1.813,2.217h0L1.8,2.206,1.77,2.131l.065-.409h.011l.022.387-.054.1Zm-.032-.086.032.065.043-.086-.022-.333Z" transform="translate(9.278 8.745)" fill="#1d1d1b"/>
      <path id="Tracciato_6009" data-name="Tracciato 6009" d="M1.779,2.179l-.011-.1.237-.355-.118.387Z" transform="translate(9.264 8.797)" fill="#006f00"/>
      <path id="Tracciato_6010" data-name="Tracciato 6010" d="M1.79,2.19H1.779l-.011-.1.247-.366L1.9,2.114v.011Zm-.011-.1.011.086.1-.065.108-.355Z" transform="translate(9.258 8.794)" fill="#1d1d1b"/>
      <path id="Tracciato_6011" data-name="Tracciato 6011" d="M1.764,2.019l.043-.086.387-.194-.3.269Z" transform="translate(9.219 8.914)" fill="#006f00"/>
      <path id="Tracciato_6012" data-name="Tracciato 6012" d="M1.774,2.019H1.763V2.008l.043-.086.4-.183V1.75l-.3.258-.011.011Zm.043-.086-.043.075h.118l.28-.247Z" transform="translate(9.21 8.911)" fill="#1d1d1b"/>
      <path id="Tracciato_6013" data-name="Tracciato 6013" d="M1.762,1.884l.086-.065.527-.065-.463.151Z" transform="translate(9.197 9.062)" fill="#006f00"/>
      <path id="Tracciato_6014" data-name="Tracciato 6014" d="M1.912,1.915h0l-.14-.022-.011-.011.086-.065h.011l.527-.065-.463.161Zm-.129-.032.129.022.43-.14-.484.065Z" transform="translate(9.19 9.057)" fill="#1d1d1b"/>
      <path id="Tracciato_6015" data-name="Tracciato 6015" d="M1.75,1.888l.086-.065.506-.065L1.89,1.92Z" transform="translate(9.085 9.105)" fill="#006f00"/>
      <path id="Tracciato_6016" data-name="Tracciato 6016" d="M1.9,1.92h0L1.76,1.9l-.011-.011.086-.065.506-.065h.011V1.77Zm-.129-.032L1.9,1.91l.4-.14-.452.065Z" transform="translate(9.073 9.106)" fill="#1d1d1b"/>
      <path id="Tracciato_6017" data-name="Tracciato 6017" d="M1.794,2.211l-.032-.075.065-.409.022.377Z" transform="translate(9.2 8.792)" fill="#006f00"/>
      <path id="Tracciato_6018" data-name="Tracciato 6018" d="M1.794,2.232h0V2.221l-.032-.075.065-.409.011-.011v.011l.022.377-.054.108Zm-.022-.086.022.065.054-.1L1.827,1.78Z" transform="translate(9.2 8.784)" fill="#1d1d1b"/>
      <path id="Tracciato_6019" data-name="Tracciato 6019" d="M1.771,2.183l-.011-.1L2,1.731l-.118.387Z" transform="translate(9.182 8.838)" fill="#006f00"/>
      <path id="Tracciato_6020" data-name="Tracciato 6020" d="M1.782,2.194H1.771L1.76,2.1,2,1.731h.011l-.118.4H1.878Zm-.011-.1.011.086.1-.065.108-.355Z" transform="translate(9.18 8.833)" fill="#1d1d1b"/>
      <path id="Tracciato_6021" data-name="Tracciato 6021" d="M1.757,2.037l.032-.086.387-.2-.3.28Z" transform="translate(9.149 8.988)" fill="#006f00"/>
      <path id="Tracciato_6022" data-name="Tracciato 6022" d="M1.757,2.048V2.037l.032-.086V1.941l.387-.194-.29.28v.011Zm.043-.1-.032.086.118-.011.258-.258Z" transform="translate(9.151 8.989)" fill="#1d1d1b"/>
      <path id="Tracciato_6023" data-name="Tracciato 6023" d="M1.754,1.922l.075-.065.538-.1-.463.183Z" transform="translate(9.127 9.118)" fill="#006f00"/>
      <path id="Tracciato_6024" data-name="Tracciato 6024" d="M1.9,1.954h0l-.14-.022H1.754V1.921l.086-.065.527-.1.011.011-.463.183Zm-.129-.032.129.022.42-.161-.473.075Z" transform="translate(9.122 9.116)" fill="#1d1d1b"/>
      <path id="Tracciato_6025" data-name="Tracciato 6025" d="M1.787,2.22l-.032-.075L1.8,1.736l.043.377Z" transform="translate(9.132 8.877)" fill="#006f00"/>
      <path id="Tracciato_6026" data-name="Tracciato 6026" d="M1.8,2.24V2.229l-.043-.075L1.8,1.745l.011-.011v.011l.043.377v.011l-.054.1Zm-.032-.086.032.065.043-.1-.032-.333Z" transform="translate(9.122 8.862)" fill="#1d1d1b"/>
      <path id="Tracciato_6027" data-name="Tracciato 6027" d="M1.764,2.2l-.011-.1.215-.366-.108.387Z" transform="translate(9.114 8.913)" fill="#006f00"/>
      <path id="Tracciato_6028" data-name="Tracciato 6028" d="M1.774,2.222H1.763l-.011-.108.226-.377h.011l-.108.409H1.87Zm-.011-.108.011.086.1-.054.1-.355Z" transform="translate(9.102 8.901)" fill="#1d1d1b"/>
      <path id="Tracciato_6029" data-name="Tracciato 6029" d="M1.776,1.895l.065-.075.42-.075-.366.183Z" transform="translate(9.337 8.961)" fill="#006f00"/>
      <path id="Tracciato_6030" data-name="Tracciato 6030" d="M1.894,1.937h0l-.118-.022V1.9l.054-.075h.011l.42-.086.011.011H2.26l-.355.183ZM1.787,1.9l.108.022.333-.161-.387.075Z" transform="translate(9.337 8.95)" fill="#1d1d1b"/>
      <path id="Tracciato_6031" data-name="Tracciato 6031" d="M1.773,1.8l.1-.043L2.4,1.83l-.484.032Z" transform="translate(9.311 9.064)" fill="#006f00"/>
      <path id="Tracciato_6032" data-name="Tracciato 6032" d="M1.913,1.863H1.9l-.129-.054V1.8l.1-.043L2.4,1.82l.011.011H2.4ZM1.784,1.8l.129.054.441-.022L1.87,1.766Z" transform="translate(9.307 9.067)" fill="#1d1d1b"/>
      <path id="Tracciato_6033" data-name="Tracciato 6033" d="M1.785,2.184,1.774,2.1l.161-.377L1.86,2.1Z" transform="translate(9.318 8.743)" fill="#006f00"/>
      <path id="Tracciato_6034" data-name="Tracciato 6034" d="M1.8,2.194H1.785l-.011-.086.161-.387h.011v.011L1.871,2.1v.011Zm-.011-.086.011.065L1.86,2.1l.075-.323Z" transform="translate(9.317 8.735)" fill="#1d1d1b"/>
      <path id="Tracciato_6035" data-name="Tracciato 6035" d="M1.771,2.117l.011-.1L2.1,1.73l-.215.344Z" transform="translate(9.287 8.818)" fill="#006f00"/>
      <path id="Tracciato_6036" data-name="Tracciato 6036" d="M1.771,2.117h0l.011-.1V2.01L2.1,1.73h.011L1.9,2.074l-.011.011Zm.022-.1-.011.086.108-.032.194-.312Z" transform="translate(9.288 8.823)" fill="#1d1d1b"/>
      <path id="Tracciato_6037" data-name="Tracciato 6037" d="M1.769,1.949l.054-.086.42-.118L1.9,1.96Z" transform="translate(9.268 8.967)" fill="#006f00"/>
      <path id="Tracciato_6038" data-name="Tracciato 6038" d="M1.9,1.97h0l-.129-.011V1.948l.054-.075.42-.129v.011ZM1.78,1.948l.118.011.312-.194-.377.108Z" transform="translate(9.268 8.96)" fill="#1d1d1b"/>
      <path id="Tracciato_6039" data-name="Tracciato 6039" d="M1.766,1.813l.1-.054.538.032-.495.075Z" transform="translate(9.243 9.11)" fill="#006f00"/>
      <path id="Tracciato_6040" data-name="Tracciato 6040" d="M1.926,1.867h0l-.151-.054h0l.1-.054h0l.527.022.022.011ZM1.8,1.813l.129.043.441-.065L1.873,1.77Z" transform="translate(9.229 9.106)" fill="#1d1d1b"/>
      <path id="Tracciato_6041" data-name="Tracciato 6041" d="M1.788,2.2l-.022-.086L1.9,1.726,1.853,2.1Z" transform="translate(9.248 8.789)" fill="#006f00"/>
      <path id="Tracciato_6042" data-name="Tracciato 6042" d="M1.788,2.21h0l-.022-.086.129-.4h.022v.011l-.054.377Zm0-.086v.065l.075-.075L1.9,1.78Z" transform="translate(9.239 8.784)" fill="#1d1d1b"/>
      <path id="Tracciato_6043" data-name="Tracciato 6043" d="M1.765,2.142l.011-.1.29-.312-.194.355Z" transform="translate(9.226 8.856)" fill="#006f00"/>
      <path id="Tracciato_6044" data-name="Tracciato 6044" d="M1.764,2.153h0V2.045l.3-.312.011.011L1.882,2.1V2.11Zm.011-.1-.011.086L1.872,2.1l.172-.333Z" transform="translate(9.219 8.852)" fill="#1d1d1b"/>
      <path id="Tracciato_6045" data-name="Tracciato 6045" d="M1.762,2.036l.032-.086.387-.2-.29.28Z" transform="translate(9.199 8.977)" fill="#006f00"/>
      <path id="Tracciato_6046" data-name="Tracciato 6046" d="M1.761,2.057V2.046l.032-.086V1.949l.387-.2v.011l-.29.28Zm.043-.1-.032.086.118-.011.258-.258Z" transform="translate(9.19 8.969)" fill="#1d1d1b"/>
      <path id="Tracciato_6047" data-name="Tracciato 6047" d="M1.76,1.921l.086-.075.527-.086-.463.183Z" transform="translate(9.176 9.108)" fill="#006f00"/>
      <path id="Tracciato_6048" data-name="Tracciato 6048" d="M1.911,1.942h0L1.76,1.931V1.92l.075-.075h.011l.527-.086V1.77Zm-.14-.022.14.022.409-.161-.473.075Z" transform="translate(9.18 9.106)" fill="#1d1d1b"/>
      <path id="Tracciato_6049" data-name="Tracciato 6049" d="M1.792,2.228,1.76,2.153l.043-.42.032.387Z" transform="translate(9.181 8.858)" fill="#006f00"/>
      <path id="Tracciato_6050" data-name="Tracciato 6050" d="M1.8,2.229H1.791l-.032-.075.043-.42h.011l.043.387ZM1.77,2.154l.032.065.043-.1-.032-.333Z" transform="translate(9.171 8.862)" fill="#1d1d1b"/>
      <path id="Tracciato_6051" data-name="Tracciato 6051" d="M1.769,2.2l-.011-.1.215-.366-.108.387Z" transform="translate(9.165 8.905)" fill="#006f00"/>
      <path id="Tracciato_6052" data-name="Tracciato 6052" d="M1.779,2.211H1.768l-.011-.1.226-.377-.108.4Zm-.011-.1.011.086.1-.065.1-.366Z" transform="translate(9.151 8.901)" fill="#1d1d1b"/>
      <path id="Tracciato_6053" data-name="Tracciato 6053" d="M1.756,2.07l.032-.086.366-.237-.28.3Z" transform="translate(9.142 8.994)" fill="#006f00"/>
      <path id="Tracciato_6054" data-name="Tracciato 6054" d="M1.766,2.08H1.755V2.07l.032-.086V1.973l.377-.226v.011l-.269.3H1.884Zm.032-.1-.032.086.118-.022.247-.269Z" transform="translate(9.132 8.989)" fill="#1d1d1b"/>
      <path id="Tracciato_6055" data-name="Tracciato 6055" d="M1.754,1.954l.075-.075.527-.118-.452.2Z" transform="translate(9.122 9.123)" fill="#006f00"/>
      <path id="Tracciato_6056" data-name="Tracciato 6056" d="M1.914,1.975h0l-.151-.011H1.753V1.954l.086-.075.516-.118h.011v.011Zm-.14-.022.129.011.409-.183-.473.108Z" transform="translate(9.112 9.116)" fill="#1d1d1b"/>
      <path id="Tracciato_6057" data-name="Tracciato 6057" d="M1.8,2.223l-.043-.075.022-.409.065.377Z" transform="translate(9.119 8.911)" fill="#006f00"/>
      <path id="Tracciato_6058" data-name="Tracciato 6058" d="M1.8,2.244V2.233l-.043-.075.022-.409L1.8,1.738v.011l.054.377-.043.108Zm-.022-.086.022.065.054-.1L1.8,1.792Z" transform="translate(9.112 8.901)" fill="#1d1d1b"/>
      <path id="Tracciato_6059" data-name="Tracciato 6059" d="M1.774,2.215l-.022-.1.2-.377-.086.387Z" transform="translate(9.102 8.941)" fill="#006f00"/>
      <path id="Tracciato_6060" data-name="Tracciato 6060" d="M1.774,2.225h0l-.022-.1.2-.387h.011l-.086.4V2.15l-.1.075Zm-.011-.1.022.086.086-.075.075-.355Z" transform="translate(9.102 8.93)" fill="#1d1d1b"/>
      <path id="Tracciato_6061" data-name="Tracciato 6061" d="M1.748,2.065l.032-.086.366-.226-.269.29Z" transform="translate(9.064 9.051)" fill="#006f00"/>
      <path id="Tracciato_6062" data-name="Tracciato 6062" d="M1.758,2.085H1.747V2.075l.032-.1.366-.226h.011v.011l-.28.3Zm.032-.1-.032.086.118-.022.247-.269Z" transform="translate(9.054 9.038)" fill="#1d1d1b"/>
      <path id="Tracciato_6063" data-name="Tracciato 6063" d="M1.746,1.959l.075-.075.527-.118-.452.2Z" transform="translate(9.042 9.172)" fill="#006f00"/>
      <path id="Tracciato_6064" data-name="Tracciato 6064" d="M1.9,1.981h0L1.746,1.97V1.949l.075-.075.527-.108h0Zm-.14-.032.14.022.4-.183L1.821,1.9Z" transform="translate(9.044 9.174)" fill="#1d1d1b"/>
      <path id="Tracciato_6065" data-name="Tracciato 6065" d="M1.735,1.955,1.81,1.88,2.3,1.772l-.43.194Z" transform="translate(8.934 9.237)" fill="#006f00"/>
      <path id="Tracciato_6066" data-name="Tracciato 6066" d="M1.875,1.976h0l-.14-.011V1.955L1.81,1.88l.495-.108h0l-.42.2Zm-.129-.022.129.011.387-.183L1.81,1.89Z" transform="translate(8.936 9.233)" fill="#1d1d1b"/>
      <path id="Tracciato_6067" data-name="Tracciato 6067" d="M1.789,2.228l-.043-.075.022-.409.065.377Z" transform="translate(9.042 8.96)" fill="#006f00"/>
      <path id="Tracciato_6068" data-name="Tracciato 6068" d="M1.788,2.238h0l-.043-.075.022-.409.011-.011v.011l.054.377L1.8,2.238Zm-.022-.075.022.065.043-.1L1.777,1.8Z" transform="translate(9.034 8.95)" fill="#1d1d1b"/>
      <path id="Tracciato_6069" data-name="Tracciato 6069" d="M1.766,2.22l-.022-.1.2-.377-.086.4Z" transform="translate(9.024 8.989)" fill="#006f00"/>
      <path id="Tracciato_6070" data-name="Tracciato 6070" d="M1.766,2.23h0l-.022-.1.2-.387.011.011-.086.387v.011l-.1.075Zm-.011-.1.022.086.086-.075.075-.355Z" transform="translate(9.024 8.979)" fill="#1d1d1b"/>
      <path id="Tracciato_6071" data-name="Tracciato 6071" d="M1.742,2.094,1.774,2l.355-.237-.269.312Z" transform="translate(9.003 9.124)" fill="#006f00"/>
      <path id="Tracciato_6072" data-name="Tracciato 6072" d="M1.742,2.105h0V2.084L1.764,2h0l.366-.237v.011l-.258.29-.011.022ZM1.774,2l-.022.086.108-.022.237-.28Z" transform="translate(9.005 9.126)" fill="#1d1d1b"/>
      <path id="Tracciato_6073" data-name="Tracciato 6073" d="M1.74,1.988l.075-.075.516-.14-.441.215Z" transform="translate(8.98 9.245)" fill="#006f00"/>
      <path id="Tracciato_6074" data-name="Tracciato 6074" d="M1.9,2H1.739l.011-.011.075-.075.516-.14v.011Zm-.14-.011L1.9,2l.387-.2-.463.129Z" transform="translate(8.975 9.243)" fill="#1d1d1b"/>
      <path id="Tracciato_6075" data-name="Tracciato 6075" d="M1.783,2.237,1.74,2.162l.011-.409.075.377Z" transform="translate(8.982 9.049)" fill="#006f00"/>
      <path id="Tracciato_6076" data-name="Tracciato 6076" d="M1.782,2.247h0l-.043-.075V1.763l.011-.011v.011l.075.366v.011l-.032.108ZM1.75,2.172l.032.065.043-.1L1.75,1.806Z" transform="translate(8.975 9.038)" fill="#1d1d1b"/>
      <path id="Tracciato_6077" data-name="Tracciato 6077" d="M1.76,2.24l-.022-.1.183-.387-.065.4Z" transform="translate(8.966 9.073)" fill="#006f00"/>
      <path id="Tracciato_6078" data-name="Tracciato 6078" d="M1.769,2.25H1.759l-.022-.1.183-.4h.011v.011l-.065.4Zm-.022-.1.022.086.086-.075L1.92,1.8Z" transform="translate(8.956 9.067)" fill="#1d1d1b"/>
      <path id="Tracciato_6079" data-name="Tracciato 6079" d="M1.736,2.189l.011-.108.333-.312-.215.366Z" transform="translate(8.941 9.207)" fill="#006f00"/>
      <path id="Tracciato_6080" data-name="Tracciato 6080" d="M1.735,2.2h0l.011-.108V2.081l.333-.312.011.011-.226.366L1.746,2.2Zm.022-.108-.011.1.118-.043L2.058,1.8Z" transform="translate(8.936 9.204)" fill="#1d1d1b"/>
      <path id="Tracciato_6081" data-name="Tracciato 6081" d="M1.734,2.113l.065-.1.516-.237-.43.312Z" transform="translate(8.923 9.303)" fill="#006f00"/>
      <path id="Tracciato_6082" data-name="Tracciato 6082" d="M1.744,2.123H1.733V2.112l.065-.1.516-.237h.011l-.43.323Zm.065-.1-.054.086.14-.022.377-.28Z" transform="translate(8.917 9.301)" fill="#1d1d1b"/>
      <path id="Tracciato_6083" data-name="Tracciato 6083" d="M1.856,2.273l-.065-.065-.065-.441.151.387Z" transform="translate(8.856 9.189)" fill="#006f00"/>
      <path id="Tracciato_6084" data-name="Tracciato 6084" d="M1.866,2.283h0L1.8,2.208l-.075-.43V1.767l.011.011.151.377-.011.118Zm-.054-.075.054.054.011-.108-.129-.333Z" transform="translate(8.849 9.184)" fill="#1d1d1b"/>
      <path id="Tracciato_6085" data-name="Tracciato 6085" d="M1.774,2.306l-.043-.1.118-.441V2.2Z" transform="translate(8.9 9.191)" fill="#006f00"/>
      <path id="Tracciato_6086" data-name="Tracciato 6086" d="M1.785,2.316H1.774l-.043-.1.118-.441.011-.011v.011l.011.43Zm-.043-.1.043.086.075-.1-.011-.4Z" transform="translate(8.897 9.184)" fill="#1d1d1b"/>
      <path id="Tracciato_6087" data-name="Tracciato 6087" d="M1.732,2.227V2.119l.3-.344-.183.4Z" transform="translate(8.911 9.264)" fill="#006f00"/>
      <path id="Tracciato_6088" data-name="Tracciato 6088" d="M1.732,2.238h0V2.13l.3-.355h.011v.011l-.183.387-.118.065Zm.011-.108v.1l.108-.054.172-.355Z" transform="translate(8.907 9.262)" fill="#1d1d1b"/>
      <path id="Tracciato_6089" data-name="Tracciato 6089" d="M1.731,2.171l.054-.1.495-.29-.4.355Z" transform="translate(8.894 9.343)" fill="#006f00"/>
      <path id="Tracciato_6090" data-name="Tracciato 6090" d="M1.73,2.17h0l.054-.108.495-.28h.011l-.4.355-.151.032Zm.065-.1-.054.086.151-.032.344-.312Z" transform="translate(8.888 9.34)" fill="#1d1d1b"/>
      <path id="Tracciato_6091" data-name="Tracciato 6091" d="M1.892,2.262,1.828,2.2l-.108-.42.183.366Z" transform="translate(8.792 9.294)" fill="#006f00"/>
      <path id="Tracciato_6092" data-name="Tracciato 6092" d="M1.9,2.283l-.011-.011-.065-.054-.108-.43V1.777h.011l.183.366v.011L1.9,2.272Zm-.065-.075.054.054L1.9,2.154l-.161-.323Z" transform="translate(8.79 9.282)" fill="#1d1d1b"/>
      <path id="Tracciato_6093" data-name="Tracciato 6093" d="M1.782,2.324l-.054-.086.086-.463.043.441Z" transform="translate(8.869 9.268)" fill="#006f00"/>
      <path id="Tracciato_6094" data-name="Tracciato 6094" d="M1.782,2.325h0l-.054-.086V2.228l.086-.452h.011l.032.43v.011l-.065.108Zm-.043-.1.043.086.065-.108-.032-.387Z" transform="translate(8.868 9.272)" fill="#1d1d1b"/>
      <path id="Tracciato_6095" data-name="Tracciato 6095" d="M1.751,2.288l-.022-.108.226-.4-.1.42Z" transform="translate(8.883 9.336)" fill="#006f00"/>
      <path id="Tracciato_6096" data-name="Tracciato 6096" d="M1.751,2.3h0l-.022-.108.226-.409-.086.43H1.858ZM1.74,2.191l.011.086.1-.075.1-.377Z" transform="translate(8.878 9.331)" fill="#1d1d1b"/>
      <path id="Tracciato_6097" data-name="Tracciato 6097" d="M1.73,2.281l.032-.108.42-.387-.312.42Z" transform="translate(8.891 9.37)" fill="#006f00"/>
      <path id="Tracciato_6098" data-name="Tracciato 6098" d="M1.741,2.281H1.73l.032-.118.42-.377h.011l-.312.43Zm.032-.108-.032.1.129-.065.28-.377Z" transform="translate(8.888 9.37)" fill="#1d1d1b"/>
      <path id="Tracciato_6099" data-name="Tracciato 6099" d="M1.99,2.235l-.075-.043-.2-.4.258.323Z" transform="translate(8.697 9.444)" fill="#006f00"/>
      <path id="Tracciato_6100" data-name="Tracciato 6100" d="M1.991,2.245h0L1.9,2.2l-.194-.4V1.793h.011l.247.323Zm-.075-.054.065.043-.022-.118-.215-.269Z" transform="translate(8.702 9.438)" fill="#1d1d1b"/>
      <path id="Tracciato_6101" data-name="Tracciato 6101" d="M1.812,2.326l-.065-.075-.022-.463.14.409Z" transform="translate(8.848 9.394)" fill="#006f00"/>
      <path id="Tracciato_6102" data-name="Tracciato 6102" d="M1.822,2.337h0l-.075-.086-.022-.463h.011l.14.409v.011l-.054.118Zm-.065-.086.065.065L1.865,2.2l-.118-.366Z" transform="translate(8.839 9.389)" fill="#1d1d1b"/>
      <path id="Tracciato_6103" data-name="Tracciato 6103" d="M1.748,2.305l-.022-.1.194-.42-.075.43Z" transform="translate(8.857 9.398)" fill="#006f00"/>
      <path id="Tracciato_6104" data-name="Tracciato 6104" d="M1.758,2.316H1.748l-.022-.108.2-.42-.065.43H1.855Zm-.022-.108.022.086.1-.075.065-.387Z" transform="translate(8.849 9.399)" fill="#1d1d1b"/>
      <path id="Tracciato_6105" data-name="Tracciato 6105" d="M1.728,2.308,1.76,2.2l.387-.409-.28.441Z" transform="translate(8.866 9.421)" fill="#006f00"/>
      <path id="Tracciato_6106" data-name="Tracciato 6106" d="M1.738,2.317H1.727L1.759,2.2l.4-.409h.011V1.8l-.29.441ZM1.77,2.21l-.022.1.129-.075.247-.387Z" transform="translate(8.858 9.409)" fill="#1d1d1b"/>
      <path id="Tracciato_6107" data-name="Tracciato 6107" d="M2.007,2.222l-.075-.043L1.706,1.8l.28.3Z" transform="translate(8.654 9.533)" fill="#006f00"/>
      <path id="Tracciato_6108" data-name="Tracciato 6108" d="M2.007,2.242h0L1.932,2.2H1.921l-.215-.387V1.8h.011l.269.312.032.118Zm-.075-.054L2,2.221l-.022-.108-.237-.258Z" transform="translate(8.653 9.516)" fill="#1d1d1b"/>
      <path id="Tracciato_6109" data-name="Tracciato 6109" d="M1.839,2.324l-.075-.075L1.721,1.8l.161.4Z" transform="translate(8.8 9.475)" fill="#006f00"/>
      <path id="Tracciato_6110" data-name="Tracciato 6110" d="M1.839,2.334h0l-.075-.075-.043-.452L1.732,1.8l.161.409-.043.129Zm-.065-.075.065.065L1.882,2.2l-.14-.366Z" transform="translate(8.8 9.467)" fill="#1d1d1b"/>
      <path id="Tracciato_6111" data-name="Tracciato 6111" d="M1.754,2.314l-.032-.1.2-.42-.075.43Z" transform="translate(8.807 9.487)" fill="#006f00"/>
      <path id="Tracciato_6112" data-name="Tracciato 6112" d="M1.754,2.325H1.744l-.022-.108.2-.42-.065.43Zm-.022-.108.022.086.1-.075.065-.387Z" transform="translate(8.81 9.487)" fill="#1d1d1b"/>
      <path id="Tracciato_6113" data-name="Tracciato 6113" d="M1.723,2.317l.032-.108L2.143,1.8l-.28.441Z" transform="translate(8.823 9.512)" fill="#006f00"/>
      <path id="Tracciato_6114" data-name="Tracciato 6114" d="M1.723,2.327h0l.022-.108V2.209l.4-.409h.011v.011l-.29.441Zm.032-.108-.022.1.129-.075.247-.387Z" transform="translate(8.819 9.506)" fill="#1d1d1b"/>
      <path id="Tracciato_6115" data-name="Tracciato 6115" d="M1.717,2.309,1.739,2.2l.377-.387-.258.42Z" transform="translate(8.761 9.642)" fill="#006f00"/>
      <path id="Tracciato_6116" data-name="Tracciato 6116" d="M1.717,2.319h0L1.739,2.2l.377-.387h.011v.011l-.269.42-.129.075Zm.032-.108-.022.1.129-.065.237-.387Z" transform="translate(8.761 9.633)" fill="#1d1d1b"/>
      <path id="Tracciato_6117" data-name="Tracciato 6117" d="M2,2.241,1.928,2.2,1.7,1.811l.28.312Z" transform="translate(8.613 9.612)" fill="#006f00"/>
      <path id="Tracciato_6118" data-name="Tracciato 6118" d="M2,2.242H2L1.917,2.2,1.7,1.812h.011l.269.3L2,2.232Zm-.075-.054.065.032-.022-.108-.237-.258Z" transform="translate(8.614 9.623)" fill="#1d1d1b"/>
      <path id="Tracciato_6119" data-name="Tracciato 6119" d="M1.835,2.333,1.76,2.258l-.043-.452.161.4Z" transform="translate(8.759 9.564)" fill="#006f00"/>
      <path id="Tracciato_6120" data-name="Tracciato 6120" d="M1.834,2.343h0l-.075-.065V2.268l-.043-.452V1.805h.011l.161.409-.032.129Zm-.054-.075.054.065.032-.118-.14-.366Z" transform="translate(8.751 9.555)" fill="#1d1d1b"/>
      <path id="Tracciato_6121" data-name="Tracciato 6121" d="M1.754,2.336l-.032-.1.183-.43-.054.43Z" transform="translate(8.803 9.594)" fill="#006f00"/>
      <path id="Tracciato_6122" data-name="Tracciato 6122" d="M1.753,2.347h0V2.336l-.032-.1.183-.43.011.011-.054.43-.1.1Zm-.022-.108.032.086.086-.086.043-.387Z" transform="translate(8.8 9.594)" fill="#1d1d1b"/>
      <path id="Tracciato_6123" data-name="Tracciato 6123" d="M1.723,2.348l.022-.108.377-.43-.258.452Z" transform="translate(8.823 9.609)" fill="#006f00"/>
      <path id="Tracciato_6124" data-name="Tracciato 6124" d="M1.723,2.359h0V2.348l.022-.108V2.23l.377-.42h.011v.011l-.258.452H1.863l-.129.086Zm.032-.118-.022.1.129-.075L2.1,1.853Z" transform="translate(8.819 9.604)" fill="#1d1d1b"/>
      <path id="Tracciato_6125" data-name="Tracciato 6125" d="M2.013,2.243,1.927,2.2,1.7,1.824l.28.3Z" transform="translate(8.604 9.737)" fill="#006f00"/>
      <path id="Tracciato_6126" data-name="Tracciato 6126" d="M2.023,2.254h0l-.086-.043L1.7,1.835V1.824h.011l.29.3.032.118ZM1.947,2.2l.065.032L1.99,2.125l-.247-.258Z" transform="translate(8.595 9.74)" fill="#1d1d1b"/>
      <path id="Tracciato_6127" data-name="Tracciato 6127" d="M1.855,2.345,1.779,2.27l-.065-.452.172.4Z" transform="translate(8.739 9.68)" fill="#006f00"/>
      <path id="Tracciato_6128" data-name="Tracciato 6128" d="M1.854,2.355h0L1.779,2.28l-.065-.452.011-.011v.011l.172.387v.011l-.032.129ZM1.789,2.28l.065.065.032-.118L1.736,1.86Z" transform="translate(8.732 9.672)" fill="#1d1d1b"/>
      <path id="Tracciato_6129" data-name="Tracciato 6129" d="M1.755,2.346l-.032-.1.172-.43-.043.43Z" transform="translate(8.821 9.69)" fill="#006f00"/>
      <path id="Tracciato_6130" data-name="Tracciato 6130" d="M1.755,2.357h0V2.346l-.032-.1.172-.43h.011l-.043.43V2.26l-.1.086Zm-.022-.108.032.086.086-.086.032-.387Z" transform="translate(8.819 9.692)" fill="#1d1d1b"/>
      <path id="Tracciato_6131" data-name="Tracciato 6131" d="M1.725,2.368l.022-.118.366-.43-.258.463Z" transform="translate(8.841 9.695)" fill="#006f00"/>
      <path id="Tracciato_6132" data-name="Tracciato 6132" d="M1.735,2.378H1.724V2.368l.022-.108V2.249l.366-.43h.011V1.83l-.247.452-.011.011Zm.022-.118-.022.1.129-.075.226-.42Z" transform="translate(8.829 9.692)" fill="#1d1d1b"/>
      <path id="Tracciato_6133" data-name="Tracciato 6133" d="M2.025,2.243l-.075-.032L1.7,1.834l.29.29Z" transform="translate(8.612 9.841)" fill="#006f00"/>
      <path id="Tracciato_6134" data-name="Tracciato 6134" d="M2.033,2.243h0l-.075-.032H1.947L1.7,1.845V1.834h.011l.29.28v.011l.043.118ZM1.958,2.2l.075.032L2,2.124l-.258-.247Z" transform="translate(8.595 9.838)" fill="#1d1d1b"/>
      <path id="Tracciato_6135" data-name="Tracciato 6135" d="M1.867,2.345,1.791,2.28l-.075-.452.183.387Z" transform="translate(8.75 9.784)" fill="#006f00"/>
      <path id="Tracciato_6136" data-name="Tracciato 6136" d="M1.876,2.355H1.866L1.79,2.291V2.28l-.075-.452h.011l.183.387v.011ZM1.8,2.28l.065.065L1.9,2.226l-.172-.355Z" transform="translate(8.741 9.779)" fill="#1d1d1b"/>
      <path id="Tracciato_6137" data-name="Tracciato 6137" d="M1.766,2.365l-.043-.1.14-.441-.011.43Z" transform="translate(8.82 9.772)" fill="#006f00"/>
      <path id="Tracciato_6138" data-name="Tracciato 6138" d="M1.766,2.365h0l-.043-.1.129-.441h.011v.441l-.086.1Zm-.032-.1.032.086.086-.1V1.87Z" transform="translate(8.819 9.77)" fill="#1d1d1b"/>
      <path id="Tracciato_6139" data-name="Tracciato 6139" d="M1.726,2.407,1.737,2.3l.323-.473-.2.484Z" transform="translate(8.853 9.759)" fill="#006f00"/>
      <path id="Tracciato_6140" data-name="Tracciato 6140" d="M1.737,2.418H1.726V2.407L1.737,2.3V2.289l.323-.463H2.07v.011l-.2.473v.011ZM1.748,2.3l-.011.1.118-.086.183-.43Z" transform="translate(8.849 9.76)" fill="#1d1d1b"/>
      <path id="Tracciato_6141" data-name="Tracciato 6141" d="M2.055,2.223,1.969,2.19,1.7,1.846l.312.269Z" transform="translate(8.596 9.956)" fill="#006f00"/>
      <path id="Tracciato_6142" data-name="Tracciato 6142" d="M2.065,2.233h0L1.979,2.2H1.968L1.7,1.857V1.846l.323.258.043.118ZM1.979,2.19l.075.022-.043-.1-.28-.226Z" transform="translate(8.585 9.955)" fill="#1d1d1b"/>
      <path id="Tracciato_6143" data-name="Tracciato 6143" d="M1.907,2.344l-.086-.065-.108-.441.215.377Z" transform="translate(8.729 9.881)" fill="#006f00"/>
      <path id="Tracciato_6144" data-name="Tracciato 6144" d="M1.907,2.365h0L1.821,2.3l-.108-.452V1.838l.011.011.215.366v.011l-.022.129ZM1.831,2.29l.075.054.022-.118-.2-.344Z" transform="translate(8.722 9.877)" fill="#1d1d1b"/>
      <path id="Tracciato_6145" data-name="Tracciato 6145" d="M1.78,2.387,1.726,2.3l.032-.463.086.43Z" transform="translate(8.852 9.876)" fill="#006f00"/>
      <path id="Tracciato_6146" data-name="Tracciato 6146" d="M1.79,2.387h0L1.725,2.3l.032-.463h.011l.086.43ZM1.736,2.3l.054.075.054-.108-.075-.387Z" transform="translate(8.839 9.877)" fill="#1d1d1b"/>
      <path id="Tracciato_6147" data-name="Tracciato 6147" d="M1.751,2.467,1.729,2.36l.226-.527-.108.516Z" transform="translate(8.881 9.824)" fill="#006f00"/>
      <path id="Tracciato_6148" data-name="Tracciato 6148" d="M1.751,2.477h0L1.74,2.467l-.011-.108.215-.527h.022l-.108.516ZM1.74,2.359l.011.1.1-.108.1-.463Z" transform="translate(8.878 9.818)" fill="#1d1d1b"/>
      <path id="Tracciato_6149" data-name="Tracciato 6149" d="M2.128,2.155l-.086-.011L1.7,1.864l.366.194Z" transform="translate(8.576 10.135)" fill="#006f00"/>
      <path id="Tracciato_6150" data-name="Tracciato 6150" d="M2.138,2.155h0l-.086-.011H2.041L1.7,1.865h.011l.366.183.065.1.011.011Zm-.086-.022.075.011-.065-.1-.312-.161Z" transform="translate(8.566 10.14)" fill="#1d1d1b"/>
      <path id="Tracciato_6151" data-name="Tracciato 6151" d="M2.011,2.306l-.1-.043-.2-.409L2,2.166Z" transform="translate(8.689 10.034)" fill="#006f00"/>
      <path id="Tracciato_6152" data-name="Tracciato 6152" d="M2.021,2.317H2.01l-.086-.043H1.913l-.2-.42H1.72l.29.323.011.129Zm-.1-.054.086.043L2,2.177l-.258-.29Z" transform="translate(8.683 10.033)" fill="#1d1d1b"/>
      <path id="Tracciato_6153" data-name="Tracciato 6153" d="M1.791,2.384,1.726,2.3l.011-.452.108.42Z" transform="translate(8.851 9.961)" fill="#006f00"/>
      <path id="Tracciato_6154" data-name="Tracciato 6154" d="M1.791,2.395h0l-.065-.075V2.309l.011-.463.118.42v.011L1.8,2.395Zm-.054-.086.054.075.054-.118-.108-.377Z" transform="translate(8.849 9.955)" fill="#1d1d1b"/>
      <path id="Tracciato_6155" data-name="Tracciato 6155" d="M1.752,2.485,1.73,2.377l.194-.538-.075.516Z" transform="translate(8.89 9.891)" fill="#006f00"/>
      <path id="Tracciato_6156" data-name="Tracciato 6156" d="M1.762,2.5H1.752L1.73,2.377l.194-.538h.011l-.075.527Zm-.022-.118.022.1.086-.118.065-.463Z" transform="translate(8.888 9.887)" fill="#1d1d1b"/>
      <path id="Tracciato_6157" data-name="Tracciato 6157" d="M2.149,2.133l-.086-.011L1.7,1.875l.377.161Z" transform="translate(8.566 10.235)" fill="#006f00"/>
      <path id="Tracciato_6158" data-name="Tracciato 6158" d="M2.149,2.143h-.1L1.7,1.885V1.874h.011l.366.161.011.011.065.1h0m-.086-.011h.075l-.065-.086-.323-.14Z" transform="translate(8.566 10.228)" fill="#1d1d1b"/>
      <path id="Tracciato_6159" data-name="Tracciato 6159" d="M2.031,2.294l-.1-.032-.226-.4.312.3Z" transform="translate(8.68 10.124)" fill="#006f00"/>
      <path id="Tracciato_6160" data-name="Tracciato 6160" d="M2.041,2.3H2.031l-.1-.032-.226-.4V1.863h.011l.3.3Zm-.1-.043.086.032L2.02,2.175,1.74,1.9Z" transform="translate(8.673 10.121)" fill="#1d1d1b"/>
      <path id="Tracciato_6161" data-name="Tracciato 6161" d="M1.791,2.394l-.065-.075.011-.463.108.42Z" transform="translate(8.851 10.058)" fill="#006f00"/>
      <path id="Tracciato_6162" data-name="Tracciato 6162" d="M1.8,2.4H1.791l-.065-.075V2.319l.011-.463h.011l.108.42Zm-.065-.086.054.075.054-.118-.1-.377Z" transform="translate(8.849 10.053)" fill="#1d1d1b"/>
      <path id="Tracciato_6163" data-name="Tracciato 6163" d="M1.752,2.495,1.73,2.387l.194-.538-.075.516Z" transform="translate(8.89 9.988)" fill="#006f00"/>
      <path id="Tracciato_6164" data-name="Tracciato 6164" d="M1.761,2.505h0l-.011-.011-.022-.108.194-.538h.011l-.075.527ZM1.74,2.387l.022.1.086-.118L1.912,1.9Z" transform="translate(8.878 9.984)" fill="#1d1d1b"/>
      <path id="Tracciato_6165" data-name="Tracciato 6165" d="M2.149,2.143l-.086-.011L1.7,1.885l.377.161Z" transform="translate(8.564 10.334)" fill="#006f00"/>
      <path id="Tracciato_6166" data-name="Tracciato 6166" d="M2.149,2.164h0l-.086-.011H2.052L1.7,1.895l.011-.011.366.161.011.011.065.1Zm-.086-.022h.075l-.065-.086-.323-.14Z" transform="translate(8.566 10.326)" fill="#1d1d1b"/>
      <path id="Tracciato_6167" data-name="Tracciato 6167" d="M2.031,2.314l-.1-.043-.226-.4.312.312Z" transform="translate(8.678 10.215)" fill="#006f00"/>
      <path id="Tracciato_6168" data-name="Tracciato 6168" d="M2.041,2.314h0l-.108-.032-.226-.4V1.873h.011l.3.3.011.011.011.118Zm-.1-.043.086.032L2.02,2.185l-.28-.28Z" transform="translate(8.673 10.218)" fill="#1d1d1b"/>
      <path id="Tracciato_6169" data-name="Tracciato 6169" d="M1.805,2.406,1.73,2.33V1.868l.129.409Z" transform="translate(8.887 10.168)" fill="#006f00"/>
      <path id="Tracciato_6170" data-name="Tracciato 6170" d="M1.815,2.416H1.8L1.74,2.34V2.33l-.011-.463H1.74l.129.42ZM1.751,2.33l.065.075.043-.118L1.74,1.91Z" transform="translate(8.878 10.16)" fill="#1d1d1b"/>
      <path id="Tracciato_6171" data-name="Tracciato 6171" d="M1.756,2.516l-.022-.108L1.9,1.86l-.054.527Z" transform="translate(8.935 10.087)" fill="#006f00"/>
      <path id="Tracciato_6172" data-name="Tracciato 6172" d="M1.766,2.526h0V2.515l-.032-.108.172-.549.011.011-.054.516Zm-.022-.118.022.1.086-.118L1.9,1.913Z" transform="translate(8.927 10.082)" fill="#1d1d1b"/>
      <path id="Tracciato_6173" data-name="Tracciato 6173" d="M2.163,2.144H2.077L1.7,1.9l.387.151Z" transform="translate(8.602 10.45)" fill="#006f00"/>
      <path id="Tracciato_6174" data-name="Tracciato 6174" d="M2.164,2.144h-.1L1.7,1.908V1.9h.011l.377.14v.011l.075.086.011.011Zm-.086-.011h.075l-.065-.086-.333-.129Z" transform="translate(8.605 10.453)" fill="#1d1d1b"/>
      <path id="Tracciato_6175" data-name="Tracciato 6175" d="M2.056,2.3l-.1-.032-.247-.387.323.29Z" transform="translate(8.709 10.336)" fill="#006f00"/>
      <path id="Tracciato_6176" data-name="Tracciato 6176" d="M2.066,2.315h0l-.108-.032L1.711,1.9l.011-.011.323.29.022.129Zm-.1-.043.086.032-.022-.118-.29-.269Z" transform="translate(8.702 10.336)" fill="#1d1d1b"/>
      <path id="Tracciato_6177" data-name="Tracciato 6177" d="M1.872,2.4,1.8,2.328l-.065-.452.172.4Z" transform="translate(8.905 10.247)" fill="#006f00"/>
      <path id="Tracciato_6178" data-name="Tracciato 6178" d="M1.882,2.413H1.871L1.8,2.348V2.338l-.065-.452V1.875l.011.011.172.4Zm-.075-.075.065.065L1.9,2.284l-.151-.366Z" transform="translate(8.897 10.238)" fill="#1d1d1b"/>
      <path id="Tracciato_6179" data-name="Tracciato 6179" d="M1.784,2.532l-.043-.108.108-.559.011.527Z" transform="translate(8.998 10.145)" fill="#006f00"/>
      <path id="Tracciato_6180" data-name="Tracciato 6180" d="M1.784,2.543h0l-.043-.108.108-.559V1.865l.011.011V2.4Zm-.032-.108.032.1L1.849,2.4V1.93Z" transform="translate(8.995 10.14)" fill="#1d1d1b"/>
      <path id="Tracciato_6181" data-name="Tracciato 6181" d="M2.191,2.1,2.1,2.112l-.4-.2.4.108Z" transform="translate(8.662 10.558)" fill="#006f00"/>
      <path id="Tracciato_6182" data-name="Tracciato 6182" d="M2.1,2.112h0l-.4-.194V1.908h.011L2.1,2l.011.011L2.2,2.1ZM1.76,1.93,2.1,2.1h.075L2.1,2.016Z" transform="translate(8.653 10.56)" fill="#1d1d1b"/>
      <path id="Tracciato_6183" data-name="Tracciato 6183" d="M2.1,2.272,2,2.25,1.716,1.9l.355.247Z" transform="translate(8.755 10.438)" fill="#006f00"/>
      <path id="Tracciato_6184" data-name="Tracciato 6184" d="M2.113,2.282h0l-.1-.022H2.005l-.29-.366h.011l.355.247.043.129Zm-.1-.032.086.022L2.07,2.153l-.312-.226Z" transform="translate(8.741 10.433)" fill="#1d1d1b"/>
      <path id="Tracciato_6185" data-name="Tracciato 6185" d="M1.916,2.4,1.83,2.336l-.1-.452.2.387Z" transform="translate(8.92 10.332)" fill="#006f00"/>
      <path id="Tracciato_6186" data-name="Tracciato 6186" d="M1.926,2.4h0L1.84,2.348V2.326L1.732,1.9l.011-.011.215.366v.022L1.936,2.4ZM1.85,2.326l.075.065.022-.118-.194-.355Z" transform="translate(8.907 10.336)" fill="#1d1d1b"/>
      <path id="Tracciato_6187" data-name="Tracciato 6187" d="M1.8,2.54l-.054-.108.065-.559.054.516Z" transform="translate(9.043 10.22)" fill="#006f00"/>
      <path id="Tracciato_6188" data-name="Tracciato 6188" d="M1.8,2.551h0l-.054-.108.054-.57h.011l.054.527Zm-.043-.108.043.086L1.854,2.4l-.043-.473Z" transform="translate(9.044 10.218)" fill="#1d1d1b"/>
      <path id="Tracciato_6189" data-name="Tracciato 6189" d="M2.206,2.07l-.086.022-.409-.172.4.075Z" transform="translate(8.707 10.666)" fill="#006f00"/>
      <path id="Tracciato_6190" data-name="Tracciato 6190" d="M2.12,2.091h0L1.711,1.93V1.919l.409.075.1.075V2.08Zm-.355-.151.355.151L2.2,2.07l-.086-.065Z" transform="translate(8.702 10.667)" fill="#1d1d1b"/>
      <path id="Tracciato_6191" data-name="Tracciato 6191" d="M2.139,2.25l-.1-.011-.323-.333.377.215Z" transform="translate(8.782 10.536)" fill="#006f00"/>
      <path id="Tracciato_6192" data-name="Tracciato 6192" d="M2.139,2.26h0l-.1-.011H2.031l-.312-.333V1.905H1.73l.366.226.054.118Zm-.1-.022.1.011-.054-.118-.333-.194Z" transform="translate(8.78 10.531)" fill="#1d1d1b"/>
      <path id="Tracciato_6193" data-name="Tracciato 6193" d="M2.023,2.36l-.1-.043L1.733,1.9l.29.333Z" transform="translate(8.913 10.458)" fill="#006f00"/>
      <path id="Tracciato_6194" data-name="Tracciato 6194" d="M2.022,2.37h0l-.1-.043-.194-.42V1.9h.011l.28.333.011.129V2.37Zm-.086-.054.086.043L2.012,2.23l-.258-.29Z" transform="translate(8.907 10.453)" fill="#1d1d1b"/>
      <path id="Tracciato_6195" data-name="Tracciato 6195" d="M1.888,2.538l-.075-.1-.065-.559.172.495Z" transform="translate(9.063 10.307)" fill="#006f00"/>
      <path id="Tracciato_6196" data-name="Tracciato 6196" d="M1.888,2.549h0l-.075-.108-.065-.549V1.882l.011.011.161.495Zm-.065-.108.065.086.022-.14-.151-.452Z" transform="translate(9.063 10.306)" fill="#1d1d1b"/>
      <path id="Tracciato_6197" data-name="Tracciato 6197" d="M2.235,1.988l-.086.032-.43-.075.409-.011Z" transform="translate(8.778 10.82)" fill="#006f00"/>
      <path id="Tracciato_6198" data-name="Tracciato 6198" d="M2.159,2.031h0l-.441-.075V1.945l.409-.011.118.054V2Zm-.387-.075.387.065.065-.032-.1-.043Z" transform="translate(8.771 10.814)" fill="#1d1d1b"/>
      <path id="Tracciato_6199" data-name="Tracciato 6199" d="M2.208,2.168,2.1,2.179l-.377-.258.409.14Z" transform="translate(8.824 10.685)" fill="#006f00"/>
      <path id="Tracciato_6200" data-name="Tracciato 6200" d="M2.11,2.19h0l-.387-.258V1.921h.011l.409.129v.011l.075.108v.011Zm-.344-.247.344.237.1-.011-.065-.108Z" transform="translate(8.819 10.687)" fill="#1d1d1b"/>
      <path id="Tracciato_6201" data-name="Tracciato 6201" d="M2.047,2.347l-.1-.032-.215-.409.3.312Z" transform="translate(8.937 10.538)" fill="#006f00"/>
      <path id="Tracciato_6202" data-name="Tracciato 6202" d="M2.047,2.368h0l-.1-.043-.215-.409V1.905l.312.312v.011l.011.129Zm-.086-.054.086.032-.011-.118-.28-.28Z" transform="translate(8.936 10.531)" fill="#1d1d1b"/>
      <path id="Tracciato_6203" data-name="Tracciato 6203" d="M1.922,2.535l-.075-.086-.1-.559.194.484Z" transform="translate(9.078 10.378)" fill="#006f00"/>
      <path id="Tracciato_6204" data-name="Tracciato 6204" d="M1.921,2.545V2.534l-.075-.075V2.448l-.1-.559H1.76l.194.484v.011l-.022.151Zm-.065-.1.065.075.022-.14-.172-.441Z" transform="translate(9.073 10.375)" fill="#1d1d1b"/>
      <path id="Tracciato_6205" data-name="Tracciato 6205" d="M2.239,1.994l-.075.043-.441-.054.409-.043Z" transform="translate(8.82 10.877)" fill="#006f00"/>
      <path id="Tracciato_6206" data-name="Tracciato 6206" d="M2.164,2.038h0l-.441-.054V1.973l.409-.032.118.043v.011Zm-.387-.054.387.043.065-.032-.1-.043Z" transform="translate(8.819 10.882)" fill="#1d1d1b"/>
      <path id="Tracciato_6207" data-name="Tracciato 6207" d="M2.222,2.145l-.1.022-.4-.237.42.108Z" transform="translate(8.86 10.77)" fill="#006f00"/>
      <path id="Tracciato_6208" data-name="Tracciato 6208" d="M2.124,2.176h0l-.4-.237.011-.011.42.108.075.118Zm-.355-.226.355.215.1-.011-.075-.108Z" transform="translate(8.849 10.765)" fill="#1d1d1b"/>
      <path id="Tracciato_6209" data-name="Tracciato 6209" d="M2.052,2.356l-.1-.032L1.74,1.915l.3.312Z" transform="translate(8.985 10.624)" fill="#006f00"/>
      <path id="Tracciato_6210" data-name="Tracciato 6210" d="M2.051,2.367h0V2.356l-.1-.032-.215-.409.312.3.011.14Zm-.086-.054.086.032L2.04,2.227l-.28-.28Z" transform="translate(8.975 10.628)" fill="#1d1d1b"/>
      <path id="Tracciato_6211" data-name="Tracciato 6211" d="M1.927,2.544l-.075-.086-.1-.559.194.484Z" transform="translate(9.126 10.463)" fill="#006f00"/>
      <path id="Tracciato_6212" data-name="Tracciato 6212" d="M1.937,2.554l-.011-.011-.075-.086-.1-.559h.011l.194.484-.022.161Zm-.075-.1.065.075.022-.151-.172-.43Z" transform="translate(9.122 10.462)" fill="#1d1d1b"/>
      <path id="Tracciato_6213" data-name="Tracciato 6213" d="M2.245,1.993l-.086.043-.43-.054.4-.032Z" transform="translate(8.87 10.972)" fill="#006f00"/>
      <path id="Tracciato_6214" data-name="Tracciato 6214" d="M2.168,2.057h0L1.727,2V1.992l.409-.043V1.96L2.254,2v.011ZM1.781,2l.387.043.065-.032-.1-.054Z" transform="translate(8.858 10.96)" fill="#1d1d1b"/>
      <path id="Tracciato_6215" data-name="Tracciato 6215" d="M2.227,2.154l-.1.022-.4-.237.42.108Z" transform="translate(8.906 10.857)" fill="#006f00"/>
      <path id="Tracciato_6216" data-name="Tracciato 6216" d="M2.129,2.185h0l-.4-.237V1.938h.011l.42.108.075.108v.011l-.1.022ZM1.774,1.96l.366.215.086-.022-.075-.1Z" transform="translate(8.897 10.853)" fill="#1d1d1b"/>
      <path id="Tracciato_6217" data-name="Tracciato 6217" d="M2.081,2.353l-.1-.032-.237-.4.312.3Z" transform="translate(9.059 10.706)" fill="#006f00"/>
      <path id="Tracciato_6218" data-name="Tracciato 6218" d="M2.091,2.363h0l-.108-.032-.237-.4V1.922h.011l.312.3H2.08l.011.129Zm-.1-.043.086.032L2.07,2.234l-.29-.28Z" transform="translate(9.054 10.697)" fill="#1d1d1b"/>
      <path id="Tracciato_6219" data-name="Tracciato 6219" d="M1.956,2.551,1.88,2.465l-.118-.559.2.484Z" transform="translate(9.2 10.534)" fill="#006f00"/>
      <path id="Tracciato_6220" data-name="Tracciato 6220" d="M1.965,2.561,1.955,2.55l-.075-.075V2.464l-.118-.549V1.905l.011.011.2.473-.011.161Zm-.075-.1.065.075.011-.151-.183-.43Z" transform="translate(9.19 10.531)" fill="#1d1d1b"/>
      <path id="Tracciato_6221" data-name="Tracciato 6221" d="M2.254,2l-.075.043-.441-.032.4-.054Z" transform="translate(8.962 11.04)" fill="#006f00"/>
      <path id="Tracciato_6222" data-name="Tracciato 6222" d="M2.188,2.053h0l-.441-.022-.011-.011h.011l.409-.065.108.054h.011v.011ZM1.8,2.021l.387.022.065-.032-.1-.043Z" transform="translate(8.946 11.028)" fill="#1d1d1b"/>
      <path id="Tracciato_6223" data-name="Tracciato 6223" d="M2.246,2.141l-.1.022-.409-.215.42.086Z" transform="translate(8.992 10.943)" fill="#006f00"/>
      <path id="Tracciato_6224" data-name="Tracciato 6224" d="M2.149,2.183h0L1.74,1.957l.011-.011.42.1.086.108v.011Zm-.366-.215.366.194.1-.011-.086-.1Z" transform="translate(8.985 10.931)" fill="#1d1d1b"/>
      <path id="Tracciato_6225" data-name="Tracciato 6225" d="M2.128,2.316l-.1-.022-.28-.366.344.258Z" transform="translate(9.094 10.764)" fill="#006f00"/>
      <path id="Tracciato_6226" data-name="Tracciato 6226" d="M2.128,2.326h0l-.1-.022H2.02l-.269-.366V1.928l.344.258.032.129Zm-.1-.032.086.022L2.084,2.2,1.773,1.96Z" transform="translate(9.093 10.755)" fill="#1d1d1b"/>
      <path id="Tracciato_6227" data-name="Tracciato 6227" d="M2.032,2.523l-.086-.075L1.763,1.91l.258.452Z" transform="translate(9.209 10.579)" fill="#006f00"/>
      <path id="Tracciato_6228" data-name="Tracciato 6228" d="M2.042,2.534H2.031l-.086-.075V2.448L1.762,1.91h.011l.269.452v.172Zm-.086-.086.075.065v-.14l-.237-.409Z" transform="translate(9.2 10.579)" fill="#1d1d1b"/>
      <path id="Tracciato_6229" data-name="Tracciato 6229" d="M2.261,1.992l-.075.054-.441.011.4-.1Z" transform="translate(9.032 11.062)" fill="#006f00"/>
      <path id="Tracciato_6230" data-name="Tracciato 6230" d="M1.745,2.067h0V2.056l.4-.1.118.032h.011L2.261,2,2.2,2.045H2.186Zm.4-.1L1.8,2.056l.387-.011L2.251,2Z" transform="translate(9.034 11.058)" fill="#1d1d1b"/>
      <path id="Tracciato_6231" data-name="Tracciato 6231" d="M2.274,2.093l-.1.032-.43-.172L2.177,2Z" transform="translate(9.048 11)" fill="#006f00"/>
      <path id="Tracciato_6232" data-name="Tracciato 6232" d="M2.176,2.136h0l-.43-.172V1.953L2.176,2h.011l.1.1L2.273,2.1Zm-.387-.172.387.161.086-.032-.086-.086Z" transform="translate(9.044 10.999)" fill="#1d1d1b"/>
      <path id="Tracciato_6233" data-name="Tracciato 6233" d="M2.165,2.291l-.1-.011-.312-.344.366.226Z" transform="translate(9.148 10.832)" fill="#006f00"/>
      <path id="Tracciato_6234" data-name="Tracciato 6234" d="M2.165,2.3h0l-.1-.011H2.057l-.3-.344V1.935l.366.237h.011l.043.129Zm-.1-.022.1.011-.043-.108-.333-.215Z" transform="translate(9.141 10.823)" fill="#1d1d1b"/>
      <path id="Tracciato_6235" data-name="Tracciato 6235" d="M2.089,2.508l-.1-.065-.226-.527.3.43Z" transform="translate(9.245 10.638)" fill="#006f00"/>
      <path id="Tracciato_6236" data-name="Tracciato 6236" d="M2.089,2.517h0l-.1-.065-.226-.527.011-.011.3.441.022.151v.011ZM2,2.442l.086.065-.022-.151L1.8,1.969Z" transform="translate(9.239 10.628)" fill="#1d1d1b"/>
      <path id="Tracciato_6237" data-name="Tracciato 6237" d="M2.26,1.985l-.075.054-.43.065.387-.14Z" transform="translate(9.124 11.105)" fill="#006f00"/>
      <path id="Tracciato_6238" data-name="Tracciato 6238" d="M1.754,2.114V2.1l.387-.14.118.022H2.27V2L2.2,2.049Zm.387-.14-.333.118L2.2,2.038,2.249,2Z" transform="translate(9.122 11.097)" fill="#1d1d1b"/>
      <path id="Tracciato_6239" data-name="Tracciato 6239" d="M2.292,2.057,2.2,2.1l-.441-.14.43.011Z" transform="translate(9.123 11.071)" fill="#006f00"/>
      <path id="Tracciato_6240" data-name="Tracciato 6240" d="M2.2,2.1h0l-.441-.129V1.96l.441.011.1.086H2.3l-.011.011Zm-.4-.129.4.118.086-.032-.1-.075Z" transform="translate(9.122 11.067)" fill="#1d1d1b"/>
      <path id="Tracciato_6241" data-name="Tracciato 6241" d="M2.236,2.206l-.108.011-.366-.269.4.151Z" transform="translate(9.208 10.944)" fill="#006f00"/>
      <path id="Tracciato_6242" data-name="Tracciato 6242" d="M2.148,2.227H2.138l-.377-.269V1.947h.011l.409.14V2.1l.075.108v.011H2.245ZM1.8,1.969l.344.247.086-.011L2.17,2.1Z" transform="translate(9.19 10.94)" fill="#1d1d1b"/>
      <path id="Tracciato_6243" data-name="Tracciato 6243" d="M2.209,2.432,2.1,2.388l-.333-.463.387.355Z" transform="translate(9.258 10.735)" fill="#006f00"/>
      <path id="Tracciato_6244" data-name="Tracciato 6244" d="M2.209,2.441h0L2.1,2.4l-.333-.463V1.925h.011l.387.355v.011l.054.14v.011Zm-.1-.054.1.043-.054-.14-.344-.323Z" transform="translate(9.258 10.726)" fill="#1d1d1b"/>
      <path id="Tracciato_6245" data-name="Tracciato 6245" d="M2.242,1.967l-.054.075-.42.14.344-.2Z" transform="translate(9.263 11.136)" fill="#006f00"/>
      <path id="Tracciato_6246" data-name="Tracciato 6246" d="M1.779,2.193H1.768V2.182l.344-.215h.14l-.065.075Zm.344-.215-.3.183.366-.129.043-.054Z" transform="translate(9.258 11.136)" fill="#1d1d1b"/>
      <path id="Tracciato_6247" data-name="Tracciato 6247" d="M2.314,2.028l-.086.065L1.765,2.05l.43-.086Z" transform="translate(9.231 11.104)" fill="#006f00"/>
      <path id="Tracciato_6248" data-name="Tracciato 6248" d="M2.228,2.093h0l-.463-.032V2.05l.43-.086.118.065v.011Zm-.42-.043.42.032L2.3,2.039,2.2,1.975Z" transform="translate(9.229 11.106)" fill="#1d1d1b"/>
      <path id="Tracciato_6249" data-name="Tracciato 6249" d="M2.263,2.19l-.1.011-.4-.247.42.129Z" transform="translate(9.256 10.998)" fill="#006f00"/>
      <path id="Tracciato_6250" data-name="Tracciato 6250" d="M2.165,2.211h0l-.4-.247V1.953h.011l.409.118.011.011.075.108L2.262,2.2ZM1.81,1.975l.355.226.086-.011-.065-.108Z" transform="translate(9.249 10.999)" fill="#1d1d1b"/>
      <path id="Tracciato_6251" data-name="Tracciato 6251" d="M2.236,2.415l-.108-.043-.355-.441.4.333Z" transform="translate(9.309 10.787)" fill="#006f00"/>
      <path id="Tracciato_6252" data-name="Tracciato 6252" d="M2.246,2.415H2.236l-.1-.032H2.128l-.355-.441V1.931h.011l.4.333h.011Zm-.108-.043.1.032-.054-.14-.366-.29Z" transform="translate(9.307 10.784)" fill="#1d1d1b"/>
      <path id="Tracciato_6253" data-name="Tracciato 6253" d="M2.229,1.97l-.054.075-.4.172.333-.237Z" transform="translate(9.347 11.165)" fill="#006f00"/>
      <path id="Tracciato_6254" data-name="Tracciato 6254" d="M1.787,2.228l-.011-.011.344-.237.118-.011h.011v.011L2.2,2.045v.011Zm.333-.237-.29.2.355-.151.043-.065Z" transform="translate(9.337 11.165)" fill="#1d1d1b"/>
      <path id="Tracciato_6255" data-name="Tracciato 6255" d="M2.311,2.022l-.075.065-.463-.011.42-.108Z" transform="translate(9.307 11.143)" fill="#006f00"/>
      <path id="Tracciato_6256" data-name="Tracciato 6256" d="M2.235,2.1h0l-.463-.011V2.075l.42-.108H2.2l.118.054v.011Zm-.42-.022.42.011.075-.054-.118-.054Z" transform="translate(9.297 11.136)" fill="#1d1d1b"/>
      <path id="Tracciato_6257" data-name="Tracciato 6257" d="M2.271,2.195l-.108.011-.387-.247.42.129Z" transform="translate(9.341 11.049)" fill="#006f00"/>
      <path id="Tracciato_6258" data-name="Tracciato 6258" d="M2.174,2.216h0l-.4-.247V1.958h.011l.42.118v.011l.075.108v.011ZM1.819,1.98l.355.226.1-.011L2.2,2.087Z" transform="translate(9.337 11.048)" fill="#1d1d1b"/>
      <path id="Tracciato_6259" data-name="Tracciato 6259" d="M2.244,2.421l-.108-.043-.355-.441.4.333Z" transform="translate(9.392 10.838)" fill="#006f00"/>
      <path id="Tracciato_6260" data-name="Tracciato 6260" d="M2.254,2.432h0l-.108-.043H2.136l-.355-.441V1.937l.409.323H2.2l.054.161Zm-.108-.065.1.032L2.19,2.281l-.366-.3Z" transform="translate(9.385 10.843)" fill="#1d1d1b"/>
      <path id="Tracciato_6261" data-name="Tracciato 6261" d="M2.238,1.975l-.054.075-.4.172.333-.237Z" transform="translate(9.431 11.218)" fill="#006f00"/>
      <path id="Tracciato_6262" data-name="Tracciato 6262" d="M1.795,2.233l-.011-.011.333-.237h.011l.118-.011h.011v.011L2.2,2.05v.011ZM2.128,2l-.29.2.355-.151.043-.065Z" transform="translate(9.415 11.214)" fill="#1d1d1b"/>
      <path id="Tracciato_6263" data-name="Tracciato 6263" d="M2.319,2.027l-.086.065-.452-.011.42-.108Z" transform="translate(9.39 11.194)" fill="#006f00"/>
      <path id="Tracciato_6264" data-name="Tracciato 6264" d="M2.244,2.112h0L1.781,2.1V2.08l.42-.108h.011l.118.054v.022Zm-.42-.032.42.022.075-.054L2.2,1.994Z" transform="translate(9.385 11.184)" fill="#1d1d1b"/>
      <path id="Tracciato_6265" data-name="Tracciato 6265" d="M2.283,2.177l-.1.022-.4-.237.42.108Z" transform="translate(9.456 11.084)" fill="#006f00"/>
      <path id="Tracciato_6266" data-name="Tracciato 6266" d="M2.2,2.2H2.185l-.4-.226L1.8,1.961l.42.108.086.108-.011.011ZM1.83,1.983l.366.2.086-.011-.075-.1Z" transform="translate(9.444 11.077)" fill="#1d1d1b"/>
      <path id="Tracciato_6267" data-name="Tracciato 6267" d="M2.276,2.4,2.168,2.37l-.377-.43.42.323Z" transform="translate(9.489 10.873)" fill="#006f00"/>
      <path id="Tracciato_6268" data-name="Tracciato 6268" d="M2.286,2.4h0L2.178,2.37H2.168l-.377-.43H1.8l.42.312.065.14ZM2.178,2.36l.1.032-.065-.129-.377-.29Z" transform="translate(9.483 10.872)" fill="#1d1d1b"/>
      <path id="Tracciato_6269" data-name="Tracciato 6269" d="M2.239,1.977l-.054.075L1.8,2.246l.323-.258Z" transform="translate(9.555 11.231)" fill="#006f00"/>
      <path id="Tracciato_6270" data-name="Tracciato 6270" d="M1.808,2.256H1.8V2.245L2.12,2H2.13l.118-.022H2.26v.011l-.054.075Zm.323-.247-.28.215.355-.161L2.238,2Z" transform="translate(9.541 11.223)" fill="#1d1d1b"/>
      <path id="Tracciato_6271" data-name="Tracciato 6271" d="M2.331,2.037l-.075.075-.463.011L2.2,1.972Z" transform="translate(9.506 11.186)" fill="#006f00"/>
      <path id="Tracciato_6272" data-name="Tracciato 6272" d="M1.8,2.133l-.011-.011.42-.151.129.065-.075.086H2.256Zm.409-.151-.377.129h.42l.075-.075Z" transform="translate(9.502 11.184)" fill="#1d1d1b"/>
      <path id="Tracciato_6273" data-name="Tracciato 6273" d="M1.98,1.994c.043-.054.151-.258.215-.2s-.161.151-.215.2" transform="translate(11.327 9.322)" fill="#006f00"/>
      <path id="Tracciato_6274" data-name="Tracciato 6274" d="M1.98,2.006h0V2l.032-.054c.043-.065.118-.161.161-.161l.022.011.011.022c0,.043-.075.1-.151.14L2,2Zm.194-.215c-.043,0-.108.1-.151.161L2,1.974l.054-.032c.065-.043.14-.086.14-.129l-.011-.022Z" transform="translate(11.327 9.311)" fill="#1d1d1b"/>
      <path id="Tracciato_6275" data-name="Tracciato 6275" d="M2.192,1.8c-.054.011-.247.011-.237.075s.183-.054.237-.075" transform="translate(11.083 9.526)" fill="#006f00"/>
      <path id="Tracciato_6276" data-name="Tracciato 6276" d="M1.977,1.9h0l-.022-.011V1.856L2.127,1.8h.065v.011l-.075.032-.14.054m.183-.086H2.138l-.172.043-.011.022.022.011.14-.054.043-.022" transform="translate(11.083 9.526)" fill="#1d1d1b"/>
      <path id="Tracciato_6277" data-name="Tracciato 6277" d="M1.952,1.935c.022-.043.065-.2.108-.183s-.075.14-.108.183" transform="translate(11.054 9.016)" fill="#006f00"/>
      <path id="Tracciato_6278" data-name="Tracciato 6278" d="M1.951,1.944h0l.032-.054.086-.14h0l.022.022L2,1.89Zm.118-.194-.086.14v0l.086-.118V1.75Z" transform="translate(11.044 9.018)" fill="#1d1d1b"/>
      <path id="Tracciato_6279" data-name="Tracciato 6279" d="M2.089,1.769c-.032.022-.172.054-.151.1l.151-.1" transform="translate(10.896 9.204)" fill="#006f00"/>
      <path id="Tracciato_6280" data-name="Tracciato 6280" d="M1.957,1.877h0l-.022-.011V1.844l.118-.065.032-.011H2.1l-.043.043-.1.065m.118-.1-.022.011-.108.054v.011l.011.011L2.043,1.8l.032-.022" transform="translate(10.888 9.204)" fill="#1d1d1b"/>
      <path id="Tracciato_6281" data-name="Tracciato 6281" d="M1.929,1.971c.075.043.355.161.3.247s-.226-.183-.3-.247" transform="translate(10.829 11.175)" fill="#006f00"/>
      <path id="Tracciato_6282" data-name="Tracciato 6282" d="M2.2,2.24c-.043,0-.118-.1-.194-.172l-.075-.086V1.971l.086.043c.086.043.215.108.226.172l-.011.032L2.2,2.24M1.982,2l.032.054c.075.086.172.2.2.151L2.229,2.2c-.011-.065-.14-.129-.226-.172L1.982,2" transform="translate(10.82 11.175)" fill="#1d1d1b"/>
      <path id="Tracciato_6283" data-name="Tracciato 6283" d="M2.03,2.248c-.011-.065-.011-.323-.1-.312s.075.237.1.312" transform="translate(10.664 10.833)" fill="#006f00"/>
      <path id="Tracciato_6284" data-name="Tracciato 6284" d="M2.021,2.248h0l-.054-.086-.054-.2.011-.022h.022c.054,0,.075.14.075.237v.075Zm-.075-.3H1.924l-.011.011.065.194L2,2.194l.022-.022C2,2.087,2,1.947,1.945,1.947" transform="translate(10.673 10.833)" fill="#1d1d1b"/>
      <path id="Tracciato_6285" data-name="Tracciato 6285" d="M1.967,1.939c.086.011.387-.032.377.065s-.28-.043-.377-.065" transform="translate(11.2 10.852)" fill="#006f00"/>
      <path id="Tracciato_6286" data-name="Tracciato 6286" d="M2.3,2.045a.678.678,0,0,1-.215-.065l-.118-.032V1.937h.183a.336.336,0,0,1,.194.032L2.353,2,2.3,2.045m-.28-.1.065.022a.678.678,0,0,0,.215.065L2.343,2,2.332,1.98l-.183-.032H2.02Z" transform="translate(11.19 10.843)" fill="#1d1d1b"/>
      <path id="Tracciato_6287" data-name="Tracciato 6287" d="M2.177,2.138c-.043-.054-.172-.269-.226-.215s.161.161.226.215" transform="translate(10.936 10.62)" fill="#006f00"/>
      <path id="Tracciato_6288" data-name="Tracciato 6288" d="M2.187,2.15H2.177L2.1,2.1c-.075-.054-.161-.1-.161-.14l.011-.032.022-.011c.054,0,.118.1.172.172Zm-.215-.226-.022.011v.022l.151.129.054.032-.011-.011c-.054-.075-.129-.183-.172-.183" transform="translate(10.937 10.609)" fill="#1d1d1b"/>
      <path id="Tracciato_6289" data-name="Tracciato 6289" d="M1.988,1.957c.054-.011.258-.118.28-.054s-.215.043-.28.054" transform="translate(11.405 10.317)" fill="#006f00"/>
      <path id="Tracciato_6290" data-name="Tracciato 6290" d="M2,1.969H1.988V1.958l.065-.022a.59.59,0,0,1,.183-.054l.043.032-.011.022c-.011.032-.075.032-.151.032H2m.054-.011h.065l.151-.022V1.915l-.032-.022-.183.054-.022.011Z" transform="translate(11.405 10.316)" fill="#1d1d1b"/>
      <path id="Tracciato_6291" data-name="Tracciato 6291" d="M2.181,1.99c-.043-.022-.194-.151-.215-.1s.161.075.215.1" transform="translate(11.169 10.285)" fill="#006f00"/>
      <path id="Tracciato_6292" data-name="Tracciato 6292" d="M2.19,2h0l-.075-.022-.151-.054L1.975,1.9,2,1.879l.151.086.032.022ZM2,1.89H1.975v.022l.14.054.032.011-.011-.011L2,1.89" transform="translate(11.171 10.277)" fill="#1d1d1b"/>
      <path id="Tracciato_6293" data-name="Tracciato 6293" d="M1.993,1.99c.054-.032.2-.2.247-.151s-.183.118-.247.151" transform="translate(11.454 9.789)" fill="#006f00"/>
      <path id="Tracciato_6294" data-name="Tracciato 6294" d="M1.993,2h0V1.99l.054-.043c.054-.054.129-.118.172-.118H2.24l.011.043-.172.1L2,2Zm.226-.161c-.043,0-.118.065-.172.118l-.011.011.043-.011.161-.086V1.851L2.219,1.84" transform="translate(11.454 9.789)" fill="#1d1d1b"/>
      <path id="Tracciato_6295" data-name="Tracciato 6295" d="M2.2,1.86c-.054,0-.237-.043-.237.011s.183,0,.237-.011" transform="translate(11.21 9.93)" fill="#006f00"/>
      <path id="Tracciato_6296" data-name="Tracciato 6296" d="M2.01,1.908h0l-.043-.022.011-.022.065-.022.118.011.054.011v.011l-.075.011-.129.022m.032-.054-.065.011v.011L2.01,1.9l.129-.022.043-.011H2.161l-.118-.011" transform="translate(11.2 9.926)" fill="#1d1d1b"/>
      <path id="Tracciato_6297" data-name="Tracciato 6297" d="M2.106,1.782c.1.022.172.065.161.075s-.086.011-.183-.011a.355.355,0,0,1-.161-.075c.011-.022.086-.011.183.011" transform="translate(10.771 9.115)" fill="#006f00"/>
      <path id="Tracciato_6298" data-name="Tracciato 6298" d="M2.224,1.877l-.14-.022a.312.312,0,0,1-.161-.075l.032-.022.151.032.161.075-.043.011M1.955,1.77H1.923v.011l.161.065.14.032.032-.011A.513.513,0,0,0,2.1,1.791l-.14-.022" transform="translate(10.771 9.106)" fill="#1d1d1b"/>
      <path id="Tracciato_6299" data-name="Tracciato 6299" d="M2.1,1.828c.086.054.151.118.14.129s-.086-.022-.172-.075-.151-.118-.14-.129.086.022.172.075" transform="translate(10.789 9.026)" fill="#006f00"/>
      <path id="Tracciato_6300" data-name="Tracciato 6300" d="M2.227,1.976a.335.335,0,0,1-.161-.086c-.075-.043-.151-.108-.14-.129l.011-.011.161.086.108.075.032.054Zm-.29-.215H1.926c0,.011.043.065.14.129l.161.075h.011l-.032-.043L2.1,1.836l-.161-.075" transform="translate(10.789 9.018)" fill="#1d1d1b"/>
      <path id="Tracciato_6301" data-name="Tracciato 6301" d="M1.963,1.922a.3.3,0,0,0,.075.161c.022,0,.011-.086-.011-.183l-.065-.161c-.032.011-.022.086,0,.183" transform="translate(10.967 8.911)" fill="#006f00"/>
      <path id="Tracciato_6302" data-name="Tracciato 6302" d="M2.044,2.093h0l-.075-.161L1.947,1.8c-.011-.043,0-.054.011-.065s.054.086.075.172l.032.118v.065Zm-.086-.344h0L1.947,1.8l.032.118.054.161h.011l.011-.054L2.033,1.91l-.075-.161" transform="translate(10.962 8.901)" fill="#1d1d1b"/>
      <path id="Tracciato_6303" data-name="Tracciato 6303" d="M2.012,1.914l.108.151c.032-.022,0-.1-.054-.183s-.108-.151-.129-.14.022.086.075.172" transform="translate(10.886 8.929)" fill="#006f00"/>
      <path id="Tracciato_6304" data-name="Tracciato 6304" d="M2.145,2.063h0c-.032,0-.086-.065-.129-.14s-.1-.161-.075-.183h.011c.022,0,.075.075.118.151L2.134,2C2.155,2.041,2.155,2.063,2.145,2.063Zm-.194-.312h0c-.011.011.011.075.065.172s.108.14.129.14l-.011-.054-.065-.118a.426.426,0,0,0-.118-.14" transform="translate(10.883 8.921)" fill="#1d1d1b"/>
      <path id="Tracciato_6305" data-name="Tracciato 6305" d="M2.092,1.855c.075.065.129.14.108.151s-.075-.032-.151-.108-.129-.14-.118-.151a.508.508,0,0,1,.161.108" transform="translate(10.828 8.989)" fill="#006f00"/>
      <path id="Tracciato_6306" data-name="Tracciato 6306" d="M2.2,2.015c-.032,0-.086-.043-.161-.108s-.118-.14-.108-.151l.011-.011.151.108.086.108L2.211,2Zm-.258-.258H1.931a.546.546,0,0,0,.118.151.385.385,0,0,0,.151.108V2l-.022-.043-.086-.1a.385.385,0,0,0-.151-.108" transform="translate(10.838 8.979)" fill="#1d1d1b"/>
      <path id="Tracciato_6307" data-name="Tracciato 6307" d="M2.085,1.758c.108.022.183.054.183.075s-.1.011-.194-.011-.194-.054-.183-.075a.4.4,0,0,1,.194.011" transform="translate(10.458 8.924)" fill="#006f00"/>
      <path id="Tracciato_6308" data-name="Tracciato 6308" d="M2.224,1.857l-.151-.022c-.086-.022-.194-.054-.183-.075l.054-.022.151.022c.086.022.183.054.183.075l-.054.022m-.28-.108L1.9,1.761c-.011.011.054.043.172.075l.151.011h.043c.011-.022-.065-.054-.172-.075L1.944,1.75" transform="translate(10.448 8.911)" fill="#1d1d1b"/>
      <path id="Tracciato_6309" data-name="Tracciato 6309" d="M2.023,1.887c.075.075.151.118.161.108s-.032-.086-.118-.161-.151-.118-.161-.108.032.086.118.161" transform="translate(10.542 8.763)" fill="#006f00"/>
      <path id="Tracciato_6310" data-name="Tracciato 6310" d="M2.191,1.993h0a.337.337,0,0,1-.161-.108c-.075-.065-.14-.14-.129-.161h.011a.394.394,0,0,1,.161.108l.1.1Zm-.28-.269h0a.472.472,0,0,0,.118.151.337.337,0,0,0,.161.108l-.022-.054-.1-.1-.161-.108" transform="translate(10.536 8.765)" fill="#1d1d1b"/>
      <path id="Tracciato_6311" data-name="Tracciato 6311" d="M2.088,1.8a.508.508,0,0,1,.161.118c-.011.022-.1-.011-.194-.054s-.161-.108-.161-.129a.359.359,0,0,1,.194.065" transform="translate(10.488 8.84)" fill="#006f00"/>
      <path id="Tracciato_6312" data-name="Tracciato 6312" d="M2.218,1.935l-.172-.065-.151-.118V1.742l.011-.011a.434.434,0,0,1,.172.075c.086.043.172.1.161.118Zm-.312-.194H1.895v.011c0,.022.075.065.161.108a.4.4,0,0,0,.161.065h.011a.405.405,0,0,0-.151-.118l-.172-.065" transform="translate(10.498 8.833)" fill="#1d1d1b"/>
      <path id="Tracciato_6313" data-name="Tracciato 6313" d="M2.179,1.879c.118.075.2.151.183.172s-.118-.022-.237-.1-.194-.151-.183-.172.118.022.237.1" transform="translate(10.955 9.277)" fill="#006f00"/>
      <path id="Tracciato_6314" data-name="Tracciato 6314" d="M2.351,2.077a.645.645,0,0,1-.226-.108c-.1-.065-.194-.151-.183-.183l.011-.011a.6.6,0,0,1,.237.108c.1.065.194.151.183.183Zm-.387-.29H1.953c-.011.022.065.1.183.172a.626.626,0,0,0,.215.108h.011c.011-.022-.065-.1-.183-.172a.547.547,0,0,0-.215-.108" transform="translate(10.946 9.272)" fill="#1d1d1b"/>
      <path id="Tracciato_6315" data-name="Tracciato 6315" d="M2.147,1.949c.086.108.151.215.129.237s-.108-.065-.2-.183-.14-.215-.118-.237.108.075.194.183" transform="translate(11.02 9.164)" fill="#006f00"/>
      <path id="Tracciato_6316" data-name="Tracciato 6316" d="M2.275,2.185a.4.4,0,0,1-.194-.172C1.995,1.9,1.93,1.8,1.952,1.776l.011-.011c.032,0,.108.075.194.183s.151.215.129.237Zm-.312-.409h0c-.022.011.032.108.118.226a.5.5,0,0,0,.194.183c.022-.011-.022-.1-.118-.237a.643.643,0,0,0-.194-.172" transform="translate(11.011 9.165)" fill="#1d1d1b"/>
      <path id="Tracciato_6317" data-name="Tracciato 6317" d="M1.974,2a.534.534,0,0,0,.032.258c.032,0,.054-.118.065-.258s-.011-.247-.032-.247-.054.108-.065.247" transform="translate(11.268 9.087)" fill="#006f00"/>
      <path id="Tracciato_6318" data-name="Tracciato 6318" d="M2.006,2.263h0c-.032,0-.032-.129-.032-.247s.032-.258.065-.258.043.14.043.258c-.022.118-.043.247-.075.247m.032-.495c-.032,0-.054.1-.065.247s.011.247.032.247.054-.108.054-.247,0-.247-.022-.247" transform="translate(11.268 9.087)" fill="#1d1d1b"/>
      <path id="Tracciato_6319" data-name="Tracciato 6319" d="M2,2.025c.032.14.086.247.108.247S2.117,2.143,2.085,2s-.075-.247-.108-.247-.011.129.022.269" transform="translate(11.19 9.077)" fill="#006f00"/>
      <path id="Tracciato_6320" data-name="Tracciato 6320" d="M2.106,2.271h0c-.022,0-.075-.118-.108-.237l-.032-.183.022-.1c.032,0,.086.129.108.247l.032.183c.011.054,0,.086-.011.086Zm-.118-.506h0l-.011.075.032.183a.567.567,0,0,0,.1.247h.011l.011-.086L2.1,2c-.043-.14-.086-.237-.108-.237" transform="translate(11.19 9.067)" fill="#1d1d1b"/>
      <path id="Tracciato_6321" data-name="Tracciato 6321" d="M2.124,1.969c.065.129.108.237.086.247s-.1-.075-.172-.2-.1-.237-.075-.247.1.075.161.2" transform="translate(11.097 9.133)" fill="#006f00"/>
      <path id="Tracciato_6322" data-name="Tracciato 6322" d="M2.2,2.234c-.032,0-.108-.108-.161-.215s-.108-.237-.075-.247V1.761c.032,0,.108.108.161.215l.075.172c.022.043.022.075.011.086Zm-.237-.463h0c-.011.011,0,.108.086.247.065.129.129.2.151.2,0,0,.011-.022-.011-.075l-.065-.172c-.075-.118-.14-.2-.161-.2" transform="translate(11.102 9.126)" fill="#1d1d1b"/>
      <path id="Tracciato_6323" data-name="Tracciato 6323" d="M2.177,1.969c.1.1.161.194.14.215s-.108-.054-.2-.151-.161-.194-.151-.215.118.054.215.151" transform="translate(11.141 9.649)" fill="#006f00"/>
      <path id="Tracciato_6324" data-name="Tracciato 6324" d="M2.305,2.191a.538.538,0,0,1-.2-.151L1.983,1.9l-.022-.075.011-.011a.538.538,0,0,1,.2.151l.118.14.032.086Zm-.333-.366H1.961l.032.075.118.14a.505.505,0,0,0,.194.14h.011l-.032-.065a.682.682,0,0,0-.118-.14.458.458,0,0,0-.194-.151" transform="translate(11.142 9.643)" fill="#1d1d1b"/>
      <path id="Tracciato_6325" data-name="Tracciato 6325" d="M2.137,2.021c.065.129.1.247.075.258s-.1-.086-.161-.215-.1-.247-.075-.258.1.086.161.215" transform="translate(11.223 9.554)" fill="#006f00"/>
      <path id="Tracciato_6326" data-name="Tracciato 6326" d="M2.216,2.288c-.032,0-.108-.108-.161-.215L1.991,1.9l-.022-.086L1.991,1.8c.032,0,.108.108.161.226l.065.172.022.086Zm-.226-.473h0a.182.182,0,0,0,0,.086l.075.172c.065.129.129.215.151.215a.182.182,0,0,0,0-.086L2.141,2.03c-.065-.129-.129-.215-.151-.215" transform="translate(11.22 9.545)" fill="#1d1d1b"/>
      <path id="Tracciato_6327" data-name="Tracciato 6327" d="M2.022,2.04c-.032.14-.043.247-.022.258s.075-.1.118-.237.043-.247.011-.258-.075.1-.108.237" transform="translate(11.414 9.535)" fill="#006f00"/>
      <path id="Tracciato_6328" data-name="Tracciato 6328" d="M2,2.309H2V2.3s-.022-.022,0-.075L2.02,2.04c.032-.118.086-.237.118-.237l.011.086-.032.183c-.032.118-.086.237-.118.237m.14-.495c-.032,0-.065.1-.118.226L2,2.223V2.3c.022,0,.075-.1.108-.237l.032-.172V1.814Z" transform="translate(11.416 9.535)" fill="#1d1d1b"/>
      <path id="Tracciato_6329" data-name="Tracciato 6329" d="M1.988,2.068c.011.151.032.269.054.258s.043-.118.043-.258S2.053,1.8,2.031,1.8s-.043.118-.043.269" transform="translate(11.405 9.496)" fill="#006f00"/>
      <path id="Tracciato_6330" data-name="Tracciato 6330" d="M2.052,2.337c-.032,0-.065-.14-.065-.269L2,1.885,2.03,1.8c.032,0,.054.14.065.269l-.011.194-.022.075ZM2.03,1.81l-.022.075L2,2.068c0,.161.032.258.054.258v0l.022-.075.011-.183c0-.151-.032-.258-.054-.258" transform="translate(11.395 9.496)" fill="#1d1d1b"/>
      <path id="Tracciato_6331" data-name="Tracciato 6331" d="M2.108,2.04c.043.14.054.258.032.269s-.086-.1-.118-.247S1.968,1.8,1.99,1.8s.075.1.118.237" transform="translate(11.317 9.535)" fill="#006f00"/>
      <path id="Tracciato_6332" data-name="Tracciato 6332" d="M2.139,2.318c-.032,0-.086-.118-.118-.247l-.043-.183L2,1.8c.032,0,.086.129.118.247S2.182,2.308,2.139,2.318ZM2,1.813H2l-.011.075.043.183c.032.151.086.237.108.237s.011-.108-.022-.258-.1-.237-.118-.237" transform="translate(11.308 9.526)" fill="#1d1d1b"/>
      <path id="Tracciato_6333" data-name="Tracciato 6333" d="M2.132,2.066c.043.129.065.247.043.258s-.086-.086-.14-.226-.086-.237-.054-.247.086.086.151.215" transform="translate(11.218 9.993)" fill="#006f00"/>
      <path id="Tracciato_6334" data-name="Tracciato 6334" d="M2.17,2.333c-.032,0-.1-.108-.14-.226s-.075-.247-.054-.258h.011c.032,0,.1.108.14.226l.054.172c.011.054.011.075,0,.086ZM1.987,1.86h0c-.022.011,0,.108.054.247a.606.606,0,0,0,.129.215h.011a.129.129,0,0,0,0-.075l-.065-.172c-.054-.14-.108-.215-.129-.215" transform="translate(11.223 9.984)" fill="#1d1d1b"/>
      <path id="Tracciato_6335" data-name="Tracciato 6335" d="M2.079,2.1c.011.151,0,.269-.032.269s-.054-.118-.065-.258.011-.269.032-.269.054.108.065.258" transform="translate(11.324 9.935)" fill="#006f00"/>
      <path id="Tracciato_6336" data-name="Tracciato 6336" d="M2.048,2.381c-.032,0-.054-.129-.065-.269s0-.269.032-.269.065.14.075.269,0,.269-.043.269m-.032-.527c-.022,0-.032.1-.022.258a.653.653,0,0,0,.054.269c.022-.011.043-.1.032-.269-.011-.151-.043-.258-.065-.258" transform="translate(11.323 9.926)" fill="#1d1d1b"/>
      <path id="Tracciato_6337" data-name="Tracciato 6337" d="M2.108,2.03c-.086.108-.14.215-.118.237s.108-.065.194-.183.14-.215.118-.226-.108.065-.194.172" transform="translate(11.372 10.04)" fill="#006f00"/>
      <path id="Tracciato_6338" data-name="Tracciato 6338" d="M2,2.274H1.992c-.032-.022.043-.14.118-.237s.151-.183.183-.183H2.3c.022.022-.043.14-.118.237s-.151.183-.183.183m.29-.409a.545.545,0,0,0-.183.172c-.086.118-.129.215-.108.226a.545.545,0,0,0,.183-.172A.511.511,0,0,0,2.3,1.865Z" transform="translate(11.369 10.033)" fill="#1d1d1b"/>
      <path id="Tracciato_6339" data-name="Tracciato 6339" d="M2.054,2.083c-.065.14-.086.258-.054.269s.075-.1.129-.237.086-.258.054-.269-.075.1-.129.237" transform="translate(11.382 9.954)" fill="#006f00"/>
      <path id="Tracciato_6340" data-name="Tracciato 6340" d="M2.012,2.352H2c-.011,0-.022-.032-.011-.086l.054-.183c.043-.118.108-.237.14-.237s0,.151-.043.28-.1.226-.129.226m.172-.495c-.022,0-.075.086-.129.226L2,2.266c-.011.065,0,.075,0,.075l.011.011a.508.508,0,0,0,.118-.237C2.194,1.964,2.205,1.868,2.184,1.857Z" transform="translate(11.382 9.955)" fill="#1d1d1b"/>
      <path id="Tracciato_6341" data-name="Tracciato 6341" d="M2.086,2.115c-.022.151-.054.258-.075.258s-.032-.118-.022-.269.054-.258.075-.258.032.118.022.269" transform="translate(11.372 9.955)" fill="#006f00"/>
      <path id="Tracciato_6342" data-name="Tracciato 6342" d="M2.017,2.383h0c-.032,0-.043-.14-.022-.269s.043-.269.075-.269l.032.086-.011.194c-.011.129-.043.258-.075.258m.054-.527c-.022,0-.054.108-.075.258s0,.258.022.258.054-.1.065-.247l.011-.194-.011-.075Z" transform="translate(11.366 9.945)" fill="#1d1d1b"/>
      <path id="Tracciato_6343" data-name="Tracciato 6343" d="M2.077,2.176c.022.161.011.3-.022.3a.581.581,0,0,1-.086-.29c-.022-.161-.011-.3.011-.3s.075.129.1.29" transform="translate(11.111 10.345)" fill="#006f00"/>
      <path id="Tracciato_6344" data-name="Tracciato 6344" d="M2.069,2.488c-.043,0-.086-.151-.1-.29s-.022-.3.022-.312.075.151.1.29S2.112,2.488,2.069,2.488ZM1.993,1.9c-.022,0-.032.129-.011.29s.065.29.086.29.032-.129.011-.3-.065-.28-.086-.28" transform="translate(11.109 10.345)" fill="#1d1d1b"/>
      <path id="Tracciato_6345" data-name="Tracciato 6345" d="M2.1,2.2c-.032.172-.086.3-.108.29s-.032-.14,0-.312.086-.3.118-.29.022.151-.011.312" transform="translate(11.168 10.325)" fill="#006f00"/>
      <path id="Tracciato_6346" data-name="Tracciato 6346" d="M1.988,2.507h0c-.022-.011-.032-.043-.022-.108a.807.807,0,0,1,.022-.215c.032-.151.075-.3.118-.3s.032.172,0,.323-.075.3-.118.3m.118-.613c-.032,0-.075.118-.108.29L1.967,2.4l.022.1c.022,0,.075-.118.108-.29.043-.194.032-.312.011-.312" transform="translate(11.157 10.316)" fill="#1d1d1b"/>
      <path id="Tracciato_6347" data-name="Tracciato 6347" d="M2.169,2.049c-.129.1-.215.2-.2.226s.14-.043.269-.14.226-.2.2-.226-.14.043-.269.14" transform="translate(11.17 10.527)" fill="#006f00"/>
      <path id="Tracciato_6348" data-name="Tracciato 6348" d="M1.98,2.291H1.969c-.032-.032.075-.151.194-.237A.677.677,0,0,1,2.421,1.9h.011L2.389,2l-.151.151a.772.772,0,0,1-.258.14m.441-.377a.756.756,0,0,0-.247.14c-.14.108-.215.2-.2.226H1.98a.591.591,0,0,0,.247-.14L2.389,2l.054-.075Z" transform="translate(11.166 10.521)" fill="#1d1d1b"/>
      <path id="Tracciato_6349" data-name="Tracciato 6349" d="M2.11,2.12c-.1.14-.161.269-.14.29s.129-.086.226-.226.161-.269.14-.29-.129.086-.226.226" transform="translate(11.187 10.413)" fill="#006f00"/>
      <path id="Tracciato_6350" data-name="Tracciato 6350" d="M1.983,2.42h0l-.011-.011c-.011-.011-.011-.043.022-.1L2.1,2.119c.1-.129.194-.226.226-.226h.011c.011.011.011.043-.022.108l-.108.194c-.1.129-.194.226-.226.226M2.327,1.9c-.032,0-.118.086-.215.226L2,2.313,1.972,2.4l.011.011c.032,0,.118-.086.215-.226a.872.872,0,0,0,.108-.194C2.338,1.936,2.338,1.915,2.327,1.9Z" transform="translate(11.185 10.414)" fill="#1d1d1b"/>
      <path id="Tracciato_6351" data-name="Tracciato 6351" d="M2.138,2.2c-.065.161-.14.28-.161.269s0-.151.054-.312.14-.28.172-.269,0,.151-.065.312" transform="translate(11.169 10.364)" fill="#006f00"/>
      <path id="Tracciato_6352" data-name="Tracciato 6352" d="M1.987,2.48H1.976c-.011-.011-.022-.043,0-.108l.054-.2c.065-.14.129-.28.172-.28.043.022,0,.172-.054.323-.054.129-.129.269-.161.269M2.2,1.9a.758.758,0,0,0-.161.269l-.065.2a.221.221,0,0,0,0,.1h.011c.022,0,.086-.1.151-.269S2.224,1.91,2.2,1.9Z" transform="translate(11.169 10.365)" fill="#1d1d1b"/>
      <path id="Tracciato_6353" data-name="Tracciato 6353" d="M2.129,2.241c-.075.161-.161.29-.194.28s0-.161.086-.333.161-.29.194-.269-.011.161-.086.323" transform="translate(10.769 10.636)" fill="#006f00"/>
      <path id="Tracciato_6354" data-name="Tracciato 6354" d="M1.948,2.528H1.937c-.043-.022.011-.183.086-.333s.151-.28.194-.28h.011c.032.022-.022.183-.086.333s-.151.28-.194.28m.269-.6c-.032,0-.108.108-.183.269-.086.183-.118.312-.086.323a.665.665,0,0,0,.183-.269C2.217,2.076,2.249,1.937,2.217,1.926Z" transform="translate(10.757 10.628)" fill="#1d1d1b"/>
      <path id="Tracciato_6355" data-name="Tracciato 6355" d="M2.214,2.216c-.129.14-.258.237-.29.215s.065-.161.194-.3.269-.226.29-.2-.065.151-.194.29" transform="translate(10.748 10.703)" fill="#006f00"/>
      <path id="Tracciato_6356" data-name="Tracciato 6356" d="M1.948,2.449l-.022-.011c-.032-.032.075-.183.194-.3a.685.685,0,0,1,.28-.215H2.41c.022.022.011.054-.032.118a1.155,1.155,0,0,1-.161.183c-.118.129-.226.226-.269.226M2.4,1.933a.68.68,0,0,0-.269.215c-.151.151-.215.269-.194.28h.011a.825.825,0,0,0,.269-.2l.151-.194.043-.1Z" transform="translate(10.746 10.697)" fill="#1d1d1b"/>
      <path id="Tracciato_6357" data-name="Tracciato 6357" d="M2.245,1.969c-.183.022-.333.054-.323.1s.151.043.333.022.333-.054.323-.086-.151-.054-.333-.032" transform="translate(10.761 11.048)" fill="#006f00"/>
      <path id="Tracciato_6358" data-name="Tracciato 6358" d="M2.115,2.109h0c-.054,0-.194,0-.194-.043L2.018,2l.237-.032.151-.011c.054,0,.183,0,.194.043,0,.022-.032.043-.1.054a.773.773,0,0,1-.237.043l-.151.011m.29-.14-.151.011a1.334,1.334,0,0,0-.237.043l-.086.032c0,.022.065.043.183.043l.151-.011a1.055,1.055,0,0,0,.226-.043l.1-.032c0-.022-.065-.043-.183-.043" transform="translate(10.751 11.048)" fill="#1d1d1b"/>
      <path id="Tracciato_6359" data-name="Tracciato 6359" d="M2.234,2.033c-.183.075-.323.161-.312.194s.172,0,.344-.075.323-.161.3-.194-.161,0-.333.075" transform="translate(10.761 10.919)" fill="#006f00"/>
      <path id="Tracciato_6360" data-name="Tracciato 6360" d="M1.961,2.246l-.032-.011c-.022-.032.011-.054.075-.1l.215-.108a.982.982,0,0,1,.312-.086l.032.011c.022.022-.011.054-.075.086a1.286,1.286,0,0,1-.215.118,1.4,1.4,0,0,1-.312.086m.57-.29a.937.937,0,0,0-.3.086L2,2.149l-.075.065.032.022a1.345,1.345,0,0,0,.3-.086l.226-.108.075-.075-.032-.011" transform="translate(10.765 10.921)" fill="#1d1d1b"/>
      <path id="Tracciato_6361" data-name="Tracciato 6361" d="M2.235,2.195c-.151.108-.29.183-.312.151s.086-.14.237-.247.3-.183.323-.161-.1.14-.247.258" transform="translate(10.749 10.8)" fill="#006f00"/>
      <path id="Tracciato_6362" data-name="Tracciato 6362" d="M1.939,2.362H1.929c-.022-.022,0-.054.043-.108l.194-.161a.745.745,0,0,1,.3-.161h.022c.022.043-.108.172-.247.269a.745.745,0,0,1-.3.161m.527-.42a.726.726,0,0,0-.29.161,1.023,1.023,0,0,0-.194.161l-.054.086h.011a.818.818,0,0,0,.3-.161c.172-.129.258-.226.237-.247Z" transform="translate(10.744 10.794)" fill="#1d1d1b"/>
      <path id="Tracciato_6363" data-name="Tracciato 6363" d="M2.134,2.254c-.108.151-.215.247-.247.226s.032-.161.14-.3.215-.247.247-.237c.022.032-.032.161-.14.312" transform="translate(10.367 10.881)" fill="#006f00"/>
      <path id="Tracciato_6364" data-name="Tracciato 6364" d="M1.909,2.49l-.022-.011c-.032-.022.043-.172.14-.3s.194-.237.237-.237h.011c.043.032-.043.183-.129.312s-.194.237-.237.237m.355-.538c-.032,0-.129.086-.226.226-.118.151-.161.28-.14.3.043,0,.14-.086.237-.226.108-.161.161-.28.14-.3Z" transform="translate(10.354 10.882)" fill="#1d1d1b"/>
      <path id="Tracciato_6365" data-name="Tracciato 6365" d="M2.2,1.982c-.172,0-.323.032-.323.065s.151.065.323.065.323-.022.323-.065-.14-.065-.323-.065" transform="translate(10.342 11.282)" fill="#006f00"/>
      <path id="Tracciato_6366" data-name="Tracciato 6366" d="M2.2,2.122c-.161,0-.323-.022-.323-.075L1.976,2,2.2,1.982c.161,0,.333.022.333.065s-.172.075-.333.075m0-.14-.226.032-.086.032a.467.467,0,0,0,.312.075.467.467,0,0,0,.312-.075c0-.032-.129-.065-.312-.065" transform="translate(10.342 11.282)" fill="#1d1d1b"/>
      <path id="Tracciato_6367" data-name="Tracciato 6367" d="M2.257,2.2c-.194.086-.355.118-.377.075s.118-.14.312-.226.355-.118.366-.075-.108.14-.3.226" transform="translate(10.34 11.06)" fill="#006f00"/>
      <path id="Tracciato_6368" data-name="Tracciato 6368" d="M1.926,2.314l-.043-.022c-.032-.054.14-.161.3-.237a.952.952,0,0,1,.333-.1l.054.022c.022.054-.14.161-.312.237a1.081,1.081,0,0,1-.333.1m.592-.344a.855.855,0,0,0-.323.1c-.2.086-.323.183-.3.215l.032.022a1.081,1.081,0,0,0,.333-.1c.194-.1.312-.194.3-.226L2.517,1.97" transform="translate(10.338 11.058)" fill="#1d1d1b"/>
      <path id="Tracciato_6369" data-name="Tracciato 6369" d="M3.725,2.741a.979.979,0,1,1-.979-.979.983.983,0,0,1,.979.979" transform="translate(9.249 9.135)" fill="#2563c9"/>
      <path id="Tracciato_6370" data-name="Tracciato 6370" d="M2.746,3.73a.984.984,0,1,1,.99-.99.985.985,0,0,1-.99.99m0-1.958a.974.974,0,1,0,.968.968.971.971,0,0,0-.968-.968" transform="translate(9.249 9.126)" fill="#1d1d1b"/>
      <path id="Tracciato_6371" data-name="Tracciato 6371" d="M2.6,1.771l.194.592h.624l-.506.377.194.592L2.6,2.965l-.506.366.194-.592-.506-.377h.624Z" transform="translate(9.399 9.222)" fill="#ffce08"/>
      <path id="Tracciato_6372" data-name="Tracciato 6372" d="M2.1,3.331H2.093l.194-.6-.495-.355-.011-.011h.635L2.6,1.771H2.62l.183.592h.635l-.506.366.194.6H3.115l-.506-.366Zm.506-.377h0l.495.355-.183-.581.495-.355H2.8V2.363l-.194-.581-.194.581v.011h-.6l.484.355-.183.581Z" transform="translate(9.385 9.223)" fill="#1d1d1b"/>
      <path id="Tracciato_6373" data-name="Tracciato 6373" d="M4.688,7.813a3.12,3.12,0,1,1,3.12-3.12,3.122,3.122,0,0,1-3.12,3.12m0-6.11A2.991,2.991,0,1,0,7.678,4.694,3,3,0,0,0,4.688,1.7" transform="translate(7.307 7.301)" fill="#1d1d1b"/>
      <path id="Tracciato_6374" data-name="Tracciato 6374" d="M4.229,1.621A2.619,2.619,0,1,0,6.843,4.246,2.619,2.619,0,0,0,4.229,1.621m0,4.572A1.952,1.952,0,1,1,6.187,4.246,1.947,1.947,0,0,1,4.229,6.193" transform="translate(7.766 7.76)" fill="#ce1126"/>
      <path id="Tracciato_6375" data-name="Tracciato 6375" d="M4.239,6.87A2.625,2.625,0,1,1,6.864,4.245,2.628,2.628,0,0,1,4.239,6.87m0-5.239A2.614,2.614,0,1,0,6.853,4.245,2.617,2.617,0,0,0,4.239,1.631m0,4.572A1.958,1.958,0,1,1,6.2,4.245,1.958,1.958,0,0,1,4.239,6.2m0-3.9A1.947,1.947,0,1,0,6.186,4.245,1.947,1.947,0,0,0,4.239,2.3" transform="translate(7.756 7.75)" fill="#1d1d1b"/>
      <path id="Tracciato_6376" data-name="Tracciato 6376" d="M1.984,1.883l.011.054L1.9,2H1.887l-.022.022-.011.043v.011l.022.108.161-.032.011.054-.377.065L1.64,2.12l-.011-.043V2.023L1.64,2l.011-.011.011-.022.032-.011h.022l.032-.011.043.011.022.032.022.032.011-.054.043-.022Zm-.151.3-.022-.108L1.8,2.055,1.79,2.023,1.769,2H1.726l-.043.022L1.672,2.1l.032.118Z" transform="translate(7.902 10.316)" fill="#ffed00"/>
      <path id="Tracciato_6377" data-name="Tracciato 6377" d="M2.013,1.847v.29H1.626v-.28h.043v.226h.118V1.869H1.83v.215h.14V1.847Z" transform="translate(7.873 9.967)" fill="#ffed00"/>
      <path id="Tracciato_6378" data-name="Tracciato 6378" d="M1.627,2.1l.011-.151V1.917L1.649,1.9l.011-.043.022-.022.032-.022h.043l.086.043.032.108-.011.1.161.011V2.11Zm.194-.043V1.927L1.81,1.9l-.022-.022-.022-.011H1.724l-.032.022v.032l-.011.032v.108Z" transform="translate(7.883 9.594)" fill="#ffed00"/>
      <path id="Tracciato_6379" data-name="Tracciato 6379" d="M2.054,2.063l-.032.054-.032.032-.032.011H1.914L1.871,2.15H1.849l-.215-.1.011-.043L1.86,2.1l.054.011h.043l.032-.022.022-.043.011-.022V1.977l-.032-.043L1.936,1.9l-.2-.086.011-.043.215.086.065.032.032.043.022.054-.022.075" transform="translate(7.954 9.243)" fill="#ffed00"/>
      <path id="Tracciato_6380" data-name="Tracciato 6380" d="M2.038,1.838l.054.075-.043.108-.075.118-.323-.2.075-.118.032-.043.032-.022.043-.011.043.022.032.032.011.054.022-.022.032-.011.032.011Zm-.226.14L1.855,1.9l.032-.054-.032-.043-.022-.011H1.8l-.022.022-.022.032-.043.065Zm.151.1L2.017,2c.032-.054.032-.1-.011-.118L1.984,1.87H1.952l-.022.022L1.9,1.924,1.855,2Z" transform="translate(8.117 8.93)" fill="#ffed00"/>
      <path id="Tracciato_6381" data-name="Tracciato 6381" d="M2.122,1.822l-.151.194-.3-.247L1.7,1.725l.269.215.118-.151Z" transform="translate(8.307 8.773)" fill="#ffed00"/>
      <rect id="Rettangolo_476" data-name="Rettangolo 476" width="0.046" height="0.389" transform="translate(10.218 10.283) rotate(-45)" fill="#ffed00"/>
      <path id="Tracciato_6382" data-name="Tracciato 6382" d="M1.976,1.721l-.043.032L1.9,1.732H1.836L1.8,1.753,1.772,1.8l-.011.054V1.9l.043.054.043.054.054.022h.054l.032-.022.032-.022.022-.043V1.915L2.03,1.872l.043-.032.022.032v.075l-.022.043-.043.043-.075.043H1.89l-.065-.022L1.761,1.99l-.043-.065L1.707,1.85l.022-.065.043-.065.054-.032.054-.011.054.011.043.032" transform="translate(8.663 8.316)" fill="#ffed00"/>
      <path id="Tracciato_6383" data-name="Tracciato 6383" d="M2.138,1.907l-.054.032-.108-.075-.14.086.032.118L1.826,2.1,1.74,1.692l.054-.032Zm-.194-.075-.151-.118.043.194Z" transform="translate(8.985 8.14)" fill="#ffed00"/>
      <path id="Tracciato_6384" data-name="Tracciato 6384" d="M2.163,1.8A.174.174,0,0,1,2,2.027l-.129.022-.065-.387.129-.022a.174.174,0,0,1,.226.161m-.054.011-.022-.065L2.066,1.7l-.054-.011H1.937L1.873,1.7,1.916,2l.075-.011.065-.022L2.1,1.92l.011-.043V1.812" transform="translate(9.649 7.902)" fill="#ffed00"/>
      <path id="Tracciato_6385" data-name="Tracciato 6385" d="M2.138,2.019h-.29V1.632h.28v.043H1.9v.118h.215v.043H1.9v.14h.237Z" transform="translate(10.031 7.867)" fill="#ffed00"/>
      <path id="Tracciato_6386" data-name="Tracciato 6386" d="M2.125,2.055l-.237-.032.054-.387L2,1.646l-.054.333.183.032Z" transform="translate(10.436 7.899)" fill="#ffed00"/>
      <path id="Tracciato_6387" data-name="Tracciato 6387" d="M2.129,1.659l.129.065.032.022.032.022.022.022.011.032v.032l-.011.022c-.022.054-.054.075-.086.075L2.15,1.928l-.086-.043-.075.14-.043-.032Zm-.043.183.086.054.043.011h.032L2.269,1.9l.022-.032L2.3,1.842V1.82l-.032-.032-.032-.022L2.15,1.713Z" transform="translate(10.995 8.13)" fill="#ffed00"/>
      <path id="Tracciato_6388" data-name="Tracciato 6388" d="M2.247,2.112,2.2,2.08l.043-.118-.129-.108-.108.065-.043-.032.366-.2.043.032Zm.011-.194.065-.183-.161.1Z" transform="translate(11.2 8.355)" fill="#ffed00"/>
      <path id="Tracciato_6389" data-name="Tracciato 6389" d="M2.19,2.2l-.032-.043.054-.1.022-.022V2.006l-.011-.022V1.963l-.065-.075-.14.1L2,1.952l.3-.247.108.129.011.022.022.032v.022l.011.022v.022l-.011.032L2.416,2,2.4,2.006l-.032.032H2.319l-.054-.022V2.06L2.254,2.1Zm0-.344.075.086.022.032.032.011L2.329,2l.032-.011.032-.054-.022-.065L2.3,1.77Z" transform="translate(11.483 8.579)" fill="#ffed00"/>
      <path id="Tracciato_6390" data-name="Tracciato 6390" d="M2.2,2.127l-.032-.054.075-.1-.075-.14-.129.022L2.018,1.8l.409-.054.032.043Zm.075-.183.129-.151-.194.032Z" transform="translate(11.698 9.018)" fill="#ffed00"/>
      <path id="Tracciato_6391" data-name="Tracciato 6391" d="M2.042,2.027V1.952l.022-.075.054-.054.075-.032.075-.011.075.022.054.054.032.065.011.065v.043L2.4,2.092l-.043.022L2.343,2.06h.022l.022-.043L2.4,1.984l-.011-.054-.022-.043-.043-.043-.054-.011L2.2,1.845l-.065.022-.032.043-.022.054v.054l.032.065.054.043L2.225,2.1l-.022-.1L2.246,2l.043.151L2.1,2.189l-.011-.032.032-.022-.075-.108" transform="translate(11.932 9.311)" fill="#ffed00"/>
      <path id="Tracciato_6392" data-name="Tracciato 6392" d="M2.049,2V1.932l.022-.043.022-.022.043-.022h.022L2.2,1.835l.237-.011v.054l-.215.011L2.156,1.9l-.032.011L2.1,1.953,2.092,2l.011.032.022.043.043.011.054.011.226-.011.011.043-.226.011H2.156L2.1,2.115,2.06,2.072,2.049,2" transform="translate(11.998 9.744)" fill="#ffed00"/>
      <path id="Tracciato_6393" data-name="Tracciato 6393" d="M2.049,2.216l.011-.054.118-.032.011-.161-.108-.054V1.861l.377.183V2.1Zm.172-.1L2.4,2.065,2.232,1.99Z" transform="translate(12 10.101)" fill="#ffed00"/>
      <path id="Tracciato_6394" data-name="Tracciato 6394" d="M2.347,2.252,2.2,2.026l-.151-.065.022-.054.151.075.258-.065-.022.065-.2.032.118.172Z" transform="translate(11.969 10.558)" fill="#ffed00"/>
    </g>
  </g>
</svg>
