<svg xmlns="http://www.w3.org/2000/svg" xmlns:xlink="http://www.w3.org/1999/xlink" width="24" height="24" viewBox="0 0 24 24">
  <defs>
    <clipPath id="clip-path">
      <path id="Tracciato_6498" data-name="Tracciato 6498" d="M1.495,12.749a12,12,0,1,0,12-12,11.99,11.99,0,0,0-12,12" transform="translate(-1.495 -0.749)" fill="none"/>
    </clipPath>
  </defs>
  <g id="Pitcairn" transform="translate(-1.495 -0.749)">
    <g id="Raggruppa_206" data-name="Raggruppa 206" transform="translate(1.495 0.749)" clip-path="url(#clip-path)">
      <rect id="Rettangolo_477" data-name="Rettangolo 477" width="47.882" height="24.075" transform="translate(-16.09 -0.032)" fill="#001f80"/>
      <path id="Tracciato_6396" data-name="Tracciato 6396" d="M24.254,2.135V.746H21.563L14.234,4.438V.746H10.317V4.395L3,.746H.308V2.027L5.775,4.782H.308V8.721H5.732L.308,11.455v1.281H3l7.318-3.648v3.67h3.917V9.044l7.329,3.691h2.691V11.347L18.991,8.721h5.263V4.782H18.948Z" transform="translate(-13.085 -0.775)" fill="#fff"/>
      <path id="Tracciato_6397" data-name="Tracciato 6397" d="M24.254,5.578H13.449V.746H11.113V5.578H.308V7.924H11.113v4.832h2.335V7.924H24.254Z" transform="translate(-13.085 -0.778)" fill="#fa0000"/>
      <path id="Tracciato_6398" data-name="Tracciato 6398" d="M3.537,1.494H1.8L9.639,5.433V4.626Z" transform="translate(1.525 6.526)" fill="#fa0000"/>
      <path id="Tracciato_6399" data-name="Tracciato 6399" d="M1.659,4.685H3.392L11.065.746H9.494Z" transform="translate(0.105 -0.779)" fill="#fa0000"/>
      <path id="Tracciato_6400" data-name="Tracciato 6400" d="M4.366,1.349a.3.3,0,0,0-.215.065c-.022.043-.032.1-.086.118l-.011-.118-.043-.172a.549.549,0,0,0-.183-.2l-.054.215L3.752,1.4l.043.1.011.011H3.774l-.1.032-.108.043-.086.065-.118.14-.032.065-.011.054-.011.032v.022l.022.032.043-.022V1.963L3.4,1.93l.011-.043.032-.054.108-.1L3.623,1.7l.086-.022L3.8,1.672l.075.011h.1l.011.011c.032.065-.129.075-.161.108l-.032.1L3.7,1.973l-.022.011.011.032a.265.265,0,0,0,.237.022.251.251,0,0,0,.14-.172.176.176,0,0,0,.075.118l.086.065.043.1a.324.324,0,0,0,.022-.312l-.032-.075c0-.065.054-.1.075-.161V1.5l.032-.151" transform="translate(16.233 2.063)" fill="#007c0d"/>
      <path id="Tracciato_6401" data-name="Tracciato 6401" d="M4.289,2.155H4.279L4.246,2.1,4.236,2.08l-.065-.065-.022-.022-.065-.075a.294.294,0,0,1-.14.14.265.265,0,0,1-.237-.022l-.022-.054L3.7,1.962l.022-.011L3.784,1.9l.022-.032L3.827,1.8,3.9,1.768l.086-.043V1.714l-.011-.022H3.73l-.086.022-.065.043-.108.1L3.439,1.9l-.022.032v.032l-.011.022-.054.032L3.31,1.962l.011-.022V1.908l.022-.054.032-.065.118-.14.086-.065.108-.043.108-.032V1.5l-.032-.1a.258.258,0,0,1,.022-.151l.054-.2V1.036h.022a.675.675,0,0,1,.183.2l.043.183.011.1.032-.054.032-.054a.272.272,0,0,1,.226-.065H4.4v.011l-.032.151v.1l-.043.065-.032.086.022.065.011.022a.324.324,0,0,1-.022.312Zm-.2-.291.011.011.065.1L4.193,2l.065.054.011.022.022.043A.3.3,0,0,0,4.3,1.854l-.011-.022-.022-.075.032-.1L4.332,1.6l.011-.065V1.51l.022-.14a.228.228,0,0,0-.183.065l-.032.043L4.1,1.553H4.085l-.011-.011-.022-.118L4.02,1.251a.659.659,0,0,0-.161-.183l-.054.194-.022.14.043.1.011.011V1.52l-.011.011H3.805L3.7,1.563l-.108.043-.075.054A.456.456,0,0,0,3.4,1.8l-.032.065-.011.043-.011.032v.022l.011.032.032-.011V1.951L3.4,1.929l.011-.022.032-.054a.413.413,0,0,1,.118-.118l.075-.043.086-.022.086-.011.086.011h.1L4,1.682v.011l.011.022a.119.119,0,0,1-.1.075l-.065.032-.022.043-.022.043-.065.065-.022.011L3.708,2l.022.011a.228.228,0,0,0,.2.022.293.293,0,0,0,.14-.161V1.865Z" transform="translate(16.224 2.053)"/>
      <path id="Tracciato_6402" data-name="Tracciato 6402" d="M4.417,1.415A2.248,2.248,0,0,0,4.18,1.2a1.015,1.015,0,0,0-.248-.108.323.323,0,0,0-.258.075.553.553,0,0,0-.108.258.351.351,0,0,1-.129.248c-.065.032-.151.043-.194.1-.065.075-.022.183.043.258a.57.57,0,0,1,.14.248c0,.075-.043.151-.011.215a.171.171,0,0,0,.1.1.588.588,0,0,0,.194.065.359.359,0,0,1-.032-.312.291.291,0,0,1,.237-.108A1.149,1.149,0,0,0,4.18,2.2a.331.331,0,0,0,.226-.248l.022-.086.054-.075a.313.313,0,0,0-.065-.377" transform="translate(15.267 2.578)" fill="#007c0d"/>
      <path id="Tracciato_6403" data-name="Tracciato 6403" d="M3.727,2.684H3.717l-.2-.075a.24.24,0,0,1-.1-.108.262.262,0,0,1,0-.129l.011-.086a.3.3,0,0,0-.108-.194l-.032-.043a.231.231,0,0,1-.043-.28A.212.212,0,0,1,3.372,1.7l.075-.032a.4.4,0,0,0,.129-.237V1.414a.514.514,0,0,1,.108-.248.312.312,0,0,1,.258-.075A.61.61,0,0,1,4.2,1.21a1.08,1.08,0,0,1,.237.2.363.363,0,0,1,.075.4l-.022.032-.032.022-.022.075v.022a.359.359,0,0,1-.237.258.6.6,0,0,1-.194.022H3.932a.3.3,0,0,0-.226.118c-.065.086-.011.215.032.3l-.011.011Zm.161-1.571a.309.309,0,0,0-.194.075.478.478,0,0,0-.1.237v.011a.387.387,0,0,1-.14.258l-.086.032-.108.054a.219.219,0,0,0,.043.258l.032.032a.345.345,0,0,1,.108.215l-.011.086v.118c.011.043.043.065.1.1l.161.065a.354.354,0,0,1-.011-.312.317.317,0,0,1,.237-.118h.086L4.19,2.2a.318.318,0,0,0,.215-.248l.011-.011.011-.065.043-.054L4.491,1.8a.313.313,0,0,0-.075-.366.913.913,0,0,0-.237-.215.613.613,0,0,0-.237-.1l-.054-.011" transform="translate(15.257 2.568)"/>
      <path id="Tracciato_6404" data-name="Tracciato 6404" d="M5.316,3.483l-.043-.108L5.22,3.224l-.065-.172L5.08,2.869l-.032-.1L5,2.675l-.032-.108L4.94,2.46l-.022-.108-.011-.108L4.9,2.137V1.825l.011-.086.011-.086.022-.086L4.961,1.5V1.459l.022-.075.032-.108H4.994l-.032.086a.428.428,0,0,0-.226-.248.516.516,0,0,0-.409-.075l-.14.043c-.108.022-.237-.032-.344-.011a.4.4,0,0,0-.28.226l-.1.118-.086.043a.219.219,0,0,0-.14.215c.011.075.054.151.032.215s-.065.086-.1.14a.254.254,0,0,0,.011.215c.022.043.075.151.118.161l.043-.183.086-.172a2.445,2.445,0,0,1,.28-.3,1.344,1.344,0,0,1,.4-.3,1.244,1.244,0,0,1,.743-.043l.075.011-.022.065-.032.075-.022.075-.022.086-.022.1-.022.108-.011.108-.011.108v.118l.011.118.011.118.011.118.022.118.032.108.032.108.086.194L5.08,3.3l.1.129.043.054.022.032.1.075.011-.011-.032-.1" transform="translate(14.712 1.92)" fill="#007c0d"/>
      <path id="Tracciato_6405" data-name="Tracciato 6405" d="M5.351,3.618H5.34l-.075-.075L5.222,3.5l-.032-.032-.011-.022-.022-.022-.075-.108-.011-.011-.086-.151-.1-.194-.032-.108-.032-.118L4.8,2.617,4.791,2.5,4.78,2.423V2.38L4.77,2.262V2.154l.011-.118V1.96l.011-.022.022-.118.022-.1.011-.032.011-.054.011-.022.011-.054.043-.118-.054-.011a1.2,1.2,0,0,0-.743.032,1.5,1.5,0,0,0-.387.3,2.445,2.445,0,0,0-.28.3l-.086.172-.011.086-.022.1-.022.011c-.043-.011-.086-.086-.118-.172H3.188a.265.265,0,0,1-.011-.237l.043-.054L3.274,1.9a.224.224,0,0,0-.011-.118l-.022-.086a.242.242,0,0,1,.151-.237l.032-.011.054-.022.075-.108L3.564,1.3a.444.444,0,0,1,.291-.237.479.479,0,0,1,.172.011.918.918,0,0,0,.172,0l.075-.022.054-.022a.563.563,0,0,1,.42.075.422.422,0,0,1,.226.226l.011-.011.022-.043.022-.022.011.032-.011.043L5,1.444l-.032.14-.011.043v.032l-.011.032v.054l-.011.1-.011.1v.2l.011.075v.032l.022.108V2.4l.022.065L5,2.574l.043.108.022.065.011.032.011.043.022.054.075.194.043.108.022.054.032.086L5.3,3.36l.043.129.032.108v.011ZM4.511,1.369a1.6,1.6,0,0,1,.366.043l.065.011h.011v.011l-.043.14-.022.043-.011.032v.032l-.022.054-.022.1-.022.1v.043L4.8,2.036l-.011.118v.108L4.8,2.38v.043l.011.075.022.118.022.108.022.118.032.108.1.194.086.151.011.011.075.1.022.032.011.011.032.032.032.043.075.075-.032-.1-.043-.118-.022-.054-.032-.086L5.2,3.187l-.043-.118-.075-.183L5.06,2.832,5.05,2.8l-.011-.032-.032-.075-.032-.129-.032-.086L4.931,2.4,4.92,2.369,4.91,2.251V2.23L4.9,2.154V1.842l.011-.1.011-.054V1.659l.011-.032.011-.054.032-.129.032-.108V1.326l-.022.054H4.974l-.011-.011a.484.484,0,0,0-.226-.237.571.571,0,0,0-.4-.075l-.054.022L4.21,1.1a.393.393,0,0,1-.194,0l-.161-.011a.446.446,0,0,0-.269.226l-.011.022-.086.1-.054.032L3.4,1.476a.247.247,0,0,0-.14.215l.022.075c.011.043.032.086.011.129l-.054.1L3.2,2.047c-.043.075,0,.161.011.2H3.22a.283.283,0,0,0,.1.151l.011-.075.022-.1.086-.172a1.933,1.933,0,0,1,.28-.312,1.846,1.846,0,0,1,.4-.3.939.939,0,0,1,.4-.075" transform="translate(14.699 1.903)"/>
      <path id="Tracciato_6406" data-name="Tracciato 6406" d="M3.386,1.35V1.263l.022-.032A.744.744,0,0,1,4.053,1.1c.14.043.269.129.409.172a.837.837,0,0,0,.43.022l.054.011.011.022-.011.118-.1.086c-.043.075.032.183-.032.237l-.086.022-.086-.032a.857.857,0,0,0-.463-.1.963.963,0,0,1-.5-.022.476.476,0,0,1-.3-.291" transform="translate(16.966 2.46)" fill="#f10c27"/>
      <path id="Tracciato_6407" data-name="Tracciato 6407" d="M4.763,1.823l-.022-.011L4.666,1.79,4.655,1.78a.793.793,0,0,0-.463-.086H4.128a.776.776,0,0,1-.441-.032.463.463,0,0,1-.3-.3V1.274l.043-.065A.779.779,0,0,1,4.063,1.1a1.428,1.428,0,0,1,.226.1l.194.075A.7.7,0,0,0,4.9,1.3l.065.011.011.032a.18.18,0,0,1-.011.129l-.043.043-.043.043a.123.123,0,0,0-.011.108l-.032.129-.075.032m-.506-.161a.914.914,0,0,1,.409.1h.011l.065.032.075-.011.022-.118.022-.118L4.9,1.489l.032-.022a.185.185,0,0,0,.022-.129V1.328l-.043-.011a.873.873,0,0,1-.441-.011L4.278,1.22a1.1,1.1,0,0,0-.226-.1.79.79,0,0,0-.6.108l-.032.032a.107.107,0,0,0-.011.1.485.485,0,0,0,.291.28.965.965,0,0,0,.43.032l.065-.011h.065" transform="translate(16.956 2.45)"/>
      <path id="Tracciato_6408" data-name="Tracciato 6408" d="M3.41,1.2V1.172l.032-.022a.7.7,0,0,1,.4-.043c.1.011.183.054.269.065a.806.806,0,0,0,.28.011h.032l.011.011-.011.054-.054.032c-.032.032.011.075-.032.108H4.282l-.054-.011a.887.887,0,0,0-.3-.043A.81.81,0,0,1,3.6,1.323C3.518,1.3,3.432,1.269,3.41,1.2" transform="translate(17.2 2.649)" fill="#ffe100"/>
      <path id="Tracciato_6409" data-name="Tracciato 6409" d="M3.634,4.842a.879.879,0,0,0,.807.312.926.926,0,0,0,.689-.517A2.414,2.414,0,0,0,4.9,2.991a3.046,3.046,0,0,0-.775-1.055,4.541,4.541,0,0,1,.635.57A3.6,3.6,0,0,1,5.776,4.045a4.453,4.453,0,0,1,.1.5c.075.4.129.732.409.915a.651.651,0,0,0,.452.14.719.719,0,0,0,.4-.151.631.631,0,0,1-.011.28.677.677,0,0,1-.42.344,1.033,1.033,0,0,1-.872-.151H5.808L5.8,5.929a2.118,2.118,0,0,1-.075.689A2.342,2.342,0,0,1,4.656,7.909a.866.866,0,0,1-.065-.6.331.331,0,0,1,.1-.172.65.65,0,0,0,.1-.194.587.587,0,0,0-.022-.366.8.8,0,0,1-.032-.334.789.789,0,0,1,.2-.441V5.778H4.925a.848.848,0,0,1-.592.151,1.045,1.045,0,0,1-.7-1.087" transform="translate(19.387 10.839)" fill="#00740b"/>
      <path id="Tracciato_6410" data-name="Tracciato 6410" d="M5.507,3.6a2.383,2.383,0,0,1,.237,1.582,2.529,2.529,0,0,0-.592-1.055,2.437,2.437,0,0,0-.969-.646l-.613-1.6a5.242,5.242,0,0,1,.85.43A3.03,3.03,0,0,1,5.507,3.6" transform="translate(18.762 10.243)" fill="#fff200"/>
      <path id="Tracciato_6411" data-name="Tracciato 6411" d="M5,6.554A.818.818,0,0,0,5.58,6.4l.011-.011L5.6,6.4v.011a.851.851,0,0,0-.2.452.8.8,0,0,0,.032.334.554.554,0,0,1,.022.355.46.46,0,0,1-.1.194.423.423,0,0,0-.1.183.762.762,0,0,0,.065.6,2.333,2.333,0,0,0,1.065-1.3,2.022,2.022,0,0,0,.075-.678l.011-.011h.011a1.021,1.021,0,0,0,.872.14.6.6,0,0,0,.42-.344A.48.48,0,0,0,7.8,6.069a.755.755,0,0,1-.4.151.651.651,0,0,1-.452-.14,1.242,1.242,0,0,1-.409-.915,4.071,4.071,0,0,0-.108-.5,3.587,3.587,0,0,0-1-1.55,4.019,4.019,0,0,0-.646-.56,2.929,2.929,0,0,1,.786,1.055,2.456,2.456,0,0,1,.226,1.636.955.955,0,0,1-.689.527A.879.879,0,0,1,4.3,5.467,1.033,1.033,0,0,0,5,6.554M3.589,1.872a6.363,6.363,0,0,1,.861.42l.022.022a4.667,4.667,0,0,1,.979.8,3.575,3.575,0,0,1,1.012,1.55,4.186,4.186,0,0,1,.1.506c.075.377.129.71.4.893A.7.7,0,0,0,7.4,6.2a.72.72,0,0,0,.4-.161h.022a.782.782,0,0,1-.011.312.682.682,0,0,1-.441.366,1.049,1.049,0,0,1-.872-.14,2.319,2.319,0,0,1-.086.667A2.345,2.345,0,0,1,5.321,8.555H5.3a.879.879,0,0,1-.075-.624.539.539,0,0,1,.108-.194.54.54,0,0,0,.1-.194A.607.607,0,0,0,5.407,7.2a.786.786,0,0,1-.043-.334.9.9,0,0,1,.172-.409A.775.775,0,0,1,5,6.575a1.077,1.077,0,0,1-.732-1.152H4.3a.851.851,0,0,0,.8.334.92.92,0,0,0,.667-.506,2.5,2.5,0,0,0-.592-1.087A2.451,2.451,0,0,0,4.2,3.529l-.011-.011L3.567,1.894V1.872Zm.872.463A4.6,4.6,0,0,0,3.6,1.9l.613,1.6a2.4,2.4,0,0,1,.979.646,2.657,2.657,0,0,1,.592,1.055,2.531,2.531,0,0,0-.237-1.582A3.106,3.106,0,0,0,4.46,2.335" transform="translate(18.733 10.214)"/>
      <path id="Tracciato_6412" data-name="Tracciato 6412" d="M4.473,2.866c-.129.194-.054.506-.215.678a.35.35,0,0,1-.248.108.292.292,0,0,1-.269-.118A.461.461,0,0,1,3.676,3.2a.441.441,0,0,1,.183-.3c.086-.075.226-.129.269-.248.022-.086.011-.151.1-.183a.229.229,0,0,1,.3.3l-.054.1" transform="translate(19.721 15.85)" fill="#ffe700"/>
      <path id="Tracciato_6413" data-name="Tracciato 6413" d="M4.029,3.679a.346.346,0,0,1-.291-.129.539.539,0,0,1-.065-.344.578.578,0,0,1,.183-.312l.086-.054c.075-.054.151-.1.183-.183l.011-.065c.022-.043.022-.1.1-.129a.254.254,0,0,1,.248.043.235.235,0,0,1,.075.28l-.043.075L4.5,2.882a.758.758,0,0,0-.1.312.543.543,0,0,1-.129.366A.306.306,0,0,1,4.029,3.679Zm.3-1.205L4.245,2.5c-.065.022-.065.054-.075.108l-.022.065a.422.422,0,0,1-.194.194l-.075.054a.5.5,0,0,0-.183.291.513.513,0,0,0,.075.334.3.3,0,0,0,.258.118.346.346,0,0,0,.237-.108.7.7,0,0,0,.118-.355.753.753,0,0,1,.086-.323l.011.011-.011-.011.022-.022.043-.075a.236.236,0,0,0-.065-.258.216.216,0,0,0-.14-.043" transform="translate(19.712 15.833)"/>
      <path id="Tracciato_6414" data-name="Tracciato 6414" d="M4.549,3.922a.419.419,0,0,0,.161-.172,1.037,1.037,0,0,0,.118-.4l-.011-.011-.011.011a1.047,1.047,0,0,1-.118.387.441.441,0,0,1-.151.161.187.187,0,0,1-.183-.011.3.3,0,0,1-.129-.2.391.391,0,0,0,.183-.075.812.812,0,0,0,.248-.344l-.011-.011-.022.011a.653.653,0,0,1-.237.323.3.3,0,0,1-.226.075c-.129-.022-.194-.129-.172-.323a.743.743,0,0,0,.215-.1l.183-.14L4.5,3.018V3.007L4.485,3l-.108.086-.194.14a.629.629,0,0,1-.334.118.349.349,0,0,1-.291-.161,1.6,1.6,0,0,0,.5-.129,1,1,0,0,0,.323-.28.566.566,0,0,1,.463-.237.467.467,0,0,1,.3.075.57.57,0,0,1,.2.6L5.313,3.3l-.032.161a1.1,1.1,0,0,0,0,.42.613.613,0,0,0,.086.172.373.373,0,0,1-.441-.043l.065-.118a1.067,1.067,0,0,0,.043-.377l-.022-.022L5,3.513a.837.837,0,0,1-.043.366.248.248,0,0,1-.118.161l-.129.043H4.7c-.1,0-.14-.065-.172-.151l.022-.011" transform="translate(18.654 16.645)" fill="#fff200"/>
      <path id="Tracciato_6415" data-name="Tracciato 6415" d="M4.191,3.69a.3.3,0,0,0,.226-.075.636.636,0,0,0,.237-.334l.011-.011.011.022a.711.711,0,0,1-.237.344.391.391,0,0,1-.183.075.3.3,0,0,0,.129.2.187.187,0,0,0,.183.011.441.441,0,0,0,.151-.161,1.047,1.047,0,0,0,.118-.387V3.367l.022.011a1.037,1.037,0,0,1-.118.4.419.419,0,0,1-.161.172l-.022.011c.032.086.075.151.172.151H4.74l.129-.043a.332.332,0,0,0,.118-.161A.837.837,0,0,0,5.03,3.54l.011-.022.011.011a.9.9,0,0,1-.032.387l-.065.118a.373.373,0,0,0,.441.043.613.613,0,0,1-.086-.172,1.355,1.355,0,0,1-.011-.42l.043-.161.032-.086a.57.57,0,0,0-.2-.6.437.437,0,0,0-.312-.075.562.562,0,0,0-.452.237,1,1,0,0,1-.323.28,1.975,1.975,0,0,1-.5.129.349.349,0,0,0,.291.161.629.629,0,0,0,.334-.118l.194-.14.108-.086.011.011v.011l-.108.086-.194.14a.88.88,0,0,1-.2.1c-.022.194.043.3.172.323m0,.022c-.151-.022-.215-.14-.2-.334l-.108.011a.362.362,0,0,1-.323-.183V3.2l.011-.011a1.688,1.688,0,0,0,.506-.14.738.738,0,0,0,.312-.269.648.648,0,0,1,.474-.248.524.524,0,0,1,.323.086.567.567,0,0,1,.215.624l-.022.086L5.332,3.5a1.041,1.041,0,0,0,.011.409l.075.161h.011v.022a.4.4,0,0,1-.226.065.374.374,0,0,1-.269-.108l-.054.043a.305.305,0,0,1-.14.043H4.729a.189.189,0,0,1-.194-.161H4.5l-.129-.032a.3.3,0,0,1-.14-.226H4.191" transform="translate(18.625 16.618)"/>
      <path id="Tracciato_6416" data-name="Tracciato 6416" d="M6.216,4.842a.889.889,0,0,1-.807.312.926.926,0,0,1-.689-.517,2.414,2.414,0,0,1,.226-1.647A3.046,3.046,0,0,1,5.72,1.936a5.328,5.328,0,0,0-.646.57,3.583,3.583,0,0,0-1,1.539c-.043.172-.075.334-.108.5-.065.4-.118.732-.4.915a.663.663,0,0,1-.463.14.715.715,0,0,1-.387-.151.631.631,0,0,0,.011.28.677.677,0,0,0,.42.344,1.07,1.07,0,0,0,.883-.151h.011v.011a2.125,2.125,0,0,0,.086.689A2.342,2.342,0,0,0,5.193,7.909a.866.866,0,0,0,.065-.6.426.426,0,0,0-.1-.172.468.468,0,0,1-.1-.194.587.587,0,0,1,.022-.366.8.8,0,0,0,.032-.334.789.789,0,0,0-.2-.441V5.778h.011a.834.834,0,0,0,.581.151,1.04,1.04,0,0,0,.71-1.087" transform="translate(10.337 10.839)" fill="#fff200"/>
      <path id="Tracciato_6417" data-name="Tracciato 6417" d="M3.18,3.6a2.383,2.383,0,0,0-.237,1.582,2.529,2.529,0,0,1,.592-1.055A2.437,2.437,0,0,1,4.5,3.479l.613-1.6a5.844,5.844,0,0,0-.861.43A3.1,3.1,0,0,0,3.18,3.6" transform="translate(12.124 10.243)" fill="#00740b"/>
      <path id="Tracciato_6418" data-name="Tracciato 6418" d="M6.242,5.467a.889.889,0,0,1-.807.312.926.926,0,0,1-.689-.517,2.35,2.35,0,0,1,.226-1.647,3.046,3.046,0,0,1,.775-1.055,6.33,6.33,0,0,0-.646.56,3.687,3.687,0,0,0-1,1.55c-.043.172-.075.334-.108.5-.065.387-.118.732-.4.915a.663.663,0,0,1-.463.14.715.715,0,0,1-.387-.151.5.5,0,0,0,.011.28.677.677,0,0,0,.42.344,1.043,1.043,0,0,0,.872-.151h.022v.011a2.025,2.025,0,0,0,.086.678,2.333,2.333,0,0,0,1.065,1.3.866.866,0,0,0,.065-.6.426.426,0,0,0-.1-.172.6.6,0,0,1-.108-.2A.646.646,0,0,1,5.1,7.2a.648.648,0,0,0,.043-.334.851.851,0,0,0-.2-.452V6.392l.011.011a.834.834,0,0,0,.581.151,1.04,1.04,0,0,0,.71-1.087m.721-3.595.011.011L6.339,3.519l-.011.011a2.414,2.414,0,0,0-.958.635,2.538,2.538,0,0,0-.6,1.087.9.9,0,0,0,.667.506.869.869,0,0,0,.807-.334l.011-.011.011.011a1.07,1.07,0,0,1-.721,1.152A.761.761,0,0,1,5,6.457a.782.782,0,0,1,.161.409.8.8,0,0,1-.032.334.56.56,0,0,0-.022.355.368.368,0,0,0,.1.183.54.54,0,0,1,.1.194.826.826,0,0,1-.075.624H5.22A2.27,2.27,0,0,1,4.133,7.242a1.962,1.962,0,0,1-.086-.667,1.066,1.066,0,0,1-.883.14.668.668,0,0,1-.43-.366.487.487,0,0,1-.011-.3l.011-.011h.011a.682.682,0,0,0,.387.161.737.737,0,0,0,.452-.14c.269-.183.323-.506.387-.893a4.74,4.74,0,0,1,.108-.506A3.543,3.543,0,0,1,5.091,3.11a4.605,4.605,0,0,1,.969-.8L6.081,2.3l.011-.011a5.8,5.8,0,0,1,.861-.42ZM4.994,3.626a2.383,2.383,0,0,0-.237,1.582,2.529,2.529,0,0,1,.592-1.055,2.437,2.437,0,0,1,.969-.646l.613-1.6a5.844,5.844,0,0,0-.861.43A3.1,3.1,0,0,0,4.994,3.626" transform="translate(10.31 10.214)"/>
      <path id="Tracciato_6419" data-name="Tracciato 6419" d="M2.99,2.866c.129.194.054.506.215.678a.326.326,0,0,0,.237.108.3.3,0,0,0,.28-.118A.461.461,0,0,0,3.787,3.2a.471.471,0,0,0-.172-.3c-.1-.075-.237-.129-.28-.248-.032-.086-.011-.151-.1-.183A.236.236,0,0,0,3,2.5a.231.231,0,0,0-.065.269l.054.1" transform="translate(12.389 15.85)" fill="#ffe700"/>
      <path id="Tracciato_6420" data-name="Tracciato 6420" d="M3.466,3.672H3.456a.327.327,0,0,1-.248-.108A.68.68,0,0,1,3.079,3.2a.748.748,0,0,0-.086-.312l-.011-.022-.054-.075A.289.289,0,0,1,3,2.5a.252.252,0,0,1,.248-.032.146.146,0,0,1,.1.129l.011.065a.5.5,0,0,0,.183.183l.086.054a.519.519,0,0,1,.183.312.489.489,0,0,1-.065.344.316.316,0,0,1-.28.118m-.452-.8A.754.754,0,0,1,3.1,3.2a.677.677,0,0,0,.129.355.293.293,0,0,0,.226.1h.011a.3.3,0,0,0,.258-.108.583.583,0,0,0,.065-.334.473.473,0,0,0-.172-.291l-.086-.065a.378.378,0,0,1-.194-.194l-.011-.032C3.3,2.553,3.3,2.52,3.24,2.488a.278.278,0,0,0-.226.032.232.232,0,0,0-.054.258L3,2.854Z" transform="translate(12.376 15.84)"/>
      <path id="Tracciato_6421" data-name="Tracciato 6421" d="M3.758,3.922A.419.419,0,0,1,3.6,3.75a1.037,1.037,0,0,1-.118-.4l.011-.011.011.011a1.047,1.047,0,0,0,.118.387.441.441,0,0,0,.151.161.187.187,0,0,0,.183-.011.255.255,0,0,0,.118-.2A.4.4,0,0,1,3.9,3.61a.812.812,0,0,1-.248-.344l.011-.011.022.011a.653.653,0,0,0,.237.323.3.3,0,0,0,.215.075c.14-.022.2-.129.183-.323a.589.589,0,0,1-.2-.1L3.919,3.1l-.108-.086V3.007L3.823,3l.108.086.194.14a.6.6,0,0,0,.334.118.349.349,0,0,0,.291-.161,1.6,1.6,0,0,1-.5-.129,1,1,0,0,1-.323-.28.566.566,0,0,0-.463-.237.467.467,0,0,0-.3.075.57.57,0,0,0-.2.6l.032.086.043.161a1.354,1.354,0,0,1-.011.42.613.613,0,0,1-.086.172.373.373,0,0,0,.441-.043l-.054-.118a.731.731,0,0,1-.043-.377L3.3,3.491l.011.022a.837.837,0,0,0,.043.366.248.248,0,0,0,.118.161l.129.043h.011c.1,0,.14-.065.172-.151l-.022-.011" transform="translate(12.612 16.645)" fill="#fff200"/>
      <path id="Tracciato_6422" data-name="Tracciato 6422" d="M4.348,3.368a.949.949,0,0,1-.215-.1l-.183-.14-.118-.086V3.024h.022l.108.086.183.14a.636.636,0,0,0,.334.108h.011a.322.322,0,0,0,.28-.151,1.647,1.647,0,0,1-.484-.14A.777.777,0,0,1,3.96,2.8.627.627,0,0,0,3.5,2.551a.524.524,0,0,0-.3.075.552.552,0,0,0-.2.6l.022.086.043.172a1.1,1.1,0,0,1-.011.42.406.406,0,0,1-.075.161.345.345,0,0,0,.441-.043l-.065-.108A.937.937,0,0,1,3.3,3.53l.011-.011.022.011a.869.869,0,0,0,.032.377.3.3,0,0,0,.129.161l.129.032a.176.176,0,0,0,.183-.14L3.788,3.95a.391.391,0,0,1-.161-.183.8.8,0,0,1-.118-.387V3.358l.022.011a.942.942,0,0,0,.118.387.4.4,0,0,0,.151.172.2.2,0,0,0,.172-.011.285.285,0,0,0,.129-.2.4.4,0,0,1-.172-.075.788.788,0,0,1-.248-.344l.011-.022.011.011a.94.94,0,0,0,.237.334.307.307,0,0,0,.226.065c.14-.022.194-.129.183-.312m-.215.344H4.122a.277.277,0,0,1-.129.226l-.108.032L3.831,3.96a.2.2,0,0,1-.2.161L3.476,4.09l-.054-.043a.4.4,0,0,1-.269.108.329.329,0,0,1-.215-.075V4.057L3.024,3.9a1.035,1.035,0,0,0,.011-.409l-.043-.161L2.97,3.239a.6.6,0,0,1,.2-.635A.639.639,0,0,1,3.5,2.529a.582.582,0,0,1,.474.248.85.85,0,0,0,.323.269,1.688,1.688,0,0,0,.506.14V3.2a.345.345,0,0,1-.312.183l-.118-.011c.022.194-.054.312-.194.344H4.133" transform="translate(12.592 16.628)"/>
      <path id="Tracciato_6423" data-name="Tracciato 6423" d="M4.1,5.228A.821.821,0,0,1,3.639,5.1a.9.9,0,0,1-.355-.872V4.216a1.455,1.455,0,0,1-.452-.43A1.179,1.179,0,0,1,2.983,2.4a2.016,2.016,0,0,1,.743-.527,1.118,1.118,0,0,0-.56,1.27,1.035,1.035,0,0,0,.452.452h.011a.434.434,0,0,0,.323-.032.79.79,0,0,0,.441-.484.389.389,0,0,1,.2.129.454.454,0,0,1-.086.56v.022h.011a1.027,1.027,0,0,1,.657.172A1.156,1.156,0,0,1,5.62,4.9a.676.676,0,0,0-.4-.291.584.584,0,0,0-.334.022,2.071,2.071,0,0,1-.312.054,1.64,1.64,0,0,1-.549-.1H4.016V4.6a.457.457,0,0,1,.022.237l-.022.086a.1.1,0,0,0-.022.1.26.26,0,0,0,.108.2" transform="translate(9.986 10.195)" fill="#00740b"/>
      <path id="Tracciato_6424" data-name="Tracciato 6424" d="M3.119,5.908a.934.934,0,0,1-.355-.4c-.14-.344,0-.883.646-1.291L3.5,4.186A5.832,5.832,0,0,1,4.357,4,4.464,4.464,0,0,0,5.4,3.756a3.854,3.854,0,0,0,1-.613l.043-.086c-.022-.054-.108-.065-.151-.075H6.272a.936.936,0,0,0-.5.215l-.032.022a1,1,0,0,1-.452.065,1.134,1.134,0,0,1-.915-.527.887.887,0,0,1-.086-.56,1.626,1.626,0,0,0,.484.334,1.559,1.559,0,0,0,.947.172,1.469,1.469,0,0,0,.4-.14,1.343,1.343,0,0,0,.42-.054.985.985,0,0,0,.344-.194.346.346,0,0,1-.011.151.608.608,0,0,1-.183.323L6.681,2.8l.011.011.118.011a1.127,1.127,0,0,0,.323-.054,1.543,1.543,0,0,0,.9-1.141,2.613,2.613,0,0,1-.075.872,2.56,2.56,0,0,1-.721,1.195,2.409,2.409,0,0,1-.527.366,6.2,6.2,0,0,1-1.076.42L5.551,4.5l-.366.108a5.972,5.972,0,0,0-1.5.6l-.075.043a1.076,1.076,0,0,0-.506.5.214.214,0,0,0,.011.161" transform="translate(10.409 7.803)" fill="#fff200"/>
      <path id="Tracciato_6425" data-name="Tracciato 6425" d="M6.081,2.474a.536.536,0,0,1,.172.291.655.655,0,0,1-.226.657.712.712,0,0,1-.839.022.807.807,0,0,1-.258-.312l-.011-.011-.011.011A1.617,1.617,0,0,1,4,4.336a1.225,1.225,0,0,1-.4.043.66.66,0,0,0,.172-.312.588.588,0,0,0,.011-.194l-.011-.011H3.767a1.016,1.016,0,0,1-.355.215,1.007,1.007,0,0,1-.377.043,2.393,2.393,0,0,0,.291-.2,4.893,4.893,0,0,0,1.27-2.1l.248-.237a1.037,1.037,0,0,1,.441-.118,1.421,1.421,0,0,1,.42.065,1.028,1.028,0,0,0-.226.258.644.644,0,0,0-.151.538.452.452,0,0,0,.409.323.465.465,0,0,0,.344-.172" transform="translate(13.539 6.212)" fill="#00740b"/>
      <path id="Tracciato_6426" data-name="Tracciato 6426" d="M2.883,4.263,2.99,4.22l.118-.043a.442.442,0,0,1,.323.172l.011.011.011-.011a.4.4,0,0,1,.022-.194.472.472,0,0,1,.183-.28.478.478,0,0,0,.011.215.452.452,0,0,0,.14.194l.118.118a.644.644,0,0,1,.1.42.117.117,0,0,0,.086.086.118.118,0,0,0,.108-.065,6.35,6.35,0,0,1,.1-.775,6.727,6.727,0,0,1,.3-1.238l.022-.054a1.536,1.536,0,0,0,.14-.721V2a.325.325,0,0,0-.043-.215.426.426,0,0,0-.312-.161.578.578,0,0,1,.291-.312.826.826,0,0,1,.958.377.984.984,0,0,1,.075.635,1.341,1.341,0,0,1-.258.613,2.5,2.5,0,0,0-.269.538,2.043,2.043,0,0,0-.075.818l.011.011L5.164,4.3a1.612,1.612,0,0,1,.258-.549,1.41,1.41,0,0,1,.387-.312,1.542,1.542,0,0,0,.377-.3A1.41,1.41,0,0,0,6.5,2.5a.5.5,0,0,1,.28.269.5.5,0,0,1-.129.517v.022H6.66a.849.849,0,0,1,.452-.14l.2.043a.432.432,0,0,0,.2.032.583.583,0,0,0,.4-.248.861.861,0,0,1-.118.6,1.009,1.009,0,0,1-.829.4l-.011.011v.011a.693.693,0,0,1-.086.6.662.662,0,0,1-.409.269.486.486,0,0,0-.2-.377c-.291-.194-.807.108-1.044.387a1.29,1.29,0,0,0-.28.764,1.012,1.012,0,0,0,.075.6A1.2,1.2,0,0,0,5.95,6.8h.108a1.675,1.675,0,0,0,.28-.032.9.9,0,0,1-.506.151H5.821a1.973,1.973,0,0,1-1.291-.5,3.567,3.567,0,0,1-.28-.291L4.034,5.91a1.727,1.727,0,0,0-.355-.258.87.87,0,0,0-.237-.075.579.579,0,0,1-.269-.1l-.108-.118-.054-.075a.363.363,0,0,0-.183-.118l.065-.032.022-.022.054-.022.086-.043A.478.478,0,0,1,3.3,5.038l.022-.011-.011-.022a.746.746,0,0,1-.248-.075A.358.358,0,0,1,2.915,4.8a.451.451,0,0,1-.043-.161.354.354,0,0,0-.054-.194.526.526,0,0,0-.172-.172.578.578,0,0,0,.237-.011" transform="translate(9.741 4.303)" fill="#00740b"/>
      <path id="Tracciato_6427" data-name="Tracciato 6427" d="M6.949,6.052a1.061,1.061,0,0,0,.387-.043,1.207,1.207,0,0,0,.355-.215H7.7l.011.011L7.7,6a.59.59,0,0,1-.183.312,1.225,1.225,0,0,0,.4-.043c.667-.215.872-1.044.915-1.205V5.051h.011a.894.894,0,0,0,.269.323.712.712,0,0,0,.839-.022.678.678,0,0,0,.226-.657.536.536,0,0,0-.172-.291.489.489,0,0,1-.344.172.452.452,0,0,1-.409-.323.676.676,0,0,1,.14-.538,1.074,1.074,0,0,1,.237-.258,1.14,1.14,0,0,0-.42-.065,1.266,1.266,0,0,0-.452.108l-.248.248a4.761,4.761,0,0,1-1.27,2.088,1.682,1.682,0,0,1-.291.215M4.215,7.741c-.646.4-.8.936-.657,1.291a1,1,0,0,0,.355.4A.314.314,0,0,1,3.9,9.259a1.054,1.054,0,0,1,.506-.484l.075-.043a5.592,5.592,0,0,1,1.5-.6l.366-.118.086-.022A6.164,6.164,0,0,0,7.508,7.58a2.845,2.845,0,0,0,.527-.366,2.614,2.614,0,0,0,.721-1.195,2.418,2.418,0,0,0,.075-.883,1.556,1.556,0,0,1-.9,1.152,1.111,1.111,0,0,1-.323.043H7.487V6.31a.583.583,0,0,0,.183-.323.37.37,0,0,0,.011-.151.985.985,0,0,1-.344.194,1.038,1.038,0,0,1-.42.043,1.507,1.507,0,0,1-.4.151,1.559,1.559,0,0,1-.947-.172,2.1,2.1,0,0,1-.484-.344.908.908,0,0,0,.086.57,1.1,1.1,0,0,0,.915.517,1.187,1.187,0,0,0,.452-.054l.032-.022A.94.94,0,0,1,7.056,6.5H7.1c.032,0,.118.011.14.065l-.032.1a4.058,4.058,0,0,1-1.012.6,4.008,4.008,0,0,1-1.044.258,4.916,4.916,0,0,0-.861.183l-.075.032m-.861.56A1.2,1.2,0,0,0,3.2,9.7a1.686,1.686,0,0,0,.441.43h.011A.882.882,0,0,0,4.011,11a.68.68,0,0,0,.463.129.319.319,0,0,1-.118-.194l.022-.108.032-.086a.626.626,0,0,0-.022-.237V10.5H4.4a1.237,1.237,0,0,0,.549.1,1.162,1.162,0,0,0,.3-.054.74.74,0,0,1,.344-.022.7.7,0,0,1,.4.3,1.156,1.156,0,0,0-.441-.947,1.05,1.05,0,0,0-.657-.183H4.882V9.679a.483.483,0,0,0,.075-.57.293.293,0,0,0-.194-.118.847.847,0,0,1-.441.484.52.52,0,0,1-.334.032,1.021,1.021,0,0,1-.452-.463A1.1,1.1,0,0,1,4.1,7.784a2.127,2.127,0,0,0-.743.517M2.945,4.47A.332.332,0,0,1,3,4.663a.476.476,0,0,0,.054.161.276.276,0,0,0,.14.129,1.129,1.129,0,0,0,.248.075l.011.011-.011.011a.628.628,0,0,0-.248.022l-.086.043-.032.011-.054.032-.065.032a.363.363,0,0,1,.183.118l.054.075L3.3,5.5a.718.718,0,0,0,.28.1.93.93,0,0,1,.226.075,1.236,1.236,0,0,1,.355.258l.226.226a3.44,3.44,0,0,0,.269.291,2.092,2.092,0,0,0,1.291.5h.011a.834.834,0,0,0,.506-.161.955.955,0,0,1-.28.043l-.1-.011a1.122,1.122,0,0,1-.936-.527.957.957,0,0,1-.086-.613,1.364,1.364,0,0,1,.28-.753c.248-.28.753-.592,1.055-.387a.514.514,0,0,1,.194.366A.636.636,0,0,0,7,4.642a.693.693,0,0,0,.086-.6V4.028L7.1,4.018a1,1,0,0,0,.829-.409.907.907,0,0,0,.129-.592.626.626,0,0,1-.409.248.432.432,0,0,1-.2-.032l-.2-.043a.789.789,0,0,0-.441.14H6.787l-.011-.022a.5.5,0,0,0,.129-.517.466.466,0,0,0-.28-.269,1.41,1.41,0,0,1-.312.635,1.365,1.365,0,0,1-.377.3,1.1,1.1,0,0,0-.377.312,1.313,1.313,0,0,0-.269.549l-.011.011L5.27,4.319a1.933,1.933,0,0,1,.086-.829,2.189,2.189,0,0,1,.258-.527,1.341,1.341,0,0,0,.258-.613A.984.984,0,0,0,5.8,1.715a.813.813,0,0,0-.958-.377.578.578,0,0,0-.291.312.451.451,0,0,1,.312.151.385.385,0,0,1,.054.226V2.08a1.683,1.683,0,0,1-.14.721l-.022.043a6.039,6.039,0,0,0-.312,1.248q-.065.387-.1.775a.094.094,0,0,1-.108.054.091.091,0,0,1-.086-.075.644.644,0,0,0-.1-.42l-.108-.118A.451.451,0,0,1,3.8,4.115a.533.533,0,0,1,0-.226.552.552,0,0,0-.194.291.353.353,0,0,0-.011.183l-.011.022-.011-.011A.48.48,0,0,0,3.236,4.2l-.108.043-.118.043a.578.578,0,0,1-.237.011.381.381,0,0,1,.172.172m.032.194a.437.437,0,0,0-.054-.183.547.547,0,0,0-.28-.226H2.633l.011-.022A.587.587,0,0,0,3,4.254l.118-.043.118-.032a.411.411,0,0,1,.323.151l.011-.151a.529.529,0,0,1,.237-.323l.011-.011.011.022a.442.442,0,0,0,0,.237.38.38,0,0,0,.129.183l.118.129a.66.66,0,0,1,.1.42l.065.065.086-.043a6.149,6.149,0,0,1,.086-.764,6.553,6.553,0,0,1,.323-1.248l.011-.054a1.62,1.62,0,0,0,.151-.71V2.027a.353.353,0,0,0-.043-.2.449.449,0,0,0-.323-.151l-.011-.011a.636.636,0,0,1,.312-.344.842.842,0,0,1,.99.387.947.947,0,0,1,.075.646,1.318,1.318,0,0,1-.258.635,1.921,1.921,0,0,0-.258.517,1.858,1.858,0,0,0-.086.743,1.149,1.149,0,0,1,.248-.484,1.529,1.529,0,0,1,.387-.334,1.084,1.084,0,0,0,.366-.291A1.421,1.421,0,0,0,6.615,2.5l.011-.011a.527.527,0,0,1,.3.291.494.494,0,0,1-.075.484.651.651,0,0,1,.387-.1.525.525,0,0,1,.2.043.676.676,0,0,0,.2.032.626.626,0,0,0,.4-.258l.022-.011v.011a.931.931,0,0,1-.118.646.988.988,0,0,1-.829.409.725.725,0,0,1-.1.613.672.672,0,0,1-.441.28l-.011-.011a.458.458,0,0,0-.194-.366c-.28-.194-.775.108-1.012.387a1.187,1.187,0,0,0-.269.732,1.7,1.7,0,0,0,.484.355,1.461,1.461,0,0,0,.936.161,1.606,1.606,0,0,0,.71-.366A4.89,4.89,0,0,0,8.488,3.738l.258-.248a.986.986,0,0,1,.463-.118.892.892,0,0,1,.441.075h.011v.011a1.217,1.217,0,0,0-.248.28.605.605,0,0,0-.14.506.456.456,0,0,0,.387.312.427.427,0,0,0,.334-.183h.011a.559.559,0,0,1,.194.312.693.693,0,0,1-.237.689A.762.762,0,0,1,9.09,5.4a.942.942,0,0,1-.226-.258,2.42,2.42,0,0,1-.086.883,2.478,2.478,0,0,1-.732,1.205,2.288,2.288,0,0,1-.527.377,5.772,5.772,0,0,1-1.087.409l-.075.032-.366.108a5.971,5.971,0,0,0-1.5.6L4.42,8.8a1.058,1.058,0,0,0-.5.474.169.169,0,0,0,.054.194c.086.065.226.022.334-.022a.781.781,0,0,0,.43-.474l.011-.011a.4.4,0,0,1,.226.14.464.464,0,0,1-.065.57,1.061,1.061,0,0,1,.646.183,1.182,1.182,0,0,1,.452,1L6,10.863H5.991a.784.784,0,0,0-.4-.323.683.683,0,0,0-.334.032,1.211,1.211,0,0,1-.312.043,1.265,1.265,0,0,1-.527-.086.535.535,0,0,1,.011.226l-.022.086-.022.1a.3.3,0,0,0,.129.2v.011l-.011.011H4.452a.842.842,0,0,1-.463-.14.909.909,0,0,1-.355-.883,1.455,1.455,0,0,1-.452-.43A1.211,1.211,0,0,1,3.333,8.29a1.985,1.985,0,0,1,.861-.57L4.2,7.709l.075-.022a6.333,6.333,0,0,1,.872-.194,4.379,4.379,0,0,0,1.033-.248,4,4,0,0,0,1-.6l.032-.065c-.011-.043-.1-.043-.129-.054a.879.879,0,0,0-.506.215l-.022.022a.98.98,0,0,1-.613.2,2.012,2.012,0,0,1-1.3-.506,3.433,3.433,0,0,1-.28-.28c-.075-.075-.14-.161-.226-.237A1.376,1.376,0,0,0,3.8,5.7a.548.548,0,0,0-.226-.065.634.634,0,0,1-.28-.108A.3.3,0,0,1,3.182,5.4L3.117,5.32a.316.316,0,0,0-.2-.108L2.9,5.191l.011-.011h.011l.086-.043.032-.022.032-.022.108-.043L3.3,5.019a.394.394,0,0,1-.269-.183.357.357,0,0,1-.054-.172" transform="translate(9.615 4.28)"/>
      <path id="Tracciato_6428" data-name="Tracciato 6428" d="M6.094,1.986a.753.753,0,0,0-.14-.355A1.006,1.006,0,0,0,5.3,1.244a.96.96,0,0,0-.775.3.816.816,0,0,0-.689-.1c-.258.108-.28.366-.549.506a.846.846,0,0,1-.646.022.592.592,0,0,0,.151.3.576.576,0,0,0,.5.151.7.7,0,0,0-.161.237c-.075.183-.022.291-.065.42-.032.108-.14.248-.452.355a1.255,1.255,0,0,0,.915.086,1.235,1.235,0,0,0,.807-.947.578.578,0,0,0,.28.226.684.684,0,0,0,.5-.011.716.716,0,0,0,.258-.129.533.533,0,0,1-.377-.108.524.524,0,0,1-.054-.592.642.642,0,0,1,.689-.258.784.784,0,0,1,.474.28" transform="translate(9.361 4.04)" fill="#fff200"/>
      <path id="Tracciato_6429" data-name="Tracciato 6429" d="M3.187,3.6a1.3,1.3,0,0,1-.57-.14l-.011-.011.011-.011c.248-.086.4-.2.441-.344a.418.418,0,0,0,.022-.161.591.591,0,0,1,.043-.258.638.638,0,0,1,.129-.215A.63.63,0,0,1,2.789,2.3a.67.67,0,0,1-.161-.312l.011-.011h.011a.847.847,0,0,0,.635-.022.813.813,0,0,0,.28-.258.6.6,0,0,1,.269-.248.889.889,0,0,1,.7.086.989.989,0,0,1,.775-.291.99.99,0,0,1,.656.387A.912.912,0,0,1,6.115,2L6.1,2.007H6.093a.759.759,0,0,0-.474-.28.632.632,0,0,0-.667.258.472.472,0,0,0,.054.57.472.472,0,0,0,.366.108h.011v.011a.765.765,0,0,1-.258.14.688.688,0,0,1-.517.011.612.612,0,0,1-.269-.2,1.241,1.241,0,0,1-.807.926,1.344,1.344,0,0,1-.344.054m-.538-.151a1.227,1.227,0,0,0,.883.075,1.244,1.244,0,0,0,.8-.936l.011-.011a.615.615,0,0,0,.28.226A.65.65,0,0,0,5.1,2.793a1.428,1.428,0,0,0,.226-.1.493.493,0,0,1-.344-.118.521.521,0,0,1-.054-.6.692.692,0,0,1,.7-.28.9.9,0,0,1,.452.258.82.82,0,0,0-.14-.312A.88.88,0,0,0,5.3,1.275a.952.952,0,0,0-.753.28l-.011.011a.832.832,0,0,0-.689-.1.661.661,0,0,0-.269.248.73.73,0,0,1-.28.258.9.9,0,0,1-.635.032.529.529,0,0,0,.151.269.562.562,0,0,0,.474.151h.011v.022a.755.755,0,0,0-.151.226.615.615,0,0,0-.043.258l-.022.161c-.043.151-.183.269-.43.355" transform="translate(9.351 4.03)"/>
      <path id="Tracciato_6430" data-name="Tracciato 6430" d="M3.006,1.831V6.007a6.5,6.5,0,0,0,.969,3.024,6.64,6.64,0,0,0,2.465,2.292A6.64,6.64,0,0,0,8.9,9.031a6.452,6.452,0,0,0,.958-3.024V1.831Z" transform="translate(13.256 9.814)" fill="#006ecb"/>
      <path id="Tracciato_6431" data-name="Tracciato 6431" d="M6.459,11.375l-.011-.011A6.368,6.368,0,0,1,3.973,9.072,6.681,6.681,0,0,1,3,6.037V1.829H9.913V6.037a6.442,6.442,0,0,1-3.444,5.327Zm-3.4-9.492V6.037a6.391,6.391,0,0,0,3.4,5.274,6.391,6.391,0,0,0,3.4-5.274V1.883Z" transform="translate(13.236 9.794)"/>
      <path id="Tracciato_6432" data-name="Tracciato 6432" d="M3.035,7.611a6.588,6.588,0,0,0,.657,1.421,6.492,6.492,0,0,0,2.465,2.282A6.492,6.492,0,0,0,8.621,9.032,6.73,6.73,0,0,0,9.288,7.6L6.156,1.832Z" transform="translate(13.539 9.824)" fill="#ffe700"/>
      <path id="Tracciato_6433" data-name="Tracciato 6433" d="M3.056,7.287a5.881,5.881,0,0,0,.43.807,6.453,6.453,0,0,0,2.465,2.292A6.37,6.37,0,0,0,8.4,8.094a6.369,6.369,0,0,0,.43-.786L5.951,1.927Z" transform="translate(13.744 10.751)" fill="#00740b"/>
      <path id="Tracciato_6434" data-name="Tracciato 6434" d="M3.582,3.265H3.313V2.393c0-.269.269-.258.269,0Z" transform="translate(16.253 13.373)" fill="#ffe700"/>
      <path id="Tracciato_6435" data-name="Tracciato 6435" d="M3.593,3.293h-.28V2.4c0-.065,0-.118.032-.151a.119.119,0,0,1,.108-.054c.065,0,.14.065.14.2v.893ZM3.335,3.26h.226V2.4l-.032-.14-.075-.043c-.065,0-.118.054-.118.183Z" transform="translate(16.253 13.367)"/>
      <path id="Tracciato_6436" data-name="Tracciato 6436" d="M3.9,2.254A.49.49,0,0,0,3.685,2.2a.431.431,0,1,0,.441.43.1.1,0,0,0-.2,0,.226.226,0,0,1-.237.237.237.237,0,0,1,0-.474.245.245,0,0,1,.2.108V2.34L3.9,2.254" transform="translate(15.687 13.416)" fill="#ffe700"/>
      <path id="Tracciato_6437" data-name="Tracciato 6437" d="M3.7,3.091a.447.447,0,0,1,0-.893.388.388,0,0,1,.215.065l.011.011-.011.086v.161L3.9,2.532l-.022-.011a.211.211,0,0,0-.183-.1.221.221,0,1,0,0,.441A.219.219,0,0,0,3.857,2.8a.212.212,0,0,0,.065-.151c0-.043.011-.086.054-.1h.108c.043.011.054.054.054.1a.443.443,0,0,1-.441.441m0-.861a.42.42,0,0,0-.42.42.427.427,0,0,0,.42.42.42.42,0,0,0,.42-.42l-.043-.075H3.986l-.043.075a.264.264,0,0,1-.065.172A.305.305,0,0,1,3.7,2.9a.25.25,0,0,1-.248-.248A.244.244,0,0,1,3.7,2.4a.222.222,0,0,1,.183.075V2.359l.011-.065A.251.251,0,0,0,3.7,2.23" transform="translate(15.677 13.397)"/>
      <path id="Tracciato_6438" data-name="Tracciato 6438" d="M4.733,6.321h0L4.722,6.31a1.2,1.2,0,0,0-.248-.387,1.332,1.332,0,0,0-.463-.28,1.2,1.2,0,0,1-.829-.85V4.771l.269-.129h.022a.548.548,0,0,0,.108.269.589.589,0,0,0,.3.194l.172.065a1.867,1.867,0,0,1,.42.248V2.307L4.485,2.3h.463L4.937,5.449a1.648,1.648,0,0,0,.441-.2,1.6,1.6,0,0,0,.42-.387H5.82v.022a1.85,1.85,0,0,1-.43.387,1.814,1.814,0,0,1-.463.215H4.916V2.318H4.507V5.439L4.5,5.449H4.485a2.053,2.053,0,0,0-.441-.258l-.161-.065a.577.577,0,0,1-.312-.194.508.508,0,0,1-.118-.269l-.237.129a1.273,1.273,0,0,0,.43.646,1.166,1.166,0,0,0,.366.183,1.18,1.18,0,0,1,.474.291,1.1,1.1,0,0,1,.248.366,3.575,3.575,0,0,1,.624-.7c.129-.108.248-.183.344-.258a1.767,1.767,0,0,0,.484-.42,1.623,1.623,0,0,0,.3-.592L6.509,4.3v.022a1.623,1.623,0,0,1-.3.592,1.965,1.965,0,0,1-.484.43c-.108.075-.215.151-.344.258a3.366,3.366,0,0,0-.635.71Z" transform="translate(14.984 14.353)"/>
      <path id="Tracciato_6439" data-name="Tracciato 6439" d="M4.2,3.694H4.189L4.06,3.586l-.14-.1V3.478l.022-.011.129.108.118.086a1.416,1.416,0,0,0,.161-.42,1.861,1.861,0,0,0,0-.732.657.657,0,0,1-.237.269.556.556,0,0,1-.226.075.607.607,0,0,0-.215.065.65.65,0,0,0-.248.237l.387.2.011.022H3.8l-.4-.2V3.156A.639.639,0,0,1,3.651,2.9a.751.751,0,0,1,.237-.075.526.526,0,0,0,.2-.054.638.638,0,0,0,.248-.3l.011-.011.011.011a1.761,1.761,0,0,1,.011.786,1.606,1.606,0,0,1-.161.43Z" transform="translate(17.132 15.915)"/>
      <path id="Tracciato_6440" data-name="Tracciato 6440" d="M6.5,4.039a1.684,1.684,0,0,1-.151,1.216v.011H6.336L6.2,5.159l-.118-.086a3.858,3.858,0,0,1-.355.269,3.185,3.185,0,0,0-.344.258,3.1,3.1,0,0,0-.635.71l-.011.011H4.722a1.32,1.32,0,0,0-.248-.4,1.436,1.436,0,0,0-.463-.28,1.306,1.306,0,0,1-.387-.194,1.281,1.281,0,0,1-.441-.667l.011-.011.258-.129h.011a.76.76,0,0,0,.118.269.589.589,0,0,0,.3.194l.161.065a1.933,1.933,0,0,1,.43.248V2.3h.463V5.449a1.817,1.817,0,0,0,.441-.2,1.882,1.882,0,0,0,.409-.366l-.237-.14H5.54V4.728A.691.691,0,0,1,5.8,4.459a.731.731,0,0,1,.226-.065A.55.55,0,0,0,6.24,4.33a.575.575,0,0,0,.237-.3H6.5Zm-.011.775a1.97,1.97,0,0,0,.032-.506,2.066,2.066,0,0,0-.032-.237.621.621,0,0,1-.237.28.6.6,0,0,1-.226.065.646.646,0,0,0-.215.075.557.557,0,0,0-.237.237l.387.2v.011l-.011.011L5.82,4.89a1.777,1.777,0,0,1-.43.377,1.814,1.814,0,0,1-.463.215H4.916V2.318H4.5V5.449H4.485a2.122,2.122,0,0,0-.452-.258l-.161-.065a.589.589,0,0,1-.3-.194.508.508,0,0,1-.118-.269l-.237.129a1.329,1.329,0,0,0,.42.646,1.341,1.341,0,0,0,.377.183,1.279,1.279,0,0,1,.474.28,1.271,1.271,0,0,1,.248.377,3.575,3.575,0,0,1,.624-.7c.129-.108.248-.183.344-.258a1.767,1.767,0,0,0,.484-.42,1.623,1.623,0,0,0,.3-.592L6.5,4.3l.011.011v.011a1.623,1.623,0,0,1-.3.592l-.118.14.129.086.118.1a2.186,2.186,0,0,0,.151-.42" transform="translate(14.984 14.353)"/>
      <path id="Tracciato_6441" data-name="Tracciato 6441" d="M6.5,4.3l-.032-.237a.621.621,0,0,1-.237.28.731.731,0,0,1-.226.065.607.607,0,0,0-.215.065.53.53,0,0,0-.237.248l.377.2.011.011-.022.011L5.79,4.869a1.8,1.8,0,0,1-.42.387,1.784,1.784,0,0,1-.463.2H4.9L4.886,5.45,4.9,2.308,4.477,2.3V5.429H4.456a2.623,2.623,0,0,0-.441-.258l-.161-.065a.652.652,0,0,1-.312-.183.856.856,0,0,1-.118-.269l-.237.118a1.248,1.248,0,0,0,.43.646,1.4,1.4,0,0,0,.377.194,1.164,1.164,0,0,1,.474.28,1.147,1.147,0,0,1,.248.377,3.261,3.261,0,0,1,.624-.7,4.07,4.07,0,0,1,.344-.258,1.767,1.767,0,0,0,.484-.42,1.922,1.922,0,0,0,.3-.592l.011-.011L6.49,4.3a1.864,1.864,0,0,1-.3.6l-.118.129.118.1.129.086A1.868,1.868,0,0,0,6.469,4.8,1.97,1.97,0,0,0,6.5,4.3" transform="translate(15.013 14.363)" fill="#ffe700"/>
      <path id="Tracciato_6442" data-name="Tracciato 6442" d="M3.286,3.76A.854.854,0,0,1,3.609,3.5a.839.839,0,0,1,.57-.043.813.813,0,0,0-.344-.57C3.674,2.8,3.5,2.8,3.34,2.63a.75.75,0,0,1-.14-.194,1.665,1.665,0,0,1,.022.43c-.011.2-.065.28-.065.452a.97.97,0,0,0,.129.441" transform="translate(14.73 15.72)" fill="#ffe700"/>
      <path id="Tracciato_6443" data-name="Tracciato 6443" d="M3.3,3.78H3.285a.9.9,0,0,1-.129-.452l.022-.237a.945.945,0,0,0,.043-.215,1.482,1.482,0,0,0-.032-.43L3.2,2.435H3.21a.757.757,0,0,0,.14.2.791.791,0,0,0,.323.172l.172.075a.864.864,0,0,1,.355.581v.011H4.189a.837.837,0,0,0-.57.043.807.807,0,0,0-.312.258ZM3.231,2.521a1.96,1.96,0,0,1,.011.355L3.21,3.1a.765.765,0,0,0-.032.226.887.887,0,0,0,.118.42A.862.862,0,0,1,3.608,3.5a.892.892,0,0,1,.56-.054.835.835,0,0,0-.334-.538l-.172-.065a.739.739,0,0,1-.323-.194l-.108-.129" transform="translate(14.72 15.71)"/>
      <path id="Tracciato_6444" data-name="Tracciato 6444" d="M5.643,2.325a15.294,15.294,0,0,0-2.432,0v.484a15.293,15.293,0,0,0,2.432,0c.075,0,.129-.108.129-.248s-.054-.237-.129-.237" transform="translate(15.257 14.163)" fill="#ffe700"/>
      <path id="Tracciato_6445" data-name="Tracciato 6445" d="M4.427,2.893a11.306,11.306,0,0,1-1.205-.065l-.011-.011V2.334a14.231,14.231,0,0,1,2.443-.011c.075.011.14.118.14.258s-.065.248-.14.248a11.712,11.712,0,0,1-1.227.065M3.233,2.807a13,13,0,0,0,2.422,0c.065,0,.118-.108.118-.226s-.054-.226-.118-.226a15.156,15.156,0,0,0-2.422,0Z" transform="translate(15.257 14.154)"/>
      <path id="Tracciato_6446" data-name="Tracciato 6446" d="M3.468,2.518c0,.129-.065.237-.129.237s-.14-.108-.14-.237.065-.237.14-.237.129.108.129.237" transform="translate(15.14 14.207)" fill="#ffe700"/>
      <path id="Tracciato_6447" data-name="Tracciato 6447" d="M3.339,2.775c-.086,0-.14-.108-.14-.248s.054-.248.14-.248.14.108.14.248-.054.248-.14.248m0-.474c-.065,0-.118.108-.118.226s.054.226.118.226.118-.1.118-.226S3.4,2.3,3.339,2.3" transform="translate(15.14 14.197)"/>
      <path id="Tracciato_6448" data-name="Tracciato 6448" d="M3.234,2.806H3.223V2.785A.316.316,0,0,0,3.234,2.3L3.223,2.29l.022-.011a.312.312,0,0,1,.118.258.334.334,0,0,1-.118.269Z" transform="translate(15.374 14.187)"/>
      <path id="Tracciato_6449" data-name="Tracciato 6449" d="M3.437,2.8l-.011-.011V2.775a.306.306,0,0,0,.118-.248A.271.271,0,0,0,3.437,2.3L3.426,2.28h.022a.279.279,0,0,1,.118.248.334.334,0,0,1-.118.269Z" transform="translate(17.356 14.197)"/>
      <path id="Tracciato_6450" data-name="Tracciato 6450" d="M3.3,2.878H3.285V2.856A.426.426,0,0,0,3.3,2.3V2.286l.011-.011a.446.446,0,0,1,0,.6H3.3" transform="translate(15.98 14.148)"/>
      <path id="Tracciato_6451" data-name="Tracciato 6451" d="M3.325,2.879H3.314V2.868A.467.467,0,0,0,3.3,2.3V2.276h.011a.471.471,0,0,1,.022.592Z" transform="translate(16.155 14.158)"/>
      <path id="Tracciato_6452" data-name="Tracciato 6452" d="M3.37,2.879H3.359V2.857a.426.426,0,0,0-.011-.56V2.287l.022-.011a.471.471,0,0,1,.011.6Z" transform="translate(16.595 14.158)"/>
      <path id="Tracciato_6453" data-name="Tracciato 6453" d="M3.375,2.868H3.364V2.846a.411.411,0,0,0,0-.549V2.276h.022a.47.47,0,0,1,0,.592Z" transform="translate(16.751 14.158)"/>
      <path id="Tracciato_6454" data-name="Tracciato 6454" d="M3.272,2.2l.183-.151h1l.022.022V3.361l-.022.022H4.391L4.37,3.361V2.155l-.022-.022-.861-.011-.022.011-.075.054L3.38,2.2Z" transform="translate(15.853 11.927)" fill="#d1d9e9"/>
      <path id="Tracciato_6455" data-name="Tracciato 6455" d="M4.475,3.413H4.411l-.032-.032V2.164H4.368l-.861-.011-.022.011-.075.054h0l-.129.011L3.27,2.218l.011-.011.172-.151.022-.011h1l.032.032v1.3l-.032.032M3.507,2.132h.861l.032.032V3.381l.011.011h.065V2.078h-1l-.14.129L3.41,2.2l.065-.054Z" transform="translate(15.833 11.913)"/>
      <path id="Tracciato_6456" data-name="Tracciato 6456" d="M4.366,3.289l-.172.161-.818-.043-.1-1.248L3.4,2.052h.969Z" transform="translate(15.925 11.966)" fill="#e6e6e7"/>
      <path id="Tracciato_6457" data-name="Tracciato 6457" d="M4.2,3.472H4.193l-.807-.043-.011-.011-.1-1.259L3.4,2.051h.99V3.31ZM3.4,3.407l.8.043.172-.161V2.073H3.407l-.108.1Z" transform="translate(15.911 11.962)"/>
      <path id="Tracciato_6458" data-name="Tracciato 6458" d="M3.9,3.417H3.636A.372.372,0,0,1,3.27,3.04V2.427a.363.363,0,0,1,.366-.366H3.9a.372.372,0,0,1,.377.366V3.04a.381.381,0,0,1-.377.377" transform="translate(15.833 12.059)" fill="#fff"/>
      <path id="Tracciato_6459" data-name="Tracciato 6459" d="M4.247,3.438H3.333a.062.062,0,0,1-.065-.065V2.125a.062.062,0,0,1,.065-.065h.915a.062.062,0,0,1,.065.065V3.373a.062.062,0,0,1-.065.065M3.333,2.082,3.3,2.125V3.373l.032.043h.915l.032-.043V2.125l-.032-.043Z" transform="translate(15.814 12.049)"/>
      <path id="Tracciato_6460" data-name="Tracciato 6460" d="M5.328,2.592h.011a1.642,1.642,0,0,0-.032-.323.608.608,0,0,0-.291-.43,1.265,1.265,0,0,0-.527-.086,1.485,1.485,0,0,0-.71.183.876.876,0,0,0-.43.657Z" transform="translate(16.595 9.052)" fill="#9e887c"/>
      <path id="Tracciato_6461" data-name="Tracciato 6461" d="M6.685,1.163a5.189,5.189,0,0,1-1.862.958L4.7,2.132a2.165,2.165,0,0,1-.872-.161,2.933,2.933,0,0,1-.312.258,1.35,1.35,0,0,1-.344.172v.28a.371.371,0,0,0,.237.2A1.141,1.141,0,0,1,3.639,3a1.606,1.606,0,0,1,.484.818.571.571,0,0,0,.291-.258l.011-.011,1,.161L6.652,2.272a1.149,1.149,0,0,1-.6-.011,1.29,1.29,0,0,1-.344-.172.671.671,0,0,1-.3.2.791.791,0,0,1-.581-.054V2.228l.011-.011h.011a.7.7,0,0,0,.549.054.769.769,0,0,0,.3-.2h.011l.151.086a1.346,1.346,0,0,0,.366-.28l.032-.032a4.531,4.531,0,0,0,.452-.484l.011-.011.118.075.086-.14Z" transform="translate(14.915 3.293)" fill="#9e8877"/>
      <path id="Tracciato_6462" data-name="Tracciato 6462" d="M4.454,3.6a.5.5,0,0,1-.312.258l-.011.011L4.12,3.861a1.568,1.568,0,0,0-.474-.807.619.619,0,0,0-.215-.118.464.464,0,0,1-.258-.215V2.408L3.184,2.4a1.345,1.345,0,0,0,.344-.161,2.136,2.136,0,0,0,.312-.269h.011a2.206,2.206,0,0,0,.872.161A4.837,4.837,0,0,0,6.7,1.16l.269.129V1.3l.011.011-.108.161-.011.011-.011-.011L6.746,1.4a5.734,5.734,0,0,1-.452.484l-.032.032a1.772,1.772,0,0,1-.355.28l.172.065a1.14,1.14,0,0,0,.635,0l.011.011v.011L5.455,3.754v.011Zm-.312.237a.576.576,0,0,0,.3-.258h.011l.99.151L6.682,2.3a1.208,1.208,0,0,1-.613-.022,1.115,1.115,0,0,1-.344-.161.622.622,0,0,1-.291.194.735.735,0,0,1-.581-.043V2.247l.011-.011v.011a.789.789,0,0,0,.56.043A.622.622,0,0,0,5.713,2.1l.022-.011a.722.722,0,0,0,.151.1A2.266,2.266,0,0,0,6.24,1.9l.043-.043a5.161,5.161,0,0,0,.441-.484h.011l.129.075.086-.14L6.7,1.182a5.164,5.164,0,0,1-1.862.969l-.118.011a2.423,2.423,0,0,1-.872-.172,1.933,1.933,0,0,1-.312.269,1.071,1.071,0,0,1-.344.161V2.7a.36.36,0,0,0,.248.2.947.947,0,0,1,.215.129,1.588,1.588,0,0,1,.484.807" transform="translate(14.886 3.263)"/>
      <path id="Tracciato_6463" data-name="Tracciato 6463" d="M3.807,1.278a.651.651,0,1,0,.646.646.648.648,0,0,0-.646-.646m.344.344-.291.226L3.85,1.838V1.472a.453.453,0,0,1,.3.151m-.377-.151v.366l-.011.011-.3-.226a.455.455,0,0,1,.312-.151m-.43.452a.441.441,0,0,1,.075-.237l.291.226v.043l-.291.226a.518.518,0,0,1-.075-.258m.129.323.291-.226.011.366a.467.467,0,0,1-.3-.14m.377.14V2.031l.011-.011.291.226a.494.494,0,0,1-.3.14m.344-.2L3.9,1.967l.011-.032L3.9,1.913l.3-.226a.434.434,0,0,1,.065.237.429.429,0,0,1-.075.258" transform="translate(14.769 4.415)" fill="#9e8877"/>
      <path id="Tracciato_6464" data-name="Tracciato 6464" d="M3.817,2.59a.657.657,0,1,1,.667-.657.659.659,0,0,1-.667.657m0-1.291a.643.643,0,0,0-.635.635.636.636,0,0,0,.635.635.629.629,0,0,0,.635-.635A.636.636,0,0,0,3.817,1.3M3.86,2.407H3.849V2.03L3.86,2.02h.022l.291.215v.022a.5.5,0,0,1-.312.151m.011-.366v.334a.425.425,0,0,0,.269-.129Zm-.086.366h0a.5.5,0,0,1-.312-.151V2.235l.291-.215.011-.011.011.011.011.011v.377ZM3.5,2.246a.4.4,0,0,0,.269.129V2.041ZM4.2,2.2h0l-.291-.226L3.9,1.966l.011-.022L3.9,1.912,3.913,1.9,4.2,1.675h.022a.591.591,0,0,1,.075.258.438.438,0,0,1-.086.258Zm-.269-.237.269.2a.461.461,0,0,0,.065-.237A.424.424,0,0,0,4.2,1.707l-.269.215v.043m-.5.237H3.429V2.192a.429.429,0,0,1-.075-.258.5.5,0,0,1,.065-.248l.011-.011H3.44L3.73,1.9v.075Zm-.011-.5a.537.537,0,0,0-.054.226.461.461,0,0,0,.065.237l.269-.2V1.923Zm.334.161V1.858l-.3-.215V1.621a.469.469,0,0,1,.323-.161h.011v.387l-.011.011H3.773Zm-.269-.248.28.215V1.492a.452.452,0,0,0-.28.129m.377.248V1.858H3.86l-.011-.011V1.46H3.86a.446.446,0,0,1,.312.161h.011l-.011.022-.291.215Zm0-.032h0l.28-.215a.452.452,0,0,0-.28-.129Z" transform="translate(14.759 4.406)"/>
      <path id="Tracciato_6465" data-name="Tracciato 6465" d="M3.324,3.34a1.235,1.235,0,0,1-.043-.635A1.451,1.451,0,0,1,3.6,2.049a1.938,1.938,0,0,0,1.044.291,2.369,2.369,0,0,0,1.281-.517c.1-.065.269-.215.56-.409l.355-.226.28.291-.215.151L6.767,1.5A3.636,3.636,0,0,0,5.4,3.653a2.461,2.461,0,0,1-1.421,0,2.5,2.5,0,0,1-.657-.312" transform="translate(15.715 3.537)" fill="#9e8877"/>
      <path id="Tracciato_6466" data-name="Tracciato 6466" d="M4.685,3.781a2.409,2.409,0,0,1-.7-.108,2.352,2.352,0,0,1-.667-.312V3.35A1.466,1.466,0,0,1,3.275,2.7a1.29,1.29,0,0,1,.334-.657,2.006,2.006,0,0,0,1.044.28,2.24,2.24,0,0,0,1.27-.506L6,1.768c.108-.075.258-.2.5-.355l.344-.226h.022l.269.291.011.011V1.5l-.215.151H6.913l-.14-.129a4.3,4.3,0,0,0-.7.7,3.742,3.742,0,0,0-.657,1.442v.011a2.7,2.7,0,0,1-.732.108M3.34,3.339A2.421,2.421,0,0,0,5.4,3.652a3.742,3.742,0,0,1,.656-1.442,3.522,3.522,0,0,1,.721-.721h.011l.14.14.183-.14-.258-.269a3.71,3.71,0,0,0-.344.215,5.262,5.262,0,0,0-.5.355l-.075.054a2.3,2.3,0,0,1-1.281.506A1.768,1.768,0,0,1,3.62,2.07a1.294,1.294,0,0,0-.323.646,1.381,1.381,0,0,0,.043.624" transform="translate(15.71 3.527)"/>
      <path id="Tracciato_6467" data-name="Tracciato 6467" d="M3.323,1.745a1.054,1.054,0,0,1-.065-.387c.452-.022,2.131,0,2.239.323l-.1.377a2.461,2.461,0,0,1-1.421,0,2.5,2.5,0,0,1-.657-.312" transform="translate(15.716 5.132)" fill="#9e8877"/>
      <path id="Tracciato_6468" data-name="Tracciato 6468" d="M4.688,2.186a2.409,2.409,0,0,1-.7-.108,2.352,2.352,0,0,1-.667-.312V1.755a1.219,1.219,0,0,1-.065-.387l.011-.011c.441-.022,2.131-.011,2.26.323v.011l-.108.377v.011a2.7,2.7,0,0,1-.732.108M3.343,1.745A2.454,2.454,0,0,0,4,2.057a2.438,2.438,0,0,0,1.4,0l.1-.366c-.118-.323-1.776-.334-2.217-.312a2,2,0,0,0,.065.366" transform="translate(15.706 5.122)"/>
      <rect id="Rettangolo_478" data-name="Rettangolo 478" width="0.202" height="0.202" transform="translate(19.105 6.295) rotate(-45)" fill="#9e8877"/>
      <path id="Tracciato_6469" data-name="Tracciato 6469" d="M3.42,1.621h0l-.14-.14-.011-.011L3.42,1.32H3.43l.151.14v.022l-.151.14ZM3.3,1.471,3.42,1.6l.129-.129L3.42,1.352Z" transform="translate(15.823 4.825)"/>
      <path id="Tracciato_6470" data-name="Tracciato 6470" d="M7.654,4.734a.877.877,0,0,0-.366-.753.838.838,0,0,0-.893-.032H6.373V3.927a.879.879,0,0,1,.9.022L7.116,2.775l-.161-1.13a5.059,5.059,0,0,0-2.163-.022A5.141,5.141,0,0,0,3.123,2.3,3.093,3.093,0,0,1,4.468,4.659l-.011.011-.011-.011a2.95,2.95,0,0,0-.108-.613,1.3,1.3,0,0,0-.3.527,1.351,1.351,0,0,0,.248,1.1,2.354,2.354,0,0,0,1.464-.7l.14-.172a1.308,1.308,0,0,1,.538-.474c.172-.075.592-.237.818-.011a.584.584,0,0,1,.075.592h.312l.022-.172" transform="translate(14.398 6.749)" fill="#9e887c"/>
      <path id="Tracciato_6471" data-name="Tracciato 6471" d="M7.264,4.334c-.226-.226-.646-.065-.818.022a1.282,1.282,0,0,0-.538.463L5.769,5A2.409,2.409,0,0,1,4.3,5.7a1.342,1.342,0,0,1-.237-1.1,1.274,1.274,0,0,1,.291-.527,2.749,2.749,0,0,1,.108.6l.011.011h.011a3.124,3.124,0,0,0-.646-1.711,3.075,3.075,0,0,0-.689-.657,5.331,5.331,0,0,1,1.657-.678,5.234,5.234,0,0,1,2.163.022l.161,1.13c.054.4.108.786.172,1.173a.879.879,0,0,0-.9-.022l-.011.022h.022A.86.86,0,0,1,7.308,4a.828.828,0,0,1,.366.753l-.022.172h.022l.032-.172a.892.892,0,0,0-.377-.764c-.054-.4-.108-.8-.172-1.195L7,1.654V1.643a5.085,5.085,0,0,0-3.874.667v.022A3.213,3.213,0,0,1,3.831,3a3.043,3.043,0,0,1,.517,1.044,1.22,1.22,0,0,0-.312.549,1.415,1.415,0,0,0,.258,1.13H4.3a2.339,2.339,0,0,0,1.485-.71l.14-.172a1.241,1.241,0,0,1,.527-.463c.129-.065.57-.248.786-.022a.545.545,0,0,1,.075.57h.032a.61.61,0,0,0-.086-.592" transform="translate(14.379 6.73)"/>
      <path id="Tracciato_6472" data-name="Tracciato 6472" d="M3.319,1.793l.011-.022Z" transform="translate(16.311 9.228)"/>
      <path id="Tracciato_6473" data-name="Tracciato 6473" d="M5.161,2.112a2.114,2.114,0,0,1,1.561-.032l.043.011L6.8,2.015,6.721,1.67,6.7,1.617c-.043-.065-.129-.043-.194-.043a2.743,2.743,0,0,0-.592-.043,1.732,1.732,0,0,0-.6.161c-.3.151-.581.344-.893.474a2.331,2.331,0,0,1-.635.215.883.883,0,0,1-.635-.172,2.9,2.9,0,0,1,.581.624,1.619,1.619,0,0,1,.237.42,3.248,3.248,0,0,1,.172.549,2.646,2.646,0,0,1,.075.646l-.032.086a.987.987,0,0,0-.1.248.849.849,0,0,0,.022.517l-.022-.226a.476.476,0,0,1,.1-.366.494.494,0,0,1,.237-.118,1.064,1.064,0,0,0,.355-.161.464.464,0,0,0,.215-.258.485.485,0,0,1-.377.28c-.1.032-.237.043-.3-.043-.032-.043-.011-.075-.011-.118l.011-.1a3.07,3.07,0,0,0-.3-1.636,2.193,2.193,0,0,1,.4.883A1.1,1.1,0,0,0,4.3,2.6a3.537,3.537,0,0,1,.323.592,2.23,2.23,0,0,1,.022-.71.79.79,0,0,1,.517-.366" transform="translate(14.642 6.853)"/>
      <path id="Tracciato_6474" data-name="Tracciato 6474" d="M3.915,2.96h-.2a.541.541,0,0,0-.291.054l.011-.022.043-.043.1-.054.172-.075.011-.011V2.8a2.7,2.7,0,0,0-.043-.291C3.668,2.336,3.635,2.164,3.6,2V1.97l.032-.032.054-.011h.032l.032.032.1.441.065.215a.575.575,0,0,0,.054.194L4,2.842h.1l.043.011.032.022-.2-.936-.011-.151a.148.148,0,0,1,.065-.14.13.13,0,0,1,.151-.011l.043.14c.065.387.129.786.183,1.173l.022.043.075.075a.555.555,0,0,1,.14.183v.086l-.065-.043a1.046,1.046,0,0,0-.4-.269,1.01,1.01,0,0,0-.258-.065" transform="translate(17.297 7.727)"/>
      <path id="Tracciato_6475" data-name="Tracciato 6475" d="M3.115,2.2l.172-.237.172-.172a1.91,1.91,0,0,1,.506-.269H4l.032.043a.675.675,0,0,0,.226.269A1.453,1.453,0,0,0,4.568,2c.032.022.075.043.075.086l-.065.065a1.539,1.539,0,0,1-.484.129,2.259,2.259,0,0,1-.71-.043.5.5,0,0,0-.28-.011L3.115,2.2" transform="translate(14.213 6.768)" fill="#9e8877"/>
      <path id="Tracciato_6476" data-name="Tracciato 6476" d="M4.134,1.434a3.07,3.07,0,0,0-.7.786,2.745,2.745,0,0,0-.28.624,2.9,2.9,0,0,0,.883.086,6.836,6.836,0,0,0,1.238-.366,2.942,2.942,0,0,1,1.3-.032c-.3-.344-.592-.689-.893-1.033l-1.55-.065" transform="translate(14.71 5.938)" fill="#9e8877"/>
      <path id="Tracciato_6477" data-name="Tracciato 6477" d="M3.874,2.951a3.2,3.2,0,0,1-.71-.086V2.855H3.153a2.946,2.946,0,0,1,.99-1.421h.011l1.55.054h.011L6.6,2.532h.011l-.022.022a2.887,2.887,0,0,0-1.291.032,2.673,2.673,0,0,0-.5.161,2.262,2.262,0,0,1-.743.194l-.183.011m-.689-.118a2.672,2.672,0,0,0,.872.086A2.337,2.337,0,0,0,4.8,2.725a3.117,3.117,0,0,1,.484-.172,3.136,3.136,0,0,1,1.27-.032l-.85-1-1.55-.065a2.789,2.789,0,0,0-.689.775,3.068,3.068,0,0,0-.28.6" transform="translate(14.691 5.938)"/>
      <path id="Tracciato_6478" data-name="Tracciato 6478" d="M4.208,1.769a2.424,2.424,0,0,0-.6.366,2.271,2.271,0,0,0-.527.678A2.3,2.3,0,0,1,3.7,2.748a5.69,5.69,0,0,1,.818.129c.517.011.689-.452,1.41-.85a3.262,3.262,0,0,1,1.173-.4l-.14-.151a3.515,3.515,0,0,0-1.076.312c-.506.248-.667.474-1.109.646a2.453,2.453,0,0,1-1.227.075,1.711,1.711,0,0,1,.28-.3,1.47,1.47,0,0,1,.226-.161l.151-.28" transform="translate(13.959 6.368)" fill="#9e8877"/>
      <path id="Tracciato_6479" data-name="Tracciato 6479" d="M4.54,2.9H4.529a2.17,2.17,0,0,1-.3-.054,2.094,2.094,0,0,0-.517-.086,2.394,2.394,0,0,0-.613.075l-.022-.011V2.812A2.175,2.175,0,0,1,3.6,2.134a2.7,2.7,0,0,1,.613-.377l.011.011v.011c-.043.086-.086.14-.151.28L3.84,2.22a2.258,2.258,0,0,0-.258.291,2.3,2.3,0,0,0,1.195-.086,2.609,2.609,0,0,0,.57-.312A3.62,3.62,0,0,1,5.9,1.778a3.545,3.545,0,0,1,1.076-.3l.151.14v.022a3.747,3.747,0,0,0-1.184.4,3.581,3.581,0,0,0-.657.484A1.085,1.085,0,0,1,4.54,2.9m-.861-.161h.032a1.837,1.837,0,0,1,.527.075.87.87,0,0,0,.291.054A1.027,1.027,0,0,0,5.261,2.5a4.137,4.137,0,0,1,.667-.484,3.65,3.65,0,0,1,1.152-.4L6.961,1.5a3.591,3.591,0,0,0-1.055.3,3.845,3.845,0,0,0-.549.334,2.381,2.381,0,0,1-.57.312,2.426,2.426,0,0,1-1.227.086L3.55,2.521V2.51a1.5,1.5,0,0,1,.28-.3l.226-.172L4.185,1.8a2.82,2.82,0,0,0-.56.344,2.365,2.365,0,0,0-.517.657,2.649,2.649,0,0,1,.57-.065" transform="translate(13.939 6.358)"/>
      <path id="Tracciato_6480" data-name="Tracciato 6480" d="M3.533,2.581l.043.032.043.022H3.63l.054.011h.065a.472.472,0,0,0,.409-.312.667.667,0,0,0-.151-.549.817.817,0,0,0-.226-.248l.1-.043.032-.011H4l.086-.022H4.2l.075.237.011.011c.022.022.667.6.484,1.065l-.065.118-.032-.086-.086-.032-.065-.032a.221.221,0,0,1-.075-.151l-.011-.011-.011.011a.552.552,0,0,1-.377.57.519.519,0,0,1-.613-.248.533.533,0,0,1-.022-.441l.011.032h.011l.022.022h0l.032.032.032.022Z" transform="translate(16.873 6.212)" fill="#fff200"/>
      <path id="Tracciato_6481" data-name="Tracciato 6481" d="M3.576,2.555A2.479,2.479,0,0,1,3.5,1.619l.054.108a1.127,1.127,0,0,0,.42.56,1,1,0,0,0,.452.1l-.086.108a.263.263,0,0,1-.194.075H4.061l-.011.011.011.011.086.011a.737.737,0,0,1,.409.161.759.759,0,0,1,.258.323l-.183.075a.621.621,0,0,1-.344-.043H4.276l-.011.022a.778.778,0,0,1,.28.387l.022.129a.7.7,0,0,0,.183.42A3.431,3.431,0,0,1,4.3,3.75c-.075-.086-.161-.172-.226-.258a2.684,2.684,0,0,1-.5-.936" transform="translate(17.948 7.744)" fill="#fff200"/>
      <path id="Tracciato_6482" data-name="Tracciato 6482" d="M7.984,4.121a1.724,1.724,0,0,0,.484-.344.989.989,0,0,1-.075.57,1.147,1.147,0,0,1-.926.517,1.221,1.221,0,0,1-.452-.054V4.8l-.022-.011a.845.845,0,0,0-.527-.215c-.043,0-.129.011-.151.065l.043.1a4.345,4.345,0,0,0,1,.6A4.627,4.627,0,0,0,8.4,5.6a4.717,4.717,0,0,1,.861.183l.086.032c.646.4.8.936.646,1.291a.84.84,0,0,1-.355.387.17.17,0,0,0,.011-.161,1.076,1.076,0,0,0-.506-.5L9.081,6.8a5.807,5.807,0,0,0-1.507-.6L7.209,6.08l-.075-.022A7.77,7.77,0,0,1,6.046,5.65a.967.967,0,0,1-.183-.28.453.453,0,0,1-.043-.194l-.032-.129a.716.716,0,0,0-.226-.355.664.664,0,0,0,.3.022.688.688,0,0,0,.2-.086V4.616A.906.906,0,0,0,5.8,4.261a.865.865,0,0,0-.344-.151l.129-.065.1-.14V3.9L5.67,3.885a.781.781,0,0,1-.452-.1.965.965,0,0,1-.409-.538c-.043-.086-.065-.14-.1-.129l-.022.011L4.669,3.2a.626.626,0,0,1-.215.237.727.727,0,0,1-.85-.011.678.678,0,0,1-.226-.657A.706.706,0,0,1,3.528,2.5a.589.589,0,0,0,.032.42.579.579,0,0,0,.5.291l.151-.032a.565.565,0,0,0,.4-.5l.054.075.075.032.065.032.043.108.011.011.011.011.086-.161c.183-.484-.441-1.065-.5-1.109l-.086-.215a1.154,1.154,0,0,1,.43.108l.248.248a4.865,4.865,0,0,0,1.27,2.088,1.423,1.423,0,0,0,.721.377,1.5,1.5,0,0,0,.947-.161" transform="translate(16.727 6.221)" fill="#00740b"/>
      <path id="Tracciato_6483" data-name="Tracciato 6483" d="M6.955,6.425a1.967,1.967,0,0,1-1.281.5.891.891,0,0,1-.527-.151,1.083,1.083,0,0,0,.291.032h.1a1.152,1.152,0,0,0,.936-.538.926.926,0,0,0,.075-.6,1.2,1.2,0,0,0-.28-.753c-.237-.291-.743-.592-1.044-.4a.507.507,0,0,0-.194.377.679.679,0,0,1-.42-.269.641.641,0,0,1-.075-.6l-.022-.022a.985.985,0,0,1-.829-.4A.968.968,0,0,1,3.565,3a.587.587,0,0,0,.4.237.46.46,0,0,0,.215-.022.514.514,0,0,1,.194-.043.73.73,0,0,1,.452.129h.011V3.283a.487.487,0,0,1-.118-.517.493.493,0,0,1,.269-.258,1.425,1.425,0,0,0,.312.624,1.487,1.487,0,0,0,.377.3,1.454,1.454,0,0,1,.387.312,1.293,1.293,0,0,1,.258.549l.011.022.022-.022a2.253,2.253,0,0,0-.086-.818A1.843,1.843,0,0,0,6,2.949a1.583,1.583,0,0,1-.258-.624A.9.9,0,0,1,5.825,1.7a.812.812,0,0,1,.947-.387.7.7,0,0,1,.3.312.446.446,0,0,0-.323.161.444.444,0,0,0-.043.226v.043a1.507,1.507,0,0,0,.14.721l.022.054a6.6,6.6,0,0,1,.312,1.248c.043.248.075.506.1.764v.011a.107.107,0,0,0,.108.054l.086-.075V4.822a.628.628,0,0,1,.1-.409l.108-.129a.452.452,0,0,0,.14-.194.478.478,0,0,0,.011-.215.552.552,0,0,1,.194.291.51.51,0,0,1,.011.183v.011h.022a.4.4,0,0,1,.323-.172l.118.032.118.043a.567.567,0,0,0,.237.011.473.473,0,0,0-.183.172l-.054.194a.341.341,0,0,1-.043.172A.514.514,0,0,1,8.182,5l-.011.022v.011l.1-.011.161.032.086.032.043.022.043.032.054.032a.515.515,0,0,0-.183.108l-.054.075a.407.407,0,0,1-.1.129.865.865,0,0,1-.28.1.97.97,0,0,0-.237.065,2.2,2.2,0,0,0-.344.258l-.226.237a3.432,3.432,0,0,1-.28.28" transform="translate(18.659 4.305)" fill="#fff200"/>
      <path id="Tracciato_6484" data-name="Tracciato 6484" d="M4.709,5.384l.011-.248-.011.248m.043-.3a2.479,2.479,0,0,0,.075.936,2.518,2.518,0,0,0,.5.936,2.425,2.425,0,0,0,.226.258A3.431,3.431,0,0,0,6,7.537a.615.615,0,0,1-.14-.226.489.489,0,0,1-.043-.194l-.032-.129A.752.752,0,0,0,5.516,6.6V6.579h.011a.681.681,0,0,0,.355.043l.183-.075a.759.759,0,0,0-.258-.323A.767.767,0,0,0,5.4,6.063l-.086-.011L5.3,6.041l.011-.011H5.4a.263.263,0,0,0,.194-.075l.075-.108a.984.984,0,0,1-.441-.1,1.127,1.127,0,0,1-.42-.56l-.054-.108M3.589,4.405a.508.508,0,0,0,.022.43.519.519,0,0,0,.613.248.539.539,0,0,0,.377-.56V4.513l.022.011a.218.218,0,0,0,.075.14l.065.032.086.043.032.086.065-.118c.183-.474-.463-1.055-.5-1.076V3.619l-.086-.226H4.257L4.171,3.4l-.022.011-.065.011H4.063l-.108.032a.851.851,0,0,1,.226.258.644.644,0,0,1,.151.538.452.452,0,0,1-.409.323l-.065-.011L3.8,4.556H3.794l-.043-.022-.043-.022H3.7L3.665,4.48l-.032-.022H3.622l-.011-.022L3.6,4.427ZM7.5,6.794a1.115,1.115,0,0,0,.915-.517.908.908,0,0,0,.075-.57A1.724,1.724,0,0,1,8,6.052a1.519,1.519,0,0,1-.947.172,1.614,1.614,0,0,1-.721-.377,4.753,4.753,0,0,1-1.259-2.1L4.816,3.5a1.339,1.339,0,0,0-.42-.108l.075.215c.054.054.678.635.5,1.109a.307.307,0,0,1-.086.151l-.011.011-.011-.011L4.827,4.75l-.065-.032-.075-.032L4.623,4.61a.54.54,0,0,1-.4.5l-.151.032a.541.541,0,0,1-.484-.291.6.6,0,0,1-.043-.42.7.7,0,0,0-.14.269.655.655,0,0,0,.226.657.712.712,0,0,0,.839.022A.787.787,0,0,0,4.7,5.126l.011-.043.011-.022.011-.011h.011c.032-.011.054.043.086.129a.98.98,0,0,0,.409.538.879.879,0,0,0,.452.108H5.7v.011l-.086.14-.14.075a.609.609,0,0,1,.344.151.816.816,0,0,1,.269.344v.011a.49.49,0,0,1-.2.086.5.5,0,0,1-.291-.022.716.716,0,0,1,.226.355l.022.14a.8.8,0,0,0,.043.194.9.9,0,0,0,.194.269,6.164,6.164,0,0,0,1.076.409l.086.022c.118.043.237.086.355.118a5.885,5.885,0,0,1,1.507.6l.075.043a1.159,1.159,0,0,1,.506.484.314.314,0,0,1-.011.172.934.934,0,0,0,.355-.4c.14-.355-.011-.893-.657-1.291l-.075-.032a4.83,4.83,0,0,0-.872-.183,4.379,4.379,0,0,1-1.033-.248,4.411,4.411,0,0,1-1.012-.6l-.032-.108c.011-.054.108-.065.14-.065a.821.821,0,0,1,.527.215l.032.022a1.187,1.187,0,0,0,.452.054m.1,4.025a.6.6,0,0,1,.732-.28,1.245,1.245,0,0,0,.85-.043H9.2v.011a.626.626,0,0,0-.022.237l.022.086.022.108a.3.3,0,0,1-.108.194A.68.68,0,0,0,9.573,11a.894.894,0,0,0,.355-.861v-.011a1.407,1.407,0,0,0,.441-.43,1.178,1.178,0,0,0-.14-1.4,2.127,2.127,0,0,0-.743-.517,1.1,1.1,0,0,1,.56,1.259,1.076,1.076,0,0,1-.452.463H9.584a.494.494,0,0,1-.323-.032A.817.817,0,0,1,8.82,8.99a.367.367,0,0,0-.2.118.471.471,0,0,0,.086.57v.011L8.691,9.7a1.069,1.069,0,0,0-.667.172,1.171,1.171,0,0,0-.43.947m.4-.269a.708.708,0,0,0-.4.312H7.572a1.176,1.176,0,0,1,.441-1.012,1.163,1.163,0,0,1,.646-.183.5.5,0,0,1-.065-.57.435.435,0,0,1,.226-.14l.022.011a.749.749,0,0,0,.43.474c.108.043.248.086.334.022a.182.182,0,0,0,.043-.194,1.058,1.058,0,0,0-.5-.474l-.065-.043a6.139,6.139,0,0,0-1.5-.6l-.366-.108L7.141,8.01A5.772,5.772,0,0,1,6.054,7.6a2.439,2.439,0,0,1-.517-.366A2.717,2.717,0,0,1,5.322,7a2.666,2.666,0,0,1-.527-.969,2.782,2.782,0,0,1-.108-.85.652.652,0,0,1-.2.215.762.762,0,0,1-.872-.022.716.716,0,0,1-.237-.689.707.707,0,0,1,.194-.312h.022a.427.427,0,0,0,.334.183A.429.429,0,0,0,4.3,4.244a.6.6,0,0,0-.14-.517,1.091,1.091,0,0,0-.237-.269l.011-.011.1-.032L4.063,3.4l.054-.011.022-.011h.011l.108-.011h.118a1.164,1.164,0,0,1,.463.108V3.49l.248.248H5.1A4.726,4.726,0,0,0,6.355,5.826a1.5,1.5,0,0,0,.71.366,1.424,1.424,0,0,0,.926-.161,1.61,1.61,0,0,0,.5-.355,1.257,1.257,0,0,0-.269-.732c-.237-.28-.732-.581-1.022-.387a.515.515,0,0,0-.183.366L7,4.932H6.99a.673.673,0,0,1-.441-.28.751.751,0,0,1-.086-.613.969.969,0,0,1-.829-.409.953.953,0,0,1-.129-.646l.011-.011.011.011a.626.626,0,0,0,.4.258.411.411,0,0,0,.2-.032.526.526,0,0,1,.2-.043.684.684,0,0,1,.4.1.494.494,0,0,1-.075-.484.5.5,0,0,1,.3-.291l.011.011a1.41,1.41,0,0,0,.312.635,1.739,1.739,0,0,0,.366.3,1.314,1.314,0,0,1,.4.323,1.473,1.473,0,0,1,.248.484A2.1,2.1,0,0,0,8.207,3.5a2.3,2.3,0,0,0-.258-.517,1.493,1.493,0,0,1-.269-.635A.96.96,0,0,1,7.765,1.7a.828.828,0,0,1,.979-.387.659.659,0,0,1,.323.344v.011H9.057a.449.449,0,0,0-.323.151.353.353,0,0,0-.043.2V2.07a1.648,1.648,0,0,0,.14.721l.022.054a5.868,5.868,0,0,1,.312,1.248,6.18,6.18,0,0,1,.1.764l.075.043L9.4,4.846a.677.677,0,0,1,.108-.43l.108-.129a.339.339,0,0,0,.14-.183.44.44,0,0,0,0-.237V3.856h.022A.565.565,0,0,1,10,4.179a.368.368,0,0,1,.022.161.388.388,0,0,1,.312-.161l.129.043.108.043a.592.592,0,0,0,.355-.032l.011.011v.011a.533.533,0,0,0-.291.226.41.41,0,0,0-.043.183.461.461,0,0,1-.054.172.476.476,0,0,1-.269.194l.118.022.086.043.032.011.054.032.086.043.022.011-.011.011a.466.466,0,0,0-.215.118L10.4,5.4l-.108.129a.688.688,0,0,1-.28.108.7.7,0,0,0-.226.065,1.644,1.644,0,0,0-.355.248l-.215.237-.28.291a2.059,2.059,0,0,1-1.3.5.959.959,0,0,1-.613-.2L6.99,6.741a.824.824,0,0,0-.506-.215l-.118.054.032.075a4.09,4.09,0,0,0,1,.592,3.909,3.909,0,0,0,1.033.248,6.189,6.189,0,0,1,.861.194l.086.032a2.015,2.015,0,0,1,.861.57,1.2,1.2,0,0,1,.151,1.421,1.3,1.3,0,0,1-.441.43.906.906,0,0,1-.366.883.842.842,0,0,1-.463.14H9.089l-.022-.011v-.011a.3.3,0,0,0,.129-.2l-.022-.1-.022-.086a.535.535,0,0,1,.011-.226,1.307,1.307,0,0,1-.527.1,1.852,1.852,0,0,1-.312-.054.59.59,0,0,0-.334-.022m.032-6.78a1.454,1.454,0,0,0-.387-.312,1.773,1.773,0,0,1-.377-.3,1.467,1.467,0,0,1-.312-.635.484.484,0,0,0-.269.269.492.492,0,0,0,.118.517l.011.011-.022.011a.822.822,0,0,0-.452-.14l-.194.043a.455.455,0,0,1-.215.032.606.606,0,0,1-.4-.248,1,1,0,0,0,.118.6,1.02,1.02,0,0,0,.829.4l.011.011.011.011a.715.715,0,0,0,.075.6.653.653,0,0,0,.42.258.479.479,0,0,1,.194-.366c.3-.194.807.108,1.055.387a1.269,1.269,0,0,1,.269.764.871.871,0,0,1-.075.6,1.122,1.122,0,0,1-.936.527l-.1.011a1.826,1.826,0,0,1-.291-.032.975.975,0,0,0,.527.151,2.062,2.062,0,0,0,1.281-.5,3.567,3.567,0,0,0,.28-.291l.226-.226a1.236,1.236,0,0,1,.355-.258A.8.8,0,0,1,10,5.6a.669.669,0,0,0,.28-.1l.1-.118.065-.075a.382.382,0,0,1,.172-.118l-.054-.032-.032-.022-.054-.022-.086-.043-.161-.022h-.086l-.011-.011.011-.011a.52.52,0,0,0,.387-.2.3.3,0,0,0,.043-.161.653.653,0,0,1,.054-.194.407.407,0,0,1,.183-.172.567.567,0,0,1-.237-.011l-.118-.043L10.337,4.2a.481.481,0,0,0-.323.172L10,4.384l-.011-.022a.353.353,0,0,0-.011-.183.48.48,0,0,0-.194-.28.478.478,0,0,1-.011.215.364.364,0,0,1-.14.194l-.108.129a.6.6,0,0,0-.1.409.091.091,0,0,1-.086.075.089.089,0,0,1-.108-.054q-.032-.387-.1-.775a6.472,6.472,0,0,0-.312-1.238L8.809,2.8a1.536,1.536,0,0,1-.14-.721V2.027a.406.406,0,0,1,.043-.215.446.446,0,0,1,.323-.161.6.6,0,0,0-.3-.312.812.812,0,0,0-.947.377.861.861,0,0,0-.075.635,1.337,1.337,0,0,0,.248.613,2.085,2.085,0,0,1,.269.538,2.041,2.041,0,0,1,.086.818l-.022.011-.011-.011a1.183,1.183,0,0,0-.258-.549" transform="translate(16.698 4.28)"/>
      <path id="Tracciato_6485" data-name="Tracciato 6485" d="M3.193,1.977l.118.054a.391.391,0,0,1,.043-.312.453.453,0,0,1,.2.172.549.549,0,0,1,.075-.4V1.472l.043.022a.6.6,0,0,1,.161.291.446.446,0,0,1,.14-.377.91.91,0,0,1,.14.237.529.529,0,0,1,.226-.28.684.684,0,0,1,.075.355,1.34,1.34,0,0,0,.2-.226.49.49,0,0,1,.065.323l.118-.226.161.248.108-.344a1.172,1.172,0,0,1,.108.269.7.7,0,0,0,.108-.387.49.49,0,0,1,.14.463A.4.4,0,0,1,5.69,1.6a.639.639,0,0,0-.075.28,1.668,1.668,0,0,1,.183-.14l.032.183A.28.28,0,0,0,6,1.59a.455.455,0,0,1,.14.344.31.31,0,0,0,.14-.269.479.479,0,0,1,.108.312.339.339,0,0,0,.14-.183.315.315,0,0,1-.032.323A.231.231,0,0,1,6.745,2.1l-.172.161a.607.607,0,0,1-.215.118,1.693,1.693,0,0,1-.57.011c-.344-.032-.667-.1-.99-.14a2.837,2.837,0,0,0-1,.011,1.478,1.478,0,0,1-.3.054.321.321,0,0,1-.28-.118l-.022-.215" transform="translate(15.081 5.255)" fill="#007c0d"/>
      <path id="Tracciato_6486" data-name="Tracciato 6486" d="M6.076,2.429,5.8,2.408c-.194-.022-.387-.054-.57-.075-.14-.032-.28-.054-.43-.075a3.107,3.107,0,0,0-.99.022L3.73,2.29a.7.7,0,0,1-.226.043.29.29,0,0,1-.28-.118l-.011-.108L3.192,2V1.977H3.2l.1.043a.374.374,0,0,1,.065-.3l.011-.011a.592.592,0,0,1,.183.14.442.442,0,0,1,.075-.355l.032-.022.032.022a.615.615,0,0,1,.14.226.368.368,0,0,1,.151-.312H4.01l.118.215a.531.531,0,0,1,.226-.258h.011l.011.011a.791.791,0,0,1,.075.323l.183-.2h.011l.011.011a.553.553,0,0,1,.065.269l.1-.183h.022l.14.226L5.065,1.5l.011-.011h.011a.749.749,0,0,1,.118.248.822.822,0,0,0,.086-.355V1.375h.022a.553.553,0,0,1,.161.4A.414.414,0,0,1,5.7,1.6H5.71l.011.011a.549.549,0,0,0-.075.248.567.567,0,0,1,.161-.118h.011l.011.011.022.172A.289.289,0,0,0,6,1.6l.011-.022h.011a.591.591,0,0,1,.151.334.3.3,0,0,0,.118-.237L6.3,1.665h.011a.509.509,0,0,1,.108.291.387.387,0,0,0,.118-.151l.011-.011.011.011a.32.32,0,0,1-.011.28.251.251,0,0,1,.215,0l.011.022-.011.011-.108.1L6.6,2.268a.591.591,0,0,1-.226.129,1.435,1.435,0,0,1-.3.032M4.3,2.2c.194,0,.366.022.5.032l.441.065c.183.032.377.065.56.086a1.7,1.7,0,0,0,.57-.011.589.589,0,0,0,.215-.118l.065-.065.086-.086a.218.218,0,0,0-.215.032H6.5V2.117a.291.291,0,0,0,.054-.28A.477.477,0,0,1,6.421,2H6.41L6.4,1.988a.533.533,0,0,0-.086-.28.387.387,0,0,1-.14.248H6.152V1.945a.613.613,0,0,0-.118-.312.3.3,0,0,1-.194.312l-.011-.011-.022-.161a.657.657,0,0,0-.172.129H5.624l-.011-.011a.653.653,0,0,1,.065-.258.385.385,0,0,0-.215.215l-.011.011-.011-.011a.52.52,0,0,0-.129-.43.776.776,0,0,1-.1.366H5.2l-.011-.011a.942.942,0,0,0-.108-.237l-.1.312-.011.011H4.968l-.14-.237-.118.2v.011l-.022-.011a.574.574,0,0,0-.043-.3,1.934,1.934,0,0,1-.2.215H4.43L4.419,1.73A.6.6,0,0,0,4.354,1.4a.453.453,0,0,0-.215.269l-.011.011-.011-.011A1.62,1.62,0,0,0,4,1.429a.418.418,0,0,0-.14.366l-.011.011-.011-.011a.777.777,0,0,0-.151-.28L3.666,1.5H3.655a.521.521,0,0,0-.075.387L3.569,1.9H3.558a.38.38,0,0,0-.183-.161.372.372,0,0,0-.043.3v.011H3.321l-.1-.043.011.1v.086a.292.292,0,0,0,.269.118l.226-.043.065-.011A2.077,2.077,0,0,1,4.3,2.2" transform="translate(15.072 5.255)"/>
      <path id="Tracciato_6487" data-name="Tracciato 6487" d="M3.535,1.456a.169.169,0,0,1,.172.032.275.275,0,0,1,.1.161V1.66a.5.5,0,0,1-.022.172v.022L3.8,1.843a.5.5,0,0,0,.022-.172.158.158,0,0,1,.172.1l.011.14a.25.25,0,0,1-.14.2.274.274,0,0,1-.161.032.21.21,0,0,1-.14-.086L3.513,1.94V1.682L3.5,1.617l-.022-.129.054-.032" transform="translate(17.893 6.046)" fill="#007c0d"/>
      <path id="Tracciato_6488" data-name="Tracciato 6488" d="M3.759,1.609l.065.118.032.032.043.032a.3.3,0,0,1,.065.161l.011.011L4,1.954a.548.548,0,0,0-.075-.183l-.043-.032-.022-.022L3.78,1.6l-.011-.011Zm-.269.226a.392.392,0,0,0-.043-.291l-.022-.032.054-.065.075-.011.1.011.022.022.022.011.054.032L3.8,1.491l.011-.011.108.011a.162.162,0,0,1,.075.1l.022.118V1.76l.011.129v.129c0,.032-.011.075-.065.075L3.9,2.083,3.812,2l-.043-.129-.022-.075a.223.223,0,0,0-.129-.172V1.609l-.011.011v.022a.217.217,0,0,1,.118.161l.022.065.032.118a.18.18,0,0,1-.108,0l-.108-.032a.2.2,0,0,1-.075-.118" transform="translate(17.346 5.967)" fill="#ffe600"/>
      <path id="Tracciato_6489" data-name="Tracciato 6489" d="M3.735,1.844l.086.086.086.032H3.95V1.941L3.907,1.93l-.075-.022-.075-.075-.011-.011-.022-.011v.022ZM3.724,1.51H3.692l.011.022.022.011.108.075.043.129.022.011.011-.011-.054-.14a.231.231,0,0,0-.129-.1m-.043-.043.054.032.075-.011.032-.011.1.022.086.065.065.1.032.172v.086l-.011.043-.022.032L4,2.027l-.043-.011-.043-.022-.043-.022-.043-.011H3.767l-.118-.011-.108-.065L3.5,1.855V1.844l-.043-.1H3.444L3.423,1.7l-.011-.022L3.38,1.65l-.011-.022-.011-.086L3.4,1.456l.043-.022H3.5a.209.209,0,0,1,.161.022l.022.011" transform="translate(16.692 5.884)" fill="#007c0d"/>
      <path id="Tracciato_6490" data-name="Tracciato 6490" d="M3.632,1.638a.219.219,0,0,1,.161.065l.054.1.011.032a.21.21,0,0,0,.118.118l.011-.011V1.929a.163.163,0,0,1-.1-.108l-.022-.032-.054-.108a.35.35,0,0,0-.183-.075v.032m-.312-.172.1-.043h.065l.032.011.011.011a.282.282,0,0,0,.161.022l.054-.022.054-.011.1.011.043.108v.032l.011.1.065.1.011.022.011.043.022.032.011.022v.032C4.051,1.972,4,2,3.922,2a.307.307,0,0,1-.215-.032.285.285,0,0,1-.086-.237V1.724L3.6,1.735a.284.284,0,0,0,.1.258L3.718,2a.162.162,0,0,1-.183,0l-.108-.1L3.384,1.8l-.011-.022L3.33,1.7l-.011-.075L3.309,1.6a.128.128,0,0,1,.011-.129" transform="translate(16.096 5.831)" fill="#ffe600"/>
      <path id="Tracciato_6491" data-name="Tracciato 6491" d="M3.508,1.455l.129.032.1-.032.022-.011c.043-.011.108-.032.14.011l.032.075v.011l.054.161.054.14.043.075V2l-.054.032a.288.288,0,0,1-.269-.086L3.745,1.94A.513.513,0,0,1,3.615,1.7V1.671l.022-.043.054-.011L3.7,1.606V1.584l-.075.022-.032.065V1.7a.749.749,0,0,0,.118.248l-.151.032a.244.244,0,0,1-.172-.065l-.032-.032-.022-.065-.022-.032-.032-.032-.043-.108-.011-.032V1.509a.152.152,0,0,1,.108-.086l.129.011.043.022" transform="translate(15.423 5.831)" fill="#007c0d"/>
      <path id="Tracciato_6492" data-name="Tracciato 6492" d="M3.835,1.828,3.8,1.774l-.1-.194L3.7,1.516c-.022-.032-.043-.075-.086-.086l-.118.022-.129.032-.032-.011-.054-.011H3.232l-.032.1v.032l.022.1V1.71L3.2,1.8l-.011.032a.176.176,0,0,0,0,.129c.043.065.14.043.172.032a.243.243,0,0,0,.14-.065l.011-.118A.331.331,0,0,0,3.351,1.7l-.065.011-.022.032-.011.011H3.232V1.742l.054-.065h.075a.255.255,0,0,1,.161.1l.011.011.022.043.086.1a.131.131,0,0,0,.14,0L3.835,1.9V1.828" transform="translate(14.924 5.899)" fill="#ffe600"/>
      <path id="Tracciato_6493" data-name="Tracciato 6493" d="M3.478,1.452l.065.118.032.022.032.022a.339.339,0,0,1,.086.194l-.011.011H3.66a.237.237,0,0,0-.054-.172l-.032-.022-.054-.032-.065-.118V1.452Z" transform="translate(17.649 6.114)"/>
      <path id="Tracciato_6494" data-name="Tracciato 6494" d="M3.414,1.475,3.5,1.55l.075.022.022.011.011.022H3.564l-.075-.032a.19.19,0,0,1-.1-.086V1.464H3.4Z" transform="translate(17.024 6.231)"/>
      <path id="Tracciato_6495" data-name="Tracciato 6495" d="M3.4,1.435h.022a.217.217,0,0,1,.118.1.253.253,0,0,1,.054.14v.011H3.583l-.011-.011-.043-.129-.108-.075H3.4l-.011-.011L3.4,1.435" transform="translate(16.995 5.948)"/>
      <path id="Tracciato_6496" data-name="Tracciato 6496" d="M3.338,1.44a.305.305,0,0,1,.183.075l.054.108.011.032c.032.054.054.1.1.108l.011.011-.022.011c-.043-.011-.075-.054-.108-.118l-.011-.032L3.5,1.526a.3.3,0,0,0-.161-.065l-.011-.011Z" transform="translate(16.39 5.997)"/>
      <path id="Tracciato_6497" data-name="Tracciato 6497" d="M4.521,1.722l.043.075.011.022.054.108.1.108a.18.18,0,0,0,.194,0l-.032-.022a.315.315,0,0,1-.1-.258L4.8,1.744l.011.011a.285.285,0,0,0,.086.237.388.388,0,0,0,.215.043c.075-.011.129-.043.14-.086l.011-.022-.022-.032-.011-.032L5.21,1.819,5.2,1.8l-.065-.086V1.7l-.011-.1V1.572l-.043-.108-.1-.011-.032.011-.075.022a.282.282,0,0,1-.161-.022l-.032-.022H4.618l-.108.043c-.022.032-.022.065-.011.129l.011.032.011.075m-.656.118.022.065.032.043a.244.244,0,0,0,.172.065.35.35,0,0,0,.151-.043.45.45,0,0,1-.118-.237L4.112,1.7l.043-.075.065-.011.011.011-.011.011-.054.011-.022.043v.032a.513.513,0,0,0,.129.237V1.97a.35.35,0,0,0,.269.1L4.6,2.034l.011-.043V1.938l-.054-.065L4.5,1.733l-.043-.172-.032-.086A.141.141,0,0,0,4.3,1.464l-.032.011-.1.032-.129-.032-.043-.011a.214.214,0,0,0-.14-.011l-.1.075L3.746,1.6l.011.022.011.043.043.108.011.022.043.043M3.23,1.647v.032l.022.1V1.8l-.032.086v.032a.135.135,0,0,0,0,.129c.043.065.129.043.172.032a.184.184,0,0,0,.129-.065l.022-.118a.331.331,0,0,0-.161-.108L3.316,1.8l-.032.032-.011.011H3.262V1.83l.043-.054.075-.011a.255.255,0,0,1,.161.1l.011.011.022.043.086.1a.15.15,0,0,0,.151,0l.043-.022.011-.032V1.927l-.043-.065-.086-.194L3.725,1.6c-.022-.032-.043-.075-.086-.086a.194.194,0,0,0-.129.032l-.118.022-.043-.011L3.305,1.55H3.262l-.032.1m3.239.075.022.129.011.065v.248a.331.331,0,0,0,.054.129.168.168,0,0,0,.14.075.209.209,0,0,0,.161-.022.221.221,0,0,0,.129-.215.262.262,0,0,0,0-.129.192.192,0,0,0-.172-.108.564.564,0,0,1-.022.183l-.011.011-.011-.022.022-.172H6.781V1.873A.3.3,0,0,0,6.7,1.712a.2.2,0,0,0-.172-.022l-.054.032M5.888,1.7a.352.352,0,0,1,.054.291.2.2,0,0,0,.075.118l.108.032h.108l-.043-.118-.011-.065c-.032-.086-.065-.14-.118-.161l-.011-.011.011-.011h.011a.249.249,0,0,1,.129.172l.022.075.043.129.086.086.065.011c.054,0,.065-.043.065-.075V2.045l-.011-.129V1.873l-.022-.129a.162.162,0,0,0-.075-.1l-.108-.011-.022.011L6.2,1.669l-.065-.022-.011-.022L6.1,1.6l-.1-.011L5.931,1.6l-.054.065Zm-.4-.183.043.022L5.6,1.529h.022a.148.148,0,0,1,.118.011l.1.086.022.022.065-.075.086-.011.108.022.022.022.011.022.032.022.043-.011.022-.011a.131.131,0,0,1,.14,0l.075.075.054-.032a.206.206,0,0,1,.2.032.272.272,0,0,1,.1.172.2.2,0,0,1,.194.118.345.345,0,0,1,.011.151.254.254,0,0,1-.151.226L6.738,2.4H6.706a.214.214,0,0,1-.172-.1l-.043-.075-.075.043L6.34,2.26l-.1-.1-.118.011L6,2.131l-.075-.1-.032.043-.1.032H5.737l-.043-.032-.043-.022-.043-.011-.043.011-.129-.011-.118-.065-.043-.032v.011q-.016.081-.161.1a.324.324,0,0,1-.172-.011l-.108.043-.118-.043-.086-.065v.011l-.011.065-.054.022L4.5,2.088a.334.334,0,0,1-.237-.1.507.507,0,0,1-.172.043A.3.3,0,0,1,3.9,1.97l-.011-.022V1.97L3.875,2l-.054.043a.239.239,0,0,1-.172-.011l-.075-.086-.032.075a.25.25,0,0,1-.14.086H3.316L3.2,2.067a.182.182,0,0,1-.011-.151L3.2,1.873l.022-.1-.011-.065L3.2,1.658a.134.134,0,0,1,.054-.129l.1.011.032.011L3.5,1.518a.342.342,0,0,1,.14-.022l.086.065V1.529a.155.155,0,0,1,.129-.1A.247.247,0,0,1,4,1.443l.022.011.129.032.1-.032L4.3,1.443c.065-.022.118-.011.14.022l.032.054.022-.043.118-.054h.065l.032.011.022.011.151.022.032-.011.065-.022.118.022.054.1.032-.043.054-.022.054-.011a.236.236,0,0,1,.172.022l.032.022m.032.043L5.49,1.55l-.032-.022A.231.231,0,0,0,5.3,1.5l-.065.011L5.2,1.529,5.145,1.6l.011.086.011.011.022.043.022.022.022.043h.011l.043.108v.011l.043.032.118.065a.22.22,0,0,0,.118,0h.043l.054.011.043.032.032.011.054.011.086-.022L5.9,2.024l.011-.032v-.1l-.032-.172-.065-.086-.086-.075-.1-.011H5.6l-.075.011" transform="translate(14.905 5.811)"/>
    </g>
  </g>
</svg>
