<svg xmlns="http://www.w3.org/2000/svg" xmlns:xlink="http://www.w3.org/1999/xlink" width="24" height="24" viewBox="0 0 24 24">
  <defs>
    <clipPath id="clip-path">
      <path id="Tracciato_7044" data-name="Tracciato 7044" d="M.674,12.749a12,12,0,1,0,12-12,12,12,0,0,0-12,12" transform="translate(-0.674 -0.749)" fill="none"/>
    </clipPath>
  </defs>
  <g id="Repubblica_Dominicana" data-name="Repubblica Dominicana" transform="translate(-0.674 -0.749)">
    <g id="Raggruppa_215" data-name="Raggruppa 215" transform="translate(0.674 0.749)" clip-path="url(#clip-path)">
      <rect id="Rettangolo_524" data-name="Rettangolo 524" width="38.508" height="24.065" transform="translate(-7.254 -0.032)" fill="#fff"/>
      <rect id="Rettangolo_525" data-name="Rettangolo 525" width="16.488" height="9.439" transform="translate(-7.254 -0.032)" fill="#003f81"/>
      <rect id="Rettangolo_526" data-name="Rettangolo 526" width="16.488" height="9.439" transform="translate(14.766 14.594)" fill="#003f81"/>
      <rect id="Rettangolo_527" data-name="Rettangolo 527" width="16.488" height="9.439" transform="translate(-7.254 14.594)" fill="#ce1124"/>
      <rect id="Rettangolo_528" data-name="Rettangolo 528" width="16.488" height="9.439" transform="translate(14.766 -0.032)" fill="#ce1124"/>
      <path id="Tracciato_6827" data-name="Tracciato 6827" d="M5.219,1.653H1.624l.355.334L1.968,4.613a.293.293,0,0,0,.108.258.49.49,0,0,0,.28.043l.5-.011a.838.838,0,0,1,.4.1.962.962,0,0,1,.183.172A.513.513,0,0,1,3.6,5a.767.767,0,0,1,.387-.1l.5.011c.151,0,.215,0,.28-.043a.293.293,0,0,0,.108-.258L4.863,1.987Z" transform="translate(8.6 8.076)" fill="#fff"/>
      <path id="Tracciato_6828" data-name="Tracciato 6828" d="M3.431,5.193H3.42a.52.52,0,0,0-.172-.172.827.827,0,0,0-.387-.1H2.785l-.42.011h-.1a.345.345,0,0,1-.194-.043.314.314,0,0,1-.108-.269V2.007l-.344-.334V1.663l.011-.011H5.228l.011.011-.011.011-.344.334.011,2.615a.294.294,0,0,1-.118.269.288.288,0,0,1-.183.043H4.5l-.42-.011H4a.8.8,0,0,0-.387.1.427.427,0,0,0-.172.172ZM2.785,4.9h.075a.87.87,0,0,1,.4.1.65.65,0,0,1,.172.172A.524.524,0,0,1,3.6,5,.838.838,0,0,1,4,4.9h.075l.42.011h.1a.273.273,0,0,0,.172-.043.261.261,0,0,0,.108-.248L4.862,2,5.2,1.674H1.655L1.989,2V4.622c0,.129.022.194.108.248.054.043.129.043.269.043l.42-.011" transform="translate(8.59 8.066)"/>
      <path id="Tracciato_6829" data-name="Tracciato 6829" d="M3,1.839V2.8a.293.293,0,0,1-.108.258c-.065.043-.129.043-.28.043l-.5-.011a1.357,1.357,0,0,0-.3.043L1.859,1.85Z" transform="translate(10.475 9.892)" fill="#003f87"/>
      <path id="Tracciato_6830" data-name="Tracciato 6830" d="M1.815,3.162l.032-1.313L3.01,1.838l.011.979a.286.286,0,0,1-.118.258.345.345,0,0,1-.194.043H2.622l-.43-.011H2.127a1.357,1.357,0,0,0-.3.054ZM1.869,1.87,1.837,3.14a1.163,1.163,0,0,1,.291-.054h.065l.43.011h.086a.288.288,0,0,0,.183-.043A.253.253,0,0,0,3,2.817V1.86Z" transform="translate(10.465 9.882)"/>
      <path id="Tracciato_6831" data-name="Tracciato 6831" d="M3.163,1.653H1.624l.355.334-.011,1.13,1.184.011Z" transform="translate(8.599 8.078)" fill="#003f87"/>
      <path id="Tracciato_6832" data-name="Tracciato 6832" d="M3.172,3.149,1.977,3.138V2l-.355-.344H3.193ZM2,3.117l1.162.011.011-1.453H1.665L2,1.987v1.13Z" transform="translate(8.581 8.076)"/>
      <path id="Tracciato_6833" data-name="Tracciato 6833" d="M1.815,1.653H3.354L3,1.987l.011,1.13-1.184.011Z" transform="translate(10.463 8.078)" fill="#ce0726"/>
      <path id="Tracciato_6834" data-name="Tracciato 6834" d="M1.825,3.159V3.137L1.814,1.652H3.385l-.366.355.011,1.13Zm.011-1.485.011,1.464,1.162-.022V1.986l.334-.312Z" transform="translate(10.455 8.066)"/>
      <path id="Tracciato_6835" data-name="Tracciato 6835" d="M2.84,3.151a1.253,1.253,0,0,0-.3-.054l-.5.011c-.14,0-.215.011-.28-.043a.272.272,0,0,1-.108-.248V1.838H2.84Z" transform="translate(8.913 9.882)" fill="#ce0726"/>
      <path id="Tracciato_6836" data-name="Tracciato 6836" d="M2.86,3.172H2.839a.87.87,0,0,0-.291-.054H2.473l-.42.011h-.1a.345.345,0,0,1-.194-.043.314.314,0,0,1-.108-.269V1.837H2.86ZM2.473,3.1h.075a1.355,1.355,0,0,1,.291.043V1.859H1.677v.958c0,.129.022.194.108.248.054.043.129.043.269.043l.42-.011" transform="translate(8.903 9.872)"/>
      <path id="Tracciato_6837" data-name="Tracciato 6837" d="M2.118,1.819H2V1.712H1.892v.108H1.774v.108h.118V2.39H2V1.927h.118Z" transform="translate(10.064 8.648)" fill="#ffd900"/>
      <path id="Tracciato_6838" data-name="Tracciato 6838" d="M2.01,2.411H1.891V1.937H1.773V1.819h.118V1.711H2.01v.108h.129v.118H2.01Zm-.1-.022h.075V1.915h.129V1.84H1.988V1.733H1.913V1.84H1.795v.075h.118Z" transform="translate(10.055 8.642)"/>
      <path id="Tracciato_6839" data-name="Tracciato 6839" d="M2.491,2.7,2.48,2.686l-.764-.979V1.674l.032.011.764.979L2.5,2.7Z" transform="translate(9.497 8.283)"/>
      <path id="Tracciato_6840" data-name="Tracciato 6840" d="M1.707,1.661l.075.194L1.868,1.8Z" transform="translate(9.41 8.152)" fill="#ffd900"/>
      <path id="Tracciato_6841" data-name="Tracciato 6841" d="M1.862,1.692s-.151,1.442-.172,1.593a.418.418,0,0,0,0,.118.588.588,0,0,0,.194.334.6.6,0,0,0,.377.14.709.709,0,0,0,.409-.108c.2-.14.161-.463.14-.721a2.151,2.151,0,0,0-.118-.527Z" transform="translate(9.191 8.457)" fill="#fff"/>
      <path id="Tracciato_6842" data-name="Tracciato 6842" d="M1.8,1.692,1.691,2.747a.793.793,0,0,0,.3.151L2.111,2Z" transform="translate(9.254 8.457)" fill="#003f87"/>
      <path id="Tracciato_6843" data-name="Tracciato 6843" d="M1.713,1.812a.335.335,0,0,0,.312.129c-.043.5.161.743.657.646A.648.648,0,0,1,1.7,2.318a1.862,1.862,0,0,1,.011-.506" transform="translate(9.2 9.628)" fill="#ce0726"/>
      <path id="Tracciato_6844" data-name="Tracciato 6844" d="M1.823,1.747l-.075.7A1.006,1.006,0,0,1,2.2,2.63a2,2,0,0,0-.129-.635Z" transform="translate(9.811 8.994)" fill="#ce0726"/>
      <path id="Tracciato_6845" data-name="Tracciato 6845" d="M1.763,1.848s-.054.183.011.237l.14.054a1.205,1.205,0,0,0,.344-.011L2.269,2c-.129-.022-.4-.215-.506-.151" transform="translate(9.753 9.851)" fill="#003f87"/>
      <path id="Tracciato_6846" data-name="Tracciato 6846" d="M2.2,3.9h0a.519.519,0,0,1-.323-.14.534.534,0,0,1-.194-.334V3.305c.022-.151.172-1.582.172-1.593V1.691l.85.85a1.712,1.712,0,0,1,.118.527V3.09c.022.248.054.56-.14.71a.659.659,0,0,1-.42.1H2.2M1.878,1.734c-.022.183-.151,1.431-.172,1.571a.4.4,0,0,0,0,.118.539.539,0,0,0,.194.323.483.483,0,0,0,.3.129l.065.011a.707.707,0,0,0,.409-.108c.183-.14.161-.43.14-.689L2.8,3.069a1.785,1.785,0,0,0-.118-.527Z" transform="translate(9.186 8.447)"/>
      <path id="Tracciato_6847" data-name="Tracciato 6847" d="M2.59,2.6H2.58L1.7,1.721V1.689h.032l.872.883v.022L2.59,2.6" transform="translate(9.313 8.424)"/>
      <path id="Tracciato_6848" data-name="Tracciato 6848" d="M1.686,1.676l.108.183.065-.065Z" transform="translate(9.206 8.302)" fill="#ffd900"/>
      <path id="Tracciato_6849" data-name="Tracciato 6849" d="M1.685,1.709v1.6l.011.118a.5.5,0,0,0,.226.3.555.555,0,0,0,.387.1.621.621,0,0,0,.4-.14c.183-.172.118-.484.065-.732a1.762,1.762,0,0,0-.183-.517Z" transform="translate(9.196 8.623)" fill="#fff"/>
      <path id="Tracciato_6850" data-name="Tracciato 6850" d="M1.685,1.709V2.774a.788.788,0,0,0,.323.118l.011-.915Z" transform="translate(9.196 8.623)" fill="#003f87"/>
      <path id="Tracciato_6851" data-name="Tracciato 6851" d="M1.686,1.829a.31.31,0,0,0,.323.086c.011.506.237.732.721.581a.645.645,0,0,1-1-.161,1.859,1.859,0,0,1-.043-.506" transform="translate(9.195 9.794)" fill="#ce0726"/>
      <path id="Tracciato_6852" data-name="Tracciato 6852" d="M1.744,1.758v.7a1.16,1.16,0,0,1,.474.129,2.158,2.158,0,0,0-.2-.613Z" transform="translate(9.772 9.101)" fill="#ce0726"/>
      <path id="Tracciato_6853" data-name="Tracciato 6853" d="M1.749,1.866s-.032.183.032.237l.151.032a.837.837,0,0,0,.334-.054l.011-.118c-.14-.011-.43-.172-.527-.1" transform="translate(9.745 9.962)" fill="#003f87"/>
      <path id="Tracciato_6854" data-name="Tracciato 6854" d="M2.265,3.87h0a.517.517,0,0,1-.334-.108.57.57,0,0,1-.237-.312l-.011-.118V1.707l.936.753a2.083,2.083,0,0,1,.172.517V3c.054.248.118.549-.065.721a.648.648,0,0,1-.409.14l-.054.011m-.56-2.12V3.332l.011.118a.608.608,0,0,0,.226.3.545.545,0,0,0,.323.1h.054a.737.737,0,0,0,.4-.151c.172-.151.108-.441.065-.7l-.011-.022A2.161,2.161,0,0,0,2.6,2.471Z" transform="translate(9.186 8.603)"/>
      <path id="Tracciato_6855" data-name="Tracciato 6855" d="M2.66,2.523H2.649l-.969-.786V1.706H1.7l.969.786v.022l-.011.011" transform="translate(9.155 8.589)"/>
      <path id="Tracciato_6856" data-name="Tracciato 6856" d="M1.668,1.695l.118.172.065-.075Z" transform="translate(9.031 8.482)" fill="#ffd900"/>
      <path id="Tracciato_6857" data-name="Tracciato 6857" d="M1.814,2.694H1.8l-.011-.022.764-.99.022-.011.022.022-.775.99Z" transform="translate(10.248 8.254)"/>
      <path id="Tracciato_6858" data-name="Tracciato 6858" d="M2.022,1.658l-.075.194L1.861,1.8Z" transform="translate(10.913 8.121)" fill="#ffd900"/>
      <path id="Tracciato_6859" data-name="Tracciato 6859" d="M2.758,1.689s.151,1.453.172,1.593v.129a.625.625,0,0,1-.194.334.583.583,0,0,1-.377.118.561.561,0,0,1-.409-.086c-.2-.14-.161-.463-.14-.721a2.258,2.258,0,0,1,.118-.538Z" transform="translate(10.242 8.428)" fill="#fff"/>
      <path id="Tracciato_6860" data-name="Tracciato 6860" d="M2.165,1.689l.108,1.065a1.314,1.314,0,0,1-.3.151l-.118-.893Z" transform="translate(10.836 8.428)" fill="#003f87"/>
      <path id="Tracciato_6861" data-name="Tracciato 6861" d="M2.783,1.809a.344.344,0,0,1-.323.129c.043.5-.161.743-.657.646a.648.648,0,0,0,.979-.269,1.563,1.563,0,0,0,0-.506" transform="translate(10.357 9.599)" fill="#ce0726"/>
      <path id="Tracciato_6862" data-name="Tracciato 6862" d="M2.17,1.744l.075.7a.9.9,0,0,0-.452.183,2,2,0,0,1,.129-.635Z" transform="translate(10.25 8.965)" fill="#ce0726"/>
      <path id="Tracciato_6863" data-name="Tracciato 6863" d="M2.3,1.845s.054.183-.011.237l-.14.054L1.8,2.114,1.792,2c.129-.022.409-.215.506-.151" transform="translate(10.24 9.821)" fill="#003f87"/>
      <path id="Tracciato_6864" data-name="Tracciato 6864" d="M2.367,3.9A.707.707,0,0,1,1.958,3.8c-.2-.14-.172-.452-.151-.71V3.065a2.2,2.2,0,0,1,.118-.527l.85-.85v.032c0,.011.151,1.442.172,1.582a.487.487,0,0,1,0,.129.564.564,0,0,1-.194.334.632.632,0,0,1-.323.14H2.367m-.42-1.356a1.794,1.794,0,0,0-.118.517V3.1c-.032.258-.054.549.14.689a.723.723,0,0,0,.4.1h.065a.554.554,0,0,0,.312-.14.545.545,0,0,0,.183-.323.329.329,0,0,0,0-.108c-.022-.14-.151-1.4-.172-1.571Z" transform="translate(10.236 8.408)"/>
      <path id="Tracciato_6865" data-name="Tracciato 6865" d="M1.822,2.61,1.812,2.6,1.8,2.578,2.683,1.7,2.7,1.685l.022.032L1.833,2.6Z" transform="translate(10.327 8.385)"/>
      <path id="Tracciato_6866" data-name="Tracciato 6866" d="M2.053,1.673l-.108.183-.065-.065Z" transform="translate(11.106 8.272)" fill="#ffd900"/>
      <path id="Tracciato_6867" data-name="Tracciato 6867" d="M2.935,1.706v1.6l-.022.118A.491.491,0,0,1,2.7,3.74a.564.564,0,0,1-.4.086.614.614,0,0,1-.387-.14c-.183-.161-.118-.474-.065-.732a2.2,2.2,0,0,1,.172-.517Z" transform="translate(10.238 8.594)" fill="#fff"/>
      <path id="Tracciato_6868" data-name="Tracciato 6868" d="M2.21,1.706,2.2,2.771a.746.746,0,0,1-.312.118l-.022-.915Z" transform="translate(10.963 8.594)" fill="#003f87"/>
      <path id="Tracciato_6869" data-name="Tracciato 6869" d="M2.845,1.826a.316.316,0,0,1-.323.1c-.022.5-.237.721-.721.57a.645.645,0,0,0,1-.161,1.859,1.859,0,0,0,.043-.506" transform="translate(10.328 9.765)" fill="#ce0726"/>
      <path id="Tracciato_6870" data-name="Tracciato 6870" d="M2.278,1.754v.71a1.145,1.145,0,0,0-.484.118A2.28,2.28,0,0,1,2,1.969Z" transform="translate(10.26 9.062)" fill="#ce0726"/>
      <path id="Tracciato_6871" data-name="Tracciato 6871" d="M2.316,1.863s.032.183-.032.237l-.14.032A1.162,1.162,0,0,1,1.8,2.089a.262.262,0,0,1,0-.129c.129-.011.42-.172.517-.1" transform="translate(10.233 9.932)" fill="#003f87"/>
      <path id="Tracciato_6872" data-name="Tracciato 6872" d="M2.31,3.856a.641.641,0,0,1-.4-.14c-.183-.172-.118-.474-.065-.721V2.963a1.787,1.787,0,0,1,.183-.506L2.956,1.7V3.329l-.011.118a.558.558,0,0,1-.237.312.517.517,0,0,1-.334.108L2.31,3.856M2.041,2.468a1.759,1.759,0,0,0-.172.506V3c-.054.258-.118.549.054.7a.641.641,0,0,0,.4.14l.054.011a.523.523,0,0,0,.323-.1.517.517,0,0,0,.226-.3l.011-.118V1.747Z" transform="translate(10.228 8.574)"/>
      <path id="Tracciato_6873" data-name="Tracciato 6873" d="M1.821,2.521,1.81,2.51V2.488L2.779,1.7H2.8v.032l-.969.786Z" transform="translate(10.417 8.56)"/>
      <path id="Tracciato_6874" data-name="Tracciato 6874" d="M2.081,1.692l-.118.172L1.9,1.789Z" transform="translate(11.272 8.454)" fill="#ffd900"/>
      <path id="Tracciato_6875" data-name="Tracciato 6875" d="M2.07,2.548c.054-.022-.172-.721-.269-.71-.054,0,.172.743.269.71" transform="translate(10.252 9.882)" fill="#ce111c"/>
      <path id="Tracciato_6876" data-name="Tracciato 6876" d="M2.073,2.569c-.1,0-.269-.57-.28-.689l.022-.043c.086,0,.248.452.28.624a.234.234,0,0,1,0,.108Zm-.258-.71a2.251,2.251,0,0,0,.194.624l.065.065a1.289,1.289,0,0,0-.118-.474c-.065-.151-.118-.215-.14-.215" transform="translate(10.25 9.872)"/>
      <path id="Tracciato_6877" data-name="Tracciato 6877" d="M1.91,2.657a.232.232,0,0,0,.215,0l-.065-.226a2.46,2.46,0,0,1-.022-.269c-.022-.118-.075-.312-.129-.312-.086.011-.226.678,0,.807" transform="translate(10.198 9.999)" fill="#ce111c"/>
      <path id="Tracciato_6878" data-name="Tracciato 6878" d="M2.009,2.7h0l-.1-.022c-.161-.1-.14-.43-.086-.635.011-.065.043-.194.1-.194s.118.258.129.323l.011.118.022.151a.714.714,0,0,0,.065.215v.011l-.011.011L2.009,2.7m-.086-.829c-.011,0-.054.043-.075.172-.054.2-.075.527.075.613l.086.022.118-.022a.714.714,0,0,1-.065-.215L2.041,2.29,2.03,2.172c-.022-.14-.075-.3-.108-.3" transform="translate(10.185 9.99)"/>
      <path id="Tracciato_6879" data-name="Tracciato 6879" d="M2,1.916a2.771,2.771,0,0,0-.215.5L1.76,2.5a.569.569,0,0,0,.054.291l.108.172.1.172.075.2H2.1a1.008,1.008,0,0,0,.172-.463c0-.161-.043-.323-.043-.5a.9.9,0,0,1,.054-.344l.032-.086.011-.032a.1.1,0,0,0-.075-.086.238.238,0,0,0-.172.011L2,1.916" transform="translate(9.907 9.686)" fill="#003f87"/>
      <path id="Tracciato_6880" data-name="Tracciato 6880" d="M2.108,3.356H2.1V3.345l-.075-.194-.1-.172-.086-.118L1.806,2.8a.471.471,0,0,1-.043-.28l.011-.1A2.056,2.056,0,0,1,1.957,2l.032-.075H2V1.914L2.022,1.9l.043-.043a.253.253,0,0,1,.129-.043l.075.011.075.086v.043l-.011.011-.022.043L2.3,2.043a.922.922,0,0,0-.054.344l.022.237.022.269A.784.784,0,0,1,2.108,3.356Zm-.1-1.421-.043.075a2.643,2.643,0,0,0-.172.42l-.011.075v.011a.489.489,0,0,0,.043.28l.032.054.075.118.1.172.075.183a.762.762,0,0,0,.161-.43l-.022-.269-.022-.237a.81.81,0,0,1,.054-.334L2.3,2l.011-.043.011-.011.011-.022-.075-.075-.065-.011-.118.032L2.043,1.9l-.032.032" transform="translate(9.903 9.677)"/>
      <path id="Tracciato_6881" data-name="Tracciato 6881" d="M1.947,3.335h0a.784.784,0,0,0,.172-.452c.011-.172-.032-.334-.032-.506a.789.789,0,0,1,.054-.344l.022-.075.022-.032c0-.054-.054-.075-.075-.1C2.022,1.8,2,1.85,1.99,1.861a1.831,1.831,0,0,0-.215,1.109,1.287,1.287,0,0,1,.172.366" transform="translate(10.053 9.687)" fill="#fff"/>
      <path id="Tracciato_6882" data-name="Tracciato 6882" d="M1.955,3.356H1.944V3.345a1,1,0,0,0-.151-.323l-.022-.043V2.786a1.537,1.537,0,0,1,.215-.926l.075-.043.054.011c.043.011.086.043.086.086l-.011.032-.011.011L2.17,2l-.022.043a1.312,1.312,0,0,0-.043.344l.011.237a1.048,1.048,0,0,1,.022.258.845.845,0,0,1-.172.463Zm-.161-.387.022.043a.763.763,0,0,1,.14.312.794.794,0,0,0,.161-.441,1.04,1.04,0,0,0-.011-.258l-.022-.237a1.1,1.1,0,0,1,.043-.344l.022-.054.022-.043V1.935l.011-.011c0-.043-.032-.065-.075-.075l-.043-.022-.054.043a1.491,1.491,0,0,0-.215.915v.183" transform="translate(10.045 9.677)"/>
      <path id="Tracciato_6883" data-name="Tracciato 6883" d="M1.822,3.335h0a.784.784,0,0,0,.172-.452c.011-.172-.032-.334-.032-.506a.789.789,0,0,1,.054-.344l.022-.075.022-.032c0-.054-.054-.075-.075-.1-.086-.032-.108.022-.118.032-.2.463.065,1.033-.043,1.474" transform="translate(10.178 9.687)" fill="#ce111c"/>
      <path id="Tracciato_6884" data-name="Tracciato 6884" d="M1.827,3.356h0l-.011-.011a1.8,1.8,0,0,0,0-.635,1.692,1.692,0,0,1,.043-.839.087.087,0,0,1,.075-.054l.054.011.086.086-.011.043-.011.011-.011.043-.011.032a.922.922,0,0,0-.054.344L2,2.624a1.1,1.1,0,0,1,.011.269.77.77,0,0,1-.172.463Zm.108-1.517-.054.043a1.607,1.607,0,0,0-.043.818,2.282,2.282,0,0,1,.011.6.748.748,0,0,0,.14-.409,1,1,0,0,0-.011-.258l-.022-.248A1.067,1.067,0,0,1,2,2.054L2.021,2l.022-.043V1.946l.011-.022-.065-.075-.054-.011" transform="translate(10.173 9.677)"/>
      <path id="Tracciato_6885" data-name="Tracciato 6885" d="M2.038,1.826a.167.167,0,0,1,.108.129l.011.065c-.011.054-.043.118-.065.108l-.022-.043L1.984,2c-.075-.043-.183.022-.183.022A.273.273,0,0,1,1.78,1.89c.022-.065.161-.108.258-.065" transform="translate(10.102 9.593)" fill="#ce111c"/>
      <path id="Tracciato_6886" data-name="Tracciato 6886" d="M2.1,2.151h0l-.022-.043L2.065,2.1l-.075-.086L1.935,2l-.129.032L1.8,2.044V2.033a.242.242,0,0,1-.011-.14c.011-.054.086-.086.172-.086l.1.022a.17.17,0,0,1,.108.14l.011.065c-.011.054-.043.118-.075.118m-.161-.172.054.011.1.1v.022L2.1,2.13l.054-.108V1.968a.22.22,0,0,0-.108-.129l-.086-.011A.18.18,0,0,0,1.8,1.9l.011.108.129-.032" transform="translate(10.097 9.58)"/>
      <path id="Tracciato_6887" data-name="Tracciato 6887" d="M1.764,1.93a.32.32,0,0,1,.269-.065c.043-.1.248-.108.248-.108l.2.517a.383.383,0,0,0-.269.065.387.387,0,0,0-.248.075Z" transform="translate(9.967 9.101)" fill="#fff"/>
      <path id="Tracciato_6888" data-name="Tracciato 6888" d="M2.432,2.149a.365.365,0,0,0-.248.075l-.022-.054A.33.33,0,0,1,2.4,2.085l.011-.011H2.4a.362.362,0,0,0-.248.086l-.011-.054a.4.4,0,0,1,.237-.075V2.02a.442.442,0,0,0-.248.075l-.022-.054a.441.441,0,0,1,.237-.086h.011l-.011-.011a.441.441,0,0,0-.237.086l-.022-.054a.378.378,0,0,1,.237-.086l.011-.011H2.325a.378.378,0,0,0-.237.086l-.011-.043c.065-.086.237-.086.237-.086h.011l-.011-.011a.384.384,0,0,0-.248.086l-.022-.054a.441.441,0,0,1,.237-.086V1.762a.441.441,0,0,0-.237.086l-.011-.022H2.023l.011.032a.371.371,0,0,0-.258.075l-.011.011h.011a.356.356,0,0,1,.269-.075l.011.043a.371.371,0,0,0-.258.075V2a.4.4,0,0,1,.258-.075l.022.054a.356.356,0,0,0-.269.075v.011h.011a.342.342,0,0,1,.258-.075l.022.054a.416.416,0,0,0-.269.075v.011H1.84A.32.32,0,0,1,2.1,2.053h.011l.022.054H2.12a.416.416,0,0,0-.269.075v.011h.011a.416.416,0,0,1,.269-.075l.022.043a.364.364,0,0,0-.269.086h0a.416.416,0,0,1,.269-.075l.022.065a.416.416,0,0,0-.269.075v.011h.011a.371.371,0,0,1,.258-.075l.032.065L2.217,2.3l-.032-.065a.365.365,0,0,1,.248-.075l.011-.011Z" transform="translate(9.977 9.14)" fill="#b2b2b2"/>
      <path id="Tracciato_6889" data-name="Tracciato 6889" d="M2,2.477H1.986l-.011-.011L1.76,1.96V1.939a.378.378,0,0,1,.226-.086l.065.011c.054-.1.248-.108.248-.108H2.33l.2.549v.022H2.47a.354.354,0,0,0-.215.065L2.244,2.4a.374.374,0,0,0-.237.075H2M1.825,1.95l.194.452a.3.3,0,0,1,.226-.065.4.4,0,0,1,.237-.075L2.3,1.788c-.054.011-.183.032-.2.1l-.022.022L2,1.9a.293.293,0,0,0-.172.054" transform="translate(9.928 9.082)"/>
      <path id="Tracciato_6890" data-name="Tracciato 6890" d="M2.076,1.668v.065l-.011-.011c-.054-.043-.194.011-.215.022l-.118.022-.011-.054a.851.851,0,0,1,.312-.129l.043.086" transform="translate(9.547 7.383)" fill="#013687"/>
      <path id="Tracciato_6891" data-name="Tracciato 6891" d="M2.191,1.711l-.011.065-.108-.011H2.062c-.022-.022-.172-.075-.215-.043l-.011.022H1.825l.011-.054.043-.108a.968.968,0,0,1,.312.129" transform="translate(10.562 7.383)" fill="#013687"/>
      <path id="Tracciato_6892" data-name="Tracciato 6892" d="M2.5,1.85a.486.486,0,0,1-.269-.075L2.2,1.764c-.086-.043-.215-.108-.28-.086l.043-.065c.269.043.5.129.538.237" transform="translate(11.519 7.686)" fill="#013687"/>
      <path id="Tracciato_6893" data-name="Tracciato 6893" d="M6.814,3.124a.3.3,0,0,1,.108.226l-.011.022L6.9,3.35a.314.314,0,0,0-.118-.226H6.738a.346.346,0,0,1,.108.237v.011l-.022-.011a.255.255,0,0,0-.118-.226V3.124l-.022.011a.392.392,0,0,1,.1.248l-.011.011V3.382a.318.318,0,0,0-.118-.237l-.032.011a.308.308,0,0,1,.108.237V3.4l-.022-.011A.308.308,0,0,0,6.6,3.156l-.054.022a.322.322,0,0,1,.118.248v.011l-.022-.011a.286.286,0,0,0-.118-.237l-.032.022a.322.322,0,0,1,.118.248L6.6,3.468l-.011-.011a.281.281,0,0,0-.118-.226H6.448S6.415,2.7,6.114,2.6l-.237-.043c-.022,0-.2-.043-.237-.108V2.4l.043-.1a2.446,2.446,0,0,0-.732-.032.4.4,0,0,1-.312-.065L4.629,2.2V2.188L4.6,2.134l.011-.065.043-.1a2.557,2.557,0,0,0-.42-.032,2.208,2.208,0,0,0-.4.032l.032.086a.18.18,0,0,1-.011.129H3.843L3.832,2.2a.4.4,0,0,1-.312.065,2.862,2.862,0,0,0-.732.032l.043.1v.043c-.032.065-.226.108-.237.118a1.572,1.572,0,0,1-.237.032c-.3.108-.334.624-.334.624v.022H2.014V3.221L1.981,3.21a.3.3,0,0,0-.108.226l-.011.011H1.852A.332.332,0,0,1,1.96,3.2l-.032-.022a.277.277,0,0,0-.108.237H1.8a.3.3,0,0,1,.108-.248l-.032-.011a.217.217,0,0,0-.118.226l-.011.011H1.734a.29.29,0,0,1,.108-.258l-.032-.011v.011a.286.286,0,0,0-.118.237l-.011.011-.011-.011a.35.35,0,0,1,.108-.248H1.744a.286.286,0,0,0-.118.237l-.011.011L1.6,3.361a.35.35,0,0,1,.108-.248H1.669a.326.326,0,0,0-.108.237l-.011.011L1.54,3.35a.326.326,0,0,1,.108-.237V3.092a3.452,3.452,0,0,0,.172-.409.568.568,0,0,1,.258-.366.215.215,0,0,1,.022-.14.708.708,0,0,1,.463-.269A3.736,3.736,0,0,1,3.4,1.833V1.822l.011-.1c.022-.054.054-.075.075-.075a1.438,1.438,0,0,1,.56-.108H4.22a3.333,3.333,0,0,1,.452.022,1.123,1.123,0,0,1,.3.075l.086.054.011.075v.075a3.736,3.736,0,0,1,.839.075.667.667,0,0,1,.463.269.205.205,0,0,1,.022.14.534.534,0,0,1,.258.366,2.435,2.435,0,0,0,.183.409v.011l-.011.011ZM6.8,3.1a3.089,3.089,0,0,1-.161-.4,1.451,1.451,0,0,0-.377-.086l-.022-.011H6.179c.237.129.28.506.291.6A.517.517,0,0,1,6.8,3.1m-.172-.42a.511.511,0,0,0-.237-.334.636.636,0,0,1-.118.2l-.011.011a.494.494,0,0,1-.3-.086l-.032-.011a.49.49,0,0,0-.258-.075L5.662,2.4v.032c.022.043.161.086.215.108l.28.043h.086l.022.011a1.309,1.309,0,0,1,.366.086m-.366-.151c.032-.043.161-.2.086-.344A.677.677,0,0,0,5.9,1.94a3.737,3.737,0,0,0-.829-.075l-.075.248-.011.065c-.032.043-.1.011-.14-.011L4.65,2.145l-.011.032.011.011a.374.374,0,0,0,.3.065c.441-.054,1.216.065,1.313.28m-.291-.065a.486.486,0,0,0,.269.075c-.043-.108-.269-.194-.538-.237l-.032.065c.054-.022.183.043.258.075l.043.022m-.99-.377a1.3,1.3,0,0,0,.075-.323L5.038,1.7,4.962,1.65a1.409,1.409,0,0,0-.291-.065,3.432,3.432,0,0,0-.452-.032l-.161.011a1.428,1.428,0,0,0-.56.1l-.075.065v.086a1.387,1.387,0,0,0,.065.269,1.433,1.433,0,0,1,.743-.161,1.267,1.267,0,0,1,.753.172m-.011.075.011-.043a.564.564,0,0,0-.323-.14l-.032.1-.011.054v.011l.022-.022c.043-.032.183.011.215.032l.118.011M3.854,2.134l-.011-.065-.032-.086a.749.749,0,0,0-.323.129l.011.043c.032.032.075.011.118-.011s.172-.065.215-.032l.022.022m-.022.032V2.134c-.043-.032-.172.011-.2.032a.132.132,0,0,1-.14.011L3.477,2.1,3.4,1.854a3.737,3.737,0,0,0-.829.075.671.671,0,0,0-.452.258c-.075.129.054.291.086.334.1-.215.872-.334,1.313-.28a.415.415,0,0,0,.3-.054l.011-.022M2.81,2.425V2.392L2.8,2.381a.564.564,0,0,0-.248.075l-.043.022a.533.533,0,0,1-.291.075H2.207a.523.523,0,0,1-.129-.215.511.511,0,0,0-.237.334,1.4,1.4,0,0,1,.366-.086h.022l.086-.011.28-.043c.054-.011.194-.054.215-.108m-.269.011A.68.68,0,0,1,2.81,2.36L2.767,2.3c-.269.054-.5.129-.538.237a.548.548,0,0,0,.28-.075l.032-.022M2.293,2.6l-.065.011H2.207a1.45,1.45,0,0,0-.377.086,3.09,3.09,0,0,1-.161.4A.562.562,0,0,1,2,3.2c.011-.1.054-.474.291-.6" transform="translate(7.78 6.993)"/>
      <path id="Tracciato_6894" data-name="Tracciato 6894" d="M2.423,1.748a1.875,1.875,0,0,0,.172.387.686.686,0,0,0-.344.108c-.011-.086-.054-.463-.28-.6l.054.011h.022a1.593,1.593,0,0,1,.377.1" transform="translate(11.988 7.949)" fill="#013687"/>
      <path id="Tracciato_6895" data-name="Tracciato 6895" d="M2.654,1.616a.511.511,0,0,1,.237.334,1.309,1.309,0,0,0-.366-.086H2.5l-.075-.011L2.137,1.81c-.043-.011-.194-.054-.215-.108V1.681l.011-.022a.6.6,0,0,1,.258.075l.022.011a.477.477,0,0,0,.312.086.561.561,0,0,0,.129-.215" transform="translate(11.509 7.715)" fill="#013687"/>
      <path id="Tracciato_6896" data-name="Tracciato 6896" d="M3.539,1.905c.075.129-.054.3-.086.344-.108-.226-.872-.334-1.313-.291a.369.369,0,0,1-.3-.054l-.011-.011V1.851a.331.331,0,0,1,.2.032c.043.022.1.054.14.011l.011-.075a1.1,1.1,0,0,0,.065-.248,3.777,3.777,0,0,1,.839.075.715.715,0,0,1,.452.258" transform="translate(10.592 7.275)" fill="#013687"/>
      <path id="Tracciato_6897" data-name="Tracciato 6897" d="M3.352,1.747a.949.949,0,0,1-.075.323A1.267,1.267,0,0,0,2.524,1.9a1.323,1.323,0,0,0-.743.172L1.716,1.8a.165.165,0,0,1,.011-.1l.065-.054a1.438,1.438,0,0,1,.56-.108h.172a3.18,3.18,0,0,1,.441.022,1.123,1.123,0,0,1,.3.075l.075.054.011.054" transform="translate(9.476 7.002)" fill="#013687"/>
      <path id="Tracciato_6898" data-name="Tracciato 6898" d="M3.321,1.851l.011.032-.011.022a.425.425,0,0,1-.3.054c-.441-.054-1.216.065-1.313.28-.043-.043-.161-.2-.1-.334a.7.7,0,0,1,.463-.258A3.737,3.737,0,0,1,2.9,1.571l.065.248.011.075c.043.032.108,0,.14-.011l.011-.011c.032-.011.151-.054.194-.022" transform="translate(8.28 7.275)" fill="#013687"/>
      <path id="Tracciato_6899" data-name="Tracciato 6899" d="M2.537,1.68l.011.022c-.032.054-.183.1-.237.108a1.09,1.09,0,0,1-.28.043l-.075.011-.022.011a1.309,1.309,0,0,0-.366.086A.562.562,0,0,1,1.8,1.615a.481.481,0,0,0,.129.226.609.609,0,0,0,.3-.086l.032-.011a.469.469,0,0,1,.258-.075Z" transform="translate(8.054 7.705)" fill="#013687"/>
      <path id="Tracciato_6900" data-name="Tracciato 6900" d="M2.184,1.677a.448.448,0,0,0-.269.075l-.032.022a.5.5,0,0,1-.28.075c.043-.108.269-.194.538-.237l.043.065" transform="translate(8.395 7.676)" fill="#013687"/>
      <path id="Tracciato_6901" data-name="Tracciato 6901" d="M2.112,1.65l.065-.011c-.237.14-.28.517-.291.6a.646.646,0,0,0-.334-.108,2.512,2.512,0,0,0,.161-.387,1.19,1.19,0,0,1,.377-.1Z" transform="translate(7.897 7.939)" fill="#013687"/>
      <path id="Tracciato_6902" data-name="Tracciato 6902" d="M1.622,1.606,1.687,1.6a.123.123,0,0,1,.108.011l.043.075-.011.1-.1.054-.054.011Zm.075.2h.022c.075-.022.1-.065.086-.118s-.043-.086-.108-.075H1.665Z" transform="translate(8.581 7.445)" fill="#ffed00"/>
      <rect id="Rettangolo_529" data-name="Rettangolo 529" width="0.027" height="0.238" transform="translate(10.447 8.989) rotate(-5.194)" fill="#ffed00"/>
      <path id="Tracciato_6903" data-name="Tracciato 6903" d="M1.87,1.678c.011.086-.022.14-.086.151a.111.111,0,0,1-.129-.1.121.121,0,0,1,.086-.151.111.111,0,0,1,.129.1m-.183.043c.011.054.043.086.1.075a.084.084,0,0,0,.054-.108.086.086,0,0,0-.1-.075c-.043,0-.065.054-.054.108" transform="translate(8.881 7.362)" fill="#ffed00"/>
      <path id="Tracciato_6904" data-name="Tracciato 6904" d="M1.707,1.793l.054.011L1.8,1.75,1.75,1.707l-.075-.054a.079.079,0,0,1,.065-.075h.054V1.61L1.74,1.6l-.032.032.054.054.075.054c.011.032-.011.075-.075.086H1.718Z" transform="translate(9.098 7.344)" fill="#ffed00"/>
      <path id="Tracciato_6905" data-name="Tracciato 6905" d="M1.739,1.565l.054-.011.065.011.032.043-.011.054-.065.032H1.782l.011.1H1.771Zm.043.108H1.8l.054-.054-.065-.043-.022.011Z" transform="translate(9.723 7.11)" fill="#ffed00"/>
      <path id="Tracciato_6906" data-name="Tracciato 6906" d="M1.8,1.712l-.011.075H1.758l.054-.237h.032l.108.215H1.919L1.887,1.7Zm.075-.032-.032-.065-.011-.043L1.823,1.6l-.011.086Z" transform="translate(9.908 7.08)" fill="#ffed00"/>
      <path id="Tracciato_6907" data-name="Tracciato 6907" d="M1.85,1.572H1.774V1.55h.172v.022H1.882v.2H1.85Z" transform="translate(10.068 7.074)" fill="#ffed00"/>
      <path id="Tracciato_6908" data-name="Tracciato 6908" d="M1.8,1.551H1.86l.065.011.011.043-.043.065.032.054.022.054-.032.011L1.9,1.723,1.86,1.68H1.827v.108H1.8Zm.032.108H1.86l.054-.043L1.86,1.573H1.827Z" transform="translate(10.27 7.08)" fill="#ffed00"/>
      <rect id="Rettangolo_530" data-name="Rettangolo 530" width="0.032" height="0.237" transform="translate(12.28 8.631)" fill="#ffed00"/>
      <path id="Tracciato_6909" data-name="Tracciato 6909" d="M1.9,1.7l-.032.065-.043-.011.129-.2h.032l.032.248L1.983,1.79V1.714Zm.086-.011-.011-.075V1.575l-.022.032-.032.075Z" transform="translate(10.533 7.1)" fill="#ffed00"/>
      <path id="Tracciato_6910" data-name="Tracciato 6910" d="M1.878,1.577H1.91l-.011.2.1.011v.022L1.867,1.8Z" transform="translate(10.973 7.331)" fill="#ffed00"/>
      <rect id="Rettangolo_531" data-name="Rettangolo 531" width="0.232" height="0.033" transform="matrix(0.045, -0.999, 0.999, 0.045, 13.002, 9.146)" fill="#ffed00"/>
      <path id="Tracciato_6911" data-name="Tracciato 6911" d="M1.9,1.578h.054l.065.022.011.043-.043.043.043.065-.022.043a.106.106,0,0,1-.086.011H1.889Zm.022.1h.022L2,1.643,1.954,1.6H1.932Zm-.011.108h.022L2,1.75,1.943,1.7H1.921Z" transform="translate(11.187 7.344)" fill="#ffed00"/>
      <path id="Tracciato_6912" data-name="Tracciato 6912" d="M2.033,1.719l-.086-.011-.011.086.1.011v.022L1.9,1.815l.022-.237.129.022-.011.022-.086-.011-.011.075.086.011Z" transform="translate(11.336 7.351)" fill="#ffed00"/>
      <path id="Tracciato_6913" data-name="Tracciato 6913" d="M1.963,1.582h.054l.054.032.022.054-.054.054.022.054.011.054H2.038V1.776l-.032-.054H1.985l-.032.1H1.92Zm.022.108.022.022.054-.043-.043-.043-.011-.011Z" transform="translate(11.49 7.383)" fill="#ffed00"/>
      <path id="Tracciato_6914" data-name="Tracciato 6914" d="M2.005,1.629l-.065-.022.011-.022.161.054L2.1,1.661,2.038,1.64l-.075.194-.022-.011Z" transform="translate(11.693 7.422)" fill="#ffed00"/>
      <path id="Tracciato_6915" data-name="Tracciato 6915" d="M2.021,1.734,1.978,1.8l-.032-.011.14-.194.032.011.011.237L2.1,1.831V1.755Zm.075,0V1.626l-.011.022-.054.065Z" transform="translate(11.744 7.5)" fill="#ffed00"/>
      <path id="Tracciato_6916" data-name="Tracciato 6916" d="M2.061,1.6l.054.022.065.054-.011.086L2.1,1.836l-.1-.011L1.964,1.8ZM2,1.793l.022.011a.079.079,0,0,0,.118-.054A.064.064,0,0,0,2.1,1.642l-.022-.011Z" transform="translate(11.919 7.549)" fill="#ffed00"/>
      <path id="Tracciato_6917" data-name="Tracciato 6917" d="M2.048,1.957l-.032.032.043-.108a.313.313,0,0,1,.118-.118.221.221,0,0,1,.161-.022.218.218,0,0,1,.1.151L2.393,1.86,2.36,1.849a.165.165,0,0,0-.172,0,.444.444,0,0,0-.14.108" transform="translate(12.427 8.881)" fill="#007b57"/>
      <path id="Tracciato_6918" data-name="Tracciato 6918" d="M2.1,2.819a1.5,1.5,0,0,0-.022-.441.649.649,0,0,0-.161-.334V1.883a.469.469,0,0,1,.248.366,1.441,1.441,0,0,1-.043.474Z" transform="translate(11.49 10.321)" fill="#007b57"/>
      <path id="Tracciato_6919" data-name="Tracciato 6919" d="M2.37,2.681a.68.68,0,0,0,.258-.344.721.721,0,0,0,.065-.323V2H2.671a.565.565,0,0,1-.065.323.667.667,0,0,1-.248.344v.011l.011.011ZM2.209,2.67h0a.415.415,0,0,0,.172-.161.464.464,0,0,0,.14-.3L2.51,2.2,2.5,2.207A.51.51,0,0,1,2.37,2.5a.472.472,0,0,1-.172.151Zm-.323-.118a.379.379,0,0,0,.086-.237.8.8,0,0,0-.011-.226L2,2.121l.065.14-.054.129V2.4l.011.011A.483.483,0,0,0,2.1,2.218V2.142l.022-.054v.086a.224.224,0,0,1,.011.118l-.118.194-.1.075v.022h.011a.19.19,0,0,0,.1-.086,1.666,1.666,0,0,0,.226-.409l-.011.2V2.3l-.108.161c-.043.043-.075.1-.129.118l-.011.011L2,2.605h.011a.371.371,0,0,0,.129-.129l.226-.323V2.132l.011.183v.011a.489.489,0,0,1-.14.161V2.5l.011.011a.753.753,0,0,0,.248-.43V2.1c.022.032.043.075.1.065h.011l.011-.011.032-.118.011-.086.011-.011.022.011.043.1a.825.825,0,0,1-.075.42.989.989,0,0,1-.172.291l-.657-.161.054-.043" transform="translate(10.631 10.858)" fill="#007b57"/>
      <path id="Tracciato_6920" data-name="Tracciato 6920" d="M2.187,2.429a.723.723,0,0,1,.3.032l.194.065.172.1a.316.316,0,0,1,.108.129A.362.362,0,0,0,2.811,2.7L2.8,2.709l.011.011a.178.178,0,0,1,.054.129.153.153,0,0,1-.065.129H2.789V2.956l-.011-.075a.3.3,0,0,0-.172-.172L2.585,2.7H2.574l-.2-.043L2.1,2.623l-.011.011.011.011.269.032.2.043.022.022.075.086a.44.44,0,0,0-.2-.011H2.456v.011a.644.644,0,0,1,.172.086H2.434l-.011.011L1.9,2.795A.989.989,0,0,0,2.068,2.5a.9.9,0,0,0,.075-.377l.043-.194H2.2v.011a1.073,1.073,0,0,1,.054.409l.011.011v.043l-.086.011Zm.161.129a.741.741,0,0,1,.387.118v.011l.011-.011-.011-.011a.725.725,0,0,0-.387-.129.478.478,0,0,0-.215.011l-.011.011.011.011a.486.486,0,0,1,.215-.011" transform="translate(11.256 10.819)" fill="#007b57"/>
      <path id="Tracciato_6921" data-name="Tracciato 6921" d="M2.143,2.715h.011l.022-.129.011-.043h.022l.011.011h.011l.065-.086.043-.054.022-.065.032-.118a.535.535,0,0,1-.011.226.47.47,0,0,1-.108.161l-.011.011.011.011h.011A.55.55,0,0,0,2.4,2.467V2.446h.011l.011.011A.772.772,0,0,1,2.8,2.274a1.16,1.16,0,0,1,.42.022l-.161.032v.022l.151.043.108.075a.605.605,0,0,0-.3-.043.377.377,0,0,0-.215.011,2.646,2.646,0,0,0-.549.291v.011h.022a2.43,2.43,0,0,1,.527-.28.3.3,0,0,1,.28.022l.022.011L2.993,2.5H2.982l.011.022a.29.29,0,0,1,.161.118.44.44,0,0,0-.2-.011H2.918a.837.837,0,0,0-.312-.043L2.6,2.6l.011.011a.758.758,0,0,1,.3.043.319.319,0,0,1,.2.161A.49.49,0,0,0,2.9,2.758H2.886L2.9,2.78a.3.3,0,0,1,.129.129.39.39,0,0,0-.248-.032l-.1-.065a.505.505,0,0,0-.258-.032H2.412l.011.011a.6.6,0,0,1,.248.043.413.413,0,0,1,.161.14L2.8,2.962H2.789l-.151-.011-.161-.086L2.283,2.8a.819.819,0,0,0-.226-.032V2.715a.951.951,0,0,0-.043-.42L2,2.284,1.992,2.3H1.982a.841.841,0,0,0-.065-.4.624.624,0,0,1,.183.344l.011.14L2.1,2.317,2.025,2.1,2,2.091V2.1a.93.93,0,0,1,.075.226l.043.2-.011.14.011.011h.011V2.7Z" transform="translate(11.461 10.458)" fill="#007b57"/>
      <path id="Tracciato_6922" data-name="Tracciato 6922" d="M2.226,1.937l-.011.011a.628.628,0,0,0,.022.248l.011.054h.011l.011-.011-.011-.032a.721.721,0,0,1-.022-.258l-.011-.011m-.2.183L2,1.937l-.022-.161L2,1.807a1.736,1.736,0,0,1,.129.377.709.709,0,0,1,.032.334l.011.011.011-.011a.768.768,0,0,0-.032-.344L2.107,2a.279.279,0,0,0,.065-.151l.022-.086L2.2,1.689l.022.118.011.151.032.032H2.29l.022-.022.043-.151.032-.108a1.678,1.678,0,0,1-.032.463L2.279,2.4a1.747,1.747,0,0,1-.118.3l-.022-.022-.054-.248-.011-.118-.054-.194" transform="translate(12.056 8.428)" fill="#007b57"/>
      <path id="Tracciato_6923" data-name="Tracciato 6923" d="M2.024,2.28l-.086.086L1.96,2.3l.065-.075.054-.054.065.011.065.065a1.316,1.316,0,0,1,.129.2.613.613,0,0,1,.054.366l.011.011h.011a.672.672,0,0,0-.054-.387l-.14-.2-.065-.075-.022-.011-.043-.183.022.011A.774.774,0,0,1,2.3,2.2h.022a.29.29,0,0,0-.043-.226l-.011-.022A.658.658,0,0,1,2.2,1.7a1,1,0,0,1,.237.517l.022.118a1.1,1.1,0,0,0,.054.258V2.6h.011l.011-.011.022.011v.011h.022c.043-.108.075-.2.108-.312a1.474,1.474,0,0,1,.161-.377.526.526,0,0,1,.172-.172l-.086.14L2.874,2v.011a4.241,4.241,0,0,1-.258.646v.011L2.541,2.8l-.022.1H2.53l.011-.011.032-.075a.727.727,0,0,1,.194-.291L2.788,2.5l.086-.086L2.939,2.3l-.011.108v.022h.011a.314.314,0,0,1,.172-.118l-.1.118-.032.022v.011l-.054.022a.763.763,0,0,0-.215.194,1.677,1.677,0,0,0-.237.506l.011.011H2.5a1.677,1.677,0,0,1,.237-.506.531.531,0,0,1,.194-.183l.118-.043a1.692,1.692,0,0,0-.2.28l-.075.118-.054.108a.923.923,0,0,1-.14.215l-.022.032L2.5,3.27v.011h.022l.054-.054.011-.032a.615.615,0,0,0,.14-.226l.065-.1a.513.513,0,0,1,.258-.248.306.306,0,0,1,.14,0l.032.032H3.186l-.075-.022-.043.022-.108.086L2.9,2.872l.011.011.022-.011h.011l.022-.011.022-.011-.022.075-.022.032-.1.075-.14.129-.129.14-.129.161H2.39a1.9,1.9,0,0,0-.054-.538A1.377,1.377,0,0,0,2.1,2.3l-.054-.032-.022.011" transform="translate(11.666 8.525)" fill="#007b57"/>
      <path id="Tracciato_6924" data-name="Tracciato 6924" d="M2.076,2.7l-.022-.1.032.054a1.857,1.857,0,0,1,.172.4l.011.258v.011l.011-.011a.57.57,0,0,0-.011-.269,1.007,1.007,0,0,0-.075-.237,1.993,1.993,0,0,0-.118-.334l-.043-.032L2,2.467l-.075.1L1.947,2.5l.108-.172.022-.032.043.032a1.48,1.48,0,0,1,.118.291,3.08,3.08,0,0,1,.151.549l.011.011V3.166a2.5,2.5,0,0,0-.14-.56l-.065-.172-.011-.022-.054-.3a1.311,1.311,0,0,1,.258.646l.011.118.011.011V2.876L2.4,2.757a1.094,1.094,0,0,0-.194-.57.8.8,0,0,0-.043-.28l.108.172a.546.546,0,0,1,.1.172L2.4,2.38a1.357,1.357,0,0,1,.043.3l.011.011.011-.011L2.42,2.37l-.032-.129a.89.89,0,0,0-.1-.172l-.054-.075-.011-.2V1.767l.022.054.022.043a.494.494,0,0,0,.075.172l.054.108a1.717,1.717,0,0,1,.108.678l.011.011.011-.011V2.811h.043v.011h.022l.129-.161.129-.14.14-.129a1.107,1.107,0,0,1,.334-.215L3.3,2.2c-.118.14-.237.258-.355.377v.011L2.8,2.714a2.033,2.033,0,0,1-.215.215H2.571l-.086.1v.022L2.5,3.037l.1-.1.226-.2a2.223,2.223,0,0,1,.42-.355l.043-.022.043.022a.463.463,0,0,1,.161.161l-.14-.075a.165.165,0,0,0-.14-.022L3.152,2.5a2.447,2.447,0,0,0-.237.344l-.323.194-.108.075v.022H2.5L2.6,3.058l.312-.194h.011L3.034,2.8l.108-.043.075-.011.043.065.011.011.022.129-.054-.032-.075-.032a.158.158,0,0,0-.129.043l-.054.043-.151.1L2.7,3.112a.666.666,0,0,0-.215.161v.011H2.5a.844.844,0,0,1,.215-.151l.065-.022.065-.022.129-.043L3.1,3.015H3.27l.108-.032.011-.011.065-.022a.829.829,0,0,1-.291.183l-.118.032H3.034a1.634,1.634,0,0,0-.387.129.432.432,0,0,0-.172.14v.011h.011a.406.406,0,0,1,.172-.129,1.078,1.078,0,0,1,.592-.129l.086.022a3.176,3.176,0,0,0-.57.183L2.732,3.4a2.623,2.623,0,0,0-.3.151L2.4,3.575v.032L2.409,3.6l.032-.022a1.872,1.872,0,0,1,.291-.151l.032-.011a.768.768,0,0,1,.441.011l.086.043H3.13a.574.574,0,0,0-.3.043v.011H2.721a.706.706,0,0,0-.377.194H2.334A1,1,0,0,0,2.323,3.4H2.3a.694.694,0,0,1-.032.215l-.032.054-.043.054-.065.1-.022-.011a1.208,1.208,0,0,0,.032-.441A.508.508,0,0,0,2.022,3.1h.011A.6.6,0,0,1,2,2.865a.548.548,0,0,0,.075.183l.032.054.086.183a.506.506,0,0,1,.022.28v.022l.011-.011a.449.449,0,0,0-.011-.291l-.086-.194H2.119l.011-.011a.484.484,0,0,0-.022-.3L2.1,2.757,2.076,2.7" transform="translate(11.539 9.189)" fill="#007b57"/>
      <path id="Tracciato_6925" data-name="Tracciato 6925" d="M2,1.723l.011-.011.011.011a.956.956,0,0,0,.011.248l.022.043-.011.011H2.032L2.022,1.97A.923.923,0,0,1,2,1.723" transform="translate(12.271 8.652)" fill="#003d00"/>
      <path id="Tracciato_6926" data-name="Tracciato 6926" d="M2.019,2.262l-.054.086-.022.011V2.348L2,2.252,2.052,2.2l.022-.054a.746.746,0,0,0,.032-.215l.011-.011.011.011a.757.757,0,0,1,.011.312l-.011.022a.414.414,0,0,1-.118.172H2V2.413a.272.272,0,0,0,.108-.161.541.541,0,0,0,.022-.226l-.032.118-.032.065-.043.054" transform="translate(11.724 10.663)" fill="#003d00"/>
      <path id="Tracciato_6927" data-name="Tracciato 6927" d="M1.946,1.944a.951.951,0,0,1,.043.42v.011l-.011-.011a1.073,1.073,0,0,0-.054-.409V1.944l.011-.011Z" transform="translate(11.529 10.81)" fill="#003d00"/>
      <path id="Tracciato_6928" data-name="Tracciato 6928" d="M2.52,2.14a.713.713,0,0,0-.387-.118.438.438,0,0,0-.2,0H1.917V2.011A.4.4,0,0,1,2.143,2a.645.645,0,0,1,.387.129V2.14Z" transform="translate(11.461 11.356)" fill="#003d00"/>
      <path id="Tracciato_6929" data-name="Tracciato 6929" d="M2.151,2.287a.68.68,0,0,1-.258.344H1.882V2.621a.667.667,0,0,0,.248-.344.582.582,0,0,0,.065-.323L2.2,1.943l.011.011a.738.738,0,0,1-.065.334" transform="translate(11.119 10.907)" fill="#003d00"/>
      <path id="Tracciato_6930" data-name="Tracciato 6930" d="M1.867,2.413a.365.365,0,0,0,.161-.151.526.526,0,0,0,.14-.291l.011-.011H2.19a.675.675,0,0,1-.14.323.472.472,0,0,1-.172.151H1.867V2.413" transform="translate(10.972 11.083)" fill="#003d00"/>
      <path id="Tracciato_6931" data-name="Tracciato 6931" d="M2.066,4.968l-.1.086H1.958l-.011-.011.011-.011c.043-.011.065-.054.1-.086l.118-.194-.011-.118-.011-.075L2.141,4.6l-.011.032v.043a.322.322,0,0,1-.065.194H2.055V4.86l.054-.129-.065-.14L2,4.548a.855.855,0,0,1,.011.237.333.333,0,0,1-.086.226l-.054.043.657.161A.989.989,0,0,0,2.7,4.924a.915.915,0,0,0,.075-.42l-.043-.1L2.712,4.4,2.7,4.408l-.011.1-.032.108-.011.011-.022.011c-.054.011-.065-.043-.086-.075V4.548a.76.76,0,0,1-.248.42l-.011-.011V4.946a.4.4,0,0,0,.14-.161V4.591L2.4,4.612a2.093,2.093,0,0,1-.215.323.3.3,0,0,1-.129.129H2.033l.011-.022a.334.334,0,0,0,.129-.118l.108-.161.011-.215a1.968,1.968,0,0,1-.226.42M3.9,2.374l-.043.1.032-.032a.431.431,0,0,1,.129-.108.185.185,0,0,1,.183,0l.022.022.054.022a.2.2,0,0,0-.1-.14.173.173,0,0,0-.161.011.274.274,0,0,0-.118.129M2.948,3.59a.526.526,0,0,0,.086.248l.011.011a.394.394,0,0,0-.022-.269l-.011-.022L2.991,3.5l-.022-.14.011-.011.011.011.054.075.043.086a1.691,1.691,0,0,0-.1-.248l-.011-.022-.022.011-.086.118H2.851l.022-.108.1-.172.054-.032.043.043.032.043-.065-.312V2.837l.022.011.065.1a.628.628,0,0,0-.065-.28V2.654l.043.011.054.086-.011-.161.032-.054h.011l.022.075.011.043.086.161.054.108v.022a1.184,1.184,0,0,0-.2-.5L3.12,2.428,3.1,2.438l-.1.1-.011.011H2.981c-.011-.043.011-.075.032-.118l.054-.075.075-.065.022-.011A.331.331,0,0,0,3.142,2.1V2.094h.043a.958.958,0,0,1,.2.215.4.4,0,0,0-.054-.183L3.325,2.1a.967.967,0,0,1-.075-.291V1.8H3.26a.842.842,0,0,1,.183.28l-.011-.108-.022-.183V1.782h.022l.054.075.065.161.065-.129L3.626,1.8l.022-.075.022-.022H3.68l.011.022.011.118.011.14.022.022L3.745,2l.043-.14.054-.172h.011a2.016,2.016,0,0,1,0,.441L3.9,2.051a.647.647,0,0,1,.237-.215h.011v.011a.675.675,0,0,0-.129.194l-.043.108v.011l-.054.151.075-.075a.212.212,0,0,1,.194-.022.251.251,0,0,1,.108.172V2.4l-.086-.032-.022-.011a.171.171,0,0,0-.161,0A.406.406,0,0,0,3.9,2.46l-.065.054-.086.215.075-.086.032-.032.075-.075L4,2.406,4.014,2.4l.011.011v.108A.373.373,0,0,1,4.2,2.428h.011v.011l-.1.14h.054v.011a1.686,1.686,0,0,0-.183.226l.129-.065a.208.208,0,0,1,.161,0l.043.065L4.3,2.826,4.24,2.8l-.054-.011-.043.022-.086.075L3.992,3,4,2.987l.011-.011.054-.011.011.011-.022.086.2-.118h.011l-.022.075-.237.248.151-.108.054-.022.054.022a.456.456,0,0,1,.183.194v.011H4.433l-.161-.086a.117.117,0,0,0-.118-.022L4.1,3.3a2.4,2.4,0,0,0-.215.323l.075-.043.118-.054.075-.011c.043.011.054.054.065.075v.022a.24.24,0,0,1,.032.151v.011L4.164,3.73,4.1,3.7l-.108.043-.065.043-.075.054.032-.011.151-.032h.172l.1-.032.022-.011.086-.032.011.011a.744.744,0,0,1-.312.215l-.022.011.1.011L4.3,4V4.02c-.151.032-.323.086-.5.14a.744.744,0,0,1,.344.043.193.193,0,0,1,.108.065v.011H4.068a.74.74,0,0,0-.258.032.891.891,0,0,1,.344.054v.022A.554.554,0,0,0,3.96,4.4l.118.043a.242.242,0,0,1,.129.108v.011H4.2l-.022-.011A.686.686,0,0,0,3.917,4.5l.032.022L4,4.569V4.58l-.011.011H3.9a.278.278,0,0,1,.151.118V4.72l-.011.011a.44.44,0,0,0-.2-.011.377.377,0,0,1,.183.183L4,4.914H3.992A.588.588,0,0,0,3.8,4.849.278.278,0,0,1,3.917,5v.022H3.906a.32.32,0,0,0-.258-.054l.075.086v.011H3.712l-.054-.011-.022-.011H3.529a.318.318,0,0,1,.118.161v.022H3.637A.257.257,0,0,0,3.5,5.15l.043.129a.184.184,0,0,1-.075.14l-.022.011-.022-.022V5.387l-.011-.075a.313.313,0,0,0-.14-.151v.011l.086.1-.011.011-.172-.022a.493.493,0,0,1,.14.086v.011H3.3l-.2.011-.011.011L1.829,5.064V5.054L1.9,5a.333.333,0,0,0,.086-.226.875.875,0,0,0-.011-.237V4.526H1.99l.065.054.054.1H2.12V4.6l.054-.108.011-.011V4.5a.261.261,0,0,0,0,.129l.011.075L2.3,4.462l.011-.011.011.011a1.229,1.229,0,0,0-.022.269L2.389,4.6l.022-.065.022-.011v.011l.011.215.075-.226.011-.011h.011l.011.011.011.011c.011.054.032.086.065.075h.011V4.6l.032-.1L2.69,4.4l.022-.022.032.022a.143.143,0,0,1,.043.108.861.861,0,0,0-.043-.57l.011-.022.032.022a.3.3,0,0,0,0-.14L2.8,3.784l.151.1a.7.7,0,0,1-.022-.3h.022ZM3,2.5l.086-.086.022-.011H3.12l.054.032a1.342,1.342,0,0,1,.226.624,1.979,1.979,0,0,1,.065.538v.032H3.454l-.011-.011a1.768,1.768,0,0,0-.108-.689l-.054-.108-.075-.161-.022-.043-.022-.065v.032l.011.2.054.065a1.5,1.5,0,0,1,.1.183l.032.129.043.3-.011.011-.011-.011a1.454,1.454,0,0,0-.043-.3L3.3,3.052l-.1-.183L3.1,2.7a.843.843,0,0,1,.043.28,1.127,1.127,0,0,1,.194.581l.022.108-.011.011H3.336l-.011-.118A1.343,1.343,0,0,0,3.067,2.9l.054.312.011.011L3.2,3.4a2.659,2.659,0,0,1,.14.56v.022l-.011-.011a2.971,2.971,0,0,0-.151-.56,1.367,1.367,0,0,0-.118-.28l-.022-.032-.043.022-.108.172-.022.065.075-.1.032-.022L3,3.267a1.536,1.536,0,0,1,.129.334l.086.248a.7.7,0,0,1,0,.258v.011H3.207V4.107A.7.7,0,0,0,3.2,3.848a1.857,1.857,0,0,0-.172-.4L2.991,3.4l.022.1.022.054.011.022a.524.524,0,0,1,.022.312H3.056l.011.011.086.183a.451.451,0,0,1,.011.291l-.011.011V4.365a.492.492,0,0,0-.022-.28L3.045,3.9l-.032-.054a.521.521,0,0,1-.075-.194.575.575,0,0,0,.032.237V3.9a.548.548,0,0,1,.108.269,1.013,1.013,0,0,1-.032.441v.022l-.032.14L3,4.785l-.011-.011V4.742l.022-.1a1.167,1.167,0,0,0,.043-.474.414.414,0,0,0-.248-.355.355.355,0,0,1,0,.151A.61.61,0,0,1,2.97,4.3a1.539,1.539,0,0,1,.022.441l-.011.011L2.97,4.742l.011-.14-.043-.2a.731.731,0,0,0-.075-.215V4.16h.022l.075.226.011.065-.011-.14a.624.624,0,0,0-.183-.344.82.82,0,0,1,.065.4L2.8,4.548v.011a.9.9,0,0,1-.075.377.989.989,0,0,1-.172.291l.527.129.011-.011.194-.011L3.11,5.258l.011-.011a.652.652,0,0,1,.2,0L3.26,5.183,3.228,5.15l-.2-.043-.269-.043H2.744l.011-.011.269.032.2.043H3.25a.359.359,0,0,1,.183.172l.011.086v.022h.011a.168.168,0,0,0,.065-.129.178.178,0,0,0-.054-.129L3.454,5.14l.011-.011a.257.257,0,0,1,.151.054.316.316,0,0,0-.108-.129l-.172-.1a.817.817,0,0,0-.194-.065.723.723,0,0,0-.3-.032L2.83,4.849V4.838h.086a.819.819,0,0,1,.226.032l.194.065.161.086.14.011h.022l.032.011a.413.413,0,0,0-.161-.14.381.381,0,0,0-.248-.043l-.011-.011.011-.011a.651.651,0,0,1,.258.043l.1.065a.39.39,0,0,1,.248.032.4.4,0,0,0-.129-.14H3.745l.011-.011a.49.49,0,0,1,.215.054.37.37,0,0,0-.2-.172.994.994,0,0,0-.3-.032l-.011-.011V4.655a.864.864,0,0,1,.323.043l.022.011L3.809,4.7a.652.652,0,0,1,.2,0,.331.331,0,0,0-.161-.108L3.842,4.58l.011-.011h.118l-.032-.022a.276.276,0,0,0-.28-.022,2.43,2.43,0,0,0-.527.28H3.11V4.8A2.646,2.646,0,0,1,3.659,4.5a.377.377,0,0,1,.215-.011.594.594,0,0,1,.3.032l-.108-.065-.151-.043V4.4l.161-.032a1.16,1.16,0,0,0-.42-.022.627.627,0,0,0-.366.183l-.022-.011V4.5h.011a.691.691,0,0,1,.377-.183l.108-.011a.58.58,0,0,1,.3-.054h.161l-.086-.043A.87.87,0,0,0,3.7,4.2l-.022.011a2.623,2.623,0,0,0-.3.151L3.346,4.4H3.336V4.376l.032-.022a1.577,1.577,0,0,1,.3-.151l.022-.011H3.7a3.176,3.176,0,0,1,.57-.183l-.086-.022a.974.974,0,0,0-.592.118.518.518,0,0,0-.172.129H3.411a.339.339,0,0,1,.183-.14.925.925,0,0,1,.377-.129l.011-.011A.154.154,0,0,0,4.1,3.924a.829.829,0,0,0,.291-.183l-.054.022-.022.011-.108.032-.1.011H4.035l-.129.032-.129.032L3.712,3.9l-.065.032a.642.642,0,0,0-.215.151H3.422V4.063a.844.844,0,0,1,.215-.151l.14-.054.14-.1.054-.043A.194.194,0,0,1,4.1,3.687l.075.032.065.032-.032-.129L4.2,3.6l-.043-.065-.075.011L3.971,3.6l-.108.054-.011.011-.312.183-.108.075v.011l-.011-.011V3.913l.108-.075.323-.194a2.04,2.04,0,0,1,.237-.355l.054-.054a.136.136,0,0,1,.14.032l.14.065a.576.576,0,0,0-.161-.161l-.032-.011H4.218l-.043.011a2.709,2.709,0,0,0-.42.355l-.226.215-.1.1H3.422V3.827l.086-.108h.011l.215-.2.151-.14C4,3.246,4.121,3.127,4.229,3l.032-.032a1.4,1.4,0,0,0-.334.226l-.14.118-.129.151-.129.151-.011.011-.011-.011V3.6l.129-.161.14-.14.14-.129.1-.075.011-.022.032-.086L4.035,3l-.022.011H4l-.022.011-.011-.011.065-.129.086-.086.065-.022.065.022.043.011-.032-.032a.2.2,0,0,0-.14-.011.53.53,0,0,0-.269.248L3.8,3.116a.923.923,0,0,1-.14.215l-.022.032-.043.054H3.572V3.407l.054-.054.022-.032a.88.88,0,0,0,.129-.215L3.842,3l.075-.118a2.305,2.305,0,0,1,.2-.28L4,2.643a.637.637,0,0,0-.194.183,1.5,1.5,0,0,0-.237.5l-.011.011-.011-.011a1.808,1.808,0,0,1,.237-.506.711.711,0,0,1,.2-.194L4.057,2.6V2.589l.032-.022.1-.118a.362.362,0,0,0-.172.108L4,2.568V2.557l.011-.118-.065.118-.086.075-.022.022a1.132,1.132,0,0,0-.215.291l-.011.075L3.6,3.03H3.594l.022-.1L3.691,2.8V2.794a5.754,5.754,0,0,0,.258-.646V2.137l.043-.108.086-.14a.5.5,0,0,0-.161.172,1.474,1.474,0,0,0-.161.377,1.556,1.556,0,0,1-.118.312H3.626L3.616,2.74h.011c.043-.1.075-.2.108-.3l.075-.226a1.346,1.346,0,0,0,.032-.463l-.032.108-.043.151-.022.022H3.723L3.7,2.008,3.68,1.846l-.011-.118L3.648,1.8l-.011.086-.075.151.043.172a.977.977,0,0,1,.043.344l-.011.011-.011-.011a1.171,1.171,0,0,0-.032-.334,1.269,1.269,0,0,0-.129-.355l-.032-.054.022.161.022.183.054.194.022.118.043.248V2.74H3.583l-.011-.011-.043-.258-.022-.118a1,1,0,0,0-.237-.517.658.658,0,0,0,.075.258l.011.022a.284.284,0,0,1,.032.226H3.379a.676.676,0,0,0-.2-.226H3.164l.032.172.022.011.075.075.14.2a.684.684,0,0,1,.054.387l-.011.011-.011-.011a.636.636,0,0,0-.054-.377.863.863,0,0,0-.14-.2L3.217,2.32l-.065-.011-.065.054-.054.075L3,2.5" transform="translate(10.601 8.389)" fill="#003d00"/>
      <path id="Tracciato_6932" data-name="Tracciato 6932" d="M1.629,2.09H1.618L1.6,2.069c-.022-.043-.032-.075-.011-.108L1.639,1.9a.248.248,0,0,0,.1-.151l.022-.054a.389.389,0,0,1,.032.194.244.244,0,0,1-.065.172l-.054.032H1.629" transform="translate(8.111 8.457)" fill="#007b5c"/>
      <path id="Tracciato_6933" data-name="Tracciato 6933" d="M1.638,2.111H1.605l-.022-.032-.011-.108.054-.054.011-.011a.307.307,0,0,0,.086-.151l.022-.065h.022a.411.411,0,0,1,.032.2.222.222,0,0,1-.075.183l-.054.032H1.638m.118-.387-.011.043a.261.261,0,0,1-.1.151l-.011.011-.043.043.011.1v.022h.054l.054-.032A.254.254,0,0,0,1.788,1.9l-.032-.172" transform="translate(8.102 8.447)" fill="#003d00"/>
      <path id="Tracciato_6934" data-name="Tracciato 6934" d="M1.685,2.133H1.62L1.577,2.09a.223.223,0,0,0,.108-.151.5.5,0,0,0,.022-.183l.011-.065.054.086c.043.108.054.323-.086.355" transform="translate(8.141 8.457)" fill="#007b5c"/>
      <path id="Tracciato_6935" data-name="Tracciato 6935" d="M1.652,2.154H1.631l-.054-.065a.275.275,0,0,0,.108-.14.533.533,0,0,0,.022-.183l.011-.075h.011l.054.086a.449.449,0,0,1,.011.291.215.215,0,0,1-.108.086H1.652M1.6,2.1l.032.032h.054l.086-.075a.386.386,0,0,0,0-.269l-.043-.065v.043a.533.533,0,0,1-.022.183A.321.321,0,0,1,1.6,2.1" transform="translate(8.141 8.447)" fill="#003d00"/>
      <path id="Tracciato_6936" data-name="Tracciato 6936" d="M1.776,2.229l.032-.075a.359.359,0,0,0,.022-.183.354.354,0,0,0-.075-.14A.276.276,0,0,1,1.7,1.7l-.032.1a.625.625,0,0,0-.108.226.328.328,0,0,0,.032.172l.086.161.065.054.032-.183" transform="translate(7.953 8.555)" fill="#007b5c"/>
      <path id="Tracciato_6937" data-name="Tracciato 6937" d="M1.761,2.422a.085.085,0,0,1-.075-.054L1.6,2.2a.406.406,0,0,1-.043-.172.444.444,0,0,1,.075-.161l.032-.075L1.7,1.712,1.718,1.7v.011l.054.108.011.022.065.129a.272.272,0,0,1-.011.183l-.022.054-.022.032a.319.319,0,0,0-.022.172v.011Zm-.054-.667L1.686,1.8l-.043.075-.065.151.032.172.1.161.043.043.032-.172L1.794,2.2l.022-.043a.343.343,0,0,0,.022-.172.315.315,0,0,0-.075-.129L1.751,1.83l-.043-.075" transform="translate(7.946 8.545)" fill="#003d00"/>
      <path id="Tracciato_6938" data-name="Tracciato 6938" d="M1.613,1.9H1.6a.256.256,0,0,1-.032-.151V1.727l.011-.011.011.011v.022a.224.224,0,0,0,.032.14V1.9Z" transform="translate(8.073 8.691)" fill="#003d00"/>
      <path id="Tracciato_6939" data-name="Tracciato 6939" d="M1.983,1.771l-.032.011L1.9,1.846l-.032.075-.011.022-.011.022c-.043.043-.118.054-.161.086l-.065.108L1.6,2.244l-.022-.118L1.6,2.008,1.639,1.9A.348.348,0,0,1,1.9,1.717a.172.172,0,0,1,.129.043l.011.011H1.983" transform="translate(8.112 8.701)" fill="#007b5c"/>
      <path id="Tracciato_6940" data-name="Tracciato 6940" d="M1.605,2.254H1.595l-.022-.118.032-.118.032-.108a.337.337,0,0,1,.269-.194.165.165,0,0,1,.14.054v.011l-.011.011H2L1.96,1.8l-.043.065-.032.065-.011.032-.011.022-.1.054L1.7,2.071l-.065.108-.022.075Zm.323-.517H1.907a.325.325,0,0,0-.248.172l-.043.108-.022.118.011.075.011-.032.065-.118.075-.043.086-.043.011-.011.011-.022V1.92L1.9,1.856l.054-.065.022-.022h.054l-.1-.032" transform="translate(8.102 8.691)" fill="#003d00"/>
      <path id="Tracciato_6941" data-name="Tracciato 6941" d="M1.59,1.992H1.579a.421.421,0,0,1,.312-.269l.011.011-.011.011a.381.381,0,0,0-.291.248Z" transform="translate(8.161 8.76)" fill="#003d00"/>
      <path id="Tracciato_6942" data-name="Tracciato 6942" d="M2.119,2.1l-.032.032-.075-.022a.162.162,0,0,1-.075-.1l-.022.1a.261.261,0,0,0,0,.129l.032.108H1.893l.032.075.108.151.108.129.065.032.054.043L2.28,2.9a.334.334,0,0,0,.151.194l.032.011v.032l-.043.086-.011.011H2.4l-.086-.108L2.28,3.072l-.022-.043a.265.265,0,0,0-.011.183l.032.065a.416.416,0,0,1,0,.28l-.086-.129-.011-.022L2.173,3.3a1.921,1.921,0,0,1,.022-.248V2.975L2.151,2.9a.422.422,0,0,1-.043-.194l-.075.054-.011.1-.054-.043L1.9,2.706l-.011.065L1.85,2.749l-.1-.054c-.032-.022-.065-.043-.065-.086a.328.328,0,0,0,0,.248V2.9a.243.243,0,0,0-.172.022l.075.043.032.075a.562.562,0,0,0,.075.226.331.331,0,0,0,.226.151l.1.022a.294.294,0,0,1,.129.1A.264.264,0,0,1,2.2,3.7l-.075-.043-.075-.032.022.086.065.108L2.1,3.793l-.129-.032H1.9a.809.809,0,0,1-.161,0,.292.292,0,0,0,.129.226L1.882,4l-.011.032a.3.3,0,0,0-.043.215l.075.011-.043.1.022.1.075-.086.151-.032a.388.388,0,0,0,.215-.043.358.358,0,0,0,.129-.151.317.317,0,0,0,.151.14h-.1a.267.267,0,0,0-.215.075l-.011.011.086.054a1.058,1.058,0,0,1-.172.054c-.086.054-.108.172-.194.237a.416.416,0,0,0,.226-.032.211.211,0,0,0-.022.248l.011-.054.054-.032.1-.054.183-.022a.32.32,0,0,0,.161-.054l.075-.129L3.1,4.568a.171.171,0,0,0-.108.086l-.065.118a.16.16,0,0,0,0,.14,3.324,3.324,0,0,1,.979-.151c.011-.075.075-.129.108-.183a.352.352,0,0,0,.054-.291,1.35,1.35,0,0,1-.075-.28.508.508,0,0,0-.118.269.842.842,0,0,0-.28-.183l.043.086-.022.086-.065.011-.129-.032a.418.418,0,0,1,.065.28H3.259a.292.292,0,0,1,.183-.065l-.075-.022a.653.653,0,0,1-.194-.054l.075-.032L3.324,4.3A.283.283,0,0,0,3.4,4.138l-.011-.129L3.313,3.89,3.227,4l-.032-.075-.086-.14-.043.032-.011.011-.022.043L3,3.826,2.926,3.74,2.9,3.826l-.043.065a.245.245,0,0,0-.075.2.338.338,0,0,0,.065.172l.032.086-.011.032H2.84a.2.2,0,0,1-.086-.151l.011-.161.011-.108a.26.26,0,0,0-.043-.183L2.668,3.74l-.032.1-.065.086H2.549l-.011-.043A.2.2,0,0,1,2.6,3.729l.151-.075a.243.243,0,0,0,.151-.14l.011-.075a.338.338,0,0,1,.172-.194.236.236,0,0,0-.172-.022l-.151.086-.075.054a.114.114,0,0,0-.032-.14L2.6,3.3,2.5,3.4a.31.31,0,0,0-.1.226.2.2,0,0,1,.011-.172,1.965,1.965,0,0,1,.14-.172l.075-.1c.043-.043.118-.054.172-.086a.25.25,0,0,0,.1-.118l.032-.086c.022-.054.1-.108.086-.183a.38.38,0,0,0-.2.065V2.739l-.022-.086-.032-.1-.2.14.043-.065L2.6,2.556l.043-.065.129-.1.054-.032a.27.27,0,0,0,.065-.151.809.809,0,0,0,0-.161.837.837,0,0,1,.043-.323.315.315,0,0,1-.129.075.163.163,0,0,0-.108.1l-.075-.172a.636.636,0,0,1-.1.258l-.022.032a.082.082,0,0,1-.075-.011l-.1-.054-.022.172a.333.333,0,0,0,.011.2l.065.065.054.065-.022.075-.011.022h-.1l-.022-.011L2.269,2.48V2.405l-.011-.032V2.34l-.086-.108A.331.331,0,0,1,2.119,2.1" transform="translate(7.546 8.799)" fill="#007b5c"/>
      <path id="Tracciato_6943" data-name="Tracciato 6943" d="M2.216,4.955,2.2,4.944a.241.241,0,0,1-.011-.226A.388.388,0,0,1,2,4.729V4.707A.215.215,0,0,0,2.086,4.6l.108-.118.086-.032.065-.011L2.28,4.4l-.011-.022.011-.011a.3.3,0,0,1,.226-.075H2.56L2.452,4.18a.527.527,0,0,1-.129.14.628.628,0,0,1-.194.043H2.108l-.14.032-.075.075-.011.011L1.871,4.47,1.85,4.363l.032-.086-.054-.011-.011-.011a.31.31,0,0,1,.054-.215V4.008a.27.27,0,0,1-.129-.237l.011-.011.054.011h.032l.075-.011.065.011.129.032-.043-.075-.011-.086V3.631l.086.032.022.011.032.022a.305.305,0,0,0-.043-.14.294.294,0,0,0-.129-.1l-.065-.011-.032-.011a.342.342,0,0,1-.237-.151.588.588,0,0,1-.065-.194L1.613,3.05l-.032-.065-.054-.043-.011-.011V2.921L1.645,2.9h.043V2.888a.389.389,0,0,1-.011-.269h.011L1.7,2.63l.065.075.022.011.075.043.022.011.011-.054h.022l.065.108.032.032.022-.075a.079.079,0,0,1,.075-.065h.011v.011a.507.507,0,0,0,.043.183l.011.011L2.216,3,2.2,3.061v.011l-.011.151-.011.1.011.086.011.022.054.075.011.032a.284.284,0,0,0,0-.248V3.276l-.022-.032a.264.264,0,0,1,.011-.2V3.028H2.28l.011.032v.022l.022.043.1.118.022-.054.011-.022.011-.022h.011l-.011-.011-.022-.022a.272.272,0,0,1-.151-.2l-.011-.022L2.248,2.8l-.032-.022L2.194,2.77l-.032-.032H2.151a.456.456,0,0,1-.118-.14l-.022-.022-.086-.129-.032-.075V2.361h.054l-.022-.054L1.9,2.264a.261.261,0,0,1,0-.129l.032-.108V2.017l.011.011a.137.137,0,0,0,.075.1l.065.022.022-.022.011-.011h.011v.011l.054.108.022.022.065.1v.022l.011.043V2.49l.011.054.032.022L2.4,2.555h.011l.011-.011.022-.065-.054-.065L2.377,2.4,2.323,2.35A.3.3,0,0,1,2.3,2.135l.022-.161.011-.011.1.043h.011l.032.022L2.517,2a.692.692,0,0,0,.108-.258V1.726l.011.011.065.151.108-.075L2.818,1.8l.118-.065h.011v.011A.81.81,0,0,0,2.9,2.06l.011.172a.285.285,0,0,1-.075.151L2.8,2.415H2.786l-.129.108-.043.054L2.6,2.619v.054l.151-.118h.011v.011l.032.1.022.086V2.77a.445.445,0,0,1,.2-.054l.011.011-.054.118-.043.065-.022.054L2.9,3a.25.25,0,0,1-.1.118l-.086.043-.1.043-.043.065-.011.022L2.5,3.373l-.075.1-.022.1A.3.3,0,0,1,2.485,3.4l.065-.043L2.6,3.308l.054-.075h.011a.128.128,0,0,1,.043.118l.054-.032.151-.086L3,3.222l.1.022.011.011L3.1,3.265a.38.38,0,0,0-.172.194v.032l-.011.043a.28.28,0,0,1-.161.151.225.225,0,0,0-.14.075.153.153,0,0,0-.065.129v.032l.011.011h.011l.065-.086.032-.1h.011l.065.043a.3.3,0,0,1,.043.194v.043L2.851,3.9,2.9,3.835l.011-.075.011-.011.1.086.011.022.011-.022.022-.011.043-.043H3.12l.086.151.032.054L3.313,3.9h.011l.032.054.043.065a.31.31,0,0,1,.011.14.283.283,0,0,1-.075.161l-.075.065-.054.022.161.043h.011l.065.022.011.011H3.442a.362.362,0,0,0-.151.054l.183-.011a.284.284,0,0,0-.065-.248V4.255h.022l.129.032.054-.011L3.636,4.2l-.043-.075L3.582,4.1h.011a1.188,1.188,0,0,1,.28.161.514.514,0,0,1,.108-.248L4,4.008v.011a.566.566,0,0,0,.043.183l.032.1a.366.366,0,0,1-.043.3l-.043.054a.187.187,0,0,0-.065.118l-.022.011a4.053,4.053,0,0,0-.979.151l-.011.011V4.933a.307.307,0,0,1,0-.14l.065-.129.075-.075H3.023L2.8,4.6a.341.341,0,0,1-.086.129.341.341,0,0,1-.161.065H2.5l-.118.022-.1.043-.054.032-.011.043.011.011H2.216Zm.807-.377h.086v.011A.2.2,0,0,0,3,4.675l-.065.118-.011.118a4.053,4.053,0,0,1,.979-.151c0-.054.043-.086.065-.129l.043-.043a.319.319,0,0,0,.043-.28L4.024,4.2l-.043-.151a.5.5,0,0,0-.1.237V4.3H3.873a1.222,1.222,0,0,0-.248-.161l.032.054-.032.1-.054.022H3.561l-.108-.022a.464.464,0,0,1,.043.248v.011l-.172.011H3.259l-.011-.011.011-.011L3.41,4.47H3.367a.75.75,0,0,1-.2-.065V4.4h.022l.065-.032.075-.054a.2.2,0,0,0,.065-.151V4.029l-.043-.065-.032-.043-.075.1-.011.011-.011-.011-.022-.075L3.109,3.8l-.032.032-.011.011-.022.032v.011H3.033l-.011-.022L3,3.857l-.065-.075-.022.065-.043.065A.3.3,0,0,0,2.8,4.1a.411.411,0,0,0,.065.172v.011l.032.075-.011.043H2.84a.19.19,0,0,1-.1-.151l.011-.14.011-.032v-.1A.26.26,0,0,0,2.721,3.8l-.043-.032-.022.086-.075.086-.022.011-.022-.011-.011-.054A.226.226,0,0,1,2.6,3.739a.285.285,0,0,1,.151-.075.2.2,0,0,0,.14-.14L2.9,3.491l.011-.043a.289.289,0,0,1,.161-.194.183.183,0,0,0-.151,0l-.151.075L2.7,3.383H2.689V3.373a.149.149,0,0,0-.022-.118l-.043.065-.065.054-.054.043a.264.264,0,0,0-.086.226l-.011.011L2.4,3.642a.267.267,0,0,1,0-.183l.086-.1.065-.075.022-.032.043-.075.108-.043L2.8,3.1l.1-.118V2.964L2.915,2.9l.043-.065.054-.1a.4.4,0,0,0-.194.054H2.807L2.8,2.748l-.022-.086-.022-.075-.172.129-.011.011H2.549V2.705l.011-.011.022-.043V2.619l.011-.054L2.646,2.5l.129-.108h.011l.032-.032a.177.177,0,0,0,.075-.129L2.883,2.07a.906.906,0,0,1,.043-.291l-.086.032-.022.011a.163.163,0,0,0-.108.1L2.7,1.93H2.689L2.635,1.78a.535.535,0,0,1-.1.226L2.5,2.049l-.065-.022H2.42l-.075-.043-.022.161a.3.3,0,0,0,.011.194l.054.043.011.011.054.086-.022.086-.011.011H2.312L2.28,2.555,2.259,2.49V2.383l-.011-.022-.065-.1-.011-.011-.054-.1-.032.011H2.076L2,2.146,1.946,2.06l-.022.075a.517.517,0,0,0,0,.129l.011.022.032.086H1.957v.011H1.914l.032.054.086.129.011.022.108.129.022.011.032.022.022.011.043.032.022.086V2.91a.285.285,0,0,0,.151.183l.032.022.011.022-.011.022L2.452,3.2l-.022.043-.022.022L2.4,3.254l-.1-.108-.032-.054V3.071a.183.183,0,0,0,0,.151l.011.032.011.032a.451.451,0,0,1,.011.291l-.011.011H2.28l-.043-.075-.043-.065-.011-.022-.022-.108.011-.1.011-.151V3.061L2.194,3l-.032-.065-.011-.011A.363.363,0,0,1,2.1,2.738l-.043.043-.022.1-.011.011-.065-.054L1.9,2.748v.043H1.893L1.85,2.781l-.075-.043-.022-.011-.065-.065a.333.333,0,0,0,.011.2l.011.054H1.645l-.086.011.043.032.032.086.011.043a.53.53,0,0,0,.065.183.319.319,0,0,0,.226.151h.022l.065.022a.223.223,0,0,1,.14.1.29.29,0,0,1,.054.161v.011H2.2L2.14,3.7l-.022-.022-.054-.022.022.065.065.108h.011l-.011.011-.043-.011H2.1l-.118-.043H1.86a.146.146,0,0,1-.1,0A.262.262,0,0,0,1.882,4h.011V4.04a.3.3,0,0,0-.054.2l.065.022.011.011H1.9l-.032.086.011.075.075-.065.151-.032h.022A.354.354,0,0,0,2.312,4.3a.254.254,0,0,0,.129-.151h.022a.35.35,0,0,0,.14.14l.011.011L2.6,4.309H2.538L2.506,4.3a.329.329,0,0,0-.215.075l.075.054h.011v.011l-.086.032L2.2,4.5c-.043.022-.065.065-.1.108l-.075.1a.4.4,0,0,0,.194-.022h.011V4.7a.184.184,0,0,0-.032.2l.011-.022.054-.032.108-.054L2.5,4.772h.054a.292.292,0,0,0,.237-.183l.237-.011M2.775,4.1v.011l-.011.14a.167.167,0,0,0,.086.129l.011.011.011-.022L2.84,4.3V4.287a.475.475,0,0,1-.065-.172Z" transform="translate(7.546 8.789)" fill="#003d00"/>
      <path id="Tracciato_6944" data-name="Tracciato 6944" d="M1.791,2.114h0L1.78,2.1a.174.174,0,0,0-.065-.14l-.054-.032L1.6,1.888,1.554,1.77l.011-.011h.011l.043.108.054.043.054.043A.175.175,0,0,1,1.8,2.1Z" transform="translate(7.917 9.111)" fill="#003d00"/>
      <path id="Tracciato_6945" data-name="Tracciato 6945" d="M1.851,1.95H1.84a.341.341,0,0,0-.129-.086H1.689L1.56,1.8V1.789h.011l.118.054h.022a.422.422,0,0,1,.151.086Z" transform="translate(7.975 9.404)" fill="#003d00"/>
      <path id="Tracciato_6946" data-name="Tracciato 6946" d="M1.884,2.1H1.873l-.108-.118-.043-.043L1.69,1.9,1.6,1.839l-.011-.011-.043-.022V1.8l.011-.011.032.032h.022l.086.065.043.032.043.043.108.118V2.1Z" transform="translate(7.883 9.368)" fill="#003d00"/>
      <path id="Tracciato_6947" data-name="Tracciato 6947" d="M1.691,2.12,1.68,2.109l-.022-.2-.065-.14V1.754h.022l.054.14a.694.694,0,0,1,.032.215l-.011.011" transform="translate(8.307 9.062)" fill="#003d00"/>
      <path id="Tracciato_6948" data-name="Tracciato 6948" d="M1.621,2.126h0L1.61,2.115l.043-.108L1.675,1.9l.011-.14V1.749H1.7l.011.011V1.91l-.032.108-.043.1Z" transform="translate(8.464 9.013)" fill="#003d00"/>
      <path id="Tracciato_6949" data-name="Tracciato 6949" d="M1.612,2.054h0L1.6,2.044V1.893l.032-.129.011-.011.011.022-.032.118v.151l-.011.011" transform="translate(8.376 9.052)" fill="#003d00"/>
      <path id="Tracciato_6950" data-name="Tracciato 6950" d="M1.626,2.62l-.011-.011L1.6,2.447l.022-.075.043-.032.011-.011a.527.527,0,0,0,.129-.14.308.308,0,0,0,.043-.183L1.83,1.8V1.791h.011a.647.647,0,0,1,.032.215A.369.369,0,0,1,1.83,2.2a.434.434,0,0,1-.14.14l-.011.011-.032.032-.022.075v.075l.032-.065.086-.118.022-.022a.418.418,0,0,0,.118-.161l.043-.161.011-.065a.277.277,0,0,1,.108-.2h.011v.022a.255.255,0,0,0-.108.183v.065l-.043.172a.627.627,0,0,1-.118.161l-.032.032-.075.108a.188.188,0,0,0-.043.129Z" transform="translate(8.405 8.896)" fill="#003d00"/>
      <path id="Tracciato_6951" data-name="Tracciato 6951" d="M1.709,2.02,1.7,2.009l-.011-.022V1.956L1.666,1.9,1.6,1.848l-.011-.011L1.6,1.826l.075.065.032.065v.022l.011.032V2.02Z" transform="translate(8.275 9.77)" fill="#003d00"/>
      <path id="Tracciato_6952" data-name="Tracciato 6952" d="M1.659,2.123l-.011-.011-.011-.118V1.93l-.032-.1V1.822h.022l.032.108V2l.011.108Z" transform="translate(8.415 9.726)" fill="#003d00"/>
      <path id="Tracciato_6953" data-name="Tracciato 6953" d="M1.63,2.278l-.011-.011V2.2a1.6,1.6,0,0,1,.1-.323l.011-.065V1.8h.022l-.011.086a1.5,1.5,0,0,0-.1.312v.075Z" transform="translate(8.551 9.55)" fill="#003d00"/>
      <path id="Tracciato_6954" data-name="Tracciato 6954" d="M1.641,2.141,1.63,2.13V2.119l.065-.043.011-.022h.011l.1-.14.075-.1H1.9l.011.011-.075.1-.108.14-.011.022-.065.054Z" transform="translate(8.659 9.687)" fill="#003d00"/>
      <path id="Tracciato_6955" data-name="Tracciato 6955" d="M1.615,2.218h0L1.6,2.207a1.613,1.613,0,0,1,.291-.366h.011v.022a1.454,1.454,0,0,0-.28.344Z" transform="translate(8.405 9.911)" fill="#003d00"/>
      <path id="Tracciato_6956" data-name="Tracciato 6956" d="M1.962,2.387l-.011-.011L1.909,2.3l-.043-.022-.054-.043-.054-.065-.022-.054-.011-.086L1.715,2.01l-.022-.1a.187.187,0,0,0-.151-.054l-.011-.011.011-.011c.065.011.129.011.161.065l.043.108v.011l.011.1.011.043.054.065.054.032.054.032.043.086Z" transform="translate(7.702 9.882)" fill="#003d00"/>
      <path id="Tracciato_6957" data-name="Tracciato 6957" d="M1.649,2.035h0l-.011-.011V1.97l-.022-.032L1.584,1.9l-.011-.011-.043-.054.011-.011h.011l.032.054.011.011.022.011.032.065.011.065Z" transform="translate(7.688 9.705)" fill="#003d00"/>
      <path id="Tracciato_6958" data-name="Tracciato 6958" d="M1.628,2.122H1.618a.274.274,0,0,1-.065-.14V1.9l.011-.054.011-.011.011.011L1.575,1.9v.086c.011.054.022.1.065.118v.011Z" transform="translate(7.907 9.814)" fill="#003d00"/>
      <path id="Tracciato_6959" data-name="Tracciato 6959" d="M1.615,2.132h0L1.6,2.122l.022-.1a.247.247,0,0,0-.065-.172V1.831h.011a.278.278,0,0,1,.075.194l-.022.1Z" transform="translate(7.985 9.814)" fill="#003d00"/>
      <path id="Tracciato_6960" data-name="Tracciato 6960" d="M1.906,2.259h0a.259.259,0,0,1-.161-.172l-.011-.022-.011-.032a.243.243,0,0,0-.14-.151l-.011-.011L1.53,1.861,1.519,1.85l.022-.011.032.011.022.011a.279.279,0,0,1,.151.161l.011.032.011.032a.243.243,0,0,0,.14.151l.011.011Z" transform="translate(7.575 9.892)" fill="#003d00"/>
      <path id="Tracciato_6961" data-name="Tracciato 6961" d="M1.615,2.027h0a.081.081,0,0,1-.054-.086l.011-.075h.011l.011.011-.011.065.032.065.011.011Z" transform="translate(7.985 10.156)" fill="#003d00"/>
      <path id="Tracciato_6962" data-name="Tracciato 6962" d="M1.615,2.21H1.6V2.189a.519.519,0,0,0,.183-.312L1.8,1.866l.011.011A.588.588,0,0,1,1.615,2.21Z" transform="translate(8.405 10.156)" fill="#003d00"/>
      <path id="Tracciato_6963" data-name="Tracciato 6963" d="M1.625,2.194H1.614V2.183l.075-.011.065-.032.1-.065.065-.118a.121.121,0,0,1,.075-.086H2l-.011.022-.054.075-.065.118-.108.086-.075.022H1.625" transform="translate(8.503 10.204)" fill="#003d00"/>
      <path id="Tracciato_6964" data-name="Tracciato 6964" d="M1.614,2.162h0L1.6,2.151a.283.283,0,0,1,.075-.161.261.261,0,0,1,.151-.1H1.84v.022A.267.267,0,0,0,1.689,2a.27.27,0,0,0-.065.151Z" transform="translate(8.395 10.419)" fill="#003d00"/>
      <path id="Tracciato_6965" data-name="Tracciato 6965" d="M1.8,2.1H1.792a.338.338,0,0,0-.118-.151l-.1-.022H1.566l.011-.022.108.032a.3.3,0,0,1,.129.151Z" transform="translate(8.034 10.566)" fill="#003d00"/>
      <path id="Tracciato_6966" data-name="Tracciato 6966" d="M1.9,2.018H1.893a.765.765,0,0,0-.237-.075H1.549l-.011-.011V1.921h.129A1.007,1.007,0,0,1,1.9,2l.011.011Z" transform="translate(7.761 10.692)" fill="#003d00"/>
      <path id="Tracciato_6967" data-name="Tracciato 6967" d="M1.557,2.151h0L1.546,2.14a.2.2,0,0,1,.14-.1l.129-.011h.1a.251.251,0,0,0,.129-.108h.022v.011a.238.238,0,0,1-.151.118h-.1L1.7,2.065a.149.149,0,0,0-.129.075Z" transform="translate(7.839 10.732)" fill="#003d00"/>
      <path id="Tracciato_6968" data-name="Tracciato 6968" d="M1.558,2.112h0L1.547,2.1V2.091h.022L1.59,2.08l.1-.054.043-.011L1.784,2,1.9,1.94h.022l-.011.022-.118.065-.065.011-.043.011L1.6,2.091l-.043.022" transform="translate(7.849 10.878)" fill="#003d00"/>
      <path id="Tracciato_6969" data-name="Tracciato 6969" d="M1.569,2.274l-.011-.011.011-.011.065-.022L1.7,2.21l.108-.086.022-.043.065-.075a.3.3,0,0,1,.14-.075l.011.011v.011a.19.19,0,0,0-.129.075l-.065.065-.032.043-.108.1-.065.022-.065.022Z" transform="translate(7.956 10.78)" fill="#003d00"/>
      <path id="Tracciato_6970" data-name="Tracciato 6970" d="M1.6,2.132H1.582L1.56,2.121l.011-.011a.359.359,0,0,0,.323-.161H1.9V1.96a.357.357,0,0,1-.3.172" transform="translate(7.975 10.966)" fill="#003d00"/>
      <path id="Tracciato_6971" data-name="Tracciato 6971" d="M1.633,2.162h0l-.011-.011a.282.282,0,0,0,.022-.2V1.925h.011a.277.277,0,0,1-.011.226Z" transform="translate(8.581 10.732)" fill="#003d00"/>
      <path id="Tracciato_6972" data-name="Tracciato 6972" d="M1.644,2.143l-.011-.011-.022-.118V1.971l.022-.032.022-.011.011.022-.032.032-.011.032.032.108Z" transform="translate(8.483 10.761)" fill="#003d00"/>
      <path id="Tracciato_6973" data-name="Tracciato 6973" d="M1.649,2.152H1.638l-.022-.043a.3.3,0,0,1-.011-.14V1.948l.011-.011.011.022-.011.022.022.129.022.022v.022Z" transform="translate(8.381 10.849)" fill="#003d00"/>
      <path id="Tracciato_6974" data-name="Tracciato 6974" d="M1.985,2.046H1.974l-.054-.032L1.834,2H1.651l-.065-.011V1.981L1.6,1.97l.054.011h.183l.086.011L2,2.024v.011Z" transform="translate(8.238 11.175)" fill="#003d00"/>
      <path id="Tracciato_6975" data-name="Tracciato 6975" d="M1.641,2.084H1.587l-.011-.011.011-.011a.7.7,0,0,0,.366-.075h.022l-.011.022a.834.834,0,0,1-.323.075" transform="translate(8.132 11.337)" fill="#003d00"/>
      <path id="Tracciato_6976" data-name="Tracciato 6976" d="M2.05,2.053A1.426,1.426,0,0,1,1.609,2L1.6,1.978h.011A1.536,1.536,0,0,0,2.341,2h.011v.022a1.013,1.013,0,0,1-.3.032" transform="translate(8.346 11.249)" fill="#003d00"/>
      <path id="Tracciato_6977" data-name="Tracciato 6977" d="M1.6,2.192H1.59L1.6,2.171a.474.474,0,0,0,.377-.183h.011L2,2a.527.527,0,0,1-.4.194" transform="translate(8.268 11.347)" fill="#003d00"/>
      <path id="Tracciato_6978" data-name="Tracciato 6978" d="M1.658,2.065h0l-.011-.011.011-.022v-.1l.011-.011H1.68v.108l-.011.022Z" transform="translate(8.829 10.733)" fill="#003d00"/>
      <path id="Tracciato_6979" data-name="Tracciato 6979" d="M1.655,2.146l-.011-.011.011-.118L1.666,2V1.942h.022v.065l-.011.011v.011l-.011.108Z" transform="translate(8.795 10.897)" fill="#003d00"/>
      <path id="Tracciato_6980" data-name="Tracciato 6980" d="M1.708,2.369,1.7,2.359a.146.146,0,0,1-.043-.151l.022-.032V2.165a.366.366,0,0,0,0-.215L1.7,1.939l.011.011a1.372,1.372,0,0,1-.011.215v.011l-.022.032a.225.225,0,0,0,.032.151v.011Z" transform="translate(8.86 10.868)" fill="#003d00"/>
      <path id="Tracciato_6981" data-name="Tracciato 6981" d="M1.672,2.063H1.661V2.052l.011-.065V1.944l.022.011v.022l-.011.075Z" transform="translate(8.963 10.922)" fill="#003d00"/>
      <path id="Tracciato_6982" data-name="Tracciato 6982" d="M1.674,2.2l-.011-.011.011-.054L1.685,2.1,1.7,2.078l.011-.118.011-.011h.011a.31.31,0,0,1-.011.14l-.011.022-.022.022v.054Z" transform="translate(8.981 10.966)" fill="#003d00"/>
      <path id="Tracciato_6983" data-name="Tracciato 6983" d="M1.683,2.081H1.672V2.07l.065-.075V1.951l.022.011-.011.043Z" transform="translate(9.067 10.989)" fill="#003d00"/>
      <path id="Tracciato_6984" data-name="Tracciato 6984" d="M1.742,2.343l-.011-.011V2.321L1.774,2.3a.341.341,0,0,0,.065-.161.2.2,0,0,0-.054-.151V1.977l.022-.011a.2.2,0,0,1,.054.172.277.277,0,0,1-.075.172Z" transform="translate(9.645 11.132)" fill="#003d00"/>
      <path id="Tracciato_6985" data-name="Tracciato 6985" d="M1.769,2.213,1.759,2.2a.21.21,0,0,1,0-.161V2.02l.022-.054.011-.011v.011L1.78,2.02l-.011.032A.247.247,0,0,0,1.78,2.2Z" transform="translate(9.757 11.024)" fill="#003d00"/>
      <path id="Tracciato_6986" data-name="Tracciato 6986" d="M1.888,2.146l-.011-.011-.086-.108-.075-.043V1.963h.011l.075.054.1.108v.011Z" transform="translate(9.498 11.102)" fill="#003d00"/>
      <path id="Tracciato_6987" data-name="Tracciato 6987" d="M2.006,2.22,2,2.21l-.032-.043-.022-.032A.557.557,0,0,0,1.7,1.984l-.011-.011L1.7,1.962a.66.66,0,0,1,.248.161l.022.022.043.054V2.21Z" transform="translate(9.284 11.093)" fill="#003d00"/>
      <path id="Tracciato_6988" data-name="Tracciato 6988" d="M1.691,1.82l-.065.065L1.562,1.82l.065-.065.065.065" transform="translate(7.994 9.079)" fill="#d20634"/>
      <path id="Tracciato_6989" data-name="Tracciato 6989" d="M1.636,1.906a.075.075,0,1,1,.075-.075.074.074,0,0,1-.075.075m0-.129-.054.054.054.054L1.69,1.83l-.054-.054" transform="translate(7.985 9.072)" fill="#003d00"/>
      <path id="Tracciato_6990" data-name="Tracciato 6990" d="M1.7,1.83l-.065.065a.065.065,0,1,1,0-.129L1.7,1.83" transform="translate(8.102 9.17)" fill="#d20634"/>
      <path id="Tracciato_6991" data-name="Tracciato 6991" d="M1.647,1.914a.075.075,0,1,1,.075-.075.074.074,0,0,1-.075.075m0-.129-.054.054.054.054L1.7,1.838l-.054-.054" transform="translate(8.093 9.15)" fill="#003d00"/>
      <path id="Tracciato_6992" data-name="Tracciato 6992" d="M1.724,1.875l-.065.065-.065-.065.065-.065.065.065" transform="translate(8.314 9.617)" fill="#d20634"/>
      <path id="Tracciato_6993" data-name="Tracciato 6993" d="M1.669,1.961a.075.075,0,1,1,.075-.075.074.074,0,0,1-.075.075m0-.129-.054.054.054.054.054-.054-.054-.054" transform="translate(8.307 9.609)" fill="#003d00"/>
      <path id="Tracciato_6994" data-name="Tracciato 6994" d="M1.734,1.881l-.065.065L1.6,1.881l.065-.065.065.065" transform="translate(8.413 9.667)" fill="#d20634"/>
      <path id="Tracciato_6995" data-name="Tracciato 6995" d="M1.679,1.966a.075.075,0,1,1,.075-.075.074.074,0,0,1-.075.075m0-.129-.054.054.054.054.054-.054-.054-.054" transform="translate(8.405 9.658)" fill="#003d00"/>
      <path id="Tracciato_6996" data-name="Tracciato 6996" d="M1.694,1.95l-.065.065L1.565,1.95l.065-.065.065.065" transform="translate(8.022 10.342)" fill="#d20634"/>
      <path id="Tracciato_6997" data-name="Tracciato 6997" d="M1.639,2.035a.075.075,0,1,1,.075-.075.074.074,0,0,1-.075.075m0-.129-.054.054.054.054.054-.054-.054-.054" transform="translate(8.014 10.331)" fill="#003d00"/>
      <path id="Tracciato_6998" data-name="Tracciato 6998" d="M1.722,1.964l-.065.065-.065-.065L1.657,1.9l.065.065" transform="translate(8.295 10.486)" fill="#d20634"/>
      <path id="Tracciato_6999" data-name="Tracciato 6999" d="M1.667,2.05a.075.075,0,1,1,.075-.075.074.074,0,0,1-.075.075m0-.129-.054.054.054.054.054-.054-.054-.054" transform="translate(8.288 10.478)" fill="#003d00"/>
      <path id="Tracciato_7000" data-name="Tracciato 7000" d="M1.738,2.021l-.065.065-.065-.065.065-.065.065.065" transform="translate(8.452 11.038)" fill="#d20634"/>
      <path id="Tracciato_7001" data-name="Tracciato 7001" d="M1.683,2.106a.075.075,0,1,1,.075-.075.074.074,0,0,1-.075.075m0-.129L1.63,2.03l.054.054.054-.054-.054-.054" transform="translate(8.444 11.024)" fill="#003d00"/>
      <path id="Tracciato_7002" data-name="Tracciato 7002" d="M1.768,2.035,1.7,2.1l-.065-.065L1.7,1.97l.065.065" transform="translate(8.743 11.174)" fill="#d20634"/>
      <path id="Tracciato_7003" data-name="Tracciato 7003" d="M1.723,2.12a.076.076,0,1,1,0-.151.076.076,0,0,1,0,.151m0-.129-.065.054.065.054.054-.054-.054-.054" transform="translate(8.727 11.161)" fill="#003d00"/>
      <path id="Tracciato_7004" data-name="Tracciato 7004" d="M1.783,2.033,1.719,2.1a.065.065,0,0,1,0-.129l.065.065" transform="translate(8.893 11.151)" fill="#d20634"/>
      <path id="Tracciato_7005" data-name="Tracciato 7005" d="M1.728,2.118A.075.075,0,1,1,1.8,2.042a.074.074,0,0,1-.075.075m0-.129-.054.054.054.054.054-.054-.054-.054" transform="translate(8.883 11.142)" fill="#003d00"/>
      <path id="Tracciato_7006" data-name="Tracciato 7006" d="M1.828,2.044l-.065.065L1.7,2.044l.065-.065.065.065" transform="translate(9.33 11.262)" fill="#d20634"/>
      <path id="Tracciato_7007" data-name="Tracciato 7007" d="M1.773,2.129a.075.075,0,1,1,.075-.075.074.074,0,0,1-.075.075m0-.129-.054.054.054.054.054-.054L1.773,2" transform="translate(9.323 11.249)" fill="#003d00"/>
      <path id="Tracciato_7008" data-name="Tracciato 7008" d="M1.732,2.7a3.9,3.9,0,0,0,.818-.678h.269a5.982,5.982,0,0,1-.71.667.878.878,0,0,0-.237.065Z" transform="translate(9.655 11.669)" fill="#007b5c"/>
      <path id="Tracciato_7009" data-name="Tracciato 7009" d="M1.882,2.773H1.871L1.742,2.72l-.011-.011V2.7a3.526,3.526,0,0,0,.818-.667L2.56,2.02h.269l.011.011v.011a6.728,6.728,0,0,1-.71.667H2.118l-.065.011Zm-.118-.065.118.043L2.054,2.7l.065-.011A4.753,4.753,0,0,0,2.8,2.042H2.57a3.631,3.631,0,0,1-.807.667" transform="translate(9.645 11.659)" fill="#003d00"/>
      <path id="Tracciato_7010" data-name="Tracciato 7010" d="M2.644,2.785a3.563,3.563,0,0,1-.893-.764H2.02a1.466,1.466,0,0,0,.732.635Z" transform="translate(9.84 11.669)" fill="#007b5c"/>
      <path id="Tracciato_7011" data-name="Tracciato 7011" d="M2.655,2.8H2.644a3.563,3.563,0,0,1-.893-.764V2.03l.011-.011h.269V2.03a1.5,1.5,0,0,0,.732.635v.011Zm-.872-.764a3.412,3.412,0,0,0,.872.743l.086-.108a1.481,1.481,0,0,1-.721-.635Z" transform="translate(9.84 11.649)" fill="#003d00"/>
      <path id="Tracciato_7012" data-name="Tracciato 7012" d="M2.023,2.182l-.075.011.032-.054.1-.043.1-.043h.1l.065.1-.054.065-.1.011L2.109,2.2l-.086-.022" transform="translate(11.76 11.977)" fill="#ce1220"/>
      <path id="Tracciato_7013" data-name="Tracciato 7013" d="M2.849,2.2a1.641,1.641,0,0,0-.237.237.451.451,0,0,0-.151-.1.319.319,0,0,0-.172-.011l-.237-.011-.1-.043L1.945,2.25,1.988,2.2l.054-.011.075.022.086.022a.177.177,0,0,0,.108-.011L2.354,2.2l.1-.129a.441.441,0,0,1,.43.108l-.022.011Z" transform="translate(11.734 11.989)" fill="#ce1220"/>
      <path id="Tracciato_7014" data-name="Tracciato 7014" d="M2.127,2.256,2.2,2.31l.108-.032a.379.379,0,0,0,.108-.1l.054-.1a.635.635,0,0,1,.366-.032c.022.011.075.043.086.086v.043a.4.4,0,0,1-.1.172.1.1,0,0,0-.075-.108H2.643l-.1.032a.849.849,0,0,1-.248.1.5.5,0,0,1-.323-.043c-.043-.022-.086-.054-.075-.1a.163.163,0,0,1,.172,0l.054.022" transform="translate(11.283 11.778)" fill="#ce1220"/>
      <path id="Tracciato_7015" data-name="Tracciato 7015" d="M4.847,2.661l-.065-.032-.054-.043a.205.205,0,0,0-.14-.022l.075-.075-.011-.022A5.443,5.443,0,0,0,3.3,2.338,2.918,2.918,0,0,0,2.1,2.489L2.092,2.5l.022.043a.356.356,0,0,1-.248.129H1.834l-.086-.043a.314.314,0,0,1-.118-.215c-.011-.1.043-.161.172-.226A2.837,2.837,0,0,1,2.738,2l.474-.011L3.728,2a5.97,5.97,0,0,1,.893.108.838.838,0,0,1,.452.194.133.133,0,0,1,.022.118.175.175,0,0,1-.054.118.232.232,0,0,1-.108.086l-.086.032" transform="translate(8.638 11.405)" fill="#ce1220"/>
      <path id="Tracciato_7016" data-name="Tracciato 7016" d="M1.757,2.244a.13.13,0,0,0-.075.108A.518.518,0,0,1,1.6,2.179l-.011-.032a.26.26,0,0,1,.086-.1.647.647,0,0,1,.377.043.277.277,0,0,0,.108.183l.1.032.043.011a.42.42,0,0,0,.269-.14l.065.054c.011.043-.054.075-.086.1a.464.464,0,0,1-.334.043,1.536,1.536,0,0,1-.237-.086l-.1-.043a.15.15,0,0,0-.118,0" transform="translate(8.219 11.78)" fill="#ce1220"/>
      <path id="Tracciato_7017" data-name="Tracciato 7017" d="M1.737,2.225l-.1-.011L1.6,2.15l.054-.1h.108l.086.043.118.054.022.032-.011.011L1.9,2.182,1.823,2.2l-.086.022" transform="translate(8.337 11.981)" fill="#ce1220"/>
      <path id="Tracciato_7018" data-name="Tracciato 7018" d="M1.967,2.336l-.161.1A1.557,1.557,0,0,0,1.579,2.2l-.032-.032a.465.465,0,0,1,.43-.1l.1.129.043.022.1.011L2.3,2.207,2.386,2.2H2.44l.032.043v.032l-.1.043-.237.011a.466.466,0,0,0-.172.011" transform="translate(7.849 11.989)" fill="#ce1220"/>
      <path id="Tracciato_7019" data-name="Tracciato 7019" d="M5.97,2.783l.075-.011.075.022.086.022L6.3,2.8l.043-.065-.054-.086-.108-.011L6.1,2.7,6,2.739l-.032.054ZM2.537,2.438a.291.291,0,0,0,.108.215l.086.032h.032a.385.385,0,0,0,.258-.118l-.032-.043L3,2.5a3.275,3.275,0,0,1,1.205-.14,5.072,5.072,0,0,1,1.356.129l.011.011L5.5,2.589a.169.169,0,0,1,.129.011l.054.043.065.032.1-.022.108-.086L6,2.438,5.981,2.32a.826.826,0,0,0-.463-.183,5.8,5.8,0,0,0-.893-.108c-.172-.011-.344-.011-.506-.011s-.323,0-.474.011a2.343,2.343,0,0,0-.936.183c-.129.054-.183.129-.172.226m-.2.387L2.408,2.8l.086-.022.065.011L2.58,2.8,2.558,2.75,2.44,2.7l-.1-.043h-.1a.094.094,0,0,0-.054.1l.043.054.1.022M2.16,2.75a.146.146,0,0,1,.075-.118.22.22,0,0,1,.118,0l.1.043a.628.628,0,0,0,.237.086.464.464,0,0,0,.334-.043l.086-.086-.065-.054a.478.478,0,0,1-.269.129H2.741l-.108-.043a.238.238,0,0,1-.108-.183c-.032-.011-.258-.1-.377-.032a.129.129,0,0,0-.075.075v.043a.571.571,0,0,0,.086.183M1.687,2.8h0a2.456,2.456,0,0,1,.237.237l.151-.1a.492.492,0,0,1,.172-.011l.237-.011.1-.043.011-.022L2.558,2.8H2.494l-.075.022-.086.022-.108-.022L2.2,2.815,2.193,2.8l-.108-.129a.441.441,0,0,0-.43.108l.032.022m4.778-.237V2.524c-.011-.043-.065-.065-.086-.086a.548.548,0,0,0-.366.043l-.054.1-.108.086L5.744,2.7l-.075-.043-.054-.032a.233.233,0,0,0-.172,0c-.011.043.032.075.075.1a.442.442,0,0,0,.323.043,1.328,1.328,0,0,0,.248-.086l.1-.043h.108a.112.112,0,0,1,.075.108.4.4,0,0,0,.1-.172m.151.474A1.557,1.557,0,0,1,6.842,2.8h.011l.022-.032a.443.443,0,0,0-.43-.108l-.1.129-.032.032-.108.011-.086-.022-.075-.022L5.981,2.8l-.032.043v.032l.108.043a.8.8,0,0,0,.226,0,.474.474,0,0,1,.172.022.286.286,0,0,1,.161.1M1.644,2.793l-.1.118H1.536V2.9l.1-.118.011-.011a.442.442,0,0,1,.43-.129l-.022-.065V2.524a.157.157,0,0,1,.086-.1.6.6,0,0,1,.377.032V2.438c-.011-.108.043-.183.183-.248a2.379,2.379,0,0,1,.936-.183,7.6,7.6,0,0,1,.99,0,6.133,6.133,0,0,1,.9.108.831.831,0,0,1,.463.194l.032.129V2.46a.46.46,0,0,1,.366-.032c.032.011.086.032.1.086v.054l-.032.075a.448.448,0,0,1,.441.118L7,2.89v.022H6.993l-.1-.118L6.874,2.8l.1.129v.011H6.949l-.1-.118-.022.022.1.118v.022H6.917L6.81,2.858,6.8,2.879,6.9,3v.022H6.885L6.777,2.89l-.022.022.108.129v.011H6.853l-.011-.011-.1-.118-.022.022.108.129v.022H6.82L6.81,3.084l-.1-.118L6.7,2.976l.1.129v.011l-.011.011-.011-.011L6.68,3l-.011.011.1.14V3.17H6.756V3.159l-.108-.118-.022.011.108.129v.011H6.723l-.108-.129H6.605a.261.261,0,0,0-.151-.1.474.474,0,0,0-.172-.022.587.587,0,0,1-.237-.011L5.938,2.89l-.011-.054.032-.086-.108.032a.492.492,0,0,1-.344-.043c-.086-.054-.1-.1-.086-.129V2.6l.118-.075a4.284,4.284,0,0,0-1.335-.151,3.1,3.1,0,0,0-1.195.14v.011l.032.032.086.065c.011.054-.065.1-.1.118a.5.5,0,0,1-.344.043L2.58,2.761l.032.086L2.6,2.89l-.118.054-.237.011a.282.282,0,0,0-.161.011l-.161.1v.011l-.108.118L1.805,3.2V3.181l.1-.118-.011-.022-.108.129H1.773l-.011-.022.108-.129L1.859,3l-.108.129H1.74L1.73,3.116l.108-.129V2.976a.409.409,0,0,0-.118.118H1.708V3.084l.108-.129-.022-.022-.108.118H1.676V3.041l.108-.129L1.762,2.9l-.108.118H1.644l-.011-.011.108-.129L1.73,2.869l-.108.118H1.611V2.965l.1-.118-.032-.022-.1.118-.011.011V2.933l.1-.118Z" transform="translate(7.741 11.381)"/>
      <path id="Tracciato_7020" data-name="Tracciato 7020" d="M1.644,2.041l.043-.022h.054l.022.011c.022.043.011.054-.011.075l.043.022.032.043-.022.011-.032-.032L1.73,2.127l-.022.011.032.075-.022.011Zm.054.075.022-.011.032-.043L1.7,2.041l-.022.011Z" transform="translate(8.795 11.649)" fill="#ffed00"/>
      <path id="Tracciato_7021" data-name="Tracciato 7021" d="M1.78,2.109,1.7,2.13l.022.065.086-.022v.022l-.1.032-.054-.183.1-.032v.022l-.065.022.011.054.075-.022Z" transform="translate(8.965 11.58)" fill="#ffed00"/>
      <path id="Tracciato_7022" data-name="Tracciato 7022" d="M1.677,2.019l.054-.011.054.011.022.032v.032l-.065.043H1.731V2.2H1.709ZM1.72,2.1h.011l.054-.043L1.731,2.03H1.709Z" transform="translate(9.118 11.542)" fill="#ffed00"/>
      <path id="Tracciato_7023" data-name="Tracciato 7023" d="M1.716,2.006v.118l.043.054L1.8,2.124V2.006h.032v.108c0,.065-.032.086-.075.086s-.065-.022-.065-.075V2.006Z" transform="translate(9.284 11.522)" fill="#ffed00"/>
      <path id="Tracciato_7024" data-name="Tracciato 7024" d="M1.712,2H1.8l.022.043-.032.043.043.054-.011.022L1.744,2.2H1.712Zm.022.086h.022L1.8,2.048l-.043-.022H1.734Zm0,.086h.011L1.8,2.145,1.755,2.1H1.734Z" transform="translate(9.459 11.512)" fill="#ffed00"/>
      <path id="Tracciato_7025" data-name="Tracciato 7025" d="M1.727,2h.022v.172h.086V2.2H1.727Z" transform="translate(9.607 11.494)" fill="#ffed00"/>
      <rect id="Rettangolo_532" data-name="Rettangolo 532" width="0.022" height="0.194" transform="translate(11.483 13.496)" fill="#ffed00"/>
      <path id="Tracciato_7026" data-name="Tracciato 7026" d="M1.9,2.2l-.054.011a.09.09,0,0,1-.1-.1A.1.1,0,0,1,1.854,2l.032.011v.022l-.032-.011a.077.077,0,0,0-.075.086.068.068,0,0,0,.075.075h.032Z" transform="translate(9.791 11.483)" fill="#ffed00"/>
      <path id="Tracciato_7027" data-name="Tracciato 7027" d="M1.8,2.132,1.783,2.2H1.761L1.826,2h.032l.065.194H1.89l-.022-.065Zm.065-.022-.022-.054-.011-.022V2.025l-.011.032L1.8,2.111Z" transform="translate(9.938 11.493)" fill="#ffed00"/>
      <path id="Tracciato_7028" data-name="Tracciato 7028" d="M1.789,2h.043l.086.022L1.94,2.1l-.022.065L1.832,2.2H1.789Zm.022.172h.022A.077.077,0,0,0,1.918,2.1a.068.068,0,0,0-.075-.075H1.821Z" transform="translate(10.211 11.493)" fill="#ffed00"/>
      <path id="Tracciato_7029" data-name="Tracciato 7029" d="M1.978,2.1a.09.09,0,0,1-.1.1c-.043,0-.075-.032-.075-.1A.088.088,0,0,1,1.892,2a.1.1,0,0,1,.086.1m-.151,0c0,.043.022.075.065.075s.054-.032.054-.075l-.054-.075c-.043,0-.065.032-.065.075" transform="translate(10.377 11.493)" fill="#ffed00"/>
      <path id="Tracciato_7030" data-name="Tracciato 7030" d="M1.985,2.11V2.024L1.953,2.1l-.032.1H1.91l-.032-.1-.022-.075V2.11L1.845,2.2H1.823L1.834,2h.032l.032.1.022.065L1.942,2.1,1.974,2h.032l.011.194H2Z" transform="translate(10.548 11.491)" fill="#ffed00"/>
      <rect id="Rettangolo_533" data-name="Rettangolo 533" width="0.022" height="0.194" transform="translate(12.592 13.496)" fill="#ffed00"/>
      <path id="Tracciato_7031" data-name="Tracciato 7031" d="M1.85,2.2V2h.022l.065.1.032.065V2H1.99V2.2H1.968L1.9,2.1l-.032-.065V2.2Z" transform="translate(10.805 11.497)" fill="#ffed00"/>
      <rect id="Rettangolo_534" data-name="Rettangolo 534" width="0.022" height="0.194" transform="translate(12.839 13.507)" fill="#ffed00"/>
      <path id="Tracciato_7032" data-name="Tracciato 7032" d="M2.012,2.2l-.054.011a.088.088,0,0,1-.086-.1A.1.1,0,0,1,1.969,2l.043.011v.022l-.043-.011c-.043,0-.065.032-.075.086a.074.074,0,0,0,.075.075L2,2.177Z" transform="translate(11.021 11.512)" fill="#ffed00"/>
      <path id="Tracciato_7033" data-name="Tracciato 7033" d="M1.94,2.137l-.032.054L1.886,2.18l.1-.172.032.011.022.194H2.015L2,2.148ZM2,2.126l-.011-.054V2.03l-.011.022-.032.065Z" transform="translate(11.158 11.542)" fill="#ffed00"/>
      <path id="Tracciato_7034" data-name="Tracciato 7034" d="M1.9,2.194l.043-.183h.032l.032.108.022.075.011-.075.022-.086.022.011-.043.183H2.021l-.043-.108-.022-.075-.011.075-.022.086Z" transform="translate(11.322 11.574)" fill="#ffed00"/>
      <path id="Tracciato_7035" data-name="Tracciato 7035" d="M1.982,2.136l-.043.043-.022-.011.129-.151.032.011-.011.194H2.046V2.158Zm.065,0v-.1l-.011.022-.043.054Z" transform="translate(11.461 11.639)" fill="#ffed00"/>
      <path id="Tracciato_7036" data-name="Tracciato 7036" d="M1.825,2.047a.332.332,0,0,1,.194.054l-.043.161A.306.306,0,0,0,1.825,2.2Z" transform="translate(10.562 11.923)" fill="#ce1220"/>
      <path id="Tracciato_7037" data-name="Tracciato 7037" d="M2.048,2.092l-.032.032A.3.3,0,0,1,1.8,2.114a.2.2,0,0,1,.151-.054l.1.032" transform="translate(10.318 12.049)" fill="#ce1220"/>
      <path id="Tracciato_7038" data-name="Tracciato 7038" d="M2.057,2.084v.14L1.96,2.2a.32.32,0,0,0-.161.054V2.084a.226.226,0,0,1,.258,0" transform="translate(10.309 11.886)" fill="#ce1220"/>
      <path id="Tracciato_7039" data-name="Tracciato 7039" d="M1.964,2.054v.183a.185.185,0,0,1-.183,0V2.054a.521.521,0,0,1,.183,0" transform="translate(10.133 11.915)" fill="#ce1220"/>
      <path id="Tracciato_7040" data-name="Tracciato 7040" d="M2.013,2.084v.172a.212.212,0,0,0-.151-.065l-.108.032v-.14a.226.226,0,0,1,.258,0" transform="translate(9.879 11.886)" fill="#ce1220"/>
      <path id="Tracciato_7041" data-name="Tracciato 7041" d="M2,2.114a.3.3,0,0,1-.215.011l-.032-.032.1-.032A.257.257,0,0,1,2,2.114" transform="translate(9.879 12.049)" fill="#ce1220"/>
      <path id="Tracciato_7042" data-name="Tracciato 7042" d="M1.735,2.1a.439.439,0,0,1,.194-.054v.161a.283.283,0,0,0-.161.065Z" transform="translate(9.684 11.923)" fill="#ce1220"/>
      <path id="Tracciato_7043" data-name="Tracciato 7043" d="M2.423,2.3V2.11a.267.267,0,0,0-.183,0V2.3a.267.267,0,0,0,.183,0m.248.011.022-.032L2.606,2.24a.27.27,0,0,0-.151.065.5.5,0,0,0,.215.011M2.7,2.261V2.11a.226.226,0,0,0-.258,0v.172a.226.226,0,0,1,.161-.054l.1.032m.172.065.043-.161a.422.422,0,0,0-.194-.043v.151a.235.235,0,0,1,.151.054m-.926-.054V2.121a.369.369,0,0,0-.194.043l.032.161a.243.243,0,0,1,.161-.054m.108-.043a.211.211,0,0,1,.161.054V2.11a.226.226,0,0,0-.258,0v.151l.1-.032m-.065.086A.5.5,0,0,0,2.208,2.3a.27.27,0,0,0-.151-.065l-.1.043.032.032m-.258-.172a.49.49,0,0,1,.215-.054.242.242,0,0,1,.28,0,.65.65,0,0,1,.2,0,.226.226,0,0,1,.28,0,.49.49,0,0,1,.215.054v.022l-.043.194v.011H2.875a.242.242,0,0,0-.161-.086l-.032.043-.1.032a.462.462,0,0,1-.151-.043l-.1.011-.108-.011a.462.462,0,0,1-.151.043l-.1-.032-.032-.011c-.054-.032-.108,0-.161.054H1.777V2.358l-.043-.194Z" transform="translate(9.674 11.859)"/>
    </g>
  </g>
</svg>
