<svg xmlns="http://www.w3.org/2000/svg" xmlns:xlink="http://www.w3.org/1999/xlink" width="24" height="24" viewBox="0 0 24 24">
  <defs>
    <clipPath id="clip-path">
      <path id="Tracciato_7369" data-name="Tracciato 7369" d="M.525,12.749a12,12,0,1,0,12-12,11.99,11.99,0,0,0-12,12" transform="translate(-0.525 -0.749)" fill="none"/>
    </clipPath>
  </defs>
  <g id="Sahara_Occidentale" data-name="Sahara Occidentale" transform="translate(-0.525 -0.749)">
    <g id="Raggruppa_224" data-name="Raggruppa 224" transform="translate(0.525 0.749)" clip-path="url(#clip-path)">
      <rect id="Rettangolo_550" data-name="Rettangolo 550" width="48.086" height="24.043" transform="translate(-5.65 -0.022)"/>
      <rect id="Rettangolo_551" data-name="Rettangolo 551" width="48.086" height="16.036" transform="translate(-5.65 7.986)" fill="#fff"/>
      <rect id="Rettangolo_552" data-name="Rettangolo 552" width="48.086" height="8.018" transform="translate(-5.65 16.004)" fill="#008400"/>
      <path id="Tracciato_7366" data-name="Tracciato 7366" d="M0,24.79V.747L16,12.769Z" transform="translate(-5.65 -0.766)" fill="#e00"/>
      <path id="Tracciato_7367" data-name="Tracciato 7367" d="M3.068,4.793A3.237,3.237,0,0,1,5.737,1.607a3.311,3.311,0,0,0-.57-.043,3.229,3.229,0,0,0,0,6.457,2.5,2.5,0,0,0,.57-.054A3.217,3.217,0,0,1,3.068,4.793" transform="translate(13.269 7.207)" fill="#e00"/>
      <path id="Tracciato_7368" data-name="Tracciato 7368" d="M4.213,1.661l.506,1.55H6.344l-1.313.958.5,1.55L4.213,4.76l-1.324.958.506-1.55L2.082,3.211H3.707Z" transform="translate(14.672 8.152)" fill="#e00"/>
    </g>
  </g>
</svg>
