<svg xmlns="http://www.w3.org/2000/svg" xmlns:xlink="http://www.w3.org/1999/xlink" width="24" height="24" viewBox="0 0 24 24">
  <defs>
    <clipPath id="clip-path">
      <path id="Tracciato_7833" data-name="Tracciato 7833" d="M1.478,12.749a12,12,0,1,0,12-12,12,12,0,0,0-12,12" transform="translate(-1.478 -0.749)" fill="none"/>
    </clipPath>
  </defs>
  <g id="Sant_Elena" data-name="Sant’Elena" transform="translate(-1.478 -0.749)">
    <g id="Raggruppa_229" data-name="Raggruppa 229" transform="translate(1.478 0.749)" clip-path="url(#clip-path)">
      <rect id="Rettangolo_571" data-name="Rettangolo 571" width="44.212" height="24" transform="translate(-15.907 0)" fill="#000068"/>
      <path id="Tracciato_7682" data-name="Tracciato 7682" d="M24.44,2.138V.75H21.75L14.41,4.43V.75H10.482V4.387L3.152.75H.462V2.03L5.929,4.775H.462V8.7H5.9L.462,11.426v1.281H3.152l7.329-3.638v3.659H14.41v-3.7l7.34,3.681H24.44V11.318L19.167,8.7H24.44V4.775H19.134Z" transform="translate(-11.398 -0.744)" fill="#fff"/>
      <path id="Tracciato_7683" data-name="Tracciato 7683" d="M24.44,5.561H13.624V.75H11.278V5.561H.462V7.907H11.278v4.811h2.346V7.907H24.44Z" transform="translate(-11.398 -0.74)" fill="#fa0000"/>
      <path id="Tracciato_7684" data-name="Tracciato 7684" d="M3.693,1.5H1.961L9.806,5.424V4.616Z" transform="translate(3.234 6.537)" fill="#fa0000"/>
      <path id="Tracciato_7685" data-name="Tracciato 7685" d="M1.815,4.677H3.547L11.232.749H9.66Z" transform="translate(1.809 -0.747)" fill="#fa0000"/>
      <path id="Tracciato_7686" data-name="Tracciato 7686" d="M10.9,2.039a11.85,11.85,0,0,0-7.857,0s-.463,5.36.947,7.717a6.83,6.83,0,0,0,2.938,2.378A6.387,6.387,0,0,0,9.9,9.82c1.5-2.314,1-7.781,1-7.781" transform="translate(13.119 5.301)" fill="#6ec8ff"/>
      <path id="Tracciato_7687" data-name="Tracciato 7687" d="M6.02,5.436a5.827,5.827,0,0,1-1.485-.775A5.854,5.854,0,0,1,3.071,3.122a1.475,1.475,0,0,1,.646-.893,1.426,1.426,0,0,1,1.474.054c1.087.108,2.174.226,3.261.344.269-.011.527-.011.8-.011A5.558,5.558,0,0,1,8.1,4.166,5.642,5.642,0,0,1,6.02,5.436" transform="translate(14.073 11.945)" fill="#006cd2"/>
      <path id="Tracciato_7688" data-name="Tracciato 7688" d="M3.234,2.283l-.043-.108.151.022h.065l.022-.022a.231.231,0,0,1,.28-.065l.086.054.14.022c.032.032.011.086.054.118l.065.011a.114.114,0,0,1,.086.1h-.28A.274.274,0,0,0,4.1,2.5h.032l.065.032v.011l-.011.011L4,2.53l-.14-.011a.2.2,0,0,1-.118-.086l-.032-.086-.065-.032-.022.1-.011.022-.022.022L3.439,2.5l-.054-.011.022-.054H3.46L3.546,2.4l.043-.043-.065-.043-.075.022-.108-.022-.108-.032" transform="translate(15.245 12.333)" fill="#00dc4e"/>
      <path id="Tracciato_7689" data-name="Tracciato 7689" d="M3.243,2.285l.075-.043a.832.832,0,0,1,.4-.011l.108.022a.466.466,0,0,0,.2-.043l-.022-.075a.22.22,0,0,1,.118,0l.118.043.1.011.054.043.065.011c.086,0,.172-.065.269-.054l.151.032L4.954,2.2a1.164,1.164,0,0,1,.194,0c.086-.011.194-.075.28-.043l-.022.032-.291.054-.075.011L5,2.317,4.62,2.263H4.588l-.032.022a.194.194,0,0,1-.151.022l.011.043a.147.147,0,0,1-.194-.011l-.065-.065-.086-.011L3.942,2.3l-.075.032.022.065a.193.193,0,0,1-.183-.032l-.054-.054L3.587,2.3l-.14.011H3.415l-.032.022c-.054.065-.215.054-.14-.043" transform="translate(15.559 12.696)" fill="#00dc4e"/>
      <path id="Tracciato_7690" data-name="Tracciato 7690" d="M4.817,2.178l.226.032h.043l.054-.022a.245.245,0,0,1,.194-.032.224.224,0,0,0,.118.011l.032-.022.065-.011.194-.011c.011.065-.054.108-.118.108s-.118-.011-.172.022l-.108.075c-.032.032-.1.043-.118,0L5.216,2.3l-.043-.022-.441-.032-.054.022.065.054h.2l.065.043.075.022a1.384,1.384,0,0,0,.42.032l-.022.1-.118.032-.118.043L5.14,2.565c-.054-.011-.108.022-.161.011l-.108-.011-.022.075-.086.054-.011.022.022.032.043-.011A1.313,1.313,0,0,1,5,2.662a.2.2,0,0,1,.194.032L4.9,2.727H4.882l-.022.022a.111.111,0,0,1-.183-.032V2.684l.054-.043.022-.065-.2.043-.032.011-.043-.054.14-.032.022-.118-.269.054-.1.011-.054-.032c-.086-.032-.172.022-.258,0-.054,0-.108-.054-.172-.054a.365.365,0,0,0-.2.054c-.065.011-.161.011-.194-.054l.151-.011A1.126,1.126,0,0,0,3.72,2.35a1.505,1.505,0,0,1,.527.086V2.4l.161-.011c0-.043,0-.086.043-.108l.075.011.065-.022c.032-.054-.14-.075-.1-.118s.28.011.323.022" transform="translate(17.149 12.674)" fill="#00dc4e"/>
      <path id="Tracciato_7691" data-name="Tracciato 7691" d="M3.579,2.751l.054-.032.032-.043H3.6l.043-.054.065-.032L3.7,2.482l.075-.043-.011-.086.022-.022.065.022L3.9,2.342l.022-.032-.032-.075.032-.011.032-.075.032-.011.129-.011-.054.086-.291.42c-.054.065-.075.151-.151.215L3.59,2.87l-.011-.118" transform="translate(19.033 12.703)" fill="#00dc4e"/>
      <path id="Tracciato_7692" data-name="Tracciato 7692" d="M3.2,2.359l-.043-.022V2.316c.075-.043.161-.011.226-.043l.022-.032A.231.231,0,0,1,3.57,2.2l.151.032.172-.022.086.043L3.9,2.295a.539.539,0,0,0-.344.065l.043.086a.073.073,0,0,0-.1.065.1.1,0,0,0,.1.075.273.273,0,0,0,.129-.022.178.178,0,0,1,.129,0l-.183.075-.065.011-.1-.022-.161-.1c-.1-.054.043-.065.043-.118,0-.086-.14-.054-.194-.054" transform="translate(14.952 13.397)" fill="#00dc4e"/>
      <path id="Tracciato_7693" data-name="Tracciato 7693" d="M3.273,2.362V2.308h.194l.043-.032a.161.161,0,0,1,.14-.011l.011.011.054.011a.231.231,0,0,1,.161.1.367.367,0,0,1-.258-.054l.022.065.065.043.022.043-.043.032H3.639V2.491l-.032-.118L3.5,2.394H3.413l-.054.054.032.075-.043.022c-.118-.022-.194-.1-.075-.183" transform="translate(15.464 13.933)" fill="#00dc4e"/>
      <path id="Tracciato_7694" data-name="Tracciato 7694" d="M3.274,2.537l-.011-.022V2.386l.215-.011L3.4,2.311a.185.185,0,0,1,.183,0l.043.022.054.011.269.022.054-.011.022-.043c.032-.043.1-.022.14-.022L4.3,2.236a.165.165,0,0,1,.14-.022l.065.054a.24.24,0,0,0,.151.032l.075-.022V2.214a.975.975,0,0,1,.344.065h.011l-.032.032H4.888l-.1.022-.043.032-.075.011-.2-.022a.079.079,0,0,0,.065.075.326.326,0,0,1-.226,0c-.043-.032-.086-.065-.129-.032l.108.086-.043.032-.2.043-.043.054h.065l.032.043-.022.022a1.557,1.557,0,0,1-.387.086.273.273,0,0,1-.248-.1,1.45,1.45,0,0,0,.377-.022l.022-.011V2.591l.075-.054.086-.043a.769.769,0,0,0-.441.032c-.054.032-.237.086-.28.011" transform="translate(15.948 13.467)" fill="#00dc4e"/>
      <path id="Tracciato_7695" data-name="Tracciato 7695" d="M3.265,2.279l-.022-.032.022-.022c.1-.022.183.075.28.1.054.022.129,0,.183.011a.15.15,0,0,0,.118,0L3.9,2.311l.161-.032c.065-.022.1-.086.161-.1l.065.022-.011.032-.129.1-.022.032.022.011.108.011a.165.165,0,0,1-.194.032L4.007,2.4l-.086.022h-.1a.927.927,0,0,1-.3-.032c-.086-.043-.183-.032-.258-.108" transform="translate(15.753 13.24)" fill="#00dc4e"/>
      <path id="Tracciato_7696" data-name="Tracciato 7696" d="M3.9,2.347h.065l.022-.054L3.95,2.272l-.086-.065-.011-.022.065-.011a.293.293,0,0,0,.28.032c.043-.022.075-.065.118-.043.011.043-.032.086-.086.1L4.1,2.315l-.065.043a.33.33,0,0,1-.183.043L3.66,2.369c-.118-.011-.344.032-.42-.065.054-.043.183-.011.248,0,.14.011.269.022.409.043" transform="translate(15.723 13.011)" fill="#00dc4e"/>
      <path id="Tracciato_7697" data-name="Tracciato 7697" d="M3.607,2.276a.341.341,0,0,1,.172-.043l.032.011.022-.032.075-.043.086.043.032.043.054.022L4.2,2.3l.043.011.011.022c.032.065.129.032.151.075l.011.075.075.065.1.032-.065.075.054.032.248.011-.075.032-.075.011-.011.011.011.022.108.022v.032L4.629,2.8a.809.809,0,0,0-.161,0l-.14.022a.176.176,0,0,1-.118-.075V2.738l.075-.032-.011-.043.011-.054-.011-.054-.043-.011-.011.022-.054.011-.108.011L4.026,2.5l.108-.022-.108-.043a.519.519,0,0,1-.129,0l-.065-.054L3.757,2.34l-.065.054v.022l-.032.032-.151.065H3.4l-.043-.1L3.434,2.4c.075,0-.011-.054.011-.086l.161-.043" transform="translate(16.885 13.104)" fill="#00dc4e"/>
      <path id="Tracciato_7698" data-name="Tracciato 7698" d="M3.7,2.414,3.584,2.4l-.1-.065-.011-.108.1-.043v.118l.011.011.194.032L3.756,2.3l.075-.022.054-.043h.086L4.046,2.2l.075.011.011.022.108.011-.011.043-.022.043.086.011h.022L4.3,2.392H4.229L4.2,2.446a.143.143,0,0,1-.1.065H4.046l-.022-.032.032-.032H4.1l.022-.022L4.068,2.36,4,2.382,3.9,2.457l-.065-.043H3.7" transform="translate(18.027 13.299)" fill="#00dc4e"/>
      <path id="Tracciato_7699" data-name="Tracciato 7699" d="M3.565,2.375l-.075.011-.011-.022a.246.246,0,0,1,.194-.011l.032.011.043-.043V2.278l.011-.011.108-.022.054-.022h.065l.032.032-.065.054-.032.043.011.011-.043.043-.065-.022c0,.043-.1.1-.14.086L3.64,2.439,3.6,2.428Z" transform="translate(18.056 13.65)" fill="#00dc4e"/>
      <path id="Tracciato_7700" data-name="Tracciato 7700" d="M3.629,2.421H3.553l-.022-.054-.086-.022L3.392,2.3l.118.011L3.489,2.27l.086-.022.1.022.065-.032.075-.011.032.054L3.736,2.3l-.022.011.011.022.075.022.065-.011.043-.011.011-.022.1-.022c.043,0,.075-.022.118-.011l.022.011L4.135,2.3l-.075.022-.032.011-.011.032.043.011.108-.011.011.043.054.022L4.3,2.421h.043l.032.011.011.032.043.022h.043l.011.075v.032l-.011.022-.022.011H4.393L4.361,2.6l.011-.075-.032-.011a1.186,1.186,0,0,0-.194.022H4.135l-.011-.022L4.07,2.453l-.065.022-.043.054-.118-.022L3.79,2.5l-.022-.022-.075-.022-.065-.032" transform="translate(17.207 13.68)" fill="#00dc4e"/>
      <path id="Tracciato_7701" data-name="Tracciato 7701" d="M3.3,2.656H3.27l-.011-.043c.043-.086.172-.043.237-.108l.022-.022c.043-.043.108-.022.161.011s.1.054.14.022l.032-.054h.075l.237.043-.1-.14H4.2l.032-.011L4.26,2.29l.054-.022a.3.3,0,0,1,.215.011l.1.065c.043.011.086-.011.129,0l.108.043.151-.043a.418.418,0,0,1,.161.022.146.146,0,0,0,.161-.011c.065.065.183.011.258.043-.011.043-.054.054-.1.065l-.108.032.151.032-.172.032H5.2l-.032-.054c.022-.022.075,0,.086-.043L5.185,2.4a.183.183,0,0,0-.172.151l-.2.011-.032-.065L4.7,2.484,4.486,2.43a.333.333,0,0,0-.2.011l-.022.011.011.032-.043.075H4.142l-.1.022a.444.444,0,0,0,.312.022h.022l.011.011a.144.144,0,0,0,.151.054l.151-.032.108.011a.683.683,0,0,0,.258-.022l.108.011-.054.032L5.046,2.7l.022.054c-.032.043-.108.022-.14.075l-.011.022H4.863l-.1.022c-.054.011-.118-.043-.172-.011-.011.032.022.065.065.075h.1l.108.022-.108.032H4.733l-.022.022-.054.032-.312.065H4.271l-.054-.032.14-.065c-.1-.043-.226.065-.3,0L4.023,2.99l-.108-.022A.638.638,0,0,1,3.6,2.861l.226-.011.118.011.065.032.065-.022-.022-.065h.075l.086.011.011-.011-.011-.022c-.054-.043-.151-.022-.215-.054l-.011-.011L4,2.71c.043-.022.022-.075-.011-.1H3.883a.439.439,0,0,1-.2-.011c-.043-.011-.1-.022-.129.011l-.022.032-.086.011a.608.608,0,0,0-.14,0" transform="translate(15.909 13.939)" fill="#00dc4e"/>
      <path id="Tracciato_7702" data-name="Tracciato 7702" d="M3.6,2.243h.022l.065.075.043.011.086.043.011.022H3.815A.148.148,0,0,1,3.7,2.383l-.086-.054-.1-.022-.086.022-.054-.065.043.022L3.46,2.3l.14-.054" transform="translate(17.031 13.836)" fill="#00dc4e"/>
      <path id="Tracciato_7703" data-name="Tracciato 7703" d="M3.438,2.159h.129l.032.022h.043l.14.032.011.011-.022.011H3.707l-.022.022.1.022.075.032a.355.355,0,0,1-.151,0H3.675l-.032.011L3.556,2.31H3.535l-.011-.032.065-.011H3.6l-.011-.032L3.47,2.224l-.032-.065" transform="translate(17.656 13.016)" fill="#00dc4e"/>
      <path id="Tracciato_7704" data-name="Tracciato 7704" d="M3.242,2.144l.032.011.075.032.108.032.118.022H3.64l.065.011.108.011.075.011.032.011.011.011-.118.043-.054.011H3.694l-.129-.032-.237-.1-.065-.043-.032-.022Z" transform="translate(15.635 12.869)"/>
      <path id="Tracciato_7705" data-name="Tracciato 7705" d="M4.109,2.138l-.022.022-.075.054-.032.011L3.9,2.267l-.14.043-.075.011-.065.011H3.506L3.41,2.3l-.022-.022V2.267H3.42l.086-.011.118-.022h.129l.129-.022L4,2.181l.075-.032L4.1,2.127Z" transform="translate(17.168 12.703)"/>
      <path id="Tracciato_7706" data-name="Tracciato 7706" d="M3.479,2.131l.022.011.022.022.043.011.086.022h.323l.1.032v.011l-.1.032-.1.022-.118-.022L3.7,2.26,3.64,2.249l-.1-.043-.022-.022L3.49,2.163l-.022-.022Z" transform="translate(17.949 12.743)"/>
      <path id="Tracciato_7707" data-name="Tracciato 7707" d="M3.283,2.479l.065-.011.14-.043a.765.765,0,0,0,.194-.086l.108-.065.1-.075.065-.043h.043l.043.011.065.022.054.022.108.043.1.032.14.022.065.011v.011L4.5,2.35l-.161.011L4.23,2.339,4.112,2.3,4.09,2.285l-.032-.022-.032-.011a.08.08,0,0,0-.1,0l-.108.075-.108.065L3.5,2.457l-.151.032H3.283Z" transform="translate(16.143 12.987)"/>
      <path id="Tracciato_7708" data-name="Tracciato 7708" d="M3.274,2.57h.172l.172-.022L3.812,2.5,3.9,2.441,3.974,2.4l.151-.1.108-.065.054-.011v.011l-.118.118-.14.118-.1.054-.1.032a.466.466,0,0,1-.2.043,1.036,1.036,0,0,1-.183,0l-.129-.011-.043-.011Z" transform="translate(16.055 13.67)"/>
      <path id="Tracciato_7709" data-name="Tracciato 7709" d="M3.207,2.292l.108.011.215-.011.054-.022.043-.022.032-.011.065-.022L3.8,2.206h.032v.011l-.022.022-.054.043-.043.032-.054.032-.065.011-.065.011A1.133,1.133,0,0,1,3.3,2.335l-.1-.032Z" transform="translate(15.401 13.475)"/>
      <path id="Tracciato_7710" data-name="Tracciato 7710" d="M3.205,2.282H3.5l.1-.032.086-.011h.086l.011.011L3.7,2.314l-.086.032a.22.22,0,0,1-.118,0H3.453l-.065-.011-.1-.022-.086-.022Z" transform="translate(15.382 13.797)"/>
      <path id="Tracciato_7711" data-name="Tracciato 7711" d="M3.374,2.267v.022l.011.022.043.043.086.054.118.032a.224.224,0,0,0,.118-.011h.108l.118.022v.011L3.869,2.5l-.054.011H3.75L3.621,2.5l-.129-.043-.1-.075L3.374,2.31l-.011-.022V2.267Z" transform="translate(16.924 14.07)"/>
      <path id="Tracciato_7712" data-name="Tracciato 7712" d="M3.459,2.213l.011.011.032.011.022.011H3.61l.022-.011.054.011.043.032v.011l-.043.032-.043.011H3.61l-.032-.011L3.523,2.3l-.032-.022-.032-.043-.011-.011Z" transform="translate(17.755 13.547)"/>
      <path id="Tracciato_7713" data-name="Tracciato 7713" d="M4.083,4.714a.115.115,0,0,1,.011-.151l.043-.043-.043-.086-.118-.022a.243.243,0,0,1-.14-.151l-.011-.086c-.032-.054-.086-.075-.118-.118l-.032-.086-.022-.237-.022-.118c-.022-.043-.065-.075-.065-.118l.043-.1.065-.151-.032-.14-.054-.043L3.545,3.1l-.065.086-.022.065a.213.213,0,0,0,.022.118.262.262,0,0,1,0,.129l-.011.011L3.426,3.5l-.011-.011a.407.407,0,0,1,0-.161.365.365,0,0,1,.054-.2l.011-.032c.022-.065-.054-.129-.022-.172l.054-.054.011-.054-.032-.226L3.5,2.518,3.566,2.5l.011.065.022.161.022.065c.011.043.032.108.086.118l.086-.043.022.032V2.873L3.76,2.766A.607.607,0,0,1,3.749,2.4a.245.245,0,0,0-.1-.237c-.075-.054-.194-.054-.237-.129A.265.265,0,0,1,3.4,1.9l-.054-.118c-.054-.022-.108.022-.14.065a.248.248,0,0,0-.032.215c.022.086.1.161.108.258a.7.7,0,0,0,0,.151l.032.1c0,.054-.065.075-.108.108a.212.212,0,0,0-.054.237v.011l.011.086H3.136l-.011.022c.011.054.086.065.1.108l-.011.1a.278.278,0,0,0,.1.269l.054.054c.032.043,0,.118-.011.172-.022.129.075.248.108.377a.41.41,0,0,1-.011.161L3.4,4.262a.82.82,0,0,1,.065.215l.054-.054c.065.022.054.172.118.2l.086.022.054.043.161.183c0-.043.054-.043.1-.043s.1,0,.1-.032l-.054-.086" transform="translate(14.601 9.321)" fill="#f46100"/>
      <path id="Tracciato_7714" data-name="Tracciato 7714" d="M3.243,2.259h.022l.043-.032.011-.032-.011-.022a.24.24,0,0,0-.14-.032H3.135a.125.125,0,0,0,.108.118" transform="translate(14.698 12.84)" fill="#f46100"/>
      <path id="Tracciato_7715" data-name="Tracciato 7715" d="M3.309,2.326l.011-.043-.065-.065-.022.022L3.2,2.229l-.054-.065-.054-.054a.231.231,0,0,0,.215.215" transform="translate(14.298 12.547)" fill="#f46100"/>
      <path id="Tracciato_7716" data-name="Tracciato 7716" d="M3.233,2.315l-.011-.043a.119.119,0,0,0-.043-.118L3.072,2.1a1.463,1.463,0,0,0,.183.42V2.487c.011-.043.043-.1.011-.14l-.032-.032" transform="translate(14.083 12.44)" fill="#f46100"/>
      <path id="Tracciato_7717" data-name="Tracciato 7717" d="M3.733,2.219l-.022.022-.043.011-.022.043-.054.022-.054-.011-.065-.032H3.4l-.065.043-.022-.065a.132.132,0,0,0-.054-.108l-.118.011-.032.054L3.1,2.23a.477.477,0,0,0,.129.161.432.432,0,0,0,.334.14c.043,0,.108-.011.14.032l.043.065.1-.032V2.488l-.108-.269" transform="translate(14.337 12.869)" fill="#f46100"/>
      <path id="Tracciato_7718" data-name="Tracciato 7718" d="M3.555,3.373l.032.075.075.054.011.022.022.065.086-.022.065.054-.022.108.032.065.011.011V3.782a.387.387,0,0,0-.011-.269l-.1-.183L3.706,3.3l-.075-.054H3.6L3.577,3.2c.011-.075.032-.129,0-.172l-.054-.054-.011-.108L3.48,2.835l.011-.1-.065-.086L3.415,2.62,3.383,2.5l.011-.075L3.383,2.4l-.022-.032V2.362l-.011-.011a.1.1,0,0,1,0-.108c0-.108.011-.215-.065-.28s-.118-.011-.151.043c-.043.086-.011.183-.022.269a.516.516,0,0,1-.054.183l.011.022v.14l-.011.011H3.028l.022.054c.032.075.129.108.172.183.043.1,0,.215.043.312s.161.118.2.194l.022.075V3.373h.065" transform="translate(13.654 10.865)" fill="#f46100"/>
      <path id="Tracciato_7719" data-name="Tracciato 7719" d="M5.23,5.8,5.2,5.663,5.079,5.6c-.022-.032-.022-.086-.065-.108H4.939l-.065-.065L4.842,5.34,4.81,5.3a.635.635,0,0,1-.022-.151.345.345,0,0,0-.108-.215l-.032-.043H4.584l-.043.032v.022l.118.108.054.1-.022.032c-.011.043.065.1.043.14l-.075-.011-.011-.086-.011-.086c-.032-.032-.1-.032-.118-.075l-.011-.054-.043-.075.011-.065H4.5a.064.064,0,0,0,.043-.086l-.054-.1-.043-.108a.123.123,0,0,0-.075-.086l-.075-.022L4.3,4.393l.1.022.065.065.075.1v.075l.043.054.022-.032a.16.16,0,0,0-.043-.151,1.62,1.62,0,0,1-.118-.237c.032-.1-.043-.194-.065-.28l-.043-.151L4.3,3.769c-.032-.1.022-.226-.032-.323l-.054-.1c-.022-.054,0-.161-.043-.2l-.011-.011L4.175,3.1l.032-.011.032.032.022-.011L4.283,3.1l-.011-.065A.236.236,0,0,1,4.3,2.8c.032-.043.1-.065.118-.108.043-.086-.054-.161-.065-.258l-.022-.1a.356.356,0,0,1-.172.237l-.151.065-.065.086.075.086a.451.451,0,0,1,.108.3L4.121,3.2c-.011.086-.043.183.011.248l.054.043c.054.075-.043.183-.022.269l.065.1v.108a.39.39,0,0,1-.151-.387c-.032-.043-.086.032-.129.054-.065.011-.118-.075-.075-.118a.342.342,0,0,0,.161-.344.72.72,0,0,0-.194-.355.841.841,0,0,1-.172-.226l-.032-.118-.022.011v.043l-.022.1c0,.043.054.086.043.129a.149.149,0,0,1-.108-.14V2.542l-.086-.054c.032.054-.022.129.011.183.022.032.075.043.086.086l.011.086.011.022L3.551,2.9a.1.1,0,0,0,.011.151l.065.065L3.616,3.2c-.022-.086-.151-.118-.161-.2V2.962l-.032-.086c-.022-.054.011-.108-.022-.151L3.336,2.66l.032-.075V2.5l-.032-.054.054-.054V2.359l.022-.011.075-.1.032-.043L3.529,2.2C3.465,2.133,3.379,2.09,3.357,2c-.011-.065.032-.172-.032-.226-.043-.032-.129,0-.161.043l-.032.1-.065.248c-.011.065-.075.118-.065.183.011.043.086.065.129.043a.243.243,0,0,0,.086-.118.316.316,0,0,1,.043.172l-.022.075a2.436,2.436,0,0,1-.14.215.744.744,0,0,0-.022.549l.032.086c.054.075.172.032.269.022A.324.324,0,0,1,3.7,3.64a.836.836,0,0,0,.022.172l.086.108c.14.161.108.409.183.613L4,4.565l.108.226a1.445,1.445,0,0,1,.075.291c.022.194.054.387.086.581H4.24a.208.208,0,0,0,.172.129L4.39,5.738c.043-.032.108-.011.161.022.086.043.183.108.2.194.022.065,0,.118.022.183s.108.086.14.032V6.126c0-.086-.054-.151-.065-.237s.065-.172.14-.129c.043.022.043.1.032.151a.542.542,0,0,0,.129.344L5.2,6.32h.043L5.23,6.244l.043.054a.249.249,0,0,0,.043-.248A.964.964,0,0,1,5.23,5.8" transform="translate(13.389 9.167)" fill="#f46100"/>
      <path id="Tracciato_7720" data-name="Tracciato 7720" d="M4.034,2.868H4.012L3.991,2.9l-.032.043H3.926a.139.139,0,0,1-.108-.14V2.793H3.786a.2.2,0,0,1-.172-.118V2.664H3.6L3.582,2.7a.2.2,0,0,1-.2-.2l.054.054.043.065.022.011L3.528,2.6l.011-.043-.032-.043L3.5,2.492l-.043-.065.032-.108L3.42,2.266l-.086.022L3.3,2.223V2.212l-.075-.065-.032-.075H3.13l-.011.075L3.1,2.158l-.032.075.043.065.022.065.011.022.1.043a.145.145,0,0,1,.054.129v.032l.032.043c.043.032,0,.086,0,.129v.032l.032.118.011.032h.043l.011-.022.043-.054.108-.011a.132.132,0,0,1,.054.108l.022.065.065-.043H3.8l.054.032.065.011L3.958,3l.022-.022.043-.022.022-.011V2.879Z" transform="translate(14.015 12.167)" fill="#00be00"/>
      <path id="Tracciato_7721" data-name="Tracciato 7721" d="M4.145,3.945l.022-.1c.011-.065-.032-.118-.054-.172C4.08,3.6,4.091,3.5,4.048,3.439V3.428l-.075-.1L3.929,3.2l-.065-.075-.022-.14-.065-.1-.011-.022-.075-.086-.011-.075-.075-.226-.032-.108-.011-.118-.022-.032-.1.043c-.054-.011-.065-.075-.086-.118L3.348,2.1l-.032-.183-.011-.075-.065.022v.075l.022.215-.011.065-.043.054c-.032.043.032.108.022.161l-.022.043a.72.72,0,0,0-.054.2.4.4,0,0,0,.011.161l.011.011.022.022.022-.022a.265.265,0,0,0,.011-.129L3.2,2.61l.032-.065.054-.086.054-.032.054.043a.215.215,0,0,1,.022.14.257.257,0,0,1-.054.151l-.054.1c0,.043.054.075.075.108l.022.129a.883.883,0,0,0,.022.237l.022.086c.032.043.1.065.118.118l.022.086a.171.171,0,0,0,.14.14l.108.032h.011l.032.086-.043.043a.13.13,0,0,0-.011.151c.032.032.065.043.065.086s-.065.043-.108.032-.1,0-.1.043l-.151-.183-.054-.043-.086-.032c-.075-.022-.065-.172-.118-.194l-.065.054.011.14.011.065.043.054a.334.334,0,0,1,.108.258l.108-.043.065-.054a.1.1,0,0,1,.108,0l.065.032c.043.022.118.054.161.022l.075-.075.054-.022c.075-.022.161-.075.151-.161l-.022-.108m-.129-.022-.054-.075-.086-.086H3.865L3.757,3.7l-.032-.075L3.66,3.557l-.032-.14c-.032-.032-.1-.011-.129-.054l-.011-.129-.032-.075c-.022-.054.022-.118,0-.172l-.032-.1c-.011-.054.043-.1.054-.151l-.032-.118L3.456,2.6l.086.011.011.1v.1c.022.075.118.108.118.183v.086l.086.075c.032.043,0,.118.022.172s.108.075.14.14-.011.118.011.161l.065.075a.2.2,0,0,1,.086.151c0,.043-.032.086-.065.075" transform="translate(14.862 9.96)" fill="#00be00"/>
      <path id="Tracciato_7722" data-name="Tracciato 7722" d="M3.309,2.822l.043.129v.011l.1.2.054.065.043.011a.451.451,0,0,0,.011-.172c-.032-.118-.129-.237-.108-.366.011-.065.043-.129.011-.183l-.054-.043a.278.278,0,0,1-.1-.269l.011-.1c-.011-.043-.086-.054-.086-.108V1.983L3.255,1.9V1.886l-.086.022-.011.011-.032.011-.011.011v.022c.011.2.129.355.14.549a1.455,1.455,0,0,0,.054.312" transform="translate(14.503 10.351)" fill="#00be00"/>
      <path id="Tracciato_7723" data-name="Tracciato 7723" d="M3.2,2.489l-.011.1.043.043v.1l.054.054c.032.043.011.108,0,.161l.011.043.054.011.075.054.043.032H3.5l.022-.011V3.059c0-.054-.043-.1-.054-.151V2.854l-.022-.14-.011-.086-.043-.075-.011-.075a.344.344,0,0,0-.1-.172.229.229,0,0,1-.075-.172l.011-.065-.043-.086c-.054-.032-.1-.022-.118.011V2.1l.011.011.022.032.011.032-.011.075.032.118V2.4l.075.086" transform="translate(13.946 11.104)" fill="#00be00"/>
      <path id="Tracciato_7724" data-name="Tracciato 7724" d="M3.313,2.72l-.065-.065c-.032-.043-.054-.108-.011-.14l.022-.032-.022-.032-.011-.086c-.011-.043-.065-.054-.086-.086-.022-.054.022-.129-.011-.183a.085.085,0,0,1,.086.054v.065a.183.183,0,0,0,.108.14c.022-.043-.043-.086-.043-.129l.022-.1V2.1l.011-.022h.032l.022-.065-.043-.065V1.859l-.011-.032-.1-.022-.011.011-.022.043a.19.19,0,0,1-.086.1l-.011.011v.022l-.054.065.022.054.011.086-.032.075.054.065c.032.043,0,.1.022.151l.032.065V2.6c.011.086.151.118.161.2l.011-.086" transform="translate(13.702 9.56)" fill="#00be00"/>
      <path id="Tracciato_7725" data-name="Tracciato 7725" d="M3.181,2.17,3.16,2.127V2.062l.022-.075c-.011-.065-.129-.032-.1.032l.011.022c.022.043,0,.075,0,.108l.022.1L3.1,2.331,3.02,2.4l.043.075.043.022.032.011h.011V2.385l.011-.022-.011-.022-.011-.022c-.022-.054.065-.1.043-.151" transform="translate(13.576 10.992)" fill="#00be00"/>
      <path id="Tracciato_7726" data-name="Tracciato 7726" d="M3.177,2.217,3.22,2.3c.011.065-.022.118-.011.172l.032.086.022.129.129.054c.032.032,0,.1.032.14l.054.054.032.075a.143.143,0,0,0,.108.065l.011.011a.153.153,0,0,1,.1.086l.043.075c.043.011.065-.043.065-.075a.188.188,0,0,0-.075-.151l-.075-.075c-.022-.054.011-.108-.011-.161s-.118-.086-.14-.151.011-.118-.022-.161-.075-.043-.086-.086V2.3c0-.065-.1-.108-.118-.172l.011-.108-.022-.1-.086-.011v.022c-.011.032.032.086.022.129s-.065.1-.054.151" transform="translate(15.097 10.644)" fill="#6b2c00"/>
      <path id="Tracciato_7727" data-name="Tracciato 7727" d="M3.158,1.887l-.032.086h.043l-.011-.086" transform="translate(14.604 10.363)" fill="#6b2c00"/>
      <path id="Tracciato_7728" data-name="Tracciato 7728" d="M3.06,2.01l.022.032L3.071,2.01,3.06,1.978V2.01" transform="translate(13.97 11.247)" fill="#6b2c00"/>
      <path id="Tracciato_7729" data-name="Tracciato 7729" d="M4.536,3.482A.487.487,0,0,1,4.5,3.31l-.075-.054-.011.022.011.032c.043.043.022.14.043.194l.054.1c.054.1.011.226.043.334l.022.075.043.151c.022.1.1.183.065.28a1.62,1.62,0,0,0,.118.237.243.243,0,0,1,.054.161l-.032.032-.043-.054V4.742l-.075-.1-.065-.075-.086-.011-.022.075.075.011.075.086.043.118.054.086a.064.064,0,0,1-.043.086H4.729L4.719,5.1l.043.065.011.043c.022.054.086.054.118.1l.011.086.011.075.075.011c.022-.043-.054-.086-.043-.129l.022-.022c.022-.054-.022-.086-.054-.108L4.8,5.108l-.011-.032.043-.032.065.011.032.032a.372.372,0,0,1,.108.226l.022.151.043.032.032.086.054.065h.075c.043.022.043.086.065.118l.118.054.032.14a1.042,1.042,0,0,0,.086.258.254.254,0,0,1-.043.248L5.483,6.4l.011.075V6.5l.011.011.1.022h.011l.022-.011a.994.994,0,0,0-.054-.409l-.065-.151c-.011-.054.011-.118-.022-.172-.043-.032-.118-.032-.14-.086l-.011-.032L5.267,5.6,5.2,5.592l-.011-.043L5.127,5.5,5.1,5.387l.032.022a.24.24,0,0,0,.151-.032.481.481,0,0,1,.3,0l.075.022c.043,0,.075-.054.118-.075s.14-.011.194-.054a.177.177,0,0,0,.075-.129l-.022-.151a1.968,1.968,0,0,0-.086-.269A3.713,3.713,0,0,0,5.719,4.2L5.666,4.1l-.032-.151c-.043-.14-.161-.237-.215-.366l-.054-.2-.043-.269A2.639,2.639,0,0,0,5.3,2.815l-.054-.2c0-.075,0-.161-.054-.2s-.151-.032-.183-.1L5,2.245l-.075-.108a.188.188,0,0,1-.032-.183.227.227,0,0,0-.14.054l-.1.118L4.568,2.2c-.032.043-.022.1-.032.151a1.162,1.162,0,0,1-.032.2l-.032.054-.086.043a.315.315,0,0,0-.172.075L4.159,2.8l-.022-.075c-.043-.1-.161-.14-.194-.237l-.011-.086-.011-.065c-.043-.108-.2-.14-.237-.258-.022-.075.022-.161,0-.226a.171.171,0,0,0-.248-.086c-.129.086-.108.28-.183.42a.385.385,0,0,1-.28.215c.022.237.043.549.108.936A7,7,0,0,0,3.6,5.269a6.2,6.2,0,0,0,.829,1.388c.172-.011.377-.075.538-.086l.151-.022c.054-.022.086-.054.14-.054l.1.043c.043.011.086,0,.1-.032V6.485l-.043-.065a.5.5,0,0,1-.118-.344c0-.054,0-.129-.043-.161-.075-.043-.151.054-.14.14s.065.151.065.226v.032c-.032.065-.118.032-.14-.022s0-.118-.022-.172c-.022-.1-.118-.151-.2-.194-.054-.032-.118-.065-.161-.022l.032.043H4.7v.022h.032l.129.022.032.043.022-.011.011.011v.054a.83.83,0,0,1,.108.269v.108L4.945,6.5,4.9,6.431c-.032-.043-.1-.032-.151-.032a.425.425,0,0,1-.323-.14.688.688,0,0,1-.14-.161l-.022.011-.032-.032L4.2,5.947a1.539,1.539,0,0,1-.183-.409l-.011-.022-.022-.065-.043-.065.022-.065L4,5.312,4.008,5.3l-.022-.075c-.043-.075-.151-.108-.2-.194s0-.215-.043-.312c-.043-.075-.14-.108-.172-.183l-.022-.054L3.5,4.451l-.043-.075.075-.065.011-.086-.011-.086V4.031L3.524,4c-.032-.054.075-.1.086-.022L3.6,4.042l-.011.065.022.032c.022.065-.054.118-.043.161l.011.011a.532.532,0,0,0,.054-.172c.011-.1-.022-.183.022-.269.032-.065.086-.108.151-.054s.065.183.065.28c.022-.032.065-.043.118-.011l.043.086-.011.065a.229.229,0,0,0,.075.172.405.405,0,0,1,.1.161l.011.086.043.065v.1l.032.14V5c.011.065.054.108.054.161l-.011.011v.011H4.288l.086.183a.414.414,0,0,1,.011.28v.022l.032.032v.054l.065.065h.011v.011h.032c-.032-.194-.065-.4-.086-.592a1.191,1.191,0,0,0-.075-.28L4.256,4.72,4.245,4.7c-.075-.215-.043-.463-.183-.624l-.086-.108a.732.732,0,0,1-.022-.161.3.3,0,0,0-.323-.248c-.1,0-.215.054-.269-.022L3.33,3.45A.741.741,0,0,1,3.352,2.9a1.592,1.592,0,0,0,.14-.226L3.513,2.6l-.032-.161a.236.236,0,0,1-.1.108c-.043.022-.118.011-.129-.032-.011-.065.054-.129.065-.183l.065-.258.032-.086c.032-.043.118-.075.161-.043.065.043.022.161.032.226.022.086.108.129.172.194l.1.022.011.022-.011.1.043.054v.065l-.032.011.032.108a.6.6,0,0,0,.172.226.826.826,0,0,1,.194.355.35.35,0,0,1-.161.355c-.043.043.022.129.075.108l.129-.054a.375.375,0,0,0,.151.387V4.01l-.065-.086c-.022-.1.075-.194.022-.269L4.385,3.6c-.054-.065-.022-.161,0-.248V3.278a.432.432,0,0,0-.108-.3L4.2,2.891a.124.124,0,0,1,.065-.1l.151-.065A.336.336,0,0,0,4.589,2.5l.022.1c.011.086.108.161.065.248-.022.054-.086.075-.118.118a.26.26,0,0,0-.032.237l.011.054.086-.022A.212.212,0,0,1,4.675,3c.043-.032.108-.065.108-.118l-.032-.086a.7.7,0,0,1,0-.151c-.011-.1-.086-.172-.118-.269a.314.314,0,0,1,.043-.215.123.123,0,0,1,.14-.054l.054.108.011.129c.043.086.161.086.237.129a.265.265,0,0,1,.1.237.6.6,0,0,0,.011.366l.043.108.011.032.011.118.043.108.054.129.011.086.022.075.065.1.075.108v.011l.022.129.075.086L5.7,4.29l.065.086.011.011c.043.075.022.172.054.248a.507.507,0,0,1,.065.161L5.859,4.9l.032.108c.011.075-.075.14-.151.161L5.7,5.183l-.086.086c-.054.032-.118,0-.172-.032l-.054-.022a.117.117,0,0,0-.118,0l-.054.054-.108.043A.334.334,0,0,0,5,5.054L4.945,5l-.011-.065V4.8a.418.418,0,0,0-.065-.2,1.193,1.193,0,0,0-.1-.2l-.054-.118.011-.086L4.708,4.15l-.032-.086-.011-.032L4.643,3.87V3.795l-.054-.172-.011-.065-.043-.075" transform="translate(13.136 9.002)" fill="#6b2c00"/>
      <path id="Tracciato_7730" data-name="Tracciato 7730" d="M3.162,4.254H3.151V4.233a9.156,9.156,0,0,0,1.41-2.465h.011l.011.011a9.156,9.156,0,0,1-1.41,2.465Z" transform="translate(14.854 9.199)"/>
      <path id="Tracciato_7731" data-name="Tracciato 7731" d="M3.192,3.959H3.181V3.937A6.692,6.692,0,0,0,5.043,1.828l.011-.011.011.011A6.667,6.667,0,0,1,3.2,3.959Z" transform="translate(15.147 9.677)"/>
      <path id="Tracciato_7732" data-name="Tracciato 7732" d="M3.244,3.658h0l-.011-.011.226-1.765H3.48L3.254,3.648l-.011.011" transform="translate(15.654 10.318)"/>
      <path id="Tracciato_7733" data-name="Tracciato 7733" d="M3.317,2.282H3.306V2.261a1.112,1.112,0,0,0,.387-.355L3.7,1.9l.011.011a1.432,1.432,0,0,1-.387.377Z" transform="translate(16.368 10.439)"/>
      <path id="Tracciato_7734" data-name="Tracciato 7734" d="M3.228,2.721H3.217V2.71l.667-.743H3.9l.011.011-.667.743Z" transform="translate(15.499 11.143)"/>
      <path id="Tracciato_7735" data-name="Tracciato 7735" d="M4.883,3.874H4.872a9.231,9.231,0,0,1-1.5-2.142H3.4a8.54,8.54,0,0,0,1.5,2.12v.022Z" transform="translate(17.051 8.847)"/>
      <path id="Tracciato_7736" data-name="Tracciato 7736" d="M3.544,2.715H3.533V2.693a2.772,2.772,0,0,0,.786-.753h.011l.011.011a3.13,3.13,0,0,1-.786.764Z" transform="translate(18.584 10.878)"/>
      <path id="Tracciato_7737" data-name="Tracciato 7737" d="M4.331,3.877,4.32,3.867a10.363,10.363,0,0,1-.8-2.088V1.768h.022a10.772,10.772,0,0,0,.8,2.088v.022Z" transform="translate(18.496 9.199)"/>
      <path id="Tracciato_7738" data-name="Tracciato 7738" d="M5.026,3.57H5.016A6.877,6.877,0,0,1,3.455,1.816V1.8l.011-.011A6.7,6.7,0,0,0,5.037,3.548V3.57Z" transform="translate(17.822 9.453)"/>
      <path id="Tracciato_7739" data-name="Tracciato 7739" d="M3.989,2.426h0a1,1,0,0,1-.441-.452l.011-.022.011.011a.932.932,0,0,0,.42.441L4,2.415Z" transform="translate(18.73 10.995)"/>
      <path id="Tracciato_7740" data-name="Tracciato 7740" d="M3.644,2.306h0l.032-.312-.011-.011H3.655l-.011.14H3.6l.022-.151-.011-.011H3.558l-.022.161H3.515l.032-.151V1.962H3.526L3.408,2.4v.022l-.054.194-.022.075L3.3,2.845l-.022.075-.022.108v.022l.1.022h.011V3.06l.022-.108.086.011-.022.14.011.011.1.022h.011V3.124l.032-.28V2.737l.011-.108.011-.1.022-.215Zm-.065.42H3.526l.011-.086h.054Zm-.022.237-.065-.022L3.5,2.866h.065Zm.022-.172v.054H3.515l.011-.1H3.58Zm-.269.1.011-.022h.065l-.022.065L3.311,2.92Zm.011-.043.032-.108h.054l-.022.108Zm.086-.323.043.011-.022.075H3.375Zm.054-.2h.032l-.022.075H3.44Zm.1-.1V2.3H3.515l.022-.075ZM3.537,2.2l.011-.054H3.58L3.569,2.2Zm.075.194H3.569l.011-.075h.043Zm-.065,0H3.5l.011-.075h.032Zm.043.215H3.537l.011-.075.054.011Zm-.075,0H3.461l.011-.075h.054Zm0,.032L3.5,2.715H3.44l.011-.075Zm-.043-.129.022-.086h.043l-.011.086Zm-.022,0L3.408,2.5l.022-.075h.043ZM3.494,2.3H3.461l.022-.075h.032Zm-.118.344h.054l-.022.075H3.354l.022-.054Zm.054.1.075.011-.022.1H3.408ZM3.6,2.511H3.548l.011-.086h.054ZM3.623,2.3H3.58l.011-.075h.043Zm.011-.151V2.2H3.591L3.6,2.145ZM3.58,1.984h.011l-.011.14H3.558Zm-.054.161L3.515,2.2H3.483L3.5,2.145Zm-.183.9-.065-.022L3.3,2.941l.065.011ZM3.4,2.931l.011-.065h.075l-.011.075Zm.151.183-.065-.022.011-.118.065.011Z" transform="translate(15.889 11.093)"/>
      <path id="Tracciato_7741" data-name="Tracciato 7741" d="M3.468,1.98l-.022-.011-.011.011.043.151H3.458L3.425,1.98V1.969H3.382l-.011.011h0l.011.151H3.35L3.339,2,3.318,1.98,3.307,2l.032.323v.011l.032.291v.011l.043.517h.022l.086-.032h.011l-.011-.14L3.6,2.97l.032.151h.011l.1-.032.011-.011Zm.215.947-.065.011-.011-.065h.065ZM3.6,2.852l-.011-.1h.054l.022.1Zm-.226-.42h.054l.011.1H3.382Zm.086-.2.011.086H3.436l-.011-.086Zm-.032-.011-.011-.075h.022l.011.075Zm.129.194H3.511L3.5,2.324h.032Zm.054.215H3.555l-.011-.1h.043Zm-.226-.086h.054l.011.086H3.393Zm.075,0h.054l.022.086H3.468Zm.054-.011H3.458l-.011-.1H3.49Zm.011-.1h.032l.022.086H3.533Zm.022.2.011.086H3.49l-.011-.086Zm.022,0h.043l.022.086H3.576Zm-.043-.323H3.49l-.011-.086H3.5Zm-.054.011.022.086H3.447l-.011-.086Zm-.043.086H3.372l-.011-.086h.054Zm-.032.226h.054l.011.086L3.4,2.733Zm.022.237h.065l.011.1-.065.011Zm0-.022L3.4,2.765h.065l.011.086Zm.075-.1h.065l.022.1H3.5Zm-.011-.613.022.075H3.468l-.011-.075ZM3.393,2H3.4l.032.129H3.415Zm0,.14v.075H3.35V2.141Zm.011.086.011.086H3.361V2.227Zm.108.883-.075.011L3.425,3l.065-.022Zm0-.151L3.5,2.873h.086l.011.065Zm.14.129L3.63,2.97l.054-.011.043.118Z" transform="translate(16.377 11.161)"/>
      <path id="Tracciato_7742" data-name="Tracciato 7742" d="M3.877,2.288h0l.032-.312L3.9,1.966H3.888l-.022.14H3.834l.022-.151-.011-.011H3.8l-.011.011-.022.151H3.737l.043-.151L3.77,1.944l-.011.011-.065.237-.022.1-.032.1-.022.108L3.587,2.6l-.022.086-.032.14L3.511,2.9l-.032.108.011.022.1.022H3.6V3.042l.022-.108.086.011-.022.14.011.011.1.032L3.8,3.117l.043-.506V2.6l.032-.3Zm-.086.657-.065-.011.011-.086H3.8ZM3.544,2.87l.011-.022h.065L3.6,2.913,3.533,2.9Zm.011-.043.032-.108H3.64l-.022.108ZM3.64,2.5l.043.011L3.662,2.6H3.619Zm.022-.075V2.407h.043l-.022.086L3.64,2.482ZM3.694,2.3h.032l-.022.075H3.673Zm.022-.1h.032l-.022.075H3.694l.011-.022Zm.086,0-.011.075H3.748L3.77,2.2ZM3.77,2.192l.011-.065h.032L3.8,2.192Zm.075.183H3.8L3.813,2.3h.043Zm-.065,0H3.737L3.748,2.3H3.78Zm.043.226H3.77l.011-.075h.054Zm-.075,0H3.694l.011-.086h.054Zm0,.022-.011.086L3.673,2.7l.011-.075Zm-.043-.129.022-.086H3.77l-.011.086Zm-.1.129h.054L3.64,2.7H3.587L3.6,2.644Zm.054.1.065.011-.011.1H3.64Zm.1.011h.054l-.011.1H3.748Zm0-.022.011-.086h.054l-.011.086Zm.022-.215.011-.086h.054l-.011.1Zm.075-.215H3.813V2.2h.054Zm.011-.151v.065H3.823l.011-.065Zm-.054-.161h.011l-.011.14H3.791Zm-.054.161-.011.065H3.716l.022-.065Zm-.183.9-.065-.022.022-.086.065.011Zm.054-.118.011-.065h.075l-.011.075ZM3.78,3.1l-.075-.022.022-.118.065.011Z" transform="translate(18.056 10.917)"/>
      <path id="Tracciato_7743" data-name="Tracciato 7743" d="M3.691,1.961,3.67,1.95l-.011.022.043.14H3.681l-.032-.151L3.638,1.95H3.605l-.011.011v.011l.011.14H3.573l-.011-.129-.011-.011-.022.011.032.323v.011l.022.2.011.1.043.506.011.011.1-.022L3.756,3.1l-.022-.14.086-.011.032.14V3.1h.011l.1-.022.011-.011Zm.215.947-.065.011-.011-.065H3.9Zm-.086-.075-.022-.1.054-.011.032.108Zm-.226-.42h.054l.011.1H3.605Zm.086-.194.011.075H3.659l-.011-.075ZM3.648,2.2l-.011-.065h.022L3.67,2.2Zm.118.194H3.734l-.011-.075h.032Zm.054.215H3.778L3.756,2.52H3.8Zm-.215-.065V2.531h.054l.011.075H3.616Zm.075-.011.054-.011.022.086H3.691ZM3.734,2.5l-.054.011-.011-.1h.043Zm0-.086h.043L3.8,2.5H3.756Zm.022.215.022.086H3.7V2.628Zm.032,0h.043l.022.075L3.8,2.714Zm-.043-.334H3.713L3.7,2.219h.022Zm-.054.022.022.075H3.67l-.011-.075Zm-.043.075H3.595l-.011-.075h.054Zm-.032.237H3.67l.011.086H3.627Zm.022.226H3.7l.011.086-.065.011Zm0-.022-.011-.1h.065l.011.1Zm.075-.1h.065l.022.1H3.724Zm-.011-.6.022.065H3.691l-.011-.065Zm-.086-.151h.011l.032.129H3.638Zm0,.151V2.2H3.573V2.133Zm.011.086v.075H3.584V2.219Zm.108.872-.075.022-.011-.14h.065Zm0-.151-.011-.086H3.8l.022.075Zm.14.14-.032-.129.065-.022.032.129Z" transform="translate(18.554 10.976)"/>
      <path id="Tracciato_7744" data-name="Tracciato 7744" d="M4.117,2.191V2.159l.043-.215V1.933l-.022.011-.011.043-.011.065H4.1l.032-.108V1.933H4.063l-.032.118H3.987l.043-.086V1.955H4.009L3.9,2.181l-.032.086-.129.269-.032.086-.054.1L3.622,2.8l-.065.129-.032.086-.065.129-.043.1-.086.194v.022l.183.022h.011l.043-.118h.108l-.022.108.011.011h.194l.022-.129Zm0-.118-.011.032H4.084L4.1,2.073Zm-.043.183H4.031L4.052,2.2h.032Zm-.032.183H3.977L4,2.374h.054ZM4,2.643l-.075-.011.022-.075.075.011Zm-.032.172h-.1l.022-.065h.086Zm-.043.215H3.8l.032-.1h.108Zm-.011.022L3.9,3.138H3.772l.022-.086Zm-.032.183H3.751l.011-.075H3.9Zm-.022.108H3.708l.032-.086h.14Zm-.42-.075.151-.011-.032.086H3.4Zm.1-.237.129.011-.032.1-.14.011Zm.1-.2H3.74L3.718,2.9H3.6Zm.086-.183H3.8l-.022.075h-.1Zm.172-.366h.054l-.032.075H3.848Zm.065-.14H4l-.022.043H3.934Zm.1,0-.022.043H4.009l.011-.043Zm-.022-.032.011-.032h.022l-.011.032Zm.043.032h.032L4.1,2.181H4.063Zm-.086.215H3.944l.022-.075h.043Zm.043-.075h.043l-.022.075H4.009Zm-.108.258H3.869L3.9,2.46h.054Zm.054-.075.054.011-.011.065H3.955Zm-.161.452L3.74,2.9l.022-.075.075.011Zm.043-.075.1.011-.011.065H3.837ZM3.7,3.02l.032-.086H3.8l-.022.1Zm.075.022-.022.1h-.1l.032-.1Zm0-.237.022-.065.075.011-.022.065ZM3.8,2.719l.032-.065h.054l-.022.075Zm.032-.1.032-.065h.054L3.9,2.633Zm.075-.183.022-.065h.043l-.022.065Zm-.032,0H3.815l.022-.065h.075Zm.1-.183L4,2.2h.032l-.022.054ZM3.923,2.2h.043l-.011.054H3.9ZM3.8,2.46H3.88l-.032.075H3.772Zm-.043.1h.075l-.022.065H3.729Zm-.086.183h.1L3.751,2.8H3.643Zm-.086.183.118.011-.032.086-.129-.011Zm-.14.312.032-.065h.14l-.032.065Zm.194-.065.1-.011-.022.075h-.1Zm.334-.441H3.9l.011-.075L4,2.665Zm.108-.775h.022l-.032.1H4.052Zm-.065.118-.011.032H3.966l.011-.032ZM3.514,3.461,3.353,3.44l.032-.075h.161Zm.065-.118.032-.086h.1l-.022.086Zm.258.118H3.675l.032-.1h.151Z" transform="translate(16.612 10.81)"/>
      <path id="Tracciato_7745" data-name="Tracciato 7745" d="M4.185,3.246h0L4.142,3.16l-.065-.14-.054-.108L3.98,2.8l-.032-.075-.054-.1-.022-.054-.065-.151-.032-.065-.054-.129L3.7,2.191l-.032-.075-.011-.011-.065-.14-.022-.011v.022l.032.075H3.571l-.043-.108V1.933H3.485l-.011.011v.011l.032.1H3.485l-.022-.108-.022-.011v.011L3.453,2l.011.065.022.1v.032l.022.108.022.075L3.55,2.5l.011.054.1.5.022.1.022.1.022.118.022.118h.2V3.472l-.032-.108h.118l.032.118h.011l.183-.022.011-.011Zm-.441.1-.022-.086h.14l.032.086Zm-.022-.108L3.711,3.16h.118l.032.075Zm-.065-.291.108-.011.032.1H3.679ZM3.517,2.2H3.55l.011.054H3.528Zm.065-.065.011.043H3.56L3.55,2.137Zm-.043-.022-.011-.043H3.56l.011.043Zm.129.065H3.625L3.6,2.137h.043Zm.086.183H3.69l-.032-.075h.054Zm.075.172H3.754l-.032-.065L3.8,2.46Zm.086.183h-.1L3.8,2.654l.086-.011ZM4,2.9l-.118.011-.022-.075.1-.011Zm.108.248h-.14l-.032-.108h.118Zm-.344-.312h.065l.032.075H3.786Zm0,.075H3.657l-.011-.065.086-.011Zm-.129-.624.022.075H3.614l-.022-.075Zm-.054-.032L3.571,2.2H3.6l.022.054Zm.086.129.022.065H3.646l-.022-.065Zm.032.086.032.065H3.668l-.022-.065Zm.032.086.032.075H3.7l-.022-.065Zm.043.1.022.075H3.733l-.022-.075Zm.032.1.022.065H3.754l-.022-.065Zm.065.183L3.9,3.02l-.086.011-.032-.1Zm.043.108.032.1h-.1l-.022-.086Zm.011-.022-.032-.086.118-.011.043.1Zm-.075-.2-.022-.065.1-.011.022.065Zm.022-.194-.086.011-.022-.075H3.84l.011.022Zm-.151-.183L3.7,2.385h.054l.032.054Zm-.075-.183L3.636,2.2h.043l.022.054Zm-.108-.075H3.507L3.5,2.137h.032Zm-.011.108h.043l.022.075H3.539V2.342Zm.022.1H3.6l.011.065H3.56Zm.011.086h.065l.022.065-.065.011-.011-.054Zm.022.1h.075l.022.065L3.6,2.643Zm.1.086.032.075h-.1L3.6,2.665Zm-.054.108.086-.011.022.065-.1.011Zm.183.291.022.086H3.7L3.69,3.063Zm.054.118h.1l.022.065h-.1Zm.118,0h.14l.022.043.011.032-.14-.011Zm.183.1.043.075H4.045l-.032-.086ZM3.614,2.073l.022.043H3.593l-.011-.043ZM3.5,1.955h.022l.032.1H3.528Zm.011.118.011.043H3.5l-.011-.043Zm.42,1.388H3.765l-.022-.1h.151Zm-.011-.118-.022-.086h.1l.032.086Zm.172.118-.032-.1h.161l.032.075Z" transform="translate(17.695 10.81)"/>
      <path id="Tracciato_7746" data-name="Tracciato 7746" d="M3.434,5.709l-.022-4h.022l.14,4Z" transform="translate(17.409 8.592)" fill="#ffff05"/>
      <path id="Tracciato_7747" data-name="Tracciato 7747" d="M3.444,5.73l-.011-.011V5.709L3.412,1.716l.011-.011h.022l.011.011.14,3.993v.011H3.584Zm-.011-4L3.455,5.7h.118Z" transform="translate(17.402 8.584)"/>
      <path id="Tracciato_7748" data-name="Tracciato 7748" d="M3.375,1.732a.19.19,0,0,0,.065.151.213.213,0,0,0,.269-.022l.075.075a.182.182,0,0,0,.183-.065l.043.065a.139.139,0,0,0,.161-.065l.043.054c.054.011.129-.054.14-.194H3.375" transform="translate(17.041 8.847)" fill="#fff"/>
      <path id="Tracciato_7749" data-name="Tracciato 7749" d="M4.053,1.957H4.01l-.032-.043a.32.32,0,0,1-.194.043l-.075-.065A.227.227,0,0,1,3.44,1.9a.2.2,0,0,1-.065-.161l.979-.011.011.011c-.011.14-.086.2-.129.2l-.065-.054a.149.149,0,0,1-.118.065m-.086-.075h.011l.043.065c.043.022.108-.011.151-.065h.011l.054.054c.043.011.1-.065.118-.194l-.969.011a.183.183,0,0,0,.065.14.213.213,0,0,0,.258-.022h.011l.075.075A.187.187,0,0,0,3.967,1.882Z" transform="translate(17.041 8.838)"/>
      <rect id="Rettangolo_572" data-name="Rettangolo 572" width="1.001" height="0.032" transform="translate(20.395 10.569)"/>
      <path id="Tracciato_7750" data-name="Tracciato 7750" d="M3.45,1.946a.221.221,0,0,0,.14.043.2.2,0,0,0,.151-.065A.124.124,0,0,0,3.827,2a.179.179,0,0,0,.194-.065L4.075,2a.246.246,0,0,0,.183.032.259.259,0,0,0,.172-.248H3.375a.216.216,0,0,0,.075.161" transform="translate(17.041 9.365)" fill="#fff"/>
      <path id="Tracciato_7751" data-name="Tracciato 7751" d="M4.2,2.054a.358.358,0,0,1-.14-.043l-.043-.054a.192.192,0,0,1-.194.054l-.086-.075A.218.218,0,0,1,3.59,2a.221.221,0,0,1-.14-.043.2.2,0,0,1-.075-.172H4.44a.283.283,0,0,1-.183.258L4.2,2.054m-.183-.118h0L4.075,2a.225.225,0,0,0,.183.032A.246.246,0,0,0,4.419,1.8H3.386a.238.238,0,0,0,.065.151.221.221,0,0,0,.14.043.246.246,0,0,0,.151-.065h.011A.129.129,0,0,0,3.827,2a.158.158,0,0,0,.183-.065Z" transform="translate(17.041 9.365)"/>
      <rect id="Rettangolo_573" data-name="Rettangolo 573" width="1.087" height="0.032" transform="translate(20.395 11.128)"/>
      <path id="Tracciato_7752" data-name="Tracciato 7752" d="M3.442,2.019a.221.221,0,0,0,.14.043.255.255,0,0,0,.151-.054.146.146,0,0,0,.086.065.179.179,0,0,0,.194-.065l.054.065a.232.232,0,0,0,.183.032.249.249,0,0,0,.172-.248H3.367a.216.216,0,0,0,.075.161" transform="translate(16.963 10.077)" fill="#fff"/>
      <path id="Tracciato_7753" data-name="Tracciato 7753" d="M4.2,2.127a.253.253,0,0,1-.129-.043L4.013,2.03a.192.192,0,0,1-.194.054l-.086-.065a.243.243,0,0,1-.291.011.2.2,0,0,1-.075-.172H4.432a.259.259,0,0,1-.183.258L4.2,2.127m-.183-.118h.011l.043.065a.225.225,0,0,0,.183.032.26.26,0,0,0,.172-.237H3.378a.213.213,0,0,0,.075.151.168.168,0,0,0,.108.043.312.312,0,0,0,.172-.054V2l.011.011.075.065A.179.179,0,0,0,4.013,2.009Z" transform="translate(16.963 10.077)"/>
      <rect id="Rettangolo_574" data-name="Rettangolo 574" width="1.087" height="0.032" transform="translate(20.309 11.925)"/>
      <path id="Tracciato_7754" data-name="Tracciato 7754" d="M3.446,2.087a.221.221,0,0,0,.14.043.293.293,0,0,0,.151-.054.149.149,0,0,0,.086.065.179.179,0,0,0,.194-.065l.054.065a.2.2,0,0,0,.183.032.249.249,0,0,0,.172-.248H3.371a.216.216,0,0,0,.075.161" transform="translate(17.002 10.741)" fill="#fff"/>
      <path id="Tracciato_7755" data-name="Tracciato 7755" d="M4.2,2.2a.253.253,0,0,1-.129-.043L4.017,2.1a.192.192,0,0,1-.194.054l-.086-.065a.246.246,0,0,1-.151.054.2.2,0,0,1-.215-.215H4.436a.283.283,0,0,1-.183.258L4.2,2.2m-.183-.118h0l.054.065a.225.225,0,0,0,.183.032.272.272,0,0,0,.172-.237H3.382a.238.238,0,0,0,.065.151.225.225,0,0,0,.291-.022h.011a.129.129,0,0,0,.075.075A.179.179,0,0,0,4.017,2.077Z" transform="translate(17.002 10.741)"/>
      <rect id="Rettangolo_575" data-name="Rettangolo 575" width="1.087" height="0.032" transform="translate(20.362 12.657)"/>
      <path id="Tracciato_7756" data-name="Tracciato 7756" d="M3.535,5.719,3.513,1.726l.022-.011.14,4Z" transform="translate(18.392 8.683)" fill="#ffff05"/>
      <path id="Tracciato_7757" data-name="Tracciato 7757" d="M3.544,5.74l-.011-.011-.022-4,.011-.011h.032l.14,4v.011H3.684Zm-.011-4,.022,3.982.118-.011Z" transform="translate(18.379 8.681)"/>
      <path id="Tracciato_7758" data-name="Tracciato 7758" d="M3.471,1.771a.251.251,0,0,0,.075.161.243.243,0,0,0,.291-.011l.086.065a.179.179,0,0,0,.194-.065l.054.065a.136.136,0,0,0,.172-.065l.054.065c.065,0,.14-.065.151-.226-.366.011-.721.011-1.076.011" transform="translate(17.978 9.121)" fill="#fff"/>
      <path id="Tracciato_7759" data-name="Tracciato 7759" d="M4.224,2.008,4.181,2l-.054-.065A.179.179,0,0,1,3.934,2l-.086-.065a.261.261,0,0,1-.291.011.217.217,0,0,1-.086-.172h.011L4.558,1.76v.011c-.011.151-.086.226-.14.226l-.065-.065a.152.152,0,0,1-.129.075m-.1-.086h.011l.043.065a.131.131,0,0,0,.161-.065h.011l.065.065c.043,0,.118-.075.129-.215l-1.055.011a.219.219,0,0,0,.065.151.23.23,0,0,0,.291-.022h.011a.1.1,0,0,0,.075.075A.179.179,0,0,0,4.128,1.921Z" transform="translate(17.978 9.121)"/>
      <rect id="Rettangolo_576" data-name="Rettangolo 576" width="1.098" height="0.032" transform="translate(21.428 10.87)"/>
      <path id="Tracciato_7760" data-name="Tracciato 7760" d="M3.548,2.02A.225.225,0,0,0,3.839,2a.15.15,0,0,0,.086.075.163.163,0,0,0,.194-.065l.054.065a.232.232,0,0,0,.183.032.249.249,0,0,0,.172-.248H3.473a.216.216,0,0,0,.075.161" transform="translate(17.998 10.087)" fill="#fff"/>
      <path id="Tracciato_7761" data-name="Tracciato 7761" d="M4.3,2.138a.253.253,0,0,1-.129-.043L4.129,2.03a.2.2,0,0,1-.2.065l-.075-.075a.225.225,0,0,1-.161.065.2.2,0,0,1-.215-.215V1.858H4.527v.011h.011a.283.283,0,0,1-.183.258L4.3,2.138m-.172-.118h0l.043.065a.225.225,0,0,0,.183.032.275.275,0,0,0,.172-.248L3.494,1.88a.211.211,0,0,0,.054.151.221.221,0,0,0,.14.043.282.282,0,0,0,.161-.065h0a.129.129,0,0,0,.075.075A.2.2,0,0,0,4.129,2.019Z" transform="translate(17.988 10.077)"/>
      <rect id="Rettangolo_577" data-name="Rettangolo 577" width="1.087" height="0.032" transform="translate(21.449 11.925)"/>
      <path id="Tracciato_7762" data-name="Tracciato 7762" d="M3.552,2.1a.221.221,0,0,0,.14.043.293.293,0,0,0,.151-.054.149.149,0,0,0,.086.065.179.179,0,0,0,.194-.065l.054.065a.232.232,0,0,0,.183.032.249.249,0,0,0,.172-.248H3.477a.216.216,0,0,0,.075.161" transform="translate(18.037 10.897)" fill="#fff"/>
      <path id="Tracciato_7763" data-name="Tracciato 7763" d="M4.3,2.211a.253.253,0,0,1-.129-.043l-.043-.043a.242.242,0,0,1-.2.043L3.842,2.1a.243.243,0,0,1-.291.011.215.215,0,0,1-.075-.151V1.942H4.541a.283.283,0,0,1-.183.258L4.3,2.211m-.183-.118h.011l.043.065a.225.225,0,0,0,.183.032.272.272,0,0,0,.172-.237H3.487a.238.238,0,0,0,.065.151.225.225,0,0,0,.291-.022h.011s.032.065.075.075A.179.179,0,0,0,4.122,2.093Z" transform="translate(18.027 10.897)"/>
      <rect id="Rettangolo_578" data-name="Rettangolo 578" width="1.087" height="0.032" transform="translate(21.492 12.818)"/>
      <path id="Tracciato_7764" data-name="Tracciato 7764" d="M3.32,5.563,3.3,1.731H3.32l.129,3.831Z" transform="translate(16.292 8.84)" fill="#ffff05"/>
      <path id="Tracciato_7765" data-name="Tracciato 7765" d="M3.329,5.583H3.319V5.572L3.3,1.741V1.73h.032l.011.011.14,3.831H3.469l-.011.011ZM3.319,1.752l.022,3.81h.108Z" transform="translate(16.28 8.828)"/>
      <path id="Tracciato_7766" data-name="Tracciato 7766" d="M3.257,1.772a.215.215,0,0,0,.075.14A.261.261,0,0,0,3.623,1.9l.075.065A.2.2,0,0,0,3.892,1.9l.054.065A.135.135,0,0,0,4.107,1.9c.032.054.065.054.075.054.043.011.118-.054.129-.194-.355.011-.7.011-1.055.011" transform="translate(15.889 9.13)" fill="#fff"/>
      <path id="Tracciato_7767" data-name="Tracciato 7767" d="M4,1.976H3.956l-.043-.043a.353.353,0,0,1-.2.043l-.086-.065a.261.261,0,0,1-.291.011.272.272,0,0,1-.075-.151h.011l1.055-.011v.011c-.011.14-.086.194-.129.194H4.182l-.065-.054A.149.149,0,0,1,4,1.976M3.9,1.9h0l.054.054A.129.129,0,0,0,4.117,1.9h.011l.054.054h.011c.043,0,.108-.065.118-.183l-1.044.011a.277.277,0,0,0,.075.129.245.245,0,0,0,.28-.022h.011V1.9l.075.054A.192.192,0,0,0,3.9,1.9Z" transform="translate(15.879 9.13)"/>
      <rect id="Rettangolo_579" data-name="Rettangolo 579" width="1.076" height="0.022" transform="translate(19.125 10.891)"/>
      <path id="Tracciato_7768" data-name="Tracciato 7768" d="M3.334,1.97a.206.206,0,0,0,.14.043.293.293,0,0,0,.151-.054l.075.065a.174.174,0,0,0,.194-.065l.054.065a.292.292,0,0,0,.183.032A.256.256,0,0,0,4.3,1.819H3.259a.2.2,0,0,0,.075.151" transform="translate(15.909 9.697)" fill="#fff"/>
      <path id="Tracciato_7769" data-name="Tracciato 7769" d="M4.088,2.076l-.14-.032L3.9,1.979a.179.179,0,0,1-.194.065l-.086-.075a.225.225,0,0,1-.291.022.232.232,0,0,1-.075-.161l.011-.011H4.314v.011a.246.246,0,0,1-.172.237l-.054.011M3.9,1.969h0l.054.065a.277.277,0,0,0,.183.022A.236.236,0,0,0,4.3,1.829H3.27a.2.2,0,0,0,.075.151.179.179,0,0,0,.129.032.221.221,0,0,0,.151-.054h.011l.075.075a.175.175,0,0,0,.183-.065Z" transform="translate(15.909 9.687)"/>
      <rect id="Rettangolo_580" data-name="Rettangolo 580" width="1.076" height="0.032" transform="translate(19.146 11.494)"/>
      <path id="Tracciato_7770" data-name="Tracciato 7770" d="M3.33,2.044a.221.221,0,0,0,.14.043.215.215,0,0,0,.151-.065l.086.075A.179.179,0,0,0,3.9,2.034l.054.065a.28.28,0,0,0,.194.032.259.259,0,0,0,.172-.248H3.255a.192.192,0,0,0,.075.161" transform="translate(15.87 10.321)" fill="#fff"/>
      <path id="Tracciato_7771" data-name="Tracciato 7771" d="M4.093,2.14l-.129-.032-.054-.065a.179.179,0,0,1-.194.065l-.086-.075a.277.277,0,0,1-.151.054.2.2,0,0,1-.14-.032.23.23,0,0,1-.086-.161l.011-.011H4.33v.011a.234.234,0,0,1-.183.237l-.054.011m-.183-.108h.011l.043.065a.3.3,0,0,0,.183.022.223.223,0,0,0,.172-.226H3.276a.179.179,0,0,0,.065.151.2.2,0,0,0,.14.032.246.246,0,0,0,.151-.054h.011l.075.075A.2.2,0,0,0,3.911,2.033Z" transform="translate(15.86 10.312)"/>
      <rect id="Rettangolo_581" data-name="Rettangolo 581" width="1.098" height="0.032" transform="translate(19.103 12.194)"/>
      <path id="Tracciato_7772" data-name="Tracciato 7772" d="M3.338,2.108a.248.248,0,0,0,.151.043A.37.37,0,0,0,3.65,2.1l.1.065A.218.218,0,0,0,3.962,2.1l.054.065a.252.252,0,0,0,.387-.2H3.252a.19.19,0,0,0,.086.151" transform="translate(15.84 11.044)" fill="#fff"/>
      <path id="Tracciato_7773" data-name="Tracciato 7773" d="M4.155,2.214l-.14-.032-.054-.065a.212.212,0,0,1-.215.065L3.66,2.117a.4.4,0,0,1-.172.054.265.265,0,0,1-.151-.043.214.214,0,0,1-.086-.161l.011-.011H4.413v.011a.265.265,0,0,1-.194.248H4.155m-.194-.108h0l.065.065a.241.241,0,0,0,.194.022A.23.23,0,0,0,4.4,1.967H3.273a.167.167,0,0,0,.075.151.2.2,0,0,0,.14.032A.231.231,0,0,0,3.649,2.1H3.66v.011l.086.065A.206.206,0,0,0,3.961,2.107Z" transform="translate(15.831 11.034)"/>
      <rect id="Rettangolo_582" data-name="Rettangolo 582" width="1.184" height="0.032" transform="translate(19.071 12.979)"/>
      <path id="Tracciato_7774" data-name="Tracciato 7774" d="M3.978,2.019l.075.022a.547.547,0,0,0,.4-.118.245.245,0,0,1,.032.194.588.588,0,0,0-.065.194l.022.118a.319.319,0,0,1-.086.291.266.266,0,0,0-.172-.086.476.476,0,0,0-.161.054.543.543,0,0,1-.43-.043l.194-.581a.289.289,0,0,1,.194-.043" transform="translate(19.15 10.702)" fill="#fff"/>
      <path id="Tracciato_7775" data-name="Tracciato 7775" d="M4.376,2.729H4.365a.254.254,0,0,0-.172-.1l-.118.032-.032.011A.524.524,0,0,1,3.6,2.654L3.59,2.643l.194-.581a.282.282,0,0,1,.2-.054l.043.011.043.011a.538.538,0,0,0,.387-.108.25.25,0,0,1,.043.194l-.032.075L4.429,2.3l.022.086.011.043A.349.349,0,0,1,4.376,2.729Zm-.183-.108h0a.306.306,0,0,1,.183.1.4.4,0,0,0,.075-.291L4.44,2.406,4.419,2.3l.043-.118L4.494,2.1a.249.249,0,0,0-.032-.172.617.617,0,0,1-.4.118L4.042,2.04,4,2.03l-.011-.011a.256.256,0,0,0-.194.054l-.183.57a.519.519,0,0,0,.42.032l.032-.022.129-.032" transform="translate(19.14 10.702)"/>
      <path id="Tracciato_7776" data-name="Tracciato 7776" d="M4.392,2.105l-.118.022-.14.065.032-.1a.273.273,0,0,0,0-.161.274.274,0,0,1-.161,0H3.983l-.022.108L3.919,2.2a.3.3,0,0,1-.14.011L3.65,2.2,3.6,2.363l.118.022A.422.422,0,0,0,3.9,2.363l-.022.086L3.8,2.611l.172-.032.065-.032.022-.075.011-.118.14-.043a.459.459,0,0,1,.172,0L4.371,2.2l.022-.1" transform="translate(19.199 10.81)" fill="#ff011f"/>
      <path id="Tracciato_7777" data-name="Tracciato 7777" d="M3.81,2.621h0l.075-.161L3.9,2.384a.5.5,0,0,1-.183.022L3.6,2.384V2.373l.054-.161L3.67,2.2l.118.022.129-.011.043-.161.011-.118h.022l.032.011a.242.242,0,0,0,.151-.011l.011.011a.277.277,0,0,1-.011.161l-.022.086.118-.054L4.391,2.1l.011.011-.022.1.011.086v.022l-.183.011-.129.032a.265.265,0,0,1-.011.129l-.022.065v.011l-.022.011-.032.011-.183.032m.108-.248h0v.011l-.032.086-.065.14.151-.022.054-.022.011-.011.022-.075a.214.214,0,0,0,.011-.118l.011-.011.129-.032.172-.011v-.1l.011-.086-.108.022-.14.065H4.133V2.2l.043-.1a.7.7,0,0,0,0-.151.347.347,0,0,1-.151,0l-.032-.011-.022.108-.043.172H3.918L3.8,2.233H3.789L3.67,2.223l-.065.151.108.022A.7.7,0,0,0,3.918,2.373Z" transform="translate(19.189 10.8)"/>
      <path id="Tracciato_7778" data-name="Tracciato 7778" d="M3.621,2.919H3.61l-.032-.065.3-.893.054-.032.032.054-.3.9-.043.032" transform="translate(19.021 10.769)"/>
      <path id="Tracciato_7779" data-name="Tracciato 7779" d="M3.261,2.009c.129.075.323.194.56.323a4.16,4.16,0,0,0,.764.409,4.182,4.182,0,0,0,1.636.108,1.1,1.1,0,0,1,.194-.28L6.479,2.5c.043-.043.183-.14.517-.086l.043-.108a.35.35,0,0,1,.172-.118A6.717,6.717,0,0,1,8.524,2.16a.145.145,0,0,1,.118.075.157.157,0,0,1,.011.118L8.524,2.4l-.022.14.118.065-.043.151-.032.011a1.555,1.555,0,0,0-.118.28l-.032.043a.182.182,0,0,1-.129.043l-.022.086a.377.377,0,0,1-.129.151.553.553,0,0,0-.248-.022,2.17,2.17,0,0,0-.3.054,2.615,2.615,0,0,1-.355-.043c-.194-.011-.194.043-.441.043a3.434,3.434,0,0,1-.4-.022,3.817,3.817,0,0,0-.387.011l-.194.022c-.129-.011-.151-.054-.269-.075s-.161.043-.344.065a.8.8,0,0,1-.334-.032c-.172-.075-.2-.2-.366-.377a3.313,3.313,0,0,0-.463-.355c-.2-.14-.474-.323-.818-.527-.043-.032-.065-.075-.054-.1s.065-.032.118,0" transform="translate(14.745 11.357)"/>
      <path id="Tracciato_7780" data-name="Tracciato 7780" d="M5.863,2.211l-.108.011-.3.022H5.26l-.226.011L4.8,2.243H4.56l-.248-.022L4.076,2.2l-.215-.032-.194-.022-.291-.054-.108-.022.108.022.291.032.194.032.226.011.226.022h.721l.215-.011.2-.022.291-.022.108-.011.054.032Z" transform="translate(16.006 12.157)" fill="#fb6600"/>
      <path id="Tracciato_7781" data-name="Tracciato 7781" d="M3.449,2.594H3.438l-.011-.032.312-.441.075-.065a.132.132,0,0,1,.108-.011l.312-.011.022.022.032.463-.022.022-.344.043H3.911L3.9,2.561V2.088L3.836,2.1l-.054.043-.312.441Zm.5-.506v.441l.3-.032-.032-.42Z" transform="translate(17.549 11.796)" fill="#fb6600"/>
      <path id="Tracciato_7782" data-name="Tracciato 7782" d="M3.886,3.058a.976.976,0,0,1-.323-.452,1.193,1.193,0,0,1-.054-.269,1.173,1.173,0,0,1,.032-.28l.011-.011,1.367-.032.022.022-.011.011-.075.086-.011.022v.022l-.011.054a.259.259,0,0,0,.075.194v.022L4.8,2.735l-.022.022c-.355.011-.71,0-1.076.011l-.022-.011.011-.032c.377-.011.732,0,1.087-.022l-.022.022.108-.291.011.022a.347.347,0,0,1-.086-.226L4.8,2.165l.011-.032L4.822,2.1l.086-.086.011.043-1.367.011.022-.011a.953.953,0,0,0,0,.549A1.011,1.011,0,0,0,3.886,3.058Z" transform="translate(18.349 11.6)" fill="#fb6600"/>
      <rect id="Rettangolo_583" data-name="Rettangolo 583" width="1.303" height="0.048" transform="translate(21.876 13.932)" fill="#fb6600"/>
      <path id="Tracciato_7783" data-name="Tracciato 7783" d="M3.594,2.017v.161c0,.1.011.226.022.344s.054.248.065.344l.032.161L3.68,2.867,3.6,2.534,3.54,2.178V2.017Z" transform="translate(18.652 11.63)" fill="#fb6600"/>
      <path id="Tracciato_7784" data-name="Tracciato 7784" d="M3.762,2.017l-.011.161a2.147,2.147,0,0,1-.043.344l-.075.344-.043.151.032-.151.065-.344c.022-.129.022-.248.032-.344V2.017Z" transform="translate(19.14 11.63)" fill="#fb6600"/>
      <path id="Tracciato_7785" data-name="Tracciato 7785" d="M3.615,2.016s.011.248.011.506-.011.5-.011.5,0-.248-.011-.5-.032-.506-.032-.506Z" transform="translate(18.964 11.62)" fill="#fb6600"/>
      <path id="Tracciato_7786" data-name="Tracciato 7786" d="M3.294,2.169,3.4,2.116l.075-.022h.065l.054.022.065.022.108.075L3.746,2.2l.129-.043.032-.011.032-.011h.075a.539.539,0,0,1,.258.1H4.252A.43.43,0,0,1,4.5,2.126l.043.011h.032l.065.022.118.075H4.725a.413.413,0,0,1,.269-.1h.065l.075.022a.274.274,0,0,1,.129.086H5.242l.108-.075.065-.022h.032l.032-.011a.5.5,0,0,1,.248.065.484.484,0,0,0-.248-.043H5.457l-.032.011-.065.022-.1.075H5.242L5.124,2.2,5.059,2.18H5.027l-.032-.011a.334.334,0,0,0-.237.1H4.725l-.1-.065L4.564,2.18H4.5a.32.32,0,0,0-.215.086H4.252a.451.451,0,0,0-.237-.086H3.929l-.043.011-.118.043H3.746l-.1-.075L3.6,2.137l-.065-.022H3.412l-.118.054" transform="translate(16.25 12.381)" fill="#00c500"/>
      <path id="Tracciato_7787" data-name="Tracciato 7787" d="M3.267,2.085H3.256l.011-.022A1.115,1.115,0,0,0,3.7,1.73h.022v.022A1.3,1.3,0,0,1,3.267,2.085Z" transform="translate(15.879 8.828)"/>
      <path id="Tracciato_7788" data-name="Tracciato 7788" d="M3.88,2.085H3.869a1.631,1.631,0,0,1-.57-.334V1.73h.022a1.579,1.579,0,0,0,.56.334l.011.011Z" transform="translate(16.299 8.828)"/>
      <path id="Tracciato_7789" data-name="Tracciato 7789" d="M3.85,2.074h0a1.636,1.636,0,0,1-.538-.258L3.3,1.8l.022-.011a1.82,1.82,0,0,0,.527.258l.011.011Z" transform="translate(16.319 9.453)"/>
      <path id="Tracciato_7790" data-name="Tracciato 7790" d="M3.272,2.064l-.011-.011V2.043a2.08,2.08,0,0,0,.4-.248h.022v.011A2.206,2.206,0,0,1,3.272,2.064Z" transform="translate(15.928 9.462)"/>
      <path id="Tracciato_7791" data-name="Tracciato 7791" d="M3.268,2.118l-.011-.011L3.268,2.1a2.546,2.546,0,0,0,.441-.237H3.72v.011A1.882,1.882,0,0,1,3.268,2.118Z" transform="translate(15.889 10.097)"/>
      <path id="Tracciato_7792" data-name="Tracciato 7792" d="M3.778,2.128h0A1.269,1.269,0,0,1,3.3,1.87V1.859h.022a1.088,1.088,0,0,0,.452.248l.011.011Z" transform="translate(16.348 10.087)"/>
      <path id="Tracciato_7793" data-name="Tracciato 7793" d="M3.264,2.2l-.011-.011.011-.011a2.3,2.3,0,0,0,.484-.248h.011v.022A2.128,2.128,0,0,1,3.264,2.2Z" transform="translate(15.85 10.81)"/>
      <path id="Tracciato_7794" data-name="Tracciato 7794" d="M3.834,2.241h0a2.217,2.217,0,0,1-.527-.28V1.94l.011-.011a2.008,2.008,0,0,0,.517.291l.011.011-.011.011" transform="translate(16.377 10.771)"/>
      <path id="Tracciato_7795" data-name="Tracciato 7795" d="M3.387,1.948l-.011-.011.011-.011a1.476,1.476,0,0,0,.377-.215h.022l-.011.022A1.371,1.371,0,0,1,3.387,1.948Z" transform="translate(17.051 8.642)"/>
      <path id="Tracciato_7796" data-name="Tracciato 7796" d="M3.813,1.977h0a2.219,2.219,0,0,1-.4-.248V1.708h.011a2.219,2.219,0,0,0,.4.248v.011Z" transform="translate(17.432 8.613)"/>
      <path id="Tracciato_7797" data-name="Tracciato 7797" d="M3.385,2.03l-.011-.011.011-.011a1.9,1.9,0,0,0,.4-.248h.011v.011a1.409,1.409,0,0,1-.4.258Z" transform="translate(17.031 9.13)"/>
      <path id="Tracciato_7798" data-name="Tracciato 7798" d="M4,2.05H4a2.077,2.077,0,0,1-.57-.258l-.011-.011.011-.022A2.093,2.093,0,0,0,4,2.028l.011.011Z" transform="translate(17.441 9.111)"/>
      <path id="Tracciato_7799" data-name="Tracciato 7799" d="M3.38,2.132l-.011-.011V2.111a2.726,2.726,0,0,0,.474-.28h.011v.022A3.632,3.632,0,0,1,3.38,2.132Z" transform="translate(16.983 9.814)"/>
      <path id="Tracciato_7800" data-name="Tracciato 7800" d="M3.805,2.142H3.784a1.971,1.971,0,0,1-.366-.3V1.83H3.44a1.2,1.2,0,0,0,.366.291v.022Z" transform="translate(17.461 9.804)"/>
      <path id="Tracciato_7801" data-name="Tracciato 7801" d="M3.388,2.221,3.377,2.21,3.388,2.2a1.849,1.849,0,0,0,.377-.3h.011V1.92a1.6,1.6,0,0,1-.377.3Z" transform="translate(17.061 10.468)"/>
      <path id="Tracciato_7802" data-name="Tracciato 7802" d="M3.872,2.25h0a3.04,3.04,0,0,1-.452-.334V1.9h.022a2.071,2.071,0,0,0,.441.334v.011Z" transform="translate(17.48 10.439)"/>
      <path id="Tracciato_7803" data-name="Tracciato 7803" d="M3.488,1.967l-.011-.011V1.945a.926.926,0,0,0,.377-.2h.022v.011A.872.872,0,0,1,3.488,1.967Z" transform="translate(18.037 8.935)"/>
      <path id="Tracciato_7804" data-name="Tracciato 7804" d="M3.979,1.977h0a.971.971,0,0,1-.463-.215V1.751l.011-.011a.982.982,0,0,0,.452.215l.011.011Z" transform="translate(18.418 8.925)"/>
      <path id="Tracciato_7805" data-name="Tracciato 7805" d="M3.484,2.182H3.473V2.161a3.084,3.084,0,0,0,.43-.334h.011v.011a2.1,2.1,0,0,1-.42.344Z" transform="translate(17.998 9.775)"/>
      <path id="Tracciato_7806" data-name="Tracciato 7806" d="M4.036,2.182H4.025a1.326,1.326,0,0,1-.506-.344V1.827h.022a1.3,1.3,0,0,0,.5.334l.011.011Z" transform="translate(18.447 9.775)"/>
      <path id="Tracciato_7807" data-name="Tracciato 7807" d="M3.491,2.2H3.48V2.175a.922.922,0,0,0,.366-.248l.011-.011.011.022A.985.985,0,0,1,3.491,2.2Z" transform="translate(18.066 10.653)"/>
      <path id="Tracciato_7808" data-name="Tracciato 7808" d="M3.985,2.236h0a.986.986,0,0,1-.463-.312V1.913h.011a1.148,1.148,0,0,0,.452.3L4,2.225Z" transform="translate(18.476 10.614)"/>
      <path id="Tracciato_7809" data-name="Tracciato 7809" d="M10.9,2.039a11.85,11.85,0,0,0-7.857,0A25.81,25.81,0,0,0,2.992,5h7.975a27.217,27.217,0,0,0-.065-2.96" transform="translate(13.119 5.301)" fill="#ff0"/>
      <path id="Tracciato_7810" data-name="Tracciato 7810" d="M11.041,2.094l-.054-.054a11.843,11.843,0,0,0-7.9,0l-.054.054C3.023,2.32,2.6,7.507,4,9.864a6.839,6.839,0,0,0,2.97,2.4l.032.011.022-.011a6.579,6.579,0,0,0,3-2.346c1.485-2.292,1.033-7.6,1.012-7.824m-7.63-.022h.011a14.328,14.328,0,0,1,1.41-.366,11.822,11.822,0,0,1,5.338.226c.237.065.484.14.732.226A26.594,26.594,0,0,1,10.966,5H3.131a26.07,26.07,0,0,1,.043-2.841l.237-.086m6.5,7.77a6.411,6.411,0,0,1-2.906,2.282A6.651,6.651,0,0,1,4.121,9.789a10.761,10.761,0,0,1-.99-4.649h7.824a10.247,10.247,0,0,1-1.044,4.7" transform="translate(13.056 5.235)" fill="#fff"/>
      <path id="Tracciato_7811" data-name="Tracciato 7811" d="M3.008,5.049l-.022-.022c-.054-1.614.054-2.949.054-2.97l.011-.022a11.914,11.914,0,0,1,7.878,0l.011.011A25.28,25.28,0,0,1,11,5.028l-.011.022Zm.075-2.97A28.106,28.106,0,0,0,3.03,5.006h7.932A26.635,26.635,0,0,0,10.9,2.079a11.859,11.859,0,0,0-7.813,0" transform="translate(13.103 5.272)"/>
      <path id="Tracciato_7812" data-name="Tracciato 7812" d="M6.96,12.185H6.938A6.833,6.833,0,0,1,4,9.8c-1.4-2.346-.969-7.684-.958-7.738l.011-.022a11.914,11.914,0,0,1,7.878,0l.011.011c.011.065.484,5.521-1,7.8A6.528,6.528,0,0,1,6.96,12.185ZM3.085,2.079c-.022.312-.4,5.424.947,7.684A6.694,6.694,0,0,0,6.96,12.131a6.436,6.436,0,0,0,2.949-2.3c1.431-2.217,1.022-7.426.99-7.749a11.859,11.859,0,0,0-7.813,0" transform="translate(13.101 5.272)"/>
      <path id="Tracciato_7813" data-name="Tracciato 7813" d="M3.211,1.653c.14-.108.355-.022.527-.086l.118-.054a.835.835,0,0,1,.355-.1.472.472,0,0,1,.334.161c.14.151.118.409.258.549a.983.983,0,0,0,.248.161,1.055,1.055,0,0,1,.237.14l.2.172a.98.98,0,0,0,.387.1,1.59,1.59,0,0,0,.549-.054.207.207,0,0,1-.118.161.415.415,0,0,1-.194.065l.151.065a.18.18,0,0,1,.1.118A1.357,1.357,0,0,0,6.063,3a.236.236,0,0,0,.108.1,1.087,1.087,0,0,1,.3.4.446.446,0,0,1,.022.172l-.151-.1-.032-.011-.032.022H6.214l-.043-.054a1.037,1.037,0,0,0-.818-.377l-.086.022a.2.2,0,0,0-.075.14l-.1.3a1.085,1.085,0,0,0-.054.269.3.3,0,0,1,.215.043.221.221,0,0,1,.086.194L5.3,4.182A.164.164,0,0,0,5.17,4.01a.166.166,0,0,0-.183.1.169.169,0,0,0,.054.2l-.1.032a.149.149,0,0,1-.086-.075A.249.249,0,0,1,4.825,4.1a.128.128,0,0,0-.151.022.1.1,0,0,0,0,.151l-.086-.022L4.567,4.16a.2.2,0,0,1,.151-.183.227.227,0,0,0-.194-.065.322.322,0,0,1,.194-.065h.1c.065-.011.1-.086.118-.14l.054-.215-.129-.215-.032-.032h-.1l-.065.086-.043.1L4.589,3.5l-.054.011-.086.1a2,2,0,0,1-.118.2.236.236,0,0,1,.151.2l-.022.086-.032-.065a.163.163,0,0,0-.183-.011.143.143,0,0,0-.065.108l.011.14A.171.171,0,0,1,4.1,4.171a.161.161,0,0,1,.011-.14l.011-.011L4.115,4.01a.167.167,0,0,0-.183.14v.065A.155.155,0,0,1,3.857,4.1l.054-.129a.137.137,0,0,0-.129.022.128.128,0,0,0-.043.118.265.265,0,0,1-.011-.129l.032-.054a.293.293,0,0,1,.258-.1.321.321,0,0,0,.14.011l.054-.054a1.375,1.375,0,0,0,.151-.226l-.054-.011V3.525l.043-.118a.162.162,0,0,0-.022-.172c-.054-.065-.14-.086-.194-.14-.054-.022-.075-.075-.108-.118a1.222,1.222,0,0,1-.161-.248A1.22,1.22,0,0,1,3.8,2.288a2.162,2.162,0,0,0-.011-.269.422.422,0,0,0-.215-.237L3.265,1.7l-.054-.043" transform="translate(15.44 5.762)"/>
      <path id="Tracciato_7814" data-name="Tracciato 7814" d="M3.238,1.57l.108-.032.108.022.108-.022.054-.065.129-.043a.271.271,0,0,1,.161.022.14.14,0,0,1,.086.129.138.138,0,0,1-.118.129.32.32,0,0,1-.194-.043l-.065-.011-.032.054.011.011.1.043.14-.022.086.011a.225.225,0,0,1,.172.118.222.222,0,0,1,.022.183l-.118.183a.7.7,0,0,0-.011.258.564.564,0,0,0,.108.194.66.66,0,0,0,.291.194.883.883,0,0,0,.237.022,1.037,1.037,0,0,0,.258,0,1.291,1.291,0,0,1,.215-.032.291.291,0,0,1,.2.065,1.26,1.26,0,0,0,.269.151l.108.043-.054-.075L5.38,2.9h.129a.292.292,0,0,0,.215-.043v.1l.043.054.108.075.075.108c-.054.022-.086-.086-.14-.065.011.054.086.075.1.14L5.9,3.281l-.011.011-.1-.054a3.068,3.068,0,0,0-.323-.172A1.106,1.106,0,0,0,5.2,2.99a.468.468,0,0,0-.269.032H4.906L4.9,3.012,4.809,3l-.032.1v.075l-.032.054-.1-.054-.065-.108c-.043-.011-.086.011-.129.011a.333.333,0,0,1-.248-.129,1.02,1.02,0,0,1-.215-.215.313.313,0,0,0-.118-.118.519.519,0,0,0-.129,0,.162.162,0,0,1-.118-.129A.446.446,0,0,1,3.6,2.312v-.2l-.011-.183a.388.388,0,0,0-.086-.161L3.464,1.72l-.011-.054L3.5,1.634l-.043-.043a.7.7,0,0,0-.215-.022" transform="translate(15.704 5.856)" fill="#fff"/>
      <path id="Tracciato_7815" data-name="Tracciato 7815" d="M3.455,1.585a.439.439,0,0,0,.194-.054L3.7,1.52l.011.032-.043.032-.14.054L3.5,1.66l.011.022a.553.553,0,0,0,.258-.075h.011l.022.022L3.735,1.7l-.086.043-.011.022.032.022L3.8,1.735a.165.165,0,0,1,.14-.022l-.032.043L3.821,1.8,3.8,1.811l.032.022c.065,0,.118-.065.183-.065l.032.011.011.022.065.043.1.022.032.022-.032.032a2.082,2.082,0,0,1-.441-.032.809.809,0,0,1-.161,0l-.1-.043a.627.627,0,0,1-.161-.118l-.043-.108c.032-.043.108-.032.14-.032" transform="translate(16.455 6.778)" fill="#fff"/>
      <path id="Tracciato_7816" data-name="Tracciato 7816" d="M3.458,1.585a.439.439,0,0,0,.194-.054l.054-.011.011.032-.043.032-.14.054L3.5,1.66l.011.022a.553.553,0,0,0,.258-.075h.011l.022.022L3.738,1.7l-.086.043-.011.022.032.022L3.8,1.735c.043-.022.043.054.022.065L3.8,1.811l.032.022c.065,0,.1.054-.054.054a.809.809,0,0,1-.161,0,.143.143,0,0,1-.1-.065l-.011-.054L3.5,1.735l-.032-.011-.054-.043c-.022-.022-.14-.032-.086-.086a.265.265,0,0,1,.129-.011" transform="translate(16.453 6.778)" fill="#ff0"/>
      <path id="Tracciato_7817" data-name="Tracciato 7817" d="M3.357,1.685l-.022.075L3.325,1.8l.032.022h.011L3.4,1.782l.022-.022h.022v.022l.043-.022c.022-.043.043-.108.086-.129l.011-.022V1.6l-.108.011-.1-.011c-.011,0-.075-.043-.054.011l.011.011.022.065" transform="translate(16.51 7.388)" fill="#fff"/>
      <path id="Tracciato_7818" data-name="Tracciato 7818" d="M3.318,1.735l.032-.108c.011-.054-.065-.118-.032-.172l.065-.032.065.032a.323.323,0,0,1,.129.2,1.212,1.212,0,0,0,.086.237c.032.054.086.108.075.161l.011.086.022.011.022.075.043.075.086-.011.022-.022.065.032.011.054.043-.032.065.054v.1L4.2,2.5l.011-.022.054-.011.043.011.3.194c.043.022.075.054.065.1a.24.24,0,0,1-.14-.065.216.216,0,0,0-.14-.043l-.011.011-.011.022.054.075a.21.21,0,0,1-.172-.043A3.081,3.081,0,0,1,3.8,2.467l-.065-.043L3.7,2.413a.906.906,0,0,0-.291.043l-.054-.011L3.372,2.4l.043-.011.129-.032.043-.043-.054-.022-.108.022-.043.011.011-.065.065-.011.011-.011-.022-.065L3.5,2.133h.065L3.6,2.058l-.032-.086-.129-.14-.043-.065-.075-.032" transform="translate(16.409 5.831)" fill="#fff"/>
      <path id="Tracciato_7819" data-name="Tracciato 7819" d="M3.41,1.512l.011.1L3.5,1.63V1.609l.054-.022.043.011.312.2c.032.022.075.054.054.1a.274.274,0,0,1-.14-.065.134.134,0,0,0-.14-.043L3.669,1.8v.011l.043.086c-.054.022-.108-.011-.161-.043-.151-.1-.2-.3-.14-.344" transform="translate(17.124 6.7)" fill="#ff0"/>
      <path id="Tracciato_7820" data-name="Tracciato 7820" d="M3.326,1.479l-.011.011V1.5l.022.022.011.011.022.011h.054l.011-.011.011-.011-.022-.075-.075-.022-.022.054" transform="translate(16.453 5.854)" fill="#f86600"/>
      <path id="Tracciato_7821" data-name="Tracciato 7821" d="M3.377,1.494V1.483h.011l.043-.022L3.409,1.44l-.043.011-.022.022-.022.043-.011.022.032.032L3.4,1.6l.032.043.011.022.032-.011.011-.022.022-.043.011-.043-.043-.022c-.032,0-.1.022-.1-.032" transform="translate(16.426 5.997)" fill="#f86600"/>
      <path id="Tracciato_7822" data-name="Tracciato 7822" d="M3.36,1.439l.011.011v.011l-.011.011-.022.022-.011-.022V1.439Z" transform="translate(16.575 5.99)" fill="#f86600"/>
      <path id="Tracciato_7823" data-name="Tracciato 7823" d="M3.34,1.519l-.011.011v.054l.1.108.022.043.022-.011L3.48,1.68l-.032-.043-.032-.065V1.551l-.011-.1-.022.022-.043.043" transform="translate(16.592 6.133)" fill="#f86600"/>
      <path id="Tracciato_7824" data-name="Tracciato 7824" d="M3.295,2.122l-.022-.14.011-.022.043-.043.032-.086V1.723l.086-.075.011-.054.011-.043H3.5c.054-.022.065-.075.1-.086l.054.022.022.054v.086l-.043.032-.011.065.022.065-.054.086-.011.065-.075.1c-.022.054.022.14-.054.172s-.118-.032-.151-.086" transform="translate(16.045 6.241)" fill="#ff0"/>
      <path id="Tracciato_7825" data-name="Tracciato 7825" d="M3.284,1.819l.032-.075V1.69l.032-.022.065-.032.054-.054-.011-.075.011-.032.022.011.011.043-.011.043c-.022.065.011.118-.011.161l-.022.022L3.435,1.8l-.054.1-.075.022-.022-.1" transform="translate(16.153 6.338)" fill="#f86600"/>
      <path id="Tracciato_7826" data-name="Tracciato 7826" d="M3.3,1.663a.185.185,0,0,1-.022-.129l.011-.011.032-.011.032.011v.022l-.011.011v.022l.022.011h.011V1.6l-.022.011L3.33,1.62l.011.011h.086L3.4,1.663l-.032.011.011.011.054.032-.011.032-.011.011-.032-.011-.022-.022L3.3,1.663" transform="translate(16.032 6.7)"/>
      <path id="Tracciato_7827" data-name="Tracciato 7827" d="M3.372,1.533,3.4,1.522l.011-.032.032.022-.032.043L3.394,1.6l.022-.022V1.6l-.043.022-.011.022.011.011-.022.011v.043l-.022.022-.043-.011V1.684h.022l.022-.022V1.652l.011-.011V1.609l.032-.075" transform="translate(16.172 6.487)"/>
      <path id="Tracciato_7828" data-name="Tracciato 7828" d="M3.478,1.527a.1.1,0,1,1-.1-.1.1.1,0,0,1,.1.1" transform="translate(16.153 5.899)"/>
      <path id="Tracciato_7829" data-name="Tracciato 7829" d="M3.3,1.5l.022.022.075.011.022-.043L3.4,1.481,3.362,1.5,3.3,1.459l-.011-.022V1.47Z" transform="translate(16.174 5.975)" fill="#fff"/>
      <path id="Tracciato_7830" data-name="Tracciato 7830" d="M3.377,1.649l-.022-.011L3.3,1.616,3.28,1.584l.032-.032.043-.011.043.011.011.043.011.054.011.032v.032l.011.011v.011H3.4l-.022-.086" transform="translate(16.114 6.983)" fill="#f86600"/>
      <path id="Tracciato_7831" data-name="Tracciato 7831" d="M3.332,1.679l.032.011V1.7l.011-.011H3.4l.022.065h.032l.065.022L3.58,1.8l-.022-.054L3.5,1.722,3.483,1.7V1.679L3.5,1.658l-.022-.011H3.44l.011-.022.032-.011-.054-.032-.011.011-.032-.022.032-.022h.065l.022.011v.022l.011.022h.054l.011.032-.011.011.011.022h.065l-.022.054.043.022.043.011-.022.032.043.022-.011.054H3.687c-.065,0-.129-.043-.194-.043H3.4l-.086-.054c-.011-.022-.022-.075.022-.086" transform="translate(16.32 7.071)" fill="#f86600"/>
      <path id="Tracciato_7832" data-name="Tracciato 7832" d="M3.336,1.609l-.022-.032a.41.41,0,0,1,.194.032.3.3,0,0,0,.194,0l.043-.022h.011V1.62l-.043.022a.392.392,0,0,1-.377-.032" transform="translate(16.446 7.302)" fill="#ff0"/>
    </g>
  </g>
</svg>
