<svg xmlns="http://www.w3.org/2000/svg" xmlns:xlink="http://www.w3.org/1999/xlink" width="24" height="23.989" viewBox="0 0 24 23.989">
  <defs>
    <clipPath id="clip-path">
      <path id="Tracciato_7851" data-name="Tracciato 7851" d="M.095,12.744A12,12,0,1,0,12.09.749,12,12,0,0,0,.095,12.744" transform="translate(-0.095 -0.749)" fill="none"/>
    </clipPath>
  </defs>
  <g id="Singapore" transform="translate(-0.095 -0.749)">
    <g id="Raggruppa_235" data-name="Raggruppa 235" transform="translate(0.095 0.749)" clip-path="url(#clip-path)">
      <rect id="Rettangolo_593" data-name="Rettangolo 593" width="35.984" height="23.989" transform="translate(-1.022 0)" fill="#ed2932"/>
      <rect id="Rettangolo_594" data-name="Rettangolo 594" width="35.984" height="11.995" transform="translate(-1.022 11.995)" fill="#fff"/>
      <g id="Raggruppa_236" data-name="Raggruppa 236" transform="translate(2)">
        <path id="Tracciato_7845" data-name="Tracciato 7845" d="M2.236,5.387a4.283,4.283,0,0,1,4-4.271,4.5,4.5,0,1,0-1.42,8.767,4.461,4.461,0,0,0,1.42-.226,4.283,4.283,0,0,1-4-4.271" transform="translate(2.003 0.627)" fill="#fff"/>
        <path id="Tracciato_7846" data-name="Tracciato 7846" d="M1.864.97,2.1,1.7h.775l-.624.463.237.732-.624-.452L1.24,2.9l.237-.732L.853,1.7h.775Z" transform="translate(7.302 1.408)" fill="#fff"/>
        <path id="Tracciato_7847" data-name="Tracciato 7847" d="M1.641,1.136l.237.732h.775l-.624.463.237.732-.624-.452-.624.452.237-.732L.629,1.867H1.4Z" transform="translate(5.12 3.023)" fill="#fff"/>
        <path id="Tracciato_7848" data-name="Tracciato 7848" d="M2.087,1.136l.237.732H3.1l-.624.463.237.732-.624-.452-.624.452L1.7,2.33l-.624-.463H1.85Z" transform="translate(9.472 3.023)" fill="#fff"/>
        <path id="Tracciato_7849" data-name="Tracciato 7849" d="M2,1.4l.237.732h.775L2.392,2.6l.237.732L2,2.875l-.624.452L1.617,2.6.993,2.133h.775Z" transform="translate(8.67 5.618)" fill="#fff"/>
        <path id="Tracciato_7850" data-name="Tracciato 7850" d="M1.725,1.4l.237.732h.775L2.112,2.6l.237.732-.624-.452L1.1,3.327,1.338,2.6.714,2.133h.775Z" transform="translate(5.945 5.618)" fill="#fff"/>
      </g>
    </g>
  </g>
</svg>
