<svg xmlns="http://www.w3.org/2000/svg" xmlns:xlink="http://www.w3.org/1999/xlink" width="24" height="23.989" viewBox="0 0 24 23.989">
  <defs>
    <clipPath id="clip-path">
      <path id="Tracciato_7865" data-name="Tracciato 7865" d="M.446,12.744A12,12,0,1,0,12.441.749,12,12,0,0,0,.446,12.744" transform="translate(-0.446 -0.749)" fill="none"/>
    </clipPath>
  </defs>
  <g id="Slovenia" transform="translate(-0.446 -0.749)">
    <g id="Raggruppa_238" data-name="Raggruppa 238" transform="translate(0.446 0.749)" clip-path="url(#clip-path)">
      <rect id="Rettangolo_598" data-name="Rettangolo 598" width="48.043" height="24.022" transform="translate(-4.798 -0.011)" fill="#fff"/>
      <rect id="Rettangolo_599" data-name="Rettangolo 599" width="48.043" height="16.018" transform="translate(-4.798 7.993)" fill="#005da4"/>
      <rect id="Rettangolo_600" data-name="Rettangolo 600" width="48.043" height="8.036" transform="translate(-4.798 15.975)" fill="#ed1c24"/>
      <path id="Tracciato_7857" data-name="Tracciato 7857" d="M3.859,9.029c3.13-1.452,2.679-2.808,3.023-7.24a7.158,7.158,0,0,0-6.046,0C1.18,6.221.728,7.577,3.859,9.029" transform="translate(3.359 2.869)" fill="#005da4"/>
      <path id="Tracciato_7858" data-name="Tracciato 7858" d="M1.082,1.176c.043.613.075,1.312.108,1.807C1.362,6,1.426,7.136,3.976,8.33,6.515,7.136,6.579,6,6.751,2.983c.032-.495.065-1.194.108-1.807l.258.118-.108,1.7C6.837,6.06,6.762,7.319,4.03,8.6l-.054.022L3.922,8.6C1.179,7.319,1.1,6.06.932,2.994.91,2.478.878,1.951.824,1.305a1.446,1.446,0,0,1,.258-.129" transform="translate(3.242 3.417)" fill="#ed1c24"/>
      <path id="Tracciato_7859" data-name="Tracciato 7859" d="M1.3,1.149l-.086.183-.2-.032.108.172-.108.172.2-.011.086.183.075-.183.215.011-.118-.161.118-.172-.215.022Z" transform="translate(5.094 3.158)" fill="#ffe200"/>
      <path id="Tracciato_7860" data-name="Tracciato 7860" d="M1.468,1.149l-.086.183L1.167,1.3l.118.172-.118.172.215-.011.086.183.075-.183.2.011-.118-.161.118-.172-.2.022Z" transform="translate(6.585 3.158)" fill="#ffe200"/>
      <path id="Tracciato_7861" data-name="Tracciato 7861" d="M1.391,1.251,1.3,1.434,1.09,1.4l.118.183-.118.161L1.3,1.735l.086.183.075-.183.2.011-.108-.161.108-.161-.2.011Z" transform="translate(5.834 4.152)" fill="#ffe200"/>
      <path id="Tracciato_7862" data-name="Tracciato 7862" d="M1.931,4.432l.129-.054a.891.891,0,0,1,.484-.1,1.432,1.432,0,0,1,.3.108l.194.086a.83.83,0,0,0,.57-.086,1.026,1.026,0,0,1,.441-.108,1.39,1.39,0,0,1,.377.108l.151.065a.786.786,0,0,0,.473.011.665.665,0,0,0,.333-.215,1.347,1.347,0,0,0,.258-.57L4.426,2.14l-.473.6-.7-1.388L2.565,2.743,2.071,2.13c-.4.527-.785,1.054-1.173,1.581a.859.859,0,0,0,.226.527.785.785,0,0,0,.807.194" transform="translate(3.964 5.164)" fill="#fff"/>
      <path id="Tracciato_7863" data-name="Tracciato 7863" d="M1.712,2.059l.129-.054a1,1,0,0,1,.484-.1,1.433,1.433,0,0,1,.3.108l.2.086a.81.81,0,0,0,.559-.086.989.989,0,0,1,.441-.108,1.286,1.286,0,0,1,.377.108l.151.065a.844.844,0,0,0,.463.032,2.776,2.776,0,0,0,.194-.344l-.194.075a1.722,1.722,0,0,1-.247.032.932.932,0,0,1-.344-.065l-.161-.065a1.219,1.219,0,0,0-.3-.1.835.835,0,0,0-.355.1.98.98,0,0,1-.7.086.913.913,0,0,1-.237-.1,1.129,1.129,0,0,0-.247-.086.655.655,0,0,0-.366.086l-.14.054a1.13,1.13,0,0,1-.8-.032l.161.28a.891.891,0,0,0,.624.022" transform="translate(4.247 7.999)" fill="#fff"/>
      <path id="Tracciato_7864" data-name="Tracciato 7864" d="M4.325,1.916a1.212,1.212,0,0,1-.344-.054L3.819,1.8a.7.7,0,0,0-.3-.1.694.694,0,0,0-.355.086.977.977,0,0,1-.7.1,1.556,1.556,0,0,1-.237-.1,1.178,1.178,0,0,0-.247-.1.951.951,0,0,0-.366.086l-.151.065a1.144,1.144,0,0,1-.506.043l.054.065A3.574,3.574,0,0,0,2.658,3.1,3.709,3.709,0,0,0,4.347,1.916Z" transform="translate(4.55 8.422)" fill="#fff"/>
    </g>
  </g>
</svg>
