<svg xmlns="http://www.w3.org/2000/svg" xmlns:xlink="http://www.w3.org/1999/xlink" width="24" height="24" viewBox="0 0 24 24">
  <defs>
    <clipPath id="clip-path">
      <path id="Tracciato_8724" data-name="Tracciato 8724" d="M1.1,12.749a12,12,0,1,0,12-12,12,12,0,0,0-12,12" transform="translate(-1.097 -0.749)" fill="none"/>
    </clipPath>
  </defs>
  <g id="Sri_Lanka" data-name="Sri Lanka" transform="translate(-1.097 -0.749)">
    <g id="Raggruppa_240" data-name="Raggruppa 240" transform="translate(1.097 0.749)" clip-path="url(#clip-path)">
      <rect id="Rettangolo_754" data-name="Rettangolo 754" width="47.623" height="23.806" transform="translate(-11.806 0.097)" fill="#ffce00"/>
      <rect id="Rettangolo_755" data-name="Rettangolo 755" width="26.583" height="19.867" transform="translate(7.243 2.066)" fill="#9c1e3d"/>
      <rect id="Rettangolo_756" data-name="Rettangolo 756" width="15.003" height="19.867" transform="translate(-9.761 2.066)" fill="#ff7300"/>
      <path id="Tracciato_8706" data-name="Tracciato 8706" d="M4.3,4.075a.883.883,0,0,1-.463-.183.965.965,0,0,1-.3-.43l-.323.183a1.236,1.236,0,0,1-.549-.517.47.47,0,0,1-.1-.441A.392.392,0,0,1,2.8,2.515a.6.6,0,0,1,.312.054l.151.075c.032.075-.022.194-.151.312.3-.086.624-.183.969-.258a8.088,8.088,0,0,1,.807-.151.619.619,0,0,0-.237-.269.588.588,0,0,0-.4-.086.6.6,0,0,1,.592-.226.608.608,0,0,1,.463.43.492.492,0,0,0,.366-.732.844.844,0,0,1,.538.194,1.025,1.025,0,0,1,.226.312.416.416,0,0,0,.269-.2.486.486,0,0,0,.011-.42,1.013,1.013,0,0,1,.506.377,1.087,1.087,0,0,1,.129.3.957.957,0,0,0,.484-.065,1.073,1.073,0,0,0,.484-.409.965.965,0,0,1,0,.57.826.826,0,0,1-.366.452,1.3,1.3,0,0,1,.237.506,1.291,1.291,0,0,1-.011.517A.294.294,0,0,0,8,3.839c-.161.108-.172.43,0,.8-.151.054-.194.732.183,1a9.282,9.282,0,0,0,1.711-.075,19.174,19.174,0,0,1,2.777-.527,4.479,4.479,0,0,1,1.787.387A1.224,1.224,0,0,0,14.295,4.3a1.1,1.1,0,0,0-1.033-.441c-.118.032-.151.075-.484.194,0,0-.237.086-.474.151a5.008,5.008,0,0,1-1.614.086,2.853,2.853,0,0,1-1.065-.28A2.233,2.233,0,0,1,9.15,3.7a.878.878,0,0,0-.506.42.813.813,0,0,0-.108.387.79.79,0,0,1-.183-.8.833.833,0,0,1,.387-.452,1.374,1.374,0,0,1-.032-1.044,1.484,1.484,0,0,1,.915-.7,2.97,2.97,0,0,1,1.464-.14,5.559,5.559,0,0,1,1.991.732,12.117,12.117,0,0,1,1.27.764.476.476,0,0,1,.043-.387.39.39,0,0,1,.43-.183.412.412,0,0,1,.215.28.429.429,0,0,1-.086.377.6.6,0,0,1-.5.151,3.77,3.77,0,0,1-1.733-.786.921.921,0,0,0,.118.323.862.862,0,0,0,.194.226,1.29,1.29,0,0,1-.732-.226,1.311,1.311,0,0,1-.474-.613.662.662,0,0,1-.118.43.818.818,0,0,1-.624.355.613.613,0,0,0,.323-.463A.586.586,0,0,0,11.26,1.9a1.03,1.03,0,0,1-.183.517c-.1.129-.226.248-.28.215s.086-.226.043-.474a.7.7,0,0,0-.226-.377c-.043.194-.1.4-.14.6a.758.758,0,0,0-.786-.28.75.75,0,0,0-.527.786.936.936,0,0,1,.947-.237.6.6,0,0,0-.151.42.6.6,0,0,0,.28.452.628.628,0,0,1,.237-.42c.118-.1.3-.161.323-.118.022.022-.1.075-.129.194a.421.421,0,0,0,.086.344.758.758,0,0,0,.613.14,3.763,3.763,0,0,0,.764-.183,3.679,3.679,0,0,1,.85-.075,4.065,4.065,0,0,1,1.248.14,1.61,1.61,0,0,1,.958.517,1.441,1.441,0,0,1,.161,1.184,1.709,1.709,0,0,1-.441.732.954.954,0,0,1,.56.366,1.155,1.155,0,0,1,.118.861,5.715,5.715,0,0,1-.43,1.431c-.323.786-.463.99-.452,1.41a.983.983,0,0,0,.226.689,1.046,1.046,0,0,0,.883.183.91.91,0,0,1-1.076.538.843.843,0,0,0,.161.258.776.776,0,0,0,.258.14.5.5,0,0,0-.237.377.817.817,0,0,0,.065.334c.086.28.129.334.118.441a.464.464,0,0,1-.172.269.6.6,0,0,1-.474.032,1.415,1.415,0,0,1-.538-.215l.022.172.065.14-.883-.065a.439.439,0,0,0,.14-.194.575.575,0,0,0,0-.28.851.851,0,0,1-.312.334.874.874,0,0,1-.635.118l.054-.161a.544.544,0,0,1-.226.118.594.594,0,0,1-.248.043,1.027,1.027,0,0,1,.226-.743.734.734,0,0,1,.484-.312,1.117,1.117,0,0,1,.527.129c.1.054.172.118.258.1a.32.32,0,0,0,.183-.14,1.847,1.847,0,0,0-.075-1.873l-.129-.161c-.28-.3-.463-.334-.775-.635a1.647,1.647,0,0,1-.226-.237c-.183-.215-.2-.291-.3-.377a.877.877,0,0,0-.635-.129,2.3,2.3,0,0,0-1.205.43c-.14.086-.108.086-.291.215a6.354,6.354,0,0,1-.893.5,11.256,11.256,0,0,1-1.5.613,10.038,10.038,0,0,1-1.152.312l.022-.226a3.294,3.294,0,0,0,.732-.786,3.276,3.276,0,0,0,.4-.764,7.764,7.764,0,0,1-.538.721,6.469,6.469,0,0,1-.657.667,2.854,2.854,0,0,1-.075.474,2.549,2.549,0,0,1-.28.7,1.833,1.833,0,0,1,.581-.334,1.735,1.735,0,0,1,.678-.086.813.813,0,0,1-.172.484.946.946,0,0,1-.689.334.774.774,0,0,0-.011.42c.054.172.14.226.14.355a.474.474,0,0,1-.215.366c-.581-.011-1.173-.011-1.754-.011l.065-.258a.894.894,0,0,1-.28.183.9.9,0,0,1-.42.086l.022-.215a.9.9,0,0,1-.291.161.935.935,0,0,1-.42.054.662.662,0,0,0,.118-.151c.1-.151.054-.248.129-.387a.438.438,0,0,1,.226-.215c.129-.075.2-.043.538-.054a1.267,1.267,0,0,0,.42-.054.721.721,0,0,0,.258-.592,3.079,3.079,0,0,0-.172-1.162,8.376,8.376,0,0,1-.161-.85c-.043-.291-.054-.527-.065-.689a6.165,6.165,0,0,0-.043.678,5,5,0,0,0,.054.743,3.539,3.539,0,0,1-.646-.474A2.587,2.587,0,0,1,2.93,8.757,2.132,2.132,0,0,1,3.317,7.2,2.7,2.7,0,0,1,5.05,6.1a.414.414,0,0,1-.086-.183c-.022-.129.054-.183.022-.291s-.172-.215-.237-.194-.032.108-.075.2a.53.53,0,0,1-.366.248.579.579,0,0,0,.151-.226c.043-.14.032-.334-.054-.366-.065-.022-.183.108-.237.2a.65.65,0,0,0-.043.538A.552.552,0,0,1,3.855,5.8a.541.541,0,0,1-.011-.5c-.065.108-.129.226-.215.355a3.409,3.409,0,0,1-.334.409,1.078,1.078,0,0,0,.129-.452,1.305,1.305,0,0,0-.011-.3.652.652,0,0,1-.183.355.827.827,0,0,1-.624.226.956.956,0,0,0,.258-.452,1.061,1.061,0,0,0-.237-.872,2.16,2.16,0,0,0,.678.194,2.136,2.136,0,0,0,.743-.086c0,.108,0,.215-.011.334a1.474,1.474,0,0,1,.657-.1,1.774,1.774,0,0,1,.635.172.93.93,0,0,0-.075-.517,1.47,1.47,0,0,0-.387-.387,3.877,3.877,0,0,1-.549-.56.769.769,0,0,0-.054.226.629.629,0,0,0,.032.226" transform="translate(12.956 5.03)" fill="#ffce00"/>
      <path id="Tracciato_8707" data-name="Tracciato 8707" d="M2.541,1.59a5.319,5.319,0,0,0,.969.237,6.5,6.5,0,0,0,.85.086.9.9,0,0,1,.172-.075A.5.5,0,0,1,4.919,2a.637.637,0,0,1,.2.463.919.919,0,0,0-.4-.118.965.965,0,0,0-.57.1.327.327,0,0,0-.011-.3A.33.33,0,0,0,3.983,2.1a1.9,1.9,0,0,0-.581.075.907.907,0,0,1-.678-.215.73.73,0,0,1-.183-.366" transform="translate(13 7.461)" fill="#ffce00"/>
      <path id="Tracciato_8708" data-name="Tracciato 8708" d="M6.181,3.875a3.111,3.111,0,0,0,.28-1.012A.782.782,0,0,0,6.4,2.454.8.8,0,0,0,5.955,2.1a1.249,1.249,0,0,0-.818.054c-.237.075-1.13.344-1.162.829a.826.826,0,0,0,.129.387,2.664,2.664,0,0,0,.441.527,2.316,2.316,0,0,1,.323.474c.065.118.226.549-.194,1.335a1.358,1.358,0,0,0-.667-.151.86.86,0,0,0-.4.086A.913.913,0,0,0,3.243,6a1.275,1.275,0,0,0-.108.334.913.913,0,0,0,.8-.258L3.921,6.3h.42l.194-.183-.022.161h1.27a5.8,5.8,0,0,0,.409-1.162,4.013,4.013,0,0,0,.086-.474,1.207,1.207,0,0,0,.43-.258,1.059,1.059,0,0,0,.344-.56,3.546,3.546,0,0,1-.463.237c-.226.1-.409.172-.474.108-.032-.043.011-.14.065-.291" transform="translate(18.799 12.021)" fill="#ffce00"/>
      <path id="Tracciato_8709" data-name="Tracciato 8709" d="M2.644,1.966c.172-.108.506.065.7.269a.927.927,0,0,1,.183.28c.248.474.183.592.355.893a3.09,3.09,0,0,0,.538.624,1.233,1.233,0,0,1,.323.42.547.547,0,0,1,.054.4.483.483,0,0,1-.312.3c-.291.075-.57-.151-.753-.3a2.236,2.236,0,0,1-.474-.581L3.15,4.086a.389.389,0,0,1-.065.291.394.394,0,0,1-.269.151l-.344-.183a.684.684,0,0,0,.312-.366.724.724,0,0,0-.344-.8.2.2,0,0,0,.129-.151.167.167,0,0,0-.118-.2.222.222,0,0,0,.118-.14A.2.2,0,0,0,2.5,2.461.226.226,0,0,0,2.612,2.3a.176.176,0,0,0-.075-.161.333.333,0,0,1,.108-.172" transform="translate(12.014 10.809)" fill="#ffce00"/>
      <path id="Tracciato_8710" data-name="Tracciato 8710" d="M3.5,1.27a23.706,23.706,0,0,0-.839,3.3,23.2,23.2,0,0,0-.344,3.283.952.952,0,0,0,.4.086,1.228,1.228,0,0,0,.613-.118,31.138,31.138,0,0,1-.086-3.25A32.252,32.252,0,0,1,3.5,1.27" transform="translate(10.823 4.337)" fill="#ffce00"/>
      <path id="Tracciato_8711" data-name="Tracciato 8711" d="M2.812,2.149c.14-.108.129-.172.129-.172-.032-.118-.258-.172-.441-.118a.394.394,0,0,0-.258.237.482.482,0,0,0,.14.366c.28.323.732.323,1.625.323a1.228,1.228,0,0,0,.452-.1.522.522,0,0,0,.291-.258.34.34,0,0,0,0-.3.3.3,0,0,0-.3-.161s-.129.022-.161.118a.221.221,0,0,0,.054.237,1.18,1.18,0,0,1-.743.226,1.15,1.15,0,0,1-.786-.4" transform="translate(10.027 9.873)" fill="#ffce00"/>
      <path id="Tracciato_8712" data-name="Tracciato 8712" d="M3.163,2.025a4.768,4.768,0,0,0,.527-.086c.161-.011.226-.011.28.043a.187.187,0,0,1,.054.151c-.011.065-.086.118-.215.172a2.841,2.841,0,0,1-1.173.043.418.418,0,0,1-.2-.054c-.043-.022-.151-.075-.161-.172a.226.226,0,0,1,.075-.151c.032-.022.075-.043.237-.022a2.5,2.5,0,0,1,.3.054,2.606,2.606,0,0,0,.28.022" transform="translate(10.354 10.814)" fill="#ffce00"/>
      <path id="Tracciato_8713" data-name="Tracciato 8713" d="M3.081,2.064c.183-.011.226-.054.474-.075.151-.022.215-.011.258.032a.2.2,0,0,1,.054.14c-.011.065-.086.118-.2.161A2.7,2.7,0,0,1,2.6,2.355a.4.4,0,0,1-.172-.043c-.043-.022-.151-.075-.151-.161a.184.184,0,0,1,.075-.14.352.352,0,0,1,.2-.022c.118.011.172.043.28.054a.864.864,0,0,0,.248.022" transform="translate(10.393 11.249)" fill="#ffce00"/>
      <path id="Tracciato_8714" data-name="Tracciato 8714" d="M3.084,2.095c.183,0,.226-.054.474-.075a.4.4,0,0,1,.258.032.2.2,0,0,1,.054.129c-.011.065-.086.108-.194.151A2.986,2.986,0,0,1,2.6,2.364a.4.4,0,0,1-.172-.043c-.043-.022-.14-.065-.151-.14a.149.149,0,0,1,.075-.129c.022-.022.065-.032.2-.022l.28.043a.864.864,0,0,0,.248.022" transform="translate(10.423 11.616)" fill="#ffce00"/>
      <path id="Tracciato_8715" data-name="Tracciato 8715" d="M3.091,2.128c.183,0,.226-.043.474-.065.14-.022.2-.011.258.032a.119.119,0,0,1,.043.118c-.011.065-.075.108-.194.151A2.918,2.918,0,0,1,2.606,2.4a.346.346,0,0,1-.172-.043c-.043-.011-.151-.065-.151-.14a.131.131,0,0,1,.075-.129.352.352,0,0,1,.2-.022,2.563,2.563,0,0,1,.28.054l.248.011" transform="translate(10.47 11.981)" fill="#ffce00"/>
      <path id="Tracciato_8716" data-name="Tracciato 8716" d="M3.006,2.411a.44.44,0,0,1,.463-.237.417.417,0,0,1,.28.226.476.476,0,0,1,.237-.226.314.314,0,0,1,.28-.011.264.264,0,0,1,.086.269c-.043.129-.183.172-.291.215a.91.91,0,0,1-.474.022A.51.51,0,0,1,3.749,3c-.011.172-.129.237-.1.409a.4.4,0,0,0,.14.215c.075.054.194.1.226.054s-.1-.151-.075-.312a.265.265,0,0,1,.151-.2.378.378,0,0,1,.377.194A.355.355,0,0,1,4.5,3.7c-.022.032-.075.118-.387.172a2.21,2.21,0,0,1-.613.011l.032.183a.567.567,0,0,1,.258.118.324.324,0,0,1,.108.161.368.368,0,0,1-.183.075.5.5,0,0,1-.194-.011.349.349,0,0,1,0,.215.389.389,0,0,1-.1.183.3.3,0,0,1-.14-.129.4.4,0,0,1-.054-.237.255.255,0,0,1-.183.054.3.3,0,0,1-.183-.1.577.577,0,0,1,.161-.172c.075-.054.129-.054.172-.108a.324.324,0,0,0,.065-.248,3.005,3.005,0,0,1-.71,0,.385.385,0,0,1-.226-.1.339.339,0,0,1-.054-.3.436.436,0,0,1,.172-.269c.011,0,.194-.118.323-.022a.265.265,0,0,1,.075.269.34.34,0,0,1-.118.237.44.44,0,0,0,.28-.075.394.394,0,0,0,.151-.269A.492.492,0,0,1,3.049,3a.446.446,0,0,1,.215-.312,1.4,1.4,0,0,1-.506.022.54.54,0,0,1-.366-.151.355.355,0,0,1-.075-.334.348.348,0,0,1,.291-.14.468.468,0,0,1,.4.323" transform="translate(10.264 12.323)" fill="#ffce00"/>
      <path id="Tracciato_8717" data-name="Tracciato 8717" d="M3.031,2.292H2.967c-.2-.054-.237-.312-.248-.387-.011-.151.043-.387.2-.42h.032c.129,0,.237.151.291.237a.423.423,0,0,1,.043.42.328.328,0,0,1-.258.151m-.075-.657c-.043.011-.086.129-.075.258,0,.075.032.215.118.237a.169.169,0,0,0,.161-.075c.043-.075-.022-.194-.054-.258-.054-.1-.118-.161-.151-.161" transform="translate(14.727 6.436)" fill="#9c1e3d"/>
      <path id="Tracciato_8718" data-name="Tracciato 8718" d="M3.96,2.379l-.151-.011a.953.953,0,0,1-.28-.118,3.788,3.788,0,0,1-.775-.527l-.011-.108L2.862,1.6A3.929,3.929,0,0,0,3.6,2.11a.58.58,0,0,0,.237.1l.054.011a1.086,1.086,0,0,1-.258-.549l.054-.075a.208.208,0,0,1,.161,0,.959.959,0,0,1,.355.194l.194.129-.011-.161A.187.187,0,0,1,4.4,1.625a.268.268,0,0,1,.129-.086,1.272,1.272,0,0,1,.5-.032l.118.011.183.022a.311.311,0,0,0,.237-.086h.108l.011.108a.486.486,0,0,1-.355.14,1.486,1.486,0,0,1-.215-.032L5,1.657a1.455,1.455,0,0,0-.43.032L4.541,1.7v.043l.032.28-.032.065-.065.022a1.085,1.085,0,0,1-.366-.194.78.78,0,0,0-.3-.172,1.438,1.438,0,0,0,.312.506l.011.075-.065.043-.108.011" transform="translate(14.982 6.124)" fill="#9c1e3d"/>
      <path id="Tracciato_8719" data-name="Tracciato 8719" d="M3.5,2.815l-.086-.022a1.37,1.37,0,0,1-.624-.56.079.079,0,1,1,.14-.075,1.258,1.258,0,0,0,.538.5A.391.391,0,0,0,3.4,2.47a.628.628,0,0,1-.086-.323l.065-.065a.375.375,0,0,1,.269.1l.011.011c.075.054.129.065.161.054s.065-.065.1-.129a.636.636,0,0,1,.129-.183.364.364,0,0,1,.334,0l.1.054.129.065.032.011.011-.032V1.868l.011-.183a.228.228,0,0,1,.151-.161.3.3,0,0,1,.3.1A.733.733,0,0,0,5.44,1.8l.054-.054a.083.083,0,0,1,.086.075l-.022.086a.16.16,0,0,1-.118.043.69.69,0,0,1-.43-.215c-.075-.065-.118-.086-.151-.075l-.054.065-.011.129.011.161-.022.118a.19.19,0,0,1-.226.065L4.4,2.126,4.31,2.083a.175.175,0,0,0-.172-.022.23.23,0,0,0-.086.129.306.306,0,0,1-.172.194.318.318,0,0,1-.312-.065l-.011-.011-.086-.054.065.14a.626.626,0,0,1,.1.269l-.022.1a.119.119,0,0,1-.108.054" transform="translate(15.353 6.667)" fill="#9c1e3d"/>
      <path id="Tracciato_8720" data-name="Tracciato 8720" d="M4.984,2.48H4.962a.666.666,0,0,1-.3-.441L4.65,2.028,4.64,1.963l-.065-.151a.176.176,0,0,0-.129-.022L4.435,1.8l-.011.011a.52.52,0,0,1-.151.226.291.291,0,0,1-.28.054.38.38,0,0,1-.14-.086l-.1-.065c-.043,0-.1.032-.161.129l-.151.248-.065.065a.283.283,0,0,1-.129.011.821.821,0,0,1-.441-.42l.022-.1A.1.1,0,0,1,2.95,1.9a.679.679,0,0,0,.355.344V2.232l.161-.248c.043-.054.14-.215.3-.2a.38.38,0,0,1,.194.108l.086.065a.149.149,0,0,0,.129-.032.453.453,0,0,0,.1-.151l.043-.075L4.4,1.64a.271.271,0,0,1,.28.065.453.453,0,0,1,.108.215l.011.054.011.011c.043.14.086.291.2.344a.088.088,0,0,1,.043.108l-.075.043" transform="translate(15.626 7.809)" fill="#9c1e3d"/>
      <path id="Tracciato_8721" data-name="Tracciato 8721" d="M4.574,2.693H4.564A.374.374,0,0,1,4.4,2.617a1.135,1.135,0,0,1-.258-.291l-.075-.151a.889.889,0,0,0-.151-.237L3.843,1.9l-.054.054-.011.032L3.714,2.1a.312.312,0,0,1-.387.065L3.2,2.047l-.032-.032L3.035,1.9a.39.39,0,0,0-.065.387.094.094,0,0,1-.054.108.077.077,0,0,1-.1-.054.543.543,0,0,1,.108-.549l.086-.054.075.022a.526.526,0,0,1,.194.151l.043.043.086.086A.132.132,0,0,0,3.584,2l.043-.075.022-.054a.287.287,0,0,1,.161-.14.255.255,0,0,1,.215.086.939.939,0,0,1,.183.291l.075.129A.851.851,0,0,0,4.51,2.5l.065.032L4.639,2.5l.054-.129.032-.14c.022-.043.065-.194.194-.2a.181.181,0,0,1,.14.043.739.739,0,0,1,.2.2l.108.118.032.022.1-.054a1.688,1.688,0,0,1,.441-.344.077.077,0,0,1,.108.032.064.064,0,0,1-.032.1,1.692,1.692,0,0,0-.409.323.278.278,0,0,1-.237.108A.226.226,0,0,1,5.253,2.5L5.145,2.37A.87.87,0,0,0,4.973,2.2L4.94,2.176s-.032.011-.065.1l-.032.14-.075.172a.257.257,0,0,1-.194.108" transform="translate(15.39 8.855)" fill="#9c1e3d"/>
      <path id="Tracciato_8722" data-name="Tracciato 8722" d="M3.317,1.35a1.107,1.107,0,0,0-.85.161,3.784,3.784,0,0,1-.377-.334l-.2-.194L1.821,1.1a1.224,1.224,0,0,1,.506.538l-.022.022a.919.919,0,0,0-.086,1.012c.172.3.5.377,1.022.517a4.914,4.914,0,0,0,1.227.118C4.081,2.5,3.941,1.479,3.317,1.35" transform="translate(5.971 1.545)" fill="#ffce00"/>
      <path id="Tracciato_8723" data-name="Tracciato 8723" d="M3.317,4.491a1.107,1.107,0,0,1-.85-.161,3.784,3.784,0,0,0-.377.334l-.2.183-.065-.108A1.224,1.224,0,0,0,2.327,4.2l-.022-.022a.921.921,0,0,1-.086-1.012c.172-.3.5-.387,1.022-.517a4.914,4.914,0,0,1,1.227-.118c-.387.807-.527,1.83-1.152,1.959" transform="translate(5.971 16.635)" fill="#ffce00"/>
    </g>
  </g>
</svg>
