<svg xmlns="http://www.w3.org/2000/svg" xmlns:xlink="http://www.w3.org/1999/xlink" width="24" height="24" viewBox="0 0 24 24">
  <defs>
    <clipPath id="clip-path">
      <path id="Tracciato_9772" data-name="Tracciato 9772" d="M.062,12.749a12,12,0,1,0,12-12,12,12,0,0,0-12,12" transform="translate(-0.062 -0.749)" fill="none"/>
    </clipPath>
  </defs>
  <g id="Vanuatu" transform="translate(-0.062 -0.749)">
    <g id="Raggruppa_268" data-name="Raggruppa 268" transform="translate(0.062 0.749)" clip-path="url(#clip-path)">
      <rect id="Rettangolo_868" data-name="Rettangolo 868" width="39.853" height="23.903" transform="translate(-0.667 0.054)" fill="#d20b34"/>
      <rect id="Rettangolo_869" data-name="Rettangolo 869" width="39.853" height="11.957" transform="translate(-0.667 12)" fill="#009543"/>
      <path id="Tracciato_9767" data-name="Tracciato 9767" d="M39.853,10.558H19.1L0,.754v23.9l19.189-9.783H39.853Z" transform="translate(-0.671 -0.704)"/>
      <path id="Tracciato_9768" data-name="Tracciato 9768" d="M39.853,10.512H18.726L0,.912V2.375l17.155,8.793L0,20.026V21.5l18.737-9.686H39.853Z" transform="translate(-0.671 0.84)" fill="#fdce06"/>
      <path id="Tracciato_9769" data-name="Tracciato 9769" d="M2.7,1.976l-.011-.011a.194.194,0,0,0-.108-.011L2.5,1.976a.274.274,0,0,1-.151.032l.032-.022.065-.032.108-.065.075-.065.032-.075V1.728l-.011-.022L2.623,1.7A.233.233,0,0,0,2.5,1.8l-.043.054-.086.108-.022.022L2.343,2H2.332l.118-.161.011-.043-.011-.032L2.4,1.782a.3.3,0,0,0-.1.237l-.054.032L2.16,2.1l-.022.022.118-.215.011-.032-.022-.054-.054.032a.335.335,0,0,0-.075.269v.011l-.043.022-.108.086.075-.226V1.965l-.032-.032-.043.032a.428.428,0,0,0-.043.3L1.9,2.288l-.118.086.086-.226.011-.065L1.837,2.04l-.054.043a.451.451,0,0,0-.043.334l-.054.032-.108.1a1.409,1.409,0,0,0,.065-.291l.011-.065-.043-.032L1.557,2.2a.509.509,0,0,0-.022.377v.011L1.514,2.6h.011l-.043.032L1.4,2.718c.032-.108.043-.215.065-.323V2.32l-.054-.043-.054.065a.538.538,0,0,0,0,.409l-.011.011-.011.011-.054.054-.054.054.054-.28V2.525l-.054-.043-.054.065a.6.6,0,0,0,0,.387l-.086.1-.022.032L1.073,2.8l-.011-.075L1,2.7l-.054.065a.538.538,0,0,0,.043.387L.9,3.235l-.022.032L.9,3.009.89,2.923.836,2.891l-.065.065a.561.561,0,0,0,.043.4L.75,3.439l-.022.032.011-.258L.718,3.138.653,3.106.6,3.181a.6.6,0,0,0,.054.387L.61,3.633l-.032.043.011-.269L.578,3.332.5,3.289.46,3.364a.515.515,0,0,0,.065.4L.5,3.784l-.075.129-.075.108.075.054.065-.118.054-.075a.647.647,0,0,0,.43-.14L1,3.709.976,3.676.933,3.666l-.118.043-.086.054a.373.373,0,0,1-.172.086l.011-.011.108-.172.011-.011A.841.841,0,0,0,1.138,3.5l.022-.032-.022-.043H1.095l-.118.043L.89,3.526c-.054.032-.108.086-.172.086V3.6l.022-.022.065-.1.043-.065a.648.648,0,0,0,.441-.108l.022-.022L1.3,3.246l-.054-.011-.118.032-.086.054A.391.391,0,0,1,.858,3.4l.1-.118L1.019,3.2a.666.666,0,0,0,.42-.108l.022-.022L1.45,3.031,1.4,3.02l-.108.032L1.2,3.106a.507.507,0,0,1-.161.065l.086-.108.065-.075a.592.592,0,0,0,.4-.075l.022-.022L1.6,2.848l-.022-.011-.129.032L1.364,2.9a.257.257,0,0,1-.151.054l.1-.1.065-.075a.547.547,0,0,0,.387-.065l.022-.011V2.654L1.74,2.643a.177.177,0,0,0-.108.022l-.086.043-.14.054V2.751l.1-.1.054-.043a.575.575,0,0,0,.355-.043l.022-.022L1.923,2.5l-.032-.011-.1.022-.075.022-.14.054.129-.118.022-.022a.624.624,0,0,0,.344,0L2.1,2.439l.011-.032-.032-.032-.1.011L1.9,2.406a.342.342,0,0,1-.14.022l.14-.118L1.923,2.3a.448.448,0,0,0,.312-.011l.022-.011V2.245l-.032-.011H2.139l-.065.022-.129.032V2.277h.011l.129-.108.043-.032A.346.346,0,0,0,2.4,2.18l.022-.011V2.148L2.4,2.126H2.268l-.108.011H2.149l.022-.022.075-.054L2.3,2.03l.011-.011h.011V2.008a.382.382,0,0,0,.344.032l.022-.011L2.7,1.976" transform="translate(2.769 8.496)" fill="#fdce06"/>
      <path id="Tracciato_9770" data-name="Tracciato 9770" d="M.36,1.966l.032-.022H.478l.075.022A.274.274,0,0,0,.7,2L.672,1.977.608,1.945.5,1.88.425,1.815.392,1.74V1.719L.4,1.7H.446a.189.189,0,0,1,.108.1L.6,1.848l.086.108L.7,1.977H.715l.011.011L.608,1.826.6,1.783l.011-.032H.64a.362.362,0,0,1,.118.258l.065.032L.9,2.1l.011.011L.8,1.9.79,1.869l.022-.054.054.032a.38.38,0,0,1,.075.269v.011l.043.022.108.086-.075-.226V1.955l.032-.032.043.032a.428.428,0,0,1,.043.3l.032.032.108.075-.086-.226-.011-.065.043-.043.054.043a.451.451,0,0,1,.043.334l.054.032.108.1a1.409,1.409,0,0,1-.065-.291L1.4,2.181l.043-.032.054.043a.46.46,0,0,1,.011.377h.011l.022.022H1.533l.043.032.086.086L1.6,2.386V2.31l.054-.043.054.065a.538.538,0,0,1,0,.409l.011.011.011.011.054.054.054.054-.054-.28V2.515l.054-.043.054.065a.6.6,0,0,1,0,.387l.086.1L2,3.053l-.011-.258L2,2.719l.065-.032.054.065a.538.538,0,0,1-.043.387l.075.086.032.032L2.157,3l.011-.086.065-.032.054.065a.561.561,0,0,1-.043.4l.065.086.011.022L2.33,3.2l.011-.075L2.4,3.1l.054.075a.684.684,0,0,1-.054.387l.043.065.022.043V3.4l.011-.075.065-.043.054.075a.515.515,0,0,1-.065.4l.022.022.075.129.075.108-.075.054-.065-.118-.043-.075a.657.657,0,0,1-.441-.14L2.06,3.7l.011-.032.054-.011.118.043.086.054a.373.373,0,0,0,.172.086l-.011-.022-.108-.161-.011-.011a.841.841,0,0,1-.452-.151L1.9,3.473l.022-.054h.043l.118.043.086.054c.054.032.108.086.172.086V3.591L2.319,3.57l-.065-.1-.043-.065A.648.648,0,0,1,1.77,3.3l-.022-.022.022-.043.043-.011.118.032.086.054a.354.354,0,0,0,.172.075L2.1,3.268l-.065-.075a.65.65,0,0,1-.42-.108L1.6,3.064V3.032l.043-.022.129.032.086.054a.507.507,0,0,0,.161.065l-.086-.108-.065-.075A.542.542,0,0,1,1.479,2.9l-.032-.011.011-.054L1.5,2.827l.108.032.086.032a.257.257,0,0,0,.151.054l-.1-.1-.065-.075A.547.547,0,0,1,1.3,2.709l-.032-.032.011-.022.032-.022a.213.213,0,0,1,.118.022l.086.043.14.054V2.741l-.1-.1L1.5,2.6a.575.575,0,0,1-.355-.043l-.022-.022.011-.043.022-.011.108.022.075.022.14.054L1.35,2.461,1.318,2.44a.587.587,0,0,1-.334,0L.963,2.418V2.386l.022-.022.1.011.075.022a.318.318,0,0,0,.14.022L1.156,2.3l-.022-.011a.446.446,0,0,1-.312-.011L.8,2.267V2.246l.032-.022H.92l.065.022.129.032V2.267H1.1L.973,2.16.93,2.127a.346.346,0,0,1-.269.043L.64,2.16V2.138l.011-.022H.79L.9,2.127l.011-.011L.887,2.106.812,2.052.758,2.02H.747L.737,2.009V2a.382.382,0,0,1-.344.032L.371,2.009.36,1.966" transform="translate(2.847 8.506)" fill="#fdce06"/>
      <path id="Tracciato_9771" data-name="Tracciato 9771" d="M2.679,7.285h.043l.118-.011a3.892,3.892,0,0,0,.5-.108,3.865,3.865,0,0,0,.71-.344,4.616,4.616,0,0,0,.377-.3,2.615,2.615,0,0,0,.334-.409l.032-.054L4.82,6l.065-.129L5,5.585a2.939,2.939,0,0,0,.151-.624,2.768,2.768,0,0,0,0-.667l-.075-.355-.129-.312A2.563,2.563,0,0,0,4.756,3.3,2.894,2.894,0,0,0,4.519,3a2.2,2.2,0,0,0-.581-.463l-.086-.054-.086-.032L3.68,2.4l-.1-.022L3.5,2.345l-.1-.032-.1-.022H3.281l-.011-.011H3.26l-.054-.022h-.1l-.1-.022h-.2a2.538,2.538,0,0,0-.4.022,1.936,1.936,0,0,0-.743.269l-.075.054-.086.054L1.43,2.69,1.409,2.7,1.4,2.722l-.032.022-.011.011-.14.14L1.15,2.97,1.1,3.056a2.347,2.347,0,0,0-.366.71L.688,3.96l-.022.086-.011.108L.645,4.24v.194l.011.108a2.214,2.214,0,0,0,.183.743,2,2,0,0,0,.43.592l.032.032.022.022.011.011h0l.075.054.075.054.075.054.151.086.032.022.043.011.075.022a2.441,2.441,0,0,0,.657.161,1.96,1.96,0,0,0,.624-.054,2.529,2.529,0,0,0,.549-.172A2.491,2.491,0,0,0,4.1,5.886l.151-.161.022-.032.043-.054.054-.086a1.81,1.81,0,0,0,.226-.57l.022-.151.011-.054v.054l-.022.151a2.019,2.019,0,0,1-.183.6l-.054.086-.032.043L4.3,5.746a.67.67,0,0,1-.151.194,1.583,1.583,0,0,1-.409.334,2.19,2.19,0,0,1-.56.237,4.145,4.145,0,0,1-.667.1,1.985,1.985,0,0,1-.732-.129,1.106,1.106,0,0,1-.377-.151l-.086-.054-.086-.043-.075-.054L1.15,6.166H1.14l-.011-.011-.022-.022L1.075,6.1a2.156,2.156,0,0,1-.549-.657,2.8,2.8,0,0,1-.291-.861,2.831,2.831,0,0,1,.043-.947,3.164,3.164,0,0,1,.377-.883L.72,2.647.8,2.539l.161-.194.032-.011L1,2.313l.054-.054.1-.075.1-.086.108-.086a3.13,3.13,0,0,1,.936-.387A1.6,1.6,0,0,1,2.8,1.549h.377l.14.022h.118l.129.032.129.022.118.032.129.043.118.043.118.054.118.054a3.387,3.387,0,0,1,.829.581c.118.108.226.237.334.355a4.444,4.444,0,0,1,.269.409,2.773,2.773,0,0,1,.215.441c.054.161.108.323.14.463a4.021,4.021,0,0,1,.075.936A4.116,4.116,0,0,1,6,5.886a2.584,2.584,0,0,1-.129.409L5.8,6.478l-.054.1-.043.1a4.16,4.16,0,0,1-.452.635,3.342,3.342,0,0,1-.506.463,3.275,3.275,0,0,1-.979.549,2.58,2.58,0,0,1-.7.215l-.194.032-.065.011L2.625,7.285h.054Z" transform="translate(1.433 7.061)" fill="#fdce06"/>
    </g>
  </g>
</svg>
