<svg width="40" height="40" viewBox="0 0 40 40" fill="none" xmlns="http://www.w3.org/2000/svg">
<g clip-path="url(#clip0_1728_5067)">
<g filter="url(#filter0_d_1728_5067)">
<path d="M5.06762 11.7748V10.3061C5.06762 9.43402 5.78648 8.72085 6.66548 8.72085H33.3345C34.2135 8.72085 34.9359 9.43402 34.9359 10.3096V28.4319C34.9359 29.304 34.2171 30.0207 33.3345 30.0207H6.66548C5.78648 30.0207 5.06406 29.3075 5.06406 28.4319V20.4917C5.06406 20.2022 4.82562 19.9621 4.53025 19.9621C4.23488 19.9621 4 20.2022 4 20.4917V28.4284C4 29.89 5.19217 31.0728 6.66548 31.0728H33.3345C34.8078 31.0728 36 29.89 36 28.4284V10.3061C36 8.84442 34.8078 7.66168 33.3345 7.66168H6.66548C5.19217 7.66168 4 8.84442 4 10.3061V14.2003C4 14.4898 4.23843 14.7299 4.53381 14.7299H31.0925C31.3843 14.7299 31.6263 14.4933 31.6263 14.2003C31.6263 13.9072 31.3879 13.6707 31.0925 13.6707H5.06762V12.8304M16.7402 26.2077C16.6797 26.1865 16.6157 26.1724 16.548 26.1724H16.4733C16.5231 24.4706 15.6406 22.8678 14.1851 21.9887C15.9715 19.9551 14.6975 16.4916 11.5836 16.601C8.53381 16.707 7.54093 20.0786 9.21708 21.9887C8.28114 22.5536 7.56584 23.4221 7.19573 24.4671C7.09253 24.7566 7.24555 25.0744 7.53737 25.1732C7.82918 25.2756 8.14947 25.1238 8.24911 24.8343C8.60854 23.8175 9.39858 23.0196 10.4128 22.6383C10.8399 22.4794 10.9039 21.9039 10.5196 21.6533C8.86477 20.587 9.29893 17.7838 11.6085 17.7096C14.0463 17.632 14.5979 20.5482 12.8826 21.6533C12.4982 21.9004 12.5623 22.4759 12.9893 22.6383C14.3345 23.1432 15.2349 24.3753 15.3452 25.7522C15.3488 25.8017 15.3665 25.9323 15.4199 25.9605C15.5125 26.0135 15.6584 25.957 15.6548 26.0488" fill="#00AE65"/>
</g>
<g filter="url(#filter1_d_1728_5067)">
<path d="M31.1424 25.2862H15.9004C15.605 25.2862 15.363 25.5227 15.363 25.8122C15.363 26.1018 15.605 26.3383 15.9004 26.3383H31.1424C31.4378 26.3383 31.6798 26.1018 31.6798 25.8122C31.6798 25.5227 31.4413 25.2862 31.1424 25.2862Z" fill="#00AE65"/>
<path d="M19.8506 22.7689H31.1495C31.4413 22.7689 31.6797 22.5324 31.6797 22.2428C31.6797 21.9533 31.4413 21.7168 31.1495 21.7168H19.8506C19.5587 21.7168 19.3203 21.9533 19.3203 22.2428C19.3203 22.5324 19.5587 22.7689 19.8506 22.7689Z" fill="#00AE65"/>
</g>
</g>
<defs>
<filter id="filter0_d_1728_5067" x="0" y="5.66168" width="40" height="31.4111" filterUnits="userSpaceOnUse" color-interpolation-filters="sRGB">
<feFlood flood-opacity="0" result="BackgroundImageFix"/>
<feColorMatrix in="SourceAlpha" type="matrix" values="0 0 0 0 0 0 0 0 0 0 0 0 0 0 0 0 0 0 127 0" result="hardAlpha"/>
<feOffset dy="2"/>
<feGaussianBlur stdDeviation="2"/>
<feColorMatrix type="matrix" values="0 0 0 0 0.0196078 0 0 0 0 0.411765 0 0 0 0 0.435294 0 0 0 0.24 0"/>
<feBlend mode="normal" in2="BackgroundImageFix" result="effect1_dropShadow_1728_5067"/>
<feBlend mode="normal" in="SourceGraphic" in2="effect1_dropShadow_1728_5067" result="shape"/>
</filter>
<filter id="filter1_d_1728_5067" x="11.363" y="19.7168" width="24.3167" height="12.6215" filterUnits="userSpaceOnUse" color-interpolation-filters="sRGB">
<feFlood flood-opacity="0" result="BackgroundImageFix"/>
<feColorMatrix in="SourceAlpha" type="matrix" values="0 0 0 0 0 0 0 0 0 0 0 0 0 0 0 0 0 0 127 0" result="hardAlpha"/>
<feOffset dy="2"/>
<feGaussianBlur stdDeviation="2"/>
<feColorMatrix type="matrix" values="0 0 0 0 0.0196078 0 0 0 0 0.411765 0 0 0 0 0.435294 0 0 0 0.24 0"/>
<feBlend mode="normal" in2="BackgroundImageFix" result="effect1_dropShadow_1728_5067"/>
<feBlend mode="normal" in="SourceGraphic" in2="effect1_dropShadow_1728_5067" result="shape"/>
</filter>
<clipPath id="clip0_1728_5067">
<rect width="32" height="23.4146" fill="white" transform="translate(4 7.66168)"/>
</clipPath>
</defs>
</svg>
