<svg width="40" height="40" viewBox="0 0 40 40" fill="none" xmlns="http://www.w3.org/2000/svg">
<g clip-path="url(#clip0_1728_5091)">
<g filter="url(#filter0_d_1728_5091)">
<path d="M30.3721 7.15683H17.165C16.8453 7.15683 16.5881 7.41663 16.5881 7.73962C16.5881 8.0626 16.8453 8.3224 17.165 8.3224H30.3721C30.6919 8.3224 30.9491 8.58571 30.9491 8.90518V36.2399C30.9491 36.5629 30.6884 36.8227 30.3721 36.8227H9.73082C9.41107 36.8227 9.15388 36.5594 9.15388 36.2399V8.90518C9.15388 8.58571 9.41107 8.3224 9.73082 8.3224C9.84204 8.3224 8.74029 8.59975 25.7531 4.18674C26.1215 4.09195 26.476 4.36929 26.476 4.74494C26.476 5.06793 26.7332 5.32773 27.053 5.32773C27.3727 5.32773 27.6299 5.06793 27.6299 4.74494C27.6299 3.60395 26.5629 2.7719 25.4646 3.05627L9.65089 7.15683C8.73334 7.19896 8 7.96781 8 8.90518V36.2399C8 37.2054 8.77852 37.9883 9.73082 37.9883H30.3686C31.3244 37.9883 32.0995 37.2018 32.0995 36.2399V8.90518C32.1029 7.93973 31.3244 7.15683 30.3721 7.15683Z" fill="#00AE65"/>
<path d="M12.6919 27.0557C12.6919 31.1562 15.9937 34.4914 20.0496 34.4914C24.1056 34.4914 27.4109 31.1562 27.4109 27.0557C27.4109 26.7327 27.1537 26.4729 26.8339 26.4729H23.5043C23.4557 25.03 23.2263 23.6783 22.8336 22.5338C22.7293 22.2284 22.3991 22.0669 22.1002 22.1757C21.7978 22.2811 21.638 22.6146 21.7457 22.9165C22.0933 23.9241 22.3018 25.1704 22.3505 26.4729H17.7523C17.8739 23.1833 19.0209 20.7855 20.0496 20.7855C22.3261 20.7855 24.4184 22.0423 25.5063 24.0645C25.6592 24.3489 26.0102 24.4507 26.2882 24.2997C26.5698 24.1453 26.6706 23.7907 26.5211 23.5098C25.2317 21.112 22.7501 19.6199 20.0496 19.6199C15.9937 19.6199 12.6919 22.9551 12.6919 27.0557ZM22.2288 32.9256C22.9587 31.6969 23.4348 29.8257 23.5078 27.6385H26.2326C26.0067 30.0679 24.408 32.0971 22.2288 32.9256ZM17.8739 21.1857C17.1441 22.4145 16.6679 24.2857 16.5949 26.4729H15.9346C15.6148 26.4729 15.3576 26.7327 15.3576 27.0557C15.3576 27.3787 15.6148 27.6385 15.9346 27.6385H16.5949C16.6332 28.7759 16.7861 29.8748 17.0433 30.8473C17.1267 31.1562 17.443 31.3423 17.7488 31.2616C18.0581 31.1773 18.2389 30.8578 18.1589 30.5489C17.9261 29.6712 17.7871 28.6776 17.7488 27.642H22.3435C22.2219 30.9315 21.0749 33.3294 20.0462 33.3294C16.6227 33.3294 13.8388 30.5173 13.8388 27.0592C13.8458 24.3735 15.5245 22.0774 17.8739 21.1857Z" fill="#00AE65"/>
<path d="M27.63 12.4053C27.63 12.0823 27.3728 11.8225 27.0531 11.8225H13.0501C12.7303 11.8225 12.4731 12.0823 12.4731 12.4053C12.4731 12.7283 12.7303 12.9881 13.0501 12.9881H27.0496C27.3694 12.9881 27.63 12.7248 27.63 12.4053Z" fill="#00AE65"/>
<path d="M24.1649 16.706C24.4846 16.706 24.7418 16.4462 24.7418 16.1232C24.7418 15.8002 24.4846 15.5404 24.1649 15.5404H15.9383C15.6185 15.5404 15.3613 15.8002 15.3613 16.1232C15.3613 16.4462 15.6185 16.706 15.9383 16.706H24.1649Z" fill="#00AE65"/>
</g>
</g>
<defs>
<filter id="filter0_d_1728_5091" x="4" y="1.00015" width="32.0994" height="42.9881" filterUnits="userSpaceOnUse" color-interpolation-filters="sRGB">
<feFlood flood-opacity="0" result="BackgroundImageFix"/>
<feColorMatrix in="SourceAlpha" type="matrix" values="0 0 0 0 0 0 0 0 0 0 0 0 0 0 0 0 0 0 127 0" result="hardAlpha"/>
<feOffset dy="2"/>
<feGaussianBlur stdDeviation="2"/>
<feColorMatrix type="matrix" values="0 0 0 0 0.0196078 0 0 0 0 0.411765 0 0 0 0 0.435294 0 0 0 0.24 0"/>
<feBlend mode="normal" in2="BackgroundImageFix" result="effect1_dropShadow_1728_5091"/>
<feBlend mode="normal" in="SourceGraphic" in2="effect1_dropShadow_1728_5091" result="shape"/>
</filter>
<clipPath id="clip0_1728_5091">
<rect width="24.1029" height="34.9881" fill="white" transform="translate(8 3)"/>
</clipPath>
</defs>
</svg>
