<?xml version="1.0" encoding="utf-8"?>
<!-- Generator: Adobe Illustrator 23.0.2, SVG Export Plug-In . SVG Version: 6.00 Build 0)  -->
<svg version="1.1" id="Layer_1" xmlns="http://www.w3.org/2000/svg" xmlns:xlink="http://www.w3.org/1999/xlink" x="0px" y="0px"
	 viewBox="0 0 16 11.9" style="enable-background:new 0 0 16 11.9;" xml:space="preserve">
<style type="text/css">
	.st0{fill:#43425D;}
</style>
<g id="upload" transform="translate(0 -18.4)">
	<g id="Group_7846" transform="translate(0 18.4)">
		<path class="st0" d="M14.7,4.8c-0.5-0.4-1-0.7-1.7-0.9v0c-0.4-2.5-2.8-4.2-5.3-3.8c-1.4,0.2-2.5,1-3.2,2.2c-0.2,0-0.3,0-0.5,0
			c-1.4,0-2.5,1.1-2.5,2.5c0,0.2,0,0.4,0,0.5C0.5,6,0,7.1,0,8.2c0,0.9,0.3,1.8,1,2.5c0.6,0.7,1.4,1.1,2.4,1.2h9c1-0.1,2-0.5,2.6-1.3
			C16.4,8.9,16.3,6.3,14.7,4.8z M12.2,11H3.4c-1.4-0.2-2.5-1.4-2.5-2.8c0-0.9,0.5-1.8,1.3-2.3c0.2-0.1,0.3-0.3,0.2-0.5
			C2.3,5.2,2.3,5,2.3,4.8c0-0.9,0.7-1.6,1.7-1.6c0.2,0,0.4,0,0.6,0.1C4.7,3.3,5,3.2,5.1,3c0.9-1.9,3.1-2.7,5-1.8
			c1.2,0.6,2,1.7,2.1,3c0,0.2,0.2,0.4,0.4,0.4c1.7,0.3,2.9,2,2.5,3.8C14.8,9.8,13.6,10.9,12.2,11z"/>
	</g>
</g>
<path id="Path_3121" class="st0" d="M8,2.5c-0.4,0-0.7,0.3-0.7,0.7l0,0v3.7c0,0.4,0.3,0.7,0.7,0.7c0.4,0,0.7-0.3,0.7-0.7V3.2
	C8.7,2.9,8.5,2.6,8,2.5L8,2.5z"/>
<circle id="Ellipse_972" class="st0" cx="8" cy="9.1" r="0.7"/>
</svg>
