<svg height="511pt" viewBox="0 0 511.99799 511" width="511pt" xmlns="http://www.w3.org/2000/svg"><path d="m205.4375 207.796875c18.925781-3.503906 33.304688-20.132813 33.304688-40.058594 0-22.464843-18.277344-40.738281-40.742188-40.738281h-2.5625c-21.050781 0-38.175781 17.125-38.175781 38.179688 0 5.519531 4.476562 10 10 10 5.523437 0 10-4.480469 10-10 0-10.023438 8.152343-18.179688 18.175781-18.179688h2.5625c11.4375 0 20.742188 9.304688 20.742188 20.738281 0 11.4375-9.304688 20.738281-20.742188 20.738281-6.925781 0-12.5625 5.636719-12.5625 12.5625v19.542969c0 5.523438 4.480469 10 10 10 5.523438 0 10-4.476562 10-10zm0 0"/><path d="m195.429688 250c-2.628907 0-5.207032 1.070312-7.070313 2.929688-1.859375 1.863281-2.929687 4.441406-2.929687 7.070312 0 2.632812 1.070312 5.210938 2.929687 7.070312 1.871094 1.859376 4.441406 2.929688 7.070313 2.929688 2.640624 0 5.210937-1.070312 7.070312-2.929688 1.871094-1.859374 2.929688-4.4375 2.929688-7.070312 0-2.628906-1.058594-5.207031-2.929688-7.070312-1.859375-1.859376-4.429688-2.929688-7.070312-2.929688zm0 0"/><path d="m111.078125 284.109375c-3.875-3.933594-10.207031-3.980469-14.140625-.101563-3.933594 3.875-3.980469 10.207032-.101562 14.140626l.753906.761718c1.953125 1.953125 4.511718 2.929688 7.070312 2.929688s5.121094-.976563 7.070313-2.929688c3.90625-3.90625 3.90625-10.238281 0-14.140625zm0 0"/><path d="m298.410156 98.089844c-55.367187-55.363282-145.453125-55.363282-200.820312 0-42.917969 42.917968-53.835938 108.363281-27.167969 162.84375 2.425781 4.960937 8.417969 7.015625 13.378906 4.585937 4.960938-2.425781 7.011719-8.417969 4.585938-13.378906-22.914063-46.808594-13.527344-103.03125 23.347656-139.90625 47.566406-47.566406 124.964844-47.570313 172.535156 0 47.566407 47.566406 47.566407 124.964844 0 172.535156-36.089843 36.089844-91.425781 45.898438-137.691406 24.402344-5.007813-2.324219-10.957031-.152344-13.285156 4.859375-2.324219 5.007812-.148438 10.953125 4.859375 13.28125 19.03125 8.839844 39.371094 13.128906 59.582031 13.128906 36.984375 0 73.515625-14.371094 100.675781-41.53125 55.367188-55.367187 55.367188-145.453125 0-200.820312zm0 0"/><path d="m503.214844 439.640625-136.929688-136.929687c18.824219-30.289063 29.71875-66 29.71875-104.210938 0-109.179688-88.824218-198-198.003906-198-109.175781 0-198 88.824219-198 198 0 109.179688 88.824219 198 198 198 38.210938 0 73.917969-10.890625 104.203125-29.710938l136.929687 136.929688c5.851563 5.847656 13.53125 8.773438 21.214844 8.773438s15.363282-2.925782 21.214844-8.773438l21.648438-21.652344c5.667968-5.664062 8.785156-13.199218 8.785156-21.210937.003906-8.015625-3.117188-15.546875-8.78125-21.214844zm-483.214844-241.140625c0-98.148438 79.851562-178 178-178 98.152344 0 178.003906 79.851562 178.003906 178s-79.851562 178-178.003906 178c-98.148438 0-178-79.847656-178-178zm334.691406 120.902344 22.132813 22.132812-35.792969 35.796875-22.136719-22.136719c13.398438-10.359374 25.433594-22.394531 35.796875-35.792968zm134.378906 148.523437-21.652343 21.652344c-3.898438 3.898437-10.242188 3.898437-14.140625 0l-98.105469-98.105469 35.792969-35.792968 98.105468 98.105468c1.886719 1.886719 2.929688 4.398438 2.929688 7.070313s-1.039062 5.179687-2.929688 7.070312zm0 0"/></svg>