<svg width="24" height="25" viewBox="0 0 24 25" fill="none" xmlns="http://www.w3.org/2000/svg">
<path d="M8.65067 2.133L6.34217 7.46029C6.34217 7.46029 5.92783 9.11767 7.99955 11.7221C10.0713 14.3266 17.1838 23.4126 17.1838 23.4126L20.5779 20.4163L9.95289 6.86837C9.95289 6.86837 8.29551 4.61907 8.65067 2.133Z" stroke="#CA5A9D" stroke-width="1.5" stroke-linecap="round" stroke-linejoin="round"/>
<path d="M12.3798 17.286C9.90146 20.4433 7.39408 23.59 7.39408 23.59L4 20.5937L9.47942 13.6161" stroke="#CA5A9D" stroke-width="1.5" stroke-linecap="round" stroke-linejoin="round"/>
<path d="M12.3584 9.93562L14.6249 7.04586C14.6249 7.04586 16.2822 4.79656 15.9271 2.31049L18.2356 7.63778C18.2356 7.63778 18.6499 9.29516 16.5782 11.8996C16.2414 12.3228 15.8312 12.9171 15.2801 13.6162" stroke="#CA5A9D" stroke-width="1.5" stroke-linecap="round" stroke-linejoin="round"/>
<path d="M8.65063 2.13293C8.65063 2.13293 12.5573 -0.530715 15.9313 2.31051" stroke="#CA5A9D" stroke-width="1.5" stroke-miterlimit="10"/>
<path d="M9.24854 5.61469C9.24854 5.61469 12.0424 4.30181 15.4075 5.61469" stroke="#CA5A9D" stroke-width="1.5" stroke-miterlimit="10"/>
</svg>
