<svg id="Raggruppa_29731" data-name="Raggruppa 29731" xmlns="http://www.w3.org/2000/svg" xmlns:xlink="http://www.w3.org/1999/xlink" width="96" height="48.275" viewBox="0 0 96 48.275">
  <defs>
    <style>
      .cls-1 {
        fill: none;
      }

      .cls-2 {
        clip-path: url(#clip-path);
      }

      .cls-3 {
        fill: #fff;
      }

      .cls-4 {
        fill: #00ae65;
      }
    </style>
    <clipPath id="clip-path">
      <rect id="Rettangolo_10940" data-name="Rettangolo 10940" class="cls-1" width="96" height="48.275" transform="translate(0 0)"/>
    </clipPath>
  </defs>
  <g id="Raggruppa_26804" data-name="Raggruppa 26804" class="cls-2" transform="translate(0 0)">
    <path id="Tracciato_85886" data-name="Tracciato 85886" class="cls-3" d="M7.767,23.783v-.048a3.358,3.358,0,0,0,2.747-3.556c0-2.932-2.466-3.863-5.351-3.863H0V31.81H5.092c3.538,0,6.072-1.143,6.072-4.3a3.663,3.663,0,0,0-3.4-3.721M3.231,18.831H4.817c1.649,0,2.462.626,2.462,1.859,0,1.4-.767,2-2.536,2H3.231ZM4.954,29.3H3.231V25.04H5.092c1.934,0,2.745.723,2.745,2.181,0,1.494-1,2.078-2.883,2.078m17.467-4.909c0-3-1.464-4.187-4.56-4.187a6.671,6.671,0,0,0-4.58,1.626l1.349,1.885a4.652,4.652,0,0,1,2.883-1.07c1.373,0,1.837.49,1.837,1.582v.655h-.394c-3,0-6.046,1.042-6.046,4.018a3.114,3.114,0,0,0,3.418,3.187A4.117,4.117,0,0,0,19.513,30.6,6.442,6.442,0,0,0,19.7,31.81h3.048a15.134,15.134,0,0,1-.325-3.349Zm-3.072,4.442a2.674,2.674,0,0,1-2.092,1c-.721,0-1.373-.353-1.373-1.191,0-1.321,1.231-1.859,3.07-1.859h.394Zm12.68-8.63a4.556,4.556,0,0,0-3.608,1.7V20.483H25.4V31.81h3.094V24.2a3.081,3.081,0,0,1,2.327-1.418c1.116,0,1.512.588,1.512,1.721V31.81h3.092V23.877c0-2.118-.928-3.673-3.393-3.673m11.7,9.486c-1.928,0-2.837-1.51-2.837-3.628s.93-3.512,2.769-3.512a4.067,4.067,0,0,1,2.373.675l1-2.116a6.09,6.09,0,0,0-3.464-.906,5.576,5.576,0,0,0-5.956,5.952,5.535,5.535,0,0,0,5.861,5.931,6.112,6.112,0,0,0,3.652-1.024L46.171,29a4.483,4.483,0,0,1-2.444.693m14.188-1.229v-4.07c0-3-1.464-4.187-4.558-4.187a6.663,6.663,0,0,0-4.58,1.626l1.349,1.885A4.621,4.621,0,0,1,53,22.644c1.377,0,1.841.49,1.841,1.582v.655H54.45c-3,0-6.044,1.042-6.044,4.018a3.11,3.11,0,0,0,3.412,3.187A4.115,4.115,0,0,0,55.006,30.6a6.6,6.6,0,0,0,.187,1.209h3.046a15.134,15.134,0,0,1-.325-3.349m-3.07.373a2.683,2.683,0,0,1-2.1,1c-.719,0-1.369-.353-1.369-1.191,0-1.321,1.231-1.859,3.07-1.859h.394Z" transform="translate(0 16.188)"/>
    <path id="Tracciato_85887" data-name="Tracciato 85887" class="cls-4" d="M15.118,11.359V11.3A5.561,5.561,0,0,0,18.16,6.116C18.16,2.5,16.1,0,11.048,0H0V24H11.255c4.921,0,7.881-2.528,7.881-6.974,0-3.032-1.325-5.024-4.018-5.664M5.506,4.707h4.847c1.893,0,2.361.568,2.361,2.389,0,1.7-.861,2.552-2.357,2.552H5.506Zm4.757,14.53H5.506v-5.4h5.08c1.914,0,2.779.733,2.779,2.552,0,2-1.191,2.849-3.1,2.849M84.753,7.425C84.709,2.512,82.053,0,76.593,0H66.357V24h5.5v-8.7h4.054L80.282,24h6.287l-5.777-9.8a7.664,7.664,0,0,0,3.96-6.777m-8.468,3.418H71.873l0-6.136h4.534c2,0,2.665.813,2.665,2.646,0,2.038-.719,3.49-2.793,3.49M50.275,14.015h9.3V9.393h-9.3V4.871H61.26V0H44.767V24H61.76V19.1H50.275ZM89.7,14.57c-1.082,1.062-1.082,4.347,0,5.409s4.411,1.062,5.492,0,1.078-4.347,0-5.409-4.411-1.064-5.492,0m5.492-4.7c1.078-1.066,1.078-4.345,0-5.409s-4.411-1.064-5.492,0-1.082,4.343,0,5.409,4.411,1.064,5.492,0M32.762,0H23.017V24h5.514V4.707H32.89c2.082,0,2.835.791,2.835,3.078,0,3.171-2.6,4.128-4.889,4.086l.922,4.261c6.1,0,9.65-3.46,9.65-8.08C41.408,2.763,39.316,0,32.762,0" transform="translate(0 0)"/>
  </g>
</svg>
