<svg id="Livello_1" data-name="Livello 1" xmlns="http://www.w3.org/2000/svg" viewBox="0 0 140 35"><defs><style>.cls-2{fill:#FFFFFF;}</style></defs><title>bper-logo</title><path id="Fill-2" class="cls-2" d="M110.79314,16.7881H104.375V7.986h6.60158c2.934,0,3.85092,1.10027,3.85092,3.85093,0,2.934-1.10027,4.95118-4.03431,4.95118Zm12.28629-4.95118c0-7.1517-3.85092-10.63589-11.73615-10.63589H96.48972v34.6583H104.375V23.2063H110.243l6.41821,12.653h9.16886l-8.43535-14.12a11.38118,11.38118,0,0,0,5.68469-9.90236ZM47.71135,1.201h-14.12v34.6583h8.06859V7.986h6.23482c2.934,0,4.03429,1.10027,4.03429,4.401,0,3.66755-2.56727,5.86807-6.96834,5.86807H43.31028l1.28364,6.23482h1.467c8.80212,0,13.93669-4.95118,13.93669-11.73614C60.3644,5.23532,57.247,1.201,47.71135,1.201Zm83.06992,20.905c-1.467,1.467-1.467,6.05146,0,7.51848s5.86807,1.467,7.33509,0,1.467-6.05146,0-7.51848c-1.28364-1.467-5.86807-1.467-7.33509,0Zm7.51847-6.60157c1.467-1.467,1.467-6.05146,0-7.51848s-5.86807-1.467-7.33509,0-1.467,6.05146,0,7.51848c1.28365,1.467,5.86808,1.467,7.33509,0ZM15.25358,28.891H8.28523V21.00578h7.33509c2.75066,0,4.03429,1.10027,4.03429,3.66755,0,3.11741-1.65038,4.21768-4.401,4.21768ZM8.28523,7.986h6.96834c2.75066,0,3.48416.7335,3.48416,3.48416,0,2.38391-1.28364,3.66755-3.48416,3.66755H8.28523V7.986Zm13.93669,9.53561h0c2.56727-1.10027,4.401-4.21768,4.401-7.51848,0-5.13457-2.934-8.80212-10.26914-8.80212H.4V35.8593H16.72057c7.1517,0,11.36939-3.66755,11.36939-10.08575,0-4.401-2.01713-7.33506-5.868-8.252Zm50.97889,3.85093H86.58736V14.77093H73.20081V8.16934H89.15463V1.201h-23.839v34.6583H89.88813v-7.1517H73.20078V21.37253Z"/></svg>
