<svg xmlns="http://www.w3.org/2000/svg" xmlns:xlink="http://www.w3.org/1999/xlink" width="129" height="187" viewBox="0 0 129 187">
  <defs>
    <filter id="Rettangolo_12341" x="0" y="0" width="129" height="187" filterUnits="userSpaceOnUse">
      <feOffset dy="3" input="SourceAlpha"/>
      <feGaussianBlur stdDeviation="3" result="blur"/>
      <feFlood flood-opacity="0.161"/>
      <feComposite operator="in" in2="blur"/>
      <feComposite in="SourceGraphic"/>
    </filter>
  </defs>
  <g id="Raggruppa_30763" data-name="Raggruppa 30763" transform="translate(-74.324 -7)">
    <g id="Raggruppa_30762" data-name="Raggruppa 30762" transform="translate(83.324 13)">
      <g transform="matrix(1, 0, 0, 1, -9, -6)" filter="url(#Rettangolo_12341)">
        <rect id="Rettangolo_12341-2" data-name="Rettangolo 12341" width="111" height="169" transform="translate(9 6)" fill="#edf0f0" opacity="0.5"/>
      </g>
    </g>
    <g id="Raggruppa_30802" data-name="Raggruppa 30802" transform="translate(96.325 33.704)">
      <g id="Raggruppa_30782" data-name="Raggruppa 30782" transform="translate(0 0)">
        <g id="Tracciato_86910" data-name="Tracciato 86910" transform="translate(0.059 2.947)" fill="#e1eded">
          <path d="M 77.38961791992188 49.73696136474609 L 5.224615573883057 49.73696136474609 C 3.170862674713135 49.73696136474609 1.500003933906555 48.11137390136719 1.500003933906555 46.1132698059082 L 1.500003933906555 5.123692512512207 C 1.500003933906555 3.12558650970459 3.170862674713135 1.499998331069946 5.224615573883057 1.499998331069946 L 77.38961791992188 1.499998331069946 C 79.44336700439453 1.499998331069946 81.11421203613281 3.12558650970459 81.11421203613281 5.123692512512207 L 81.11421203613281 46.1132698059082 C 81.11421203613281 48.11137390136719 79.44336700439453 49.73696136474609 77.38961791992188 49.73696136474609 Z" stroke="none"/>
          <path d="M 5.224617004394531 3 C 3.997962951660156 3 3 3.952682495117188 3 5.123695373535156 L 3 46.11326599121094 C 3 47.28427886962891 3.997962951660156 48.23696136474609 5.224617004394531 48.23696136474609 L 77.38960266113281 48.23696136474609 C 78.61625671386719 48.23696136474609 79.61421966552734 47.28427886962891 79.61421966552734 46.11326599121094 L 79.61421966552734 5.123695373535156 C 79.61421966552734 3.952682495117188 78.61625671386719 3 77.38960266113281 3 L 5.224617004394531 3 M 5.224617004394531 0 L 77.38960266113281 0 C 80.27508544921875 0 82.61421966552734 2.293960571289062 82.61421966552734 5.123695373535156 L 82.61421966552734 46.11326599121094 C 82.61421966552734 48.94301223754883 80.27508544921875 51.23696136474609 77.38960266113281 51.23696136474609 L 5.224617004394531 51.23696136474609 C 2.339134216308594 51.23696136474609 0 48.94301223754883 0 46.11326599121094 L 0 5.123695373535156 C 0 2.293960571289062 2.339134216308594 0 5.224617004394531 0 Z" stroke="none" fill="#b6ced0"/>
        </g>
        <g id="Raggruppa_30779" data-name="Raggruppa 30779" transform="translate(7.092 14.447)">
          <rect id="Rettangolo_12367" data-name="Rettangolo 12367" width="22.914" height="27.287" rx="2" transform="translate(0 0)" fill="#f7fafa"/>
          <path id="Tracciato_3" data-name="Tracciato 3" d="M12.148,14.5a10.165,10.165,0,0,1,7.139,2.715,9.777,9.777,0,0,1,3,6.059,1.092,1.092,0,0,1-.284.855,1.138,1.138,0,0,1-.838.366H3.128a1.138,1.138,0,0,1-.838-.366,1.092,1.092,0,0,1-.284-.855,9.776,9.776,0,0,1,3-6.059A10.165,10.165,0,0,1,12.148,14.5Z" transform="translate(-0.749 0.335)" fill="#e1eded"/>
          <path id="Tracciato_4" data-name="Tracciato 4" d="M11.647,11.1A5.1,5.1,0,0,1,6.5,6.048a5.148,5.148,0,0,1,10.294,0A5.1,5.1,0,0,1,11.647,11.1Z" transform="translate(-0.248 1.627)" fill="#e1eded"/>
        </g>
        <rect id="Rettangolo_12368" data-name="Rettangolo 12368" width="40.919" height="3.21" transform="translate(34.917 14.446)" fill="#f7fafa"/>
        <rect id="Rettangolo_12371" data-name="Rettangolo 12371" width="27.825" height="1.605" rx="0.803" transform="translate(34.917 35.313)" fill="#f7fafa"/>
        <rect id="Rettangolo_12372" data-name="Rettangolo 12372" width="32.735" height="1.605" rx="0.803" transform="translate(34.917 40.128)" fill="#f7fafa"/>
        <rect id="Rettangolo_12373" data-name="Rettangolo 12373" width="68.743" height="2.14" transform="translate(7.093 44.944)" fill="#f7fafa"/>
        <path id="Rettangolo_12374" data-name="Rettangolo 12374" d="M6,0H76.673a6,6,0,0,1,6,6V9.1a0,0,0,0,1,0,0H0a0,0,0,0,1,0,0V6A6,6,0,0,1,6,0Z" fill="#b6ced0"/>
        <rect id="Rettangolo_12376" data-name="Rettangolo 12376" width="32.189" height="1.605" rx="0.803" transform="translate(34.917 30.498)" fill="#f7fafa"/>
        <rect id="Rettangolo_12377" data-name="Rettangolo 12377" width="34.917" height="1.605" rx="0.803" transform="translate(34.917 26.217)" fill="#f7fafa"/>
      </g>
    </g>
    <g id="Raggruppa_30803" data-name="Raggruppa 30803" transform="translate(96.325 107.18)">
      <g id="Raggruppa_30782-2" data-name="Raggruppa 30782" transform="translate(0 0)">
        <g id="Tracciato_86910-2" data-name="Tracciato 86910" transform="translate(0.059 2.944)" fill="#e1eded">
          <path d="M 77.38961791992188 49.67271041870117 L 5.224615573883057 49.67271041870117 C 3.170862674713135 49.67271041870117 1.500003933906555 48.05000305175781 1.500003933906555 46.05543899536133 L 1.500003933906555 5.117274761199951 C 1.500003933906555 3.122709989547729 3.170862674713135 1.500004172325134 5.224615573883057 1.500004172325134 L 77.38961791992188 1.500004172325134 C 79.44336700439453 1.500004172325134 81.11421203613281 3.122709989547729 81.11421203613281 5.117274761199951 L 81.11421203613281 46.05543899536133 C 81.11421203613281 48.05000305175781 79.44336700439453 49.67271041870117 77.38961791992188 49.67271041870117 Z" stroke="none"/>
          <path d="M 5.224617004394531 2.999996185302734 C 3.997962951660156 2.999996185302734 3 3.949810028076172 3 5.117275238037109 L 3 46.05543518066406 C 3 47.22290420532227 3.997962951660156 48.1727180480957 5.224617004394531 48.1727180480957 L 77.38961791992188 48.1727180480957 C 78.61627197265625 48.1727180480957 79.61421966552734 47.22290420532227 79.61421966552734 46.05543518066406 L 79.61421966552734 5.117275238037109 C 79.61421966552734 3.949810028076172 78.61627197265625 2.999996185302734 77.38961791992188 2.999996185302734 L 5.224617004394531 2.999996185302734 M 5.224617004394531 -3.814697265625e-06 L 77.38961791992188 -3.814697265625e-06 C 80.27508544921875 -3.814697265625e-06 82.61421966552734 2.29107666015625 82.61421966552734 5.117275238037109 L 82.61421966552734 46.05543518066406 C 82.61421966552734 48.88163757324219 80.27508544921875 51.1727180480957 77.38961791992188 51.1727180480957 L 5.224617004394531 51.1727180480957 C 2.339134216308594 51.1727180480957 0 48.88163757324219 0 46.05543518066406 L 0 5.117275238037109 C 0 2.29107666015625 2.339134216308594 -3.814697265625e-06 5.224617004394531 -3.814697265625e-06 Z" stroke="none" fill="#b6ced0"/>
        </g>
        <rect id="Rettangolo_12368-2" data-name="Rettangolo 12368" width="59.197" height="3.206" transform="translate(7.911 14.428)" fill="#f7fafa"/>
        <rect id="Rettangolo_12371-2" data-name="Rettangolo 12371" width="40.965" height="1.603" rx="0.802" transform="translate(7.91 30.446)" fill="#f7fafa"/>
        <rect id="Rettangolo_12373-2" data-name="Rettangolo 12373" width="68.743" height="6.96" transform="translate(6.819 40.065)" fill="#f7fafa"/>
        <path id="Rettangolo_12374-2" data-name="Rettangolo 12374" d="M6,0H76.672a6,6,0,0,1,6,6V9.084a0,0,0,0,1,0,0H0a0,0,0,0,1,0,0V6A6,6,0,0,1,6,0Z" fill="#b6ced0"/>
        <rect id="Rettangolo_12376-2" data-name="Rettangolo 12376" width="32.189" height="1.603" rx="0.802" transform="translate(7.91 25.637)" fill="#f7fafa"/>
        <rect id="Rettangolo_12377-2" data-name="Rettangolo 12377" width="34.917" height="1.603" rx="0.802" transform="translate(7.91 21.362)" fill="#f7fafa"/>
      </g>
    </g>
  </g>
</svg>
