<svg xmlns="http://www.w3.org/2000/svg" width="214" height="165" viewBox="0 0 214 165">
  <g id="Raggruppa_30779" data-name="Raggruppa 30779" transform="translate(0 9.999)">
    <rect id="Rettangolo_12375" data-name="Rettangolo 12375" width="214" height="165" transform="translate(0 -9.999)" fill="#f7fafa" opacity="0"/>
    <g id="Raggruppa_30780" data-name="Raggruppa 30780" transform="translate(33.001 24)">
      <g id="Raggruppa_30782" data-name="Raggruppa 30782" transform="translate(0 0)">
        <g id="Tracciato_86910" data-name="Tracciato 86910" transform="translate(0.105 5.276)" fill="#e1eded">
          <path d="M 138.5419921875 89.72383117675781 L 9.35303783416748 89.72383117675781 C 5.298557281494141 89.72383117675781 1.99999737739563 86.50630950927734 1.99999737739563 82.55145263671875 L 1.99999737739563 9.172391891479492 C 1.99999737739563 5.217531681060791 5.298557281494141 2.000011682510376 9.35303783416748 2.000011682510376 L 138.5419921875 2.000011682510376 C 142.5964813232422 2.000011682510376 145.8950347900391 5.217531681060791 145.8950347900391 9.172391891479492 L 145.8950347900391 82.55145263671875 C 145.8950347900391 86.50630950927734 142.5964813232422 89.72383117675781 138.5419921875 89.72383117675781 Z" stroke="none"/>
          <path d="M 9.353042602539062 4 C 6.4013671875 4 4 6.320327758789062 4 9.172393798828125 L 4 82.55143737792969 C 4 85.40349578857422 6.4013671875 87.72382354736328 9.353042602539062 87.72382354736328 L 138.5419921875 87.72382354736328 C 141.4936676025391 87.72382354736328 143.8950347900391 85.40349578857422 143.8950347900391 82.55143737792969 L 143.8950347900391 9.172393798828125 C 143.8950347900391 6.320327758789062 141.4936676025391 4 138.5419921875 4 L 9.353042602539062 4 M 9.353042602539062 0 L 138.5419921875 0 C 143.7075347900391 0 147.8950347900391 4.106605529785156 147.8950347900391 9.172393798828125 L 147.8950347900391 82.55143737792969 C 147.8950347900391 87.61721801757812 143.7075347900391 91.72382354736328 138.5419921875 91.72382354736328 L 9.353042602539062 91.72382354736328 C 4.1875 91.72382354736328 0 87.61721801757812 0 82.55143737792969 L 0 9.172393798828125 C 0 4.106605529785156 4.1875 0 9.353042602539062 0 Z" stroke="none" fill="#b6ced0"/>
        </g>
        <g id="Raggruppa_30779-2" data-name="Raggruppa 30779" transform="translate(12.697 25.862)">
          <rect id="Rettangolo_12367" data-name="Rettangolo 12367" width="41.021" height="48.849" rx="5" transform="translate(0 0)" fill="#f7fafa"/>
          <path id="Tracciato_3" data-name="Tracciato 3" d="M20.167,14.5a18.2,18.2,0,0,1,12.78,4.86,17.5,17.5,0,0,1,5.376,10.846,1.955,1.955,0,0,1-.508,1.531,2.037,2.037,0,0,1-1.5.655H4.019a2.036,2.036,0,0,1-1.5-.655,1.955,1.955,0,0,1-.508-1.531A17.5,17.5,0,0,1,7.388,19.36,18.2,18.2,0,0,1,20.167,14.5Z" transform="translate(0.239 12.058)" fill="#e1eded"/>
          <path id="Tracciato_4" data-name="Tracciato 4" d="M15.714,19.073A9.137,9.137,0,0,1,6.5,10.037a9.216,9.216,0,0,1,18.429,0A9.137,9.137,0,0,1,15.714,19.073Z" transform="translate(4.692 3.703)" fill="#e1eded"/>
        </g>
        <rect id="Rettangolo_12368" data-name="Rettangolo 12368" width="73.252" height="5.747" transform="translate(62.509 25.861)" fill="#f7fafa"/>
        <rect id="Rettangolo_12371" data-name="Rettangolo 12371" width="49.812" height="2.873" rx="1.437" transform="translate(62.509 63.217)" fill="#f7fafa"/>
        <rect id="Rettangolo_12372" data-name="Rettangolo 12372" width="58.602" height="2.873" rx="1.437" transform="translate(62.509 71.837)" fill="#f7fafa"/>
        <rect id="Rettangolo_12373" data-name="Rettangolo 12373" width="123.064" height="3.831" transform="translate(12.697 80.458)" fill="#f7fafa"/>
        <path id="Rettangolo_12374" data-name="Rettangolo 12374" d="M12,0H136a12,12,0,0,1,12,12v4.283a0,0,0,0,1,0,0H0a0,0,0,0,1,0,0V12A12,12,0,0,1,12,0Z" fill="#b6ced0"/>
        <rect id="Rettangolo_12376" data-name="Rettangolo 12376" width="57.625" height="2.873" rx="1.437" transform="translate(62.509 54.596)" fill="#f7fafa"/>
        <rect id="Rettangolo_12377" data-name="Rettangolo 12377" width="62.509" height="2.873" rx="1.437" transform="translate(62.509 46.934)" fill="#f7fafa"/>
      </g>
    </g>
  </g>
</svg>
