<svg id="Raggruppa_30415" data-name="Raggruppa 30415" xmlns="http://www.w3.org/2000/svg" xmlns:xlink="http://www.w3.org/1999/xlink" width="86" height="86" viewBox="0 0 86 86">
  <defs>
    <clipPath id="clip-path">
      <rect id="Rettangolo_12317" data-name="Rettangolo 12317" width="86" height="86" fill="none"/>
    </clipPath>
    <linearGradient id="linear-gradient" x1="0.5" x2="0.5" y2="1" gradientUnits="objectBoundingBox">
      <stop offset="0" stop-color="#60cc9f"/>
      <stop offset="1" stop-color="#3a888c"/>
    </linearGradient>
    <filter id="Tracciato_86867" x="16.376" y="49.691" width="29.604" height="16.275" filterUnits="userSpaceOnUse">
      <feOffset dy="2" input="SourceAlpha"/>
      <feGaussianBlur stdDeviation="2" result="blur"/>
      <feFlood flood-color="#05696f" flood-opacity="0.239"/>
      <feComposite operator="in" in2="blur"/>
      <feComposite in="SourceGraphic"/>
    </filter>
    <filter id="Tracciato_86868" x="16.376" y="60.381" width="29.604" height="16.275" filterUnits="userSpaceOnUse">
      <feOffset dy="2" input="SourceAlpha"/>
      <feGaussianBlur stdDeviation="2" result="blur-2"/>
      <feFlood flood-color="#05696f" flood-opacity="0.239"/>
      <feComposite operator="in" in2="blur-2"/>
      <feComposite in="SourceGraphic"/>
    </filter>
    <filter id="Tracciato_86869" x="16.033" y="15.841" width="23.995" height="28.756" filterUnits="userSpaceOnUse">
      <feOffset dy="2" input="SourceAlpha"/>
      <feGaussianBlur stdDeviation="2" result="blur-3"/>
      <feFlood flood-color="#05696f" flood-opacity="0.239"/>
      <feComposite operator="in" in2="blur-3"/>
      <feComposite in="SourceGraphic"/>
    </filter>
    <filter id="Tracciato_86870" x="27.608" y="15.759" width="24.027" height="28.584" filterUnits="userSpaceOnUse">
      <feOffset dy="2" input="SourceAlpha"/>
      <feGaussianBlur stdDeviation="2" result="blur-4"/>
      <feFlood flood-color="#05696f" flood-opacity="0.239"/>
      <feComposite operator="in" in2="blur-4"/>
      <feComposite in="SourceGraphic"/>
    </filter>
    <filter id="Tracciato_86871" x="38.501" y="15.646" width="25.346" height="28.947" filterUnits="userSpaceOnUse">
      <feOffset dy="2" input="SourceAlpha"/>
      <feGaussianBlur stdDeviation="2" result="blur-5"/>
      <feFlood flood-color="#05696f" flood-opacity="0.239"/>
      <feComposite operator="in" in2="blur-5"/>
      <feComposite in="SourceGraphic"/>
    </filter>
    <filter id="Tracciato_86872" x="8.432" y="4.801" width="63.297" height="80.398" filterUnits="userSpaceOnUse">
      <feOffset dy="2" input="SourceAlpha"/>
      <feGaussianBlur stdDeviation="2" result="blur-6"/>
      <feFlood flood-color="#05696f" flood-opacity="0.239"/>
      <feComposite operator="in" in2="blur-6"/>
      <feComposite in="SourceGraphic"/>
    </filter>
    <filter id="Tracciato_86873" x="16.772" y="36.897" width="19.833" height="19.591" filterUnits="userSpaceOnUse">
      <feOffset dy="2" input="SourceAlpha"/>
      <feGaussianBlur stdDeviation="2" result="blur-7"/>
      <feFlood flood-color="#05696f" flood-opacity="0.239"/>
      <feComposite operator="in" in2="blur-7"/>
      <feComposite in="SourceGraphic"/>
    </filter>
    <filter id="Tracciato_86874" x="25.561" y="38.801" width="16.159" height="17.556" filterUnits="userSpaceOnUse">
      <feOffset dy="2" input="SourceAlpha"/>
      <feGaussianBlur stdDeviation="2" result="blur-8"/>
      <feFlood flood-color="#05696f" flood-opacity="0.239"/>
      <feComposite operator="in" in2="blur-8"/>
      <feComposite in="SourceGraphic"/>
    </filter>
    <filter id="Tracciato_86875" x="29.895" y="36.436" width="17.764" height="20.063" filterUnits="userSpaceOnUse">
      <feOffset dy="2" input="SourceAlpha"/>
      <feGaussianBlur stdDeviation="2" result="blur-9"/>
      <feFlood flood-color="#05696f" flood-opacity="0.239"/>
      <feComposite operator="in" in2="blur-9"/>
      <feComposite in="SourceGraphic"/>
    </filter>
    <filter id="Tracciato_86876" x="36.583" y="36.304" width="14.266" height="20.053" filterUnits="userSpaceOnUse">
      <feOffset dy="2" input="SourceAlpha"/>
      <feGaussianBlur stdDeviation="2" result="blur-10"/>
      <feFlood flood-color="#05696f" flood-opacity="0.239"/>
      <feComposite operator="in" in2="blur-10"/>
      <feComposite in="SourceGraphic"/>
    </filter>
    <filter id="Tracciato_86877" x="39.949" y="38.801" width="17.27" height="17.556" filterUnits="userSpaceOnUse">
      <feOffset dy="2" input="SourceAlpha"/>
      <feGaussianBlur stdDeviation="2" result="blur-11"/>
      <feFlood flood-color="#05696f" flood-opacity="0.239"/>
      <feComposite operator="in" in2="blur-11"/>
      <feComposite in="SourceGraphic"/>
    </filter>
    <filter id="Tracciato_86878" x="46.031" y="38.801" width="17.182" height="17.687" filterUnits="userSpaceOnUse">
      <feOffset dy="2" input="SourceAlpha"/>
      <feGaussianBlur stdDeviation="2" result="blur-12"/>
      <feFlood flood-color="#05696f" flood-opacity="0.239"/>
      <feComposite operator="in" in2="blur-12"/>
      <feComposite in="SourceGraphic"/>
    </filter>
    <filter id="Tracciato_86879" x="52.104" y="38.801" width="16.158" height="17.556" filterUnits="userSpaceOnUse">
      <feOffset dy="2" input="SourceAlpha"/>
      <feGaussianBlur stdDeviation="2" result="blur-13"/>
      <feFlood flood-color="#05696f" flood-opacity="0.239"/>
      <feComposite operator="in" in2="blur-13"/>
      <feComposite in="SourceGraphic"/>
    </filter>
    <filter id="Tracciato_86880" x="56.768" y="36.304" width="14.266" height="20.053" filterUnits="userSpaceOnUse">
      <feOffset dy="2" input="SourceAlpha"/>
      <feGaussianBlur stdDeviation="2" result="blur-14"/>
      <feFlood flood-color="#05696f" flood-opacity="0.239"/>
      <feComposite operator="in" in2="blur-14"/>
      <feComposite in="SourceGraphic"/>
    </filter>
    <filter id="Tracciato_86881" x="59.825" y="38.801" width="17.744" height="17.687" filterUnits="userSpaceOnUse">
      <feOffset dy="2" input="SourceAlpha"/>
      <feGaussianBlur stdDeviation="2" result="blur-15"/>
      <feFlood flood-color="#05696f" flood-opacity="0.239"/>
      <feComposite operator="in" in2="blur-15"/>
      <feComposite in="SourceGraphic"/>
    </filter>
  </defs>
  <g id="Raggruppa_30415-2" data-name="Raggruppa 30415" clip-path="url(#clip-path)">
    <g transform="matrix(1, 0, 0, 1, 0, 0)" filter="url(#Tracciato_86867)">
      <path id="Tracciato_86867-2" data-name="Tracciato 86867" d="M37.843,53.691H24.514a2.137,2.137,0,1,0,0,4.275H37.843a2.137,2.137,0,0,0,0-4.275" fill="url(#linear-gradient)"/>
    </g>
    <g transform="matrix(1, 0, 0, 1, 0, 0)" filter="url(#Tracciato_86868)">
      <path id="Tracciato_86868-2" data-name="Tracciato 86868" d="M37.843,64.381H24.514a2.138,2.138,0,1,0,0,4.275H37.843a2.138,2.138,0,0,0,0-4.275" fill="url(#linear-gradient)"/>
    </g>
    <g transform="matrix(1, 0, 0, 1, 0, 0)" filter="url(#Tracciato_86869)">
      <path id="Tracciato_86869-2" data-name="Tracciato 86869" d="M31.8,23.773a2.312,2.312,0,0,0,1.614-.524,1.993,1.993,0,0,0,0-2.876,2.314,2.314,0,0,0-1.612-.528H24.69a3.291,3.291,0,0,0-1.385.261,2,2,0,0,0-1,.99,3.266,3.266,0,0,0-.267,1.4V33.955a2.753,2.753,0,0,0,.633,1.926,2.326,2.326,0,0,0,3.349.009,2.75,2.75,0,0,0,.637-1.934v-4.1h4.166a2.275,2.275,0,0,0,1.556-.507,1.844,1.844,0,0,0,.616-1.424,1.869,1.869,0,0,0-.6-1.421,2.261,2.261,0,0,0-1.569-.517H26.661V23.773Z" fill="url(#linear-gradient)"/>
    </g>
    <g transform="matrix(1, 0, 0, 1, 0, 0)" filter="url(#Tracciato_86870)">
      <path id="Tracciato_86870-2" data-name="Tracciato 86870" d="M43.206,32.34H39.645q.53-.5,1.359-1.178,1.552-1.266,2.208-1.857a7.957,7.957,0,0,0,1.426-1.8,5.148,5.148,0,0,0,.742-2.7,5.01,5.01,0,0,0-1.359-3.418,4.842,4.842,0,0,0-1.507-1.075,8.009,8.009,0,0,0-5.521-.12A5.53,5.53,0,0,0,35.14,21.37a4.964,4.964,0,0,0-1.114,1.642,4.572,4.572,0,0,0-.378,1.77,2.034,2.034,0,0,0,.571,1.481,1.951,1.951,0,0,0,1.411.569,1.843,1.843,0,0,0,1.5-.658,4.194,4.194,0,0,0,.675-1.289,6.509,6.509,0,0,1,.254-.66,1.663,1.663,0,0,1,2.206-.617,1.366,1.366,0,0,1,.534.5,1.421,1.421,0,0,1,.195.75,2.1,2.1,0,0,1-.216.887,3.888,3.888,0,0,1-.7,1.009,8.108,8.108,0,0,1-1.249,1.069,16.493,16.493,0,0,0-1.652,1.391q-1.1,1.012-2.475,2.441a4.231,4.231,0,0,0-.75,1.171,3.254,3.254,0,0,0-.344,1.3,2.146,2.146,0,0,0,.665,1.558,2.38,2.38,0,0,0,1.753.656H43.5a2.084,2.084,0,0,0,1.577-.594,1.989,1.989,0,0,0,.554-1.4,1.847,1.847,0,0,0-.727-1.515,2.713,2.713,0,0,0-1.7-.494" fill="url(#linear-gradient)"/>
    </g>
    <g transform="matrix(1, 0, 0, 1, 0, 0)" filter="url(#Tracciato_86871)">
      <path id="Tracciato_86871-2" data-name="Tracciato 86871" d="M56.894,29.563a3.477,3.477,0,0,0-1.218-.274V22.217a2.265,2.265,0,0,0-2.345-2.569,1.964,1.964,0,0,0-1.368.539A9.062,9.062,0,0,0,51,21.322l-5.756,7.7c-.113.15-.222.306-.325.462a2.825,2.825,0,0,0-.3.59,2,2,0,0,0-.118.658,2.331,2.331,0,0,0,.746,1.783,2.862,2.862,0,0,0,1.986.643h4.3v1.09a2.451,2.451,0,0,0,.556,1.689,2.1,2.1,0,0,0,2.962.084c.024-.023.048-.047.071-.071a2.452,2.452,0,0,0,.554-1.7v-1.1a2.607,2.607,0,0,0,1.434-.408,1.743,1.743,0,0,0,.729-1.518,1.673,1.673,0,0,0-.945-1.665m-5.361-2.954v2.67H49.558Z" fill="url(#linear-gradient)"/>
    </g>
    <g transform="matrix(1, 0, 0, 1, 0, 0)" filter="url(#Tracciato_86872)">
      <path id="Tracciato_86872-2" data-name="Tracciato 86872" d="M61.455,52.94v.747H50.362a6.007,6.007,0,0,0-6.006,6.006v13.23H20.438a1.734,1.734,0,0,1-1.733-1.73V14.809a1.735,1.735,0,0,1,1.731-1.733H59.724a1.735,1.735,0,0,1,1.731,1.733V35.134a2.137,2.137,0,1,0,4.274,0V14.809a6.008,6.008,0,0,0-6-6.008H20.438a6.008,6.008,0,0,0-6.006,6.008V71.193A6.006,6.006,0,0,0,20.438,77.2h28.09l.1-.115L65.616,57.961l.113-.128V52.94a2.137,2.137,0,0,0-4.274,0m-12.824,17.7V59.693a1.735,1.735,0,0,1,1.731-1.733H59.9Z" fill="url(#linear-gradient)"/>
    </g>
    <g id="Raggruppa_30417" data-name="Raggruppa 30417" transform="translate(0 1)">
      <g transform="matrix(1, 0, 0, 1, 0, -1)" filter="url(#Tracciato_86873)">
        <path id="Tracciato_86873-2" data-name="Tracciato 86873" d="M22.772,43.7A3.684,3.684,0,0,1,26.7,39.9a3.8,3.8,0,1,1,.044,7.591A3.716,3.716,0,0,1,22.772,43.7m5.622,0c0-1.145-.407-2.135-1.65-2.135-1.266,0-1.75.936-1.75,2.069,0,1.155.473,2.178,1.706,2.178,1.265,0,1.694-.979,1.694-2.112" transform="translate(0 1)" fill="url(#linear-gradient)"/>
      </g>
      <g transform="matrix(1, 0, 0, 1, 0, -1)" filter="url(#Tracciato_86874)">
        <path id="Tracciato_86874-2" data-name="Tracciato 86874" d="M31.561,41.933h1.98v.649a1.512,1.512,0,0,1,1.32-.781,1.7,1.7,0,0,1,.859.176l-.462,1.672a1.158,1.158,0,0,0-.65-.154,1.256,1.256,0,0,0-1.067.6v3.257h-1.98Z" transform="translate(0 1)" fill="url(#linear-gradient)"/>
      </g>
      <g transform="matrix(1, 0, 0, 1, 0, -1)" filter="url(#Tracciato_86875)">
        <path id="Tracciato_86875-2" data-name="Tracciato 86875" d="M35.9,44.661c0-1.738,1.034-2.86,2.453-2.86a2,2,0,0,1,1.155.319V39.436h1.98v6.04a8.828,8.828,0,0,0,.176,1.88H39.723a2.536,2.536,0,0,1-.121-.561,1.831,1.831,0,0,1-1.5.7c-1.4,0-2.211-1.012-2.211-2.838m3.608.924V43.561a.916.916,0,0,0-.66-.253c-.55,0-.858.418-.858,1.375,0,.881.286,1.3.781,1.3a.931.931,0,0,0,.737-.4" transform="translate(0 1)" fill="url(#linear-gradient)"/>
      </g>
      <g transform="matrix(1, 0, 0, 1, 0, -1)" filter="url(#Tracciato_86876)">
        <path id="Tracciato_86876-2" data-name="Tracciato 86876" d="M42.583,40.382a1.134,1.134,0,1,1,1.133,1.089,1.086,1.086,0,0,1-1.133-1.089m.132,1.551h2v5.424h-2Z" transform="translate(0 1)" fill="url(#linear-gradient)"/>
      </g>
      <g transform="matrix(1, 0, 0, 1, 0, -1)" filter="url(#Tracciato_86877)">
        <path id="Tracciato_86877-2" data-name="Tracciato 86877" d="M45.949,41.933h1.937v.616a2.151,2.151,0,0,1,1.683-.748c1.221,0,1.65.77,1.65,1.8v3.752h-1.98V44.024c0-.441-.154-.606-.54-.606a1.092,1.092,0,0,0-.77.441v3.5h-1.98Z" transform="translate(0 1)" fill="url(#linear-gradient)"/>
      </g>
      <g transform="matrix(1, 0, 0, 1, 0, -1)" filter="url(#Tracciato_86878)">
        <path id="Tracciato_86878-2" data-name="Tracciato 86878" d="M52.031,45.9c0-1.386,1.365-1.958,2.883-1.958h.154v-.165c0-.308-.143-.473-.726-.473a2.477,2.477,0,0,0-1.354.462L52.2,42.6a3.665,3.665,0,0,1,2.4-.8c1.716,0,2.442.583,2.442,2.167v1.508a8.846,8.846,0,0,0,.176,1.881H55.277a1.962,1.962,0,0,1-.11-.529,1.825,1.825,0,0,1-1.441.66,1.542,1.542,0,0,1-1.7-1.584m3.037-.022V45.09h-.154c-.627,0-1.045.2-1.045.627,0,.265.2.419.539.419a.948.948,0,0,0,.66-.254" transform="translate(0 1)" fill="url(#linear-gradient)"/>
      </g>
      <g transform="matrix(1, 0, 0, 1, 0, -1)" filter="url(#Tracciato_86879)">
        <path id="Tracciato_86879-2" data-name="Tracciato 86879" d="M58.1,41.933h1.979v.649A1.512,1.512,0,0,1,61.4,41.8a1.7,1.7,0,0,1,.859.176L61.8,43.649a1.155,1.155,0,0,0-.65-.154,1.257,1.257,0,0,0-1.067.6v3.257H58.1Z" transform="translate(0 1)" fill="url(#linear-gradient)"/>
      </g>
      <g transform="matrix(1, 0, 0, 1, 0, -1)" filter="url(#Tracciato_86880)">
        <path id="Tracciato_86880-2" data-name="Tracciato 86880" d="M62.768,40.382A1.134,1.134,0,1,1,63.9,41.471a1.086,1.086,0,0,1-1.133-1.089m.131,1.551h2v5.424h-2Z" transform="translate(0 1)" fill="url(#linear-gradient)"/>
      </g>
      <g transform="matrix(1, 0, 0, 1, 0, -1)" filter="url(#Tracciato_86881)">
        <path id="Tracciato_86881-2" data-name="Tracciato 86881" d="M65.825,44.672A2.72,2.72,0,0,1,68.7,41.8a2.671,2.671,0,0,1,2.872,2.806A2.739,2.739,0,0,1,68.7,47.488a2.684,2.684,0,0,1-2.872-2.816m3.642,0c0-.9-.165-1.463-.792-1.463s-.759.506-.759,1.4.187,1.452.814,1.452.737-.495.737-1.387" transform="translate(0 1)" fill="url(#linear-gradient)"/>
      </g>
    </g>
  </g>
</svg>
