<svg xmlns="http://www.w3.org/2000/svg" width="476" height="304" viewBox="0 0 476 304">
  <g id="Raggruppa_29698" data-name="Raggruppa 29698" transform="translate(21257.824 15391.686)">
    <path id="Tracciato_86557" data-name="Tracciato 86557" d="M0,0H476V304H0Z" transform="translate(-21257.824 -15391.686)" fill="#f7fafa"/>
    <g id="Raggruppa_29678" data-name="Raggruppa 29678" transform="translate(-21238.324 -15369.432)">
      <rect id="Rettangolo_10966" data-name="Rettangolo 10966" width="21" height="21" rx="2" transform="translate(0.5 -0.254)" fill="#b0cfd1"/>
      <text id="_" data-name="€" transform="translate(10.5 14.746)" fill="#fff" font-size="15" font-family="KievitPro-Bold, Kievit Pro" font-weight="700"><tspan x="-4" y="0">€</tspan></text>
    </g>
    <path id="Tracciato_86992" data-name="Tracciato 86992" d="M1.96.13C3.09.13,3.8-.42,3.8-1.37c0-.82-.63-1.17-1.41-1.49-.54-.22-.96-.35-.96-.74,0-.33.24-.53.73-.53a1.9,1.9,0,0,1,1.05.33l.42-.74a2.679,2.679,0,0,0-1.5-.42C1.1-4.96.45-4.38.45-3.54c0,.77.48,1.13,1.19,1.45s1.15.45,1.15.83c0,.36-.33.56-.88.56A2.153,2.153,0,0,1,.72-1.1L.33-.34A2.815,2.815,0,0,0,1.96.13ZM6.27.12a1.926,1.926,0,0,0,1.56-.8A4.713,4.713,0,0,0,7.92,0H8.98a5.715,5.715,0,0,1-.12-1.23V-4.84H7.8v3.32a1.679,1.679,0,0,1-1.17.73c-.55,0-.74-.31-.74-.85v-3.2H4.83v3.42A1.347,1.347,0,0,0,6.27.12Zm9.22,0a3.231,3.231,0,0,0,2.07-.69l-.49-.79a2.363,2.363,0,0,1-1.56.53c-1.46,0-2.17-1.19-2.17-2.55a2.2,2.2,0,0,1,2.14-2.46,2.483,2.483,0,0,1,1.44.41l.53-.83a3.334,3.334,0,0,0-1.94-.52,3.262,3.262,0,0,0-3.36,3.44A3.256,3.256,0,0,0,15.49.12ZM21.7-6.66H20.68L18.27,0h1.02ZM25.94.12a3.231,3.231,0,0,0,2.07-.69l-.49-.79a2.363,2.363,0,0,1-1.56.53c-1.46,0-2.17-1.19-2.17-2.55a2.2,2.2,0,0,1,2.14-2.46,2.483,2.483,0,0,1,1.44.41l.53-.83a3.334,3.334,0,0,0-1.94-.52A3.262,3.262,0,0,0,22.6-3.34,3.256,3.256,0,0,0,25.94.12ZM31.09,0h1.07V-3.32a1.582,1.582,0,0,1,1.17-.73c.55,0,.74.31.74.85V0h1.06V-3.42a1.352,1.352,0,0,0-1.44-1.54,1.976,1.976,0,0,0-1.55.77v-.65H31.09ZM37.1.1a.751.751,0,0,0,.76-.75.743.743,0,0,0-.76-.74.745.745,0,0,0-.77.74A.754.754,0,0,0,37.1.1ZM43.18,0h1.365V-6.292H43.466l-2.054.585L41.7-4.6,43.18-5.07Zm2.73,0h5.668V-1.118H48.913c-.312,0-.728.039-.78.039,1.079-.806,2.873-2.158,2.873-3.549,0-1.261-1.04-1.833-2.418-1.833a3.68,3.68,0,0,0-2.457.975l.715.871a2.313,2.313,0,0,1,1.573-.7c.741,0,1.1.351,1.1.91,0,1.157-2.483,2.938-3.614,3.809Zm7.644,2.444c2,0,3.562-1.04,3.562-2.782A2.2,2.2,0,0,0,55.1-2.5v-.013a2.3,2.3,0,0,0,1.742-2.054c0-1.027-.832-1.885-2.353-1.885a3.343,3.343,0,0,0-2.327.871l.663.884A2.083,2.083,0,0,1,54.269-5.3c.741,0,1.131.338,1.131.936,0,.949-1.17,1.56-2.093,1.573v1.014c1.378,0,2.34.39,2.34,1.508,0,1.04-1,1.612-2.21,1.612a4.556,4.556,0,0,1-.9-.091l-.208,1.118A6.7,6.7,0,0,0,53.554,2.444ZM62,2.3h1.378V0h1.391V-1.092H63.382v-5.2h-1.2L57.961-.884V0H62ZM59.469-1.092l2.509-3.276H62v3.276Zm7.124,3.536c2.353,0,3.731-1.287,3.731-3.029,0-1.534-1.014-2.7-3.029-2.73l.13-1.9h2.743V-6.292H66.177L65.9-2.171a5.49,5.49,0,0,1,.832-.052c1.209,0,2.119.468,2.119,1.716,0,1.209-1.027,1.82-2.21,1.82a3.412,3.412,0,0,1-.832-.091L65.566,2.34A4.821,4.821,0,0,0,66.593,2.444ZM74.315.156a2.736,2.736,0,0,0,2.9-2.782,2.45,2.45,0,0,0-2.626-2.6,2.763,2.763,0,0,0-1.755.585,3.344,3.344,0,0,1,.988-2.054,4.4,4.4,0,0,1,3.042-1l-.3-1.118a4.93,4.93,0,0,0-5.278,5.239C71.286-1.716,72.144.156,74.315.156Zm.052-1.092c-1.131,0-1.664-1.053-1.612-2.431v-.221a2.352,2.352,0,0,1,1.56-.546c.936,0,1.43.585,1.43,1.638A1.424,1.424,0,0,1,74.367-.936ZM79.281,2.6l3.77-8.073v-.819H77.773v1.157h3.705L78.111,2.028Zm7.5-2.444c1.638,0,2.821-.9,2.821-2.366,0-1.014-.611-1.755-1.807-2.4,1.053-.611,1.612-1.248,1.612-2.067,0-1.235-.975-2.132-2.639-2.132a2.36,2.36,0,0,0-2.561,2.223c0,.819.416,1.469,1.482,2.093a2.845,2.845,0,0,0-1.729,2.366C83.961-.9,84.923.156,86.782.156Zm.013-1.092A1.28,1.28,0,0,1,85.365-2.2c0-.65.39-1.17,1.274-1.729,1.144.624,1.534,1.144,1.534,1.716A1.251,1.251,0,0,1,86.795-.936Zm.039-4.238c-.9-.52-1.209-.962-1.209-1.469a1.1,1.1,0,0,1,1.2-1.092A1.086,1.086,0,0,1,88-6.6C88-6.149,87.653-5.668,86.834-5.174Z" transform="translate(-21206.824 -15352.686)" fill="#005157"/>
    <path id="Tracciato_86996" data-name="Tracciato 86996" d="M4.966.156a4.2,4.2,0,0,0,2.691-.9L7.02-1.768a3.072,3.072,0,0,1-2.028.689c-1.9,0-2.821-1.547-2.821-3.315,0-1.716.962-3.2,2.782-3.2a3.227,3.227,0,0,1,1.872.533l.689-1.079a4.334,4.334,0,0,0-2.522-.676A4.241,4.241,0,0,0,.624-4.342,4.232,4.232,0,0,0,4.966.156Zm5.395,0a2.318,2.318,0,0,0,1.82-.871,5.907,5.907,0,0,0,.1.715H13.65a7.947,7.947,0,0,1-.156-1.664V-4.225c0-1.56-.806-2.223-2.366-2.223a3.485,3.485,0,0,0-2.405.884l.65.884a2.411,2.411,0,0,1,1.612-.637c.806,0,1.131.325,1.131,1.079v.455h-.247c-1.6,0-3.354.559-3.354,2.2A1.7,1.7,0,0,0,10.361.156ZM10.725-.91a.754.754,0,0,1-.832-.754c0-.884.819-1.209,1.976-1.209h.247v1.261A1.746,1.746,0,0,1,10.725-.91ZM17.108.156a2.5,2.5,0,0,0,2.028-1.04A6.127,6.127,0,0,0,19.253,0h1.378a7.429,7.429,0,0,1-.156-1.6V-6.292H19.1v4.316a2.182,2.182,0,0,1-1.521.949c-.715,0-.962-.4-.962-1.1v-4.16H15.236v4.446A1.752,1.752,0,0,0,17.108.156Zm6.864.013c1.469,0,2.392-.715,2.392-1.95,0-1.066-.819-1.521-1.833-1.937-.7-.286-1.248-.455-1.248-.962,0-.429.312-.689.949-.689A2.465,2.465,0,0,1,25.6-4.94l.546-.962a3.483,3.483,0,0,0-1.95-.546c-1.339,0-2.184.754-2.184,1.846,0,1,.624,1.469,1.547,1.885s1.5.585,1.5,1.079c0,.468-.429.728-1.144.728a2.8,2.8,0,0,1-1.547-.52l-.507.988A3.659,3.659,0,0,0,23.972.169ZM29.224.156a2.318,2.318,0,0,0,1.82-.871,5.907,5.907,0,0,0,.1.715h1.365a7.947,7.947,0,0,1-.156-1.664V-4.225c0-1.56-.806-2.223-2.366-2.223a3.485,3.485,0,0,0-2.405.884l.65.884a2.411,2.411,0,0,1,1.612-.637c.806,0,1.131.325,1.131,1.079v.455h-.247c-1.6,0-3.354.559-3.354,2.2A1.7,1.7,0,0,0,29.224.156ZM29.588-.91a.754.754,0,0,1-.832-.754c0-.884.819-1.209,1.976-1.209h.247v1.261A1.746,1.746,0,0,1,29.588-.91ZM34.242,0H35.62V-9.36H34.242Zm5.98.156a4,4,0,0,0,2.262-.624L42-1.417a3.184,3.184,0,0,1-1.677.494c-1.222,0-1.716-.9-1.781-2.015h4.108c.013-.182.026-.377.026-.546,0-1.846-.936-2.964-2.626-2.964a3.013,3.013,0,0,0-2.977,3.263A3.016,3.016,0,0,0,40.222.156ZM38.558-3.926c.156-.884.624-1.469,1.469-1.469.923,0,1.261.676,1.287,1.469Z" transform="translate(-21216.824 -15250.686)" fill="#005157"/>
    <path id="Tracciato_86995" data-name="Tracciato 86995" d="M1.235,0H2.7V-8.658H1.235ZM4.862,0H6.253V-4.316a2.056,2.056,0,0,1,1.521-.949c.715,0,.962.4.962,1.105V0h1.378V-4.446a1.758,1.758,0,0,0-1.872-2,2.569,2.569,0,0,0-2.015,1v-.845H4.862Zm9.256.156a2.968,2.968,0,0,0,1.469-.364l-.39-1.04a1.635,1.635,0,0,1-.832.26c-.507,0-.676-.286-.676-.91V-5.239H15.21V-6.292H13.689V-8.1H12.311v1.807H11.3v1.053h1.014v3.562A1.611,1.611,0,0,0,14.118.156Zm5.226,0a4,4,0,0,0,2.262-.624l-.481-.949a3.184,3.184,0,0,1-1.677.494c-1.222,0-1.716-.9-1.781-2.015h4.108c.013-.182.026-.377.026-.546,0-1.846-.936-2.964-2.626-2.964A3.013,3.013,0,0,0,16.2-3.185,3.016,3.016,0,0,0,19.344.156ZM17.68-3.926c.156-.884.624-1.469,1.469-1.469.923,0,1.261.676,1.287,1.469ZM24.869.169c1.469,0,2.392-.715,2.392-1.95,0-1.066-.819-1.521-1.833-1.937-.7-.286-1.248-.455-1.248-.962,0-.429.312-.689.949-.689a2.465,2.465,0,0,1,1.365.429L27.04-5.9a3.483,3.483,0,0,0-1.95-.546c-1.339,0-2.184.754-2.184,1.846,0,1,.624,1.469,1.547,1.885s1.5.585,1.5,1.079c0,.468-.429.728-1.144.728a2.8,2.8,0,0,1-1.547-.52l-.507.988A3.659,3.659,0,0,0,24.869.169ZM30.823.156a2.968,2.968,0,0,0,1.469-.364l-.39-1.04a1.635,1.635,0,0,1-.832.26c-.507,0-.676-.286-.676-.91V-5.239h1.521V-6.292H30.394V-8.1H29.016v1.807H28v1.053h1.014v3.562A1.611,1.611,0,0,0,30.823.156Zm4.095,0a2.318,2.318,0,0,0,1.82-.871,5.907,5.907,0,0,0,.1.715h1.365a7.947,7.947,0,0,1-.156-1.664V-4.225c0-1.56-.806-2.223-2.366-2.223a3.485,3.485,0,0,0-2.4.884l.65.884a2.411,2.411,0,0,1,1.612-.637c.806,0,1.131.325,1.131,1.079v.455h-.247c-1.6,0-3.354.559-3.354,2.2A1.7,1.7,0,0,0,34.918.156ZM35.282-.91a.754.754,0,0,1-.832-.754c0-.884.819-1.209,1.976-1.209h.247v1.261A1.746,1.746,0,0,1,35.282-.91ZM42.016.156a2.968,2.968,0,0,0,1.469-.364l-.39-1.04a1.635,1.635,0,0,1-.832.26c-.507,0-.676-.286-.676-.91V-5.239h1.521V-6.292H41.587V-8.1H40.209v1.807H39.195v1.053h1.014v3.562A1.611,1.611,0,0,0,42.016.156Zm5.187,0a3.1,3.1,0,0,0,3.081-3.328,3.07,3.07,0,0,0-3.107-3.276,3.021,3.021,0,0,0-3.016,3.315A3.021,3.021,0,0,0,47.2.156Zm.013-1.092c-1.118,0-1.6-.988-1.6-2.236s.416-2.2,1.534-2.2,1.664.988,1.664,2.236S48.347-.936,47.216-.936ZM55.77.156a2.318,2.318,0,0,0,1.82-.871,5.907,5.907,0,0,0,.1.715h1.365A7.947,7.947,0,0,1,58.9-1.664V-4.225c0-1.56-.806-2.223-2.366-2.223a3.485,3.485,0,0,0-2.4.884l.65.884a2.411,2.411,0,0,1,1.612-.637c.806,0,1.131.325,1.131,1.079v.455h-.247c-1.6,0-3.354.559-3.354,2.2A1.7,1.7,0,0,0,55.77.156ZM56.134-.91a.754.754,0,0,1-.832-.754c0-.884.819-1.209,1.976-1.209h.247v1.261A1.746,1.746,0,0,1,56.134-.91Z" transform="translate(-21235.824 -15305.686)" fill="#005157"/>
    <path id="Tracciato_86993" data-name="Tracciato 86993" d="M-76.91.12a1.722,1.722,0,0,0,1.38-.66,2.481,2.481,0,0,0,.1.54h1.05a5.363,5.363,0,0,1-.14-1.21V-7.2h-1.06v2.62a1.743,1.743,0,0,0-1.17-.38A2.271,2.271,0,0,0-78.9-2.41C-78.9-.79-78.1.12-76.91.12Zm.29-.88c-.8,0-1.15-.66-1.15-1.66s.43-1.68,1.21-1.68a1.36,1.36,0,0,1,.98.37v2.4A1.333,1.333,0,0,1-76.62-.76Zm4.12-4.83a.685.685,0,0,0,.7-.68.685.685,0,0,0-.7-.68.683.683,0,0,0-.69.68A.683.683,0,0,0-72.5-5.59ZM-73.03,0h1.07V-4.84h-1.07Zm4.84,0h3.72V-.94h-2.6v-2.1h2.23v-.9h-2.23V-5.72h2.53v-.94h-3.65Zm6.36.12a1.926,1.926,0,0,0,1.56-.8,4.713,4.713,0,0,0,.09.68h1.06a5.715,5.715,0,0,1-.12-1.23V-4.84H-60.3v3.32a1.679,1.679,0,0,1-1.17.73c-.55,0-.74-.31-.74-.85v-3.2h-1.06v3.42A1.347,1.347,0,0,0-61.83.12ZM-57.79,0h1.07V-3.14c.09-.18.46-.85,1.11-.85a.89.89,0,0,1,.47.1l.26-.95a1.171,1.171,0,0,0-.59-.12,1.506,1.506,0,0,0-1.25.82v-.7h-1.07Zm5.57.12a2.383,2.383,0,0,0,2.37-2.56,2.362,2.362,0,0,0-2.39-2.52,2.324,2.324,0,0,0-2.32,2.55A2.323,2.323,0,0,0-52.22.12Zm.01-.84c-.86,0-1.23-.76-1.23-1.72s.32-1.69,1.18-1.69,1.28.76,1.28,1.72S-51.34-.72-52.21-.72Zm7.256.72h1.47V-6.776h-1.162l-2.212.63.308,1.19,1.6-.5Zm2.94,0h6.1V-1.2h-2.87c-.336,0-.784.042-.84.042,1.162-.868,3.094-2.324,3.094-3.822,0-1.358-1.12-1.974-2.6-1.974a3.963,3.963,0,0,0-2.646,1.05l.77.938a2.491,2.491,0,0,1,1.694-.756c.8,0,1.19.378,1.19.98,0,1.246-2.674,3.164-3.892,4.1Zm8.232,2.632c2.156,0,3.836-1.12,3.836-3a2.372,2.372,0,0,0-2.17-2.324V-2.7A2.478,2.478,0,0,0-30.24-4.914c0-1.106-.9-2.03-2.534-2.03a3.6,3.6,0,0,0-2.506.938l.714.952a2.243,2.243,0,0,1,1.554-.658c.8,0,1.218.364,1.218,1.008,0,1.022-1.26,1.68-2.254,1.694v1.092c1.484,0,2.52.42,2.52,1.624,0,1.12-1.078,1.736-2.38,1.736a4.906,4.906,0,0,1-.966-.1l-.224,1.2A7.213,7.213,0,0,0-33.782,2.632Zm5.376-.448A4.356,4.356,0,0,0-26.628-.77a1.065,1.065,0,0,0-1.064-1.162.945.945,0,0,0-.98.966c0,.63.448.77.448,1.316a1.992,1.992,0,0,1-.784,1.3Zm7.84.294h1.484V0h1.5V-1.176h-1.5v-5.6H-20.37L-24.92-.952V0h4.354ZM-23.3-1.176l2.7-3.528h.028v3.528Zm7.672,3.808c2.534,0,4.018-1.386,4.018-3.262,0-1.652-1.092-2.912-3.262-2.94l.14-2.044h2.954V-6.776h-4.3l-.294,4.438a5.913,5.913,0,0,1,.9-.056c1.3,0,2.282.5,2.282,1.848,0,1.3-1.106,1.96-2.38,1.96a3.674,3.674,0,0,1-.9-.1l-.266,1.2A5.192,5.192,0,0,0-15.624,2.632Zm7.938-7.686H-6.8v.364c0,.2,0,.392.014.574h-.9v1.092h1.064A3.831,3.831,0,0,0-2.744.168,3.842,3.842,0,0,0-.294-.588l-.644-1.12a2.894,2.894,0,0,1-1.75.56A2.311,2.311,0,0,1-4.97-3.024h2.3V-4.116H-5.18c-.014-.182-.014-.392-.014-.6v-.336h2.52V-6.146H-5.04A2.374,2.374,0,0,1-2.716-8.19a3.088,3.088,0,0,1,1.68.462L-.392-8.9A3.871,3.871,0,0,0-2.73-9.492,3.861,3.861,0,0,0-6.664-6.146H-7.686Z" transform="translate(-20845.824 -15352.686)" fill="#005157"/>
    <rect id="Rettangolo_12146" data-name="Rettangolo 12146" width="476" height="12" transform="translate(-21257.824 -15391.686)" fill="#e1eded"/>
    <path id="Tracciato_86994" data-name="Tracciato 86994" d="M-30.226-.322l.8-.882-2.6-2.3,2.59-2.324-.8-.826-3.542,3.192ZM-23.688,0h1.47V-6.776H-23.38l-2.212.63.308,1.19,1.6-.5Zm2.94,0h6.1V-1.2h-2.87c-.336,0-.784.042-.84.042,1.162-.868,3.094-2.324,3.094-3.822,0-1.358-1.12-1.974-2.6-1.974a3.963,3.963,0,0,0-2.646,1.05l.77.938a2.491,2.491,0,0,1,1.694-.756c.8,0,1.19.378,1.19.98,0,1.246-2.674,3.164-3.892,4.1Zm8.232,2.632c2.156,0,3.836-1.12,3.836-3a2.372,2.372,0,0,0-2.17-2.324V-2.7A2.478,2.478,0,0,0-8.974-4.914c0-1.106-.9-2.03-2.534-2.03a3.6,3.6,0,0,0-2.506.938l.714.952a2.243,2.243,0,0,1,1.554-.658c.8,0,1.218.364,1.218,1.008,0,1.022-1.26,1.68-2.254,1.694v1.092c1.484,0,2.52.42,2.52,1.624,0,1.12-1.078,1.736-2.38,1.736a4.906,4.906,0,0,1-.966-.1l-.224,1.2A7.213,7.213,0,0,0-12.516,2.632Zm8.6-2.954L-.378-3.514-3.934-6.65l-.812.882,2.618,2.3-2.59,2.324Z" transform="translate(-20810.824 -15132.686)" fill="#005157"/>
    <g id="Rettangolo_12152" data-name="Rettangolo 12152" transform="translate(-21257.824 -15217.686)" fill="#fff" stroke="#e6e8e8" stroke-width="1" stroke-dasharray="4">
      <rect width="150" height="70" stroke="none"/>
      <rect x="0.5" y="0.5" width="149" height="69" fill="none"/>
    </g>
    <path id="Tracciato_86556" data-name="Tracciato 86556" d="M-20803.289-15573h-475.734" transform="translate(21.2 425.314)" fill="none" stroke="#e6e8e8" stroke-width="0.5"/>
    <g id="Raggruppa_29687" data-name="Raggruppa 29687" transform="translate(-6 5)">
      <rect id="Rettangolo_12142" data-name="Rettangolo 12142" width="92.228" height="16.796" rx="8.398" transform="translate(-21201.645 -15343.325)" fill="#e1eded"/>
      <path id="Tracciato_86998" data-name="Tracciato 86998" d="M-35.82,0h.864V-5.856c0-.384-.036-.72-.048-.876h.024c.144.252.384.7.624,1.032L-30.408,0h.864V-7.992h-.864v5.508c0,.588.036.924.048,1.08h-.024c-.144-.24-.372-.636-.744-1.176L-34.9-7.992h-.924Zm9.48-5.016a1.567,1.567,0,0,0,1.572-1.56,1.575,1.575,0,0,0-1.572-1.56,1.575,1.575,0,0,0-1.572,1.56A1.575,1.575,0,0,0-26.34-5.016Zm0-.612a.913.913,0,0,1-.912-.948.92.92,0,0,1,.912-.948.92.92,0,0,1,.912.948A.913.913,0,0,1-26.34-5.628ZM-17.028.144a3.709,3.709,0,0,0,2.412-.8l-.432-.672A2.911,2.911,0,0,1-17-.648c-1.992,0-2.94-1.644-2.94-3.4,0-1.728.984-3.312,2.9-3.312a3.05,3.05,0,0,1,1.8.528l.468-.708a3.868,3.868,0,0,0-2.244-.6A3.9,3.9,0,0,0-20.928-4.02,3.907,3.907,0,0,0-17.028.144ZM-13.644,0h.84l2.892-7.992h-.84Zm8.82.144a3.709,3.709,0,0,0,2.412-.8l-.432-.672A2.911,2.911,0,0,1-4.8-.648c-1.992,0-2.94-1.644-2.94-3.4,0-1.728.984-3.312,2.9-3.312a3.05,3.05,0,0,1,1.8.528l.468-.708a3.868,3.868,0,0,0-2.244-.6A3.9,3.9,0,0,0-8.724-4.02,3.907,3.907,0,0,0-4.824.144ZM1.872,0h.936V-3.228h.936c1.86,0,2.94-.888,2.94-2.46,0-1.536-1.2-2.3-2.808-2.3h-2Zm.936-4.02V-7.2H3.78c1.416,0,1.944.636,1.944,1.548,0,1.056-.576,1.632-1.98,1.632ZM10.188.144A2.791,2.791,0,0,0,12.9-2.892,2.8,2.8,0,0,0,10.152-5.9c-1.944,0-2.628,1.692-2.628,3.036A2.733,2.733,0,0,0,10.188.144ZM10.2-.612c-1.2,0-1.74-1.044-1.74-2.28s.48-2.256,1.68-2.256,1.824,1.044,1.824,2.28S11.4-.612,10.2-.612Zm5.5.768c1.26,0,2.052-.66,2.052-1.7,0-.972-.852-1.38-1.788-1.776-.636-.264-1.1-.492-1.1-1.032,0-.492.348-.792.96-.792a2.083,2.083,0,0,1,1.284.432l.432-.636a2.708,2.708,0,0,0-1.7-.552A1.624,1.624,0,0,0,14-4.32c0,.984.684,1.392,1.584,1.776.84.36,1.272.588,1.272,1.116S16.4-.6,15.684-.6a2.484,2.484,0,0,1-1.428-.468L13.872-.4A3.217,3.217,0,0,0,15.7.156ZM20.964.144A2.22,2.22,0,0,0,22.176-.2l-.324-.66a1.461,1.461,0,0,1-.78.252c-.5,0-.672-.276-.672-.852v-3.6h1.452v-.7H20.4V-7.4h-.876V-5.76h-.948v.7h.948V-1.38A1.334,1.334,0,0,0,20.964.144Zm3.72,0A2.252,2.252,0,0,0,26.412-.7,6.137,6.137,0,0,0,26.5,0h.876a5.525,5.525,0,0,1-.132-1.308V-4A1.72,1.72,0,0,0,25.272-5.9a2.837,2.837,0,0,0-2.028.792l.468.612a2.136,2.136,0,0,1,1.5-.624c.792,0,1.152.348,1.152,1.2v.54h-.252c-1.392,0-3.072.456-3.072,1.98A1.52,1.52,0,0,0,24.684.144Zm.144-.756a.81.81,0,0,1-.852-.816c0-.972.9-1.308,2.136-1.308h.252v1.3A1.905,1.905,0,0,1,24.828-.612ZM29.184,0h.876V-8.64h-.876Zm5.088.144a3.435,3.435,0,0,0,1.98-.588l-.36-.684a2.878,2.878,0,0,1-1.6.516C33-.612,32.508-1.68,32.484-2.9h3.9c.012-.144.024-.276.024-.408,0-1.572-.84-2.592-2.268-2.592a2.72,2.72,0,0,0-2.592,2.988C31.548-1.212,32.46.144,34.272.144ZM32.532-3.6c.156-.9.66-1.548,1.584-1.548,1,0,1.368.732,1.392,1.548Z" transform="translate(-21155.824 -15330.686)" fill="#005157"/>
    </g>
    <g id="Raggruppa_29700" data-name="Raggruppa 29700" transform="translate(-57 47)">
      <rect id="Rettangolo_12142-2" data-name="Rettangolo 12142" width="76.184" height="16.292" rx="8.146" transform="translate(-21193.545 -15342.821)" fill="#e1eded"/>
      <path id="Tracciato_86997" data-name="Tracciato 86997" d="M-27.72,0h.936V-7.992h-.936Zm3.144,0h.876V-4.056a2.258,2.258,0,0,1,1.668-1.056c.768,0,1.02.456,1.02,1.176V0h.876V-4.1a1.592,1.592,0,0,0-1.692-1.8,2.355,2.355,0,0,0-1.872.972V-5.76h-.876Zm8.064.144A2.22,2.22,0,0,0-15.3-.2l-.324-.66a1.461,1.461,0,0,1-.78.252c-.5,0-.672-.276-.672-.852v-3.6h1.452v-.7h-1.452V-7.4h-.876V-5.76H-18.9v.7h.948V-1.38A1.334,1.334,0,0,0-16.512.144Zm4.632,0A3.435,3.435,0,0,0-9.9-.444l-.36-.684a2.878,2.878,0,0,1-1.6.516c-1.3,0-1.788-1.068-1.812-2.292h3.9c.012-.144.024-.276.024-.408,0-1.572-.84-2.592-2.268-2.592A2.72,2.72,0,0,0-14.6-2.916C-14.6-1.212-13.692.144-11.88.144ZM-13.62-3.6c.156-.9.66-1.548,1.584-1.548,1,0,1.368.732,1.392,1.548ZM-6.888.156c1.26,0,2.052-.66,2.052-1.7,0-.972-.852-1.38-1.788-1.776-.636-.264-1.1-.492-1.1-1.032,0-.492.348-.792.96-.792a2.083,2.083,0,0,1,1.284.432l.432-.636a2.708,2.708,0,0,0-1.7-.552A1.624,1.624,0,0,0-8.58-4.32c0,.984.684,1.392,1.584,1.776.84.36,1.272.588,1.272,1.116S-6.18-.6-6.9-.6a2.484,2.484,0,0,1-1.428-.468L-8.712-.4A3.217,3.217,0,0,0-6.888.156ZM-1.62.144A2.22,2.22,0,0,0-.408-.2l-.324-.66a1.461,1.461,0,0,1-.78.252c-.5,0-.672-.276-.672-.852v-3.6H-.732v-.7H-2.184V-7.4H-3.06V-5.76h-.948v.7h.948V-1.38A1.334,1.334,0,0,0-1.62.144Zm3.72,0A2.252,2.252,0,0,0,3.828-.7a6.137,6.137,0,0,0,.084.7h.876a5.525,5.525,0,0,1-.132-1.308V-4A1.72,1.72,0,0,0,2.688-5.9,2.837,2.837,0,0,0,.66-5.112l.468.612a2.136,2.136,0,0,1,1.5-.624c.792,0,1.152.348,1.152,1.2v.54H3.528C2.136-3.384.456-2.928.456-1.4A1.52,1.52,0,0,0,2.1.144Zm.144-.756a.81.81,0,0,1-.852-.816c0-.972.9-1.308,2.136-1.308H3.78v1.3A1.905,1.905,0,0,1,2.244-.612ZM8.256.144A2.22,2.22,0,0,0,9.468-.2l-.324-.66a1.461,1.461,0,0,1-.78.252c-.5,0-.672-.276-.672-.852v-3.6H9.144v-.7H7.692V-7.4H6.816V-5.76H5.868v.7h.948V-1.38A1.334,1.334,0,0,0,8.256.144Zm3.72,0A2.252,2.252,0,0,0,13.7-.7a6.137,6.137,0,0,0,.084.7h.876a5.525,5.525,0,0,1-.132-1.308V-4A1.72,1.72,0,0,0,12.564-5.9a2.837,2.837,0,0,0-2.028.792L11-4.5a2.136,2.136,0,0,1,1.5-.624c.792,0,1.152.348,1.152,1.2v.54H13.4c-1.392,0-3.072.456-3.072,1.98A1.52,1.52,0,0,0,11.976.144Zm.144-.756a.81.81,0,0,1-.852-.816c0-.972.9-1.308,2.136-1.308h.252v1.3A1.905,1.905,0,0,1,12.12-.612ZM16.452,0h.876V-3.864c.072-.18.552-1.176,1.416-1.176a.989.989,0,0,1,.5.1l.216-.84a1.27,1.27,0,0,0-.6-.12A1.9,1.9,0,0,0,17.328-4.86v-.9h-.876Zm4.656-6.84a.645.645,0,0,0,.648-.648.645.645,0,0,0-.648-.648.645.645,0,0,0-.648.648A.645.645,0,0,0,21.108-6.84ZM20.664,0h.888V-5.76h-.888Zm5.088.144a2.791,2.791,0,0,0,2.712-3.036A2.8,2.8,0,0,0,25.716-5.9c-1.944,0-2.628,1.692-2.628,3.036A2.733,2.733,0,0,0,25.752.144Zm.012-.756c-1.2,0-1.74-1.044-1.74-2.28s.48-2.256,1.68-2.256,1.824,1.044,1.824,2.28S26.964-.612,25.764-.612Z" transform="translate(-21155.824 -15330.686)" fill="#005157"/>
    </g>
    <g id="Raggruppa_29701" data-name="Raggruppa 29701" transform="translate(-45 102)">
      <rect id="Rettangolo_12142-3" data-name="Rettangolo 12142" width="57.572" height="16.796" rx="8.398" transform="translate(-21184.563 -15343.325)" fill="#e1eded"/>
      <path id="Tracciato_87000" data-name="Tracciato 87000" d="M-14.838.144a3.709,3.709,0,0,0,2.412-.8l-.432-.672a2.911,2.911,0,0,1-1.956.684c-1.992,0-2.94-1.644-2.94-3.4,0-1.728.984-3.312,2.9-3.312a3.05,3.05,0,0,1,1.8.528l.468-.708a3.868,3.868,0,0,0-2.244-.6A3.9,3.9,0,0,0-18.738-4.02,3.907,3.907,0,0,0-14.838.144Zm5.016,0A2.252,2.252,0,0,0-8.094-.7,6.137,6.137,0,0,0-8.01,0h.876a5.525,5.525,0,0,1-.132-1.308V-4A1.72,1.72,0,0,0-9.234-5.9a2.837,2.837,0,0,0-2.028.792l.468.612a2.136,2.136,0,0,1,1.5-.624c.792,0,1.152.348,1.152,1.2v.54h-.252c-1.392,0-3.072.456-3.072,1.98A1.52,1.52,0,0,0-9.822.144Zm.144-.756a.81.81,0,0,1-.852-.816c0-.972.9-1.308,2.136-1.308h.252v1.3A1.905,1.905,0,0,1-9.678-.612Zm5.94.756a2.332,2.332,0,0,0,1.872-1c.012.288.06.708.084.852h.888A6.765,6.765,0,0,1-1-1.212V-5.76h-.876V-1.7A2.355,2.355,0,0,1-3.534-.648c-.78,0-1.032-.456-1.032-1.176V-5.76h-.876v4.1A1.6,1.6,0,0,0-3.738.144ZM2.3.156c1.26,0,2.052-.66,2.052-1.7,0-.972-.852-1.38-1.788-1.776-.636-.264-1.1-.492-1.1-1.032,0-.492.348-.792.96-.792A2.083,2.083,0,0,1,3.7-4.716l.432-.636A2.708,2.708,0,0,0,2.43-5.9,1.624,1.624,0,0,0,.606-4.32c0,.984.684,1.392,1.584,1.776.84.36,1.272.588,1.272,1.116S3.006-.6,2.286-.6A2.484,2.484,0,0,1,.858-1.068L.474-.4A3.217,3.217,0,0,0,2.3.156ZM7.11.144A2.252,2.252,0,0,0,8.838-.7a6.137,6.137,0,0,0,.084.7H9.8a5.525,5.525,0,0,1-.132-1.308V-4A1.72,1.72,0,0,0,7.7-5.9a2.837,2.837,0,0,0-2.028.792l.468.612a2.136,2.136,0,0,1,1.5-.624c.792,0,1.152.348,1.152,1.2v.54H8.538c-1.392,0-3.072.456-3.072,1.98A1.52,1.52,0,0,0,7.11.144Zm.144-.756A.81.81,0,0,1,6.4-1.428c0-.972.9-1.308,2.136-1.308H8.79v1.3A1.905,1.905,0,0,1,7.254-.612ZM11.61,0h.876V-8.64H11.61ZM16.7.144a3.435,3.435,0,0,0,1.98-.588l-.36-.684a2.878,2.878,0,0,1-1.6.516c-1.3,0-1.788-1.068-1.812-2.292h3.9c.012-.144.024-.276.024-.408,0-1.572-.84-2.592-2.268-2.592a2.72,2.72,0,0,0-2.592,2.988C13.974-1.212,14.886.144,16.7.144ZM14.958-3.6c.156-.9.66-1.548,1.584-1.548,1,0,1.368.732,1.392,1.548Z" transform="translate(-21155.824 -15330.686)" fill="#005157"/>
    </g>
    <g id="Raggruppa_29690" data-name="Raggruppa 29690" transform="translate(326 228)">
      <rect id="Rettangolo_12142-4" data-name="Rettangolo 12142" width="87.356" height="19.268" rx="9.634" transform="translate(-21199.652 -15343.325)" fill="#e1eded"/>
      <path id="Tracciato_87001" data-name="Tracciato 87001" d="M-31.56,0h.948V-7.2h2.268v-.792h-5.484V-7.2h2.268Zm4.836-6.84a.645.645,0,0,0,.648-.648.645.645,0,0,0-.648-.648.645.645,0,0,0-.648.648A.645.645,0,0,0-26.724-6.84ZM-27.168,0h.888V-5.76h-.888Zm2.928,2.628h.876V-.36a2.073,2.073,0,0,0,1.464.5c1.488,0,2.544-1.224,2.544-3.036,0-1.908-.936-3.012-2.34-3.012a2.121,2.121,0,0,0-1.668.768V-5.76h-.876Zm2.256-3.24a1.924,1.924,0,0,1-1.38-.528V-4.308a1.934,1.934,0,0,1,1.488-.8c1.092,0,1.584.96,1.584,2.244S-20.88-.612-21.984-.612Zm6.252.756A2.791,2.791,0,0,0-13.02-2.892,2.8,2.8,0,0,0-15.768-5.9c-1.944,0-2.628,1.692-2.628,3.036A2.733,2.733,0,0,0-15.732.144Zm.012-.756c-1.2,0-1.74-1.044-1.74-2.28s.48-2.256,1.68-2.256,1.824,1.044,1.824,2.28S-14.52-.612-15.72-.612Zm8.736.756a2.1,2.1,0,0,0,1.668-.8A3.772,3.772,0,0,0-5.208,0h.876a5.627,5.627,0,0,1-.144-1.176V-8.64h-.876V-5.4a2.107,2.107,0,0,0-1.464-.5C-8.268-5.9-9.36-4.692-9.36-2.868-9.36-.948-8.364.144-6.984.144Zm.18-.792c-1.152,0-1.62-.936-1.62-2.244s.6-2.256,1.692-2.256a1.911,1.911,0,0,1,1.38.528v3.18A1.875,1.875,0,0,1-6.8-.648Zm4.74-6.192a.645.645,0,0,0,.648-.648.645.645,0,0,0-.648-.648.645.645,0,0,0-.648.648A.645.645,0,0,0-2.064-6.84ZM-2.508,0h.888V-5.76h-.888Zm7.74.144A2.755,2.755,0,0,0,7.044-.432l-.36-.66a2.34,2.34,0,0,1-1.4.48C4.08-.612,3.552-1.68,3.552-2.9c0-1.26.516-2.244,1.7-2.244a2.059,2.059,0,0,1,1.356.48l.42-.66A2.711,2.711,0,0,0,5.268-5.9,2.7,2.7,0,0,0,2.616-2.88C2.616-1.3,3.528.144,5.232.144Zm5.268,0a2.791,2.791,0,0,0,2.712-3.036A2.8,2.8,0,0,0,10.464-5.9C8.52-5.9,7.836-4.212,7.836-2.868A2.733,2.733,0,0,0,10.5.144Zm.012-.756c-1.2,0-1.74-1.044-1.74-2.28s.48-2.256,1.68-2.256,1.824,1.044,1.824,2.28S11.712-.612,10.512-.612Zm6.036.756a2.1,2.1,0,0,0,1.668-.8,3.772,3.772,0,0,0,.108.66H19.2a5.627,5.627,0,0,1-.144-1.176V-8.64H18.18V-5.4a2.107,2.107,0,0,0-1.464-.5c-1.452,0-2.544,1.212-2.544,3.036C14.172-.948,15.168.144,16.548.144Zm.18-.792c-1.152,0-1.62-.936-1.62-2.244s.6-2.256,1.692-2.256a1.911,1.911,0,0,1,1.38.528v3.18A1.875,1.875,0,0,1,16.728-.648Zm4.74-6.192a.645.645,0,0,0,.648-.648.645.645,0,0,0-.648-.648.645.645,0,0,0-.648.648A.645.645,0,0,0,21.468-6.84ZM21.024,0h.888V-5.76h-.888Zm5.04.144a2.755,2.755,0,0,0,1.812-.576l-.36-.66a2.34,2.34,0,0,1-1.4.48c-1.2,0-1.728-1.068-1.728-2.292,0-1.26.516-2.244,1.7-2.244a2.059,2.059,0,0,1,1.356.48l.42-.66A2.711,2.711,0,0,0,26.1-5.9,2.7,2.7,0,0,0,23.448-2.88C23.448-1.3,24.36.144,26.064.144Zm5.328,0a3.435,3.435,0,0,0,1.98-.588l-.36-.684a2.878,2.878,0,0,1-1.6.516c-1.3,0-1.788-1.068-1.812-2.292h3.9c.012-.144.024-.276.024-.408,0-1.572-.84-2.592-2.268-2.592a2.72,2.72,0,0,0-2.592,2.988C28.668-1.212,29.58.144,31.392.144ZM29.652-3.6c.156-.9.66-1.548,1.584-1.548,1,0,1.368.732,1.392,1.548Z" transform="translate(-21155.824 -15330.686)" fill="#005157"/>
    </g>
    <g id="Raggruppa_29688" data-name="Raggruppa 29688" transform="translate(285 5)">
      <rect id="Rettangolo_12142-5" data-name="Rettangolo 12142" width="58.712" height="18.62" rx="9.31" transform="translate(-21184.809 -15342.678)" fill="#e1eded"/>
      <path id="Tracciato_86999" data-name="Tracciato 86999" d="M-18.984,0h.936V-7.992h-.936Zm3.144,0h.876V-4.068A2.2,2.2,0,0,1-13.4-5.112c.672,0,.924.456.924,1.176V0h.876V-4.212a2.121,2.121,0,0,1,1.536-.9c.732,0,.948.48.948,1.176V0h.876V-4.1c0-1.02-.456-1.8-1.62-1.8a2.482,2.482,0,0,0-1.86.972A1.43,1.43,0,0,0-13.2-5.9a2.206,2.206,0,0,0-1.764.96V-5.76h-.876Zm9.516,2.628h.876V-.36a2.073,2.073,0,0,0,1.464.5C-2.5.144-1.44-1.08-1.44-2.892-1.44-4.8-2.376-5.9-3.78-5.9a2.121,2.121,0,0,0-1.668.768V-5.76h-.876Zm2.256-3.24a1.924,1.924,0,0,1-1.38-.528V-4.308a1.934,1.934,0,0,1,1.488-.8c1.092,0,1.584.96,1.584,2.244S-2.964-.612-4.068-.612ZM2.184.144A2.791,2.791,0,0,0,4.9-2.892,2.8,2.8,0,0,0,2.148-5.9C.2-5.9-.48-4.212-.48-2.868A2.733,2.733,0,0,0,2.184.144ZM2.2-.612C1-.612.456-1.656.456-2.892s.48-2.256,1.68-2.256S3.96-4.1,3.96-2.868,3.4-.612,2.2-.612ZM6.36,0h.876V-3.864c.072-.18.552-1.176,1.416-1.176a.989.989,0,0,1,.5.1l.216-.84a1.27,1.27,0,0,0-.6-.12A1.9,1.9,0,0,0,7.236-4.86v-.9H6.36Zm6.024.144A2.22,2.22,0,0,0,13.6-.2l-.324-.66a1.461,1.461,0,0,1-.78.252c-.5,0-.672-.276-.672-.852v-3.6h1.452v-.7H11.82V-7.4h-.876V-5.76H10v.7h.948V-1.38A1.334,1.334,0,0,0,12.384.144Zm4.632,0a2.791,2.791,0,0,0,2.712-3.036A2.8,2.8,0,0,0,16.98-5.9c-1.944,0-2.628,1.692-2.628,3.036A2.733,2.733,0,0,0,17.016.144Zm.012-.756c-1.2,0-1.74-1.044-1.74-2.28s.48-2.256,1.68-2.256,1.824,1.044,1.824,2.28S18.228-.612,17.028-.612Z" transform="translate(-21155.824 -15330.686)" fill="#005157"/>
    </g>
    <rect id="Rettangolo_12163" data-name="Rettangolo 12163" width="340" height="9" transform="translate(-21161.824 -15309.686)" fill="#fff"/>
    <rect id="Rettangolo_12164" data-name="Rettangolo 12164" width="340" height="9" transform="translate(-21161.824 -15297.686)" fill="#fff"/>
    <rect id="Rettangolo_12165" data-name="Rettangolo 12165" width="340" height="27" transform="translate(-21161.824 -15266.686)" fill="#fff"/>
    <rect id="Rettangolo_12166" data-name="Rettangolo 12166" width="242" height="24" transform="translate(-21066.824 -15217.686)" fill="#fff"/>
    <rect id="Rettangolo_12167" data-name="Rettangolo 12167" width="242" height="12" transform="translate(-21066.824 -15181.686)" fill="#fff"/>
    <rect id="Rettangolo_12168" data-name="Rettangolo 12168" width="53" height="12" transform="translate(-21066.824 -15161.686)" fill="#fff"/>
    <rect id="Rettangolo_12169" data-name="Rettangolo 12169" width="180" height="12" transform="translate(-21004.824 -15161.686)" fill="#fff"/>
  </g>
</svg>
