<svg id="Icon_24pt_Phone" data-name="Icon/24pt/Phone" xmlns="http://www.w3.org/2000/svg" width="24" height="24" viewBox="0 0 24 24">
  <g id="Rettangolo_4" data-name="Rettangolo 4" fill="none" stroke="#e37222" stroke-width="1" opacity="0">
    <rect width="24" height="24" stroke="none"/>
    <rect x="0.5" y="0.5" width="23" height="23" fill="none"/>
  </g>
  <path id="Call" d="M15.908.961a2.862,2.862,0,0,1,.315.017l3.2.356a2.519,2.519,0,0,1,2.315,2.735c-.237,2.259-1.348,6.762-6.129,11.543S6.329,21.505,4.07,21.742a2.505,2.505,0,0,1-.261.014A2.408,2.408,0,0,1,2.1,21.048a2.707,2.707,0,0,1-.769-1.621l-.356-3.2A2.846,2.846,0,0,1,2.4,13.436l2.3-1.311a2.848,2.848,0,0,1,3.426.459l.589.589a.572.572,0,0,0,.375.187.259.259,0,0,0,.115-.026,8.721,8.721,0,0,0,2.389-1.748A8.72,8.72,0,0,0,13.333,9.2a.472.472,0,0,0-.161-.49l-.589-.589a2.854,2.854,0,0,1-.459-3.426l1.311-2.3A2.854,2.854,0,0,1,15.908.961Zm-12.1,18.8.052,0c2-.21,5.993-1.21,10.339-5.555S19.544,5.856,19.754,3.86c.033-.31-.251-.505-.547-.538L16,2.966a.858.858,0,0,0-.094-.005.849.849,0,0,0-.736.427l-1.311,2.3A.85.85,0,0,0,14,6.7l.589.589a2.421,2.421,0,0,1,.554,2.76A10.73,10.73,0,0,1,13,13a10.731,10.731,0,0,1-2.947,2.141,2.251,2.251,0,0,1-.971.219,2.567,2.567,0,0,1-1.789-.772L6.7,14a.848.848,0,0,0-1.02-.137l-2.3,1.311a.847.847,0,0,0-.422.83l.356,3.2C3.353,19.48,3.53,19.756,3.809,19.756Z" transform="translate(0.642 0.641)" fill="#00845b"/>
</svg>
