<svg id="Raggruppa_27614" data-name="Raggruppa 27614" xmlns="http://www.w3.org/2000/svg" xmlns:xlink="http://www.w3.org/1999/xlink" width="41.519" height="41.606" viewBox="0 0 41.519 41.606">
  <defs>
    <filter id="Tracciato_86021" x="0.615" y="0.684" width="40.905" height="40.921" filterUnits="userSpaceOnUse">
      <feOffset dy="2" input="SourceAlpha"/>
      <feGaussianBlur stdDeviation="2" result="blur"/>
      <feFlood flood-color="#05696f" flood-opacity="0.239"/>
      <feComposite operator="in" in2="blur"/>
      <feComposite in="SourceGraphic"/>
    </filter>
  </defs>
  <rect id="Rettangolo_590" data-name="Rettangolo 590" width="40" height="40" fill="none"/>
  <g id="Raggruppa_27434" data-name="Raggruppa 27434" transform="translate(4.999 5.2)">
    <path id="Tracciato_86020" data-name="Tracciato 86020" d="M4.135,20.615a3.9,3.9,0,0,0-2.268,1.119A9.058,9.058,0,0,0,.1,25.86l-.069.357a1.751,1.751,0,0,0,.274,1.321,1.729,1.729,0,0,0,1.108.735,1.638,1.638,0,0,0,.346.035,1.762,1.762,0,0,0,.293-.024l.355-.061a8.522,8.522,0,0,0,4.131-1.738,3.548,3.548,0,0,0,.271-4.99,3.207,3.207,0,0,0-2.674-.88m1.031,4.417a6.566,6.566,0,0,1-3.09,1.219l-.015,0,0-.019a7.206,7.206,0,0,1,1.222-3.093A1.894,1.894,0,0,1,4.393,22.6l.019,0a1.4,1.4,0,0,1,.171-.011,1.145,1.145,0,0,1,.769.278,1.543,1.543,0,0,1-.186,2.17" transform="translate(0.001 1.339)" fill="#00ad64"/>
    <g transform="matrix(1, 0, 0, 1, -5, -5.2)" filter="url(#Tracciato_86021)">
      <path id="Tracciato_86021-2" data-name="Tracciato 86021" d="M28.786.988a1.012,1.012,0,0,0-.829-.806C25.471-.226,16.716-.8,8.568,8.988l-.112.118a.311.311,0,0,1-.232.091,9.863,9.863,0,0,0-6.694,1.865,1.013,1.013,0,0,0,.036,1.66L6.54,16.035a.338.338,0,0,1,.087.473.989.989,0,0,0-.054.089,4.231,4.231,0,0,0,.743,5.043,4.425,4.425,0,0,0,5.04.71.337.337,0,0,1,.443.112l3.33,4.994a1.013,1.013,0,0,0,.814.45h.028a1.01,1.01,0,0,0,.809-.4,9.678,9.678,0,0,0,1.939-6.271v-.174c0-.017,0-.033,0-.051A1.044,1.044,0,0,0,19.7,20.8a.353.353,0,0,1,.11-.246C27.082,14.823,29.83,6.373,28.786.988M18.537,18.978a2.382,2.382,0,0,0-.858,1.708,2.292,2.292,0,0,0,.016.457v.139a7.7,7.7,0,0,1-.759,3.736l-2.451-3.676a2.359,2.359,0,0,0-1.967-1.063,2.315,2.315,0,0,0-1.1.277A2.374,2.374,0,0,1,8.73,20.19a2.207,2.207,0,0,1-.4-2.59,2.377,2.377,0,0,0-.674-3.253L4.025,11.927a7.826,7.826,0,0,1,4.031-.711,2.323,2.323,0,0,0,1.836-.682c.047-.046.214-.225.232-.249,6.8-8.167,13.9-8.486,16.782-8.2.44,4.064-1.364,11.374-8.368,16.892" transform="translate(6 5.2)" fill="#00ae65" stroke="rgba(0,0,0,0)" stroke-width="1"/>
    </g>
  </g>
</svg>
