<svg id="Icon_24pt_Checkmark_Circle" data-name="Icon/24pt/Checkmark Circle" xmlns="http://www.w3.org/2000/svg" width="103" height="103" viewBox="0 0 103 103">
  <path id="_24pt_Bounding_Box" data-name="24pt Bounding Box" d="M0,0H103V103H0Z" fill="none" opacity="0"/>
  <path id="_Icon_style" data-name="🎨 Icon style" d="M0,42.916A42.916,42.916,0,1,1,42.916,85.832,42.963,42.963,0,0,1,0,42.916Zm8.582,0A34.334,34.334,0,1,0,42.916,8.582,34.375,34.375,0,0,0,8.582,42.916Zm26.35,15.535L24.5,45.106a4.3,4.3,0,0,1,6.783-5.28l6.995,9.058L54.5,27.424h-.042a4.318,4.318,0,1,1,6.868,5.238L41.715,58.409a4.293,4.293,0,0,1-3.391,1.676h-.013A4.3,4.3,0,0,1,34.932,58.451Z" transform="translate(8.583 8.583)" fill="#00ae65"/>
</svg>
