<svg xmlns="http://www.w3.org/2000/svg" xmlns:xlink="http://www.w3.org/1999/xlink" width="107" height="69" viewBox="0 0 107 69">
  <defs>
    <linearGradient id="linear-gradient" x1="0.5" x2="0.5" y2="1" gradientUnits="objectBoundingBox">
      <stop offset="0" stop-color="#60cc9f"/>
      <stop offset="1" stop-color="#3a888c"/>
    </linearGradient>
  </defs>
  <path id="Unione_41" data-name="Unione 41" d="M5.852,68A5.934,5.934,0,0,1,0,62V6A5.934,5.934,0,0,1,5.852,0h94.3A5.934,5.934,0,0,1,106,6V62a5.934,5.934,0,0,1-5.852,6ZM3.192,62a2.7,2.7,0,0,0,2.659,2.727h94.3A2.7,2.7,0,0,0,102.808,62V12.971H3.192Zm0-56V9.755h99.616V6a2.7,2.7,0,0,0-2.66-2.727H5.852A2.7,2.7,0,0,0,3.192,6ZM51.036,57.856V19.321a1.482,1.482,0,1,1,2.964,0V57.856a1.482,1.482,0,1,1-2.964,0Zm42.921,1.362a1.349,1.349,0,0,1,0-2.7h1.459a1.349,1.349,0,0,1,0,2.7Zm-6.268,0a1.349,1.349,0,0,1,0-2.7h1.46a1.349,1.349,0,0,1,0,2.7Zm-6.268,0a1.349,1.349,0,0,1,0-2.7h1.46a1.349,1.349,0,0,1,0,2.7Zm-6.268,0a1.349,1.349,0,0,1,0-2.7h1.46a1.349,1.349,0,0,1,0,2.7Zm-6.268,0a1.349,1.349,0,0,1,0-2.7h1.46a1.349,1.349,0,0,1,0,2.7Zm25.07-8.489a1.35,1.35,0,0,1,0-2.7h1.459a1.349,1.349,0,0,1,0,2.7Zm-6.268,0a1.35,1.35,0,0,1,0-2.7h1.46a1.35,1.35,0,0,1,0,2.7Zm-6.268,0a1.35,1.35,0,0,1,0-2.7h1.46a1.35,1.35,0,0,1,0,2.7Zm-6.268,0a1.35,1.35,0,0,1,0-2.7h1.46a1.35,1.35,0,0,1,0,2.7Zm-6.268,0a1.35,1.35,0,0,1,0-2.7h1.46a1.35,1.35,0,0,1,0,2.7ZM36.41,43.667a1.349,1.349,0,0,1,0-2.7h1.46a1.349,1.349,0,0,1,0,2.7Zm-6.267,0a1.349,1.349,0,0,1,0-2.7H31.6a1.349,1.349,0,0,1,0,2.7Zm-6.268,0a1.349,1.349,0,0,1,0-2.7h1.46a1.349,1.349,0,0,1,0,2.7Zm-6.268,0a1.349,1.349,0,0,1,0-2.7h1.46a1.349,1.349,0,0,1,0,2.7Zm-6.268,0a1.349,1.349,0,0,1,0-2.7H12.8a1.349,1.349,0,0,1,0,2.7ZM36.41,35.178a1.349,1.349,0,0,1,0-2.7h1.46a1.349,1.349,0,0,1,0,2.7Zm-6.267,0a1.349,1.349,0,0,1,0-2.7H31.6a1.349,1.349,0,0,1,0,2.7Zm-6.268,0a1.349,1.349,0,0,1,0-2.7h1.46a1.349,1.349,0,0,1,0,2.7Zm-6.268,0a1.349,1.349,0,0,1,0-2.7h1.46a1.349,1.349,0,0,1,0,2.7Zm-6.268,0a1.349,1.349,0,0,1,0-2.7H12.8a1.349,1.349,0,0,1,0,2.7ZM12.45,23.559H11.341a.9.9,0,0,1,0-1.8h.738c0-.059-.009-.116-.009-.176,0-.019,0-.036,0-.055h-.732a.9.9,0,0,1,0-1.8h1.066a5.118,5.118,0,0,1,4.77-3.384,5.037,5.037,0,0,1,3.279,1.222.916.916,0,0,1,.109,1.267.866.866,0,0,1-1.237.112,3.29,3.29,0,0,0-4.966.783H17.9a.9.9,0,0,1,0,1.8H13.829c0,.019-.005.036-.005.055,0,.06.014.116.018.176H17.2a.9.9,0,0,1,0,1.8h-2.76a3.291,3.291,0,0,0,5.107.456.86.86,0,0,1,1.24,0,.916.916,0,0,1,0,1.272,5.012,5.012,0,0,1-3.612,1.534A5.116,5.116,0,0,1,12.45,23.559Z" transform="translate(0.5 0.5)" stroke="rgba(0,0,0,0)" stroke-width="1" fill="url(#linear-gradient)"/>
</svg>
