<svg id="Livello_1" data-name="Livello 1" xmlns="http://www.w3.org/2000/svg" xmlns:xlink="http://www.w3.org/1999/xlink" viewBox="0 0 80 80"><defs><style>.cls-1{fill:none;}.cls-2{fill:url(#linear-gradient);}</style><linearGradient id="linear-gradient" x1="594.51" y1="3171.4" x2="594.51" y2="3170.4" gradientTransform="matrix(112.25, 0, 0, -63, -66696.92, 199806.5)" gradientUnits="userSpaceOnUse"><stop offset="0" stop-color="#60cc9f"/><stop offset="1" stop-color="#3a888c"/></linearGradient></defs><g id="Raggruppa_29847" data-name="Raggruppa 29847"><rect id="Rettangolo_590" data-name="Rettangolo 590" class="cls-1" width="80" height="80"/><g id="Raggruppa_28731" data-name="Raggruppa 28731"><path id="Unione_39-2" data-name="Unione 39-2" class="cls-2" d="M21.5,71A5.51,5.51,0,0,1,16,65.47V13.54A5.52,5.52,0,0,1,21.5,8h36A5.54,5.54,0,0,1,63,13.54V53.17l-.1.12L47.33,70.9l-.09.1ZM19.92,13.54V65.47a1.59,1.59,0,0,0,1.58,1.59H43.41V54.88a5.52,5.52,0,0,1,5.5-5.53H59.08V13.54a1.6,1.6,0,0,0-1.59-1.6h-36A1.59,1.59,0,0,0,19.92,13.54ZM47.33,54.88V65L57.65,53.28H48.92A1.6,1.6,0,0,0,47.33,54.88Zm-22.1,8.25a2,2,0,1,1,0-3.94H37.44a2,2,0,0,1,0,3.94Zm0-9.85a2,2,0,1,1,0-3.93H37.44a2,2,0,1,1,0,3.93Zm0-9.84a2,2,0,0,1-1.92-2,2,2,0,0,1,1.92-1.93H53.49a2,2,0,0,1,0,3.94ZM26.51,23.9H24a1.22,1.22,0,0,0-.49.09.72.72,0,0,0-.35.34,1.24,1.24,0,0,0-.09.5v4.1a.93.93,0,0,0,.22.67.82.82,0,0,0,1.17,0,1,1,0,0,0,.23-.68V27.44h1.52a.81.81,0,0,0,.55-.18.62.62,0,0,0,.21-.49.66.66,0,0,0-.21-.5.79.79,0,0,0-.55-.18H24.64v-.82h1.87a.85.85,0,0,0,.57-.19.64.64,0,0,0,.21-.5.66.66,0,0,0-.21-.5A.85.85,0,0,0,26.51,23.9ZM32.07,28a4.6,4.6,0,0,0-.49-.67c-.06-.06-.11-.12-.17-.17a1.83,1.83,0,0,0,.63-.42,1.57,1.57,0,0,0,.42-1.14,1.82,1.82,0,0,0-.12-.65,1.51,1.51,0,0,0-.36-.54,1.52,1.52,0,0,0-.52-.36,2.21,2.21,0,0,0-.55-.15,6.12,6.12,0,0,0-.66,0H28.49a.82.82,0,0,0-.93.93v4.1a1,1,0,0,0,.2.66.76.76,0,0,0,.61.26.77.77,0,0,0,.58-.24,1,1,0,0,0,.23-.68V27.48h.11a1,1,0,0,1,.38.06.71.71,0,0,1,.27.21,3.65,3.65,0,0,1,.39.57l.44.72c.1.17.19.3.25.39a1,1,0,0,0,.28.29.78.78,0,0,0,.46.13.8.8,0,0,0,.39-.09.79.79,0,0,0,.29-.25.72.72,0,0,0,.11-.36,1.15,1.15,0,0,0-.14-.48A4.54,4.54,0,0,0,32.07,28ZM30.82,25.7a.41.41,0,0,1-.07.27.49.49,0,0,1-.28.14,2.38,2.38,0,0,1-.59.06h-.7v-.93h.73a2.19,2.19,0,0,1,.65.06.43.43,0,0,1,.19.16A.4.4,0,0,1,30.82,25.7Zm6,2.67H34.57v-1h2a.81.81,0,0,0,.56-.19.69.69,0,0,0,.21-.49.63.63,0,0,0-.22-.49.78.78,0,0,0-.55-.18h-2v-.77h2.18a.81.81,0,0,0,.56-.19.65.65,0,0,0,.22-.5.67.67,0,0,0-.22-.5.8.8,0,0,0-.56-.18H33.88a1.22,1.22,0,0,0-.49.09.77.77,0,0,0-.35.34,1.24,1.24,0,0,0-.09.5v4a.82.82,0,0,0,.93.93h2.95a.8.8,0,0,0,.57-.19.69.69,0,0,0,0-1A.8.8,0,0,0,36.83,28.37Zm5.48-1.29a.63.63,0,0,0-.54.23,1.51,1.51,0,0,0-.22.42,1.1,1.1,0,0,1-.39.55,1.22,1.22,0,0,1-1.24,0,1.08,1.08,0,0,1-.4-.5,2.44,2.44,0,0,1-.15-.93,2,2,0,0,1,.34-1.27,1,1,0,0,1,.85-.4,1,1,0,0,1,.56.15,1.41,1.41,0,0,1,.41.5,1.59,1.59,0,0,0,.29.4.74.74,0,0,0,1-.05.76.76,0,0,0,.2-.51,1.51,1.51,0,0,0-.32-.87,2.32,2.32,0,0,0-.87-.72A3,3,0,0,0,39.45,24a2.6,2.6,0,0,0-.92.61,2.77,2.77,0,0,0-.59,1,3.52,3.52,0,0,0-.21,1.25,4.09,4.09,0,0,0,.08.8,3.49,3.49,0,0,0,.25.73,2.79,2.79,0,0,0,.4.61,2.23,2.23,0,0,0,1.29.78,3.58,3.58,0,0,0,.83.09,2.83,2.83,0,0,0,1.09-.2,2.42,2.42,0,0,0,.78-.52,2.58,2.58,0,0,0,.45-.66,1.65,1.65,0,0,0,.15-.66.71.71,0,0,0-.22-.52A.75.75,0,0,0,42.31,27.08Zm5.54,0a.63.63,0,0,0-.54.23,1.27,1.27,0,0,0-.21.42,1.1,1.1,0,0,1-.39.55,1.24,1.24,0,0,1-1.25,0,1.08,1.08,0,0,1-.4-.5,2.44,2.44,0,0,1-.15-.93,2,2,0,0,1,.34-1.27,1,1,0,0,1,.86-.4.94.94,0,0,1,.55.15,1.33,1.33,0,0,1,.42.5,1.6,1.6,0,0,0,.28.4.74.74,0,0,0,1-.05.76.76,0,0,0,.2-.51,1.44,1.44,0,0,0-.32-.87,2.32,2.32,0,0,0-.87-.72A3,3,0,0,0,45,24a2.65,2.65,0,0,0-.91.61,2.79,2.79,0,0,0-.6,1,3.53,3.53,0,0,0-.2,1.25,3.45,3.45,0,0,0,.08.8,3,3,0,0,0,.24.73A3.21,3.21,0,0,0,44,29a2.54,2.54,0,0,0,.59.51,2.33,2.33,0,0,0,.71.27,3.58,3.58,0,0,0,.83.09,2.81,2.81,0,0,0,1.08-.2,2.32,2.32,0,0,0,.78-.52,2.35,2.35,0,0,0,.45-.66,1.65,1.65,0,0,0,.15-.66.71.71,0,0,0-.22-.52A.72.72,0,0,0,47.85,27.08Zm1.45-3a.94.94,0,0,0-.23.67v4.2a1,1,0,0,0,.23.67.78.78,0,0,0,.58.25.75.75,0,0,0,.59-.25.94.94,0,0,0,.23-.67v-4.2a1,1,0,0,0-.23-.68A.83.83,0,0,0,49.3,24.06Zm7,4.36L54.92,25l-.17-.42a1.83,1.83,0,0,0-.18-.34,1,1,0,0,0-.34-.3,1.12,1.12,0,0,0-1,0,.92.92,0,0,0-.34.31,2,2,0,0,0-.2.39l-1.51,3.82c-.06.14-.1.26-.13.34a1.18,1.18,0,0,0,0,.31.71.71,0,0,0,.24.53.8.8,0,0,0,.55.22.67.67,0,0,0,.56-.24,2.49,2.49,0,0,0,.29-.61l.19-.51h1.81l.19.5.13.29a1.33,1.33,0,0,0,.17.3.78.78,0,0,0,.24.2.74.74,0,0,0,.34.07.77.77,0,0,0,.56-.23.72.72,0,0,0,.24-.53A1.82,1.82,0,0,0,56.31,28.42Zm-2.17-1.28H53.3L53.72,26Z"/></g></g></svg>