<svg xmlns="http://www.w3.org/2000/svg" width="120" height="120" viewBox="0 0 120 120">
  <defs>
    <style>
      .cls-1 {
        fill: none;
      }

      .cls-2 {
        fill: #9d0000;
      }

      .cls-3 {
        fill: #f7fafa;
      }
    </style>
  </defs>
  <g id="Raggruppa_26763" data-name="Raggruppa 26763" transform="translate(-168.281 -386.281)">
    <rect id="Rettangolo_630" data-name="Rettangolo 630" class="cls-1" width="120" height="120" transform="translate(168.281 386.281)"/>
    <g id="Raggruppa_26765" data-name="Raggruppa 26765" transform="translate(193.215 411.617)">
      <path id="Tracciato_504" data-name="Tracciato 504" class="cls-2" d="M43.163,8.5A34.664,34.664,0,1,0,77.828,43.163,34.7,34.7,0,0,0,43.163,8.5Zm0,63.3A28.636,28.636,0,1,1,71.8,43.163,28.668,28.668,0,0,1,43.163,71.8Z" transform="translate(-8.499 -8.499)"/>
      <path id="Tracciato_503" data-name="Tracciato 503" class="cls-3" d="M39.135,10.5A28.636,28.636,0,1,0,67.772,39.135,28.668,28.668,0,0,0,39.135,10.5Zm2.14,49.614a3.007,3.007,0,0,1-4.913-3.285A3.111,3.111,0,0,1,37,55.833a3.078,3.078,0,0,1,3.285-.633,2.717,2.717,0,0,1,1.628,1.628,2.983,2.983,0,0,1-.633,3.285Zm.874-14.2a3.014,3.014,0,1,1-6.028,0V20.3a3.014,3.014,0,1,1,6.028,0Z" transform="translate(-4.471 -4.471)"/>
      <path id="Tracciato_505" data-name="Tracciato 505" class="cls-2" d="M22.014,12.75A3.013,3.013,0,0,0,19,15.764V41.383a3.014,3.014,0,1,0,6.028,0V15.764A3.013,3.013,0,0,0,22.014,12.75Z" transform="translate(12.65 0.063)"/>
      <path id="Tracciato_506" data-name="Tracciato 506" class="cls-2" d="M24.154,26.113a3.111,3.111,0,0,0-.995-.633,3.078,3.078,0,0,0-3.285.633,3.111,3.111,0,0,0-.633.995,3.014,3.014,0,1,0,5.546,0A3.111,3.111,0,0,0,24.154,26.113Z" transform="translate(12.65 25.249)"/>
    </g>
  </g>
</svg>
