<svg id="Icon_24pt_Pin" data-name="Icon/24pt/Pin" xmlns="http://www.w3.org/2000/svg" width="24" height="24" viewBox="0 0 24 24">
  <g id="Rettangolo_4" data-name="Rettangolo 4" fill="none" stroke="#14142b" stroke-width="1" opacity="0">
    <rect width="24" height="24" stroke="none"/>
    <rect x="0.5" y="0.5" width="23" height="23" fill="none"/>
  </g>
  <g id="Location" transform="translate(1.886 1.873)">
    <path id="Unione_22" data-name="Unione 22" d="M10121.646,6038.81c-2.812-2.314-7.532-6.762-7.532-10.568a9.115,9.115,0,0,1,18.23,0c0,3.807-4.72,8.254-7.532,10.568a2.476,2.476,0,0,1-3.166,0Zm-5.533-10.568c0,1.261.88,2.96,2.543,4.913a35.554,35.554,0,0,0,4.259,4.112.5.5,0,0,0,.313.114.492.492,0,0,0,.313-.114,35.761,35.761,0,0,0,4.262-4.112c1.663-1.953,2.54-3.652,2.54-4.913a7.115,7.115,0,1,0-14.229,0Zm3.682,0a3.434,3.434,0,1,1,3.436,3.433A3.439,3.439,0,0,1,10119.795,6028.242Zm2,0a1.436,1.436,0,1,0,1.437-1.434A1.436,1.436,0,0,0,10121.794,6028.242Z" transform="translate(-10113.114 -6019.127)" fill="#00ae65"/>
  </g>
</svg>
