<svg id="mc_idcheck_hrz_rgb_pos" xmlns="http://www.w3.org/2000/svg" width="115" height="32.847" viewBox="0 0 115 32.847">
  <rect id="Rettangolo_11316" data-name="Rettangolo 11316" width="115" height="32.847" fill="none"/>
  <rect id="Rettangolo_11317" data-name="Rettangolo 11317" width="7.185" height="12.912" transform="translate(17.905 9.967)" fill="#ff5f00"/>
  <path id="Tracciato_86237" data-name="Tracciato 86237" d="M190.067,278.211a8.2,8.2,0,0,1,3.136-6.456,8.212,8.212,0,1,0,0,12.912A8.2,8.2,0,0,1,190.067,278.211Z" transform="translate(-171.706 -261.788)" fill="#eb001b"/>
  <path id="Tracciato_86238" data-name="Tracciato 86238" d="M251.45,278.211a8.211,8.211,0,0,1-13.286,6.456,8.213,8.213,0,0,0,0-12.912,8.211,8.211,0,0,1,13.286,6.456Z" transform="translate(-216.666 -261.788)" fill="#f79e1b"/>
  <path id="Tracciato_86239" data-name="Tracciato 86239" d="M292.416,327.229v-.264h.107v-.054h-.271v.054h.107v.264Zm.527,0v-.319h-.083l-.1.219-.1-.219h-.083v.319h.059v-.24l.09.207h.061l.09-.208v.241Z" transform="translate(-258.417 -305.717)" fill="#f79e1b"/>
  <path id="Tracciato_86240" data-name="Tracciato 86240" d="M188.128,51.941h-.3V35.316h.3V51.941Z" transform="translate(-144.981 -27.26)"/>
  <path id="Tracciato_86241" data-name="Tracciato 86241" d="M367.083,294.222h-.853v-9.793h.853Zm6.226-9.793a6.645,6.645,0,0,1,2.2.343,4.687,4.687,0,0,1,1.665.979,4.293,4.293,0,0,1,1.056,1.542,5.753,5.753,0,0,1,0,4.064,4.293,4.293,0,0,1-1.056,1.542,4.685,4.685,0,0,1-1.665.979,6.642,6.642,0,0,1-2.2.343h-3.575v-9.793Zm-2.721.811v8.17h2.721a5.64,5.64,0,0,0,1.889-.29,3.828,3.828,0,0,0,1.378-.822,3.426,3.426,0,0,0,.846-1.287,5.1,5.1,0,0,0,0-3.372,3.458,3.458,0,0,0-.846-1.291,3.764,3.764,0,0,0-1.378-.822,5.705,5.705,0,0,0-1.889-.287Zm17.935-.923a5.242,5.242,0,0,1,1.217.14,4.924,4.924,0,0,1,1.1.4,4.394,4.394,0,0,1,.93.633,3.881,3.881,0,0,1,.71.839l-.714.476a3.446,3.446,0,0,0-.6-.692,3.755,3.755,0,0,0-.763-.525,3.913,3.913,0,0,0-.9-.332,4.211,4.211,0,0,0-.99-.115,4.341,4.341,0,0,0-1.626.3,3.877,3.877,0,0,0-1.308.853,3.988,3.988,0,0,0-.874,1.322,4.735,4.735,0,0,0,0,3.414,3.987,3.987,0,0,0,.874,1.322,3.874,3.874,0,0,0,1.308.853,4.337,4.337,0,0,0,1.626.3,4.293,4.293,0,0,0,.986-.112,3.805,3.805,0,0,0,.892-.329,3.749,3.749,0,0,0,.762-.525,3.368,3.368,0,0,0,.6-.7l.7.511a4.147,4.147,0,0,1-.724.825,4.518,4.518,0,0,1-.923.623,4.794,4.794,0,0,1-1.088.4,5.469,5.469,0,0,1-3.193-.234,4.8,4.8,0,0,1-1.591-1.032,4.731,4.731,0,0,1-1.053-1.581,5.561,5.561,0,0,1,0-4.047,4.726,4.726,0,0,1,1.053-1.584,4.8,4.8,0,0,1,1.591-1.032A5.276,5.276,0,0,1,388.523,284.316Zm6.582,4.463a2.517,2.517,0,0,1,.458-.56,2.448,2.448,0,0,1,.57-.388,2.844,2.844,0,0,1,.644-.224,3.13,3.13,0,0,1,.672-.074,3.285,3.285,0,0,1,1.126.185,2.541,2.541,0,0,1,.878.528,2.313,2.313,0,0,1,.567.836,2.92,2.92,0,0,1,.2,1.1v4.036h-.8V290.43a2.7,2.7,0,0,0-.14-.9,1.79,1.79,0,0,0-.413-.675,1.815,1.815,0,0,0-.664-.423,2.542,2.542,0,0,0-.9-.147,2.349,2.349,0,0,0-.864.157,2.066,2.066,0,0,0-.7.448,2.108,2.108,0,0,0-.469.692,2.231,2.231,0,0,0-.172.885v3.749h-.8V284.149h.8Zm9.856-1.245a2.991,2.991,0,0,1,1.221.248,2.894,2.894,0,0,1,.972.692,3.292,3.292,0,0,1,.647,1.063,3.845,3.845,0,0,1,.245,1.354c0,.061,0,.118,0,.171s-.006.106-.01.158h-5.519a2.831,2.831,0,0,0,.255,1.021,2.411,2.411,0,0,0,.556.759,2.343,2.343,0,0,0,.787.472,2.763,2.763,0,0,0,.948.161,2.921,2.921,0,0,0,1.238-.252,3.467,3.467,0,0,0,.986-.686l.427.546a3.911,3.911,0,0,1-.64.525,3.418,3.418,0,0,1-.665.336,3.278,3.278,0,0,1-.689.175,5.088,5.088,0,0,1-.706.049,3.485,3.485,0,0,1-1.329-.248,3.092,3.092,0,0,1-1.049-.7,3.147,3.147,0,0,1-.686-1.07,3.734,3.734,0,0,1-.245-1.378,3.679,3.679,0,0,1,.248-1.368,3.251,3.251,0,0,1,.685-1.077,3.1,3.1,0,0,1,1.035-.7A3.293,3.293,0,0,1,404.962,287.534Zm-.014.706a2.4,2.4,0,0,0-.92.171,2.3,2.3,0,0,0-.731.476,2.466,2.466,0,0,0-.514.724,2.872,2.872,0,0,0-.255.923h4.708A2.846,2.846,0,0,0,407,289.6a2.353,2.353,0,0,0-.493-.724A2.192,2.192,0,0,0,404.948,288.241Zm7.687-.706A3.486,3.486,0,0,1,414,287.8a2.91,2.91,0,0,1,1.067.759l-.518.539a2.859,2.859,0,0,0-.864-.6,2.594,2.594,0,0,0-1.067-.213,2.521,2.521,0,0,0-1,.2,2.466,2.466,0,0,0-.808.553,2.526,2.526,0,0,0-.535.839,3.017,3.017,0,0,0,0,2.12,2.452,2.452,0,0,0,1.343,1.385,2.522,2.522,0,0,0,1,.2,2.582,2.582,0,0,0,1.081-.224,3,3,0,0,0,.871-.595l.5.546a2.982,2.982,0,0,1-1.07.759,3.673,3.673,0,0,1-2.718,0,3.176,3.176,0,0,1-1.763-1.787,3.784,3.784,0,0,1,0-2.7,3.168,3.168,0,0,1,1.763-1.791A3.5,3.5,0,0,1,412.635,287.534Zm4.826,2.882h1.07l2.77-2.777h1.007l-3.134,3.106,3.19,3.477h-1.014l-2.819-3.085h-1.07v3.085h-.8V284.149h.8Z" transform="translate(-315.52 -272.71)"/>
</svg>
