<svg id="Logo_BancodiSardegna" data-name="Logo/BancodiSardegna" xmlns="http://www.w3.org/2000/svg" xmlns:xlink="http://www.w3.org/1999/xlink" width="177" height="40" viewBox="0 0 177 40">
  <defs>
    <clipPath id="clip-path">
      <rect id="Rettangolo_11147" data-name="Rettangolo 11147" width="177" height="40" fill="none"/>
    </clipPath>
  </defs>
  <g id="Raggruppa_27708" data-name="Raggruppa 27708" clip-path="url(#clip-path)">
    <path id="Tracciato_86044" data-name="Tracciato 86044" d="M467.12,37.9h4.535v9.3h-1.082v.441H474.7V47.2h-1.163V40.909c0-2.084,1.023-3.046,2.125-3.046.942,0,1.4.5,1.4,1.984V47.2H475.9v.441h4.129V47.2H478.95V40.087c0-2.184-1.122-2.946-2.705-2.946a3.186,3.186,0,0,0-2.826,1.683l-.04-1.363H467.12Z" transform="translate(-311.942 -24.803)" fill="#005d44"/>
    <path id="Tracciato_86045" data-name="Tracciato 86045" d="M373.675,47.2h-1.082v.441h4.289V47.2H375.56V41.149c0-1.8.8-3.287,1.623-3.287.481,0,.681.441,1.042,1.5l.7,2.064h.441V37.5a3.662,3.662,0,0,0-1.383-.361,2.375,2.375,0,0,0-2.425,1.8l-.04-1.483h-2.926V37.9h1.082v9.3" transform="translate(-248.817 -24.803)" fill="#005d44"/>
    <path id="Tracciato_86046" data-name="Tracciato 86046" d="M512.274,43.509c0,2.207-1,3.692-2.505,3.732-1.062,0-1.624-.562-1.624-2.067,0-2.888,1.864-2.127,4.129-3.184Zm-4.489-2.4c.962-2.8,1.343-3.524,2.746-3.524a1.568,1.568,0,0,1,1.744,1.782v2.1c-2,1.221-6.133.2-6.133,3.709a2.737,2.737,0,0,0,3.046,2.788,3.207,3.207,0,0,0,3.047-2.086l.04,1.765H515V47.2h-.962V39.7c0-1.241-1.122-2.563-3.628-2.563a8.067,8.067,0,0,0-3.066.721v3.243Z" transform="translate(-338 -24.803)" fill="#005d44" fill-rule="evenodd"/>
    <path id="Tracciato_86047" data-name="Tracciato 86047" d="M316.264,35.019v4.409a7.817,7.817,0,0,0,3.728,1.122c3.087,0,5.211-1.884,5.211-4.409,0-2.2-1.042-2.966-4.008-4.088-2.706-1.022-3.768-1.423-3.768-2.926a2.8,2.8,0,0,1,3.026-2.646,2.6,2.6,0,0,1,2.786,2.044l.721,2.325h.441V26.842a9.041,9.041,0,0,0-3.768-.8c-2.726,0-4.569,1.6-4.569,3.968,0,4.75,7.456,3.207,7.456,7.175a3.03,3.03,0,0,1-3.267,2.926c-1.944,0-2.705-1.363-3.548-5.09Z" transform="translate(-211.067 -17.39)" fill="#005d44"/>
    <path id="Tracciato_86048" data-name="Tracciato 86048" d="M424.7,41.149c.16-2.325.9-3.567,2.145-3.567,1.042,0,1.7.782,1.7,2.786v.782Zm5.933.441c0-2.846-1.463-4.449-3.748-4.449-2.365,0-4.309,2.2-4.309,5.411s1.824,5.411,4.369,5.411c2.045,0,3.668-1.363,3.768-4.128h-.441c-.2,2.485-1.423,3.567-3.127,3.567-1.523,0-2.485-1.343-2.485-5.211,0-.2,0-.4.02-.6Z" transform="translate(-282.198 -24.803)" fill="#005d44" fill-rule="evenodd"/>
    <path id="Tracciato_86049" data-name="Tracciato 86049" d="M457.3,37.462h-2.465a3.912,3.912,0,0,0-1.583-.321,3.36,3.36,0,0,0-3.608,3.287,3.529,3.529,0,0,0,.762,2.324,2.522,2.522,0,0,0-2.085,2.518,2.188,2.188,0,0,0,1.764,2.249c-.541.222-1.283.783-1.283,1.525,0,1.083,1.323,2.406,4.329,2.406,2.645,0,4.369-1.6,4.369-3.228,0-4.427-8.1-.682-8.1-3.749a1.5,1.5,0,0,1,1.4-1.28,4.121,4.121,0,0,0,2.485.722,3.39,3.39,0,0,0,3.568-3.387,3.036,3.036,0,0,0-1.082-2.465h3.961Zm-5.652,3.066c0-2.345.561-2.946,1.6-2.946s1.6.6,1.6,2.946-.561,2.946-1.6,2.946C452.047,43.474,451.646,42.872,451.646,40.528Zm-1.563,8.577a1.676,1.676,0,0,1,.722-1.463l3.768.078c1.5.04,1.844.441,1.844,1.2,0,1.043-1.363,2.085-3.447,2.085-1.8,0-2.886-1-2.886-1.9" transform="translate(-299.385 -24.803)" fill="#005d44" fill-rule="evenodd"/>
    <path id="Tracciato_86050" data-name="Tracciato 86050" d="M404.344,40.874v-.441h-.962V27.006h-2.846v.441h.962v4.469a2.572,2.572,0,0,0-2.325-1.543c-2.064,0-3.768,1.944-3.768,5.431s1.844,5.391,3.728,5.391a2.359,2.359,0,0,0,2.445-1.543l.04,1.223Zm-6.854-4.89c0-4.068.8-5.05,1.984-5.05,1.323,0,2.144,1.443,2.144,5.05,0,3.207-.741,4.77-2.084,4.77-1.283,0-2.044-1.122-2.044-4.77" transform="translate(-264.051 -18.035)" fill="#005d44" fill-rule="evenodd"/>
    <path id="Tracciato_86051" data-name="Tracciato 86051" d="M294.332,28.991a1.142,1.142,0,1,0,1.142-1.142,1.105,1.105,0,0,0-1.142,1.067c0,.025,0,.05,0,.075" transform="translate(-196.553 -18.597)" fill="#005d44"/>
    <path id="Tracciato_86052" data-name="Tracciato 86052" d="M352.134,43.509c0,2.207-1,3.692-2.506,3.732-1.062,0-1.624-.562-1.624-2.067,0-2.888,1.864-2.127,4.129-3.184Zm-4.49-2.4c.962-2.8,1.343-3.524,2.746-3.524a1.569,1.569,0,0,1,1.744,1.782v2.1c-2,1.221-6.133.2-6.133,3.709a2.738,2.738,0,0,0,3.046,2.788,3.207,3.207,0,0,0,3.047-2.086l.04,1.765h2.726V47.2H353.9V39.7c0-1.241-1.122-2.563-3.628-2.563a8.062,8.062,0,0,0-3.067.721v3.243Z" transform="translate(-231.059 -24.803)" fill="#005d44" fill-rule="evenodd"/>
    <path id="Tracciato_86053" data-name="Tracciato 86053" d="M294.887,38.107h-2.846v.441H293v9.3h-.962v.441h3.808v-.441h-.962Z" transform="translate(-195.024 -25.448)" fill="#005d44"/>
    <path id="Tracciato_86054" data-name="Tracciato 86054" d="M210.194,37.781a9.368,9.368,0,0,0-2.766-.641c-3.026,0-4.85,2.2-4.85,5.411s1.723,5.411,4.409,5.411c1.884,0,3.307-1.263,3.327-4.089h-.441c-.06,2.425-1.062,3.528-2.605,3.528-1.643,0-2.606-1.363-2.606-5.051,0-3.527,1.283-4.77,2.526-4.77,1.042,0,1.483.321,2.445,3.848h.561V37.781" transform="translate(-135.281 -24.803)" fill="#005d44"/>
    <path id="Tracciato_86055" data-name="Tracciato 86055" d="M173.115,37.9H174.2v9.3h-1.082v.441h4.129V47.2h-1.163V40.909c0-2.084,1.022-3.046,2.124-3.046.942,0,1.4.5,1.4,1.984V47.2h-1.162v.441h4.129V47.2h-1.082V40.087c0-2.184-1.123-2.946-2.706-2.946a3.187,3.187,0,0,0-2.826,1.683l-.04-1.363h-2.806Z" transform="translate(-115.606 -24.803)" fill="#005d44"/>
    <path id="Tracciato_86056" data-name="Tracciato 86056" d="M273.809,40.874v-.441h-1.27V27.006h-2.846v.441h.962v4.469a2.572,2.572,0,0,0-2.325-1.543c-2.064,0-3.768,1.944-3.768,5.431s1.844,5.391,3.728,5.391a2.358,2.358,0,0,0,2.445-1.543l.04,1.223h3.034m-7.163-4.89c0-4.068.8-5.05,1.984-5.05,1.323,0,2.144,1.443,2.144,5.05,0,3.207-.741,4.77-2.084,4.77-1.283,0-2.044-1.122-2.044-4.77" transform="translate(-176.673 -18.035)" fill="#005d44" fill-rule="evenodd"/>
    <path id="Tracciato_86057" data-name="Tracciato 86057" d="M229.6,42.551c0-3.888.782-4.97,2.285-4.97s2.285,1.082,2.285,4.97-.782,4.97-2.285,4.97-2.285-1.082-2.285-4.97m-2.085,0c0,3.207,1.884,5.411,4.369,5.411s4.369-2.2,4.369-5.411-1.884-5.411-4.369-5.411S227.513,39.345,227.513,42.551Z" transform="translate(-151.933 -24.803)" fill="#005d44" fill-rule="evenodd"/>
    <path id="Tracciato_86058" data-name="Tracciato 86058" d="M111.581,40.432h-1.2v.441h4.91c4.149,0,6.033-1.723,6.033-3.948,0-1.844-1.543-3.166-4.369-3.427,1.664-.3,3.367-1.223,3.367-3.327,0-1.844-1.643-3.167-4.209-3.167h-5.732v.441h1.2Zm2.165-12.986h1.844c1.563,0,2.445.841,2.445,2.866,0,2.245-1.1,3.066-3.147,3.066h-1.142Zm0,6.373h1.784c2.285,0,3.307.842,3.307,3.146,0,2.565-1.283,3.467-4.149,3.467h-.942Z" transform="translate(-73.71 -18.034)" fill="#005d44" fill-rule="evenodd"/>
    <path id="Tracciato_86059" data-name="Tracciato 86059" d="M151.612,43.509c0,2.207-1,3.692-2.505,3.732-1.062,0-1.624-.562-1.624-2.067,0-2.888,1.864-2.127,4.129-3.184Zm-4.489-2.4c.962-2.8,1.343-3.524,2.746-3.524a1.568,1.568,0,0,1,1.744,1.782v2.1c-2,1.221-6.133.2-6.133,3.709a2.737,2.737,0,0,0,3.046,2.788,3.207,3.207,0,0,0,3.047-2.086l.04,1.765h4.746V47.2h-2.982V39.7c0-1.241-1.122-2.563-3.628-2.563a8.068,8.068,0,0,0-3.066.721v3.243Z" transform="translate(-97.151 -24.803)" fill="#005d44" fill-rule="evenodd"/>
    <path id="Tracciato_86060" data-name="Tracciato 86060" d="M26.68,4.311l-3.1,1.361c-.244.131-.453-.054-.484-.3l.4-3.366,1,.6L24.407,3.8l-.01.124L24.389,4l-.006.068.068.05.068-.018,1.257-.566.794.681.11.1m1.313,1.373-.232.094-.3.122-2.2.885L22.006,8.071l-.074.02-.074.008-.078,0L21.7,8.077l-.084-.038-.092-.058-.064-.052a.6.6,0,0,1-.172-.54l.006-.134.43-6.088.136.056.925.414-.012.216C22.7,3.425,22.494,5,22.518,6.566l.024.056.066.006.086-.04.12-.058.132-.054L23.14,6.4l.246-.094,2.791-1.069,1.047-.4ZM30.068,8.8l-.294.1L24.4,10.783l-4.6,1.6a5.342,5.342,0,0,1-.826.246l-.062.008-.062.008a.9.9,0,0,1-.318-.034l-.064-.024-.068-.03-.066-.038a1.16,1.16,0,0,1-.5-.909L17.81,11.5,18.072.191l.136.02c.276.041.544.093.818.146l.134.028-.19,10.68,0,.09-.012.108.006.056.056.046.076,0,.068-.008.086-.012.142-.042C22.5,10.254,25.6,9.143,28.7,8.049l.472-.166.322-.114.076.126c.153.257.29.513.43.776Zm.714,1.633L17.826,14.681c-1.081.361-1.657-.137-1.595-1.253L16.3.037l.14.006c.279.01.55.027.829.054l.136.012L17.36,13.2c-.021.558-.02.428.494.282L30.382,9.46l.054.12c.106.244.206.485.3.734ZM20.841,6.511l-.048,2.107,0,.1,0,.07,0,.062.02.06.062.044.056,0L21,8.942l.092-.038L21.2,8.86l7.27-2.587.09.118c.177.236.352.474.514.721l.082.122-8.48,3.06c-.84.349-1.27-.5-1.086-1.331L19.859.551,20,.589c.274.076.548.156.818.246l.136.046-.006.3-.008.4ZM8.125,2.008l.338,3.364c.046.257-.165.4-.4.374L4.955,4.318l.878-.765,1.107.459.115.048.064.029.063.027.058-.023.015-.058L7.1,2.627,8,2.081Zm1.712-.824.018.25.022.327.162,2.362.219,3.492,0,.077-.015.073-.028.073-.041.068-.062.068-.084.07-.069.045a.6.6,0,0,1-.567,0l-.126-.047L3.6,5.747l.1-.112.68-.751.2.078c1.472.553,2.9,1.238,4.4,1.7l.056,0L9.072,6.6,9.06,6.5l-.012-.061L9.042,6.37l-.011-.143-.012-.208-.014-.263L8.852,2.771,8.8,1.654ZM13.446.175l.006.311.125,5.691.1,4.87.006.37v.172l-.009.13-.011.127-.008.063-.012.061a.915.915,0,0,1-.1.3l-.038.057-.066.081-.082.079a1.162,1.162,0,0,1-1.019.2l-.108-.016L1.546,8.92,1.607,8.8c.124-.25.257-.489.392-.733l.068-.119,10.1,3.481.085.03.1.045.063.012.061-.06.03-.119.015-.085,0-.148v-.146l0-.19-.007-.495L12.5,9.638l-.163-7.009-.036-1.385-.012-.5L12.284.4l.144-.033C12.719.3,13,.25,13.3.2ZM15.22,0l.034,13.632c.012,1.16-.67,1.524-1.685,1.129L.853,10.556.9,10.425c.1-.262.2-.515.307-.771l.053-.126,12.44,4.09.163.055.088.033.064.017.063,0,.037-.074.006-.114v-.294L14.167.079,14.3.064c.264-.026.526-.046.791-.058ZM8.413,8.239l1.99.7c.379.159.4.073.355-.31L10.543.915l.14-.049c.279-.1.56-.188.844-.266l.142-.04.29,9.009.012.067a.681.681,0,0,1-.363.669l-.072.042-.069.032a1.015,1.015,0,0,1-.86-.094l-.249-.094L2.441,7.332l.079-.122c.157-.237.318-.473.487-.7l.086-.115ZM.3,18.892l3.3.718a.33.33,0,0,1,.218.524l-2.3,2.487L1.061,21.55l.778-.911.081-.094.066-.071.035-.061-.048-.059-1.4-.3L.33,19.037ZM.045,17.01l.243.06.318.08,2.3.575,3.388.871.072.027.064.037.061.049.053.06.046.08.04.1.021.08a.6.6,0,0,1-.178.538l-.084.1L2.459,24.347l-.077-.125-.5-.878.137-.168.17-.21.2-.245,2.533-3.1.062-.078.026-.063-.033-.056L4.914,19.4a6.994,6.994,0,0,1-.777-.186l-2.887-.776-1.08-.295ZM.2,13.266l.3.09L5.949,15l4.662,1.413.354.109.164.053.121.048.117.05.057.027.11.06.077.054.071.062.067.071.059.085.038.064.031.07.03.078a1.213,1.213,0,0,1-.157.952l-.049.1-6.86,8.995-.1-.1c-.2-.2-.386-.4-.576-.6l-.092-.1,6.432-8.529.054-.072c.147-.147.147-.181-.037-.279l-.077-.041-.14-.049c-3.137-.98-6.294-1.9-9.445-2.837l-.48-.143-.328-.1.012-.147c.028-.3.067-.585.108-.881Zm.382-1.741,12.976,4.181c1.106.347,1.243,1.106.554,1.951L6.183,28.45l-.11-.087c-.221-.172-.429-.345-.638-.531l-.1-.09,7.735-10.566.1-.138.058-.074.036-.056.015-.061-.059-.058-.107-.04-.1-.034-.178-.058L.332,12.551l.027-.129c.057-.26.119-.514.189-.771Zm5.734,9.019,1.278-1.676c.262-.306.2-.358-.185-.434l-7.4-2.179,0-.148c0-.295-.006-.59.007-.885l.006-.147,8.659,2.508.067.009a.671.671,0,0,1,.513.509l.02.084.013.078c.049.37-.129.553-.351.826l-.166.208L3.607,25.942l-.091-.113c-.177-.223-.352-.448-.518-.68l-.083-.117.183-.241ZM13.909,31.7l1.7-2.92a.319.319,0,0,1,.423-.156.324.324,0,0,1,.09.062l1.706,3.008-1.159.1-.626-1.022-.065-.106-.035-.061-.035-.058-.06-.016-.068.069L15.1,31.8l-1.043-.084Zm-1.869-.339.133-.213.174-.277L13.6,28.861l1.876-2.953.048-.059.086-.072.069-.038.083-.026.1-.013h.056l.056,0a.626.626,0,0,1,.508.376l.05.075,3.23,5.178-.143.035-.991.208-.118-.182-.147-.227L18.2,30.9l-2.17-3.368-.037-.057-.053-.06-.057-.013-.059.068-.049.1-.037.061-.075.121-.112.176-.144.221-1.63,2.505-.614.935Zm-3.513-1.3.178-.255,3.245-4.677,2.785-4,.213-.3.1-.14.083-.1.084-.1L15.3,20.4l.094-.081.078-.052.056-.031.06-.026.065-.023.07-.016.073-.011a1.143,1.143,0,0,1,.98.436l.078.077,6.436,9.3-.122.064c-.247.129-.495.245-.748.362l-.125.056L16.176,21.7l-.051-.074-.054-.094-.06-.055-.069.02-.094.078-.062.06-.09.118-.085.118-.11.154-.285.4-.363.519-3.989,5.767-.785,1.142-.284.412-.193.282L9.465,30.5c-.275-.118-.536-.244-.8-.375Zm-1.538-.9L14.976,18.1c.663-.931,1.424-.857,2.027.076l7.815,10.875-.117.077c-.232.156-.461.3-.7.443l-.117.07-7.66-10.62-.1-.141-.052-.078-.052-.061-.061-.023-.056.038-.071.089-.064.086-.11.151L7.888,29.707l-.114-.065c-.229-.135-.452-.271-.675-.418Zm10.35-2.665-1.2-1.733c-.208-.345-.283-.295-.469.042l-4.36,6.365-.142-.043c-.282-.087-.563-.177-.839-.281l-.138-.05,5.062-7.459.03-.061a.665.665,0,0,1,.6-.332l.09,0,.083.009c.4.066.509.276.715.6l.147.223,4.724,6.964-.136.051c-.267.1-.535.2-.807.282l-.137.043-.173-.248ZM30.214,22.67l-2.251-2.523a.324.324,0,0,1,.1-.535l3.358-.674-.26,1.134-1.165.28-.121.029-.069.014-.066.016-.031.067.043.072.927,1.02-.4.966Zm-.9,1.672-.161-.192-.21-.251-1.52-1.816-2.229-2.7-.042-.064-.031-.068-.02-.075-.007-.08.01-.092.027-.105.03-.077a.606.606,0,0,1,.461-.331l.129-.036,5.923-1.472-.011.146-.108,1.007-.209.055-.261.07-.307.08L26.9,19.37l-.066.017-.074.032-.028.064.044.063.082.078.139.163.132.161.166.2,1.879,2.324.7.873Zm-2.326,2.937-.188-.248L23.353,22.5l-2.941-3.883-.223-.3-.1-.139-.069-.11-.065-.109-.057-.112-.027-.056-.021-.058-.018-.061-.013-.061-.01-.064,0-.068,0-.068.008-.074a1.131,1.131,0,0,1,.725-.833l.1-.05,10.837-3.245.023.136c.047.275.08.547.114.823l.015.136L21.407,17.426l-.086.026c-.205.033-.225.06-.134.247l.038.078.084.122c1.962,2.636,3.975,5.237,5.973,7.845l.3.4.208.271-.1.111c-.2.225-.4.434-.606.649Zm-1.332,1.184-8.04-11.009c-.678-.917-.381-1.617.7-1.9l12.76-4.071.038.135c.077.268.145.532.2.8l.031.133-12.469,4-.164.051-.091.026-.062.024-.053.057.019.065.063.1.062.087.11.151,7.7,10.67-.1.088c-.2.176-.4.346-.606.512ZM26.318,17.8,24.3,18.4c-.381.088-.376.173-.106.459L28.9,24.975l-.084.122c-.17.241-.342.481-.526.712l-.091.116-5.531-7.118-.071-.071a.669.669,0,0,1-.109-.646L22.519,18l.034-.076c.185-.357.424-.4.788-.5l.257-.071,8.084-2.34.007.144c.012.285.021.57.019.854l0,.144Z" transform="translate(0)" fill="#005d44" fill-rule="evenodd"/>
    <path id="Tracciato_86061" data-name="Tracciato 86061" d="M117.722,99.712a3.377,3.377,0,0,1-1.864-.515,3.229,3.229,0,0,1-1.195-1.318,3.918,3.918,0,0,1-.391-1.74,3.551,3.551,0,0,1,.953-2.5,3.318,3.318,0,0,1,2.559-1.03,3.453,3.453,0,0,1,2.173.638l-.463.69a2.737,2.737,0,0,0-1.74-.556,2.258,2.258,0,0,0-1.864.788,3,3,0,0,0-.638,1.952,3.136,3.136,0,0,0,.638,2,2.215,2.215,0,0,0,1.854.814,2.666,2.666,0,0,0,1.6-.392V96.725h-1.431v-.762h2.358v3.048a4,4,0,0,1-2.544.7" transform="translate(-76.311 -61.843)"/>
    <path id="Tracciato_86062" data-name="Tracciato 86062" d="M136.964,103.419V98.466h.865v.752a1.538,1.538,0,0,1,1.308-.876,1.4,1.4,0,0,1,.556.1l-.216.814a1.035,1.035,0,0,0-.453-.082q-.711,0-1.195.957v3.285Z" transform="translate(-91.464 -65.674)"/>
    <path id="Tracciato_86063" data-name="Tracciato 86063" d="M149.224,103.791a1.374,1.374,0,0,1-1.112-.428,1.707,1.707,0,0,1-.36-1.138V98.714h.875v3.347a1.139,1.139,0,0,0,.191.716.785.785,0,0,0,.654.242,1.188,1.188,0,0,0,.639-.2,2.226,2.226,0,0,0,.458-.355,3.417,3.417,0,0,0,.242-.3v-3.45h.875v3.831a4.986,4.986,0,0,0,.1,1.122h-.875a3.861,3.861,0,0,1-.082-.721,1.923,1.923,0,0,1-1.607.844" transform="translate(-98.668 -65.922)"/>
    <path id="Tracciato_86064" data-name="Tracciato 86064" d="M164.491,105.674V98.466h.865v.525a1.9,1.9,0,0,1,2.894.036,2.975,2.975,0,0,1,.546,1.9,2.815,2.815,0,0,1-.618,1.89,1.988,1.988,0,0,1-1.586.726,1.787,1.787,0,0,1-1.236-.422v2.554Zm1.988-2.863a1.177,1.177,0,0,0,1.02-.51,2.3,2.3,0,0,0,.36-1.354,2.465,2.465,0,0,0-.325-1.349,1.071,1.071,0,0,0-.963-.5,1.492,1.492,0,0,0-1.215.659v2.626a1.609,1.609,0,0,0,1.123.432" transform="translate(-109.847 -65.674)"/>
    <path id="Tracciato_86065" data-name="Tracciato 86065" d="M181.076,105.674V98.466h.865v.525a1.9,1.9,0,0,1,2.894.036,2.975,2.975,0,0,1,.546,1.9,2.815,2.815,0,0,1-.618,1.89,1.988,1.988,0,0,1-1.586.726,1.788,1.788,0,0,1-1.236-.422v2.554Zm1.988-2.863a1.176,1.176,0,0,0,1.019-.51,2.3,2.3,0,0,0,.36-1.354,2.465,2.465,0,0,0-.325-1.349,1.071,1.071,0,0,0-.963-.5,1.492,1.492,0,0,0-1.215.659v2.626a1.61,1.61,0,0,0,1.123.432" transform="translate(-120.922 -65.674)"/>
    <path id="Tracciato_86066" data-name="Tracciato 86066" d="M198.716,103.542a2.159,2.159,0,0,1-1.339-.412,2.241,2.241,0,0,1-.767-.979,3.264,3.264,0,0,1-.222-1.2,3.222,3.222,0,0,1,.129-.906,3.063,3.063,0,0,1,.386-.834,1.843,1.843,0,0,1,.721-.628,2.315,2.315,0,0,1,1.071-.237,2.439,2.439,0,0,1,1.076.232,1.921,1.921,0,0,1,.752.618,3.1,3.1,0,0,1,.417.829,2.911,2.911,0,0,1,.144.906,2.991,2.991,0,0,1-.139.906,3.132,3.132,0,0,1-.407.834,1.947,1.947,0,0,1-.742.633,2.342,2.342,0,0,1-1.081.242m.021-.721a1.2,1.2,0,0,0,1.061-.525,2.335,2.335,0,0,0,.361-1.349,2.245,2.245,0,0,0-.387-1.349,1.261,1.261,0,0,0-1.086-.535,1.15,1.15,0,0,0-1.035.509,2.437,2.437,0,0,0-.335,1.354,2.4,2.4,0,0,0,.355,1.364,1.2,1.2,0,0,0,1.066.531" transform="translate(-131.148 -65.674)"/>
    <path id="Tracciato_86067" data-name="Tracciato 86067" d="M221.374,99.837V92.979h1.905a2.953,2.953,0,0,1,1.653.412,1.6,1.6,0,0,1-.6,2.822v.02a1.948,1.948,0,0,1,1.092.556,1.543,1.543,0,0,1,.432,1.122q0,1.925-2.6,1.926ZM222.3,95.9h.885a1.728,1.728,0,0,0,1.081-.273,1.037,1.037,0,0,0,.34-.86q0-1.04-1.4-1.04H222.3Zm0,3.182h.927a2.236,2.236,0,0,0,1.256-.278,1.012,1.012,0,0,0,.4-.9q0-1.277-1.6-1.277H222.3Z" transform="translate(-147.833 -62.093)"/>
    <path id="Tracciato_86068" data-name="Tracciato 86068" d="M239.293,99.838V92.98h1.823a2.837,2.837,0,0,1,1.771.52,1.774,1.774,0,0,1,.68,1.5,1.92,1.92,0,0,1-.68,1.575,2.913,2.913,0,0,1-1.895.556h-.762v2.708Zm.937-3.47H241a1.855,1.855,0,0,0,1.23-.335,1.269,1.269,0,0,0,.386-1.014q0-1.277-1.586-1.277h-.8Z" transform="translate(-159.799 -62.093)"/>
    <path id="Tracciato_86069" data-name="Tracciato 86069" d="M256.4,99.837V92.979h3.615v.783H257.33v2.07h2.359V96.6H257.33v2.451h2.76v.783Z" transform="translate(-171.226 -62.092)"/>
    <path id="Tracciato_86070" data-name="Tracciato 86070" d="M272.152,99.838V92.98h1.957a2.68,2.68,0,0,1,1.71.484,1.65,1.65,0,0,1,.608,1.37,1.627,1.627,0,0,1-.515,1.282,2.2,2.2,0,0,1-1.339.52v.021a4.472,4.472,0,0,1,.731.875l1.627,2.307h-1.071L274.5,97.892a6.886,6.886,0,0,0-.762-.973.8.8,0,0,0-.546-.18h-.1v3.1Zm.937-3.831h.978q1.421,0,1.421-1.143,0-1.122-1.483-1.122h-.917Z" transform="translate(-181.743 -62.093)"/>
    <path id="Tracciato_86071" data-name="Tracciato 86071" d="M296.92,99.837V92.979h1.905a2.954,2.954,0,0,1,1.653.412,1.6,1.6,0,0,1-.6,2.822v.02a1.946,1.946,0,0,1,1.092.556,1.542,1.542,0,0,1,.432,1.122q0,1.925-2.605,1.926Zm.927-3.934h.886a1.729,1.729,0,0,0,1.081-.273,1.037,1.037,0,0,0,.34-.86q0-1.04-1.4-1.04h-.907Zm0,3.182h.927a2.237,2.237,0,0,0,1.256-.278,1.012,1.012,0,0,0,.4-.9q0-1.277-1.6-1.277h-.989Z" transform="translate(-198.283 -62.093)"/>
    <path id="Tracciato_86072" data-name="Tracciato 86072" d="M314.689,103.542a1.46,1.46,0,0,1-1.03-.371,1.268,1.268,0,0,1-.4-.978,1.346,1.346,0,0,1,.423-1.019,2.2,2.2,0,0,1,.983-.546,4.992,4.992,0,0,1,1.241-.144h.206v-.433a1.023,1.023,0,0,0-.227-.736.988.988,0,0,0-.731-.232,1.967,1.967,0,0,0-1.287.525l-.433-.587a2.534,2.534,0,0,1,1.792-.68q1.751,0,1.751,1.679v2.2a5.133,5.133,0,0,0,.124,1.195h-.865a3.219,3.219,0,0,1-.082-.587,1.836,1.836,0,0,1-.633.515,1.813,1.813,0,0,1-.829.2m.175-.721a1.518,1.518,0,0,0,1.246-.659v-1.071H315.9q-1.74,0-1.74,1.071a.582.582,0,0,0,.216.494.781.781,0,0,0,.484.165" transform="translate(-209.192 -65.674)"/>
    <path id="Tracciato_86073" data-name="Tracciato 86073" d="M329.223,103.419V98.466h.865v.69a2,2,0,0,1,1.606-.814,1.359,1.359,0,0,1,1.107.427,1.707,1.707,0,0,1,.355,1.127v3.522h-.875v-3.347q0-.968-.835-.968a1.753,1.753,0,0,0-1.359.855v3.46Z" transform="translate(-219.854 -65.674)"/>
    <path id="Tracciato_86074" data-name="Tracciato 86074" d="M346.853,103.542a2.079,2.079,0,0,1-1.7-.752,2.821,2.821,0,0,1-.618-1.854,2.616,2.616,0,0,1,.67-1.91,2.25,2.25,0,0,1,1.679-.685,2.386,2.386,0,0,1,1.514.474l-.371.638a1.933,1.933,0,0,0-1.143-.391,1.217,1.217,0,0,0-1.061.509,2.281,2.281,0,0,0-.36,1.344,2.361,2.361,0,0,0,.366,1.359,1.219,1.219,0,0,0,1.076.535,1.851,1.851,0,0,0,1.185-.391l.33.638a2.435,2.435,0,0,1-1.565.484" transform="translate(-230.08 -65.674)"/>
    <path id="Tracciato_86075" data-name="Tracciato 86075" d="M360.01,103.542a1.46,1.46,0,0,1-1.03-.371,1.268,1.268,0,0,1-.4-.978,1.346,1.346,0,0,1,.423-1.019,2.2,2.2,0,0,1,.983-.546,4.992,4.992,0,0,1,1.241-.144h.206v-.433a1.023,1.023,0,0,0-.227-.736.988.988,0,0,0-.731-.232,1.967,1.967,0,0,0-1.287.525l-.433-.587a2.534,2.534,0,0,1,1.792-.68q1.751,0,1.751,1.679v2.2a5.136,5.136,0,0,0,.124,1.195h-.865a3.216,3.216,0,0,1-.082-.587,1.836,1.836,0,0,1-.633.515,1.813,1.813,0,0,1-.829.2m.175-.721a1.518,1.518,0,0,0,1.246-.659v-1.071h-.206q-1.74,0-1.74,1.071a.581.581,0,0,0,.216.494.781.781,0,0,0,.484.165" transform="translate(-239.458 -65.674)"/>
  </g>
</svg>
