<svg width="53" height="71" viewBox="0 0 53 71" fill="none" xmlns="http://www.w3.org/2000/svg">
<path fill-rule="evenodd" clip-rule="evenodd" d="M12.9722 19.2842C14.4287 20.4156 16.5273 20.1518 17.6584 18.6952C18.7672 17.2682 18.5392 15.2185 17.1443 14.0702L11.927 9.9031C10.4867 8.75144 8.38548 8.98474 7.23338 10.4245C6.08129 11.8643 6.31468 13.9647 7.75497 15.1164L12.9722 19.2842Z" fill="#17CF9B"/>
<path fill-rule="evenodd" clip-rule="evenodd" d="M36.1965 15.8403L40.3676 10.6261C41.5037 9.17358 41.2474 7.07596 39.7949 5.93993C38.3639 4.82012 36.3007 5.05071 35.1517 6.4579L30.982 11.6715C29.8384 13.1172 30.0839 15.2169 31.5304 16.3597C32.9505 17.4828 35.007 17.2685 36.1654 15.8775L36.1965 15.8403Z" fill="#17CF9B"/>
<path fill-rule="evenodd" clip-rule="evenodd" d="M24.6213 13.8514C26.4371 13.6676 27.7607 12.0467 27.5775 10.2312L27.5707 10.1636L26.8069 3.31245C26.5635 1.48476 24.885 0.200496 23.057 0.443161C21.2838 0.679054 20.0116 2.27019 20.1718 4.05192L20.9343 10.9031C21.1155 12.7186 22.7346 14.0434 24.5496 13.8616H24.553L24.6213 13.8514Z" fill="#17CF9B"/>
<path fill-rule="evenodd" clip-rule="evenodd" d="M23.875 18.2803C23.875 18.2803 21.7355 32.7231 14.482 37.7952C7.81611 42.4555 7.84721 43.9749 2.38562 43.9282C1.51807 43.9208 0.804688 44.6193 0.804688 45.4875V61.2671C0.804688 62.1286 1.50319 62.8271 2.36466 62.8271H6.50227C6.50227 62.8271 10.8935 71.0009 18.0205 71.0009C22.5212 71.0009 29.2723 70.6175 33.6358 70.3355C33.4633 70.1847 33.3024 70.0231 33.1523 69.8507C31.3198 67.7484 31.5389 64.5581 33.6412 62.725C33.0914 62.3882 32.6113 61.948 32.2273 61.4301C30.5645 59.1878 31.0338 56.0232 33.2754 54.3612C32.8007 54.0089 32.3922 53.5768 32.067 53.0832C30.53 50.751 31.1751 47.6141 33.5073 46.0778C32.9481 45.7059 32.4666 45.2279 32.092 44.6714C28.8051 52.0486 23.0304 54.1116 19.1957 54.1116C18.7799 54.1123 18.3647 54.0873 17.9522 54.0339C17.2571 53.9453 16.6688 53.3949 16.6647 52.6944C16.6607 51.8464 17.4024 51.2243 18.2091 51.3393C18.625 51.394 27.6805 52.4455 30.8627 39.3389C30.935 39.0407 30.7052 38.7506 30.3982 38.7506H26.9462C26.4776 38.7506 26.174 38.2557 26.3917 37.8412C27.4466 35.8268 29.728 30.7094 29.2047 24.9476C28.6448 18.7888 25.3578 18.2573 24.2441 18.2573H24.2178C24.1035 18.2573 23.9885 18.2648 23.8749 18.2803M36.3039 38.809C34.6235 38.809 33.261 40.1715 33.261 41.8519C33.261 43.5329 34.6235 44.8947 36.3039 44.8947H47.7991C49.4801 44.8947 50.842 43.5329 50.842 41.8519C50.842 40.1715 49.4801 38.809 47.7991 38.809H36.3039ZM36.3039 47.2614C34.6235 47.2614 33.261 48.6239 33.261 50.3042C33.261 51.9852 34.6235 53.3471 36.3039 53.3471H49.1515C50.8318 53.3471 52.1943 51.9852 52.1943 50.3042C52.1943 48.6239 50.8318 47.2614 49.1515 47.2614H36.3039ZM36.3039 55.3763C34.6235 55.3763 33.261 56.7381 33.261 58.4192C33.261 60.0995 34.6235 61.462 36.3039 61.462H47.1229C48.8039 61.462 50.1658 60.0995 50.1658 58.4192C50.1658 56.7382 48.8039 55.3763 47.1229 55.3763H36.3039ZM36.98 63.4906C35.2997 63.4906 33.9372 64.8531 33.9372 66.5334C33.9372 68.2131 35.2997 69.5763 36.98 69.5763H45.0943C46.7746 69.5763 48.1372 68.213 48.1372 66.5334C48.1372 64.8531 46.7746 63.4906 45.0943 63.4906H36.98Z" fill="url(#paint0_linear_940_17609)"/>
<defs>
<linearGradient id="paint0_linear_940_17609" x1="0.803223" y1="18.2534" x2="0.803223" y2="71.0005" gradientUnits="userSpaceOnUse">
<stop stop-color="#3B888C"/>
<stop offset="1" stop-color="#183F42"/>
</linearGradient>
</defs>
</svg>
