<svg id="Raggruppa_30251" data-name="Raggruppa 30251" xmlns="http://www.w3.org/2000/svg" xmlns:xlink="http://www.w3.org/1999/xlink" width="96" height="96" viewBox="0 0 96 96">
  <defs>
    <linearGradient id="linear-gradient" x1="1.148" y1="0.149" x2="-0.082" y2="0.83" gradientUnits="objectBoundingBox">
      <stop offset="0" stop-color="#3b888c"/>
      <stop offset="1" stop-color="#183f42"/>
    </linearGradient>
  </defs>
  <g id="Raggruppa_1451" data-name="Raggruppa 1451">
    <rect id="Rettangolo_539" data-name="Rettangolo 539" width="96" height="96" fill="none"/>
  </g>
  <g id="Raggruppa_30250" data-name="Raggruppa 30250" transform="translate(22 16.001)">
    <path id="Path_3287" data-name="Path 3287" d="M1517.4,373.217a3.327,3.327,0,0,0-2.134-6.3l-6.3,2.138a3.327,3.327,0,0,0,2.134,6.3h0Z" transform="translate(-1506.676 -341.161)" fill="#17cf9b"/>
    <path id="Path_3288" data-name="Path 3288" d="M1532.006,343.74l-2.133-6.3a3.327,3.327,0,0,0-6.3,2.137h0l2.135,6.3a3.327,3.327,0,0,0,6.317-2.09Z" transform="translate(-1511.695 -333.04)" fill="#17cf9b"/>
    <path id="Path_3289" data-name="Path 3289" d="M1519.1,355.76a3.3,3.3,0,0,0-1.45-4.429l-.058-.029-6.167-3.046a3.329,3.329,0,0,0-2.948,5.969l6.164,3.045a3.3,3.3,0,0,0,4.428-1.449Z" transform="translate(-1506.675 -336.409)" fill="#17cf9b"/>
    <path id="Tracciato_3717" data-name="Tracciato 3717" d="M1531.571,359.379l-3.253-7.3a2.561,2.561,0,0,1,1.289-3.378l.169-.076a2.52,2.52,0,0,1,1.036-.222,2.553,2.553,0,0,1,2.331,1.514l3.252,7.3a2.564,2.564,0,0,1-1.288,3.378h0l-.17.076a2.546,2.546,0,0,1-3.367-1.291Zm8.085-1.643a2.521,2.521,0,0,0,1.95-.053l.17-.076h0a2.56,2.56,0,0,0,1.288-3.378l-3.957-8.884a2.541,2.541,0,0,0-3.367-1.292l-.17.076a2.559,2.559,0,0,0-1.288,3.378l3.957,8.884A2.535,2.535,0,0,0,1539.655,357.736Zm23.621-2.716a4.389,4.389,0,0,0-2.5-3.765l-10.38-1.319c-.029,0-.057-.009-.085-.015a.42.42,0,0,0-.507.4l-.034,1.031a3.931,3.931,0,0,0,2.87,3.92l3.12.867a3.256,3.256,0,0,1,2.345,3.612l-.276,1.881a2.388,2.388,0,0,1-2.646,2.041,26.415,26.415,0,0,0-7.935.216c-3.528.728-5.817,2.364-6.8,4.862a1.009,1.009,0,0,1-.939.639,1,1,0,0,1-.371-.072,1.013,1.013,0,0,1-.567-1.314c1.254-3.173,4.037-5.224,8.274-6.1a28.443,28.443,0,0,1,8.573-.244.379.379,0,0,0,.417-.324l.276-1.881a1.233,1.233,0,0,0-.887-1.367l-3.12-.867a5.952,5.952,0,0,1-4.348-5.939l.032-.951a2.56,2.56,0,0,1,.428-1.385,2.441,2.441,0,0,1,2.473-1.013l6.837.869,4.024-19.22a3.569,3.569,0,0,0-2.751-4.226l-.183-.039a3.558,3.558,0,0,0-4.213,2.759l-3.638,17.38a.592.592,0,0,1-1.16,0l-3.638-17.38a3.558,3.558,0,0,0-4.214-2.759l-.182.039a3.568,3.568,0,0,0-2.751,4.226l3.724,18.514,2.294,5.15a4.831,4.831,0,0,1,.3,3.263,4.559,4.559,0,0,1-2.536,2.946l-.17.076a4.56,4.56,0,0,0-6.5,2.912l-.17.076a4.534,4.534,0,0,1-3.955-.109,4.783,4.783,0,0,1-2.141-2.346l-1.341-3.012v8.5a14.331,14.331,0,0,0,2.393,7.93l2.382,3.582a8.852,8.852,0,0,1,1.478,4.9v5.448a2.7,2.7,0,0,0,2.693,2.7h13.714a2.7,2.7,0,0,0,2.693-2.7v-4.6a8.837,8.837,0,0,1,2.687-5.945c2.174-2.1,5.19-5.2,6.673-6.739a2.966,2.966,0,0,0,.828-2.218Z" transform="translate(-1512.024 -325.239)" fill="url(#linear-gradient)"/>
  </g>
</svg>
