<svg id="Raggruppa_28611" data-name="Raggruppa 28611" xmlns="http://www.w3.org/2000/svg" xmlns:xlink="http://www.w3.org/1999/xlink" width="59.34" height="67.253" viewBox="0 0 59.34 67.253">
  <defs>
    <clipPath id="clip-path">
      <rect id="Rettangolo_11279" data-name="Rettangolo 11279" width="59.34" height="67.253" fill="none"/>
    </clipPath>
  </defs>
  <g id="Raggruppa_28610" data-name="Raggruppa 28610" clip-path="url(#clip-path)">
    <path id="Tracciato_85969" data-name="Tracciato 85969" d="M57.459,15.436H43.137c4.207-4.55,5.079-10.4,1.93-13.553A7.4,7.4,0,0,0,38.152.216a14.649,14.649,0,0,0-7.133,4.07,9.159,9.159,0,0,0-1.368,1.763,9.157,9.157,0,0,0-1.368-1.763A14.651,14.651,0,0,0,21.151.216a7.4,7.4,0,0,0-6.914,1.667A7.4,7.4,0,0,0,12.569,8.8a14.417,14.417,0,0,0,3.608,6.639H1.881A1.88,1.88,0,0,0,0,17.316V34.031a1.88,1.88,0,0,0,1.881,1.881H57.459a1.88,1.88,0,0,0,1.881-1.881V17.316a1.88,1.88,0,0,0-1.881-1.881m-23.78-8.49A11.022,11.022,0,0,1,38.929,3.9a3.873,3.873,0,0,1,3.478.647c1.863,1.864.229,6.1-2.4,8.728-2.061,2.062-5.982,2.236-8.363,2.05-.164-2.109-.151-6.186,2.038-8.376M16.9,4.542a3.068,3.068,0,0,1,2.223-.785,6.185,6.185,0,0,1,1.255.138,11.025,11.025,0,0,1,5.25,3.049c2.065,2.065,2.237,5.995,2.049,8.374-2.382.188-6.31.015-8.375-2.049a11.027,11.027,0,0,1-3.049-5.25A3.873,3.873,0,0,1,16.9,4.542M3.761,19.2H27.789V32.151H3.761ZM55.579,32.151H31.551V19.2H55.579Z" transform="translate(0 0)" fill="#005157"/>
    <path id="Tracciato_85970" data-name="Tracciato 85970" d="M57.71,124.234a1.881,1.881,0,0,0-1.881,1.881V128H10.28v-1.886a1.88,1.88,0,1,0-3.761,0v3.767A1.88,1.88,0,0,0,8.4,131.762H57.71a1.881,1.881,0,0,0,1.881-1.881v-3.767a1.881,1.881,0,0,0-1.881-1.881" transform="translate(-3.385 -64.509)" fill="#005157"/>
    <path id="Tracciato_85971" data-name="Tracciato 85971" d="M107.194,89.363a.715.715,0,0,1,1,.73.738.738,0,0,1-1.259.345.68.68,0,0,1,.255-1.075" transform="translate(-55.44 -46.369)" fill="#231f20"/>
    <path id="Tracciato_85972" data-name="Tracciato 85972" d="M112.228,90.4c.323-.116.821-.292,1.1-.036.056.629.009,1.262.024,1.894.444.009.89-.026,1.333.017.242.233.083.64.068.941h-1.4q0,2.409,0,4.818a1.17,1.17,0,0,0,.429,1.048c.381.237.84.063,1.257.08.189.1.141.337.154.51s.015.413-.2.449a3.3,3.3,0,0,1-1.837-.1,1.485,1.485,0,0,1-.758-.862,5.884,5.884,0,0,1-.218-2.116V93.214a9.963,9.963,0,0,1-1.038-.017c-.266-.221-.126-.645-.059-.936.366,0,.731,0,1.1,0a12.769,12.769,0,0,1,.052-1.858" transform="translate(-57.627 -46.854)" fill="#231f20"/>
    <path id="Tracciato_85973" data-name="Tracciato 85973" d="M5.064,94.553a4.2,4.2,0,0,1,2.59-.5,2.751,2.751,0,0,1,1.9.91,2.352,2.352,0,0,1,.417,1.424c.006,1.026-.008,2.05,0,3.075a1.709,1.709,0,0,0,.36,1.053c.1.182.319.35.251.582-.279.293-.608.534-.9.809-.174.14-.342.359-.595.285a3.6,3.6,0,0,1-.849-.948,3.213,3.213,0,0,1-1.548.938,2.506,2.506,0,0,1-2.508-.655,2.608,2.608,0,0,1,.606-3.634,7.258,7.258,0,0,1,3.166-.746c-.021-.44.047-.958-.278-1.308a1.185,1.185,0,0,0-1.452-.032A2.108,2.108,0,0,0,5.7,96.7c-.511-.031-1.022-.08-1.529-.157-.114-.018-.27-.117-.223-.254a2.376,2.376,0,0,1,1.12-1.738m1,4.4a1.343,1.343,0,0,0,.057,1.614.978.978,0,0,0,1.422-.247,3.121,3.121,0,0,0,.4-1.994,2.352,2.352,0,0,0-1.879.626" transform="translate(-1.918 -48.827)" fill="#231f20"/>
    <path id="Tracciato_85974" data-name="Tracciato 85974" d="M22.857,94.455a2.139,2.139,0,0,1,2.01-.09,2.268,2.268,0,0,1,.941,1.108,2.147,2.147,0,0,1,1.1-1.136,2.18,2.18,0,0,1,2.482.534,2.537,2.537,0,0,1,.449,1.7c-.01,1.786.009,3.573-.009,5.36.023.207-.19.311-.367.3a12.889,12.889,0,0,1-1.416-.021c-.193-.011-.218-.23-.209-.38,0-1.571,0-3.141,0-4.712-.016-.345-.047-.773-.378-.97a.974.974,0,0,0-1.169.21,2.11,2.11,0,0,0-.311,1.292q-.006,2.225,0,4.45c-.406.239-.9.1-1.343.136-.232-.007-.655.049-.647-.3-.025-1.206,0-2.414-.011-3.62a5.282,5.282,0,0,0-.127-1.827.842.842,0,0,0-1.462-.089,2.324,2.324,0,0,0-.244,1.146c0,1.388,0,2.776,0,4.165-.015.173.038.449-.195.49a10.357,10.357,0,0,1-1.377.031.7.7,0,0,1-.434-.152c.011-2.548.007-5.1,0-7.648a5.038,5.038,0,0,1,1.75-.091c.3.3.079.815.134,1.2a2.281,2.281,0,0,1,.826-1.088" transform="translate(-10.46 -48.891)" fill="#231f20"/>
    <path id="Tracciato_85975" data-name="Tracciato 85975" d="M44.721,94.282a4.365,4.365,0,0,1,3.214.088,1.991,1.991,0,0,1,1.139,1.718c.03.9,0,1.8.011,2.705a2.658,2.658,0,0,0,.289,1.6c.126.22.355.411.347.683-.3.313-.649.568-.964.863-.161.141-.366.347-.595.214a3.616,3.616,0,0,1-.806-.922,3.168,3.168,0,0,1-1.53.939,2.861,2.861,0,0,1-2.117-.277,2.056,2.056,0,0,1-.866-1.583,2.519,2.519,0,0,1,.956-2.349,6.735,6.735,0,0,1,3.267-.821c-.018-.435.06-.947-.256-1.3a1.177,1.177,0,0,0-1.522.005c-.258.209-.3.561-.468.83a10.734,10.734,0,0,1-1.307-.106c-.181-.027-.471-.034-.452-.288a2.5,2.5,0,0,1,1.661-2m.581,4.531a1.3,1.3,0,0,0,.023,1.813.99.99,0,0,0,1.308-.273,2.99,2.99,0,0,0,.428-2.035,2.6,2.6,0,0,0-1.759.495" transform="translate(-22.236 -48.82)" fill="#231f20"/>
    <path id="Tracciato_85976" data-name="Tracciato 85976" d="M74.665,94.236a3.121,3.121,0,0,1,2.775.715A4.249,4.249,0,0,1,78.6,97.471a5.584,5.584,0,0,1-.4,3.014,3.188,3.188,0,0,1-1.86,1.736,3.069,3.069,0,0,1-2.919-.524A4.135,4.135,0,0,1,72.157,99a5.389,5.389,0,0,1,.7-3.527,2.862,2.862,0,0,1,1.805-1.24M75,95.772a1.389,1.389,0,0,0-.647,1.036,9.74,9.74,0,0,0-.059,2.3,2.4,2.4,0,0,0,.536,1.519.865.865,0,0,0,1.261-.164,3.16,3.16,0,0,0,.414-1.7,6.951,6.951,0,0,0-.265-2.5A.925.925,0,0,0,75,95.772" transform="translate(-37.448 -48.894)" fill="#231f20"/>
    <path id="Tracciato_85977" data-name="Tracciato 85977" d="M90.874,94.328a2.13,2.13,0,0,1,2.42.509,3.208,3.208,0,0,1,.515,1.944q.009,2.572,0,5.144a.276.276,0,0,1-.276.3c-.474.023-.95.02-1.423,0a.271.271,0,0,1-.292-.292c-.011-1.533,0-3.066,0-4.6a1.788,1.788,0,0,0-.276-1.055.8.8,0,0,0-1.166-.035,1.751,1.751,0,0,0-.454,1.1c-.075,1.611.058,3.232-.069,4.839a9.475,9.475,0,0,1-1.463.053c-.2,0-.536-.013-.48-.307q-.013-3.663,0-7.328c-.021-.338.379-.275.6-.279a4.435,4.435,0,0,1,1.208.07,3.549,3.549,0,0,1,.076,1.214,2.358,2.358,0,0,1,1.088-1.276" transform="translate(-45.642 -48.892)" fill="#231f20"/>
    <path id="Tracciato_85978" data-name="Tracciato 85978" d="M59.134,95.288c.036-.277-.126-.808.286-.843,1.531-.014,3.061,0,4.592-.007.183-.019.456.055.406.293-.021.441.113.946-.174,1.328q-1.293,1.84-2.582,3.684a4.746,4.746,0,0,1,2.828.749,5.323,5.323,0,0,1,.057,1.468c0,.243-.3.227-.45.128a5.44,5.44,0,0,0-4.3-.193c-.238.091-.463.218-.707.3-.27-.114-.226-.427-.23-.665a2.6,2.6,0,0,1,.242-1.51q1.377-1.983,2.76-3.963c-.82-.008-1.641.013-2.461-.008-.379-.016-.237-.509-.268-.759" transform="translate(-30.563 -49.036)" fill="#231f20"/>
    <path id="Tracciato_85979" data-name="Tracciato 85979" d="M107.026,94.851c0-.15-.015-.367.181-.4.285-.029.573-.011.859-.013.035.038.1.115.138.153v7.372c-.01.147.021.354-.166.4a1.787,1.787,0,0,1-.967-.075,2.209,2.209,0,0,1-.046-.651c.005-2.26,0-4.522,0-6.783" transform="translate(-55.572 -49.036)" fill="#231f20"/>
    <path id="Tracciato_85980" data-name="Tracciato 85980" d="M102.439,108.31a.7.7,0,1,1-.107,1.208.682.682,0,0,1,.107-1.208" transform="translate(-52.971 -56.21)" fill="#231f20"/>
    <path id="Tracciato_85981" data-name="Tracciato 85981" d="M59.092,112.233a5.335,5.335,0,0,1,3.345-.631,1.842,1.842,0,0,1,.936.3,2.078,2.078,0,0,1,.047,1.04A5.316,5.316,0,0,1,62,115.9c-.14.124-.33.323-.532.2a.828.828,0,0,1,.085-.436,8.758,8.758,0,0,0,.722-2.5.475.475,0,0,0-.4-.535,13.788,13.788,0,0,0-3.093.062.659.659,0,0,1,.3-.461" transform="translate(-30.527 -57.931)" fill="#ffa600"/>
    <path id="Tracciato_85982" data-name="Tracciato 85982" d="M17.373,112.591c.122-.163.3.036.434.072a24.074,24.074,0,0,0,21.268,1.287c.236-.139.648-.067.665.257.036.292-.282.418-.469.576a17.689,17.689,0,0,1-9.014,2.832,18.059,18.059,0,0,1-12.822-4.595c-.124-.088-.248-.339-.062-.43" transform="translate(-8.972 -58.43)" fill="#ffa600"/>
  </g>
</svg>
