<svg id="Raggruppa_30420" data-name="Raggruppa 30420" xmlns="http://www.w3.org/2000/svg" xmlns:xlink="http://www.w3.org/1999/xlink" width="86" height="86" viewBox="0 0 86 86">
  <defs>
    <clipPath id="clip-path">
      <rect id="Rettangolo_12314" data-name="Rettangolo 12314" width="86" height="86" fill="none"/>
    </clipPath>
    <linearGradient id="linear-gradient" x1="0.5" x2="0.5" y2="1" gradientUnits="objectBoundingBox">
      <stop offset="0" stop-color="#60cc9f"/>
      <stop offset="1" stop-color="#3a888c"/>
    </linearGradient>
    <filter id="Tracciato_86854" x="63.928" y="37.8" width="17.183" height="17.687" filterUnits="userSpaceOnUse">
      <feOffset dy="2" input="SourceAlpha"/>
      <feGaussianBlur stdDeviation="2" result="blur"/>
      <feFlood flood-color="#05696f" flood-opacity="0.239"/>
      <feComposite operator="in" in2="blur"/>
      <feComposite in="SourceGraphic"/>
    </filter>
    <filter id="Tracciato_86841" x="17.212" y="49.691" width="29.604" height="16.275" filterUnits="userSpaceOnUse">
      <feOffset dy="2" input="SourceAlpha"/>
      <feGaussianBlur stdDeviation="2" result="blur-2"/>
      <feFlood flood-color="#05696f" flood-opacity="0.239"/>
      <feComposite operator="in" in2="blur-2"/>
      <feComposite in="SourceGraphic"/>
    </filter>
    <filter id="Tracciato_86842" x="17.212" y="60.381" width="29.604" height="16.275" filterUnits="userSpaceOnUse">
      <feOffset dy="2" input="SourceAlpha"/>
      <feGaussianBlur stdDeviation="2" result="blur-3"/>
      <feFlood flood-color="#05696f" flood-opacity="0.239"/>
      <feComposite operator="in" in2="blur-3"/>
      <feComposite in="SourceGraphic"/>
    </filter>
    <filter id="Tracciato_86843" x="16.869" y="15.841" width="23.995" height="28.756" filterUnits="userSpaceOnUse">
      <feOffset dy="2" input="SourceAlpha"/>
      <feGaussianBlur stdDeviation="2" result="blur-4"/>
      <feFlood flood-color="#05696f" flood-opacity="0.239"/>
      <feComposite operator="in" in2="blur-4"/>
      <feComposite in="SourceGraphic"/>
    </filter>
    <filter id="Tracciato_86844" x="28.444" y="15.759" width="24.027" height="28.584" filterUnits="userSpaceOnUse">
      <feOffset dy="2" input="SourceAlpha"/>
      <feGaussianBlur stdDeviation="2" result="blur-5"/>
      <feFlood flood-color="#05696f" flood-opacity="0.239"/>
      <feComposite operator="in" in2="blur-5"/>
      <feComposite in="SourceGraphic"/>
    </filter>
    <filter id="Tracciato_86845" x="39.337" y="15.646" width="25.346" height="28.947" filterUnits="userSpaceOnUse">
      <feOffset dy="2" input="SourceAlpha"/>
      <feGaussianBlur stdDeviation="2" result="blur-6"/>
      <feFlood flood-color="#05696f" flood-opacity="0.239"/>
      <feComposite operator="in" in2="blur-6"/>
      <feComposite in="SourceGraphic"/>
    </filter>
    <filter id="Tracciato_86846" x="9.268" y="4.801" width="63.297" height="80.398" filterUnits="userSpaceOnUse">
      <feOffset dy="2" input="SourceAlpha"/>
      <feGaussianBlur stdDeviation="2" result="blur-7"/>
      <feFlood flood-color="#05696f" flood-opacity="0.239"/>
      <feComposite operator="in" in2="blur-7"/>
      <feComposite in="SourceGraphic"/>
    </filter>
    <filter id="Tracciato_86847" x="17.443" y="35.897" width="17.226" height="19.591" filterUnits="userSpaceOnUse">
      <feOffset dy="2" input="SourceAlpha"/>
      <feGaussianBlur stdDeviation="2" result="blur-8"/>
      <feFlood flood-color="#05696f" flood-opacity="0.239"/>
      <feComposite operator="in" in2="blur-8"/>
      <feComposite in="SourceGraphic"/>
    </filter>
    <filter id="Tracciato_86848" x="23.295" y="37.8" width="17.402" height="17.687" filterUnits="userSpaceOnUse">
      <feOffset dy="2" input="SourceAlpha"/>
      <feGaussianBlur stdDeviation="2" result="blur-9"/>
      <feFlood flood-color="#05696f" flood-opacity="0.239"/>
      <feComposite operator="in" in2="blur-9"/>
      <feComposite in="SourceGraphic"/>
    </filter>
    <filter id="Tracciato_86849" x="29.565" y="37.8" width="20.207" height="17.556" filterUnits="userSpaceOnUse">
      <feOffset dy="2" input="SourceAlpha"/>
      <feGaussianBlur stdDeviation="2" result="blur-10"/>
      <feFlood flood-color="#05696f" flood-opacity="0.239"/>
      <feComposite operator="in" in2="blur-10"/>
      <feComposite in="SourceGraphic"/>
    </filter>
    <filter id="Tracciato_86850" x="38.871" y="37.8" width="17.588" height="19.965" filterUnits="userSpaceOnUse">
      <feOffset dy="2" input="SourceAlpha"/>
      <feGaussianBlur stdDeviation="2" result="blur-11"/>
      <feFlood flood-color="#05696f" flood-opacity="0.239"/>
      <feComposite operator="in" in2="blur-11"/>
      <feComposite in="SourceGraphic"/>
    </filter>
    <filter id="Rettangolo_12313" x="45.395" y="35.435" width="13.98" height="19.921" filterUnits="userSpaceOnUse">
      <feOffset dy="2" input="SourceAlpha"/>
      <feGaussianBlur stdDeviation="2" result="blur-12"/>
      <feFlood flood-color="#05696f" flood-opacity="0.239"/>
      <feComposite operator="in" in2="blur-12"/>
      <feComposite in="SourceGraphic"/>
    </filter>
    <filter id="Tracciato_86851" x="48.584" y="35.303" width="14.266" height="20.053" filterUnits="userSpaceOnUse">
      <feOffset dy="2" input="SourceAlpha"/>
      <feGaussianBlur stdDeviation="2" result="blur-13"/>
      <feFlood flood-color="#05696f" flood-opacity="0.239"/>
      <feComposite operator="in" in2="blur-13"/>
      <feComposite in="SourceGraphic"/>
    </filter>
    <filter id="Tracciato_86852" x="51.554" y="35.303" width="18.183" height="20.052" filterUnits="userSpaceOnUse">
      <feOffset dy="2" input="SourceAlpha"/>
      <feGaussianBlur stdDeviation="2" result="blur-14"/>
      <feFlood flood-color="#05696f" flood-opacity="0.239"/>
      <feComposite operator="in" in2="blur-14"/>
      <feComposite in="SourceGraphic"/>
    </filter>
    <filter id="Tracciato_86853" x="58.66" y="37.8" width="16.829" height="17.687" filterUnits="userSpaceOnUse">
      <feOffset dy="2" input="SourceAlpha"/>
      <feGaussianBlur stdDeviation="2" result="blur-15"/>
      <feFlood flood-color="#05696f" flood-opacity="0.239"/>
      <feComposite operator="in" in2="blur-15"/>
      <feComposite in="SourceGraphic"/>
    </filter>
    <filter id="Tracciato_86855" x="69.582" y="36.359" width="16.357" height="19.129" filterUnits="userSpaceOnUse">
      <feOffset dy="2" input="SourceAlpha"/>
      <feGaussianBlur stdDeviation="2" result="blur-16"/>
      <feFlood flood-color="#05696f" flood-opacity="0.239"/>
      <feComposite operator="in" in2="blur-16"/>
      <feComposite in="SourceGraphic"/>
    </filter>
    <filter id="Tracciato_86856" x="74.257" y="37.8" width="17.744" height="17.687" filterUnits="userSpaceOnUse">
      <feOffset dy="2" input="SourceAlpha"/>
      <feGaussianBlur stdDeviation="2" result="blur-17"/>
      <feFlood flood-color="#05696f" flood-opacity="0.239"/>
      <feComposite operator="in" in2="blur-17"/>
      <feComposite in="SourceGraphic"/>
    </filter>
  </defs>
  <g id="Raggruppa_30409" data-name="Raggruppa 30409" clip-path="url(#clip-path)">
    <g id="Raggruppa_30412" data-name="Raggruppa 30412" transform="translate(7.76)">
      <g transform="matrix(1, 0, 0, 1, -7.76, 0)" filter="url(#Tracciato_86854)">
        <path id="Tracciato_86854-2" data-name="Tracciato 86854" d="M62.168,45.9c0-1.386,1.365-1.958,2.883-1.958h.154V43.78c0-.308-.143-.473-.726-.473a2.47,2.47,0,0,0-1.353.462L62.333,42.6a3.665,3.665,0,0,1,2.4-.8c1.716,0,2.442.583,2.442,2.167v1.508a8.765,8.765,0,0,0,.177,1.881H65.414a1.962,1.962,0,0,1-.11-.529,1.825,1.825,0,0,1-1.441.66A1.542,1.542,0,0,1,62.168,45.9m3.037-.022v-.792h-.154c-.627,0-1.045.2-1.045.627,0,.265.2.419.539.419a.948.948,0,0,0,.66-.254" transform="translate(7.76)" fill="url(#linear-gradient)"/>
      </g>
      <g id="Raggruppa_30411" data-name="Raggruppa 30411">
        <g transform="matrix(1, 0, 0, 1, -7.76, 0)" filter="url(#Tracciato_86841)">
          <path id="Tracciato_86841-2" data-name="Tracciato 86841" d="M30.919,53.691H17.59a2.137,2.137,0,1,0,0,4.275H30.919a2.137,2.137,0,0,0,0-4.275" transform="translate(7.76)" fill="url(#linear-gradient)"/>
        </g>
        <g transform="matrix(1, 0, 0, 1, -7.76, 0)" filter="url(#Tracciato_86842)">
          <path id="Tracciato_86842-2" data-name="Tracciato 86842" d="M30.919,64.381H17.59a2.138,2.138,0,1,0,0,4.275H30.919a2.138,2.138,0,0,0,0-4.275" transform="translate(7.76)" fill="url(#linear-gradient)"/>
        </g>
        <g transform="matrix(1, 0, 0, 1, -7.76, 0)" filter="url(#Tracciato_86843)">
          <path id="Tracciato_86843-2" data-name="Tracciato 86843" d="M24.877,23.773a2.312,2.312,0,0,0,1.614-.524,1.993,1.993,0,0,0,0-2.876,2.314,2.314,0,0,0-1.612-.528H17.766a3.291,3.291,0,0,0-1.385.261,2,2,0,0,0-1,.99,3.266,3.266,0,0,0-.267,1.4V33.955a2.753,2.753,0,0,0,.633,1.926,2.326,2.326,0,0,0,3.349.009,2.75,2.75,0,0,0,.637-1.934v-4.1H23.9a2.275,2.275,0,0,0,1.556-.507,1.844,1.844,0,0,0,.616-1.424,1.869,1.869,0,0,0-.6-1.421,2.261,2.261,0,0,0-1.569-.517H19.737V23.773Z" transform="translate(7.76)" fill="url(#linear-gradient)"/>
        </g>
        <g transform="matrix(1, 0, 0, 1, -7.76, 0)" filter="url(#Tracciato_86844)">
          <path id="Tracciato_86844-2" data-name="Tracciato 86844" d="M36.282,32.34H32.721q.53-.5,1.359-1.178,1.552-1.266,2.208-1.857a7.957,7.957,0,0,0,1.426-1.8,5.148,5.148,0,0,0,.742-2.7A5.01,5.01,0,0,0,37.1,21.387a4.842,4.842,0,0,0-1.507-1.075,8.009,8.009,0,0,0-5.521-.12,5.53,5.53,0,0,0-1.853,1.178A4.964,4.964,0,0,0,27.1,23.012a4.572,4.572,0,0,0-.378,1.77,2.034,2.034,0,0,0,.571,1.481,1.951,1.951,0,0,0,1.411.569,1.843,1.843,0,0,0,1.5-.658,4.2,4.2,0,0,0,.675-1.289,6.509,6.509,0,0,1,.254-.66,1.663,1.663,0,0,1,2.206-.617,1.366,1.366,0,0,1,.534.5,1.421,1.421,0,0,1,.195.75,2.1,2.1,0,0,1-.216.887,3.888,3.888,0,0,1-.7,1.009,8.108,8.108,0,0,1-1.249,1.069,16.492,16.492,0,0,0-1.652,1.391q-1.1,1.012-2.475,2.441a4.231,4.231,0,0,0-.75,1.171,3.254,3.254,0,0,0-.344,1.3,2.146,2.146,0,0,0,.665,1.558,2.38,2.38,0,0,0,1.753.656h7.477a2.084,2.084,0,0,0,1.577-.594,1.989,1.989,0,0,0,.554-1.4,1.847,1.847,0,0,0-.727-1.515,2.713,2.713,0,0,0-1.7-.494" transform="translate(7.76)" fill="url(#linear-gradient)"/>
        </g>
        <g transform="matrix(1, 0, 0, 1, -7.76, 0)" filter="url(#Tracciato_86845)">
          <path id="Tracciato_86845-2" data-name="Tracciato 86845" d="M49.97,29.563a3.477,3.477,0,0,0-1.218-.274V22.217a2.265,2.265,0,0,0-2.345-2.569,1.964,1.964,0,0,0-1.368.539,9.062,9.062,0,0,0-.962,1.135l-5.756,7.7c-.113.15-.222.306-.325.462a2.825,2.825,0,0,0-.3.59,2,2,0,0,0-.118.658,2.331,2.331,0,0,0,.746,1.783,2.862,2.862,0,0,0,1.986.643h4.3v1.09a2.451,2.451,0,0,0,.556,1.689,2.1,2.1,0,0,0,2.962.084c.024-.023.048-.047.071-.071a2.452,2.452,0,0,0,.554-1.7v-1.1a2.607,2.607,0,0,0,1.434-.408,1.743,1.743,0,0,0,.729-1.518,1.673,1.673,0,0,0-.945-1.665M44.61,26.607v2.67H42.634Z" transform="translate(7.76)" fill="url(#linear-gradient)"/>
        </g>
        <g transform="matrix(1, 0, 0, 1, -7.76, 0)" filter="url(#Tracciato_86846)">
          <path id="Tracciato_86846-2" data-name="Tracciato 86846" d="M54.531,52.94v.747H43.438a6.007,6.007,0,0,0-6.006,6.006v13.23H13.514a1.734,1.734,0,0,1-1.733-1.73V14.809a1.735,1.735,0,0,1,1.731-1.733H52.8a1.735,1.735,0,0,1,1.731,1.733V35.134a2.137,2.137,0,0,0,4.274,0V14.809A6.008,6.008,0,0,0,52.8,8.8H13.514a6.008,6.008,0,0,0-6.006,6.008V71.193A6.006,6.006,0,0,0,13.514,77.2H41.6l.1-.115L58.692,57.961l.113-.128V52.94a2.137,2.137,0,0,0-4.274,0m-12.824,17.7V59.693a1.735,1.735,0,0,1,1.731-1.733h9.537Z" transform="translate(7.76)" fill="url(#linear-gradient)"/>
        </g>
        <g transform="matrix(1, 0, 0, 1, -7.76, 0)" filter="url(#Tracciato_86847)">
          <path id="Tracciato_86847-2" data-name="Tracciato 86847" d="M15.683,46.784l.825-1.452a2.881,2.881,0,0,0,1.5.484c.617,0,.9-.2.9-.539,0-.462-.726-.495-1.6-.935a2.307,2.307,0,0,1-1.463-2.278A2.272,2.272,0,0,1,18.39,39.9a3.726,3.726,0,0,1,2.31.638l-.781,1.452a3.19,3.19,0,0,0-1.364-.418c-.5,0-.738.132-.738.495,0,.441.573.518,1.365.869.968.43,1.727.913,1.727,2.212,0,1.474-1.023,2.343-2.817,2.343a4.042,4.042,0,0,1-2.409-.7" transform="translate(7.76)" fill="url(#linear-gradient)"/>
        </g>
        <g transform="matrix(1, 0, 0, 1, -7.76, 0)" filter="url(#Tracciato_86848)">
          <path id="Tracciato_86848-2" data-name="Tracciato 86848" d="M21.535,44.627A2.716,2.716,0,0,1,24.4,41.8c1.694,0,2.541,1,2.541,2.85a6.08,6.08,0,0,1-.033.615H23.659a.994.994,0,0,0,1.133.814,2.872,2.872,0,0,0,1.342-.286l.583,1.188a3.911,3.911,0,0,1-2.134.506,2.714,2.714,0,0,1-3.048-2.86m3.488-.638c-.011-.495-.176-.848-.649-.848-.452,0-.693.266-.781.848Z" transform="translate(7.76)" fill="url(#linear-gradient)"/>
        </g>
        <g transform="matrix(1, 0, 0, 1, -7.76, 0)" filter="url(#Tracciato_86849)">
          <path id="Tracciato_86849-2" data-name="Tracciato 86849" d="M27.805,41.932h1.937v.6a1.981,1.981,0,0,1,1.595-.737,1.338,1.338,0,0,1,1.386.815A2.076,2.076,0,0,1,34.45,41.8c1.177,0,1.562.77,1.562,1.8v3.752h-1.98V44.023c0-.441-.11-.606-.451-.606a.9.9,0,0,0-.682.441v3.5H30.918V44.023c0-.441-.154-.606-.45-.606a.884.884,0,0,0-.683.418v3.521h-1.98Z" transform="translate(7.76)" fill="url(#linear-gradient)"/>
        </g>
        <g transform="matrix(1, 0, 0, 1, -7.76, 0)" filter="url(#Tracciato_86850)">
          <path id="Tracciato_86850-2" data-name="Tracciato 86850" d="M37.111,41.932h1.937v.549A1.756,1.756,0,0,1,40.5,41.8c1.4,0,2.2,1.012,2.2,2.838,0,1.727-1.023,2.849-2.453,2.849a1.919,1.919,0,0,1-1.155-.319v2.6h-1.98Zm3.5,2.695c0-.891-.287-1.309-.782-1.309a.962.962,0,0,0-.737.4v2.024a.921.921,0,0,0,.66.264c.55,0,.859-.429.859-1.375" transform="translate(7.76)" fill="url(#linear-gradient)"/>
        </g>
        <g transform="matrix(1, 0, 0, 1, -7.76, 0)" filter="url(#Rettangolo_12313)">
          <rect id="Rettangolo_12313-2" data-name="Rettangolo 12313" width="1.98" height="7.921" transform="translate(51.39 39.43)" fill="url(#linear-gradient)"/>
        </g>
        <g transform="matrix(1, 0, 0, 1, -7.76, 0)" filter="url(#Tracciato_86851)">
          <path id="Tracciato_86851-2" data-name="Tracciato 86851" d="M46.824,40.381a1.134,1.134,0,1,1,1.133,1.089,1.086,1.086,0,0,1-1.133-1.089m.132,1.551h2v5.424h-2Z" transform="translate(7.76)" fill="url(#linear-gradient)"/>
        </g>
        <g transform="matrix(1, 0, 0, 1, -7.76, 0)" filter="url(#Tracciato_86852)">
          <path id="Tracciato_86852-2" data-name="Tracciato 86852" d="M50.542,43.373h-.748V41.932h.748v-.364c0-1.429,1.023-2.265,2.629-2.265a4.387,4.387,0,0,1,2.179.45l-.6,1.42A2.577,2.577,0,0,0,53.5,40.9c-.616,0-.99.232-.99.826v.209h3.466v5.423h-1.97V43.373h-1.5v3.982H50.542Z" transform="translate(7.76)" fill="url(#linear-gradient)"/>
        </g>
        <g transform="matrix(1, 0, 0, 1, -7.76, 0)" filter="url(#Tracciato_86853)">
          <path id="Tracciato_86853-2" data-name="Tracciato 86853" d="M56.9,44.66c0-1.815,1.243-2.86,3.1-2.86a3.236,3.236,0,0,1,1.662.363l-.539,1.309a2.247,2.247,0,0,0-1.023-.22c-.683,0-1.113.472-1.113,1.342,0,.891.386,1.42,1.157,1.42a2.209,2.209,0,0,0,1.044-.243l.539,1.277a3.179,3.179,0,0,1-1.771.439c-1.838,0-3.058-1.012-3.058-2.827" transform="translate(7.76)" fill="url(#linear-gradient)"/>
        </g>
        <g transform="matrix(1, 0, 0, 1, -7.76, 0)" filter="url(#Tracciato_86855)">
          <path id="Tracciato_86855-2" data-name="Tracciato 86855" d="M68.658,45.6V43.373h-.836V41.932h.836V40.359h1.969v1.573h1.2v1.441h-1.2v1.783c0,.528.121.737.473.737a1.662,1.662,0,0,0,.694-.165l.385,1.463a3.56,3.56,0,0,1-1.529.3c-1.563,0-1.992-.759-1.992-1.892" transform="translate(7.76)" fill="url(#linear-gradient)"/>
        </g>
        <g transform="matrix(1, 0, 0, 1, -7.76, 0)" filter="url(#Tracciato_86856)">
          <path id="Tracciato_86856-2" data-name="Tracciato 86856" d="M72.5,44.671A2.72,2.72,0,0,1,75.369,41.8a2.671,2.671,0,0,1,2.872,2.806,2.739,2.739,0,0,1-2.872,2.881A2.684,2.684,0,0,1,72.5,44.671m3.642,0c0-.9-.165-1.463-.792-1.463s-.759.506-.759,1.4.187,1.452.814,1.452.737-.495.737-1.387" transform="translate(7.76)" fill="url(#linear-gradient)"/>
        </g>
      </g>
    </g>
  </g>
</svg>
