<svg xmlns="http://www.w3.org/2000/svg" width="476" height="304" viewBox="0 0 476 304">
  <g id="Postale_premarcato" data-name="Postale premarcato" transform="translate(21257.824 15391.686)">
    <path id="Tracciato_86557" data-name="Tracciato 86557" d="M0,0H476V304H0Z" transform="translate(-21257.824 -15391.686)" fill="#f7fafa"/>
    <g id="Raggruppa_29678" data-name="Raggruppa 29678" transform="translate(-21238.324 -15369.432)">
      <rect id="Rettangolo_10966" data-name="Rettangolo 10966" width="21" height="21" rx="2" transform="translate(0.5 -0.254)" fill="#b0cfd1"/>
      <path id="Tracciato_86991" data-name="Tracciato 86991" d="M-3.893-5.37h.87v.36c0,.18,0,.345.015.495h-.885v1.38h1.08A4.1,4.1,0,0,0,1.432.18,4.364,4.364,0,0,0,4.207-.675l-.825-1.5a2.966,2.966,0,0,1-1.875.615,2.122,2.122,0,0,1-2.1-1.575h2.34v-1.38h-2.6c-.015-.18-.015-.36-.015-.555v-.3h2.61V-6.75H-.638a2.174,2.174,0,0,1,2.145-1.7,3.149,3.149,0,0,1,1.755.48l.84-1.56a4.4,4.4,0,0,0-2.64-.645,4.153,4.153,0,0,0-4.29,3.42H-3.893Z" transform="translate(10.5 14.746)" fill="#fff"/>
    </g>
    <path id="Tracciato_86983" data-name="Tracciato 86983" d="M1.96.13C3.09.13,3.8-.42,3.8-1.37c0-.82-.63-1.17-1.41-1.49-.54-.22-.96-.35-.96-.74,0-.33.24-.53.73-.53a1.9,1.9,0,0,1,1.05.33l.42-.74a2.679,2.679,0,0,0-1.5-.42C1.1-4.96.45-4.38.45-3.54c0,.77.48,1.13,1.19,1.45s1.15.45,1.15.83c0,.36-.33.56-.88.56A2.153,2.153,0,0,1,.72-1.1L.33-.34A2.815,2.815,0,0,0,1.96.13ZM6.27.12a1.926,1.926,0,0,0,1.56-.8A4.713,4.713,0,0,0,7.92,0H8.98a5.715,5.715,0,0,1-.12-1.23V-4.84H7.8v3.32a1.679,1.679,0,0,1-1.17.73c-.55,0-.74-.31-.74-.85v-3.2H4.83v3.42A1.347,1.347,0,0,0,6.27.12Zm9.22,0a3.231,3.231,0,0,0,2.07-.69l-.49-.79a2.363,2.363,0,0,1-1.56.53c-1.46,0-2.17-1.19-2.17-2.55a2.2,2.2,0,0,1,2.14-2.46,2.483,2.483,0,0,1,1.44.41l.53-.83a3.334,3.334,0,0,0-1.94-.52,3.262,3.262,0,0,0-3.36,3.44A3.256,3.256,0,0,0,15.49.12ZM21.7-6.66H20.68L18.27,0h1.02ZM25.94.12a3.231,3.231,0,0,0,2.07-.69l-.49-.79a2.363,2.363,0,0,1-1.56.53c-1.46,0-2.17-1.19-2.17-2.55a2.2,2.2,0,0,1,2.14-2.46,2.483,2.483,0,0,1,1.44.41l.53-.83a3.334,3.334,0,0,0-1.94-.52A3.262,3.262,0,0,0,22.6-3.34,3.256,3.256,0,0,0,25.94.12ZM31.09,0h1.07V-3.32a1.582,1.582,0,0,1,1.17-.73c.55,0,.74.31.74.85V0h1.06V-3.42a1.352,1.352,0,0,0-1.44-1.54,1.976,1.976,0,0,0-1.55.77v-.65H31.09ZM37.1.1a.751.751,0,0,0,.76-.75.743.743,0,0,0-.76-.74.745.745,0,0,0-.77.74A.754.754,0,0,0,37.1.1ZM43.18,0h1.365V-6.292H43.466l-2.054.585L41.7-4.6,43.18-5.07Zm2.73,0h5.668V-1.118H48.913c-.312,0-.728.039-.78.039,1.079-.806,2.873-2.158,2.873-3.549,0-1.261-1.04-1.833-2.418-1.833a3.68,3.68,0,0,0-2.457.975l.715.871a2.313,2.313,0,0,1,1.573-.7c.741,0,1.1.351,1.1.91,0,1.157-2.483,2.938-3.614,3.809Zm7.644,2.444c2,0,3.562-1.04,3.562-2.782A2.2,2.2,0,0,0,55.1-2.5v-.013a2.3,2.3,0,0,0,1.742-2.054c0-1.027-.832-1.885-2.353-1.885a3.343,3.343,0,0,0-2.327.871l.663.884A2.083,2.083,0,0,1,54.269-5.3c.741,0,1.131.338,1.131.936,0,.949-1.17,1.56-2.093,1.573v1.014c1.378,0,2.34.39,2.34,1.508,0,1.04-1,1.612-2.21,1.612a4.556,4.556,0,0,1-.9-.091l-.208,1.118A6.7,6.7,0,0,0,53.554,2.444ZM62,2.3h1.378V0h1.391V-1.092H63.382v-5.2h-1.2L57.961-.884V0H62ZM59.469-1.092l2.509-3.276H62v3.276Zm7.124,3.536c2.353,0,3.731-1.287,3.731-3.029,0-1.534-1.014-2.7-3.029-2.73l.13-1.9h2.743V-6.292H66.177L65.9-2.171a5.49,5.49,0,0,1,.832-.052c1.209,0,2.119.468,2.119,1.716,0,1.209-1.027,1.82-2.21,1.82a3.412,3.412,0,0,1-.832-.091L65.566,2.34A4.821,4.821,0,0,0,66.593,2.444ZM74.315.156a2.736,2.736,0,0,0,2.9-2.782,2.45,2.45,0,0,0-2.626-2.6,2.763,2.763,0,0,0-1.755.585,3.344,3.344,0,0,1,.988-2.054,4.4,4.4,0,0,1,3.042-1l-.3-1.118a4.93,4.93,0,0,0-5.278,5.239C71.286-1.716,72.144.156,74.315.156Zm.052-1.092c-1.131,0-1.664-1.053-1.612-2.431v-.221a2.352,2.352,0,0,1,1.56-.546c.936,0,1.43.585,1.43,1.638A1.424,1.424,0,0,1,74.367-.936ZM79.281,2.6l3.77-8.073v-.819H77.773v1.157h3.705L78.111,2.028Zm7.5-2.444c1.638,0,2.821-.9,2.821-2.366,0-1.014-.611-1.755-1.807-2.4,1.053-.611,1.612-1.248,1.612-2.067,0-1.235-.975-2.132-2.639-2.132a2.36,2.36,0,0,0-2.561,2.223c0,.819.416,1.469,1.482,2.093a2.845,2.845,0,0,0-1.729,2.366C83.961-.9,84.923.156,86.782.156Zm.013-1.092A1.28,1.28,0,0,1,85.365-2.2c0-.65.39-1.17,1.274-1.729,1.144.624,1.534,1.144,1.534,1.716A1.251,1.251,0,0,1,86.795-.936Zm.039-4.238c-.9-.52-1.209-.962-1.209-1.469a1.1,1.1,0,0,1,1.2-1.092A1.086,1.086,0,0,1,88-6.6C88-6.149,87.653-5.668,86.834-5.174Z" transform="translate(-21206.824 -15352.686)" fill="#005157"/>
    <path id="Tracciato_86984" data-name="Tracciato 86984" d="M-76.91.12a1.722,1.722,0,0,0,1.38-.66,2.481,2.481,0,0,0,.1.54h1.05a5.363,5.363,0,0,1-.14-1.21V-7.2h-1.06v2.62a1.743,1.743,0,0,0-1.17-.38A2.271,2.271,0,0,0-78.9-2.41C-78.9-.79-78.1.12-76.91.12Zm.29-.88c-.8,0-1.15-.66-1.15-1.66s.43-1.68,1.21-1.68a1.36,1.36,0,0,1,.98.37v2.4A1.333,1.333,0,0,1-76.62-.76Zm4.12-4.83a.685.685,0,0,0,.7-.68.685.685,0,0,0-.7-.68.683.683,0,0,0-.69.68A.683.683,0,0,0-72.5-5.59ZM-73.03,0h1.07V-4.84h-1.07Zm4.84,0h3.72V-.94h-2.6v-2.1h2.23v-.9h-2.23V-5.72h2.53v-.94h-3.65Zm6.36.12a1.926,1.926,0,0,0,1.56-.8,4.713,4.713,0,0,0,.09.68h1.06a5.715,5.715,0,0,1-.12-1.23V-4.84H-60.3v3.32a1.679,1.679,0,0,1-1.17.73c-.55,0-.74-.31-.74-.85v-3.2h-1.06v3.42A1.347,1.347,0,0,0-61.83.12ZM-57.79,0h1.07V-3.14c.09-.18.46-.85,1.11-.85a.89.89,0,0,1,.47.1l.26-.95a1.171,1.171,0,0,0-.59-.12,1.506,1.506,0,0,0-1.25.82v-.7h-1.07Zm5.57.12a2.383,2.383,0,0,0,2.37-2.56,2.362,2.362,0,0,0-2.39-2.52,2.324,2.324,0,0,0-2.32,2.55A2.323,2.323,0,0,0-52.22.12Zm.01-.84c-.86,0-1.23-.76-1.23-1.72s.32-1.69,1.18-1.69,1.28.76,1.28,1.72S-51.34-.72-52.21-.72Zm7.256.72h1.47V-6.776h-1.162l-2.212.63.308,1.19,1.6-.5Zm2.94,0h6.1V-1.2h-2.87c-.336,0-.784.042-.84.042,1.162-.868,3.094-2.324,3.094-3.822,0-1.358-1.12-1.974-2.6-1.974a3.963,3.963,0,0,0-2.646,1.05l.77.938a2.491,2.491,0,0,1,1.694-.756c.8,0,1.19.378,1.19.98,0,1.246-2.674,3.164-3.892,4.1Zm8.232,2.632c2.156,0,3.836-1.12,3.836-3a2.372,2.372,0,0,0-2.17-2.324V-2.7A2.478,2.478,0,0,0-30.24-4.914c0-1.106-.9-2.03-2.534-2.03a3.6,3.6,0,0,0-2.506.938l.714.952a2.243,2.243,0,0,1,1.554-.658c.8,0,1.218.364,1.218,1.008,0,1.022-1.26,1.68-2.254,1.694v1.092c1.484,0,2.52.42,2.52,1.624,0,1.12-1.078,1.736-2.38,1.736a4.906,4.906,0,0,1-.966-.1l-.224,1.2A7.213,7.213,0,0,0-33.782,2.632Zm5.376-.448A4.356,4.356,0,0,0-26.628-.77a1.065,1.065,0,0,0-1.064-1.162.945.945,0,0,0-.98.966c0,.63.448.77.448,1.316a1.992,1.992,0,0,1-.784,1.3Zm7.84.294h1.484V0h1.5V-1.176h-1.5v-5.6H-20.37L-24.92-.952V0h4.354ZM-23.3-1.176l2.7-3.528h.028v3.528Zm7.672,3.808c2.534,0,4.018-1.386,4.018-3.262,0-1.652-1.092-2.912-3.262-2.94l.14-2.044h2.954V-6.776h-4.3l-.294,4.438a5.913,5.913,0,0,1,.9-.056c1.3,0,2.282.5,2.282,1.848,0,1.3-1.106,1.96-2.38,1.96a3.674,3.674,0,0,1-.9-.1l-.266,1.2A5.192,5.192,0,0,0-15.624,2.632Zm7.938-7.686H-6.8v.364c0,.2,0,.392.014.574h-.9v1.092h1.064A3.831,3.831,0,0,0-2.744.168,3.842,3.842,0,0,0-.294-.588l-.644-1.12a2.894,2.894,0,0,1-1.75.56A2.311,2.311,0,0,1-4.97-3.024h2.3V-4.116H-5.18c-.014-.182-.014-.392-.014-.6v-.336h2.52V-6.146H-5.04A2.374,2.374,0,0,1-2.716-8.19a3.088,3.088,0,0,1,1.68.462L-.392-8.9A3.871,3.871,0,0,0-2.73-9.492,3.861,3.861,0,0,0-6.664-6.146H-7.686Z" transform="translate(-20845.824 -15352.686)" fill="#005157"/>
    <rect id="Rettangolo_12146" data-name="Rettangolo 12146" width="476" height="12" transform="translate(-21257.824 -15391.686)" fill="#e1eded"/>
    <rect id="Rettangolo_12148" data-name="Rettangolo 12148" width="130" height="9" transform="translate(-21237.824 -15275.686)" fill="#fff"/>
    <rect id="Rettangolo_12159" data-name="Rettangolo 12159" width="284" height="9" transform="translate(-21237.824 -15316.686)" fill="#fff"/>
    <rect id="Rettangolo_12160" data-name="Rettangolo 12160" width="284" height="9" transform="translate(-21237.824 -15304.686)" fill="#fff"/>
    <path id="Tracciato_86986" data-name="Tracciato 86986" d="M-34.664-.322l.8-.882-2.6-2.3,2.59-2.324-.8-.826L-38.22-3.458Zm7.938.49c1.764,0,3.038-.966,3.038-2.548,0-1.092-.658-1.89-1.946-2.59C-24.5-5.628-23.9-6.314-23.9-7.2c0-1.33-1.05-2.3-2.842-2.3A2.542,2.542,0,0,0-29.5-7.1c0,.882.448,1.582,1.6,2.254A3.064,3.064,0,0,0-29.764-2.3C-29.764-.966-28.728.168-26.726.168Zm.014-1.176a1.378,1.378,0,0,1-1.54-1.358c0-.7.42-1.26,1.372-1.862,1.232.672,1.652,1.232,1.652,1.848A1.348,1.348,0,0,1-26.712-1.008Zm.042-4.564c-.966-.56-1.3-1.036-1.3-1.582A1.18,1.18,0,0,1-26.684-8.33,1.169,1.169,0,0,1-25.41-7.112C-25.41-6.622-25.788-6.1-26.67-5.572Zm4.662,8.162c3.738,0,5.838-2.184,5.838-5.5,0-1.974-.812-4.032-3.206-4.032A2.989,2.989,0,0,0-22.54-3.99a2.66,2.66,0,0,0,2.814,2.814,3.067,3.067,0,0,0,1.9-.616A3.257,3.257,0,0,1-18.9.308,5.313,5.313,0,0,1-22.316,1.4Zm2.59-4.928c-1.008,0-1.54-.672-1.54-1.708a1.567,1.567,0,0,1,1.526-1.722c1.2,0,1.75,1.162,1.708,2.618l-.014.252A2.669,2.669,0,0,1-19.418-2.338Zm7.6,2.506a2.946,2.946,0,0,0,3.122-3,2.638,2.638,0,0,0-2.828-2.8,2.975,2.975,0,0,0-1.89.63A3.6,3.6,0,0,1-12.348-7.21,4.743,4.743,0,0,1-9.072-8.288l-.322-1.2A5.31,5.31,0,0,0-15.078-3.85C-15.078-1.848-14.154.168-11.816.168Zm.056-1.176c-1.218,0-1.792-1.134-1.736-2.618v-.238a2.533,2.533,0,0,1,1.68-.588c1.008,0,1.54.63,1.54,1.764A1.533,1.533,0,0,1-11.76-1.008Zm7.84.686L-.378-3.514-3.934-6.65l-.812.882,2.618,2.3-2.59,2.324Z" transform="translate(-20810.824 -15132.686)" fill="#005157"/>
    <path id="Tracciato_86985" data-name="Tracciato 86985" d="M3.934,12.678l.8-.882-2.6-2.3,2.59-2.324-.8-.826L.378,9.542ZM10.472,13h1.47V6.224H10.78l-2.212.63.308,1.19,1.6-.5Zm2.94,0h6.1V11.8h-2.87c-.336,0-.784.042-.84.042C16.968,10.97,18.9,9.514,18.9,8.016c0-1.358-1.12-1.974-2.6-1.974a3.963,3.963,0,0,0-2.646,1.05l.77.938a2.491,2.491,0,0,1,1.694-.756c.8,0,1.19.378,1.19.98,0,1.246-2.674,3.164-3.892,4.1Zm8.232,2.632c2.156,0,3.836-1.12,3.836-3a2.372,2.372,0,0,0-2.17-2.324V10.3a2.478,2.478,0,0,0,1.876-2.212c0-1.106-.9-2.03-2.534-2.03a3.6,3.6,0,0,0-2.506.938l.714.952a2.243,2.243,0,0,1,1.554-.658c.8,0,1.218.364,1.218,1.008,0,1.022-1.26,1.68-2.254,1.694v1.092c1.484,0,2.52.42,2.52,1.624,0,1.12-1.078,1.736-2.38,1.736a4.906,4.906,0,0,1-.966-.1l-.224,1.2A7.213,7.213,0,0,0,21.644,15.632Zm9.1-.154h1.484V13h1.5V11.824h-1.5v-5.6H30.94l-4.55,5.824V13h4.354Zm-2.73-3.654,2.7-3.528h.028v3.528Zm7.672,3.808c2.534,0,4.018-1.386,4.018-3.262,0-1.652-1.092-2.912-3.262-2.94l.14-2.044h2.954V6.224h-4.3l-.294,4.438a5.913,5.913,0,0,1,.9-.056c1.3,0,2.282.5,2.282,1.848,0,1.3-1.106,1.96-2.38,1.96a3.674,3.674,0,0,1-.9-.1l-.266,1.2A5.192,5.192,0,0,0,35.686,15.632ZM44,13.168a2.946,2.946,0,0,0,3.122-3,2.638,2.638,0,0,0-2.828-2.8,2.975,2.975,0,0,0-1.89.63A3.6,3.6,0,0,1,43.47,5.79a4.743,4.743,0,0,1,3.276-1.078l-.322-1.2A5.31,5.31,0,0,0,40.74,9.15C40.74,11.152,41.664,13.168,44,13.168Zm.056-1.176c-1.218,0-1.792-1.134-1.736-2.618V9.136A2.533,2.533,0,0,1,44,8.548c1.008,0,1.54.63,1.54,1.764A1.533,1.533,0,0,1,44.058,11.992ZM49.35,15.8l4.06-8.694V6.224H47.726V7.47h3.99L48.09,15.184Zm8.078-2.632c1.764,0,3.038-.966,3.038-2.548,0-1.092-.658-1.89-1.946-2.59,1.134-.658,1.736-1.344,1.736-2.226,0-1.33-1.05-2.3-2.842-2.3A2.542,2.542,0,0,0,54.656,5.9c0,.882.448,1.582,1.6,2.254A3.064,3.064,0,0,0,54.39,10.7C54.39,12.034,55.426,13.168,57.428,13.168Zm.014-1.176a1.378,1.378,0,0,1-1.54-1.358c0-.7.42-1.26,1.372-1.862,1.232.672,1.652,1.232,1.652,1.848A1.348,1.348,0,0,1,57.442,11.992Zm.042-4.564c-.966-.56-1.3-1.036-1.3-1.582a1.284,1.284,0,0,1,2.562.042C58.744,6.378,58.366,6.9,57.484,7.428Zm4.662,8.162c3.738,0,5.838-2.184,5.838-5.5,0-1.974-.812-4.032-3.206-4.032A2.989,2.989,0,0,0,61.614,9.01a2.66,2.66,0,0,0,2.814,2.814,3.067,3.067,0,0,0,1.9-.616,3.257,3.257,0,0,1-1.078,2.1A5.313,5.313,0,0,1,61.838,14.4Zm2.59-4.928c-1.008,0-1.54-.672-1.54-1.708a1.567,1.567,0,0,1,1.526-1.722c1.2,0,1.75,1.162,1.708,2.618l-.014.252A2.669,2.669,0,0,1,64.736,10.662Zm7.84,2.506A3.466,3.466,0,0,0,76.16,9.584,3.392,3.392,0,0,0,72.6,6.056a3.451,3.451,0,0,0-3.57,3.57A3.4,3.4,0,0,0,72.576,13.168ZM72.6,11.95c-1.3,0-1.974-.994-1.974-2.366s.658-2.31,1.946-2.31,1.988.994,1.988,2.352S73.906,11.95,72.6,11.95Zm5.068,3.64c3.738,0,5.838-2.184,5.838-5.5,0-1.974-.812-4.032-3.206-4.032A2.989,2.989,0,0,0,77.14,9.01a2.66,2.66,0,0,0,2.814,2.814,3.067,3.067,0,0,0,1.9-.616,3.257,3.257,0,0,1-1.078,2.1A5.313,5.313,0,0,1,77.364,14.4Zm2.59-4.928c-1.008,0-1.54-.672-1.54-1.708a1.567,1.567,0,0,1,1.526-1.722c1.2,0,1.75,1.162,1.708,2.618l-.014.252A2.669,2.669,0,0,1,80.262,10.662Zm7.476,2.506c1.764,0,3.038-.966,3.038-2.548,0-1.092-.658-1.89-1.946-2.59,1.134-.658,1.736-1.344,1.736-2.226,0-1.33-1.05-2.3-2.842-2.3A2.542,2.542,0,0,0,84.966,5.9c0,.882.448,1.582,1.6,2.254A3.064,3.064,0,0,0,84.7,10.7C84.7,12.034,85.736,13.168,87.738,13.168Zm.014-1.176a1.378,1.378,0,0,1-1.54-1.358c0-.7.42-1.26,1.372-1.862,1.232.672,1.652,1.232,1.652,1.848A1.348,1.348,0,0,1,87.752,11.992Zm.042-4.564c-.966-.56-1.3-1.036-1.3-1.582a1.284,1.284,0,0,1,2.562.042C89.054,6.378,88.676,6.9,87.794,7.428ZM93.3,15.8l4.06-8.694V6.224H91.672V7.47h3.99l-3.626,7.714Zm8.9-3.122,3.542-3.192L102.186,6.35l-.812.882,2.618,2.3-2.59,2.324Z" transform="translate(-21227.824 -15145.686)" fill="#005157"/>
    <rect id="Rettangolo_12151" data-name="Rettangolo 12151" width="80" height="9" transform="translate(-21089.824 -15280.686)" fill="#fff"/>
    <rect id="Rettangolo_12155" data-name="Rettangolo 12155" width="117" height="9" transform="translate(-20938.824 -15280.686)" fill="#fff"/>
    <rect id="Rettangolo_12153" data-name="Rettangolo 12153" width="80" height="9" transform="translate(-21089.824 -15268.686)" fill="#fff"/>
    <rect id="Rettangolo_12156" data-name="Rettangolo 12156" width="117" height="9" transform="translate(-20938.824 -15268.686)" fill="#fff"/>
    <rect id="Rettangolo_12154" data-name="Rettangolo 12154" width="80" height="9" transform="translate(-21089.824 -15256.686)" fill="#fff"/>
    <rect id="Rettangolo_12157" data-name="Rettangolo 12157" width="117" height="9" transform="translate(-20938.824 -15256.686)" fill="#fff"/>
    <rect id="Rettangolo_12158" data-name="Rettangolo 12158" width="117" height="9" transform="translate(-20938.824 -15244.686)" fill="#fff"/>
    <g id="Rettangolo_12152" data-name="Rettangolo 12152" transform="translate(-21257.824 -15245.686)" fill="#fff" stroke="#e6e8e8" stroke-width="1" stroke-dasharray="4">
      <rect width="150" height="85" stroke="none"/>
      <rect x="0.5" y="0.5" width="149" height="84" fill="none"/>
    </g>
    <path id="Tracciato_86556" data-name="Tracciato 86556" d="M-20803.289-15573h-475.734" transform="translate(21.2 412.314)" fill="none" stroke="#e6e8e8" stroke-width="0.5"/>
    <g id="Raggruppa_29683" data-name="Raggruppa 29683" transform="translate(-21198.473 -15595.686)">
      <rect id="Rettangolo_10972" data-name="Rettangolo 10972" width="4" height="30" transform="translate(108.648 390)" fill="#fff"/>
      <rect id="Rettangolo_10973" data-name="Rettangolo 10973" width="2" height="30" transform="translate(116.648 390)" fill="#fff"/>
      <rect id="Rettangolo_10974" data-name="Rettangolo 10974" width="2" height="30" transform="translate(120.648 390)" fill="#fff"/>
      <rect id="Rettangolo_10975" data-name="Rettangolo 10975" width="2" height="30" transform="translate(124.648 390)" fill="#fff"/>
      <rect id="Rettangolo_10976" data-name="Rettangolo 10976" width="2" height="30" transform="translate(128.648 390)" fill="#fff"/>
      <rect id="Rettangolo_10977" data-name="Rettangolo 10977" width="4" height="30" transform="translate(134.648 390)" fill="#fff"/>
      <rect id="Rettangolo_10978" data-name="Rettangolo 10978" width="2" height="30" transform="translate(142.648 390)" fill="#fff"/>
      <rect id="Rettangolo_10979" data-name="Rettangolo 10979" width="2" height="30" transform="translate(146.648 390)" fill="#fff"/>
      <rect id="Rettangolo_10980" data-name="Rettangolo 10980" width="2" height="30" transform="translate(150.648 390)" fill="#fff"/>
      <rect id="Rettangolo_10981" data-name="Rettangolo 10981" width="2" height="30" transform="translate(163.648 390)" fill="#fff"/>
      <rect id="Rettangolo_10982" data-name="Rettangolo 10982" width="4" height="30" transform="translate(164.648 390)" fill="#fff"/>
      <rect id="Rettangolo_10983" data-name="Rettangolo 10983" width="2" height="30" transform="translate(172.648 390)" fill="#fff"/>
      <rect id="Rettangolo_10984" data-name="Rettangolo 10984" width="2" height="30" transform="translate(177.648 390)" fill="#fff"/>
      <rect id="Rettangolo_10985" data-name="Rettangolo 10985" width="2" height="30" transform="translate(182.648 390)" fill="#fff"/>
      <rect id="Rettangolo_10986" data-name="Rettangolo 10986" width="2" height="30" transform="translate(185.648 390)" fill="#fff"/>
      <rect id="Rettangolo_10987" data-name="Rettangolo 10987" width="4" height="30" transform="translate(192.648 390)" fill="#fff"/>
      <rect id="Rettangolo_10988" data-name="Rettangolo 10988" width="2" height="30" transform="translate(215.648 390)" fill="#fff"/>
      <rect id="Rettangolo_10989" data-name="Rettangolo 10989" width="2.3" height="30.663" transform="translate(219.163 390)" fill="#fff"/>
      <rect id="Rettangolo_10990" data-name="Rettangolo 10990" width="1" height="30" transform="translate(223.648 390)" fill="#fff"/>
      <rect id="Rettangolo_10991" data-name="Rettangolo 10991" width="2" height="30" transform="translate(227.648 390)" fill="#fff"/>
      <rect id="Rettangolo_10992" data-name="Rettangolo 10992" width="2" height="30" transform="translate(234.648 390)" fill="#fff"/>
      <rect id="Rettangolo_10993" data-name="Rettangolo 10993" width="2" height="30" transform="translate(242.648 390)" fill="#fff"/>
      <rect id="Rettangolo_10994" data-name="Rettangolo 10994" width="2" height="30" transform="translate(209.648 390)" fill="#fff"/>
      <rect id="Rettangolo_10995" data-name="Rettangolo 10995" width="2" height="30" transform="translate(199.648 390)" fill="#fff"/>
      <rect id="Rettangolo_10996" data-name="Rettangolo 10996" width="2" height="30" transform="translate(204.648 390)" fill="#fff"/>
      <rect id="Rettangolo_10997" data-name="Rettangolo 10997" width="4" height="30" transform="translate(247.648 390)" fill="#fff"/>
      <rect id="Rettangolo_10998" data-name="Rettangolo 10998" width="2" height="30" transform="translate(256.648 390)" fill="#fff"/>
      <rect id="Rettangolo_10999" data-name="Rettangolo 10999" width="2" height="30" transform="translate(260.648 390)" fill="#fff"/>
      <rect id="Rettangolo_11000" data-name="Rettangolo 11000" width="2" height="30" transform="translate(265.648 390)" fill="#fff"/>
      <rect id="Rettangolo_11001" data-name="Rettangolo 11001" width="2" height="30" transform="translate(270.648 390)" fill="#fff"/>
      <rect id="Rettangolo_11002" data-name="Rettangolo 11002" width="4" height="30" transform="translate(276.648 390)" fill="#fff"/>
      <rect id="Rettangolo_11003" data-name="Rettangolo 11003" width="2" height="30" transform="translate(284.648 390)" fill="#fff"/>
      <rect id="Rettangolo_11004" data-name="Rettangolo 11004" width="2" height="30" transform="translate(289.648 390)" fill="#fff"/>
      <rect id="Rettangolo_11005" data-name="Rettangolo 11005" width="2" height="30" transform="translate(292.648 390)" fill="#fff"/>
      <rect id="Rettangolo_11006" data-name="Rettangolo 11006" width="2" height="30" transform="translate(297.648 390)" fill="#fff"/>
      <rect id="Rettangolo_11008" data-name="Rettangolo 11008" width="2" height="30" transform="translate(312.648 390)" fill="#fff"/>
      <rect id="Rettangolo_11009" data-name="Rettangolo 11009" width="2" height="30" transform="translate(316.648 390)" fill="#fff"/>
      <rect id="Rettangolo_11010" data-name="Rettangolo 11010" width="2" height="30" transform="translate(321.648 390)" fill="#fff"/>
      <rect id="Rettangolo_11011" data-name="Rettangolo 11011" width="2" height="30" transform="translate(319.648 390)" fill="#fff"/>
      <rect id="Rettangolo_11012" data-name="Rettangolo 11012" width="4" height="30" transform="translate(334.648 390)" fill="#fff"/>
      <rect id="Rettangolo_11013" data-name="Rettangolo 11013" width="2" height="30" transform="translate(342.648 390)" fill="#fff"/>
      <rect id="Rettangolo_11014" data-name="Rettangolo 11014" width="2" height="30" transform="translate(346.648 390)" fill="#fff"/>
      <rect id="Rettangolo_11015" data-name="Rettangolo 11015" width="2" height="30" transform="translate(350.648 390)" fill="#fff"/>
      <rect id="Rettangolo_11016" data-name="Rettangolo 11016" width="2" height="30" transform="translate(354.648 390)" fill="#fff"/>
      <rect id="Rettangolo_11017" data-name="Rettangolo 11017" width="4" height="30" transform="translate(372.648 390)" fill="#fff"/>
      <rect id="Rettangolo_11018" data-name="Rettangolo 11018" width="2" height="30" transform="translate(358.648 390)" fill="#fff"/>
      <rect id="Rettangolo_11019" data-name="Rettangolo 11019" width="2" height="30" transform="translate(362.648 390)" fill="#fff"/>
      <rect id="Rettangolo_11020" data-name="Rettangolo 11020" width="2" height="30" transform="translate(366.648 390)" fill="#fff"/>
      <rect id="Rettangolo_11021" data-name="Rettangolo 11021" width="2" height="30" transform="translate(369.648 390)" fill="#fff"/>
      <rect id="Rettangolo_11024" data-name="Rettangolo 11024" width="4" height="30" transform="translate(303.648 390)" fill="#fff"/>
      <rect id="Rettangolo_11039" data-name="Rettangolo 11039" width="1" height="30" transform="translate(230.648 390)" fill="#fff"/>
      <rect id="Rettangolo_11040" data-name="Rettangolo 11040" width="2" height="30" transform="translate(237.648 390)" fill="#fff"/>
    </g>
    <g id="Raggruppa_29687" data-name="Raggruppa 29687" transform="translate(16 5)">
      <rect id="Rettangolo_12142" data-name="Rettangolo 12142" width="92.228" height="16.796" rx="8.398" transform="translate(-21201.645 -15343.325)" fill="#e1eded"/>
      <path id="Tracciato_86990" data-name="Tracciato 86990" d="M-35.82,0h.864V-5.856c0-.384-.036-.72-.048-.876h.024c.144.252.384.7.624,1.032L-30.408,0h.864V-7.992h-.864v5.508c0,.588.036.924.048,1.08h-.024c-.144-.24-.372-.636-.744-1.176L-34.9-7.992h-.924Zm9.48-5.016a1.567,1.567,0,0,0,1.572-1.56,1.575,1.575,0,0,0-1.572-1.56,1.575,1.575,0,0,0-1.572,1.56A1.575,1.575,0,0,0-26.34-5.016Zm0-.612a.913.913,0,0,1-.912-.948.92.92,0,0,1,.912-.948.92.92,0,0,1,.912.948A.913.913,0,0,1-26.34-5.628ZM-17.028.144a3.709,3.709,0,0,0,2.412-.8l-.432-.672A2.911,2.911,0,0,1-17-.648c-1.992,0-2.94-1.644-2.94-3.4,0-1.728.984-3.312,2.9-3.312a3.05,3.05,0,0,1,1.8.528l.468-.708a3.868,3.868,0,0,0-2.244-.6A3.9,3.9,0,0,0-20.928-4.02,3.907,3.907,0,0,0-17.028.144ZM-13.644,0h.84l2.892-7.992h-.84Zm8.82.144a3.709,3.709,0,0,0,2.412-.8l-.432-.672A2.911,2.911,0,0,1-4.8-.648c-1.992,0-2.94-1.644-2.94-3.4,0-1.728.984-3.312,2.9-3.312a3.05,3.05,0,0,1,1.8.528l.468-.708a3.868,3.868,0,0,0-2.244-.6A3.9,3.9,0,0,0-8.724-4.02,3.907,3.907,0,0,0-4.824.144ZM1.872,0h.936V-3.228h.936c1.86,0,2.94-.888,2.94-2.46,0-1.536-1.2-2.3-2.808-2.3h-2Zm.936-4.02V-7.2H3.78c1.416,0,1.944.636,1.944,1.548,0,1.056-.576,1.632-1.98,1.632ZM10.188.144A2.791,2.791,0,0,0,12.9-2.892,2.8,2.8,0,0,0,10.152-5.9c-1.944,0-2.628,1.692-2.628,3.036A2.733,2.733,0,0,0,10.188.144ZM10.2-.612c-1.2,0-1.74-1.044-1.74-2.28s.48-2.256,1.68-2.256,1.824,1.044,1.824,2.28S11.4-.612,10.2-.612Zm5.5.768c1.26,0,2.052-.66,2.052-1.7,0-.972-.852-1.38-1.788-1.776-.636-.264-1.1-.492-1.1-1.032,0-.492.348-.792.96-.792a2.083,2.083,0,0,1,1.284.432l.432-.636a2.708,2.708,0,0,0-1.7-.552A1.624,1.624,0,0,0,14-4.32c0,.984.684,1.392,1.584,1.776.84.36,1.272.588,1.272,1.116S16.4-.6,15.684-.6a2.484,2.484,0,0,1-1.428-.468L13.872-.4A3.217,3.217,0,0,0,15.7.156ZM20.964.144A2.22,2.22,0,0,0,22.176-.2l-.324-.66a1.461,1.461,0,0,1-.78.252c-.5,0-.672-.276-.672-.852v-3.6h1.452v-.7H20.4V-7.4h-.876V-5.76h-.948v.7h.948V-1.38A1.334,1.334,0,0,0,20.964.144Zm3.72,0A2.252,2.252,0,0,0,26.412-.7,6.137,6.137,0,0,0,26.5,0h.876a5.525,5.525,0,0,1-.132-1.308V-4A1.72,1.72,0,0,0,25.272-5.9a2.837,2.837,0,0,0-2.028.792l.468.612a2.136,2.136,0,0,1,1.5-.624c.792,0,1.152.348,1.152,1.2v.54h-.252c-1.392,0-3.072.456-3.072,1.98A1.52,1.52,0,0,0,24.684.144Zm.144-.756a.81.81,0,0,1-.852-.816c0-.972.9-1.308,2.136-1.308h.252v1.3A1.905,1.905,0,0,1,24.828-.612ZM29.184,0h.876V-8.64h-.876Zm5.088.144a3.435,3.435,0,0,0,1.98-.588l-.36-.684a2.878,2.878,0,0,1-1.6.516C33-.612,32.508-1.68,32.484-2.9h3.9c.012-.144.024-.276.024-.408,0-1.572-.84-2.592-2.268-2.592a2.72,2.72,0,0,0-2.592,2.988C31.548-1.212,32.46.144,34.272.144ZM32.532-3.6c.156-.9.66-1.548,1.584-1.548,1,0,1.368.732,1.392,1.548Z" transform="translate(-21155.824 -15330.686)" fill="#005157"/>
    </g>
    <g id="Raggruppa_29689" data-name="Raggruppa 29689" transform="translate(-18 228)">
      <rect id="Rettangolo_12142-2" data-name="Rettangolo 12142" width="157.268" height="16.928" rx="8.464" transform="translate(-21234.41 -15343.47)" fill="#e1eded"/>
      <path id="Tracciato_86987" data-name="Tracciato 86987" d="M-64.686.144a3.709,3.709,0,0,0,2.412-.8l-.432-.672a2.911,2.911,0,0,1-1.956.684c-1.992,0-2.94-1.644-2.94-3.4,0-1.728.984-3.312,2.9-3.312a3.05,3.05,0,0,1,1.8.528l.468-.708a3.868,3.868,0,0,0-2.244-.6A3.9,3.9,0,0,0-68.586-4.02,3.907,3.907,0,0,0-64.686.144Zm5.928,0a2.791,2.791,0,0,0,2.712-3.036A2.8,2.8,0,0,0-58.794-5.9c-1.944,0-2.628,1.692-2.628,3.036A2.733,2.733,0,0,0-58.758.144Zm.012-.756c-1.2,0-1.74-1.044-1.74-2.28s.48-2.256,1.68-2.256,1.824,1.044,1.824,2.28S-57.546-.612-58.746-.612Zm6.036.756a2.1,2.1,0,0,0,1.668-.8,3.772,3.772,0,0,0,.108.66h.876A5.627,5.627,0,0,1-50.2-1.176V-8.64h-.876V-5.4a2.107,2.107,0,0,0-1.464-.5c-1.452,0-2.544,1.212-2.544,3.036C-55.086-.948-54.09.144-52.71.144Zm.18-.792c-1.152,0-1.62-.936-1.62-2.244s.6-2.256,1.692-2.256a1.911,1.911,0,0,1,1.38.528v3.18A1.875,1.875,0,0,1-52.53-.648Zm4.74-6.192a.645.645,0,0,0,.648-.648.645.645,0,0,0-.648-.648.645.645,0,0,0-.648.648A.645.645,0,0,0-47.79-6.84ZM-48.234,0h.888V-5.76h-.888Zm5.04.144a2.755,2.755,0,0,0,1.812-.576l-.36-.66a2.34,2.34,0,0,1-1.4.48c-1.2,0-1.728-1.068-1.728-2.292,0-1.26.516-2.244,1.7-2.244a2.059,2.059,0,0,1,1.356.48l.42-.66A2.711,2.711,0,0,0-43.158-5.9,2.7,2.7,0,0,0-45.81-2.88C-45.81-1.3-44.9.144-43.194.144Zm5.328,0a3.435,3.435,0,0,0,1.98-.588l-.36-.684a2.878,2.878,0,0,1-1.6.516c-1.3,0-1.788-1.068-1.812-2.292h3.9c.012-.144.024-.276.024-.408C-35.73-4.884-36.57-5.9-38-5.9A2.72,2.72,0,0,0-40.59-2.916C-40.59-1.212-39.678.144-37.866.144ZM-39.606-3.6c.156-.9.66-1.548,1.584-1.548,1,0,1.368.732,1.392,1.548Zm9.96,3.744a2.89,2.89,0,0,0,2.9-3.048c0-1.788-.912-3-2.484-3a2.08,2.08,0,0,0-1.44.6V-8.64h-.876V-.3A3.865,3.865,0,0,0-29.646.144Zm.012-.756a2.528,2.528,0,0,1-1.032-.18V-4.548a1.9,1.9,0,0,1,1.272-.564c1.248,0,1.716,1.02,1.716,2.232A2.036,2.036,0,0,1-29.634-.612Zm5.544.756A2.252,2.252,0,0,0-22.362-.7a6.137,6.137,0,0,0,.084.7h.876a5.525,5.525,0,0,1-.132-1.308V-4A1.72,1.72,0,0,0-23.5-5.9a2.837,2.837,0,0,0-2.028.792l.468.612a2.136,2.136,0,0,1,1.5-.624c.792,0,1.152.348,1.152,1.2v.54h-.252c-1.392,0-3.072.456-3.072,1.98A1.52,1.52,0,0,0-24.09.144Zm.144-.756a.81.81,0,0,1-.852-.816c0-.972.9-1.308,2.136-1.308h.252v1.3A1.905,1.905,0,0,1-23.946-.612ZM-19.614,0h.876V-4.056A2.258,2.258,0,0,1-17.07-5.112c.768,0,1.02.456,1.02,1.176V0h.876V-4.1a1.592,1.592,0,0,0-1.692-1.8,2.355,2.355,0,0,0-1.872.972V-5.76h-.876Zm8.472.144A2.755,2.755,0,0,0-9.33-.432l-.36-.66a2.34,2.34,0,0,1-1.4.48c-1.2,0-1.728-1.068-1.728-2.292,0-1.26.516-2.244,1.7-2.244a2.059,2.059,0,0,1,1.356.48l.42-.66A2.711,2.711,0,0,0-11.106-5.9,2.7,2.7,0,0,0-13.758-2.88C-13.758-1.3-12.846.144-11.142.144Zm5.268,0A2.791,2.791,0,0,0-3.162-2.892,2.8,2.8,0,0,0-5.91-5.9c-1.944,0-2.628,1.692-2.628,3.036A2.733,2.733,0,0,0-5.874.144Zm.012-.756c-1.2,0-1.74-1.044-1.74-2.28s.48-2.256,1.68-2.256S-4.1-4.1-4.1-2.868-4.662-.612-5.862-.612ZM-1.7,0h.876V-4.056A2.258,2.258,0,0,1,.846-5.112c.768,0,1.02.456,1.02,1.176V0h.876V-4.1A1.592,1.592,0,0,0,1.05-5.9a2.355,2.355,0,0,0-1.872.972V-5.76H-1.7Zm8.52.144A2.791,2.791,0,0,0,9.534-2.892,2.8,2.8,0,0,0,6.786-5.9c-1.944,0-2.628,1.692-2.628,3.036A2.733,2.733,0,0,0,6.822.144Zm.012-.756c-1.2,0-1.74-1.044-1.74-2.28s.48-2.256,1.68-2.256S8.6-4.1,8.6-2.868,8.034-.612,6.834-.612ZM12.7.144A2.22,2.22,0,0,0,13.914-.2l-.324-.66a1.461,1.461,0,0,1-.78.252c-.5,0-.672-.276-.672-.852v-3.6H13.59v-.7H12.138V-7.4h-.876V-5.76h-.948v.7h.948V-1.38A1.334,1.334,0,0,0,12.7.144Zm3.72,0A2.252,2.252,0,0,0,18.15-.7a6.137,6.137,0,0,0,.084.7h.876a5.525,5.525,0,0,1-.132-1.308V-4A1.72,1.72,0,0,0,17.01-5.9a2.837,2.837,0,0,0-2.028.792l.468.612a2.136,2.136,0,0,1,1.5-.624c.792,0,1.152.348,1.152,1.2v.54H17.85c-1.392,0-3.072.456-3.072,1.98A1.52,1.52,0,0,0,16.422.144Zm.144-.756a.81.81,0,0,1-.852-.816c0-.972.9-1.308,2.136-1.308H18.1v1.3A1.905,1.905,0,0,1,16.566-.612Zm8.9.756a2.1,2.1,0,0,0,1.668-.8,3.772,3.772,0,0,0,.108.66h.876a5.627,5.627,0,0,1-.144-1.176V-8.64H27.1V-5.4a2.107,2.107,0,0,0-1.464-.5c-1.452,0-2.544,1.212-2.544,3.036C23.094-.948,24.09.144,25.47.144Zm.18-.792c-1.152,0-1.62-.936-1.62-2.244s.6-2.256,1.692-2.256a1.911,1.911,0,0,1,1.38.528v3.18A1.875,1.875,0,0,1,25.65-.648ZM30.39-6.84a.645.645,0,0,0,.648-.648.645.645,0,0,0-.648-.648.645.645,0,0,0-.648.648A.645.645,0,0,0,30.39-6.84ZM29.946,0h.888V-5.76h-.888ZM36.51,0h.876V-5.76h-.72L35-5.22l.18.732,1.332-.456Zm5,.144A2.183,2.183,0,0,0,43.926-2c0-.864-.552-1.6-1.74-2.268,1.044-.6,1.56-1.2,1.56-1.956A1.978,1.978,0,0,0,41.5-8.136a2.059,2.059,0,0,0-2.16,1.956c0,.708.372,1.332,1.44,1.98a2.8,2.8,0,0,0-1.656,2.256A2.138,2.138,0,0,0,41.514.144Zm.036-.768A1.391,1.391,0,0,1,40.026-2c0-.66.42-1.212,1.368-1.824,1.224.66,1.62,1.236,1.62,1.812A1.355,1.355,0,0,1,41.55-.624Zm.012-4.032c-1-.576-1.308-1.02-1.308-1.524a1.2,1.2,0,0,1,1.308-1.2,1.185,1.185,0,0,1,1.284,1.212C42.846-5.688,42.462-5.184,41.562-4.656Zm8.832,4.8a2.755,2.755,0,0,0,1.812-.576l-.36-.66a2.34,2.34,0,0,1-1.4.48c-1.2,0-1.728-1.068-1.728-2.292,0-1.26.516-2.244,1.7-2.244a2.059,2.059,0,0,1,1.356.48l.42-.66A2.711,2.711,0,0,0,50.43-5.9,2.7,2.7,0,0,0,47.778-2.88C47.778-1.3,48.69.144,50.394.144ZM54.078-6.84a.645.645,0,0,0,.648-.648.645.645,0,0,0-.648-.648.645.645,0,0,0-.648.648A.645.645,0,0,0,54.078-6.84ZM53.634,0h.888V-5.76h-.888Zm3.144,0h.876V-5.064h1.464v-.7H57.654v-.792c0-.948.432-1.464,1.2-1.464a1.833,1.833,0,0,1,.756.144l.228-.756a2.288,2.288,0,0,0-.96-.156,1.974,1.974,0,0,0-2.1,2.172v.852h-.96v.7h.96Zm3.468,0h.876V-3.864c.072-.18.552-1.176,1.416-1.176a.989.989,0,0,1,.5.1l.216-.84a1.27,1.27,0,0,0-.6-.12A1.9,1.9,0,0,0,61.122-4.86v-.9h-.876Zm6.3.144a3.435,3.435,0,0,0,1.98-.588l-.36-.684a2.878,2.878,0,0,1-1.6.516c-1.3,0-1.788-1.068-1.812-2.292h3.9c.012-.144.024-.276.024-.408,0-1.572-.84-2.592-2.268-2.592a2.72,2.72,0,0,0-2.592,2.988C63.822-1.212,64.734.144,66.546.144ZM64.806-3.6c.156-.9.66-1.548,1.584-1.548,1,0,1.368.732,1.392,1.548Z" transform="translate(-21155.824 -15330.686)" fill="#005157"/>
    </g>
    <g id="Raggruppa_29690" data-name="Raggruppa 29690" transform="translate(326 228)">
      <rect id="Rettangolo_12142-3" data-name="Rettangolo 12142" width="87.356" height="19.268" rx="9.634" transform="translate(-21199.652 -15343.325)" fill="#e1eded"/>
      <path id="Tracciato_86988" data-name="Tracciato 86988" d="M-31.56,0h.948V-7.2h2.268v-.792h-5.484V-7.2h2.268Zm4.836-6.84a.645.645,0,0,0,.648-.648.645.645,0,0,0-.648-.648.645.645,0,0,0-.648.648A.645.645,0,0,0-26.724-6.84ZM-27.168,0h.888V-5.76h-.888Zm2.928,2.628h.876V-.36a2.073,2.073,0,0,0,1.464.5c1.488,0,2.544-1.224,2.544-3.036,0-1.908-.936-3.012-2.34-3.012a2.121,2.121,0,0,0-1.668.768V-5.76h-.876Zm2.256-3.24a1.924,1.924,0,0,1-1.38-.528V-4.308a1.934,1.934,0,0,1,1.488-.8c1.092,0,1.584.96,1.584,2.244S-20.88-.612-21.984-.612Zm6.252.756A2.791,2.791,0,0,0-13.02-2.892,2.8,2.8,0,0,0-15.768-5.9c-1.944,0-2.628,1.692-2.628,3.036A2.733,2.733,0,0,0-15.732.144Zm.012-.756c-1.2,0-1.74-1.044-1.74-2.28s.48-2.256,1.68-2.256,1.824,1.044,1.824,2.28S-14.52-.612-15.72-.612Zm8.736.756a2.1,2.1,0,0,0,1.668-.8A3.772,3.772,0,0,0-5.208,0h.876a5.627,5.627,0,0,1-.144-1.176V-8.64h-.876V-5.4a2.107,2.107,0,0,0-1.464-.5C-8.268-5.9-9.36-4.692-9.36-2.868-9.36-.948-8.364.144-6.984.144Zm.18-.792c-1.152,0-1.62-.936-1.62-2.244s.6-2.256,1.692-2.256a1.911,1.911,0,0,1,1.38.528v3.18A1.875,1.875,0,0,1-6.8-.648Zm4.74-6.192a.645.645,0,0,0,.648-.648.645.645,0,0,0-.648-.648.645.645,0,0,0-.648.648A.645.645,0,0,0-2.064-6.84ZM-2.508,0h.888V-5.76h-.888Zm7.74.144A2.755,2.755,0,0,0,7.044-.432l-.36-.66a2.34,2.34,0,0,1-1.4.48C4.08-.612,3.552-1.68,3.552-2.9c0-1.26.516-2.244,1.7-2.244a2.059,2.059,0,0,1,1.356.48l.42-.66A2.711,2.711,0,0,0,5.268-5.9,2.7,2.7,0,0,0,2.616-2.88C2.616-1.3,3.528.144,5.232.144Zm5.268,0a2.791,2.791,0,0,0,2.712-3.036A2.8,2.8,0,0,0,10.464-5.9C8.52-5.9,7.836-4.212,7.836-2.868A2.733,2.733,0,0,0,10.5.144Zm.012-.756c-1.2,0-1.74-1.044-1.74-2.28s.48-2.256,1.68-2.256,1.824,1.044,1.824,2.28S11.712-.612,10.512-.612Zm6.036.756a2.1,2.1,0,0,0,1.668-.8,3.772,3.772,0,0,0,.108.66H19.2a5.627,5.627,0,0,1-.144-1.176V-8.64H18.18V-5.4a2.107,2.107,0,0,0-1.464-.5c-1.452,0-2.544,1.212-2.544,3.036C14.172-.948,15.168.144,16.548.144Zm.18-.792c-1.152,0-1.62-.936-1.62-2.244s.6-2.256,1.692-2.256a1.911,1.911,0,0,1,1.38.528v3.18A1.875,1.875,0,0,1,16.728-.648Zm4.74-6.192a.645.645,0,0,0,.648-.648.645.645,0,0,0-.648-.648.645.645,0,0,0-.648.648A.645.645,0,0,0,21.468-6.84ZM21.024,0h.888V-5.76h-.888Zm5.04.144a2.755,2.755,0,0,0,1.812-.576l-.36-.66a2.34,2.34,0,0,1-1.4.48c-1.2,0-1.728-1.068-1.728-2.292,0-1.26.516-2.244,1.7-2.244a2.059,2.059,0,0,1,1.356.48l.42-.66A2.711,2.711,0,0,0,26.1-5.9,2.7,2.7,0,0,0,23.448-2.88C23.448-1.3,24.36.144,26.064.144Zm5.328,0a3.435,3.435,0,0,0,1.98-.588l-.36-.684a2.878,2.878,0,0,1-1.6.516c-1.3,0-1.788-1.068-1.812-2.292h3.9c.012-.144.024-.276.024-.408,0-1.572-.84-2.592-2.268-2.592a2.72,2.72,0,0,0-2.592,2.988C28.668-1.212,29.58.144,31.392.144ZM29.652-3.6c.156-.9.66-1.548,1.584-1.548,1,0,1.368.732,1.392,1.548Z" transform="translate(-21155.824 -15330.686)" fill="#005157"/>
    </g>
    <g id="Raggruppa_29688" data-name="Raggruppa 29688" transform="translate(285 5)">
      <rect id="Rettangolo_12142-4" data-name="Rettangolo 12142" width="58.712" height="18.62" rx="9.31" transform="translate(-21184.809 -15342.678)" fill="#e1eded"/>
      <path id="Tracciato_86989" data-name="Tracciato 86989" d="M-18.984,0h.936V-7.992h-.936Zm3.144,0h.876V-4.068A2.2,2.2,0,0,1-13.4-5.112c.672,0,.924.456.924,1.176V0h.876V-4.212a2.121,2.121,0,0,1,1.536-.9c.732,0,.948.48.948,1.176V0h.876V-4.1c0-1.02-.456-1.8-1.62-1.8a2.482,2.482,0,0,0-1.86.972A1.43,1.43,0,0,0-13.2-5.9a2.206,2.206,0,0,0-1.764.96V-5.76h-.876Zm9.516,2.628h.876V-.36a2.073,2.073,0,0,0,1.464.5C-2.5.144-1.44-1.08-1.44-2.892-1.44-4.8-2.376-5.9-3.78-5.9a2.121,2.121,0,0,0-1.668.768V-5.76h-.876Zm2.256-3.24a1.924,1.924,0,0,1-1.38-.528V-4.308a1.934,1.934,0,0,1,1.488-.8c1.092,0,1.584.96,1.584,2.244S-2.964-.612-4.068-.612ZM2.184.144A2.791,2.791,0,0,0,4.9-2.892,2.8,2.8,0,0,0,2.148-5.9C.2-5.9-.48-4.212-.48-2.868A2.733,2.733,0,0,0,2.184.144ZM2.2-.612C1-.612.456-1.656.456-2.892s.48-2.256,1.68-2.256S3.96-4.1,3.96-2.868,3.4-.612,2.2-.612ZM6.36,0h.876V-3.864c.072-.18.552-1.176,1.416-1.176a.989.989,0,0,1,.5.1l.216-.84a1.27,1.27,0,0,0-.6-.12A1.9,1.9,0,0,0,7.236-4.86v-.9H6.36Zm6.024.144A2.22,2.22,0,0,0,13.6-.2l-.324-.66a1.461,1.461,0,0,1-.78.252c-.5,0-.672-.276-.672-.852v-3.6h1.452v-.7H11.82V-7.4h-.876V-5.76H10v.7h.948V-1.38A1.334,1.334,0,0,0,12.384.144Zm4.632,0a2.791,2.791,0,0,0,2.712-3.036A2.8,2.8,0,0,0,16.98-5.9c-1.944,0-2.628,1.692-2.628,3.036A2.733,2.733,0,0,0,17.016.144Zm.012-.756c-1.2,0-1.74-1.044-1.74-2.28s.48-2.256,1.68-2.256,1.824,1.044,1.824,2.28S18.228-.612,17.028-.612Z" transform="translate(-21155.824 -15330.686)" fill="#005157"/>
    </g>
  </g>
</svg>
