<svg id="Componente_1014_18" data-name="Componente 1014 – 18" xmlns="http://www.w3.org/2000/svg" width="40" height="40" viewBox="0 0 40 40">
  <defs>
    <style>
      .cls-1 {
        fill: #00ae65;
      }

      .cls-2 {
        fill: none;
      }
    </style>
  </defs>
  <g id="XMLID_2_" transform="translate(32.036 28.95) rotate(180)">
    <path id="XMLID_4_" class="cls-1" d="M3.736,5.471H16.412a1.094,1.094,0,1,0,0-2.188H3.736L5.15,1.868A1.094,1.094,0,0,0,3.6.32L.321,3.6c-.025.025-.049.052-.072.079L.233,3.7c-.017.021-.033.043-.048.065l-.012.02c-.015.023-.03.047-.043.072l-.007.015C.109,3.9.1,3.929.084,3.957l0,.011c-.012.029-.023.059-.032.09,0,0,0,.008,0,.012-.009.03-.017.061-.023.092,0,.009,0,.019,0,.028,0,.026-.009.052-.012.078a1.079,1.079,0,0,0,0,.218c0,.027.007.053.012.079,0,.009,0,.018,0,.027.006.031.014.062.023.093l0,.011c.009.031.02.061.032.091l0,.01c.012.028.025.056.039.082l.007.014c.013.025.028.049.043.073l.012.019c.015.023.032.044.048.065l.016.021c.023.028.047.054.072.079L3.6,8.433A1.094,1.094,0,0,0,5.15,6.885Z" transform="translate(0 4.574)"/>
    <path id="XMLID_5_" class="cls-1" d="M7.619,0A8.944,8.944,0,0,0,.186,3.963,1.094,1.094,0,0,0,2,5.184a6.762,6.762,0,1,1,.009,7.546A1.094,1.094,0,0,0,.2,13.955,8.951,8.951,0,1,0,7.619,0Z" transform="translate(7.502)"/>
  </g>
  <rect id="Rettangolo_11531" data-name="Rettangolo 11531" class="cls-2" width="40" height="40"/>
</svg>
