<svg id="Componente_2655_2" data-name="Componente 2655 – 2" xmlns="http://www.w3.org/2000/svg" xmlns:xlink="http://www.w3.org/1999/xlink" width="80" height="80" viewBox="0 0 80 80">
  <defs>
    <linearGradient id="linear-gradient" x1="0.5" x2="0.5" y2="1" gradientUnits="objectBoundingBox">
      <stop offset="0" stop-color="#60cc9f"/>
      <stop offset="1" stop-color="#3a888c"/>
    </linearGradient>
    <filter id="Unione_38" x="8.684" y="3.209" width="61.85" height="76.753" filterUnits="userSpaceOnUse">
      <feOffset dy="2" input="SourceAlpha"/>
      <feGaussianBlur stdDeviation="2" result="blur"/>
      <feFlood flood-color="#05696f" flood-opacity="0.239"/>
      <feComposite operator="in" in2="blur"/>
      <feComposite in="SourceGraphic"/>
    </filter>
  </defs>
  <rect id="Rettangolo_590" data-name="Rettangolo 590" width="80" height="80" fill="none"/>
  <g id="Raggruppa_28729" data-name="Raggruppa 28729" transform="translate(15.184 7.709)">
    <g transform="matrix(1, 0, 0, 1, -15.18, -7.71)" filter="url(#Unione_38)">
      <path id="Unione_38-2" data-name="Unione 38" d="M5.725,63.753A5.665,5.665,0,0,1,0,58.158V5.6A5.671,5.671,0,0,1,5.725,0h37.4A5.674,5.674,0,0,1,48.85,5.6V45.7l-.116.12L32.562,63.646l-.1.107ZM4.072,5.6V58.148a1.645,1.645,0,0,0,1.653,1.62H28.49V47.43a5.667,5.667,0,0,1,5.728-5.592H44.775V5.6a1.631,1.631,0,0,0-1.653-1.611H5.725A1.639,1.639,0,0,0,4.072,5.6ZM32.562,47.43v10.21L43.3,45.819H34.218A1.64,1.64,0,0,0,32.562,47.43ZM9.6,55.781a1.994,1.994,0,1,1,0-3.988H22.29a1.994,1.994,0,1,1,0,3.988Zm0-9.961a1.991,1.991,0,1,1,0-3.981H22.29a1.991,1.991,0,1,1,0,3.981Zm0-9.955a1.994,1.994,0,1,1,0-3.988h29.37a1.994,1.994,0,1,1,0,3.988Zm1.1-11.081a2.242,2.242,0,0,1-.741-.76,3.346,3.346,0,0,1-.349-.826l-.686-2.664v2.377a2.207,2.207,0,0,1-.517,1.564,2.024,2.024,0,0,1-2.859.013,2.233,2.233,0,0,1-.527-1.576V13.164a1.939,1.939,0,0,1,.773-1.731,2.96,2.96,0,0,1,1.6-.41h.789a3.787,3.787,0,0,1,1.326.18,1.685,1.685,0,0,1,.889.848,7.206,7.206,0,0,1,.408,1.185l1.067,3.978,1.083-3.978a5.7,5.7,0,0,1,.391-1.185,1.656,1.656,0,0,1,.886-.848,3.845,3.845,0,0,1,1.329-.18h.789a2.972,2.972,0,0,1,1.6.41,1.954,1.954,0,0,1,.773,1.731v9.747a2.211,2.211,0,0,1-.527,1.564,1.984,1.984,0,0,1-2.859,0,2.207,2.207,0,0,1-.517-1.564V20.566l-.485,1.869c-.133.53-.246.927-.336,1.179a2.358,2.358,0,0,1-.676.98,2.385,2.385,0,0,1-2.623.189Zm25.57,0a2.345,2.345,0,0,1-.847-.76,4.415,4.415,0,0,1-.459-.883c-.113-.274-.217-.561-.327-.87l-3.153-8.426a3.691,3.691,0,0,1-.178-.561,2.769,2.769,0,0,1-.068-.574A1.842,1.842,0,0,1,31.8,11.4a2.024,2.024,0,0,1,1.452-.583,1.807,1.807,0,0,1,1.575.722,6.341,6.341,0,0,1,.644,1.444l2.115,6.106L39.7,12.918c.162-.47.285-.794.362-.98a2.008,2.008,0,0,1,.585-.747,2.045,2.045,0,0,1,2.206-.107,1.885,1.885,0,0,1,.708.69,1.786,1.786,0,0,1,.268.927,2.522,2.522,0,0,1-.068.561,3.9,3.9,0,0,1-.158.517l-.155.41L40.4,22.262c-.116.3-.217.605-.33.889a5.007,5.007,0,0,1-.462.886,2.655,2.655,0,0,1-3.338.747Zm-6.494.11a1.71,1.71,0,0,1-.621-.5,2.842,2.842,0,0,1-.414-.716c-.1-.218-.194-.426-.268-.6l-.036-.095-.408-1.059H23.991l-.417,1.088a6.449,6.449,0,0,1-.708,1.444,1.724,1.724,0,0,1-1.442.621,2,2,0,0,1-1.384-.555,1.78,1.78,0,0,1-.608-1.33,2.463,2.463,0,0,1,.116-.75c.065-.186.165-.463.314-.813l3.545-8.814a4.932,4.932,0,0,1,.492-.955,2.448,2.448,0,0,1,.834-.75,2.881,2.881,0,0,1,2.532-.013,2.664,2.664,0,0,1,.844.75,3.814,3.814,0,0,1,.437.813c.1.233.239.552.4.968l3.27,7.934a4.408,4.408,0,0,1,.453,1.608,1.833,1.833,0,0,1-.6,1.333,2.008,2.008,0,0,1-1.43.574A1.849,1.849,0,0,1,29.774,24.894Zm-4.547-6.368h1.53l-.776-2.071Z" transform="translate(15.18 7.71)" stroke="rgba(0,0,0,0)" stroke-width="1" fill="url(#linear-gradient)"/>
    </g>
  </g>
</svg>
