<svg xmlns="http://www.w3.org/2000/svg" xmlns:xlink="http://www.w3.org/1999/xlink" width="80" height="80" viewBox="0 0 80 80">
  <defs>
    <linearGradient id="linear-gradient" x1="0.5" x2="0.5" y2="1" gradientUnits="objectBoundingBox">
      <stop offset="0" stop-color="#60cc9f"/>
      <stop offset="1" stop-color="#3a888c"/>
    </linearGradient>
    <filter id="Unione_39" x="9.5" y="3.5" width="60" height="76" filterUnits="userSpaceOnUse">
      <feOffset dy="2" input="SourceAlpha"/>
      <feGaussianBlur stdDeviation="2" result="blur"/>
      <feFlood flood-color="#05696f" flood-opacity="0.239"/>
      <feComposite operator="in" in2="blur"/>
      <feComposite in="SourceGraphic"/>
    </filter>
  </defs>
  <g id="Raggruppa_29846" data-name="Raggruppa 29846" transform="translate(-960 -635)">
    <rect id="Rettangolo_590" data-name="Rettangolo 590" width="80" height="80" transform="translate(960 635)" fill="none"/>
    <g id="Raggruppa_28731" data-name="Raggruppa 28731" transform="translate(975.787 642.894)">
      <g transform="matrix(1, 0, 0, 1, -15.79, -7.89)" filter="url(#Unione_39)">
        <path id="Unione_39-2" data-name="Unione 39" d="M5.5,63A5.52,5.52,0,0,1,0,57.472V5.533A5.529,5.529,0,0,1,5.5,0H41.49A5.53,5.53,0,0,1,47,5.533v39.63l-.107.119L31.336,62.895l-.1.105ZM3.921,5.533v51.93a1.6,1.6,0,0,0,1.58,1.6H27.414V46.872a5.52,5.52,0,0,1,5.5-5.528H43.081V5.533a1.592,1.592,0,0,0-1.591-1.6H5.5A1.594,1.594,0,0,0,3.921,5.533ZM31.336,46.872v10.09L41.654,45.281H32.916A1.586,1.586,0,0,0,31.336,46.872Zm-22.1,8.253a1.971,1.971,0,0,1,0-3.942H21.45a1.971,1.971,0,0,1,0,3.942Zm0-9.844a1.969,1.969,0,0,1,0-3.937H21.45a1.969,1.969,0,0,1,0,3.938Zm0-9.839a1.971,1.971,0,0,1,0-3.942H37.492a1.971,1.971,0,0,1,0,3.942ZM34.085,24.491a2.291,2.291,0,0,1-.8-.751,4.056,4.056,0,0,1-.444-.87c-.107-.272-.208-.554-.315-.857l-3.04-8.332a3.74,3.74,0,0,1-.164-.549,3.129,3.129,0,0,1-.076-.571,1.843,1.843,0,0,1,.553-1.292,1.869,1.869,0,0,1,1.4-.576,1.674,1.674,0,0,1,1.5.716,5.678,5.678,0,0,1,.632,1.415l2.022,6.042,2.046-6.1c.142-.466.26-.782.337-.967a2,2,0,0,1,.575-.738,1.914,1.914,0,0,1,2.111-.11,1.89,1.89,0,0,1,.693.686,1.8,1.8,0,0,1,.247.914,2.073,2.073,0,0,1-.063.554,3.528,3.528,0,0,1-.151.514l-.14.4L38.059,22c-.1.294-.205.6-.313.879a4.529,4.529,0,0,1-.444.875,2.306,2.306,0,0,1-2,1.033A2.387,2.387,0,0,1,34.085,24.491Zm-6.238.11a1.619,1.619,0,0,1-.6-.492,2.864,2.864,0,0,1-.4-.716c-.1-.215-.184-.426-.26-.6l-.035-.075-.389-1.046H22.272L21.88,22.75a6.362,6.362,0,0,1-.691,1.424,1.638,1.638,0,0,1-1.386.611,1.9,1.9,0,0,1-1.335-.545,1.821,1.821,0,0,1-.581-1.314,2.559,2.559,0,0,1,.12-.743,7.122,7.122,0,0,1,.291-.8l3.412-8.71a4.988,4.988,0,0,1,.466-.945,2.459,2.459,0,0,1,.811-.743,2.677,2.677,0,0,1,2.437,0,2.36,2.36,0,0,1,.811.734,3.893,3.893,0,0,1,.424.8c.107.233.225.549.378.958l3.158,7.84a4.4,4.4,0,0,1,.426,1.591,1.83,1.83,0,0,1-.575,1.318,1.891,1.891,0,0,1-1.364.563A1.731,1.731,0,0,1,27.847,24.6Zm-4.382-6.28h1.48L24.2,16.264ZM14.218,24.46a2.5,2.5,0,0,1-.673-.677c-.138-.215-.334-.523-.575-.923L11.975,21.2a8.911,8.911,0,0,0-.876-1.3,1.629,1.629,0,0,0-.584-.453,2.341,2.341,0,0,0-.826-.123H9.538v3.221a2.289,2.289,0,0,1-.531,1.635,1.853,1.853,0,0,1-1.418.6,1.871,1.871,0,0,1-1.46-.628,2.487,2.487,0,0,1-.5-1.6V13.1a2.264,2.264,0,0,1,.575-1.674,2.239,2.239,0,0,1,1.668-.576h4.015a12.411,12.411,0,0,1,1.519.075,4.261,4.261,0,0,1,1.276.347,3.9,3.9,0,0,1,1.233.848,4,4,0,0,1,.833,1.3,4.343,4.343,0,0,1,.271,1.534,3.826,3.826,0,0,1-.964,2.694,4.352,4.352,0,0,1-1.342.932,3.587,3.587,0,0,1,.271.294,11.073,11.073,0,0,1,1.147,1.569,11.373,11.373,0,0,1,.78,1.49,3.162,3.162,0,0,1,.326,1.143,1.58,1.58,0,0,1-.271.875,1.744,1.744,0,0,1-.693.615,1.949,1.949,0,0,1-.953.22A1.9,1.9,0,0,1,14.218,24.46ZM9.538,16.1h1.5a5.808,5.808,0,0,0,1.324-.132,1.1,1.1,0,0,0,.562-.308.825.825,0,0,0,.142-.554.859.859,0,0,0-.131-.5.873.873,0,0,0-.4-.312,4.069,4.069,0,0,0-1.429-.132H9.538Z" transform="translate(16 8)" stroke="rgba(0,0,0,0)" stroke-width="1" fill="url(#linear-gradient)"/>
      </g>
    </g>
  </g>
</svg>
