<svg id="Icon_40px_Money" data-name="Icon/40px/Money" xmlns="http://www.w3.org/2000/svg" xmlns:xlink="http://www.w3.org/1999/xlink" width="41" height="40" viewBox="0 0 41 40">
  <defs>
    <linearGradient id="linear-gradient" x1="0.5" x2="0.5" y2="1" gradientUnits="objectBoundingBox">
      <stop offset="0" stop-color="#60cc9f"/>
      <stop offset="1" stop-color="#3a888c"/>
    </linearGradient>
  </defs>
  <rect id="Rettangolo_580" data-name="Rettangolo 580" width="40" height="40" fill="none"/>
  <g id="Raggruppa_7845" data-name="Raggruppa 7845" transform="translate(3.681 8.975)">
    <path id="Tracciato_626" data-name="Tracciato 626" d="M34.419,8.975H12.859a3.151,3.151,0,0,0-3.187,2.888h0v0a3.133,3.133,0,0,0-2.983,2.868h0v0a3.133,3.133,0,0,0-3,3.064V27.94A3.151,3.151,0,0,0,6.89,31.025H28.45a3.151,3.151,0,0,0,3.187-2.888h0v0a3.133,3.133,0,0,0,2.983-2.868h0v0a3.133,3.133,0,0,0,3-3.064V12.06A3.151,3.151,0,0,0,34.419,8.975Zm-4.8,14.347V27.94a.469.469,0,0,1-.02.113c-.005.017-.009.035-.014.052h0l0,.022a1.144,1.144,0,0,1-1.127.935H6.89A1.145,1.145,0,0,1,5.724,27.94V17.8A1.126,1.126,0,0,1,6.7,16.715l.023,0h0l.054-.013a.533.533,0,0,1,.118-.019H28.45A1.146,1.146,0,0,1,29.616,17.8Zm2.985,0V25.07a.406.406,0,0,1-.021.115c-.005.016-.009.033-.014.05h0l0,.02h0v0a1.112,1.112,0,0,1-.9.886V17.8a3.152,3.152,0,0,0-3.209-3.085H8.758a1.114,1.114,0,0,1,.922-.868h0l.021,0v0l.052-.013a.454.454,0,0,1,.12-.02H31.434A1.146,1.146,0,0,1,32.6,14.93ZM35.585,22.2a1.019,1.019,0,0,1-.072.377.954.954,0,0,1-.073.12,1.073,1.073,0,0,1-.126.2,1.1,1.1,0,0,1-.13.107,1.182,1.182,0,0,1-.173.136,1.337,1.337,0,0,1-.172.064,1.257,1.257,0,0,1-.2.068V14.93a3.154,3.154,0,0,0-3.21-3.086H11.742a1.148,1.148,0,0,1,.071-.189,1.225,1.225,0,0,1,.067-.165,1.155,1.155,0,0,1,.141-.166,1.081,1.081,0,0,1,.111-.125,1.134,1.134,0,0,1,.21-.121,1.011,1.011,0,0,1,.125-.07,1.137,1.137,0,0,1,.392-.07h21.56a1.145,1.145,0,0,1,1.166,1.122Z" transform="translate(-3.681 -8.975)" fill="url(#linear-gradient)"/>
    <path id="Tracciato_627" data-name="Tracciato 627" d="M19.379,20.591a1.069,1.069,0,0,0,1.457-.2.975.975,0,0,0-.206-1.4,5.17,5.17,0,0,0-3.052-.979,5.1,5.1,0,0,0-4.6,2.83h-.562a1,1,0,1,0,0,2H12.5c0,.019-.006.038-.006.057,0,.1.024.183.029.276h-.1a1,1,0,1,0,0,2h.684a5.1,5.1,0,0,0,4.474,2.613,5.168,5.168,0,0,0,3.051-.978.974.974,0,0,0,.207-1.4,1.067,1.067,0,0,0-1.456-.2,3.07,3.07,0,0,1-3.631-.037H17.4a1,1,0,1,0,0-2H14.6a2.67,2.67,0,0,1-.029-.276c0-.019.006-.038.006-.057H17.4a1,1,0,1,0,0-2H15.477a3.086,3.086,0,0,1,3.9-.253Z" transform="translate(-3.372 -8.975)" fill="url(#linear-gradient)"/>
  </g>
</svg>
