<svg id="Icon_40pt_Key" data-name="Icon/40pt/Key" xmlns="http://www.w3.org/2000/svg" xmlns:xlink="http://www.w3.org/1999/xlink" width="40" height="43.157" viewBox="0 0 40 43.157">
  <defs>
    <style>
      .cls-1 {
        fill: none;
      }

      .cls-2 {
        fill: #00845b;
      }

      .cls-3 {
        filter: url(#Tracciato_501);
      }

      .cls-4 {
        filter: url(#Tracciato_500);
      }
    </style>
    <filter id="Tracciato_500" x="5.494" y="0.843" width="29.013" height="42.314" filterUnits="userSpaceOnUse">
      <feOffset dy="2" input="SourceAlpha"/>
      <feGaussianBlur stdDeviation="2" result="blur"/>
      <feFlood flood-color="#05696f" flood-opacity="0.239"/>
      <feComposite operator="in" in2="blur"/>
      <feComposite in="SourceGraphic"/>
    </filter>
    <filter id="Tracciato_501" x="11.25" y="4.249" width="17.5" height="17.417" filterUnits="userSpaceOnUse">
      <feOffset dy="2" input="SourceAlpha"/>
      <feGaussianBlur stdDeviation="2" result="blur-2"/>
      <feFlood flood-color="#05696f" flood-opacity="0.239"/>
      <feComposite operator="in" in2="blur-2"/>
      <feComposite in="SourceGraphic"/>
    </filter>
  </defs>
  <rect id="Rettangolo_648" data-name="Rettangolo 648" class="cls-1" width="40" height="40"/>
  <g id="Raggruppa_7948" data-name="Raggruppa 7948">
    <g class="cls-4" transform="matrix(1, 0, 0, 1, 0, 0)">
      <path id="Tracciato_500-2" data-name="Tracciato 500" class="cls-2" d="M20,4.843a8.432,8.432,0,0,0-8.506,8.337,8.338,8.338,0,0,0,5,7.589V32.143A3.289,3.289,0,0,0,20,35.157c1.571,0,4.5-1.035,4.5-3.014a1,1,0,0,0-.456-.839l-.093-.061.344-.45a1,1,0,0,0,.048-1.146L23.5,28.328v-7.56a8.335,8.335,0,0,0,5-7.588A8.433,8.433,0,0,0,20,4.843Zm3.5,13.669a6.544,6.544,0,0,1-2,.827V28.62a1,1,0,0,0,.158.538l.623.976-.575.753a1,1,0,0,0,.25,1.446l.2.132A4.223,4.223,0,0,1,20,33.157c-.885,0-1.5-.535-1.5-1.014v-12.8a6.539,6.539,0,0,1-2-.827,6.3,6.3,0,0,1-3-5.332,6.509,6.509,0,0,1,13.013,0A6.3,6.3,0,0,1,23.5,18.512Z"/>
    </g>
    <g id="Raggruppa_7947" data-name="Raggruppa 7947">
      <g class="cls-3" transform="matrix(1, 0, 0, 1, 0, 0)">
        <path id="Tracciato_501-2" data-name="Tracciato 501" class="cls-2" d="M20,8.249a2.709,2.709,0,1,0,2.75,2.709A2.733,2.733,0,0,0,20,8.249Zm0,3.724a1.017,1.017,0,1,1,1.062-1.015A1.041,1.041,0,0,1,20,11.973Z"/>
      </g>
      <path id="Tracciato_502" data-name="Tracciato 502" class="cls-2" d="M20,9.942a1.017,1.017,0,1,0,1.062,1.016A1.041,1.041,0,0,0,20,9.942Zm0,1.927a.912.912,0,1,1,.954-.911A.934.934,0,0,1,20,11.869Z"/>
    </g>
  </g>
</svg>
