<svg id="Icon_24pt_address_book" data-name="Icon/24pt/address book" xmlns="http://www.w3.org/2000/svg" width="25" height="25" viewBox="0 0 25 25">
  <g id="Tracciato_86088" data-name="Tracciato 86088" fill="none" opacity="0">
    <path d="M0,0H25V25H0Z" stroke="none"/>
    <path d="M 1 1 L 1 24 L 24 24 L 24 1 L 1 1 M 0 0 L 25 0 L 25 25 C 25 25 23.95833015441895 25 17.70833015441895 25 C 11.45833015441895 25 0 25 0 25 L 0 0 Z" stroke="none" fill="#071d1f"/>
  </g>
  <g id="Raggruppa_26759" data-name="Raggruppa 26759" transform="translate(2 1.999)">
    <path id="Tracciato_85835" data-name="Tracciato 85835" d="M680.221,390.261h9.694c.028,0,.058,0,.089,0a.861.861,0,0,0,.763-.941,5.742,5.742,0,0,0-11.4,0c0,.033-.005.063-.005.1a.855.855,0,0,0,.854.852Zm1.071-1.712a4.03,4.03,0,0,1,7.557,0Z" transform="translate(-673.261 -373.438)" fill="#e37222"/>
    <path id="Tracciato_85836" data-name="Tracciato 85836" d="M685.07,383.678a3.014,3.014,0,1,0-3.013-3.014A3.023,3.023,0,0,0,685.07,383.678Zm1.3-3.014a1.3,1.3,0,1,1-1.3-1.3h0A1.309,1.309,0,0,1,686.374,380.664Z" transform="translate(-673.288 -373.926)" fill="#e37222"/>
    <path id="Tracciato_85837" data-name="Tracciato 85837" d="M694.789,374.183H676.422a1.049,1.049,0,0,0-1.048,1.051v2.634h-.489a1.051,1.051,0,0,0,0,2.1h.489V383.4h-.489a1.051,1.051,0,0,0,0,2.1h.489v3.427h-.489a1.051,1.051,0,0,0,0,2.1h.489v2.634a1.049,1.049,0,0,0,1.048,1.051h18.368a1.048,1.048,0,0,0,1.048-1.051v-18.43A1.048,1.048,0,0,0,694.789,374.183Zm-1.048,18.43H677.469V376.285h16.273Z" transform="translate(-673.837 -374.183)" fill="#e37222"/>
  </g>
</svg>
