<?xml version="1.0" encoding="UTF-8"?>
<svg width="207px" height="59px" viewBox="0 0 207 59" version="1.1" xmlns="http://www.w3.org/2000/svg" xmlns:xlink="http://www.w3.org/1999/xlink">
    <title>logo cesare ponti-01</title>
    <g id="Flusso-Migrazione" stroke="none" stroke-width="1" fill="none" fill-rule="evenodd">
        <g id="logo-cesare-ponti-01" fill="#FFFFFF" fill-rule="nonzero">
            <rect id="Rectangle" x="45.5291505" y="31.2797407" width="35.6578125" height="1"></rect>
            <rect id="Rectangle" x="169.777429" y="31.2797407" width="35.6578125" height="1"></rect>
            <g id="Group" transform="translate(1.473513, 1.194439)">
                <path d="M28.2962382,2.84967594 C28.4459855,2.74660255 28.6256822,2.61321346 28.6556316,2.37068785 C31.237274,2.50407694 34.980955,4.49278695 36.4604577,6.13589797 L27.5654717,6.10558227 C28.0027337,5.63265733 28.4519754,4.61404976 28.3980664,3.99560945 C28.3681169,3.6863893 28.2243596,3.54693707 28.0985719,3.48024253 C28.0865921,3.45598996 28.0686224,3.41354798 28.0686224,3.39535856 L28.0626326,3.371106 C27.9667943,3.08613841 28.1045618,2.98912816 28.2962382,2.84967594" id="Path"></path>
                <path d="M38.3892021,5.44469998 L38.0777279,5.79029898 C34.5676526,2.53439264 32.0339293,1.38845913 27.2659772,0.909471043 L27.3079065,0.442609241 C32.0818484,0.903407903 34.8851168,2.17060422 38.3892021,5.44469998" id="Path"></path>
                <path d="M28.0207033,4.18962994 C28.0207033,4.00773573 27.984764,3.81977838 27.8949156,3.65607359 L27.4336942,3.91072549 C27.4756234,3.98348317 27.493593,4.08049341 27.493593,4.18962994 C27.5235425,4.78381769 26.7568366,5.82061468 26.4453624,5.97219318 L26.7029276,6.43299185 C27.224048,6.10558227 27.984764,5.12335354 28.0207033,4.18962994" id="Path"></path>
                <path d="M27.3737953,1.57035333 C27.5355223,1.43696425 27.6373504,1.23081748 27.6373504,1.00041815 C27.6373504,0.588124608 27.3079065,0.260715032 26.900594,0.260715032 C26.4932815,0.260715032 26.1638376,0.594187748 26.1638376,1.00041815 C26.1638376,1.23081748 26.2656657,1.43090111 26.4273927,1.57035333" id="Path"></path>
                <path d="M27.6672998,2.47982438 C27.8469965,2.59502404 28.0686224,2.63140289 28.2842585,2.5586452 C28.6676114,2.43131926 28.8832474,2.01296258 28.7574597,1.6249216 C28.6316721,1.23688062 28.2183697,1.01860757 27.8350168,1.14593351 C27.6193807,1.2186912 27.4576537,1.37633285 27.3797851,1.57641648" id="Path"></path>
                <path d="M26.9245535,3.04369642 C26.8706445,3.24984319 26.9065839,3.47417939 27.0443513,3.66213673 C27.2839469,3.99560945 27.7391785,4.06836713 28.0686224,3.82584152 C28.3980664,3.58331591 28.469945,3.12251725 28.2303495,2.78904453 C28.0985719,2.60715032 27.8949156,2.4980138 27.6852695,2.48588752" id="Path"></path>
                <path d="M26.1638376,2.48588752 C25.9541914,2.4980138 25.7505352,2.60715032 25.6187576,2.78904453 C25.379162,3.12251725 25.4510407,3.58331591 25.7804846,3.82584152 C26.1099286,4.06836713 26.5651602,3.99560945 26.8047558,3.66213673 C26.9365333,3.47417939 26.9724727,3.24984319 26.9245535,3.04369642" id="Path"></path>
                <path d="M26.4333826,1.57035333 C26.355514,1.37633285 26.193787,1.21262806 25.978151,1.13987037 C25.5947981,1.01254443 25.1814957,1.22475434 25.055708,1.61885846 C24.9299203,2.00689944 25.1395665,2.42525612 25.5289093,2.55258206 C25.7445453,2.62533974 25.9661712,2.5889609 26.1458679,2.47376124" id="Path"></path>
                <path d="M28.2004,2.31005645 C28.1524809,2.32824587 28.0985719,2.32218273 28.0506528,2.32218273 C27.9488247,2.27974075 27.8410066,2.24336191 27.7271987,2.23123563 C27.6193807,2.20091992 27.5055728,2.24336191 27.4456739,2.34037215 C27.3737953,2.46163496 27.4097346,2.6192766 27.5235425,2.69203429 C27.6373504,2.76479197 27.7631381,2.80117081 27.8949156,2.82542337 C27.9428348,2.85573908 27.984764,2.89211792 28.0207033,2.94062304 C28.1764405,3.15889609 28.1285213,3.4620531 27.9128853,3.61969475 C27.6972493,3.7773364 27.3977548,3.72883128 27.2420177,3.51055823 C27.2120682,3.46811625 27.1940986,3.41961112 27.1821188,3.36504286 C27.2000885,3.24984319 27.1940986,3.12858039 27.170139,3.01338072 C27.170139,3.00731758 27.170139,3.00125444 27.170139,2.9951913 C27.170139,2.98912816 27.170139,2.98306502 27.170139,2.97700188 C27.170139,2.9648756 27.1581592,2.95881246 27.1581592,2.94668618 C27.1521693,2.92849676 27.1461795,2.91030734 27.1341997,2.89818106 C27.1282098,2.88605478 27.11623,2.8739285 27.1042502,2.86786536 C27.0922704,2.85573908 27.0802907,2.8436128 27.062321,2.83148651 C27.0503412,2.82542337 27.0323716,2.81936023 27.0203918,2.81329709 C27.008412,2.80723395 26.9964322,2.80117081 26.9844524,2.79510767 C26.9784625,2.79510767 26.9784625,2.79510767 26.9724727,2.79510767 C26.9604929,2.79510767 26.9425232,2.79510767 26.9245535,2.79510767 C26.9065839,2.79510767 26.8886142,2.79510767 26.8706445,2.79510767 C26.8646546,2.79510767 26.8646546,2.79510767 26.8586648,2.79510767 C26.846685,2.80117081 26.8406951,2.80723395 26.8287153,2.80723395 C26.8107456,2.81329709 26.792776,2.81936023 26.7807962,2.83148651 C26.7748063,2.8436128 26.7628265,2.85573908 26.7508467,2.86786536 C26.738867,2.87999164 26.7268872,2.89211792 26.7208973,2.9042442 C26.7089175,2.92243362 26.7029276,2.9345599 26.6969377,2.95274932 C26.6909478,2.9648756 26.684958,2.97093874 26.684958,2.98306502 C26.684958,2.98912816 26.684958,2.9951913 26.684958,3.00125444 C26.684958,3.00731758 26.684958,3.01338072 26.684958,3.01944386 C26.6609984,3.13464353 26.6550085,3.25590633 26.6729782,3.371106 C26.6550085,3.41961112 26.6430287,3.47417939 26.6130793,3.51662137 C26.5412006,3.61969475 26.4273927,3.69245244 26.301605,3.71064186 C26.1758173,3.72883128 26.0500297,3.69851558 25.9422117,3.62575789 C25.8403835,3.54693707 25.7685049,3.43780054 25.7505352,3.3104746 C25.7325655,3.18314865 25.762515,3.05582271 25.8343936,2.94668618 C25.870333,2.89818106 25.9182521,2.85573908 25.9721611,2.82542337 C26.0260701,2.80117081 26.0919589,2.77691825 26.1518578,2.75266569 C26.1638376,2.75266569 26.1698275,2.74660255 26.1818072,2.74053941 C26.3195747,2.72841313 26.4273927,2.60715032 26.4214028,2.4676981 C26.4154129,2.35249843 26.3315545,2.26761447 26.2237365,2.23729877 C26.1638376,2.21304621 26.0919589,2.21910935 26.0260701,2.24942505 C25.9422117,2.26761447 25.8643431,2.29186703 25.7864745,2.32824587 C25.7265756,2.33430901 25.6606868,2.32824587 25.600788,2.31005645 C25.4809902,2.26761447 25.379162,2.1827305 25.3192631,2.06753084 C25.2593642,1.95233117 25.2533744,1.81894209 25.2893137,1.69767928 C25.3731721,1.44302739 25.6427172,1.30357516 25.8942925,1.38845913 C25.9422117,1.40664855 25.9841409,1.43696425 26.0260701,1.46727995 C26.0799791,1.57035333 26.1518578,1.66736358 26.2417061,1.7461844 C26.247696,1.75224754 26.247696,1.75224754 26.2536859,1.75831068 C26.2596758,1.76437382 26.2596758,1.76437382 26.2656657,1.77043696 C26.2776455,1.7765001 26.2896252,1.7765001 26.301605,1.78256324 C26.3135848,1.78862639 26.3315545,1.80075267 26.3435343,1.80681581 C26.3615039,1.81287895 26.3794736,1.81287895 26.3974433,1.81894209 C26.409423,1.81894209 26.4273927,1.82500523 26.4393725,1.82500523 C26.4573422,1.82500523 26.4753118,1.81894209 26.4992714,1.81287895 C26.5112512,1.81287895 26.5172411,1.81287895 26.5292208,1.80681581 C26.5352107,1.80681581 26.5352107,1.80075267 26.5352107,1.80075267 C26.5531804,1.79468953 26.5651602,1.78256324 26.5831298,1.77043696 C26.5951096,1.75831068 26.6070894,1.75224754 26.6190692,1.74012126 C26.6190692,1.73405812 26.6250591,1.73405812 26.6250591,1.73405812 C26.631049,1.72193184 26.6370388,1.70980556 26.6430287,1.70374242 C26.6490186,1.685553 26.6609984,1.67342672 26.6669883,1.6552373 C26.6729782,1.63704788 26.6729782,1.6249216 26.6789681,1.60673218 C26.6789681,1.58854276 26.684958,1.57641648 26.684958,1.55822705 C26.684958,1.54003763 26.6789681,1.52184821 26.6729782,1.50365879 C26.6669883,1.49153251 26.6729782,1.47940623 26.6669883,1.46727995 C26.6669883,1.46121681 26.6609984,1.45515367 26.6609984,1.45515367 C26.6609984,1.44909053 26.6550085,1.44909053 26.6550085,1.44302739 C26.6070894,1.33389086 26.5412006,1.23081748 26.4573422,1.14593351 C26.4393725,1.09742839 26.4273927,1.04892327 26.4273927,0.994355007 C26.4273927,0.727576835 26.6430287,0.509303784 26.9065839,0.509303784 C27.170139,0.509303784 27.385775,0.727576835 27.385775,0.994355007 C27.385775,1.04892327 27.3678054,1.09742839 27.3498357,1.14593351 C27.2659772,1.23081748 27.2000885,1.32782772 27.1521693,1.43696425 C27.1461795,1.44302739 27.1461795,1.44909053 27.1461795,1.44909053 C27.1461795,1.44909053 27.1401896,1.47334309 27.1401896,1.47334309 C27.1341997,1.48546937 27.1341997,1.49759565 27.1341997,1.50972193 C27.1282098,1.52791135 27.1282098,1.54610077 27.1222199,1.56429019 C27.1222199,1.58247962 27.1222199,1.5946059 27.1282098,1.61279532 C27.1282098,1.63098474 27.1341997,1.64311102 27.1401896,1.66130044 C27.1461795,1.67948986 27.1581592,1.69161614 27.1641491,1.70980556 C27.170139,1.72193184 27.170139,1.73405812 27.1821188,1.74012126 C27.1821188,1.74012126 27.1881087,1.7461844 27.1881087,1.7461844 C27.2060784,1.76437382 27.224048,1.7765001 27.2420177,1.78862639 C27.2539975,1.79468953 27.2599874,1.80075267 27.2719671,1.80681581 C27.2719671,1.80681581 27.277957,1.80681581 27.277957,1.81287895 C27.2959267,1.81894209 27.3138964,1.81894209 27.3378559,1.82500523 C27.3498357,1.82500523 27.3618155,1.83106837 27.3737953,1.83106837 L27.3797851,1.83106837 C27.4336942,1.83106837 27.4816133,1.80681581 27.5295324,1.7765001 C27.5355223,1.7765001 27.5415122,1.7765001 27.5415122,1.77043696 C27.5475021,1.76437382 27.5475021,1.76437382 27.5534919,1.75831068 C27.5594818,1.75224754 27.5594818,1.75224754 27.5654717,1.7461844 C27.6553201,1.66736358 27.7271987,1.57035333 27.7811077,1.46727995 C27.823037,1.43696425 27.8649662,1.40664855 27.9128853,1.38845913 C28.0326831,1.35208028 28.1644607,1.35814342 28.2782686,1.41877483 C28.3920765,1.47940623 28.4759349,1.57641648 28.5178642,1.70374242 C28.5897428,1.95233117 28.4519754,2.23123563 28.2004,2.31005645 M28.9970553,1.54003763 C28.9131969,1.28538574 28.7394901,1.07923897 28.5058844,0.957976166 C28.308218,0.854902781 28.092582,0.83065022 27.8829359,0.867029061 C27.8170471,0.375914698 27.4097346,0 26.9065839,0 C26.409423,0 25.9961207,0.375914698 25.9302319,0.867029061 C25.4510407,0.782145097 24.9658597,1.05498641 24.8101225,1.54003763 C24.7262641,1.79468953 24.7502236,2.06753084 24.8700214,2.30399331 C24.9718495,2.51014008 25.1455563,2.65565545 25.3552025,2.74660255 C25.2473845,2.94062304 25.2054552,3.16495923 25.2413946,3.38323228 C25.2833238,3.64394731 25.4210913,3.88040978 25.6367273,4.03805143 C25.8044442,4.16537738 26.0081004,4.23207192 26.2177466,4.23207192 C26.2716556,4.23207192 26.3255646,4.22600878 26.3734837,4.21994564 C26.5891197,4.1835668 26.7807962,4.07443027 26.9305434,3.91678863 C27.1222199,4.11687226 27.3797851,4.23207192 27.6433403,4.23207192 C27.8469965,4.23207192 28.0446629,4.17144052 28.2243596,4.04411457 C28.6316721,3.74095756 28.7394901,3.18314865 28.4998945,2.74660255 C28.9251767,2.52226636 29.1468026,2.01902572 28.9970553,1.54003763" id="Shape"></path>
                <path d="M27.9608044,2.13422538 C27.9608044,2.12816224 27.9608044,2.1220991 27.9608044,2.11603596 C27.9608044,2.10997282 27.9608044,2.10390968 27.9608044,2.09784654 C28.0326831,2.0614677 28.0806022,1.99477315 28.0686224,1.90988919 C28.0566427,1.82500523 27.984764,1.7765001 27.9009055,1.77043696 C27.8949156,1.75831068 27.8949156,1.7461844 27.8889258,1.73405812 C27.9488247,1.67948986 27.9727842,1.5946059 27.930855,1.52184821 C27.8889258,1.44909053 27.8050673,1.42483797 27.7271987,1.44909053 C27.7212089,1.44302739 27.7092291,1.43090111 27.7032392,1.41877483 C27.7391785,1.34601714 27.7331886,1.26113318 27.6672998,1.20050178 C27.6014111,1.14593351 27.5175526,1.1580598 27.4516638,1.20656492 C27.439684,1.20050178 27.4277043,1.19443864 27.4217144,1.1883755 C27.4277043,1.10955467 27.3977548,1.02467071 27.3198863,1.00041815 C27.2420177,0.970102446 27.1641491,1.01254443 27.1222199,1.07317583 C27.1102401,1.06711269 27.0922704,1.07317583 27.0802907,1.06711269 C27.062321,0.988291867 27.0024221,0.921597324 26.9185637,0.921597324 C26.8347052,0.921597324 26.7748063,0.988291867 26.7568366,1.06711269 C26.7508467,1.06711269 26.7448569,1.06711269 26.738867,1.06711269 C26.7029276,0.982228727 26.6070894,0.933723604 26.5172411,0.964039306 C26.4273927,1.00041815 26.3854635,1.09742839 26.409423,1.1883755 C26.409423,1.1883755 26.4034332,1.19443864 26.3974433,1.19443864 C26.3315545,1.12774409 26.2237365,1.12168095 26.1518578,1.18231236 C26.0799791,1.24294376 26.0679993,1.35208028 26.1278982,1.43090111 C26.1219083,1.43696425 26.1219083,1.43696425 26.1159185,1.44302739 C26.03206,1.40058541 25.9302319,1.43090111 25.8883026,1.50972193 C25.8403835,1.58854276 25.870333,1.69161614 25.9422117,1.7461844 C25.9422117,1.75224754 25.9362218,1.76437382 25.9362218,1.77043696 C25.8403835,1.75831068 25.7565251,1.81894209 25.7385554,1.91595233 C25.7205857,2.01296258 25.7864745,2.09784654 25.8763229,2.1220991 C25.8763229,2.12816224 25.8763229,2.14028852 25.8763229,2.14635166 C25.7924644,2.17060422 25.7385554,2.25548819 25.7505352,2.34037215 C25.7685049,2.43131926 25.8523633,2.49195066 25.9422117,2.48588752 C25.9422117,2.49195066 25.9482015,2.4980138 25.9482015,2.51014008 C25.8883026,2.56470834 25.8583532,2.65565545 25.9062723,2.72841313 C25.9482015,2.80723395 26.0440398,2.83148651 26.1219083,2.79510767 C26.1278982,2.80117081 26.1338881,2.80723395 26.139878,2.81329709 C26.1039387,2.88605478 26.1039387,2.97700188 26.1698275,3.03157014 C26.2357162,3.08613841 26.3255646,3.08007527 26.3914534,3.025507 C26.3974433,3.03157014 26.409423,3.03763328 26.4154129,3.03763328 C26.4034332,3.11645411 26.4393725,3.20133807 26.5172411,3.23165377 C26.5951096,3.26196948 26.6729782,3.22559063 26.7149074,3.15889609 C26.7268872,3.15889609 26.738867,3.15889609 26.7508467,3.16495923 C26.7688164,3.24378005 26.8287153,3.3104746 26.9125738,3.3104746 C26.9964322,3.3104746 27.0563311,3.24378005 27.0743008,3.16495923 C27.0862806,3.16495923 27.0982603,3.16495923 27.11623,3.15889609 C27.1641491,3.22559063 27.2360278,3.26196948 27.3138964,3.23165377 C27.3917649,3.20133807 27.4277043,3.12251725 27.4157245,3.03763328 C27.4277043,3.03157014 27.439684,3.025507 27.4456739,3.01944386 C27.5115627,3.06794899 27.5954212,3.07401213 27.66131,3.025507 C27.7271987,2.97093874 27.7331886,2.87999164 27.6972493,2.80723395 C27.7032392,2.80117081 27.715219,2.78904453 27.7212089,2.77691825 C27.7990774,2.80117081 27.8829359,2.77691825 27.9248651,2.70416057 C27.9667943,2.63140289 27.9428348,2.54651892 27.8889258,2.49195066 C27.8949156,2.47982438 27.8949156,2.4676981 27.9009055,2.45557182 C27.9787741,2.44950868 28.0566427,2.40100355 28.0686224,2.31611959 C28.0865921,2.23729877 28.0326831,2.17060422 27.9608044,2.13422538" id="Path"></path>
                <path d="M10.0929639,2.84967594 C9.94321666,2.74660255 9.76351997,2.61321346 9.73357052,2.37068785 C7.15192813,2.50407694 3.40824716,4.49278695 1.92874444,6.13589797 L10.8237304,6.10558227 C10.3864685,5.63265733 9.93722677,4.61404976 9.99113577,3.99560945 C10.0210852,3.6863893 10.1648426,3.54693707 10.2906303,3.48024253 C10.30261,3.45598996 10.3205797,3.41354798 10.3205797,3.39535856 L10.3265696,3.371106 C10.4224078,3.08613841 10.2846404,2.98912816 10.0929639,2.84967594" id="Path"></path>
                <path d="M-2.12803626e-15,5.44469998 L0.311474257,5.79029898 C3.82154953,2.53439264 6.35527282,1.38845913 11.1232249,0.909471043 L11.0812957,0.442609241 C6.3073537,0.903407903 3.50408539,2.17060422 -2.12803626e-15,5.44469998" id="Path"></path>
                <path d="M10.3684988,4.18962994 C10.3684988,4.00773573 10.4044382,3.81977838 10.4942865,3.65607359 L10.955508,3.91072549 C10.9135788,3.98348317 10.8956091,4.08049341 10.8956091,4.18962994 C10.8656596,4.78381769 11.6323655,5.82061468 11.9438398,5.97219318 L11.6862745,6.43299185 C11.1651541,6.10558227 10.4044382,5.12335354 10.3684988,4.18962994" id="Path"></path>
                <path d="M11.0154069,1.57035333 C10.8536799,1.43696425 10.7518517,1.23081748 10.7518517,1.00041815 C10.7518517,0.588124608 11.0812957,0.260715032 11.4886082,0.260715032 C11.8959207,0.260715032 12.2253646,0.594187748 12.2253646,1.00041815 C12.2253646,1.23081748 12.1235365,1.43090111 11.9618094,1.57035333" id="Path"></path>
                <path d="M10.7219023,2.47982438 C10.5422056,2.59502404 10.3205797,2.63140289 10.1049437,2.5586452 C9.72159074,2.43131926 9.50595472,2.01296258 9.6317424,1.6249216 C9.75753008,1.23688062 10.1708325,1.01860757 10.5541854,1.14593351 C10.7698214,1.2186912 10.9315484,1.37633285 11.009417,1.57641648" id="Path"></path>
                <path d="M11.4646486,3.04369642 C11.5185576,3.24984319 11.4766284,3.47417939 11.3448508,3.66213673 C11.1052552,3.99560945 10.6500236,4.06836713 10.3205797,3.82584152 C9.99113577,3.58331591 9.9192571,3.12251725 10.1588527,2.78904453 C10.2906303,2.60715032 10.4942865,2.4980138 10.7039326,2.48588752" id="Path"></path>
                <path d="M12.2253646,2.48588752 C12.4350107,2.4980138 12.638667,2.60715032 12.7704445,2.78904453 C13.0100401,3.12251725 12.9381614,3.58331591 12.6087175,3.82584152 C12.2792736,4.06836713 11.824042,3.99560945 11.5844464,3.66213673 C11.4526688,3.47417939 11.4167295,3.24984319 11.4646486,3.04369642" id="Path"></path>
                <path d="M11.9558195,1.57035333 C12.0336881,1.37633285 12.1954151,1.21262806 12.4110512,1.13987037 C12.7944041,1.01254443 13.2136964,1.22475434 13.3334941,1.61885846 C13.4592818,2.00689944 13.2496357,2.42525612 12.8602929,2.55258206 C12.6446568,2.62533974 12.4230309,2.5889609 12.2433342,2.47376124" id="Path"></path>
                <path d="M13.0639491,2.06753084 C13.0040502,2.1827305 12.908212,2.26761447 12.7824243,2.31005645 C12.7225254,2.32824587 12.6566366,2.33430901 12.5967377,2.32824587 C12.5188692,2.29186703 12.4410006,2.26761447 12.3571421,2.24942505 C12.2972433,2.21910935 12.2253646,2.21304621 12.1654657,2.23729877 C12.0576477,2.26155133 11.9737892,2.35249843 11.9677993,2.4676981 C11.9558195,2.61321346 12.0636376,2.73447627 12.2073949,2.74053941 C12.2193747,2.74053941 12.2253646,2.74660255 12.2373444,2.75266569 C12.2972433,2.77691825 12.3571421,2.80117081 12.4230309,2.81936023 C12.4769399,2.84967594 12.5248591,2.89211792 12.5607984,2.94062304 C12.7165355,3.15889609 12.6686164,3.4620531 12.4529804,3.61969475 C12.3511523,3.69851558 12.2253646,3.72276814 12.0995769,3.70457872 C11.9737892,3.6863893 11.8599813,3.61363161 11.7881026,3.51055823 C11.7581532,3.46811625 11.7401835,3.41961112 11.7282037,3.36504286 C11.7461734,3.24984319 11.7401835,3.12858039 11.716224,3.01338072 C11.716224,3.00731758 11.716224,3.00125444 11.716224,2.9951913 C11.716224,2.98912816 11.716224,2.98306502 11.716224,2.97700188 C11.716224,2.9648756 11.7042442,2.95881246 11.7042442,2.94668618 C11.6982543,2.92849676 11.6922644,2.91637048 11.6802846,2.89818106 C11.6683048,2.88605478 11.6563251,2.8739285 11.6443453,2.86180222 C11.6323655,2.84967594 11.6263756,2.83754966 11.608406,2.83148651 C11.5904363,2.81936023 11.5724666,2.81329709 11.5544969,2.80723395 C11.5425172,2.80117081 11.5365273,2.79510767 11.5245475,2.79510767 C11.5185576,2.79510767 11.5185576,2.79510767 11.5125677,2.79510767 C11.4945981,2.78904453 11.4766284,2.79510767 11.4526688,2.79510767 C11.440689,2.79510767 11.4227194,2.79510767 11.4107396,2.79510767 C11.4047497,2.79510767 11.3987598,2.79510767 11.3987598,2.79510767 C11.38678,2.80117081 11.3748003,2.80723395 11.3628205,2.81329709 C11.3508407,2.81936023 11.332871,2.82542337 11.3208913,2.83148651 C11.3029216,2.8436128 11.2909418,2.85573908 11.278962,2.86786536 C11.2669822,2.87999164 11.2609924,2.88605478 11.2490126,2.89818106 C11.2370328,2.91637048 11.2310429,2.9345599 11.225053,2.94668618 C11.2190631,2.95881246 11.2130732,2.9648756 11.2130732,2.97700188 C11.2130732,2.98306502 11.2130732,2.98912816 11.2130732,2.9951913 C11.2130732,3.00125444 11.2130732,3.00731758 11.2130732,3.01338072 C11.1891137,3.12858039 11.1831238,3.24984319 11.2010935,3.36504286 C11.1831238,3.41354798 11.171144,3.46811625 11.1411946,3.51055823 C11.0693159,3.61363161 10.955508,3.6863893 10.8297203,3.70457872 C10.7039326,3.72276814 10.578145,3.69245244 10.4703269,3.61969475 C10.3684988,3.54693707 10.2966201,3.4317374 10.2786505,3.30441146 C10.2606808,3.17708551 10.2906303,3.04975957 10.3625089,2.94062304 C10.3984483,2.89211792 10.4403775,2.85573908 10.4882966,2.82542337 C10.6200742,2.80117081 10.7458619,2.76479197 10.8596698,2.69203429 C10.9794676,2.6192766 11.0154069,2.45557182 10.9435282,2.34037215 C10.8836293,2.24336191 10.7698214,2.20091992 10.6679933,2.23123563 C10.5541854,2.24336191 10.4403775,2.27367761 10.3385494,2.32218273 C10.2906303,2.32218273 10.2367212,2.32218273 10.1888021,2.31005645 C10.0690043,2.26761447 9.96717622,2.1827305 9.90727732,2.06753084 C9.84737843,1.95233117 9.84138854,1.81894209 9.87732787,1.69767928 C9.9192571,1.57641648 10.0031156,1.47334309 10.1169235,1.41271169 C10.2307314,1.35208028 10.3625089,1.339954 10.4823067,1.38239599 C10.5302258,1.40058541 10.5721551,1.43090111 10.6140843,1.46121681 C10.6679933,1.56429019 10.739872,1.66130044 10.8297203,1.74012126 C10.8357102,1.7461844 10.8357102,1.7461844 10.8417001,1.75224754 C10.84769,1.75831068 10.84769,1.75831068 10.8536799,1.76437382 C10.8596698,1.76437382 10.8656596,1.76437382 10.8656596,1.77043696 C10.9075889,1.80075267 10.9614979,1.82500523 11.0154069,1.82500523 C11.0154069,1.82500523 11.0154069,1.82500523 11.0154069,1.82500523 C11.0273867,1.82500523 11.0333766,1.81894209 11.0453563,1.81894209 C11.0693159,1.81894209 11.0872856,1.81894209 11.1112451,1.80681581 C11.1112451,1.80681581 11.117235,1.80681581 11.117235,1.80681581 C11.1292148,1.80075267 11.1352047,1.79468953 11.1471845,1.78862639 C11.171144,1.7765001 11.1891137,1.76437382 11.2070834,1.7461844 C11.2070834,1.7461844 11.2130732,1.74012126 11.2130732,1.74012126 C11.2190631,1.73405812 11.225053,1.72193184 11.2310429,1.70980556 C11.2430227,1.69161614 11.2490126,1.67948986 11.2550025,1.66130044 C11.2609924,1.64311102 11.2609924,1.63098474 11.2669822,1.61279532 C11.2669822,1.5946059 11.2729721,1.58247962 11.2729721,1.56429019 C11.2729721,1.54610077 11.2669822,1.52791135 11.2609924,1.50972193 C11.2609924,1.49759565 11.2609924,1.48546937 11.2550025,1.47334309 C11.2550025,1.46727995 11.2490126,1.46727995 11.2490126,1.46121681 C11.2490126,1.45515367 11.2430227,1.44909053 11.2430227,1.44909053 C11.1951036,1.339954 11.1292148,1.24294376 11.0453563,1.1580598 C11.0273867,1.10955467 11.009417,1.06104955 11.009417,1.00648129 C11.009417,0.739703115 11.225053,0.521430065 11.4886082,0.521430065 C11.7521633,0.521430065 11.9677993,0.739703115 11.9677993,1.00648129 C11.9677993,1.06104955 11.9498297,1.10955467 11.93186,1.1580598 C11.8480015,1.24294376 11.7821128,1.339954 11.7341936,1.45515367 C11.7341936,1.46121681 11.7282037,1.46121681 11.7282037,1.46727995 C11.7282037,1.47334309 11.7222139,1.47334309 11.7222139,1.47940623 C11.716224,1.48546937 11.716224,1.49759565 11.716224,1.50972193 C11.7102341,1.52791135 11.7042442,1.54610077 11.7042442,1.56429019 C11.7042442,1.58247962 11.7042442,1.5946059 11.7102341,1.61279532 C11.716224,1.63098474 11.716224,1.64311102 11.7222139,1.66130044 C11.7282037,1.67948986 11.7401835,1.69161614 11.7461734,1.70374242 C11.7521633,1.7158687 11.7521633,1.72799498 11.7641431,1.73405812 C11.770133,1.73405812 11.770133,1.74012126 11.7761229,1.74012126 C11.7881026,1.75224754 11.8000824,1.75831068 11.8120622,1.77043696 C11.824042,1.78256324 11.8420116,1.79468953 11.8539914,1.80075267 C11.8599813,1.80075267 11.8599813,1.80681581 11.8599813,1.80681581 C11.8719611,1.81287895 11.877951,1.80681581 11.8899308,1.81287895 C11.9079004,1.81894209 11.9258701,1.82500523 11.9498297,1.82500523 C11.9618094,1.82500523 11.9737892,1.81894209 11.9917589,1.81894209 C12.0097286,1.81894209 12.0276982,1.81287895 12.0456679,1.80681581 C12.0636376,1.80075267 12.0756173,1.78862639 12.0875971,1.78256324 C12.0995769,1.7765001 12.1115567,1.7765001 12.1175466,1.76437382 C12.1235365,1.75831068 12.1235365,1.75831068 12.1295263,1.75224754 C12.1355162,1.7461844 12.1355162,1.7461844 12.1415061,1.74012126 C12.2313545,1.66130044 12.3032331,1.56429019 12.3571421,1.46121681 C12.3990714,1.43090111 12.4410006,1.39452227 12.4889197,1.38239599 C12.7404951,1.29751202 13.0100401,1.44302739 13.0938986,1.69161614 C13.1358278,1.81894209 13.123848,1.95233117 13.0639491,2.06753084 M13.5790796,1.54003763 C13.4233425,1.06104955 12.9381614,0.782145097 12.4589703,0.867029061 C12.3930815,0.381977838 11.985769,0 11.4826183,0 C10.9794676,0 10.5721551,0.381977838 10.5062663,0.867029061 C10.2966201,0.824587079 10.0749942,0.854902781 9.88331776,0.957976166 C9.64971207,1.07923897 9.47600527,1.28538574 9.39214682,1.54003763 C9.30828837,1.79468953 9.33224792,2.06753084 9.45204571,2.30399331 C9.54788395,2.4980138 9.70961097,2.63140289 9.90128743,2.72841313 C9.78747953,2.92849676 9.73956041,3.15283295 9.77549975,3.38323228 C9.81742898,3.65001045 9.95519644,3.88040978 10.1708325,4.03805143 C10.3385494,4.16537738 10.5422056,4.23207192 10.7518517,4.23207192 C10.8057608,4.23207192 10.8596698,4.22600878 10.9075889,4.21994564 C11.1232249,4.1835668 11.3149014,4.07443027 11.4646486,3.91678863 C11.6143958,4.07443027 11.8060723,4.1835668 12.0217083,4.2138825 C12.0756173,4.21994564 12.1295263,4.22600878 12.1774455,4.22600878 C12.3811017,4.22600878 12.584758,4.15931424 12.7584647,4.03198829 C13.1657772,3.73489442 13.2735952,3.17708551 13.0399896,2.74053941 C13.2436458,2.64959231 13.4173526,2.4980138 13.5251706,2.29793017 C13.6389785,2.0614677 13.6569482,1.79468953 13.5790796,1.54003763" id="Shape"></path>
                <path d="M12.5128793,2.14028852 C12.5128793,2.13422538 12.5128793,2.1220991 12.5128793,2.11603596 C12.6027276,2.0917834 12.6626265,2.00689944 12.6506467,1.90988919 C12.6326771,1.81287895 12.5488186,1.75224754 12.4529804,1.76437382 C12.4529804,1.75831068 12.4469905,1.7461844 12.4469905,1.74012126 C12.5188692,1.685553 12.5488186,1.58854276 12.5008995,1.50365879 C12.4529804,1.41877483 12.3511523,1.39452227 12.2672938,1.43696425 C12.2613039,1.43090111 12.2613039,1.43090111 12.255314,1.42483797 C12.309223,1.35208028 12.3032331,1.24294376 12.2313545,1.18231236 C12.1594758,1.12168095 12.0516578,1.12774409 11.985769,1.20050178 C11.9797791,1.20050178 11.9797791,1.19443864 11.9737892,1.19443864 C12.0037387,1.10349153 11.9558195,1.00648129 11.8659712,0.970102446 C11.7761229,0.933723604 11.6922644,0.988291867 11.6563251,1.07317583 C11.6503352,1.07317583 11.6443453,1.07317583 11.6383554,1.07317583 C11.6203857,0.994355007 11.5604868,0.927660464 11.4766284,0.927660464 C11.3927699,0.927660464 11.332871,0.988291867 11.3149014,1.07317583 C11.3029216,1.07317583 11.2849519,1.07317583 11.2729721,1.07923897 C11.225053,1.01254443 11.1531743,0.976165586 11.0753058,1.00648129 C10.9974372,1.03679699 10.9614979,1.11561781 10.9734777,1.20050178 C10.9614979,1.20656492 10.9495181,1.21262806 10.9375383,1.2186912 C10.8716495,1.17018608 10.7877911,1.1580598 10.7219023,1.21262806 C10.6560135,1.26719632 10.6500236,1.35814342 10.685963,1.43090111 C10.6799731,1.43696425 10.6679933,1.44909053 10.6620034,1.46121681 C10.5841348,1.43696425 10.5002764,1.46121681 10.4583472,1.53397449 C10.4164179,1.60673218 10.4403775,1.69161614 10.5002764,1.7461844 C10.4942865,1.75831068 10.4942865,1.77043696 10.4882966,1.78256324 C10.4044382,1.7765001 10.3325595,1.82500523 10.3205797,1.90988919 C10.3085999,1.99477315 10.356519,2.0614677 10.4283977,2.09784654 C10.4283977,2.10390968 10.4283977,2.10997282 10.4283977,2.11603596 C10.4283977,2.1220991 10.4283977,2.12816224 10.4283977,2.13422538 C10.356519,2.17060422 10.3085999,2.23729877 10.3205797,2.32218273 C10.3325595,2.40706669 10.410428,2.45557182 10.4882966,2.46163496 C10.4942865,2.47376124 10.4942865,2.48588752 10.5002764,2.4980138 C10.4403775,2.55258206 10.4164179,2.63746603 10.4583472,2.71022371 C10.5002764,2.78298139 10.5841348,2.80723395 10.6620034,2.78298139 C10.6679933,2.78904453 10.6739832,2.80117081 10.685963,2.81329709 C10.6500236,2.88605478 10.6560135,2.97093874 10.7219023,3.025507 C10.7877911,3.08007527 10.8716495,3.06794899 10.9375383,3.025507 C10.9495181,3.03157014 10.9614979,3.03763328 10.9674878,3.04369642 C10.9614979,3.12251725 10.9914473,3.20740121 11.0753058,3.23771691 C11.1531743,3.26803262 11.2310429,3.23165377 11.2729721,3.16495923 C11.2849519,3.16495923 11.2969317,3.16495923 11.3149014,3.17102237 C11.332871,3.24984319 11.3927699,3.31653774 11.4766284,3.31653774 C11.5604868,3.31653774 11.6203857,3.25590633 11.6383554,3.17102237 C11.6503352,3.17102237 11.662315,3.17102237 11.6742947,3.16495923 C11.7222139,3.23165377 11.7940925,3.26803262 11.8719611,3.23771691 C11.9498297,3.20740121 11.985769,3.12858039 11.9797791,3.04369642 C11.985769,3.03763328 11.9977488,3.03763328 12.0037387,3.03157014 C12.0696274,3.08613841 12.1594758,3.09220155 12.2253646,3.03763328 C12.2912534,2.98306502 12.2972433,2.89211792 12.255314,2.81936023 C12.2613039,2.81329709 12.2672938,2.80723395 12.2732837,2.80117081 C12.3511523,2.83148651 12.4469905,2.80723395 12.4889197,2.72841313 C12.5308489,2.65565545 12.5068894,2.56470834 12.4469905,2.51014008 C12.4469905,2.50407694 12.4529804,2.4980138 12.4529804,2.49195066 C12.5428287,2.4980138 12.6266872,2.44344554 12.6446568,2.34643529 C12.6566366,2.24942505 12.5967377,2.16454108 12.5128793,2.14028852" id="Path"></path>
                <path d="M19.1916061,22.3062931 C18.0355574,22.3062931 17.1011347,21.3543801 17.1011347,20.1902572 C17.1011347,20.0508049 17.2149426,19.9356053 17.3586999,19.9356053 C17.5024573,19.9356053 17.6102753,20.0508049 17.6102753,20.1902572 C17.6102753,21.0754756 18.3230721,21.7909262 19.1916061,21.7909262 C20.06613,21.7909262 20.772937,21.0754756 20.772937,20.1902572 C20.772937,20.0508049 20.8867449,19.9356053 21.0245123,19.9356053 C21.1622798,19.9356053 21.2760877,20.0508049 21.2760877,20.1902572 C21.2880675,21.3543801 20.3476548,22.3062931 19.1916061,22.3062931" id="Path"></path>
                <path d="M19.1916061,21.3543801 C18.4907891,21.3543801 17.9157597,20.7723186 17.9157597,20.0629312 C17.9157597,19.923479 18.0295676,19.8022162 18.167335,19.8022162 C18.3051025,19.8022162 18.4189104,19.9174158 18.4189104,20.0629312 C18.4189104,20.4934142 18.766324,20.8390132 19.1856162,20.8390132 C19.6108984,20.8390132 19.9523221,20.487351 19.9523221,20.0629312 C19.9523221,19.923479 20.06613,19.8022162 20.2038975,19.8022162 C20.3416649,19.8022162 20.4554728,19.9174158 20.4554728,20.0629312 C20.4674526,20.7723186 19.8984131,21.3543801 19.1916061,21.3543801" id="Path"></path>
                <path d="M19.5749591,23.4461635 C19.6228782,23.4461635 19.6588175,23.4401004 19.6827771,23.4279741 C19.742676,23.3976584 19.7846052,23.3491533 19.8025749,23.2885218 C19.8205445,23.2278904 19.8145546,23.1611959 19.7905951,23.1005645 C19.7786153,23.0702488 19.7546557,23.0459962 19.7187164,23.0217437 L19.6228782,22.948986 L19.6588175,22.8398495 C19.6767872,22.7913443 19.6767872,22.7549655 19.6767872,22.7246498 C19.6648074,22.6579553 19.6288681,22.603387 19.5809489,22.5670082 C19.5090703,22.5124399 19.413232,22.4942505 19.2994241,22.5791344 L19.2035859,22.6518921 L19.1077477,22.5791344 C19.0598286,22.5427556 19.0119094,22.5245662 18.9699802,22.5245662 C18.9160712,22.5245662 18.8681521,22.5427556 18.8262229,22.5730713 C18.7423644,22.6337027 18.712415,22.7428392 18.7423644,22.8459126 L18.7783037,22.9611123 L18.6764756,23.0278068 C18.6345464,23.0581225 18.6105868,23.0823751 18.5926172,23.1126908 C18.5626677,23.167259 18.5566778,23.2339536 18.5806374,23.3006481 C18.6105868,23.3976584 18.7004352,23.4643529 18.8082532,23.4643529 L18.9220611,23.4643529 L18.9639903,23.5734894 C19.0298791,23.7796362 19.3473433,23.7796362 19.413232,23.5734894 L19.4491714,23.4582898 L19.5749591,23.4461635 L19.5749591,23.4461635 Z" id="Path"></path>
                <path d="M12.7225254,15.2973029 C12.7944041,15.2973029 12.8483131,15.2791135 12.8722726,15.2427347 C12.9022221,15.2063558 12.9142019,15.1639139 12.9142019,15.1032825 L12.9142019,12.0777755 C12.8782625,12.0777755 12.8363333,12.0777755 12.7884142,12.0838386 C12.7404951,12.0899017 12.6985659,12.102028 12.6566366,12.1141543 C12.6147074,12.1323437 12.584758,12.1565963 12.5548085,12.186912 C12.5248591,12.2172277 12.5128793,12.2596697 12.5128793,12.3081748 L12.417041,12.3081748 L12.417041,11.4896508 L12.5128793,11.4896508 C12.5128793,11.5927242 12.5488186,11.6412294 12.6147074,11.6412294 C12.6805962,11.6412294 12.7524749,11.6169768 12.8483131,11.5745348 C12.9381614,11.5320928 12.9860806,11.4775246 12.9860806,11.4047669 C12.9860806,11.3016935 12.9261817,11.2531884 12.800394,11.2531884 L12.800394,11.1561781 L13.7408066,11.1561781 L13.7408066,11.2531884 C13.6749178,11.2531884 13.6329886,11.2713778 13.615019,11.2956304 C13.5910594,11.3259461 13.5850695,11.3805143 13.5850695,11.453272 L13.5850695,15.0972193 C13.5850695,15.1578507 13.5970493,15.2002927 13.6269987,15.2366715 C13.6509583,15.2730504 13.7048673,15.2912398 13.776746,15.2912398 L13.776746,15.3882501 L12.7285153,15.3882501 L12.7285153,15.2973029 L12.7225254,15.2973029 Z" id="Path"></path>
                <path d="M16.8375795,12.8962994 C16.9933167,12.8962994 17.137074,12.8841731 17.2808314,12.8599206 C17.4245887,12.835668 17.5443865,12.7992891 17.6522045,12.7447209 C17.7600225,12.6962158 17.8498709,12.6295212 17.9157597,12.5507004 C17.9816484,12.4718796 18.0175878,12.3688062 18.0175878,12.2536065 C18.0175878,12.1384069 17.9816484,12.0353335 17.9157597,11.9565126 C17.8498709,11.8776918 17.7600225,11.8109973 17.6522045,11.756429 C17.5443865,11.7018608 17.4185988,11.6654819 17.2808314,11.6412294 C17.1430639,11.6169768 16.9933167,11.6048505 16.8375795,11.6048505 C16.6878323,11.6048505 16.5440749,11.6169768 16.4003176,11.6412294 C16.2565602,11.6654819 16.1307726,11.7018608 16.0229546,11.756429 C15.9151365,11.8049341 15.8252882,11.8716287 15.7593994,11.9565126 C15.6935106,12.0353335 15.6575713,12.1384069 15.6575713,12.2536065 C15.6575713,12.3688062 15.6935106,12.4718796 15.7593994,12.5507004 C15.8252882,12.6295212 15.9151365,12.6962158 16.0229546,12.7447209 C16.1307726,12.793226 16.2565602,12.835668 16.4003176,12.8599206 C16.5440749,12.8841731 16.6878323,12.8962994 16.8375795,12.8962994 M16.8375795,13.39954 C16.6638727,13.39954 16.4961558,13.4177295 16.3344288,13.4541083 C16.1727018,13.4904871 16.0349343,13.5389923 15.9151365,13.6056868 C15.7953388,13.6723814 15.6995005,13.7512022 15.6276218,13.8482124 C15.5557432,13.9452227 15.5198038,14.0543592 15.5198038,14.175622 C15.5198038,14.2968848 15.5557432,14.4060213 15.6276218,14.5030316 C15.6995005,14.6000418 15.7953388,14.6788626 15.9151365,14.7455572 C16.0349343,14.8122517 16.1786917,14.8607568 16.3344288,14.8971357 C16.4901659,14.9335145 16.6578828,14.951704 16.8375795,14.951704 C17.0172762,14.951704 17.1790032,14.9335145 17.3407303,14.8971357 C17.4964674,14.8607568 17.6402247,14.8122517 17.7600225,14.7455572 C17.8798203,14.6788626 17.9756585,14.6000418 18.0535271,14.5030316 C18.1254058,14.4060213 18.1613451,14.2968848 18.1613451,14.175622 C18.1613451,14.048296 18.1254058,13.9391595 18.0535271,13.8482124 C17.9816484,13.7512022 17.8858102,13.6723814 17.7600225,13.6056868 C17.6402247,13.5389923 17.4964674,13.4904871 17.3407303,13.4541083 C17.1790032,13.4177295 17.0112863,13.39954 16.8375795,13.39954 M15.6935106,13.1509513 C15.4898544,13.0903199 15.3341173,12.9872465 15.2262992,12.8477943 C15.1124913,12.7022789 15.0585823,12.5264478 15.0585823,12.3142379 C15.0585823,12.1202174 15.1005116,11.9504495 15.1903599,11.8049341 C15.2802083,11.6594188 15.4059959,11.5320928 15.5617331,11.4290194 C15.7234601,11.3259461 15.9091467,11.2471252 16.1247827,11.192557 C16.3404187,11.1379887 16.5800143,11.1137361 16.8315896,11.1137361 C17.083165,11.1137361 17.3227606,11.1379887 17.5383966,11.192557 C17.7540326,11.2471252 17.9457091,11.3259461 18.1014462,11.4290194 C18.2571834,11.5320928 18.382971,11.6533556 18.4728194,11.8049341 C18.5626677,11.9504495 18.6105868,12.1202174 18.6105868,12.3142379 C18.6105868,12.5264478 18.5566778,12.7022789 18.4428699,12.8477943 C18.329062,12.9933096 18.1733249,13.096383 17.9756585,13.1509513 L17.9756585,13.1570144 C18.1972845,13.2176458 18.382971,13.3389086 18.5327183,13.5208028 C18.6824655,13.7026971 18.7543442,13.9209701 18.7543442,14.1634957 C18.7543442,14.3757056 18.7064251,14.563663 18.6105868,14.7273678 C18.5147486,14.8910725 18.382971,15.0183985 18.2152541,15.127535 C18.0475372,15.2306084 17.843881,15.3094292 17.6102753,15.3518712 C17.3766696,15.3943132 17.1131145,15.4185658 16.8375795,15.4185658 C16.5620446,15.4185658 16.2984895,15.3943132 16.0648838,15.3518712 C15.8312781,15.3033661 15.6276218,15.2306084 15.453915,15.127535 C15.2861981,15.0244616 15.1544206,14.8910725 15.0585823,14.7273678 C14.9627441,14.5697261 14.914825,14.3757056 14.914825,14.1634957 C14.914825,13.9209701 14.9867037,13.7087602 15.1364509,13.5208028 C15.2861981,13.3328455 15.4718847,13.2115827 15.6935106,13.1570144 L15.6935106,13.1509513 L15.6935106,13.1509513 Z" id="Shape"></path>
                <path d="M19.5270399,10.9682208 C19.5270399,11.0409785 19.5390197,11.0894836 19.5689692,11.1197993 C19.5929287,11.150115 19.6468377,11.1622413 19.7306962,11.1622413 L22.9352871,11.1622413 C23.0131557,11.1622413 23.0670647,11.150115 23.0970141,11.1197993 C23.1209737,11.0894836 23.1389433,11.0409785 23.1389433,10.9682208 L23.2347816,10.9682208 L23.2347816,11.6291031 L21.365936,15.0790299 C21.3539563,15.1032825 21.3419765,15.127535 21.3299967,15.1457244 C21.3180169,15.1639139 21.312027,15.1881664 21.312027,15.2245453 C21.312027,15.2730504 21.3599461,15.2973029 21.4557844,15.2973029 L21.4557844,15.3943132 L20.3536447,15.3943132 L20.3536447,15.2973029 C20.4554728,15.2973029 20.5273515,15.2730504 20.5632908,15.2306084 C20.6052201,15.1821033 20.6531392,15.1093456 20.7130381,15.0002091 L22.4560959,11.7382396 L19.742676,11.7382396 C19.6648074,11.7382396 19.6108984,11.756429 19.5809489,11.7867447 C19.5509995,11.8170604 19.5390197,11.8716287 19.5390197,11.9383232 L19.4431815,11.9383232 L19.4431815,10.9621576 L19.5270399,10.9621576 L19.5270399,10.9682208 Z" id="Path"></path>
                <path d="M24.786163,15.2973029 C24.8580416,15.2973029 24.9119507,15.2791135 24.9359102,15.2427347 C24.9598698,15.2063558 24.9778394,15.1639139 24.9778394,15.1032825 L24.9778394,12.0777755 C24.9419001,12.0777755 24.8999709,12.0777755 24.8520518,12.0838386 C24.8041326,12.0899017 24.7622034,12.102028 24.7202742,12.1141543 C24.678345,12.1323437 24.6483955,12.1565963 24.6184461,12.186912 C24.5944865,12.2172277 24.5765168,12.2596697 24.5765168,12.3081748 L24.4806786,12.3081748 L24.4806786,11.4896508 L24.5765168,11.4896508 C24.5765168,11.5927242 24.6124562,11.6412294 24.678345,11.6412294 C24.7442337,11.6412294 24.8161124,11.6169768 24.9059608,11.5745348 C24.9958091,11.5320928 25.0437282,11.4775246 25.0437282,11.4047669 C25.0437282,11.3016935 24.9838293,11.2531884 24.8580416,11.2531884 L24.8580416,11.1561781 L25.7984543,11.1561781 L25.7984543,11.2531884 C25.7325655,11.2531884 25.6906363,11.2713778 25.6726666,11.2956304 C25.6487071,11.3259461 25.6427172,11.3805143 25.6427172,11.453272 L25.6427172,15.0972193 C25.6427172,15.1578507 25.654697,15.2002927 25.6846464,15.2366715 C25.708606,15.2730504 25.762515,15.2912398 25.8343936,15.2912398 L25.8343936,15.3882501 L24.786163,15.3882501 L24.786163,15.2973029 Z" id="Path"></path>
                <path d="M23.7139727,22.1304621 C23.4623974,22.4942505 23.4324479,23.0945014 23.6241244,23.9069622 C23.6900132,24.1919298 23.5702154,24.4223291 23.4623974,24.5678444 C23.2287917,24.8649383 22.8035095,25.0710851 22.4141667,25.0710851 C21.8091879,25.0710851 21.3000473,24.6648547 21.204209,24.1009826 C21.1862393,23.9797198 21.0784213,23.8948359 20.9586235,23.8887727 C20.8448156,23.8827096 20.7369976,23.943341 20.6950684,24.0585407 C20.4794324,24.7072967 19.8744535,25.1377796 19.197596,25.1377796 C18.5207385,25.1377796 17.9217495,24.7012335 17.7001236,24.0585407 C17.6941337,24.0464144 17.6881439,24.0403512 17.682154,24.028225 C17.6761641,24.0100355 17.6701742,23.9979093 17.6581944,23.985783 C17.6462146,23.9736567 17.6342348,23.9615304 17.6222551,23.9494041 C17.6102753,23.9372779 17.5982955,23.9312147 17.5863157,23.9251516 C17.5683461,23.9130253 17.5503764,23.9069622 17.5324067,23.9069622 C17.5264168,23.9069622 17.5144371,23.900899 17.5084472,23.8948359 C17.5024573,23.8948359 17.5024573,23.8948359 17.4964674,23.8948359 C17.4784977,23.8887727 17.4545382,23.8948359 17.4365685,23.8948359 C17.4245887,23.8948359 17.4126089,23.8948359 17.4006292,23.900899 C17.3946393,23.900899 17.3886494,23.900899 17.3826595,23.900899 C17.3646898,23.9069622 17.3586999,23.9190884 17.3407303,23.9251516 C17.3287505,23.9312147 17.3167707,23.9372779 17.3107808,23.943341 C17.2928111,23.9554673 17.2808314,23.9675936 17.2688516,23.985783 C17.2628617,23.9979093 17.2508819,24.0039724 17.244892,24.0160987 C17.2329122,24.0342881 17.2269224,24.0524775 17.2269224,24.0706669 C17.2209325,24.0827932 17.2149426,24.0888564 17.2149426,24.1009826 C17.1191043,24.6648547 16.6099637,25.0710851 16.0049849,25.0710851 C15.6096522,25.0710851 15.1903599,24.8710015 14.9567542,24.5678444 C14.8429463,24.4223291 14.7231485,24.1919298 14.7890373,23.9069622 C14.9807138,23.0945014 14.9507643,22.5003136 14.699189,22.1304621 C14.6392901,22.0455781 14.5734013,21.9788835 14.5135024,21.9303784 C14.6033507,21.7969893 14.7590879,21.7181685 14.9327947,21.7181685 C15.2023397,21.7181685 15.4179757,21.9364416 15.4179757,22.2032197 C15.4179757,22.2941668 15.4119858,23.0945014 15.8312781,23.5310475 C16.0049849,23.7129417 16.2326007,23.8099519 16.4901659,23.8099519 C17.1610336,23.8099519 17.4725078,23.2278904 17.5863157,22.7125235 C17.6701742,22.7549655 17.7480427,22.7974075 17.8139315,22.8277232 C17.8139315,23.1369433 17.8618506,23.7250679 18.2092642,24.1312983 C18.4488598,24.4102028 18.7783037,24.5557182 19.1916061,24.5617813 L19.2035859,24.5617813 C19.6168883,24.5557182 19.9463322,24.4102028 20.1859278,24.1312983 C20.5333414,23.7250679 20.5812605,23.1430065 20.5812605,22.8277232 C20.6531392,22.7974075 20.7369976,22.7549655 20.826846,22.7064604 C20.9406539,23.2218273 21.2521281,23.8099519 21.9229958,23.8099519 C22.180561,23.8099519 22.4081768,23.7129417 22.5818836,23.5310475 C23.0071658,23.0945014 22.995186,22.2941668 22.995186,22.2092829 C22.995186,21.9364416 23.210822,21.7181685 23.480367,21.7181685 C23.6540738,21.7181685 23.8158009,21.8030525 23.8996593,21.9303784 C23.8337705,21.9788835 23.7738716,22.0455781 23.7139727,22.1304621 M23.4743772,21.2028016 C22.9233073,21.2028016 22.4800555,21.6575371 22.4800555,22.215346 C22.4860454,22.3972402 22.4441162,22.9307966 22.2105105,23.1733222 C22.1326419,23.2582061 22.0368037,23.294585 21.9170059,23.294585 C21.3060371,23.294585 21.2700978,22.257788 21.2700978,22.2517249 C21.2641079,22.1122726 21.1562899,21.9788835 21.0125326,22.0031361 L21.0125326,22.0031361 C20.9466438,22.0031361 20.8747651,22.0273887 20.826846,22.0758938 C20.5992302,22.3062931 20.2637964,22.3911771 20.2578065,22.3911771 C20.1320188,22.4214928 20.0481603,22.5427556 20.06613,22.6700815 C20.06613,22.6761447 20.1380087,23.3976584 19.8025749,23.7856994 C19.6588175,23.9494041 19.4611512,24.0342881 19.197596,24.0403512 C18.9340409,24.0342881 18.7363745,23.9554673 18.5926172,23.7856994 C18.2511935,23.3915952 18.329062,22.6761447 18.329062,22.6700815 C18.3410418,22.5427556 18.2631732,22.4214928 18.1373856,22.3911771 C18.1313957,22.3911771 17.7959619,22.3062931 17.5683461,22.0758938 C17.5563663,22.0637675 17.5443865,22.0577044 17.5324067,22.0516412 C17.5204269,22.0395149 17.5084472,22.0273887 17.4904775,22.0213255 C17.4665179,22.0091992 17.4365685,22.0031361 17.406619,22.0031361 C17.4006292,22.0031361 17.4006292,21.997073 17.3946393,21.997073 C17.3946393,21.997073 17.3886494,21.997073 17.3886494,21.997073 C17.35271,21.997073 17.3227606,22.0031361 17.2928111,22.0152624 C17.2628617,22.0273887 17.2329122,22.0455781 17.2089527,22.0698307 L17.2089527,22.0698307 C17.2029628,22.0758938 17.2029628,22.0819569 17.1969729,22.0880201 C17.1790032,22.1062095 17.1670235,22.1243989 17.1550437,22.1486515 C17.1490538,22.1668409 17.1430639,22.1850303 17.1430639,22.2032197 C17.1430639,22.215346 17.137074,22.2274723 17.137074,22.2456617 C17.137074,22.257788 17.1071246,23.2885218 16.4901659,23.2885218 C16.3703681,23.2885218 16.2745299,23.252143 16.1966614,23.167259 C15.9630557,22.9247334 15.9211264,22.3972402 15.9271163,22.2032197 C15.9271163,21.6454108 15.4778746,21.1967384 14.9327947,21.1967384 C14.4416237,21.1967384 14.0223314,21.5423374 13.9444629,22.0091992 C13.9324831,22.0758938 13.9444629,22.1486515 13.9863921,22.2032197 C14.0283213,22.257788 14.0822303,22.2941668 14.154109,22.3062931 C14.154109,22.3062931 14.2319776,22.3244825 14.2978664,22.4336191 C14.3817248,22.5730713 14.4955327,22.9368597 14.2978664,23.7735731 C14.208018,24.1494878 14.3038563,24.5435919 14.5554316,24.8710015 C14.8848755,25.2954213 15.453915,25.5682626 16.0049849,25.5682626 C16.6399132,25.5682626 17.1969729,25.240853 17.5024573,24.7436755 C17.8858102,25.2954213 18.5147486,25.6410203 19.2035859,25.6410203 C19.8984131,25.6410203 20.5333414,25.2893581 20.9166943,24.7376124 C21.2161888,25.240853 21.7792384,25.5743257 22.4201566,25.5743257 C22.9712264,25.5743257 23.5342761,25.3014844 23.8697099,24.8770646 C24.1272751,24.549655 24.2171235,24.1555509 24.1272751,23.7796362 C23.9296088,22.9368597 24.0434167,22.5791344 24.1272751,22.4396822 C24.1931639,22.3244825 24.2590527,22.3123563 24.2590527,22.3123563 C24.3309314,22.3062931 24.3908303,22.2638511 24.4327595,22.2092829 C24.4746887,22.1547146 24.4926584,22.0819569 24.4806786,22.0091992 C24.3848404,21.5484006 23.971538,21.2028016 23.4743772,21.2028016" id="Shape"></path>
            </g>
            <path d="M38.0837178,19.9174158 L3.25251003,19.9174158 L3.25251003,8.80974284 L38.0837178,8.80974284 L38.0837178,19.9174158 Z M38.6407775,8.62178549 L38.6407775,8.24587079 L36.7419825,8.24587079 L36.7419825,8.24587079 L4.60023518,8.24587079 L4.60023518,8.24587079 L2.6954503,8.24587079 L2.6954503,20.4752248 L4.59424529,20.4752248 L36.7359926,20.4752248 L36.7359926,20.4752248 L38.6347876,20.4752248 L38.6347876,20.0993101 L38.6347876,8.62178549 L38.6407775,8.62178549 Z" id="Shape"></path>
            <g id="Group" transform="translate(0.000000, -0.000000)">
                <path d="M14.4476136,21.1967384 L13.9684224,21.3665064 C14.0582708,21.6272214 14.1002,21.9000627 14.1002,22.172904 C14.1002,23.5371106 13.0040502,24.6527284 11.6503352,24.6527284 C11.4227194,24.6527284 11.2010935,24.6224127 10.9854574,24.5617813 C10.1528628,24.2828769 9.16453102,23.8645202 8.21213858,23.4643529 C7.28969559,23.0763119 6.4211616,22.7125235 5.76826364,22.5003136 C4.97759822,22.2456617 4.42652838,22.3244825 4.0731249,22.7549655 C3.98327655,22.864102 3.99525633,23.0278068 4.10906423,23.1187539 C4.21688225,23.209701 4.37860926,23.1915116 4.46845761,23.0823751 C4.5882554,22.9368597 4.79790153,22.7974075 5.31902192,22.9126072 C5.30704214,23.5249843 4.8158712,24.0160987 4.21089236,24.0160987 C3.59992362,24.0160987 3.10276279,23.512858 3.10276279,22.8944177 C3.10276279,22.2759774 3.59992362,21.7727368 4.21089236,21.7727368 L4.21089236,21.7727368 C4.21089236,21.7727368 4.21688225,21.7727368 4.22287214,21.7727368 C5.09140612,21.7484842 6.33131326,22.1425883 7.63710918,22.5730713 C9.03874334,23.03387 10.4823067,23.5067949 11.6862745,23.5067949 L11.6862745,23.5067949 L11.6862745,23.5067949 L11.6862745,23.5067949 C11.6862745,23.5067949 11.6922644,23.5067949 11.6922644,23.5067949 C12.2373444,23.5067949 12.7764344,23.2218273 13.0759289,22.7125235 C13.3035447,22.3244825 13.3694335,21.8576207 13.2436458,21.4210746 L12.8602929,21.5302112 L12.3032331,21.263433 L10.7039326,21.2694961 L10.2966201,21.0209074 C10.248701,21.0997282 10.2127617,21.1846122 10.1768224,21.2694961 L5.91202099,21.2816224 L6.33131326,21.6150951 C5.54663773,21.3846958 4.82186109,21.2270542 4.21089236,21.2573699 L4.21089236,21.2573699 C4.21089236,21.2573699 4.20490247,21.2573699 4.20490247,21.2573699 L4.20490247,21.2573699 C4.20490247,21.2573699 4.20490247,21.2573699 4.20490247,21.2573699 C3.31839881,21.263433 2.59961207,21.997073 2.59961207,22.8944177 C2.59961207,23.7978256 3.3243887,24.5314656 4.21688225,24.5314656 C5.04947689,24.5314656 5.7323243,23.8827096 5.81618276,23.0641857 C6.42715149,23.2763956 7.20583713,23.597742 8.026452,23.943341 C8.99082422,24.3495714 9.99113577,24.7679281 10.8417001,25.0528957 C10.84769,25.0528957 10.84769,25.0528957 10.8536799,25.0528957 L10.8536799,25.0528957 C11.117235,25.1256534 11.38678,25.1680953 11.662315,25.1680953 C13.2915649,25.1680953 14.6213204,23.8220782 14.6213204,22.172904 C14.6093406,21.8394313 14.5554316,21.5120217 14.4476136,21.1967384" id="Path"></path>
                <path d="M37.1552849,21.2513067 L37.1552849,21.2513067 L37.1552849,21.2513067 C37.149295,21.2513067 37.1433051,21.2513067 37.1433051,21.2513067 L37.1433051,21.2513067 C36.5383263,21.2270542 35.8135496,21.3846958 35.0228842,21.6150951 L35.4421765,21.2816224 L31.1773751,21.2694961 C31.1414358,21.1846122 31.1054964,21.0997282 31.0635672,21.0209074 L30.6622446,21.2694961 L29.0569542,21.263433 L28.4998945,21.5302112 L28.1165416,21.4210746 C27.9967438,21.8576207 28.0566427,22.3244825 28.2842585,22.7125235 C28.5837529,23.2218273 29.122843,23.5007318 29.667923,23.5067949 C29.667923,23.5067949 29.6739128,23.5067949 29.6739128,23.5067949 L29.6739128,23.5067949 L29.6739128,23.5067949 L29.6739128,23.5067949 C30.8718908,23.5067949 32.321444,23.03387 33.7230782,22.5730713 C35.0288741,22.1425883 36.2568015,21.7363579 37.1373152,21.7727368 C37.1433051,21.7727368 37.1433051,21.7727368 37.149295,21.7727368 L37.149295,21.7727368 C37.7602637,21.7727368 38.2574246,22.2759774 38.2574246,22.8944177 C38.2574246,23.512858 37.7602637,24.0160987 37.149295,24.0160987 C36.5443162,24.0160987 36.0531452,23.5249843 36.0411654,22.9126072 C36.5742656,22.7974075 36.7839117,22.948986 36.8917298,23.0823751 C36.9815781,23.1915116 37.1433051,23.209701 37.2511231,23.1187539 C37.3589411,23.0278068 37.3709209,22.864102 37.2870625,22.7549655 C36.933659,22.3244825 36.3825891,22.2456617 35.5919237,22.5003136 C34.9330359,22.7125235 34.0645019,23.0823751 33.1420589,23.4643529 C32.1896665,23.8645202 31.2013347,24.2828769 30.36874,24.5617813 C30.153104,24.6224127 29.9314781,24.6527284 29.7098522,24.6527284 C28.362127,24.6527284 27.2599874,23.5431737 27.2599874,22.172904 C27.2599874,21.8939996 27.3079065,21.6211583 27.3917649,21.3665064 L26.9125738,21.1967384 C26.8047558,21.5120217 26.7508467,21.8394313 26.7508467,22.172904 C26.7508467,23.8220782 28.0806022,25.1680953 29.7098522,25.1680953 C29.9853871,25.1680953 30.2549321,25.1317165 30.5184873,25.0528957 L30.5184873,25.0528957 C30.5244772,25.0528957 30.5244772,25.0528957 30.5304671,25.0528957 C31.3810314,24.7679281 32.3813429,24.3435083 33.3457151,23.943341 C34.16633,23.597742 34.9450157,23.2763956 35.5559844,23.0641857 C35.6398428,23.8887727 36.3226903,24.5314656 37.1612748,24.5314656 C38.0537683,24.5314656 38.778545,23.7978256 38.778545,22.8944177 C38.7605753,21.9910098 38.0417886,21.2573699 37.1552849,21.2513067" id="Path"></path>
                <path d="M39.0540799,20.9299603 L2.22224902,20.9299603 L2.22224902,7.79719841 L39.0540799,7.79719841 L39.0540799,20.9299603 Z M17.8319012,4.83232281 L23.5103165,4.83232281 C23.426458,5.20217437 23.4084884,5.58415221 23.4683873,5.96613004 C23.5222963,6.3359816 23.6540738,6.68764374 23.8337705,6.99686389 L17.5084472,6.99686389 C17.6881439,6.68764374 17.8139315,6.3359816 17.8738304,5.96613004 C17.9337293,5.58415221 17.9097698,5.19611123 17.8319012,4.83232281 M17.2508819,5.86305666 C17.35271,5.26280577 17.2389021,4.65649174 16.9633672,4.12899854 L24.3728606,4.12899854 C24.0913358,4.65649174 23.9835178,5.26280577 24.079356,5.86305666 C24.1512347,6.28141334 24.3189516,6.66945432 24.5525573,7.00292703 L24.1931639,7.00292703 C23.9775279,6.68764374 23.8277806,6.31172904 23.7678817,5.91156178 C23.6960031,5.42651056 23.7499121,4.93539619 23.9236189,4.49278695 L23.5881851,4.49278695 L17.4006292,4.49278695 C17.5743359,4.93539619 17.6342348,5.42044742 17.5563663,5.91156178 C17.4964674,6.31172904 17.3467201,6.68764374 17.1310841,7.00292703 L16.7716907,7.00292703 C17.0172762,6.66339118 17.1849931,6.2753502 17.2508819,5.86305666 M18.4009407,1.84319465 L22.9352871,1.84319465 C23.3246299,2.43131926 23.8996593,2.91030734 24.4327595,3.29228518 L23.9355987,3.29228518 L22.7735601,2.21304621 L18.5506879,2.21304621 L17.3886494,3.29228518 L16.9034683,3.29228518 C17.4365685,2.91030734 18.0115979,2.43131926 18.4009407,1.84319465 M41.1565311,5.59021535 C39.1379383,3.63788417 37.0294972,2.23729877 34.71141,1.32176458 C33.0881499,0.679071712 31.3690516,0.272841313 29.392388,0.0545682626 C29.2186812,0.0363788417 29.0509643,0.0181894209 28.8712676,-9.42401313e-16 L28.5897428,0.448672381 L27.9667943,1.44302739 L28.362127,1.69767928 L29.1108632,0.503240644 C32.5730194,0.8427765 36.5503061,1.89169977 40.6294208,5.75392013 L40.6533804,5.77817269 L40.6294208,5.80242526 C40.4856635,5.94794062 40.3299264,6.09345599 40.1741892,6.2450345 C39.8866745,6.52393895 39.5871801,6.80890654 39.3116451,7.09993728 L39.2936755,7.1181267 L39.2697159,7.09993728 C36.3406599,4.58373406 34.3999357,3.38929542 30.2249827,2.66778173 L30.2249827,3.14070667 C33.950694,3.80158896 35.6937518,4.71712314 38.4431112,7.00899017 L25.2234249,7.00899017 C24.8879911,6.6815806 24.6603753,6.25716078 24.5825067,5.78423584 C24.4866685,5.20217437 24.6184461,4.6201129 24.9538799,4.13506168 L24.9538799,4.13506168 L24.9538799,3.01338072 L24.840072,2.9345599 C24.2650426,2.54045578 23.6361042,2.01296258 23.3006704,1.44909053 L23.2228018,1.31570144 L18.0954563,1.31570144 L18.0175878,1.44909053 C17.682154,2.01902572 17.0592054,2.54045578 16.4781862,2.9345599 L16.3643783,3.01338072 L16.3643783,4.12899854 L16.3643783,4.12899854 C16.6998121,4.60798662 16.8315896,5.19611123 16.7357514,5.77817269 C16.6578828,6.25109764 16.430267,6.67551746 16.0948332,7.00292703 L2.87514699,7.00292703 C5.65445574,4.6807443 7.40949338,3.77127326 11.2370328,3.11039097 L11.2370328,2.62533974 C6.96025166,3.34685344 5.00754767,4.54129208 2.04854223,7.087811 L2.02458267,7.10600042 L2.006613,7.087811 C1.72508819,6.79678026 1.4315836,6.51181267 1.1440689,6.23290822 C0.988331776,6.08132971 0.838584537,5.93581434 0.688837299,5.79029898 L0.66487774,5.76604641 L0.688837299,5.74179385 C4.77394197,1.87957349 8.74523875,0.83065022 12.2073949,0.491114363 L12.9561311,1.685553 L13.3514638,1.43090111 L12.7345052,0.436546101 L12.4589703,-9.42401313e-16 C12.2852635,0.0181894209 12.1115567,0.0363788417 11.9378499,0.0545682626 C9.96118633,0.272841313 8.24208803,0.679071712 6.61882796,1.32176458 C4.3007407,2.23729877 2.19229958,3.63788417 0.173706797,5.59021535 L-1.52952606e-15,5.75998327 L0.167716907,5.9297512 C0.377363042,6.14196111 0.604978845,6.3662973 0.826604758,6.57850721 C1.02427111,6.7725277 1.22792736,6.97261133 1.42559371,7.16663182 L1.42559371,21.7302948 L39.8447453,21.7302948 L39.8447453,7.22726322 C40.0603813,7.00899017 40.2820072,6.79071712 40.4976433,6.57850721 C40.7192692,6.3662973 40.946885,6.14196111 41.1565311,5.9297512 L41.324248,5.75998327 L41.1565311,5.59021535 Z" id="Shape"></path>
            </g>
            <g id="Group" transform="translate(148.743844, 11.374451)">
                <path d="M8.93999857,3.48630567 C8.81421089,4.01379887 8.18527248,4.67468116 7.30475872,5.29312147 C6.75967877,5.66297303 5.69347843,6.22078194 4.19600604,6.35417102 C4.7350961,5.75392013 5.3101255,5.21430065 6.29246739,4.46853439 C7.75400044,3.35897972 8.48476696,3.06188585 8.66446365,3.06188585 L8.66446365,3.06188585 C8.78426144,3.06188585 8.85614011,3.11645411 8.89207945,3.16495923 C8.95197835,3.23771691 8.96994802,3.35897972 8.93999857,3.48630567 M9.65279543,2.86786536 C9.49106841,2.65565545 9.19756382,2.54045578 8.82020078,2.54045578 C7.77197011,2.54651892 5.81926611,3.31653774 4.1061577,4.77775455 C2.9021899,5.8084884 2.23132227,6.53606523 1.82400978,7.1484424 L1.81801989,7.14237926 C1.81801989,7.14237926 0.997405021,8.38532302 0.260648606,9.02801589 C-0.260471785,9.48275141 0.0749620296,9.72527702 0.6080622,9.30692034 C0.769789218,9.1795944 0.997405021,8.99770019 1.2370006,8.8036797 C1.23101071,9.15534184 1.31486917,9.46456199 1.50654563,9.71315074 C1.80005022,10.1011917 2.30320094,10.3255279 2.88422023,10.3255279 L2.89021012,10.3255279 C3.46523952,10.3255279 4.07620825,10.1800125 4.93276246,9.81016099 C4.93276246,9.81016099 4.93276246,9.81016099 4.93276246,9.81016099 C7.8917679,8.54296467 8.79025133,7.5546728 8.5207063,7.27576835 C8.48476696,7.20301066 7.77796,7.92452436 6.68181021,8.54296467 C6.29845728,8.73092202 5.9390639,8.90068994 5.5976402,9.04620531 C5.55571097,9.05833159 5.51378174,9.08258415 5.47185252,9.09471043 L5.47185252,9.09471043 C4.42362185,9.53125653 3.59701709,9.74346644 3.10584614,9.74346644 C2.87823034,9.74346644 2.69254376,9.65251934 2.56675608,9.49487769 C2.4409684,9.32510976 2.39903918,9.08864729 2.45294818,8.85824796 C2.53081675,8.52477525 2.70452354,8.19736567 3.03396747,7.77900899 L3.05193714,7.75475643 L3.08188659,7.74869329 C5.99297291,6.96048505 9.32934139,5.29918461 9.75462355,3.51662137 C9.81452244,3.26196948 9.77858311,3.03763328 9.65279543,2.86786536" id="Shape"></path>
                <path d="M56.6195194,0 C56.1702777,0 55.7150461,0.369851558 55.6072281,0.824587079 C55.4994101,1.2793226 55.7689551,1.64917416 56.2181968,1.64917416 C56.6674385,1.64917416 57.1226701,1.2793226 57.2304881,0.824587079 C57.344296,0.363788417 57.0687611,0 56.6195194,0" id="Path"></path>
            </g>
            <g id="Group" transform="translate(45.184465, 2.764805)">
                <path d="M159.801535,11.2046707 L158.082437,11.2046707 L153.673878,16.0854986 C152.272244,17.5163997 152.793364,18.9473008 154.147079,18.9473008 C154.290837,18.9473008 154.590331,18.9715534 155.135411,18.7835961 C155.135411,18.7835961 155.135411,18.7835961 155.135411,18.7835961 C155.159371,18.7775329 155.17734,18.7714698 155.19531,18.7593435 C155.255209,18.7350909 155.327088,18.7108384 155.392977,18.6805227 C157.90274,17.6801045 159.328334,16.188572 159.070769,15.9157307 C159.01686,15.8187205 157.90274,17.1768639 155.806279,18.0499561 C155.255209,18.2318503 154.787998,18.2803554 154.614291,18.2803554 C153.847585,18.2803554 153.991342,17.5042735 154.799977,16.7100021 L159.801535,11.2046707 Z" id="Path"></path>
                <path d="M69.0307489,8.49444699 C69.0487186,8.45806815 69.0786681,8.4216893 69.1205973,8.36712104 C69.2344052,8.23373196 69.3601929,8.09427973 69.4919704,7.94876436 C70.4743123,6.89984109 71.9118858,5.63870791 71.9118858,5.63870791 L71.9118858,5.63870791 C73.5051964,4.1774911 75.48186,2.60713777 76.6798379,1.91593978 C79.548995,0.254639336 83.5742008,0.0303031454 80.5013874,2.92242106 C79.5549849,3.81370269 77.9317248,5.16578297 76.1167883,6.1783274 C75.1164767,6.7361363 73.1218435,7.59103909 70.9594934,8.23373196 C70.4743123,8.36712104 69.731566,8.51869955 69.0307489,8.49444699 C69.0247591,8.49444699 69.0307489,8.49444699 69.0307489,8.49444699 M67.9106396,9.68888562 C67.9286093,9.68282248 67.9465789,9.67675934 67.9705385,9.6706962 C70.2706561,9.0825716 71.0373619,8.77335144 73.1398132,8.06396403 C79.2974196,5.97218063 84.1073009,1.11560526 81.6274867,0.284955037 C77.8358866,-0.982241283 72.0556432,4.18961738 67.9825183,7.56678652 L67.9765284,7.56678652 C67.5811957,7.91844866 67.0361157,8.38531046 66.4491065,8.94311937 C66.4491065,8.94311937 66.4431167,8.94311937 66.4431167,8.94311937 C65.6764108,9.76164331 58.0333117,8.50051013 58.0333117,5.08696215 C58.0333117,2.87391594 61.6032859,0.939774189 66.0118446,0.569922631 C70.276646,0.212197354 73.7687516,1.46120425 73.7687516,1.29749947 C73.7687516,1.03072129 71.6962498,0.103060829 67.2218023,0.103060829 C62.1124265,0.0969976886 57.4582823,2.61320091 57.4582823,5.00814132 C57.4582823,8.93099309 63.4481719,9.66463306 65.5925523,9.79802215 C64.5922408,10.8469454 63.5739596,12.1323312 62.9270515,13.6420531 C61.6991241,16.4856659 62.3340524,18.1166506 64.0531507,18.826038 C68.3658712,20.5661593 78.4588351,10.2406314 72.6486422,10.3255154 C71.5944217,10.3437048 70.168828,11.0773448 68.8390725,12.0595735 C67.8806901,12.775024 67.4314484,13.5632323 67.4494181,13.9997784 C67.4673878,14.3878193 67.940589,13.6663057 69.2164355,12.5749404 C70.7797967,11.2774284 72.6546321,10.1557474 73.6968729,11.1501024 C74.6013462,12.0110684 71.576452,15.2305958 70.0669998,16.3340874 C66.1016929,19.2080159 61.7769927,19.2201422 63.3942629,15.2427221 C63.9213732,13.9209575 66.1735716,11.43507 67.9106396,9.68888562" id="Shape"></path>
                <path d="M105.395368,12.0777629 C105.736792,10.6832406 103.430685,11.5805854 103.604391,11.0106502 C103.957795,10.052674 103.496573,9.84046413 102.939514,9.94353752 C102.340525,10.0829897 101.466001,11.1501024 101.783465,11.9322475 C100.561528,13.5268534 97.985875,16.8070123 95.3083944,17.959009 L94.6914358,18.7775329 C98.5728842,17.4921472 101.681637,13.1084967 102.382454,12.2899728 C102.801746,11.8291741 105.047955,11.5078277 104.20338,12.1808363 C103.885916,12.429425 101.076658,14.5151453 100.591477,16.7403178 C100.531578,16.9585908 100.501629,17.1708007 100.513608,17.3769475 C100.513608,17.3769475 100.513608,17.3830107 100.513608,17.3830107 L100.513608,17.3830107 C100.555538,18.2561029 101.202446,18.9169851 102.04103,18.9169851 C102.274636,18.9169851 103.508553,19.0079322 104.79039,17.4193895 L103.820027,17.6376625 C103.11322,18.2075977 102.550171,18.2561029 102.298596,18.262166 C101.603768,18.2682291 101.651687,17.4133264 102.07697,16.6918127 C102.717888,15.3821744 105.29953,12.4658039 105.395368,12.0777629" id="Path"></path>
                <path d="M94.2302143,15.2730378 C92.0079653,17.655852 89.9234837,18.4743759 89.5640903,18.1469663 C89.0250003,17.655852 90.4565839,16.0551829 91.8941574,14.6364081 C92.6668531,13.854263 95.3503236,11.3562492 96.3446453,11.9261844 C96.8957151,12.3324148 96.308706,13.0418022 94.2302143,15.2730378 M97.3150074,11.9686264 C95.440172,8.87642483 89.0789093,16.0066778 87.3837705,17.0374117 C87.5095582,17.1041062 87.4436694,17.570968 87.5574773,17.6376625 C88.0606281,17.2920635 88.3601225,17.0798536 88.4739304,17.0919799 C88.5577889,17.0980431 88.5398192,17.2071796 88.5098698,17.4436421 C88.1983955,19.6991302 90.8998357,18.8321012 91.8522281,18.1530295 C92.3254294,17.8134936 92.7746711,17.5224629 92.8824891,17.5224629 C93.1819836,17.5224629 92.8705094,18.9048589 94.0205682,18.9048589 C94.6495066,18.9048589 95.5120507,18.4501233 96.0271812,18.1105875 C96.1349992,18.0378298 96.1110396,18.0075141 96.0691104,17.9408196 C95.871444,17.6073468 95.7037271,17.874125 95.0328595,18.0499561 C91.6306022,18.86848 98.7885202,12.90235 99.6271048,11.7261008 C100.052387,11.1197867 98.8244596,10.7984403 97.3150074,11.9686264" id="Shape"></path>
                <path d="M88.0306786,17.310253 C88.0845876,17.0495379 87.683265,17.0374117 87.3897604,17.0374117 C85.6467026,18.1833452 84.4666943,18.3106711 83.8377559,18.0863349 C85.9222375,17.0374117 87.9348404,15.0365754 86.9824479,12.8235292 C86.8327007,12.4839933 86.5212264,12.4354882 86.8866097,11.7624796 C87.0363569,11.4835752 87.1501648,11.2653021 87.2280334,11.089471 C87.2280334,11.089471 87.2280334,11.089471 87.2280334,11.089471 C87.2280334,11.0834079 87.2280334,11.0834079 87.2280334,11.0834079 C87.3118919,10.8893874 87.3538211,10.7559983 87.3658009,10.6711144 C87.5095582,10.0890529 87.1681345,9.93747438 86.6949332,10.0223583 C86.0899544,10.1618106 85.2573597,11.2410495 85.4370564,12.0171315 C84.0833414,12.9751077 83.0530804,13.7572528 81.0824067,15.0668911 C81.0824067,15.0668911 81.0824067,15.0668911 81.0824067,15.0668911 L81.0764168,15.0668911 C80.7050437,15.279101 78.9859454,16.4129082 77.3147662,17.2860004 C77.5483719,17.3284424 77.6621798,17.4557683 77.8538563,17.5891574 C79.4831062,16.7281915 81.1842348,15.6610788 81.717335,15.3094167 C83.6400896,14.1392306 86.0420353,11.8352373 86.0360454,12.3263517 C86.0180757,14.6606607 84.4966438,16.8979594 82.4960207,17.7953042 C80.6810841,18.607765 80.6511347,17.0010328 81.3279922,17.2132427 C82.2684049,17.5103366 83.1968377,16.4007819 82.7296263,16.1158143 C81.717335,15.497374 79.548995,17.7771148 80.2917413,18.5895756 L80.2857514,18.5956387 C80.2917413,18.6017018 80.309711,18.607765 80.3216907,18.6198913 C80.3456503,18.6380807 80.3576301,18.6623333 80.3815896,18.6805227 C80.4834178,18.7532804 80.6211852,18.8017855 80.7709325,18.8321012 C82.4001824,19.256521 86.7308726,18.4501233 88.0306786,17.310253" id="Path"></path>
                <path d="M79.8245299,12.0959523 C79.6987422,12.6234455 79.0698038,13.2843278 78.1892901,13.9027681 C77.6442101,14.2726197 76.5780098,14.8304286 75.0805374,14.9638177 C75.6196274,14.3635668 76.1946568,13.8239473 77.1769987,13.078181 C78.6385318,11.9686264 79.3692983,11.6715325 79.548995,11.6715325 L79.548995,11.6715325 C79.6747827,11.6715325 79.7406715,11.7261008 79.7766108,11.7746059 C79.8365097,11.8473636 79.8544794,11.9686264 79.8245299,12.0959523 M80.5373268,11.477512 C80.3755998,11.2653021 80.0820952,11.1501024 79.7047321,11.1501024 C78.6565015,11.1561656 76.7037975,11.9261844 74.990689,13.3874012 C72.930167,15.151775 72.3970669,16.0309304 72.1814308,16.9525277 C72.0496533,17.4982103 72.1215319,17.9771984 72.391077,18.3349237 C72.6845816,18.7229647 73.1877323,18.9473008 73.7687516,18.9473008 L73.7747415,18.9473008 C75.0445981,18.9412377 77.3507055,18.0863349 79.5909242,16.5462973 C79.4052376,16.4553502 79.7167119,16.14613 79.5549849,16.0188041 C77.488473,17.4072632 74.990689,18.3652394 73.9903775,18.3713025 C73.7627617,18.3713025 73.5770751,18.2803554 73.4512874,18.1227138 C73.3254998,17.9529458 73.2835705,17.7164834 73.3374795,17.486084 C73.4153481,17.1526113 73.5890549,16.8252017 73.9184988,16.4068451 L73.9364685,16.3825925 L73.9664179,16.3765294 C76.8775043,15.5883211 80.2138727,13.9270207 80.6391549,12.1444574 C80.6990538,11.8716161 80.6631145,11.6472799 80.5373268,11.477512" id="Shape"></path>
                <path d="M158.136346,9.13107672 L156.2675,9.13107672 L159.118688,5.99037005 L157.36964,5.99037005 L154.530432,9.13107672 L152.619658,9.13107672 C152.457931,9.13107672 152.326153,9.2644658 152.326153,9.43423373 C152.326153,9.59793852 152.457931,9.73132761 152.619658,9.73132761 L153.991342,9.73132761 L148.253028,16.0854986 C148.15719,16.188572 148.067342,16.2855823 147.989473,16.3886556 C147.09099,17.2011164 146.198496,17.9832615 145.581537,18.2015346 C145.491689,18.4198076 145.347932,18.5895756 145.311992,18.8078486 C145.821133,18.7290278 147.001141,17.7467991 147.474343,17.3648212 C147.252717,18.262166 147.791807,18.9412377 148.726229,18.9412377 C149.301259,18.9412377 150.433348,19.1595108 153.260576,17.267811 L152.937122,17.3163161 C153.769716,16.7281915 155.375007,15.4913109 156.435217,14.8122392 C156.85451,14.5636504 157.681114,13.4055906 156.30943,14.2968722 C155.716431,14.6970395 155.147391,15.2669747 154.374695,15.7277734 C153.416313,16.3219611 152.350113,17.0495379 151.4097,17.5891574 C151.39173,17.6012837 151.373761,17.6073468 151.361781,17.6194731 C151.206044,17.7104202 151.056296,17.7892411 150.906549,17.8619987 C149.978116,18.3106711 149.421057,18.2985448 149.193441,18.2985448 C148.426735,18.2985448 148.570492,17.5224629 149.379127,16.7281915 L155.72242,9.74345389 L158.136346,9.74345389 C158.298073,9.74345389 158.429851,9.6100648 158.429851,9.44636001 C158.429851,9.2644658 158.298073,9.13107672 158.136346,9.13107672" id="Path"></path>
                <path d="M132.4517,18.1954714 C132.200124,18.1954714 131.954539,18.001451 131.996468,17.6497888 C132.062357,17.140485 133.128557,15.7277734 134.236687,14.6849132 C135.824007,13.2115701 137.620974,12.0171315 138.243923,12.0171315 C138.435599,12.0171315 138.573367,12.1323312 138.615296,12.3081622 C138.501488,12.3809199 136.069593,13.9755258 136.836299,15.3761112 C136.692541,15.5276897 136.542794,15.6853314 136.387057,15.8369099 C134.949483,17.2314321 133.332213,18.1954714 132.4517,18.1954714 M141.268817,13.6117374 L140.520081,13.551106 C140.520081,13.551106 139.963021,14.0785992 139.184335,14.5090822 C138.93875,14.5939661 138.747073,14.5636504 138.603316,14.4908927 C139.142406,13.7087476 139.423931,13.0599916 139.507789,12.429425 C139.603628,11.6715325 139.130426,11.1622287 138.333771,11.1622287 C136.896198,11.1622287 135.254968,11.907995 133.452011,13.3752749 C131.36154,15.0790173 130.79849,16.4007819 130.696662,17.2071796 C130.552905,18.3531131 131.35555,18.953364 132.224084,18.953364 C133.541859,18.953364 135.488574,17.8013673 137.561075,15.7944679 L137.603005,15.7459628 C138.92078,15.6428894 141.268817,13.6117374 141.268817,13.6117374" id="Shape"></path>
                <path d="M145.407831,12.253594 C144.509347,12.8659711 145.599507,11.1682919 144.161934,11.1682919 C143.461117,11.1682919 142.035523,12.2475308 140.520081,13.5450428 C140.645868,13.6117374 140.963333,13.6784319 141.071151,13.7754422 C142.317048,12.7022663 143.395228,11.8958687 143.862439,12.0050052 C144.137974,12.0656366 143.83848,12.514309 143.26345,13.1509387 L137.638944,18.8078486 L139.340073,18.8078486 L144.515337,13.7208739 L144.515337,13.7208739 C144.8927,13.4177169 145.228134,13.1873176 145.545598,12.9629814 C146.917283,11.9686264 147.61211,11.9807527 147.683989,12.0050052 C147.995463,12.1080786 147.462363,12.6719506 146.815455,13.2661384 L144.036146,16.0551829 C142.634512,17.486084 143.155632,18.910922 144.509347,18.9169851 C144.760923,18.9169851 145.749254,19.0079322 147.941554,17.3223792 L146.977182,17.2738741 C145.815143,18.0863349 145.252094,18.2682291 144.976559,18.2682291 C144.209853,18.2682291 144.35361,17.4921472 145.162245,16.6978758 L148.15719,13.7208739 L148.1512,13.7208739 C148.1512,13.7208739 148.1512,13.7208739 148.15719,13.7208739 C151.158125,10.440715 147.522262,10.8166297 145.407831,12.253594" id="Path"></path>
                <path d="M134.386434,8.76122516 C134.170798,8.7672883 133.943182,8.7672883 133.715566,8.76122516 C134.793746,7.40308174 135.925835,6.00855947 137.039955,4.79593141 C137.620974,4.15323854 138.699154,3.26802006 139.986981,2.48587496 C142.077452,5.03239388 137.339449,8.67027806 134.386434,8.76122516 M142.74233,0.685122297 C141.975624,0.927647908 141.208918,1.2429312 140.442212,1.60671962 C138.621286,-0.0606439589 135.602381,-0.181906765 133.044699,0.145502811 C126.060487,1.10347898 116.656361,8.10034287 121.04695,10.871198 C122.855896,11.9868158 125.413579,10.6529249 127.773596,9.143203 C129.504674,8.02152205 130.457066,6.62093664 130.27138,6.33596905 C130.205491,6.21470624 129.307008,7.30000835 127.372273,8.60964665 C125.641195,9.81621157 122.64026,11.6230274 120.939132,10.0890529 C118.555156,7.96089064 125.323731,2.24334935 131.954539,0.818511383 C134.805726,0.218260494 137.890519,0.727564279 139.555709,2.06145514 C137.351429,3.23770436 135.213039,4.83837339 133.392112,6.60881036 C132.787133,7.19693497 132.146215,7.8941961 131.475348,8.6460255 C131.145904,8.61570979 130.81047,8.57933095 130.451076,8.53688897 C130.451076,8.53688897 130.199501,8.53082583 130.091683,8.6460255 C129.977875,8.76122516 130.067723,8.89461425 130.193511,8.91886681 C130.504985,8.97949821 130.80448,9.02194019 131.109964,9.06438218 C128.65411,11.8716161 125.964649,15.2912273 123.999965,16.7645703 L125.108095,17.0859168 C126.096427,16.4735396 127.725677,15.5701317 129.390866,13.9573364 C130.463056,12.8962868 131.834741,11.131913 133.320234,9.25233952 C133.613738,9.25840266 133.907243,9.25840266 134.188768,9.25233952 C134.188768,9.25840266 134.188768,9.25840266 134.188768,9.25840266 C138.759053,9.25840266 141.484453,6.73007316 141.765978,5.03845702 C141.963644,3.83795525 141.550342,2.79509512 140.837545,1.9947606 C141.436534,1.67341416 142.071462,1.38844657 142.71238,1.16411038 C142.784259,1.13985782 143.137729,0.96402675 143.137729,0.745753699 C143.143652,0.55779635 142.74233,0.685122297 142.74233,0.685122297" id="Shape"></path>
                <path d="M52.4687043,15.2730378 C50.2464553,17.655852 48.1619737,18.4743759 47.8025804,18.1469663 C47.2634903,17.655852 48.6950739,16.0551829 50.1326474,14.6364081 C50.9053432,13.854263 53.5888137,11.3562492 54.5771454,11.9261844 C55.1401951,12.3324148 54.547196,13.0418022 52.4687043,15.2730378 M21.518945,18.1469663 C20.9798549,17.655852 22.4114385,16.0551829 23.849012,14.6364081 C24.6217078,13.854263 27.3051783,11.3562492 28.2995,11.9261844 C28.8565597,12.3324148 28.2695505,13.0418022 26.1910589,15.2730378 C23.9628199,17.655852 21.8783384,18.4743759 21.518945,18.1469663 M18.2005462,8.95524565 C19.3266454,7.53647082 20.5126436,6.06919087 21.680672,4.79593141 C22.1418935,4.28662763 22.9085994,3.63180848 23.849012,2.98911561 C25.4483126,5.58413965 20.9319358,9.07650846 19.3925342,9.40391803 C19.134969,9.2038344 18.6797374,9.05831903 18.2005462,8.95524565 M55.5594873,11.9686264 C53.6846519,8.87642483 47.3233892,16.0066778 45.6282505,17.0374117 L45.6282505,17.0374117 C45.3527155,17.2193059 45.0352514,17.4133264 44.7477367,17.5830943 C44.7477367,17.5830943 44.7477367,17.5830943 44.7477367,17.5830943 C43.8732128,18.1287769 42.7590934,18.4076814 42.1780741,18.4076814 C41.1717726,18.4076814 41.4053783,17.6194731 41.4473075,17.4739578 C41.7587818,16.4614133 43.2203149,14.6909764 44.7776861,13.4419695 C45.9517045,12.4900564 46.9580059,11.9443738 47.551005,11.9443738 C47.5869443,11.9443738 47.6168938,11.9443738 47.6348635,11.950437 C47.2575004,12.1020155 47.0119149,12.3384779 46.9160767,12.6598244 C46.7723194,13.120623 47.0837936,13.1751913 47.335369,13.1751913 C47.9044085,13.1751913 48.4854278,12.7265189 48.6591346,12.1565837 C48.8208616,11.6169642 48.4135491,11.1622287 47.766641,11.1622287 C46.5566833,11.1622287 44.675858,11.9868158 42.9807193,13.2661384 C42.453609,13.6663057 41.9684279,14.1271043 41.5551256,14.6060924 C41.5551256,14.6000293 41.5611154,14.5939661 41.5611154,14.5939661 C40.9261872,15.2669747 40.5368443,16.0551829 40.1115622,16.6311813 C38.7818067,17.9286933 37.2903242,18.2561029 37.0207792,18.2561029 C36.2540733,18.2561029 36.4038205,17.4800209 37.2064657,16.6857495 L40.2014105,13.7087476 C43.1963553,10.4346519 39.5604923,10.8105666 37.4460613,12.2475308 C36.5475779,12.859908 37.6377378,11.1622287 36.2001643,11.1622287 C34.4031974,11.1622287 28.5390956,17.7164834 26.6582702,18.0984612 C24.1185571,18.4137445 30.7733244,12.8417186 31.5879493,11.7139745 C32.0072416,11.1076605 30.7793143,10.7923772 29.2698621,11.9625632 C27.4669053,8.84610912 21.033764,16.0006147 19.3386252,17.0313485 C17.0924166,18.5046916 16.5173872,18.2985448 16.2658119,17.8134936 C17.1762751,17.1950533 18.1286675,16.3947188 18.8474543,15.5580054 C18.9912116,15.3882375 19.1289791,15.2245327 19.2487769,15.0547648 C19.3386252,14.933502 19.4164938,14.8122392 19.4883724,14.6909764 C19.5183219,14.6424712 19.5542612,14.6000293 19.5782208,14.5515241 C19.5782208,14.5515241 19.5782208,14.5515241 19.5782208,14.545461 C19.6800489,14.3696299 19.7698973,14.199862 19.8537557,14.0300941 C19.8777153,13.9815889 19.8956849,13.939147 19.9196445,13.896705 C19.9795434,13.769379 20.0334524,13.6481162 20.0813715,13.5329166 C20.0993412,13.4904746 20.111321,13.4540957 20.1292906,13.4177169 C20.1772097,13.2843278 20.2251289,13.163065 20.2610682,13.0418022 C20.2670581,13.0236128 20.273048,13.0054234 20.2790379,12.9872339 C20.7282796,11.4714489 20.2550783,10.6165461 20.0454322,10.2103157 C22.441388,9.76164331 24.9451618,7.66985991 25.1607979,5.74784444 C25.3045552,4.42001671 25.0769394,3.35290402 24.5737887,2.51012752 C25.4303429,1.98263432 26.3767454,1.4975831 27.3471075,1.15804724 C27.4189862,1.13379468 27.7723897,0.95796361 27.7723897,0.739690559 C27.7723897,0.54567007 27.377057,0.672996016 27.377057,0.672996016 C26.3288263,1.00646873 25.2746058,1.47333053 24.232365,2.0250763 C22.7947915,0.266765617 19.9076647,-0.230411887 16.5952558,0.33346016 C16.583276,0.3395233 16.5772861,0.34558644 16.5712962,0.351649581 C16.5653063,0.34558644 16.5653063,0.3395233 16.5653063,0.33346016 C9.74881203,1.83105581 1.52469368,8.24585824 5.68167703,10.871198 C7.49062367,11.9868158 10.0483065,10.6529249 12.408323,9.143203 C14.1394011,8.02152205 15.0917935,6.62093664 14.9061069,6.33596905 C14.8402182,6.21470624 13.9417347,7.30000835 12.0070004,8.60964665 C10.2759223,9.81621157 7.27498765,11.6290905 5.57385901,10.0890529 C3.18988297,7.96089064 9.95845817,2.24334935 16.5892659,0.818511383 C16.6431749,0.806385102 16.691094,0.800321962 16.745003,0.788195681 C16.745003,0.788195681 16.745003,0.782132541 16.745003,0.782132541 C16.7629727,0.782132541 16.7749525,0.782132541 16.798912,0.788195681 C18.589889,0.55173321 20.057412,0.770006261 21.5668641,1.35206773 C22.4174284,1.6794773 23.0224073,2.06145514 23.4416996,2.47981182 C21.5069652,3.60755592 19.6441096,5.03845702 18.0328293,6.60881036 C15.714742,8.86429855 12.785686,12.7265189 10.3717605,15.194217 C8.48494534,17.0252854 6.19081764,18.5471336 3.78887193,18.4683128 C3.03414584,18.4501233 2.35728832,18.2985448 1.78225893,18.0923981 C1.78225893,18.0923981 -0.703545238,17.2132427 0.961644058,15.6065105 C4.90299138,15.497374 3.32765043,11.6654694 0.751997924,15.0426385 C-1.30852408,17.5588417 1.51870379,18.522881 1.51870379,18.522881 C2.38124788,18.8381643 3.33963021,19.0261217 4.06440685,18.995806 C5.87335349,18.953364 8.35915766,18.0135772 10.617346,16.5281079 C10.617346,16.534171 10.6233359,16.534171 10.6293258,16.5402342 C11.5817182,15.9521095 12.7976658,15.151775 14.0315831,13.9512732 C14.9240766,13.0660548 16.0322062,11.6836588 17.2421639,10.1618106 C17.775264,10.2345683 18.3802429,10.2770102 18.7815655,10.2891365 C19.3086758,10.6650512 19.188878,11.5078277 18.7336464,12.5021827 L18.7336464,12.5021827 C18.5779092,12.8477817 18.3802429,13.205507 18.158617,13.5753585 C18.1526271,13.5874848 18.1466372,13.5996111 18.1346574,13.6117374 C18.0747585,13.7148108 18.0088697,13.811821 17.9429809,13.9148944 C17.9250113,13.9452101 17.9070416,13.9694627 17.8890719,13.9997784 C16.9127199,15.4791846 15.5769746,16.9464646 14.6725012,17.5467154 C14.2172696,17.8680619 12.3184747,18.6259544 12.6359388,17.2981267 C12.6598984,17.2011164 12.7018276,17.1101693 12.731777,17.0192222 C13.169039,15.9521095 12.7796961,15.8793519 12.7796961,15.8793519 C11.9950206,16.6736232 11.5517688,17.5527786 12.1208083,18.3652394 C12.7138074,19.214079 14.0795022,18.9473008 15.0378845,18.5350073 C15.9842871,19.2807736 18.1226776,18.9412377 20.4647244,17.0495379 C20.4767042,17.1586745 20.4767042,17.310253 20.4647244,17.4436421 C20.2670581,19.7112565 22.8546904,18.8321012 23.8070828,18.1530295 C24.2802841,17.8134936 24.7295258,17.5224629 24.8373438,17.5224629 C25.1368383,17.5224629 24.825364,18.9048589 25.9754228,18.9048589 C26.6043612,18.9048589 27.4669053,18.4501233 27.9820358,18.1105875 L27.9820358,18.1105875 C30.0725073,16.8555174 34.7625908,11.7503533 35.9066597,12.0110684 C36.1881845,12.0716998 35.8827002,12.5203721 35.3076708,13.1570019 L29.6831645,18.8139118 L31.3842931,18.8139118 L36.5595577,13.7269371 L36.5595577,13.7269371 C36.9369207,13.42378 37.2723545,13.1933807 37.5898187,12.9690445 C38.9555135,11.9746895 39.6563306,11.9868158 39.7282092,12.0110684 C40.0396835,12.1141417 39.5065833,12.6780138 38.8596753,13.2722015 L36.0803665,16.0612461 C34.6787324,17.4921472 35.1998527,18.9169851 36.5535678,18.9230483 C36.7991533,18.9230483 38.3744942,18.9048589 40.2553195,17.6376625 C40.285269,17.7225465 40.3271982,17.8195568 40.3870971,17.9347564 L40.3870971,17.9286933 C40.7045612,18.5289442 41.3874087,18.9291114 42.0223369,18.9291114 C42.8189923,18.9291114 44.4542321,18.7047752 46.0834821,17.4193895 L46.0834821,17.4193895 C46.4548552,17.1222956 46.5986126,17.0980431 46.7124205,17.1041062 C46.7962789,17.1101693 46.7783093,17.2193059 46.7483598,17.4557683 C46.4368855,19.7112565 49.1383257,18.8442275 50.0907182,18.1651557 C50.5639194,17.8256199 51.0131612,17.5345892 51.1209792,17.5345892 C51.4204737,17.5345892 51.1089994,18.9169851 52.2590582,18.9169851 C52.8879966,18.9169851 53.7505407,18.4622496 54.2656712,18.1227138 C56.338173,16.7463809 57.1108687,16.188572 56.8473136,15.9096676 C56.715536,15.7762785 55.2839524,17.140485 53.8044497,17.8801882 C53.6726721,17.9347564 53.5049552,18.001451 53.2833293,18.0620824 C49.881072,18.8806063 57.0389901,12.9144763 57.8775746,11.738227 C58.290877,11.1197867 57.0629496,10.7984403 55.5594873,11.9686264 M127.480091,13.2964541 C126.881102,13.9815889 126.294093,14.6242818 125.737033,15.2002801 C123.856208,17.0313485 121.55609,18.5531967 119.154145,18.4743759 C118.399419,18.4561865 117.722561,18.304608 117.147532,18.0984612 C117.147532,18.0984612 114.661728,17.2193059 116.326917,15.6125737 C120.268264,15.5034372 118.692923,11.6715325 116.117271,15.0487016 C114.056749,17.5649049 116.883977,18.5289442 116.883977,18.5289442 C117.746521,18.8442275 118.704903,19.0321848 119.42968,19.0018691 C121.238626,18.9594271 123.72443,18.0196404 125.976629,16.534171 C125.982619,16.5402342 125.982619,16.5402342 125.988609,16.5462973 C126.941001,15.9581727 128.156949,15.1578382 129.390866,13.9573364 C129.408836,13.939147 129.426805,13.9209575 129.444775,13.9027681 L127.480091,13.2964541 Z" id="Shape"></path>
                <path d="M42.3038618,28.1329584 L42.561427,28.1329584 C43.3940217,28.1329584 44.298495,27.9753167 44.298495,26.9203303 C44.298495,25.8835333 43.3281329,25.7622705 42.5194978,25.7622705 L42.3038618,25.7622705 L42.3038618,28.1329584 Z M42.3038618,31.6495798 L41.4892368,31.6495798 L41.4892368,25.0225674 L42.4296494,25.0225674 C44.4422523,25.0225674 45.0711907,25.7258917 45.0711907,26.9385197 C45.0711907,28.333042 44.0229601,28.8726615 42.777063,28.8726615 L42.3098516,28.8726615 L42.3098516,31.6495798 L42.3038618,31.6495798 Z" id="Shape"></path>
                <path d="M47.2095813,28.1572109 L47.4671465,28.1572109 C48.2997412,28.1572109 49.2042145,27.9995693 49.2042145,26.9445829 C49.2042145,25.9077859 48.2338524,25.7562074 47.4252173,25.7562074 L47.2095813,25.7562074 L47.2095813,28.1572109 Z M50.4680812,31.6495798 L49.4797494,31.6495798 L47.551005,28.8484089 L47.2095813,28.8484089 L47.2095813,31.6495798 L46.3949563,31.6495798 L46.3949563,25.0225674 L47.3832881,25.0225674 C47.9643074,25.0225674 48.5872559,25.0346937 49.1143662,25.3317876 C49.6594461,25.6591971 49.9709204,26.2776375 49.9709204,26.9142672 C49.9709204,27.8661802 49.3479719,28.6543884 48.4015693,28.7695881 L50.4680812,31.6495798 Z" id="Shape"></path>
            </g>
            <rect id="Rectangle" x="96.8804736" y="27.7873719" width="1" height="6.62701234"></rect>
            <polygon id="Path" points="103.631079 27.7873719 101.690355 32.6924524 99.737651 27.7873719 98.8391675 27.7873719 101.690355 34.7660464 104.529563 27.7873719"></polygon>
            <path d="M107.254962,29.3152833 L106.092924,31.9951913 L108.417001,31.9951913 L107.254962,29.3152833 Z M105.75749,32.7530838 L105.008754,34.4143843 L104.13423,34.4143843 L107.260952,27.5084675 L110.387675,34.4143843 L109.513151,34.4143843 L108.764415,32.7530838 L105.75749,32.7530838 Z" id="Shape"></path>
            <polygon id="Path" points="112.609924 34.4143843 111.795299 34.4143843 111.795299 28.5392013 110.237927 28.5392013 110.237927 27.7873719 114.161305 27.7873719 114.161305 28.5392013 112.609924 28.5392013"></polygon>
            <polygon id="Path" points="115.413192 27.7873719 118.929257 27.7873719 118.929257 28.5392013 116.233807 28.5392013 116.233807 30.3945223 118.851389 30.3945223 118.851389 31.1524148 116.233807 31.1524148 116.233807 33.6564917 118.929257 33.6564917 118.929257 34.4143843 115.413192 34.4143843"></polygon>
            <path d="M124.415996,33.6746812 L125.038944,33.6746812 C125.793671,33.6746812 126.584336,33.4442818 126.584336,32.5044951 C126.584336,31.5707715 125.643923,31.3828141 124.919147,31.3828141 L124.415996,31.3828141 L124.415996,33.6746812 Z M124.415996,30.7219318 L124.625642,30.7219318 C125.398338,30.7219318 126.033266,30.5642902 126.033266,29.6123772 C126.033266,28.6786536 125.410318,28.5210119 124.643612,28.5210119 L124.415996,28.5210119 L124.415996,30.7219318 Z M123.595381,27.7873719 L124.392036,27.7873719 C125.625954,27.7873719 126.787992,28.1147815 126.787992,29.606314 C126.787992,30.0913653 126.524437,30.6552373 126.081185,30.8613841 L126.081185,30.8795735 C126.853881,31.0190257 127.392971,31.7829814 127.392971,32.5590633 C127.392971,33.8868911 126.272862,34.4143843 125.116813,34.4143843 L123.589391,34.4143843 L123.589391,27.7873719 L123.595381,27.7873719 Z" id="Shape"></path>
            <path d="M131.352288,29.3152833 L130.190249,31.9951913 L132.514327,31.9951913 L131.352288,29.3152833 Z M129.848826,32.7530838 L129.10009,34.4143843 L128.225566,34.4143843 L131.352288,27.5084675 L134.47901,34.4143843 L133.604486,34.4143843 L132.85575,32.7530838 L129.848826,32.7530838 Z" id="Shape"></path>
            <polygon id="Path" points="135.55719 27.4660255 140.4689 32.6803262 140.4689 27.7873719 141.289515 27.7873719 141.289515 34.6811625 136.371815 29.4729249 136.371815 34.4143843 135.55719 34.4143843"></polygon>
            <polygon id="Path" points="146.656456 27.7873719 147.722656 27.7873719 144.78162 30.7643738 147.776565 34.4143843 146.674425 34.4143843 144.206591 31.3282459 143.877147 31.6435292 143.877147 34.4143843 143.062522 34.4143843 143.062522 27.7873719 143.877147 27.7873719 143.877147 30.6613004"></polygon>
            <rect id="Rectangle" x="148.854745" y="27.7873719" width="1" height="6.62701234"></rect>
            <polygon id="Path" points="151.424408 27.4660255 156.342107 32.6803262 156.342107 27.7873719 157.156732 27.7873719 157.156732 34.6811625 152.239033 29.4729249 152.239033 34.4143843 151.424408 34.4143843"></polygon>
            <g id="Group" transform="translate(45.702857, 27.641857)">
                <path d="M119.192812,3.4317374 L119.192812,3.69851558 C119.192812,5.51745766 117.922956,6.91197993 116.090049,6.91197993 C114.257143,6.91197993 112.78363,5.31131089 112.78363,3.47417939 C112.78363,1.56429019 114.293083,4.30812029e-15 116.179898,4.30812029e-15 C117.198179,4.30812029e-15 118.20448,0.466861802 118.845399,1.28538574 L118.270369,1.83713151 C117.803158,1.1883755 117.012492,0.757892536 116.209847,0.757892536 C114.742324,0.757892536 113.598255,1.95839431 113.598255,3.44992682 C113.598255,4.83838595 114.730345,6.16015053 116.143958,6.16015053 C117.16224,6.16015053 118.2524,5.26886891 118.288339,4.18962994 L116.5932,4.18962994 L116.5932,3.4317374 L119.192812,3.4317374 L119.192812,3.4317374 Z" id="Path"></path>
                <path d="M82.1034161,27.4902781 C81.8099115,27.4902781 81.4085889,27.314447 81.4085889,26.8293958 C81.4085889,26.0351244 82.1333656,25.7562199 83.1336771,25.7562199 L83.3373334,25.7562199 L83.3373334,26.8293958 C83.0438288,27.2234999 82.6365163,27.4902781 82.1034161,27.4902781 M81.9297093,28.2178549 C82.540678,28.2178549 83.0737782,27.9086347 83.3792626,27.5024043 C83.3912424,27.660046 83.4211918,27.9571399 83.463121,28.090529 L84.3196752,28.090529 C84.2597763,27.8298139 84.1998774,27.4296467 84.1998774,26.8900272 L84.1998774,24.676981 C84.1998774,23.5067949 83.5948986,22.991428 82.4628095,22.991428 C81.7260531,22.991428 81.1450338,23.2400167 80.6838123,23.6765628 L81.1150843,24.2646874 C81.5343766,23.900899 81.9237194,23.7371942 82.3909308,23.7371942 C83.0558085,23.7371942 83.3433232,24.028225 83.3433232,24.7072967 L83.3433232,25.1438428 L83.139667,25.1438428 C81.9237194,25.1438428 80.5160954,25.5500732 80.5160954,26.8597115 C80.5101055,27.6903617 81.1031046,28.2178549 81.9297093,28.2178549 M78.1800384,28.2178549 C79.0485724,28.2178549 79.5277636,27.8965085 79.7314198,27.7328037 L79.4019759,27.0901108 C79.2582186,27.2053105 78.8269465,27.4842149 78.2279576,27.4842149 C77.2396258,27.4842149 76.796374,26.6171859 76.796374,25.5803889 C76.796374,24.5254025 77.2336359,23.7190048 78.203998,23.7190048 C78.7670476,23.7190048 79.0845118,23.9251516 79.3360871,24.1131089 L79.7014704,23.4704161 C79.4678647,23.2824587 79.0066432,22.9974911 78.1980081,22.9974911 C76.9221616,22.9974911 75.8679411,23.9069622 75.8679411,25.6046414 C75.8799209,27.0052268 76.7005357,28.2178549 78.1800384,28.2178549 M70.830444,28.090529 L71.6869982,28.090529 L71.6869982,24.6163496 C72.0164421,24.1737403 72.5016232,23.7553837 73.0347233,23.7553837 C73.6576718,23.7553837 73.8613281,24.1252352 73.8613281,24.7254861 L73.8613281,28.0844658 L74.7298621,28.0844658 L74.7298621,24.549655 C74.7298621,23.682626 74.3225496,22.9853648 73.2803088,22.9853648 C72.6573603,22.9853648 72.1062904,23.2763956 71.6869982,23.8038888 L71.6869982,23.1126908 L70.830444,23.1126908 L70.830444,28.090529 Z M67.1646316,27.4902781 C66.871127,27.4902781 66.4698044,27.314447 66.4698044,26.8293958 C66.4698044,26.0351244 67.194581,25.7562199 68.1948926,25.7562199 L68.3985488,25.7562199 L68.3985488,26.8293958 C68.1050442,27.2234999 67.6977317,27.4902781 67.1646316,27.4902781 M66.9909248,28.2178549 C67.6018935,28.2178549 68.1349937,27.9086347 68.440478,27.5024043 C68.4524578,27.660046 68.4824073,27.9571399 68.5243365,28.090529 L69.3808907,28.090529 C69.3209918,27.8298139 69.255103,27.4296467 69.255103,26.8900272 L69.255103,24.676981 C69.255103,23.5067949 68.6501242,22.991428 67.518035,22.991428 C66.7812786,22.991428 66.2002593,23.2400167 65.7390378,23.6765628 L66.1703099,24.2646874 C66.5896022,23.900899 66.978945,23.7371942 67.4461564,23.7371942 C68.1110341,23.7371942 68.3985488,24.028225 68.3985488,24.7072967 L68.3985488,25.1438428 L68.1948926,25.1438428 C66.978945,25.1438428 65.565331,25.5500732 65.565331,26.8597115 C65.5713209,27.6903617 66.16432,28.2178549 66.9909248,28.2178549 M61.1567723,24.1373615 L61.1567723,21.954631 L62.0552558,21.954631 C62.965719,21.954631 63.4449101,22.2759774 63.4449101,22.9974911 C63.4449101,23.7735731 63.0136381,24.1373615 62.0372861,24.1373615 L61.1567723,24.1373615 Z M61.1567723,27.3386996 L61.1567723,24.8770646 L62.1391142,24.8770646 C63.3071427,24.8770646 63.726435,25.3621158 63.726435,26.1624503 C63.726435,26.9870374 63.2053146,27.3386996 62.0792153,27.3386996 L61.1567723,27.3386996 Z M60.2343293,28.090529 L62.0911951,28.090529 C63.6246068,28.090529 64.6788274,27.5630358 64.6788274,26.1563872 C64.6788274,25.2044742 63.99598,24.6163496 63.1633853,24.4708342 L63.1633853,24.4526448 C63.9121215,24.2586243 64.3793329,23.7493205 64.3793329,22.9186703 C64.3793329,21.6696634 63.3910011,21.2028016 62.1211446,21.2028016 L60.2283395,21.2028016 L60.2283395,28.090529 L60.2343293,28.090529 Z M52.9985428,24.2404349 L52.9985428,21.9667573 L53.909006,21.9667573 C54.9093175,21.9667573 55.3825188,22.3608614 55.3825188,23.0945014 C55.3825188,23.8281413 54.9452569,24.2404349 53.9748948,24.2404349 L52.9985428,24.2404349 Z M52.0701099,28.090529 L52.9985428,28.090529 L52.9985428,24.980138 L53.1003709,24.980138 C53.5376328,24.980138 53.6514407,25.065022 54.4001769,26.1381978 L55.7479021,28.090529 L56.8081125,28.090529 L55.1908423,25.7744094 C54.8014995,25.2166005 54.6098231,24.9983274 54.4660657,24.895254 L54.4660657,24.8770646 C55.4963267,24.7921806 56.3049618,24.2161823 56.3049618,23.0641857 C56.3049618,21.8758102 55.4543975,21.2028016 54.0048442,21.2028016 L52.06412,21.2028016 L52.06412,28.090529 L52.0701099,28.090529 Z M46.8768756,28.090529 L50.5366982,28.090529 L50.5366982,27.3023207 L47.7993186,27.3023207 L47.7993186,24.8406858 L50.1413654,24.8406858 L50.1413654,24.0646038 L47.7993186,24.0646038 L47.7993186,21.9849467 L50.4648195,21.9849467 L50.4648195,21.1967384 L46.8768756,21.1967384 L46.8768756,28.090529 Z M42.1688225,24.6042233 L42.1688225,21.9667573 L42.9654778,21.9667573 C44.1095467,21.9667573 44.5408187,22.4821242 44.5408187,23.252143 C44.5408187,24.1434246 44.0676174,24.6042233 42.9355283,24.6042233 L42.1688225,24.6042233 L42.1688225,24.6042233 Z M41.2403896,28.090529 L42.1688225,28.090529 L42.1688225,25.368179 L42.9235485,25.368179 C44.5288389,25.368179 45.4752415,24.6042233 45.4752415,23.2278904 C45.4752415,21.869747 44.4330007,21.2028016 43.0433463,21.2028016 L41.2343997,21.2028016 L41.2343997,28.090529 L41.2403896,28.090529 Z M36.2508116,24.1373615 L36.2508116,21.954631 L37.149295,21.954631 C38.0597582,21.954631 38.5389494,22.2759774 38.5389494,22.9974911 C38.5389494,23.7735731 38.1076773,24.1373615 37.1313253,24.1373615 L36.2508116,24.1373615 Z M36.2508116,27.3386996 L36.2508116,24.8770646 L37.2331535,24.8770646 C38.395192,24.8770646 38.8204742,25.3621158 38.8204742,26.1624503 C38.8204742,26.9870374 38.2993538,27.3386996 37.1732546,27.3386996 L36.2508116,27.3386996 Z M35.3343585,28.090529 L37.1912242,28.090529 C38.724636,28.090529 39.7788565,27.5630358 39.7788565,26.1563872 C39.7788565,25.2044742 39.0960091,24.6163496 38.2634145,24.4708342 L38.2634145,24.4526448 C39.0121507,24.2586243 39.479362,23.7493205 39.479362,22.9186703 C39.479362,21.6696634 38.4910303,21.2028016 37.2211737,21.2028016 L35.3283686,21.2028016 L35.3283686,28.090529 L35.3343585,28.090529 Z M29.4223375,27.4902781 C28.4399956,27.4902781 28.0087236,26.6293121 28.0087236,25.586452 C28.0087236,24.5435919 28.3860866,23.7129417 29.3684285,23.7129417 C30.3387906,23.7129417 30.8299615,24.5739076 30.8299615,25.6046414 C30.8359514,26.6535647 30.3986895,27.4902781 29.4223375,27.4902781 M29.4043678,28.2178549 C31.0815369,28.2178549 31.7524045,26.7687644 31.7524045,25.5925152 C31.7524045,24.4041397 31.0455976,22.9974911 29.3804083,22.9974911 C27.7032392,22.9974911 27.0922704,24.4344554 27.0922704,25.6167677 C27.0922704,26.7990801 27.7391785,28.2178549 29.4043678,28.2178549 M24.0194571,27.4781518 C23.4564075,27.4781518 23.1209737,27.2416893 22.9053377,27.0416057 L22.9053377,24.4041397 C23.0371152,24.2283086 23.4683873,23.7432574 24.1093055,23.7432574 C24.9898192,23.7432574 25.3851519,24.5314656 25.3851519,25.6046414 C25.3911418,26.7020698 24.9179405,27.4781518 24.0194571,27.4781518 M22.0487834,30.3581434 L22.9053377,30.3581434 L22.9053377,27.7934351 C23.0910242,27.9571399 23.4564075,28.2178549 24.133265,28.2178549 C25.4091115,28.2178549 26.3195747,27.1628685 26.3195747,25.5925152 C26.3195747,23.9494041 25.5229194,22.9974911 24.3189516,22.9974911 C23.6241244,22.9974911 23.1629029,23.337027 22.9113275,23.6462471 L22.9113275,23.1187539 L22.0547733,23.1187539 L22.0547733,30.3581434 L22.0487834,30.3581434 Z M18.5506879,27.4781518 C17.9876383,27.4781518 17.6522045,27.2416893 17.4365685,27.0416057 L17.4365685,24.4041397 C17.5683461,24.2283086 17.9996181,23.7432574 18.6405363,23.7432574 C19.5210501,23.7432574 19.9163828,24.5314656 19.9163828,25.6046414 C19.9223727,26.7020698 19.4491714,27.4781518 18.5506879,27.4781518 M16.5800143,30.3581434 L17.4365685,30.3581434 L17.4365685,27.7934351 C17.6222551,27.9571399 17.9876383,28.2178549 18.6644958,28.2178549 C19.9403423,28.2178549 20.8508055,27.1628685 20.8508055,25.5925152 C20.8508055,23.9494041 20.0541502,22.9974911 18.8501824,22.9974911 C18.1553552,22.9974911 17.6941337,23.337027 17.4425584,23.6462471 L17.4425584,23.1187539 L16.5860042,23.1187539 L16.5860042,30.3581434 L16.5800143,30.3581434 Z M12.5248591,28.2178549 C13.3634436,28.2178549 13.884564,27.6903617 14.1181697,27.3690153 C14.1301495,27.6054777 14.1660888,27.9692662 14.2020281,28.090529 L15.0705621,28.090529 C15.022643,27.8722559 14.968734,27.4296467 14.968734,26.9627849 L14.968734,23.1126908 L14.1002,23.1126908 L14.1002,26.5747439 C13.9983719,26.7202593 13.4652717,27.4357098 12.7704445,27.4357098 C12.1355162,27.4357098 11.93186,27.0719214 11.93186,26.4716705 L11.93186,23.1126908 L11.063326,23.1126908 L11.063326,26.6414384 C11.063326,27.5205938 11.4706385,28.2178549 12.5248591,28.2178549 M7.50533161,28.090529 L8.36188582,28.090529 L8.36188582,24.7921806 C8.44574427,24.6284759 8.84107698,23.8281413 9.54788395,23.8281413 C9.81143909,23.8281413 9.93722677,23.8766465 9.99712566,23.9130253 L10.2127617,23.0945014 C10.140883,23.0641857 9.979156,22.991428 9.66169185,22.991428 C8.98483433,22.991428 8.56554206,23.5310475 8.36188582,23.8705833 L8.36188582,23.1187539 L7.50533161,23.1187539 L7.50533161,28.090529 Z M3.42621682,28.2178549 C4.58226551,28.2178549 5.43881971,27.9268242 5.94796033,27.5145306 L5.94796033,24.4526448 L3.60591351,24.4526448 L3.60591351,25.2166005 L5.02551734,25.2166005 L5.02551734,27.0355425 C4.70805319,27.272005 4.14500357,27.4296467 3.44418649,27.4296467 C1.73706797,27.4296467 0.970362108,26.0654401 0.970362108,24.6042233 C0.970362108,23.1551328 1.74904775,21.8515576 3.45616627,21.8515576 C4.16896313,21.8515576 4.67211385,22.0091992 5.18125446,22.4093665 L5.64247596,21.7181685 C5.1033859,21.2937487 4.40855871,21.0754756 3.48611572,21.0754756 C1.26985659,21.0754756 0,22.7489024 0,24.6224127 C0.00598988955,26.4777336 1.23990714,28.2178549 3.42621682,28.2178549" id="Shape"></path>
            </g>
        </g>
    </g>
</svg>