<?xml version="1.0" encoding="utf-8"?>
<!-- Generator: Adobe Illustrator 26.0.2, SVG Export Plug-In . SVG Version: 6.00 Build 0)  -->
<svg version="1.1" id="Layer_1" xmlns="http://www.w3.org/2000/svg" xmlns:xlink="http://www.w3.org/1999/xlink" x="0px" y="0px"
	 viewBox="0 0 476 166" style="enable-background:new 0 0 476 166;" xml:space="preserve">
<style type="text/css">
	.st0{filter:url(#Adobe_OpacityMaskFilter);}
	.st1{fill-rule:evenodd;clip-rule:evenodd;fill:#FFFFFF;}
	.st2{mask:url(#sjx8x48i6b_00000040546434104690922440000007241571980770154906_);}
	.st3{fill:#FFFFFF;}
</style>
<g>
	<g>
		<g>
			<g>
				<g transform="translate(-231 -1328) translate(229 1319)">
					<defs>
						<filter id="Adobe_OpacityMaskFilter" filterUnits="userSpaceOnUse" x="5.4" y="9.8" width="468.1" height="115.6">
							<feColorMatrix  type="matrix" values="1 0 0 0 0  0 1 0 0 0  0 0 1 0 0  0 0 0 1 0"/>
						</filter>
					</defs>
					
						<mask maskUnits="userSpaceOnUse" x="5.4" y="9.8" width="468.1" height="115.6" id="sjx8x48i6b_00000040546434104690922440000007241571980770154906_">
						<g class="st0">
							<path id="sz2x2fpyea_00000164512872634930430480000011287888244120051840_" class="st1" d="M0,0h477.9v98.3H0V0z"/>
						</g>
					</mask>
					<g class="st2">
						<g>
							<path class="st3" d="M5.4,114.5l2.7-3c7.2,6.2,16.7,9.9,28.4,9.9c16.9,0,28.1-10.3,28.1-24.6c0-15.5-14-22.9-27.9-30.5
								c-13.9-7.6-26.9-14-26.9-31.2c0-16.2,12.2-25.3,29.1-25.3c11,0,20.6,3.7,26.9,8.4l-2.3,3.4c-6.4-4.7-15.2-7.8-24.9-7.8
								c-14.2,0-24.4,7.8-24.4,20.9c0,15,10.4,19.9,24.3,27.5C52.2,69.8,68.9,78,68.9,96.4c0,17-12.9,29-32.8,29
								C22.8,125.4,12.9,121.2,5.4,114.5 M103.2,11.5h4.7l39.1,107l39.1-107h4.7l14.6,112.3h-4.2L187.7,19.9l-38,103.8h-5.4
								L106.3,19.9L92.9,123.7h-4.2L103.2,11.5z M291.7,86.1l-26.1-69.4l-26.2,69.4H291.7L291.7,86.1z M263,11.5h5.4l42.1,112.3H306
								l-12.7-33.5h-55.3l-12.5,33.5h-4.5L263,11.5L263,11.5z M353.2,62.4c19.7,0,31.3-7.6,31.3-23.4c0-15.8-11.5-23.4-31.3-23.4
								h-16.7v46.9H353.2z M332.1,11.5h21.2c21.9,0,35.5,8.8,35.5,27.5c0,18.4-13.7,27.5-35.5,27.5H351v0.2c2,0.8,4,2.4,9.9,10.3
								l34.8,46.9H390L357,78.9c-8.5-11.6-10.7-12.5-16.1-12.5h-4.3l-0.2,57.3h-4.3L332.1,11.5L332.1,11.5z M436.5,15.5h-32.6v-4
								h69.6v4h-32.6v108.2h-4.3V15.5z"/>
						</g>
					</g>
				</g>
			</g>
			<path class="st3" d="M21.1,164.9c14.7,0,25.2-4.8,25.2-18c0-9.2-6.5-14.4-14.1-15.6v-0.2c6.9-1.9,11.4-6.5,11.4-14.9
				c0-12.3-10.3-16.2-22.2-16.2H0v64.8L21.1,164.9L21.1,164.9z M20,127.1h-6v-16.2h6.3c6.5,0,9.8,2.4,9.8,7.8
				C30.2,124.5,27.1,127.1,20,127.1z M21.2,153H14v-17.3h7.8c8,0,11.6,3,11.6,8.9C33.4,150.7,29.2,153,21.2,153L21.2,153z
				 M71.7,164.9v-23.1h5.8c15.8,0,25.9-7.2,25.9-21.3c0-13.9-10.5-20.4-24.3-20.4H58.2v64.8L71.7,164.9L71.7,164.9z M77.5,130.3
				h-6.4v-20.5h6.7c8.9,0,12.7,3.6,12.7,10C90.5,126.9,86.6,130.3,77.5,130.3z M151.8,164.9v-11.3h-24.3v-16.9h20.8V126h-20.8v-14.6
				h23.6v-11.3h-37v64.8L151.8,164.9L151.8,164.9z M179.5,164.9v-26.7h0.9c3,0,4.1,0.7,9.1,8.2l11.9,18.5h15.1l-12.6-19.3
				c-3.5-5.5-5.8-8-7.6-9.2v-0.2c7.9-1.5,15.1-6.8,15.1-17.4c0-12.2-8.7-18.7-23.9-18.7h-21.6v64.8L179.5,164.9L179.5,164.9z
				 M186.9,128.2h-7.1v-17.3h6.5c7.5,0,10.7,2.9,10.7,8.6C197.1,125,193.9,128.2,186.9,128.2L186.9,128.2z M280,164.9v-11.2h-30.3
				l29.4-44.9v-8.8h-44.2v11.2h27.9L233.7,156v9L280,164.9L280,164.9z M321.3,166c21.7,0,33-16.2,33-33.8
				c0-17.4-11.7-33.2-33.3-33.2c-21.7,0-33.4,16-33.4,33.6C287.5,150.1,299.6,166,321.3,166z M321.5,155.2
				c-12.9,0-18.8-10.5-18.8-22.4c0-11.9,6.1-21.9,19.1-21.9c12.9,0,18.6,10.4,18.6,22.2C340.3,145,334.5,155.2,321.5,155.2
				L321.5,155.2z M379.4,164.9v-37.1c0-4.1-0.3-7.8-0.4-8.7h0.2c0.8,1.3,2.7,4.9,6.1,9.7l24.6,36h12.3v-64.8H410v34.3
				c0,5,0.3,9.3,0.4,10.2h-0.2c-0.6-1.1-2.9-5.4-6.7-10.9l-22.8-33.6h-13.5v64.8L379.4,164.9L379.4,164.9z M476,164.9v-11.3h-24.3
				v-16.9h20.8V126h-20.8v-14.6h23.6v-11.3h-37v64.8L476,164.9L476,164.9z"/>
		</g>
	</g>
</g>
</svg>
