<svg id="Logo_BancodiSardegna_Bianco" data-name="Logo/BancodiSardegna/Bianco" xmlns="http://www.w3.org/2000/svg" xmlns:xlink="http://www.w3.org/1999/xlink" width="177" height="40" viewBox="0 0 177 40">
  <defs>
    <clipPath id="clip-path">
      <rect id="Rettangolo_11148" data-name="Rettangolo 11148" width="177" height="40" fill="none"/>
    </clipPath>
  </defs>
  <g id="Raggruppa_27709" data-name="Raggruppa 27709" clip-path="url(#clip-path)">
    <path id="Tracciato_86076" data-name="Tracciato 86076" d="M467.2,37.828h4.517V46.7h-1.1v.412h4.119V46.7h-1.162V40.71c0-2,1.03-2.914,2.126-2.914.93,0,1.395.475,1.395,1.9v7h-1.163v.412h4.119V46.7h-1.03V39.919c0-2.09-1.129-2.819-2.69-2.819a3.179,3.179,0,0,0-2.823,1.615l-.033-1.3h-6.244v.412" transform="translate(-312.022 -25.35)" fill="#fff"/>
    <path id="Tracciato_86077" data-name="Tracciato 86077" d="M373.729,46.7h-1.1v.412h4.285V46.7h-1.329V40.932c0-1.71.8-3.135,1.628-3.135.465,0,.7.412,1.03,1.425l.7,1.964h.432V37.448a4.091,4.091,0,0,0-1.4-.348,2.354,2.354,0,0,0-2.425,1.71l-.033-1.425H372.6V37.8h1.1Z" transform="translate(-248.843 -25.35)" fill="#fff"/>
    <path id="Tracciato_86078" data-name="Tracciato 86078" d="M512.345,43.249c0,2.09-1,3.515-2.491,3.547-1.063,0-1.628-.538-1.628-1.964,0-2.755,1.86-2.027,4.119-3.04Zm-4.484-2.28c.963-2.66,1.329-3.357,2.757-3.357a1.528,1.528,0,0,1,1.727,1.71v2c-1.993,1.172-6.145.19-6.145,3.547,0,1.679,1.229,2.66,3.056,2.66a3.229,3.229,0,0,0,3.056-2l.033,1.679h2.724V46.8h-.963V39.639c0-1.172-1.129-2.439-3.62-2.439a7.81,7.81,0,0,0-3.056.7V41Z" transform="translate(-338.068 -25.419)" fill="#fff"/>
    <path id="Tracciato_86079" data-name="Tracciato 86079" d="M316.4,34.583v4.181a8.127,8.127,0,0,0,3.72,1.077c3.089,0,5.215-1.805,5.215-4.212,0-2.09-1.03-2.819-4.019-3.9-2.69-.982-3.753-1.362-3.753-2.787a2.758,2.758,0,0,1,3.023-2.534,2.6,2.6,0,0,1,2.79,1.964l.731,2.217h.432V26.76a9.562,9.562,0,0,0-3.753-.76c-2.724,0-4.584,1.52-4.584,3.769,0,4.529,7.44,3.072,7.44,6.841,0,1.647-1.428,2.787-3.255,2.787-1.96,0-2.69-1.3-3.554-4.846Z" transform="translate(-211.176 -17.766)" fill="#fff"/>
    <path id="Tracciato_86080" data-name="Tracciato 86080" d="M424.759,40.932c.166-2.217.9-3.389,2.159-3.389,1.03,0,1.694.76,1.694,2.66v.76Zm5.912.412c0-2.724-1.461-4.244-3.753-4.244-2.358,0-4.318,2.09-4.318,5.162s1.827,5.162,4.384,5.162c2.059,0,3.654-1.3,3.753-3.927h-.432c-.2,2.375-1.428,3.389-3.122,3.389-1.528,0-2.491-1.267-2.491-4.972a3.282,3.282,0,0,1,.033-.57Z" transform="translate(-282.236 -25.35)" fill="#fff"/>
    <path id="Tracciato_86081" data-name="Tracciato 86081" d="M457.393,37.417h-2.458a3.866,3.866,0,0,0-1.594-.317c-2.059,0-3.62,1.3-3.62,3.135a3.24,3.24,0,0,0,.764,2.217,2.442,2.442,0,0,0-2.093,2.407,2.109,2.109,0,0,0,1.76,2.154c-.531.222-1.3.76-1.3,1.457,0,1.045,1.329,2.28,4.318,2.28,2.657,0,4.384-1.52,4.384-3.072,0-4.212-8.1-.665-8.1-3.579a1.492,1.492,0,0,1,1.4-1.235,4.161,4.161,0,0,0,2.491.7,3.312,3.312,0,0,0,3.554-3.23,2.824,2.824,0,0,0-1.1-2.344h4.019Zm-5.68,2.914c0-2.249.565-2.819,1.594-2.819s1.594.57,1.594,2.819-.565,2.819-1.594,2.819c-1.163,0-1.594-.57-1.594-2.819m-1.561,8.2a1.546,1.546,0,0,1,.731-1.394l3.753.063c1.495.032,1.86.412,1.86,1.14,0,.982-1.362,2-3.454,2-1.794,0-2.89-.95-2.89-1.805" transform="translate(-299.458 -25.35)" fill="#fff"/>
    <path id="Tracciato_86082" data-name="Tracciato 86082" d="M404.435,40.207v-.412h-.963V27h-2.856v.412h.963v4.276a2.548,2.548,0,0,0-2.325-1.457c-2.059,0-3.753,1.869-3.753,5.162,0,3.325,1.86,5.131,3.72,5.131a2.371,2.371,0,0,0,2.458-1.457l.033,1.172Zm-6.842-4.656c0-3.864.8-4.814,1.993-4.814,1.329,0,2.159,1.362,2.159,4.814,0,3.072-.731,4.561-2.092,4.561-1.3,0-2.059-1.077-2.059-4.561" transform="translate(-264.137 -18.449)" fill="#fff"/>
    <path id="Tracciato_86083" data-name="Tracciato 86083" d="M294.4,28.974a1.131,1.131,0,1,0,1.129-1.077A1.064,1.064,0,0,0,294.4,28.91Z" transform="translate(-196.617 -19.061)" fill="#fff"/>
    <path id="Tracciato_86084" data-name="Tracciato 86084" d="M352.245,43.249c0,2.09-1,3.515-2.491,3.547-1.063,0-1.628-.538-1.628-1.964,0-2.755,1.86-2.027,4.119-3.04Zm-4.484-2.28c.963-2.66,1.329-3.357,2.757-3.357a1.528,1.528,0,0,1,1.727,1.71v2c-1.993,1.172-6.145.19-6.145,3.547,0,1.679,1.229,2.66,3.056,2.66a3.229,3.229,0,0,0,3.056-2l.033,1.679h2.724V46.8h-.963V39.639c0-1.172-1.129-2.439-3.62-2.439a7.81,7.81,0,0,0-3.056.7V41Z" transform="translate(-231.145 -25.419)" fill="#fff"/>
    <path id="Tracciato_86085" data-name="Tracciato 86085" d="M295.023,38.1H292.2v.412h.93V47.38h-.93v.412h3.786V47.38h-.963Z" transform="translate(-195.147 -26.033)" fill="#fff"/>
    <path id="Tracciato_86086" data-name="Tracciato 86086" d="M210.306,37.8a9.824,9.824,0,0,0-2.757-.6c-3.023,0-4.849,2.09-4.849,5.162s1.727,5.162,4.418,5.162c1.893,0,3.321-1.2,3.321-3.9h-.432c-.066,2.312-1.063,3.357-2.591,3.357-1.628,0-2.591-1.3-2.591-4.814,0-3.357,1.3-4.561,2.524-4.561,1.03,0,1.495.317,2.458,3.674h.565Z" transform="translate(-135.374 -25.419)" fill="#fff"/>
    <path id="Tracciato_86087" data-name="Tracciato 86087" d="M173.2,37.828h1.1V46.7h-1.1v.412h4.119V46.7h-1.163V40.71c0-2,1.03-2.914,2.126-2.914.93,0,1.4.475,1.4,1.9v7h-1.163v.412h4.119V46.7h-1.1V39.919c0-2.09-1.129-2.819-2.69-2.819a3.179,3.179,0,0,0-2.823,1.615l-.033-1.3H173.2Z" transform="translate(-115.673 -25.35)" fill="#fff"/>
    <path id="Tracciato_86088" data-name="Tracciato 86088" d="M273.934,40.207v-.412h-1.262V27h-2.856v.412h.963v4.276a2.548,2.548,0,0,0-2.325-1.457c-2.059,0-3.753,1.869-3.753,5.162,0,3.325,1.86,5.131,3.72,5.131a2.371,2.371,0,0,0,2.458-1.457l.033,1.172Zm-7.174-4.656c0-3.864.8-4.814,1.993-4.814,1.329,0,2.159,1.362,2.159,4.814,0,3.072-.731,4.561-2.093,4.561-1.3,0-2.059-1.077-2.059-4.561" transform="translate(-176.781 -18.449)" fill="#fff"/>
    <path id="Tracciato_86089" data-name="Tracciato 86089" d="M229.693,42.262c0-3.705.8-4.751,2.292-4.751s2.292,1.045,2.292,4.751-.8,4.751-2.292,4.751-2.292-1.045-2.292-4.751m-2.092,0c0,3.072,1.893,5.162,4.384,5.162s4.384-2.09,4.384-5.162-1.893-5.162-4.384-5.162-4.384,2.122-4.384,5.162" transform="translate(-152.004 -25.35)" fill="#fff"/>
    <path id="Tracciato_86090" data-name="Tracciato 86090" d="M111.629,39.795h-1.2v.412h4.916c4.152,0,6.045-1.647,6.045-3.769,0-1.742-1.528-3.009-4.384-3.262,1.661-.285,3.355-1.172,3.355-3.167,0-1.774-1.628-3.009-4.218-3.009H110.4v.412h1.2Zm2.159-12.383h1.86c1.561,0,2.458.792,2.458,2.724,0,2.154-1.1,2.914-3.155,2.914h-1.129V27.412Zm0,6.081h1.794c2.292,0,3.321.792,3.321,3.009,0,2.439-1.3,3.294-4.152,3.294h-.93Z" transform="translate(-73.731 -18.449)" fill="#fff"/>
    <path id="Tracciato_86091" data-name="Tracciato 86091" d="M151.645,43.249c0,2.09-1,3.515-2.491,3.547-1.063,0-1.628-.538-1.628-1.964,0-2.755,1.86-2.027,4.119-3.04Zm-4.484-2.28c.963-2.66,1.329-3.357,2.757-3.357a1.528,1.528,0,0,1,1.727,1.71v2c-1.993,1.172-6.145.19-6.145,3.547,0,1.679,1.229,2.66,3.056,2.66a3.229,3.229,0,0,0,3.056-2l.033,1.679h4.75V46.8h-2.989V39.639c0-1.172-1.129-2.439-3.62-2.439a7.81,7.81,0,0,0-3.056.7V41Z" transform="translate(-97.173 -25.419)" fill="#fff"/>
    <path id="Tracciato_86092" data-name="Tracciato 86092" d="M26.7,4.117l-3.089,1.3a.349.349,0,0,1-.5-.285l.4-3.2,1,.57-.1,1.14V3.9l.066.063.066-.032,1.262-.538.8.633Zm1.329,1.3-.233.1-.3.127-2.192.855L22.054,7.7l-.066.032h-.133L21.722,7.7l-.1-.032-.1-.063-.066-.063a.567.567,0,0,1-.166-.507V6.9l.432-5.8.133.063.93.38v.19c-.066,1.489-.266,3.009-.266,4.5l.033.063h.066l.1-.032.133-.063.133-.063.2-.032.233-.1L26.206,5l1.063-.38Zm2.059,2.977-.3.1-5.381,1.805-4.584,1.52a3.542,3.542,0,0,1-.83.222h-.133A1.3,1.3,0,0,1,18.534,12l-.066-.032L18.4,11.94l-.066-.032a1.029,1.029,0,0,1-.5-.855l-.033-.1L18.069.19,18.2.222c.266.032.531.1.83.127L19.2.38,19,10.546V10.8l.066.032H19.3l.133-.032c3.122-1.013,6.211-2.059,9.3-3.1l.465-.158.332-.1.066.127a8.369,8.369,0,0,1,.432.728Zm.731,1.552L17.869,14c-1.1.348-1.661-.127-1.594-1.2L16.342.032h.133A7.326,7.326,0,0,1,17.3.1h.133L17.4,12.573c-.033.538-.033.412.5.253L30.424,8.994l.066.127c.1.222.2.475.3.7ZM20.859,6.207l-.033,2v.222l.033.063.066.032h.066l.066-.032.1-.032.1-.032L28.5,5.986l.1.127a5.391,5.391,0,0,1,.5.7l.066.127L20.693,9.85c-.83.348-1.262-.475-1.1-1.267L19.862.57,20,.6c.266.063.531.158.83.222l.133.032V1.52ZM8.171,1.9,8.5,5.1c.033.253-.166.38-.4.348L4.982,4.086l.864-.728,1.1.443.1.032.066.032.066.032.066-.032V3.8L7.075,2.47l.9-.507Zm1.694-.76.033.222.033.317L10.1,3.927l.233,3.325v.127l-.1.1-.033.063L10.13,7.6l-.1.063L10,7.7a.6.6,0,0,1-.565,0L9.3,7.664,3.654,5.479l.1-.1.664-.728.2.063c1.461.538,2.89,1.172,4.418,1.615H9.1l.033-.063V5.479L8.9,2.629,8.835,1.552Zm3.62-.982V.443l.133,5.416.1,4.656V11.4l-.1.285-.033.063-.133.063-.066.063a1.19,1.19,0,0,1-1.03.19h-.1L1.594,8.488l.066-.127c.133-.253.266-.475.4-.7l.066-.127,10.1,3.325.1.032.1.032h.066l.066-.063.033-.127V9.121l-.166-6.683-.033-1.33V.317l.133-.032a8.254,8.254,0,0,1,.864-.158ZM15.245,0l.033,12.985c0,1.108-.664,1.457-1.694,1.077L.9,10.071.93,9.945c.1-.253.2-.475.3-.728L1.3,9.089l12.422,3.9.166.063.1.032h.133l.033-.063v-.38L14.216.063h.133c.266-.032.531-.032.8-.063ZM8.436,7.854l1.993.665c.365.158.4.063.365-.285L10.562.855,10.7.823a8.3,8.3,0,0,1,.83-.253l.133-.032.3,8.583v.063a.662.662,0,0,1-.365.633l-.033.032-.066.032a1.033,1.033,0,0,1-.864-.1l-.266-.1L2.458,6.968l.066-.127.5-.665.1-.1ZM.332,18.021l3.288.7a.316.316,0,0,1,.266.348.162.162,0,0,1-.066.127L1.528,21.568l-.465-1.013.764-.855.066-.1.066-.063.033-.063v-.063L.6,19.129l-.233-.982ZM.066,16.215l.233.063.332.063,2.292.538,3.388.823.066.032.066.032.066.032.066.063.033.063.033.1.033.063a.567.567,0,0,1-.166.507l-.1.1L2.491,23.215l-.066-.127-.5-.823.133-.158.166-.19.2-.222,2.524-2.945.066-.063.033-.063-.033-.063-.066-.032a2.985,2.985,0,0,1-.764-.19L1.3,17.609.233,17.324Zm.166-3.579.3.1,5.447,1.552,4.65,1.362.365.1.166.063.133.032.133.063.066.032.1.063.066.063.066.063.066.063.066.1.033.063.033.063.033.063a1.137,1.137,0,0,1-.166.918l-.033.1L4.883,26l-.1-.1c-.2-.19-.4-.38-.565-.57l-.1-.1L10.562,17.1l.066-.063c.133-.127.133-.158-.033-.253l-.066-.032-.133-.032c-3.122-.95-6.278-1.805-9.433-2.692L.5,13.9l-.332-.1v-.127l.1-.855Zm.4-1.647,12.954,3.99c1.1.317,1.229,1.045.565,1.869L6.211,27.11l-.1-.1a4.808,4.808,0,0,1-.631-.507l-.1-.1L13.12,16.342l.1-.1.066-.063.033-.063v-.063l-.066-.063-.1-.032-.1-.032-.166-.063L.365,11.971.4,11.845c.066-.253.133-.475.2-.728Zm5.713,8.583,1.262-1.584c.266-.285.2-.348-.2-.412L0,15.487V14.378l8.669,2.407h.066a.624.624,0,0,1,.5.475l.033.1v.063a.954.954,0,0,1-.365.792l-.166.19L3.587,24.735l-.1-.1c-.166-.222-.365-.412-.531-.633L2.89,23.88l.166-.222ZM13.95,30.214l1.694-2.787a.336.336,0,0,1,.432-.158c.033,0,.066.032.1.063l1.694,2.882-1.163.1-.631-.982-.066-.1-.033-.063-.033-.063h-.066l-.066.063-.7,1.14-1.03-.1ZM12.09,29.9l.133-.19.166-.253,1.262-1.9,1.86-2.819.033-.063.1-.063.066-.032.066-.032h.233a.588.588,0,0,1,.5.348l.066.063L19.8,29.9l-.133.032-1,.19-.133-.158-.133-.222-.166-.253-2.159-3.2-.033-.063-.066-.063H15.91l-.066.063-.033.1-.033.063-.066.127-.1.158-.133.222L13.85,29.264l-.6.887ZM8.569,28.662l.166-.253,3.255-4.466,2.79-3.8.2-.285.1-.127.1-.1.1-.1.1-.1.1-.063.066-.063.066-.032.066-.032.066-.032h.133a1.129,1.129,0,0,1,.963.412l.066.063,6.444,8.868-.133.063c-.233.127-.5.222-.764.348l-.133.063-6.111-8.361-.066-.063-.066-.1-.066-.063-.066.032-.066.063-.066.063-.1.127-.1.127L15.544,21l-.3.38-.365.507-3.986,5.479-.8,1.077-.3.38-.2.253-.133-.063c-.266-.127-.531-.222-.8-.348Zm-1.528-.855L15.013,17.26c.664-.887,1.428-.823,2.026.063l7.805,10.388-.133.063a8.022,8.022,0,0,1-.7.412l-.133.063-7.639-10.1-.1-.127-.066-.063-.066-.063-.066-.032-.066.032v.063l-.066.1-.1.158L7.938,28.345l-.1-.063a4.592,4.592,0,0,1-.664-.412Zm10.33-2.565-1.2-1.647c-.2-.317-.3-.285-.465.032l-4.351,6.081-.133-.032c-.266-.1-.565-.158-.83-.253l-.133-.063,5.049-7.126.033-.063a.751.751,0,0,1,.6-.317h.166c.4.063.5.253.731.57l.133.222L21.689,29.3l-.133.063a7.732,7.732,0,0,1-.8.253l-.133.032-.166-.222ZM30.258,21.6,28,19.192a.3.3,0,0,1,0-.443c.033-.032.066-.063.1-.063l3.355-.633-.266,1.077-1.163.253-.133.032H29.76l-.033.063.033.063.93.982-.4.918Zm-.93,1.615-.166-.19-.2-.253-1.528-1.742L25.21,18.464l-.033-.032-.033-.063-.033-.063v-.158l.033-.1.033-.063a.686.686,0,0,1,.465-.317l.133-.032,5.912-1.394v.127l-.1.95-.2.063-.266.063-.3.063-3.886.95-.066.032-.066.032-.033.063.033.063.066.063.133.158.133.158.166.19L29.2,21.441l.7.823ZM27,26l-.166-.222-3.454-4.339-2.956-3.705-.233-.285-.1-.127-.066-.1-.066-.1-.066-.1-.033-.063-.033-.063.033-.063v-.317a1.062,1.062,0,0,1,.731-.792l.1-.063,10.828-3.1.033.127c.033.253.066.507.1.792v.127L21.423,16.6l-.1.032c-.2.032-.233.063-.133.222l.033.063.1.127c1.96,2.5,3.986,5,5.979,7.474l.3.38.2.253-.1.1c-.2.222-.4.412-.6.633Zm-1.329,1.14L17.637,16.627c-.664-.887-.365-1.552.7-1.805l12.754-3.9.033.127.2.76.033.127L18.9,15.74l-.166.063-.1.032-.066.032-.033.063.033.063.066.1.066.1.1.158,7.706,10.135-.1.1-.6.475Zm.664-10.166-2.026.57c-.365.1-.365.158-.1.443l4.716,5.827-.1.1c-.166.222-.332.443-.531.665l-.1.1-5.514-6.746-.066-.063a.573.573,0,0,1-.1-.6l.033-.1.033-.063c.2-.348.432-.38.8-.475l.266-.063,8.071-2.217v.127c0,.285.033.538.033.823v.127Z" fill="#fff"/>
    <path id="Tracciato_86093" data-name="Tracciato 86093" d="M118.221,105.278a3.287,3.287,0,0,1-2.491-1.013,3.391,3.391,0,0,1-.93-2.407,3.463,3.463,0,0,1,.4-1.647,3.108,3.108,0,0,1,1.2-1.235,3.592,3.592,0,0,1,1.86-.475,3.53,3.53,0,0,1,2.159.633l-.432.57a2.885,2.885,0,0,0-1.76-.538,2.341,2.341,0,0,0-1.926.792,2.984,2.984,0,0,0-.664,1.932,3.072,3.072,0,0,0,.664,1.964,2.361,2.361,0,0,0,1.926.823,2.75,2.75,0,0,0,1.694-.412v-1.837h-1.461v-.633h2.292v2.85a4.311,4.311,0,0,1-2.524.633" transform="translate(-76.67 -67.304)" fill="#fcfcfc"/>
    <path id="Tracciato_86094" data-name="Tracciato 86094" d="M137.5,109.046v-4.719h.764v.728a1.56,1.56,0,0,1,1.329-.855,1.436,1.436,0,0,1,.531.1l-.2.7a.819.819,0,0,0-.432-.063.959.959,0,0,0-.631.222,1.471,1.471,0,0,0-.4.412,2.876,2.876,0,0,0-.166.317v3.167Z" transform="translate(-91.83 -71.199)" fill="#fcfcfc"/>
    <path id="Tracciato_86095" data-name="Tracciato 86095" d="M149.461,109.446a1.326,1.326,0,0,1-1.1-.412,1.637,1.637,0,0,1-.365-1.077V104.6h.764v3.23q0,.95.9.95a1.846,1.846,0,0,0,1.428-.855V104.6h.764v3.705a4.285,4.285,0,0,0,.1.982h-.764a4.529,4.529,0,0,1-.066-.7,2.149,2.149,0,0,1-1.661.855" transform="translate(-98.843 -71.473)" fill="#fcfcfc"/>
    <path id="Tracciato_86096" data-name="Tracciato 86096" d="M164.5,111.2v-6.873h.764v.507a1.933,1.933,0,0,1,2.89.032,2.75,2.75,0,0,1,.531,1.805,2.713,2.713,0,0,1-.6,1.805,2.043,2.043,0,0,1-1.561.7,1.88,1.88,0,0,1-1.262-.412V111.2Zm1.926-2.66a1.191,1.191,0,0,0,1.063-.507,2.119,2.119,0,0,0,.365-1.33,2.347,2.347,0,0,0-.332-1.33,1.134,1.134,0,0,0-1.03-.507,1.371,1.371,0,0,0-.8.222,1.675,1.675,0,0,0-.5.443v2.6a2.044,2.044,0,0,0,1.229.412" transform="translate(-109.862 -71.199)" fill="#fcfcfc"/>
    <path id="Tracciato_86097" data-name="Tracciato 86097" d="M180.9,111.2v-6.873h.764v.507a1.933,1.933,0,0,1,2.89.032,2.75,2.75,0,0,1,.531,1.805,2.713,2.713,0,0,1-.6,1.805,2.043,2.043,0,0,1-1.561.7,1.88,1.88,0,0,1-1.262-.412V111.2Zm1.926-2.66a1.191,1.191,0,0,0,1.063-.507,2.119,2.119,0,0,0,.365-1.33,2.347,2.347,0,0,0-.332-1.33,1.134,1.134,0,0,0-1.03-.507,1.371,1.371,0,0,0-.8.222,1.675,1.675,0,0,0-.5.443v2.6a2.044,2.044,0,0,0,1.229.412" transform="translate(-120.815 -71.199)" fill="#fcfcfc"/>
    <path id="Tracciato_86098" data-name="Tracciato 86098" d="M199.288,109.019a2.659,2.659,0,0,1-2.126,0,2.211,2.211,0,0,1-.731-.6,3.573,3.573,0,0,1-.4-.792,2.818,2.818,0,0,1,0-1.71,2.462,2.462,0,0,1,.365-.792,1.81,1.81,0,0,1,.7-.6,2.659,2.659,0,0,1,2.126,0,1.92,1.92,0,0,1,.731.6,2.556,2.556,0,0,1,.4.792,3.814,3.814,0,0,1,.133.855,2.553,2.553,0,0,1-.133.855,3.574,3.574,0,0,1-.4.792,1.5,1.5,0,0,1-.664.6m-1.063-.412a1.312,1.312,0,0,0,1.129-.507,2.419,2.419,0,0,0,0-2.66,1.4,1.4,0,0,0-1.163-.538,1.213,1.213,0,0,0-1.1.507,2.6,2.6,0,0,0,0,2.66,1.3,1.3,0,0,0,1.129.538" transform="translate(-130.833 -71.268)" fill="#fcfcfc"/>
    <path id="Tracciato_86099" data-name="Tracciato 86099" d="M221.1,105.424V98.9h1.827a2.986,2.986,0,0,1,1.628.38,1.353,1.353,0,0,1,.6,1.235,1.215,1.215,0,0,1-.332.918,1.777,1.777,0,0,1-.9.507v.032a1.978,1.978,0,0,1,1.1.538,1.4,1.4,0,0,1,.432,1.077c0,1.235-.864,1.837-2.591,1.837Zm.8-3.737h.93a1.764,1.764,0,0,0,1.129-.285,1.049,1.049,0,0,0,.365-.855q0-1.045-1.495-1.045h-.963v2.185Zm0,3.1h.963a2.4,2.4,0,0,0,1.329-.285,1.025,1.025,0,0,0,.432-.887c0-.855-.565-1.3-1.694-1.3H221.9Z" transform="translate(-147.663 -67.578)" fill="#fcfcfc"/>
    <path id="Tracciato_86100" data-name="Tracciato 86100" d="M238.8,105.424V98.9h1.727a3.011,3.011,0,0,1,1.76.475,1.645,1.645,0,0,1,.664,1.394,1.828,1.828,0,0,1-.664,1.489,2.921,2.921,0,0,1-1.86.538h-.8v2.629Zm.8-3.294h.8q1.694,0,1.694-1.33c0-.855-.565-1.267-1.661-1.267h-.83Z" transform="translate(-159.484 -67.578)" fill="#fcfcfc"/>
    <path id="Tracciato_86101" data-name="Tracciato 86101" d="M255.6,105.424V98.9h3.521v.633H256.4v2.09h2.391v.633H256.4v2.5h2.79v.633H255.6Z" transform="translate(-170.704 -67.578)" fill="#fcfcfc"/>
    <path id="Tracciato_86102" data-name="Tracciato 86102" d="M271.2,105.424V98.9h1.86a2.837,2.837,0,0,1,1.661.443,1.483,1.483,0,0,1,.6,1.267,1.5,1.5,0,0,1-.531,1.235,2.431,2.431,0,0,1-1.4.475v.032a4.712,4.712,0,0,1,.731.823l1.694,2.249h-.963l-1.395-1.869a9.189,9.189,0,0,0-.8-.982.863.863,0,0,0-.565-.19H272v3.009h-.8Zm.8-3.642h1.03q1.495,0,1.495-1.14c0-.728-.5-1.108-1.561-1.108H272Z" transform="translate(-181.122 -67.578)" fill="#fcfcfc"/>
    <path id="Tracciato_86103" data-name="Tracciato 86103" d="M295.9,105.424V98.9h1.827a2.986,2.986,0,0,1,1.628.38,1.353,1.353,0,0,1,.6,1.235,1.215,1.215,0,0,1-.332.918,1.777,1.777,0,0,1-.9.507v.032a1.978,1.978,0,0,1,1.1.538,1.4,1.4,0,0,1,.432,1.077c0,1.235-.864,1.837-2.591,1.837Zm.764-3.737h.93a1.764,1.764,0,0,0,1.129-.285,1.049,1.049,0,0,0,.365-.855q0-1.045-1.495-1.045h-.963v2.185Zm0,3.1h.963a2.4,2.4,0,0,0,1.329-.285,1.025,1.025,0,0,0,.432-.887c0-.855-.565-1.3-1.694-1.3h-1.03Z" transform="translate(-197.618 -67.578)" fill="#fcfcfc"/>
    <path id="Tracciato_86104" data-name="Tracciato 86104" d="M313.328,109.241a1.541,1.541,0,0,1-1.03-.348,1.146,1.146,0,0,1-.4-.918,1.221,1.221,0,0,1,.233-.76,1.625,1.625,0,0,1,.631-.507,3.588,3.588,0,0,1,.83-.253,4.4,4.4,0,0,1,.93-.1h.233v-.443a1.008,1.008,0,0,0-.233-.76,1.037,1.037,0,0,0-.764-.222,1.913,1.913,0,0,0-1.3.507l-.4-.507a2.417,2.417,0,0,1,1.727-.633c1.129,0,1.694.507,1.694,1.552v2.185a4.792,4.792,0,0,0,.1,1.077h-.764a2.255,2.255,0,0,1-.066-.57,1.65,1.65,0,0,1-1.428.7m.133-.633a1.65,1.65,0,0,0,1.329-.665V106.9h-.233c-1.229,0-1.827.348-1.827,1.077a.579.579,0,0,0,.233.507.973.973,0,0,0,.5.127" transform="translate(-208.304 -71.268)" fill="#fcfcfc"/>
    <path id="Tracciato_86105" data-name="Tracciato 86105" d="M327.8,109.046v-4.719h.764v.665a1.956,1.956,0,0,1,1.594-.792,1.326,1.326,0,0,1,1.1.412,1.637,1.637,0,0,1,.365,1.077v3.357h-.764v-3.23c0-.633-.3-.95-.864-.95a1.846,1.846,0,0,0-1.428.855v3.325Z" transform="translate(-218.923 -71.199)" fill="#fcfcfc"/>
    <path id="Tracciato_86106" data-name="Tracciato 86106" d="M345.159,109.241a2.077,2.077,0,0,1-1.661-.728,2.658,2.658,0,0,1-.6-1.742,2.486,2.486,0,0,1,.664-1.805,2.16,2.16,0,0,1,1.628-.665,2.49,2.49,0,0,1,1.528.475l-.365.538a2.031,2.031,0,0,0-1.163-.38,1.213,1.213,0,0,0-1.1.507,2.6,2.6,0,0,0,0,2.66,1.316,1.316,0,0,0,1.1.538,1.914,1.914,0,0,0,1.2-.38l.3.538a2.475,2.475,0,0,1-1.528.443" transform="translate(-229.008 -71.268)" fill="#fcfcfc"/>
    <path id="Tracciato_86107" data-name="Tracciato 86107" d="M358.228,109.241a1.541,1.541,0,0,1-1.03-.348,1.146,1.146,0,0,1-.4-.918,1.221,1.221,0,0,1,.233-.76,1.625,1.625,0,0,1,.631-.507,3.588,3.588,0,0,1,.83-.253,4.4,4.4,0,0,1,.93-.1h.232v-.443a1.008,1.008,0,0,0-.232-.76,1.037,1.037,0,0,0-.764-.222,1.913,1.913,0,0,0-1.3.507l-.4-.507a2.417,2.417,0,0,1,1.727-.633c1.129,0,1.694.507,1.694,1.552v2.185a4.79,4.79,0,0,0,.1,1.077h-.7a2.255,2.255,0,0,1-.066-.57,1.857,1.857,0,0,1-1.495.7m.133-.633a1.65,1.65,0,0,0,1.329-.665V106.9h-.233c-1.229,0-1.827.348-1.827,1.077a.579.579,0,0,0,.232.507.83.83,0,0,0,.5.127" transform="translate(-238.291 -71.268)" fill="#fcfcfc"/>
  </g>
</svg>
