<svg xmlns="http://www.w3.org/2000/svg" xmlns:xlink="http://www.w3.org/1999/xlink" width="84" height="84" viewBox="0 0 84 84">
  <defs>
    <filter id="Path_86761" x="41.403" y="40.369" width="42.164" height="48.659" filterUnits="userSpaceOnUse">
      <feOffset dy="3" input="SourceAlpha"/>
      <feGaussianBlur stdDeviation="3" result="blur"/>
      <feFlood flood-opacity="0.051"/>
      <feComposite operator="in" in2="blur"/>
      <feComposite in="SourceGraphic"/>
    </filter>
    <filter id="Rectangle_12243" x="-5.168" y="-23.135" width="95.503" height="116.675" filterUnits="userSpaceOnUse">
      <feOffset dy="3" input="SourceAlpha"/>
      <feGaussianBlur stdDeviation="3" result="blur-2"/>
      <feFlood flood-opacity="0.051"/>
      <feComposite operator="in" in2="blur-2"/>
      <feComposite in="SourceGraphic"/>
    </filter>
    <clipPath id="clip-path">
      <rect id="Rectangle_12244" data-name="Rectangle 12244" width="84" height="84" transform="translate(-18183.766 -17552.686)" fill="#fff" stroke="#707070" stroke-width="1"/>
    </clipPath>
    <filter id="Union_44" x="11.549" y="10.787" width="71.404" height="75.318" filterUnits="userSpaceOnUse">
      <feOffset dy="3" input="SourceAlpha"/>
      <feGaussianBlur stdDeviation="3" result="blur-3"/>
      <feFlood flood-opacity="0.051"/>
      <feComposite operator="in" in2="blur-3"/>
      <feComposite in="SourceGraphic"/>
    </filter>
  </defs>
  <g id="Mask_Group_37" data-name="Mask Group 37" transform="translate(18183.766 17552.686)" clip-path="url(#clip-path)">
    <g id="Group_29966" data-name="Group 29966" transform="translate(-18180.074 -17552.613)">
      <g id="Group_29961" data-name="Group 29961" transform="translate(11.899 8.888)">
        <g id="Group_29960" data-name="Group 29960" transform="translate(0 0)">
          <g transform="matrix(1, 0, 0, 1, -15.59, -8.96)" filter="url(#Union_44)">
            <path id="Union_44-2" data-name="Union 44" d="M46.828,54.459,31.385,36.993a20.247,20.247,0,0,1-11.2,3.39h0A20.168,20.168,0,1,1,35.27,33.622L50.793,51.177a2.449,2.449,0,0,1-.314,3.528,2.678,2.678,0,0,1-1.147.554l-.037.007-.016,0a2.71,2.71,0,0,1-.51.049A2.578,2.578,0,0,1,46.828,54.459ZM4.867,13.82A16.582,16.582,0,1,0,20.2,3.59,16.53,16.53,0,0,0,4.867,13.82Z" transform="translate(21.55 17.79)" fill="#005157" stroke="#005157" stroke-width="2"/>
          </g>
          <g id="Rectangle_2344_2_" transform="translate(10.554 0) rotate(5)">
            <path id="Path_86763" data-name="Path 86763" d="M.686,0h0a.7.7,0,0,1,.686.685V4.707a.7.7,0,0,1-.686.685h0A.7.7,0,0,1,0,4.707V.685A.7.7,0,0,1,.686,0Z" transform="translate(0 0)" fill="#005157" stroke="#acb5b5" stroke-width="1"/>
          </g>
          <g id="Rectangle_2345_2_" transform="translate(3.549 2.208) rotate(5)">
            <path id="Path_86764" data-name="Path 86764" d="M.206.206h0a.663.663,0,0,1,.96,0L4,3.039A.663.663,0,0,1,4,4H4a.663.663,0,0,1-.96,0L.206,1.165A.663.663,0,0,1,.206.206Z" transform="translate(0 0)" fill="#005157" stroke="#acb5b5" stroke-width="1"/>
          </g>
          <g id="Rectangle_2346_2_" transform="translate(0.119 9.178) rotate(5)">
            <path id="Path_86765" data-name="Path 86765" d="M0,.685H0A.7.7,0,0,1,.686,0H4.707a.7.7,0,0,1,.686.685h0a.7.7,0,0,1-.686.685H.686A.7.7,0,0,1,0,.685Z" transform="translate(0 0)" fill="#005157" stroke="#acb5b5" stroke-width="1"/>
          </g>
        </g>
      </g>
      <g id="Group_29962" data-name="Group 29962" transform="translate(0 0)">
        <g id="Group_29967" data-name="Group 29967" transform="matrix(0.998, 0.07, -0.07, 0.998, 54.101, 0)">
          <path id="Path_86767" data-name="Path 86767" d="M2.283.105h0a1.7,1.7,0,1,0,1,2.178,1.7,1.7,0,0,0-1-2.178" transform="translate(0 12.962)" fill="#00ae65"/>
          <path id="Path_86768" data-name="Path 86768" d="M7.108.988A1.546,1.546,0,0,0,6.759.741,5.268,5.268,0,0,0,.71,1.2a1.7,1.7,0,0,0,.5,2.9,1.727,1.727,0,0,0,1.686-.3A1.7,1.7,0,1,1,4.422,6.747a6.205,6.205,0,0,0-4.25,3.726s-.056.111-.1.223a.656.656,0,0,0-.033.073c-.192.53.352,1.224,1.265,1.554s1.7.262,1.89-.268l.159-.406a2.9,2.9,0,0,1,2-1.647C9.01,8.96,10.588,4.173,7.108.988" transform="translate(1.261 0)" fill="#00ae65"/>
        </g>
        <g id="Group_29964" data-name="Group 29964" transform="matrix(0.966, -0.259, 0.259, 0.966, 66.356, 32.132)">
          <path id="Path_86769" data-name="Path 86769" d="M1.934.253h0a1.2,1.2,0,1,0,.207,1.68A1.2,1.2,0,0,0,1.934.253" transform="translate(0 8.066)" fill="#00ae65"/>
          <path id="Path_86770" data-name="Path 86770" d="M6.953,1.5a1.1,1.1,0,0,0-.182-.241A3.72,3.72,0,0,0,2.6.268a1.2,1.2,0,0,0-.288,2.057,1.22,1.22,0,0,0,1.2.159,1.2,1.2,0,1,1,.4,2.315A4.381,4.381,0,0,0,.252,6.393s-.061.063-.115.129A.468.468,0,0,0,.1,6.563c-.243.316-.026.9.518,1.317s1.086.54,1.329.225l.194-.239a2.047,2.047,0,0,1,1.7-.679A3.654,3.654,0,0,0,6.953,1.5" transform="translate(1.666 0)" fill="#00ae65"/>
        </g>
        <g id="Group_29965" data-name="Group 29965" transform="translate(0 36.39) rotate(-7)">
          <path id="Path_86771" data-name="Path 86771" d="M.26.329h0A1,1,0,1,0,1.677.26,1,1,0,0,0,.26.329" transform="translate(6.467 6.05)" fill="#00ae65"/>
          <path id="Path_86772" data-name="Path 86772" d="M1.446.371a.932.932,0,0,0-.213.137A3.117,3.117,0,0,0,.147,3.927a1,1,0,0,0,1.7.369A1.022,1.022,0,0,0,2.054,3.3a1,1,0,1,1,1.958-.186,3.669,3.669,0,0,0,1.1,3.155s.049.055.1.1c.011.011.021.023.032.034.249.223.75.078,1.132-.35s.519-.874.27-1.1l-.188-.177A1.715,1.715,0,0,1,6,3.326,3.06,3.06,0,0,0,1.446.371" transform="translate(0 0)" fill="#00ae65"/>
        </g>
      </g>
    </g>
  </g>
</svg>
