<svg xmlns="http://www.w3.org/2000/svg" width="101" height="73" viewBox="0 0 101 73">
    <g fill="none" fill-rule="evenodd">
        <g>
            <g>
                <g>
                    <g>
                        <g>
                            <path fill="#CEDDDD" fill-rule="nonzero" d="M.962 66.416c-.512 1.249-.328 2.682.48 3.49.808.807 2.241.991 3.49.48 0 0 39.166-15.147 41.723-17.704l1.076-1.076c2.378-2.378-1.96-10.571-9.69-18.3-7.729-7.73-15.92-12.066-18.299-9.69-.04.04-.24.242-1.077 1.078C16.11 27.25.962 66.416.962 66.416" transform="translate(-634 -273) translate(418 236) translate(216 38) translate(13)"/>
                            <path fill="#FFF" fill-rule="nonzero" d="M38.042 33.306c-7.73-7.73-15.921-12.067-18.3-9.69-2.379 2.379 1.96 10.572 9.688 18.302 7.728 7.728 15.923 12.067 18.301 9.687 2.378-2.378-1.96-10.571-9.689-18.3" transform="translate(-634 -273) translate(418 236) translate(216 38) translate(13)"/>
                            <path stroke="#2B747F" stroke-linecap="round" stroke-width="1.6" d="M.962 66.416c-.512 1.249-.328 2.682.48 3.49.808.807 2.241.991 3.49.48 0 0 39.166-15.147 41.723-17.704l1.076-1.076c2.378-2.378-1.96-10.571-9.69-18.3-7.729-7.73-15.92-12.066-18.299-9.69-.04.04-.24.242-1.077 1.078C16.11 27.25.962 66.416.962 66.416zM29.43 41.917c7.729 7.73 15.922 12.067 18.3 9.689M29.43 41.917c-7.729-7.728-12.066-15.921-9.688-18.3M32.292 44.61v14.813M24.516 36.383v26.239M16.697 28.187v37.575M9.086 45.946v22.821" transform="translate(-634 -273) translate(418 236) translate(216 38) translate(13)"/>
                            <path stroke="#00AE65" stroke-linecap="round" stroke-width="1.6" d="M42.66 5.286c0 2.522-2.03 4.567-4.536 4.567s-4.536-2.045-4.536-4.567c0-2.522 2.03-4.567 4.536-4.567s4.536 2.045 4.536 4.567z" transform="translate(-634 -273) translate(418 236) translate(216 38) translate(13)"/>
                            <path stroke="#2B747F" stroke-linecap="round" stroke-width="1.6" d="M38.01 43.994c5.9-7.326 15.22-13.761 22.836-9.134 6.423 3.9 3.933 9.958-.127 10.592-4.06.635-6.343-2.917-5.962-4.504" transform="translate(-634 -273) translate(418 236) translate(216 38) translate(13)"/>
                            <path fill="#CEDDDD" fill-rule="nonzero" d="M66.177 14.08L64.636 19.389 68.16 23.783 62.22 24.18 59.241 28.505 56.968 23.59 51.886 21.575 56.23 18.338 56.415 12.408 60.92 15.791z" transform="translate(-634 -273) translate(418 236) translate(216 38) translate(13)"/>
                            <path stroke="#2B747F" stroke-linecap="round" stroke-linejoin="round" stroke-width="1.6" d="M66.177 14.08L64.636 19.389 68.16 23.783 62.22 24.18 59.241 28.505 56.968 23.59 51.886 21.575 56.23 18.338 56.415 12.408 60.92 15.791z" transform="translate(-634 -273) translate(418 236) translate(216 38) translate(13)"/>
                            <path stroke="#2B747F" stroke-linecap="round" stroke-width="1.6" d="M26.505 30.576c4.016-7.651 6.554-19.561-.674-21.597-4.502-1.27-7.612 1.141-7.612 4.567 0 3.425 4.188 4.948 6.09 3.044M46.707 1.679c4.155 7.443 1.49 16.845-5.954 21.002" transform="translate(-634 -273) translate(418 236) translate(216 38) translate(13)"/>
                        </g>
                    </g>
                    <g stroke="#2B747F" stroke-width="2">
                        <path d="M0 0l2.828 2.828M5.657 5.657l2.828 2.828M5.657 2.828L8.485 0M0 8.485l2.828-2.828" transform="translate(-634 -273) translate(418 236) translate(216 38) translate(.757 22.757)"/>
                    </g>
                    <path stroke="#2B747F" stroke-width="2" d="M84 57v4M84 65v4M86 63h4M78 63h4" transform="translate(-634 -273) translate(418 236) translate(216 38)"/>
                    <path stroke="#00AE65" stroke-width="2" d="M98 4v6M95 7h6" transform="translate(-634 -273) translate(418 236) translate(216 38)"/>
                </g>
            </g>
        </g>
    </g>
</svg>
